G04*
G04 #@! TF.GenerationSoftware,Altium Limited,Altium Designer,19.0.12 (326)*
G04*
G04 Layer_Physical_Order=1*
G04 Layer_Color=255*
%FSLAX25Y25*%
%MOIN*%
G70*
G01*
G75*
%ADD19R,0.05709X0.02638*%
%ADD20R,0.06496X0.13504*%
%ADD21R,0.10000X0.05000*%
%ADD22R,0.10799X0.08500*%
%ADD23R,0.09449X0.29528*%
%ADD24C,0.00984*%
%ADD25C,0.01500*%
%ADD26C,0.11600*%
%ADD27C,0.02362*%
%ADD28C,0.05000*%
D19*
X98524Y77736D02*
D03*
Y72736D02*
D03*
Y67736D02*
D03*
Y62736D02*
D03*
Y57736D02*
D03*
Y52736D02*
D03*
Y47736D02*
D03*
Y42736D02*
D03*
X118012D02*
D03*
Y47736D02*
D03*
Y52736D02*
D03*
Y57736D02*
D03*
Y62736D02*
D03*
Y67736D02*
D03*
Y72736D02*
D03*
Y77736D02*
D03*
D20*
X50787Y48465D02*
D03*
Y90905D02*
D03*
D21*
X64291Y75591D02*
D03*
Y63779D02*
D03*
D22*
X83370Y46669D02*
D03*
Y64071D02*
D03*
Y98071D02*
D03*
Y80669D02*
D03*
D23*
X125591Y98819D02*
D03*
X101181D02*
D03*
D24*
X111024Y71260D02*
X111365D01*
X111516Y71109D01*
X118012Y72736D02*
X118051Y72776D01*
X118012Y57736D02*
X125453D01*
X127165Y59449D01*
X100433Y98071D02*
X101181Y98819D01*
X83370Y98071D02*
X100433D01*
X101705Y41996D02*
X101968Y41732D01*
X99264Y41996D02*
X101705D01*
X98524Y42736D02*
X99264Y41996D01*
X98524Y55512D02*
Y57736D01*
Y52736D02*
Y55512D01*
X94488Y55905D02*
X94882Y55512D01*
X98524D01*
Y47736D02*
Y52736D01*
X101181Y98819D02*
X102428Y97572D01*
Y83155D02*
Y97572D01*
Y83155D02*
X105020Y80564D01*
Y69909D02*
Y80564D01*
X102886Y67776D02*
X105020Y69909D01*
X98563Y67776D02*
X102886D01*
X98524Y67736D02*
X98563Y67776D01*
X117973Y72697D02*
X118012Y72736D01*
X113103Y72697D02*
X117973D01*
X111516Y71109D02*
X113103Y72697D01*
X111516Y54909D02*
Y71109D01*
Y54909D02*
X113649Y52776D01*
X117973D01*
X118012Y52736D01*
Y62736D02*
Y67736D01*
D25*
X83370Y64071D02*
Y78347D01*
X79870Y50169D02*
X83370Y46669D01*
X77901Y50169D02*
X79870D01*
X68132Y59938D02*
X77901Y50169D01*
X68132Y59938D02*
Y62029D01*
X66382Y63779D02*
X68132Y62029D01*
X64291Y63779D02*
X66382D01*
D26*
X49213Y106299D02*
D03*
X127953Y49213D02*
D03*
D27*
X111024Y71260D02*
D03*
X127165Y59449D02*
D03*
X64173Y75734D02*
D03*
X125870Y99606D02*
D03*
X101968Y41732D02*
D03*
X94488Y55905D02*
D03*
X117716Y41732D02*
D03*
D28*
X83370Y78347D02*
D03*
M02*
