G04*
G04 #@! TF.GenerationSoftware,Altium Limited,Altium Designer,19.0.14 (431)*
G04*
G04 Layer_Physical_Order=2*
G04 Layer_Color=16711680*
%FSLAX25Y25*%
%MOIN*%
G70*
G01*
G75*
%ADD18R,0.11811X0.03937*%
%ADD19R,0.15748X0.07874*%
%ADD20C,0.03937*%
%ADD21O,0.19685X0.05906*%
%ADD22C,0.18110*%
%ADD23C,0.05000*%
D18*
X41732Y-16535D02*
D03*
Y-24409D02*
D03*
Y-40157D02*
D03*
Y-32283D02*
D03*
Y40157D02*
D03*
Y32283D02*
D03*
Y16535D02*
D03*
Y24409D02*
D03*
D19*
X59449Y-6692D02*
D03*
Y-50001D02*
D03*
Y50001D02*
D03*
Y6692D02*
D03*
D20*
X-9933Y25976D02*
X42035D01*
X-24894Y42237D02*
X-19819D01*
X-30799D02*
X-24894D01*
X38098Y-39772D02*
X42035D01*
X4362Y15465D02*
X40362D01*
X8362Y-37402D02*
X35728D01*
X38098Y-39772D01*
X31898Y-31898D02*
X42035D01*
X-21654Y-10465D02*
X-19258D01*
X-26862D02*
X-21654D01*
X28819Y-28819D02*
X31898Y-31898D01*
X-904Y-28819D02*
X28819D01*
X-19258Y-10465D02*
X-904Y-28819D01*
X-19258Y-10465D02*
X-15051D01*
X-21654D02*
Y-10118D01*
X36945Y33850D02*
X42035D01*
X34760Y-24024D02*
X42035D01*
X29862Y-19126D02*
X34760Y-24024D01*
X42232Y45071D02*
X42429Y45268D01*
X42232Y41724D02*
Y45071D01*
X42232Y41724D02*
X42232Y41724D01*
X42035Y41724D02*
X42232D01*
X42035Y-16150D02*
Y-11716D01*
X29862Y-19126D02*
Y4874D01*
Y33850D02*
X36898D01*
X36921Y33874D01*
X36945Y33850D01*
X42035D02*
X42035Y33850D01*
X-24894Y42237D02*
X-9933Y25976D01*
D21*
X-25591Y42639D02*
D03*
X9843Y15473D02*
D03*
X-51181D02*
D03*
X-21654Y-10118D02*
D03*
X13780Y-37284D02*
D03*
X-47244D02*
D03*
D22*
X-70874Y69990D02*
D03*
X70872D02*
D03*
Y-69988D02*
D03*
X-70874D02*
D03*
D23*
X42429Y45268D02*
D03*
X42035Y-11716D02*
D03*
X40362Y13874D02*
D03*
X29862Y4874D02*
D03*
Y33850D02*
D03*
M02*
