G04*
G04 #@! TF.GenerationSoftware,Altium Limited,Altium Designer,19.0.14 (431)*
G04*
G04 Layer_Color=65535*
%FSLAX25Y25*%
%MOIN*%
G70*
G01*
G75*
%ADD10C,0.00600*%
%ADD11C,0.03150*%
%ADD12C,0.01000*%
D10*
X45972Y22433D02*
Y24402D01*
X44004Y22827D02*
X45972Y22433D01*
X44004Y22827D02*
X45972Y22433D01*
X40362Y29520D02*
X45972Y22433D01*
X60362Y-52126D02*
Y-45626D01*
Y-52126D02*
X69362D01*
X68362Y-53126D02*
X69362Y-52126D01*
X68362Y-53126D02*
X69362Y-52126D01*
X68362Y-51126D02*
X69362Y-52126D01*
X68362Y52874D02*
X69362Y53874D01*
X68362Y54874D02*
X69362Y53874D01*
X68362Y54874D02*
X69362Y53874D01*
X60362D02*
X69362D01*
X60362Y47374D02*
Y53874D01*
D11*
X49613Y35158D02*
X69291D01*
Y44998D01*
X66012Y48278D01*
X62732D01*
X59452Y44998D01*
Y35158D01*
Y44998D01*
X56172Y48278D01*
X52892D01*
X49613Y44998D01*
Y35158D01*
X69291Y-41221D02*
X56172D01*
X49613Y-34661D01*
X56172Y-28101D01*
X69291D01*
X59452D01*
Y-41221D01*
D12*
X32494Y19677D02*
X38492D01*
Y22676D01*
X37492Y23676D01*
X36493D01*
X35493Y22676D01*
Y19677D01*
Y22676D01*
X34493Y23676D01*
X33494D01*
X32494Y22676D01*
Y19677D01*
X34493Y25675D02*
X38492D01*
X36493D01*
X35493Y26675D01*
X34493Y27675D01*
Y28674D01*
Y32673D02*
Y34672D01*
X35493Y35672D01*
X38492D01*
Y32673D01*
X37492Y31673D01*
X36493Y32673D01*
Y35672D01*
X38492Y37671D02*
X32494D01*
X36493D02*
X34493Y40670D01*
X36493Y37671D02*
X38492Y40670D01*
Y46668D02*
Y44669D01*
X37492Y43669D01*
X35493D01*
X34493Y44669D01*
Y46668D01*
X35493Y47668D01*
X36493D01*
Y43669D01*
M02*
