G04*
G04 #@! TF.GenerationSoftware,Altium Limited,Altium Designer,19.0.14 (431)*
G04*
G04 Layer_Physical_Order=1*
G04 Layer_Color=255*
%FSLAX25Y25*%
%MOIN*%
G70*
G01*
G75*
%ADD18R,0.11811X0.03937*%
%ADD19R,0.15748X0.07874*%
%ADD20C,0.03937*%
%ADD21O,0.19685X0.05906*%
%ADD22C,0.18110*%
%ADD23C,0.05000*%
G36*
X73088Y83982D02*
X75250Y83463D01*
X77304Y82613D01*
X79199Y81451D01*
X80890Y80007D01*
X82333Y78317D01*
X83495Y76421D01*
X84346Y74367D01*
X84865Y72206D01*
X85039Y69990D01*
X84865Y67773D01*
X84346Y65612D01*
X83495Y63558D01*
X82333Y61663D01*
X80890Y59972D01*
X80267Y59440D01*
X79917Y59082D01*
X79820Y59000D01*
X78713Y57704D01*
X77823Y56251D01*
X77170Y54676D01*
X76772Y53019D01*
X76639Y51320D01*
X76656D01*
Y-51319D01*
X76639D01*
X76772Y-53018D01*
X77170Y-54675D01*
X77823Y-56249D01*
X78713Y-57702D01*
X79820Y-58998D01*
X79917Y-59081D01*
X80267Y-59439D01*
X80890Y-59971D01*
X82333Y-61661D01*
X83495Y-63557D01*
X84346Y-65610D01*
X84865Y-67772D01*
X85039Y-69988D01*
X84865Y-72204D01*
X84346Y-74366D01*
X83495Y-76420D01*
X82333Y-78315D01*
X80890Y-80006D01*
X79199Y-81450D01*
X77304Y-82611D01*
X75250Y-83462D01*
X73088Y-83981D01*
X70872Y-84155D01*
X68656Y-83981D01*
X66494Y-83462D01*
X64441Y-82611D01*
X62545Y-81450D01*
X60855Y-80006D01*
X59411Y-78315D01*
X58249Y-76420D01*
X57399Y-74366D01*
X56880Y-72204D01*
X56817Y-71407D01*
X56817D01*
X56734Y-70913D01*
X56725Y-70800D01*
X56327Y-69143D01*
X55675Y-67569D01*
X54785Y-66116D01*
X53678Y-64820D01*
X52382Y-63713D01*
X50929Y-62823D01*
X49355Y-62171D01*
X47697Y-61773D01*
X45999Y-61639D01*
Y-61656D01*
X-46000D01*
Y-61639D01*
X-47699Y-61773D01*
X-49356Y-62171D01*
X-50931Y-62823D01*
X-52384Y-63713D01*
X-53680Y-64820D01*
X-54787Y-66116D01*
X-55677Y-67569D01*
X-56329Y-69143D01*
X-56727Y-70800D01*
X-56736Y-70913D01*
X-56819Y-71407D01*
X-56819D01*
X-56881Y-72204D01*
X-57401Y-74366D01*
X-58251Y-76420D01*
X-59413Y-78315D01*
X-60856Y-80006D01*
X-62547Y-81450D01*
X-64442Y-82611D01*
X-66496Y-83462D01*
X-68658Y-83981D01*
X-70874Y-84155D01*
X-73090Y-83981D01*
X-75252Y-83462D01*
X-77306Y-82611D01*
X-79201Y-81450D01*
X-80892Y-80006D01*
X-82335Y-78315D01*
X-83497Y-76420D01*
X-84347Y-74366D01*
X-84866Y-72204D01*
X-85041Y-69988D01*
X-84866Y-67772D01*
X-84347Y-65610D01*
X-83497Y-63557D01*
X-82335Y-61661D01*
X-80892Y-59971D01*
X-80269Y-59439D01*
X-80269Y-59439D01*
X-79918Y-59081D01*
X-79822Y-58998D01*
X-78715Y-57702D01*
X-77824Y-56249D01*
X-77172Y-54675D01*
X-76774Y-53018D01*
X-76641Y-51319D01*
X-76658D01*
Y51320D01*
X-76641D01*
X-76774Y53019D01*
X-77172Y54676D01*
X-77824Y56251D01*
X-78715Y57704D01*
X-79822Y59000D01*
X-79918Y59082D01*
X-80269Y59440D01*
X-80269Y59440D01*
X-80892Y59972D01*
X-82335Y61663D01*
X-83497Y63558D01*
X-84347Y65612D01*
X-84866Y67773D01*
X-85041Y69990D01*
X-84866Y72206D01*
X-84347Y74367D01*
X-83497Y76421D01*
X-82335Y78317D01*
X-80892Y80007D01*
X-79201Y81451D01*
X-77306Y82613D01*
X-75252Y83463D01*
X-73090Y83982D01*
X-70874Y84157D01*
X-68658Y83982D01*
X-66496Y83463D01*
X-64442Y82613D01*
X-62547Y81451D01*
X-60856Y80007D01*
X-59413Y78317D01*
X-58251Y76421D01*
X-57401Y74367D01*
X-56881Y72206D01*
X-56819Y71409D01*
X-56819D01*
X-56736Y70914D01*
X-56727Y70802D01*
X-56329Y69145D01*
X-55677Y67570D01*
X-54787Y66117D01*
X-53680Y64821D01*
X-52384Y63715D01*
X-50931Y62824D01*
X-49356Y62172D01*
X-47699Y61774D01*
X-46000Y61641D01*
Y61658D01*
X45999D01*
Y61641D01*
X47697Y61774D01*
X49355Y62172D01*
X50929Y62824D01*
X52382Y63715D01*
X53678Y64821D01*
X54785Y66117D01*
X55675Y67570D01*
X56327Y69145D01*
X56725Y70802D01*
X56734Y70914D01*
X56817Y71409D01*
X56817D01*
X56880Y72206D01*
X57399Y74367D01*
X58249Y76421D01*
X59411Y78317D01*
X60855Y80007D01*
X62545Y81451D01*
X64441Y82613D01*
X66494Y83463D01*
X68656Y83982D01*
X70872Y84157D01*
X73088Y83982D01*
D02*
G37*
%LPC*%
G36*
X70872Y79880D02*
X68943Y79690D01*
X67087Y79127D01*
X65377Y78213D01*
X63879Y76983D01*
X62649Y75484D01*
X61735Y73774D01*
X61172Y71919D01*
X60982Y69990D01*
X61172Y68060D01*
X61735Y66205D01*
X62649Y64495D01*
X63879Y62996D01*
X65377Y61766D01*
X67087Y60852D01*
X68943Y60290D01*
X70872Y60100D01*
X72802Y60290D01*
X74657Y60852D01*
X76367Y61766D01*
X77865Y62996D01*
X79096Y64495D01*
X80010Y66205D01*
X80572Y68060D01*
X80762Y69990D01*
X80572Y71919D01*
X80010Y73774D01*
X79096Y75484D01*
X77865Y76983D01*
X76367Y78213D01*
X74657Y79127D01*
X72802Y79690D01*
X70872Y79880D01*
D02*
G37*
G36*
X-70874D02*
X-72803Y79690D01*
X-74659Y79127D01*
X-76369Y78213D01*
X-77867Y76983D01*
X-79097Y75484D01*
X-80011Y73774D01*
X-80574Y71919D01*
X-80764Y69990D01*
X-80574Y68060D01*
X-80011Y66205D01*
X-79097Y64495D01*
X-77867Y62996D01*
X-76369Y61766D01*
X-74659Y60852D01*
X-72803Y60290D01*
X-70874Y60100D01*
X-68945Y60290D01*
X-67089Y60852D01*
X-65379Y61766D01*
X-63881Y62996D01*
X-62651Y64495D01*
X-61737Y66205D01*
X-61174Y68060D01*
X-60984Y69990D01*
X-61174Y71919D01*
X-61737Y73774D01*
X-62651Y75484D01*
X-63881Y76983D01*
X-65379Y78213D01*
X-67089Y79127D01*
X-68945Y79690D01*
X-70874Y79880D01*
D02*
G37*
G36*
X42929Y48732D02*
Y45768D01*
X45893D01*
X45839Y46181D01*
X45486Y47033D01*
X44925Y47764D01*
X44194Y48325D01*
X43343Y48678D01*
X42929Y48732D01*
D02*
G37*
G36*
X41929D02*
X41515Y48678D01*
X40664Y48325D01*
X39933Y47764D01*
X39372Y47033D01*
X39019Y46181D01*
X38965Y45768D01*
X41929D01*
Y48732D01*
D02*
G37*
G36*
X45893Y44768D02*
X42929D01*
Y41803D01*
X43343Y41858D01*
X44194Y42211D01*
X44925Y42772D01*
X45486Y43503D01*
X45839Y44354D01*
X45893Y44768D01*
D02*
G37*
G36*
X41929D02*
X38965D01*
X39019Y44354D01*
X39372Y43503D01*
X39933Y42772D01*
X40664Y42211D01*
X41515Y41858D01*
X41929Y41803D01*
Y44768D01*
D02*
G37*
G36*
X-20571Y49166D02*
X-30610D01*
X-31884Y49041D01*
X-33108Y48669D01*
X-34237Y48066D01*
X-35226Y47254D01*
X-36038Y46265D01*
X-36641Y45137D01*
X-37012Y43912D01*
X-37138Y42639D01*
X-37012Y41365D01*
X-36641Y40141D01*
X-36038Y39012D01*
X-35226Y38023D01*
X-34237Y37211D01*
X-33108Y36608D01*
X-31884Y36237D01*
X-30610Y36111D01*
X-20571D01*
X-19297Y36237D01*
X-18073Y36608D01*
X-16944Y37211D01*
X-15955Y38023D01*
X-15144Y39012D01*
X-14540Y40141D01*
X-14169Y41365D01*
X-14043Y42639D01*
X-14169Y43912D01*
X-14540Y45137D01*
X-15144Y46265D01*
X-15955Y47254D01*
X-16944Y48066D01*
X-18073Y48669D01*
X-19297Y49041D01*
X-20571Y49166D01*
D02*
G37*
G36*
X-44291Y19460D02*
X-50681D01*
Y15973D01*
X-40370D01*
X-40440Y16505D01*
X-40839Y17467D01*
X-41472Y18293D01*
X-42298Y18926D01*
X-43259Y19324D01*
X-44291Y19460D01*
D02*
G37*
G36*
X-51681D02*
X-58071D01*
X-59103Y19324D01*
X-60064Y18926D01*
X-60890Y18293D01*
X-61524Y17467D01*
X-61922Y16505D01*
X-61992Y15973D01*
X-51681D01*
Y19460D01*
D02*
G37*
G36*
X68524Y23032D02*
X51201D01*
Y13584D01*
X68524D01*
Y23032D01*
D02*
G37*
G36*
X-40370Y14973D02*
X-50681D01*
Y11486D01*
X-44291D01*
X-43259Y11622D01*
X-42298Y12021D01*
X-41472Y12654D01*
X-40839Y13480D01*
X-40440Y14442D01*
X-40370Y14973D01*
D02*
G37*
G36*
X-51681D02*
X-61992D01*
X-61922Y14442D01*
X-61524Y13480D01*
X-60890Y12654D01*
X-60064Y12021D01*
X-59103Y11622D01*
X-58071Y11486D01*
X-51681D01*
Y14973D01*
D02*
G37*
G36*
X40362Y17190D02*
X39504Y17077D01*
X38704Y16746D01*
X38018Y16219D01*
X37491Y15532D01*
X37159Y14732D01*
X37046Y13874D01*
X37159Y13016D01*
X37491Y12216D01*
X37582Y12096D01*
Y11221D01*
X35452D01*
Y5709D01*
X41091D01*
X41271Y5685D01*
X42145D01*
X42326Y5709D01*
X48838D01*
Y11221D01*
X43142D01*
Y12096D01*
X43234Y12216D01*
X43565Y13016D01*
X43678Y13874D01*
X43565Y14732D01*
X43234Y15532D01*
X42707Y16219D01*
X42020Y16746D01*
X41220Y17077D01*
X40362Y17190D01*
D02*
G37*
G36*
X29862Y37166D02*
X29004Y37053D01*
X28204Y36722D01*
X27518Y36195D01*
X26991Y35508D01*
X26659Y34709D01*
X26546Y33850D01*
X26659Y32992D01*
X26991Y32193D01*
X27082Y32073D01*
Y6652D01*
X26991Y6532D01*
X26659Y5732D01*
X26546Y4874D01*
X26659Y4016D01*
X26991Y3216D01*
X27518Y2529D01*
X28204Y2002D01*
X29004Y1671D01*
X29862Y1558D01*
X30202Y1603D01*
X33180Y-1374D01*
X33755Y-1816D01*
X34426Y-2094D01*
X35145Y-2189D01*
X42145D01*
X42326Y-2165D01*
X48838D01*
Y3347D01*
X42326D01*
X42145Y3371D01*
X36297D01*
X32828Y6840D01*
X32642Y6982D01*
Y32073D01*
X32734Y32193D01*
X33065Y32992D01*
X33178Y33850D01*
X33065Y34709D01*
X32734Y35508D01*
X32207Y36195D01*
X31520Y36722D01*
X30720Y37053D01*
X29862Y37166D01*
D02*
G37*
G36*
X49051Y-4315D02*
X42645D01*
Y-6783D01*
X49051D01*
Y-4315D01*
D02*
G37*
G36*
X41645D02*
X35240D01*
Y-6783D01*
X41645D01*
Y-4315D01*
D02*
G37*
G36*
X49051Y-7783D02*
X42145D01*
X35240D01*
Y-10251D01*
X38403D01*
X38681Y-10667D01*
X38625Y-10803D01*
X38571Y-11216D01*
X45499D01*
X45445Y-10803D01*
X45389Y-10667D01*
X45666Y-10251D01*
X49051D01*
Y-7783D01*
D02*
G37*
G36*
X45499Y-12217D02*
X42535D01*
Y-15181D01*
X42949Y-15126D01*
X43800Y-14774D01*
X44531Y-14213D01*
X45092Y-13482D01*
X45445Y-12630D01*
X45499Y-12217D01*
D02*
G37*
G36*
X41535D02*
X38571D01*
X38625Y-12630D01*
X38978Y-13482D01*
X39539Y-14213D01*
X40270Y-14774D01*
X41121Y-15126D01*
X41535Y-15181D01*
Y-12217D01*
D02*
G37*
G36*
X-16634Y-3591D02*
X-26673D01*
X-27947Y-3716D01*
X-29171Y-4087D01*
X-30300Y-4691D01*
X-31289Y-5503D01*
X-32101Y-6492D01*
X-32704Y-7620D01*
X-33075Y-8845D01*
X-33201Y-10118D01*
X-33075Y-11392D01*
X-32704Y-12616D01*
X-32101Y-13745D01*
X-31289Y-14734D01*
X-30300Y-15545D01*
X-29171Y-16149D01*
X-27947Y-16520D01*
X-26673Y-16646D01*
X-16634D01*
X-15360Y-16520D01*
X-14136Y-16149D01*
X-13007Y-15545D01*
X-12018Y-14734D01*
X-11206Y-13745D01*
X-10603Y-12616D01*
X-10232Y-11392D01*
X-10106Y-10118D01*
X-10232Y-8845D01*
X-10603Y-7620D01*
X-11206Y-6492D01*
X-12018Y-5503D01*
X-13007Y-4691D01*
X-14136Y-4087D01*
X-15360Y-3716D01*
X-16634Y-3591D01*
D02*
G37*
G36*
X68524Y-12402D02*
X51201D01*
Y-21850D01*
X68524D01*
Y-12402D01*
D02*
G37*
G36*
X-40354Y-33297D02*
X-46744D01*
Y-36783D01*
X-36433D01*
X-36503Y-36252D01*
X-36902Y-35290D01*
X-37535Y-34464D01*
X-38361Y-33831D01*
X-39322Y-33432D01*
X-40354Y-33297D01*
D02*
G37*
G36*
X-47744D02*
X-54134D01*
X-55166Y-33432D01*
X-56127Y-33831D01*
X-56953Y-34464D01*
X-57587Y-35290D01*
X-57985Y-36252D01*
X-58055Y-36783D01*
X-47744D01*
Y-33297D01*
D02*
G37*
G36*
X-36433Y-37784D02*
X-46744D01*
Y-41270D01*
X-40354D01*
X-39322Y-41135D01*
X-38361Y-40736D01*
X-37535Y-40103D01*
X-36902Y-39277D01*
X-36503Y-38315D01*
X-36433Y-37784D01*
D02*
G37*
G36*
X-47744D02*
X-58055D01*
X-57985Y-38315D01*
X-57587Y-39277D01*
X-56953Y-40103D01*
X-56127Y-40736D01*
X-55166Y-41135D01*
X-54134Y-41270D01*
X-47744D01*
Y-37784D01*
D02*
G37*
G36*
X14862Y22001D02*
X4823D01*
X3549Y21875D01*
X2325Y21504D01*
X1196Y20901D01*
X207Y20089D01*
X-605Y19100D01*
X-1208Y17971D01*
X-1579Y16747D01*
X-1705Y15473D01*
X-1579Y14200D01*
X-1208Y12975D01*
X-605Y11847D01*
X207Y10858D01*
X1196Y10046D01*
X2325Y9443D01*
X3549Y9071D01*
X4823Y8946D01*
X7760D01*
Y-11728D01*
X7854Y-12448D01*
X8132Y-13118D01*
X8574Y-13694D01*
X11697Y-16817D01*
Y-30756D01*
X8760D01*
X7486Y-30881D01*
X6262Y-31253D01*
X5133Y-31856D01*
X4144Y-32668D01*
X3332Y-33657D01*
X2729Y-34786D01*
X2358Y-36010D01*
X2232Y-37284D01*
X2358Y-38557D01*
X2729Y-39781D01*
X3332Y-40910D01*
X4144Y-41899D01*
X5133Y-42711D01*
X6262Y-43314D01*
X7486Y-43685D01*
X8760Y-43811D01*
X13225D01*
X13757Y-44031D01*
X14476Y-44126D01*
X15196Y-44031D01*
X15728Y-43811D01*
X18799D01*
X20073Y-43685D01*
X21297Y-43314D01*
X22426Y-42711D01*
X23415Y-41899D01*
X24227Y-40910D01*
X24830Y-39781D01*
X25201Y-38557D01*
X25327Y-37284D01*
X25201Y-36010D01*
X24830Y-34786D01*
X24227Y-33657D01*
X23415Y-32668D01*
X22426Y-31856D01*
X21297Y-31253D01*
X20073Y-30881D01*
X18799Y-30756D01*
X17256D01*
Y-15665D01*
X17161Y-14946D01*
X16884Y-14276D01*
X16442Y-13700D01*
X13319Y-10577D01*
Y8946D01*
X14862D01*
X16136Y9071D01*
X17360Y9443D01*
X18489Y10046D01*
X19478Y10858D01*
X20290Y11847D01*
X20893Y12975D01*
X21264Y14200D01*
X21390Y15473D01*
X21264Y16747D01*
X20893Y17971D01*
X20290Y19100D01*
X19478Y20089D01*
X18489Y20901D01*
X17360Y21504D01*
X16136Y21875D01*
X14862Y22001D01*
D02*
G37*
G36*
X70872Y-60098D02*
X68943Y-60288D01*
X67087Y-60851D01*
X65377Y-61765D01*
X63879Y-62995D01*
X62649Y-64494D01*
X61735Y-66203D01*
X61172Y-68059D01*
X60982Y-69988D01*
X61172Y-71918D01*
X61735Y-73773D01*
X62649Y-75483D01*
X63879Y-76982D01*
X65377Y-78211D01*
X67087Y-79125D01*
X68943Y-79688D01*
X70872Y-79878D01*
X72802Y-79688D01*
X74657Y-79125D01*
X76367Y-78211D01*
X77865Y-76982D01*
X79096Y-75483D01*
X80010Y-73773D01*
X80572Y-71918D01*
X80762Y-69988D01*
X80572Y-68059D01*
X80010Y-66203D01*
X79096Y-64494D01*
X77865Y-62995D01*
X76367Y-61765D01*
X74657Y-60851D01*
X72802Y-60288D01*
X70872Y-60098D01*
D02*
G37*
G36*
X-70874D02*
X-72803Y-60288D01*
X-74659Y-60851D01*
X-76369Y-61765D01*
X-77867Y-62995D01*
X-79097Y-64494D01*
X-80011Y-66203D01*
X-80574Y-68059D01*
X-80764Y-69988D01*
X-80574Y-71918D01*
X-80011Y-73773D01*
X-79097Y-75483D01*
X-77867Y-76982D01*
X-76369Y-78211D01*
X-74659Y-79125D01*
X-72803Y-79688D01*
X-70874Y-79878D01*
X-68945Y-79688D01*
X-67089Y-79125D01*
X-65379Y-78211D01*
X-63881Y-76982D01*
X-62651Y-75483D01*
X-61737Y-73773D01*
X-61174Y-71918D01*
X-60984Y-69988D01*
X-61174Y-68059D01*
X-61737Y-66203D01*
X-62651Y-64494D01*
X-63881Y-62995D01*
X-65379Y-61765D01*
X-67089Y-60851D01*
X-68945Y-60288D01*
X-70874Y-60098D01*
D02*
G37*
%LPD*%
D18*
X42145Y591D02*
D03*
Y8465D02*
D03*
Y-7283D02*
D03*
D19*
X59862Y18308D02*
D03*
Y-17126D02*
D03*
D20*
X14476Y-41346D02*
Y-15665D01*
X40362Y9374D02*
Y13874D01*
Y9374D02*
X41271Y8465D01*
X29862Y4874D02*
X30862D01*
X35145Y591D01*
X29862Y4874D02*
Y33850D01*
X35145Y591D02*
X42145D01*
X41271Y8465D02*
X42145D01*
X10539Y-11728D02*
X14476Y-15665D01*
X10539Y-11728D02*
Y13772D01*
D21*
X-25591Y42639D02*
D03*
X9843Y15473D02*
D03*
X-51181D02*
D03*
X-21654Y-10118D02*
D03*
X13780Y-37284D02*
D03*
X-47244D02*
D03*
D22*
X-70874Y69990D02*
D03*
X70872D02*
D03*
Y-69988D02*
D03*
X-70874D02*
D03*
D23*
X42429Y45268D02*
D03*
X42035Y-11716D02*
D03*
X40362Y13874D02*
D03*
X29862Y4874D02*
D03*
Y33850D02*
D03*
M02*
