G04*
G04 #@! TF.GenerationSoftware,Altium Limited,Altium Designer,19.0.14 (431)*
G04*
G04 Layer_Color=16711935*
%FSLAX25Y25*%
%MOIN*%
G70*
G01*
G75*
%ADD24C,0.00079*%
D24*
X55948Y-71495D02*
X55802Y-70526D01*
X55562Y-69576D01*
X55230Y-68654D01*
X54809Y-67769D01*
X54304Y-66930D01*
X53719Y-66144D01*
X53061Y-65419D01*
X52334Y-64762D01*
X51546Y-64179D01*
X50705Y-63676D01*
X49819Y-63258D01*
X48897Y-62928D01*
X47946Y-62691D01*
X46977Y-62547D01*
X45999Y-62499D01*
X-46000D02*
X-46979Y-62547D01*
X-47948Y-62691D01*
X-48899Y-62928D01*
X-49821Y-63258D01*
X-50707Y-63676D01*
X-51548Y-64179D01*
X-52336Y-64762D01*
X-53062Y-65419D01*
X-53721Y-66144D01*
X-54306Y-66930D01*
X-54811Y-67769D01*
X-55232Y-68654D01*
X-55564Y-69576D01*
X-55804Y-70526D01*
X-55950Y-71495D01*
X-80850Y-58787D02*
X-81577Y-59479D01*
X-82257Y-60219D01*
X-82885Y-61003D01*
X-83459Y-61827D01*
X-83977Y-62687D01*
X-84436Y-63580D01*
X-84835Y-64502D01*
X-85171Y-65449D01*
X-85442Y-66416D01*
X-85649Y-67399D01*
X-85789Y-68393D01*
X-85862Y-69395D01*
X-85868Y-70399D01*
X-85807Y-71402D01*
X-85679Y-72398D01*
X-85485Y-73383D01*
X-85225Y-74353D01*
X-84901Y-75304D01*
X-84513Y-76230D01*
X-84065Y-77129D01*
X-83558Y-77996D01*
X-82994Y-78827D01*
X-82375Y-79618D01*
X-81705Y-80366D01*
X-80986Y-81067D01*
X-80222Y-81719D01*
X-79416Y-82319D01*
X-78572Y-82863D01*
X-77693Y-83349D01*
X-76783Y-83775D01*
X-75848Y-84140D01*
X-74889Y-84441D01*
X-73913Y-84677D01*
X-72923Y-84847D01*
X-71925Y-84951D01*
X-70921Y-84988D01*
X-69917Y-84958D01*
X-68917Y-84860D01*
X-67927Y-84696D01*
X-66949Y-84466D01*
X-65989Y-84171D01*
X-65051Y-83812D01*
X-64139Y-83391D01*
X-63257Y-82910D01*
X-62410Y-82372D01*
X-61600Y-81778D01*
X-60832Y-81130D01*
X-60109Y-80433D01*
X-59434Y-79690D01*
X-58810Y-78902D01*
X-58241Y-78075D01*
X-57728Y-77211D01*
X-57274Y-76316D01*
X-56881Y-75391D01*
X-56551Y-74443D01*
X-56285Y-73474D01*
X-56084Y-72490D01*
X-55950Y-71495D01*
X-80850Y-58787D02*
X-80101Y-58045D01*
X-79435Y-57230D01*
X-78858Y-56348D01*
X-78377Y-55411D01*
X-77997Y-54428D01*
X-77722Y-53411D01*
X-77556Y-52371D01*
X-77501Y-51319D01*
Y51320D02*
X-77556Y52372D01*
X-77722Y53413D01*
X-77997Y54430D01*
X-78377Y55413D01*
X-78858Y56350D01*
X-79435Y57231D01*
X-80101Y58047D01*
X-80850Y58788D01*
X-55950Y71496D02*
X-56084Y72492D01*
X-56285Y73476D01*
X-56551Y74444D01*
X-56881Y75393D01*
X-57274Y76317D01*
X-57728Y77213D01*
X-58241Y78076D01*
X-58810Y78904D01*
X-59434Y79691D01*
X-60109Y80435D01*
X-60832Y81132D01*
X-61600Y81779D01*
X-62409Y82373D01*
X-63257Y82912D01*
X-64139Y83393D01*
X-65051Y83813D01*
X-65989Y84172D01*
X-66949Y84467D01*
X-67927Y84697D01*
X-68917Y84861D01*
X-69917Y84959D01*
X-70921Y84990D01*
X-71925Y84953D01*
X-72923Y84849D01*
X-73913Y84679D01*
X-74889Y84442D01*
X-75848Y84141D01*
X-76784Y83777D01*
X-77693Y83350D01*
X-78572Y82864D01*
X-79416Y82320D01*
X-80222Y81721D01*
X-80986Y81069D01*
X-81705Y80367D01*
X-82375Y79619D01*
X-82994Y78828D01*
X-83558Y77997D01*
X-84065Y77131D01*
X-84513Y76232D01*
X-84901Y75305D01*
X-85225Y74355D01*
X-85485Y73384D01*
X-85679Y72399D01*
X-85807Y71403D01*
X-85868Y70401D01*
X-85862Y69396D01*
X-85789Y68395D01*
X-85649Y67400D01*
X-85442Y66417D01*
X-85171Y65450D01*
X-84835Y64504D01*
X-84436Y63582D01*
X-83977Y62688D01*
X-83459Y61828D01*
X-82885Y61004D01*
X-82257Y60220D01*
X-81577Y59481D01*
X-80850Y58788D01*
X-55950Y71496D02*
X-55804Y70527D01*
X-55564Y69578D01*
X-55232Y68656D01*
X-54811Y67771D01*
X-54306Y66931D01*
X-53721Y66145D01*
X-53062Y65421D01*
X-52336Y64763D01*
X-51548Y64181D01*
X-50707Y63678D01*
X-49821Y63260D01*
X-48899Y62930D01*
X-47948Y62692D01*
X-46979Y62549D01*
X-46000Y62501D01*
X45999D02*
X46977Y62549D01*
X47946Y62692D01*
X48897Y62930D01*
X49819Y63260D01*
X50705Y63678D01*
X51546Y64181D01*
X52334Y64763D01*
X53061Y65421D01*
X53719Y66145D01*
X54304Y66931D01*
X54809Y67771D01*
X55230Y68656D01*
X55562Y69578D01*
X55802Y70527D01*
X55948Y71496D01*
X80848Y58788D02*
X81576Y59481D01*
X82255Y60220D01*
X82883Y61004D01*
X83457Y61828D01*
X83975Y62688D01*
X84434Y63582D01*
X84833Y64504D01*
X85169Y65450D01*
X85440Y66417D01*
X85647Y67400D01*
X85787Y68395D01*
X85860Y69396D01*
X85866Y70400D01*
X85805Y71403D01*
X85677Y72399D01*
X85483Y73384D01*
X85223Y74354D01*
X84899Y75305D01*
X84512Y76232D01*
X84063Y77131D01*
X83556Y77997D01*
X82992Y78828D01*
X82373Y79619D01*
X81703Y80367D01*
X80984Y81069D01*
X80220Y81721D01*
X79414Y82320D01*
X78570Y82864D01*
X77691Y83350D01*
X76782Y83776D01*
X75846Y84141D01*
X74888Y84442D01*
X73911Y84679D01*
X72922Y84849D01*
X71923Y84953D01*
X70919Y84990D01*
X69915Y84959D01*
X68916Y84861D01*
X67925Y84697D01*
X66947Y84467D01*
X65987Y84172D01*
X65049Y83813D01*
X64137Y83393D01*
X63255Y82912D01*
X62408Y82373D01*
X61598Y81779D01*
X60830Y81132D01*
X60107Y80435D01*
X59432Y79691D01*
X58808Y78904D01*
X58239Y78077D01*
X57726Y77213D01*
X57272Y76317D01*
X56879Y75393D01*
X56549Y74444D01*
X56283Y73476D01*
X56082Y72492D01*
X55948Y71496D01*
X80848Y58788D02*
X80100Y58047D01*
X79433Y57231D01*
X78856Y56350D01*
X78375Y55413D01*
X77995Y54430D01*
X77720Y53413D01*
X77555Y52372D01*
X77499Y51320D01*
Y-51319D02*
X77555Y-52371D01*
X77720Y-53411D01*
X77995Y-54428D01*
X78375Y-55411D01*
X78856Y-56348D01*
X79433Y-57230D01*
X80099Y-58045D01*
X80848Y-58787D01*
X55948Y-71495D02*
X56082Y-72490D01*
X56283Y-73474D01*
X56549Y-74443D01*
X56879Y-75391D01*
X57272Y-76315D01*
X57726Y-77211D01*
X58239Y-78075D01*
X58808Y-78902D01*
X59432Y-79690D01*
X60107Y-80433D01*
X60830Y-81130D01*
X61598Y-81778D01*
X62408Y-82372D01*
X63255Y-82910D01*
X64137Y-83391D01*
X65049Y-83812D01*
X65987Y-84171D01*
X66947Y-84466D01*
X67925Y-84696D01*
X68916Y-84860D01*
X69915Y-84958D01*
X70919Y-84988D01*
X71923Y-84951D01*
X72922Y-84847D01*
X73911Y-84677D01*
X74888Y-84441D01*
X75846Y-84140D01*
X76782Y-83775D01*
X77691Y-83349D01*
X78570Y-82863D01*
X79414Y-82319D01*
X80220Y-81719D01*
X80984Y-81068D01*
X81703Y-80366D01*
X82373Y-79618D01*
X82992Y-78827D01*
X83556Y-77996D01*
X84063Y-77129D01*
X84512Y-76231D01*
X84899Y-75304D01*
X85223Y-74353D01*
X85483Y-73383D01*
X85677Y-72398D01*
X85805Y-71402D01*
X85866Y-70399D01*
X85860Y-69395D01*
X85787Y-68393D01*
X85647Y-67399D01*
X85440Y-66416D01*
X85169Y-65449D01*
X84833Y-64502D01*
X84435Y-63580D01*
X83975Y-62687D01*
X83457Y-61827D01*
X82883Y-61003D01*
X82255Y-60219D01*
X81576Y-59479D01*
X80848Y-58787D01*
X-46000Y-62499D02*
X45999D01*
X-77501Y-51319D02*
Y51320D01*
X-46000Y62501D02*
X45999D01*
X77499Y-51319D02*
Y51320D01*
M02*
