G04*
G04 #@! TF.GenerationSoftware,Altium Limited,Altium Designer,19.0.14 (431)*
G04*
G04 Layer_Color=32896*
%FSLAX25Y25*%
%MOIN*%
G70*
G01*
G75*
%ADD12C,0.01000*%
D12*
X27953Y-15748D02*
X23954D01*
X21955Y-17747D01*
X23954Y-19747D01*
X27953D01*
X24954D01*
Y-15748D01*
X23954Y-25745D02*
Y-22746D01*
X24954Y-21746D01*
X26953D01*
X27953Y-22746D01*
Y-25745D01*
X23954Y-31743D02*
Y-28744D01*
X24954Y-27744D01*
X26953D01*
X27953Y-28744D01*
Y-31743D01*
Y-36741D02*
Y-34742D01*
X26953Y-33742D01*
X24954D01*
X23954Y-34742D01*
Y-36741D01*
X24954Y-37741D01*
X25953D01*
Y-33742D01*
X27953Y-39740D02*
Y-41740D01*
Y-40740D01*
X21955D01*
Y-39740D01*
Y-44739D02*
X27953D01*
Y-47738D01*
X26953Y-48737D01*
X25953D01*
X24954Y-47738D01*
Y-44739D01*
Y-47738D01*
X23954Y-48737D01*
X22954D01*
X21955Y-47738D01*
Y-44739D01*
X24016Y48031D02*
X20017D01*
X18018Y46032D01*
X20017Y44033D01*
X24016D01*
X21017D01*
Y48031D01*
X20017Y38035D02*
Y41034D01*
X21017Y42033D01*
X23016D01*
X24016Y41034D01*
Y38035D01*
X20017Y32037D02*
Y35036D01*
X21017Y36035D01*
X23016D01*
X24016Y35036D01*
Y32037D01*
Y27038D02*
Y29038D01*
X23016Y30037D01*
X21017D01*
X20017Y29038D01*
Y27038D01*
X21017Y26039D01*
X22016D01*
Y30037D01*
X24016Y24039D02*
Y22040D01*
Y23040D01*
X18018D01*
Y24039D01*
X24016Y19041D02*
X20017D01*
X18018Y17041D01*
X20017Y15042D01*
X24016D01*
X21017D01*
Y19041D01*
M02*
