G04*
G04 #@! TF.GenerationSoftware,Altium Limited,Altium Designer,19.0.14 (431)*
G04*
G04 Layer_Color=65535*
%FSLAX25Y25*%
%MOIN*%
G70*
G01*
G75*
%ADD10C,0.00984*%
%ADD11C,0.02362*%
%ADD12C,0.00787*%
%ADD13C,0.01968*%
%ADD14C,0.00591*%
%ADD15C,0.00600*%
%ADD16C,0.03150*%
%ADD17C,0.03937*%
%ADD18C,0.01000*%
D10*
X122933Y119390D02*
G03*
X122933Y119390I-492J0D01*
G01*
X383957Y47412D02*
G03*
X383957Y47412I-492J0D01*
G01*
X364370Y114882D02*
G03*
X364370Y114882I-492J0D01*
G01*
D11*
X131890Y115945D02*
G03*
X131890Y115945I-1181J0D01*
G01*
X375394Y45680D02*
G03*
X375394Y45680I-1181J0D01*
G01*
X357283Y118504D02*
G03*
X357283Y118504I-1181J0D01*
G01*
D12*
X137402Y139764D02*
G03*
X137402Y139764I-394J0D01*
G01*
X209449Y121260D02*
Y127559D01*
Y121260D02*
X225984D01*
Y127559D01*
X209449D02*
X225984D01*
X209055Y111417D02*
Y117717D01*
Y111417D02*
X225590D01*
Y117717D01*
X209055D02*
X225590D01*
X126772Y68307D02*
Y119882D01*
X145669Y68307D02*
Y119882D01*
X126772D02*
X145669D01*
X126772Y68307D02*
X145669D01*
X261417Y74016D02*
X267717D01*
Y90551D01*
X261417D02*
X267717D01*
X261417Y74016D02*
Y90551D01*
Y54331D02*
X267717D01*
Y70866D01*
X261417D02*
X267717D01*
X261417Y54331D02*
Y70866D01*
X378150Y41743D02*
Y100798D01*
X332480Y41743D02*
Y100798D01*
Y41743D02*
X378150D01*
X332480Y100798D02*
X378150D01*
X406693Y103543D02*
X412992D01*
Y120079D01*
X406693D02*
X412992D01*
X406693Y103543D02*
Y120079D01*
Y83465D02*
X412992D01*
Y100000D01*
X406693D02*
X412992D01*
X406693Y83465D02*
Y100000D01*
X209055Y58268D02*
Y64567D01*
Y58268D02*
X225590D01*
Y64567D01*
X209055D02*
X225590D01*
X209055Y48031D02*
Y54331D01*
Y48031D02*
X225590D01*
Y54331D01*
X209055D02*
X225590D01*
X209055Y78347D02*
Y84646D01*
Y78347D02*
X225590D01*
Y84646D01*
X209055D02*
X225590D01*
X209055Y68370D02*
Y74669D01*
Y68370D02*
X225590D01*
Y74669D01*
X209055D02*
X225590D01*
X209055Y88189D02*
Y94488D01*
Y88189D02*
X225590D01*
Y94488D01*
X209055D02*
X225590D01*
X209055Y98425D02*
Y104724D01*
Y98425D02*
X225590D01*
Y104724D01*
X209055D02*
X225590D01*
X335236Y135039D02*
X360039D01*
X335236Y114567D02*
X360039D01*
X335236D02*
Y135039D01*
X360039Y114567D02*
Y135039D01*
X232224Y126736D02*
X230912D01*
X231568D01*
Y123456D01*
X230912Y122800D01*
X230256D01*
X229600Y123456D01*
X233536Y122144D02*
X236160D01*
X237472Y126736D02*
X238783D01*
X238127D01*
Y122800D01*
X237472D01*
X238783D01*
X240751D02*
Y126736D01*
X242719D01*
X243375Y126080D01*
Y124768D01*
X242719Y124112D01*
X240751D01*
X244687Y122800D02*
Y125424D01*
X245999Y126736D01*
X247311Y125424D01*
Y122800D01*
Y124768D01*
X244687D01*
X248623Y126736D02*
Y122800D01*
X250591D01*
X251247Y123456D01*
Y124112D01*
X250591Y124768D01*
X248623D01*
X250591D01*
X251247Y125424D01*
Y126080D01*
X250591Y126736D01*
X248623D01*
X231824Y116836D02*
X230512D01*
X231168D01*
Y113556D01*
X230512Y112900D01*
X229856D01*
X229200Y113556D01*
X233136Y112244D02*
X235760D01*
X237071Y116836D02*
X238383D01*
X237727D01*
Y112900D01*
X237071D01*
X238383D01*
X240351D02*
Y116836D01*
X241663Y115524D01*
X242975Y116836D01*
Y112900D01*
X244287D02*
Y115524D01*
X245599Y116836D01*
X246911Y115524D01*
Y112900D01*
Y114868D01*
X244287D01*
X248223Y116836D02*
Y112900D01*
X250191D01*
X250847Y113556D01*
Y114212D01*
X250191Y114868D01*
X248223D01*
X250191D01*
X250847Y115524D01*
Y116180D01*
X250191Y116836D01*
X248223D01*
X231810Y63706D02*
X230499D01*
X231154D01*
Y60426D01*
X230499Y59770D01*
X229843D01*
X229187Y60426D01*
X233122Y59114D02*
X235746D01*
X237058Y63706D02*
X238370D01*
X237714D01*
Y59770D01*
X237058D01*
X238370D01*
X242962Y63050D02*
X242306Y63706D01*
X240994D01*
X240338Y63050D01*
Y62394D01*
X240994Y61738D01*
X242306D01*
X242962Y61082D01*
Y60426D01*
X242306Y59770D01*
X240994D01*
X240338Y60426D01*
X246241Y63706D02*
X244930D01*
X244274Y63050D01*
Y60426D01*
X244930Y59770D01*
X246241D01*
X246897Y60426D01*
Y63050D01*
X246241Y63706D01*
X248209Y59770D02*
Y63706D01*
X249521Y62394D01*
X250833Y63706D01*
Y59770D01*
X252145Y63706D02*
Y59770D01*
X254113D01*
X254769Y60426D01*
Y63050D01*
X254113Y63706D01*
X252145D01*
X231810Y83806D02*
X230499D01*
X231154D01*
Y80526D01*
X230499Y79870D01*
X229843D01*
X229187Y80526D01*
X233122Y79214D02*
X235746D01*
X237058Y83806D02*
X238370D01*
X237714D01*
Y79870D01*
X237058D01*
X238370D01*
X240338D02*
Y83806D01*
X242306D01*
X242962Y83150D01*
Y81838D01*
X242306Y81182D01*
X240338D01*
X244274Y79870D02*
Y82494D01*
X245585Y83806D01*
X246897Y82494D01*
Y79870D01*
Y81838D01*
X244274D01*
X231810Y73806D02*
X230499D01*
X231154D01*
Y70526D01*
X230499Y69870D01*
X229843D01*
X229187Y70526D01*
X233122Y69214D02*
X235746D01*
X237058Y73806D02*
X238370D01*
X237714D01*
Y69870D01*
X237058D01*
X238370D01*
X240338D02*
Y73806D01*
X241650Y72494D01*
X242962Y73806D01*
Y69870D01*
X244274D02*
Y72494D01*
X245585Y73806D01*
X246897Y72494D01*
Y69870D01*
Y71838D01*
X244274D01*
X231810Y93606D02*
X230499D01*
X231154D01*
Y90326D01*
X230499Y89670D01*
X229843D01*
X229187Y90326D01*
X233122Y89014D02*
X235746D01*
X237058Y93606D02*
X238370D01*
X237714D01*
Y89670D01*
X237058D01*
X238370D01*
X242962Y92950D02*
X242306Y93606D01*
X240994D01*
X240338Y92950D01*
Y90326D01*
X240994Y89670D01*
X242306D01*
X242962Y90326D01*
X244274Y89670D02*
Y93606D01*
X245585Y92294D01*
X246897Y93606D01*
Y89670D01*
X248209D02*
Y93606D01*
X250177D01*
X250833Y92950D01*
Y91638D01*
X250177Y90982D01*
X248209D01*
X231810Y103906D02*
X230499D01*
X231154D01*
Y100626D01*
X230499Y99970D01*
X229843D01*
X229187Y100626D01*
X233122Y99314D02*
X235746D01*
X237058Y103906D02*
X238370D01*
X237714D01*
Y99970D01*
X237058D01*
X238370D01*
X240338Y103906D02*
Y99970D01*
X242306D01*
X242962Y100626D01*
Y101282D01*
X242306Y101938D01*
X240338D01*
X242306D01*
X242962Y102594D01*
Y103250D01*
X242306Y103906D01*
X240338D01*
X244274D02*
X245585D01*
X244930D01*
Y99970D01*
X244274D01*
X245585D01*
X247553D02*
Y102594D01*
X248865Y103906D01*
X250177Y102594D01*
Y99970D01*
Y101938D01*
X247553D01*
X254113Y103250D02*
X253457Y103906D01*
X252145D01*
X251489Y103250D01*
Y102594D01*
X252145Y101938D01*
X253457D01*
X254113Y101282D01*
Y100626D01*
X253457Y99970D01*
X252145D01*
X251489Y100626D01*
X231810Y53506D02*
X230499D01*
X231154D01*
Y50226D01*
X230499Y49570D01*
X229843D01*
X229187Y50226D01*
X233122Y48914D02*
X235746D01*
X237058Y53506D02*
Y49570D01*
X239026D01*
X239682Y50226D01*
Y52850D01*
X239026Y53506D01*
X237058D01*
X240994D02*
X243618D01*
X242306D01*
Y49570D01*
X247553Y53506D02*
X244930D01*
Y49570D01*
X247553D01*
X244930Y51538D02*
X246241D01*
X248865Y49570D02*
Y53506D01*
X251489Y49570D01*
Y53506D01*
D13*
X346063Y165748D02*
X346063Y40945D01*
D14*
X172516Y61799D02*
X175665D01*
X196839Y152287D02*
Y155437D01*
X88976Y144488D02*
Y156299D01*
X157874Y50197D02*
X160689D01*
Y52362D01*
Y60236D02*
Y62402D01*
X157874D02*
X160689D01*
X155709Y131102D02*
Y133071D01*
Y131102D02*
X171063D01*
Y132087D01*
X155709Y156693D02*
Y158661D01*
X171063D01*
Y157677D02*
Y158661D01*
D15*
X192763Y72890D02*
X192163Y73490D01*
X190964D01*
X190364Y72890D01*
Y70491D01*
X190964Y69891D01*
X192163D01*
X192763Y70491D01*
X196362Y72890D02*
X195762Y73490D01*
X194562D01*
X193963Y72890D01*
Y72291D01*
X194562Y71691D01*
X195762D01*
X196362Y71091D01*
Y70491D01*
X195762Y69891D01*
X194562D01*
X193963Y70491D01*
X197561Y73490D02*
Y69891D01*
X199361D01*
X199961Y70491D01*
Y71091D01*
X199361Y71691D01*
X197561D01*
X199361D01*
X199961Y72291D01*
Y72890D01*
X199361Y73490D01*
X197561D01*
X192763Y102812D02*
X192163Y103411D01*
X190964D01*
X190364Y102812D01*
Y102212D01*
X190964Y101612D01*
X192163D01*
X192763Y101012D01*
Y100412D01*
X192163Y99813D01*
X190964D01*
X190364Y100412D01*
X193963Y103411D02*
Y99813D01*
X195762D01*
X196362Y100412D01*
Y102812D01*
X195762Y103411D01*
X193963D01*
X199361D02*
X198161D01*
X197561Y102812D01*
Y100412D01*
X198161Y99813D01*
X199361D01*
X199961Y100412D01*
Y102812D01*
X199361Y103411D01*
X192763Y92575D02*
X192163Y93175D01*
X190964D01*
X190364Y92575D01*
Y91976D01*
X190964Y91376D01*
X192163D01*
X192763Y90776D01*
Y90176D01*
X192163Y89576D01*
X190964D01*
X190364Y90176D01*
X193963Y93175D02*
Y89576D01*
X195762D01*
X196362Y90176D01*
Y92575D01*
X195762Y93175D01*
X193963D01*
X197561D02*
X198761D01*
X198161D01*
Y89576D01*
X197561D01*
X198761D01*
X192763Y82733D02*
X192163Y83333D01*
X190964D01*
X190364Y82733D01*
Y82133D01*
X190964Y81533D01*
X192163D01*
X192763Y80933D01*
Y80334D01*
X192163Y79734D01*
X190964D01*
X190364Y80334D01*
X196362Y82733D02*
X195762Y83333D01*
X194562D01*
X193963Y82733D01*
Y80334D01*
X194562Y79734D01*
X195762D01*
X196362Y80334D01*
X197561Y83333D02*
Y79734D01*
Y80933D01*
X199961Y83333D01*
X198161Y81533D01*
X199961Y79734D01*
X192763Y62654D02*
X192163Y63254D01*
X190964D01*
X190364Y62654D01*
Y60255D01*
X190964Y59655D01*
X192163D01*
X192763Y60255D01*
Y61454D01*
X191563D01*
X193963Y59655D02*
Y63254D01*
X196362Y59655D01*
Y63254D01*
X197561D02*
Y59655D01*
X199361D01*
X199961Y60255D01*
Y62654D01*
X199361Y63254D01*
X197561D01*
X155862Y104996D02*
X157062D01*
X156462D01*
Y101397D01*
X155862D01*
X157062D01*
X158861Y104996D02*
Y101397D01*
X160661D01*
X161260Y101997D01*
Y102596D01*
X160661Y103196D01*
X158861D01*
X160661D01*
X161260Y103796D01*
Y104396D01*
X160661Y104996D01*
X158861D01*
X162460D02*
X163660D01*
X163060D01*
Y101397D01*
X162460D01*
X163660D01*
X165459D02*
Y103796D01*
X166659Y104996D01*
X167858Y103796D01*
Y101397D01*
Y103196D01*
X165459D01*
X171457Y104396D02*
X170857Y104996D01*
X169658D01*
X169058Y104396D01*
Y103796D01*
X169658Y103196D01*
X170857D01*
X171457Y102596D01*
Y101997D01*
X170857Y101397D01*
X169658D01*
X169058Y101997D01*
X162633Y99563D02*
X162598Y95965D01*
X163809Y97153D01*
X164997Y95942D01*
X165032Y99540D01*
X166231Y99529D02*
X166197Y95930D01*
X167997Y95913D01*
X168602Y96507D01*
X168625Y98906D01*
X168031Y99512D01*
X166231Y99529D01*
X169830Y99495D02*
X172229Y99472D01*
X171029Y99484D01*
X170995Y95885D01*
X158800Y111199D02*
X160000D01*
X159400D01*
Y107600D01*
X158800D01*
X160000D01*
X164198Y110599D02*
X163599Y111199D01*
X162399D01*
X161799Y110599D01*
Y108200D01*
X162399Y107600D01*
X163599D01*
X164198Y108200D01*
X165398Y107600D02*
Y111199D01*
X166597Y109999D01*
X167797Y111199D01*
Y107600D01*
X168997D02*
Y111199D01*
X170796D01*
X171396Y110599D01*
Y109399D01*
X170796Y108800D01*
X168997D01*
X167770Y89570D02*
X168970D01*
X168370D01*
Y93169D01*
X167770Y92569D01*
X170769Y91969D02*
Y90170D01*
X171369Y89570D01*
X173168D01*
Y91969D01*
X180366Y93169D02*
X177967D01*
Y91369D01*
X179166Y91969D01*
X179766D01*
X180366Y91369D01*
Y90170D01*
X179766Y89570D01*
X178567D01*
X177967Y90170D01*
X181566Y93169D02*
Y90770D01*
X182765Y89570D01*
X183965Y90770D01*
Y93169D01*
X167770Y78870D02*
X168970D01*
X168370D01*
Y82469D01*
X167770Y81869D01*
X170769Y81269D02*
Y79470D01*
X171369Y78870D01*
X173168D01*
Y81269D01*
X177967Y82469D02*
Y80070D01*
X179166Y78870D01*
X180366Y80070D01*
Y82469D01*
X183965Y78870D02*
X181566D01*
X183965Y81269D01*
Y81869D01*
X183365Y82469D01*
X182165D01*
X181566Y81869D01*
X167770Y84070D02*
X168970D01*
X168370D01*
Y87669D01*
X167770Y87069D01*
X170769Y86469D02*
Y84670D01*
X171369Y84070D01*
X173168D01*
Y86469D01*
X177967Y87669D02*
Y85270D01*
X179166Y84070D01*
X180366Y85270D01*
Y87669D01*
X181566Y84070D02*
X182765D01*
X182165D01*
Y87669D01*
X181566Y87069D01*
D16*
X214567Y160231D02*
Y144488D01*
X225062D01*
X230310Y160231D02*
X240805D01*
X235558D01*
Y144488D01*
X256548Y157607D02*
X253924Y160231D01*
X248677D01*
X246053Y157607D01*
Y147112D01*
X248677Y144488D01*
X253924D01*
X256548Y147112D01*
X272291Y160231D02*
X267043Y157607D01*
X261796Y152360D01*
Y147112D01*
X264420Y144488D01*
X269667D01*
X272291Y147112D01*
Y149736D01*
X269667Y152360D01*
X261796D01*
X277539Y157607D02*
X280163Y160231D01*
X285410D01*
X288034Y157607D01*
Y154983D01*
X285410Y152360D01*
X288034Y149736D01*
Y147112D01*
X285410Y144488D01*
X280163D01*
X277539Y147112D01*
Y149736D01*
X280163Y152360D01*
X277539Y154983D01*
Y157607D01*
X280163Y152360D02*
X285410D01*
X293282Y144488D02*
X298529D01*
X295905D01*
Y160231D01*
X293282Y157607D01*
X306401Y144488D02*
X311648D01*
X309025D01*
Y160231D01*
X306401Y157607D01*
X319520Y152360D02*
X330015D01*
X335263Y144488D02*
X340510D01*
X337887D01*
Y160231D01*
X335263Y157607D01*
D17*
X46457Y129788D02*
X59576D01*
X53016Y136347D02*
Y123228D01*
X46850Y70469D02*
X59970D01*
D18*
X118600Y129998D02*
Y125000D01*
X119600Y124000D01*
X121599D01*
X122599Y125000D01*
Y129998D01*
X124598Y124000D02*
X126597D01*
X125598D01*
Y129998D01*
X124598Y128998D01*
X294170Y93968D02*
X296169D01*
X295170D01*
Y87970D01*
X294170D01*
X296169D01*
X299168D02*
Y93968D01*
X302168D01*
X303167Y92968D01*
Y90969D01*
X302168Y89969D01*
X299168D01*
X305167Y87970D02*
Y91969D01*
X307166Y93968D01*
X309165Y91969D01*
Y87970D01*
Y90969D01*
X305167D01*
X294570Y78168D02*
X296569D01*
X295570D01*
Y72170D01*
X294570D01*
X296569D01*
X299569D02*
Y78168D01*
X301568Y76169D01*
X303567Y78168D01*
Y72170D01*
X305567D02*
Y76169D01*
X307566Y78168D01*
X309565Y76169D01*
Y72170D01*
Y75169D01*
X305567D01*
X181269Y165268D02*
X177270D01*
Y162269D01*
X179269Y163269D01*
X180269D01*
X181269Y162269D01*
Y160270D01*
X180269Y159270D01*
X178270D01*
X177270Y160270D01*
X183268Y165268D02*
Y161269D01*
X185267Y159270D01*
X187267Y161269D01*
Y165268D01*
X106757Y49692D02*
X108756D01*
X107756D01*
Y55690D01*
X106757Y54690D01*
X110701Y61180D02*
X106702D01*
X110701Y65178D01*
Y66178D01*
X109701Y67178D01*
X107702D01*
X106702Y66178D01*
Y77778D02*
X107702Y78778D01*
X109701D01*
X110701Y77778D01*
Y76778D01*
X109701Y75779D01*
X108702D01*
X109701D01*
X110701Y74779D01*
Y73779D01*
X109701Y72780D01*
X107702D01*
X106702Y73779D01*
X109701Y84780D02*
Y90778D01*
X106702Y87779D01*
X110701D01*
Y103078D02*
X106702D01*
Y100078D01*
X108702Y101078D01*
X109701D01*
X110701Y100078D01*
Y98079D01*
X109701Y97079D01*
X107702D01*
X106702Y98079D01*
X110701Y115278D02*
X108702Y114278D01*
X106702Y112278D01*
Y110279D01*
X107702Y109280D01*
X109701D01*
X110701Y110279D01*
Y111279D01*
X109701Y112278D01*
X106702D01*
Y127178D02*
X110701D01*
Y126178D01*
X106702Y122179D01*
Y121179D01*
Y138278D02*
X107702Y139278D01*
X109701D01*
X110701Y138278D01*
Y137278D01*
X109701Y136278D01*
X110701Y135279D01*
Y134279D01*
X109701Y133280D01*
X107702D01*
X106702Y134279D01*
Y135279D01*
X107702Y136278D01*
X106702Y137278D01*
Y138278D01*
X107702Y136278D02*
X109701D01*
X292913Y140250D02*
X294913D01*
X293913D01*
Y134252D01*
X292913D01*
X294913D01*
X297912D02*
Y140250D01*
X300911D01*
X301910Y139250D01*
Y137251D01*
X300911Y136251D01*
X297912D01*
X303910Y134252D02*
Y138251D01*
X305909Y140250D01*
X307909Y138251D01*
Y134252D01*
Y137251D01*
X303910D01*
X398819Y74502D02*
X400818D01*
X399819D01*
Y68504D01*
X398819D01*
X400818D01*
X403817D02*
Y74502D01*
X405817Y72503D01*
X407816Y74502D01*
Y68504D01*
X409815Y67504D02*
X413814D01*
X415813Y74502D02*
X417813D01*
X416813D01*
Y68504D01*
X415813D01*
X417813D01*
X424811Y73502D02*
X423811Y74502D01*
X421811D01*
X420812Y73502D01*
Y72503D01*
X421811Y71503D01*
X423811D01*
X424811Y70503D01*
Y69504D01*
X423811Y68504D01*
X421811D01*
X420812Y69504D01*
X429809Y74502D02*
X427809D01*
X426810Y73502D01*
Y69504D01*
X427809Y68504D01*
X429809D01*
X430809Y69504D01*
Y73502D01*
X429809Y74502D01*
X292126Y114660D02*
X294125D01*
X293126D01*
Y108661D01*
X292126D01*
X294125D01*
X297124D02*
Y114660D01*
X299124Y112660D01*
X301123Y114660D01*
Y108661D01*
X303122D02*
Y112660D01*
X305122Y114660D01*
X307121Y112660D01*
Y108661D01*
Y111660D01*
X303122D01*
X398819Y138675D02*
X400818D01*
X399819D01*
Y132677D01*
X398819D01*
X400818D01*
X403817D02*
Y138675D01*
X406816D01*
X407816Y137675D01*
Y135676D01*
X406816Y134677D01*
X403817D01*
X409815Y131677D02*
X413814D01*
X415813Y138675D02*
X417813D01*
X416813D01*
Y132677D01*
X415813D01*
X417813D01*
X424811Y137675D02*
X423811Y138675D01*
X421811D01*
X420812Y137675D01*
Y136676D01*
X421811Y135676D01*
X423811D01*
X424811Y134677D01*
Y133677D01*
X423811Y132677D01*
X421811D01*
X420812Y133677D01*
X429809Y138675D02*
X427809D01*
X426810Y137675D01*
Y133677D01*
X427809Y132677D01*
X429809D01*
X430809Y133677D01*
Y137675D01*
X429809Y138675D01*
M02*
