G04*
G04 #@! TF.GenerationSoftware,Altium Limited,Altium Designer,19.0.14 (431)*
G04*
G04 Layer_Color=16711935*
%FSLAX25Y25*%
%MOIN*%
G70*
G01*
G75*
%ADD12C,0.00000*%
%ADD15R,0.03753X0.03950*%
%ADD16R,0.03950X0.03753*%
%ADD17R,0.03556X0.04343*%
%ADD20C,0.24422*%
%ADD21C,0.09068*%
%ADD22C,0.06706*%
%ADD23C,0.03162*%
%ADD24C,0.20485*%
%ADD25C,0.02800*%
%ADD48R,0.04343X0.03556*%
%ADD49R,0.04343X0.04737*%
%ADD50R,0.04737X0.04343*%
%ADD51R,0.12611X0.04737*%
%ADD52R,0.16548X0.08674*%
%ADD53O,0.01981X0.09068*%
%ADD54O,0.09068X0.01981*%
%ADD55R,0.30800X0.25800*%
%ADD56R,0.09461X0.05524*%
D12*
X-32837Y42810D02*
X-32957Y43799D01*
X-33311Y44731D01*
X-33877Y45552D01*
X-34623Y46212D01*
X-35505Y46676D01*
X-36473Y46914D01*
X-37470D01*
X-38437Y46676D01*
X-39320Y46212D01*
X-40066Y45552D01*
X-40632Y44731D01*
X-40985Y43799D01*
X-41105Y42810D01*
X-40985Y41821D01*
X-40632Y40889D01*
X-40066Y40069D01*
X-39320Y39408D01*
X-38437Y38945D01*
X-37470Y38706D01*
X-36473D01*
X-35505Y38945D01*
X-34623Y39408D01*
X-33877Y40069D01*
X-33311Y40889D01*
X-32957Y41821D01*
X-32837Y42810D01*
X-32837Y63190D02*
X-32957Y64179D01*
X-33310Y65111D01*
X-33877Y65931D01*
X-34622Y66592D01*
X-35505Y67055D01*
X-36473Y67294D01*
X-37469D01*
X-38437Y67055D01*
X-39319Y66592D01*
X-40065Y65931D01*
X-40631Y65111D01*
X-40985Y64179D01*
X-41105Y63190D01*
X-40985Y62200D01*
X-40631Y61269D01*
X-40065Y60448D01*
X-39319Y59787D01*
X-38437Y59324D01*
X-37469Y59086D01*
X-36473D01*
X-35505Y59324D01*
X-34622Y59787D01*
X-33877Y60448D01*
X-33310Y61269D01*
X-32957Y62200D01*
X-32837Y63190D01*
X-43027Y80839D02*
X-43147Y81829D01*
X-43500Y82761D01*
X-44067Y83581D01*
X-44813Y84241D01*
X-45695Y84705D01*
X-46663Y84943D01*
X-47659D01*
X-48627Y84705D01*
X-49509Y84241D01*
X-50255Y83581D01*
X-50821Y82761D01*
X-51175Y81829D01*
X-51295Y80839D01*
X-51175Y79850D01*
X-50821Y78918D01*
X-50255Y78098D01*
X-49509Y77437D01*
X-48627Y76974D01*
X-47659Y76735D01*
X-46663D01*
X-45695Y76974D01*
X-44813Y77437D01*
X-44067Y78098D01*
X-43500Y78918D01*
X-43147Y79850D01*
X-43027Y80839D01*
X-81693Y71753D02*
X-81813Y72742D01*
X-82166Y73674D01*
X-82733Y74494D01*
X-83479Y75155D01*
X-84361Y75618D01*
X-85329Y75857D01*
X-86325D01*
X-87293Y75618D01*
X-88175Y75155D01*
X-88921Y74494D01*
X-89487Y73674D01*
X-89841Y72742D01*
X-89961Y71753D01*
X-89841Y70764D01*
X-89487Y69832D01*
X-88921Y69011D01*
X-88175Y68351D01*
X-87293Y67888D01*
X-86325Y67649D01*
X-85329D01*
X-84361Y67888D01*
X-83479Y68351D01*
X-82733Y69012D01*
X-82166Y69832D01*
X-81813Y70764D01*
X-81693Y71753D01*
X-60676Y91029D02*
X-60796Y92018D01*
X-61150Y92950D01*
X-61716Y93770D01*
X-62462Y94431D01*
X-63344Y94894D01*
X-64312Y95133D01*
X-65308D01*
X-66276Y94894D01*
X-67159Y94431D01*
X-67905Y93770D01*
X-68471Y92950D01*
X-68824Y92018D01*
X-68944Y91029D01*
X-68824Y90039D01*
X-68471Y89108D01*
X-67905Y88287D01*
X-67159Y87627D01*
X-66276Y87163D01*
X-65308Y86925D01*
X-64312D01*
X-63344Y87163D01*
X-62462Y87627D01*
X-61716Y88287D01*
X-61150Y89108D01*
X-60796Y90039D01*
X-60676Y91029D01*
X-81056Y91029D02*
X-81176Y92018D01*
X-81529Y92950D01*
X-82095Y93770D01*
X-82841Y94431D01*
X-83724Y94894D01*
X-84691Y95133D01*
X-85688D01*
X-86656Y94894D01*
X-87538Y94431D01*
X-88284Y93770D01*
X-88850Y92950D01*
X-89204Y92018D01*
X-89324Y91029D01*
X-89204Y90040D01*
X-88850Y89108D01*
X-88284Y88288D01*
X-87538Y87627D01*
X-86656Y87164D01*
X-85688Y86925D01*
X-84691D01*
X-83724Y87164D01*
X-82841Y87627D01*
X-82095Y88288D01*
X-81529Y89108D01*
X-81176Y90040D01*
X-81056Y91029D01*
X-98705Y80839D02*
X-98825Y81828D01*
X-99179Y82760D01*
X-99745Y83580D01*
X-100491Y84241D01*
X-101373Y84704D01*
X-102341Y84943D01*
X-103338D01*
X-104305Y84704D01*
X-105188Y84241D01*
X-105934Y83580D01*
X-106500Y82760D01*
X-106853Y81828D01*
X-106973Y80839D01*
X-106853Y79850D01*
X-106500Y78918D01*
X-105934Y78098D01*
X-105188Y77437D01*
X-104305Y76974D01*
X-103338Y76735D01*
X-102341D01*
X-101373Y76974D01*
X-100491Y77437D01*
X-99745Y78098D01*
X-99179Y78918D01*
X-98825Y79850D01*
X-98705Y80839D01*
X-108895Y63190D02*
X-109015Y64179D01*
X-109368Y65111D01*
X-109934Y65931D01*
X-110680Y66592D01*
X-111563Y67055D01*
X-112531Y67294D01*
X-113527D01*
X-114495Y67055D01*
X-115377Y66592D01*
X-116123Y65931D01*
X-116689Y65111D01*
X-117043Y64179D01*
X-117163Y63190D01*
X-117043Y62200D01*
X-116689Y61269D01*
X-116123Y60448D01*
X-115377Y59788D01*
X-114495Y59324D01*
X-113527Y59086D01*
X-112531D01*
X-111563Y59324D01*
X-110680Y59788D01*
X-109934Y60448D01*
X-109368Y61269D01*
X-109015Y62200D01*
X-108895Y63190D01*
X-108895Y42810D02*
X-109015Y43800D01*
X-109369Y44732D01*
X-109935Y45552D01*
X-110681Y46213D01*
X-111563Y46676D01*
X-112531Y46914D01*
X-113527D01*
X-114495Y46676D01*
X-115377Y46213D01*
X-116123Y45552D01*
X-116690Y44732D01*
X-117043Y43800D01*
X-117163Y42810D01*
X-117043Y41821D01*
X-116690Y40889D01*
X-116123Y40069D01*
X-115377Y39408D01*
X-114495Y38945D01*
X-113527Y38706D01*
X-112531D01*
X-111563Y38945D01*
X-110681Y39408D01*
X-109935Y40069D01*
X-109369Y40889D01*
X-109015Y41821D01*
X-108895Y42810D01*
X-98705Y25161D02*
X-98825Y26150D01*
X-99179Y27082D01*
X-99745Y27902D01*
X-100491Y28563D01*
X-101373Y29026D01*
X-102341Y29265D01*
X-103337D01*
X-104305Y29026D01*
X-105187Y28563D01*
X-105933Y27902D01*
X-106500Y27082D01*
X-106853Y26150D01*
X-106973Y25161D01*
X-106853Y24171D01*
X-106500Y23239D01*
X-105933Y22419D01*
X-105187Y21758D01*
X-104305Y21295D01*
X-103337Y21057D01*
X-102341D01*
X-101373Y21295D01*
X-100491Y21758D01*
X-99745Y22419D01*
X-99179Y23239D01*
X-98825Y24171D01*
X-98705Y25161D01*
X-81056Y14971D02*
X-81176Y15961D01*
X-81529Y16892D01*
X-82095Y17713D01*
X-82841Y18373D01*
X-83724Y18837D01*
X-84692Y19075D01*
X-85688D01*
X-86656Y18837D01*
X-87538Y18373D01*
X-88284Y17713D01*
X-88850Y16892D01*
X-89204Y15961D01*
X-89324Y14971D01*
X-89204Y13982D01*
X-88850Y13050D01*
X-88284Y12230D01*
X-87538Y11569D01*
X-86656Y11106D01*
X-85688Y10867D01*
X-84692D01*
X-83724Y11106D01*
X-82841Y11569D01*
X-82095Y12230D01*
X-81529Y13050D01*
X-81176Y13982D01*
X-81056Y14971D01*
X92663Y-81029D02*
X92543Y-80039D01*
X92189Y-79108D01*
X91623Y-78287D01*
X90877Y-77627D01*
X89995Y-77163D01*
X89027Y-76925D01*
X88030D01*
X87063Y-77163D01*
X86180Y-77627D01*
X85434Y-78287D01*
X84868Y-79108D01*
X84515Y-80039D01*
X84395Y-81029D01*
X84515Y-82018D01*
X84868Y-82950D01*
X85434Y-83770D01*
X86180Y-84431D01*
X87063Y-84894D01*
X88030Y-85133D01*
X89027D01*
X89995Y-84894D01*
X90877Y-84431D01*
X91623Y-83770D01*
X92189Y-82950D01*
X92543Y-82018D01*
X92663Y-81029D01*
X92663Y-60649D02*
X92543Y-59660D01*
X92190Y-58728D01*
X91623Y-57908D01*
X90877Y-57247D01*
X89995Y-56784D01*
X89027Y-56545D01*
X88031D01*
X87063Y-56784D01*
X86181Y-57247D01*
X85435Y-57908D01*
X84869Y-58728D01*
X84515Y-59660D01*
X84395Y-60649D01*
X84515Y-61639D01*
X84869Y-62571D01*
X85435Y-63391D01*
X86181Y-64052D01*
X87063Y-64515D01*
X88031Y-64753D01*
X89027D01*
X89995Y-64515D01*
X90877Y-64052D01*
X91623Y-63391D01*
X92190Y-62571D01*
X92543Y-61639D01*
X92663Y-60649D01*
X82473Y-43000D02*
X82353Y-42010D01*
X82000Y-41078D01*
X81433Y-40258D01*
X80687Y-39597D01*
X79805Y-39134D01*
X78837Y-38896D01*
X77841D01*
X76873Y-39134D01*
X75991Y-39597D01*
X75245Y-40258D01*
X74679Y-41078D01*
X74325Y-42010D01*
X74205Y-43000D01*
X74325Y-43989D01*
X74679Y-44921D01*
X75245Y-45741D01*
X75991Y-46402D01*
X76873Y-46865D01*
X77841Y-47104D01*
X78837D01*
X79805Y-46865D01*
X80687Y-46402D01*
X81433Y-45741D01*
X82000Y-44921D01*
X82353Y-43989D01*
X82473Y-43000D01*
X43807Y-52086D02*
X43687Y-51097D01*
X43334Y-50165D01*
X42767Y-49345D01*
X42021Y-48684D01*
X41139Y-48221D01*
X40171Y-47982D01*
X39175D01*
X38207Y-48221D01*
X37325Y-48684D01*
X36579Y-49345D01*
X36013Y-50165D01*
X35659Y-51097D01*
X35539Y-52086D01*
X35659Y-53075D01*
X36013Y-54007D01*
X36579Y-54827D01*
X37325Y-55488D01*
X38207Y-55951D01*
X39175Y-56190D01*
X40171D01*
X41139Y-55951D01*
X42021Y-55488D01*
X42767Y-54827D01*
X43334Y-54007D01*
X43687Y-53075D01*
X43807Y-52086D01*
X64824Y-32810D02*
X64704Y-31821D01*
X64350Y-30889D01*
X63784Y-30069D01*
X63038Y-29408D01*
X62156Y-28945D01*
X61188Y-28706D01*
X60192D01*
X59224Y-28945D01*
X58341Y-29408D01*
X57595Y-30069D01*
X57029Y-30889D01*
X56676Y-31821D01*
X56556Y-32810D01*
X56676Y-33799D01*
X57029Y-34731D01*
X57595Y-35552D01*
X58341Y-36212D01*
X59224Y-36676D01*
X60192Y-36914D01*
X61188D01*
X62156Y-36676D01*
X63038Y-36212D01*
X63784Y-35552D01*
X64350Y-34731D01*
X64704Y-33799D01*
X64824Y-32810D01*
X44444Y-32810D02*
X44324Y-31821D01*
X43971Y-30889D01*
X43405Y-30069D01*
X42659Y-29408D01*
X41776Y-28945D01*
X40809Y-28706D01*
X39812D01*
X38844Y-28945D01*
X37962Y-29408D01*
X37216Y-30069D01*
X36650Y-30889D01*
X36296Y-31821D01*
X36176Y-32810D01*
X36296Y-33799D01*
X36650Y-34731D01*
X37216Y-35551D01*
X37962Y-36212D01*
X38844Y-36675D01*
X39812Y-36914D01*
X40809D01*
X41776Y-36675D01*
X42659Y-36212D01*
X43405Y-35551D01*
X43971Y-34731D01*
X44324Y-33799D01*
X44444Y-32810D01*
X26795Y-43000D02*
X26675Y-42011D01*
X26321Y-41079D01*
X25755Y-40259D01*
X25009Y-39598D01*
X24127Y-39135D01*
X23159Y-38896D01*
X22162D01*
X21195Y-39135D01*
X20312Y-39598D01*
X19566Y-40259D01*
X19000Y-41079D01*
X18647Y-42011D01*
X18527Y-43000D01*
X18647Y-43989D01*
X19000Y-44921D01*
X19566Y-45741D01*
X20312Y-46402D01*
X21195Y-46865D01*
X22162Y-47104D01*
X23159D01*
X24127Y-46865D01*
X25009Y-46402D01*
X25755Y-45741D01*
X26321Y-44921D01*
X26675Y-43989D01*
X26795Y-43000D01*
X16605Y-60649D02*
X16485Y-59660D01*
X16132Y-58728D01*
X15566Y-57908D01*
X14820Y-57247D01*
X13937Y-56784D01*
X12969Y-56545D01*
X11973D01*
X11005Y-56784D01*
X10123Y-57247D01*
X9377Y-57908D01*
X8811Y-58728D01*
X8457Y-59660D01*
X8337Y-60649D01*
X8457Y-61638D01*
X8811Y-62570D01*
X9377Y-63391D01*
X10123Y-64051D01*
X11005Y-64515D01*
X11973Y-64753D01*
X12969D01*
X13937Y-64515D01*
X14820Y-64051D01*
X15566Y-63391D01*
X16132Y-62570D01*
X16485Y-61638D01*
X16605Y-60649D01*
X16605Y-81029D02*
X16485Y-80039D01*
X16131Y-79107D01*
X15565Y-78287D01*
X14819Y-77627D01*
X13937Y-77163D01*
X12969Y-76925D01*
X11973D01*
X11005Y-77163D01*
X10123Y-77627D01*
X9377Y-78287D01*
X8810Y-79107D01*
X8457Y-80039D01*
X8337Y-81029D01*
X8457Y-82018D01*
X8811Y-82950D01*
X9377Y-83770D01*
X10123Y-84431D01*
X11005Y-84894D01*
X11973Y-85133D01*
X12969D01*
X13937Y-84894D01*
X14819Y-84431D01*
X15565Y-83770D01*
X16131Y-82950D01*
X16485Y-82018D01*
X16605Y-81029D01*
X26795Y-98678D02*
X26675Y-97689D01*
X26321Y-96757D01*
X25755Y-95937D01*
X25009Y-95276D01*
X24127Y-94813D01*
X23159Y-94574D01*
X22163D01*
X21195Y-94813D01*
X20312Y-95276D01*
X19567Y-95937D01*
X19000Y-96757D01*
X18647Y-97689D01*
X18527Y-98678D01*
X18647Y-99668D01*
X19001Y-100600D01*
X19567Y-101420D01*
X20312Y-102081D01*
X21195Y-102544D01*
X22163Y-102782D01*
X23159D01*
X24127Y-102544D01*
X25009Y-102081D01*
X25755Y-101420D01*
X26321Y-100600D01*
X26675Y-99668D01*
X26795Y-98678D01*
X44444Y-108868D02*
X44324Y-107878D01*
X43971Y-106947D01*
X43405Y-106126D01*
X42659Y-105466D01*
X41776Y-105002D01*
X40808Y-104764D01*
X39812D01*
X38844Y-105002D01*
X37962Y-105466D01*
X37216Y-106126D01*
X36650Y-106947D01*
X36296Y-107878D01*
X36176Y-108868D01*
X36296Y-109857D01*
X36650Y-110789D01*
X37216Y-111609D01*
X37962Y-112270D01*
X38844Y-112733D01*
X39812Y-112972D01*
X40808D01*
X41776Y-112733D01*
X42659Y-112270D01*
X43405Y-111609D01*
X43971Y-110789D01*
X44324Y-109857D01*
X44444Y-108868D01*
X-80556Y-109529D02*
X-80676Y-108539D01*
X-81029Y-107608D01*
X-81595Y-106787D01*
X-82341Y-106127D01*
X-83224Y-105663D01*
X-84192Y-105425D01*
X-85188D01*
X-86156Y-105663D01*
X-87038Y-106127D01*
X-87784Y-106787D01*
X-88350Y-107608D01*
X-88704Y-108539D01*
X-88824Y-109529D01*
X-88704Y-110518D01*
X-88350Y-111450D01*
X-87784Y-112270D01*
X-87038Y-112931D01*
X-86156Y-113394D01*
X-85188Y-113633D01*
X-84192D01*
X-83224Y-113394D01*
X-82341Y-112931D01*
X-81595Y-112270D01*
X-81029Y-111450D01*
X-80676Y-110518D01*
X-80556Y-109529D01*
X-98205Y-99339D02*
X-98325Y-98350D01*
X-98679Y-97418D01*
X-99245Y-96598D01*
X-99991Y-95937D01*
X-100873Y-95474D01*
X-101841Y-95235D01*
X-102837D01*
X-103805Y-95474D01*
X-104688Y-95937D01*
X-105433Y-96598D01*
X-106000Y-97418D01*
X-106353Y-98350D01*
X-106473Y-99339D01*
X-106353Y-100329D01*
X-106000Y-101260D01*
X-105433Y-102081D01*
X-104688Y-102742D01*
X-103805Y-103205D01*
X-102837Y-103443D01*
X-101841D01*
X-100873Y-103205D01*
X-99991Y-102742D01*
X-99245Y-102081D01*
X-98679Y-101260D01*
X-98325Y-100329D01*
X-98205Y-99339D01*
X-108395Y-81690D02*
X-108515Y-80700D01*
X-108869Y-79769D01*
X-109435Y-78948D01*
X-110181Y-78288D01*
X-111063Y-77824D01*
X-112031Y-77586D01*
X-113027D01*
X-113995Y-77824D01*
X-114877Y-78288D01*
X-115623Y-78948D01*
X-116190Y-79769D01*
X-116543Y-80700D01*
X-116663Y-81690D01*
X-116543Y-82679D01*
X-116190Y-83611D01*
X-115623Y-84431D01*
X-114877Y-85092D01*
X-113995Y-85555D01*
X-113027Y-85794D01*
X-112031D01*
X-111063Y-85555D01*
X-110181Y-85092D01*
X-109435Y-84431D01*
X-108869Y-83611D01*
X-108515Y-82679D01*
X-108395Y-81690D01*
X-108395Y-61310D02*
X-108515Y-60321D01*
X-108868Y-59389D01*
X-109434Y-58569D01*
X-110180Y-57908D01*
X-111063Y-57445D01*
X-112030Y-57206D01*
X-113027D01*
X-113995Y-57445D01*
X-114877Y-57908D01*
X-115623Y-58569D01*
X-116189Y-59389D01*
X-116543Y-60321D01*
X-116663Y-61310D01*
X-116543Y-62300D01*
X-116189Y-63231D01*
X-115623Y-64052D01*
X-114877Y-64712D01*
X-113995Y-65176D01*
X-113027Y-65414D01*
X-112030D01*
X-111063Y-65176D01*
X-110180Y-64712D01*
X-109434Y-64052D01*
X-108868Y-63231D01*
X-108515Y-62300D01*
X-108395Y-61310D01*
X-98205Y-43661D02*
X-98325Y-42672D01*
X-98679Y-41740D01*
X-99245Y-40920D01*
X-99991Y-40259D01*
X-100873Y-39796D01*
X-101841Y-39557D01*
X-102838D01*
X-103805Y-39796D01*
X-104688Y-40259D01*
X-105434Y-40920D01*
X-106000Y-41740D01*
X-106353Y-42672D01*
X-106473Y-43661D01*
X-106353Y-44650D01*
X-106000Y-45582D01*
X-105434Y-46402D01*
X-104688Y-47063D01*
X-103805Y-47526D01*
X-102838Y-47765D01*
X-101841D01*
X-100873Y-47526D01*
X-99991Y-47063D01*
X-99245Y-46402D01*
X-98679Y-45582D01*
X-98325Y-44650D01*
X-98205Y-43661D01*
X-80556Y-33471D02*
X-80676Y-32482D01*
X-81029Y-31550D01*
X-81595Y-30730D01*
X-82341Y-30069D01*
X-83224Y-29606D01*
X-84191Y-29367D01*
X-85188D01*
X-86156Y-29606D01*
X-87038Y-30069D01*
X-87784Y-30730D01*
X-88350Y-31550D01*
X-88704Y-32482D01*
X-88824Y-33471D01*
X-88704Y-34460D01*
X-88350Y-35392D01*
X-87784Y-36212D01*
X-87038Y-36873D01*
X-86156Y-37336D01*
X-85188Y-37575D01*
X-84191D01*
X-83224Y-37336D01*
X-82341Y-36873D01*
X-81595Y-36212D01*
X-81029Y-35392D01*
X-80676Y-34460D01*
X-80556Y-33471D01*
X-60176Y-33471D02*
X-60296Y-32482D01*
X-60650Y-31550D01*
X-61216Y-30730D01*
X-61962Y-30069D01*
X-62844Y-29606D01*
X-63812Y-29367D01*
X-64808D01*
X-65776Y-29606D01*
X-66659Y-30069D01*
X-67405Y-30730D01*
X-67971Y-31550D01*
X-68324Y-32482D01*
X-68444Y-33471D01*
X-68324Y-34461D01*
X-67971Y-35392D01*
X-67405Y-36213D01*
X-66659Y-36873D01*
X-65776Y-37337D01*
X-64808Y-37575D01*
X-63812D01*
X-62844Y-37337D01*
X-61962Y-36873D01*
X-61216Y-36213D01*
X-60650Y-35392D01*
X-60296Y-34460D01*
X-60176Y-33471D01*
X-81193Y-52747D02*
X-81313Y-51758D01*
X-81666Y-50826D01*
X-82233Y-50006D01*
X-82979Y-49345D01*
X-83861Y-48882D01*
X-84829Y-48643D01*
X-85825D01*
X-86793Y-48882D01*
X-87675Y-49345D01*
X-88421Y-50006D01*
X-88987Y-50826D01*
X-89341Y-51758D01*
X-89461Y-52747D01*
X-89341Y-53736D01*
X-88987Y-54668D01*
X-88421Y-55489D01*
X-87675Y-56149D01*
X-86793Y-56612D01*
X-85825Y-56851D01*
X-84829D01*
X-83861Y-56612D01*
X-82979Y-56149D01*
X-82233Y-55488D01*
X-81666Y-54668D01*
X-81313Y-53736D01*
X-81193Y-52747D01*
X-42527Y-43661D02*
X-42647Y-42671D01*
X-43000Y-41739D01*
X-43567Y-40919D01*
X-44313Y-40258D01*
X-45195Y-39795D01*
X-46163Y-39557D01*
X-47159D01*
X-48127Y-39795D01*
X-49009Y-40258D01*
X-49755Y-40919D01*
X-50321Y-41739D01*
X-50675Y-42671D01*
X-50795Y-43661D01*
X-50675Y-44650D01*
X-50321Y-45582D01*
X-49755Y-46402D01*
X-49009Y-47063D01*
X-48127Y-47526D01*
X-47159Y-47765D01*
X-46163D01*
X-45195Y-47526D01*
X-44313Y-47063D01*
X-43567Y-46402D01*
X-43000Y-45582D01*
X-42647Y-44650D01*
X-42527Y-43661D01*
X-32337Y-61310D02*
X-32457Y-60321D01*
X-32810Y-59389D01*
X-33377Y-58569D01*
X-34122Y-57908D01*
X-35005Y-57445D01*
X-35973Y-57206D01*
X-36969D01*
X-37937Y-57445D01*
X-38819Y-57908D01*
X-39565Y-58569D01*
X-40131Y-59389D01*
X-40485Y-60321D01*
X-40605Y-61310D01*
X-40485Y-62300D01*
X-40131Y-63231D01*
X-39565Y-64052D01*
X-38819Y-64713D01*
X-37937Y-65176D01*
X-36969Y-65414D01*
X-35973D01*
X-35005Y-65176D01*
X-34122Y-64713D01*
X-33377Y-64052D01*
X-32810Y-63231D01*
X-32457Y-62300D01*
X-32337Y-61310D01*
X-32337Y-81690D02*
X-32457Y-80700D01*
X-32811Y-79769D01*
X-33377Y-78948D01*
X-34123Y-78288D01*
X-35005Y-77824D01*
X-35973Y-77586D01*
X-36970D01*
X-37937Y-77824D01*
X-38820Y-78288D01*
X-39566Y-78948D01*
X-40132Y-79769D01*
X-40485Y-80700D01*
X-40605Y-81690D01*
X-40485Y-82679D01*
X-40132Y-83611D01*
X-39566Y-84431D01*
X-38820Y-85092D01*
X-37937Y-85555D01*
X-36970Y-85794D01*
X-35973D01*
X-35005Y-85555D01*
X-34123Y-85092D01*
X-33377Y-84431D01*
X-32811Y-83611D01*
X-32457Y-82679D01*
X-32337Y-81690D01*
X43944Y15971D02*
X43824Y16961D01*
X43471Y17892D01*
X42905Y18713D01*
X42159Y19373D01*
X41276Y19837D01*
X40308Y20075D01*
X39312D01*
X38344Y19837D01*
X37462Y19373D01*
X36716Y18713D01*
X36150Y17892D01*
X35796Y16961D01*
X35676Y15971D01*
X35796Y14982D01*
X36150Y14050D01*
X36716Y13230D01*
X37462Y12569D01*
X38344Y12106D01*
X39312Y11867D01*
X40308D01*
X41276Y12106D01*
X42159Y12569D01*
X42905Y13230D01*
X43471Y14050D01*
X43824Y14982D01*
X43944Y15971D01*
X26295Y26161D02*
X26175Y27150D01*
X25821Y28082D01*
X25255Y28902D01*
X24509Y29563D01*
X23627Y30026D01*
X22659Y30265D01*
X21663D01*
X20695Y30026D01*
X19813Y29563D01*
X19067Y28902D01*
X18500Y28082D01*
X18147Y27150D01*
X18027Y26161D01*
X18147Y25171D01*
X18500Y24239D01*
X19067Y23419D01*
X19813Y22759D01*
X20695Y22295D01*
X21663Y22057D01*
X22659D01*
X23627Y22295D01*
X24509Y22759D01*
X25255Y23419D01*
X25821Y24239D01*
X26175Y25171D01*
X26295Y26161D01*
X16105Y43810D02*
X15985Y44800D01*
X15631Y45731D01*
X15065Y46552D01*
X14319Y47212D01*
X13437Y47676D01*
X12469Y47914D01*
X11473D01*
X10505Y47676D01*
X9623Y47212D01*
X8877Y46552D01*
X8310Y45731D01*
X7957Y44800D01*
X7837Y43810D01*
X7957Y42821D01*
X8310Y41889D01*
X8877Y41069D01*
X9623Y40408D01*
X10505Y39945D01*
X11473Y39706D01*
X12469D01*
X13437Y39945D01*
X14319Y40408D01*
X15065Y41069D01*
X15631Y41889D01*
X15985Y42821D01*
X16105Y43810D01*
X16105Y64190D02*
X15985Y65179D01*
X15632Y66111D01*
X15066Y66931D01*
X14320Y67592D01*
X13437Y68055D01*
X12470Y68294D01*
X11473D01*
X10505Y68055D01*
X9623Y67592D01*
X8877Y66931D01*
X8311Y66111D01*
X7957Y65179D01*
X7837Y64190D01*
X7957Y63200D01*
X8311Y62269D01*
X8877Y61448D01*
X9623Y60788D01*
X10505Y60324D01*
X11473Y60086D01*
X12470D01*
X13437Y60324D01*
X14320Y60788D01*
X15066Y61448D01*
X15632Y62269D01*
X15985Y63200D01*
X16105Y64190D01*
X26295Y81839D02*
X26175Y82828D01*
X25821Y83760D01*
X25255Y84580D01*
X24509Y85241D01*
X23627Y85704D01*
X22659Y85943D01*
X21662D01*
X20695Y85704D01*
X19812Y85241D01*
X19066Y84580D01*
X18500Y83760D01*
X18147Y82828D01*
X18027Y81839D01*
X18147Y80850D01*
X18500Y79918D01*
X19066Y79098D01*
X19812Y78437D01*
X20695Y77974D01*
X21662Y77735D01*
X22659D01*
X23627Y77974D01*
X24509Y78437D01*
X25255Y79098D01*
X25821Y79918D01*
X26175Y80850D01*
X26295Y81839D01*
X43944Y92029D02*
X43824Y93018D01*
X43471Y93950D01*
X42905Y94770D01*
X42159Y95431D01*
X41276Y95894D01*
X40309Y96133D01*
X39312D01*
X38344Y95894D01*
X37462Y95431D01*
X36716Y94770D01*
X36150Y93950D01*
X35796Y93018D01*
X35676Y92029D01*
X35796Y91040D01*
X36150Y90108D01*
X36716Y89288D01*
X37462Y88627D01*
X38344Y88164D01*
X39312Y87925D01*
X40309D01*
X41276Y88164D01*
X42159Y88627D01*
X42905Y89288D01*
X43471Y90108D01*
X43824Y91040D01*
X43944Y92029D01*
X64324Y92029D02*
X64204Y93018D01*
X63850Y93950D01*
X63284Y94770D01*
X62538Y95431D01*
X61656Y95894D01*
X60688Y96133D01*
X59692D01*
X58724Y95894D01*
X57841Y95431D01*
X57095Y94770D01*
X56529Y93950D01*
X56176Y93018D01*
X56056Y92029D01*
X56176Y91039D01*
X56529Y90108D01*
X57095Y89287D01*
X57841Y88627D01*
X58724Y88163D01*
X59692Y87925D01*
X60688D01*
X61656Y88163D01*
X62538Y88627D01*
X63284Y89287D01*
X63850Y90108D01*
X64204Y91040D01*
X64324Y92029D01*
X43307Y72753D02*
X43187Y73742D01*
X42834Y74674D01*
X42267Y75494D01*
X41521Y76155D01*
X40639Y76618D01*
X39671Y76857D01*
X38675D01*
X37707Y76618D01*
X36825Y76155D01*
X36079Y75494D01*
X35513Y74674D01*
X35159Y73742D01*
X35039Y72753D01*
X35159Y71764D01*
X35513Y70832D01*
X36079Y70012D01*
X36825Y69351D01*
X37707Y68888D01*
X38675Y68649D01*
X39671D01*
X40639Y68888D01*
X41521Y69351D01*
X42267Y70012D01*
X42834Y70832D01*
X43187Y71764D01*
X43307Y72753D01*
X81973Y81839D02*
X81853Y82829D01*
X81500Y83760D01*
X80933Y84581D01*
X80187Y85242D01*
X79305Y85705D01*
X78337Y85943D01*
X77341D01*
X76373Y85705D01*
X75491Y85242D01*
X74745Y84581D01*
X74179Y83760D01*
X73825Y82829D01*
X73705Y81839D01*
X73825Y80850D01*
X74179Y79918D01*
X74745Y79098D01*
X75491Y78437D01*
X76373Y77974D01*
X77341Y77735D01*
X78337D01*
X79305Y77974D01*
X80187Y78437D01*
X80933Y79098D01*
X81500Y79918D01*
X81853Y80850D01*
X81973Y81839D01*
X92163Y64190D02*
X92043Y65179D01*
X91690Y66111D01*
X91123Y66931D01*
X90377Y67592D01*
X89495Y68055D01*
X88527Y68294D01*
X87531D01*
X86563Y68055D01*
X85681Y67592D01*
X84935Y66931D01*
X84369Y66111D01*
X84015Y65179D01*
X83895Y64190D01*
X84015Y63200D01*
X84369Y62269D01*
X84935Y61448D01*
X85681Y60787D01*
X86563Y60324D01*
X87531Y60086D01*
X88527D01*
X89495Y60324D01*
X90377Y60787D01*
X91123Y61448D01*
X91690Y62269D01*
X92043Y63200D01*
X92163Y64190D01*
X92163Y43810D02*
X92043Y44800D01*
X91689Y45731D01*
X91123Y46552D01*
X90377Y47212D01*
X89495Y47676D01*
X88527Y47914D01*
X87530D01*
X86563Y47676D01*
X85680Y47212D01*
X84934Y46552D01*
X84368Y45731D01*
X84015Y44800D01*
X83895Y43810D01*
X84015Y42821D01*
X84368Y41889D01*
X84934Y41069D01*
X85680Y40408D01*
X86563Y39945D01*
X87530Y39706D01*
X88527D01*
X89495Y39945D01*
X90377Y40408D01*
X91123Y41069D01*
X91689Y41889D01*
X92043Y42821D01*
X92163Y43810D01*
D15*
X128218Y-68166D02*
D03*
Y-62260D02*
D03*
X-116500Y78905D02*
D03*
Y73000D02*
D03*
X9500Y80405D02*
D03*
Y74500D02*
D03*
X-90000Y-118047D02*
D03*
Y-123953D02*
D03*
X39173Y-118095D02*
D03*
Y-124000D02*
D03*
X-85500Y2905D02*
D03*
Y-3000D02*
D03*
X-115500Y32453D02*
D03*
Y26547D02*
D03*
X-28500Y57500D02*
D03*
Y51595D02*
D03*
X10000Y34453D02*
D03*
Y28547D02*
D03*
X94906Y55693D02*
D03*
Y49787D02*
D03*
X-121500Y56500D02*
D03*
Y50595D02*
D03*
X-32500Y79953D02*
D03*
Y74047D02*
D03*
X4000Y55693D02*
D03*
Y49787D02*
D03*
X-118000Y-91047D02*
D03*
Y-96953D02*
D03*
X-26500Y-69500D02*
D03*
Y-75406D02*
D03*
X10000Y-91500D02*
D03*
Y-97405D02*
D03*
X96500Y-69500D02*
D03*
Y-75406D02*
D03*
X-121000Y-66547D02*
D03*
Y-72453D02*
D03*
X-31067Y-44047D02*
D03*
Y-49953D02*
D03*
X4000Y-67547D02*
D03*
Y-73453D02*
D03*
X-50500Y-32906D02*
D03*
Y-27000D02*
D03*
X9000Y-45547D02*
D03*
Y-51453D02*
D03*
D16*
X128794Y-46399D02*
D03*
X134699D02*
D03*
X134485Y-39359D02*
D03*
X128579D02*
D03*
X-6047Y-29500D02*
D03*
X-11953D02*
D03*
X115953Y91898D02*
D03*
X110047D02*
D03*
X87626Y-23500D02*
D03*
X93532D02*
D03*
X127984Y46000D02*
D03*
X122079D02*
D03*
X130500Y67500D02*
D03*
X124594D02*
D03*
X-18453Y84000D02*
D03*
X-12547D02*
D03*
X128000Y28000D02*
D03*
X122095D02*
D03*
X22500Y5500D02*
D03*
X16594D02*
D03*
X24547Y16000D02*
D03*
X30453D02*
D03*
X86094Y32000D02*
D03*
X92000D02*
D03*
X-31953Y30000D02*
D03*
X-26047D02*
D03*
X-96434Y93500D02*
D03*
X-102339D02*
D03*
X-71547Y101500D02*
D03*
X-77453D02*
D03*
X-46095Y94000D02*
D03*
X-52000D02*
D03*
X29953Y93500D02*
D03*
X24047D02*
D03*
X52000Y100500D02*
D03*
X46095D02*
D03*
X77406Y94500D02*
D03*
X71500D02*
D03*
X-101500Y-109000D02*
D03*
X-95595D02*
D03*
X-36453Y-99000D02*
D03*
X-30547D02*
D03*
X23547Y-110500D02*
D03*
X29453D02*
D03*
X92594Y-93000D02*
D03*
X98500D02*
D03*
X-104000Y12185D02*
D03*
X-98094D02*
D03*
X87047Y76000D02*
D03*
X92953D02*
D03*
X-94547Y-32500D02*
D03*
X-100453D02*
D03*
X-111076Y-49500D02*
D03*
X-116982D02*
D03*
X85576Y-49000D02*
D03*
X91482D02*
D03*
X-70547Y-25000D02*
D03*
X-76453D02*
D03*
X37453Y-42000D02*
D03*
X31547D02*
D03*
X76406Y-32500D02*
D03*
X70500D02*
D03*
X53453Y-27000D02*
D03*
X47547D02*
D03*
D17*
X109440Y-71489D02*
D03*
X116920D02*
D03*
X113180Y-79363D02*
D03*
X116065Y-65247D02*
D03*
X108584D02*
D03*
X112325Y-57373D02*
D03*
D20*
X50500Y-70839D02*
D03*
X50000Y54000D02*
D03*
X-75000Y53000D02*
D03*
X-74500Y-71500D02*
D03*
D21*
X-85190Y14971D02*
D03*
X-102839Y25161D02*
D03*
X-113029Y42810D02*
D03*
X-113029Y63190D02*
D03*
X-102839Y80839D02*
D03*
X-85190Y91029D02*
D03*
X-64810Y91029D02*
D03*
X-47161Y80839D02*
D03*
X-36971Y63190D02*
D03*
X-36971Y42810D02*
D03*
X-85827Y71753D02*
D03*
X40310Y-108868D02*
D03*
X22661Y-98678D02*
D03*
X12471Y-81029D02*
D03*
X12471Y-60649D02*
D03*
X22661Y-43000D02*
D03*
X40310Y-32810D02*
D03*
X60690Y-32810D02*
D03*
X78339Y-43000D02*
D03*
X88529Y-60649D02*
D03*
X88529Y-81029D02*
D03*
X39673Y-52086D02*
D03*
X-85327Y-52747D02*
D03*
X-36471Y-81690D02*
D03*
X-36471Y-61310D02*
D03*
X-46661Y-43661D02*
D03*
X-64310Y-33471D02*
D03*
X-84690Y-33471D02*
D03*
X-102339Y-43661D02*
D03*
X-112529Y-61310D02*
D03*
X-112529Y-81690D02*
D03*
X-102339Y-99339D02*
D03*
X-84690Y-109529D02*
D03*
X39173Y72753D02*
D03*
X88029Y43810D02*
D03*
X88029Y64190D02*
D03*
X77839Y81839D02*
D03*
X60190Y92029D02*
D03*
X39810Y92029D02*
D03*
X22161Y81839D02*
D03*
X11971Y64190D02*
D03*
X11971Y43810D02*
D03*
X22161Y26161D02*
D03*
X39810Y15971D02*
D03*
D22*
X189000Y18000D02*
D03*
Y8000D02*
D03*
Y-2000D02*
D03*
Y-12000D02*
D03*
Y-22000D02*
D03*
D23*
X128798Y46463D02*
D03*
X162022Y-26505D02*
D03*
X128997Y-39101D02*
D03*
X148589Y-31002D02*
D03*
X133707Y-51684D02*
D03*
X128366Y-50721D02*
D03*
X120683Y-46399D02*
D03*
X119725Y-56497D02*
D03*
X129655Y-34740D02*
D03*
X99978Y-49964D02*
D03*
X109558Y-71489D02*
D03*
X115648Y-29389D02*
D03*
X151966Y-18231D02*
D03*
X156833Y-6309D02*
D03*
X94058Y-22000D02*
D03*
X141917Y15467D02*
D03*
X132441Y19720D02*
D03*
X138684Y72240D02*
D03*
X113760Y-36895D02*
D03*
X103962Y-4241D02*
D03*
X92602Y-11068D02*
D03*
X133414Y71805D02*
D03*
X95270Y-38310D02*
D03*
X-19061Y-20192D02*
D03*
X76000Y-9000D02*
D03*
X72500Y7063D02*
D03*
X119176Y25161D02*
D03*
X118679Y-2071D02*
D03*
X-120811Y-10500D02*
D03*
X-122743Y-1250D02*
D03*
X-124026Y5952D02*
D03*
X119500Y2358D02*
D03*
X124047Y-4000D02*
D03*
X-19061Y-31002D02*
D03*
X0Y-13500D02*
D03*
X151500Y6000D02*
D03*
X167378Y18500D02*
D03*
X161047Y26000D02*
D03*
X92594Y103442D02*
D03*
X11500Y-20000D02*
D03*
X-1500Y4417D02*
D03*
X117500Y90398D02*
D03*
Y62906D02*
D03*
X115032Y33142D02*
D03*
X117500Y44500D02*
D03*
X3839Y19417D02*
D03*
X144515Y44246D02*
D03*
X197500Y30500D02*
D03*
X-28066Y85377D02*
D03*
X-21066Y99877D02*
D03*
X-6000Y65500D02*
D03*
X19000Y54000D02*
D03*
X118000Y-10500D02*
D03*
X120500Y-7000D02*
D03*
X94250Y-1250D02*
D03*
X105491Y94339D02*
D03*
X170610Y4327D02*
D03*
D24*
X118291Y-112118D02*
D03*
X-133394Y-112117D02*
D03*
X-133394Y95056D02*
D03*
D25*
X149500Y31327D02*
D03*
D48*
X116275Y-43241D02*
D03*
Y-50721D02*
D03*
X108401Y-46981D02*
D03*
X107000Y-31000D02*
D03*
Y-38480D02*
D03*
X99126Y-34740D02*
D03*
X117500Y107500D02*
D03*
Y100020D02*
D03*
X109626Y103760D02*
D03*
X137626Y72240D02*
D03*
X145500Y68500D02*
D03*
Y75980D02*
D03*
X138126Y52740D02*
D03*
X146000Y49000D02*
D03*
Y56480D02*
D03*
X143000Y36980D02*
D03*
Y29500D02*
D03*
X135126Y33240D02*
D03*
X-7063Y103240D02*
D03*
Y95760D02*
D03*
X-14937Y99500D02*
D03*
X-5063Y-12260D02*
D03*
Y-19740D02*
D03*
X-12937Y-16000D02*
D03*
D49*
X104887Y-22870D02*
D03*
X99572D02*
D03*
X88500Y-29874D02*
D03*
X93815D02*
D03*
X68657Y11306D02*
D03*
X63342D02*
D03*
X156235Y-19327D02*
D03*
X161550D02*
D03*
D50*
X98500Y-4559D02*
D03*
Y-9874D02*
D03*
X149500Y12185D02*
D03*
Y17500D02*
D03*
D51*
X-121500Y-17748D02*
D03*
Y-9874D02*
D03*
Y5874D02*
D03*
Y-2000D02*
D03*
D52*
X-139217Y-27591D02*
D03*
Y15717D02*
D03*
D53*
X116173Y-22642D02*
D03*
X118142D02*
D03*
X120110D02*
D03*
X122079D02*
D03*
X124047D02*
D03*
X126016D02*
D03*
X127984D02*
D03*
X129953D02*
D03*
X131921D02*
D03*
X133890D02*
D03*
X135858D02*
D03*
X137827D02*
D03*
Y9642D02*
D03*
X135858D02*
D03*
X133890D02*
D03*
X131921D02*
D03*
X129953D02*
D03*
X127984D02*
D03*
X126016D02*
D03*
X124047D02*
D03*
X122079D02*
D03*
X120110D02*
D03*
X118142D02*
D03*
X116173D02*
D03*
D54*
X143142Y-17327D02*
D03*
Y-15358D02*
D03*
Y-13390D02*
D03*
Y-11421D02*
D03*
Y-9453D02*
D03*
Y-7484D02*
D03*
Y-5516D02*
D03*
Y-3547D02*
D03*
Y-1579D02*
D03*
Y390D02*
D03*
Y2358D02*
D03*
Y4327D02*
D03*
X110858D02*
D03*
Y2358D02*
D03*
Y390D02*
D03*
Y-1579D02*
D03*
Y-3547D02*
D03*
Y-5516D02*
D03*
Y-7484D02*
D03*
Y-9453D02*
D03*
Y-11421D02*
D03*
Y-13390D02*
D03*
Y-15358D02*
D03*
Y-17327D02*
D03*
D55*
X-26465Y4834D02*
D03*
D56*
X2669Y13889D02*
D03*
Y-4221D02*
D03*
M02*
