M48
;Layer_Color=9474304
;FILE_FORMAT=2:5
INCH,LZ
;TYPE=PLATED
T1F00S00C0.01000
T2F00S00C0.01181
T3F00S00C0.04016
T4F00S00C0.05512
T5F00S00C0.11811
;TYPE=NON_PLATED
T6F00S00C0.24409
%
T01
X01495Y0031327
T02
X0109558Y-0071489
X0119725Y-0056497
X0120683Y-0046399
X0128366Y-0050721
X0133707Y-0051684
X0128997Y-0039101
X0129655Y-003474
X011376Y-0036895
X0115648Y-0029389
X0118Y-00105
X01205Y-0007
X0124047Y-0004
X0118679Y-0002071
X0103962Y-0004241
X009425Y-000125
X0092602Y-0011068
X0094058Y-0022
X009527Y-003831
X0099978Y-0049964
X0076Y-0009
X0156833Y-0006309
X0151966Y-0018231
X0148589Y-0031002
X0162022Y-0026505
X00115Y-002
X0Y-00135
X-0019061Y-0020192
Y-0031002
X-0120811Y-00105
X-0122743Y-000125
X-0124026Y0005952
X-00015Y0004417
X0003839Y0019417
X0019Y0054
X-0006Y00655
X-0028066Y0085377
X-0021066Y0099877
X0092594Y0103442
X0105491Y0094339
X01175Y0090398
Y0062906
Y00445
X0128798Y0046463
X0144515Y0044246
X0141917Y0015467
X0132441Y001972
X0119176Y0025161
X0115032Y0033142
X01195Y0002358
X01515Y0006
X017061Y0004327
X0167378Y00185
X0161047Y0026
X01975Y00305
X0138684Y007224
X0133414Y0071805
X00725Y0007063
T03
X0189Y-0022
Y-0012
Y-0002
Y0008
Y0018
T04
X0088529Y-0081029
X0088529Y-0060649
X0078339Y-0043
X006069Y-003281
X004031Y-003281
X0039673Y-0052086
X0022661Y-0043
X0012471Y-0060649
X0012471Y-0081029
X0022661Y-0098678
X004031Y-0108868
X-0036471Y-008169
X-0036471Y-006131
X-0046661Y-0043661
X-006431Y-0033471
X-008469Y-0033471
X-0085327Y-0052747
X-008469Y-0109529
X-0102339Y-0099339
X-0112529Y-008169
X-0112529Y-006131
X-0102339Y-0043661
X-0102839Y0025161
X-0113029Y004281
X-0113029Y006319
X-0102839Y0080839
X-0085827Y0071753
X-008519Y0091029
X-006481Y0091029
X-0047161Y0080839
X-0036971Y006319
X-0036971Y004281
X0011971Y004381
X0011971Y006419
X0022161Y0081839
X0039173Y0072753
X003981Y0092029
X006019Y0092029
X003981Y0015971
X0022161Y0026161
X-008519Y0014971
X0088029Y004381
X0088029Y006419
X0077839Y0081839
T05
X0118291Y-0112118
X-0133394Y-0112117
X-0133394Y0095056
T06
X-00745Y-00715
X00505Y-0070839
X005Y0054
X-0075Y0053
M30
