G04*
G04 #@! TF.GenerationSoftware,Altium Limited,Altium Designer,19.0.14 (431)*
G04*
G04 Layer_Physical_Order=1*
G04 Layer_Color=255*
%FSLAX25Y25*%
%MOIN*%
G70*
G01*
G75*
%ADD10C,0.01000*%
%ADD26R,0.04724X0.03543*%
%ADD27R,0.02362X0.06102*%
%ADD28R,0.02953X0.03150*%
%ADD29R,0.03150X0.02953*%
%ADD30R,0.02756X0.03543*%
%ADD31R,0.08661X0.05906*%
%ADD32R,0.05906X0.08661*%
%ADD33C,0.23622*%
%ADD34C,0.08268*%
%ADD35C,0.05906*%
%ADD36C,0.02362*%
%ADD37C,0.19685*%
%ADD38C,0.02000*%
G36*
X109147Y114267D02*
X112907Y113709D01*
X113278Y113616D01*
X113217Y113120D01*
X-108416D01*
X-108844Y113035D01*
X-109208Y112792D01*
X-122198Y99802D01*
X-122441Y99438D01*
X-122526Y99010D01*
Y98377D01*
X-123026Y98318D01*
X-123050Y98417D01*
X-123703Y99993D01*
X-124595Y101449D01*
X-125703Y102746D01*
X-127001Y103855D01*
X-128456Y104747D01*
X-130033Y105400D01*
X-131692Y105798D01*
X-132894Y105893D01*
Y95056D01*
Y84219D01*
X-131692Y84314D01*
X-130033Y84712D01*
X-128456Y85365D01*
X-127001Y86257D01*
X-125703Y87365D01*
X-124595Y88663D01*
X-123703Y90118D01*
X-123050Y91695D01*
X-123026Y91794D01*
X-122526Y91735D01*
Y9035D01*
X-123834Y7728D01*
X-124026Y7766D01*
X-124720Y7628D01*
X-125309Y7235D01*
X-125702Y6646D01*
X-125840Y5952D01*
X-125702Y5257D01*
X-125309Y4669D01*
X-124720Y4276D01*
X-124026Y4138D01*
X-123331Y4276D01*
X-122743Y4669D01*
X-122350Y5257D01*
X-122211Y5952D01*
X-122250Y6144D01*
X-120861Y7533D01*
X-120361Y7326D01*
Y3222D01*
X-123087Y496D01*
X-123437Y426D01*
X-124026Y33D01*
X-124419Y-556D01*
X-124557Y-1250D01*
X-124419Y-1944D01*
X-124026Y-2533D01*
X-123437Y-2926D01*
X-122743Y-3064D01*
X-122048Y-2926D01*
X-121460Y-2533D01*
X-121067Y-1944D01*
X-120929Y-1250D01*
X-121051Y-635D01*
X-118449Y1966D01*
X-118206Y2330D01*
X-118121Y2758D01*
Y41485D01*
X-117640Y41575D01*
X-117163Y40424D01*
X-116404Y39435D01*
X-115416Y38677D01*
X-114265Y38200D01*
X-113029Y38037D01*
X-111794Y38200D01*
X-110642Y38677D01*
X-109654Y39435D01*
X-108895Y40424D01*
X-108419Y41575D01*
X-108256Y42810D01*
X-108419Y44046D01*
X-108895Y45197D01*
X-109654Y46185D01*
X-110643Y46944D01*
X-111794Y47421D01*
X-113029Y47584D01*
X-114265Y47421D01*
X-115416Y46944D01*
X-116404Y46185D01*
X-117163Y45197D01*
X-117640Y44046D01*
X-118121Y44136D01*
Y61865D01*
X-117639Y61954D01*
X-117163Y60803D01*
X-116404Y59815D01*
X-115415Y59056D01*
X-114264Y58579D01*
X-113029Y58416D01*
X-111793Y58579D01*
X-110642Y59056D01*
X-109654Y59815D01*
X-108895Y60803D01*
X-108418Y61954D01*
X-108256Y63190D01*
X-108418Y64425D01*
X-108895Y65576D01*
X-109654Y66565D01*
X-110642Y67324D01*
X-111793Y67800D01*
X-113029Y67963D01*
X-114264Y67800D01*
X-115415Y67324D01*
X-116404Y66565D01*
X-117163Y65576D01*
X-117639Y64425D01*
X-118121Y64515D01*
Y95047D01*
X-104288Y108880D01*
X108036D01*
X121708Y95208D01*
X122071Y94965D01*
X122500Y94880D01*
X128111D01*
X159975Y63016D01*
Y59075D01*
X158921D01*
Y54925D01*
X159690D01*
Y52594D01*
X159228Y52403D01*
X156386Y55245D01*
X156023Y55488D01*
X155595Y55573D01*
X155575D01*
Y56626D01*
X151425D01*
Y52280D01*
X155575D01*
Y52280D01*
X156006Y52458D01*
X159690Y48773D01*
Y45933D01*
X158783D01*
Y41193D01*
X160880D01*
Y38280D01*
X160221D01*
Y30980D01*
X163779D01*
Y38280D01*
X163120D01*
Y42310D01*
X163035Y42739D01*
X162792Y43102D01*
X162736Y43158D01*
Y45933D01*
X161930D01*
Y48245D01*
X162122Y48665D01*
X164000D01*
Y51437D01*
X164500D01*
Y51937D01*
X166878D01*
Y52286D01*
X167378Y52553D01*
X167380Y52552D01*
Y45933D01*
X166264D01*
Y41193D01*
X167380D01*
Y38280D01*
X165220D01*
Y30980D01*
X168780D01*
Y34826D01*
X169292Y35338D01*
X169535Y35701D01*
X169620Y36130D01*
Y41193D01*
X170217D01*
Y45933D01*
X169620D01*
Y53500D01*
X169535Y53929D01*
X169292Y54292D01*
X169023Y54561D01*
X169173Y54925D01*
X169173D01*
Y55880D01*
X176547D01*
X176976Y55965D01*
X177339Y56208D01*
X177411Y56279D01*
X180075D01*
Y60626D01*
X175925D01*
Y58120D01*
X169173D01*
Y59075D01*
X168120D01*
Y60500D01*
X168035Y60929D01*
X167792Y61292D01*
X116961Y112123D01*
X117235Y112556D01*
X120172Y111505D01*
X123608Y109880D01*
X126868Y107926D01*
X128104Y107009D01*
X128125Y107038D01*
X199521Y55114D01*
X199519Y55111D01*
X200846Y53978D01*
X201983Y52646D01*
X202898Y51153D01*
X203568Y49536D01*
X203977Y47833D01*
X204114Y46088D01*
X204117D01*
Y-20684D01*
X204114D01*
X203977Y-22429D01*
X203568Y-24132D01*
X202898Y-25749D01*
X201983Y-27242D01*
X200846Y-28574D01*
X199515Y-29711D01*
X198022Y-30625D01*
X196405Y-31295D01*
X194702Y-31704D01*
X192957Y-31841D01*
Y-31845D01*
X192957Y-31845D01*
X169335D01*
Y-31811D01*
X165597Y-31995D01*
X161895Y-32544D01*
X158265Y-33453D01*
X154742Y-34714D01*
X151358Y-36314D01*
X148805Y-37845D01*
X148495Y-37447D01*
X154377Y-31565D01*
X165072D01*
X165500Y-31480D01*
X165864Y-31237D01*
X172397Y-24704D01*
X176143D01*
Y-19964D01*
X170222D01*
Y-23711D01*
X164608Y-29325D01*
X153913D01*
X153485Y-29410D01*
X153121Y-29653D01*
X150440Y-32334D01*
X150052Y-32016D01*
X150265Y-31696D01*
X150403Y-31002D01*
X150362Y-30793D01*
X150566Y-30488D01*
X150651Y-30060D01*
Y-27336D01*
X158782Y-19205D01*
X159198Y-18996D01*
Y-18996D01*
X159198Y-18996D01*
X165120D01*
Y-14255D01*
X159198D01*
Y-15692D01*
X158986Y-15834D01*
X148739Y-26081D01*
X148496Y-26444D01*
X148411Y-26873D01*
Y-29223D01*
X147895Y-29326D01*
X147306Y-29719D01*
X146913Y-30307D01*
X146775Y-31002D01*
X146913Y-31696D01*
X147306Y-32285D01*
X147895Y-32678D01*
X148589Y-32816D01*
X149283Y-32678D01*
X149603Y-32465D01*
X149922Y-32853D01*
X132915Y-49860D01*
X132672Y-50223D01*
X132669Y-50238D01*
X132424Y-50402D01*
X132030Y-50990D01*
X131892Y-51684D01*
X132030Y-52379D01*
X132424Y-52967D01*
X133012Y-53361D01*
X133707Y-53499D01*
X134401Y-53361D01*
X134534Y-53272D01*
X134927Y-53610D01*
X134104Y-55352D01*
X132843Y-58875D01*
X131934Y-62505D01*
X131385Y-66207D01*
X131201Y-69945D01*
X131234D01*
Y-117189D01*
X131231D01*
X131094Y-118934D01*
X130685Y-120637D01*
X130015Y-122254D01*
X129100Y-123747D01*
X127963Y-125079D01*
X126632Y-126216D01*
X125139Y-127130D01*
X123521Y-127801D01*
X121819Y-128209D01*
X120074Y-128347D01*
Y-128350D01*
X120074Y-128350D01*
X-141689D01*
X-141689Y-128350D01*
Y-128347D01*
X-143434Y-128209D01*
X-145137Y-127801D01*
X-146754Y-127130D01*
X-148247Y-126216D01*
X-149579Y-125079D01*
X-150716Y-123747D01*
X-151630Y-122254D01*
X-152301Y-120637D01*
X-152709Y-118934D01*
X-152847Y-117189D01*
X-152850D01*
X-152850Y-117189D01*
Y103283D01*
X-152850Y103284D01*
X-152847D01*
X-152709Y105029D01*
X-152301Y106731D01*
X-151630Y108349D01*
X-150716Y109842D01*
X-149579Y111173D01*
X-148247Y112310D01*
X-146754Y113225D01*
X-145137Y113895D01*
X-143434Y114304D01*
X-141689Y114441D01*
Y114444D01*
X105351D01*
X105388Y114452D01*
X109147Y114267D01*
D02*
G37*
%LPC*%
G36*
X102404Y108009D02*
X92546D01*
Y105246D01*
X91900Y105118D01*
X91311Y104725D01*
X90918Y104136D01*
X90779Y103442D01*
X90918Y102747D01*
X91311Y102159D01*
X91900Y101765D01*
X92546Y101637D01*
Y100907D01*
X102404D01*
Y108009D01*
D02*
G37*
G36*
X-22637Y108030D02*
X-32495D01*
Y100928D01*
X-23701D01*
X-22842Y100069D01*
X-22880Y99877D01*
X-22742Y99182D01*
X-22349Y98594D01*
X-21760Y98201D01*
X-21066Y98062D01*
X-20371Y98201D01*
X-19783Y98594D01*
X-19389Y99182D01*
X-19251Y99877D01*
X-19389Y100571D01*
X-19783Y101160D01*
X-20371Y101553D01*
X-21066Y101691D01*
X-21258Y101653D01*
X-22637Y103031D01*
Y108030D01*
D02*
G37*
G36*
X-133894Y105893D02*
X-135095Y105798D01*
X-136755Y105400D01*
X-138331Y104747D01*
X-139787Y103855D01*
X-141084Y102746D01*
X-142193Y101449D01*
X-143084Y99993D01*
X-143737Y98417D01*
X-144136Y96757D01*
X-144230Y95556D01*
X-133894D01*
Y105893D01*
D02*
G37*
G36*
X105491Y96154D02*
X104797Y96016D01*
X104209Y95622D01*
X103815Y95034D01*
X103677Y94339D01*
X103715Y94147D01*
X102941Y93373D01*
X102404D01*
Y95804D01*
X92546D01*
Y88702D01*
X102404D01*
Y91133D01*
X103405D01*
X103834Y91218D01*
X104197Y91461D01*
X105299Y92563D01*
X105491Y92525D01*
X106186Y92663D01*
X106774Y93056D01*
X107168Y93645D01*
X107306Y94339D01*
X107168Y95034D01*
X106774Y95622D01*
X106186Y96016D01*
X105491Y96154D01*
D02*
G37*
G36*
X39810Y96802D02*
X38575Y96640D01*
X37424Y96163D01*
X36435Y95404D01*
X35677Y94416D01*
X35200Y93265D01*
X35037Y92029D01*
X35200Y90794D01*
X35677Y89642D01*
X36435Y88654D01*
X37424Y87895D01*
X38575Y87419D01*
X39810Y87256D01*
X41046Y87419D01*
X42197Y87895D01*
X43185Y88654D01*
X43944Y89642D01*
X44421Y90794D01*
X44584Y92029D01*
X44421Y93265D01*
X43944Y94416D01*
X43185Y95404D01*
X42197Y96163D01*
X41046Y96640D01*
X39810Y96802D01*
D02*
G37*
G36*
X60190Y96802D02*
X58954Y96639D01*
X57803Y96162D01*
X56815Y95404D01*
X56056Y94415D01*
X55579Y93264D01*
X55417Y92029D01*
X55579Y90793D01*
X56056Y89642D01*
X56815Y88654D01*
X57803Y87895D01*
X58954Y87418D01*
X60190Y87256D01*
X61425Y87418D01*
X62576Y87895D01*
X63565Y88654D01*
X64324Y89642D01*
X64800Y90793D01*
X64963Y92029D01*
X64800Y93264D01*
X64324Y94415D01*
X63565Y95404D01*
X62576Y96163D01*
X61425Y96639D01*
X60190Y96802D01*
D02*
G37*
G36*
X-85190Y95802D02*
X-86425Y95640D01*
X-87576Y95163D01*
X-88565Y94404D01*
X-89324Y93416D01*
X-89800Y92264D01*
X-89963Y91029D01*
X-89800Y89794D01*
X-89324Y88642D01*
X-88565Y87654D01*
X-87576Y86895D01*
X-86425Y86418D01*
X-85190Y86256D01*
X-83954Y86418D01*
X-82803Y86895D01*
X-81814Y87654D01*
X-81056Y88642D01*
X-80579Y89794D01*
X-80416Y91029D01*
X-80579Y92264D01*
X-81056Y93416D01*
X-81814Y94404D01*
X-82803Y95163D01*
X-83954Y95640D01*
X-85190Y95802D01*
D02*
G37*
G36*
X-64810Y95802D02*
X-66046Y95639D01*
X-67197Y95162D01*
X-68185Y94404D01*
X-68944Y93415D01*
X-69421Y92264D01*
X-69583Y91029D01*
X-69421Y89793D01*
X-68944Y88642D01*
X-68185Y87654D01*
X-67197Y86895D01*
X-66046Y86418D01*
X-64810Y86256D01*
X-63575Y86418D01*
X-62424Y86895D01*
X-61435Y87654D01*
X-60676Y88642D01*
X-60200Y89793D01*
X-60037Y91029D01*
X-60200Y92264D01*
X-60676Y93415D01*
X-61435Y94404D01*
X-62424Y95163D01*
X-63575Y95639D01*
X-64810Y95802D01*
D02*
G37*
G36*
X-133894Y94556D02*
X-144230D01*
X-144136Y93354D01*
X-143737Y91695D01*
X-143084Y90118D01*
X-142193Y88663D01*
X-141084Y87365D01*
X-139787Y86257D01*
X-138331Y85365D01*
X-136755Y84712D01*
X-135095Y84314D01*
X-133894Y84219D01*
Y94556D01*
D02*
G37*
G36*
X-22637Y95825D02*
X-32495D01*
Y88723D01*
X-30686D01*
Y86877D01*
X-30600Y86448D01*
X-30358Y86085D01*
X-29842Y85569D01*
X-29880Y85377D01*
X-29742Y84682D01*
X-29349Y84094D01*
X-28760Y83701D01*
X-28066Y83562D01*
X-27371Y83701D01*
X-26783Y84094D01*
X-26389Y84682D01*
X-26251Y85377D01*
X-26389Y86071D01*
X-26783Y86660D01*
X-27371Y87053D01*
X-28066Y87191D01*
X-28446Y87583D01*
Y88723D01*
X-22637D01*
Y95825D01*
D02*
G37*
G36*
X77839Y86613D02*
X76604Y86450D01*
X75452Y85973D01*
X74464Y85215D01*
X73705Y84226D01*
X73229Y83075D01*
X73066Y81839D01*
X73229Y80604D01*
X73705Y79453D01*
X74464Y78464D01*
X75452Y77706D01*
X76604Y77229D01*
X77839Y77066D01*
X79075Y77229D01*
X80226Y77706D01*
X81214Y78464D01*
X81973Y79453D01*
X82450Y80604D01*
X82612Y81839D01*
X82450Y83075D01*
X81973Y84226D01*
X81214Y85215D01*
X80226Y85973D01*
X79075Y86450D01*
X77839Y86613D01*
D02*
G37*
G36*
X22161Y86612D02*
X20925Y86450D01*
X19774Y85973D01*
X18786Y85214D01*
X18027Y84226D01*
X17550Y83074D01*
X17387Y81839D01*
X17550Y80604D01*
X18027Y79452D01*
X18786Y78464D01*
X19774Y77705D01*
X20925Y77228D01*
X22161Y77066D01*
X23396Y77228D01*
X24547Y77705D01*
X25536Y78464D01*
X26294Y79452D01*
X26771Y80604D01*
X26934Y81839D01*
X26771Y83074D01*
X26294Y84226D01*
X25536Y85214D01*
X24547Y85973D01*
X23396Y86450D01*
X22161Y86612D01*
D02*
G37*
G36*
X-47161Y85613D02*
X-48396Y85450D01*
X-49548Y84973D01*
X-50536Y84215D01*
X-51295Y83226D01*
X-51771Y82075D01*
X-51934Y80839D01*
X-51771Y79604D01*
X-51295Y78453D01*
X-50536Y77464D01*
X-49547Y76705D01*
X-48396Y76229D01*
X-47161Y76066D01*
X-45926Y76229D01*
X-44774Y76705D01*
X-43786Y77464D01*
X-43027Y78453D01*
X-42550Y79604D01*
X-42388Y80839D01*
X-42550Y82075D01*
X-43027Y83226D01*
X-43786Y84215D01*
X-44774Y84973D01*
X-45926Y85450D01*
X-47161Y85613D01*
D02*
G37*
G36*
X-102839Y85612D02*
X-104075Y85450D01*
X-105226Y84973D01*
X-106214Y84214D01*
X-106973Y83226D01*
X-107450Y82074D01*
X-107613Y80839D01*
X-107450Y79604D01*
X-106973Y78452D01*
X-106214Y77464D01*
X-105226Y76705D01*
X-104075Y76228D01*
X-102839Y76066D01*
X-101604Y76228D01*
X-100453Y76705D01*
X-99464Y77464D01*
X-98706Y78452D01*
X-98229Y79604D01*
X-98066Y80839D01*
X-98229Y82074D01*
X-98706Y83226D01*
X-99464Y84214D01*
X-100453Y84973D01*
X-101604Y85450D01*
X-102839Y85612D01*
D02*
G37*
G36*
X131307Y76697D02*
X124205D01*
Y66839D01*
X131307D01*
Y70685D01*
X132023D01*
X132131Y70522D01*
X132720Y70129D01*
X133414Y69991D01*
X134109Y70129D01*
X134697Y70522D01*
X135091Y71111D01*
X135229Y71805D01*
X135091Y72499D01*
X134697Y73088D01*
X134109Y73481D01*
X133414Y73619D01*
X132720Y73481D01*
X132131Y73088D01*
X132023Y72925D01*
X131307D01*
Y76697D01*
D02*
G37*
G36*
X39173Y77526D02*
X37938Y77364D01*
X36786Y76887D01*
X35798Y76128D01*
X35039Y75139D01*
X34562Y73988D01*
X34400Y72753D01*
X34562Y71517D01*
X35039Y70366D01*
X35798Y69378D01*
X36786Y68619D01*
X37938Y68142D01*
X39173Y67980D01*
X40408Y68142D01*
X41560Y68619D01*
X42548Y69378D01*
X43307Y70366D01*
X43784Y71517D01*
X43946Y72753D01*
X43784Y73988D01*
X43307Y75139D01*
X42548Y76128D01*
X41560Y76887D01*
X40408Y77364D01*
X39173Y77526D01*
D02*
G37*
G36*
X143512Y76697D02*
X136409D01*
Y66839D01*
X143512D01*
Y76697D01*
D02*
G37*
G36*
X11971Y68963D02*
X10736Y68800D01*
X9585Y68324D01*
X8596Y67565D01*
X7837Y66576D01*
X7361Y65425D01*
X7198Y64190D01*
X7361Y62954D01*
X7837Y61803D01*
X8596Y60815D01*
X9585Y60056D01*
X10736Y59579D01*
X11971Y59417D01*
X13207Y59579D01*
X14358Y60056D01*
X15346Y60815D01*
X16105Y61803D01*
X16582Y62954D01*
X16745Y64190D01*
X16582Y65425D01*
X16105Y66576D01*
X15346Y67565D01*
X14358Y68324D01*
X13207Y68800D01*
X11971Y68963D01*
D02*
G37*
G36*
X88029Y68963D02*
X86794Y68800D01*
X85642Y68323D01*
X84654Y67565D01*
X83895Y66576D01*
X83419Y65425D01*
X83256Y64190D01*
X83419Y62954D01*
X83895Y61803D01*
X84654Y60814D01*
X85642Y60056D01*
X86794Y59579D01*
X88029Y59416D01*
X89265Y59579D01*
X90416Y60056D01*
X91404Y60814D01*
X92163Y61803D01*
X92640Y62954D01*
X92802Y64190D01*
X92640Y65425D01*
X92163Y66576D01*
X91404Y67565D01*
X90416Y68323D01*
X89265Y68800D01*
X88029Y68963D01*
D02*
G37*
G36*
X-36971Y67963D02*
X-38206Y67800D01*
X-39358Y67323D01*
X-40346Y66565D01*
X-41105Y65576D01*
X-41581Y64425D01*
X-41744Y63190D01*
X-41581Y61954D01*
X-41105Y60803D01*
X-40346Y59815D01*
X-39358Y59056D01*
X-38206Y58579D01*
X-36971Y58416D01*
X-35735Y58579D01*
X-34584Y59056D01*
X-33596Y59815D01*
X-32837Y60803D01*
X-32360Y61954D01*
X-32198Y63190D01*
X-32360Y64425D01*
X-32837Y65576D01*
X-33596Y66565D01*
X-34584Y67323D01*
X-35735Y67800D01*
X-36971Y67963D01*
D02*
G37*
G36*
X-6000Y67314D02*
X-6694Y67176D01*
X-7283Y66783D01*
X-7676Y66194D01*
X-7814Y65500D01*
X-7676Y64806D01*
X-7283Y64217D01*
X-7120Y64108D01*
Y56000D01*
X-7035Y55571D01*
X-6792Y55208D01*
X-4792Y53208D01*
X-4429Y52965D01*
X-4000Y52880D01*
X17608D01*
X17717Y52717D01*
X18306Y52324D01*
X19000Y52186D01*
X19694Y52324D01*
X20283Y52717D01*
X20676Y53306D01*
X20814Y54000D01*
X20676Y54694D01*
X20283Y55283D01*
X19694Y55676D01*
X19000Y55814D01*
X18306Y55676D01*
X17717Y55283D01*
X17608Y55120D01*
X-3536D01*
X-4880Y56464D01*
Y64108D01*
X-4717Y64217D01*
X-4324Y64806D01*
X-4186Y65500D01*
X-4324Y66194D01*
X-4717Y66783D01*
X-5306Y67176D01*
X-6000Y67314D01*
D02*
G37*
G36*
X166878Y50937D02*
X165000D01*
Y48665D01*
X166878D01*
Y50937D01*
D02*
G37*
G36*
X155575Y50721D02*
X151425D01*
Y48056D01*
X149708Y46339D01*
X149465Y45976D01*
X149396Y45626D01*
X148425D01*
Y41280D01*
X152575D01*
Y45626D01*
X152575D01*
X152454Y45917D01*
X152911Y46374D01*
X155575D01*
Y50721D01*
D02*
G37*
G36*
X180075Y54720D02*
X175925D01*
Y50374D01*
X176880D01*
Y49126D01*
X175925D01*
Y44780D01*
X180075D01*
Y49126D01*
X179120D01*
Y50374D01*
X180075D01*
Y54720D01*
D02*
G37*
G36*
X117500Y92212D02*
X116806Y92074D01*
X116217Y91681D01*
X115824Y91092D01*
X115686Y90398D01*
X115824Y89703D01*
X116217Y89115D01*
X116380Y89006D01*
Y64297D01*
X116217Y64188D01*
X115824Y63600D01*
X115686Y62906D01*
X115824Y62211D01*
X116217Y61623D01*
X116380Y61514D01*
Y45892D01*
X116217Y45783D01*
X115824Y45194D01*
X115686Y44500D01*
X115724Y44308D01*
X114240Y42823D01*
X113997Y42460D01*
X113911Y42031D01*
Y34534D01*
X113749Y34425D01*
X113355Y33836D01*
X113217Y33142D01*
X113355Y32447D01*
X113749Y31859D01*
X114337Y31466D01*
X115032Y31327D01*
X115726Y31466D01*
X116314Y31859D01*
X116708Y32447D01*
X116846Y33142D01*
X116708Y33836D01*
X116314Y34425D01*
X116151Y34534D01*
Y41568D01*
X117308Y42724D01*
X117500Y42686D01*
X118194Y42824D01*
X118783Y43217D01*
X119176Y43806D01*
X119314Y44500D01*
X119176Y45194D01*
X118783Y45783D01*
X118620Y45892D01*
Y61514D01*
X118783Y61623D01*
X119176Y62211D01*
X119314Y62906D01*
X119176Y63600D01*
X118783Y64188D01*
X118620Y64297D01*
Y89006D01*
X118783Y89115D01*
X119176Y89703D01*
X119314Y90398D01*
X119176Y91092D01*
X118783Y91681D01*
X118194Y92074D01*
X117500Y92212D01*
D02*
G37*
G36*
X143512Y49175D02*
X136409D01*
Y39317D01*
X143512D01*
Y42220D01*
X144012Y42532D01*
X144515Y42432D01*
X145209Y42570D01*
X145798Y42963D01*
X146191Y43552D01*
X146329Y44246D01*
X146191Y44940D01*
X145798Y45529D01*
X145209Y45922D01*
X144515Y46060D01*
X144012Y45960D01*
X143512Y46272D01*
Y49175D01*
D02*
G37*
G36*
X180476Y43622D02*
X178500D01*
Y41547D01*
X180476D01*
Y43622D01*
D02*
G37*
G36*
X177500D02*
X175524D01*
Y41547D01*
X177500D01*
Y43622D01*
D02*
G37*
G36*
X50000Y66843D02*
X47991Y66685D01*
X46031Y66214D01*
X44170Y65443D01*
X42451Y64390D01*
X40919Y63081D01*
X39610Y61549D01*
X38557Y59830D01*
X37786Y57969D01*
X37315Y56009D01*
X37157Y54000D01*
X37315Y51991D01*
X37786Y50031D01*
X38557Y48169D01*
X39610Y46451D01*
X40919Y44919D01*
X42451Y43610D01*
X44170Y42557D01*
X46031Y41786D01*
X47991Y41315D01*
X50000Y41157D01*
X52009Y41315D01*
X53969Y41786D01*
X55831Y42557D01*
X57549Y43610D01*
X59081Y44919D01*
X60390Y46451D01*
X61443Y48169D01*
X62214Y50031D01*
X62685Y51991D01*
X62843Y54000D01*
X62685Y56009D01*
X62214Y57969D01*
X61443Y59830D01*
X60390Y61549D01*
X59081Y63081D01*
X57549Y64390D01*
X55831Y65443D01*
X53969Y66214D01*
X52009Y66685D01*
X50000Y66843D01*
D02*
G37*
G36*
X-75000Y65843D02*
X-77009Y65685D01*
X-78969Y65214D01*
X-80831Y64443D01*
X-82549Y63390D01*
X-84081Y62081D01*
X-85390Y60549D01*
X-86443Y58830D01*
X-87214Y56969D01*
X-87685Y55009D01*
X-87843Y53000D01*
X-87685Y50991D01*
X-87214Y49031D01*
X-86443Y47170D01*
X-85390Y45451D01*
X-84081Y43919D01*
X-82549Y42610D01*
X-80831Y41557D01*
X-78969Y40786D01*
X-77009Y40315D01*
X-75000Y40157D01*
X-72991Y40315D01*
X-71031Y40786D01*
X-69169Y41557D01*
X-67451Y42610D01*
X-65919Y43919D01*
X-64610Y45451D01*
X-63557Y47170D01*
X-62786Y49031D01*
X-62315Y50991D01*
X-62157Y53000D01*
X-62315Y55009D01*
X-62786Y56969D01*
X-63557Y58830D01*
X-64610Y60549D01*
X-65919Y62081D01*
X-67451Y63390D01*
X-69169Y64443D01*
X-71031Y65214D01*
X-72991Y65685D01*
X-75000Y65843D01*
D02*
G37*
G36*
X131307Y49175D02*
X124205D01*
Y39317D01*
X131307D01*
Y49175D01*
D02*
G37*
G36*
X11971Y48584D02*
X10735Y48421D01*
X9584Y47944D01*
X8596Y47186D01*
X7837Y46197D01*
X7360Y45046D01*
X7198Y43810D01*
X7360Y42575D01*
X7837Y41424D01*
X8596Y40435D01*
X9584Y39676D01*
X10735Y39200D01*
X11971Y39037D01*
X13206Y39200D01*
X14358Y39676D01*
X15346Y40435D01*
X16105Y41424D01*
X16581Y42575D01*
X16744Y43810D01*
X16581Y45046D01*
X16105Y46197D01*
X15346Y47186D01*
X14358Y47944D01*
X13206Y48421D01*
X11971Y48584D01*
D02*
G37*
G36*
X88029Y48583D02*
X86793Y48421D01*
X85642Y47944D01*
X84654Y47185D01*
X83895Y46197D01*
X83418Y45046D01*
X83255Y43810D01*
X83418Y42575D01*
X83895Y41424D01*
X84654Y40435D01*
X85642Y39676D01*
X86793Y39200D01*
X88029Y39037D01*
X89264Y39200D01*
X90415Y39676D01*
X91404Y40435D01*
X92163Y41424D01*
X92639Y42575D01*
X92802Y43810D01*
X92639Y45046D01*
X92163Y46197D01*
X91404Y47185D01*
X90415Y47944D01*
X89264Y48421D01*
X88029Y48583D01*
D02*
G37*
G36*
X180476Y40547D02*
X178500D01*
Y38472D01*
X180476D01*
Y40547D01*
D02*
G37*
G36*
X177500D02*
X175524D01*
Y38472D01*
X177500D01*
Y40547D01*
D02*
G37*
G36*
X152976Y40122D02*
X151000D01*
Y38047D01*
X152976D01*
Y40122D01*
D02*
G37*
G36*
X150000D02*
X148024D01*
Y38047D01*
X150000D01*
Y40122D01*
D02*
G37*
G36*
X-36971Y47583D02*
X-38207Y47421D01*
X-39358Y46944D01*
X-40346Y46185D01*
X-41105Y45197D01*
X-41582Y44046D01*
X-41745Y42810D01*
X-41582Y41575D01*
X-41105Y40424D01*
X-40346Y39435D01*
X-39358Y38676D01*
X-38207Y38200D01*
X-36971Y38037D01*
X-35736Y38200D01*
X-34585Y38676D01*
X-33596Y39435D01*
X-32837Y40424D01*
X-32361Y41575D01*
X-32198Y42810D01*
X-32361Y44046D01*
X-32838Y45197D01*
X-33596Y46185D01*
X-34585Y46944D01*
X-35736Y47421D01*
X-36971Y47583D01*
D02*
G37*
G36*
X159181Y38681D02*
X157500D01*
Y35130D01*
X159181D01*
Y38681D01*
D02*
G37*
G36*
X156500D02*
X154819D01*
Y35130D01*
X156500D01*
Y38681D01*
D02*
G37*
G36*
X152976Y37047D02*
X151000D01*
Y34972D01*
X152976D01*
Y37047D01*
D02*
G37*
G36*
X150000D02*
X148024D01*
Y34972D01*
X150000D01*
Y37047D01*
D02*
G37*
G36*
Y33267D02*
Y31827D01*
X151440D01*
X151384Y32108D01*
X150942Y32769D01*
X150280Y33211D01*
X150000Y33267D01*
D02*
G37*
G36*
X149000D02*
X148720Y33211D01*
X148058Y32769D01*
X147616Y32108D01*
X147560Y31827D01*
X149000D01*
Y33267D01*
D02*
G37*
G36*
X159181Y34130D02*
X157500D01*
Y30579D01*
X159181D01*
Y34130D01*
D02*
G37*
G36*
X156500D02*
X154819D01*
Y30579D01*
X156500D01*
Y34130D01*
D02*
G37*
G36*
X151440Y30827D02*
X150000D01*
Y29388D01*
X150280Y29443D01*
X150942Y29885D01*
X151384Y30547D01*
X151440Y30827D01*
D02*
G37*
G36*
X149000D02*
X147560D01*
X147616Y30547D01*
X148058Y29885D01*
X148720Y29443D01*
X149000Y29388D01*
Y30827D01*
D02*
G37*
G36*
X161047Y27814D02*
X160353Y27676D01*
X159764Y27283D01*
X159371Y26694D01*
X159289Y26281D01*
X120568D01*
X120459Y26444D01*
X119871Y26837D01*
X119176Y26975D01*
X118482Y26837D01*
X117893Y26444D01*
X117784Y26281D01*
X97000D01*
X96571Y26195D01*
X96208Y25953D01*
X77375Y7120D01*
X74303D01*
X74176Y7757D01*
X73783Y8346D01*
X73194Y8739D01*
X72500Y8877D01*
X71806Y8739D01*
X71217Y8346D01*
X70824Y7757D01*
X70686Y7063D01*
X70824Y6369D01*
X71217Y5780D01*
X71806Y5387D01*
X72500Y5249D01*
X72692Y5287D01*
X72771Y5208D01*
X73134Y4965D01*
X73563Y4880D01*
X77839D01*
X78268Y4965D01*
X78631Y5208D01*
X97464Y24041D01*
X117784D01*
X117893Y23878D01*
X118482Y23484D01*
X119176Y23346D01*
X119871Y23484D01*
X120459Y23878D01*
X120568Y24041D01*
X160208D01*
X160636Y24126D01*
X160799Y24235D01*
X161047Y24186D01*
X161741Y24324D01*
X162330Y24717D01*
X162723Y25306D01*
X162862Y26000D01*
X162723Y26694D01*
X162330Y27283D01*
X161741Y27676D01*
X161047Y27814D01*
D02*
G37*
G36*
X22161Y30934D02*
X20925Y30771D01*
X19774Y30294D01*
X18786Y29536D01*
X18027Y28547D01*
X17550Y27396D01*
X17388Y26161D01*
X17550Y24925D01*
X18027Y23774D01*
X18786Y22785D01*
X19774Y22027D01*
X20925Y21550D01*
X22161Y21387D01*
X23396Y21550D01*
X24548Y22027D01*
X25536Y22785D01*
X26295Y23774D01*
X26772Y24925D01*
X26934Y26161D01*
X26772Y27396D01*
X26295Y28547D01*
X25536Y29536D01*
X24548Y30294D01*
X23396Y30771D01*
X22161Y30934D01*
D02*
G37*
G36*
X-102839Y29934D02*
X-104075Y29771D01*
X-105226Y29294D01*
X-106214Y28536D01*
X-106973Y27547D01*
X-107450Y26396D01*
X-107612Y25161D01*
X-107450Y23925D01*
X-106973Y22774D01*
X-106214Y21786D01*
X-105226Y21027D01*
X-104075Y20550D01*
X-102839Y20387D01*
X-101604Y20550D01*
X-100452Y21027D01*
X-99464Y21786D01*
X-98705Y22774D01*
X-98229Y23925D01*
X-98066Y25161D01*
X-98229Y26396D01*
X-98705Y27547D01*
X-99464Y28536D01*
X-100452Y29294D01*
X-101604Y29771D01*
X-102839Y29934D01*
D02*
G37*
G36*
X3839Y21231D02*
X3145Y21093D01*
X2556Y20700D01*
X2163Y20111D01*
X2025Y19417D01*
X2163Y18723D01*
X2556Y18134D01*
X3145Y17741D01*
X3839Y17603D01*
X4533Y17741D01*
X5122Y18134D01*
X5515Y18723D01*
X5654Y19417D01*
X5515Y20111D01*
X5122Y20700D01*
X4533Y21093D01*
X3839Y21231D01*
D02*
G37*
G36*
X-85827Y76526D02*
X-87062Y76363D01*
X-88214Y75887D01*
X-89202Y75128D01*
X-89961Y74139D01*
X-90438Y72988D01*
X-90600Y71753D01*
X-90438Y70517D01*
X-89961Y69366D01*
X-89202Y68378D01*
X-88214Y67619D01*
X-87062Y67142D01*
X-85827Y66980D01*
X-84592Y67142D01*
X-83440Y67619D01*
X-82452Y68378D01*
X-81693Y69366D01*
X-81216Y70517D01*
X-81201Y70633D01*
X-56092D01*
X-11214Y25755D01*
X-10851Y25512D01*
X-10423Y25427D01*
X1989D01*
X8791Y18625D01*
X9154Y18382D01*
X9583Y18297D01*
X17751D01*
X34482Y1566D01*
X34845Y1324D01*
X35274Y1238D01*
X118108D01*
X118217Y1075D01*
X118806Y682D01*
X119085Y626D01*
X119250Y84D01*
X118871Y-295D01*
X118679Y-257D01*
X117985Y-395D01*
X117396Y-788D01*
X117003Y-1377D01*
X116865Y-2071D01*
X117003Y-2765D01*
X117396Y-3354D01*
X117985Y-3747D01*
X118679Y-3885D01*
X119373Y-3747D01*
X119962Y-3354D01*
X120355Y-2765D01*
X120493Y-2071D01*
X120455Y-1879D01*
X121084Y-1250D01*
X132870D01*
X133299Y-1165D01*
X133662Y-922D01*
X155035Y20451D01*
X166195D01*
X166347Y19951D01*
X166095Y19783D01*
X165702Y19194D01*
X165564Y18500D01*
X165702Y17806D01*
X165880Y17539D01*
Y17020D01*
X165220D01*
Y9720D01*
X165880D01*
Y-10443D01*
X165965Y-10871D01*
X166208Y-11235D01*
X170222Y-15249D01*
Y-18996D01*
X176143D01*
Y-14255D01*
X172397D01*
X168120Y-9979D01*
Y9720D01*
X168780D01*
Y17020D01*
X168780Y17020D01*
X168780D01*
X168845Y17493D01*
X169054Y17806D01*
X169192Y18500D01*
X169054Y19194D01*
X168661Y19783D01*
X168409Y19951D01*
X168560Y20451D01*
X184000D01*
X184429Y20537D01*
X184792Y20779D01*
X185392Y21380D01*
X186750D01*
X186920Y20880D01*
X186467Y20533D01*
X185898Y19791D01*
X185540Y18927D01*
X185418Y18000D01*
X185540Y17073D01*
X185898Y16209D01*
X186467Y15467D01*
X187209Y14898D01*
X188073Y14540D01*
X189000Y14418D01*
X189927Y14540D01*
X190791Y14898D01*
X191533Y15467D01*
X192102Y16209D01*
X192460Y17073D01*
X192582Y18000D01*
X192460Y18927D01*
X192102Y19791D01*
X191533Y20533D01*
X190791Y21102D01*
X190120Y21380D01*
Y24083D01*
X190411Y24374D01*
X193075D01*
Y28721D01*
X188925D01*
Y26056D01*
X188208Y25339D01*
X187965Y24976D01*
X187880Y24547D01*
Y23620D01*
X184929D01*
X184500Y23535D01*
X184137Y23292D01*
X183536Y22691D01*
X154571D01*
X154143Y22606D01*
X153779Y22363D01*
X143974Y12558D01*
X143512Y12749D01*
Y14652D01*
X143593Y14773D01*
X143731Y15467D01*
X143593Y16162D01*
X143512Y16283D01*
Y21782D01*
X136409D01*
Y11924D01*
X142687D01*
X142878Y11462D01*
X132406Y990D01*
X121327D01*
X121060Y1490D01*
X121176Y1664D01*
X121314Y2358D01*
X121176Y3053D01*
X120783Y3641D01*
X120194Y4035D01*
X119500Y4173D01*
X118806Y4035D01*
X118217Y3641D01*
X118108Y3478D01*
X35738D01*
X19007Y20209D01*
X18644Y20452D01*
X18215Y20537D01*
X10047D01*
X3244Y27339D01*
X2881Y27582D01*
X2452Y27667D01*
X-9959D01*
X-54836Y72545D01*
X-55200Y72788D01*
X-55628Y72873D01*
X-81201D01*
X-81216Y72988D01*
X-81693Y74139D01*
X-82452Y75128D01*
X-83440Y75887D01*
X-84592Y76363D01*
X-85827Y76526D01*
D02*
G37*
G36*
X164181Y17421D02*
X162500D01*
Y13870D01*
X164181D01*
Y17421D01*
D02*
G37*
G36*
X161500D02*
X159819D01*
Y13870D01*
X161500D01*
Y17421D01*
D02*
G37*
G36*
X131307Y21782D02*
X124205D01*
Y11924D01*
X131307D01*
Y16308D01*
X133020Y18020D01*
X133136Y18043D01*
X133724Y18437D01*
X134117Y19025D01*
X134256Y19720D01*
X134117Y20414D01*
X133724Y21003D01*
X133136Y21396D01*
X132441Y21534D01*
X131807Y21408D01*
X131627Y21460D01*
X131307Y21631D01*
Y21782D01*
D02*
G37*
G36*
X39810Y20744D02*
X38575Y20582D01*
X37424Y20105D01*
X36435Y19346D01*
X35676Y18358D01*
X35200Y17207D01*
X35037Y15971D01*
X35200Y14736D01*
X35676Y13585D01*
X36435Y12596D01*
X37424Y11837D01*
X38575Y11361D01*
X39810Y11198D01*
X41046Y11361D01*
X42197Y11837D01*
X43185Y12596D01*
X43944Y13585D01*
X44421Y14736D01*
X44583Y15971D01*
X44421Y17207D01*
X43944Y18358D01*
X43185Y19346D01*
X42197Y20105D01*
X41046Y20582D01*
X39810Y20744D01*
D02*
G37*
G36*
X173779Y38280D02*
X170220D01*
Y30980D01*
X173779D01*
Y33510D01*
X188359D01*
X188925Y32944D01*
Y30279D01*
X193075D01*
Y31333D01*
X195083D01*
X195724Y30692D01*
X195686Y30500D01*
X195824Y29806D01*
X196217Y29217D01*
X196380Y29108D01*
Y15287D01*
X191620Y10527D01*
X191533Y10533D01*
X190791Y11102D01*
X189927Y11460D01*
X189000Y11582D01*
X188073Y11460D01*
X187209Y11102D01*
X186467Y10533D01*
X185898Y9791D01*
X185540Y8927D01*
X185418Y8000D01*
X185540Y7073D01*
X185898Y6209D01*
X186467Y5467D01*
X187209Y4898D01*
X188073Y4540D01*
X189000Y4418D01*
X189927Y4540D01*
X190791Y4898D01*
X191533Y5467D01*
X192102Y6209D01*
X192460Y7073D01*
X192582Y8000D01*
X192544Y8283D01*
X198292Y14031D01*
X198535Y14394D01*
X198620Y14823D01*
Y29108D01*
X198783Y29217D01*
X199176Y29806D01*
X199314Y30500D01*
X199176Y31194D01*
X198783Y31783D01*
X198194Y32176D01*
X197500Y32314D01*
X197308Y32276D01*
X196339Y33245D01*
X195976Y33487D01*
X195547Y33573D01*
X193075D01*
Y34626D01*
X190411D01*
X189615Y35422D01*
X189251Y35665D01*
X188823Y35750D01*
X173779D01*
Y38280D01*
D02*
G37*
G36*
X-85190Y19745D02*
X-86425Y19582D01*
X-87576Y19105D01*
X-88565Y18346D01*
X-89324Y17358D01*
X-89800Y16207D01*
X-89963Y14971D01*
X-89800Y13736D01*
X-89324Y12585D01*
X-88565Y11596D01*
X-87576Y10837D01*
X-86425Y10361D01*
X-85190Y10198D01*
X-83954Y10361D01*
X-82803Y10837D01*
X-81815Y11596D01*
X-81056Y12585D01*
X-80579Y13736D01*
X-80417Y14971D01*
X-80579Y16207D01*
X-81056Y17358D01*
X-81815Y18346D01*
X-82803Y19105D01*
X-83954Y19582D01*
X-85190Y19745D01*
D02*
G37*
G36*
X164181Y12870D02*
X162500D01*
Y9319D01*
X164181D01*
Y12870D01*
D02*
G37*
G36*
X161500D02*
X159819D01*
Y9319D01*
X161500D01*
Y12870D01*
D02*
G37*
G36*
X158780Y17020D02*
X155220D01*
Y9720D01*
X155880D01*
Y3911D01*
X155380Y3704D01*
X153276Y5808D01*
X153314Y6000D01*
X153176Y6694D01*
X152783Y7283D01*
X152194Y7676D01*
X151500Y7814D01*
X150806Y7676D01*
X150217Y7283D01*
X149824Y6694D01*
X149686Y6000D01*
X149824Y5306D01*
X150217Y4717D01*
X150806Y4324D01*
X151500Y4186D01*
X151692Y4224D01*
X153464Y2452D01*
X153004Y1991D01*
X152761Y1628D01*
X152675Y1199D01*
Y-16048D01*
X152175Y-16458D01*
X151966Y-16417D01*
X151272Y-16555D01*
X150683Y-16948D01*
X150290Y-17537D01*
X150152Y-18231D01*
X150290Y-18925D01*
X150683Y-19514D01*
X151272Y-19907D01*
X151966Y-20045D01*
X152661Y-19907D01*
X153249Y-19514D01*
X153474Y-19178D01*
X153706Y-19023D01*
X154603Y-18126D01*
X154603Y-18126D01*
X154846Y-17763D01*
X154931Y-17334D01*
X154915Y-17256D01*
Y-7542D01*
X155415Y-7390D01*
X155550Y-7592D01*
X156139Y-7985D01*
X156833Y-8123D01*
X157527Y-7985D01*
X158116Y-7592D01*
X158509Y-7003D01*
X158647Y-6309D01*
X158509Y-5615D01*
X158116Y-5026D01*
X157953Y-4917D01*
Y-4051D01*
X158035Y-3929D01*
X158120Y-3500D01*
Y9720D01*
X158780D01*
Y17020D01*
D02*
G37*
G36*
X173779D02*
X170220D01*
Y9720D01*
X170880D01*
Y6597D01*
X170610Y6141D01*
X169915Y6003D01*
X169327Y5610D01*
X168933Y5021D01*
X168795Y4327D01*
X168933Y3632D01*
X169327Y3044D01*
X169915Y2651D01*
X170610Y2512D01*
X171304Y2651D01*
X171893Y3044D01*
X172286Y3632D01*
X172424Y4327D01*
X172386Y4519D01*
X172792Y4925D01*
X173035Y5288D01*
X173120Y5717D01*
Y9720D01*
X173779D01*
Y17020D01*
D02*
G37*
G36*
X94250Y564D02*
X93556Y426D01*
X92967Y33D01*
X92574Y-556D01*
X92436Y-1250D01*
X92474Y-1442D01*
X85208Y-8708D01*
X84965Y-9071D01*
X84880Y-9500D01*
Y-21536D01*
X55450Y-50966D01*
X44299D01*
X44284Y-50851D01*
X43807Y-49700D01*
X43048Y-48711D01*
X42060Y-47952D01*
X40908Y-47475D01*
X39673Y-47313D01*
X38438Y-47475D01*
X37286Y-47952D01*
X36298Y-48711D01*
X35539Y-49700D01*
X35062Y-50851D01*
X34900Y-52086D01*
X35062Y-53321D01*
X35539Y-54473D01*
X36298Y-55461D01*
X36693Y-55765D01*
X36524Y-56265D01*
X26349D01*
X5620Y-35536D01*
Y-19000D01*
X5535Y-18571D01*
X5292Y-18208D01*
X1517Y-14433D01*
X1676Y-14194D01*
X1814Y-13500D01*
X1676Y-12806D01*
X1283Y-12217D01*
X694Y-11824D01*
X0Y-11686D01*
X-694Y-11824D01*
X-1283Y-12217D01*
X-1676Y-12806D01*
X-1814Y-13500D01*
X-1676Y-14194D01*
X-1283Y-14783D01*
X-1010Y-14965D01*
X-792Y-15292D01*
X3380Y-19464D01*
Y-36000D01*
X3465Y-36429D01*
X3708Y-36792D01*
X25093Y-58177D01*
X25456Y-58419D01*
X25885Y-58505D01*
X45515D01*
X45614Y-59005D01*
X44669Y-59396D01*
X42951Y-60449D01*
X41419Y-61758D01*
X40110Y-63290D01*
X39057Y-65008D01*
X38286Y-66870D01*
X37815Y-68830D01*
X37657Y-70839D01*
X37815Y-72848D01*
X38286Y-74808D01*
X39057Y-76670D01*
X40110Y-78388D01*
X41419Y-79920D01*
X42951Y-81229D01*
X44669Y-82282D01*
X46531Y-83053D01*
X48491Y-83524D01*
X50500Y-83682D01*
X52509Y-83524D01*
X54469Y-83053D01*
X56331Y-82282D01*
X58049Y-81229D01*
X59581Y-79920D01*
X60890Y-78388D01*
X61943Y-76670D01*
X62714Y-74808D01*
X63185Y-72848D01*
X63343Y-70839D01*
X63185Y-68830D01*
X62714Y-66870D01*
X61943Y-65008D01*
X60890Y-63290D01*
X59581Y-61758D01*
X58049Y-60449D01*
X56331Y-59396D01*
X55386Y-59005D01*
X55485Y-58505D01*
X56615D01*
X57044Y-58419D01*
X57407Y-58177D01*
X64464Y-51120D01*
X82000D01*
X82429Y-51035D01*
X82792Y-50792D01*
X89292Y-44292D01*
X89535Y-43929D01*
X89620Y-43500D01*
Y-10964D01*
X90553Y-10031D01*
X90941Y-10350D01*
X90925Y-10373D01*
X90787Y-11068D01*
X90925Y-11762D01*
X91319Y-12351D01*
X91907Y-12744D01*
X92602Y-12882D01*
X93296Y-12744D01*
X93884Y-12351D01*
X93994Y-12188D01*
X117364D01*
X118000Y-12314D01*
X118694Y-12176D01*
X119283Y-11783D01*
X119676Y-11194D01*
X119814Y-10500D01*
X119676Y-9806D01*
X119283Y-9217D01*
X118694Y-8824D01*
X118000Y-8686D01*
X117306Y-8824D01*
X116717Y-9217D01*
X116324Y-9806D01*
X116295Y-9948D01*
X93994D01*
X93884Y-9785D01*
X93296Y-9392D01*
X92602Y-9253D01*
X91907Y-9392D01*
X91883Y-9407D01*
X91565Y-9019D01*
X92464Y-8120D01*
X119108D01*
X119217Y-8283D01*
X119806Y-8676D01*
X120500Y-8814D01*
X121194Y-8676D01*
X121783Y-8283D01*
X122176Y-7694D01*
X122314Y-7000D01*
X122176Y-6306D01*
X121783Y-5717D01*
X121194Y-5324D01*
X120500Y-5186D01*
X119806Y-5324D01*
X119217Y-5717D01*
X119108Y-5880D01*
X106091D01*
X105824Y-5380D01*
X106017Y-5092D01*
X106086Y-4741D01*
X101838D01*
X101908Y-5092D01*
X102100Y-5380D01*
X101833Y-5880D01*
X92000D01*
X91889Y-5902D01*
X91642Y-5441D01*
X94058Y-3026D01*
X94250Y-3064D01*
X94944Y-2926D01*
X95533Y-2533D01*
X95926Y-1944D01*
X96064Y-1250D01*
X95926Y-556D01*
X95533Y33D01*
X94944Y426D01*
X94250Y564D01*
D02*
G37*
G36*
X104462Y-2116D02*
Y-3741D01*
X106086D01*
X106017Y-3390D01*
X105535Y-2668D01*
X104813Y-2186D01*
X104462Y-2116D01*
D02*
G37*
G36*
X103462D02*
X103111Y-2186D01*
X102390Y-2668D01*
X101908Y-3390D01*
X101838Y-3741D01*
X103462D01*
Y-2116D01*
D02*
G37*
G36*
X189000Y1582D02*
X188073Y1460D01*
X187209Y1102D01*
X186467Y533D01*
X185898Y-209D01*
X185540Y-1073D01*
X185418Y-2000D01*
X185540Y-2927D01*
X185898Y-3791D01*
X186467Y-4533D01*
X187209Y-5102D01*
X188073Y-5460D01*
X189000Y-5582D01*
X189927Y-5460D01*
X190791Y-5102D01*
X191533Y-4533D01*
X192102Y-3791D01*
X192460Y-2927D01*
X192582Y-2000D01*
X192460Y-1073D01*
X192102Y-209D01*
X191533Y533D01*
X190791Y1102D01*
X189927Y1460D01*
X189000Y1582D01*
D02*
G37*
G36*
X-1500Y6231D02*
X-2194Y6093D01*
X-2783Y5700D01*
X-2892Y5537D01*
X-11643D01*
X-12071Y5452D01*
X-12434Y5209D01*
X-29023Y-11380D01*
X-105536D01*
X-107208Y-9708D01*
X-107571Y-9465D01*
X-108000Y-9380D01*
X-119419D01*
X-119528Y-9217D01*
X-120116Y-8824D01*
X-120811Y-8686D01*
X-121505Y-8824D01*
X-122094Y-9217D01*
X-122487Y-9806D01*
X-122625Y-10500D01*
X-122487Y-11194D01*
X-122094Y-11783D01*
X-121505Y-12176D01*
X-120811Y-12314D01*
X-120116Y-12176D01*
X-119528Y-11783D01*
X-119419Y-11620D01*
X-108464D01*
X-106792Y-13292D01*
X-106429Y-13535D01*
X-106000Y-13620D01*
X-28559D01*
X-28131Y-13535D01*
X-27768Y-13292D01*
X-11179Y3297D01*
X-2892D01*
X-2783Y3134D01*
X-2194Y2741D01*
X-1500Y2603D01*
X-806Y2741D01*
X-660Y2838D01*
X10380Y-8201D01*
Y-18608D01*
X10217Y-18717D01*
X9824Y-19306D01*
X9686Y-20000D01*
X9824Y-20694D01*
X10217Y-21283D01*
X10806Y-21676D01*
X11500Y-21814D01*
X12194Y-21676D01*
X12783Y-21283D01*
X13176Y-20694D01*
X13314Y-20000D01*
X13276Y-19808D01*
X22964Y-10120D01*
X74608D01*
X74717Y-10283D01*
X75306Y-10676D01*
X76000Y-10814D01*
X76694Y-10676D01*
X77283Y-10283D01*
X77676Y-9694D01*
X77814Y-9000D01*
X77676Y-8306D01*
X77283Y-7717D01*
X76694Y-7324D01*
X76000Y-7186D01*
X75306Y-7324D01*
X74717Y-7717D01*
X74608Y-7880D01*
X22500D01*
X22071Y-7965D01*
X21708Y-8208D01*
X13082Y-16834D01*
X12620Y-16643D01*
Y-7737D01*
X12535Y-7309D01*
X12292Y-6945D01*
X137Y5209D01*
X90Y5241D01*
X-217Y5700D01*
X-806Y6093D01*
X-1500Y6231D01*
D02*
G37*
G36*
X189500Y-8079D02*
Y-11500D01*
X192921D01*
X192851Y-10968D01*
X192453Y-10007D01*
X191819Y-9181D01*
X190993Y-8547D01*
X190032Y-8149D01*
X189500Y-8079D01*
D02*
G37*
G36*
X188500D02*
X187968Y-8149D01*
X187007Y-8547D01*
X186181Y-9181D01*
X185547Y-10007D01*
X185149Y-10968D01*
X185079Y-11500D01*
X188500D01*
Y-8079D01*
D02*
G37*
G36*
X192921Y-12500D02*
X189500D01*
Y-15921D01*
X190032Y-15851D01*
X190993Y-15453D01*
X191819Y-14819D01*
X192453Y-13993D01*
X192851Y-13032D01*
X192921Y-12500D01*
D02*
G37*
G36*
X188500D02*
X185079D01*
X185149Y-13032D01*
X185547Y-13993D01*
X186181Y-14819D01*
X187007Y-15453D01*
X187968Y-15851D01*
X188500Y-15921D01*
Y-12500D01*
D02*
G37*
G36*
X-22632Y-17038D02*
X-32490D01*
Y-24141D01*
X-22632D01*
Y-21312D01*
X-20453D01*
X-20344Y-21475D01*
X-19755Y-21868D01*
X-19061Y-22006D01*
X-18367Y-21868D01*
X-17778Y-21475D01*
X-17385Y-20886D01*
X-17247Y-20192D01*
X-17385Y-19498D01*
X-17778Y-18909D01*
X-18367Y-18516D01*
X-19061Y-18378D01*
X-19755Y-18516D01*
X-20344Y-18909D01*
X-20453Y-19072D01*
X-22632D01*
Y-17038D01*
D02*
G37*
G36*
X102455Y-17018D02*
X92597D01*
Y-20983D01*
X92381Y-21306D01*
X92243Y-22000D01*
X92381Y-22694D01*
X92597Y-23017D01*
Y-24121D01*
X102455D01*
Y-17018D01*
D02*
G37*
G36*
X189000Y-18418D02*
X188073Y-18540D01*
X187209Y-18898D01*
X186467Y-19467D01*
X185898Y-20209D01*
X185540Y-21073D01*
X185418Y-22000D01*
X185540Y-22927D01*
X185898Y-23791D01*
X186467Y-24533D01*
X187209Y-25102D01*
X188073Y-25460D01*
X189000Y-25582D01*
X189927Y-25460D01*
X190791Y-25102D01*
X191533Y-24533D01*
X192102Y-23791D01*
X192460Y-22927D01*
X192582Y-22000D01*
X192460Y-21073D01*
X192102Y-20209D01*
X191533Y-19467D01*
X190791Y-18898D01*
X189927Y-18540D01*
X189000Y-18418D01*
D02*
G37*
G36*
X165120Y-19964D02*
X159198D01*
Y-24704D01*
X160614D01*
X160766Y-25204D01*
X160739Y-25222D01*
X160346Y-25811D01*
X160208Y-26505D01*
X160346Y-27200D01*
X160739Y-27788D01*
X161328Y-28181D01*
X162022Y-28320D01*
X162716Y-28181D01*
X163305Y-27788D01*
X163698Y-27200D01*
X163837Y-26505D01*
X163698Y-25811D01*
X163305Y-25222D01*
X163278Y-25204D01*
X163430Y-24704D01*
X165120D01*
Y-19964D01*
D02*
G37*
G36*
X115648Y-27574D02*
X114954Y-27713D01*
X114365Y-28106D01*
X113972Y-28694D01*
X113834Y-29389D01*
X113872Y-29581D01*
X109387Y-34067D01*
X109144Y-34430D01*
X109059Y-34858D01*
Y-37956D01*
X99186Y-47829D01*
X98943Y-48193D01*
X98869Y-48564D01*
X98695Y-48680D01*
X98301Y-49269D01*
X98163Y-49964D01*
X98301Y-50658D01*
X98695Y-51247D01*
X99283Y-51640D01*
X99978Y-51778D01*
X100672Y-51640D01*
X101261Y-51247D01*
X101654Y-50658D01*
X101792Y-49964D01*
X101654Y-49269D01*
X101357Y-48825D01*
X110971Y-39212D01*
X111214Y-38849D01*
X111299Y-38420D01*
Y-38037D01*
X111799Y-37885D01*
X112188Y-38467D01*
X112909Y-38949D01*
X113260Y-39019D01*
Y-36895D01*
Y-34771D01*
X112909Y-34840D01*
X112188Y-35322D01*
X111872Y-35794D01*
X111379Y-35645D01*
X111336Y-35285D01*
X115456Y-31165D01*
X115648Y-31203D01*
X116343Y-31065D01*
X116931Y-30672D01*
X117325Y-30083D01*
X117463Y-29389D01*
X117325Y-28694D01*
X116931Y-28106D01*
X116343Y-27713D01*
X115648Y-27574D01*
D02*
G37*
G36*
X-19061Y-29188D02*
X-19755Y-29326D01*
X-20344Y-29719D01*
X-20737Y-30307D01*
X-20875Y-31002D01*
X-20815Y-31304D01*
X-21146Y-31674D01*
X-22632D01*
Y-29243D01*
X-32490D01*
Y-36345D01*
X-22632D01*
Y-33914D01*
X-20663D01*
X-20235Y-33829D01*
X-19872Y-33586D01*
X-19095Y-32810D01*
X-19061Y-32816D01*
X-18367Y-32678D01*
X-17778Y-32285D01*
X-17385Y-31696D01*
X-17247Y-31002D01*
X-17385Y-30307D01*
X-17778Y-29719D01*
X-18367Y-29326D01*
X-19061Y-29188D01*
D02*
G37*
G36*
X114260Y-34771D02*
Y-36395D01*
X115884D01*
X115815Y-36044D01*
X115332Y-35322D01*
X114611Y-34840D01*
X114260Y-34771D01*
D02*
G37*
G36*
X129655Y-32926D02*
X128961Y-33064D01*
X128372Y-33457D01*
X128263Y-33620D01*
X125568D01*
X125139Y-33705D01*
X124776Y-33948D01*
X114418Y-44306D01*
X114175Y-44669D01*
X114090Y-45098D01*
Y-51811D01*
X111820Y-54082D01*
X111577Y-54445D01*
X111492Y-54874D01*
Y-67972D01*
X109751Y-69713D01*
X109558Y-69675D01*
X108864Y-69813D01*
X108275Y-70206D01*
X107882Y-70795D01*
X107744Y-71489D01*
X107882Y-72184D01*
X108275Y-72772D01*
X108864Y-73166D01*
X109558Y-73304D01*
X110253Y-73166D01*
X110841Y-72772D01*
X111235Y-72184D01*
X111373Y-71489D01*
X111334Y-71297D01*
X113404Y-69228D01*
X113646Y-68865D01*
X113732Y-68436D01*
Y-55337D01*
X116002Y-53067D01*
X116245Y-52704D01*
X116330Y-52275D01*
Y-45562D01*
X126032Y-35860D01*
X128263D01*
X128372Y-36023D01*
X128961Y-36416D01*
X129655Y-36555D01*
X130350Y-36416D01*
X130938Y-36023D01*
X131332Y-35434D01*
X131470Y-34740D01*
X131332Y-34046D01*
X130938Y-33457D01*
X130350Y-33064D01*
X129655Y-32926D01*
D02*
G37*
G36*
X40310Y-28037D02*
X39075Y-28199D01*
X37924Y-28676D01*
X36935Y-29435D01*
X36176Y-30423D01*
X35700Y-31574D01*
X35537Y-32810D01*
X35700Y-34045D01*
X36176Y-35197D01*
X36935Y-36185D01*
X37924Y-36944D01*
X39075Y-37420D01*
X40310Y-37583D01*
X41546Y-37420D01*
X42697Y-36944D01*
X43685Y-36185D01*
X44444Y-35197D01*
X44921Y-34045D01*
X45084Y-32810D01*
X44921Y-31574D01*
X44444Y-30423D01*
X43685Y-29435D01*
X42697Y-28676D01*
X41546Y-28199D01*
X40310Y-28037D01*
D02*
G37*
G36*
X60690Y-28037D02*
X59454Y-28200D01*
X58303Y-28676D01*
X57315Y-29435D01*
X56556Y-30424D01*
X56079Y-31575D01*
X55917Y-32810D01*
X56079Y-34046D01*
X56556Y-35197D01*
X57315Y-36185D01*
X58303Y-36944D01*
X59454Y-37421D01*
X60690Y-37584D01*
X61925Y-37421D01*
X63076Y-36944D01*
X64065Y-36185D01*
X64824Y-35197D01*
X65300Y-34046D01*
X65463Y-32810D01*
X65300Y-31575D01*
X64824Y-30424D01*
X64065Y-29435D01*
X63076Y-28676D01*
X61925Y-28200D01*
X60690Y-28037D01*
D02*
G37*
G36*
X-84690Y-28698D02*
X-85925Y-28860D01*
X-87076Y-29337D01*
X-88065Y-30096D01*
X-88823Y-31084D01*
X-89300Y-32236D01*
X-89463Y-33471D01*
X-89300Y-34706D01*
X-88823Y-35858D01*
X-88065Y-36846D01*
X-87076Y-37605D01*
X-85925Y-38081D01*
X-84690Y-38244D01*
X-83454Y-38081D01*
X-82303Y-37605D01*
X-81314Y-36846D01*
X-80556Y-35857D01*
X-80079Y-34706D01*
X-79916Y-33471D01*
X-80079Y-32236D01*
X-80556Y-31084D01*
X-81314Y-30096D01*
X-82303Y-29337D01*
X-83454Y-28860D01*
X-84690Y-28698D01*
D02*
G37*
G36*
X-64310Y-28698D02*
X-65546Y-28861D01*
X-66697Y-29337D01*
X-67685Y-30096D01*
X-68444Y-31085D01*
X-68921Y-32236D01*
X-69083Y-33471D01*
X-68921Y-34707D01*
X-68444Y-35858D01*
X-67685Y-36846D01*
X-66697Y-37605D01*
X-65546Y-38082D01*
X-64310Y-38245D01*
X-63075Y-38082D01*
X-61924Y-37605D01*
X-60935Y-36846D01*
X-60176Y-35858D01*
X-59700Y-34707D01*
X-59537Y-33471D01*
X-59700Y-32236D01*
X-60176Y-31085D01*
X-60935Y-30096D01*
X-61924Y-29337D01*
X-63075Y-28861D01*
X-64310Y-28698D01*
D02*
G37*
G36*
X115884Y-37395D02*
X114260D01*
Y-39019D01*
X114611Y-38949D01*
X115332Y-38467D01*
X115815Y-37746D01*
X115884Y-37395D01*
D02*
G37*
G36*
X102455Y-29223D02*
X92597D01*
Y-36326D01*
X94150D01*
Y-36918D01*
X93987Y-37027D01*
X93594Y-37615D01*
X93456Y-38310D01*
X93594Y-39004D01*
X93987Y-39593D01*
X94576Y-39986D01*
X95270Y-40124D01*
X95964Y-39986D01*
X96553Y-39593D01*
X96946Y-39004D01*
X97084Y-38310D01*
X96946Y-37615D01*
X96553Y-37027D01*
X96390Y-36918D01*
Y-36326D01*
X102455D01*
Y-29223D01*
D02*
G37*
G36*
X128997Y-37287D02*
X128302Y-37425D01*
X127714Y-37818D01*
X127582Y-38015D01*
X127326Y-38066D01*
X126962Y-38309D01*
X120686Y-44585D01*
X120683Y-44585D01*
X119989Y-44723D01*
X119401Y-45116D01*
X119007Y-45705D01*
X118869Y-46399D01*
X119007Y-47093D01*
X119401Y-47682D01*
X119989Y-48075D01*
X120683Y-48213D01*
X121378Y-48075D01*
X121966Y-47682D01*
X122360Y-47093D01*
X122498Y-46399D01*
X122422Y-46017D01*
X127918Y-40521D01*
X128302Y-40777D01*
X128997Y-40915D01*
X129691Y-40777D01*
X130280Y-40384D01*
X130673Y-39795D01*
X130811Y-39101D01*
X130673Y-38407D01*
X130280Y-37818D01*
X129691Y-37425D01*
X128997Y-37287D01*
D02*
G37*
G36*
X22661Y-38227D02*
X21425Y-38389D01*
X20274Y-38866D01*
X19286Y-39625D01*
X18527Y-40613D01*
X18050Y-41765D01*
X17887Y-43000D01*
X18050Y-44235D01*
X18527Y-45387D01*
X19286Y-46375D01*
X20274Y-47134D01*
X21425Y-47611D01*
X22661Y-47773D01*
X23896Y-47611D01*
X25047Y-47134D01*
X26036Y-46375D01*
X26794Y-45386D01*
X27271Y-44235D01*
X27434Y-43000D01*
X27271Y-41765D01*
X26794Y-40613D01*
X26036Y-39625D01*
X25047Y-38866D01*
X23896Y-38389D01*
X22661Y-38227D01*
D02*
G37*
G36*
X-46661Y-38887D02*
X-47896Y-39050D01*
X-49048Y-39527D01*
X-50036Y-40286D01*
X-50795Y-41274D01*
X-51271Y-42425D01*
X-51434Y-43661D01*
X-51271Y-44896D01*
X-50795Y-46047D01*
X-50036Y-47036D01*
X-49047Y-47794D01*
X-47896Y-48271D01*
X-46661Y-48434D01*
X-45426Y-48271D01*
X-44274Y-47794D01*
X-43286Y-47036D01*
X-42527Y-46047D01*
X-42050Y-44896D01*
X-41888Y-43661D01*
X-42050Y-42425D01*
X-42527Y-41274D01*
X-43286Y-40286D01*
X-44274Y-39527D01*
X-45426Y-39050D01*
X-46661Y-38887D01*
D02*
G37*
G36*
X-102339Y-38888D02*
X-103575Y-39050D01*
X-104726Y-39527D01*
X-105714Y-40286D01*
X-106473Y-41274D01*
X-106950Y-42426D01*
X-107113Y-43661D01*
X-106950Y-44896D01*
X-106473Y-46048D01*
X-105714Y-47036D01*
X-104726Y-47795D01*
X-103575Y-48272D01*
X-102339Y-48434D01*
X-101104Y-48272D01*
X-99953Y-47795D01*
X-98964Y-47036D01*
X-98206Y-46047D01*
X-97729Y-44896D01*
X-97566Y-43661D01*
X-97729Y-42426D01*
X-98206Y-41274D01*
X-98964Y-40286D01*
X-99953Y-39527D01*
X-101104Y-39050D01*
X-102339Y-38888D01*
D02*
G37*
G36*
X128366Y-48907D02*
X127672Y-49045D01*
X127083Y-49438D01*
X126974Y-49601D01*
X125501D01*
X125072Y-49686D01*
X124709Y-49929D01*
X119918Y-54720D01*
X119725Y-54682D01*
X119031Y-54820D01*
X118442Y-55213D01*
X118049Y-55802D01*
X117911Y-56497D01*
X118049Y-57191D01*
X118442Y-57780D01*
X119031Y-58173D01*
X119725Y-58311D01*
X120420Y-58173D01*
X121008Y-57780D01*
X121402Y-57191D01*
X121540Y-56497D01*
X121501Y-56304D01*
X125965Y-51841D01*
X126974D01*
X127083Y-52004D01*
X127672Y-52397D01*
X128366Y-52535D01*
X129060Y-52397D01*
X129649Y-52004D01*
X130042Y-51415D01*
X130180Y-50721D01*
X130042Y-50027D01*
X129649Y-49438D01*
X129060Y-49045D01*
X128366Y-48907D01*
D02*
G37*
G36*
X12471Y-55876D02*
X11236Y-56039D01*
X10085Y-56515D01*
X9096Y-57274D01*
X8337Y-58263D01*
X7861Y-59414D01*
X7698Y-60649D01*
X7861Y-61885D01*
X8337Y-63036D01*
X9096Y-64024D01*
X10085Y-64783D01*
X11236Y-65260D01*
X12471Y-65422D01*
X13707Y-65260D01*
X14858Y-64783D01*
X15846Y-64024D01*
X16605Y-63036D01*
X17082Y-61885D01*
X17244Y-60649D01*
X17082Y-59414D01*
X16605Y-58263D01*
X15846Y-57274D01*
X14858Y-56515D01*
X13707Y-56039D01*
X12471Y-55876D01*
D02*
G37*
G36*
X88529Y-55876D02*
X87294Y-56039D01*
X86142Y-56516D01*
X85154Y-57274D01*
X84395Y-58263D01*
X83918Y-59414D01*
X83756Y-60649D01*
X83918Y-61885D01*
X84395Y-63036D01*
X85154Y-64025D01*
X86142Y-64783D01*
X87294Y-65260D01*
X88529Y-65423D01*
X89764Y-65260D01*
X90916Y-64783D01*
X91904Y-64025D01*
X92663Y-63036D01*
X93140Y-61885D01*
X93302Y-60649D01*
X93140Y-59414D01*
X92663Y-58263D01*
X91904Y-57274D01*
X90916Y-56516D01*
X89764Y-56039D01*
X88529Y-55876D01*
D02*
G37*
G36*
X-112529Y-56537D02*
X-113764Y-56700D01*
X-114915Y-57176D01*
X-115904Y-57935D01*
X-116663Y-58924D01*
X-117139Y-60075D01*
X-117302Y-61310D01*
X-117139Y-62546D01*
X-116663Y-63697D01*
X-115904Y-64685D01*
X-114915Y-65444D01*
X-113764Y-65921D01*
X-112529Y-66084D01*
X-111293Y-65921D01*
X-110142Y-65444D01*
X-109154Y-64685D01*
X-108395Y-63697D01*
X-107918Y-62546D01*
X-107755Y-61310D01*
X-107918Y-60075D01*
X-108395Y-58924D01*
X-109154Y-57935D01*
X-110142Y-57176D01*
X-111293Y-56700D01*
X-112529Y-56537D01*
D02*
G37*
G36*
X-36471Y-56537D02*
X-37706Y-56700D01*
X-38858Y-57177D01*
X-39846Y-57935D01*
X-40605Y-58924D01*
X-41082Y-60075D01*
X-41244Y-61310D01*
X-41082Y-62546D01*
X-40605Y-63697D01*
X-39846Y-64685D01*
X-38857Y-65444D01*
X-37706Y-65921D01*
X-36471Y-66084D01*
X-35236Y-65921D01*
X-34084Y-65444D01*
X-33096Y-64685D01*
X-32337Y-63697D01*
X-31860Y-62546D01*
X-31698Y-61310D01*
X-31860Y-60075D01*
X-32337Y-58924D01*
X-33096Y-57935D01*
X-34084Y-57177D01*
X-35236Y-56700D01*
X-36471Y-56537D01*
D02*
G37*
G36*
X-74500Y-58657D02*
X-76509Y-58815D01*
X-78469Y-59286D01*
X-80330Y-60057D01*
X-82049Y-61110D01*
X-83581Y-62419D01*
X-84890Y-63951D01*
X-85943Y-65670D01*
X-86714Y-67531D01*
X-87185Y-69491D01*
X-87343Y-71500D01*
X-87185Y-73509D01*
X-86714Y-75469D01*
X-85943Y-77330D01*
X-84890Y-79049D01*
X-83581Y-80581D01*
X-82049Y-81890D01*
X-80330Y-82943D01*
X-78469Y-83714D01*
X-76509Y-84185D01*
X-74500Y-84343D01*
X-72491Y-84185D01*
X-70531Y-83714D01*
X-68669Y-82943D01*
X-66951Y-81890D01*
X-65419Y-80581D01*
X-64110Y-79049D01*
X-63057Y-77330D01*
X-62286Y-75469D01*
X-61815Y-73509D01*
X-61657Y-71500D01*
X-61815Y-69491D01*
X-62286Y-67531D01*
X-63057Y-65670D01*
X-64110Y-63951D01*
X-65419Y-62419D01*
X-66951Y-61110D01*
X-68669Y-60057D01*
X-70531Y-59286D01*
X-72491Y-58815D01*
X-74500Y-58657D01*
D02*
G37*
G36*
X12471Y-76255D02*
X11236Y-76418D01*
X10084Y-76895D01*
X9096Y-77653D01*
X8337Y-78642D01*
X7860Y-79793D01*
X7698Y-81029D01*
X7860Y-82264D01*
X8337Y-83415D01*
X9096Y-84404D01*
X10084Y-85163D01*
X11236Y-85639D01*
X12471Y-85802D01*
X13706Y-85639D01*
X14858Y-85163D01*
X15846Y-84404D01*
X16605Y-83415D01*
X17082Y-82264D01*
X17244Y-81029D01*
X17082Y-79793D01*
X16605Y-78642D01*
X15846Y-77653D01*
X14858Y-76895D01*
X13706Y-76418D01*
X12471Y-76255D01*
D02*
G37*
G36*
X88529Y-76256D02*
X87293Y-76418D01*
X86142Y-76895D01*
X85154Y-77654D01*
X84395Y-78642D01*
X83918Y-79793D01*
X83755Y-81029D01*
X83918Y-82264D01*
X84395Y-83415D01*
X85154Y-84404D01*
X86142Y-85163D01*
X87293Y-85639D01*
X88529Y-85802D01*
X89764Y-85639D01*
X90915Y-85163D01*
X91904Y-84404D01*
X92663Y-83415D01*
X93139Y-82264D01*
X93302Y-81029D01*
X93139Y-79793D01*
X92663Y-78642D01*
X91904Y-77654D01*
X90915Y-76895D01*
X89764Y-76418D01*
X88529Y-76256D01*
D02*
G37*
G36*
X-112529Y-76916D02*
X-113765Y-77079D01*
X-114916Y-77556D01*
X-115904Y-78315D01*
X-116663Y-79303D01*
X-117140Y-80454D01*
X-117302Y-81690D01*
X-117140Y-82925D01*
X-116663Y-84076D01*
X-115904Y-85065D01*
X-114916Y-85824D01*
X-113765Y-86300D01*
X-112529Y-86463D01*
X-111294Y-86300D01*
X-110142Y-85824D01*
X-109154Y-85065D01*
X-108395Y-84076D01*
X-107919Y-82925D01*
X-107756Y-81690D01*
X-107919Y-80454D01*
X-108395Y-79303D01*
X-109154Y-78315D01*
X-110143Y-77556D01*
X-111294Y-77079D01*
X-112529Y-76916D01*
D02*
G37*
G36*
X-36471Y-76916D02*
X-37707Y-77079D01*
X-38858Y-77556D01*
X-39846Y-78315D01*
X-40605Y-79303D01*
X-41082Y-80454D01*
X-41245Y-81690D01*
X-41082Y-82925D01*
X-40605Y-84076D01*
X-39846Y-85065D01*
X-38858Y-85824D01*
X-37707Y-86300D01*
X-36471Y-86463D01*
X-35236Y-86300D01*
X-34085Y-85824D01*
X-33096Y-85065D01*
X-32337Y-84076D01*
X-31861Y-82925D01*
X-31698Y-81690D01*
X-31861Y-80454D01*
X-32337Y-79303D01*
X-33096Y-78315D01*
X-34085Y-77556D01*
X-35236Y-77079D01*
X-36471Y-76916D01*
D02*
G37*
G36*
X124047Y-2186D02*
X123353Y-2324D01*
X122764Y-2717D01*
X122371Y-3306D01*
X122233Y-4000D01*
X122371Y-4694D01*
X122764Y-5283D01*
X122927Y-5392D01*
Y-14989D01*
X105708Y-32208D01*
X105465Y-32571D01*
X105380Y-33000D01*
Y-37568D01*
X91036Y-51912D01*
X82873D01*
X82445Y-51997D01*
X82082Y-52240D01*
X72240Y-62082D01*
X71997Y-62445D01*
X71912Y-62874D01*
Y-71036D01*
X53550Y-89398D01*
X-46197D01*
X-53841Y-81754D01*
Y-64420D01*
X-53713Y-64292D01*
X-53713Y-64292D01*
X-53470Y-63929D01*
X-53385Y-63500D01*
X-53470Y-63071D01*
X-53713Y-62708D01*
X-53713Y-62708D01*
X-64466Y-51955D01*
X-64829Y-51712D01*
X-65258Y-51627D01*
X-80701D01*
X-80716Y-51512D01*
X-81193Y-50361D01*
X-81952Y-49372D01*
X-82940Y-48613D01*
X-84092Y-48136D01*
X-85327Y-47974D01*
X-86562Y-48136D01*
X-87714Y-48613D01*
X-88702Y-49372D01*
X-89461Y-50361D01*
X-89938Y-51512D01*
X-90100Y-52747D01*
X-89938Y-53983D01*
X-89461Y-55134D01*
X-88702Y-56122D01*
X-87714Y-56881D01*
X-86562Y-57358D01*
X-85327Y-57520D01*
X-84092Y-57358D01*
X-82940Y-56881D01*
X-81952Y-56122D01*
X-81193Y-55134D01*
X-80716Y-53983D01*
X-80701Y-53867D01*
X-65721D01*
X-56007Y-63582D01*
X-56081Y-63956D01*
Y-82218D01*
X-55996Y-82646D01*
X-55753Y-83009D01*
X-47453Y-91310D01*
X-47089Y-91553D01*
X-46661Y-91638D01*
X54014D01*
X54443Y-91553D01*
X54806Y-91310D01*
X73824Y-72292D01*
X74067Y-71929D01*
X74152Y-71500D01*
Y-63337D01*
X83337Y-54152D01*
X91500D01*
X91929Y-54067D01*
X92292Y-53824D01*
X107292Y-38824D01*
X107535Y-38461D01*
X107620Y-38032D01*
Y-33464D01*
X124839Y-16245D01*
X125082Y-15881D01*
X125167Y-15453D01*
Y-5392D01*
X125330Y-5283D01*
X125724Y-4694D01*
X125862Y-4000D01*
X125724Y-3306D01*
X125330Y-2717D01*
X124742Y-2324D01*
X124047Y-2186D01*
D02*
G37*
G36*
X22661Y-93905D02*
X21426Y-94068D01*
X20274Y-94545D01*
X19286Y-95303D01*
X18527Y-96292D01*
X18050Y-97443D01*
X17888Y-98678D01*
X18050Y-99914D01*
X18527Y-101065D01*
X19286Y-102053D01*
X20274Y-102812D01*
X21426Y-103289D01*
X22661Y-103452D01*
X23896Y-103289D01*
X25048Y-102812D01*
X26036Y-102053D01*
X26795Y-101065D01*
X27272Y-99914D01*
X27434Y-98678D01*
X27272Y-97443D01*
X26795Y-96292D01*
X26036Y-95303D01*
X25048Y-94545D01*
X23896Y-94068D01*
X22661Y-93905D01*
D02*
G37*
G36*
X-102339Y-94566D02*
X-103575Y-94729D01*
X-104726Y-95205D01*
X-105714Y-95964D01*
X-106473Y-96953D01*
X-106950Y-98104D01*
X-107112Y-99339D01*
X-106950Y-100575D01*
X-106473Y-101726D01*
X-105714Y-102715D01*
X-104726Y-103473D01*
X-103575Y-103950D01*
X-102339Y-104113D01*
X-101104Y-103950D01*
X-99952Y-103473D01*
X-98964Y-102715D01*
X-98205Y-101726D01*
X-97729Y-100575D01*
X-97566Y-99339D01*
X-97729Y-98104D01*
X-98205Y-96953D01*
X-98964Y-95964D01*
X-99953Y-95205D01*
X-101104Y-94729D01*
X-102339Y-94566D01*
D02*
G37*
G36*
X-132894Y-101280D02*
Y-111617D01*
X-122557D01*
X-122652Y-110415D01*
X-123050Y-108756D01*
X-123703Y-107179D01*
X-124595Y-105724D01*
X-125703Y-104426D01*
X-127001Y-103318D01*
X-128456Y-102426D01*
X-130033Y-101773D01*
X-131692Y-101375D01*
X-132894Y-101280D01*
D02*
G37*
G36*
X-133894D02*
X-135095Y-101375D01*
X-136755Y-101773D01*
X-138331Y-102426D01*
X-139787Y-103318D01*
X-141084Y-104426D01*
X-142193Y-105724D01*
X-143084Y-107179D01*
X-143737Y-108756D01*
X-144136Y-110415D01*
X-144230Y-111617D01*
X-133894D01*
Y-101280D01*
D02*
G37*
G36*
X118791Y-101281D02*
Y-111618D01*
X129128D01*
X129034Y-110417D01*
X128635Y-108757D01*
X127982Y-107181D01*
X127090Y-105725D01*
X125982Y-104428D01*
X124684Y-103319D01*
X123229Y-102427D01*
X121652Y-101774D01*
X119993Y-101376D01*
X118791Y-101281D01*
D02*
G37*
G36*
X117791D02*
X116590Y-101376D01*
X114931Y-101774D01*
X113354Y-102427D01*
X111899Y-103319D01*
X110601Y-104428D01*
X109493Y-105725D01*
X108601Y-107181D01*
X107948Y-108757D01*
X107549Y-110417D01*
X107455Y-111618D01*
X117791D01*
Y-101281D01*
D02*
G37*
G36*
X40310Y-104095D02*
X39075Y-104257D01*
X37924Y-104734D01*
X36935Y-105493D01*
X36176Y-106481D01*
X35700Y-107632D01*
X35537Y-108868D01*
X35700Y-110103D01*
X36176Y-111254D01*
X36935Y-112243D01*
X37924Y-113002D01*
X39075Y-113478D01*
X40310Y-113641D01*
X41546Y-113478D01*
X42697Y-113002D01*
X43685Y-112243D01*
X44444Y-111254D01*
X44921Y-110103D01*
X45083Y-108868D01*
X44921Y-107632D01*
X44444Y-106481D01*
X43685Y-105493D01*
X42697Y-104734D01*
X41546Y-104257D01*
X40310Y-104095D01*
D02*
G37*
G36*
X-84690Y-104755D02*
X-85925Y-104918D01*
X-87076Y-105395D01*
X-88065Y-106154D01*
X-88824Y-107142D01*
X-89300Y-108293D01*
X-89463Y-109529D01*
X-89300Y-110764D01*
X-88824Y-111915D01*
X-88065Y-112904D01*
X-87076Y-113663D01*
X-85925Y-114139D01*
X-84690Y-114302D01*
X-83454Y-114139D01*
X-82303Y-113663D01*
X-81315Y-112904D01*
X-80556Y-111915D01*
X-80079Y-110764D01*
X-79917Y-109529D01*
X-80079Y-108293D01*
X-80556Y-107142D01*
X-81315Y-106154D01*
X-82303Y-105395D01*
X-83454Y-104918D01*
X-84690Y-104755D01*
D02*
G37*
G36*
X-122557Y-112617D02*
X-132894D01*
Y-122953D01*
X-131692Y-122859D01*
X-130033Y-122461D01*
X-128456Y-121808D01*
X-127001Y-120916D01*
X-125703Y-119807D01*
X-124595Y-118510D01*
X-123703Y-117054D01*
X-123050Y-115478D01*
X-122652Y-113818D01*
X-122557Y-112617D01*
D02*
G37*
G36*
X-133894D02*
X-144230D01*
X-144136Y-113818D01*
X-143737Y-115478D01*
X-143084Y-117054D01*
X-142193Y-118510D01*
X-141084Y-119807D01*
X-139787Y-120916D01*
X-138331Y-121808D01*
X-136755Y-122461D01*
X-135095Y-122859D01*
X-133894Y-122953D01*
Y-112617D01*
D02*
G37*
G36*
X129128Y-112618D02*
X118791D01*
Y-122955D01*
X119993Y-122860D01*
X121652Y-122462D01*
X123229Y-121809D01*
X124684Y-120917D01*
X125982Y-119809D01*
X127090Y-118511D01*
X127982Y-117056D01*
X128635Y-115479D01*
X129034Y-113820D01*
X129128Y-112618D01*
D02*
G37*
G36*
X117791D02*
X107455D01*
X107549Y-113820D01*
X107948Y-115479D01*
X108601Y-117056D01*
X109493Y-118511D01*
X110601Y-119809D01*
X111899Y-120917D01*
X113354Y-121809D01*
X114931Y-122462D01*
X116590Y-122860D01*
X117791Y-122955D01*
Y-112618D01*
D02*
G37*
%LPD*%
D10*
X127961Y47300D02*
X128798Y46463D01*
X167000Y-10443D02*
X173183Y-16625D01*
X165072Y-30445D02*
X173183Y-22334D01*
X153913Y-30445D02*
X165072D01*
X162022Y-22471D02*
X162159Y-22334D01*
X162022Y-26505D02*
Y-22471D01*
X159778Y-16625D02*
X162159D01*
X149531Y-26873D02*
X159778Y-16625D01*
X149531Y-30060D02*
Y-26873D01*
X167000Y-10443D02*
Y13370D01*
X120683Y-46172D02*
X127754Y-39101D01*
X128997D01*
X148589Y-31002D02*
X149531Y-30060D01*
X133707Y-50652D02*
X153913Y-30445D01*
X133707Y-51684D02*
Y-50652D01*
X125501Y-50721D02*
X128366D01*
X119725Y-56497D02*
X125501Y-50721D01*
X120683Y-46399D02*
Y-46172D01*
X125568Y-34740D02*
X129655D01*
X115210Y-45098D02*
X125568Y-34740D01*
X115210Y-52275D02*
Y-45098D01*
X99978Y-49964D02*
Y-48621D01*
X110179Y-38420D01*
Y-34858D01*
X115648Y-29389D01*
X112612Y-54874D02*
X115210Y-52275D01*
X112612Y-68436D02*
Y-54874D01*
X109558Y-71489D02*
X112612Y-68436D01*
X151966Y-18231D02*
X152914D01*
X153811Y-17334D01*
X153795Y-17319D02*
X153811Y-17334D01*
X156833Y-6309D02*
Y-3333D01*
X157000Y-3500D01*
X153795Y1199D02*
X155048Y2452D01*
X153795Y-17319D02*
Y1199D01*
X151500Y6000D02*
X155048Y2452D01*
X94058Y-22000D02*
X95214D01*
X96644Y-20570D01*
X-20663Y-32794D02*
X-18871Y-31002D01*
X-29566Y86877D02*
Y92274D01*
X140597Y15467D02*
X141917D01*
X140496Y15366D02*
X140597Y15467D01*
X130269Y16853D02*
X133135Y19720D01*
X127804Y16853D02*
X130269D01*
X132441Y19720D02*
X133135D01*
X138684Y72240D02*
Y73316D01*
X140496Y15366D02*
X140509Y15353D01*
X-27566Y104479D02*
X-25668D01*
X-29566D02*
X-27566D01*
X168500Y36130D02*
Y53500D01*
X160810Y43500D02*
Y49237D01*
X124047Y-15453D02*
Y-4000D01*
X106500Y-33000D02*
X124047Y-15453D01*
X106500Y-38032D02*
Y-33000D01*
X96459Y103442D02*
X97475Y104458D01*
X92594Y103442D02*
X96459D01*
X103405Y92253D02*
X105491Y94339D01*
X97475Y92253D02*
X103405D01*
X189000Y8000D02*
X190677D01*
X197500Y14823D01*
Y30500D01*
X117432Y-11068D02*
X118000Y-10500D01*
X92602Y-11068D02*
X117432D01*
X-119241Y95511D02*
X-104752Y110000D01*
X-119241Y2758D02*
Y95511D01*
X-122743Y-744D02*
X-119241Y2758D01*
X-121406Y99010D02*
X-108416Y112000D01*
X-121406Y8572D02*
Y99010D01*
X-124026Y5952D02*
X-121406Y8572D01*
X-108416Y112000D02*
X115500D01*
X-104752Y110000D02*
X108500D01*
X130430Y71805D02*
X133414D01*
X130214Y72021D02*
X130430Y71805D01*
X-1500Y4417D02*
X-654D01*
X2452Y26547D02*
X9583Y19417D01*
X-10423Y26547D02*
X2452D01*
X9583Y19417D02*
X18215D01*
X95270Y-38310D02*
Y-34148D01*
X96644Y-32774D01*
X-11643Y4417D02*
X-1500D01*
X-28559Y-12500D02*
X-11643Y4417D01*
X-106000Y-12500D02*
X-28559D01*
X11500Y-20000D02*
Y-7737D01*
X-654Y4417D02*
X11500Y-7737D01*
X56615Y-57385D02*
X64000Y-50000D01*
X25885Y-57385D02*
X56615D01*
X4500Y-36000D02*
X25885Y-57385D01*
X91500Y-53032D02*
X106500Y-38032D01*
X54014Y-90518D02*
X73032Y-71500D01*
Y-62874D01*
X82873Y-53032D01*
X91500D01*
X-65258Y-52747D02*
X-54505Y-63500D01*
X-54961Y-63956D02*
X-54505Y-63500D01*
X-54961Y-82218D02*
Y-63956D01*
Y-82218D02*
X-46661Y-90518D01*
X54014D01*
X-85327Y-52747D02*
X-65258D01*
X-27163Y-20192D02*
X-19061D01*
X-27561Y-20590D02*
X-27163Y-20192D01*
X22500Y-9000D02*
X76000D01*
X72500Y7063D02*
X73563Y6000D01*
X77839D01*
X-55628Y71753D02*
X-10423Y26547D01*
X18215Y19417D02*
X35274Y2358D01*
X119500D01*
X-85827Y71753D02*
X-55628D01*
X97000Y25161D02*
X119176D01*
X77839Y6000D02*
X97000Y25161D01*
X119176D02*
X160208D01*
X161047Y26000D01*
X132870Y-130D02*
X154571Y21571D01*
X120620Y-130D02*
X132870D01*
X118679Y-2071D02*
X120620Y-130D01*
X-120811Y-10500D02*
X-108000D01*
X-106000Y-12500D01*
X-122743Y-1250D02*
Y-744D01*
X167000Y57000D02*
Y60500D01*
X115500Y112000D02*
X167000Y60500D01*
X161094Y57000D02*
Y63480D01*
X128575Y96000D02*
X161094Y63480D01*
X122500Y96000D02*
X128575D01*
X-19061Y-31002D02*
X-18871D01*
X0Y-14500D02*
Y-13500D01*
Y-14500D02*
X4500Y-19000D01*
X167000Y18122D02*
X167378Y18500D01*
X167000Y13370D02*
Y18122D01*
X154571Y21571D02*
X184000D01*
X189000Y22500D02*
Y24547D01*
Y18000D02*
Y22500D01*
X184000Y21571D02*
X184929Y22500D01*
X189000D01*
Y24547D02*
X191000Y26547D01*
X108500Y110000D02*
X122500Y96000D01*
X92594Y103442D02*
X92831Y103205D01*
X11500Y-20000D02*
X22500Y-9000D01*
X117500Y62906D02*
Y90398D01*
Y44500D02*
Y62906D01*
X115032Y42031D02*
X117500Y44500D01*
X115032Y33142D02*
Y42031D01*
X141617Y44246D02*
X144515D01*
X129961Y71768D02*
X130214Y72021D01*
X188823Y34630D02*
X191000Y32453D01*
X172000Y34630D02*
X188823D01*
X191000Y32453D02*
X195547D01*
X197500Y30500D01*
X-29566Y86877D02*
X-28066Y85377D01*
X-25668Y104479D02*
X-21066Y99877D01*
X-6000Y56000D02*
Y65500D01*
Y56000D02*
X-4000Y54000D01*
X19000D01*
X-27561Y-32794D02*
X-20663D01*
X4500Y-36000D02*
Y-19000D01*
X64000Y-50000D02*
X82000D01*
X88500Y-43500D01*
Y-10500D01*
X92000Y-7000D01*
X120500D01*
X86000Y-9500D02*
X94250Y-1250D01*
X86000Y-22000D02*
Y-9500D01*
X55914Y-52086D02*
X86000Y-22000D01*
X39673Y-52086D02*
X55914D01*
X150500Y45547D02*
X153500Y48547D01*
X150500Y43453D02*
Y45547D01*
X160810Y49237D02*
Y56716D01*
X153500Y54453D02*
X155595D01*
X160810Y49237D01*
X178000Y46953D02*
Y52547D01*
X176547Y57000D02*
X178000Y58453D01*
X167000Y57000D02*
X176547D01*
X167000Y34630D02*
X168500Y36130D01*
X167000Y55000D02*
X168500Y53500D01*
X167000Y55000D02*
Y57000D01*
X160810Y43500D02*
X162000Y42310D01*
X160810Y56716D02*
X161094Y57000D01*
X162000Y34630D02*
Y42310D01*
X157000Y-3500D02*
Y13370D01*
X170610Y4327D02*
X172000Y5717D01*
Y13370D01*
D26*
X162159Y-16625D02*
D03*
X173183D02*
D03*
Y-22334D02*
D03*
X162159D02*
D03*
D27*
X157000Y13370D02*
D03*
X162000D02*
D03*
X167000D02*
D03*
X172000D02*
D03*
Y34630D02*
D03*
X167000D02*
D03*
X162000D02*
D03*
X157000D02*
D03*
D28*
X191000Y26547D02*
D03*
Y32453D02*
D03*
X153500Y54453D02*
D03*
Y48547D02*
D03*
X178000Y58453D02*
D03*
Y52547D02*
D03*
X150500Y43453D02*
D03*
Y37547D02*
D03*
X178000Y46953D02*
D03*
Y41047D02*
D03*
D29*
X167000Y57000D02*
D03*
X161094D02*
D03*
D30*
X160760Y43563D02*
D03*
X168240D02*
D03*
X164500Y51437D02*
D03*
D31*
X97526Y-20570D02*
D03*
Y-32774D02*
D03*
X97475Y92253D02*
D03*
Y104458D02*
D03*
X-27561Y-32794D02*
D03*
Y-20590D02*
D03*
X-27566Y92274D02*
D03*
Y104479D02*
D03*
D32*
X127756Y16853D02*
D03*
X139961D02*
D03*
X127756Y71768D02*
D03*
X139961D02*
D03*
X127756Y44246D02*
D03*
X139961D02*
D03*
D33*
X50500Y-70839D02*
D03*
X50000Y54000D02*
D03*
X-75000Y53000D02*
D03*
X-74500Y-71500D02*
D03*
D34*
X-85190Y14971D02*
D03*
X-102839Y25161D02*
D03*
X-113029Y42810D02*
D03*
X-113029Y63190D02*
D03*
X-102839Y80839D02*
D03*
X-85190Y91029D02*
D03*
X-64810Y91029D02*
D03*
X-47161Y80839D02*
D03*
X-36971Y63190D02*
D03*
X-36971Y42810D02*
D03*
X-85827Y71753D02*
D03*
X40310Y-108868D02*
D03*
X22661Y-98678D02*
D03*
X12471Y-81029D02*
D03*
X12471Y-60649D02*
D03*
X22661Y-43000D02*
D03*
X40310Y-32810D02*
D03*
X60690Y-32810D02*
D03*
X78339Y-43000D02*
D03*
X88529Y-60649D02*
D03*
X88529Y-81029D02*
D03*
X39673Y-52086D02*
D03*
X-85327Y-52747D02*
D03*
X-36471Y-81690D02*
D03*
X-36471Y-61310D02*
D03*
X-46661Y-43661D02*
D03*
X-64310Y-33471D02*
D03*
X-84690Y-33471D02*
D03*
X-102339Y-43661D02*
D03*
X-112529Y-61310D02*
D03*
X-112529Y-81690D02*
D03*
X-102339Y-99339D02*
D03*
X-84690Y-109529D02*
D03*
X39173Y72753D02*
D03*
X88029Y43810D02*
D03*
X88029Y64190D02*
D03*
X77839Y81839D02*
D03*
X60190Y92029D02*
D03*
X39810Y92029D02*
D03*
X22161Y81839D02*
D03*
X11971Y64190D02*
D03*
X11971Y43810D02*
D03*
X22161Y26161D02*
D03*
X39810Y15971D02*
D03*
D35*
X189000Y18000D02*
D03*
Y8000D02*
D03*
Y-2000D02*
D03*
Y-12000D02*
D03*
Y-22000D02*
D03*
D36*
X128798Y46463D02*
D03*
X162022Y-26505D02*
D03*
X128997Y-39101D02*
D03*
X148589Y-31002D02*
D03*
X133707Y-51684D02*
D03*
X128366Y-50721D02*
D03*
X120683Y-46399D02*
D03*
X119725Y-56497D02*
D03*
X129655Y-34740D02*
D03*
X99978Y-49964D02*
D03*
X109558Y-71489D02*
D03*
X115648Y-29389D02*
D03*
X151966Y-18231D02*
D03*
X156833Y-6309D02*
D03*
X94058Y-22000D02*
D03*
X141917Y15467D02*
D03*
X132441Y19720D02*
D03*
X138684Y72240D02*
D03*
X113760Y-36895D02*
D03*
X103962Y-4241D02*
D03*
X92602Y-11068D02*
D03*
X133414Y71805D02*
D03*
X95270Y-38310D02*
D03*
X-19061Y-20192D02*
D03*
X76000Y-9000D02*
D03*
X72500Y7063D02*
D03*
X119176Y25161D02*
D03*
X118679Y-2071D02*
D03*
X-120811Y-10500D02*
D03*
X-122743Y-1250D02*
D03*
X-124026Y5952D02*
D03*
X119500Y2358D02*
D03*
X124047Y-4000D02*
D03*
X-19061Y-31002D02*
D03*
X0Y-13500D02*
D03*
X151500Y6000D02*
D03*
X167378Y18500D02*
D03*
X161047Y26000D02*
D03*
X92594Y103442D02*
D03*
X11500Y-20000D02*
D03*
X-1500Y4417D02*
D03*
X117500Y90398D02*
D03*
Y62906D02*
D03*
X115032Y33142D02*
D03*
X117500Y44500D02*
D03*
X3839Y19417D02*
D03*
X144515Y44246D02*
D03*
X197500Y30500D02*
D03*
X-28066Y85377D02*
D03*
X-21066Y99877D02*
D03*
X-6000Y65500D02*
D03*
X19000Y54000D02*
D03*
X118000Y-10500D02*
D03*
X120500Y-7000D02*
D03*
X94250Y-1250D02*
D03*
X105491Y94339D02*
D03*
X170610Y4327D02*
D03*
D37*
X118291Y-112118D02*
D03*
X-133394Y-112117D02*
D03*
X-133394Y95056D02*
D03*
D38*
X149500Y31327D02*
D03*
M02*
