G04*
G04 #@! TF.GenerationSoftware,Altium Limited,Altium Designer,19.0.14 (431)*
G04*
G04 Layer_Color=32896*
%FSLAX25Y25*%
%MOIN*%
G70*
G01*
G75*
%ADD10C,0.00591*%
%ADD11C,0.01000*%
%ADD57C,0.02362*%
%ADD58C,0.00984*%
%ADD59C,0.00787*%
%ADD60C,0.00800*%
D10*
X184000Y-27000D02*
Y23000D01*
X194000D01*
Y-27000D02*
Y23000D01*
X184000Y-27000D02*
X194000D01*
X100248Y-40843D02*
X103063D01*
X100248D02*
Y-38677D01*
Y-30803D02*
Y-28638D01*
X103063D01*
X110748Y97658D02*
X113563D01*
X110748D02*
Y99823D01*
Y107697D02*
Y109862D01*
X113563D01*
X138748Y78342D02*
X141563D01*
X138748Y76177D02*
Y78342D01*
Y66138D02*
Y68303D01*
Y66138D02*
X141563D01*
X139248Y58842D02*
X142063D01*
X139248Y56677D02*
Y58842D01*
Y46638D02*
Y48803D01*
Y46638D02*
X142063D01*
X136248Y27138D02*
X139063D01*
X136248D02*
Y29303D01*
Y37177D02*
Y39342D01*
X139063D01*
X129602Y-79315D02*
Y-76500D01*
X127437Y-79315D02*
X129602D01*
X117398D02*
X119563D01*
X117398D02*
Y-76500D01*
X128765Y-45807D02*
Y-42992D01*
X126600Y-45807D02*
X128765D01*
X116560D02*
X118726D01*
X116560D02*
Y-42992D01*
X-13815Y93398D02*
X-11000D01*
X-13815D02*
Y95563D01*
Y103437D02*
Y105602D01*
X-11000D01*
X-11815Y-22102D02*
X-9000D01*
X-11815D02*
Y-19937D01*
Y-12063D02*
Y-9898D01*
X-9000D01*
X130602Y-60815D02*
Y-58000D01*
X128437Y-60815D02*
X130602D01*
X118398D02*
X120563D01*
X118398D02*
Y-58000D01*
D11*
X99248Y2881D02*
X99581Y3214D01*
X100247D01*
X100581Y2881D01*
Y1548D01*
X100247Y1214D01*
X99581D01*
X99248Y1548D01*
X98581Y2881D02*
X98248Y3214D01*
X97581D01*
X97248Y2881D01*
Y2547D01*
X97915Y1881D01*
Y1548D02*
Y1214D01*
X-111500Y17100D02*
X-112167D01*
X-111833D01*
Y19099D01*
X-111500Y18766D01*
X94194Y-22108D02*
X94528Y-21775D01*
X95194D01*
X95527Y-22108D01*
Y-23441D01*
X95194Y-23774D01*
X94528D01*
X94194Y-23441D01*
X93528Y-23774D02*
X92861D01*
X93195D01*
Y-21775D01*
X93528Y-22108D01*
X91862Y-23774D02*
X91195D01*
X91529D01*
Y-21775D01*
X91862Y-22108D01*
X69067Y19057D02*
X69400Y19390D01*
X70067D01*
X70400Y19057D01*
Y17724D01*
X70067Y17391D01*
X69400D01*
X69067Y17724D01*
X68401Y17391D02*
X67734D01*
X68067D01*
Y19390D01*
X68401Y19057D01*
X66734D02*
X66401Y19390D01*
X65735D01*
X65402Y19057D01*
Y17724D01*
X65735Y17391D01*
X66401D01*
X66734Y17724D01*
Y19057D01*
X94532Y-18600D02*
Y-16601D01*
X93532D01*
X93199Y-16934D01*
Y-17600D01*
X93532Y-17933D01*
X94532D01*
X93865D02*
X93199Y-18600D01*
X91199Y-16601D02*
X92532D01*
Y-17600D01*
X91866Y-17267D01*
X91532D01*
X91199Y-17600D01*
Y-18267D01*
X91532Y-18600D01*
X92199D01*
X92532Y-18267D01*
X89200Y-18600D02*
X90533D01*
X89200Y-17267D01*
Y-16934D01*
X89533Y-16601D01*
X90200D01*
X90533Y-16934D01*
X118000Y95000D02*
Y96999D01*
X117000D01*
X116667Y96666D01*
Y96000D01*
X117000Y95666D01*
X118000D01*
X117333D02*
X116667Y95000D01*
X114668Y96999D02*
X116001D01*
Y96000D01*
X115334Y96333D01*
X115001D01*
X114668Y96000D01*
Y95333D01*
X115001Y95000D01*
X115667D01*
X116001Y95333D01*
X114001Y95000D02*
X113335D01*
X113668D01*
Y96999D01*
X114001Y96666D01*
X108200Y-25300D02*
Y-23301D01*
X106867Y-25300D01*
Y-23301D01*
X106201Y-24967D02*
X105867Y-25300D01*
X105201D01*
X104868Y-24967D01*
Y-23634D01*
X105201Y-23301D01*
X105867D01*
X106201Y-23634D01*
Y-23967D01*
X105867Y-24300D01*
X104868D01*
X118700Y113200D02*
Y115199D01*
X117367Y113200D01*
Y115199D01*
X116701Y114866D02*
X116367Y115199D01*
X115701D01*
X115368Y114866D01*
Y114533D01*
X115701Y114200D01*
X115368Y113866D01*
Y113533D01*
X115701Y113200D01*
X116367D01*
X116701Y113533D01*
Y113866D01*
X116367Y114200D01*
X116701Y114533D01*
Y114866D01*
X116367Y114200D02*
X115701D01*
X193300Y28299D02*
X191967Y26300D01*
Y28299D02*
X193300Y26300D01*
X191301D02*
X190634D01*
X190967D01*
Y28299D01*
X191301Y27966D01*
X145500Y19389D02*
Y17723D01*
X145167Y17390D01*
X144500D01*
X144167Y17723D01*
Y19389D01*
X143501Y17390D02*
X142834D01*
X143167D01*
Y19389D01*
X143501Y19056D01*
X114900Y-50551D02*
Y-48551D01*
X113900D01*
X113567Y-48885D01*
Y-49551D01*
X113900Y-49884D01*
X114900D01*
X114234D02*
X113567Y-50551D01*
X112901D02*
Y-48551D01*
X111901D01*
X111568Y-48885D01*
Y-49551D01*
X111901Y-49884D01*
X112901D01*
X112234D02*
X111568Y-50551D01*
X113400Y-68000D02*
Y-66001D01*
X112400D01*
X112067Y-66334D01*
Y-67000D01*
X112400Y-67334D01*
X113400D01*
X112733D02*
X112067Y-68000D01*
X110068Y-66334D02*
X110401Y-66001D01*
X111067D01*
X111401Y-66334D01*
Y-67667D01*
X111067Y-68000D01*
X110401D01*
X110068Y-67667D01*
Y-67000D01*
X110734D01*
X113484Y-37980D02*
Y-35981D01*
X112485D01*
X112151Y-36314D01*
Y-36981D01*
X112485Y-37314D01*
X113484D01*
X112818D02*
X112151Y-37980D01*
X111485Y-35981D02*
Y-37980D01*
X110485D01*
X110152Y-37647D01*
Y-37314D01*
X110485Y-36981D01*
X111485D01*
X110485D01*
X110152Y-36647D01*
Y-36314D01*
X110485Y-35981D01*
X111485D01*
X99447Y-88100D02*
Y-86101D01*
X98448D01*
X98114Y-86434D01*
Y-87100D01*
X98448Y-87434D01*
X99447D01*
X98781D02*
X98114Y-88100D01*
X96115Y-86101D02*
X97448D01*
Y-87100D01*
X96781Y-86767D01*
X96448D01*
X96115Y-87100D01*
Y-87767D01*
X96448Y-88100D01*
X97115D01*
X97448Y-87767D01*
X95448Y-86434D02*
X95115Y-86101D01*
X94449D01*
X94116Y-86434D01*
Y-87767D01*
X94449Y-88100D01*
X95115D01*
X95448Y-87767D01*
Y-86434D01*
X97400Y-64500D02*
Y-62501D01*
X96400D01*
X96067Y-62834D01*
Y-63500D01*
X96400Y-63834D01*
X97400D01*
X96734D02*
X96067Y-64500D01*
X94401D02*
Y-62501D01*
X95401Y-63500D01*
X94068D01*
X93401Y-64167D02*
X93068Y-64500D01*
X92402D01*
X92068Y-64167D01*
Y-62834D01*
X92402Y-62501D01*
X93068D01*
X93401Y-62834D01*
Y-63167D01*
X93068Y-63500D01*
X92068D01*
X92429Y-44100D02*
Y-42101D01*
X91429D01*
X91096Y-42434D01*
Y-43100D01*
X91429Y-43434D01*
X92429D01*
X91763D02*
X91096Y-44100D01*
X89430D02*
Y-42101D01*
X90430Y-43100D01*
X89097D01*
X88430Y-42434D02*
X88097Y-42101D01*
X87431D01*
X87098Y-42434D01*
Y-42767D01*
X87431Y-43100D01*
X87098Y-43434D01*
Y-43767D01*
X87431Y-44100D01*
X88097D01*
X88430Y-43767D01*
Y-43434D01*
X88097Y-43100D01*
X88430Y-42767D01*
Y-42434D01*
X88097Y-43100D02*
X87431D01*
X77361Y-27600D02*
Y-25601D01*
X76361D01*
X76028Y-25934D01*
Y-26600D01*
X76361Y-26934D01*
X77361D01*
X76695D02*
X76028Y-27600D01*
X74362D02*
Y-25601D01*
X75362Y-26600D01*
X74029D01*
X73362Y-25601D02*
X72029D01*
Y-25934D01*
X73362Y-27267D01*
Y-27600D01*
X54400Y-22100D02*
Y-20101D01*
X53400D01*
X53067Y-20434D01*
Y-21100D01*
X53400Y-21433D01*
X54400D01*
X53734D02*
X53067Y-22100D01*
X51401D02*
Y-20101D01*
X52401Y-21100D01*
X51068D01*
X49068Y-20101D02*
X49735Y-20434D01*
X50401Y-21100D01*
Y-21767D01*
X50068Y-22100D01*
X49402D01*
X49068Y-21767D01*
Y-21433D01*
X49402Y-21100D01*
X50401D01*
X38439Y-37100D02*
Y-35101D01*
X37439D01*
X37106Y-35434D01*
Y-36100D01*
X37439Y-36434D01*
X38439D01*
X37773D02*
X37106Y-37100D01*
X35440D02*
Y-35101D01*
X36440Y-36100D01*
X35107D01*
X33107Y-35101D02*
X34440D01*
Y-36100D01*
X33774Y-35767D01*
X33441D01*
X33107Y-36100D01*
Y-36767D01*
X33441Y-37100D01*
X34107D01*
X34440Y-36767D01*
X9829Y-40600D02*
Y-38601D01*
X8829D01*
X8496Y-38934D01*
Y-39600D01*
X8829Y-39934D01*
X9829D01*
X9163D02*
X8496Y-40600D01*
X6830D02*
Y-38601D01*
X7830Y-39600D01*
X6497D01*
X4831Y-40600D02*
Y-38601D01*
X5830Y-39600D01*
X4498D01*
X4900Y-62547D02*
Y-60548D01*
X3900D01*
X3567Y-60881D01*
Y-61548D01*
X3900Y-61881D01*
X4900D01*
X4234D02*
X3567Y-62547D01*
X1901D02*
Y-60548D01*
X2901Y-61548D01*
X1568D01*
X901Y-60881D02*
X568Y-60548D01*
X-98D01*
X-432Y-60881D01*
Y-61214D01*
X-98Y-61548D01*
X235D01*
X-98D01*
X-432Y-61881D01*
Y-62214D01*
X-98Y-62547D01*
X568D01*
X901Y-62214D01*
X10900Y-86500D02*
Y-84501D01*
X9900D01*
X9567Y-84834D01*
Y-85500D01*
X9900Y-85834D01*
X10900D01*
X10233D02*
X9567Y-86500D01*
X7901D02*
Y-84501D01*
X8901Y-85500D01*
X7568D01*
X5568Y-86500D02*
X6901D01*
X5568Y-85167D01*
Y-84834D01*
X5902Y-84501D01*
X6568D01*
X6901Y-84834D01*
X30400Y-105600D02*
Y-103601D01*
X29400D01*
X29067Y-103934D01*
Y-104600D01*
X29400Y-104934D01*
X30400D01*
X29734D02*
X29067Y-105600D01*
X27401D02*
Y-103601D01*
X28401Y-104600D01*
X27068D01*
X26401Y-105600D02*
X25735D01*
X26068D01*
Y-103601D01*
X26401Y-103934D01*
X40020Y-113147D02*
Y-111148D01*
X39021D01*
X38687Y-111481D01*
Y-112148D01*
X39021Y-112481D01*
X40020D01*
X39354D02*
X38687Y-113147D01*
X37021D02*
Y-111148D01*
X38021Y-112148D01*
X36688D01*
X36022Y-111481D02*
X35688Y-111148D01*
X35022D01*
X34689Y-111481D01*
Y-112814D01*
X35022Y-113147D01*
X35688D01*
X36022Y-112814D01*
Y-111481D01*
X92947Y36900D02*
Y38899D01*
X91948D01*
X91614Y38566D01*
Y37900D01*
X91948Y37566D01*
X92947D01*
X92281D02*
X91614Y36900D01*
X90948Y38566D02*
X90615Y38899D01*
X89948D01*
X89615Y38566D01*
Y38233D01*
X89948Y37900D01*
X90281D01*
X89948D01*
X89615Y37566D01*
Y37233D01*
X89948Y36900D01*
X90615D01*
X90948Y37233D01*
X88949D02*
X88615Y36900D01*
X87949D01*
X87616Y37233D01*
Y38566D01*
X87949Y38899D01*
X88615D01*
X88949Y38566D01*
Y38233D01*
X88615Y37900D01*
X87616D01*
X95806Y60693D02*
Y62692D01*
X94806D01*
X94473Y62359D01*
Y61693D01*
X94806Y61359D01*
X95806D01*
X95139D02*
X94473Y60693D01*
X93806Y62359D02*
X93473Y62692D01*
X92807D01*
X92473Y62359D01*
Y62026D01*
X92807Y61693D01*
X93140D01*
X92807D01*
X92473Y61359D01*
Y61026D01*
X92807Y60693D01*
X93473D01*
X93806Y61026D01*
X91807Y62359D02*
X91474Y62692D01*
X90807D01*
X90474Y62359D01*
Y62026D01*
X90807Y61693D01*
X90474Y61359D01*
Y61026D01*
X90807Y60693D01*
X91474D01*
X91807Y61026D01*
Y61359D01*
X91474Y61693D01*
X91807Y62026D01*
Y62359D01*
X91474Y61693D02*
X90807D01*
X93947Y80847D02*
Y82847D01*
X92948D01*
X92614Y82513D01*
Y81847D01*
X92948Y81514D01*
X93947D01*
X93281D02*
X92614Y80847D01*
X91948Y82513D02*
X91615Y82847D01*
X90948D01*
X90615Y82513D01*
Y82180D01*
X90948Y81847D01*
X91281D01*
X90948D01*
X90615Y81514D01*
Y81181D01*
X90948Y80847D01*
X91615D01*
X91948Y81181D01*
X89948Y82847D02*
X88616D01*
Y82513D01*
X89948Y81181D01*
Y80847D01*
X78361Y99400D02*
Y101399D01*
X77361D01*
X77028Y101066D01*
Y100400D01*
X77361Y100066D01*
X78361D01*
X77694D02*
X77028Y99400D01*
X76362Y101066D02*
X76028Y101399D01*
X75362D01*
X75029Y101066D01*
Y100733D01*
X75362Y100400D01*
X75695D01*
X75362D01*
X75029Y100066D01*
Y99733D01*
X75362Y99400D01*
X76028D01*
X76362Y99733D01*
X73029Y101399D02*
X73696Y101066D01*
X74362Y100400D01*
Y99733D01*
X74029Y99400D01*
X73362D01*
X73029Y99733D01*
Y100066D01*
X73362Y100400D01*
X74362D01*
X52947Y105400D02*
Y107399D01*
X51948D01*
X51614Y107066D01*
Y106400D01*
X51948Y106067D01*
X52947D01*
X52281D02*
X51614Y105400D01*
X50948Y107066D02*
X50615Y107399D01*
X49948D01*
X49615Y107066D01*
Y106733D01*
X49948Y106400D01*
X50281D01*
X49948D01*
X49615Y106067D01*
Y105733D01*
X49948Y105400D01*
X50615D01*
X50948Y105733D01*
X47616Y107399D02*
X48948D01*
Y106400D01*
X48282Y106733D01*
X47949D01*
X47616Y106400D01*
Y105733D01*
X47949Y105400D01*
X48615D01*
X48948Y105733D01*
X30953Y98400D02*
Y100399D01*
X29953D01*
X29620Y100066D01*
Y99400D01*
X29953Y99066D01*
X30953D01*
X30286D02*
X29620Y98400D01*
X28953Y100066D02*
X28620Y100399D01*
X27954D01*
X27621Y100066D01*
Y99733D01*
X27954Y99400D01*
X28287D01*
X27954D01*
X27621Y99066D01*
Y98733D01*
X27954Y98400D01*
X28620D01*
X28953Y98733D01*
X25954Y98400D02*
Y100399D01*
X26954Y99400D01*
X25621D01*
X10400Y85400D02*
Y87399D01*
X9400D01*
X9067Y87066D01*
Y86400D01*
X9400Y86066D01*
X10400D01*
X9734D02*
X9067Y85400D01*
X8401Y87066D02*
X8067Y87399D01*
X7401D01*
X7068Y87066D01*
Y86733D01*
X7401Y86400D01*
X7734D01*
X7401D01*
X7068Y86066D01*
Y85733D01*
X7401Y85400D01*
X8067D01*
X8401Y85733D01*
X6401Y87066D02*
X6068Y87399D01*
X5402D01*
X5068Y87066D01*
Y86733D01*
X5402Y86400D01*
X5735D01*
X5402D01*
X5068Y86066D01*
Y85733D01*
X5402Y85400D01*
X6068D01*
X6401Y85733D01*
X4900Y60686D02*
Y62686D01*
X3900D01*
X3567Y62352D01*
Y61686D01*
X3900Y61353D01*
X4900D01*
X4234D02*
X3567Y60686D01*
X2901Y62352D02*
X2567Y62686D01*
X1901D01*
X1568Y62352D01*
Y62019D01*
X1901Y61686D01*
X2234D01*
X1901D01*
X1568Y61353D01*
Y61019D01*
X1901Y60686D01*
X2567D01*
X2901Y61019D01*
X-432Y60686D02*
X901D01*
X-432Y62019D01*
Y62352D01*
X-98Y62686D01*
X568D01*
X901Y62352D01*
X10900Y39400D02*
Y41399D01*
X9900D01*
X9567Y41066D01*
Y40400D01*
X9900Y40066D01*
X10900D01*
X10233D02*
X9567Y39400D01*
X8901Y41066D02*
X8567Y41399D01*
X7901D01*
X7568Y41066D01*
Y40733D01*
X7901Y40400D01*
X8234D01*
X7901D01*
X7568Y40066D01*
Y39733D01*
X7901Y39400D01*
X8567D01*
X8901Y39733D01*
X6901Y39400D02*
X6235D01*
X6568D01*
Y41399D01*
X6901Y41066D01*
X31400Y20900D02*
Y22899D01*
X30400D01*
X30067Y22566D01*
Y21900D01*
X30400Y21566D01*
X31400D01*
X30734D02*
X30067Y20900D01*
X29401Y22566D02*
X29067Y22899D01*
X28401D01*
X28068Y22566D01*
Y22233D01*
X28401Y21900D01*
X28734D01*
X28401D01*
X28068Y21566D01*
Y21233D01*
X28401Y20900D01*
X29067D01*
X29401Y21233D01*
X27401Y22566D02*
X27068Y22899D01*
X26402D01*
X26068Y22566D01*
Y21233D01*
X26402Y20900D01*
X27068D01*
X27401Y21233D01*
Y22566D01*
X23447Y10400D02*
Y12399D01*
X22448D01*
X22114Y12066D01*
Y11400D01*
X22448Y11067D01*
X23447D01*
X22781D02*
X22114Y10400D01*
X20115D02*
X21448D01*
X20115Y11733D01*
Y12066D01*
X20448Y12399D01*
X21115D01*
X21448Y12066D01*
X19448Y10733D02*
X19115Y10400D01*
X18449D01*
X18116Y10733D01*
Y12066D01*
X18449Y12399D01*
X19115D01*
X19448Y12066D01*
Y11733D01*
X19115Y11400D01*
X18116D01*
X-25053Y34900D02*
Y36899D01*
X-26052D01*
X-26386Y36566D01*
Y35900D01*
X-26052Y35566D01*
X-25053D01*
X-25719D02*
X-26386Y34900D01*
X-28385D02*
X-27052D01*
X-28385Y36233D01*
Y36566D01*
X-28052Y36899D01*
X-27385D01*
X-27052Y36566D01*
X-29052D02*
X-29385Y36899D01*
X-30051D01*
X-30384Y36566D01*
Y36233D01*
X-30051Y35900D01*
X-30384Y35566D01*
Y35233D01*
X-30051Y34900D01*
X-29385D01*
X-29052Y35233D01*
Y35566D01*
X-29385Y35900D01*
X-29052Y36233D01*
Y36566D01*
X-29385Y35900D02*
X-30051D01*
X-27600Y62500D02*
Y64499D01*
X-28600D01*
X-28933Y64166D01*
Y63500D01*
X-28600Y63166D01*
X-27600D01*
X-28266D02*
X-28933Y62500D01*
X-30932D02*
X-29599D01*
X-30932Y63833D01*
Y64166D01*
X-30599Y64499D01*
X-29933D01*
X-29599Y64166D01*
X-31599Y64499D02*
X-32932D01*
Y64166D01*
X-31599Y62833D01*
Y62500D01*
X-31600Y84900D02*
Y86899D01*
X-32600D01*
X-32933Y86566D01*
Y85900D01*
X-32600Y85566D01*
X-31600D01*
X-32266D02*
X-32933Y84900D01*
X-34932D02*
X-33599D01*
X-34932Y86233D01*
Y86566D01*
X-34599Y86899D01*
X-33933D01*
X-33599Y86566D01*
X-36932Y86899D02*
X-36265Y86566D01*
X-35599Y85900D01*
Y85233D01*
X-35932Y84900D01*
X-36598D01*
X-36932Y85233D01*
Y85566D01*
X-36598Y85900D01*
X-35599D01*
X-45100Y98900D02*
Y100899D01*
X-46100D01*
X-46433Y100566D01*
Y99900D01*
X-46100Y99566D01*
X-45100D01*
X-45766D02*
X-46433Y98900D01*
X-48432D02*
X-47099D01*
X-48432Y100233D01*
Y100566D01*
X-48099Y100899D01*
X-47433D01*
X-47099Y100566D01*
X-50432Y100899D02*
X-49099D01*
Y99900D01*
X-49765Y100233D01*
X-50098D01*
X-50432Y99900D01*
Y99233D01*
X-50098Y98900D01*
X-49432D01*
X-49099Y99233D01*
X-70600Y106400D02*
Y108399D01*
X-71600D01*
X-71933Y108066D01*
Y107400D01*
X-71600Y107067D01*
X-70600D01*
X-71266D02*
X-71933Y106400D01*
X-73932D02*
X-72599D01*
X-73932Y107733D01*
Y108066D01*
X-73599Y108399D01*
X-72933D01*
X-72599Y108066D01*
X-75598Y106400D02*
Y108399D01*
X-74599Y107400D01*
X-75932D01*
X-95486Y98400D02*
Y100399D01*
X-96486D01*
X-96819Y100066D01*
Y99400D01*
X-96486Y99066D01*
X-95486D01*
X-96153D02*
X-96819Y98400D01*
X-98819D02*
X-97486D01*
X-98819Y99733D01*
Y100066D01*
X-98485Y100399D01*
X-97819D01*
X-97486Y100066D01*
X-99485D02*
X-99818Y100399D01*
X-100485D01*
X-100818Y100066D01*
Y99733D01*
X-100485Y99400D01*
X-100152D01*
X-100485D01*
X-100818Y99066D01*
Y98733D01*
X-100485Y98400D01*
X-99818D01*
X-99485Y98733D01*
X-115600Y83900D02*
Y85899D01*
X-116600D01*
X-116933Y85566D01*
Y84900D01*
X-116600Y84566D01*
X-115600D01*
X-116267D02*
X-116933Y83900D01*
X-118932D02*
X-117599D01*
X-118932Y85233D01*
Y85566D01*
X-118599Y85899D01*
X-117933D01*
X-117599Y85566D01*
X-120932Y83900D02*
X-119599D01*
X-120932Y85233D01*
Y85566D01*
X-120598Y85899D01*
X-119932D01*
X-119599Y85566D01*
X-127471Y58547D02*
X-129470D01*
Y57548D01*
X-129137Y57214D01*
X-128471D01*
X-128137Y57548D01*
Y58547D01*
Y57881D02*
X-127471Y57214D01*
Y55215D02*
Y56548D01*
X-128804Y55215D01*
X-129137D01*
X-129470Y55548D01*
Y56215D01*
X-129137Y56548D01*
X-127471Y54549D02*
Y53882D01*
Y54215D01*
X-129470D01*
X-129137Y54549D01*
X-114600Y37400D02*
Y39399D01*
X-115600D01*
X-115933Y39066D01*
Y38400D01*
X-115600Y38066D01*
X-114600D01*
X-115267D02*
X-115933Y37400D01*
X-117932D02*
X-116599D01*
X-117932Y38733D01*
Y39066D01*
X-117599Y39399D01*
X-116933D01*
X-116599Y39066D01*
X-118599D02*
X-118932Y39399D01*
X-119598D01*
X-119932Y39066D01*
Y37733D01*
X-119598Y37400D01*
X-118932D01*
X-118599Y37733D01*
Y39066D01*
X-97147Y17085D02*
Y19084D01*
X-98147D01*
X-98480Y18751D01*
Y18085D01*
X-98147Y17752D01*
X-97147D01*
X-97814D02*
X-98480Y17085D01*
X-99147D02*
X-99813D01*
X-99480D01*
Y19084D01*
X-99147Y18751D01*
X-100813Y17418D02*
X-101146Y17085D01*
X-101812D01*
X-102146Y17418D01*
Y18751D01*
X-101812Y19084D01*
X-101146D01*
X-100813Y18751D01*
Y18418D01*
X-101146Y18085D01*
X-102146D01*
X-84600Y7853D02*
Y9852D01*
X-85600D01*
X-85933Y9519D01*
Y8852D01*
X-85600Y8519D01*
X-84600D01*
X-85266D02*
X-85933Y7853D01*
X-86599D02*
X-87266D01*
X-86933D01*
Y9852D01*
X-86599Y9519D01*
X-88266D02*
X-88599Y9852D01*
X-89265D01*
X-89598Y9519D01*
Y9186D01*
X-89265Y8852D01*
X-89598Y8519D01*
Y8186D01*
X-89265Y7853D01*
X-88599D01*
X-88266Y8186D01*
Y8519D01*
X-88599Y8852D01*
X-88266Y9186D01*
Y9519D01*
X-88599Y8852D02*
X-89265D01*
X-89100Y-113100D02*
Y-111101D01*
X-90100D01*
X-90433Y-111434D01*
Y-112100D01*
X-90100Y-112434D01*
X-89100D01*
X-89766D02*
X-90433Y-113100D01*
X-91099D02*
X-91766D01*
X-91433D01*
Y-111101D01*
X-91099Y-111434D01*
X-92765Y-111101D02*
X-94098D01*
Y-111434D01*
X-92765Y-112767D01*
Y-113100D01*
X-29600Y-94100D02*
Y-92101D01*
X-30600D01*
X-30933Y-92434D01*
Y-93100D01*
X-30600Y-93434D01*
X-29600D01*
X-30266D02*
X-30933Y-94100D01*
X-31599D02*
X-32266D01*
X-31933D01*
Y-92101D01*
X-31599Y-92434D01*
X-34598Y-92101D02*
X-33932Y-92434D01*
X-33266Y-93100D01*
Y-93767D01*
X-33599Y-94100D01*
X-34265D01*
X-34598Y-93767D01*
Y-93434D01*
X-34265Y-93100D01*
X-33266D01*
X-25600Y-64553D02*
Y-62553D01*
X-26600D01*
X-26933Y-62887D01*
Y-63553D01*
X-26600Y-63886D01*
X-25600D01*
X-26266D02*
X-26933Y-64553D01*
X-27599D02*
X-28266D01*
X-27933D01*
Y-62553D01*
X-27599Y-62887D01*
X-30598Y-62553D02*
X-29265D01*
Y-63553D01*
X-29932Y-63220D01*
X-30265D01*
X-30598Y-63553D01*
Y-64219D01*
X-30265Y-64553D01*
X-29599D01*
X-29265Y-64219D01*
X-30167Y-39047D02*
Y-37048D01*
X-31167D01*
X-31500Y-37381D01*
Y-38048D01*
X-31167Y-38381D01*
X-30167D01*
X-30833D02*
X-31500Y-39047D01*
X-32166D02*
X-32833D01*
X-32500D01*
Y-37048D01*
X-32166Y-37381D01*
X-34832Y-39047D02*
Y-37048D01*
X-33832Y-38048D01*
X-35165D01*
X-49600Y-22053D02*
Y-20053D01*
X-50600D01*
X-50933Y-20387D01*
Y-21053D01*
X-50600Y-21386D01*
X-49600D01*
X-50266D02*
X-50933Y-22053D01*
X-51599D02*
X-52266D01*
X-51933D01*
Y-20053D01*
X-51599Y-20387D01*
X-53266D02*
X-53599Y-20053D01*
X-54265D01*
X-54598Y-20387D01*
Y-20720D01*
X-54265Y-21053D01*
X-53932D01*
X-54265D01*
X-54598Y-21386D01*
Y-21720D01*
X-54265Y-22053D01*
X-53599D01*
X-53266Y-21720D01*
X-69600Y-20100D02*
Y-18101D01*
X-70600D01*
X-70933Y-18434D01*
Y-19100D01*
X-70600Y-19433D01*
X-69600D01*
X-70266D02*
X-70933Y-20100D01*
X-71599D02*
X-72266D01*
X-71933D01*
Y-18101D01*
X-71599Y-18434D01*
X-74598Y-20100D02*
X-73265D01*
X-74598Y-18767D01*
Y-18434D01*
X-74265Y-18101D01*
X-73599D01*
X-73265Y-18434D01*
X-93547Y-27600D02*
Y-25601D01*
X-94547D01*
X-94880Y-25934D01*
Y-26600D01*
X-94547Y-26934D01*
X-93547D01*
X-94214D02*
X-94880Y-27600D01*
X-95547D02*
X-96213D01*
X-95880D01*
Y-25601D01*
X-95547Y-25934D01*
X-97213Y-27600D02*
X-97879D01*
X-97546D01*
Y-25601D01*
X-97213Y-25934D01*
X-110129Y-44600D02*
Y-42601D01*
X-111129D01*
X-111462Y-42934D01*
Y-43600D01*
X-111129Y-43934D01*
X-110129D01*
X-110795D02*
X-111462Y-44600D01*
X-112128D02*
X-112795D01*
X-112462D01*
Y-42601D01*
X-112128Y-42934D01*
X-113795D02*
X-114128Y-42601D01*
X-114794D01*
X-115127Y-42934D01*
Y-44267D01*
X-114794Y-44600D01*
X-114128D01*
X-113795Y-44267D01*
Y-42934D01*
X-120100Y-61600D02*
Y-59601D01*
X-121100D01*
X-121433Y-59934D01*
Y-60600D01*
X-121100Y-60934D01*
X-120100D01*
X-120766D02*
X-121433Y-61600D01*
X-122099Y-61267D02*
X-122433Y-61600D01*
X-123099D01*
X-123432Y-61267D01*
Y-59934D01*
X-123099Y-59601D01*
X-122433D01*
X-122099Y-59934D01*
Y-60267D01*
X-122433Y-60600D01*
X-123432D01*
X-117100Y-86100D02*
Y-84101D01*
X-118100D01*
X-118433Y-84434D01*
Y-85100D01*
X-118100Y-85434D01*
X-117100D01*
X-117766D02*
X-118433Y-86100D01*
X-119099Y-84434D02*
X-119433Y-84101D01*
X-120099D01*
X-120432Y-84434D01*
Y-84767D01*
X-120099Y-85100D01*
X-120432Y-85434D01*
Y-85767D01*
X-120099Y-86100D01*
X-119433D01*
X-119099Y-85767D01*
Y-85434D01*
X-119433Y-85100D01*
X-119099Y-84767D01*
Y-84434D01*
X-119433Y-85100D02*
X-120099D01*
X-94647Y-104100D02*
Y-102101D01*
X-95647D01*
X-95980Y-102434D01*
Y-103100D01*
X-95647Y-103434D01*
X-94647D01*
X-95314D02*
X-95980Y-104100D01*
X-96647Y-102101D02*
X-97979D01*
Y-102434D01*
X-96647Y-103767D01*
Y-104100D01*
X-3536Y-26854D02*
Y-24855D01*
X-4536D01*
X-4869Y-25188D01*
Y-25854D01*
X-4536Y-26188D01*
X-3536D01*
X-4203D02*
X-4869Y-26854D01*
X-6535D02*
Y-24855D01*
X-5536Y-25854D01*
X-6868D01*
X-11600Y88900D02*
Y90899D01*
X-12600D01*
X-12933Y90566D01*
Y89900D01*
X-12600Y89566D01*
X-11600D01*
X-12267D02*
X-12933Y88900D01*
X-13599Y90566D02*
X-13933Y90899D01*
X-14599D01*
X-14932Y90566D01*
Y90233D01*
X-14599Y89900D01*
X-14266D01*
X-14599D01*
X-14932Y89566D01*
Y89233D01*
X-14599Y88900D01*
X-13933D01*
X-13599Y89233D01*
X128947Y32900D02*
Y34899D01*
X127948D01*
X127614Y34566D01*
Y33900D01*
X127948Y33566D01*
X128947D01*
X128281D02*
X127614Y32900D01*
X125615D02*
X126948D01*
X125615Y34233D01*
Y34566D01*
X125948Y34899D01*
X126615D01*
X126948Y34566D01*
X131447Y72400D02*
Y74399D01*
X130448D01*
X130114Y74066D01*
Y73400D01*
X130448Y73066D01*
X131447D01*
X130781D02*
X130114Y72400D01*
X129448D02*
X128781D01*
X129115D01*
Y74399D01*
X129448Y74066D01*
X128931Y50900D02*
Y52899D01*
X127932D01*
X127599Y52566D01*
Y51900D01*
X127932Y51566D01*
X128931D01*
X128265D02*
X127599Y50900D01*
X126932Y52566D02*
X126599Y52899D01*
X125933D01*
X125599Y52566D01*
Y51233D01*
X125933Y50900D01*
X126599D01*
X126932Y51233D01*
Y52566D01*
X128900Y-67400D02*
Y-65401D01*
X127900D01*
X127567Y-65734D01*
Y-66400D01*
X127900Y-66734D01*
X128900D01*
X125568Y-67400D02*
X126901D01*
X125568Y-66067D01*
Y-65734D01*
X125901Y-65401D01*
X126567D01*
X126901Y-65734D01*
X128063Y-33892D02*
Y-31893D01*
X127063D01*
X126730Y-32226D01*
Y-32893D01*
X127063Y-33226D01*
X128063D01*
X126063Y-33892D02*
X125397D01*
X125730D01*
Y-31893D01*
X126063Y-32226D01*
X129905Y-48900D02*
Y-46901D01*
X128906D01*
X128573Y-47234D01*
Y-47900D01*
X128906Y-48234D01*
X129905D01*
X127906Y-47234D02*
X127573Y-46901D01*
X126907D01*
X126573Y-47234D01*
Y-48567D01*
X126907Y-48900D01*
X127573D01*
X127906Y-48567D01*
Y-47234D01*
X-3900Y-6600D02*
Y-4601D01*
X-5233Y-6600D01*
Y-4601D01*
X-6899Y-6600D02*
Y-4601D01*
X-5899Y-5600D01*
X-7232D01*
X-5900Y108900D02*
Y110899D01*
X-7233Y108900D01*
Y110899D01*
X-7899Y110566D02*
X-8233Y110899D01*
X-8899D01*
X-9232Y110566D01*
Y110233D01*
X-8899Y109900D01*
X-8566D01*
X-8899D01*
X-9232Y109566D01*
Y109233D01*
X-8899Y108900D01*
X-8233D01*
X-7899Y109233D01*
X144163Y42640D02*
Y44640D01*
X142830Y42640D01*
Y44640D01*
X140831Y42640D02*
X142164D01*
X140831Y43973D01*
Y44306D01*
X141164Y44640D01*
X141830D01*
X142164Y44306D01*
X146700Y81680D02*
Y83680D01*
X145367Y81680D01*
Y83680D01*
X144701Y81680D02*
X144034D01*
X144367D01*
Y83680D01*
X144701Y83346D01*
X147200Y62180D02*
Y64180D01*
X145867Y62180D01*
Y64180D01*
X145201Y63846D02*
X144867Y64180D01*
X144201D01*
X143868Y63846D01*
Y62514D01*
X144201Y62180D01*
X144867D01*
X145201Y62514D01*
Y63846D01*
X6435Y22933D02*
X5768D01*
X6102D01*
Y20934D01*
X6435D01*
X5768D01*
X3436Y22600D02*
X3769Y22933D01*
X4436D01*
X4769Y22600D01*
Y21267D01*
X4436Y20934D01*
X3769D01*
X3436Y21267D01*
X2770Y22600D02*
X2436Y22933D01*
X1770D01*
X1437Y22600D01*
Y21267D01*
X1770Y20934D01*
X2436D01*
X2770Y21267D01*
Y22600D01*
X105283Y-15110D02*
X105616Y-14776D01*
X106283D01*
X106616Y-15110D01*
Y-16443D01*
X106283Y-16776D01*
X105616D01*
X105283Y-16443D01*
X104617Y-15110D02*
X104283Y-14776D01*
X103617D01*
X103284Y-15110D01*
Y-15443D01*
X103617Y-15776D01*
X103950D01*
X103617D01*
X103284Y-16109D01*
Y-16443D01*
X103617Y-16776D01*
X104283D01*
X104617Y-16443D01*
X153567Y-19234D02*
X153900Y-18901D01*
X154567D01*
X154900Y-19234D01*
Y-20567D01*
X154567Y-20900D01*
X153900D01*
X153567Y-20567D01*
X152901Y-20900D02*
X152234D01*
X152567D01*
Y-18901D01*
X152901Y-19234D01*
X150267Y24909D02*
X150600Y25242D01*
X151267D01*
X151600Y24909D01*
Y23576D01*
X151267Y23243D01*
X150600D01*
X150267Y23576D01*
X149601Y24909D02*
X149267Y25242D01*
X148601D01*
X148268Y24909D01*
Y23576D01*
X148601Y23243D01*
X149267D01*
X149601Y23576D01*
Y24909D01*
D57*
X121685Y-12996D02*
X121240Y-12073D01*
X120241Y-11845D01*
X119440Y-12484D01*
Y-13509D01*
X120241Y-14148D01*
X121240Y-13919D01*
X121685Y-12996D01*
D58*
X111350Y-20083D02*
X110612Y-19657D01*
Y-20509D01*
X111350Y-20083D01*
D59*
X116567Y3933D02*
X137433D01*
X116567Y-16933D02*
X137433D01*
Y3933D01*
X116567Y-16933D02*
Y3933D01*
D60*
X-9965Y17515D02*
X-6465Y17516D01*
X-9965Y-8075D02*
X-6465Y-8075D01*
X-6465Y-8075D02*
Y17515D01*
M02*
