G04*
G04 #@! TF.GenerationSoftware,Altium Limited,Altium Designer,19.0.12 (326)*
G04*
G04 Layer_Color=8388736*
%FSLAX25Y25*%
%MOIN*%
G70*
G01*
G75*
%ADD16R,0.03950X0.03162*%
%ADD17R,0.16548X0.08674*%
%ADD18R,0.12611X0.04737*%
%ADD19R,0.03556X0.04343*%
%ADD20R,0.13241X0.04737*%
%ADD21R,0.04540X0.07493*%
%ADD22R,0.11824X0.07493*%
%ADD23R,0.03950X0.04343*%
%ADD24R,0.04343X0.03556*%
%ADD25R,0.04737X0.12611*%
%ADD26R,0.08674X0.16548*%
%ADD27R,0.07493X0.04540*%
%ADD28C,0.03162*%
D16*
X400000Y326716D02*
D03*
Y321008D02*
D03*
X466500Y321362D02*
D03*
Y327071D02*
D03*
D17*
X357000Y324000D02*
D03*
Y296440D02*
D03*
X519685Y297244D02*
D03*
Y324804D02*
D03*
D18*
X374717Y306283D02*
D03*
Y314157D02*
D03*
X501968Y314961D02*
D03*
Y307087D02*
D03*
D19*
X415756Y292047D02*
D03*
X410244D02*
D03*
X459244Y288000D02*
D03*
X464756D02*
D03*
X459744Y281217D02*
D03*
X465256D02*
D03*
D20*
X526000Y284717D02*
D03*
Y274716D02*
D03*
Y264717D02*
D03*
Y254716D02*
D03*
Y234717D02*
D03*
X497496Y284717D02*
D03*
Y274716D02*
D03*
Y264717D02*
D03*
Y254716D02*
D03*
Y234717D02*
D03*
X380752Y284717D02*
D03*
Y274716D02*
D03*
Y264717D02*
D03*
Y254716D02*
D03*
Y234717D02*
D03*
X352248Y284717D02*
D03*
Y274716D02*
D03*
Y264717D02*
D03*
Y254716D02*
D03*
Y234717D02*
D03*
D21*
X472988Y281217D02*
D03*
X484012D02*
D03*
D22*
X466102Y263216D02*
D03*
X478898D02*
D03*
X467102Y241717D02*
D03*
X479898D02*
D03*
X398602Y259717D02*
D03*
X411398D02*
D03*
X399102Y240216D02*
D03*
X411898D02*
D03*
D23*
X443760Y236280D02*
D03*
X451240D02*
D03*
X447500Y244153D02*
D03*
X443260Y257563D02*
D03*
X450740D02*
D03*
X447000Y265437D02*
D03*
X433240Y243653D02*
D03*
X425760D02*
D03*
X429500Y235780D02*
D03*
X433240Y265437D02*
D03*
X425760D02*
D03*
X429500Y257563D02*
D03*
D24*
X403000Y275705D02*
D03*
Y281217D02*
D03*
X394000Y275705D02*
D03*
Y281217D02*
D03*
D25*
X445811Y303748D02*
D03*
X437937D02*
D03*
X422189D02*
D03*
X430063D02*
D03*
D26*
X455654Y321464D02*
D03*
X412346D02*
D03*
D27*
X413000Y286228D02*
D03*
Y275205D02*
D03*
D28*
X465748Y263386D02*
D03*
X450787Y257480D02*
D03*
X447000Y265437D02*
D03*
X429921Y248031D02*
D03*
X433240Y243653D02*
D03*
X429528Y257480D02*
D03*
X422441Y303937D02*
D03*
X447638Y244289D02*
D03*
X425591Y265354D02*
D03*
X399102Y240158D02*
D03*
X380906Y284449D02*
D03*
Y264764D02*
D03*
X352362D02*
D03*
X399606Y326716D02*
D03*
Y320866D02*
D03*
X410433Y292323D02*
D03*
X445866Y303748D02*
D03*
X473425Y281496D02*
D03*
X521654Y284449D02*
D03*
X525000Y255000D02*
D03*
X501500Y264717D02*
D03*
X500000Y274882D02*
D03*
X391500Y287000D02*
D03*
X398602Y269898D02*
D03*
X475146Y327071D02*
D03*
M02*
