M48
;Layer_Color=9474304
;FILE_FORMAT=2:5
INCH,LZ
;TYPE=PLATED
T1F00S00C0.01181
%
T01
X0473425Y0281496
X05Y0274882
X05015Y0264717
X0525Y0255
X0521654Y0284449
X0465748Y0263386
X0447Y0265437
X0450787Y025748
X0447638Y0244289
X043324Y0243653
X0429921Y0248031
X0429528Y025748
X0425591Y0265354
X0398602Y0269898
X0380906Y0264764
Y0284449
X03915Y0287
X0410433Y0292323
X0422441Y0303937
X0445866Y0303748
X0399102Y0240158
X0352362Y0264764
X0399606Y0320866
Y0326716
X0475146Y0327071
M30
