G04*
G04 #@! TF.GenerationSoftware,Altium Limited,Altium Designer,19.0.12 (326)*
G04*
G04 Layer_Physical_Order=2*
G04 Layer_Color=16711680*
%FSLAX25Y25*%
%MOIN*%
G70*
G01*
G75*
%ADD15C,0.01000*%
%ADD41C,0.02362*%
D15*
X429921Y248031D02*
Y266929D01*
X481886Y263386D02*
X503000Y284500D01*
X465748Y263386D02*
X481886D01*
X455988D02*
X465748D01*
X450787Y258185D02*
X455988Y263386D01*
X450787Y257480D02*
Y258185D01*
X429921Y266929D02*
Y296457D01*
Y266929D02*
X445508D01*
X447000Y265437D01*
X429921Y248031D02*
X444531D01*
X423175Y231496D02*
X501496D01*
X413846Y243653D02*
X433240D01*
X391500Y266000D02*
X413846Y243653D01*
X501496Y231496D02*
X525000Y255000D01*
X389908Y264764D02*
X423175Y231496D01*
X422441Y303937D02*
X429921Y296457D01*
X474289Y244289D02*
X500000Y270000D01*
X447638Y244289D02*
X474289D01*
X447638D02*
Y244925D01*
X444531Y248031D02*
X447638Y244925D01*
X421047Y269898D02*
X425591Y265354D01*
X398602Y269898D02*
X421047D01*
X377953Y254547D02*
X392342Y240158D01*
X399102D01*
X380906Y282716D02*
Y284449D01*
X377953Y279764D02*
X380906Y282716D01*
X377953Y254547D02*
Y279764D01*
X380906Y264764D02*
X389908D01*
X352362Y280512D02*
X398567Y326716D01*
X352362Y264764D02*
Y280512D01*
X398567Y326716D02*
X399606D01*
Y308394D02*
Y320866D01*
Y308394D02*
X410433Y297567D01*
Y292323D02*
Y297567D01*
X473425Y281496D02*
Y287158D01*
X456835Y303748D02*
X473425Y287158D01*
X445866Y303748D02*
X456835D01*
X503051Y284449D02*
X521654D01*
X503000Y284500D02*
X503051Y284449D01*
X525000Y276260D02*
Y314500D01*
X513457Y264717D02*
X525000Y276260D01*
X512429Y327071D02*
X525000Y314500D01*
X501500Y264717D02*
X513457D01*
X500000Y270000D02*
Y274882D01*
X391500Y266000D02*
Y287000D01*
X475146Y327071D02*
X512429D01*
D41*
X465748Y263386D02*
D03*
X450787Y257480D02*
D03*
X447000Y265437D02*
D03*
X429921Y248031D02*
D03*
X433240Y243653D02*
D03*
X429528Y257480D02*
D03*
X422441Y303937D02*
D03*
X447638Y244289D02*
D03*
X425591Y265354D02*
D03*
X399102Y240158D02*
D03*
X380906Y284449D02*
D03*
Y264764D02*
D03*
X352362D02*
D03*
X399606Y326716D02*
D03*
Y320866D02*
D03*
X410433Y292323D02*
D03*
X445866Y303748D02*
D03*
X473425Y281496D02*
D03*
X521654Y284449D02*
D03*
X525000Y255000D02*
D03*
X501500Y264717D02*
D03*
X500000Y274882D02*
D03*
X391500Y287000D02*
D03*
X398602Y269898D02*
D03*
X475146Y327071D02*
D03*
M02*
