G04*
G04 #@! TF.GenerationSoftware,Altium Limited,Altium Designer,19.0.13 (425)*
G04*
G04 Layer_Physical_Order=2*
G04 Layer_Color=16711680*
%FSLAX25Y25*%
%MOIN*%
G70*
G01*
G75*
%ADD14C,0.01000*%
%ADD44C,0.02362*%
%ADD45C,0.11811*%
D14*
X492126Y310500D02*
X511283Y291343D01*
X492126Y310500D02*
Y319291D01*
X351783Y263571D02*
Y307343D01*
Y263571D02*
X351969Y263386D01*
X351783Y307343D02*
X364574Y320134D01*
X404283D01*
X380008Y296544D02*
X412606Y263945D01*
X413980Y270092D02*
X418126Y265945D01*
X410094Y270092D02*
X413980D01*
X410094D02*
X435845Y295843D01*
X412606Y263945D02*
X418181D01*
X380008Y296544D02*
X380709Y297244D01*
X444392Y236221D02*
X450916Y229696D01*
X483079Y231296D02*
X485531Y233749D01*
X452145Y231296D02*
X483079D01*
X440098Y243343D02*
X452145Y231296D01*
X494636Y229696D02*
X518283Y253343D01*
X494636Y229696D02*
Y229696D01*
X450916Y229696D02*
X494636D01*
X423627Y230315D02*
X429532Y236221D01*
X397311Y230315D02*
X423627D01*
X372283Y255343D02*
X397311Y230315D01*
X429532Y236221D02*
X444392D01*
X465998Y270587D02*
X485998Y290587D01*
X443498Y254182D02*
Y279087D01*
X444422Y249582D02*
X444566Y249437D01*
X434710Y246537D02*
X455506D01*
X461340Y252372D01*
X419044Y249582D02*
X444422D01*
X448823Y261682D02*
X459093D01*
X414280Y257869D02*
X430818D01*
X408998Y252587D02*
X414280Y257869D01*
X420688Y261438D02*
X431350D01*
X437112Y252595D02*
Y259467D01*
X430634Y265945D02*
X437112Y259467D01*
X418126Y265945D02*
X430634D01*
X446498Y303087D02*
X451196D01*
X445498D02*
X446498D01*
X434566Y246047D02*
Y246682D01*
X434710Y246537D01*
X418283Y250343D02*
X419044Y249582D01*
X461340Y252372D02*
X471783D01*
X459093Y261682D02*
X466998Y269587D01*
X475783Y256178D02*
X485811Y266205D01*
X443498Y279087D02*
X456783Y292372D01*
X474783Y260835D02*
Y265343D01*
X471783Y257835D02*
X474783Y260835D01*
X471783Y252372D02*
Y257835D01*
X485998Y290587D02*
X502593D01*
X508283Y284897D01*
Y276843D02*
Y284897D01*
X504783Y273343D02*
X508283Y276843D01*
X511283Y269843D02*
Y291343D01*
X485811Y266205D02*
Y273843D01*
X451196Y303087D02*
X456783Y297500D01*
Y292372D02*
Y297500D01*
X418181Y263945D02*
X420688Y261438D01*
X408998Y248884D02*
Y252587D01*
X396783Y256343D02*
X413783Y239343D01*
X408998Y248884D02*
X412783Y245099D01*
X430818Y257869D02*
X433764Y254922D01*
X434066D01*
X414027Y239587D02*
X419255D01*
X413783Y239343D02*
X414027Y239587D01*
X474283Y236343D02*
X499783Y261843D01*
Y278741D01*
X504283Y283241D01*
X372283Y255343D02*
Y263843D01*
X435845Y295843D02*
X452783D01*
X356783Y282843D02*
X370283D01*
X396783Y256343D01*
X371283Y233343D02*
Y252343D01*
X356783Y266843D02*
X371283Y252343D01*
X356783Y266843D02*
Y272843D01*
X505283Y263843D02*
X511283Y269843D01*
D44*
X417717Y270092D02*
D03*
X492126Y319291D02*
D03*
X351969Y263386D02*
D03*
X404283Y320134D02*
D03*
X410094Y270092D02*
D03*
X380709Y297244D02*
D03*
X444566Y249437D02*
D03*
X437112Y252595D02*
D03*
X434566Y246682D02*
D03*
X439823Y243182D02*
D03*
X485531Y233749D02*
D03*
X475783Y256178D02*
D03*
X466998Y269587D02*
D03*
X474783Y265343D02*
D03*
X446498Y303087D02*
D03*
X412783Y245099D02*
D03*
X419255Y239587D02*
D03*
X431350Y261438D02*
D03*
X434066Y254922D02*
D03*
X444066Y254182D02*
D03*
X418283Y250343D02*
D03*
X448823Y261682D02*
D03*
X372283Y263843D02*
D03*
X396783Y256343D02*
D03*
X505283Y263843D02*
D03*
X452783Y295843D02*
D03*
X356783Y282843D02*
D03*
Y272843D02*
D03*
X371283Y233343D02*
D03*
X518283Y253343D02*
D03*
X504783Y273343D02*
D03*
X504283Y283241D02*
D03*
X474283Y236343D02*
D03*
X485811Y273843D02*
D03*
D45*
X437402Y227953D02*
D03*
X503937Y331496D02*
D03*
X374016D02*
D03*
M02*
