G04*
G04 #@! TF.GenerationSoftware,Altium Limited,Altium Designer,19.0.13 (425)*
G04*
G04 Layer_Color=65535*
%FSLAX25Y25*%
%MOIN*%
G70*
G01*
G75*
%ADD10C,0.00984*%
%ADD11C,0.02362*%
%ADD12C,0.00787*%
%ADD13C,0.01575*%
%ADD14C,0.01000*%
%ADD15C,0.00500*%
D10*
X464267Y230768D02*
X463529Y231194D01*
Y230342D01*
X464267Y230768D01*
X410444Y247217D02*
X409706Y247643D01*
Y246791D01*
X410444Y247217D01*
X428728Y263666D02*
X427990Y264092D01*
Y263240D01*
X428728Y263666D01*
X397275Y231268D02*
X396537Y231694D01*
Y230842D01*
X397275Y231268D01*
X534913Y233343D02*
X534175Y233769D01*
Y232917D01*
X534913Y233343D01*
X464759Y262268D02*
X464021Y262694D01*
Y261842D01*
X464759Y262268D01*
X386913Y233343D02*
X386175Y233769D01*
Y232917D01*
X386913Y233343D01*
X477641Y269217D02*
X476903Y269643D01*
Y268791D01*
X477641Y269217D01*
X485775Y231209D02*
X485037Y231635D01*
Y230783D01*
X485775Y231209D01*
X395275Y262768D02*
X394537Y263194D01*
Y262342D01*
X395275Y262768D01*
X418606Y248969D02*
X417868Y249395D01*
Y248543D01*
X418606Y248969D01*
D11*
X437685Y259040D02*
X437240Y259963D01*
X436241Y260191D01*
X435440Y259552D01*
Y258527D01*
X436241Y257888D01*
X437240Y258116D01*
X437685Y259040D01*
D12*
X481086Y275221D02*
X481480D01*
X481086Y272465D02*
X481480D01*
X458263Y235985D02*
Y253701D01*
X469287Y235985D02*
Y253701D01*
X458263Y235985D02*
X458854D01*
X458263Y253701D02*
X458854D01*
X468696Y235985D02*
X469287D01*
X468696Y253701D02*
X469287D01*
X414232Y245445D02*
X417236D01*
Y242886D02*
Y245445D01*
X414232Y233241D02*
X417236D01*
Y235800D01*
X432567Y242898D02*
Y262977D01*
X447134Y242898D02*
Y262977D01*
X432567D02*
X447134D01*
X432567Y242898D02*
X447134D01*
X391271Y236485D02*
Y254201D01*
X402295Y236485D02*
Y254201D01*
X391271Y236485D02*
X391862D01*
X391271Y254201D02*
X391862D01*
X401704Y236485D02*
X402295D01*
X401704Y254201D02*
X402295D01*
X497216Y228815D02*
X526350D01*
X497216Y228816D02*
Y229800D01*
X526350Y228816D02*
Y229800D01*
Y286886D02*
Y287870D01*
X497216Y286886D02*
Y287870D01*
X526350D01*
X458755Y267485D02*
Y285201D01*
X469779Y267485D02*
Y285201D01*
X458755Y267485D02*
X459346D01*
X458755Y285201D02*
X459346D01*
X469188Y267485D02*
X469779D01*
X469188Y285201D02*
X469779D01*
X349216Y228815D02*
X378350D01*
X349216Y228816D02*
Y229800D01*
X378350Y228816D02*
Y229800D01*
Y286886D02*
Y287870D01*
X349216Y286886D02*
Y287870D01*
X378350D01*
X481429Y267445D02*
X484433D01*
Y264886D02*
Y267445D01*
X481429Y255241D02*
X484433D01*
Y257800D01*
X477999Y232981D02*
X481004D01*
X477999D02*
Y235540D01*
Y245185D02*
X481004D01*
X477999Y242627D02*
Y245185D01*
X389271Y267985D02*
Y285701D01*
X400295Y267985D02*
Y285701D01*
X389271Y267985D02*
X389862D01*
X389271Y285701D02*
X389862D01*
X399704Y267985D02*
X400295D01*
X399704Y285701D02*
X400295D01*
X383086Y298721D02*
X383480D01*
X383086Y295965D02*
X383480D01*
X486661Y322646D02*
Y323040D01*
X483905Y322646D02*
Y323040D01*
X396661Y323146D02*
Y323540D01*
X393905Y323146D02*
Y323540D01*
X410830Y250741D02*
X413834D01*
X410830D02*
Y253300D01*
Y262945D02*
X413834D01*
X410830Y260386D02*
Y262945D01*
X414035Y271721D02*
X414429D01*
X414035Y268965D02*
X414429D01*
D13*
X490652Y328493D02*
X493014D01*
X403102Y328993D02*
X405464D01*
D14*
X450501Y269587D02*
X454500D01*
Y271586D01*
X453834Y272253D01*
X453167D01*
X452501Y271586D01*
Y269587D01*
Y271586D01*
X451834Y272253D01*
X451168D01*
X450501Y271586D01*
Y269587D01*
X454500Y273586D02*
X450501D01*
X451834Y274919D01*
X450501Y276252D01*
X454500D01*
X451168Y280250D02*
X450501Y279584D01*
Y278251D01*
X451168Y277585D01*
X451834D01*
X452501Y278251D01*
Y279584D01*
X453167Y280250D01*
X453834D01*
X454500Y279584D01*
Y278251D01*
X453834Y277585D01*
X450501Y284249D02*
Y281583D01*
X452501D01*
Y282916D01*
Y281583D01*
X454500D01*
X450501Y285582D02*
X454500D01*
Y288248D01*
X450501Y289581D02*
Y292247D01*
Y290914D01*
X454500D01*
X442568Y270500D02*
Y271833D01*
Y271166D01*
X446566D01*
Y270500D01*
Y271833D01*
Y273832D02*
X442568D01*
X443901Y275165D01*
X442568Y276498D01*
X446566D01*
X442568Y277831D02*
X446566D01*
Y279830D01*
X445900Y280497D01*
X443234D01*
X442568Y279830D01*
Y277831D01*
Y284495D02*
Y281830D01*
X444567D01*
Y283163D01*
Y281830D01*
X446566D01*
X442568Y285828D02*
X446566D01*
Y288494D01*
X442568Y289827D02*
Y292493D01*
Y291160D01*
X446566D01*
X435168Y284666D02*
X434501Y283999D01*
Y282666D01*
X435168Y282000D01*
X437834D01*
X438500Y282666D01*
Y283999D01*
X437834Y284666D01*
X436501D01*
Y283333D01*
X438500Y285999D02*
X434501D01*
X438500Y288665D01*
X434501D01*
Y289997D02*
X438500D01*
Y291997D01*
X437834Y292663D01*
X435168D01*
X434501Y291997D01*
Y289997D01*
X477999Y301841D02*
Y295843D01*
X480999D01*
X481998Y296843D01*
Y297842D01*
X480999Y298842D01*
X477999D01*
X480999D01*
X481998Y299842D01*
Y300841D01*
X480999Y301841D01*
X477999D01*
X483998Y295843D02*
Y301841D01*
X485997Y299842D01*
X487996Y301841D01*
Y295843D01*
X493994Y300841D02*
X492995Y301841D01*
X490995D01*
X489996Y300841D01*
Y299842D01*
X490995Y298842D01*
X492995D01*
X493994Y297842D01*
Y296843D01*
X492995Y295843D01*
X490995D01*
X489996Y296843D01*
X377283Y306500D02*
Y310499D01*
X379282D01*
X379949Y309832D01*
Y308499D01*
X379282Y307833D01*
X377283D01*
X378616D02*
X379949Y306500D01*
X383281D02*
X381948D01*
X381282Y307166D01*
Y308499D01*
X381948Y309166D01*
X383281D01*
X383947Y308499D01*
Y307833D01*
X381282D01*
X385280Y306500D02*
X387280D01*
X387946Y307166D01*
X387280Y307833D01*
X385947D01*
X385280Y308499D01*
X385947Y309166D01*
X387946D01*
X391279Y306500D02*
X389946D01*
X389279Y307166D01*
Y308499D01*
X389946Y309166D01*
X391279D01*
X391945Y308499D01*
Y307833D01*
X389279D01*
X393944Y309832D02*
Y309166D01*
X393278D01*
X394611D01*
X393944D01*
Y307166D01*
X394611Y306500D01*
X471500Y305500D02*
Y309499D01*
X474166Y305500D01*
Y309499D01*
X477498Y305500D02*
X476165D01*
X475499Y306166D01*
Y307499D01*
X476165Y308166D01*
X477498D01*
X478164Y307499D01*
Y306833D01*
X475499D01*
X480830Y304167D02*
X481497D01*
X482163Y304834D01*
Y308166D01*
X480164D01*
X479497Y307499D01*
Y306166D01*
X480164Y305500D01*
X482163D01*
X484163Y308166D02*
X485496D01*
X486162Y307499D01*
Y305500D01*
X484163D01*
X483496Y306166D01*
X484163Y306833D01*
X486162D01*
X488161Y308832D02*
Y308166D01*
X487495D01*
X488828D01*
X488161D01*
Y306166D01*
X488828Y305500D01*
X490827D02*
X492160D01*
X491494D01*
Y308166D01*
X490827D01*
X494159D02*
X495492Y305500D01*
X496825Y308166D01*
X500157Y305500D02*
X498825D01*
X498158Y306166D01*
Y307499D01*
X498825Y308166D01*
X500157D01*
X500824Y307499D01*
Y306833D01*
X498158D01*
X401704Y309498D02*
X403704D01*
X402704D01*
Y303500D01*
X401704D01*
X403704D01*
X406703D02*
Y309498D01*
X408702Y307499D01*
X410701Y309498D01*
Y303500D01*
X412701Y309498D02*
Y303500D01*
X415700D01*
X416699Y304500D01*
Y308498D01*
X415700Y309498D01*
X412701D01*
X381016Y318332D02*
X380349Y318999D01*
X379016D01*
X378350Y318332D01*
Y315666D01*
X379016Y315000D01*
X380349D01*
X381016Y315666D01*
Y316999D01*
X379683D01*
X382349Y315000D02*
Y318999D01*
X385014Y315000D01*
Y318999D01*
X386347D02*
Y315000D01*
X388347D01*
X389013Y315666D01*
Y318332D01*
X388347Y318999D01*
X386347D01*
X431000Y283000D02*
Y284333D01*
Y283666D01*
X427001D01*
X427668Y283000D01*
X431000Y288998D02*
Y286332D01*
X428334Y288998D01*
X427668D01*
X427001Y288332D01*
Y286999D01*
X427668Y286332D01*
X427001Y290331D02*
X429667D01*
X431000Y291664D01*
X429667Y292997D01*
X427001D01*
X470090Y313000D02*
Y316999D01*
X472090D01*
X472756Y316332D01*
Y314999D01*
X472090Y314333D01*
X470090D01*
X474756Y313000D02*
X476089D01*
X476755Y313666D01*
Y314999D01*
X476089Y315666D01*
X474756D01*
X474089Y314999D01*
Y313666D01*
X474756Y313000D01*
X478088D02*
X480087D01*
X480754Y313666D01*
X480087Y314333D01*
X478754D01*
X478088Y314999D01*
X478754Y315666D01*
X480754D01*
X482087Y313000D02*
X483420D01*
X482753D01*
Y315666D01*
X482087D01*
X486085Y316332D02*
Y315666D01*
X485419D01*
X486752D01*
X486085D01*
Y313666D01*
X486752Y313000D01*
X488751D02*
X490084D01*
X489418D01*
Y315666D01*
X488751D01*
X492083D02*
X493416Y313000D01*
X494749Y315666D01*
X498081Y313000D02*
X496749D01*
X496082Y313666D01*
Y314999D01*
X496749Y315666D01*
X498081D01*
X498748Y314999D01*
Y314333D01*
X496082D01*
D15*
X433567Y269437D02*
Y266937D01*
X434067Y266438D01*
X435067D01*
X435567Y266937D01*
Y269437D01*
X436566Y266438D02*
X437566D01*
X437066D01*
Y269437D01*
X436566Y268937D01*
X477683Y323146D02*
Y325146D01*
X478683D01*
X479016Y324812D01*
Y324146D01*
X478683Y323813D01*
X477683D01*
X478349D02*
X479016Y323146D01*
X479682Y325146D02*
X481015D01*
Y324812D01*
X479682Y323479D01*
Y323146D01*
X370000Y296500D02*
Y298499D01*
X371000D01*
X371333Y298166D01*
Y297500D01*
X371000Y297166D01*
X370000D01*
X370666D02*
X371333Y296500D01*
X373332Y298499D02*
X371999D01*
Y297500D01*
X372666Y297833D01*
X372999D01*
X373332Y297500D01*
Y296833D01*
X372999Y296500D01*
X372333D01*
X371999Y296833D01*
X471500Y272500D02*
Y275499D01*
X472999D01*
X473499Y274999D01*
Y274000D01*
X472999Y273500D01*
X471500D01*
X472500D02*
X473499Y272500D01*
X474499Y274999D02*
X474999Y275499D01*
X475998D01*
X476498Y274999D01*
Y274499D01*
X475998Y274000D01*
X475499D01*
X475998D01*
X476498Y273500D01*
Y273000D01*
X475998Y272500D01*
X474999D01*
X474499Y273000D01*
X410830Y274500D02*
Y277499D01*
X412330D01*
X412830Y276999D01*
Y275999D01*
X412330Y275500D01*
X410830D01*
X411830D02*
X412830Y274500D01*
X415829D02*
X413829D01*
X415829Y276499D01*
Y276999D01*
X415329Y277499D01*
X414329D01*
X413829Y276999D01*
X387500Y324500D02*
Y326499D01*
X388500D01*
X388833Y326166D01*
Y325500D01*
X388500Y325166D01*
X387500D01*
X388166D02*
X388833Y324500D01*
X389499D02*
X390166D01*
X389833D01*
Y326499D01*
X389499Y326166D01*
X469499Y257500D02*
Y259499D01*
X468999Y259999D01*
X468000D01*
X467500Y259499D01*
Y257500D01*
X468000Y257000D01*
X468999D01*
X468500Y258000D02*
X469499Y257000D01*
X468999D02*
X469499Y257500D01*
X471999Y257000D02*
Y259999D01*
X470499Y258500D01*
X472498D01*
X414499Y264500D02*
Y266499D01*
X414000Y266999D01*
X413000D01*
X412500Y266499D01*
Y264500D01*
X413000Y264000D01*
X414000D01*
X413500Y265000D02*
X414499Y264000D01*
X414000D02*
X414499Y264500D01*
X415499Y266499D02*
X415999Y266999D01*
X416998D01*
X417498Y266499D01*
Y265999D01*
X416998Y265499D01*
X416499D01*
X416998D01*
X417498Y265000D01*
Y264500D01*
X416998Y264000D01*
X415999D01*
X415499Y264500D01*
X406499Y246843D02*
Y248842D01*
X406000Y249342D01*
X405000D01*
X404500Y248842D01*
Y246843D01*
X405000Y246343D01*
X406000D01*
X405500Y247343D02*
X406499Y246343D01*
X406000D02*
X406499Y246843D01*
X409498Y246343D02*
X407499D01*
X409498Y248342D01*
Y248842D01*
X408998Y249342D01*
X407999D01*
X407499Y248842D01*
X476499Y246843D02*
Y248842D01*
X475999Y249342D01*
X475000D01*
X474500Y248842D01*
Y246843D01*
X475000Y246343D01*
X475999D01*
X475500Y247343D02*
X476499Y246343D01*
X475999D02*
X476499Y246843D01*
X477499Y246343D02*
X478499D01*
X477999D01*
Y249342D01*
X477499Y248842D01*
X398000Y261499D02*
Y259500D01*
X399000D01*
X399333Y259833D01*
Y261166D01*
X399000Y261499D01*
X398000D01*
X400999Y259500D02*
Y261499D01*
X399999Y260500D01*
X401332D01*
X452783Y259342D02*
Y256343D01*
X454283D01*
X454782Y256843D01*
Y258842D01*
X454283Y259342D01*
X452783D01*
X455782Y258842D02*
X456282Y259342D01*
X457281D01*
X457781Y258842D01*
Y258342D01*
X457281Y257842D01*
X456782D01*
X457281D01*
X457781Y257343D01*
Y256843D01*
X457281Y256343D01*
X456282D01*
X455782Y256843D01*
X460500Y293499D02*
Y290500D01*
X462000D01*
X462499Y291000D01*
Y292999D01*
X462000Y293499D01*
X460500D01*
X465498Y290500D02*
X463499D01*
X465498Y292499D01*
Y292999D01*
X464998Y293499D01*
X463999D01*
X463499Y292999D01*
X393000Y292999D02*
Y290000D01*
X394499D01*
X394999Y290500D01*
Y292499D01*
X394499Y292999D01*
X393000D01*
X395999Y290000D02*
X396999D01*
X396499D01*
Y292999D01*
X395999Y292499D01*
X473999Y286999D02*
X473499Y287499D01*
X472500D01*
X472000Y286999D01*
Y285000D01*
X472500Y284500D01*
X473499D01*
X473999Y285000D01*
X476998Y284500D02*
X474999D01*
X476998Y286499D01*
Y286999D01*
X476499Y287499D01*
X475499D01*
X474999Y286999D01*
X411499Y291999D02*
X410999Y292499D01*
X410000D01*
X409500Y291999D01*
Y290000D01*
X410000Y289500D01*
X410999D01*
X411499Y290000D01*
X412499Y289500D02*
X413499D01*
X412999D01*
Y292499D01*
X412499Y291999D01*
M02*
