G04*
G04 #@! TF.GenerationSoftware,Altium Limited,Altium Designer,19.0.13 (425)*
G04*
G04 Layer_Physical_Order=1*
G04 Layer_Color=255*
%FSLAX25Y25*%
%MOIN*%
G70*
G01*
G75*
%ADD14C,0.01000*%
%ADD31R,0.02756X0.03543*%
%ADD32R,0.06693X0.11024*%
%ADD33R,0.05512X0.03937*%
%ADD34O,0.05512X0.01000*%
%ADD35O,0.05512X0.01772*%
%ADD36R,0.04528X0.05315*%
%ADD37R,0.12441X0.03937*%
%ADD38R,0.15748X0.07874*%
%ADD39R,0.11811X0.03937*%
%ADD40R,0.03937X0.11811*%
%ADD41R,0.07874X0.15748*%
%ADD42R,0.03150X0.02362*%
%ADD43R,0.03543X0.02756*%
%ADD44C,0.02362*%
%ADD45C,0.11811*%
D14*
X447494Y270092D02*
X459333Y258252D01*
X417717Y270092D02*
X447494D01*
X498031Y263843D02*
X505283D01*
X497531Y263343D02*
X498031Y263843D01*
X518283Y253343D02*
X526035D01*
X368500Y309126D02*
X380283Y297343D01*
X418251Y232134D02*
X424562Y238445D01*
X463775D01*
X464588Y239259D01*
X403594Y232134D02*
X418251D01*
X463775Y238445D02*
Y238445D01*
X460728Y241492D02*
X463775Y238445D01*
X456783Y245438D02*
X460728Y241492D01*
X396783Y238945D02*
X403594Y232134D01*
X404283Y241272D02*
X409952Y235603D01*
X414358Y241933D02*
X417524Y245099D01*
X414358Y240008D02*
Y241933D01*
X444066Y254182D02*
X445310Y252938D01*
X444566Y249437D02*
X444892D01*
X445833Y250378D01*
X451465D01*
X445310Y252938D02*
X451465D01*
X456783Y245438D02*
Y257821D01*
X453855Y260749D02*
X456783Y257821D01*
X451465Y260615D02*
X453721D01*
X496464Y308906D02*
X509814D01*
X368500Y317000D02*
X391696D01*
X417524Y245099D02*
X427669D01*
X409952Y235603D02*
X414358Y240008D01*
X522157Y233343D02*
X526035D01*
X512382Y243118D02*
X522157Y233343D01*
X512382Y243118D02*
Y270000D01*
X515725Y273343D01*
X478429Y273941D02*
X478527Y273843D01*
X478429Y273941D02*
Y284343D01*
X439823Y243182D02*
X440945Y244304D01*
Y253343D01*
X438793Y255495D02*
X440945Y253343D01*
X434896Y250378D02*
X437112Y252595D01*
X434638Y255495D02*
X438793D01*
X434066Y254922D02*
X434638Y255495D01*
X477179Y257573D02*
X485283Y249469D01*
X459333Y258252D02*
X476500D01*
X477149Y257603D01*
X428236Y250378D02*
X434896D01*
X504783Y273343D02*
X515725D01*
X497531D02*
X504783D01*
X413708Y256178D02*
X418114Y260583D01*
X413708Y254253D02*
Y256178D01*
X428236Y247819D02*
X434066D01*
X430933Y258056D02*
X434066Y254922D01*
X428236Y258056D02*
X430933D01*
X404283Y244828D02*
X413708Y254253D01*
X416988Y270343D02*
Y284044D01*
X422018D01*
X423441Y297343D02*
X428972Y302874D01*
X386039Y297343D02*
X423441D01*
X378035Y283343D02*
Y289339D01*
X386039Y297343D01*
X380283D02*
X380527D01*
X394452Y261512D02*
X404783D01*
X389468Y256528D02*
X394452Y261512D01*
X389468Y249469D02*
Y256528D01*
X387842Y247843D02*
X389468Y249469D01*
X379283Y247843D02*
X387842D01*
X364783Y233343D02*
X379283Y247843D01*
X349531Y233343D02*
X364783D01*
X475933Y239083D02*
X476622D01*
X463775Y251241D02*
X475933Y239083D01*
X394783Y283241D02*
X404783Y273241D01*
Y261512D02*
Y273241D01*
Y261512D02*
X409452Y256843D01*
X394783Y269781D02*
Y270445D01*
X378345Y253343D02*
X394783Y269781D01*
X378035Y253343D02*
X378345D01*
X369841D02*
X378035D01*
X349841Y273343D02*
X369841Y253343D01*
X349531Y273343D02*
X349841D01*
X388885Y276343D02*
X394783Y270445D01*
X385345Y276343D02*
X388885D01*
X378345Y283343D02*
X385345Y276343D01*
X378035Y283343D02*
X378345D01*
X391696Y317000D02*
X395283Y320587D01*
X485283Y320087D02*
X496464Y308906D01*
X395283Y320587D02*
X405027Y310843D01*
X430998D01*
X432441Y309401D01*
Y307279D02*
Y309401D01*
Y307279D02*
X436846Y302874D01*
X422018Y284044D02*
X432441Y294467D01*
Y298468D01*
X436846Y302874D01*
X410980Y284343D02*
X411476Y283847D01*
Y270343D02*
Y283847D01*
X416988Y270343D02*
X418114Y269217D01*
Y260583D02*
Y269217D01*
X404283Y241272D02*
Y244828D01*
X463775Y238445D02*
X464267Y238937D01*
X391181Y233343D02*
X396783Y238945D01*
X378035Y233343D02*
X391181D01*
X485811Y261343D02*
X489783Y257371D01*
Y241091D02*
Y257371D01*
Y241091D02*
X497531Y233343D01*
X525725Y283343D02*
X526035D01*
X515725Y273343D02*
X525725Y283343D01*
X526035Y263343D02*
X526345D01*
X534283Y271281D01*
Y287843D01*
X533283Y288843D02*
X534283Y287843D01*
X521283Y288843D02*
X533283D01*
X516283Y293843D02*
X521283Y288843D01*
X516283Y293843D02*
Y303843D01*
X522283Y309843D01*
Y313343D01*
X518846Y316780D02*
X522283Y313343D01*
X509814Y316780D02*
X518846D01*
X485283Y242823D02*
Y249469D01*
X485811Y261343D02*
Y266343D01*
X482311Y269843D02*
X485811Y266343D01*
X477165Y269843D02*
X482311D01*
X464267Y282741D02*
X477165Y269843D01*
X444720Y302874D02*
Y310280D01*
X447783Y313343D01*
X454783D01*
X457283Y310843D01*
Y305489D02*
Y310843D01*
Y305489D02*
X478429Y284343D01*
X484039Y284245D02*
X484137Y284343D01*
X484039Y273843D02*
Y284245D01*
X484137Y284343D02*
X485283Y285489D01*
Y320087D01*
X491577Y325599D02*
X491833Y325343D01*
X485283Y325599D02*
X491577D01*
X404027Y326099D02*
X404283Y325843D01*
X395283Y326099D02*
X404027D01*
D31*
X484039Y273843D02*
D03*
X478527D02*
D03*
X386039Y297343D02*
D03*
X380527D02*
D03*
X416988Y270343D02*
D03*
X411476D02*
D03*
D32*
X463775Y238445D02*
D03*
Y251241D02*
D03*
X396783Y238945D02*
D03*
Y251741D02*
D03*
X464267Y269945D02*
D03*
Y282741D02*
D03*
X394783Y270445D02*
D03*
Y283241D02*
D03*
D33*
X409952Y243083D02*
D03*
Y235603D02*
D03*
X418614Y239343D02*
D03*
X477149Y265083D02*
D03*
Y257603D02*
D03*
X485811Y261343D02*
D03*
X485283Y235343D02*
D03*
Y242823D02*
D03*
X476622Y239083D02*
D03*
X418114Y253103D02*
D03*
Y260583D02*
D03*
X409452Y256843D02*
D03*
D34*
X428236Y260615D02*
D03*
Y258056D02*
D03*
Y255497D02*
D03*
Y252938D02*
D03*
Y250378D02*
D03*
Y247819D02*
D03*
X451465Y260615D02*
D03*
Y258056D02*
D03*
Y255497D02*
D03*
Y252938D02*
D03*
Y250378D02*
D03*
D35*
X428236Y245260D02*
D03*
X451465Y247819D02*
D03*
Y245260D02*
D03*
D36*
X410980Y284343D02*
D03*
X416688D02*
D03*
X478429D02*
D03*
X484137D02*
D03*
D37*
X526035Y283343D02*
D03*
Y273343D02*
D03*
Y263343D02*
D03*
Y253343D02*
D03*
Y233343D02*
D03*
X497531Y283343D02*
D03*
Y273343D02*
D03*
Y263343D02*
D03*
Y253343D02*
D03*
Y233343D02*
D03*
X378035Y283343D02*
D03*
Y273343D02*
D03*
Y263343D02*
D03*
Y253343D02*
D03*
Y233343D02*
D03*
X349531Y283343D02*
D03*
Y273343D02*
D03*
Y263343D02*
D03*
Y253343D02*
D03*
Y233343D02*
D03*
D38*
X525591Y298539D02*
D03*
Y326099D02*
D03*
X351000Y326500D02*
D03*
Y298940D02*
D03*
D39*
X507873Y316256D02*
D03*
Y308382D02*
D03*
X368717Y308783D02*
D03*
Y316657D02*
D03*
D40*
X452594Y302874D02*
D03*
X444720D02*
D03*
X428972D02*
D03*
X436846D02*
D03*
D41*
X462437Y320591D02*
D03*
X419129D02*
D03*
D42*
X491833Y325343D02*
D03*
Y319634D02*
D03*
X404283Y325843D02*
D03*
Y320134D02*
D03*
D43*
X485283Y320087D02*
D03*
Y325599D02*
D03*
X395283Y320587D02*
D03*
Y326099D02*
D03*
D44*
X417717Y270092D02*
D03*
X492126Y319291D02*
D03*
X351969Y263386D02*
D03*
X404283Y320134D02*
D03*
X410094Y270092D02*
D03*
X380709Y297244D02*
D03*
X444566Y249437D02*
D03*
X437112Y252595D02*
D03*
X434566Y246682D02*
D03*
X439823Y243182D02*
D03*
X485531Y233749D02*
D03*
X475783Y256178D02*
D03*
X466998Y269587D02*
D03*
X474783Y265343D02*
D03*
X446498Y303087D02*
D03*
X412783Y245099D02*
D03*
X419255Y239587D02*
D03*
X431350Y261438D02*
D03*
X434066Y254922D02*
D03*
X444066Y254182D02*
D03*
X418283Y250343D02*
D03*
X448823Y261682D02*
D03*
X372283Y263843D02*
D03*
X396783Y256343D02*
D03*
X505283Y263843D02*
D03*
X452783Y295843D02*
D03*
X356783Y282843D02*
D03*
Y272843D02*
D03*
X371283Y233343D02*
D03*
X518283Y253343D02*
D03*
X504783Y273343D02*
D03*
X504283Y283241D02*
D03*
X474283Y236343D02*
D03*
X485811Y273843D02*
D03*
D45*
X437402Y227953D02*
D03*
X503937Y331496D02*
D03*
X374016D02*
D03*
M02*
