M48
;Layer_Color=9474304
;FILE_FORMAT=2:5
INCH,LZ
;TYPE=PLATED
T1F00S00C0.01181
T2F00S00C0.11811
%
T01
X0474283Y0236343
X0485531Y0233749
X0475783Y0256178
X0474783Y0265343
X0485811Y0273843
X0504783Y0273343
X0505283Y0263843
X0504283Y0283241
X0518283Y0253343
X0466998Y0269587
X0448823Y0261682
X0444066Y0254182
X0444566Y0249437
X0437112Y0252595
X0434066Y0254922
X0434566Y0246682
X0439823Y0243182
X0419255Y0239587
X0418283Y0250343
X0412783Y0245099
X0396783Y0256343
X0410094Y0270092
X0417717
X043135Y0261438
X0452783Y0295843
X0446498Y0303087
X0380709Y0297244
X0356783Y0282843
Y0272843
X0351969Y0263386
X0372283Y0263843
X0371283Y0233343
X0404283Y0320134
X0492126Y0319291
T02
X0437402Y0227953
X0374016Y0331496
X0503937
M30
