G04*
G04 #@! TF.GenerationSoftware,Altium Limited,Altium Designer,19.0.13 (425)*
G04*
G04 Layer_Color=8388736*
%FSLAX25Y25*%
%MOIN*%
G70*
G01*
G75*
%ADD16R,0.03556X0.04343*%
%ADD17R,0.07493X0.11824*%
%ADD18R,0.06312X0.04737*%
%ADD19O,0.06312X0.01800*%
%ADD20O,0.06312X0.02572*%
%ADD21R,0.05328X0.06115*%
%ADD22R,0.13241X0.04737*%
%ADD23R,0.16548X0.08674*%
%ADD24R,0.12611X0.04737*%
%ADD25R,0.04737X0.12611*%
%ADD26R,0.08674X0.16548*%
%ADD27R,0.03950X0.03162*%
%ADD28R,0.04343X0.03556*%
%ADD29C,0.03162*%
%ADD30C,0.12611*%
D16*
X484039Y273843D02*
D03*
X478527D02*
D03*
X386039Y297343D02*
D03*
X380527D02*
D03*
X416988Y270343D02*
D03*
X411476D02*
D03*
D17*
X463775Y238445D02*
D03*
Y251241D02*
D03*
X396783Y238945D02*
D03*
Y251741D02*
D03*
X464267Y269945D02*
D03*
Y282741D02*
D03*
X394783Y270445D02*
D03*
Y283241D02*
D03*
D18*
X409952Y243083D02*
D03*
Y235603D02*
D03*
X418614Y239343D02*
D03*
X477149Y265083D02*
D03*
Y257603D02*
D03*
X485811Y261343D02*
D03*
X485283Y235343D02*
D03*
Y242823D02*
D03*
X476622Y239083D02*
D03*
X418114Y253103D02*
D03*
Y260583D02*
D03*
X409452Y256843D02*
D03*
D19*
X428236Y260615D02*
D03*
Y258056D02*
D03*
Y255497D02*
D03*
Y252938D02*
D03*
Y250378D02*
D03*
Y247819D02*
D03*
X451465Y260615D02*
D03*
Y258056D02*
D03*
Y255497D02*
D03*
Y252938D02*
D03*
Y250378D02*
D03*
D20*
X428236Y245260D02*
D03*
X451465Y247819D02*
D03*
Y245260D02*
D03*
D21*
X410980Y284343D02*
D03*
X416688D02*
D03*
X478429D02*
D03*
X484137D02*
D03*
D22*
X526035Y283343D02*
D03*
Y273343D02*
D03*
Y263343D02*
D03*
Y253343D02*
D03*
Y233343D02*
D03*
X497531Y283343D02*
D03*
Y273343D02*
D03*
Y263343D02*
D03*
Y253343D02*
D03*
Y233343D02*
D03*
X378035Y283343D02*
D03*
Y273343D02*
D03*
Y263343D02*
D03*
Y253343D02*
D03*
Y233343D02*
D03*
X349531Y283343D02*
D03*
Y273343D02*
D03*
Y263343D02*
D03*
Y253343D02*
D03*
Y233343D02*
D03*
D23*
X525591Y298539D02*
D03*
Y326099D02*
D03*
X351000Y326500D02*
D03*
Y298940D02*
D03*
D24*
X507873Y316256D02*
D03*
Y308382D02*
D03*
X368717Y308783D02*
D03*
Y316657D02*
D03*
D25*
X452594Y302874D02*
D03*
X444720D02*
D03*
X428972D02*
D03*
X436846D02*
D03*
D26*
X462437Y320591D02*
D03*
X419129D02*
D03*
D27*
X491833Y325343D02*
D03*
Y319634D02*
D03*
X404283Y325843D02*
D03*
Y320134D02*
D03*
D28*
X485283Y320087D02*
D03*
Y325599D02*
D03*
X395283Y320587D02*
D03*
Y326099D02*
D03*
D29*
X417717Y270092D02*
D03*
X492126Y319291D02*
D03*
X351969Y263386D02*
D03*
X404283Y320134D02*
D03*
X410094Y270092D02*
D03*
X380709Y297244D02*
D03*
X444566Y249437D02*
D03*
X437112Y252595D02*
D03*
X434566Y246682D02*
D03*
X439823Y243182D02*
D03*
X485531Y233749D02*
D03*
X475783Y256178D02*
D03*
X466998Y269587D02*
D03*
X474783Y265343D02*
D03*
X446498Y303087D02*
D03*
X412783Y245099D02*
D03*
X419255Y239587D02*
D03*
X431350Y261438D02*
D03*
X434066Y254922D02*
D03*
X444066Y254182D02*
D03*
X418283Y250343D02*
D03*
X448823Y261682D02*
D03*
X372283Y263843D02*
D03*
X396783Y256343D02*
D03*
X505283Y263843D02*
D03*
X452783Y295843D02*
D03*
X356783Y282843D02*
D03*
Y272843D02*
D03*
X371283Y233343D02*
D03*
X518283Y253343D02*
D03*
X504783Y273343D02*
D03*
X504283Y283241D02*
D03*
X474283Y236343D02*
D03*
X485811Y273843D02*
D03*
D30*
X437402Y227953D02*
D03*
X503937Y331496D02*
D03*
X374016D02*
D03*
M02*
