G04*
G04 #@! TF.GenerationSoftware,Altium Limited,Altium Designer,19.0.13 (425)*
G04*
G04 Layer_Color=16711935*
%FSLAX25Y25*%
%MOIN*%
G70*
G01*
G75*
%ADD12C,0.00787*%
D12*
X427559Y227953D02*
X427610Y226957D01*
X427761Y225972D01*
X428010Y225006D01*
X428357Y224071D01*
X428796Y223176D01*
X429323Y222330D01*
X429934Y221542D01*
X430620Y220819D01*
X431377Y220169D01*
X432195Y219600D01*
X433067Y219116D01*
X433983Y218723D01*
X434935Y218424D01*
X435911Y218224D01*
X436903Y218123D01*
X437900D01*
X438892Y218224D01*
X439869Y218424D01*
X440820Y218723D01*
X441736Y219116D01*
X442608Y219600D01*
X443426Y220169D01*
X444183Y220819D01*
X444870Y221542D01*
X445480Y222330D01*
X446007Y223176D01*
X446446Y224071D01*
X446793Y225006D01*
X447043Y225972D01*
X447194Y226957D01*
X447244Y227953D01*
X383858Y331496D02*
X383808Y332492D01*
X383657Y333477D01*
X383407Y334442D01*
X383061Y335378D01*
X382622Y336273D01*
X382094Y337119D01*
X381484Y337907D01*
X380797Y338630D01*
X380040Y339279D01*
X379222Y339849D01*
X378350Y340333D01*
X377434Y340726D01*
X376483Y341024D01*
X375506Y341225D01*
X374514Y341326D01*
X373517D01*
X372525Y341225D01*
X371549Y341024D01*
X370597Y340726D01*
X369681Y340333D01*
X368809Y339849D01*
X367991Y339279D01*
X367235Y338630D01*
X366548Y337907D01*
X365937Y337119D01*
X365410Y336273D01*
X364971Y335378D01*
X364625Y334442D01*
X364375Y333477D01*
X364224Y332492D01*
X364173Y331496D01*
X513779D02*
X513729Y332492D01*
X513578Y333477D01*
X513328Y334442D01*
X512982Y335378D01*
X512543Y336273D01*
X512015Y337119D01*
X511405Y337907D01*
X510718Y338630D01*
X509962Y339279D01*
X509143Y339849D01*
X508272Y340333D01*
X507355Y340726D01*
X506404Y341024D01*
X505427Y341225D01*
X504435Y341326D01*
X503439D01*
X502447Y341225D01*
X501470Y341024D01*
X500519Y340726D01*
X499602Y340333D01*
X498731Y339849D01*
X497912Y339279D01*
X497156Y338630D01*
X496469Y337907D01*
X495859Y337119D01*
X495331Y336273D01*
X494892Y335378D01*
X494546Y334442D01*
X494296Y333477D01*
X494145Y332492D01*
X494095Y331496D01*
X342126Y227953D02*
X427559D01*
X447244Y227953D02*
X536221Y227953D01*
Y331496D01*
X513752D02*
X536221D01*
X383858D02*
X494095D01*
X342126D02*
X364173D01*
X342126Y227953D02*
Y331496D01*
M02*
