G04*
G04 #@! TF.GenerationSoftware,Altium Limited,Altium Designer,19.0.13 (425)*
G04*
G04 Layer_Physical_Order=3*
G04 Layer_Color=16440176*
%FSLAX25Y25*%
%MOIN*%
G70*
G01*
G75*
%ADD45C,0.00400*%
%ADD46C,0.01000*%
%ADD48C,0.50000*%
%ADD49C,0.05118*%
G04:AMPARAMS|DCode=51|XSize=137.8mil|YSize=59.06mil|CornerRadius=29.53mil|HoleSize=0mil|Usage=FLASHONLY|Rotation=180.000|XOffset=0mil|YOffset=0mil|HoleType=Round|Shape=RoundedRectangle|*
%AMROUNDEDRECTD51*
21,1,0.13780,0.00000,0,0,180.0*
21,1,0.07874,0.05906,0,0,180.0*
1,1,0.05906,-0.03937,0.00000*
1,1,0.05906,0.03937,0.00000*
1,1,0.05906,0.03937,0.00000*
1,1,0.05906,-0.03937,0.00000*
%
%ADD51ROUNDEDRECTD51*%
%ADD52C,0.01772*%
%ADD53C,0.04724*%
%ADD54C,0.27559*%
D45*
X-41840Y-42824D02*
Y56308D01*
X-42028Y-43012D02*
X-41840Y-42824D01*
X-42640Y-28861D02*
Y55976D01*
X-43440Y-28529D02*
Y55645D01*
X-44240Y-28198D02*
Y55313D01*
X-45040Y-27792D02*
Y54982D01*
X-45840Y-27461D02*
Y54651D01*
X-46640Y-27130D02*
Y54319D01*
X-47440Y-21850D02*
Y53988D01*
X-47750Y62217D02*
X-41840Y56308D01*
X-48081Y61417D02*
X-42640Y55976D01*
X-51575Y-37795D02*
X-42640Y-28861D01*
X-48413Y60617D02*
X-43440Y55645D01*
X-51220Y-36309D02*
X-43440Y-28529D01*
X-48744Y59817D02*
X-44240Y55313D01*
X-51475Y-35433D02*
X-44240Y-28198D01*
X-49075Y59017D02*
X-45040Y54982D01*
X-50319Y-33071D02*
X-45040Y-27792D01*
X-49407Y58217D02*
X-45840Y54651D01*
X-48300Y-29921D02*
X-45840Y-27461D01*
X-49738Y57417D02*
X-46640Y54319D01*
X-47385Y-27874D02*
X-46640Y-27130D01*
X-50069Y56617D02*
X-47440Y53988D01*
X-51575Y-25984D02*
X-47440Y-21850D01*
X-38167Y-5171D02*
Y25242D01*
Y-5171D02*
X-10267Y-33071D01*
X-38887Y25963D02*
Y27194D01*
Y25963D02*
X-38167Y25242D01*
X-54068Y-27874D02*
X-47385D01*
X399972Y-51665D02*
X432699D01*
X56629Y-41030D02*
X57467Y-41868D01*
Y-45906D02*
Y-41868D01*
Y-45906D02*
X65105Y-53543D01*
X351969D01*
X55829Y-41362D02*
X56667Y-42200D01*
Y-46237D02*
Y-42200D01*
Y-46237D02*
X64773Y-54343D01*
X352300D01*
X55029Y-41693D02*
X55867Y-42531D01*
Y-46568D02*
Y-42531D01*
Y-46568D02*
X64442Y-55143D01*
X352631D01*
X53543Y-41339D02*
X54283Y-42078D01*
Y-43423D02*
Y-42078D01*
Y-43423D02*
X55067Y-44207D01*
Y-46900D02*
Y-44207D01*
Y-46900D02*
X64110Y-55943D01*
X352963D01*
X51181Y-41452D02*
X54267Y-44538D01*
Y-47231D02*
Y-44538D01*
Y-47231D02*
X63779Y-56743D01*
X353294D01*
X45859Y-37262D02*
X53467Y-44870D01*
Y-47563D02*
Y-44870D01*
Y-47563D02*
X63448Y-57543D01*
X385942D01*
X45791Y-37262D02*
X45859D01*
X51181Y-45438D02*
Y-44685D01*
Y-47539D02*
X62785Y-59143D01*
X62454Y-59943D02*
X386936D01*
X59254Y-56743D02*
X62454Y-59943D01*
X54283Y-56743D02*
X59254D01*
X62122Y-60743D02*
X387268D01*
X59325Y-57946D02*
X62122Y-60743D01*
X50564Y-57946D02*
X59325D01*
X61791Y-61543D02*
X387599D01*
X58994Y-58746D02*
X61791Y-61543D01*
X53016Y-58746D02*
X58994D01*
X61460Y-62343D02*
X387930D01*
X60435Y-61319D02*
X61460Y-62343D01*
X43046Y-61319D02*
X60435D01*
X52667Y-47894D02*
X63116Y-58343D01*
X51181Y-45438D02*
X52667Y-46924D01*
Y-47894D02*
Y-46924D01*
X63116Y-58343D02*
X386274D01*
X62785Y-59143D02*
X386605D01*
X51871Y-31629D02*
Y-31629D01*
Y-31629D02*
X53626Y-33383D01*
X54185D01*
X55128Y-34326D01*
X56629Y-41030D02*
Y-40060D01*
X54442Y-37873D02*
X56629Y-40060D01*
X54442Y-37873D02*
Y-36242D01*
X51181Y-36875D02*
Y-36811D01*
X53642Y-38204D02*
X55829Y-40392D01*
X53642Y-38204D02*
Y-34941D01*
X55829Y-41362D02*
Y-40392D01*
X55029Y-41693D02*
Y-40723D01*
X51181Y-36875D02*
X55029Y-40723D01*
X54442Y-36242D02*
X55128Y-35556D01*
Y-34326D01*
X51181Y-41452D02*
Y-39764D01*
X352631Y-55143D02*
X353431Y-54343D01*
X352963Y-55943D02*
X353763Y-55143D01*
X353294Y-56743D02*
X353917Y-56120D01*
X385942Y-57543D02*
X386742Y-56743D01*
X386274Y-58343D02*
X387073Y-57543D01*
X386605Y-59143D02*
X387405Y-58343D01*
X386936Y-59943D02*
X387736Y-59143D01*
X387268Y-60743D02*
X388068Y-59943D01*
X387599Y-61543D02*
X388399Y-60743D01*
X387930Y-62343D02*
X388730Y-61543D01*
X42741Y-61624D02*
X43046Y-61319D01*
X41510Y-61624D02*
X42741D01*
X41206Y-61319D02*
X41510Y-61624D01*
X39062Y-61319D02*
X41206D01*
X536021D02*
X712992D01*
X535453Y-61887D02*
X536021Y-61319D01*
X531476Y-61887D02*
X535453D01*
X530577Y-60987D02*
X531476Y-61887D01*
X530577Y-60987D02*
X530577D01*
X530159Y-61405D02*
X530577Y-60987D01*
X467183Y-61405D02*
X530159D01*
X466751Y-61836D02*
X467183Y-61405D01*
X440297Y-61836D02*
X466751D01*
X440004Y-61543D02*
X440297Y-61836D01*
X435974Y-61543D02*
X440004D01*
X435681Y-61836D02*
X435974Y-61543D01*
X396990Y-61836D02*
X435681D01*
X396697Y-61543D02*
X396990Y-61836D01*
X388730Y-61543D02*
X396697D01*
X34646Y-56902D02*
X39062Y-61319D01*
X649632Y-57946D02*
Y-17479D01*
X648226Y-59352D02*
X649632Y-57946D01*
X618813Y-59352D02*
X648226D01*
X617804Y-58343D02*
X618813Y-59352D01*
X616441Y-58343D02*
X617804D01*
X615779Y-59005D02*
X616441Y-58343D01*
X577127Y-59005D02*
X615779D01*
X576466Y-58343D02*
X577127Y-59005D01*
X567228Y-58343D02*
X576466D01*
X566567Y-59005D02*
X567228Y-58343D01*
X536072Y-59005D02*
X566567D01*
X534790Y-60287D02*
X536072Y-59005D01*
X532139Y-60287D02*
X534790D01*
X530996Y-59143D02*
X532139Y-60287D01*
X530158Y-59143D02*
X530996D01*
X529497Y-59805D02*
X530158Y-59143D01*
X466560Y-59805D02*
X529497D01*
X466540Y-59785D02*
X466560Y-59805D01*
X466540Y-59785D02*
X466540D01*
X466089Y-60236D02*
X466540Y-59785D01*
X440959Y-60236D02*
X466089D01*
X440666Y-59943D02*
X440959Y-60236D01*
X435312Y-59943D02*
X440666D01*
X435018Y-60236D02*
X435312Y-59943D01*
X397652Y-60236D02*
X435018D01*
X397359Y-59943D02*
X397652Y-60236D01*
X388068Y-59943D02*
X397359D01*
X648832Y-57615D02*
Y-17148D01*
X647894Y-58552D02*
X648832Y-57615D01*
X619144Y-58552D02*
X647894D01*
X618135Y-57543D02*
X619144Y-58552D01*
X616110Y-57543D02*
X618135D01*
X615448Y-58205D02*
X616110Y-57543D01*
X577458Y-58205D02*
X615448D01*
X576797Y-57543D02*
X577458Y-58205D01*
X566897Y-57543D02*
X576797D01*
X566235Y-58205D02*
X566897Y-57543D01*
X535740Y-58205D02*
X566235D01*
X534459Y-59487D02*
X535740Y-58205D01*
X532471Y-59487D02*
X534459D01*
X531327Y-58343D02*
X532471Y-59487D01*
X529827Y-58343D02*
X531327D01*
X529165Y-59005D02*
X529827Y-58343D01*
X466891Y-59005D02*
X529165D01*
X466540Y-58654D02*
X466891Y-59005D01*
X466540Y-58654D02*
X466540D01*
X465757Y-59436D02*
X466540Y-58654D01*
X441291Y-59436D02*
X465757D01*
X440998Y-59143D02*
X441291Y-59436D01*
X434980Y-59143D02*
X440998D01*
X434687Y-59436D02*
X434980Y-59143D01*
X397984Y-59436D02*
X434687D01*
X397691Y-59143D02*
X397984Y-59436D01*
X387736Y-59143D02*
X397691D01*
X51083Y-53543D02*
X54283Y-56743D01*
X648032Y-57284D02*
Y-8268D01*
X647563Y-57752D02*
X648032Y-57284D01*
X646900Y-57752D02*
X647563D01*
X646553Y-57405D02*
X646900Y-57752D01*
X619128Y-57405D02*
X646553D01*
X618467Y-56743D02*
X619128Y-57405D01*
X615778Y-56743D02*
X618467D01*
X615117Y-57405D02*
X615778Y-56743D01*
X577790Y-57405D02*
X615117D01*
X577128Y-56743D02*
X577790Y-57405D01*
X566566Y-56743D02*
X577128D01*
X565904Y-57405D02*
X566566Y-56743D01*
X535409Y-57405D02*
X565904D01*
X534127Y-58687D02*
X535409Y-57405D01*
X532802Y-58687D02*
X534127D01*
X531659Y-57543D02*
X532802Y-58687D01*
X529495Y-57543D02*
X531659D01*
X528834Y-58205D02*
X529495Y-57543D01*
X467222Y-58205D02*
X528834D01*
X466561Y-57543D02*
X467222Y-58205D01*
X466519Y-57543D02*
X466561D01*
X465426Y-58636D02*
X466519Y-57543D01*
X441622Y-58636D02*
X465426D01*
X441329Y-58343D02*
X441622Y-58636D01*
X434649Y-58343D02*
X441329D01*
X434356Y-58636D02*
X434649Y-58343D01*
X398315Y-58636D02*
X434356D01*
X398022Y-58343D02*
X398315Y-58636D01*
X387405Y-58343D02*
X398022D01*
X647231Y-56952D02*
Y-18110D01*
X646884Y-56605D02*
X647231Y-56952D01*
X619460Y-56605D02*
X646884D01*
X618798Y-55943D02*
X619460Y-56605D01*
X615447Y-55943D02*
X618798D01*
X614785Y-56605D02*
X615447Y-55943D01*
X578121Y-56605D02*
X614785D01*
X577460Y-55943D02*
X578121Y-56605D01*
X566234Y-55943D02*
X577460D01*
X565573Y-56605D02*
X566234Y-55943D01*
X535078Y-56605D02*
X565573D01*
X533796Y-57887D02*
X535078Y-56605D01*
X533133Y-57887D02*
X533796D01*
X531990Y-56743D02*
X533133Y-57887D01*
X529164Y-56743D02*
X531990D01*
X528503Y-57405D02*
X529164Y-56743D01*
X467554Y-57405D02*
X528503D01*
X466892Y-56743D02*
X467554Y-57405D01*
X466188Y-56743D02*
X466892D01*
X465095Y-57836D02*
X466188Y-56743D01*
X441954Y-57836D02*
X465095D01*
X441660Y-57543D02*
X441954Y-57836D01*
X434317Y-57543D02*
X441660D01*
X434024Y-57836D02*
X434317Y-57543D01*
X398646Y-57836D02*
X434024D01*
X398354Y-57543D02*
X398646Y-57836D01*
X387073Y-57543D02*
X398354D01*
X533465Y-57087D02*
Y-32677D01*
X532321Y-55943D02*
X533465Y-57087D01*
X528833Y-55943D02*
X532321D01*
X528171Y-56605D02*
X528833Y-55943D01*
X467885Y-56605D02*
X528171D01*
X467224Y-55943D02*
X467885Y-56605D01*
X465856Y-55943D02*
X467224D01*
X464763Y-57036D02*
X465856Y-55943D01*
X442285Y-57036D02*
X464763D01*
X441992Y-56743D02*
X442285Y-57036D01*
X433986Y-56743D02*
X441992D01*
X433693Y-57036D02*
X433986Y-56743D01*
X398978Y-57036D02*
X433693D01*
X398685Y-56743D02*
X398978Y-57036D01*
X386742Y-56743D02*
X398685D01*
X464432Y-56236D02*
X470104Y-50564D01*
X442616Y-56236D02*
X464432D01*
X442323Y-55943D02*
X442616Y-56236D01*
X433655Y-55943D02*
X442323D01*
X433362Y-56236D02*
X433655Y-55943D01*
X399309Y-56236D02*
X433362D01*
X399016Y-55943D02*
X399309Y-56236D01*
X386411Y-55943D02*
X399016D01*
X386118Y-56236D02*
X386411Y-55943D01*
X354034Y-56236D02*
X386118D01*
X353917Y-56120D02*
X354034Y-56236D01*
X353917Y-56120D02*
X353917D01*
X464101Y-55436D02*
X469304Y-50233D01*
X442948Y-55436D02*
X464101D01*
X442655Y-55143D02*
X442948Y-55436D01*
X433323Y-55143D02*
X442655D01*
X433030Y-55436D02*
X433323Y-55143D01*
X399641Y-55436D02*
X433030D01*
X399348Y-55143D02*
X399641Y-55436D01*
X386079Y-55143D02*
X399348D01*
X385786Y-55436D02*
X386079Y-55143D01*
X354365Y-55436D02*
X385786D01*
X354072Y-55143D02*
X354365Y-55436D01*
X353763Y-55143D02*
X354072D01*
X463769Y-54636D02*
X468504Y-49902D01*
X460995Y-54636D02*
X463769D01*
X460703Y-54343D02*
X460995Y-54636D01*
X460551Y-54343D02*
X460703D01*
X460258Y-54636D02*
X460551Y-54343D01*
X459027Y-54636D02*
X460258D01*
X458734Y-54343D02*
X459027Y-54636D01*
X458582Y-54343D02*
X458734D01*
X458289Y-54636D02*
X458582Y-54343D01*
X457058Y-54636D02*
X458289D01*
X456766Y-54343D02*
X457058Y-54636D01*
X456614Y-54343D02*
X456766D01*
X456321Y-54636D02*
X456614Y-54343D01*
X455090Y-54636D02*
X456321D01*
X454797Y-54343D02*
X455090Y-54636D01*
X454645Y-54343D02*
X454797D01*
X454352Y-54636D02*
X454645Y-54343D01*
X453122Y-54636D02*
X454352D01*
X452829Y-54343D02*
X453122Y-54636D01*
X452677Y-54343D02*
X452829D01*
X452384Y-54636D02*
X452677Y-54343D01*
X451153Y-54636D02*
X452384D01*
X450860Y-54343D02*
X451153Y-54636D01*
X450708Y-54343D02*
X450860D01*
X450415Y-54636D02*
X450708Y-54343D01*
X449185Y-54636D02*
X450415D01*
X448891Y-54343D02*
X449185Y-54636D01*
X448740Y-54343D02*
X448891D01*
X448447Y-54636D02*
X448740Y-54343D01*
X447216Y-54636D02*
X448447D01*
X446923Y-54343D02*
X447216Y-54636D01*
X446771Y-54343D02*
X446923D01*
X446478Y-54636D02*
X446771Y-54343D01*
X445248Y-54636D02*
X446478D01*
X444954Y-54343D02*
X445248Y-54636D01*
X444803Y-54343D02*
X444954D01*
X444510Y-54636D02*
X444803Y-54343D01*
X443279Y-54636D02*
X444510D01*
X442986Y-54343D02*
X443279Y-54636D01*
X432992Y-54343D02*
X442986D01*
X432699Y-54636D02*
X432992Y-54343D01*
X431468Y-54636D02*
X432699D01*
X431175Y-54343D02*
X431468Y-54636D01*
X431024Y-54343D02*
X431175D01*
X430730Y-54636D02*
X431024Y-54343D01*
X429499Y-54636D02*
X430730D01*
X429207Y-54343D02*
X429499Y-54636D01*
X429055Y-54343D02*
X429207D01*
X428762Y-54636D02*
X429055Y-54343D01*
X427531Y-54636D02*
X428762D01*
X427238Y-54343D02*
X427531Y-54636D01*
X427086Y-54343D02*
X427238D01*
X426793Y-54636D02*
X427086Y-54343D01*
X425562Y-54636D02*
X426793D01*
X425270Y-54343D02*
X425562Y-54636D01*
X425118Y-54343D02*
X425270D01*
X424825Y-54636D02*
X425118Y-54343D01*
X423594Y-54636D02*
X424825D01*
X423301Y-54343D02*
X423594Y-54636D01*
X423149Y-54343D02*
X423301D01*
X422856Y-54636D02*
X423149Y-54343D01*
X421626Y-54636D02*
X422856D01*
X421333Y-54343D02*
X421626Y-54636D01*
X421181Y-54343D02*
X421333D01*
X420888Y-54636D02*
X421181Y-54343D01*
X419657Y-54636D02*
X420888D01*
X419364Y-54343D02*
X419657Y-54636D01*
X419212Y-54343D02*
X419364D01*
X418919Y-54636D02*
X419212Y-54343D01*
X417689Y-54636D02*
X418919D01*
X417395Y-54343D02*
X417689Y-54636D01*
X417244Y-54343D02*
X417395D01*
X416951Y-54636D02*
X417244Y-54343D01*
X415720Y-54636D02*
X416951D01*
X415427Y-54343D02*
X415720Y-54636D01*
X415275Y-54343D02*
X415427D01*
X414982Y-54636D02*
X415275Y-54343D01*
X413752Y-54636D02*
X414982D01*
X413458Y-54343D02*
X413752Y-54636D01*
X413307Y-54343D02*
X413458D01*
X413014Y-54636D02*
X413307Y-54343D01*
X411783Y-54636D02*
X413014D01*
X411490Y-54343D02*
X411783Y-54636D01*
X411339Y-54343D02*
X411490D01*
X411045Y-54636D02*
X411339Y-54343D01*
X409815Y-54636D02*
X411045D01*
X409521Y-54343D02*
X409815Y-54636D01*
X409370Y-54343D02*
X409521D01*
X409077Y-54636D02*
X409370Y-54343D01*
X407846Y-54636D02*
X409077D01*
X407553Y-54343D02*
X407846Y-54636D01*
X407402Y-54343D02*
X407553D01*
X407108Y-54636D02*
X407402Y-54343D01*
X405877Y-54636D02*
X407108D01*
X405584Y-54343D02*
X405877Y-54636D01*
X405433Y-54343D02*
X405584D01*
X405140Y-54636D02*
X405433Y-54343D01*
X403909Y-54636D02*
X405140D01*
X403616Y-54343D02*
X403909Y-54636D01*
X403465Y-54343D02*
X403616D01*
X403171Y-54636D02*
X403465Y-54343D01*
X401940Y-54636D02*
X403171D01*
X401648Y-54343D02*
X401940Y-54636D01*
X401496Y-54343D02*
X401648D01*
X401203Y-54636D02*
X401496Y-54343D01*
X399972Y-54636D02*
X401203D01*
X399679Y-54343D02*
X399972Y-54636D01*
X385748Y-54343D02*
X399679D01*
X385455Y-54636D02*
X385748Y-54343D01*
X384224Y-54636D02*
X385455D01*
X383931Y-54343D02*
X384224Y-54636D01*
X383780Y-54343D02*
X383931D01*
X383486Y-54636D02*
X383780Y-54343D01*
X382256Y-54636D02*
X383486D01*
X381962Y-54343D02*
X382256Y-54636D01*
X381811Y-54343D02*
X381962D01*
X381518Y-54636D02*
X381811Y-54343D01*
X380287Y-54636D02*
X381518D01*
X379994Y-54343D02*
X380287Y-54636D01*
X379842Y-54343D02*
X379994D01*
X379549Y-54636D02*
X379842Y-54343D01*
X378319Y-54636D02*
X379549D01*
X378026Y-54343D02*
X378319Y-54636D01*
X377874Y-54343D02*
X378026D01*
X377581Y-54636D02*
X377874Y-54343D01*
X376350Y-54636D02*
X377581D01*
X376057Y-54343D02*
X376350Y-54636D01*
X375905Y-54343D02*
X376057D01*
X375612Y-54636D02*
X375905Y-54343D01*
X374381Y-54636D02*
X375612D01*
X374089Y-54343D02*
X374381Y-54636D01*
X373937Y-54343D02*
X374089D01*
X373644Y-54636D02*
X373937Y-54343D01*
X372413Y-54636D02*
X373644D01*
X372120Y-54343D02*
X372413Y-54636D01*
X371969Y-54343D02*
X372120D01*
X371675Y-54636D02*
X371969Y-54343D01*
X370444Y-54636D02*
X371675D01*
X370151Y-54343D02*
X370444Y-54636D01*
X370000Y-54343D02*
X370151D01*
X369707Y-54636D02*
X370000Y-54343D01*
X368476Y-54636D02*
X369707D01*
X368183Y-54343D02*
X368476Y-54636D01*
X368032Y-54343D02*
X368183D01*
X367738Y-54636D02*
X368032Y-54343D01*
X366508Y-54636D02*
X367738D01*
X366214Y-54343D02*
X366508Y-54636D01*
X366063Y-54343D02*
X366214D01*
X365770Y-54636D02*
X366063Y-54343D01*
X364539Y-54636D02*
X365770D01*
X364246Y-54343D02*
X364539Y-54636D01*
X364094Y-54343D02*
X364246D01*
X363801Y-54636D02*
X364094Y-54343D01*
X362571Y-54636D02*
X363801D01*
X362278Y-54343D02*
X362571Y-54636D01*
X362126Y-54343D02*
X362278D01*
X361833Y-54636D02*
X362126Y-54343D01*
X360602Y-54636D02*
X361833D01*
X360309Y-54343D02*
X360602Y-54636D01*
X360157Y-54343D02*
X360309D01*
X359864Y-54636D02*
X360157Y-54343D01*
X358633Y-54636D02*
X359864D01*
X358341Y-54343D02*
X358633Y-54636D01*
X358189Y-54343D02*
X358341D01*
X357896Y-54636D02*
X358189Y-54343D01*
X356665Y-54636D02*
X357896D01*
X356372Y-54343D02*
X356665Y-54636D01*
X356221Y-54343D02*
X356372D01*
X355927Y-54636D02*
X356221Y-54343D01*
X354696Y-54636D02*
X355927D01*
X354403Y-54343D02*
X354696Y-54636D01*
X353431Y-54343D02*
X354403D01*
X464124Y-53150D02*
X467704Y-49570D01*
X463712Y-53150D02*
X464124D01*
X462226Y-51665D02*
X463712Y-53150D01*
X443279Y-51665D02*
X462226D01*
X441793Y-53150D02*
X443279Y-51665D01*
X434185Y-53150D02*
X441793D01*
X432699Y-51665D02*
X434185Y-53150D01*
X398486D02*
X399972Y-51665D01*
X386941Y-53150D02*
X398486D01*
X385455Y-51665D02*
X386941Y-53150D01*
X354696Y-51665D02*
X385455D01*
X353826Y-52535D02*
X354696Y-51665D01*
X353826Y-52817D02*
Y-52535D01*
X352300Y-54343D02*
X353826Y-52817D01*
X351969Y-53543D02*
X353026Y-52486D01*
X650431Y-58278D02*
Y-17810D01*
X648557Y-60152D02*
X650431Y-58278D01*
X618481Y-60152D02*
X648557D01*
X617473Y-59143D02*
X618481Y-60152D01*
X616772Y-59143D02*
X617473D01*
X616111Y-59805D02*
X616772Y-59143D01*
X576796Y-59805D02*
X616111D01*
X576134Y-59143D02*
X576796Y-59805D01*
X567560Y-59143D02*
X576134D01*
X566898Y-59805D02*
X567560Y-59143D01*
X536403Y-59805D02*
X566898D01*
X535121Y-61087D02*
X536403Y-59805D01*
X531808Y-61087D02*
X535121D01*
X530664Y-59943D02*
X531808Y-61087D01*
X530490Y-59943D02*
X530664D01*
X529828Y-60605D02*
X530490Y-59943D01*
X466852Y-60605D02*
X529828D01*
X466420Y-61036D02*
X466852Y-60605D01*
X440628Y-61036D02*
X466420D01*
X440335Y-60743D02*
X440628Y-61036D01*
X435643Y-60743D02*
X440335D01*
X435350Y-61036D02*
X435643Y-60743D01*
X397321Y-61036D02*
X435350D01*
X397028Y-60743D02*
X397321Y-61036D01*
X388399Y-60743D02*
X397028D01*
X51625Y-60138D02*
X53016Y-58746D01*
X41437Y-48819D02*
X50564Y-57946D01*
X353937Y-51293D02*
Y-32677D01*
X353026Y-52204D02*
X353937Y-51293D01*
X353026Y-52486D02*
Y-52204D01*
X438717Y13386D02*
X505662D01*
X505896Y13620D01*
Y14493D01*
X730315Y16146D02*
Y65748D01*
X726968Y12798D02*
X730315Y16146D01*
X691323Y12798D02*
X726968D01*
X707480Y88583D02*
X730315Y65748D01*
X688971Y10446D02*
X691323Y12798D01*
X684510Y10446D02*
X688971D01*
X710628Y-32677D02*
X712992D01*
X709447Y-31497D02*
X710628Y-32677D01*
X709447Y-31497D02*
Y-16928D01*
X706693Y-14173D02*
X709447Y-16928D01*
X712992Y-61319D02*
Y-32677D01*
X680043Y5979D02*
X684510Y10446D01*
X674221Y5979D02*
X680043D01*
X650431Y-17810D02*
X674221Y5979D01*
X673889Y6779D02*
X679712D01*
X687008Y14075D01*
X676575Y7579D02*
X677264Y8268D01*
X673558Y7579D02*
X676575D01*
X649632Y-17479D02*
X673889Y6779D01*
X648832Y-17148D02*
X673558Y7579D01*
X643196Y-14075D02*
X647231Y-18110D01*
X638189Y-14075D02*
X643196D01*
X612687Y15265D02*
X616365D01*
X612205Y15748D02*
X612687Y15265D01*
X612205Y15748D02*
Y32677D01*
X616365Y15265D02*
X618244Y13386D01*
X668504D01*
X434834Y15265D02*
X436837D01*
X432677Y17423D02*
X434834Y15265D01*
X436837D02*
X438717Y13386D01*
X432677Y17423D02*
Y32677D01*
X507997Y15364D02*
X511217Y12144D01*
X506766Y15364D02*
X507997D01*
X505896Y14493D02*
X506766Y15364D01*
X511217Y-12220D02*
Y12144D01*
X528434Y-14395D02*
Y-13280D01*
X527953Y-12798D02*
X528434Y-13280D01*
X511796Y-12798D02*
X527953D01*
X533465Y-32677D02*
Y-16535D01*
X532195Y-15265D02*
X533465Y-16535D01*
X529304Y-15265D02*
X532195D01*
X528434Y-14395D02*
X529304Y-15265D01*
X511217Y-12220D02*
X511796Y-12798D01*
X498937Y5433D02*
X507382Y13878D01*
X493179Y5433D02*
X498937D01*
X470104Y-17642D02*
X493179Y5433D01*
X470104Y-50564D02*
Y-17642D01*
X494882Y8268D02*
X497638D01*
X469304Y-17310D02*
X494882Y8268D01*
X469304Y-50233D02*
Y-17310D01*
X467704Y-49570D02*
Y-19279D01*
X462500Y-14075D02*
X467704Y-19279D01*
X458661Y-14075D02*
X462500D01*
X291381Y12414D02*
X315194D01*
X290576Y13219D02*
X291381Y12414D01*
X290576Y13219D02*
Y56371D01*
X325999Y12220D02*
X327953Y14173D01*
X315388Y12220D02*
X325999D01*
X315194Y12414D02*
X315388Y12220D01*
X286040Y60908D02*
X290576Y56371D01*
X58053Y60908D02*
X286040D01*
X314862Y11614D02*
X318110Y8366D01*
X291050Y11614D02*
X314862D01*
X289776Y12888D02*
X291050Y11614D01*
X289776Y12888D02*
Y56040D01*
X285708Y60108D02*
X289776Y56040D01*
X58385Y60108D02*
X285708D01*
X275397Y-12341D02*
X278715Y-15659D01*
X275397Y-12341D02*
Y12220D01*
X254417Y15265D02*
X257310D01*
X253150Y16533D02*
X254417Y15265D01*
X253150Y16533D02*
Y32677D01*
X258180Y13472D02*
X258854Y12798D01*
X258180Y13472D02*
Y14395D01*
X257310Y15265D02*
X258180Y14395D01*
X274818Y12798D02*
X275397Y12220D01*
X258854Y12798D02*
X274818D01*
X288176Y-5328D02*
Y55377D01*
X285046Y58508D02*
X288176Y55377D01*
X59048Y58508D02*
X285046D01*
X279331Y-14173D02*
X288176Y-5328D01*
X-38887Y27194D02*
X-38167Y27914D01*
Y31752D01*
X-10267Y-33071D02*
X-7480D01*
X139383Y16917D02*
Y51906D01*
X133581Y57708D02*
X139383Y51906D01*
X59379Y57708D02*
X133581D01*
X142224Y14075D02*
X148425D01*
X139383Y16917D02*
X142224Y14075D01*
X113853Y-6782D02*
X116294D01*
X112367Y-8268D02*
X113853Y-6782D01*
X109449Y-8268D02*
X112367D01*
X116294Y-6782D02*
X137783Y14707D01*
Y51243D01*
X132918Y56108D02*
X137783Y51243D01*
X60042Y56108D02*
X132918D01*
X-50000Y-45079D02*
X-42849D01*
X-62401Y-32677D02*
X-50000Y-45079D01*
X-73622Y-32677D02*
X-62401D01*
X-73622D02*
Y-17750D01*
X-76018Y-15354D02*
X-73622Y-17750D01*
X-148952Y-15354D02*
X-76018D01*
X-173927Y15265D02*
X-170249D01*
X-174409Y15748D02*
X-173927Y15265D01*
X-174409Y15748D02*
Y32677D01*
X-169379Y13866D02*
X-168311Y12798D01*
X-169379Y13866D02*
Y14395D01*
X-168311Y12798D02*
X-152741D01*
X-170249Y15265D02*
X-169379Y14395D01*
X-152162Y-3351D02*
X-150689Y-4824D01*
X-152162Y-3351D02*
Y12220D01*
X-152741Y12798D02*
X-152162Y12220D01*
X-150689Y-13617D02*
Y-4824D01*
X-125616Y9030D02*
Y55449D01*
X-148425Y-13780D02*
X-125616Y9030D01*
X-138583Y-8268D02*
X-124816Y5499D01*
X-122848Y58217D02*
X-49407D01*
X-125616Y55449D02*
X-122848Y58217D01*
X-122517Y57417D02*
X-49738D01*
X-124816Y55118D02*
X-122517Y57417D01*
X-124816Y5499D02*
Y55118D01*
X-122185Y56617D02*
X-50069D01*
X-124016Y54787D02*
X-122185Y56617D01*
X-124016Y18110D02*
Y54787D01*
Y18110D02*
X-119980Y14075D01*
X-101581Y8268D02*
X-97050Y12798D01*
X-109448Y8268D02*
X-101581D01*
X-454924Y-12220D02*
X-451879Y-15265D01*
X-97050Y12798D02*
X-62977D01*
X-62398Y12220D01*
Y-5712D02*
Y12220D01*
Y-5712D02*
X-51575Y-16535D01*
X-451879Y-15265D02*
X-434736D01*
X-119980Y14075D02*
X-99606D01*
X-284339Y59017D02*
X-49075D01*
X-284671Y59817D02*
X-48744D01*
X-285002Y60617D02*
X-48413D01*
X-285334Y61417D02*
X-48081D01*
X-285665Y62217D02*
X-47750D01*
X-302350Y41007D02*
X-284339Y59017D01*
X-303150Y41339D02*
X-284671Y59817D01*
X-303950Y41670D02*
X-285002Y60617D01*
X-304750Y42001D02*
X-285334Y61417D01*
X-305550Y42333D02*
X-285665Y62217D01*
X-331690Y11811D02*
Y12220D01*
Y-11750D02*
Y11811D01*
X-347310Y12798D02*
X-332268D01*
X-331690Y12220D01*
Y11811D02*
X-314124D01*
X-305550Y20385D01*
Y42333D01*
X-304750Y20053D02*
Y42001D01*
X-327559Y-2756D02*
X-304750Y20053D01*
X-327559Y-13780D02*
Y-2756D01*
X-303950Y19747D02*
Y41670D01*
Y19747D02*
X-303937Y19735D01*
Y19735D02*
Y19735D01*
X-318110Y5562D02*
X-303937Y19735D01*
X-318110Y-8268D02*
Y5562D01*
X-296113Y14173D02*
X-279134D01*
X-302350Y20410D02*
X-296113Y14173D01*
X-302350Y20410D02*
Y41007D01*
X-291339Y8268D02*
X-288976D01*
X-303150Y20079D02*
X-291339Y8268D01*
X-303150Y20079D02*
Y41339D01*
X-351881Y15265D02*
X-349777D01*
X-353937Y17322D02*
X-351881Y15265D01*
X-353937Y17322D02*
Y32677D01*
X-349777Y15265D02*
X-347310Y12798D01*
X-42277Y-46139D02*
X-42043Y-46374D01*
X-395669Y-52756D02*
Y-35433D01*
X-398425Y-32677D02*
X-395669Y-35433D01*
X-432677Y-32677D02*
X-398425D01*
X-395669Y-52756D02*
X-393617Y-54808D01*
X-74837D01*
X-454924Y-12220D02*
Y12439D01*
X-458046Y15561D02*
X-454924Y12439D01*
X-434736Y-15265D02*
X-432677Y-17324D01*
Y-32677D02*
Y-17324D01*
X-477411Y-55608D02*
X-74506D01*
X-482652Y-50367D02*
X-477411Y-55608D01*
X-482652Y-50367D02*
Y-9916D01*
X-458661Y14075D01*
X-483452Y-6680D02*
X-468504Y8268D01*
X-483452Y-50699D02*
Y-6680D01*
Y-50699D02*
X-477743Y-56408D01*
X-74174D01*
X-478405Y-58008D02*
X-68932D01*
X-485052Y-51361D02*
X-478405Y-58008D01*
X-485052Y-51361D02*
Y-21985D01*
X-492864Y-14173D02*
X-485052Y-21985D01*
X-507480Y-14173D02*
X-492864D01*
X-74837Y-54808D02*
X-68343Y-48314D01*
X-74506Y-55608D02*
X-68012Y-49114D01*
X-74174Y-56408D02*
X-67680Y-49914D01*
X-69263Y-57208D02*
X-63288Y-51232D01*
X-478074Y-57208D02*
X-69263D01*
X-484252Y-51030D02*
X-478074Y-57208D01*
X-68932Y-58008D02*
X-62956Y-52032D01*
X-497638Y-8268D02*
X-484252Y-21654D01*
Y-51030D02*
Y-21654D01*
X-574803Y-55880D02*
Y-34646D01*
X-576772Y-32677D02*
X-574803Y-34646D01*
X-612205Y-32677D02*
X-576772D01*
X-574803Y-55880D02*
X-571876Y-58808D01*
X-68601D01*
X-62625Y-52832D01*
X-636703Y13869D02*
X-634452Y11617D01*
X-618994Y-12798D02*
X-612205Y-19588D01*
X-633874Y-12798D02*
X-618994D01*
X-634452Y-12220D02*
X-633874Y-12798D01*
X-634452Y-12220D02*
Y11617D01*
X-612205Y-32677D02*
Y-19588D01*
X-68269Y-59608D02*
X-62294Y-53632D01*
X-659364Y-59608D02*
X-68269D01*
X-661786Y-57186D02*
X-659364Y-59608D01*
X-661786Y-57186D02*
Y-9817D01*
X-638189Y13780D01*
X-662586Y-6286D02*
X-648032Y8268D01*
X-662586Y-57517D02*
Y-6286D01*
Y-57517D02*
X-659695Y-60408D01*
X-65551D02*
X-61286Y-56143D01*
X-659695Y-60408D02*
X-65551D01*
X-687008Y-14173D02*
X-672392D01*
X-664186Y-22379D01*
X-660358Y-62008D02*
X-19685D01*
X-664186Y-58180D02*
X-660358Y-62008D01*
X-664186Y-58180D02*
Y-22379D01*
X-660027Y-61208D02*
X-61208D01*
X-58268Y-58268D01*
X-663386Y-57849D02*
X-660027Y-61208D01*
X-677165Y-8268D02*
X-663386Y-22048D01*
Y-57849D02*
Y-22048D01*
X14272Y-12008D02*
X16250Y-13986D01*
X38983Y-30455D02*
X45791Y-37262D01*
X37935Y-30455D02*
X38983D01*
X37795Y-30315D02*
X37935Y-30455D01*
X34646Y-56902D02*
Y-30315D01*
X42126Y-60138D02*
X51625D01*
X40945Y-30315D02*
X50557D01*
X51871Y-31629D01*
X336919Y-15659D02*
X353937Y-32677D01*
X66361Y-30829D02*
X68405Y-32874D01*
X52203Y-30829D02*
X66361D01*
X56979Y-30029D02*
X61220Y-25787D01*
X50433Y-27928D02*
X52534Y-30029D01*
X47268Y-27928D02*
X50433D01*
X50101Y-28728D02*
X52203Y-30829D01*
X46936Y-28728D02*
X50101D01*
X52534Y-30029D02*
X56979D01*
X32526Y-13186D02*
X47268Y-27928D01*
X32195Y-13986D02*
X46936Y-28728D01*
X50739Y-14617D02*
X52165Y-16043D01*
X51539Y-13316D02*
X53651Y-15428D01*
X51539Y-13316D02*
Y48737D01*
X53651Y-16659D02*
Y-15428D01*
X53642Y-18602D02*
Y-16668D01*
X49939Y-18837D02*
X51181Y-20079D01*
X53642Y-16668D02*
X53651Y-16659D01*
X61220Y20276D02*
X73622Y32677D01*
X61220Y-25787D02*
Y20276D01*
X25723Y-13186D02*
X32526D01*
X25038Y-12500D02*
X25723Y-13186D01*
X24803Y-12500D02*
X25038D01*
X16250Y-13986D02*
X32195D01*
X76378Y32677D02*
X102362Y6693D01*
X73622Y32677D02*
X76378D01*
X111811Y-12992D02*
X154724D01*
X102362Y-3543D02*
X111811Y-12992D01*
X102362Y-3543D02*
Y6693D01*
X154724Y-12992D02*
X174409Y-32677D01*
X278715Y-15659D02*
X336919D01*
X52339Y-10902D02*
X53937Y-12500D01*
X52339Y-10902D02*
Y48406D01*
X60042Y56108D01*
X138583Y7972D02*
Y51575D01*
X133250Y56908D02*
X138583Y51575D01*
X59710Y56908D02*
X133250D01*
X51539Y48737D02*
X59710Y56908D01*
X58716Y59308D02*
X285377D01*
X49139Y-20400D02*
Y49731D01*
X50739Y49068D02*
X59379Y57708D01*
X49139Y49731D02*
X58716Y59308D01*
X47539Y50394D02*
X58053Y60908D01*
X50739Y-14617D02*
Y49068D01*
X48339Y-20732D02*
Y50062D01*
X49939Y-18837D02*
Y49400D01*
X48339Y50062D02*
X58385Y60108D01*
X47539Y-21063D02*
Y50394D01*
X285377Y59308D02*
X288976Y55709D01*
X49939Y49400D02*
X59048Y58508D01*
X48339Y-20732D02*
X50925Y-23317D01*
X47539Y-21063D02*
X51279Y-24803D01*
X49139Y-20400D02*
X50885Y-22146D01*
X288976Y-8268D02*
Y55709D01*
X50885Y-22146D02*
X53150D01*
X52765Y-28159D02*
X53150Y-28543D01*
X50925Y-23317D02*
X51895D01*
X52765Y-24188D01*
Y-28159D02*
Y-24188D01*
X468504Y-49902D02*
Y-8169D01*
X-35738Y-44872D02*
X-35531Y-45079D01*
X-42643Y-44872D02*
X-35738D01*
X-42849Y-45079D02*
X-42643Y-44872D01*
X-150689Y-13617D02*
X-148952Y-15354D01*
X-270561Y-15265D02*
X-253150Y-32677D01*
X-328174Y-15265D02*
X-270561D01*
X-331690Y-11750D02*
X-328174Y-15265D01*
X-53470Y-46139D02*
X-42277D01*
X-42043Y-46374D02*
X-42028Y-46358D01*
X-55645Y-48314D02*
X-53470Y-46139D01*
X-68343Y-48314D02*
X-55645D01*
X-516348Y15561D02*
X-458046D01*
X-533465Y32677D02*
X-516348Y15561D01*
X-52350Y-52743D02*
X-51181Y-51575D01*
X-53129Y-52743D02*
X-52350D01*
X-54640Y-51232D02*
X-53129Y-52743D01*
X-63288Y-51232D02*
X-54640D01*
X-54971Y-52032D02*
X-53460Y-53543D01*
X-62956Y-52032D02*
X-54971D01*
X-44094Y-55315D02*
X-40354Y-59055D01*
X-52820Y-55315D02*
X-44094D01*
X-55303Y-52832D02*
X-52820Y-55315D01*
X-62625Y-52832D02*
X-55303D01*
X-53460Y-53543D02*
X-42520D01*
X-54983Y-49914D02*
X-53494Y-48425D01*
X-67680Y-49914D02*
X-54983D01*
X-55314Y-49114D02*
X-53139Y-46939D01*
X-68012Y-49114D02*
X-55314D01*
X-53139Y-46939D02*
X-45187D01*
X-56604Y-53632D02*
X-55118Y-55118D01*
X-62294Y-53632D02*
X-56604D01*
X-61286Y-55380D02*
X-61023Y-55118D01*
X-58268Y-58268D02*
Y-55118D01*
X-61286Y-56143D02*
Y-55380D01*
X-636703Y13869D02*
Y14395D01*
X-637761Y15453D02*
X-636703Y14395D01*
X-695768Y15453D02*
X-637761D01*
X-712992Y32677D02*
X-695768Y15453D01*
X-53239Y-36309D02*
X-51220D01*
X-54724Y-37795D02*
X-53239Y-36309D01*
X-53937Y-35433D02*
X-51475D01*
X-51575Y-33071D02*
X-50319D01*
X-51575Y-29921D02*
X-48300D01*
X-54724Y-34646D02*
X-53937Y-35433D01*
X-45187Y-46939D02*
X-42520Y-49606D01*
X-53494Y-48425D02*
X-51181D01*
D46*
X677193Y56390D02*
X679712D01*
X53150Y62008D02*
X643213D01*
X649816Y55405D01*
X48228Y57087D02*
X53150Y62008D01*
X676208Y55405D02*
X677193Y56390D01*
X649816Y55405D02*
X676208D01*
X707480Y-122047D02*
Y-88583D01*
Y88583D02*
Y122047D01*
X527953Y-122047D02*
Y-88583D01*
Y88583D02*
Y122047D01*
X348425Y-122047D02*
Y-88583D01*
Y88583D02*
Y122047D01*
X168898Y-122047D02*
Y-88583D01*
Y88583D02*
Y122047D01*
X-168898Y88583D02*
Y122047D01*
Y-122047D02*
Y-88583D01*
X-348425Y88583D02*
Y122047D01*
Y-122047D02*
Y-88583D01*
X-527953Y88583D02*
Y122047D01*
Y-122047D02*
Y-88583D01*
X-707480Y-122047D02*
Y-88583D01*
Y88583D02*
Y122047D01*
D48*
X-79134Y88583D02*
X79134D01*
X79134Y88583D01*
X706886Y-88583D02*
X706886Y-88583D01*
X617123Y-88583D02*
X706886D01*
X617717Y88583D02*
X617717Y88583D01*
X527953Y88583D02*
X617717D01*
X527953Y-88583D02*
X527953Y-88583D01*
X438189Y-88583D02*
X527953D01*
X438189Y88583D02*
X438189Y88583D01*
X348425Y88583D02*
X438189D01*
X348425Y-88583D02*
X348425Y-88583D01*
X258661Y-88583D02*
X348425D01*
X258661Y88583D02*
X258661Y88583D01*
X168898Y88583D02*
X258661D01*
X168898Y-88583D02*
X168898Y-88583D01*
X79134Y-88583D02*
X168898D01*
X-79134D02*
X-79134Y-88583D01*
X-168898Y-88583D02*
X-79134D01*
X-168898Y88583D02*
X-168898Y88583D01*
X-258661Y88583D02*
X-168898D01*
X-258661Y-88583D02*
X-258661Y-88583D01*
X-348425Y-88583D02*
X-258661D01*
X-348425Y88583D02*
X-348425Y88583D01*
X-438189Y88583D02*
X-348425D01*
X-438189Y-88583D02*
X-438189Y-88583D01*
X-527953Y-88583D02*
X-438189D01*
X-527953Y88583D02*
X-527953Y88583D01*
X-617717Y88583D02*
X-527953D01*
X-707480Y-88583D02*
X-617717D01*
X-617717Y-88583D01*
D49*
X-712992Y32677D02*
D03*
X712992Y-32677D02*
D03*
X612205Y32677D02*
D03*
X533465Y-32677D02*
D03*
X432677Y32677D02*
D03*
X353937Y-32677D02*
D03*
X253150Y32677D02*
D03*
X174409Y-32677D02*
D03*
X73622Y32677D02*
D03*
X-73622Y-32677D02*
D03*
X-174409Y32677D02*
D03*
X-253150Y-32677D02*
D03*
X-353937Y32677D02*
D03*
X-432677Y-32677D02*
D03*
X-533465Y32677D02*
D03*
X-612205Y-32677D02*
D03*
D51*
X-707480Y-119783D02*
D03*
X-697480Y-92047D02*
D03*
X-717480D02*
D03*
X-697480Y92047D02*
D03*
X-717480D02*
D03*
X-707480Y119783D02*
D03*
X707480Y119783D02*
D03*
X697480Y92047D02*
D03*
X717480D02*
D03*
X697480Y-92047D02*
D03*
X717480D02*
D03*
X707480Y-119783D02*
D03*
X627716Y-92047D02*
D03*
X607717D02*
D03*
X627716Y92047D02*
D03*
X607717D02*
D03*
X527953Y119783D02*
D03*
X517953Y92047D02*
D03*
X537953D02*
D03*
X517953Y-92047D02*
D03*
X537953D02*
D03*
X527953Y-119783D02*
D03*
X448189Y-92047D02*
D03*
X428189D02*
D03*
X448189Y92047D02*
D03*
X428189D02*
D03*
X348425Y119783D02*
D03*
X338425Y92047D02*
D03*
X358425D02*
D03*
X338425Y-92047D02*
D03*
X358425D02*
D03*
X348425Y-119783D02*
D03*
X268661Y-92047D02*
D03*
X248661D02*
D03*
X268661Y92047D02*
D03*
X248661D02*
D03*
X168898Y119783D02*
D03*
X158898Y92047D02*
D03*
X178898D02*
D03*
X158898Y-92047D02*
D03*
X178898D02*
D03*
X168898Y-119783D02*
D03*
X89134Y-92047D02*
D03*
X69134D02*
D03*
X89134Y92047D02*
D03*
X69134D02*
D03*
X-89134Y92047D02*
D03*
X-69134D02*
D03*
X-89134Y-92047D02*
D03*
X-69134D02*
D03*
X-168898Y-119783D02*
D03*
X-158898Y-92047D02*
D03*
X-178898D02*
D03*
X-158898Y92047D02*
D03*
X-178898D02*
D03*
X-168898Y119783D02*
D03*
X-268661Y92047D02*
D03*
X-248661D02*
D03*
X-268661Y-92047D02*
D03*
X-248661D02*
D03*
X-348425Y-119783D02*
D03*
X-338425Y-92047D02*
D03*
X-358425D02*
D03*
X-338425Y92047D02*
D03*
X-358425D02*
D03*
X-348425Y119783D02*
D03*
X-448189Y92047D02*
D03*
X-428189D02*
D03*
X-448189Y-92047D02*
D03*
X-428189D02*
D03*
X-527953Y-119783D02*
D03*
X-517953Y-92047D02*
D03*
X-537953D02*
D03*
X-517953Y92047D02*
D03*
X-537953D02*
D03*
X-527953Y119783D02*
D03*
X-627716Y92047D02*
D03*
X-607717D02*
D03*
X-627716Y-92047D02*
D03*
X-607717D02*
D03*
D52*
X679712Y56390D02*
D03*
X51181Y-44685D02*
D03*
Y-47539D02*
D03*
Y-39764D02*
D03*
X53543Y-41339D02*
D03*
X51181Y-36811D02*
D03*
X706693Y-14173D02*
D03*
X677264Y8268D02*
D03*
X-7480Y-33071D02*
D03*
X-38167Y31752D02*
D03*
X14272Y-12008D02*
D03*
X34646Y-30315D02*
D03*
X37795D02*
D03*
X40945D02*
D03*
X52165Y-16043D02*
D03*
X53642Y-18602D02*
D03*
X51181Y-20079D02*
D03*
X24803Y-12500D02*
D03*
X668504Y13386D02*
D03*
X68405Y-32874D02*
D03*
X53937Y-12500D02*
D03*
X109449Y-8268D02*
D03*
X138583Y7972D02*
D03*
X148425Y14075D02*
D03*
X279331Y-14173D02*
D03*
X53150Y-22146D02*
D03*
X51279Y-24803D02*
D03*
X53150Y-28543D02*
D03*
X288976Y-8268D02*
D03*
X318110Y8366D02*
D03*
X327953Y14173D02*
D03*
X53642Y-34941D02*
D03*
X458661Y-14075D02*
D03*
X468504Y-8169D02*
D03*
X497638Y8268D02*
D03*
X507382Y13878D02*
D03*
X638189Y-14075D02*
D03*
X648032Y-8268D02*
D03*
X41437Y-48819D02*
D03*
X687008Y14075D02*
D03*
X51083Y-53543D02*
D03*
X42126Y-60138D02*
D03*
X-35531Y-45079D02*
D03*
X-42028Y-43012D02*
D03*
Y-46358D02*
D03*
X-40354Y-59055D02*
D03*
X-19685Y-62008D02*
D03*
X-61023Y-55118D02*
D03*
X-58268D02*
D03*
X-55118Y-55118D02*
D03*
X-51575Y-33071D02*
D03*
Y-29921D02*
D03*
Y-37795D02*
D03*
X-54724Y-34646D02*
D03*
X-51575Y-16535D02*
D03*
X-109448Y8268D02*
D03*
X-99606Y14075D02*
D03*
X-51575Y-25984D02*
D03*
X-54068Y-27874D02*
D03*
X-138583Y-8268D02*
D03*
X-148425Y-13780D02*
D03*
X-288976Y8268D02*
D03*
X-279134Y14173D02*
D03*
X-54724Y-37795D02*
D03*
X-318110Y-8268D02*
D03*
X-327559Y-13780D02*
D03*
X-42520Y-49606D02*
D03*
X-458661Y14075D02*
D03*
X-468504Y8268D02*
D03*
X-51181Y-48425D02*
D03*
X-42520Y-53543D02*
D03*
X-507480Y-14173D02*
D03*
X-497638Y-8268D02*
D03*
X-51181Y-51575D02*
D03*
X-648032Y8268D02*
D03*
X-638189Y13780D02*
D03*
X-677165Y-8268D02*
D03*
X-687008Y-14173D02*
D03*
X48228Y57087D02*
D03*
D53*
X-35827Y0D02*
D03*
D54*
X-707480Y-88583D02*
D03*
Y88583D02*
D03*
X707480Y88583D02*
D03*
Y-88583D02*
D03*
X617717Y-88583D02*
D03*
Y88583D02*
D03*
X527953Y88583D02*
D03*
Y-88583D02*
D03*
X438189Y-88583D02*
D03*
Y88583D02*
D03*
X348425Y88583D02*
D03*
Y-88583D02*
D03*
X258661Y-88583D02*
D03*
Y88583D02*
D03*
X168898Y88583D02*
D03*
Y-88583D02*
D03*
X79134Y-88583D02*
D03*
Y88583D02*
D03*
X-79134Y88583D02*
D03*
Y-88583D02*
D03*
X-168898Y-88583D02*
D03*
Y88583D02*
D03*
X-258661Y88583D02*
D03*
Y-88583D02*
D03*
X-348425Y-88583D02*
D03*
Y88583D02*
D03*
X-438189Y88583D02*
D03*
Y-88583D02*
D03*
X-527953Y-88583D02*
D03*
Y88583D02*
D03*
X-617717Y88583D02*
D03*
Y-88583D02*
D03*
M02*
