G04*
G04 #@! TF.GenerationSoftware,Altium Limited,Altium Designer,19.0.13 (425)*
G04*
G04 Layer_Color=16711935*
%FSLAX25Y25*%
%MOIN*%
G70*
G01*
G75*
%ADD28R,0.03950X0.03753*%
%ADD29R,0.03753X0.03950*%
%ADD33R,0.03162X0.04737*%
%ADD40C,0.05918*%
G04:AMPARAMS|DCode=42|XSize=145.8mil|YSize=67.06mil|CornerRadius=33.53mil|HoleSize=0mil|Usage=FLASHONLY|Rotation=180.000|XOffset=0mil|YOffset=0mil|HoleType=Round|Shape=RoundedRectangle|*
%AMROUNDEDRECTD42*
21,1,0.14580,0.00000,0,0,180.0*
21,1,0.07874,0.06706,0,0,180.0*
1,1,0.06706,-0.03937,0.00000*
1,1,0.06706,0.03937,0.00000*
1,1,0.06706,0.03937,0.00000*
1,1,0.06706,-0.03937,0.00000*
%
%ADD42ROUNDEDRECTD42*%
%ADD43C,0.02572*%
%ADD44C,0.05524*%
%ADD59R,0.43307X0.50000*%
%ADD61R,0.30800X0.25800*%
%ADD62R,0.09461X0.05524*%
G04:AMPARAMS|DCode=63|XSize=55.12mil|YSize=55.12mil|CornerRadius=11.81mil|HoleSize=0mil|Usage=FLASHONLY|Rotation=180.000|XOffset=0mil|YOffset=0mil|HoleType=Round|Shape=RoundedRectangle|*
%AMROUNDEDRECTD63*
21,1,0.05512,0.03150,0,0,180.0*
21,1,0.03150,0.05512,0,0,180.0*
1,1,0.02362,-0.01575,0.01575*
1,1,0.02362,0.01575,0.01575*
1,1,0.02362,0.01575,-0.01575*
1,1,0.02362,-0.01575,-0.01575*
%
%ADD63ROUNDEDRECTD63*%
%ADD64R,0.03792X0.05800*%
%ADD65C,0.51981*%
D28*
X4721Y-55286D02*
D03*
X10626D02*
D03*
X18701Y-23622D02*
D03*
X24606D02*
D03*
X-25197Y-77756D02*
D03*
X-31102D02*
D03*
X34449Y-8858D02*
D03*
X40354D02*
D03*
X-25197Y-56102D02*
D03*
X-31102D02*
D03*
X-25197Y-45276D02*
D03*
X-31102D02*
D03*
X18701Y-29528D02*
D03*
X24606D02*
D03*
X-25197Y-62008D02*
D03*
X-31102D02*
D03*
X18701Y-12795D02*
D03*
X24606D02*
D03*
X-25197Y-66929D02*
D03*
X-31102D02*
D03*
X34449Y-20669D02*
D03*
X40354D02*
D03*
X18701Y-18701D02*
D03*
X24606D02*
D03*
X-25197Y-83661D02*
D03*
X-31102D02*
D03*
X-25197Y-72835D02*
D03*
X-31102D02*
D03*
X34449Y-14764D02*
D03*
X40354D02*
D03*
X34449Y-26575D02*
D03*
X40354D02*
D03*
X-25197Y-51181D02*
D03*
X-31102D02*
D03*
X605709Y-44094D02*
D03*
X599803D02*
D03*
X426181D02*
D03*
X420276D02*
D03*
X246654D02*
D03*
X240748D02*
D03*
X67126D02*
D03*
X61221D02*
D03*
X719488Y44094D02*
D03*
X725394D02*
D03*
X539961D02*
D03*
X545866D02*
D03*
X360433D02*
D03*
X366339D02*
D03*
X180905D02*
D03*
X186811D02*
D03*
X-67126D02*
D03*
X-61221D02*
D03*
X-246654D02*
D03*
X-240748D02*
D03*
X-426181D02*
D03*
X-420276D02*
D03*
X-180905Y-44094D02*
D03*
X-186811D02*
D03*
X-360433D02*
D03*
X-366339D02*
D03*
X-539961D02*
D03*
X-545866D02*
D03*
X-605709Y44094D02*
D03*
X-599803D02*
D03*
X-719488Y-44094D02*
D03*
X-725394D02*
D03*
D29*
X18701Y-40438D02*
D03*
Y-34533D02*
D03*
X-18758Y-44753D02*
D03*
Y-38848D02*
D03*
X29528Y-29528D02*
D03*
Y-23622D02*
D03*
Y-18701D02*
D03*
Y-12795D02*
D03*
X-35433Y-66929D02*
D03*
Y-72835D02*
D03*
Y-56102D02*
D03*
Y-62008D02*
D03*
Y-77756D02*
D03*
Y-83661D02*
D03*
X45276Y-8858D02*
D03*
Y-14764D02*
D03*
Y-26575D02*
D03*
Y-20669D02*
D03*
X-35433Y-45276D02*
D03*
Y-51181D02*
D03*
D33*
X-7480Y-48819D02*
D03*
X-3740Y-39370D02*
D03*
X-11220D02*
D03*
X7087Y-23622D02*
D03*
X3347Y-33071D02*
D03*
X10827D02*
D03*
X7087Y-39370D02*
D03*
X3347Y-48819D02*
D03*
X10827D02*
D03*
X-7480Y-33071D02*
D03*
X-3740Y-23622D02*
D03*
X-11220D02*
D03*
D40*
X-705118Y32677D02*
D03*
X-712992D02*
D03*
X705118Y-32677D02*
D03*
X712992D02*
D03*
X620079Y32677D02*
D03*
X612205D02*
D03*
X525591Y-32677D02*
D03*
X533465D02*
D03*
X440551Y32677D02*
D03*
X432677D02*
D03*
X346063Y-32677D02*
D03*
X353937D02*
D03*
X261024Y32677D02*
D03*
X253150D02*
D03*
X166535Y-32677D02*
D03*
X174409D02*
D03*
X81496Y32677D02*
D03*
X73622D02*
D03*
X-81496Y-32677D02*
D03*
X-73622D02*
D03*
X-166535Y32677D02*
D03*
X-174409D02*
D03*
X-261024Y-32677D02*
D03*
X-253150D02*
D03*
X-346063Y32677D02*
D03*
X-353937D02*
D03*
X-440551Y-32677D02*
D03*
X-432677D02*
D03*
X-525591Y32677D02*
D03*
X-533465D02*
D03*
X-620079Y-32677D02*
D03*
X-612205D02*
D03*
D42*
X-707480Y-119783D02*
D03*
X-697480Y-92047D02*
D03*
X-717480D02*
D03*
X-697480Y92047D02*
D03*
X-717480D02*
D03*
X-707480Y119783D02*
D03*
X707480Y119783D02*
D03*
X697480Y92047D02*
D03*
X717480D02*
D03*
X697480Y-92047D02*
D03*
X717480D02*
D03*
X707480Y-119783D02*
D03*
X617717Y-119783D02*
D03*
X627716Y-92047D02*
D03*
X607717D02*
D03*
X627716Y92047D02*
D03*
X607717D02*
D03*
X617717Y119783D02*
D03*
X527953Y119783D02*
D03*
X517953Y92047D02*
D03*
X537953D02*
D03*
X517953Y-92047D02*
D03*
X537953D02*
D03*
X527953Y-119783D02*
D03*
X438189Y-119783D02*
D03*
X448189Y-92047D02*
D03*
X428189D02*
D03*
X448189Y92047D02*
D03*
X428189D02*
D03*
X438189Y119783D02*
D03*
X348425Y119783D02*
D03*
X338425Y92047D02*
D03*
X358425D02*
D03*
X338425Y-92047D02*
D03*
X358425D02*
D03*
X348425Y-119783D02*
D03*
X258661Y-119783D02*
D03*
X268661Y-92047D02*
D03*
X248661D02*
D03*
X268661Y92047D02*
D03*
X248661D02*
D03*
X258661Y119783D02*
D03*
X168898Y119783D02*
D03*
X158898Y92047D02*
D03*
X178898D02*
D03*
X158898Y-92047D02*
D03*
X178898D02*
D03*
X168898Y-119783D02*
D03*
X79134Y-119783D02*
D03*
X89134Y-92047D02*
D03*
X69134D02*
D03*
X89134Y92047D02*
D03*
X69134D02*
D03*
X79134Y119783D02*
D03*
X-79134Y119783D02*
D03*
X-89134Y92047D02*
D03*
X-69134D02*
D03*
X-89134Y-92047D02*
D03*
X-69134D02*
D03*
X-79134Y-119783D02*
D03*
X-168898Y-119783D02*
D03*
X-158898Y-92047D02*
D03*
X-178898D02*
D03*
X-158898Y92047D02*
D03*
X-178898D02*
D03*
X-168898Y119783D02*
D03*
X-258661Y119783D02*
D03*
X-268661Y92047D02*
D03*
X-248661D02*
D03*
X-268661Y-92047D02*
D03*
X-248661D02*
D03*
X-258661Y-119783D02*
D03*
X-348425Y-119783D02*
D03*
X-338425Y-92047D02*
D03*
X-358425D02*
D03*
X-338425Y92047D02*
D03*
X-358425D02*
D03*
X-348425Y119783D02*
D03*
X-438189Y119783D02*
D03*
X-448189Y92047D02*
D03*
X-428189D02*
D03*
X-448189Y-92047D02*
D03*
X-428189D02*
D03*
X-438189Y-119783D02*
D03*
X-527953Y-119783D02*
D03*
X-517953Y-92047D02*
D03*
X-537953D02*
D03*
X-517953Y92047D02*
D03*
X-537953D02*
D03*
X-527953Y119783D02*
D03*
X-617717Y119783D02*
D03*
X-627716Y92047D02*
D03*
X-607717D02*
D03*
X-627716Y-92047D02*
D03*
X-607717D02*
D03*
X-617717Y-119783D02*
D03*
D43*
X-28150Y38386D02*
D03*
X-4725Y-24364D02*
D03*
X-11024Y-23622D02*
D03*
X42913Y2413D02*
D03*
X-40354Y5906D02*
D03*
X32306Y51181D02*
D03*
X1969Y53149D02*
D03*
X-5921D02*
D03*
X22835Y5118D02*
D03*
X16142Y5433D02*
D03*
X-15676Y4951D02*
D03*
X-22369D02*
D03*
X13189Y42421D02*
D03*
X-33465Y43364D02*
D03*
X51181Y-44685D02*
D03*
Y-47539D02*
D03*
X61220Y-43307D02*
D03*
X51181Y-39764D02*
D03*
X53543Y-41339D02*
D03*
X51181Y-36811D02*
D03*
X34843Y-113583D02*
D03*
X28150D02*
D03*
X21457D02*
D03*
X14764D02*
D03*
X4528Y-38189D02*
D03*
X3543Y-12500D02*
D03*
X7126Y-11969D02*
D03*
X36220Y28364D02*
D03*
X36417Y32677D02*
D03*
X37402Y30315D02*
D03*
X36417Y17323D02*
D03*
X19685Y11614D02*
D03*
X8501Y26752D02*
D03*
X5118Y26745D02*
D03*
X706693Y-14173D02*
D03*
X677264Y8268D02*
D03*
X-7480Y-33071D02*
D03*
X-38167Y31752D02*
D03*
X-10630Y-48957D02*
D03*
X-14764Y-113583D02*
D03*
X-21457D02*
D03*
X-28150D02*
D03*
X-34843D02*
D03*
X-35531Y-60528D02*
D03*
X-35433Y-72835D02*
D03*
Y-51073D02*
D03*
X-7480Y-63189D02*
D03*
X-12205D02*
D03*
X-37402Y26578D02*
D03*
X-6693Y31752D02*
D03*
X-20079Y11614D02*
D03*
X-10827Y-29134D02*
D03*
X-14567Y-103347D02*
D03*
X-39469Y41752D02*
D03*
X23228Y-48701D02*
D03*
X25512Y-50197D02*
D03*
X23110Y-45906D02*
D03*
X6988Y36752D02*
D03*
X10236Y-43012D02*
D03*
X14764Y-103347D02*
D03*
X3543Y-28937D02*
D03*
X14272Y-12008D02*
D03*
X15157Y-25197D02*
D03*
X-20472Y-48425D02*
D03*
X-17323D02*
D03*
X-14567Y-43701D02*
D03*
X14173Y-28937D02*
D03*
X34646Y-30315D02*
D03*
X37795D02*
D03*
X40945D02*
D03*
X52165Y-16043D02*
D03*
X53642Y-18602D02*
D03*
X51181Y-20079D02*
D03*
X59252Y-19882D02*
D03*
X24803Y-12500D02*
D03*
X668504Y13386D02*
D03*
X709447Y-13780D02*
D03*
X68405Y-32874D02*
D03*
X53937Y-12500D02*
D03*
X109449Y-8268D02*
D03*
X138583Y7972D02*
D03*
X148425Y14075D02*
D03*
X279331Y-14173D02*
D03*
X53150Y-22146D02*
D03*
X51279Y-24803D02*
D03*
X53150Y-28543D02*
D03*
X288976Y-8268D02*
D03*
X318110Y8366D02*
D03*
X327953Y14173D02*
D03*
X53642Y-34941D02*
D03*
X458661Y-14075D02*
D03*
X468504Y-8169D02*
D03*
X497638Y8268D02*
D03*
X507382Y13878D02*
D03*
X638189Y-14075D02*
D03*
X648032Y-8268D02*
D03*
X41437Y-48819D02*
D03*
X687008Y14075D02*
D03*
X51083Y-53543D02*
D03*
X-50394Y-11786D02*
D03*
X42126Y-60138D02*
D03*
X-35531Y-45079D02*
D03*
X-42028Y-43012D02*
D03*
Y-46358D02*
D03*
X-40354Y-59055D02*
D03*
X-19685Y-62008D02*
D03*
X-61023Y-55118D02*
D03*
X-58268D02*
D03*
X-55118Y-55118D02*
D03*
X-709447Y13780D02*
D03*
X-51575Y-33071D02*
D03*
Y-29921D02*
D03*
Y-37795D02*
D03*
X-54724Y-34646D02*
D03*
X-25197Y-77756D02*
D03*
X-25000Y-66831D02*
D03*
X-25098Y-56102D02*
D03*
X-25197Y-45276D02*
D03*
X14173Y-18110D02*
D03*
Y-21654D02*
D03*
X34449Y-10827D02*
D03*
Y-20472D02*
D03*
X-51575Y-16535D02*
D03*
X-109448Y8268D02*
D03*
X-99606Y14075D02*
D03*
X-51575Y-25984D02*
D03*
X-54068Y-27874D02*
D03*
X-50787Y20079D02*
D03*
X-138583Y-8268D02*
D03*
X-148425Y-13780D02*
D03*
X-288976Y8268D02*
D03*
X-279134Y14173D02*
D03*
X-54724Y-37795D02*
D03*
X-318110Y-8268D02*
D03*
X-327559Y-13780D02*
D03*
X-42520Y-49606D02*
D03*
X-458661Y14075D02*
D03*
X-468504Y8268D02*
D03*
X-51181Y-48425D02*
D03*
X-42520Y-53543D02*
D03*
X-507480Y-14173D02*
D03*
X-497638Y-8268D02*
D03*
X-51181Y-51575D02*
D03*
X-648032Y8268D02*
D03*
X-638189Y13780D02*
D03*
X-677165Y-8268D02*
D03*
X-687008Y-14173D02*
D03*
X48228Y57087D02*
D03*
X23386Y-51811D02*
D03*
X14803Y-108465D02*
D03*
X21260D02*
D03*
X34803D02*
D03*
X28150D02*
D03*
X23110Y-59449D02*
D03*
X24882Y-57480D02*
D03*
X26654Y-55551D02*
D03*
X28307Y-53543D02*
D03*
X-33071Y-36906D02*
D03*
X-15354Y-16142D02*
D03*
X-13081Y-18199D02*
D03*
Y-14173D02*
D03*
X-15354Y-20079D02*
D03*
X-14961Y-108268D02*
D03*
X-21260Y-108465D02*
D03*
X-28150D02*
D03*
X-35039Y-108661D02*
D03*
X-7087Y-48819D02*
D03*
X7087Y-23622D02*
D03*
X14961Y-39764D02*
D03*
X32677Y-36220D02*
D03*
Y-43110D02*
D03*
X-29134Y-24803D02*
D03*
X-33858Y-20866D02*
D03*
X-31496Y-22835D02*
D03*
X-35827Y-18898D02*
D03*
X-33071Y-30315D02*
D03*
X77167Y13780D02*
D03*
X653051Y-8268D02*
D03*
X606299Y-48031D02*
D03*
X615750Y13780D02*
D03*
X586024Y-20079D02*
D03*
X596457Y-32677D02*
D03*
X473524Y-8268D02*
D03*
X426772Y-48031D02*
D03*
X436222Y13780D02*
D03*
X406496Y-20079D02*
D03*
X416929Y-32677D02*
D03*
X293996Y-8268D02*
D03*
X247244Y-48031D02*
D03*
X256694Y13780D02*
D03*
X226969Y-20079D02*
D03*
X237402Y-32677D02*
D03*
X114469Y-8268D02*
D03*
X-114469Y8268D02*
D03*
X-67716Y48031D02*
D03*
X-77167Y-13780D02*
D03*
X-57874Y32677D02*
D03*
X-293996Y8268D02*
D03*
X-247244Y48031D02*
D03*
X-226969Y20079D02*
D03*
X-256694Y-13780D02*
D03*
X-237402Y32677D02*
D03*
X-473524Y8268D02*
D03*
X-426772Y48031D02*
D03*
X-406496Y20079D02*
D03*
X-436222Y-13780D02*
D03*
X-416929Y32677D02*
D03*
X672146Y8268D02*
D03*
X718898Y48031D02*
D03*
X739173Y20079D02*
D03*
X728740Y32677D02*
D03*
X492618Y8268D02*
D03*
X539370Y48031D02*
D03*
X559646Y20079D02*
D03*
X529920Y-13780D02*
D03*
X549213Y32677D02*
D03*
X313090Y8268D02*
D03*
X359842Y48031D02*
D03*
X380118Y20079D02*
D03*
X350392Y-13780D02*
D03*
X369685Y32677D02*
D03*
X133563Y8268D02*
D03*
X190157Y32677D02*
D03*
X180315Y48031D02*
D03*
X170865Y-13780D02*
D03*
X200591Y20079D02*
D03*
X-133563Y-8268D02*
D03*
X-190157Y-32677D02*
D03*
X-180315Y-48031D02*
D03*
X-170865Y13780D02*
D03*
X-200591Y-20079D02*
D03*
X-313090Y-8268D02*
D03*
X-369685Y-32677D02*
D03*
X-359842Y-48031D02*
D03*
X-350392Y13780D02*
D03*
X-380118Y-20079D02*
D03*
X-492618Y-8268D02*
D03*
X-549213Y-32677D02*
D03*
X-539370Y-48031D02*
D03*
X-529920Y13780D02*
D03*
X-559646Y-20079D02*
D03*
X-653051Y8268D02*
D03*
X-596457Y32677D02*
D03*
X-606299Y48031D02*
D03*
X-615750Y-13780D02*
D03*
X-586024Y20079D02*
D03*
X-739173Y-20079D02*
D03*
X-728740Y-32677D02*
D03*
X-718898Y-48031D02*
D03*
X-672146Y-8268D02*
D03*
D44*
X9646Y0D02*
D03*
X-9055D02*
D03*
X36220D02*
D03*
X29528D02*
D03*
X16220D02*
D03*
X22795D02*
D03*
X-22441D02*
D03*
X-15748D02*
D03*
X-29134D02*
D03*
X-35827D02*
D03*
D59*
X-707480Y88582D02*
D03*
Y-88583D02*
D03*
X707480Y-88583D02*
D03*
Y88583D02*
D03*
X617717D02*
D03*
Y-88583D02*
D03*
X527953Y-88583D02*
D03*
Y88583D02*
D03*
X438189Y88583D02*
D03*
X438189Y-88583D02*
D03*
X348425Y-88583D02*
D03*
Y88583D02*
D03*
X258661Y88583D02*
D03*
Y-88583D02*
D03*
X168898D02*
D03*
Y88583D02*
D03*
X79134Y88583D02*
D03*
X79134Y-88583D02*
D03*
X-79134Y-88583D02*
D03*
Y88583D02*
D03*
X-168898Y88583D02*
D03*
Y-88583D02*
D03*
X-258661Y-88583D02*
D03*
Y88583D02*
D03*
X-348425Y88583D02*
D03*
Y-88583D02*
D03*
X-438189Y-88583D02*
D03*
Y88583D02*
D03*
X-527953Y88583D02*
D03*
Y-88583D02*
D03*
X-617717Y-88583D02*
D03*
Y88583D02*
D03*
D61*
X-710039Y-28937D02*
D03*
X89173Y-29331D02*
D03*
X615158Y-28937D02*
D03*
X256102D02*
D03*
X435630D02*
D03*
X530512Y28937D02*
D03*
X350984D02*
D03*
X171457D02*
D03*
X710039D02*
D03*
X-256102D02*
D03*
X-435630D02*
D03*
X-76575D02*
D03*
X-171457Y-28937D02*
D03*
X-350984D02*
D03*
X-530512D02*
D03*
X-615158Y28937D02*
D03*
D62*
X-739173Y-37992D02*
D03*
Y-19882D02*
D03*
X60039Y-20276D02*
D03*
Y-38386D02*
D03*
X586024Y-19882D02*
D03*
Y-37992D02*
D03*
X226968Y-19882D02*
D03*
Y-37992D02*
D03*
X406496Y-19882D02*
D03*
Y-37992D02*
D03*
X559646Y19882D02*
D03*
Y37992D02*
D03*
X380118Y19882D02*
D03*
Y37992D02*
D03*
X200591Y19882D02*
D03*
Y37992D02*
D03*
X739173Y19882D02*
D03*
Y37992D02*
D03*
X-226968Y19882D02*
D03*
Y37992D02*
D03*
X-406496Y19882D02*
D03*
Y37992D02*
D03*
X-47441Y19882D02*
D03*
Y37992D02*
D03*
X-200591Y-19882D02*
D03*
Y-37992D02*
D03*
X-380118Y-19882D02*
D03*
Y-37992D02*
D03*
X-559646Y-19882D02*
D03*
Y-37992D02*
D03*
X-586024Y19882D02*
D03*
Y37992D02*
D03*
D63*
X-33071Y-37008D02*
D03*
X-27953D02*
D03*
X-38189D02*
D03*
X-33071Y-30315D02*
D03*
X-27953D02*
D03*
X-38189D02*
D03*
X32677Y-36417D02*
D03*
X27559D02*
D03*
X37795D02*
D03*
X32677Y-43110D02*
D03*
X27559D02*
D03*
X37795D02*
D03*
D64*
X32522Y17717D02*
D03*
X22522D02*
D03*
Y51575D02*
D03*
X32522D02*
D03*
X12522D02*
D03*
Y17717D02*
D03*
X-12369D02*
D03*
X-22369D02*
D03*
Y51575D02*
D03*
X-12369D02*
D03*
X-32369D02*
D03*
Y17717D02*
D03*
D65*
X-707480Y-88583D02*
D03*
Y88583D02*
D03*
X707480Y88583D02*
D03*
Y-88583D02*
D03*
X617717Y-88583D02*
D03*
Y88583D02*
D03*
X527953Y88583D02*
D03*
Y-88583D02*
D03*
X438189Y-88583D02*
D03*
Y88583D02*
D03*
X348425Y88583D02*
D03*
Y-88583D02*
D03*
X258661Y-88583D02*
D03*
Y88583D02*
D03*
X168898Y88583D02*
D03*
Y-88583D02*
D03*
X79134Y-88583D02*
D03*
Y88583D02*
D03*
X-79134Y88583D02*
D03*
Y-88583D02*
D03*
X-168898Y-88583D02*
D03*
Y88583D02*
D03*
X-258661Y88583D02*
D03*
Y-88583D02*
D03*
X-348425Y-88583D02*
D03*
Y88583D02*
D03*
X-438189Y88583D02*
D03*
Y-88583D02*
D03*
X-527953Y-88583D02*
D03*
Y88583D02*
D03*
X-617717Y88583D02*
D03*
Y-88583D02*
D03*
M02*
