G04*
G04 #@! TF.GenerationSoftware,Altium Limited,Altium Designer,19.0.13 (425)*
G04*
G04 Layer_Color=65535*
%FSLAX25Y25*%
%MOIN*%
G70*
G01*
G75*
%ADD10C,0.00984*%
%ADD11C,0.02362*%
%ADD12C,0.00787*%
%ADD13C,0.00591*%
%ADD14C,0.00600*%
%ADD15C,0.00709*%
D10*
X715354Y32972D02*
X714616Y33399D01*
Y32546D01*
X715354Y32972D01*
X610827Y-32972D02*
X610089Y-32546D01*
Y-33399D01*
X610827Y-32972D01*
X535827Y32972D02*
X535089Y33399D01*
Y32546D01*
X535827Y32972D01*
X431299Y-32972D02*
X430561Y-32546D01*
Y-33399D01*
X431299Y-32972D01*
X356299Y32972D02*
X355561Y33399D01*
Y32546D01*
X356299Y32972D01*
X251772Y-32972D02*
X251033Y-32546D01*
Y-33399D01*
X251772Y-32972D01*
X176772Y32972D02*
X176033Y33399D01*
Y32546D01*
X176772Y32972D01*
X72244Y-32972D02*
X71506Y-32546D01*
Y-33399D01*
X72244Y-32972D01*
X-71260Y32972D02*
X-71998Y33399D01*
Y32546D01*
X-71260Y32972D01*
X-175787Y-32972D02*
X-176526Y-32546D01*
Y-33399D01*
X-175787Y-32972D01*
X-250787Y32972D02*
X-251526Y33399D01*
Y32546D01*
X-250787Y32972D01*
X-355315Y-32972D02*
X-356053Y-32546D01*
Y-33399D01*
X-355315Y-32972D01*
X-430315Y32972D02*
X-431053Y33399D01*
Y32546D01*
X-430315Y32972D01*
X-534842Y-32972D02*
X-535581Y-32546D01*
Y-33399D01*
X-534842Y-32972D01*
X-609842Y32972D02*
X-610581Y33399D01*
Y32546D01*
X-609842Y32972D01*
X-714370Y-32972D02*
X-715108Y-32546D01*
Y-33399D01*
X-714370Y-32972D01*
X7480Y45098D02*
X6742Y45525D01*
Y44672D01*
X7480Y45098D01*
X-38976D02*
X-39715Y45525D01*
Y44672D01*
X-38976Y45098D01*
X46949Y-62106D02*
X46211Y-61680D01*
Y-62533D01*
X46949Y-62106D01*
X-46358Y-11516D02*
X-47096Y-11090D01*
Y-11942D01*
X-46358Y-11516D01*
X-41734Y120668D02*
X-42717Y121652D01*
X-44685D01*
X-45669Y120668D01*
Y116732D01*
X-44685Y115748D01*
X-42717D01*
X-41734Y116732D01*
X-39766Y121652D02*
Y115748D01*
Y118700D01*
X-38782Y119684D01*
X-36814D01*
X-35830Y118700D01*
Y115748D01*
X-32878Y119684D02*
X-30910D01*
X-29926Y118700D01*
Y115748D01*
X-32878D01*
X-33862Y116732D01*
X-32878Y117716D01*
X-29926D01*
X-27959Y115748D02*
X-25991D01*
X-26975D01*
Y119684D01*
X-27959D01*
X-22055Y120668D02*
Y119684D01*
X-23039D01*
X-21071D01*
X-22055D01*
Y116732D01*
X-21071Y115748D01*
X-17135Y119684D02*
X-15167D01*
X-14183Y118700D01*
Y115748D01*
X-17135D01*
X-18119Y116732D01*
X-17135Y117716D01*
X-14183D01*
X-12216Y115748D02*
Y119684D01*
X-9264D01*
X-8280Y118700D01*
Y115748D01*
X-6312Y119684D02*
Y116732D01*
X-5328Y115748D01*
X-2376D01*
Y114764D01*
X-3360Y113780D01*
X-4344D01*
X-2376Y115748D02*
Y119684D01*
X576D02*
X2543D01*
X3527Y118700D01*
Y115748D01*
X576D01*
X-408Y116732D01*
X576Y117716D01*
X3527D01*
X15335Y120668D02*
X14351Y121652D01*
X12383D01*
X11399Y120668D01*
Y119684D01*
X12383Y118700D01*
X14351D01*
X15335Y117716D01*
Y116732D01*
X14351Y115748D01*
X12383D01*
X11399Y116732D01*
X17302Y115748D02*
X19270D01*
X18286D01*
Y119684D01*
X17302D01*
X22222Y115748D02*
Y119684D01*
X25174D01*
X26158Y118700D01*
Y115748D01*
X32061Y121652D02*
Y115748D01*
X29110D01*
X28126Y116732D01*
Y118700D01*
X29110Y119684D01*
X32061D01*
X35013D02*
X36981D01*
X37965Y118700D01*
Y115748D01*
X35013D01*
X34029Y116732D01*
X35013Y117716D01*
X37965D01*
X41901Y113780D02*
X42885D01*
X43869Y114764D01*
Y119684D01*
X40917D01*
X39933Y118700D01*
Y116732D01*
X40917Y115748D01*
X43869D01*
X45836D02*
X47804D01*
X46820D01*
Y119684D01*
X45836D01*
D11*
X16535Y40157D02*
X16091Y41081D01*
X15091Y41309D01*
X14290Y40670D01*
Y39645D01*
X15091Y39006D01*
X16091Y39234D01*
X16535Y40157D01*
X-29921D02*
X-30366Y41081D01*
X-31365Y41309D01*
X-32166Y40670D01*
Y39645D01*
X-31365Y39006D01*
X-30366Y39234D01*
X-29921Y40157D01*
X39370Y-58661D02*
X38925Y-57738D01*
X37926Y-57510D01*
X37125Y-58149D01*
Y-59174D01*
X37926Y-59813D01*
X38925Y-59585D01*
X39370Y-58661D01*
X-37402Y-14961D02*
X-37846Y-14037D01*
X-38846Y-13809D01*
X-39647Y-14448D01*
Y-15473D01*
X-38846Y-16112D01*
X-37846Y-15884D01*
X-37402Y-14961D01*
D12*
X42913Y45276D02*
X42126D01*
X42913D01*
X-3543D02*
X-4331D01*
X-3543D01*
X-573425Y-53150D02*
Y53150D01*
X662008Y-51181D02*
Y55118D01*
X572244Y-51181D02*
Y55118D01*
X482480Y-51181D02*
Y55118D01*
X392717Y-51181D02*
Y55118D01*
X302953Y-51181D02*
Y55118D01*
X213189Y-51181D02*
Y55118D01*
X123425Y-51181D02*
Y55118D01*
X39370Y-8268D02*
Y8268D01*
X33071Y-8268D02*
Y8268D01*
X39370D01*
X33071Y-8268D02*
X39370D01*
X-124606Y-51181D02*
Y55118D01*
X-214370Y-51181D02*
Y55118D01*
X-304134Y-51181D02*
Y55118D01*
X-393898Y-51181D02*
Y55118D01*
X-483661Y-51181D02*
Y55118D01*
X715846Y36516D02*
Y40453D01*
X719193D01*
X728051Y36516D02*
Y40453D01*
X724705D02*
X728051D01*
X609350Y-40453D02*
Y-36516D01*
X606004Y-40453D02*
X609350D01*
X597146D02*
Y-36516D01*
Y-40453D02*
X600492D01*
X536319Y36516D02*
Y40453D01*
X539665D01*
X548524Y36516D02*
Y40453D01*
X545177D02*
X548524D01*
X429823Y-40453D02*
Y-36516D01*
X426476Y-40453D02*
X429823D01*
X417618D02*
Y-36516D01*
Y-40453D02*
X420965D01*
X356791Y36516D02*
Y40453D01*
X360138D01*
X368996Y36516D02*
Y40453D01*
X365650D02*
X368996D01*
X250295Y-40453D02*
Y-36516D01*
X246949Y-40453D02*
X250295D01*
X238091D02*
Y-36516D01*
Y-40453D02*
X241437D01*
X177264Y36516D02*
Y40453D01*
X180610D01*
X189469Y36516D02*
Y40453D01*
X186122D02*
X189469D01*
X70768Y-40453D02*
Y-36516D01*
X67421Y-40453D02*
X70768D01*
X58563D02*
Y-36516D01*
Y-40453D02*
X61910D01*
X-70768Y36516D02*
Y40453D01*
X-67421D01*
X-58563Y36516D02*
Y40453D01*
X-61910D02*
X-58563D01*
X-177264Y-40453D02*
Y-36516D01*
X-180610Y-40453D02*
X-177264D01*
X-189469D02*
Y-36516D01*
Y-40453D02*
X-186122D01*
X-250295Y36516D02*
Y40453D01*
X-246949D01*
X-238091Y36516D02*
Y40453D01*
X-241437D02*
X-238091D01*
X-356791Y-40453D02*
Y-36516D01*
X-360138Y-40453D02*
X-356791D01*
X-368996D02*
Y-36516D01*
Y-40453D02*
X-365650D01*
X-429823Y36516D02*
Y40453D01*
X-426476D01*
X-417618Y36516D02*
Y40453D01*
X-420965D02*
X-417618D01*
X-536319Y-40453D02*
Y-36516D01*
X-539665Y-40453D02*
X-536319D01*
X-548524D02*
Y-36516D01*
Y-40453D02*
X-545177D01*
X-609350Y36516D02*
Y40453D01*
X-606004D01*
X-597146Y36516D02*
Y40453D01*
X-600492D02*
X-597146D01*
X-715846Y-40453D02*
Y-36516D01*
X-719193Y-40453D02*
X-715846D01*
X-728051D02*
Y-36516D01*
Y-40453D02*
X-724705D01*
X-663189Y-53150D02*
Y53150D01*
X11417Y24409D02*
X24016D01*
X11417Y44094D02*
X24016D01*
Y24409D02*
Y44094D01*
X11417Y24409D02*
Y44094D01*
X-35039Y24409D02*
X-22441D01*
X-35039Y44094D02*
X-22441D01*
Y24409D02*
Y44094D01*
X-35039Y24409D02*
Y44094D01*
X42126Y-62598D02*
Y-11024D01*
X23228Y-62598D02*
Y-11024D01*
Y-62598D02*
X42126D01*
X23228Y-11024D02*
X42126D01*
X-42520Y-62598D02*
Y-11024D01*
X-23622Y-62598D02*
Y-11024D01*
X-42520D02*
X-23622D01*
X-42520Y-62598D02*
X-23622D01*
X12992Y-8268D02*
X19291D01*
Y8268D01*
X12992D02*
X19291D01*
X12992Y-8268D02*
Y8268D01*
X-25591Y-8268D02*
X-19291D01*
Y8268D01*
X-25591D02*
X-19291D01*
X-25591Y-8268D02*
Y8268D01*
X19685Y-8268D02*
X25984D01*
Y8268D01*
X19685D02*
X25984D01*
X19685Y-8268D02*
Y8268D01*
X-18898Y-8268D02*
X-12598D01*
Y8268D01*
X-18898D02*
X-12598D01*
X-18898Y-8268D02*
Y8268D01*
X26378Y-8268D02*
X32677D01*
Y8268D01*
X26378D02*
X32677D01*
X26378Y-8268D02*
Y8268D01*
X-32283Y-8268D02*
X-25984D01*
Y8268D01*
X-32283D02*
X-25984D01*
X-32283Y-8268D02*
Y8268D01*
X-38976Y-8268D02*
X-32677D01*
Y8268D01*
X-38976D02*
X-32677D01*
X-38976Y-8268D02*
Y8268D01*
X11614Y-116732D02*
X17913D01*
Y-100197D01*
X11614D02*
X17913D01*
X11614Y-116732D02*
Y-100197D01*
X-17913Y-116732D02*
X-11614D01*
Y-100197D01*
X-17913D02*
X-11614D01*
X-17913Y-116732D02*
Y-100197D01*
X18307Y-116732D02*
X24606D01*
Y-100197D01*
X18307D02*
X24606D01*
X18307Y-116732D02*
Y-100197D01*
X-24606Y-116732D02*
X-18307D01*
Y-100197D01*
X-24606D02*
X-18307D01*
X-24606Y-116732D02*
Y-100197D01*
X25000Y-116732D02*
X31299D01*
Y-100197D01*
X25000D02*
X31299D01*
X25000Y-116732D02*
Y-100197D01*
X-31299Y-116732D02*
X-25000D01*
Y-100197D01*
X-31299D02*
X-25000D01*
X-31299Y-116732D02*
Y-100197D01*
X31693Y-116732D02*
X37992D01*
Y-100197D01*
X31693D02*
X37992D01*
X31693Y-116732D02*
Y-100197D01*
X-37992Y-116732D02*
X-31693D01*
Y-100197D01*
X-37992D02*
X-31693D01*
X-37992Y-116732D02*
Y-100197D01*
X728740Y49410D02*
X732282D01*
X730511Y51181D01*
Y48820D01*
X732282Y47639D02*
X728740D01*
X729921D01*
X732282Y45278D01*
X730511Y47049D01*
X728740Y45278D01*
X593307Y-46850D02*
X596849D01*
X595078Y-45079D01*
Y-47440D01*
X596849Y-48621D02*
X593307D01*
X594488D01*
X596849Y-50982D01*
X595078Y-49211D01*
X593307Y-50982D01*
X549213Y49410D02*
X552755D01*
X550984Y51181D01*
Y48820D01*
X552755Y47639D02*
X549213D01*
X550393D01*
X552755Y45278D01*
X550984Y47049D01*
X549213Y45278D01*
X413779Y-46850D02*
X417322D01*
X415551Y-45079D01*
Y-47440D01*
X417322Y-48621D02*
X413779D01*
X414960D01*
X417322Y-50982D01*
X415551Y-49211D01*
X413779Y-50982D01*
X369685Y49410D02*
X373227D01*
X371456Y51181D01*
Y48820D01*
X373227Y47639D02*
X369685D01*
X370866D01*
X373227Y45278D01*
X371456Y47049D01*
X369685Y45278D01*
X234252Y-46850D02*
X237794D01*
X236023Y-45079D01*
Y-47440D01*
X237794Y-48621D02*
X234252D01*
X235433D01*
X237794Y-50982D01*
X236023Y-49211D01*
X234252Y-50982D01*
X190157Y49410D02*
X193700D01*
X191929Y51181D01*
Y48820D01*
X193700Y47639D02*
X190157D01*
X191338D01*
X193700Y45278D01*
X191929Y47049D01*
X190157Y45278D01*
X54724Y-46850D02*
X58267D01*
X56495Y-45079D01*
Y-47440D01*
X58267Y-48621D02*
X54724D01*
X55905D01*
X58267Y-50982D01*
X56495Y-49211D01*
X54724Y-50982D01*
X-54724Y46850D02*
X-58267D01*
X-56495Y45079D01*
Y47440D01*
X-58267Y48621D02*
X-54724D01*
X-55905D01*
X-58267Y50982D01*
X-56495Y49211D01*
X-54724Y50982D01*
X-190157Y-49410D02*
X-193700D01*
X-191929Y-51181D01*
Y-48820D01*
X-193700Y-47639D02*
X-190157D01*
X-191338D01*
X-193700Y-45278D01*
X-191929Y-47049D01*
X-190157Y-45278D01*
X-234252Y46850D02*
X-237794D01*
X-236023Y45079D01*
Y47440D01*
X-237794Y48621D02*
X-234252D01*
X-235433D01*
X-237794Y50982D01*
X-236023Y49211D01*
X-234252Y50982D01*
X-369685Y-49410D02*
X-373227D01*
X-371456Y-51181D01*
Y-48820D01*
X-373227Y-47639D02*
X-369685D01*
X-370866D01*
X-373227Y-45278D01*
X-371456Y-47049D01*
X-369685Y-45278D01*
X-413779Y46850D02*
X-417322D01*
X-415551Y45079D01*
Y47440D01*
X-417322Y48621D02*
X-413779D01*
X-414960D01*
X-417322Y50982D01*
X-415551Y49211D01*
X-413779Y50982D01*
X-549213Y-49410D02*
X-552755D01*
X-550984Y-51181D01*
Y-48820D01*
X-552755Y-47639D02*
X-549213D01*
X-550393D01*
X-552755Y-45278D01*
X-550984Y-47049D01*
X-549213Y-45278D01*
X-593307Y46850D02*
X-596849D01*
X-595078Y45079D01*
Y47440D01*
X-596849Y48621D02*
X-593307D01*
X-594488D01*
X-596849Y50982D01*
X-595078Y49211D01*
X-593307Y50982D01*
X-728740Y-49410D02*
X-732282D01*
X-730511Y-51181D01*
Y-48820D01*
X-732282Y-47639D02*
X-728740D01*
X-729921D01*
X-732282Y-45278D01*
X-730511Y-47049D01*
X-728740Y-45278D01*
X683464Y4331D02*
X684054Y3740D01*
Y2560D01*
X683464Y1969D01*
X682873D01*
X682283Y2560D01*
Y3150D01*
Y2560D01*
X681693Y1969D01*
X681102D01*
X680512Y2560D01*
Y3740D01*
X681102Y4331D01*
X683464Y789D02*
X684054Y198D01*
Y-982D01*
X683464Y-1573D01*
X681102D01*
X680512Y-982D01*
Y198D01*
X681102Y789D01*
X683464D01*
Y-2754D02*
X684054Y-3344D01*
Y-4525D01*
X683464Y-5115D01*
X681102D01*
X680512Y-4525D01*
Y-3344D01*
X681102Y-2754D01*
X683464D01*
X644487Y5217D02*
X645078Y4626D01*
Y3446D01*
X644487Y2855D01*
X643897D01*
X643306Y3446D01*
Y4036D01*
Y3446D01*
X642716Y2855D01*
X642126D01*
X641535Y3446D01*
Y4626D01*
X642126Y5217D01*
X644487Y1674D02*
X645078Y1084D01*
Y-97D01*
X644487Y-687D01*
X642126D01*
X641535Y-97D01*
Y1084D01*
X642126Y1674D01*
X644487D01*
Y-1868D02*
X645078Y-2458D01*
Y-3639D01*
X644487Y-4229D01*
X642126D01*
X641535Y-3639D01*
Y-2458D01*
X642126Y-1868D01*
X644487D01*
X503936Y4331D02*
X504526Y3740D01*
Y2560D01*
X503936Y1969D01*
X503346D01*
X502755Y2560D01*
Y3150D01*
Y2560D01*
X502165Y1969D01*
X501575D01*
X500984Y2560D01*
Y3740D01*
X501575Y4331D01*
X503936Y789D02*
X504526Y198D01*
Y-982D01*
X503936Y-1573D01*
X501575D01*
X500984Y-982D01*
Y198D01*
X501575Y789D01*
X503936D01*
Y-2754D02*
X504526Y-3344D01*
Y-4525D01*
X503936Y-5115D01*
X501575D01*
X500984Y-4525D01*
Y-3344D01*
X501575Y-2754D01*
X503936D01*
X464960Y5217D02*
X465550Y4626D01*
Y3446D01*
X464960Y2855D01*
X464369D01*
X463779Y3446D01*
Y4036D01*
Y3446D01*
X463189Y2855D01*
X462598D01*
X462008Y3446D01*
Y4626D01*
X462598Y5217D01*
X464960Y1674D02*
X465550Y1084D01*
Y-97D01*
X464960Y-687D01*
X462598D01*
X462008Y-97D01*
Y1084D01*
X462598Y1674D01*
X464960D01*
Y-1868D02*
X465550Y-2458D01*
Y-3639D01*
X464960Y-4229D01*
X462598D01*
X462008Y-3639D01*
Y-2458D01*
X462598Y-1868D01*
X464960D01*
X324409Y4331D02*
X324999Y3740D01*
Y2560D01*
X324409Y1969D01*
X323818D01*
X323228Y2560D01*
Y3150D01*
Y2560D01*
X322637Y1969D01*
X322047D01*
X321457Y2560D01*
Y3740D01*
X322047Y4331D01*
X324409Y789D02*
X324999Y198D01*
Y-982D01*
X324409Y-1573D01*
X322047D01*
X321457Y-982D01*
Y198D01*
X322047Y789D01*
X324409D01*
Y-2754D02*
X324999Y-3344D01*
Y-4525D01*
X324409Y-5115D01*
X322047D01*
X321457Y-4525D01*
Y-3344D01*
X322047Y-2754D01*
X324409D01*
X285432Y5217D02*
X286022Y4626D01*
Y3446D01*
X285432Y2855D01*
X284842D01*
X284251Y3446D01*
Y4036D01*
Y3446D01*
X283661Y2855D01*
X283071D01*
X282480Y3446D01*
Y4626D01*
X283071Y5217D01*
X285432Y1674D02*
X286022Y1084D01*
Y-97D01*
X285432Y-687D01*
X283071D01*
X282480Y-97D01*
Y1084D01*
X283071Y1674D01*
X285432D01*
Y-1868D02*
X286022Y-2458D01*
Y-3639D01*
X285432Y-4229D01*
X283071D01*
X282480Y-3639D01*
Y-2458D01*
X283071Y-1868D01*
X285432D01*
X144881Y4331D02*
X145471Y3740D01*
Y2560D01*
X144881Y1969D01*
X144291D01*
X143700Y2560D01*
Y3150D01*
Y2560D01*
X143110Y1969D01*
X142519D01*
X141929Y2560D01*
Y3740D01*
X142519Y4331D01*
X144881Y789D02*
X145471Y198D01*
Y-982D01*
X144881Y-1573D01*
X142519D01*
X141929Y-982D01*
Y198D01*
X142519Y789D01*
X144881D01*
Y-2754D02*
X145471Y-3344D01*
Y-4525D01*
X144881Y-5115D01*
X142519D01*
X141929Y-4525D01*
Y-3344D01*
X142519Y-2754D01*
X144881D01*
X105904Y5217D02*
X106495Y4626D01*
Y3446D01*
X105904Y2855D01*
X105314D01*
X104724Y3446D01*
Y4036D01*
Y3446D01*
X104133Y2855D01*
X103543D01*
X102953Y3446D01*
Y4626D01*
X103543Y5217D01*
X105904Y1674D02*
X106495Y1084D01*
Y-97D01*
X105904Y-687D01*
X103543D01*
X102953Y-97D01*
Y1084D01*
X103543Y1674D01*
X105904D01*
Y-1868D02*
X106495Y-2458D01*
Y-3639D01*
X105904Y-4229D01*
X103543D01*
X102953Y-3639D01*
Y-2458D01*
X103543Y-1868D01*
X105904D01*
X-105904Y-5217D02*
X-106495Y-4626D01*
Y-3446D01*
X-105904Y-2855D01*
X-105314D01*
X-104724Y-3446D01*
Y-4036D01*
Y-3446D01*
X-104133Y-2855D01*
X-103543D01*
X-102953Y-3446D01*
Y-4626D01*
X-103543Y-5217D01*
X-105904Y-1674D02*
X-106495Y-1084D01*
Y97D01*
X-105904Y687D01*
X-103543D01*
X-102953Y97D01*
Y-1084D01*
X-103543Y-1674D01*
X-105904D01*
Y1868D02*
X-106495Y2458D01*
Y3639D01*
X-105904Y4229D01*
X-103543D01*
X-102953Y3639D01*
Y2458D01*
X-103543Y1868D01*
X-105904D01*
X-144881Y-4331D02*
X-145471Y-3740D01*
Y-2560D01*
X-144881Y-1969D01*
X-144291D01*
X-143700Y-2560D01*
Y-3150D01*
Y-2560D01*
X-143110Y-1969D01*
X-142519D01*
X-141929Y-2560D01*
Y-3740D01*
X-142519Y-4331D01*
X-144881Y-789D02*
X-145471Y-198D01*
Y982D01*
X-144881Y1573D01*
X-142519D01*
X-141929Y982D01*
Y-198D01*
X-142519Y-789D01*
X-144881D01*
Y2754D02*
X-145471Y3344D01*
Y4525D01*
X-144881Y5115D01*
X-142519D01*
X-141929Y4525D01*
Y3344D01*
X-142519Y2754D01*
X-144881D01*
X-285432Y-5217D02*
X-286022Y-4626D01*
Y-3446D01*
X-285432Y-2855D01*
X-284842D01*
X-284251Y-3446D01*
Y-4036D01*
Y-3446D01*
X-283661Y-2855D01*
X-283071D01*
X-282480Y-3446D01*
Y-4626D01*
X-283071Y-5217D01*
X-285432Y-1674D02*
X-286022Y-1084D01*
Y97D01*
X-285432Y687D01*
X-283071D01*
X-282480Y97D01*
Y-1084D01*
X-283071Y-1674D01*
X-285432D01*
Y1868D02*
X-286022Y2458D01*
Y3639D01*
X-285432Y4229D01*
X-283071D01*
X-282480Y3639D01*
Y2458D01*
X-283071Y1868D01*
X-285432D01*
X-324409Y-4331D02*
X-324999Y-3740D01*
Y-2560D01*
X-324409Y-1969D01*
X-323818D01*
X-323228Y-2560D01*
Y-3150D01*
Y-2560D01*
X-322637Y-1969D01*
X-322047D01*
X-321457Y-2560D01*
Y-3740D01*
X-322047Y-4331D01*
X-324409Y-789D02*
X-324999Y-198D01*
Y982D01*
X-324409Y1573D01*
X-322047D01*
X-321457Y982D01*
Y-198D01*
X-322047Y-789D01*
X-324409D01*
Y2754D02*
X-324999Y3344D01*
Y4525D01*
X-324409Y5115D01*
X-322047D01*
X-321457Y4525D01*
Y3344D01*
X-322047Y2754D01*
X-324409D01*
X-464960Y-5217D02*
X-465550Y-4626D01*
Y-3446D01*
X-464960Y-2855D01*
X-464369D01*
X-463779Y-3446D01*
Y-4036D01*
Y-3446D01*
X-463189Y-2855D01*
X-462598D01*
X-462008Y-3446D01*
Y-4626D01*
X-462598Y-5217D01*
X-464960Y-1674D02*
X-465550Y-1084D01*
Y97D01*
X-464960Y687D01*
X-462598D01*
X-462008Y97D01*
Y-1084D01*
X-462598Y-1674D01*
X-464960D01*
Y1868D02*
X-465550Y2458D01*
Y3639D01*
X-464960Y4229D01*
X-462598D01*
X-462008Y3639D01*
Y2458D01*
X-462598Y1868D01*
X-464960D01*
X-503936Y-4331D02*
X-504526Y-3740D01*
Y-2560D01*
X-503936Y-1969D01*
X-503346D01*
X-502755Y-2560D01*
Y-3150D01*
Y-2560D01*
X-502165Y-1969D01*
X-501575D01*
X-500984Y-2560D01*
Y-3740D01*
X-501575Y-4331D01*
X-503936Y-789D02*
X-504526Y-198D01*
Y982D01*
X-503936Y1573D01*
X-501575D01*
X-500984Y982D01*
Y-198D01*
X-501575Y-789D01*
X-503936D01*
Y2754D02*
X-504526Y3344D01*
Y4525D01*
X-503936Y5115D01*
X-501575D01*
X-500984Y4525D01*
Y3344D01*
X-501575Y2754D01*
X-503936D01*
X-644487Y-5217D02*
X-645078Y-4626D01*
Y-3446D01*
X-644487Y-2855D01*
X-643897D01*
X-643306Y-3446D01*
Y-4036D01*
Y-3446D01*
X-642716Y-2855D01*
X-642126D01*
X-641535Y-3446D01*
Y-4626D01*
X-642126Y-5217D01*
X-644487Y-1674D02*
X-645078Y-1084D01*
Y97D01*
X-644487Y687D01*
X-642126D01*
X-641535Y97D01*
Y-1084D01*
X-642126Y-1674D01*
X-644487D01*
Y1868D02*
X-645078Y2458D01*
Y3639D01*
X-644487Y4229D01*
X-642126D01*
X-641535Y3639D01*
Y2458D01*
X-642126Y1868D01*
X-644487D01*
X-683464Y-4331D02*
X-684054Y-3740D01*
Y-2560D01*
X-683464Y-1969D01*
X-682873D01*
X-682283Y-2560D01*
Y-3150D01*
Y-2560D01*
X-681693Y-1969D01*
X-681102D01*
X-680512Y-2560D01*
Y-3740D01*
X-681102Y-4331D01*
X-683464Y-789D02*
X-684054Y-198D01*
Y982D01*
X-683464Y1573D01*
X-681102D01*
X-680512Y982D01*
Y-198D01*
X-681102Y-789D01*
X-683464D01*
Y2754D02*
X-684054Y3344D01*
Y4525D01*
X-683464Y5115D01*
X-681102D01*
X-680512Y4525D01*
Y3344D01*
X-681102Y2754D01*
X-683464D01*
X675591Y4331D02*
Y3150D01*
Y3740D01*
X679133D01*
X678542Y4331D01*
Y1379D02*
X679133Y789D01*
Y-392D01*
X678542Y-982D01*
X676181D01*
X675591Y-392D01*
Y789D01*
X676181Y1379D01*
X678542D01*
Y-2163D02*
X679133Y-2754D01*
Y-3934D01*
X678542Y-4525D01*
X676181D01*
X675591Y-3934D01*
Y-2754D01*
X676181Y-2163D01*
X678542D01*
X646457Y4626D02*
Y3445D01*
Y4036D01*
X649999D01*
X649408Y4626D01*
Y1674D02*
X649999Y1084D01*
Y-97D01*
X649408Y-687D01*
X647047D01*
X646457Y-97D01*
Y1084D01*
X647047Y1674D01*
X649408D01*
Y-1868D02*
X649999Y-2458D01*
Y-3639D01*
X649408Y-4229D01*
X647047D01*
X646457Y-3639D01*
Y-2458D01*
X647047Y-1868D01*
X649408D01*
X496063Y4331D02*
Y3150D01*
Y3740D01*
X499605D01*
X499015Y4331D01*
Y1379D02*
X499605Y789D01*
Y-392D01*
X499015Y-982D01*
X496653D01*
X496063Y-392D01*
Y789D01*
X496653Y1379D01*
X499015D01*
Y-2163D02*
X499605Y-2754D01*
Y-3934D01*
X499015Y-4525D01*
X496653D01*
X496063Y-3934D01*
Y-2754D01*
X496653Y-2163D01*
X499015D01*
X466929Y4626D02*
Y3445D01*
Y4036D01*
X470471D01*
X469881Y4626D01*
Y1674D02*
X470471Y1084D01*
Y-97D01*
X469881Y-687D01*
X467520D01*
X466929Y-97D01*
Y1084D01*
X467520Y1674D01*
X469881D01*
Y-1868D02*
X470471Y-2458D01*
Y-3639D01*
X469881Y-4229D01*
X467520D01*
X466929Y-3639D01*
Y-2458D01*
X467520Y-1868D01*
X469881D01*
X316535Y4331D02*
Y3150D01*
Y3740D01*
X320078D01*
X319487Y4331D01*
Y1379D02*
X320078Y789D01*
Y-392D01*
X319487Y-982D01*
X317126D01*
X316535Y-392D01*
Y789D01*
X317126Y1379D01*
X319487D01*
Y-2163D02*
X320078Y-2754D01*
Y-3934D01*
X319487Y-4525D01*
X317126D01*
X316535Y-3934D01*
Y-2754D01*
X317126Y-2163D01*
X319487D01*
X287402Y4626D02*
Y3445D01*
Y4036D01*
X290944D01*
X290353Y4626D01*
Y1674D02*
X290944Y1084D01*
Y-97D01*
X290353Y-687D01*
X287992D01*
X287402Y-97D01*
Y1084D01*
X287992Y1674D01*
X290353D01*
Y-1868D02*
X290944Y-2458D01*
Y-3639D01*
X290353Y-4229D01*
X287992D01*
X287402Y-3639D01*
Y-2458D01*
X287992Y-1868D01*
X290353D01*
X137008Y4331D02*
Y3150D01*
Y3740D01*
X140550D01*
X139960Y4331D01*
Y1379D02*
X140550Y789D01*
Y-392D01*
X139960Y-982D01*
X137598D01*
X137008Y-392D01*
Y789D01*
X137598Y1379D01*
X139960D01*
Y-2163D02*
X140550Y-2754D01*
Y-3934D01*
X139960Y-4525D01*
X137598D01*
X137008Y-3934D01*
Y-2754D01*
X137598Y-2163D01*
X139960D01*
X107874Y4626D02*
Y3445D01*
Y4036D01*
X111416D01*
X110826Y4626D01*
Y1674D02*
X111416Y1084D01*
Y-97D01*
X110826Y-687D01*
X108464D01*
X107874Y-97D01*
Y1084D01*
X108464Y1674D01*
X110826D01*
Y-1868D02*
X111416Y-2458D01*
Y-3639D01*
X110826Y-4229D01*
X108464D01*
X107874Y-3639D01*
Y-2458D01*
X108464Y-1868D01*
X110826D01*
X-107874Y-4626D02*
Y-3445D01*
Y-4036D01*
X-111416D01*
X-110826Y-4626D01*
Y-1674D02*
X-111416Y-1084D01*
Y97D01*
X-110826Y687D01*
X-108464D01*
X-107874Y97D01*
Y-1084D01*
X-108464Y-1674D01*
X-110826D01*
Y1868D02*
X-111416Y2458D01*
Y3639D01*
X-110826Y4229D01*
X-108464D01*
X-107874Y3639D01*
Y2458D01*
X-108464Y1868D01*
X-110826D01*
X-137008Y-4331D02*
Y-3150D01*
Y-3740D01*
X-140550D01*
X-139960Y-4331D01*
Y-1379D02*
X-140550Y-789D01*
Y392D01*
X-139960Y982D01*
X-137598D01*
X-137008Y392D01*
Y-789D01*
X-137598Y-1379D01*
X-139960D01*
Y2163D02*
X-140550Y2754D01*
Y3934D01*
X-139960Y4525D01*
X-137598D01*
X-137008Y3934D01*
Y2754D01*
X-137598Y2163D01*
X-139960D01*
X-287402Y-4626D02*
Y-3445D01*
Y-4036D01*
X-290944D01*
X-290353Y-4626D01*
Y-1674D02*
X-290944Y-1084D01*
Y97D01*
X-290353Y687D01*
X-287992D01*
X-287402Y97D01*
Y-1084D01*
X-287992Y-1674D01*
X-290353D01*
Y1868D02*
X-290944Y2458D01*
Y3639D01*
X-290353Y4229D01*
X-287992D01*
X-287402Y3639D01*
Y2458D01*
X-287992Y1868D01*
X-290353D01*
X-316535Y-4331D02*
Y-3150D01*
Y-3740D01*
X-320078D01*
X-319487Y-4331D01*
Y-1379D02*
X-320078Y-789D01*
Y392D01*
X-319487Y982D01*
X-317126D01*
X-316535Y392D01*
Y-789D01*
X-317126Y-1379D01*
X-319487D01*
Y2163D02*
X-320078Y2754D01*
Y3934D01*
X-319487Y4525D01*
X-317126D01*
X-316535Y3934D01*
Y2754D01*
X-317126Y2163D01*
X-319487D01*
X-466929Y-4626D02*
Y-3445D01*
Y-4036D01*
X-470471D01*
X-469881Y-4626D01*
Y-1674D02*
X-470471Y-1084D01*
Y97D01*
X-469881Y687D01*
X-467520D01*
X-466929Y97D01*
Y-1084D01*
X-467520Y-1674D01*
X-469881D01*
Y1868D02*
X-470471Y2458D01*
Y3639D01*
X-469881Y4229D01*
X-467520D01*
X-466929Y3639D01*
Y2458D01*
X-467520Y1868D01*
X-469881D01*
X-496063Y-4331D02*
Y-3150D01*
Y-3740D01*
X-499605D01*
X-499015Y-4331D01*
Y-1379D02*
X-499605Y-789D01*
Y392D01*
X-499015Y982D01*
X-496653D01*
X-496063Y392D01*
Y-789D01*
X-496653Y-1379D01*
X-499015D01*
Y2163D02*
X-499605Y2754D01*
Y3934D01*
X-499015Y4525D01*
X-496653D01*
X-496063Y3934D01*
Y2754D01*
X-496653Y2163D01*
X-499015D01*
X-646457Y-4626D02*
Y-3445D01*
Y-4036D01*
X-649999D01*
X-649408Y-4626D01*
Y-1674D02*
X-649999Y-1084D01*
Y97D01*
X-649408Y687D01*
X-647047D01*
X-646457Y97D01*
Y-1084D01*
X-647047Y-1674D01*
X-649408D01*
Y1868D02*
X-649999Y2458D01*
Y3639D01*
X-649408Y4229D01*
X-647047D01*
X-646457Y3639D01*
Y2458D01*
X-647047Y1868D01*
X-649408D01*
X-675591Y-4331D02*
Y-3150D01*
Y-3740D01*
X-679133D01*
X-678542Y-4331D01*
Y-1379D02*
X-679133Y-789D01*
Y392D01*
X-678542Y982D01*
X-676181D01*
X-675591Y392D01*
Y-789D01*
X-676181Y-1379D01*
X-678542D01*
Y2163D02*
X-679133Y2754D01*
Y3934D01*
X-678542Y4525D01*
X-676181D01*
X-675591Y3934D01*
Y2754D01*
X-676181Y2163D01*
X-678542D01*
X688975Y4331D02*
X685433D01*
Y2560D01*
X686023Y1969D01*
X688385D01*
X688975Y2560D01*
Y4331D01*
X685433Y789D02*
Y-392D01*
Y198D01*
X687794D01*
Y789D01*
X685433Y-2163D02*
Y-3934D01*
X686023Y-4525D01*
X686614Y-3934D01*
Y-2754D01*
X687204Y-2163D01*
X687794Y-2754D01*
Y-4525D01*
Y-8067D02*
Y-6296D01*
X687204Y-5705D01*
X686023D01*
X685433Y-6296D01*
Y-8067D01*
X688975Y-9248D02*
X685433D01*
X687204D01*
X687794Y-9838D01*
Y-11019D01*
X687204Y-11609D01*
X685433D01*
X687794Y-13380D02*
Y-14561D01*
X687204Y-15151D01*
X685433D01*
Y-13380D01*
X686023Y-12790D01*
X686614Y-13380D01*
Y-15151D01*
X687794Y-16332D02*
X685433D01*
X686614D01*
X687204Y-16922D01*
X687794Y-17513D01*
Y-18103D01*
X684252Y-21055D02*
Y-21645D01*
X684843Y-22235D01*
X687794D01*
Y-20464D01*
X687204Y-19874D01*
X686023D01*
X685433Y-20464D01*
Y-22235D01*
Y-23416D02*
Y-24597D01*
Y-24007D01*
X687794D01*
Y-23416D01*
X685433Y-26368D02*
X687794D01*
Y-28139D01*
X687204Y-28730D01*
X685433D01*
X684252Y-31091D02*
Y-31681D01*
X684843Y-32272D01*
X687794D01*
Y-30501D01*
X687204Y-29910D01*
X686023D01*
X685433Y-30501D01*
Y-32272D01*
X640156Y32382D02*
X636614D01*
Y30611D01*
X637205Y30020D01*
X639566D01*
X640156Y30611D01*
Y32382D01*
X636614Y28840D02*
Y27659D01*
Y28249D01*
X638976D01*
Y28840D01*
X636614Y25888D02*
Y24117D01*
X637205Y23527D01*
X637795Y24117D01*
Y25298D01*
X638385Y25888D01*
X638976Y25298D01*
Y23527D01*
Y19984D02*
Y21755D01*
X638385Y22346D01*
X637205D01*
X636614Y21755D01*
Y19984D01*
X640156Y18804D02*
X636614D01*
X638385D01*
X638976Y18213D01*
Y17033D01*
X638385Y16442D01*
X636614D01*
X638976Y14671D02*
Y13490D01*
X638385Y12900D01*
X636614D01*
Y14671D01*
X637205Y15261D01*
X637795Y14671D01*
Y12900D01*
X638976Y11719D02*
X636614D01*
X637795D01*
X638385Y11129D01*
X638976Y10539D01*
Y9948D01*
X635433Y6996D02*
Y6406D01*
X636024Y5816D01*
X638976D01*
Y7587D01*
X638385Y8177D01*
X637205D01*
X636614Y7587D01*
Y5816D01*
Y4635D02*
Y3454D01*
Y4045D01*
X638976D01*
Y4635D01*
X636614Y1683D02*
X638976D01*
Y-88D01*
X638385Y-678D01*
X636614D01*
X635433Y-3040D02*
Y-3630D01*
X636024Y-4220D01*
X638976D01*
Y-2449D01*
X638385Y-1859D01*
X637205D01*
X636614Y-2449D01*
Y-4220D01*
X509448Y4331D02*
X505905D01*
Y2560D01*
X506496Y1969D01*
X508857D01*
X509448Y2560D01*
Y4331D01*
X505905Y789D02*
Y-392D01*
Y198D01*
X508267D01*
Y789D01*
X505905Y-2163D02*
Y-3934D01*
X506496Y-4525D01*
X507086Y-3934D01*
Y-2754D01*
X507677Y-2163D01*
X508267Y-2754D01*
Y-4525D01*
Y-8067D02*
Y-6296D01*
X507677Y-5705D01*
X506496D01*
X505905Y-6296D01*
Y-8067D01*
X509448Y-9248D02*
X505905D01*
X507677D01*
X508267Y-9838D01*
Y-11019D01*
X507677Y-11609D01*
X505905D01*
X508267Y-13380D02*
Y-14561D01*
X507677Y-15151D01*
X505905D01*
Y-13380D01*
X506496Y-12790D01*
X507086Y-13380D01*
Y-15151D01*
X508267Y-16332D02*
X505905D01*
X507086D01*
X507677Y-16922D01*
X508267Y-17513D01*
Y-18103D01*
X504725Y-21055D02*
Y-21645D01*
X505315Y-22235D01*
X508267D01*
Y-20464D01*
X507677Y-19874D01*
X506496D01*
X505905Y-20464D01*
Y-22235D01*
Y-23416D02*
Y-24597D01*
Y-24007D01*
X508267D01*
Y-23416D01*
X505905Y-26368D02*
X508267D01*
Y-28139D01*
X507677Y-28730D01*
X505905D01*
X504725Y-31091D02*
Y-31681D01*
X505315Y-32272D01*
X508267D01*
Y-30501D01*
X507677Y-29910D01*
X506496D01*
X505905Y-30501D01*
Y-32272D01*
X460629Y32382D02*
X457087D01*
Y30611D01*
X457677Y30020D01*
X460038D01*
X460629Y30611D01*
Y32382D01*
X457087Y28840D02*
Y27659D01*
Y28249D01*
X459448D01*
Y28840D01*
X457087Y25888D02*
Y24117D01*
X457677Y23527D01*
X458267Y24117D01*
Y25298D01*
X458858Y25888D01*
X459448Y25298D01*
Y23527D01*
Y19984D02*
Y21755D01*
X458858Y22346D01*
X457677D01*
X457087Y21755D01*
Y19984D01*
X460629Y18804D02*
X457087D01*
X458858D01*
X459448Y18213D01*
Y17033D01*
X458858Y16442D01*
X457087D01*
X459448Y14671D02*
Y13490D01*
X458858Y12900D01*
X457087D01*
Y14671D01*
X457677Y15261D01*
X458267Y14671D01*
Y12900D01*
X459448Y11719D02*
X457087D01*
X458267D01*
X458858Y11129D01*
X459448Y10539D01*
Y9948D01*
X455906Y6996D02*
Y6406D01*
X456496Y5816D01*
X459448D01*
Y7587D01*
X458858Y8177D01*
X457677D01*
X457087Y7587D01*
Y5816D01*
Y4635D02*
Y3454D01*
Y4045D01*
X459448D01*
Y4635D01*
X457087Y1683D02*
X459448D01*
Y-88D01*
X458858Y-678D01*
X457087D01*
X455906Y-3040D02*
Y-3630D01*
X456496Y-4220D01*
X459448D01*
Y-2449D01*
X458858Y-1859D01*
X457677D01*
X457087Y-2449D01*
Y-4220D01*
X329920Y4331D02*
X326378D01*
Y2560D01*
X326968Y1969D01*
X329330D01*
X329920Y2560D01*
Y4331D01*
X326378Y789D02*
Y-392D01*
Y198D01*
X328739D01*
Y789D01*
X326378Y-2163D02*
Y-3934D01*
X326968Y-4525D01*
X327559Y-3934D01*
Y-2754D01*
X328149Y-2163D01*
X328739Y-2754D01*
Y-4525D01*
Y-8067D02*
Y-6296D01*
X328149Y-5705D01*
X326968D01*
X326378Y-6296D01*
Y-8067D01*
X329920Y-9248D02*
X326378D01*
X328149D01*
X328739Y-9838D01*
Y-11019D01*
X328149Y-11609D01*
X326378D01*
X328739Y-13380D02*
Y-14561D01*
X328149Y-15151D01*
X326378D01*
Y-13380D01*
X326968Y-12790D01*
X327559Y-13380D01*
Y-15151D01*
X328739Y-16332D02*
X326378D01*
X327559D01*
X328149Y-16922D01*
X328739Y-17513D01*
Y-18103D01*
X325197Y-21055D02*
Y-21645D01*
X325788Y-22235D01*
X328739D01*
Y-20464D01*
X328149Y-19874D01*
X326968D01*
X326378Y-20464D01*
Y-22235D01*
Y-23416D02*
Y-24597D01*
Y-24007D01*
X328739D01*
Y-23416D01*
X326378Y-26368D02*
X328739D01*
Y-28139D01*
X328149Y-28730D01*
X326378D01*
X325197Y-31091D02*
Y-31681D01*
X325788Y-32272D01*
X328739D01*
Y-30501D01*
X328149Y-29910D01*
X326968D01*
X326378Y-30501D01*
Y-32272D01*
X281101Y32382D02*
X277559D01*
Y30611D01*
X278149Y30020D01*
X280511D01*
X281101Y30611D01*
Y32382D01*
X277559Y28840D02*
Y27659D01*
Y28249D01*
X279921D01*
Y28840D01*
X277559Y25888D02*
Y24117D01*
X278149Y23527D01*
X278740Y24117D01*
Y25298D01*
X279330Y25888D01*
X279921Y25298D01*
Y23527D01*
Y19984D02*
Y21755D01*
X279330Y22346D01*
X278149D01*
X277559Y21755D01*
Y19984D01*
X281101Y18804D02*
X277559D01*
X279330D01*
X279921Y18213D01*
Y17033D01*
X279330Y16442D01*
X277559D01*
X279921Y14671D02*
Y13490D01*
X279330Y12900D01*
X277559D01*
Y14671D01*
X278149Y15261D01*
X278740Y14671D01*
Y12900D01*
X279921Y11719D02*
X277559D01*
X278740D01*
X279330Y11129D01*
X279921Y10539D01*
Y9948D01*
X276378Y6996D02*
Y6406D01*
X276969Y5816D01*
X279921D01*
Y7587D01*
X279330Y8177D01*
X278149D01*
X277559Y7587D01*
Y5816D01*
Y4635D02*
Y3454D01*
Y4045D01*
X279921D01*
Y4635D01*
X277559Y1683D02*
X279921D01*
Y-88D01*
X279330Y-678D01*
X277559D01*
X276378Y-3040D02*
Y-3630D01*
X276969Y-4220D01*
X279921D01*
Y-2449D01*
X279330Y-1859D01*
X278149D01*
X277559Y-2449D01*
Y-4220D01*
X150393Y4331D02*
X146850D01*
Y2560D01*
X147441Y1969D01*
X149802D01*
X150393Y2560D01*
Y4331D01*
X146850Y789D02*
Y-392D01*
Y198D01*
X149212D01*
Y789D01*
X146850Y-2163D02*
Y-3934D01*
X147441Y-4525D01*
X148031Y-3934D01*
Y-2754D01*
X148621Y-2163D01*
X149212Y-2754D01*
Y-4525D01*
Y-8067D02*
Y-6296D01*
X148621Y-5705D01*
X147441D01*
X146850Y-6296D01*
Y-8067D01*
X150393Y-9248D02*
X146850D01*
X148621D01*
X149212Y-9838D01*
Y-11019D01*
X148621Y-11609D01*
X146850D01*
X149212Y-13380D02*
Y-14561D01*
X148621Y-15151D01*
X146850D01*
Y-13380D01*
X147441Y-12790D01*
X148031Y-13380D01*
Y-15151D01*
X149212Y-16332D02*
X146850D01*
X148031D01*
X148621Y-16922D01*
X149212Y-17513D01*
Y-18103D01*
X145670Y-21055D02*
Y-21645D01*
X146260Y-22235D01*
X149212D01*
Y-20464D01*
X148621Y-19874D01*
X147441D01*
X146850Y-20464D01*
Y-22235D01*
Y-23416D02*
Y-24597D01*
Y-24007D01*
X149212D01*
Y-23416D01*
X146850Y-26368D02*
X149212D01*
Y-28139D01*
X148621Y-28730D01*
X146850D01*
X145670Y-31091D02*
Y-31681D01*
X146260Y-32272D01*
X149212D01*
Y-30501D01*
X148621Y-29910D01*
X147441D01*
X146850Y-30501D01*
Y-32272D01*
X101574Y32382D02*
X98032D01*
Y30611D01*
X98622Y30020D01*
X100983D01*
X101574Y30611D01*
Y32382D01*
X98032Y28840D02*
Y27659D01*
Y28249D01*
X100393D01*
Y28840D01*
X98032Y25888D02*
Y24117D01*
X98622Y23527D01*
X99212Y24117D01*
Y25298D01*
X99803Y25888D01*
X100393Y25298D01*
Y23527D01*
Y19984D02*
Y21755D01*
X99803Y22346D01*
X98622D01*
X98032Y21755D01*
Y19984D01*
X101574Y18804D02*
X98032D01*
X99803D01*
X100393Y18213D01*
Y17033D01*
X99803Y16442D01*
X98032D01*
X100393Y14671D02*
Y13490D01*
X99803Y12900D01*
X98032D01*
Y14671D01*
X98622Y15261D01*
X99212Y14671D01*
Y12900D01*
X100393Y11719D02*
X98032D01*
X99212D01*
X99803Y11129D01*
X100393Y10539D01*
Y9948D01*
X96851Y6996D02*
Y6406D01*
X97441Y5816D01*
X100393D01*
Y7587D01*
X99803Y8177D01*
X98622D01*
X98032Y7587D01*
Y5816D01*
Y4635D02*
Y3454D01*
Y4045D01*
X100393D01*
Y4635D01*
X98032Y1683D02*
X100393D01*
Y-88D01*
X99803Y-678D01*
X98032D01*
X96851Y-3040D02*
Y-3630D01*
X97441Y-4220D01*
X100393D01*
Y-2449D01*
X99803Y-1859D01*
X98622D01*
X98032Y-2449D01*
Y-4220D01*
X-101574Y-32382D02*
X-98032D01*
Y-30611D01*
X-98622Y-30020D01*
X-100983D01*
X-101574Y-30611D01*
Y-32382D01*
X-98032Y-28840D02*
Y-27659D01*
Y-28249D01*
X-100393D01*
Y-28840D01*
X-98032Y-25888D02*
Y-24117D01*
X-98622Y-23527D01*
X-99212Y-24117D01*
Y-25298D01*
X-99803Y-25888D01*
X-100393Y-25298D01*
Y-23527D01*
Y-19984D02*
Y-21755D01*
X-99803Y-22346D01*
X-98622D01*
X-98032Y-21755D01*
Y-19984D01*
X-101574Y-18804D02*
X-98032D01*
X-99803D01*
X-100393Y-18213D01*
Y-17033D01*
X-99803Y-16442D01*
X-98032D01*
X-100393Y-14671D02*
Y-13490D01*
X-99803Y-12900D01*
X-98032D01*
Y-14671D01*
X-98622Y-15261D01*
X-99212Y-14671D01*
Y-12900D01*
X-100393Y-11719D02*
X-98032D01*
X-99212D01*
X-99803Y-11129D01*
X-100393Y-10539D01*
Y-9948D01*
X-96851Y-6996D02*
Y-6406D01*
X-97441Y-5816D01*
X-100393D01*
Y-7587D01*
X-99803Y-8177D01*
X-98622D01*
X-98032Y-7587D01*
Y-5816D01*
Y-4635D02*
Y-3454D01*
Y-4045D01*
X-100393D01*
Y-4635D01*
X-98032Y-1683D02*
X-100393D01*
Y88D01*
X-99803Y678D01*
X-98032D01*
X-96851Y3040D02*
Y3630D01*
X-97441Y4220D01*
X-100393D01*
Y2449D01*
X-99803Y1859D01*
X-98622D01*
X-98032Y2449D01*
Y4220D01*
X-150393Y-4331D02*
X-146850D01*
Y-2560D01*
X-147441Y-1969D01*
X-149802D01*
X-150393Y-2560D01*
Y-4331D01*
X-146850Y-789D02*
Y392D01*
Y-198D01*
X-149212D01*
Y-789D01*
X-146850Y2163D02*
Y3934D01*
X-147441Y4525D01*
X-148031Y3934D01*
Y2754D01*
X-148621Y2163D01*
X-149212Y2754D01*
Y4525D01*
Y8067D02*
Y6296D01*
X-148621Y5705D01*
X-147441D01*
X-146850Y6296D01*
Y8067D01*
X-150393Y9248D02*
X-146850D01*
X-148621D01*
X-149212Y9838D01*
Y11019D01*
X-148621Y11609D01*
X-146850D01*
X-149212Y13380D02*
Y14561D01*
X-148621Y15151D01*
X-146850D01*
Y13380D01*
X-147441Y12790D01*
X-148031Y13380D01*
Y15151D01*
X-149212Y16332D02*
X-146850D01*
X-148031D01*
X-148621Y16922D01*
X-149212Y17513D01*
Y18103D01*
X-145670Y21055D02*
Y21645D01*
X-146260Y22235D01*
X-149212D01*
Y20464D01*
X-148621Y19874D01*
X-147441D01*
X-146850Y20464D01*
Y22235D01*
Y23416D02*
Y24597D01*
Y24007D01*
X-149212D01*
Y23416D01*
X-146850Y26368D02*
X-149212D01*
Y28139D01*
X-148621Y28730D01*
X-146850D01*
X-145670Y31091D02*
Y31681D01*
X-146260Y32272D01*
X-149212D01*
Y30501D01*
X-148621Y29910D01*
X-147441D01*
X-146850Y30501D01*
Y32272D01*
X-281101Y-32382D02*
X-277559D01*
Y-30611D01*
X-278149Y-30020D01*
X-280511D01*
X-281101Y-30611D01*
Y-32382D01*
X-277559Y-28840D02*
Y-27659D01*
Y-28249D01*
X-279921D01*
Y-28840D01*
X-277559Y-25888D02*
Y-24117D01*
X-278149Y-23527D01*
X-278740Y-24117D01*
Y-25298D01*
X-279330Y-25888D01*
X-279921Y-25298D01*
Y-23527D01*
Y-19984D02*
Y-21755D01*
X-279330Y-22346D01*
X-278149D01*
X-277559Y-21755D01*
Y-19984D01*
X-281101Y-18804D02*
X-277559D01*
X-279330D01*
X-279921Y-18213D01*
Y-17033D01*
X-279330Y-16442D01*
X-277559D01*
X-279921Y-14671D02*
Y-13490D01*
X-279330Y-12900D01*
X-277559D01*
Y-14671D01*
X-278149Y-15261D01*
X-278740Y-14671D01*
Y-12900D01*
X-279921Y-11719D02*
X-277559D01*
X-278740D01*
X-279330Y-11129D01*
X-279921Y-10539D01*
Y-9948D01*
X-276378Y-6996D02*
Y-6406D01*
X-276969Y-5816D01*
X-279921D01*
Y-7587D01*
X-279330Y-8177D01*
X-278149D01*
X-277559Y-7587D01*
Y-5816D01*
Y-4635D02*
Y-3454D01*
Y-4045D01*
X-279921D01*
Y-4635D01*
X-277559Y-1683D02*
X-279921D01*
Y88D01*
X-279330Y678D01*
X-277559D01*
X-276378Y3040D02*
Y3630D01*
X-276969Y4220D01*
X-279921D01*
Y2449D01*
X-279330Y1859D01*
X-278149D01*
X-277559Y2449D01*
Y4220D01*
X-329920Y-4331D02*
X-326378D01*
Y-2560D01*
X-326968Y-1969D01*
X-329330D01*
X-329920Y-2560D01*
Y-4331D01*
X-326378Y-789D02*
Y392D01*
Y-198D01*
X-328739D01*
Y-789D01*
X-326378Y2163D02*
Y3934D01*
X-326968Y4525D01*
X-327559Y3934D01*
Y2754D01*
X-328149Y2163D01*
X-328739Y2754D01*
Y4525D01*
Y8067D02*
Y6296D01*
X-328149Y5705D01*
X-326968D01*
X-326378Y6296D01*
Y8067D01*
X-329920Y9248D02*
X-326378D01*
X-328149D01*
X-328739Y9838D01*
Y11019D01*
X-328149Y11609D01*
X-326378D01*
X-328739Y13380D02*
Y14561D01*
X-328149Y15151D01*
X-326378D01*
Y13380D01*
X-326968Y12790D01*
X-327559Y13380D01*
Y15151D01*
X-328739Y16332D02*
X-326378D01*
X-327559D01*
X-328149Y16922D01*
X-328739Y17513D01*
Y18103D01*
X-325197Y21055D02*
Y21645D01*
X-325788Y22235D01*
X-328739D01*
Y20464D01*
X-328149Y19874D01*
X-326968D01*
X-326378Y20464D01*
Y22235D01*
Y23416D02*
Y24597D01*
Y24007D01*
X-328739D01*
Y23416D01*
X-326378Y26368D02*
X-328739D01*
Y28139D01*
X-328149Y28730D01*
X-326378D01*
X-325197Y31091D02*
Y31681D01*
X-325788Y32272D01*
X-328739D01*
Y30501D01*
X-328149Y29910D01*
X-326968D01*
X-326378Y30501D01*
Y32272D01*
X-460629Y-32382D02*
X-457087D01*
Y-30611D01*
X-457677Y-30020D01*
X-460038D01*
X-460629Y-30611D01*
Y-32382D01*
X-457087Y-28840D02*
Y-27659D01*
Y-28249D01*
X-459448D01*
Y-28840D01*
X-457087Y-25888D02*
Y-24117D01*
X-457677Y-23527D01*
X-458267Y-24117D01*
Y-25298D01*
X-458858Y-25888D01*
X-459448Y-25298D01*
Y-23527D01*
Y-19984D02*
Y-21755D01*
X-458858Y-22346D01*
X-457677D01*
X-457087Y-21755D01*
Y-19984D01*
X-460629Y-18804D02*
X-457087D01*
X-458858D01*
X-459448Y-18213D01*
Y-17032D01*
X-458858Y-16442D01*
X-457087D01*
X-459448Y-14671D02*
Y-13490D01*
X-458858Y-12900D01*
X-457087D01*
Y-14671D01*
X-457677Y-15261D01*
X-458267Y-14671D01*
Y-12900D01*
X-459448Y-11719D02*
X-457087D01*
X-458267D01*
X-458858Y-11129D01*
X-459448Y-10539D01*
Y-9948D01*
X-455906Y-6996D02*
Y-6406D01*
X-456496Y-5816D01*
X-459448D01*
Y-7587D01*
X-458858Y-8177D01*
X-457677D01*
X-457087Y-7587D01*
Y-5816D01*
Y-4635D02*
Y-3454D01*
Y-4045D01*
X-459448D01*
Y-4635D01*
X-457087Y-1683D02*
X-459448D01*
Y88D01*
X-458858Y678D01*
X-457087D01*
X-455906Y3040D02*
Y3630D01*
X-456496Y4220D01*
X-459448D01*
Y2449D01*
X-458858Y1859D01*
X-457677D01*
X-457087Y2449D01*
Y4220D01*
X-509448Y-4331D02*
X-505905D01*
Y-2560D01*
X-506496Y-1969D01*
X-508857D01*
X-509448Y-2560D01*
Y-4331D01*
X-505905Y-789D02*
Y392D01*
Y-198D01*
X-508267D01*
Y-789D01*
X-505905Y2163D02*
Y3934D01*
X-506496Y4525D01*
X-507086Y3934D01*
Y2754D01*
X-507677Y2163D01*
X-508267Y2754D01*
Y4525D01*
Y8067D02*
Y6296D01*
X-507677Y5705D01*
X-506496D01*
X-505905Y6296D01*
Y8067D01*
X-509448Y9248D02*
X-505905D01*
X-507677D01*
X-508267Y9838D01*
Y11019D01*
X-507677Y11609D01*
X-505905D01*
X-508267Y13380D02*
Y14561D01*
X-507677Y15151D01*
X-505905D01*
Y13380D01*
X-506496Y12790D01*
X-507086Y13380D01*
Y15151D01*
X-508267Y16332D02*
X-505905D01*
X-507086D01*
X-507677Y16922D01*
X-508267Y17513D01*
Y18103D01*
X-504725Y21055D02*
Y21645D01*
X-505315Y22235D01*
X-508267D01*
Y20464D01*
X-507677Y19874D01*
X-506496D01*
X-505905Y20464D01*
Y22235D01*
Y23416D02*
Y24597D01*
Y24007D01*
X-508267D01*
Y23416D01*
X-505905Y26368D02*
X-508267D01*
Y28139D01*
X-507677Y28730D01*
X-505905D01*
X-504725Y31091D02*
Y31681D01*
X-505315Y32272D01*
X-508267D01*
Y30501D01*
X-507677Y29910D01*
X-506496D01*
X-505905Y30501D01*
Y32272D01*
X-640156Y-32382D02*
X-636614D01*
Y-30611D01*
X-637205Y-30020D01*
X-639566D01*
X-640156Y-30611D01*
Y-32382D01*
X-636614Y-28840D02*
Y-27659D01*
Y-28249D01*
X-638976D01*
Y-28840D01*
X-636614Y-25888D02*
Y-24117D01*
X-637205Y-23527D01*
X-637795Y-24117D01*
Y-25298D01*
X-638385Y-25888D01*
X-638976Y-25298D01*
Y-23527D01*
Y-19984D02*
Y-21755D01*
X-638385Y-22346D01*
X-637205D01*
X-636614Y-21755D01*
Y-19984D01*
X-640156Y-18804D02*
X-636614D01*
X-638385D01*
X-638976Y-18213D01*
Y-17032D01*
X-638385Y-16442D01*
X-636614D01*
X-638976Y-14671D02*
Y-13490D01*
X-638385Y-12900D01*
X-636614D01*
Y-14671D01*
X-637205Y-15261D01*
X-637795Y-14671D01*
Y-12900D01*
X-638976Y-11719D02*
X-636614D01*
X-637795D01*
X-638385Y-11129D01*
X-638976Y-10539D01*
Y-9948D01*
X-635433Y-6996D02*
Y-6406D01*
X-636024Y-5816D01*
X-638976D01*
Y-7587D01*
X-638385Y-8177D01*
X-637205D01*
X-636614Y-7587D01*
Y-5816D01*
Y-4635D02*
Y-3454D01*
Y-4045D01*
X-638976D01*
Y-4635D01*
X-636614Y-1683D02*
X-638976D01*
Y88D01*
X-638385Y678D01*
X-636614D01*
X-635433Y3040D02*
Y3630D01*
X-636024Y4220D01*
X-638976D01*
Y2449D01*
X-638385Y1859D01*
X-637205D01*
X-636614Y2449D01*
Y4220D01*
X-688975Y-4331D02*
X-685433D01*
Y-2560D01*
X-686023Y-1969D01*
X-688385D01*
X-688975Y-2560D01*
Y-4331D01*
X-685433Y-789D02*
Y392D01*
Y-198D01*
X-687794D01*
Y-789D01*
X-685433Y2163D02*
Y3934D01*
X-686023Y4525D01*
X-686614Y3934D01*
Y2754D01*
X-687204Y2163D01*
X-687794Y2754D01*
Y4525D01*
Y8067D02*
Y6296D01*
X-687204Y5705D01*
X-686023D01*
X-685433Y6296D01*
Y8067D01*
X-688975Y9248D02*
X-685433D01*
X-687204D01*
X-687794Y9838D01*
Y11019D01*
X-687204Y11609D01*
X-685433D01*
X-687794Y13380D02*
Y14561D01*
X-687204Y15151D01*
X-685433D01*
Y13380D01*
X-686023Y12790D01*
X-686614Y13380D01*
Y15151D01*
X-687794Y16332D02*
X-685433D01*
X-686614D01*
X-687204Y16922D01*
X-687794Y17513D01*
Y18103D01*
X-684252Y21055D02*
Y21645D01*
X-684843Y22235D01*
X-687794D01*
Y20464D01*
X-687204Y19874D01*
X-686023D01*
X-685433Y20464D01*
Y22235D01*
Y23416D02*
Y24597D01*
Y24007D01*
X-687794D01*
Y23416D01*
X-685433Y26368D02*
X-687794D01*
Y28139D01*
X-687204Y28730D01*
X-685433D01*
X-684252Y31091D02*
Y31681D01*
X-684843Y32272D01*
X-687794D01*
Y30501D01*
X-687204Y29910D01*
X-686023D01*
X-685433Y30501D01*
Y32272D01*
X705512Y25296D02*
Y27657D01*
X707873Y25296D01*
X708464D01*
X709054Y25886D01*
Y27067D01*
X708464Y27657D01*
X705512Y24115D02*
X706102D01*
Y23525D01*
X705512D01*
Y24115D01*
X709054Y18802D02*
Y21163D01*
X707283D01*
X707873Y19983D01*
Y19392D01*
X707283Y18802D01*
X706102D01*
X705512Y19392D01*
Y20573D01*
X706102Y21163D01*
X705512Y17621D02*
X707873D01*
X709054Y16441D01*
X707873Y15260D01*
X705512D01*
X707283D01*
Y17621D01*
X616142Y-18503D02*
Y-16142D01*
X618503Y-18503D01*
X619094D01*
X619684Y-17913D01*
Y-16732D01*
X619094Y-16142D01*
X616142Y-19684D02*
X616732D01*
Y-20274D01*
X616142D01*
Y-19684D01*
X619684Y-24997D02*
Y-22636D01*
X617913D01*
X618503Y-23816D01*
Y-24407D01*
X617913Y-24997D01*
X616732D01*
X616142Y-24407D01*
Y-23226D01*
X616732Y-22636D01*
X616142Y-26178D02*
X618503D01*
X619684Y-27359D01*
X618503Y-28539D01*
X616142D01*
X617913D01*
Y-26178D01*
X525984Y25296D02*
Y27657D01*
X528346Y25296D01*
X528936D01*
X529526Y25886D01*
Y27067D01*
X528936Y27657D01*
X525984Y24115D02*
X526575D01*
Y23525D01*
X525984D01*
Y24115D01*
X529526Y18802D02*
Y21163D01*
X527755D01*
X528346Y19983D01*
Y19392D01*
X527755Y18802D01*
X526575D01*
X525984Y19392D01*
Y20573D01*
X526575Y21163D01*
X525984Y17621D02*
X528346D01*
X529526Y16441D01*
X528346Y15260D01*
X525984D01*
X527755D01*
Y17621D01*
X436614Y-18503D02*
Y-16142D01*
X438976Y-18503D01*
X439566D01*
X440156Y-17913D01*
Y-16732D01*
X439566Y-16142D01*
X436614Y-19684D02*
X437205D01*
Y-20274D01*
X436614D01*
Y-19684D01*
X440156Y-24997D02*
Y-22636D01*
X438385D01*
X438976Y-23816D01*
Y-24407D01*
X438385Y-24997D01*
X437205D01*
X436614Y-24407D01*
Y-23226D01*
X437205Y-22636D01*
X436614Y-26178D02*
X438976D01*
X440156Y-27359D01*
X438976Y-28539D01*
X436614D01*
X438385D01*
Y-26178D01*
X346457Y25296D02*
Y27657D01*
X348818Y25296D01*
X349409D01*
X349999Y25886D01*
Y27067D01*
X349409Y27657D01*
X346457Y24115D02*
X347047D01*
Y23525D01*
X346457D01*
Y24115D01*
X349999Y18802D02*
Y21163D01*
X348228D01*
X348818Y19983D01*
Y19392D01*
X348228Y18802D01*
X347047D01*
X346457Y19392D01*
Y20573D01*
X347047Y21163D01*
X346457Y17621D02*
X348818D01*
X349999Y16441D01*
X348818Y15260D01*
X346457D01*
X348228D01*
Y17621D01*
X257087Y-18503D02*
Y-16142D01*
X259448Y-18503D01*
X260038D01*
X260629Y-17913D01*
Y-16732D01*
X260038Y-16142D01*
X257087Y-19684D02*
X257677D01*
Y-20274D01*
X257087D01*
Y-19684D01*
X260629Y-24997D02*
Y-22636D01*
X258858D01*
X259448Y-23816D01*
Y-24407D01*
X258858Y-24997D01*
X257677D01*
X257087Y-24407D01*
Y-23226D01*
X257677Y-22636D01*
X257087Y-26178D02*
X259448D01*
X260629Y-27359D01*
X259448Y-28539D01*
X257087D01*
X258858D01*
Y-26178D01*
X166929Y25296D02*
Y27657D01*
X169291Y25296D01*
X169881D01*
X170471Y25886D01*
Y27067D01*
X169881Y27657D01*
X166929Y24115D02*
X167519D01*
Y23525D01*
X166929D01*
Y24115D01*
X170471Y18802D02*
Y21163D01*
X168700D01*
X169291Y19983D01*
Y19392D01*
X168700Y18802D01*
X167519D01*
X166929Y19392D01*
Y20573D01*
X167519Y21163D01*
X166929Y17621D02*
X169291D01*
X170471Y16441D01*
X169291Y15260D01*
X166929D01*
X168700D01*
Y17621D01*
X77559Y-18503D02*
Y-16142D01*
X79921Y-18503D01*
X80511D01*
X81101Y-17913D01*
Y-16732D01*
X80511Y-16142D01*
X77559Y-19684D02*
X78149D01*
Y-20274D01*
X77559D01*
Y-19684D01*
X81101Y-24997D02*
Y-22636D01*
X79330D01*
X79921Y-23816D01*
Y-24407D01*
X79330Y-24997D01*
X78149D01*
X77559Y-24407D01*
Y-23226D01*
X78149Y-22636D01*
X77559Y-26178D02*
X79921D01*
X81101Y-27359D01*
X79921Y-28539D01*
X77559D01*
X79330D01*
Y-26178D01*
X-77559Y18503D02*
Y16142D01*
X-79921Y18503D01*
X-80511D01*
X-81101Y17913D01*
Y16732D01*
X-80511Y16142D01*
X-77559Y19684D02*
X-78149D01*
Y20274D01*
X-77559D01*
Y19684D01*
X-81101Y24997D02*
Y22636D01*
X-79330D01*
X-79921Y23816D01*
Y24407D01*
X-79330Y24997D01*
X-78149D01*
X-77559Y24407D01*
Y23226D01*
X-78149Y22636D01*
X-77559Y26178D02*
X-79921D01*
X-81101Y27359D01*
X-79921Y28539D01*
X-77559D01*
X-79330D01*
Y26178D01*
X-166929Y-25296D02*
Y-27657D01*
X-169291Y-25296D01*
X-169881D01*
X-170471Y-25886D01*
Y-27067D01*
X-169881Y-27657D01*
X-166929Y-24115D02*
X-167519D01*
Y-23525D01*
X-166929D01*
Y-24115D01*
X-170471Y-18802D02*
Y-21163D01*
X-168700D01*
X-169291Y-19983D01*
Y-19392D01*
X-168700Y-18802D01*
X-167519D01*
X-166929Y-19392D01*
Y-20573D01*
X-167519Y-21163D01*
X-166929Y-17621D02*
X-169291D01*
X-170471Y-16441D01*
X-169291Y-15260D01*
X-166929D01*
X-168700D01*
Y-17621D01*
X-257087Y18503D02*
Y16142D01*
X-259448Y18503D01*
X-260038D01*
X-260629Y17913D01*
Y16732D01*
X-260038Y16142D01*
X-257087Y19684D02*
X-257677D01*
Y20274D01*
X-257087D01*
Y19684D01*
X-260629Y24997D02*
Y22636D01*
X-258858D01*
X-259448Y23816D01*
Y24407D01*
X-258858Y24997D01*
X-257677D01*
X-257087Y24407D01*
Y23226D01*
X-257677Y22636D01*
X-257087Y26178D02*
X-259448D01*
X-260629Y27359D01*
X-259448Y28539D01*
X-257087D01*
X-258858D01*
Y26178D01*
X-346457Y-25296D02*
Y-27657D01*
X-348818Y-25296D01*
X-349409D01*
X-349999Y-25886D01*
Y-27067D01*
X-349409Y-27657D01*
X-346457Y-24115D02*
X-347047D01*
Y-23525D01*
X-346457D01*
Y-24115D01*
X-349999Y-18802D02*
Y-21163D01*
X-348228D01*
X-348818Y-19983D01*
Y-19392D01*
X-348228Y-18802D01*
X-347047D01*
X-346457Y-19392D01*
Y-20573D01*
X-347047Y-21163D01*
X-346457Y-17621D02*
X-348818D01*
X-349999Y-16441D01*
X-348818Y-15260D01*
X-346457D01*
X-348228D01*
Y-17621D01*
X-436614Y18503D02*
Y16142D01*
X-438976Y18503D01*
X-439566D01*
X-440156Y17913D01*
Y16732D01*
X-439566Y16142D01*
X-436614Y19684D02*
X-437205D01*
Y20274D01*
X-436614D01*
Y19684D01*
X-440156Y24997D02*
Y22636D01*
X-438385D01*
X-438976Y23816D01*
Y24407D01*
X-438385Y24997D01*
X-437205D01*
X-436614Y24407D01*
Y23226D01*
X-437205Y22636D01*
X-436614Y26178D02*
X-438976D01*
X-440156Y27359D01*
X-438976Y28539D01*
X-436614D01*
X-438385D01*
Y26178D01*
X-525984Y-25296D02*
Y-27657D01*
X-528346Y-25296D01*
X-528936D01*
X-529526Y-25886D01*
Y-27067D01*
X-528936Y-27657D01*
X-525984Y-24115D02*
X-526575D01*
Y-23525D01*
X-525984D01*
Y-24115D01*
X-529526Y-18802D02*
Y-21163D01*
X-527755D01*
X-528346Y-19983D01*
Y-19392D01*
X-527755Y-18802D01*
X-526575D01*
X-525984Y-19392D01*
Y-20573D01*
X-526575Y-21163D01*
X-525984Y-17621D02*
X-528346D01*
X-529526Y-16441D01*
X-528346Y-15260D01*
X-525984D01*
X-527755D01*
Y-17621D01*
X-616142Y18503D02*
Y16142D01*
X-618503Y18503D01*
X-619094D01*
X-619684Y17913D01*
Y16732D01*
X-619094Y16142D01*
X-616142Y19684D02*
X-616732D01*
Y20274D01*
X-616142D01*
Y19684D01*
X-619684Y24997D02*
Y22636D01*
X-617913D01*
X-618503Y23816D01*
Y24407D01*
X-617913Y24997D01*
X-616732D01*
X-616142Y24407D01*
Y23226D01*
X-616732Y22636D01*
X-616142Y26178D02*
X-618503D01*
X-619684Y27359D01*
X-618503Y28539D01*
X-616142D01*
X-617913D01*
Y26178D01*
X-705512Y-25296D02*
Y-27657D01*
X-707873Y-25296D01*
X-708464D01*
X-709054Y-25886D01*
Y-27067D01*
X-708464Y-27657D01*
X-705512Y-24115D02*
X-706102D01*
Y-23525D01*
X-705512D01*
Y-24115D01*
X-709054Y-18802D02*
Y-21163D01*
X-707283D01*
X-707873Y-19983D01*
Y-19392D01*
X-707283Y-18802D01*
X-706102D01*
X-705512Y-19392D01*
Y-20573D01*
X-706102Y-21163D01*
X-705512Y-17621D02*
X-707873D01*
X-709054Y-16441D01*
X-707873Y-15260D01*
X-705512D01*
X-707283D01*
Y-17621D01*
X670669Y4331D02*
Y3150D01*
Y3740D01*
X674212D01*
X673621Y4331D01*
Y1379D02*
X674212Y789D01*
Y-392D01*
X673621Y-982D01*
X671260D01*
X670669Y-392D01*
Y789D01*
X671260Y1379D01*
X673621D01*
X670669Y-2163D02*
X673031D01*
Y-3934D01*
X672440Y-4525D01*
X670669D01*
X651378Y4528D02*
Y3347D01*
Y3937D01*
X654920D01*
X654330Y4528D01*
Y1576D02*
X654920Y985D01*
Y-195D01*
X654330Y-786D01*
X651968D01*
X651378Y-195D01*
Y985D01*
X651968Y1576D01*
X654330D01*
X651378Y-1966D02*
X653739D01*
Y-3737D01*
X653149Y-4328D01*
X651378D01*
X491142Y4331D02*
Y3150D01*
Y3740D01*
X494684D01*
X494094Y4331D01*
Y1379D02*
X494684Y789D01*
Y-392D01*
X494094Y-982D01*
X491732D01*
X491142Y-392D01*
Y789D01*
X491732Y1379D01*
X494094D01*
X491142Y-2163D02*
X493503D01*
Y-3934D01*
X492913Y-4525D01*
X491142D01*
X471850Y4528D02*
Y3347D01*
Y3937D01*
X475392D01*
X474802Y4528D01*
Y1576D02*
X475392Y985D01*
Y-195D01*
X474802Y-786D01*
X472441D01*
X471850Y-195D01*
Y985D01*
X472441Y1576D01*
X474802D01*
X471850Y-1966D02*
X474212D01*
Y-3737D01*
X473622Y-4328D01*
X471850D01*
X311614Y4331D02*
Y3150D01*
Y3740D01*
X315156D01*
X314566Y4331D01*
Y1379D02*
X315156Y789D01*
Y-392D01*
X314566Y-982D01*
X312205D01*
X311614Y-392D01*
Y789D01*
X312205Y1379D01*
X314566D01*
X311614Y-2163D02*
X313976D01*
Y-3934D01*
X313385Y-4525D01*
X311614D01*
X292323Y4528D02*
Y3347D01*
Y3937D01*
X295865D01*
X295275Y4528D01*
Y1576D02*
X295865Y985D01*
Y-195D01*
X295275Y-786D01*
X292913D01*
X292323Y-195D01*
Y985D01*
X292913Y1576D01*
X295275D01*
X292323Y-1966D02*
X294684D01*
Y-3737D01*
X294094Y-4328D01*
X292323D01*
X132087Y4331D02*
Y3150D01*
Y3740D01*
X135629D01*
X135038Y4331D01*
Y1379D02*
X135629Y789D01*
Y-392D01*
X135038Y-982D01*
X132677D01*
X132087Y-392D01*
Y789D01*
X132677Y1379D01*
X135038D01*
X132087Y-2163D02*
X134448D01*
Y-3934D01*
X133858Y-4525D01*
X132087D01*
X112795Y4528D02*
Y3347D01*
Y3937D01*
X116337D01*
X115747Y4528D01*
Y1576D02*
X116337Y985D01*
Y-195D01*
X115747Y-786D01*
X113386D01*
X112795Y-195D01*
Y985D01*
X113386Y1576D01*
X115747D01*
X112795Y-1966D02*
X115157D01*
Y-3737D01*
X114566Y-4328D01*
X112795D01*
X-112795Y-4528D02*
Y-3347D01*
Y-3937D01*
X-116337D01*
X-115747Y-4528D01*
Y-1576D02*
X-116337Y-985D01*
Y195D01*
X-115747Y786D01*
X-113386D01*
X-112795Y195D01*
Y-985D01*
X-113386Y-1576D01*
X-115747D01*
X-112795Y1966D02*
X-115157D01*
Y3737D01*
X-114566Y4328D01*
X-112795D01*
X-132087Y-4331D02*
Y-3150D01*
Y-3740D01*
X-135629D01*
X-135038Y-4331D01*
Y-1379D02*
X-135629Y-789D01*
Y392D01*
X-135038Y982D01*
X-132677D01*
X-132087Y392D01*
Y-789D01*
X-132677Y-1379D01*
X-135038D01*
X-132087Y2163D02*
X-134448D01*
Y3934D01*
X-133858Y4525D01*
X-132087D01*
X-292323Y-4528D02*
Y-3347D01*
Y-3937D01*
X-295865D01*
X-295275Y-4528D01*
Y-1576D02*
X-295865Y-985D01*
Y195D01*
X-295275Y786D01*
X-292913D01*
X-292323Y195D01*
Y-985D01*
X-292913Y-1576D01*
X-295275D01*
X-292323Y1966D02*
X-294684D01*
Y3737D01*
X-294094Y4328D01*
X-292323D01*
X-311614Y-4331D02*
Y-3150D01*
Y-3740D01*
X-315156D01*
X-314566Y-4331D01*
Y-1379D02*
X-315156Y-789D01*
Y392D01*
X-314566Y982D01*
X-312205D01*
X-311614Y392D01*
Y-789D01*
X-312205Y-1379D01*
X-314566D01*
X-311614Y2163D02*
X-313976D01*
Y3934D01*
X-313385Y4525D01*
X-311614D01*
X-471850Y-4528D02*
Y-3347D01*
Y-3937D01*
X-475392D01*
X-474802Y-4528D01*
Y-1576D02*
X-475392Y-985D01*
Y195D01*
X-474802Y786D01*
X-472441D01*
X-471850Y195D01*
Y-985D01*
X-472441Y-1576D01*
X-474802D01*
X-471850Y1966D02*
X-474212D01*
Y3737D01*
X-473622Y4328D01*
X-471850D01*
X-491142Y-4331D02*
Y-3150D01*
Y-3740D01*
X-494684D01*
X-494094Y-4331D01*
Y-1379D02*
X-494684Y-789D01*
Y392D01*
X-494094Y982D01*
X-491732D01*
X-491142Y392D01*
Y-789D01*
X-491732Y-1379D01*
X-494094D01*
X-491142Y2163D02*
X-493503D01*
Y3934D01*
X-492913Y4525D01*
X-491142D01*
X-651378Y-4528D02*
Y-3347D01*
Y-3937D01*
X-654920D01*
X-654330Y-4528D01*
Y-1576D02*
X-654920Y-985D01*
Y195D01*
X-654330Y786D01*
X-651968D01*
X-651378Y195D01*
Y-985D01*
X-651968Y-1576D01*
X-654330D01*
X-651378Y1966D02*
X-653739D01*
Y3737D01*
X-653149Y4328D01*
X-651378D01*
X-670669Y-4331D02*
Y-3150D01*
Y-3740D01*
X-674212D01*
X-673621Y-4331D01*
Y-1379D02*
X-674212Y-789D01*
Y392D01*
X-673621Y982D01*
X-671260D01*
X-670669Y392D01*
Y-789D01*
X-671260Y-1379D01*
X-673621D01*
X-670669Y2163D02*
X-673031D01*
Y3934D01*
X-672440Y4525D01*
X-670669D01*
D13*
X679921Y57810D02*
X686221D01*
Y54660D02*
Y57810D01*
X679921Y54660D02*
X686221D01*
X679921D02*
Y57810D01*
X41339Y-3150D02*
Y3150D01*
X44488D01*
Y-3150D02*
Y3150D01*
X41339Y-3150D02*
X44488D01*
X16142Y48030D02*
Y51179D01*
Y48030D02*
X19291D01*
Y51180D01*
X24316Y48030D02*
Y54330D01*
X21167Y48030D02*
X24316D01*
X21167D02*
Y54330D01*
X24316D01*
X-40945Y92913D02*
X-34646D01*
X-40945D02*
Y96063D01*
X-34646D01*
Y92913D02*
Y96063D01*
X-44488Y-3150D02*
Y3150D01*
X-41339D01*
Y-3150D02*
Y3150D01*
X-44488Y-3150D02*
X-41339D01*
X-11024Y-25939D02*
X-4724D01*
X-11024D02*
Y-22789D01*
X-4724D01*
Y-25939D02*
Y-22789D01*
X-30709Y48030D02*
Y51179D01*
Y48030D02*
X-27559D01*
Y51180D01*
X-22723Y48031D02*
Y54331D01*
X-25872Y48031D02*
X-22723D01*
X-25872D02*
Y54331D01*
X-22723D01*
X12598Y17717D02*
X15748D01*
X12598Y11417D02*
Y17717D01*
Y11417D02*
X15748D01*
Y17717D01*
X23622D02*
X26772D01*
Y11417D02*
Y17717D01*
X23622Y11417D02*
Y17717D01*
Y11417D02*
X26772D01*
X18110D02*
X21260D01*
Y17717D01*
X18110D02*
X21260D01*
X18110Y11417D02*
Y17717D01*
X-9055Y-63386D02*
X-5906D01*
X-9055D02*
Y-57087D01*
X-5906Y-63386D02*
Y-57087D01*
X-9055D02*
X-5906D01*
X112795Y-14370D02*
X115945D01*
X112795D02*
Y-8071D01*
X115945Y-14370D02*
Y-8071D01*
X112795D02*
X115945D01*
X98032Y-14370D02*
Y-11221D01*
Y-14370D02*
X101181D01*
Y-11220D01*
X107874Y-8072D02*
X111024D01*
Y-14371D02*
Y-8072D01*
X107874Y-14371D02*
Y-8072D01*
Y-14371D02*
X111024D01*
X102953Y-14370D02*
X106102D01*
X102953D02*
Y-8071D01*
X106102Y-14370D02*
Y-8071D01*
X102953D02*
X106102D01*
X68012Y-49606D02*
Y-46457D01*
X61713Y-49606D02*
X68012D01*
X61713Y-46457D02*
X68012D01*
X61713Y-49606D02*
Y-46457D01*
X651378Y-14370D02*
X654528D01*
X651378D02*
Y-8071D01*
X654528Y-14370D02*
Y-8071D01*
X651378D02*
X654528D01*
X636614Y-14370D02*
Y-11221D01*
Y-14370D02*
X639764D01*
Y-11220D01*
X646457Y-8072D02*
X649606D01*
Y-14371D02*
Y-8072D01*
X646457Y-14371D02*
Y-8072D01*
Y-14371D02*
X649606D01*
X641535Y-14370D02*
X644685D01*
X641535D02*
Y-8071D01*
X644685Y-14370D02*
Y-8071D01*
X641535D02*
X644685D01*
X606595Y-49606D02*
Y-46457D01*
X600295Y-49606D02*
X606595D01*
X600295Y-46457D02*
X606595D01*
X600295Y-49606D02*
Y-46457D01*
X292323Y-14370D02*
X295472D01*
X292323D02*
Y-8071D01*
X295472Y-14370D02*
Y-8071D01*
X292323D02*
X295472D01*
X277559Y-14370D02*
Y-11221D01*
Y-14370D02*
X280709D01*
Y-11220D01*
X287402Y-8072D02*
X290551D01*
Y-14371D02*
Y-8072D01*
X287402Y-14371D02*
Y-8072D01*
Y-14371D02*
X290551D01*
X282480Y-14370D02*
X285630D01*
X282480D02*
Y-8071D01*
X285630Y-14370D02*
Y-8071D01*
X282480D02*
X285630D01*
X247539Y-49606D02*
Y-46457D01*
X241240Y-49606D02*
X247539D01*
X241240Y-46457D02*
X247539D01*
X241240Y-49606D02*
Y-46457D01*
X471850Y-14370D02*
X475000D01*
X471850D02*
Y-8071D01*
X475000Y-14370D02*
Y-8071D01*
X471850D02*
X475000D01*
X457087Y-14370D02*
Y-11221D01*
Y-14370D02*
X460236D01*
Y-11220D01*
X466929Y-8072D02*
X470079D01*
Y-14371D02*
Y-8072D01*
X466929Y-14371D02*
Y-8072D01*
Y-14371D02*
X470079D01*
X462008Y-14370D02*
X465158D01*
X462008D02*
Y-8071D01*
X465158Y-14370D02*
Y-8071D01*
X462008D02*
X465158D01*
X427067Y-49606D02*
Y-46457D01*
X420768Y-49606D02*
X427067D01*
X420768Y-46457D02*
X427067D01*
X420768Y-49606D02*
Y-46457D01*
X491142Y14370D02*
X494291D01*
Y8071D02*
Y14370D01*
X491142Y8071D02*
Y14370D01*
Y8071D02*
X494291D01*
X509055Y11221D02*
Y14370D01*
X505905D02*
X509055D01*
X505905Y11220D02*
Y14370D01*
X496063Y8072D02*
X499213D01*
X496063D02*
Y14371D01*
X499213Y8072D02*
Y14371D01*
X496063D02*
X499213D01*
X500984Y14370D02*
X504134D01*
Y8071D02*
Y14370D01*
X500984Y8071D02*
Y14370D01*
Y8071D02*
X504134D01*
X539075Y46457D02*
Y49606D01*
X545374D01*
X539075Y46457D02*
X545374D01*
Y49606D01*
X311614Y14370D02*
X314764D01*
Y8071D02*
Y14370D01*
X311614Y8071D02*
Y14370D01*
Y8071D02*
X314764D01*
X329528Y11221D02*
Y14370D01*
X326378D02*
X329528D01*
X326378Y11220D02*
Y14370D01*
X316535Y8072D02*
X319685D01*
X316535D02*
Y14371D01*
X319685Y8072D02*
Y14371D01*
X316535D02*
X319685D01*
X321457Y14370D02*
X324606D01*
Y8071D02*
Y14370D01*
X321457Y8071D02*
Y14370D01*
Y8071D02*
X324606D01*
X359547Y46457D02*
Y49606D01*
X365846D01*
X359547Y46457D02*
X365846D01*
Y49606D01*
X132087Y14370D02*
X135236D01*
Y8071D02*
Y14370D01*
X132087Y8071D02*
Y14370D01*
Y8071D02*
X135236D01*
X150000Y11221D02*
Y14370D01*
X146850D02*
X150000D01*
X146850Y11220D02*
Y14370D01*
X137008Y8072D02*
X140157D01*
X137008D02*
Y14371D01*
X140157Y8072D02*
Y14371D01*
X137008D02*
X140157D01*
X141929Y14370D02*
X145079D01*
Y8071D02*
Y14370D01*
X141929Y8071D02*
Y14370D01*
Y8071D02*
X145079D01*
X180020Y46457D02*
Y49606D01*
X186319D01*
X180020Y46457D02*
X186319D01*
Y49606D01*
X670669Y14370D02*
X673819D01*
Y8071D02*
Y14370D01*
X670669Y8071D02*
Y14370D01*
Y8071D02*
X673819D01*
X688583Y11221D02*
Y14370D01*
X685433D02*
X688583D01*
X685433Y11220D02*
Y14370D01*
X675591Y8072D02*
X678740D01*
X675591D02*
Y14371D01*
X678740Y8072D02*
Y14371D01*
X675591D02*
X678740D01*
X680512Y14370D02*
X683661D01*
Y8071D02*
Y14370D01*
X680512Y8071D02*
Y14370D01*
Y8071D02*
X683661D01*
X718602Y46457D02*
Y49606D01*
X724902D01*
X718602Y46457D02*
X724902D01*
Y49606D01*
X-295472Y14370D02*
X-292323D01*
Y8071D02*
Y14370D01*
X-295472Y8071D02*
Y14370D01*
Y8071D02*
X-292323D01*
X-277559Y11221D02*
Y14370D01*
X-280709D02*
X-277559D01*
X-280709Y11220D02*
Y14370D01*
X-290551Y8072D02*
X-287402D01*
X-290551D02*
Y14371D01*
X-287402Y8072D02*
Y14371D01*
X-290551D02*
X-287402D01*
X-285630Y14370D02*
X-282480D01*
Y8071D02*
Y14370D01*
X-285630Y8071D02*
Y14370D01*
Y8071D02*
X-282480D01*
X-247539Y46457D02*
Y49606D01*
X-241240D01*
X-247539Y46457D02*
X-241240D01*
Y49606D01*
X-475000Y14370D02*
X-471850D01*
Y8071D02*
Y14370D01*
X-475000Y8071D02*
Y14370D01*
Y8071D02*
X-471850D01*
X-457087Y11221D02*
Y14370D01*
X-460236D02*
X-457087D01*
X-460236Y11220D02*
Y14370D01*
X-470079Y8072D02*
X-466929D01*
X-470079D02*
Y14371D01*
X-466929Y8072D02*
Y14371D01*
X-470079D02*
X-466929D01*
X-465158Y14370D02*
X-462008D01*
Y8071D02*
Y14370D01*
X-465158Y8071D02*
Y14370D01*
Y8071D02*
X-462008D01*
X-427067Y46457D02*
Y49606D01*
X-420768D01*
X-427067Y46457D02*
X-420768D01*
Y49606D01*
X-115945Y14370D02*
X-112795D01*
Y8071D02*
Y14370D01*
X-115945Y8071D02*
Y14370D01*
Y8071D02*
X-112795D01*
X-98032Y11221D02*
Y14370D01*
X-101181D02*
X-98032D01*
X-101181Y11220D02*
Y14370D01*
X-111024Y8072D02*
X-107874D01*
X-111024D02*
Y14371D01*
X-107874Y8072D02*
Y14371D01*
X-111024D02*
X-107874D01*
X-106102Y14370D02*
X-102953D01*
Y8071D02*
Y14370D01*
X-106102Y8071D02*
Y14370D01*
Y8071D02*
X-102953D01*
X-68012Y46457D02*
Y49606D01*
X-61713D01*
X-68012Y46457D02*
X-61713D01*
Y49606D01*
X-135236Y-14370D02*
X-132087D01*
X-135236D02*
Y-8071D01*
X-132087Y-14370D02*
Y-8071D01*
X-135236D02*
X-132087D01*
X-150000Y-14370D02*
Y-11221D01*
Y-14370D02*
X-146850D01*
Y-11220D01*
X-140157Y-8072D02*
X-137008D01*
Y-14371D02*
Y-8072D01*
X-140157Y-14371D02*
Y-8072D01*
Y-14371D02*
X-137008D01*
X-145079Y-14370D02*
X-141929D01*
X-145079D02*
Y-8071D01*
X-141929Y-14370D02*
Y-8071D01*
X-145079D02*
X-141929D01*
X-180020Y-49606D02*
Y-46457D01*
X-186319Y-49606D02*
X-180020D01*
X-186319Y-46457D02*
X-180020D01*
X-186319Y-49606D02*
Y-46457D01*
X-314764Y-14370D02*
X-311614D01*
X-314764D02*
Y-8071D01*
X-311614Y-14370D02*
Y-8071D01*
X-314764D02*
X-311614D01*
X-329528Y-14370D02*
Y-11221D01*
Y-14370D02*
X-326378D01*
Y-11220D01*
X-319685Y-8072D02*
X-316535D01*
Y-14371D02*
Y-8072D01*
X-319685Y-14371D02*
Y-8072D01*
Y-14371D02*
X-316535D01*
X-324606Y-14370D02*
X-321457D01*
X-324606D02*
Y-8071D01*
X-321457Y-14370D02*
Y-8071D01*
X-324606D02*
X-321457D01*
X-359547Y-49606D02*
Y-46457D01*
X-365846Y-49606D02*
X-359547D01*
X-365846Y-46457D02*
X-359547D01*
X-365846Y-49606D02*
Y-46457D01*
X-494291Y-14370D02*
X-491142D01*
X-494291D02*
Y-8071D01*
X-491142Y-14370D02*
Y-8071D01*
X-494291D02*
X-491142D01*
X-509055Y-14370D02*
Y-11221D01*
Y-14370D02*
X-505905D01*
Y-11220D01*
X-499213Y-8072D02*
X-496063D01*
Y-14371D02*
Y-8072D01*
X-499213Y-14371D02*
Y-8072D01*
Y-14371D02*
X-496063D01*
X-504134Y-14370D02*
X-500984D01*
X-504134D02*
Y-8071D01*
X-500984Y-14370D02*
Y-8071D01*
X-504134D02*
X-500984D01*
X-539075Y-49606D02*
Y-46457D01*
X-545374Y-49606D02*
X-539075D01*
X-545374Y-46457D02*
X-539075D01*
X-545374Y-49606D02*
Y-46457D01*
X-606595Y46457D02*
Y49606D01*
X-600295D01*
X-606595Y46457D02*
X-600295D01*
Y49606D01*
X-718602Y-49606D02*
Y-46457D01*
X-724902Y-49606D02*
X-718602D01*
X-724902Y-46457D02*
X-718602D01*
X-724902Y-49606D02*
Y-46457D01*
X-709400Y56102D02*
X-707874D01*
X-709400Y48228D02*
Y56102D01*
Y48228D02*
Y52165D01*
X-704921D01*
Y56102D01*
X-705463D02*
X-704921D01*
X-709400Y52165D02*
X-705463Y56102D01*
X-709400Y52165D02*
X-705463Y48228D01*
X-704921D01*
Y52165D01*
X-712795D02*
X-701968D01*
X-716142Y24016D02*
X-698819D01*
X-716142D02*
Y47244D01*
X-698819D01*
Y24016D02*
Y47244D01*
X707874Y-56102D02*
X709400D01*
Y-48228D01*
Y-52165D02*
Y-48228D01*
X704921Y-52165D02*
X709400D01*
X704921Y-56102D02*
Y-52165D01*
Y-56102D02*
X705463D01*
X709400Y-52165D01*
X705463Y-48228D02*
X709400Y-52165D01*
X704921Y-48228D02*
X705463D01*
X704921Y-52165D02*
Y-48228D01*
X701968Y-52165D02*
X712795D01*
X698819Y-24016D02*
X716142D01*
Y-47244D02*
Y-24016D01*
X698819Y-47244D02*
X716142D01*
X698819D02*
Y-24016D01*
X615797Y56102D02*
X617323D01*
X615797Y48228D02*
Y56102D01*
Y48228D02*
Y52165D01*
X620276D01*
Y56102D01*
X619734D02*
X620276D01*
X615797Y52165D02*
X619734Y56102D01*
X615797Y52165D02*
X619734Y48228D01*
X620276D01*
Y52165D01*
X612402D02*
X623228D01*
X609055Y24016D02*
X626378D01*
X609055D02*
Y47244D01*
X626378D01*
Y24016D02*
Y47244D01*
X528346Y-56102D02*
X529872D01*
Y-48228D01*
Y-52165D02*
Y-48228D01*
X525394Y-52165D02*
X529872D01*
X525394Y-56102D02*
Y-52165D01*
Y-56102D02*
X525935D01*
X529872Y-52165D01*
X525935Y-48228D02*
X529872Y-52165D01*
X525394Y-48228D02*
X525935D01*
X525394Y-52165D02*
Y-48228D01*
X522441Y-52165D02*
X533268D01*
X519291Y-24016D02*
X536614D01*
Y-47244D02*
Y-24016D01*
X519291Y-47244D02*
X536614D01*
X519291D02*
Y-24016D01*
X436270Y56102D02*
X437795D01*
X436270Y48228D02*
Y56102D01*
Y48228D02*
Y52165D01*
X440748D01*
Y56102D01*
X440207D02*
X440748D01*
X436270Y52165D02*
X440207Y56102D01*
X436270Y52165D02*
X440207Y48228D01*
X440748D01*
Y52165D01*
X432874D02*
X443701D01*
X429528Y24016D02*
X446850D01*
X429528D02*
Y47244D01*
X446850D01*
Y24016D02*
Y47244D01*
X348819Y-56102D02*
X350344D01*
Y-48228D01*
Y-52165D02*
Y-48228D01*
X345866Y-52165D02*
X350344D01*
X345866Y-56102D02*
Y-52165D01*
Y-56102D02*
X346408D01*
X350344Y-52165D01*
X346408Y-48228D02*
X350344Y-52165D01*
X345866Y-48228D02*
X346408D01*
X345866Y-52165D02*
Y-48228D01*
X342913Y-52165D02*
X353740D01*
X339764Y-24016D02*
X357087D01*
Y-47244D02*
Y-24016D01*
X339764Y-47244D02*
X357087D01*
X339764D02*
Y-24016D01*
X256742Y56102D02*
X258268D01*
X256742Y48228D02*
Y56102D01*
Y48228D02*
Y52165D01*
X261221D01*
Y56102D01*
X260679D02*
X261221D01*
X256742Y52165D02*
X260679Y56102D01*
X256742Y52165D02*
X260679Y48228D01*
X261221D01*
Y52165D01*
X253346D02*
X264173D01*
X250000Y24016D02*
X267323D01*
X250000D02*
Y47244D01*
X267323D01*
Y24016D02*
Y47244D01*
X169291Y-56102D02*
X170817D01*
Y-48228D01*
Y-52165D02*
Y-48228D01*
X166339Y-52165D02*
X170817D01*
X166339Y-56102D02*
Y-52165D01*
Y-56102D02*
X166880D01*
X170817Y-52165D01*
X166880Y-48228D02*
X170817Y-52165D01*
X166339Y-48228D02*
X166880D01*
X166339Y-52165D02*
Y-48228D01*
X163386Y-52165D02*
X174213D01*
X160236Y-24016D02*
X177559D01*
Y-47244D02*
Y-24016D01*
X160236Y-47244D02*
X177559D01*
X160236D02*
Y-24016D01*
X77215Y56102D02*
X78740D01*
X77215Y48228D02*
Y56102D01*
Y48228D02*
Y52165D01*
X81693D01*
Y56102D01*
X81152D02*
X81693D01*
X77215Y52165D02*
X81152Y56102D01*
X77215Y52165D02*
X81152Y48228D01*
X81693D01*
Y52165D01*
X73819D02*
X84646D01*
X70472Y24016D02*
X87795D01*
X70472D02*
Y47244D01*
X87795D01*
Y24016D02*
Y47244D01*
X-78740Y-56102D02*
X-77215D01*
Y-48228D01*
Y-52165D02*
Y-48228D01*
X-81693Y-52165D02*
X-77215D01*
X-81693Y-56102D02*
Y-52165D01*
Y-56102D02*
X-81152D01*
X-77215Y-52165D01*
X-81152Y-48228D02*
X-77215Y-52165D01*
X-81693Y-48228D02*
X-81152D01*
X-81693Y-52165D02*
Y-48228D01*
X-84646Y-52165D02*
X-73819D01*
X-87795Y-24016D02*
X-70472D01*
Y-47244D02*
Y-24016D01*
X-87795Y-47244D02*
X-70472D01*
X-87795D02*
Y-24016D01*
X-170817Y56102D02*
X-169291D01*
X-170817Y48228D02*
Y56102D01*
Y48228D02*
Y52165D01*
X-166339D01*
Y56102D01*
X-166880D02*
X-166339D01*
X-170817Y52165D02*
X-166880Y56102D01*
X-170817Y52165D02*
X-166880Y48228D01*
X-166339D01*
Y52165D01*
X-174213D02*
X-163386D01*
X-177559Y24016D02*
X-160236D01*
X-177559D02*
Y47244D01*
X-160236D01*
Y24016D02*
Y47244D01*
X-258268Y-56102D02*
X-256742D01*
Y-48228D01*
Y-52165D02*
Y-48228D01*
X-261221Y-52165D02*
X-256742D01*
X-261221Y-56102D02*
Y-52165D01*
Y-56102D02*
X-260679D01*
X-256742Y-52165D01*
X-260679Y-48228D02*
X-256742Y-52165D01*
X-261221Y-48228D02*
X-260679D01*
X-261221Y-52165D02*
Y-48228D01*
X-264173Y-52165D02*
X-253346D01*
X-267323Y-24016D02*
X-250000D01*
Y-47244D02*
Y-24016D01*
X-267323Y-47244D02*
X-250000D01*
X-267323D02*
Y-24016D01*
X-350344Y56102D02*
X-348819D01*
X-350344Y48228D02*
Y56102D01*
Y48228D02*
Y52165D01*
X-345866D01*
Y56102D01*
X-346408D02*
X-345866D01*
X-350344Y52165D02*
X-346408Y56102D01*
X-350344Y52165D02*
X-346408Y48228D01*
X-345866D01*
Y52165D01*
X-353740D02*
X-342913D01*
X-357087Y24016D02*
X-339764D01*
X-357087D02*
Y47244D01*
X-339764D01*
Y24016D02*
Y47244D01*
X-437795Y-56102D02*
X-436270D01*
Y-48228D01*
Y-52165D02*
Y-48228D01*
X-440748Y-52165D02*
X-436270D01*
X-440748Y-56102D02*
Y-52165D01*
Y-56102D02*
X-440207D01*
X-436270Y-52165D01*
X-440207Y-48228D02*
X-436270Y-52165D01*
X-440748Y-48228D02*
X-440207D01*
X-440748Y-52165D02*
Y-48228D01*
X-443701Y-52165D02*
X-432874D01*
X-446850Y-24016D02*
X-429528D01*
Y-47244D02*
Y-24016D01*
X-446850Y-47244D02*
X-429528D01*
X-446850D02*
Y-24016D01*
X-529872Y56102D02*
X-528346D01*
X-529872Y48228D02*
Y56102D01*
Y48228D02*
Y52165D01*
X-525394D01*
Y56102D01*
X-525935D02*
X-525394D01*
X-529872Y52165D02*
X-525935Y56102D01*
X-529872Y52165D02*
X-525935Y48228D01*
X-525394D01*
Y52165D01*
X-533268D02*
X-522441D01*
X-536614Y24016D02*
X-519291D01*
X-536614D02*
Y47244D01*
X-519291D01*
Y24016D02*
Y47244D01*
X-617323Y-56102D02*
X-615797D01*
Y-48228D01*
Y-52165D02*
Y-48228D01*
X-620276Y-52165D02*
X-615797D01*
X-620276Y-56102D02*
Y-52165D01*
Y-56102D02*
X-619734D01*
X-615797Y-52165D01*
X-619734Y-48228D02*
X-615797Y-52165D01*
X-620276Y-48228D02*
X-619734D01*
X-620276Y-52165D02*
Y-48228D01*
X-623228Y-52165D02*
X-612402D01*
X-626378Y-24016D02*
X-609055D01*
Y-47244D02*
Y-24016D01*
X-626378Y-47244D02*
X-609055D01*
X-626378D02*
Y-24016D01*
X1969Y25591D02*
Y31890D01*
X-1181Y25591D02*
X1969D01*
X-1181D02*
Y31890D01*
X1969D01*
X-44882Y25591D02*
Y31890D01*
X-48031Y25591D02*
X-44882D01*
X-48031D02*
Y31890D01*
X-44882D01*
X-644685Y8071D02*
Y14370D01*
X-641535D01*
Y8071D02*
Y14370D01*
X-644685Y8071D02*
X-641535D01*
X-680512Y-14370D02*
Y-8071D01*
X-683661Y-14370D02*
X-680512D01*
X-683661D02*
Y-8071D01*
X-680512D01*
X-23228Y11417D02*
Y17717D01*
X-26378Y11417D02*
X-23228D01*
X-26378D02*
Y17717D01*
X-23228D01*
X-646457Y8072D02*
Y14371D01*
X-649606Y8072D02*
X-646457D01*
X-649606D02*
Y14371D01*
X-646457D01*
X-678740Y-14371D02*
Y-8072D01*
X-675591D01*
Y-14371D02*
Y-8072D01*
X-678740Y-14371D02*
X-675591D01*
X79Y-18150D02*
Y-11850D01*
X3228D01*
Y-18150D02*
Y-11850D01*
X79Y-18150D02*
X3228D01*
X-13780Y11417D02*
Y17717D01*
X-16929Y11417D02*
X-13780D01*
X-16929D02*
Y17717D01*
X-13780D01*
X6693Y-49213D02*
Y-42913D01*
X3543Y-49213D02*
X6693D01*
X3543D02*
Y-42913D01*
X6693D01*
X-7087Y-49409D02*
Y-43110D01*
X-3937D01*
Y-49409D02*
Y-43110D01*
X-7087Y-49409D02*
X-3937D01*
X-636614Y11221D02*
Y14370D01*
X-639764D02*
X-636614D01*
X-639764Y11220D02*
Y14370D01*
X-688583Y-14370D02*
Y-11221D01*
Y-14370D02*
X-685433D01*
Y-11220D01*
X8661Y-49213D02*
Y-46064D01*
Y-49213D02*
X11811D01*
Y-46063D01*
X-9055Y-46062D02*
Y-42913D01*
X-12205D02*
X-9055D01*
X-12205Y-46063D02*
Y-42913D01*
X32205Y90630D02*
X44016D01*
X-43701Y90551D02*
X-31890D01*
X4331Y-36614D02*
X10630D01*
Y-39764D02*
Y-36614D01*
X4331Y-39764D02*
X10630D01*
X4331D02*
Y-36614D01*
X-11024Y-30709D02*
X-4724D01*
X-11024D02*
Y-27559D01*
X-4724D01*
Y-30709D02*
Y-27559D01*
X7087Y46457D02*
X13386D01*
X7087D02*
Y49606D01*
X13386D01*
Y46457D02*
Y49606D01*
X-39764Y46457D02*
X-33465D01*
X-39764D02*
Y49606D01*
X-33465D01*
Y46457D02*
Y49606D01*
X4331Y-27953D02*
X10630D01*
Y-31102D02*
Y-27953D01*
X4331Y-31102D02*
X10630D01*
X4331D02*
Y-27953D01*
X-11024Y-39764D02*
X-4724D01*
X-11024D02*
Y-36614D01*
X-4724D01*
Y-39764D02*
Y-36614D01*
X4331Y-32283D02*
X10630D01*
Y-35433D02*
Y-32283D01*
X4331Y-35433D02*
X10630D01*
X4331D02*
Y-32283D01*
X-11024Y-35315D02*
X-4724D01*
X-11024D02*
Y-32165D01*
X-4724D01*
Y-35315D02*
Y-32165D01*
X-654528Y8071D02*
Y14370D01*
X-651378D01*
Y8071D02*
Y14370D01*
X-654528Y8071D02*
X-651378D01*
X-670669Y-14370D02*
Y-8071D01*
X-673819Y-14370D02*
X-670669D01*
X-673819D02*
Y-8071D01*
X-670669D01*
X8701Y-18071D02*
Y-11772D01*
X5551Y-18071D02*
X8701D01*
X5551D02*
Y-11772D01*
X8701D01*
X-13780Y-63386D02*
Y-57087D01*
X-10630D01*
Y-63386D02*
Y-57087D01*
X-13780Y-63386D02*
X-10630D01*
X-21654Y11417D02*
Y17717D01*
X-18504D01*
Y11417D02*
Y17717D01*
X-21654Y11417D02*
X-18504D01*
D14*
X-876Y-104653D02*
X304D01*
X-286D01*
Y-101110D01*
X-876Y-101701D01*
Y-113082D02*
X-286Y-112492D01*
X895D01*
X1485Y-113082D01*
Y-115444D01*
X895Y-116034D01*
X-286D01*
X-876Y-115444D01*
Y-113082D01*
X13976Y-118964D02*
X14534Y-118407D01*
X15649D01*
X16207Y-118964D01*
Y-119522D01*
X15649Y-120079D01*
X15091D01*
X15649D01*
X16207Y-120637D01*
Y-121194D01*
X15649Y-121752D01*
X14534D01*
X13976Y-121194D01*
X22897Y-121752D02*
X20667D01*
X22897Y-119522D01*
Y-118964D01*
X22340Y-118407D01*
X21225D01*
X20667Y-118964D01*
X27358Y-121752D02*
X28473D01*
X27915D01*
Y-118407D01*
X27358Y-118964D01*
X33491D02*
X34049Y-118407D01*
X35164D01*
X35721Y-118964D01*
Y-121194D01*
X35164Y-121752D01*
X34049D01*
X33491Y-121194D01*
Y-118964D01*
X-35630D02*
X-35072Y-118407D01*
X-33957D01*
X-33400Y-118964D01*
Y-121194D01*
X-33957Y-121752D01*
X-35072D01*
X-35630Y-121194D01*
Y-118964D01*
X-28939Y-121752D02*
X-27824D01*
X-28382D01*
Y-118407D01*
X-28939Y-118964D01*
X-20576Y-121752D02*
X-22806D01*
X-20576Y-119522D01*
Y-118964D01*
X-21133Y-118407D01*
X-22248D01*
X-22806Y-118964D01*
X-16115D02*
X-15558Y-118407D01*
X-14443D01*
X-13885Y-118964D01*
Y-119522D01*
X-14443Y-120079D01*
X-15000D01*
X-14443D01*
X-13885Y-120637D01*
Y-121194D01*
X-14443Y-121752D01*
X-15558D01*
X-16115Y-121194D01*
X-8891Y105955D02*
X-11024D01*
Y102756D01*
X-8891D01*
X-11024Y104355D02*
X-9957D01*
X-7825Y102756D02*
X-6758D01*
X-7292D01*
Y105955D01*
X-7825D01*
X-3559Y102756D02*
X-4626D01*
X-5159Y103289D01*
Y104355D01*
X-4626Y104889D01*
X-3559D01*
X-3026Y104355D01*
Y103822D01*
X-5159D01*
X173Y104889D02*
X-1427D01*
X-1960Y104355D01*
Y103289D01*
X-1427Y102756D01*
X173D01*
X1772Y105422D02*
Y104889D01*
X1239D01*
X2305D01*
X1772D01*
Y103289D01*
X2305Y102756D01*
X3905Y104889D02*
Y102756D01*
Y103822D01*
X4438Y104355D01*
X4971Y104889D01*
X5504D01*
X7104Y102756D02*
X8170D01*
X7637D01*
Y104889D01*
X7104D01*
X11902D02*
X10303D01*
X9770Y104355D01*
Y103289D01*
X10303Y102756D01*
X11902D01*
X-20079Y110679D02*
X-19012D01*
X-19546D01*
Y107480D01*
X-20079D01*
X-19012D01*
X-17413D02*
X-16347D01*
X-16880D01*
Y110679D01*
X-17413D01*
X-14747Y107480D02*
X-13681D01*
X-14214D01*
Y110679D01*
X-14747D01*
X-12081Y107480D02*
X-11015D01*
X-11548D01*
Y109613D01*
X-12081D01*
X-9415Y107480D02*
Y109613D01*
X-7816D01*
X-7283Y109080D01*
Y107480D01*
X-6217D02*
X-5150D01*
X-5683D01*
Y109613D01*
X-6217D01*
X1781Y110679D02*
X-352D01*
Y109080D01*
X715D01*
X-352D01*
Y107480D01*
X3380D02*
X4447D01*
X4980Y108013D01*
Y109080D01*
X4447Y109613D01*
X3380D01*
X2847Y109080D01*
Y108013D01*
X3380Y107480D01*
X6046Y109613D02*
Y107480D01*
Y108547D01*
X6579Y109080D01*
X7113Y109613D01*
X7646D01*
X9245Y107480D02*
Y109613D01*
X9778D01*
X10311Y109080D01*
Y107480D01*
Y109080D01*
X10845Y109613D01*
X11378Y109080D01*
Y107480D01*
X12444Y109613D02*
Y108013D01*
X12977Y107480D01*
X14577D01*
Y109613D01*
X15643Y107480D02*
X16709D01*
X16176D01*
Y110679D01*
X15643D01*
X18842Y109613D02*
X19908D01*
X20441Y109080D01*
Y107480D01*
X18842D01*
X18309Y108013D01*
X18842Y108547D01*
X20441D01*
X-681890Y-118502D02*
X-689761D01*
X-685825Y-122438D02*
Y-114566D01*
X-685829Y122441D02*
Y114569D01*
X681890Y118502D02*
X689761D01*
X685825Y122438D02*
Y114566D01*
X685829Y-122441D02*
Y-114569D01*
X643307Y-118502D02*
X635436D01*
X639371Y-122438D02*
Y-114566D01*
X639368Y122441D02*
Y114569D01*
X502362Y118502D02*
X510234D01*
X506298Y122438D02*
Y114566D01*
X506301Y-122441D02*
Y-114569D01*
X463779Y-118502D02*
X455908D01*
X459844Y-122438D02*
Y-114566D01*
X459841Y122441D02*
Y114569D01*
X322835Y118502D02*
X330706D01*
X326770Y122438D02*
Y114566D01*
X326774Y-122441D02*
Y-114569D01*
X284252Y-118502D02*
X276380D01*
X280316Y-122438D02*
Y-114566D01*
X280313Y122441D02*
Y114569D01*
X143307Y118502D02*
X151179D01*
X147243Y122438D02*
Y114566D01*
X147246Y-122441D02*
Y-114569D01*
X104724Y-118502D02*
X96853D01*
X100789Y-122438D02*
Y-114566D01*
X100786Y122441D02*
Y114569D01*
X-104724Y118502D02*
X-96853D01*
X-100789Y122438D02*
Y114566D01*
X-100786Y-122441D02*
Y-114569D01*
X-143307Y-118502D02*
X-151179D01*
X-147243Y-122438D02*
Y-114566D01*
X-147246Y122441D02*
Y114569D01*
X-284252Y118502D02*
X-276380D01*
X-280316Y122438D02*
Y114566D01*
X-280313Y-122441D02*
Y-114569D01*
X-322835Y-118502D02*
X-330706D01*
X-326770Y-122438D02*
Y-114566D01*
X-326774Y122441D02*
Y114569D01*
X-463779Y118502D02*
X-455908D01*
X-459844Y122438D02*
Y114566D01*
X-459841Y-122441D02*
Y-114569D01*
X-502362Y-118502D02*
X-510234D01*
X-506298Y-122438D02*
Y-114566D01*
X-506301Y122441D02*
Y114569D01*
X-643307Y118502D02*
X-635436D01*
X-639371Y122438D02*
Y114566D01*
X-639368Y-122441D02*
Y-114569D01*
D15*
X-19685Y94095D02*
Y96718D01*
X-18373Y98030D01*
X-17061Y96718D01*
Y94095D01*
Y96062D01*
X-19685D01*
X-15749Y92783D02*
Y96718D01*
X-13781D01*
X-13126Y96062D01*
Y94750D01*
X-13781Y94095D01*
X-15749D01*
X-11158D02*
X-9846D01*
X-9190Y94750D01*
Y96062D01*
X-9846Y96718D01*
X-11158D01*
X-11814Y96062D01*
Y94750D01*
X-11158Y94095D01*
X-7878D02*
X-6566D01*
X-7222D01*
Y98030D01*
X-7878D01*
X-4598Y94095D02*
X-3286D01*
X-3942D01*
Y98030D01*
X-4598D01*
X-662Y94095D02*
X650D01*
X1306Y94750D01*
Y96062D01*
X650Y96718D01*
X-662D01*
X-1318Y96062D01*
Y94750D01*
X-662Y94095D01*
X9177D02*
X6553D01*
X9177Y96718D01*
Y97374D01*
X8521Y98030D01*
X7209D01*
X6553Y97374D01*
X10489D02*
X11145Y98030D01*
X12457D01*
X13113Y97374D01*
Y94750D01*
X12457Y94095D01*
X11145D01*
X10489Y94750D01*
Y97374D01*
X14425Y94095D02*
X15737D01*
X15081D01*
Y98030D01*
X14425Y97374D01*
X17705Y94750D02*
X18360Y94095D01*
X19672D01*
X20328Y94750D01*
Y97374D01*
X19672Y98030D01*
X18360D01*
X17705Y97374D01*
Y96718D01*
X18360Y96062D01*
X20328D01*
M02*
