M48
;Layer_Color=9474304
;FILE_FORMAT=2:5
INCH,LZ
;TYPE=PLATED
T2F00S00C0.01378
%
G90
G05
T02
G00X-0704823Y-0122047
M15
G01X-0710138
M16
G00X-0694823Y-0092047
M15
G01X-0700138
M16
G00X-0714823Y-0092047
M15
G01X-0720138
M16
G00X-0625059Y-0092047
M15
G01X-0630374
M16
G00X-0605059Y-0092047
M15
G01X-0610374
M16
G00X-0615059Y-0122047
M15
G01X-0620374
M16
G00X-0525295Y-0122047
M15
G01X-053061
M16
G00X-0515295Y-0092047
M15
G01X-052061
M16
G00X-0535295Y-0092047
M15
G01X-054061
M16
G00X-0445532Y-0092047
M15
G01X-0450846
M16
G00X-0425531Y-0092047
M15
G01X-0430847
M16
G00X-0435532Y-0122047
M15
G01X-0440846
M16
G00X-0345768Y-0122047
M15
G01X-0351083
M16
G00X-0335768Y-0092047
M15
G01X-0341083
M16
G00X-0355768Y-0092047
M15
G01X-0361083
M16
G00X-0266004Y-0092047
M15
G01X-0271319
M16
G00X-0246004Y-0092047
M15
G01X-0251319
M16
G00X-0256004Y-0122047
M15
G01X-0261319
M16
G00X-016624Y-0122047
M15
G01X-0171555
M16
G00X-015624Y-0092047
M15
G01X-0161555
M16
G00X-017624Y-0092047
M15
G01X-0181555
M16
G00X-0086476Y-0092047
M15
G01X-0091791
M16
G00X-0066476Y-0092047
M15
G01X-0071791
M16
G00X-0076476Y-0122047
M15
G01X-0081791
M16
G00X0081791Y-0122047
M15
G01X0076476
M16
G00X0091791Y-0092047
M15
G01X0086476
M16
G00X0071791Y-0092047
M15
G01X0066476
M16
G00X0161555Y-0092047
M15
G01X015624
M16
G00X0181555Y-0092047
M15
G01X017624
M16
G00X0171555Y-0122047
M15
G01X016624
M16
G00X0261319Y-0122047
M15
G01X0256004
M16
G00X0251319Y-0092047
M15
G01X0246004
M16
G00X0271319Y-0092047
M15
G01X0266004
M16
G00X0341083Y-0092047
M15
G01X0335768
M16
G00X0361083Y-0092047
M15
G01X0355768
M16
G00X0351083Y-0122047
M15
G01X0345768
M16
G00X0440846Y-0122047
M15
G01X0435532
M16
G00X0450846Y-0092047
M15
G01X0445532
M16
G00X0430847Y-0092047
M15
G01X0425531
M16
G00X052061Y-0092047
M15
G01X0515295
M16
G00X054061Y-0092047
M15
G01X0535295
M16
G00X053061Y-0122047
M15
G01X0525295
M16
G00X0620374Y-0122047
M15
G01X0615059
M16
G00X0630374Y-0092047
M15
G01X0625059
M16
G00X0610374Y-0092047
M15
G01X0605059
M16
G00X0700138Y-0092047
M15
G01X0694823
M16
G00X0720138Y-0092047
M15
G01X0714823
M16
G00X0710138Y-0122047
M15
G01X0704823
M16
G00X0694823Y0092047
M15
G01X0700138
M16
G00X0714823Y0092047
M15
G01X0720138
M16
G00X0625059Y0092047
M15
G01X0630374
M16
G00X0605059Y0092047
M15
G01X0610374
M16
G00X0535295Y0092047
M15
G01X054061
M16
G00X0515295Y0092047
M15
G01X052061
M16
G00X0445532Y0092047
M15
G01X0450846
M16
G00X0425531Y0092047
M15
G01X0430847
M16
G00X0355768Y0092047
M15
G01X0361083
M16
G00X0335768Y0092047
M15
G01X0341083
M16
G00X0266004Y0092047
M15
G01X0271319
M16
G00X0246004Y0092047
M15
G01X0251319
M16
G00X017624Y0092047
M15
G01X0181555
M16
G00X015624Y0092047
M15
G01X0161555
M16
G00X0086476Y0092047
M15
G01X0091791
M16
G00X0066476Y0092047
M15
G01X0071791
M16
G00X-0071791Y0092047
M15
G01X-0066476
M16
G00X-0091791Y0092047
M15
G01X-0086476
M16
G00X-0161555Y0092047
M15
G01X-015624
M16
G00X-0181555Y0092047
M15
G01X-017624
M16
G00X-0251319Y0092047
M15
G01X-0246004
M16
G00X-0271319Y0092047
M15
G01X-0266004
M16
G00X-0341083Y0092047
M15
G01X-0335768
M16
G00X-0361083Y0092047
M15
G01X-0355768
M16
G00X-0430847Y0092047
M15
G01X-0425531
M16
G00X-0450846Y0092047
M15
G01X-0445532
M16
G00X-052061Y0092047
M15
G01X-0515295
M16
G00X-054061Y0092047
M15
G01X-0535295
M16
G00X-0610374Y0092047
M15
G01X-0605059
M16
G00X-0630374Y0092047
M15
G01X-0625059
M16
G00X-0700138Y0092047
M15
G01X-0694823
M16
G00X-0720138Y0092047
M15
G01X-0714823
M16
G00X-0710138Y0122047
M15
G01X-0704823
M16
G00X-0620374Y0122047
M15
G01X-0615059
M16
G00X-053061Y0122047
M15
G01X-0525295
M16
G00X-0440846Y0122047
M15
G01X-0435532
M16
G00X-0351083Y0122047
M15
G01X-0345768
M16
G00X-0261319Y0122047
M15
G01X-0256004
M16
G00X-0171555Y0122047
M15
G01X-016624
M16
G00X-0081791Y0122047
M15
G01X-0076476
M16
G00X0076476Y0122047
M15
G01X0081791
M16
G00X016624Y0122047
M15
G01X0171555
M16
G00X0256004Y0122047
M15
G01X0261319
M16
G00X0345768Y0122047
M15
G01X0351083
M16
G00X0435532Y0122047
M15
G01X0440846
M16
G00X0525295Y0122047
M15
G01X053061
M16
G00X0615059Y0122047
M15
G01X0620374
M16
G00X0704823Y0122047
M15
G01X0710138
M16
M17
M30
