G04*
G04 #@! TF.GenerationSoftware,Altium Limited,Altium Designer,19.0.13 (425)*
G04*
G04 Layer_Color=8388736*
%FSLAX25Y25*%
%MOIN*%
G70*
G01*
G75*
%ADD17R,0.04343X0.03556*%
%ADD18R,0.04265X0.04816*%
%ADD19R,0.05800X0.10800*%
%ADD20R,0.14304X0.07296*%
%ADD21R,0.24422X0.16548*%
%ADD22R,0.03556X0.04343*%
%ADD23R,0.05918X0.06312*%
%ADD24R,0.04737X0.12611*%
%ADD25R,0.08674X0.16548*%
%ADD26R,0.06784X0.07808*%
%ADD27C,0.07493*%
%ADD28C,0.06312*%
%ADD29R,0.06312X0.06312*%
%ADD30C,0.06706*%
%ADD31C,0.20485*%
%ADD32C,0.12611*%
%ADD33C,0.05800*%
D17*
X296063Y91831D02*
D03*
Y97342D02*
D03*
D18*
X194350Y55118D02*
D03*
X207224D02*
D03*
D19*
X136068Y150602D02*
D03*
X147879D02*
D03*
X159690D02*
D03*
X171501D02*
D03*
X183312D02*
D03*
X195123D02*
D03*
X206934D02*
D03*
D20*
X222249Y137098D02*
D03*
X120753D02*
D03*
D21*
X142126Y96555D02*
D03*
X141929Y61516D02*
D03*
D22*
X318701Y53839D02*
D03*
X324213D02*
D03*
X214626Y68370D02*
D03*
X209114D02*
D03*
X209370Y93870D02*
D03*
X214882D02*
D03*
D23*
X207906Y80870D02*
D03*
X219323D02*
D03*
D24*
X324181Y131401D02*
D03*
X316307D02*
D03*
X300559D02*
D03*
X308433D02*
D03*
D25*
X334024Y149118D02*
D03*
X290716D02*
D03*
D26*
X252421Y97303D02*
D03*
Y87303D02*
D03*
Y77303D02*
D03*
X287933D02*
D03*
Y87303D02*
D03*
Y97303D02*
D03*
D27*
X219193Y51378D02*
D03*
X239193D02*
D03*
D28*
X279193D02*
D03*
D29*
X289193D02*
D03*
D30*
X93870Y44721D02*
D03*
Y151020D02*
D03*
X57370Y44721D02*
D03*
Y151020D02*
D03*
D31*
X307087Y78740D02*
D03*
D32*
X125984Y115496D02*
D03*
D33*
X181102Y149874D02*
D03*
X165453Y48130D02*
D03*
X308366Y125000D02*
D03*
X290650Y87402D02*
D03*
X186370Y73870D02*
D03*
Y64370D02*
D03*
Y55370D02*
D03*
X220669Y93799D02*
D03*
X186370Y83370D02*
D03*
X195433Y149874D02*
D03*
M02*
