M48
;Layer_Color=9474304
;FILE_FORMAT=2:5
INCH,LZ
;TYPE=PLATED
T1F00S00C0.02800
T2F00S00C0.03543
T3F00S00C0.04331
T4F00S00C0.04724
T5F00S00C0.11811
;TYPE=NON_PLATED
T6F00S00C0.11811
%
T01
X0165453Y004813
X018637Y005537
Y006437
Y007387
Y008337
X0220669Y0093799
X029065Y0087402
X0308366Y0125
X0195433Y0149874
X0181102
T02
X0279193Y0051378
X0289193
T03
X005737Y0044721
X009387
Y015102
X005737
T04
X0219193Y0051378
X0239193
T05
X0307087Y007874
T06
X0125984Y0115496
M30
