G04*
G04 #@! TF.GenerationSoftware,Altium Limited,Altium Designer,19.0.13 (425)*
G04*
G04 Layer_Physical_Order=2*
G04 Layer_Color=16711680*
%FSLAX25Y25*%
%MOIN*%
G70*
G01*
G75*
%ADD15C,0.01000*%
%ADD44C,0.06693*%
%ADD45C,0.05512*%
%ADD46R,0.05512X0.05512*%
%ADD47C,0.05906*%
%ADD48C,0.19685*%
%ADD49C,0.11811*%
%ADD50C,0.05000*%
%ADD51R,0.07480X0.12598*%
%ADD52R,0.07480X0.03543*%
G36*
X167870Y91347D02*
X163594D01*
Y81504D01*
X167870D01*
Y79958D01*
X167296Y79211D01*
X166929Y78323D01*
X166803Y77370D01*
X166929Y76417D01*
X167296Y75529D01*
X167870Y74782D01*
Y73236D01*
X163594D01*
Y63394D01*
X167870D01*
Y53694D01*
X167454Y53416D01*
X166928Y53634D01*
X165453Y53828D01*
X163978Y53634D01*
X162604Y53065D01*
X161423Y52159D01*
X160518Y50979D01*
X159949Y49605D01*
X159754Y48130D01*
X159949Y46655D01*
X160518Y45281D01*
X161423Y44101D01*
X162604Y43195D01*
X163978Y42626D01*
X165453Y42432D01*
X166928Y42626D01*
X167454Y42844D01*
X167870Y42566D01*
Y40474D01*
X98864D01*
X98650Y40926D01*
X98969Y41314D01*
X99535Y42374D01*
X99884Y43524D01*
X100002Y44721D01*
X99884Y45917D01*
X99535Y47067D01*
X98969Y48127D01*
X98206Y49056D01*
X97277Y49819D01*
X96217Y50386D01*
X95066Y50735D01*
X93870Y50852D01*
X92674Y50735D01*
X91523Y50386D01*
X90463Y49819D01*
X89534Y49056D01*
X88772Y48127D01*
X88205Y47067D01*
X87856Y45917D01*
X87738Y44721D01*
X87856Y43524D01*
X88205Y42374D01*
X88772Y41314D01*
X89090Y40926D01*
X88876Y40474D01*
X62364D01*
X62150Y40926D01*
X62469Y41314D01*
X63035Y42374D01*
X63384Y43524D01*
X63502Y44721D01*
X63384Y45917D01*
X63035Y47067D01*
X62469Y48127D01*
X61706Y49056D01*
X60777Y49819D01*
X59717Y50386D01*
X58566Y50735D01*
X57370Y50852D01*
X56174Y50735D01*
X55023Y50386D01*
X53963Y49819D01*
X53034Y49056D01*
X52272Y48127D01*
X51705Y47067D01*
X51356Y45917D01*
X51238Y44721D01*
X51356Y43524D01*
X51705Y42374D01*
X52272Y41314D01*
X52590Y40926D01*
X52376Y40474D01*
X40474D01*
Y129870D01*
X167870D01*
Y91347D01*
D02*
G37*
%LPC*%
G36*
X125984Y124595D02*
X124209Y124420D01*
X122502Y123902D01*
X120929Y123061D01*
X119550Y121930D01*
X118419Y120551D01*
X117578Y118978D01*
X117060Y117271D01*
X116885Y115496D01*
X117060Y113721D01*
X117578Y112014D01*
X118419Y110441D01*
X119550Y109062D01*
X120929Y107930D01*
X122502Y107089D01*
X124209Y106571D01*
X125984Y106397D01*
X127759Y106571D01*
X129466Y107089D01*
X131039Y107930D01*
X132418Y109062D01*
X133550Y110441D01*
X134391Y112014D01*
X134908Y113721D01*
X135083Y115496D01*
X134908Y117271D01*
X134391Y118978D01*
X133550Y120551D01*
X132418Y121930D01*
X131039Y123061D01*
X129466Y123902D01*
X127759Y124420D01*
X125984Y124595D01*
D02*
G37*
%LPD*%
D15*
X95016Y149874D02*
X180276D01*
X93870Y151020D02*
X95016Y149874D01*
X299311Y78740D02*
X307087D01*
X290650Y87402D02*
X299311Y78740D01*
X307087D02*
X308366Y80020D01*
Y125000D01*
X289193Y60847D02*
X307087Y78740D01*
X289193Y51378D02*
Y60847D01*
X182870Y77370D02*
X186370Y73870D01*
X182425Y68315D02*
X186370Y64370D01*
Y55370D02*
X190870D01*
X165453Y48130D02*
X204528D01*
X195433Y59934D02*
Y149874D01*
X190870Y55370D02*
X195433Y59934D01*
X204528Y48130D02*
X220669Y64272D01*
Y93799D01*
X72520Y135870D02*
X180610D01*
X57370Y151020D02*
X72520Y135870D01*
X170484Y68315D02*
X182425D01*
X170484Y77370D02*
X182870D01*
X186370Y82370D02*
Y83370D01*
X185870Y81870D02*
X186370Y82370D01*
X181315Y86425D02*
X185870Y81870D01*
X170484Y86425D02*
X181315D01*
X180717Y135870D02*
X194720Y149874D01*
X195433D01*
D44*
X219193Y51378D02*
D03*
X239193D02*
D03*
D45*
X279193D02*
D03*
D46*
X289193D02*
D03*
D47*
X93870Y44721D02*
D03*
Y151020D02*
D03*
X57370Y44721D02*
D03*
Y151020D02*
D03*
D48*
X307087Y78740D02*
D03*
D49*
X125984Y115496D02*
D03*
D50*
X181102Y149874D02*
D03*
X165453Y48130D02*
D03*
X308366Y125000D02*
D03*
X290650Y87402D02*
D03*
X186370Y73870D02*
D03*
Y64370D02*
D03*
Y55370D02*
D03*
X220669Y93799D02*
D03*
X186370Y83370D02*
D03*
X195433Y149874D02*
D03*
D51*
X147256Y77370D02*
D03*
D52*
X170484Y68315D02*
D03*
Y77370D02*
D03*
Y86425D02*
D03*
M02*
