G04*
G04 #@! TF.GenerationSoftware,Altium Limited,Altium Designer,18.1.9 (240)*
G04*
G04 Layer_Color=32896*
%FSLAX25Y25*%
%MOIN*%
G70*
G01*
G75*
%ADD11C,0.01000*%
%ADD12C,0.00787*%
%ADD13C,0.00500*%
%ADD14C,0.00787*%
%ADD15C,0.00700*%
%ADD16C,0.00600*%
%ADD17C,0.05000*%
%ADD18C,0.00800*%
%ADD19C,0.00394*%
%ADD20C,0.00197*%
%ADD21C,0.01600*%
%ADD22C,0.00200*%
G36*
X46949Y188583D02*
X45949D01*
Y189583D01*
X46949D01*
Y188583D01*
D02*
G37*
G36*
X1492922Y181808D02*
X1481522D01*
Y185208D01*
X1492922D01*
Y181808D01*
D02*
G37*
G36*
X1313001D02*
X1301601D01*
Y185208D01*
X1313001D01*
Y181808D01*
D02*
G37*
G36*
X1133079D02*
X1121679D01*
Y185208D01*
X1133079D01*
Y181808D01*
D02*
G37*
G36*
X953158D02*
X941758D01*
Y185208D01*
X953158D01*
Y181808D01*
D02*
G37*
G36*
X773237D02*
X761837D01*
Y185208D01*
X773237D01*
Y181808D01*
D02*
G37*
G36*
X593316D02*
X581916D01*
Y185208D01*
X593316D01*
Y181808D01*
D02*
G37*
G36*
X413394D02*
X401994D01*
Y185208D01*
X413394D01*
Y181808D01*
D02*
G37*
G36*
X233473D02*
X222073D01*
Y185208D01*
X233473D01*
Y181808D01*
D02*
G37*
G36*
X1461087Y174425D02*
X1460087D01*
Y175425D01*
X1461087D01*
Y174425D01*
D02*
G37*
G36*
X1281166D02*
X1280166D01*
Y175425D01*
X1281166D01*
Y174425D01*
D02*
G37*
G36*
X1101244D02*
X1100244D01*
Y175425D01*
X1101244D01*
Y174425D01*
D02*
G37*
G36*
X921323D02*
X920323D01*
Y175425D01*
X921323D01*
Y174425D01*
D02*
G37*
G36*
X741402D02*
X740402D01*
Y175425D01*
X741402D01*
Y174425D01*
D02*
G37*
G36*
X561481D02*
X560481D01*
Y175425D01*
X561481D01*
Y174425D01*
D02*
G37*
G36*
X381559D02*
X380559D01*
Y175425D01*
X381559D01*
Y174425D01*
D02*
G37*
G36*
X201638D02*
X200638D01*
Y175425D01*
X201638D01*
Y174425D01*
D02*
G37*
G36*
X1492922Y163808D02*
X1481522D01*
Y167208D01*
X1492922D01*
Y163808D01*
D02*
G37*
G36*
X1313001D02*
X1301601D01*
Y167208D01*
X1313001D01*
Y163808D01*
D02*
G37*
G36*
X1133079D02*
X1121679D01*
Y167208D01*
X1133079D01*
Y163808D01*
D02*
G37*
G36*
X953158D02*
X941758D01*
Y167208D01*
X953158D01*
Y163808D01*
D02*
G37*
G36*
X773237D02*
X761837D01*
Y167208D01*
X773237D01*
Y163808D01*
D02*
G37*
G36*
X593316D02*
X581916D01*
Y167208D01*
X593316D01*
Y163808D01*
D02*
G37*
G36*
X413394D02*
X401994D01*
Y167208D01*
X413394D01*
Y163808D01*
D02*
G37*
G36*
X233473D02*
X222073D01*
Y167208D01*
X233473D01*
Y163808D01*
D02*
G37*
G36*
X63118Y145622D02*
X59118D01*
Y151622D01*
X63118D01*
Y145622D01*
D02*
G37*
G36*
X34386D02*
X30386D01*
Y151622D01*
X34386D01*
Y145622D01*
D02*
G37*
G36*
X63118Y130858D02*
X59118D01*
Y136858D01*
X63118D01*
Y130858D01*
D02*
G37*
G36*
X34386D02*
X30386D01*
Y136858D01*
X34386D01*
Y130858D01*
D02*
G37*
G36*
X1369757Y114322D02*
X1358357D01*
Y117722D01*
X1369757D01*
Y114322D01*
D02*
G37*
G36*
X1189836D02*
X1178436D01*
Y117722D01*
X1189836D01*
Y114322D01*
D02*
G37*
G36*
X1009915D02*
X998515D01*
Y117722D01*
X1009915D01*
Y114322D01*
D02*
G37*
G36*
X829994D02*
X818594D01*
Y117722D01*
X829994D01*
Y114322D01*
D02*
G37*
G36*
X650072D02*
X638672D01*
Y117722D01*
X650072D01*
Y114322D01*
D02*
G37*
G36*
X470151D02*
X458751D01*
Y117722D01*
X470151D01*
Y114322D01*
D02*
G37*
G36*
X290230D02*
X278830D01*
Y117722D01*
X290230D01*
Y114322D01*
D02*
G37*
G36*
X110309D02*
X98909D01*
Y117722D01*
X110309D01*
Y114322D01*
D02*
G37*
G36*
X1391192Y106105D02*
X1390192D01*
Y107105D01*
X1391192D01*
Y106105D01*
D02*
G37*
G36*
X1211271D02*
X1210271D01*
Y107105D01*
X1211271D01*
Y106105D01*
D02*
G37*
G36*
X1031350D02*
X1030350D01*
Y107105D01*
X1031350D01*
Y106105D01*
D02*
G37*
G36*
X851429D02*
X850429D01*
Y107105D01*
X851429D01*
Y106105D01*
D02*
G37*
G36*
X671507D02*
X670507D01*
Y107105D01*
X671507D01*
Y106105D01*
D02*
G37*
G36*
X491586D02*
X490586D01*
Y107105D01*
X491586D01*
Y106105D01*
D02*
G37*
G36*
X311665D02*
X310665D01*
Y107105D01*
X311665D01*
Y106105D01*
D02*
G37*
G36*
X131744D02*
X130744D01*
Y107105D01*
X131744D01*
Y106105D01*
D02*
G37*
G36*
X1369757Y96322D02*
X1358357D01*
Y99722D01*
X1369757D01*
Y96322D01*
D02*
G37*
G36*
X1189836D02*
X1178436D01*
Y99722D01*
X1189836D01*
Y96322D01*
D02*
G37*
G36*
X1009915D02*
X998515D01*
Y99722D01*
X1009915D01*
Y96322D01*
D02*
G37*
G36*
X829994D02*
X818594D01*
Y99722D01*
X829994D01*
Y96322D01*
D02*
G37*
G36*
X650072D02*
X638672D01*
Y99722D01*
X650072D01*
Y96322D01*
D02*
G37*
G36*
X470151D02*
X458751D01*
Y99722D01*
X470151D01*
Y96322D01*
D02*
G37*
G36*
X290230D02*
X278830D01*
Y99722D01*
X290230D01*
Y96322D01*
D02*
G37*
G36*
X110309D02*
X98909D01*
Y99722D01*
X110309D01*
Y96322D01*
D02*
G37*
G36*
X47244Y95472D02*
X46244D01*
Y96472D01*
X47244D01*
Y95472D01*
D02*
G37*
D11*
X1511614Y270866D02*
X1511561Y271882D01*
X1511375Y272882D01*
X1511060Y273849D01*
X1510622Y274767D01*
X1510067Y275620D01*
X1509406Y276393D01*
X1508650Y277074D01*
X1507812Y277649D01*
X1506905Y278111D01*
X1505946Y278450D01*
X1504951Y278661D01*
X1503937Y278740D01*
X1503937Y3937D02*
X1504951Y4016D01*
X1505946Y4227D01*
X1506905Y4566D01*
X1507812Y5028D01*
X1508650Y5604D01*
X1509406Y6284D01*
X1510067Y7057D01*
X1510622Y7910D01*
X1511060Y8828D01*
X1511375Y9795D01*
X1511561Y10795D01*
X1511614Y11811D01*
X3937Y11811D02*
X4004Y10783D01*
X4205Y9773D01*
X4536Y8798D01*
X4992Y7874D01*
X5564Y7018D01*
X6243Y6243D01*
X7018Y5564D01*
X7874Y4992D01*
X8798Y4536D01*
X9773Y4205D01*
X10783Y4004D01*
X11811Y3937D01*
Y278740D02*
X10783Y278673D01*
X9773Y278472D01*
X8798Y278141D01*
X7874Y277685D01*
X7018Y277113D01*
X6243Y276434D01*
X5564Y275659D01*
X4992Y274803D01*
X4536Y273879D01*
X4205Y272904D01*
X4004Y271894D01*
X3937Y270866D01*
X11811Y278740D02*
X1478740Y278740D01*
X3937Y270866D02*
X3937Y11811D01*
X11811Y3937D02*
X1478740Y3937D01*
X1511614Y11811D02*
Y74803D01*
X1478740Y3937D02*
X1503937D01*
X1511614Y207874D02*
Y270866D01*
X1478740Y278740D02*
X1503937D01*
X1511614Y74803D02*
Y207874D01*
X1095453Y89991D02*
Y112629D01*
Y89991D02*
X1124587D01*
Y112629D01*
X1095453D02*
X1124587D01*
X375768Y89991D02*
Y112629D01*
Y89991D02*
X404902D01*
Y112629D01*
X375768D02*
X404902D01*
X735610Y89991D02*
Y112629D01*
Y89991D02*
X764744D01*
Y112629D01*
X735610D02*
X764744D01*
X195846Y89991D02*
Y112629D01*
Y89991D02*
X224980D01*
Y112629D01*
X195846D02*
X224980D01*
X1455295D02*
X1484429D01*
Y89991D02*
Y112629D01*
X1455295Y89991D02*
X1484429D01*
X1455295D02*
Y112629D01*
X1365472Y169734D02*
X1394606D01*
X1365472D02*
Y192372D01*
X1394606D01*
Y169734D02*
Y192372D01*
X1275374Y112629D02*
X1304508D01*
Y89991D02*
Y112629D01*
X1275374Y89991D02*
X1304508D01*
X1275374D02*
Y112629D01*
X1185551Y169734D02*
X1214685D01*
X1185551D02*
Y192372D01*
X1214685D01*
Y169734D02*
Y192372D01*
X1005630Y169734D02*
X1034764D01*
X1005630D02*
Y192372D01*
X1034764D01*
Y169734D02*
Y192372D01*
X915532Y112629D02*
X944666D01*
Y89991D02*
Y112629D01*
X915532Y89991D02*
X944666D01*
X915532D02*
Y112629D01*
X825709Y169734D02*
X854843D01*
X825709D02*
Y192372D01*
X854843D01*
Y169734D02*
Y192372D01*
X645787Y169734D02*
X674921D01*
X645787D02*
Y192372D01*
X674921D01*
Y169734D02*
Y192372D01*
X555689Y112629D02*
X584823D01*
Y89991D02*
Y112629D01*
X555689Y89991D02*
X584823D01*
X555689D02*
Y112629D01*
X465866Y169734D02*
X495000D01*
X465866D02*
Y192372D01*
X495000D01*
Y169734D02*
Y192372D01*
X285945Y169734D02*
X315079D01*
X285945D02*
Y192372D01*
X315079D01*
Y169734D02*
Y192372D01*
D12*
X1115138Y110434D02*
Y112402D01*
X1104902Y110434D02*
Y112402D01*
Y110434D02*
X1115138D01*
X395453D02*
Y112402D01*
X385217Y110434D02*
Y112402D01*
Y110434D02*
X395453D01*
X755295D02*
Y112402D01*
X745059Y110434D02*
Y112402D01*
Y110434D02*
X755295D01*
X215531D02*
Y112402D01*
X205295Y110434D02*
Y112402D01*
Y110434D02*
X215531D01*
X1464744D02*
X1474980D01*
X1464744D02*
Y112402D01*
X1474980Y110434D02*
Y112402D01*
X1374921Y171929D02*
X1385157D01*
Y169961D02*
Y171929D01*
X1374921Y169961D02*
Y171929D01*
X1284823Y110434D02*
X1295059D01*
X1284823D02*
Y112402D01*
X1295059Y110434D02*
Y112402D01*
X1195000Y171929D02*
X1205236D01*
Y169961D02*
Y171929D01*
X1195000Y169961D02*
Y171929D01*
X1015079D02*
X1025315D01*
Y169961D02*
Y171929D01*
X1015079Y169961D02*
Y171929D01*
X924981Y110434D02*
X935217D01*
X924981D02*
Y112402D01*
X935217Y110434D02*
Y112402D01*
X835158Y171929D02*
X845394D01*
Y169961D02*
Y171929D01*
X835158Y169961D02*
Y171929D01*
X655236D02*
X665472D01*
Y169961D02*
Y171929D01*
X655236Y169961D02*
Y171929D01*
X565138Y110434D02*
X575374D01*
X565138D02*
Y112402D01*
X575374Y110434D02*
Y112402D01*
X475315Y171929D02*
X485551D01*
Y169961D02*
Y171929D01*
X475315Y169961D02*
Y171929D01*
X295394D02*
X305630D01*
Y169961D02*
Y171929D01*
X295394Y169961D02*
Y171929D01*
D13*
X35630Y25197D02*
X35367Y26181D01*
X34646Y26902D01*
X33661Y27166D01*
X32677Y26902D01*
X31956Y26181D01*
X31692Y25197D01*
X31956Y24212D01*
X32677Y23492D01*
X33661Y23228D01*
X34646Y23492D01*
X35367Y24212D01*
X35630Y25197D01*
X11812Y257382D02*
X11548Y258366D01*
X10827Y259087D01*
X9843Y259351D01*
X8858Y259087D01*
X8137Y258366D01*
X7874Y257382D01*
X8137Y256397D01*
X8858Y255677D01*
X9843Y255413D01*
X10827Y255677D01*
X11548Y256397D01*
X11812Y257382D01*
X12107Y165157D02*
X11843Y166142D01*
X11122Y166863D01*
X10138Y167126D01*
X9153Y166863D01*
X8433Y166142D01*
X8169Y165157D01*
X8433Y164173D01*
X9153Y163452D01*
X10138Y163188D01*
X11122Y163452D01*
X11843Y164173D01*
X12107Y165157D01*
X1112657Y120513D02*
X1118563D01*
X1112657Y116576D02*
Y120513D01*
X1106752D02*
X1112657Y116576D01*
X1106752Y120513D02*
X1112657Y124450D01*
Y120513D02*
Y124450D01*
X1106752Y120513D02*
Y124450D01*
X1108524Y126221D01*
X1106752Y116576D02*
Y120513D01*
X1104980Y114804D02*
X1106752Y116576D01*
X1101043Y120513D02*
X1106752D01*
X392972D02*
X398878D01*
X392972Y116576D02*
Y120513D01*
X387067D02*
X392972Y116576D01*
X387067Y120513D02*
X392972Y124450D01*
Y120513D02*
Y124450D01*
X387067Y120513D02*
Y124450D01*
X388839Y126221D01*
X387067Y116576D02*
Y120513D01*
X385295Y114804D02*
X387067Y116576D01*
X381358Y120513D02*
X387067D01*
X752814D02*
X758720D01*
X752814Y116576D02*
Y120513D01*
X746909D02*
X752814Y116576D01*
X746909Y120513D02*
X752814Y124450D01*
Y120513D02*
Y124450D01*
X746909Y120513D02*
Y124450D01*
X748681Y126221D01*
X746909Y116576D02*
Y120513D01*
X745137Y114804D02*
X746909Y116576D01*
X741200Y120513D02*
X746909D01*
X82087Y92520D02*
X91929D01*
X82087Y68898D02*
Y92520D01*
X91929Y68898D02*
Y92520D01*
X82087Y68898D02*
X91929D01*
X1484252Y212008D02*
X1494094D01*
X1484252Y188386D02*
Y212008D01*
Y188386D02*
X1494094D01*
Y212008D01*
X1356103Y68898D02*
X1365945D01*
Y92520D01*
X1356103D02*
X1365945D01*
X1356103Y68898D02*
Y92520D01*
X1304331Y212008D02*
X1314173D01*
X1304331Y188386D02*
Y212008D01*
Y188386D02*
X1314173D01*
Y212008D01*
X1176181Y68898D02*
X1186023D01*
Y92520D01*
X1176181D02*
X1186023D01*
X1176181Y68898D02*
Y92520D01*
X1124410Y212008D02*
X1134252D01*
X1124410Y188386D02*
Y212008D01*
Y188386D02*
X1134252D01*
Y212008D01*
X996260Y68898D02*
X1006102D01*
Y92520D01*
X996260D02*
X1006102D01*
X996260Y68898D02*
Y92520D01*
X944489Y212008D02*
X954331D01*
X944489Y188386D02*
Y212008D01*
Y188386D02*
X954331D01*
Y212008D01*
X816339Y68898D02*
X826181D01*
Y92520D01*
X816339D02*
X826181D01*
X816339Y68898D02*
Y92520D01*
X764567Y212008D02*
X774409D01*
X764567Y188386D02*
Y212008D01*
Y188386D02*
X774409D01*
Y212008D01*
X636418Y68898D02*
X646260D01*
Y92520D01*
X636418D02*
X646260D01*
X636418Y68898D02*
Y92520D01*
X584646Y212008D02*
X594488D01*
X584646Y188386D02*
Y212008D01*
Y188386D02*
X594488D01*
Y212008D01*
X456496Y68898D02*
X466338D01*
Y92520D01*
X456496D02*
X466338D01*
X456496Y68898D02*
Y92520D01*
X404725Y212008D02*
X414567D01*
X404725Y188386D02*
Y212008D01*
Y188386D02*
X414567D01*
Y212008D01*
X276575Y68898D02*
X286417D01*
Y92520D01*
X276575D02*
X286417D01*
X276575Y68898D02*
Y92520D01*
X224803Y212008D02*
X234645D01*
X224803Y188386D02*
Y212008D01*
Y188386D02*
X234645D01*
Y212008D01*
X96654Y68898D02*
X106496D01*
Y92520D01*
X96654D02*
X106496D01*
X96654Y68898D02*
Y92520D01*
X1498524Y188386D02*
X1508366D01*
Y212008D01*
X1498524D02*
X1508366D01*
X1498524Y188386D02*
Y212008D01*
X1341536Y92520D02*
X1351378D01*
X1341536Y68898D02*
Y92520D01*
Y68898D02*
X1351378D01*
Y92520D01*
X1318603Y188386D02*
X1328445D01*
Y212008D01*
X1318603D02*
X1328445D01*
X1318603Y188386D02*
Y212008D01*
X1161614Y92520D02*
X1171456D01*
X1161614Y68898D02*
Y92520D01*
Y68898D02*
X1171456D01*
Y92520D01*
X1138681Y188386D02*
X1148523D01*
Y212008D01*
X1138681D02*
X1148523D01*
X1138681Y188386D02*
Y212008D01*
X981693Y92520D02*
X991535D01*
X981693Y68898D02*
Y92520D01*
Y68898D02*
X991535D01*
Y92520D01*
X958760Y188386D02*
X968602D01*
Y212008D01*
X958760D02*
X968602D01*
X958760Y188386D02*
Y212008D01*
X801772Y92520D02*
X811614D01*
X801772Y68898D02*
Y92520D01*
Y68898D02*
X811614D01*
Y92520D01*
X778839Y188386D02*
X788681D01*
Y212008D01*
X778839D02*
X788681D01*
X778839Y188386D02*
Y212008D01*
X621851Y92520D02*
X631693D01*
X621851Y68898D02*
Y92520D01*
Y68898D02*
X631693D01*
Y92520D01*
X598918Y188386D02*
X608760D01*
Y212008D01*
X598918D02*
X608760D01*
X598918Y188386D02*
Y212008D01*
X441929Y92520D02*
X451771D01*
X441929Y68898D02*
Y92520D01*
Y68898D02*
X451771D01*
Y92520D01*
X418996Y188386D02*
X428838D01*
Y212008D01*
X418996D02*
X428838D01*
X418996Y188386D02*
Y212008D01*
X262008Y92520D02*
X271850D01*
X262008Y68898D02*
Y92520D01*
Y68898D02*
X271850D01*
Y92520D01*
X239075Y188386D02*
X248917D01*
Y212008D01*
X239075D02*
X248917D01*
X239075Y188386D02*
Y212008D01*
X42520Y218504D02*
X75198D01*
Y221850D01*
Y265748D01*
X74607D02*
X75198D01*
X42520D02*
X74607D01*
X42520Y218504D02*
Y265748D01*
X6102Y76378D02*
X37598D01*
X6102Y21260D02*
Y76378D01*
Y21260D02*
X37598D01*
Y76378D01*
X5906Y206201D02*
X37402D01*
Y261319D01*
X5906D02*
X37402D01*
X5906Y206201D02*
Y261319D01*
X6201Y113976D02*
X37697D01*
Y169094D01*
X6201D02*
X37697D01*
X6201Y113976D02*
Y169094D01*
X68110Y238583D02*
Y270866D01*
X49212D02*
X68110D01*
X49212Y238583D02*
Y270866D01*
Y238583D02*
X68110D01*
X192224Y164960D02*
Y197638D01*
Y164960D02*
X195570D01*
X239468D01*
Y165551D01*
Y197638D01*
X192224D02*
X239468D01*
X213050Y120513D02*
X218956D01*
X213050Y116576D02*
Y120513D01*
X207145D02*
X213050Y116576D01*
X207145Y120513D02*
X213050Y124450D01*
Y120513D02*
Y124450D01*
X207145Y120513D02*
Y124450D01*
X208917Y126221D01*
X207145Y116576D02*
Y120513D01*
X205373Y114804D02*
X207145Y116576D01*
X201436Y120513D02*
X207145D01*
X1451673Y164960D02*
Y197638D01*
Y164960D02*
X1455019D01*
X1498917D01*
Y165551D01*
Y197638D01*
X1451673D02*
X1498917D01*
X1398229Y84842D02*
Y117520D01*
X1394883D02*
X1398229D01*
X1350985D02*
X1394883D01*
X1350985Y116929D02*
Y117520D01*
Y84842D02*
Y116929D01*
Y84842D02*
X1398229D01*
X1271752Y164960D02*
Y197638D01*
Y164960D02*
X1275098D01*
X1318996D01*
Y165551D01*
Y197638D01*
X1271752D02*
X1318996D01*
X1218308Y84842D02*
Y117520D01*
X1214962D02*
X1218308D01*
X1171064D02*
X1214962D01*
X1171064Y116929D02*
Y117520D01*
Y84842D02*
Y116929D01*
Y84842D02*
X1218308D01*
X1091830Y164960D02*
Y197638D01*
Y164960D02*
X1095176D01*
X1139074D01*
Y165551D01*
Y197638D01*
X1091830D02*
X1139074D01*
X991142Y84842D02*
X1038386D01*
X991142D02*
Y116929D01*
Y117520D01*
X1035040D01*
X1038386D01*
Y84842D02*
Y117520D01*
X911909Y164960D02*
Y197638D01*
Y164960D02*
X915255D01*
X959153D01*
Y165551D01*
Y197638D01*
X911909D02*
X959153D01*
X858465Y84842D02*
Y117520D01*
X855119D02*
X858465D01*
X811221D02*
X855119D01*
X811221Y116929D02*
Y117520D01*
Y84842D02*
Y116929D01*
Y84842D02*
X858465D01*
X731988Y164960D02*
Y197638D01*
Y164960D02*
X735334D01*
X779232D01*
Y165551D01*
Y197638D01*
X731988D02*
X779232D01*
X678544Y84842D02*
Y117520D01*
X675198D02*
X678544D01*
X631300D02*
X675198D01*
X631300Y116929D02*
Y117520D01*
Y84842D02*
Y116929D01*
Y84842D02*
X678544D01*
X552067Y164960D02*
Y197638D01*
Y164960D02*
X555412D01*
X599310D01*
Y165551D01*
Y197638D01*
X552067D02*
X599310D01*
X498623Y84842D02*
Y117520D01*
X495276D02*
X498623D01*
X451378D02*
X495276D01*
X451378Y116929D02*
Y117520D01*
Y84842D02*
Y116929D01*
Y84842D02*
X498623D01*
X372145Y164960D02*
Y197638D01*
Y164960D02*
X375491D01*
X419389D01*
Y165551D01*
Y197638D01*
X372145D02*
X419389D01*
X318701Y84842D02*
Y117520D01*
X315355D02*
X318701D01*
X271457D02*
X315355D01*
X271457Y116929D02*
Y117520D01*
Y84842D02*
Y116929D01*
Y84842D02*
X318701D01*
X1460885Y120513D02*
X1466594D01*
X1464822Y114804D02*
X1466594Y116576D01*
Y120513D01*
Y124450D02*
X1468366Y126221D01*
X1466594Y120513D02*
Y124450D01*
X1472499Y120513D02*
Y124450D01*
X1466594Y120513D02*
X1472499Y124450D01*
X1466594Y120513D02*
X1472499Y116576D01*
Y120513D01*
X1478405D01*
X1383307Y161850D02*
X1389016D01*
X1383307Y165787D02*
X1385079Y167559D01*
X1383307Y161850D02*
Y165787D01*
X1381535Y156142D02*
X1383307Y157913D01*
Y161850D01*
X1377402Y157913D02*
Y161850D01*
Y157913D02*
X1383307Y161850D01*
X1377402Y165787D02*
X1383307Y161850D01*
X1377402D02*
Y165787D01*
X1371496Y161850D02*
X1377402D01*
X1280964Y120513D02*
X1286673D01*
X1284901Y114804D02*
X1286673Y116576D01*
Y120513D01*
Y124450D02*
X1288445Y126221D01*
X1286673Y120513D02*
Y124450D01*
X1292578Y120513D02*
Y124450D01*
X1286673Y120513D02*
X1292578Y124450D01*
X1286673Y120513D02*
X1292578Y116576D01*
Y120513D01*
X1298484D01*
X1203386Y161850D02*
X1209095D01*
X1203386Y165787D02*
X1205158Y167559D01*
X1203386Y161850D02*
Y165787D01*
X1201614Y156142D02*
X1203386Y157913D01*
Y161850D01*
X1197481Y157913D02*
Y161850D01*
Y157913D02*
X1203386Y161850D01*
X1197481Y165787D02*
X1203386Y161850D01*
X1197481D02*
Y165787D01*
X1191575Y161850D02*
X1197481D01*
X1023465D02*
X1029174D01*
X1023465Y165787D02*
X1025237Y167559D01*
X1023465Y161850D02*
Y165787D01*
X1021693Y156142D02*
X1023465Y157913D01*
Y161850D01*
X1017560Y157913D02*
Y161850D01*
Y157913D02*
X1023465Y161850D01*
X1017560Y165787D02*
X1023465Y161850D01*
X1017560D02*
Y165787D01*
X1011654Y161850D02*
X1017560D01*
X921122Y120513D02*
X926830D01*
X925058Y114804D02*
X926830Y116576D01*
Y120513D01*
Y124450D02*
X928603Y126221D01*
X926830Y120513D02*
Y124450D01*
X932736Y120513D02*
Y124450D01*
X926830Y120513D02*
X932736Y124450D01*
X926830Y120513D02*
X932736Y116576D01*
Y120513D01*
X938641D01*
X843544Y161850D02*
X849253D01*
X843544Y165787D02*
X845316Y167559D01*
X843544Y161850D02*
Y165787D01*
X841772Y156142D02*
X843544Y157913D01*
Y161850D01*
X837639Y157913D02*
Y161850D01*
Y157913D02*
X843544Y161850D01*
X837639Y165787D02*
X843544Y161850D01*
X837639D02*
Y165787D01*
X831733Y161850D02*
X837639D01*
X663622D02*
X669331D01*
X663622Y165787D02*
X665394Y167559D01*
X663622Y161850D02*
Y165787D01*
X661850Y156142D02*
X663622Y157913D01*
Y161850D01*
X657717Y157913D02*
Y161850D01*
Y157913D02*
X663622Y161850D01*
X657717Y165787D02*
X663622Y161850D01*
X657717D02*
Y165787D01*
X651811Y161850D02*
X657717D01*
X561279Y120513D02*
X566988D01*
X565216Y114804D02*
X566988Y116576D01*
Y120513D01*
Y124450D02*
X568760Y126221D01*
X566988Y120513D02*
Y124450D01*
X572893Y120513D02*
Y124450D01*
X566988Y120513D02*
X572893Y124450D01*
X566988Y120513D02*
X572893Y116576D01*
Y120513D01*
X578799D01*
X483701Y161850D02*
X489410D01*
X483701Y165787D02*
X485473Y167559D01*
X483701Y161850D02*
Y165787D01*
X481929Y156142D02*
X483701Y157913D01*
Y161850D01*
X477796Y157913D02*
Y161850D01*
Y157913D02*
X483701Y161850D01*
X477796Y165787D02*
X483701Y161850D01*
X477796D02*
Y165787D01*
X471890Y161850D02*
X477796D01*
X303780D02*
X309489D01*
X303780Y165787D02*
X305552Y167559D01*
X303780Y161850D02*
Y165787D01*
X302008Y156142D02*
X303780Y157913D01*
Y161850D01*
X297875Y157913D02*
Y161850D01*
Y157913D02*
X303780Y161850D01*
X297875Y165787D02*
X303780Y161850D01*
X297875D02*
Y165787D01*
X291969Y161850D02*
X297875D01*
X91536Y84842D02*
X138780D01*
X91536D02*
Y116929D01*
Y117520D01*
X135434D01*
X138780D01*
Y84842D02*
Y117520D01*
D14*
X27362Y93504D02*
X27756D01*
X27362Y97047D02*
X27756D01*
X28150Y89370D02*
X28543D01*
X28150Y86220D02*
X28543D01*
X12008Y93504D02*
X12402D01*
X12008Y97047D02*
X12402D01*
X12953Y89370D02*
X13347D01*
X12953Y86220D02*
X13347D01*
X13189Y101181D02*
X13583D01*
X13189Y104331D02*
X13583D01*
X28150Y101181D02*
X28543D01*
X28150Y104331D02*
X28543D01*
X13189Y193307D02*
X13583D01*
X13189Y196457D02*
X13583D01*
X27756Y189371D02*
X28150D01*
X27756Y185827D02*
X28150D01*
X13189Y178740D02*
X13583D01*
X13189Y181890D02*
X13583D01*
X28543Y178740D02*
X28937D01*
X28543Y181890D02*
X28937D01*
X28543Y193701D02*
X28937D01*
X28543Y196850D02*
X28937D01*
X12008Y189371D02*
X12402D01*
X12008Y185827D02*
X12402D01*
X205610Y160335D02*
X206004D01*
X205610Y163091D02*
X206004D01*
X205610Y155522D02*
X206004D01*
X205610Y158278D02*
X206004D01*
X1465059Y160335D02*
X1465453D01*
X1465059Y163091D02*
X1465453D01*
X1465059Y155522D02*
X1465453D01*
X1465059Y158278D02*
X1465453D01*
X1384449Y122146D02*
X1384843D01*
X1384449Y119390D02*
X1384843D01*
X1384449Y126958D02*
X1384843D01*
X1384449Y124203D02*
X1384843D01*
X1285138Y160335D02*
X1285532D01*
X1285138Y163091D02*
X1285532D01*
X1285138Y155522D02*
X1285532D01*
X1285138Y158278D02*
X1285532D01*
X1204528Y122146D02*
X1204921D01*
X1204528Y119390D02*
X1204921D01*
X1204528Y126958D02*
X1204921D01*
X1204528Y124203D02*
X1204921D01*
X1105217Y160335D02*
X1105610D01*
X1105217Y163091D02*
X1105610D01*
X1105217Y155522D02*
X1105610D01*
X1105217Y158278D02*
X1105610D01*
X1024607Y119390D02*
X1025000D01*
X1024607Y122146D02*
X1025000D01*
X1024607Y124203D02*
X1025000D01*
X1024607Y126958D02*
X1025000D01*
X925296Y160335D02*
X925689D01*
X925296Y163091D02*
X925689D01*
X925296Y155522D02*
X925689D01*
X925296Y158278D02*
X925689D01*
X844685Y122146D02*
X845079D01*
X844685Y119390D02*
X845079D01*
X844685Y126958D02*
X845079D01*
X844685Y124203D02*
X845079D01*
X745374Y160335D02*
X745768D01*
X745374Y163091D02*
X745768D01*
X745374Y155522D02*
X745768D01*
X745374Y158278D02*
X745768D01*
X664764Y122146D02*
X665158D01*
X664764Y119390D02*
X665158D01*
X664764Y126958D02*
X665158D01*
X664764Y124203D02*
X665158D01*
X565453Y160335D02*
X565846D01*
X565453Y163091D02*
X565846D01*
X565453Y155522D02*
X565846D01*
X565453Y158278D02*
X565846D01*
X484843Y122146D02*
X485236D01*
X484843Y119390D02*
X485236D01*
X484843Y126958D02*
X485236D01*
X484843Y124203D02*
X485236D01*
X385532Y160335D02*
X385925D01*
X385532Y163091D02*
X385925D01*
X385532Y155522D02*
X385925D01*
X385532Y158278D02*
X385925D01*
X304921Y122146D02*
X305315D01*
X304921Y119390D02*
X305315D01*
X304921Y126958D02*
X305315D01*
X304921Y124203D02*
X305315D01*
X125000D02*
X125394D01*
X125000Y126958D02*
X125394D01*
X125000Y119390D02*
X125394D01*
X125000Y122146D02*
X125394D01*
D15*
X261417Y122539D02*
Y118940D01*
X263217D01*
X263817Y119540D01*
Y120740D01*
X263217Y121340D01*
X261417D01*
X262617D02*
X263817Y122539D01*
X265016Y119540D02*
X265616Y118940D01*
X266816D01*
X267415Y119540D01*
Y120140D01*
X266816Y120740D01*
X266216D01*
X266816D01*
X267415Y121340D01*
Y121940D01*
X266816Y122539D01*
X265616D01*
X265016Y121940D01*
X272214Y122539D02*
X273413D01*
X272814D01*
Y118940D01*
X272214Y119540D01*
X275213D02*
X275813Y118940D01*
X277012D01*
X277612Y119540D01*
Y121940D01*
X277012Y122539D01*
X275813D01*
X275213Y121940D01*
Y119540D01*
X278812D02*
X279412Y118940D01*
X280611D01*
X281211Y119540D01*
Y121940D01*
X280611Y122539D01*
X279412D01*
X278812Y121940D01*
Y119540D01*
X282411Y118940D02*
Y122539D01*
Y121340D01*
X284810Y118940D01*
X283010Y120740D01*
X284810Y122539D01*
X289608D02*
Y118940D01*
X292007Y122539D01*
Y118940D01*
X293207D02*
X295606D01*
X294407D01*
Y122539D01*
X299205Y119540D02*
X298605Y118940D01*
X297406D01*
X296806Y119540D01*
Y121940D01*
X297406Y122539D01*
X298605D01*
X299205Y121940D01*
X278740Y127362D02*
Y123763D01*
X280540D01*
X281139Y124363D01*
Y125563D01*
X280540Y126163D01*
X278740D01*
X279940D02*
X281139Y127362D01*
X284738Y123763D02*
X282339D01*
Y125563D01*
X283539Y124963D01*
X284138D01*
X284738Y125563D01*
Y126762D01*
X284138Y127362D01*
X282939D01*
X282339Y126762D01*
X289537Y124363D02*
X290137Y123763D01*
X291336D01*
X291936Y124363D01*
Y124963D01*
X291336Y125563D01*
X290736D01*
X291336D01*
X291936Y126163D01*
Y126762D01*
X291336Y127362D01*
X290137D01*
X289537Y126762D01*
X293135Y123763D02*
Y127362D01*
Y126163D01*
X295535Y123763D01*
X293735Y125563D01*
X295535Y127362D01*
X296734Y124363D02*
X297334Y123763D01*
X298534D01*
X299134Y124363D01*
Y124963D01*
X298534Y125563D01*
X297934D01*
X298534D01*
X299134Y126163D01*
Y126762D01*
X298534Y127362D01*
X297334D01*
X296734Y126762D01*
X261417Y122539D02*
Y118940D01*
X263217D01*
X263817Y119540D01*
Y120740D01*
X263217Y121340D01*
X261417D01*
X262617D02*
X263817Y122539D01*
X265016Y119540D02*
X265616Y118940D01*
X266816D01*
X267415Y119540D01*
Y120140D01*
X266816Y120740D01*
X266216D01*
X266816D01*
X267415Y121340D01*
Y121940D01*
X266816Y122539D01*
X265616D01*
X265016Y121940D01*
X272214Y122539D02*
X273413D01*
X272814D01*
Y118940D01*
X272214Y119540D01*
X275213D02*
X275813Y118940D01*
X277012D01*
X277612Y119540D01*
Y121940D01*
X277012Y122539D01*
X275813D01*
X275213Y121940D01*
Y119540D01*
X278812D02*
X279412Y118940D01*
X280611D01*
X281211Y119540D01*
Y121940D01*
X280611Y122539D01*
X279412D01*
X278812Y121940D01*
Y119540D01*
X282411Y118940D02*
Y122539D01*
Y121340D01*
X284810Y118940D01*
X283010Y120740D01*
X284810Y122539D01*
X289608D02*
Y118940D01*
X292007Y122539D01*
Y118940D01*
X293207D02*
X295606D01*
X294407D01*
Y122539D01*
X299205Y119540D02*
X298605Y118940D01*
X297406D01*
X296806Y119540D01*
Y121940D01*
X297406Y122539D01*
X298605D01*
X299205Y121940D01*
X278740Y127362D02*
Y123763D01*
X280540D01*
X281139Y124363D01*
Y125563D01*
X280540Y126163D01*
X278740D01*
X279940D02*
X281139Y127362D01*
X284738Y123763D02*
X282339D01*
Y125563D01*
X283539Y124963D01*
X284138D01*
X284738Y125563D01*
Y126762D01*
X284138Y127362D01*
X282939D01*
X282339Y126762D01*
X289537Y124363D02*
X290137Y123763D01*
X291336D01*
X291936Y124363D01*
Y124963D01*
X291336Y125563D01*
X290736D01*
X291336D01*
X291936Y126163D01*
Y126762D01*
X291336Y127362D01*
X290137D01*
X289537Y126762D01*
X293135Y123763D02*
Y127362D01*
Y126163D01*
X295535Y123763D01*
X293735Y125563D01*
X295535Y127362D01*
X296734Y124363D02*
X297334Y123763D01*
X298534D01*
X299134Y124363D01*
Y124963D01*
X298534Y125563D01*
X297934D01*
X298534D01*
X299134Y126163D01*
Y126762D01*
X298534Y127362D01*
X297334D01*
X296734Y126762D01*
X261417Y122539D02*
Y118940D01*
X263217D01*
X263817Y119540D01*
Y120740D01*
X263217Y121340D01*
X261417D01*
X262617D02*
X263817Y122539D01*
X265016Y119540D02*
X265616Y118940D01*
X266816D01*
X267415Y119540D01*
Y120140D01*
X266816Y120740D01*
X266216D01*
X266816D01*
X267415Y121340D01*
Y121940D01*
X266816Y122539D01*
X265616D01*
X265016Y121940D01*
X272214Y122539D02*
X273413D01*
X272814D01*
Y118940D01*
X272214Y119540D01*
X275213D02*
X275813Y118940D01*
X277012D01*
X277612Y119540D01*
Y121940D01*
X277012Y122539D01*
X275813D01*
X275213Y121940D01*
Y119540D01*
X278812D02*
X279412Y118940D01*
X280611D01*
X281211Y119540D01*
Y121940D01*
X280611Y122539D01*
X279412D01*
X278812Y121940D01*
Y119540D01*
X282411Y118940D02*
Y122539D01*
Y121340D01*
X284810Y118940D01*
X283010Y120740D01*
X284810Y122539D01*
X289608D02*
Y118940D01*
X292007Y122539D01*
Y118940D01*
X293207D02*
X295606D01*
X294407D01*
Y122539D01*
X299205Y119540D02*
X298605Y118940D01*
X297406D01*
X296806Y119540D01*
Y121940D01*
X297406Y122539D01*
X298605D01*
X299205Y121940D01*
X278740Y127362D02*
Y123763D01*
X280540D01*
X281139Y124363D01*
Y125563D01*
X280540Y126163D01*
X278740D01*
X279940D02*
X281139Y127362D01*
X284738Y123763D02*
X282339D01*
Y125563D01*
X283539Y124963D01*
X284138D01*
X284738Y125563D01*
Y126762D01*
X284138Y127362D01*
X282939D01*
X282339Y126762D01*
X289537Y124363D02*
X290137Y123763D01*
X291336D01*
X291936Y124363D01*
Y124963D01*
X291336Y125563D01*
X290736D01*
X291336D01*
X291936Y126163D01*
Y126762D01*
X291336Y127362D01*
X290137D01*
X289537Y126762D01*
X293135Y123763D02*
Y127362D01*
Y126163D01*
X295535Y123763D01*
X293735Y125563D01*
X295535Y127362D01*
X296734Y124363D02*
X297334Y123763D01*
X298534D01*
X299134Y124363D01*
Y124963D01*
X298534Y125563D01*
X297934D01*
X298534D01*
X299134Y126163D01*
Y126762D01*
X298534Y127362D01*
X297334D01*
X296734Y126762D01*
X261417Y122539D02*
Y118940D01*
X263217D01*
X263817Y119540D01*
Y120740D01*
X263217Y121340D01*
X261417D01*
X262617D02*
X263817Y122539D01*
X265016Y119540D02*
X265616Y118940D01*
X266816D01*
X267415Y119540D01*
Y120140D01*
X266816Y120740D01*
X266216D01*
X266816D01*
X267415Y121340D01*
Y121940D01*
X266816Y122539D01*
X265616D01*
X265016Y121940D01*
X272214Y122539D02*
X273413D01*
X272814D01*
Y118940D01*
X272214Y119540D01*
X275213D02*
X275813Y118940D01*
X277012D01*
X277612Y119540D01*
Y121940D01*
X277012Y122539D01*
X275813D01*
X275213Y121940D01*
Y119540D01*
X278812D02*
X279412Y118940D01*
X280611D01*
X281211Y119540D01*
Y121940D01*
X280611Y122539D01*
X279412D01*
X278812Y121940D01*
Y119540D01*
X282411Y118940D02*
Y122539D01*
Y121340D01*
X284810Y118940D01*
X283010Y120740D01*
X284810Y122539D01*
X289608D02*
Y118940D01*
X292007Y122539D01*
Y118940D01*
X293207D02*
X295606D01*
X294407D01*
Y122539D01*
X299205Y119540D02*
X298605Y118940D01*
X297406D01*
X296806Y119540D01*
Y121940D01*
X297406Y122539D01*
X298605D01*
X299205Y121940D01*
X278740Y127362D02*
Y123763D01*
X280540D01*
X281139Y124363D01*
Y125563D01*
X280540Y126163D01*
X278740D01*
X279940D02*
X281139Y127362D01*
X284738Y123763D02*
X282339D01*
Y125563D01*
X283539Y124963D01*
X284138D01*
X284738Y125563D01*
Y126762D01*
X284138Y127362D01*
X282939D01*
X282339Y126762D01*
X289537Y124363D02*
X290137Y123763D01*
X291336D01*
X291936Y124363D01*
Y124963D01*
X291336Y125563D01*
X290736D01*
X291336D01*
X291936Y126163D01*
Y126762D01*
X291336Y127362D01*
X290137D01*
X289537Y126762D01*
X293135Y123763D02*
Y127362D01*
Y126163D01*
X295535Y123763D01*
X293735Y125563D01*
X295535Y127362D01*
X296734Y124363D02*
X297334Y123763D01*
X298534D01*
X299134Y124363D01*
Y124963D01*
X298534Y125563D01*
X297934D01*
X298534D01*
X299134Y126163D01*
Y126762D01*
X298534Y127362D01*
X297334D01*
X296734Y126762D01*
X1471260Y164174D02*
Y160575D01*
X1473059D01*
X1473659Y161175D01*
Y162374D01*
X1473059Y162974D01*
X1471260D01*
X1472459D02*
X1473659Y164174D01*
X1474859Y161175D02*
X1475459Y160575D01*
X1476658D01*
X1477258Y161175D01*
Y161775D01*
X1476658Y162374D01*
X1476058D01*
X1476658D01*
X1477258Y162974D01*
Y163574D01*
X1476658Y164174D01*
X1475459D01*
X1474859Y163574D01*
X1482056Y164174D02*
X1483256D01*
X1482656D01*
Y160575D01*
X1482056Y161175D01*
X1485055D02*
X1485655Y160575D01*
X1486855D01*
X1487455Y161175D01*
Y163574D01*
X1486855Y164174D01*
X1485655D01*
X1485055Y163574D01*
Y161175D01*
X1488654D02*
X1489254Y160575D01*
X1490454D01*
X1491053Y161175D01*
Y163574D01*
X1490454Y164174D01*
X1489254D01*
X1488654Y163574D01*
Y161175D01*
X1492253Y160575D02*
Y164174D01*
Y162974D01*
X1494652Y160575D01*
X1492853Y162374D01*
X1494652Y164174D01*
X1499451D02*
Y160575D01*
X1501850Y164174D01*
Y160575D01*
X1503050D02*
X1505449D01*
X1504249D01*
Y164174D01*
X1509048Y161175D02*
X1508448Y160575D01*
X1507248D01*
X1506648Y161175D01*
Y163574D01*
X1507248Y164174D01*
X1508448D01*
X1509048Y163574D01*
X1471260Y158957D02*
Y155358D01*
X1473059D01*
X1473659Y155958D01*
Y157158D01*
X1473059Y157758D01*
X1471260D01*
X1472459D02*
X1473659Y158957D01*
X1477258Y155358D02*
X1474859D01*
Y157158D01*
X1476058Y156558D01*
X1476658D01*
X1477258Y157158D01*
Y158358D01*
X1476658Y158957D01*
X1475459D01*
X1474859Y158358D01*
X1482056Y155958D02*
X1482656Y155358D01*
X1483856D01*
X1484456Y155958D01*
Y156558D01*
X1483856Y157158D01*
X1483256D01*
X1483856D01*
X1484456Y157758D01*
Y158358D01*
X1483856Y158957D01*
X1482656D01*
X1482056Y158358D01*
X1485655Y155358D02*
Y158957D01*
Y157758D01*
X1488054Y155358D01*
X1486255Y157158D01*
X1488054Y158957D01*
X1489254Y155958D02*
X1489854Y155358D01*
X1491053D01*
X1491653Y155958D01*
Y156558D01*
X1491053Y157158D01*
X1490454D01*
X1491053D01*
X1491653Y157758D01*
Y158358D01*
X1491053Y158957D01*
X1489854D01*
X1489254Y158358D01*
X1291339Y164174D02*
Y160575D01*
X1293138D01*
X1293738Y161175D01*
Y162374D01*
X1293138Y162974D01*
X1291339D01*
X1292538D02*
X1293738Y164174D01*
X1294937Y161175D02*
X1295537Y160575D01*
X1296737D01*
X1297337Y161175D01*
Y161775D01*
X1296737Y162374D01*
X1296137D01*
X1296737D01*
X1297337Y162974D01*
Y163574D01*
X1296737Y164174D01*
X1295537D01*
X1294937Y163574D01*
X1302135Y164174D02*
X1303335D01*
X1302735D01*
Y160575D01*
X1302135Y161175D01*
X1305134D02*
X1305734Y160575D01*
X1306933D01*
X1307533Y161175D01*
Y163574D01*
X1306933Y164174D01*
X1305734D01*
X1305134Y163574D01*
Y161175D01*
X1308733D02*
X1309333Y160575D01*
X1310532D01*
X1311132Y161175D01*
Y163574D01*
X1310532Y164174D01*
X1309333D01*
X1308733Y163574D01*
Y161175D01*
X1312332Y160575D02*
Y164174D01*
Y162974D01*
X1314731Y160575D01*
X1312932Y162374D01*
X1314731Y164174D01*
X1319530D02*
Y160575D01*
X1321929Y164174D01*
Y160575D01*
X1323128D02*
X1325527D01*
X1324328D01*
Y164174D01*
X1329126Y161175D02*
X1328527Y160575D01*
X1327327D01*
X1326727Y161175D01*
Y163574D01*
X1327327Y164174D01*
X1328527D01*
X1329126Y163574D01*
X1291339Y158957D02*
Y155358D01*
X1293138D01*
X1293738Y155958D01*
Y157158D01*
X1293138Y157758D01*
X1291339D01*
X1292538D02*
X1293738Y158957D01*
X1297337Y155358D02*
X1294937D01*
Y157158D01*
X1296137Y156558D01*
X1296737D01*
X1297337Y157158D01*
Y158358D01*
X1296737Y158957D01*
X1295537D01*
X1294937Y158358D01*
X1302135Y155958D02*
X1302735Y155358D01*
X1303934D01*
X1304534Y155958D01*
Y156558D01*
X1303934Y157158D01*
X1303335D01*
X1303934D01*
X1304534Y157758D01*
Y158358D01*
X1303934Y158957D01*
X1302735D01*
X1302135Y158358D01*
X1305734Y155358D02*
Y158957D01*
Y157758D01*
X1308133Y155358D01*
X1306334Y157158D01*
X1308133Y158957D01*
X1309333Y155958D02*
X1309933Y155358D01*
X1311132D01*
X1311732Y155958D01*
Y156558D01*
X1311132Y157158D01*
X1310532D01*
X1311132D01*
X1311732Y157758D01*
Y158358D01*
X1311132Y158957D01*
X1309933D01*
X1309333Y158358D01*
X1111417Y164174D02*
Y160575D01*
X1113217D01*
X1113817Y161175D01*
Y162374D01*
X1113217Y162974D01*
X1111417D01*
X1112617D02*
X1113817Y164174D01*
X1115016Y161175D02*
X1115616Y160575D01*
X1116816D01*
X1117415Y161175D01*
Y161775D01*
X1116816Y162374D01*
X1116216D01*
X1116816D01*
X1117415Y162974D01*
Y163574D01*
X1116816Y164174D01*
X1115616D01*
X1115016Y163574D01*
X1122214Y164174D02*
X1123413D01*
X1122814D01*
Y160575D01*
X1122214Y161175D01*
X1125213D02*
X1125813Y160575D01*
X1127012D01*
X1127612Y161175D01*
Y163574D01*
X1127012Y164174D01*
X1125813D01*
X1125213Y163574D01*
Y161175D01*
X1128812D02*
X1129412Y160575D01*
X1130611D01*
X1131211Y161175D01*
Y163574D01*
X1130611Y164174D01*
X1129412D01*
X1128812Y163574D01*
Y161175D01*
X1132411Y160575D02*
Y164174D01*
Y162974D01*
X1134810Y160575D01*
X1133010Y162374D01*
X1134810Y164174D01*
X1139608D02*
Y160575D01*
X1142008Y164174D01*
Y160575D01*
X1143207D02*
X1145606D01*
X1144407D01*
Y164174D01*
X1149205Y161175D02*
X1148605Y160575D01*
X1147406D01*
X1146806Y161175D01*
Y163574D01*
X1147406Y164174D01*
X1148605D01*
X1149205Y163574D01*
X1111417Y158957D02*
Y155358D01*
X1113217D01*
X1113817Y155958D01*
Y157158D01*
X1113217Y157758D01*
X1111417D01*
X1112617D02*
X1113817Y158957D01*
X1117415Y155358D02*
X1115016D01*
Y157158D01*
X1116216Y156558D01*
X1116816D01*
X1117415Y157158D01*
Y158358D01*
X1116816Y158957D01*
X1115616D01*
X1115016Y158358D01*
X1122214Y155958D02*
X1122814Y155358D01*
X1124013D01*
X1124613Y155958D01*
Y156558D01*
X1124013Y157158D01*
X1123413D01*
X1124013D01*
X1124613Y157758D01*
Y158358D01*
X1124013Y158957D01*
X1122814D01*
X1122214Y158358D01*
X1125813Y155358D02*
Y158957D01*
Y157758D01*
X1128212Y155358D01*
X1126412Y157158D01*
X1128212Y158957D01*
X1129412Y155958D02*
X1130011Y155358D01*
X1131211D01*
X1131811Y155958D01*
Y156558D01*
X1131211Y157158D01*
X1130611D01*
X1131211D01*
X1131811Y157758D01*
Y158358D01*
X1131211Y158957D01*
X1130011D01*
X1129412Y158358D01*
X931496Y164174D02*
Y160575D01*
X933296D01*
X933895Y161175D01*
Y162374D01*
X933296Y162974D01*
X931496D01*
X932696D02*
X933895Y164174D01*
X935095Y161175D02*
X935695Y160575D01*
X936894D01*
X937494Y161175D01*
Y161775D01*
X936894Y162374D01*
X936294D01*
X936894D01*
X937494Y162974D01*
Y163574D01*
X936894Y164174D01*
X935695D01*
X935095Y163574D01*
X942293Y164174D02*
X943492D01*
X942892D01*
Y160575D01*
X942293Y161175D01*
X945292D02*
X945891Y160575D01*
X947091D01*
X947691Y161175D01*
Y163574D01*
X947091Y164174D01*
X945891D01*
X945292Y163574D01*
Y161175D01*
X948890D02*
X949490Y160575D01*
X950690D01*
X951290Y161175D01*
Y163574D01*
X950690Y164174D01*
X949490D01*
X948890Y163574D01*
Y161175D01*
X952489Y160575D02*
Y164174D01*
Y162974D01*
X954889Y160575D01*
X953089Y162374D01*
X954889Y164174D01*
X959687D02*
Y160575D01*
X962086Y164174D01*
Y160575D01*
X963286D02*
X965685D01*
X964485D01*
Y164174D01*
X969284Y161175D02*
X968684Y160575D01*
X967484D01*
X966885Y161175D01*
Y163574D01*
X967484Y164174D01*
X968684D01*
X969284Y163574D01*
X931496Y158957D02*
Y155358D01*
X933296D01*
X933895Y155958D01*
Y157158D01*
X933296Y157758D01*
X931496D01*
X932696D02*
X933895Y158957D01*
X937494Y155358D02*
X935095D01*
Y157158D01*
X936294Y156558D01*
X936894D01*
X937494Y157158D01*
Y158358D01*
X936894Y158957D01*
X935695D01*
X935095Y158358D01*
X942293Y155958D02*
X942892Y155358D01*
X944092D01*
X944692Y155958D01*
Y156558D01*
X944092Y157158D01*
X943492D01*
X944092D01*
X944692Y157758D01*
Y158358D01*
X944092Y158957D01*
X942892D01*
X942293Y158358D01*
X945891Y155358D02*
Y158957D01*
Y157758D01*
X948291Y155358D01*
X946491Y157158D01*
X948291Y158957D01*
X949490Y155958D02*
X950090Y155358D01*
X951290D01*
X951890Y155958D01*
Y156558D01*
X951290Y157158D01*
X950690D01*
X951290D01*
X951890Y157758D01*
Y158358D01*
X951290Y158957D01*
X950090D01*
X949490Y158358D01*
X751575Y164174D02*
Y160575D01*
X753374D01*
X753974Y161175D01*
Y162374D01*
X753374Y162974D01*
X751575D01*
X752774D02*
X753974Y164174D01*
X755174Y161175D02*
X755773Y160575D01*
X756973D01*
X757573Y161175D01*
Y161775D01*
X756973Y162374D01*
X756373D01*
X756973D01*
X757573Y162974D01*
Y163574D01*
X756973Y164174D01*
X755773D01*
X755174Y163574D01*
X762371Y164174D02*
X763571D01*
X762971D01*
Y160575D01*
X762371Y161175D01*
X765370D02*
X765970Y160575D01*
X767170D01*
X767770Y161175D01*
Y163574D01*
X767170Y164174D01*
X765970D01*
X765370Y163574D01*
Y161175D01*
X768969D02*
X769569Y160575D01*
X770769D01*
X771368Y161175D01*
Y163574D01*
X770769Y164174D01*
X769569D01*
X768969Y163574D01*
Y161175D01*
X772568Y160575D02*
Y164174D01*
Y162974D01*
X774967Y160575D01*
X773168Y162374D01*
X774967Y164174D01*
X779766D02*
Y160575D01*
X782165Y164174D01*
Y160575D01*
X783365D02*
X785764D01*
X784564D01*
Y164174D01*
X789363Y161175D02*
X788763Y160575D01*
X787563D01*
X786963Y161175D01*
Y163574D01*
X787563Y164174D01*
X788763D01*
X789363Y163574D01*
X751575Y158957D02*
Y155358D01*
X753374D01*
X753974Y155958D01*
Y157158D01*
X753374Y157758D01*
X751575D01*
X752774D02*
X753974Y158957D01*
X757573Y155358D02*
X755174D01*
Y157158D01*
X756373Y156558D01*
X756973D01*
X757573Y157158D01*
Y158358D01*
X756973Y158957D01*
X755773D01*
X755174Y158358D01*
X762371Y155958D02*
X762971Y155358D01*
X764171D01*
X764771Y155958D01*
Y156558D01*
X764171Y157158D01*
X763571D01*
X764171D01*
X764771Y157758D01*
Y158358D01*
X764171Y158957D01*
X762971D01*
X762371Y158358D01*
X765970Y155358D02*
Y158957D01*
Y157758D01*
X768369Y155358D01*
X766570Y157158D01*
X768369Y158957D01*
X769569Y155958D02*
X770169Y155358D01*
X771369D01*
X771968Y155958D01*
Y156558D01*
X771369Y157158D01*
X770769D01*
X771369D01*
X771968Y157758D01*
Y158358D01*
X771369Y158957D01*
X770169D01*
X769569Y158358D01*
X571654Y164174D02*
Y160575D01*
X573453D01*
X574053Y161175D01*
Y162374D01*
X573453Y162974D01*
X571654D01*
X572853D02*
X574053Y164174D01*
X575252Y161175D02*
X575852Y160575D01*
X577052D01*
X577652Y161175D01*
Y161775D01*
X577052Y162374D01*
X576452D01*
X577052D01*
X577652Y162974D01*
Y163574D01*
X577052Y164174D01*
X575852D01*
X575252Y163574D01*
X582450Y164174D02*
X583650D01*
X583050D01*
Y160575D01*
X582450Y161175D01*
X585449D02*
X586049Y160575D01*
X587249D01*
X587848Y161175D01*
Y163574D01*
X587249Y164174D01*
X586049D01*
X585449Y163574D01*
Y161175D01*
X589048D02*
X589648Y160575D01*
X590847D01*
X591447Y161175D01*
Y163574D01*
X590847Y164174D01*
X589648D01*
X589048Y163574D01*
Y161175D01*
X592647Y160575D02*
Y164174D01*
Y162974D01*
X595046Y160575D01*
X593247Y162374D01*
X595046Y164174D01*
X599845D02*
Y160575D01*
X602244Y164174D01*
Y160575D01*
X603443D02*
X605842D01*
X604643D01*
Y164174D01*
X609441Y161175D02*
X608842Y160575D01*
X607642D01*
X607042Y161175D01*
Y163574D01*
X607642Y164174D01*
X608842D01*
X609441Y163574D01*
X571654Y158957D02*
Y155358D01*
X573453D01*
X574053Y155958D01*
Y157158D01*
X573453Y157758D01*
X571654D01*
X572853D02*
X574053Y158957D01*
X577652Y155358D02*
X575252D01*
Y157158D01*
X576452Y156558D01*
X577052D01*
X577652Y157158D01*
Y158358D01*
X577052Y158957D01*
X575852D01*
X575252Y158358D01*
X582450Y155958D02*
X583050Y155358D01*
X584249D01*
X584849Y155958D01*
Y156558D01*
X584249Y157158D01*
X583650D01*
X584249D01*
X584849Y157758D01*
Y158358D01*
X584249Y158957D01*
X583050D01*
X582450Y158358D01*
X586049Y155358D02*
Y158957D01*
Y157758D01*
X588448Y155358D01*
X586649Y157158D01*
X588448Y158957D01*
X589648Y155958D02*
X590248Y155358D01*
X591447D01*
X592047Y155958D01*
Y156558D01*
X591447Y157158D01*
X590847D01*
X591447D01*
X592047Y157758D01*
Y158358D01*
X591447Y158957D01*
X590248D01*
X589648Y158358D01*
X391732Y164174D02*
Y160575D01*
X393532D01*
X394131Y161175D01*
Y162374D01*
X393532Y162974D01*
X391732D01*
X392932D02*
X394131Y164174D01*
X395331Y161175D02*
X395931Y160575D01*
X397130D01*
X397730Y161175D01*
Y161775D01*
X397130Y162374D01*
X396531D01*
X397130D01*
X397730Y162974D01*
Y163574D01*
X397130Y164174D01*
X395931D01*
X395331Y163574D01*
X402529Y164174D02*
X403728D01*
X403129D01*
Y160575D01*
X402529Y161175D01*
X405528D02*
X406128Y160575D01*
X407327D01*
X407927Y161175D01*
Y163574D01*
X407327Y164174D01*
X406128D01*
X405528Y163574D01*
Y161175D01*
X409127D02*
X409726Y160575D01*
X410926D01*
X411526Y161175D01*
Y163574D01*
X410926Y164174D01*
X409726D01*
X409127Y163574D01*
Y161175D01*
X412725Y160575D02*
Y164174D01*
Y162974D01*
X415125Y160575D01*
X413325Y162374D01*
X415125Y164174D01*
X419923D02*
Y160575D01*
X422322Y164174D01*
Y160575D01*
X423522D02*
X425921D01*
X424722D01*
Y164174D01*
X429520Y161175D02*
X428920Y160575D01*
X427721D01*
X427121Y161175D01*
Y163574D01*
X427721Y164174D01*
X428920D01*
X429520Y163574D01*
X391732Y158957D02*
Y155358D01*
X393532D01*
X394131Y155958D01*
Y157158D01*
X393532Y157758D01*
X391732D01*
X392932D02*
X394131Y158957D01*
X397730Y155358D02*
X395331D01*
Y157158D01*
X396531Y156558D01*
X397130D01*
X397730Y157158D01*
Y158358D01*
X397130Y158957D01*
X395931D01*
X395331Y158358D01*
X402529Y155958D02*
X403129Y155358D01*
X404328D01*
X404928Y155958D01*
Y156558D01*
X404328Y157158D01*
X403728D01*
X404328D01*
X404928Y157758D01*
Y158358D01*
X404328Y158957D01*
X403129D01*
X402529Y158358D01*
X406128Y155358D02*
Y158957D01*
Y157758D01*
X408527Y155358D01*
X406728Y157158D01*
X408527Y158957D01*
X409726Y155958D02*
X410326Y155358D01*
X411526D01*
X412126Y155958D01*
Y156558D01*
X411526Y157158D01*
X410926D01*
X411526D01*
X412126Y157758D01*
Y158358D01*
X411526Y158957D01*
X410326D01*
X409726Y158358D01*
X998425Y127362D02*
Y123763D01*
X1000225D01*
X1000825Y124363D01*
Y125563D01*
X1000225Y126163D01*
X998425D01*
X999625D02*
X1000825Y127362D01*
X1004423Y123763D02*
X1002024D01*
Y125563D01*
X1003224Y124963D01*
X1003823D01*
X1004423Y125563D01*
Y126762D01*
X1003823Y127362D01*
X1002624D01*
X1002024Y126762D01*
X1009222Y124363D02*
X1009822Y123763D01*
X1011021D01*
X1011621Y124363D01*
Y124963D01*
X1011021Y125563D01*
X1010421D01*
X1011021D01*
X1011621Y126163D01*
Y126762D01*
X1011021Y127362D01*
X1009822D01*
X1009222Y126762D01*
X1012821Y123763D02*
Y127362D01*
Y126163D01*
X1015220Y123763D01*
X1013420Y125563D01*
X1015220Y127362D01*
X1016419Y124363D02*
X1017019Y123763D01*
X1018219D01*
X1018819Y124363D01*
Y124963D01*
X1018219Y125563D01*
X1017619D01*
X1018219D01*
X1018819Y126163D01*
Y126762D01*
X1018219Y127362D01*
X1017019D01*
X1016419Y126762D01*
X981102Y122539D02*
Y118940D01*
X982902D01*
X983502Y119540D01*
Y120740D01*
X982902Y121340D01*
X981102D01*
X982302D02*
X983502Y122539D01*
X984701Y119540D02*
X985301Y118940D01*
X986501D01*
X987101Y119540D01*
Y120140D01*
X986501Y120740D01*
X985901D01*
X986501D01*
X987101Y121340D01*
Y121940D01*
X986501Y122539D01*
X985301D01*
X984701Y121940D01*
X991899Y122539D02*
X993099D01*
X992499D01*
Y118940D01*
X991899Y119540D01*
X994898D02*
X995498Y118940D01*
X996697D01*
X997297Y119540D01*
Y121940D01*
X996697Y122539D01*
X995498D01*
X994898Y121940D01*
Y119540D01*
X998497D02*
X999097Y118940D01*
X1000296D01*
X1000896Y119540D01*
Y121940D01*
X1000296Y122539D01*
X999097D01*
X998497Y121940D01*
Y119540D01*
X1002096Y118940D02*
Y122539D01*
Y121340D01*
X1004495Y118940D01*
X1002695Y120740D01*
X1004495Y122539D01*
X1009293D02*
Y118940D01*
X1011693Y122539D01*
Y118940D01*
X1012892D02*
X1015291D01*
X1014092D01*
Y122539D01*
X1018890Y119540D02*
X1018290Y118940D01*
X1017091D01*
X1016491Y119540D01*
Y121940D01*
X1017091Y122539D01*
X1018290D01*
X1018890Y121940D01*
X1358268Y127362D02*
Y123763D01*
X1360067D01*
X1360667Y124363D01*
Y125563D01*
X1360067Y126163D01*
X1358268D01*
X1359467D02*
X1360667Y127362D01*
X1364266Y123763D02*
X1361867D01*
Y125563D01*
X1363066Y124963D01*
X1363666D01*
X1364266Y125563D01*
Y126762D01*
X1363666Y127362D01*
X1362466D01*
X1361867Y126762D01*
X1369064Y124363D02*
X1369664Y123763D01*
X1370864D01*
X1371463Y124363D01*
Y124963D01*
X1370864Y125563D01*
X1370264D01*
X1370864D01*
X1371463Y126163D01*
Y126762D01*
X1370864Y127362D01*
X1369664D01*
X1369064Y126762D01*
X1372663Y123763D02*
Y127362D01*
Y126163D01*
X1375062Y123763D01*
X1373263Y125563D01*
X1375062Y127362D01*
X1376262Y124363D02*
X1376862Y123763D01*
X1378061D01*
X1378661Y124363D01*
Y124963D01*
X1378061Y125563D01*
X1377462D01*
X1378061D01*
X1378661Y126163D01*
Y126762D01*
X1378061Y127362D01*
X1376862D01*
X1376262Y126762D01*
X1340945Y122539D02*
Y118940D01*
X1342744D01*
X1343344Y119540D01*
Y120740D01*
X1342744Y121340D01*
X1340945D01*
X1342144D02*
X1343344Y122539D01*
X1344544Y119540D02*
X1345144Y118940D01*
X1346343D01*
X1346943Y119540D01*
Y120140D01*
X1346343Y120740D01*
X1345743D01*
X1346343D01*
X1346943Y121340D01*
Y121940D01*
X1346343Y122539D01*
X1345144D01*
X1344544Y121940D01*
X1351741Y122539D02*
X1352941D01*
X1352341D01*
Y118940D01*
X1351741Y119540D01*
X1354740D02*
X1355340Y118940D01*
X1356540D01*
X1357140Y119540D01*
Y121940D01*
X1356540Y122539D01*
X1355340D01*
X1354740Y121940D01*
Y119540D01*
X1358339D02*
X1358939Y118940D01*
X1360139D01*
X1360738Y119540D01*
Y121940D01*
X1360139Y122539D01*
X1358939D01*
X1358339Y121940D01*
Y119540D01*
X1361938Y118940D02*
Y122539D01*
Y121340D01*
X1364337Y118940D01*
X1362538Y120740D01*
X1364337Y122539D01*
X1369136D02*
Y118940D01*
X1371535Y122539D01*
Y118940D01*
X1372735D02*
X1375134D01*
X1373934D01*
Y122539D01*
X1378733Y119540D02*
X1378133Y118940D01*
X1376933D01*
X1376334Y119540D01*
Y121940D01*
X1376933Y122539D01*
X1378133D01*
X1378733Y121940D01*
X1178347Y127362D02*
Y123763D01*
X1180146D01*
X1180746Y124363D01*
Y125563D01*
X1180146Y126163D01*
X1178347D01*
X1179546D02*
X1180746Y127362D01*
X1184344Y123763D02*
X1181945D01*
Y125563D01*
X1183145Y124963D01*
X1183745D01*
X1184344Y125563D01*
Y126762D01*
X1183745Y127362D01*
X1182545D01*
X1181945Y126762D01*
X1189143Y124363D02*
X1189743Y123763D01*
X1190942D01*
X1191542Y124363D01*
Y124963D01*
X1190942Y125563D01*
X1190343D01*
X1190942D01*
X1191542Y126163D01*
Y126762D01*
X1190942Y127362D01*
X1189743D01*
X1189143Y126762D01*
X1192742Y123763D02*
Y127362D01*
Y126163D01*
X1195141Y123763D01*
X1193342Y125563D01*
X1195141Y127362D01*
X1196341Y124363D02*
X1196941Y123763D01*
X1198140D01*
X1198740Y124363D01*
Y124963D01*
X1198140Y125563D01*
X1197540D01*
X1198140D01*
X1198740Y126163D01*
Y126762D01*
X1198140Y127362D01*
X1196941D01*
X1196341Y126762D01*
X1161024Y122539D02*
Y118940D01*
X1162823D01*
X1163423Y119540D01*
Y120740D01*
X1162823Y121340D01*
X1161024D01*
X1162223D02*
X1163423Y122539D01*
X1164622Y119540D02*
X1165222Y118940D01*
X1166422D01*
X1167022Y119540D01*
Y120140D01*
X1166422Y120740D01*
X1165822D01*
X1166422D01*
X1167022Y121340D01*
Y121940D01*
X1166422Y122539D01*
X1165222D01*
X1164622Y121940D01*
X1171820Y122539D02*
X1173020D01*
X1172420D01*
Y118940D01*
X1171820Y119540D01*
X1174819D02*
X1175419Y118940D01*
X1176619D01*
X1177218Y119540D01*
Y121940D01*
X1176619Y122539D01*
X1175419D01*
X1174819Y121940D01*
Y119540D01*
X1178418D02*
X1179018Y118940D01*
X1180217D01*
X1180817Y119540D01*
Y121940D01*
X1180217Y122539D01*
X1179018D01*
X1178418Y121940D01*
Y119540D01*
X1182017Y118940D02*
Y122539D01*
Y121340D01*
X1184416Y118940D01*
X1182617Y120740D01*
X1184416Y122539D01*
X1189215D02*
Y118940D01*
X1191614Y122539D01*
Y118940D01*
X1192813D02*
X1195213D01*
X1194013D01*
Y122539D01*
X1198811Y119540D02*
X1198212Y118940D01*
X1197012D01*
X1196412Y119540D01*
Y121940D01*
X1197012Y122539D01*
X1198212D01*
X1198811Y121940D01*
X818504Y127362D02*
Y123763D01*
X820303D01*
X820903Y124363D01*
Y125563D01*
X820303Y126163D01*
X818504D01*
X819704D02*
X820903Y127362D01*
X824502Y123763D02*
X822103D01*
Y125563D01*
X823302Y124963D01*
X823902D01*
X824502Y125563D01*
Y126762D01*
X823902Y127362D01*
X822703D01*
X822103Y126762D01*
X829300Y124363D02*
X829900Y123763D01*
X831100D01*
X831700Y124363D01*
Y124963D01*
X831100Y125563D01*
X830500D01*
X831100D01*
X831700Y126163D01*
Y126762D01*
X831100Y127362D01*
X829900D01*
X829300Y126762D01*
X832899Y123763D02*
Y127362D01*
Y126163D01*
X835299Y123763D01*
X833499Y125563D01*
X835299Y127362D01*
X836498Y124363D02*
X837098Y123763D01*
X838298D01*
X838897Y124363D01*
Y124963D01*
X838298Y125563D01*
X837698D01*
X838298D01*
X838897Y126163D01*
Y126762D01*
X838298Y127362D01*
X837098D01*
X836498Y126762D01*
X801181Y122539D02*
Y118940D01*
X802981D01*
X803580Y119540D01*
Y120740D01*
X802981Y121340D01*
X801181D01*
X802381D02*
X803580Y122539D01*
X804780Y119540D02*
X805380Y118940D01*
X806579D01*
X807179Y119540D01*
Y120140D01*
X806579Y120740D01*
X805980D01*
X806579D01*
X807179Y121340D01*
Y121940D01*
X806579Y122539D01*
X805380D01*
X804780Y121940D01*
X811978Y122539D02*
X813177D01*
X812578D01*
Y118940D01*
X811978Y119540D01*
X814977D02*
X815576Y118940D01*
X816776D01*
X817376Y119540D01*
Y121940D01*
X816776Y122539D01*
X815576D01*
X814977Y121940D01*
Y119540D01*
X818575D02*
X819175Y118940D01*
X820375D01*
X820975Y119540D01*
Y121940D01*
X820375Y122539D01*
X819175D01*
X818575Y121940D01*
Y119540D01*
X822174Y118940D02*
Y122539D01*
Y121340D01*
X824574Y118940D01*
X822774Y120740D01*
X824574Y122539D01*
X829372D02*
Y118940D01*
X831771Y122539D01*
Y118940D01*
X832971D02*
X835370D01*
X834171D01*
Y122539D01*
X838969Y119540D02*
X838369Y118940D01*
X837169D01*
X836570Y119540D01*
Y121940D01*
X837169Y122539D01*
X838369D01*
X838969Y121940D01*
X638583Y127362D02*
Y123763D01*
X640382D01*
X640982Y124363D01*
Y125563D01*
X640382Y126163D01*
X638583D01*
X639782D02*
X640982Y127362D01*
X644581Y123763D02*
X642181D01*
Y125563D01*
X643381Y124963D01*
X643981D01*
X644581Y125563D01*
Y126762D01*
X643981Y127362D01*
X642781D01*
X642181Y126762D01*
X649379Y124363D02*
X649979Y123763D01*
X651179D01*
X651778Y124363D01*
Y124963D01*
X651179Y125563D01*
X650579D01*
X651179D01*
X651778Y126163D01*
Y126762D01*
X651179Y127362D01*
X649979D01*
X649379Y126762D01*
X652978Y123763D02*
Y127362D01*
Y126163D01*
X655377Y123763D01*
X653578Y125563D01*
X655377Y127362D01*
X656577Y124363D02*
X657177Y123763D01*
X658376D01*
X658976Y124363D01*
Y124963D01*
X658376Y125563D01*
X657776D01*
X658376D01*
X658976Y126163D01*
Y126762D01*
X658376Y127362D01*
X657177D01*
X656577Y126762D01*
X621260Y122539D02*
Y118940D01*
X623059D01*
X623659Y119540D01*
Y120740D01*
X623059Y121340D01*
X621260D01*
X622460D02*
X623659Y122539D01*
X624859Y119540D02*
X625458Y118940D01*
X626658D01*
X627258Y119540D01*
Y120140D01*
X626658Y120740D01*
X626058D01*
X626658D01*
X627258Y121340D01*
Y121940D01*
X626658Y122539D01*
X625458D01*
X624859Y121940D01*
X632056Y122539D02*
X633256D01*
X632656D01*
Y118940D01*
X632056Y119540D01*
X635055D02*
X635655Y118940D01*
X636855D01*
X637455Y119540D01*
Y121940D01*
X636855Y122539D01*
X635655D01*
X635055Y121940D01*
Y119540D01*
X638654D02*
X639254Y118940D01*
X640454D01*
X641053Y119540D01*
Y121940D01*
X640454Y122539D01*
X639254D01*
X638654Y121940D01*
Y119540D01*
X642253Y118940D02*
Y122539D01*
Y121340D01*
X644652Y118940D01*
X642853Y120740D01*
X644652Y122539D01*
X649451D02*
Y118940D01*
X651850Y122539D01*
Y118940D01*
X653050D02*
X655449D01*
X654249D01*
Y122539D01*
X659048Y119540D02*
X658448Y118940D01*
X657248D01*
X656648Y119540D01*
Y121940D01*
X657248Y122539D01*
X658448D01*
X659048Y121940D01*
X458661Y127362D02*
Y123763D01*
X460461D01*
X461061Y124363D01*
Y125563D01*
X460461Y126163D01*
X458661D01*
X459861D02*
X461061Y127362D01*
X464660Y123763D02*
X462260D01*
Y125563D01*
X463460Y124963D01*
X464060D01*
X464660Y125563D01*
Y126762D01*
X464060Y127362D01*
X462860D01*
X462260Y126762D01*
X469458Y124363D02*
X470058Y123763D01*
X471257D01*
X471857Y124363D01*
Y124963D01*
X471257Y125563D01*
X470658D01*
X471257D01*
X471857Y126163D01*
Y126762D01*
X471257Y127362D01*
X470058D01*
X469458Y126762D01*
X473057Y123763D02*
Y127362D01*
Y126163D01*
X475456Y123763D01*
X473657Y125563D01*
X475456Y127362D01*
X476656Y124363D02*
X477255Y123763D01*
X478455D01*
X479055Y124363D01*
Y124963D01*
X478455Y125563D01*
X477855D01*
X478455D01*
X479055Y126163D01*
Y126762D01*
X478455Y127362D01*
X477255D01*
X476656Y126762D01*
X441339Y122539D02*
Y118940D01*
X443138D01*
X443738Y119540D01*
Y120740D01*
X443138Y121340D01*
X441339D01*
X442538D02*
X443738Y122539D01*
X444937Y119540D02*
X445537Y118940D01*
X446737D01*
X447337Y119540D01*
Y120140D01*
X446737Y120740D01*
X446137D01*
X446737D01*
X447337Y121340D01*
Y121940D01*
X446737Y122539D01*
X445537D01*
X444937Y121940D01*
X452135Y122539D02*
X453335D01*
X452735D01*
Y118940D01*
X452135Y119540D01*
X455134D02*
X455734Y118940D01*
X456934D01*
X457533Y119540D01*
Y121940D01*
X456934Y122539D01*
X455734D01*
X455134Y121940D01*
Y119540D01*
X458733D02*
X459333Y118940D01*
X460532D01*
X461132Y119540D01*
Y121940D01*
X460532Y122539D01*
X459333D01*
X458733Y121940D01*
Y119540D01*
X462332Y118940D02*
Y122539D01*
Y121340D01*
X464731Y118940D01*
X462932Y120740D01*
X464731Y122539D01*
X469529D02*
Y118940D01*
X471929Y122539D01*
Y118940D01*
X473128D02*
X475528D01*
X474328D01*
Y122539D01*
X479126Y119540D02*
X478527Y118940D01*
X477327D01*
X476727Y119540D01*
Y121940D01*
X477327Y122539D01*
X478527D01*
X479126Y121940D01*
X278740Y127362D02*
Y123763D01*
X280540D01*
X281139Y124363D01*
Y125563D01*
X280540Y126163D01*
X278740D01*
X279940D02*
X281139Y127362D01*
X284738Y123763D02*
X282339D01*
Y125563D01*
X283539Y124963D01*
X284138D01*
X284738Y125563D01*
Y126762D01*
X284138Y127362D01*
X282939D01*
X282339Y126762D01*
X289537Y124363D02*
X290137Y123763D01*
X291336D01*
X291936Y124363D01*
Y124963D01*
X291336Y125563D01*
X290736D01*
X291336D01*
X291936Y126163D01*
Y126762D01*
X291336Y127362D01*
X290137D01*
X289537Y126762D01*
X293135Y123763D02*
Y127362D01*
Y126163D01*
X295535Y123763D01*
X293735Y125563D01*
X295535Y127362D01*
X296734Y124363D02*
X297334Y123763D01*
X298534D01*
X299134Y124363D01*
Y124963D01*
X298534Y125563D01*
X297934D01*
X298534D01*
X299134Y126163D01*
Y126762D01*
X298534Y127362D01*
X297334D01*
X296734Y126762D01*
X261417Y122539D02*
Y118940D01*
X263217D01*
X263817Y119540D01*
Y120740D01*
X263217Y121340D01*
X261417D01*
X262617D02*
X263817Y122539D01*
X265016Y119540D02*
X265616Y118940D01*
X266816D01*
X267415Y119540D01*
Y120140D01*
X266816Y120740D01*
X266216D01*
X266816D01*
X267415Y121340D01*
Y121940D01*
X266816Y122539D01*
X265616D01*
X265016Y121940D01*
X272214Y122539D02*
X273413D01*
X272814D01*
Y118940D01*
X272214Y119540D01*
X275213D02*
X275813Y118940D01*
X277012D01*
X277612Y119540D01*
Y121940D01*
X277012Y122539D01*
X275813D01*
X275213Y121940D01*
Y119540D01*
X278812D02*
X279412Y118940D01*
X280611D01*
X281211Y119540D01*
Y121940D01*
X280611Y122539D01*
X279412D01*
X278812Y121940D01*
Y119540D01*
X282411Y118940D02*
Y122539D01*
Y121340D01*
X284810Y118940D01*
X283010Y120740D01*
X284810Y122539D01*
X289608D02*
Y118940D01*
X292007Y122539D01*
Y118940D01*
X293207D02*
X295606D01*
X294407D01*
Y122539D01*
X299205Y119540D02*
X298605Y118940D01*
X297406D01*
X296806Y119540D01*
Y121940D01*
X297406Y122539D01*
X298605D01*
X299205Y121940D01*
X211811Y164174D02*
Y160575D01*
X213610D01*
X214210Y161175D01*
Y162374D01*
X213610Y162974D01*
X211811D01*
X213011D02*
X214210Y164174D01*
X215410Y161175D02*
X216010Y160575D01*
X217209D01*
X217809Y161175D01*
Y161775D01*
X217209Y162374D01*
X216610D01*
X217209D01*
X217809Y162974D01*
Y163574D01*
X217209Y164174D01*
X216010D01*
X215410Y163574D01*
X222607Y164174D02*
X223807D01*
X223207D01*
Y160575D01*
X222607Y161175D01*
X225607D02*
X226206Y160575D01*
X227406D01*
X228006Y161175D01*
Y163574D01*
X227406Y164174D01*
X226206D01*
X225607Y163574D01*
Y161175D01*
X229205D02*
X229805Y160575D01*
X231005D01*
X231605Y161175D01*
Y163574D01*
X231005Y164174D01*
X229805D01*
X229205Y163574D01*
Y161175D01*
X232804Y160575D02*
Y164174D01*
Y162974D01*
X235204Y160575D01*
X233404Y162374D01*
X235204Y164174D01*
X240002D02*
Y160575D01*
X242401Y164174D01*
Y160575D01*
X243601D02*
X246000D01*
X244800D01*
Y164174D01*
X249599Y161175D02*
X248999Y160575D01*
X247799D01*
X247200Y161175D01*
Y163574D01*
X247799Y164174D01*
X248999D01*
X249599Y163574D01*
X211811Y158957D02*
Y155358D01*
X213610D01*
X214210Y155958D01*
Y157158D01*
X213610Y157758D01*
X211811D01*
X213011D02*
X214210Y158957D01*
X217809Y155358D02*
X215410D01*
Y157158D01*
X216610Y156558D01*
X217209D01*
X217809Y157158D01*
Y158358D01*
X217209Y158957D01*
X216010D01*
X215410Y158358D01*
X222607Y155958D02*
X223207Y155358D01*
X224407D01*
X225007Y155958D01*
Y156558D01*
X224407Y157158D01*
X223807D01*
X224407D01*
X225007Y157758D01*
Y158358D01*
X224407Y158957D01*
X223207D01*
X222607Y158358D01*
X226206Y155358D02*
Y158957D01*
Y157758D01*
X228606Y155358D01*
X226806Y157158D01*
X228606Y158957D01*
X229805Y155958D02*
X230405Y155358D01*
X231605D01*
X232204Y155958D01*
Y156558D01*
X231605Y157158D01*
X231005D01*
X231605D01*
X232204Y157758D01*
Y158358D01*
X231605Y158957D01*
X230405D01*
X229805Y158358D01*
X98819Y127362D02*
Y123763D01*
X100618D01*
X101218Y124363D01*
Y125563D01*
X100618Y126163D01*
X98819D01*
X100019D02*
X101218Y127362D01*
X104817Y123763D02*
X102418D01*
Y125563D01*
X103617Y124963D01*
X104217D01*
X104817Y125563D01*
Y126762D01*
X104217Y127362D01*
X103018D01*
X102418Y126762D01*
X109615Y124363D02*
X110215Y123763D01*
X111415D01*
X112015Y124363D01*
Y124963D01*
X111415Y125563D01*
X110815D01*
X111415D01*
X112015Y126163D01*
Y126762D01*
X111415Y127362D01*
X110215D01*
X109615Y126762D01*
X113214Y123763D02*
Y127362D01*
Y126163D01*
X115613Y123763D01*
X113814Y125563D01*
X115613Y127362D01*
X116813Y124363D02*
X117413Y123763D01*
X118613D01*
X119212Y124363D01*
Y124963D01*
X118613Y125563D01*
X118013D01*
X118613D01*
X119212Y126163D01*
Y126762D01*
X118613Y127362D01*
X117413D01*
X116813Y126762D01*
X81496Y122539D02*
Y118940D01*
X83296D01*
X83895Y119540D01*
Y120740D01*
X83296Y121340D01*
X81496D01*
X82696D02*
X83895Y122539D01*
X85095Y119540D02*
X85695Y118940D01*
X86894D01*
X87494Y119540D01*
Y120140D01*
X86894Y120740D01*
X86295D01*
X86894D01*
X87494Y121340D01*
Y121940D01*
X86894Y122539D01*
X85695D01*
X85095Y121940D01*
X92293Y122539D02*
X93492D01*
X92892D01*
Y118940D01*
X92293Y119540D01*
X95292D02*
X95891Y118940D01*
X97091D01*
X97691Y119540D01*
Y121940D01*
X97091Y122539D01*
X95891D01*
X95292Y121940D01*
Y119540D01*
X98890D02*
X99490Y118940D01*
X100690D01*
X101290Y119540D01*
Y121940D01*
X100690Y122539D01*
X99490D01*
X98890Y121940D01*
Y119540D01*
X102489Y118940D02*
Y122539D01*
Y121340D01*
X104888Y118940D01*
X103089Y120740D01*
X104888Y122539D01*
X109687D02*
Y118940D01*
X112086Y122539D01*
Y118940D01*
X113286D02*
X115685D01*
X114485D01*
Y122539D01*
X119284Y119540D02*
X118684Y118940D01*
X117484D01*
X116885Y119540D01*
Y121940D01*
X117484Y122539D01*
X118684D01*
X119284Y121940D01*
D16*
X1093563Y153977D02*
X1125059D01*
X1093563Y128347D02*
Y153977D01*
Y128347D02*
X1125059D01*
Y153977D01*
X373878D02*
X405374D01*
X373878Y128347D02*
Y153977D01*
Y128347D02*
X405374D01*
Y153977D01*
X733720D02*
X765216D01*
X733720Y128347D02*
Y153977D01*
Y128347D02*
X765216D01*
Y153977D01*
X105552Y128386D02*
Y154016D01*
X137048D01*
Y128386D02*
Y154016D01*
X105552Y128386D02*
X137048D01*
X193956Y153977D02*
X225452D01*
X193956Y128347D02*
Y153977D01*
Y128347D02*
X225452D01*
Y153977D01*
X1484901Y128347D02*
Y153977D01*
X1453405Y128347D02*
X1484901D01*
X1453405D02*
Y153977D01*
X1484901D01*
X1365000Y128386D02*
Y154016D01*
X1396496D01*
Y128386D02*
Y154016D01*
X1365000Y128386D02*
X1396496D01*
X1304980Y128347D02*
Y153977D01*
X1273484Y128347D02*
X1304980D01*
X1273484D02*
Y153977D01*
X1304980D01*
X1185079Y128386D02*
Y154016D01*
X1216575D01*
Y128386D02*
Y154016D01*
X1185079Y128386D02*
X1216575D01*
X1005158D02*
Y154016D01*
X1036654D01*
Y128386D02*
Y154016D01*
X1005158Y128386D02*
X1036654D01*
X945138Y128347D02*
Y153977D01*
X913641Y128347D02*
X945138D01*
X913641D02*
Y153977D01*
X945138D01*
X825237Y128386D02*
Y154016D01*
X856733D01*
Y128386D02*
Y154016D01*
X825237Y128386D02*
X856733D01*
X645315D02*
Y154016D01*
X676811D01*
Y128386D02*
Y154016D01*
X645315Y128386D02*
X676811D01*
X585295Y128347D02*
Y153977D01*
X553799Y128347D02*
X585295D01*
X553799D02*
Y153977D01*
X585295D01*
X465394Y128386D02*
Y154016D01*
X496890D01*
Y128386D02*
Y154016D01*
X465394Y128386D02*
X496890D01*
X285473D02*
Y154016D01*
X316969D01*
Y128386D02*
Y154016D01*
X285473Y128386D02*
X316969D01*
X27544Y75772D02*
X66944D01*
X27544D02*
Y115172D01*
X66944D01*
Y75772D02*
Y115172D01*
X27544Y80772D02*
X32544Y75772D01*
X31944Y115172D02*
Y119072D01*
X33044D01*
Y115172D02*
Y119072D01*
X31944Y115172D02*
X33044D01*
X33944D02*
Y119072D01*
X34944D01*
Y115172D02*
Y119072D01*
X33944Y115172D02*
X34944D01*
X35844D02*
Y119072D01*
X36944D01*
Y115172D02*
Y119072D01*
X35844Y115172D02*
X36944D01*
X37844D02*
Y119072D01*
X38944D01*
Y115172D02*
Y119072D01*
X37844Y115172D02*
X38944D01*
X39844D02*
Y119072D01*
X40844D01*
Y115172D02*
Y119072D01*
X39844Y115172D02*
X40844D01*
X41744D02*
Y119072D01*
X42844D01*
Y115172D02*
Y119072D01*
X41744Y115172D02*
X42844D01*
X43744D02*
Y119072D01*
X44844D01*
Y115172D02*
Y119072D01*
X43744Y115172D02*
X44844D01*
X45744D02*
Y119072D01*
X46744D01*
Y115172D02*
Y119072D01*
X45744Y115172D02*
X46744D01*
X47744D02*
Y119072D01*
X48744D01*
Y115172D02*
Y119072D01*
X47744Y115172D02*
X48744D01*
X49644D02*
Y119072D01*
X50744D01*
Y115172D02*
Y119072D01*
X49644Y115172D02*
X50744D01*
X51644D02*
Y119072D01*
X52744D01*
Y115172D02*
Y119072D01*
X51644Y115172D02*
X52744D01*
X53644D02*
Y119072D01*
X54644D01*
Y115172D02*
Y119072D01*
X53644Y115172D02*
X54644D01*
X55544D02*
Y119072D01*
X56644D01*
Y115172D02*
Y119072D01*
X55544Y115172D02*
X56644D01*
X57544D02*
Y119072D01*
X58644D01*
Y115172D02*
Y119072D01*
X57544Y115172D02*
X58644D01*
X59544D02*
Y119072D01*
X60544D01*
Y115172D02*
Y119072D01*
X59544Y115172D02*
X60544D01*
X61444D02*
Y119072D01*
X62544D01*
Y115172D02*
Y119072D01*
X61444Y115172D02*
X62544D01*
X66944Y110772D02*
X70844D01*
Y109672D02*
Y110772D01*
X66944Y109672D02*
X70844D01*
X66944D02*
Y110772D01*
Y108772D02*
X70844D01*
Y107772D02*
Y108772D01*
X66944Y107772D02*
X70844D01*
X66944D02*
Y108772D01*
Y106872D02*
X70844D01*
Y105772D02*
Y106872D01*
X66944Y105772D02*
X70844D01*
X66944D02*
Y106872D01*
Y104872D02*
X70844D01*
Y103772D02*
Y104872D01*
X66944Y103772D02*
X70844D01*
X66944D02*
Y104872D01*
Y102872D02*
X70844D01*
Y101872D02*
Y102872D01*
X66944Y101872D02*
X70844D01*
X66944D02*
Y102872D01*
Y100972D02*
X70844D01*
Y99872D02*
Y100972D01*
X66944Y99872D02*
X70844D01*
X66944D02*
Y100972D01*
Y98972D02*
X70844D01*
Y97872D02*
Y98972D01*
X66944Y97872D02*
X70844D01*
X66944D02*
Y98972D01*
Y96972D02*
X70844D01*
Y95972D02*
Y96972D01*
X66944Y95972D02*
X70844D01*
X66944D02*
Y96972D01*
Y94972D02*
X70844D01*
Y93972D02*
Y94972D01*
X66944Y93972D02*
X70844D01*
X66944D02*
Y94972D01*
Y93072D02*
X70844D01*
Y91972D02*
Y93072D01*
X66944Y91972D02*
X70844D01*
X66944D02*
Y93072D01*
Y91072D02*
X70844D01*
Y89972D02*
Y91072D01*
X66944Y89972D02*
X70844D01*
X66944D02*
Y91072D01*
Y89072D02*
X70844D01*
Y88072D02*
Y89072D01*
X66944Y88072D02*
X70844D01*
X66944D02*
Y89072D01*
Y87172D02*
X70844D01*
Y86072D02*
Y87172D01*
X66944Y86072D02*
X70844D01*
X66944D02*
Y87172D01*
Y85172D02*
X70844D01*
Y84072D02*
Y85172D01*
X66944Y84072D02*
X70844D01*
X66944D02*
Y85172D01*
Y83172D02*
X70844D01*
Y82172D02*
Y83172D01*
X66944Y82172D02*
X70844D01*
X66944D02*
Y83172D01*
Y81272D02*
X70844D01*
Y80172D02*
Y81272D01*
X66944Y80172D02*
X70844D01*
X66944D02*
Y81272D01*
X62544Y71872D02*
Y75772D01*
X61444Y71872D02*
X62544D01*
X61444D02*
Y75772D01*
X62544D01*
X60544Y71872D02*
Y75772D01*
X59544Y71872D02*
X60544D01*
X59544D02*
Y75772D01*
X60544D01*
X58644Y71872D02*
Y75772D01*
X57544Y71872D02*
X58644D01*
X57544D02*
Y75772D01*
X58644D01*
X56644Y71872D02*
Y75772D01*
X55544Y71872D02*
X56644D01*
X55544D02*
Y75772D01*
X56644D01*
X54644Y71872D02*
Y75772D01*
X53644Y71872D02*
X54644D01*
X53644D02*
Y75772D01*
X54644D01*
X52744Y71872D02*
Y75772D01*
X51644Y71872D02*
X52744D01*
X51644D02*
Y75772D01*
X52744D01*
X50744Y71872D02*
Y75772D01*
X49644Y71872D02*
X50744D01*
X49644D02*
Y75772D01*
X50744D01*
X48744Y71872D02*
Y75772D01*
X47744Y71872D02*
X48744D01*
X47744D02*
Y75772D01*
X48744D01*
X46744Y71872D02*
Y75772D01*
X45744Y71872D02*
X46744D01*
X45744D02*
Y75772D01*
X46744D01*
X44844Y71872D02*
Y75772D01*
X43744Y71872D02*
X44844D01*
X43744D02*
Y75772D01*
X44844D01*
X42844Y71872D02*
Y75772D01*
X41744Y71872D02*
X42844D01*
X41744D02*
Y75772D01*
X42844D01*
X40844Y71872D02*
Y75772D01*
X39844Y71872D02*
X40844D01*
X39844D02*
Y75772D01*
X40844D01*
X38944Y71872D02*
Y75772D01*
X37844Y71872D02*
X38944D01*
X37844D02*
Y75772D01*
X38944D01*
X36944Y71872D02*
Y75772D01*
X35844Y71872D02*
X36944D01*
X35844D02*
Y75772D01*
X36944D01*
X34944Y71872D02*
Y75772D01*
X33944Y71872D02*
X34944D01*
X33944D02*
Y75772D01*
X34944D01*
X33044Y71872D02*
Y75772D01*
X31944Y71872D02*
X33044D01*
X31944D02*
Y75772D01*
X32544D01*
X33044D01*
X23644Y80172D02*
X27544D01*
X23644D02*
Y81272D01*
X27544D01*
Y80772D02*
Y81272D01*
Y80172D02*
Y80772D01*
X23644Y82172D02*
X27544D01*
X23644D02*
Y83172D01*
X27544D01*
Y82172D02*
Y83172D01*
X23644Y84072D02*
X27544D01*
X23644D02*
Y85172D01*
X27544D01*
Y84072D02*
Y85172D01*
X23644Y86072D02*
X27544D01*
X23644D02*
Y87172D01*
X27544D01*
Y86072D02*
Y87172D01*
X23644Y88072D02*
X27544D01*
X23644D02*
Y89072D01*
X27544D01*
Y88072D02*
Y89072D01*
X23644Y89972D02*
X27544D01*
X23644D02*
Y91072D01*
X27544D01*
Y89972D02*
Y91072D01*
X23644Y91972D02*
X27544D01*
X23644D02*
Y93072D01*
X27544D01*
Y91972D02*
Y93072D01*
X23644Y93972D02*
X27544D01*
X23644D02*
Y94972D01*
X27544D01*
Y93972D02*
Y94972D01*
X23644Y95972D02*
X27544D01*
X23644D02*
Y96972D01*
X27544D01*
Y95972D02*
Y96972D01*
X23644Y97872D02*
X27544D01*
X23644D02*
Y98972D01*
X27544D01*
Y97872D02*
Y98972D01*
X23644Y99872D02*
X27544D01*
X23644D02*
Y100972D01*
X27544D01*
Y99872D02*
Y100972D01*
X23644Y101872D02*
X27544D01*
X23644D02*
Y102872D01*
X27544D01*
Y101872D02*
Y102872D01*
X23644Y103772D02*
X27544D01*
X23644D02*
Y104872D01*
X27544D01*
Y103772D02*
Y104872D01*
X23644Y105772D02*
X27544D01*
X23644D02*
Y106872D01*
X27544D01*
Y105772D02*
Y106872D01*
X23644Y107772D02*
X27544D01*
X23644D02*
Y108772D01*
X27544D01*
Y107772D02*
Y108772D01*
X23644Y109672D02*
X27544D01*
X23644D02*
Y110772D01*
X27544D01*
Y109672D02*
Y110772D01*
X32386Y151622D02*
Y152622D01*
Y144622D02*
Y145622D01*
X39386Y148622D02*
X41386D01*
X23386D02*
X25386D01*
X32386Y136858D02*
Y137858D01*
Y129858D02*
Y130858D01*
X39386Y133858D02*
X41386D01*
X23386D02*
X25386D01*
X61118Y151622D02*
Y152622D01*
Y144622D02*
Y145622D01*
X68118Y148622D02*
X70118D01*
X52118D02*
X54118D01*
X61118Y136858D02*
Y137858D01*
Y129858D02*
Y130858D01*
X68118Y133858D02*
X70118D01*
X52118D02*
X54118D01*
X27249Y168883D02*
X66649D01*
X27249D02*
Y208283D01*
X66649D01*
Y168883D02*
Y208283D01*
X27249Y173883D02*
X32249Y168883D01*
X31649Y208283D02*
Y212183D01*
X32749D01*
Y208283D02*
Y212183D01*
X31649Y208283D02*
X32749D01*
X33649D02*
Y212183D01*
X34649D01*
Y208283D02*
Y212183D01*
X33649Y208283D02*
X34649D01*
X35549D02*
Y212183D01*
X36649D01*
Y208283D02*
Y212183D01*
X35549Y208283D02*
X36649D01*
X37549D02*
Y212183D01*
X38649D01*
Y208283D02*
Y212183D01*
X37549Y208283D02*
X38649D01*
X39549D02*
Y212183D01*
X40549D01*
Y208283D02*
Y212183D01*
X39549Y208283D02*
X40549D01*
X41449D02*
Y212183D01*
X42549D01*
Y208283D02*
Y212183D01*
X41449Y208283D02*
X42549D01*
X43449D02*
Y212183D01*
X44549D01*
Y208283D02*
Y212183D01*
X43449Y208283D02*
X44549D01*
X45449D02*
Y212183D01*
X46449D01*
Y208283D02*
Y212183D01*
X45449Y208283D02*
X46449D01*
X47449D02*
Y212183D01*
X48449D01*
Y208283D02*
Y212183D01*
X47449Y208283D02*
X48449D01*
X49349D02*
Y212183D01*
X50449D01*
Y208283D02*
Y212183D01*
X49349Y208283D02*
X50449D01*
X51349D02*
Y212183D01*
X52449D01*
Y208283D02*
Y212183D01*
X51349Y208283D02*
X52449D01*
X53349D02*
Y212183D01*
X54349D01*
Y208283D02*
Y212183D01*
X53349Y208283D02*
X54349D01*
X55249D02*
Y212183D01*
X56349D01*
Y208283D02*
Y212183D01*
X55249Y208283D02*
X56349D01*
X57249D02*
Y212183D01*
X58349D01*
Y208283D02*
Y212183D01*
X57249Y208283D02*
X58349D01*
X59249D02*
Y212183D01*
X60249D01*
Y208283D02*
Y212183D01*
X59249Y208283D02*
X60249D01*
X61149D02*
Y212183D01*
X62249D01*
Y208283D02*
Y212183D01*
X61149Y208283D02*
X62249D01*
X66649Y203883D02*
X70549D01*
Y202783D02*
Y203883D01*
X66649Y202783D02*
X70549D01*
X66649D02*
Y203883D01*
Y201883D02*
X70549D01*
Y200883D02*
Y201883D01*
X66649Y200883D02*
X70549D01*
X66649D02*
Y201883D01*
Y199983D02*
X70549D01*
Y198883D02*
Y199983D01*
X66649Y198883D02*
X70549D01*
X66649D02*
Y199983D01*
Y197983D02*
X70549D01*
Y196883D02*
Y197983D01*
X66649Y196883D02*
X70549D01*
X66649D02*
Y197983D01*
Y195983D02*
X70549D01*
Y194983D02*
Y195983D01*
X66649Y194983D02*
X70549D01*
X66649D02*
Y195983D01*
Y194083D02*
X70549D01*
Y192983D02*
Y194083D01*
X66649Y192983D02*
X70549D01*
X66649D02*
Y194083D01*
Y192083D02*
X70549D01*
Y190983D02*
Y192083D01*
X66649Y190983D02*
X70549D01*
X66649D02*
Y192083D01*
Y190083D02*
X70549D01*
Y189083D02*
Y190083D01*
X66649Y189083D02*
X70549D01*
X66649D02*
Y190083D01*
Y188083D02*
X70549D01*
Y187083D02*
Y188083D01*
X66649Y187083D02*
X70549D01*
X66649D02*
Y188083D01*
Y186183D02*
X70549D01*
Y185083D02*
Y186183D01*
X66649Y185083D02*
X70549D01*
X66649D02*
Y186183D01*
Y184183D02*
X70549D01*
Y183083D02*
Y184183D01*
X66649Y183083D02*
X70549D01*
X66649D02*
Y184183D01*
Y182183D02*
X70549D01*
Y181183D02*
Y182183D01*
X66649Y181183D02*
X70549D01*
X66649D02*
Y182183D01*
Y180283D02*
X70549D01*
Y179183D02*
Y180283D01*
X66649Y179183D02*
X70549D01*
X66649D02*
Y180283D01*
Y178283D02*
X70549D01*
Y177183D02*
Y178283D01*
X66649Y177183D02*
X70549D01*
X66649D02*
Y178283D01*
Y176283D02*
X70549D01*
Y175283D02*
Y176283D01*
X66649Y175283D02*
X70549D01*
X66649D02*
Y176283D01*
Y174383D02*
X70549D01*
Y173283D02*
Y174383D01*
X66649Y173283D02*
X70549D01*
X66649D02*
Y174383D01*
X62249Y164983D02*
Y168883D01*
X61149Y164983D02*
X62249D01*
X61149D02*
Y168883D01*
X62249D01*
X60249Y164983D02*
Y168883D01*
X59249Y164983D02*
X60249D01*
X59249D02*
Y168883D01*
X60249D01*
X58349Y164983D02*
Y168883D01*
X57249Y164983D02*
X58349D01*
X57249D02*
Y168883D01*
X58349D01*
X56349Y164983D02*
Y168883D01*
X55249Y164983D02*
X56349D01*
X55249D02*
Y168883D01*
X56349D01*
X54349Y164983D02*
Y168883D01*
X53349Y164983D02*
X54349D01*
X53349D02*
Y168883D01*
X54349D01*
X52449Y164983D02*
Y168883D01*
X51349Y164983D02*
X52449D01*
X51349D02*
Y168883D01*
X52449D01*
X50449Y164983D02*
Y168883D01*
X49349Y164983D02*
X50449D01*
X49349D02*
Y168883D01*
X50449D01*
X48449Y164983D02*
Y168883D01*
X47449Y164983D02*
X48449D01*
X47449D02*
Y168883D01*
X48449D01*
X46449Y164983D02*
Y168883D01*
X45449Y164983D02*
X46449D01*
X45449D02*
Y168883D01*
X46449D01*
X44549Y164983D02*
Y168883D01*
X43449Y164983D02*
X44549D01*
X43449D02*
Y168883D01*
X44549D01*
X42549Y164983D02*
Y168883D01*
X41449Y164983D02*
X42549D01*
X41449D02*
Y168883D01*
X42549D01*
X40549Y164983D02*
Y168883D01*
X39549Y164983D02*
X40549D01*
X39549D02*
Y168883D01*
X40549D01*
X38649Y164983D02*
Y168883D01*
X37549Y164983D02*
X38649D01*
X37549D02*
Y168883D01*
X38649D01*
X36649Y164983D02*
Y168883D01*
X35549Y164983D02*
X36649D01*
X35549D02*
Y168883D01*
X36649D01*
X34649Y164983D02*
Y168883D01*
X33649Y164983D02*
X34649D01*
X33649D02*
Y168883D01*
X34649D01*
X32749Y164983D02*
Y168883D01*
X31649Y164983D02*
X32749D01*
X31649D02*
Y168883D01*
X32249D01*
X32749D01*
X23349Y173283D02*
X27249D01*
X23349D02*
Y174383D01*
X27249D01*
Y173883D02*
Y174383D01*
Y173283D02*
Y173883D01*
X23349Y175283D02*
X27249D01*
X23349D02*
Y176283D01*
X27249D01*
Y175283D02*
Y176283D01*
X23349Y177183D02*
X27249D01*
X23349D02*
Y178283D01*
X27249D01*
Y177183D02*
Y178283D01*
X23349Y179183D02*
X27249D01*
X23349D02*
Y180283D01*
X27249D01*
Y179183D02*
Y180283D01*
X23349Y181183D02*
X27249D01*
X23349D02*
Y182183D01*
X27249D01*
Y181183D02*
Y182183D01*
X23349Y183083D02*
X27249D01*
X23349D02*
Y184183D01*
X27249D01*
Y183083D02*
Y184183D01*
X23349Y185083D02*
X27249D01*
X23349D02*
Y186183D01*
X27249D01*
Y185083D02*
Y186183D01*
X23349Y187083D02*
X27249D01*
X23349D02*
Y188083D01*
X27249D01*
Y187083D02*
Y188083D01*
X23349Y189083D02*
X27249D01*
X23349D02*
Y190083D01*
X27249D01*
Y189083D02*
Y190083D01*
X23349Y190983D02*
X27249D01*
X23349D02*
Y192083D01*
X27249D01*
Y190983D02*
Y192083D01*
X23349Y192983D02*
X27249D01*
X23349D02*
Y194083D01*
X27249D01*
Y192983D02*
Y194083D01*
X23349Y194983D02*
X27249D01*
X23349D02*
Y195983D01*
X27249D01*
Y194983D02*
Y195983D01*
X23349Y196883D02*
X27249D01*
X23349D02*
Y197983D01*
X27249D01*
Y196883D02*
Y197983D01*
X23349Y198883D02*
X27249D01*
X23349D02*
Y199983D01*
X27249D01*
Y198883D02*
Y199983D01*
X23349Y200883D02*
X27249D01*
X23349D02*
Y201883D01*
X27249D01*
Y200883D02*
Y201883D01*
X23349Y202783D02*
X27249D01*
X23349D02*
Y203883D01*
X27249D01*
Y202783D02*
Y203883D01*
X23886Y152622D02*
X23179Y152329D01*
X22886Y151622D01*
X41886D02*
X41593Y152329D01*
X40886Y152622D01*
Y144622D02*
X41593Y144915D01*
X41886Y145622D01*
X22886D02*
X23179Y144915D01*
X23886Y144622D01*
Y137858D02*
X23179Y137565D01*
X22886Y136858D01*
X41886D02*
X41593Y137565D01*
X40886Y137858D01*
Y129858D02*
X41593Y130151D01*
X41886Y130858D01*
X22886D02*
X23179Y130151D01*
X23886Y129858D01*
X52618Y152622D02*
X51911Y152329D01*
X51618Y151622D01*
X70618D02*
X70325Y152329D01*
X69618Y152622D01*
Y144622D02*
X70325Y144915D01*
X70618Y145622D01*
X51618D02*
X51911Y144915D01*
X52618Y144622D01*
Y137858D02*
X51911Y137565D01*
X51618Y136858D01*
X70618D02*
X70325Y137565D01*
X69618Y137858D01*
Y129858D02*
X70325Y130151D01*
X70618Y130858D01*
X51618D02*
X51911Y130151D01*
X52618Y129858D01*
X63844Y75272D02*
X67444D01*
X27044D02*
X30644D01*
X27044Y112072D02*
Y115672D01*
X63844D02*
X67444D01*
Y75272D02*
Y78872D01*
Y112072D02*
Y115672D01*
X27044D02*
X30644D01*
X27044Y75272D02*
Y78872D01*
X23886Y144622D02*
X40886D01*
X41886Y145622D02*
Y151622D01*
X22886Y145622D02*
Y151622D01*
X23886Y152622D02*
X40886D01*
X23886Y129858D02*
X40886D01*
X41886Y130858D02*
Y136858D01*
X22886Y130858D02*
Y136858D01*
X23886Y137858D02*
X40886D01*
X52618Y144622D02*
X69618D01*
X70618Y145622D02*
Y151622D01*
X51618Y145622D02*
Y151622D01*
X52618Y152622D02*
X69618D01*
X52618Y129858D02*
X69618D01*
X70618Y130858D02*
Y136858D01*
X51618Y130858D02*
Y136858D01*
X52618Y137858D02*
X69618D01*
X63549Y168383D02*
X67149D01*
X26749D02*
X30349D01*
X26749Y205183D02*
Y208783D01*
X63549D02*
X67149D01*
Y168383D02*
Y171983D01*
Y205183D02*
Y208783D01*
X26749D02*
X30349D01*
X26749Y168383D02*
Y171983D01*
D17*
X36386Y148122D02*
X36886Y148622D01*
X36386Y149122D01*
X28386D02*
X27886Y148622D01*
X28386Y148122D01*
X36386Y133358D02*
X36886Y133858D01*
X36386Y134358D01*
X28386D02*
X27886Y133858D01*
X28386Y133358D01*
X65118Y148122D02*
X65618Y148622D01*
X65118Y149122D01*
X57118D02*
X56618Y148622D01*
X57118Y148122D01*
X65118Y133358D02*
X65618Y133858D01*
X65118Y134358D01*
X57118D02*
X56618Y133858D01*
X57118Y133358D01*
D18*
X193075Y158606D02*
X193077Y190411D01*
X190973Y164408D02*
X193073D01*
X189173Y166208D02*
X190973Y164408D01*
X189173Y166208D02*
Y182808D01*
X190973Y184608D01*
X193073D01*
Y164408D02*
Y184608D01*
X139309Y96922D02*
Y117122D01*
Y96922D02*
X141409D01*
X143209Y98722D01*
Y115322D01*
X141409Y117122D02*
X143209Y115322D01*
X139309Y117122D02*
X141409D01*
X139305Y91119D02*
X139307Y122924D01*
X1452522Y164408D02*
Y184608D01*
X1450422D02*
X1452522D01*
X1448622Y182808D02*
X1450422Y184608D01*
X1448622Y166208D02*
Y182808D01*
Y166208D02*
X1450422Y164408D01*
X1452522D01*
X1452524Y158606D02*
X1452526Y190411D01*
X1398757Y96922D02*
Y117122D01*
Y96922D02*
X1400858D01*
X1402658Y98722D01*
Y115322D01*
X1400858Y117122D02*
X1402658Y115322D01*
X1398757Y117122D02*
X1400858D01*
X1398754Y91119D02*
X1398755Y122924D01*
X1272601Y164408D02*
Y184608D01*
X1270501D02*
X1272601D01*
X1268701Y182808D02*
X1270501Y184608D01*
X1268701Y166208D02*
Y182808D01*
Y166208D02*
X1270501Y164408D01*
X1272601D01*
X1272603Y158606D02*
X1272605Y190411D01*
X1218836Y96922D02*
Y117122D01*
Y96922D02*
X1220936D01*
X1222736Y98722D01*
Y115322D01*
X1220936Y117122D02*
X1222736Y115322D01*
X1218836Y117122D02*
X1220936D01*
X1218832Y91119D02*
X1218834Y122924D01*
X1092679Y164408D02*
Y184608D01*
X1090579D02*
X1092679D01*
X1088779Y182808D02*
X1090579Y184608D01*
X1088779Y166208D02*
Y182808D01*
Y166208D02*
X1090579Y164408D01*
X1092679D01*
X1092681Y158606D02*
X1092683Y190411D01*
X912758Y164408D02*
Y184608D01*
X910658D02*
X912758D01*
X908858Y182808D02*
X910658Y184608D01*
X908858Y166208D02*
Y182808D01*
Y166208D02*
X910658Y164408D01*
X912758D01*
X912760Y158606D02*
X912762Y190411D01*
X858994Y96922D02*
Y117122D01*
Y96922D02*
X861094D01*
X862894Y98722D01*
Y115322D01*
X861094Y117122D02*
X862894Y115322D01*
X858994Y117122D02*
X861094D01*
X858990Y91119D02*
X858992Y122924D01*
X732837Y164408D02*
Y184608D01*
X730737D02*
X732837D01*
X728937Y182808D02*
X730737Y184608D01*
X728937Y166208D02*
Y182808D01*
Y166208D02*
X730737Y164408D01*
X732837D01*
X732839Y158606D02*
X732841Y190411D01*
X679073Y96922D02*
Y117122D01*
Y96922D02*
X681173D01*
X682972Y98722D01*
Y115322D01*
X681173Y117122D02*
X682972Y115322D01*
X679073Y117122D02*
X681173D01*
X679069Y91119D02*
X679071Y122924D01*
X552916Y164408D02*
Y184608D01*
X550816D02*
X552916D01*
X549016Y182808D02*
X550816Y184608D01*
X549016Y166208D02*
Y182808D01*
Y166208D02*
X550816Y164408D01*
X552916D01*
X552918Y158606D02*
X552920Y190411D01*
X499151Y96922D02*
Y117122D01*
Y96922D02*
X501251D01*
X503051Y98722D01*
Y115322D01*
X501251Y117122D02*
X503051Y115322D01*
X499151Y117122D02*
X501251D01*
X499147Y91119D02*
X499149Y122924D01*
X372994Y164408D02*
Y184608D01*
X370894D02*
X372994D01*
X369094Y182808D02*
X370894Y184608D01*
X369094Y166208D02*
Y182808D01*
Y166208D02*
X370894Y164408D01*
X372994D01*
X372996Y158606D02*
X372998Y190411D01*
X319230Y96922D02*
Y117122D01*
Y96922D02*
X321330D01*
X323130Y98722D01*
Y115322D01*
X321330Y117122D02*
X323130Y115322D01*
X319230Y117122D02*
X321330D01*
X319226Y91119D02*
X319228Y122924D01*
X1038911Y91119D02*
X1038913Y122924D01*
X1038915Y117122D02*
X1041015D01*
X1042815Y115322D01*
Y98722D02*
Y115322D01*
X1041015Y96922D02*
X1042815Y98722D01*
X1038915Y96922D02*
X1041015D01*
X1038915D02*
Y117122D01*
X193073Y190408D02*
X221673Y190409D01*
Y158606D02*
Y190409D01*
X193073Y158608D02*
X221673Y158606D01*
X110709Y122924D02*
X139309Y122922D01*
X110709Y91121D02*
Y122924D01*
Y91121D02*
X139309Y91122D01*
X1452522Y158608D02*
X1481122Y158606D01*
Y190409D01*
X1452522Y190408D02*
X1481122Y190409D01*
X1370158Y122924D02*
X1398757Y122922D01*
X1370158Y91121D02*
Y122924D01*
Y91121D02*
X1398757Y91122D01*
X1272601Y158608D02*
X1301201Y158606D01*
Y190409D01*
X1272601Y190408D02*
X1301201Y190409D01*
X1190236Y122924D02*
X1218836Y122922D01*
X1190236Y91121D02*
Y122924D01*
Y91121D02*
X1218836Y91122D01*
X1092679Y158608D02*
X1121279Y158606D01*
Y190409D01*
X1092679Y190408D02*
X1121279Y190409D01*
X912758Y158608D02*
X941358Y158606D01*
Y190409D01*
X912758Y190408D02*
X941358Y190409D01*
X830394Y122924D02*
X858994Y122922D01*
X830394Y91121D02*
Y122924D01*
Y91121D02*
X858994Y91122D01*
X732837Y158608D02*
X761437Y158606D01*
Y190409D01*
X732837Y190408D02*
X761437Y190409D01*
X650472Y122924D02*
X679073Y122922D01*
X650472Y91121D02*
Y122924D01*
Y91121D02*
X679073Y91122D01*
X552916Y158608D02*
X581516Y158606D01*
Y190409D01*
X552916Y190408D02*
X581516Y190409D01*
X470551Y122924D02*
X499151Y122922D01*
X470551Y91121D02*
Y122924D01*
Y91121D02*
X499151Y91122D01*
X372994Y158608D02*
X401594Y158606D01*
Y190409D01*
X372994Y190408D02*
X401594Y190409D01*
X290630Y122924D02*
X319230Y122922D01*
X290630Y91121D02*
Y122924D01*
Y91121D02*
X319230Y91122D01*
X1010315Y91121D02*
X1038915Y91122D01*
X1010315Y91121D02*
Y122924D01*
X1038915Y122922D01*
D19*
X1443602Y148130D02*
X1447342D01*
X1443602Y155020D02*
X1447342D01*
X1443602Y148130D02*
Y155020D01*
X1447342Y148130D02*
Y155020D01*
X1402264Y134350D02*
X1406004D01*
X1402264Y127461D02*
X1406004D01*
Y134350D01*
X1402264Y127461D02*
Y134350D01*
X1263681Y148130D02*
X1267421D01*
X1263681Y155020D02*
X1267421D01*
X1263681Y148130D02*
Y155020D01*
X1267421Y148130D02*
Y155020D01*
X1222342Y134350D02*
X1226083D01*
X1222342Y127461D02*
X1226083D01*
Y134350D01*
X1222342Y127461D02*
Y134350D01*
X1083760Y148130D02*
X1087500D01*
X1083760Y155020D02*
X1087500D01*
X1083760Y148130D02*
Y155020D01*
X1087500Y148130D02*
Y155020D01*
X1042421Y134350D02*
X1046161D01*
X1042421Y127461D02*
X1046161D01*
Y134350D01*
X1042421Y127461D02*
Y134350D01*
X903839Y148130D02*
X907579D01*
X903839Y155020D02*
X907579D01*
X903839Y148130D02*
Y155020D01*
X907579Y148130D02*
Y155020D01*
X862500Y134350D02*
X866240D01*
X862500Y127461D02*
X866240D01*
Y134350D01*
X862500Y127461D02*
Y134350D01*
X723917Y148130D02*
X727658D01*
X723917Y155020D02*
X727658D01*
X723917Y148130D02*
Y155020D01*
X727658Y148130D02*
Y155020D01*
X682579Y134350D02*
X686319D01*
X682579Y127461D02*
X686319D01*
Y134350D01*
X682579Y127461D02*
Y134350D01*
X543996Y148130D02*
X547736D01*
X543996Y155020D02*
X547736D01*
X543996Y148130D02*
Y155020D01*
X547736Y148130D02*
Y155020D01*
X502658Y134350D02*
X506398D01*
X502658Y127461D02*
X506398D01*
Y134350D01*
X502658Y127461D02*
Y134350D01*
X364075Y148130D02*
X367815D01*
X364075Y155020D02*
X367815D01*
X364075Y148130D02*
Y155020D01*
X367815Y148130D02*
Y155020D01*
X322736Y134350D02*
X326476D01*
X322736Y127461D02*
X326476D01*
Y134350D01*
X322736Y127461D02*
Y134350D01*
X184153Y148130D02*
X187894D01*
X184153Y155020D02*
X187894D01*
X184153Y148130D02*
Y155020D01*
X187894Y148130D02*
Y155020D01*
X142815Y134350D02*
X146555D01*
X142815Y127461D02*
X146555D01*
Y134350D01*
X142815Y127461D02*
Y134350D01*
X24114Y93406D02*
Y97146D01*
X31004Y93406D02*
Y97146D01*
X24114Y93406D02*
X31004D01*
X24114Y97146D02*
X31004D01*
X7185Y125886D02*
X10925D01*
X7185Y118996D02*
X10925D01*
Y125886D01*
X7185Y118996D02*
Y125886D01*
X25000Y85925D02*
X31693D01*
X25000Y89665D02*
X31693D01*
X25000Y85925D02*
Y89665D01*
X31693Y85925D02*
Y89665D01*
X8760Y93406D02*
Y97146D01*
X15650Y93406D02*
Y97146D01*
X8760Y93406D02*
X15650D01*
X8760Y97146D02*
X15650D01*
X9803Y85925D02*
X16496D01*
X9803Y89665D02*
X16496D01*
X9803Y85925D02*
Y89665D01*
X16496Y85925D02*
Y89665D01*
X14272Y118996D02*
X18012D01*
X14272Y125886D02*
X18012D01*
X14272Y118996D02*
Y125886D01*
X18012Y118996D02*
Y125886D01*
X26083D02*
X29823D01*
X26083Y118996D02*
X29823D01*
Y125886D01*
X26083Y118996D02*
Y125886D01*
X10039Y104626D02*
X16732D01*
X10039Y100886D02*
X16732D01*
Y104626D01*
X10039Y100886D02*
Y104626D01*
X25000D02*
X31693D01*
X25000Y100886D02*
X31693D01*
Y104626D01*
X25000Y100886D02*
Y104626D01*
X10330Y219245D02*
X14070D01*
X10330Y212355D02*
X14070D01*
Y219245D01*
X10330Y212355D02*
Y219245D01*
X16476Y219193D02*
X20216D01*
X16476Y212303D02*
X20216D01*
Y219193D01*
X16476Y212303D02*
Y219193D01*
X22736Y219145D02*
X26476D01*
X22736Y212255D02*
X26476D01*
Y219145D01*
X22736Y212255D02*
Y219145D01*
X20177Y118996D02*
X23917D01*
X20177Y125886D02*
X23917D01*
X20177Y118996D02*
Y125886D01*
X23917Y118996D02*
Y125886D01*
X10039Y196752D02*
X16732D01*
X10039Y193012D02*
X16732D01*
Y196752D01*
X10039Y193012D02*
Y196752D01*
X31398Y185729D02*
Y189469D01*
X24508Y185729D02*
Y189469D01*
X31398D01*
X24508Y185729D02*
X31398D01*
X20177Y157185D02*
X23917D01*
X20177Y164075D02*
X23917D01*
X20177Y157185D02*
Y164075D01*
X23917Y157185D02*
Y164075D01*
X10039Y182185D02*
X16732D01*
X10039Y178445D02*
X16732D01*
Y182185D01*
X10039Y178445D02*
Y182185D01*
X25394D02*
X32087D01*
X25394Y178445D02*
X32087D01*
Y182185D01*
X25394Y178445D02*
Y182185D01*
Y197146D02*
X32087D01*
X25394Y193406D02*
X32087D01*
Y197146D01*
X25394Y193406D02*
Y197146D01*
X15650Y185729D02*
Y189469D01*
X8760Y185729D02*
Y189469D01*
X15650D01*
X8760Y185729D02*
X15650D01*
X17224Y87992D02*
Y94685D01*
X13484Y87992D02*
Y94685D01*
X17224D01*
X13484Y87992D02*
X17224D01*
X14469Y72638D02*
Y79331D01*
X10728Y72638D02*
Y79331D01*
X14469D01*
X10728Y72638D02*
X14469D01*
X40276Y21693D02*
X50276D01*
X40276D02*
Y41693D01*
X50276D01*
Y21693D02*
Y41693D01*
X40276D02*
X50276D01*
X40276D02*
Y61693D01*
X50276D01*
Y41693D02*
Y61693D01*
X11555Y268622D02*
Y278622D01*
X31555D01*
Y268622D02*
Y278622D01*
X11555Y268622D02*
X31555D01*
X19587Y254429D02*
Y258169D01*
X12697Y254429D02*
Y258169D01*
Y254429D02*
X19587D01*
X12697Y258169D02*
X19587D01*
X11909Y195374D02*
X15650D01*
X11909Y202264D02*
X15650D01*
X11909Y195374D02*
Y202264D01*
X15650Y195374D02*
Y202264D01*
Y180906D02*
Y187598D01*
X11909Y180906D02*
Y187598D01*
X15650D01*
X11909Y180906D02*
X15650D01*
X20177Y71161D02*
X23917D01*
X20177Y64272D02*
X23917D01*
Y71161D01*
X20177Y64272D02*
Y71161D01*
X13091Y24508D02*
Y28248D01*
X19980Y24508D02*
Y28248D01*
X13091D02*
X19980D01*
X13091Y24508D02*
X19980D01*
X11752Y4154D02*
Y14154D01*
X31752D01*
Y4154D02*
Y14154D01*
X11752Y4154D02*
X31752D01*
X15650Y165551D02*
Y172244D01*
X11909Y165551D02*
Y172244D01*
X15650D01*
X11909Y165551D02*
X15650D01*
X68757Y211907D02*
X75843D01*
X68757Y225293D02*
X75843D01*
X68757Y211907D02*
Y225293D01*
X75843Y211907D02*
Y225293D01*
X45430Y215554D02*
X49170D01*
X45430Y222246D02*
X49170D01*
X45430Y215554D02*
Y222246D01*
X49170Y215554D02*
Y222246D01*
X38386Y122539D02*
Y126280D01*
X45079Y122539D02*
Y126280D01*
X38386D02*
X45079D01*
X38386Y122539D02*
X45079D01*
X40630Y222342D02*
X44370D01*
X40630Y215453D02*
X44370D01*
Y222342D01*
X40630Y215453D02*
Y222342D01*
X47736Y122539D02*
Y126280D01*
X54626Y122539D02*
Y126280D01*
X47736D02*
X54626D01*
X47736Y122539D02*
X54626D01*
X232677Y149213D02*
X236417D01*
X232677Y155906D02*
X236417D01*
X232677Y149213D02*
Y155906D01*
X236417Y149213D02*
Y155906D01*
X226870Y147245D02*
X230413D01*
X226870Y153938D02*
X230413D01*
X226870Y147245D02*
Y153938D01*
X230413Y147245D02*
Y153938D01*
X244488Y149213D02*
X248228D01*
X244488Y155906D02*
X248228D01*
X244488Y149213D02*
Y155906D01*
X248228Y149213D02*
Y155906D01*
X238583Y149213D02*
X242323D01*
X238583Y155906D02*
X242323D01*
X238583Y149213D02*
Y155906D01*
X242323Y149213D02*
Y155906D01*
X209154Y159843D02*
Y163583D01*
X202461Y159843D02*
Y163583D01*
X209154D01*
X202461Y159843D02*
X209154D01*
Y155030D02*
Y158770D01*
X202461Y155030D02*
Y158770D01*
X209154D01*
X202461Y155030D02*
X209154D01*
X1468602Y159843D02*
Y163583D01*
X1461909Y159843D02*
Y163583D01*
X1468602D01*
X1461909Y159843D02*
X1468602D01*
Y155030D02*
Y158770D01*
X1461909Y155030D02*
Y158770D01*
X1468602D01*
X1461909Y155030D02*
X1468602D01*
X1381299Y118898D02*
Y122638D01*
X1387992Y118898D02*
Y122638D01*
X1381299Y118898D02*
X1387992D01*
X1381299Y122638D02*
X1387992D01*
X1381299Y123710D02*
Y127451D01*
X1387992Y123710D02*
Y127451D01*
X1381299Y123710D02*
X1387992D01*
X1381299Y127451D02*
X1387992D01*
X1288681Y159843D02*
Y163583D01*
X1281988Y159843D02*
Y163583D01*
X1288681D01*
X1281988Y159843D02*
X1288681D01*
Y155030D02*
Y158770D01*
X1281988Y155030D02*
Y158770D01*
X1288681D01*
X1281988Y155030D02*
X1288681D01*
X1201378Y118898D02*
Y122638D01*
X1208071Y118898D02*
Y122638D01*
X1201378Y118898D02*
X1208071D01*
X1201378Y122638D02*
X1208071D01*
X1201378Y123710D02*
Y127451D01*
X1208071Y123710D02*
Y127451D01*
X1201378Y123710D02*
X1208071D01*
X1201378Y127451D02*
X1208071D01*
X1108760Y159843D02*
Y163583D01*
X1102067Y159843D02*
Y163583D01*
X1108760D01*
X1102067Y159843D02*
X1108760D01*
Y155030D02*
Y158770D01*
X1102067Y155030D02*
Y158770D01*
X1108760D01*
X1102067Y155030D02*
X1108760D01*
X1021457Y122638D02*
X1028150D01*
X1021457Y118898D02*
X1028150D01*
Y122638D01*
X1021457Y118898D02*
Y122638D01*
Y127451D02*
X1028150D01*
X1021457Y123710D02*
X1028150D01*
Y127451D01*
X1021457Y123710D02*
Y127451D01*
X928839Y159843D02*
Y163583D01*
X922146Y159843D02*
Y163583D01*
X928839D01*
X922146Y159843D02*
X928839D01*
Y155030D02*
Y158770D01*
X922146Y155030D02*
Y158770D01*
X928839D01*
X922146Y155030D02*
X928839D01*
X841535Y118898D02*
Y122638D01*
X848228Y118898D02*
Y122638D01*
X841535Y118898D02*
X848228D01*
X841535Y122638D02*
X848228D01*
X841535Y123710D02*
Y127451D01*
X848228Y123710D02*
Y127451D01*
X841535Y123710D02*
X848228D01*
X841535Y127451D02*
X848228D01*
X748917Y159843D02*
Y163583D01*
X742224Y159843D02*
Y163583D01*
X748917D01*
X742224Y159843D02*
X748917D01*
Y155030D02*
Y158770D01*
X742224Y155030D02*
Y158770D01*
X748917D01*
X742224Y155030D02*
X748917D01*
X661614Y118898D02*
Y122638D01*
X668307Y118898D02*
Y122638D01*
X661614Y118898D02*
X668307D01*
X661614Y122638D02*
X668307D01*
X661614Y123710D02*
Y127451D01*
X668307Y123710D02*
Y127451D01*
X661614Y123710D02*
X668307D01*
X661614Y127451D02*
X668307D01*
X568996Y159843D02*
Y163583D01*
X562303Y159843D02*
Y163583D01*
X568996D01*
X562303Y159843D02*
X568996D01*
Y155030D02*
Y158770D01*
X562303Y155030D02*
Y158770D01*
X568996D01*
X562303Y155030D02*
X568996D01*
X481693Y118898D02*
Y122638D01*
X488386Y118898D02*
Y122638D01*
X481693Y118898D02*
X488386D01*
X481693Y122638D02*
X488386D01*
X481693Y123710D02*
Y127451D01*
X488386Y123710D02*
Y127451D01*
X481693Y123710D02*
X488386D01*
X481693Y127451D02*
X488386D01*
X389075Y159843D02*
Y163583D01*
X382382Y159843D02*
Y163583D01*
X389075D01*
X382382Y159843D02*
X389075D01*
Y155030D02*
Y158770D01*
X382382Y155030D02*
Y158770D01*
X389075D01*
X382382Y155030D02*
X389075D01*
X301772Y118898D02*
Y122638D01*
X308465Y118898D02*
Y122638D01*
X301772Y118898D02*
X308465D01*
X301772Y122638D02*
X308465D01*
X301772Y123710D02*
Y127451D01*
X308465Y123710D02*
Y127451D01*
X301772Y123710D02*
X308465D01*
X301772Y127451D02*
X308465D01*
X121850D02*
X128543D01*
X121850Y123710D02*
X128543D01*
Y127451D01*
X121850Y123710D02*
Y127451D01*
X82776Y126575D02*
Y133268D01*
X86516Y126575D02*
Y133268D01*
X82776Y126575D02*
X86516D01*
X82776Y133268D02*
X86516D01*
X94587Y126575D02*
Y133268D01*
X98327Y126575D02*
Y133268D01*
X94587Y126575D02*
X98327D01*
X94587Y133268D02*
X98327D01*
X100591Y128543D02*
Y135236D01*
X104134Y128543D02*
Y135236D01*
X100591Y128543D02*
X104134D01*
X100591Y135236D02*
X104134D01*
X88681Y126575D02*
Y133268D01*
X92421Y126575D02*
Y133268D01*
X88681Y126575D02*
X92421D01*
X88681Y133268D02*
X92421D01*
X121850Y122638D02*
X128543D01*
X121850Y118898D02*
X128543D01*
Y122638D01*
X121850Y118898D02*
Y122638D01*
X1495866Y149213D02*
Y155906D01*
X1492126Y149213D02*
Y155906D01*
X1495866D01*
X1492126Y149213D02*
X1495866D01*
X1354035Y126575D02*
Y133268D01*
X1357776Y126575D02*
Y133268D01*
X1354035Y126575D02*
X1357776D01*
X1354035Y133268D02*
X1357776D01*
X1315945Y149213D02*
Y155906D01*
X1312205Y149213D02*
Y155906D01*
X1315945D01*
X1312205Y149213D02*
X1315945D01*
X1174114Y126575D02*
Y133268D01*
X1177854Y126575D02*
Y133268D01*
X1174114Y126575D02*
X1177854D01*
X1174114Y133268D02*
X1177854D01*
X1136024Y149213D02*
Y155906D01*
X1132284Y149213D02*
Y155906D01*
X1136024D01*
X1132284Y149213D02*
X1136024D01*
X956102D02*
Y155906D01*
X952362Y149213D02*
Y155906D01*
X956102D01*
X952362Y149213D02*
X956102D01*
X814272Y126575D02*
Y133268D01*
X818012Y126575D02*
Y133268D01*
X814272Y126575D02*
X818012D01*
X814272Y133268D02*
X818012D01*
X776181Y149213D02*
Y155906D01*
X772441Y149213D02*
Y155906D01*
X776181D01*
X772441Y149213D02*
X776181D01*
X634350Y126575D02*
Y133268D01*
X638091Y126575D02*
Y133268D01*
X634350Y126575D02*
X638091D01*
X634350Y133268D02*
X638091D01*
X596260Y149213D02*
Y155906D01*
X592520Y149213D02*
Y155906D01*
X596260D01*
X592520Y149213D02*
X596260D01*
X454429Y126575D02*
Y133268D01*
X458170Y126575D02*
Y133268D01*
X454429Y126575D02*
X458170D01*
X454429Y133268D02*
X458170D01*
X416339Y149213D02*
Y155906D01*
X412599Y149213D02*
Y155906D01*
X416339D01*
X412599Y149213D02*
X416339D01*
X274508Y126575D02*
Y133268D01*
X278248Y126575D02*
Y133268D01*
X274508Y126575D02*
X278248D01*
X274508Y133268D02*
X278248D01*
X1501772Y149213D02*
Y155906D01*
X1498032Y149213D02*
Y155906D01*
X1501772D01*
X1498032Y149213D02*
X1501772D01*
X1348130Y126575D02*
Y133268D01*
X1351870Y126575D02*
Y133268D01*
X1348130Y126575D02*
X1351870D01*
X1348130Y133268D02*
X1351870D01*
X1321850Y149213D02*
Y155906D01*
X1318110Y149213D02*
Y155906D01*
X1321850D01*
X1318110Y149213D02*
X1321850D01*
X1168209Y126575D02*
Y133268D01*
X1171949Y126575D02*
Y133268D01*
X1168209Y126575D02*
X1171949D01*
X1168209Y133268D02*
X1171949D01*
X1141929Y149213D02*
Y155906D01*
X1138189Y149213D02*
Y155906D01*
X1141929D01*
X1138189Y149213D02*
X1141929D01*
X962008D02*
Y155906D01*
X958268Y149213D02*
Y155906D01*
X962008D01*
X958268Y149213D02*
X962008D01*
X808366Y126575D02*
Y133268D01*
X812106Y126575D02*
Y133268D01*
X808366Y126575D02*
X812106D01*
X808366Y133268D02*
X812106D01*
X782087Y149213D02*
Y155906D01*
X778346Y149213D02*
Y155906D01*
X782087D01*
X778346Y149213D02*
X782087D01*
X628445Y126575D02*
Y133268D01*
X632185Y126575D02*
Y133268D01*
X628445Y126575D02*
X632185D01*
X628445Y133268D02*
X632185D01*
X602165Y149213D02*
Y155906D01*
X598425Y149213D02*
Y155906D01*
X602165D01*
X598425Y149213D02*
X602165D01*
X448524Y126575D02*
Y133268D01*
X452264Y126575D02*
Y133268D01*
X448524Y126575D02*
X452264D01*
X448524Y133268D02*
X452264D01*
X422244Y149213D02*
Y155906D01*
X418504Y149213D02*
Y155906D01*
X422244D01*
X418504Y149213D02*
X422244D01*
X268602Y126575D02*
Y133268D01*
X272342Y126575D02*
Y133268D01*
X268602Y126575D02*
X272342D01*
X268602Y133268D02*
X272342D01*
X1507677Y149213D02*
Y155906D01*
X1503937Y149213D02*
Y155906D01*
X1507677D01*
X1503937Y149213D02*
X1507677D01*
X1342224Y126575D02*
Y133268D01*
X1345965Y126575D02*
Y133268D01*
X1342224Y126575D02*
X1345965D01*
X1342224Y133268D02*
X1345965D01*
X1327756Y149213D02*
Y155906D01*
X1324016Y149213D02*
Y155906D01*
X1327756D01*
X1324016Y149213D02*
X1327756D01*
X1162303Y126575D02*
Y133268D01*
X1166044Y126575D02*
Y133268D01*
X1162303Y126575D02*
X1166044D01*
X1162303Y133268D02*
X1166044D01*
X1147835Y149213D02*
Y155906D01*
X1144095Y149213D02*
Y155906D01*
X1147835D01*
X1144095Y149213D02*
X1147835D01*
X967914D02*
Y155906D01*
X964173Y149213D02*
Y155906D01*
X967914D01*
X964173Y149213D02*
X967914D01*
X802461Y126575D02*
Y133268D01*
X806201Y126575D02*
Y133268D01*
X802461Y126575D02*
X806201D01*
X802461Y133268D02*
X806201D01*
X787992Y149213D02*
Y155906D01*
X784252Y149213D02*
Y155906D01*
X787992D01*
X784252Y149213D02*
X787992D01*
X622539Y126575D02*
Y133268D01*
X626280Y126575D02*
Y133268D01*
X622539Y126575D02*
X626280D01*
X622539Y133268D02*
X626280D01*
X608071Y149213D02*
Y155906D01*
X604331Y149213D02*
Y155906D01*
X608071D01*
X604331Y149213D02*
X608071D01*
X442618Y126575D02*
Y133268D01*
X446358Y126575D02*
Y133268D01*
X442618Y126575D02*
X446358D01*
X442618Y133268D02*
X446358D01*
X428150Y149213D02*
Y155906D01*
X424409Y149213D02*
Y155906D01*
X428150D01*
X424409Y149213D02*
X428150D01*
X262697Y126575D02*
Y133268D01*
X266437Y126575D02*
Y133268D01*
X262697Y126575D02*
X266437D01*
X262697Y133268D02*
X266437D01*
X1489862Y147245D02*
Y153938D01*
X1486319Y147245D02*
Y153938D01*
X1489862D01*
X1486319Y147245D02*
X1489862D01*
X1360039Y128543D02*
Y135236D01*
X1363583Y128543D02*
Y135236D01*
X1360039Y128543D02*
X1363583D01*
X1360039Y135236D02*
X1363583D01*
X1309941Y147245D02*
Y153938D01*
X1306398Y147245D02*
Y153938D01*
X1309941D01*
X1306398Y147245D02*
X1309941D01*
X1180118Y128543D02*
Y135236D01*
X1183661Y128543D02*
Y135236D01*
X1180118Y128543D02*
X1183661D01*
X1180118Y135236D02*
X1183661D01*
X1130020Y147245D02*
Y153938D01*
X1126476Y147245D02*
Y153938D01*
X1130020D01*
X1126476Y147245D02*
X1130020D01*
X950099D02*
Y153938D01*
X946555Y147245D02*
Y153938D01*
X950099D01*
X946555Y147245D02*
X950099D01*
X820276Y128543D02*
Y135236D01*
X823819Y128543D02*
Y135236D01*
X820276Y128543D02*
X823819D01*
X820276Y135236D02*
X823819D01*
X770177Y147245D02*
Y153938D01*
X766634Y147245D02*
Y153938D01*
X770177D01*
X766634Y147245D02*
X770177D01*
X640354Y128543D02*
Y135236D01*
X643898Y128543D02*
Y135236D01*
X640354Y128543D02*
X643898D01*
X640354Y135236D02*
X643898D01*
X590256Y147245D02*
Y153938D01*
X586713Y147245D02*
Y153938D01*
X590256D01*
X586713Y147245D02*
X590256D01*
X460433Y128543D02*
Y135236D01*
X463976Y128543D02*
Y135236D01*
X460433Y128543D02*
X463976D01*
X460433Y135236D02*
X463976D01*
X410335Y147245D02*
Y153938D01*
X406791Y147245D02*
Y153938D01*
X410335D01*
X406791Y147245D02*
X410335D01*
X280512Y128543D02*
Y135236D01*
X284055Y128543D02*
Y135236D01*
X280512Y128543D02*
X284055D01*
X280512Y135236D02*
X284055D01*
X982382Y133268D02*
X986122D01*
X982382Y126575D02*
X986122D01*
Y133268D01*
X982382Y126575D02*
Y133268D01*
X988287D02*
X992027D01*
X988287Y126575D02*
X992027D01*
Y133268D01*
X988287Y126575D02*
Y133268D01*
X994193D02*
X997933D01*
X994193Y126575D02*
X997933D01*
Y133268D01*
X994193Y126575D02*
Y133268D01*
X1000197Y135236D02*
X1003740D01*
X1000197Y128543D02*
X1003740D01*
Y135236D01*
X1000197Y128543D02*
Y135236D01*
X43307Y31693D02*
X47244D01*
X45276Y29724D02*
Y33661D01*
X43307Y51693D02*
X47244D01*
X45276Y49724D02*
Y53661D01*
X21555Y271654D02*
Y275591D01*
X19587Y273622D02*
X23524D01*
X21752Y7185D02*
Y11122D01*
X19783Y9154D02*
X23720D01*
X72300Y216632D02*
Y220569D01*
X70331Y218600D02*
X74268D01*
X226083Y144587D02*
X231201D01*
X226083Y156595D02*
X231201D01*
X226083Y144587D02*
Y156595D01*
X231201Y144587D02*
Y156595D01*
X228642Y148819D02*
Y152363D01*
X226870Y150591D02*
X230413D01*
X100591Y131890D02*
X104134D01*
X102362Y130118D02*
Y133661D01*
X99803Y125886D02*
Y137894D01*
X104921Y125886D02*
Y137894D01*
X99803Y125886D02*
X104921D01*
X99803Y137894D02*
X104921D01*
X1486319Y150591D02*
X1489862D01*
X1488091Y148819D02*
Y152363D01*
X1490650Y144587D02*
Y156595D01*
X1485532Y144587D02*
Y156595D01*
X1490650D01*
X1485532Y144587D02*
X1490650D01*
X1360039Y131890D02*
X1363583D01*
X1361811Y130118D02*
Y133661D01*
X1359252Y125886D02*
Y137894D01*
X1364370Y125886D02*
Y137894D01*
X1359252Y125886D02*
X1364370D01*
X1359252Y137894D02*
X1364370D01*
X1306398Y150591D02*
X1309941D01*
X1308170Y148819D02*
Y152363D01*
X1310729Y144587D02*
Y156595D01*
X1305610Y144587D02*
Y156595D01*
X1310729D01*
X1305610Y144587D02*
X1310729D01*
X1180118Y131890D02*
X1183661D01*
X1181890Y130118D02*
Y133661D01*
X1179331Y125886D02*
Y137894D01*
X1184449Y125886D02*
Y137894D01*
X1179331Y125886D02*
X1184449D01*
X1179331Y137894D02*
X1184449D01*
X1126476Y150591D02*
X1130020D01*
X1128248Y148819D02*
Y152363D01*
X1130807Y144587D02*
Y156595D01*
X1125689Y144587D02*
Y156595D01*
X1130807D01*
X1125689Y144587D02*
X1130807D01*
X946555Y150591D02*
X950099D01*
X948327Y148819D02*
Y152363D01*
X950886Y144587D02*
Y156595D01*
X945768Y144587D02*
Y156595D01*
X950886D01*
X945768Y144587D02*
X950886D01*
X820276Y131890D02*
X823819D01*
X822047Y130118D02*
Y133661D01*
X819488Y125886D02*
Y137894D01*
X824607Y125886D02*
Y137894D01*
X819488Y125886D02*
X824607D01*
X819488Y137894D02*
X824607D01*
X766634Y150591D02*
X770177D01*
X768406Y148819D02*
Y152363D01*
X770965Y144587D02*
Y156595D01*
X765847Y144587D02*
Y156595D01*
X770965D01*
X765847Y144587D02*
X770965D01*
X640354Y131890D02*
X643898D01*
X642126Y130118D02*
Y133661D01*
X639567Y125886D02*
Y137894D01*
X644685Y125886D02*
Y137894D01*
X639567Y125886D02*
X644685D01*
X639567Y137894D02*
X644685D01*
X586713Y150591D02*
X590256D01*
X588484Y148819D02*
Y152363D01*
X591044Y144587D02*
Y156595D01*
X585925Y144587D02*
Y156595D01*
X591044D01*
X585925Y144587D02*
X591044D01*
X460433Y131890D02*
X463976D01*
X462205Y130118D02*
Y133661D01*
X459646Y125886D02*
Y137894D01*
X464764Y125886D02*
Y137894D01*
X459646Y125886D02*
X464764D01*
X459646Y137894D02*
X464764D01*
X406791Y150591D02*
X410335D01*
X408563Y148819D02*
Y152363D01*
X411122Y144587D02*
Y156595D01*
X406004Y144587D02*
Y156595D01*
X411122D01*
X406004Y144587D02*
X411122D01*
X280512Y131890D02*
X284055D01*
X282283Y130118D02*
Y133661D01*
X279725Y125886D02*
Y137894D01*
X284843Y125886D02*
Y137894D01*
X279725Y125886D02*
X284843D01*
X279725Y137894D02*
X284843D01*
X999409D02*
X1004528D01*
X999409Y125886D02*
X1004528D01*
Y137894D01*
X999409Y125886D02*
Y137894D01*
X1001969Y130118D02*
Y133661D01*
X1000197Y131890D02*
X1003740D01*
D20*
X1442520Y145669D02*
X1448425D01*
X1442520Y157480D02*
X1448425D01*
X1442520Y145669D02*
Y157480D01*
X1448425Y145669D02*
Y157480D01*
X1445472Y149705D02*
Y153445D01*
X1443602Y151575D02*
X1447342D01*
X1401181Y136811D02*
X1407087D01*
X1401181Y125000D02*
X1407087D01*
Y136811D01*
X1401181Y125000D02*
Y136811D01*
X1404134Y129035D02*
Y132776D01*
X1402264Y130905D02*
X1406004D01*
X1262598Y145669D02*
X1268504D01*
X1262598Y157480D02*
X1268504D01*
X1262598Y145669D02*
Y157480D01*
X1268504Y145669D02*
Y157480D01*
X1265551Y149705D02*
Y153445D01*
X1263681Y151575D02*
X1267421D01*
X1221260Y136811D02*
X1227165D01*
X1221260Y125000D02*
X1227165D01*
Y136811D01*
X1221260Y125000D02*
Y136811D01*
X1224213Y129035D02*
Y132776D01*
X1222342Y130905D02*
X1226083D01*
X1082677Y145669D02*
X1088583D01*
X1082677Y157480D02*
X1088583D01*
X1082677Y145669D02*
Y157480D01*
X1088583Y145669D02*
Y157480D01*
X1085630Y149705D02*
Y153445D01*
X1083760Y151575D02*
X1087500D01*
X1041339Y136811D02*
X1047244D01*
X1041339Y125000D02*
X1047244D01*
Y136811D01*
X1041339Y125000D02*
Y136811D01*
X1044291Y129035D02*
Y132776D01*
X1042421Y130905D02*
X1046161D01*
X902756Y145669D02*
X908661D01*
X902756Y157480D02*
X908661D01*
X902756Y145669D02*
Y157480D01*
X908661Y145669D02*
Y157480D01*
X905709Y149705D02*
Y153445D01*
X903839Y151575D02*
X907579D01*
X861417Y136811D02*
X867323D01*
X861417Y125000D02*
X867323D01*
Y136811D01*
X861417Y125000D02*
Y136811D01*
X864370Y129035D02*
Y132776D01*
X862500Y130905D02*
X866240D01*
X722835Y145669D02*
X728740D01*
X722835Y157480D02*
X728740D01*
X722835Y145669D02*
Y157480D01*
X728740Y145669D02*
Y157480D01*
X725787Y149705D02*
Y153445D01*
X723917Y151575D02*
X727658D01*
X681496Y136811D02*
X687402D01*
X681496Y125000D02*
X687402D01*
Y136811D01*
X681496Y125000D02*
Y136811D01*
X684449Y129035D02*
Y132776D01*
X682579Y130905D02*
X686319D01*
X542913Y145669D02*
X548819D01*
X542913Y157480D02*
X548819D01*
X542913Y145669D02*
Y157480D01*
X548819Y145669D02*
Y157480D01*
X545866Y149705D02*
Y153445D01*
X543996Y151575D02*
X547736D01*
X501575Y136811D02*
X507480D01*
X501575Y125000D02*
X507480D01*
Y136811D01*
X501575Y125000D02*
Y136811D01*
X504528Y129035D02*
Y132776D01*
X502658Y130905D02*
X506398D01*
X362992Y145669D02*
X368898D01*
X362992Y157480D02*
X368898D01*
X362992Y145669D02*
Y157480D01*
X368898Y145669D02*
Y157480D01*
X365945Y149705D02*
Y153445D01*
X364075Y151575D02*
X367815D01*
X321654Y136811D02*
X327559D01*
X321654Y125000D02*
X327559D01*
Y136811D01*
X321654Y125000D02*
Y136811D01*
X324606Y129035D02*
Y132776D01*
X322736Y130905D02*
X326476D01*
X183071Y145669D02*
X188976D01*
X183071Y157480D02*
X188976D01*
X183071Y145669D02*
Y157480D01*
X188976Y145669D02*
Y157480D01*
X186024Y149705D02*
Y153445D01*
X184153Y151575D02*
X187894D01*
X141732Y136811D02*
X147638D01*
X141732Y125000D02*
X147638D01*
Y136811D01*
X141732Y125000D02*
Y136811D01*
X144685Y129035D02*
Y132776D01*
X142815Y130905D02*
X146555D01*
X19882Y91142D02*
Y99409D01*
X35236Y91142D02*
Y99409D01*
X19882Y91142D02*
X35236D01*
X19882Y99409D02*
X35236D01*
X25689Y95276D02*
X29429D01*
X27559Y93406D02*
Y97146D01*
X4921Y130118D02*
X13189D01*
X4921Y114764D02*
X13189D01*
Y130118D01*
X4921Y114764D02*
Y130118D01*
X9055Y120571D02*
Y124311D01*
X7185Y122441D02*
X10925D01*
X28346Y85925D02*
Y89665D01*
X26476Y87795D02*
X30217D01*
X22441Y84843D02*
X34252D01*
X22441Y90748D02*
X34252D01*
X22441Y84843D02*
Y90748D01*
X34252Y84843D02*
Y90748D01*
X4528Y91142D02*
Y99409D01*
X19882Y91142D02*
Y99409D01*
X4528Y91142D02*
X19882D01*
X4528Y99409D02*
X19882D01*
X10335Y95276D02*
X14075D01*
X12205Y93406D02*
Y97146D01*
X13150Y85925D02*
Y89665D01*
X11280Y87795D02*
X15020D01*
X7244Y84843D02*
X19055D01*
X7244Y90748D02*
X19055D01*
X7244Y84843D02*
Y90748D01*
X19055Y84843D02*
Y90748D01*
X13189Y116535D02*
X19094D01*
X13189Y128346D02*
X19094D01*
X13189Y116535D02*
Y128346D01*
X19094Y116535D02*
Y128346D01*
X16142Y120571D02*
Y124311D01*
X14272Y122441D02*
X18012D01*
X25000Y128346D02*
X30906D01*
X25000Y116535D02*
X30906D01*
Y128346D01*
X25000Y116535D02*
Y128346D01*
X27953Y120571D02*
Y124311D01*
X26083Y122441D02*
X29823D01*
X13386Y100886D02*
Y104626D01*
X11516Y102756D02*
X15256D01*
X7480Y105709D02*
X19291D01*
X7480Y99803D02*
X19291D01*
Y105709D01*
X7480Y99803D02*
Y105709D01*
X28346Y100886D02*
Y104626D01*
X26476Y102756D02*
X30217D01*
X22441Y105709D02*
X34252D01*
X22441Y99803D02*
X34252D01*
Y105709D01*
X22441Y99803D02*
Y105709D01*
X9247Y221706D02*
X15153D01*
X9247Y209895D02*
X15153D01*
Y221706D01*
X9247Y209895D02*
Y221706D01*
X12200Y213930D02*
Y217670D01*
X10330Y215800D02*
X14070D01*
X15393Y221654D02*
X21299D01*
X15393Y209843D02*
X21299D01*
Y221654D01*
X15393Y209843D02*
Y221654D01*
X18346Y213878D02*
Y217618D01*
X16476Y215748D02*
X20216D01*
X21654Y221606D02*
X27559D01*
X21654Y209795D02*
X27559D01*
Y221606D01*
X21654Y209795D02*
Y221606D01*
X24606Y213830D02*
Y217570D01*
X22736Y215700D02*
X26476D01*
X19094Y116535D02*
X25000D01*
X19094Y128346D02*
X25000D01*
X19094Y116535D02*
Y128346D01*
X25000Y116535D02*
Y128346D01*
X22047Y120571D02*
Y124311D01*
X20177Y122441D02*
X23917D01*
X13386Y193012D02*
Y196752D01*
X11516Y194882D02*
X15256D01*
X7480Y197835D02*
X19291D01*
X7480Y191929D02*
X19291D01*
Y197835D01*
X7480Y191929D02*
Y197835D01*
X35630Y183465D02*
Y191733D01*
X20276Y183465D02*
Y191733D01*
X35630D01*
X20276Y183465D02*
X35630D01*
X26083Y187599D02*
X29823D01*
X27953Y185729D02*
Y189469D01*
X17913Y152953D02*
X26181D01*
X17913Y168307D02*
X26181D01*
X17913Y152953D02*
Y168307D01*
X26181Y152953D02*
Y168307D01*
X22047Y158760D02*
Y162500D01*
X20177Y160630D02*
X23917D01*
X13386Y178445D02*
Y182185D01*
X11516Y180315D02*
X15256D01*
X7480Y183268D02*
X19291D01*
X7480Y177362D02*
X19291D01*
Y183268D01*
X7480Y177362D02*
Y183268D01*
X28740Y178445D02*
Y182185D01*
X26870Y180315D02*
X30610D01*
X22835Y183268D02*
X34646D01*
X22835Y177362D02*
X34646D01*
Y183268D01*
X22835Y177362D02*
Y183268D01*
X28740Y193406D02*
Y197146D01*
X26870Y195276D02*
X30610D01*
X22835Y198228D02*
X34646D01*
X22835Y192323D02*
X34646D01*
Y198228D01*
X22835Y192323D02*
Y198228D01*
X19882Y183465D02*
Y191733D01*
X4528Y183465D02*
Y191733D01*
X19882D01*
X4528Y183465D02*
X19882D01*
X10335Y187599D02*
X14075D01*
X12205Y185729D02*
Y189469D01*
X13484Y91339D02*
X17224D01*
X15354Y89469D02*
Y93209D01*
X19488Y83661D02*
Y99016D01*
X11220Y83661D02*
Y99016D01*
X19488D01*
X11220Y83661D02*
X19488D01*
X10728Y75984D02*
X14469D01*
X12598Y74114D02*
Y77854D01*
X16732Y68307D02*
Y83661D01*
X8465Y68307D02*
Y83661D01*
X16732D01*
X8465Y68307D02*
X16732D01*
X39882Y42087D02*
X50669D01*
Y20799D02*
Y42087D01*
X39882Y20799D02*
Y42087D01*
Y20799D02*
X50669D01*
X39882Y62087D02*
X50669D01*
Y40799D02*
Y62087D01*
X39882Y40799D02*
Y62087D01*
Y40799D02*
X50669D01*
X31949Y268228D02*
Y279016D01*
X10661Y268228D02*
X31949D01*
X10661Y279016D02*
X31949D01*
X10661Y268228D02*
Y279016D01*
X23819Y252165D02*
Y260433D01*
X8465Y252165D02*
Y260433D01*
Y252165D02*
X23819D01*
X8465Y260433D02*
X23819D01*
X14272Y256299D02*
X18012D01*
X16142Y254429D02*
Y258169D01*
X9646Y191142D02*
X17913D01*
X9646Y206496D02*
X17913D01*
X9646Y191142D02*
Y206496D01*
X17913Y191142D02*
Y206496D01*
X13780Y196949D02*
Y200689D01*
X11909Y198819D02*
X15650D01*
X11909Y184252D02*
X15650D01*
X13780Y182382D02*
Y186122D01*
X17913Y176575D02*
Y191929D01*
X9646Y176575D02*
Y191929D01*
X17913D01*
X9646Y176575D02*
X17913D01*
Y75394D02*
X26181D01*
X17913Y60039D02*
X26181D01*
Y75394D01*
X17913Y60039D02*
Y75394D01*
X22047Y65846D02*
Y69587D01*
X20177Y67717D02*
X23917D01*
X8858Y22244D02*
Y30512D01*
X24213Y22244D02*
Y30512D01*
X8858D02*
X24213D01*
X8858Y22244D02*
X24213D01*
X14665Y26378D02*
X18406D01*
X16535Y24508D02*
Y28248D01*
X32146Y3760D02*
Y14547D01*
X10858Y3760D02*
X32146D01*
X10858Y14547D02*
X32146D01*
X10858Y3760D02*
Y14547D01*
X11909Y168898D02*
X15650D01*
X13780Y167028D02*
Y170768D01*
X17913Y161220D02*
Y176575D01*
X9646Y161220D02*
Y176575D01*
X17913D01*
X9646Y161220D02*
X17913D01*
X68560Y210726D02*
X76040D01*
X68560Y226474D02*
X76040D01*
X68560Y210726D02*
Y226474D01*
X76040Y210726D02*
Y226474D01*
X45135Y214372D02*
X49465D01*
X45135Y223428D02*
X49465D01*
X45135Y214372D02*
Y223428D01*
X49465Y214372D02*
Y223428D01*
X47300Y217030D02*
Y220770D01*
X45430Y218900D02*
X49170D01*
X37205Y122244D02*
Y126575D01*
X46260Y122244D02*
Y126575D01*
X37205D02*
X46260D01*
X37205Y122244D02*
X46260D01*
X39862Y124409D02*
X43602D01*
X41732Y122539D02*
Y126280D01*
X40335Y223425D02*
X44665D01*
X40335Y214370D02*
X44665D01*
Y223425D01*
X40335Y214370D02*
Y223425D01*
X42500Y217028D02*
Y220768D01*
X40630Y218898D02*
X44370D01*
X46654Y122244D02*
Y126575D01*
X55709Y122244D02*
Y126575D01*
X46654D02*
X55709D01*
X46654Y122244D02*
X55709D01*
X49311Y124409D02*
X53051D01*
X51181Y122539D02*
Y126280D01*
X232382Y148032D02*
X236713D01*
X232382Y157087D02*
X236713D01*
X232382Y148032D02*
Y157087D01*
X236713Y148032D02*
Y157087D01*
X234547Y150690D02*
Y154430D01*
X232677Y152560D02*
X236417D01*
X244193Y148032D02*
X248524D01*
X244193Y157087D02*
X248524D01*
X244193Y148032D02*
Y157087D01*
X248524Y148032D02*
Y157087D01*
X246358Y150690D02*
Y154430D01*
X244488Y152560D02*
X248228D01*
X238287Y148032D02*
X242618D01*
X238287Y157087D02*
X242618D01*
X238287Y148032D02*
Y157087D01*
X242618Y148032D02*
Y157087D01*
X240453Y150690D02*
Y154430D01*
X238583Y152560D02*
X242323D01*
X210335Y159548D02*
Y163879D01*
X201280Y159548D02*
Y163879D01*
X210335D01*
X201280Y159548D02*
X210335D01*
X203937Y161713D02*
X207677D01*
X205807Y159843D02*
Y163583D01*
X210335Y154735D02*
Y159066D01*
X201280Y154735D02*
Y159066D01*
X210335D01*
X201280Y154735D02*
X210335D01*
X203937Y156900D02*
X207677D01*
X205807Y155030D02*
Y158770D01*
X1469783Y159548D02*
Y163879D01*
X1460728Y159548D02*
Y163879D01*
X1469783D01*
X1460728Y159548D02*
X1469783D01*
X1463386Y161713D02*
X1467126D01*
X1465256Y159843D02*
Y163583D01*
X1469783Y154735D02*
Y159066D01*
X1460728Y154735D02*
Y159066D01*
X1469783D01*
X1460728Y154735D02*
X1469783D01*
X1463386Y156900D02*
X1467126D01*
X1465256Y155030D02*
Y158770D01*
X1380118Y118602D02*
Y122933D01*
X1389173Y118602D02*
Y122933D01*
X1380118Y118602D02*
X1389173D01*
X1380118Y122933D02*
X1389173D01*
X1382776Y120768D02*
X1386516D01*
X1384646Y118898D02*
Y122638D01*
X1380118Y123415D02*
Y127746D01*
X1389173Y123415D02*
Y127746D01*
X1380118Y123415D02*
X1389173D01*
X1380118Y127746D02*
X1389173D01*
X1382776Y125581D02*
X1386516D01*
X1384646Y123710D02*
Y127451D01*
X1289862Y159548D02*
Y163879D01*
X1280807Y159548D02*
Y163879D01*
X1289862D01*
X1280807Y159548D02*
X1289862D01*
X1283465Y161713D02*
X1287205D01*
X1285335Y159843D02*
Y163583D01*
X1289862Y154735D02*
Y159066D01*
X1280807Y154735D02*
Y159066D01*
X1289862D01*
X1280807Y154735D02*
X1289862D01*
X1283465Y156900D02*
X1287205D01*
X1285335Y155030D02*
Y158770D01*
X1200197Y118602D02*
Y122933D01*
X1209252Y118602D02*
Y122933D01*
X1200197Y118602D02*
X1209252D01*
X1200197Y122933D02*
X1209252D01*
X1202855Y120768D02*
X1206595D01*
X1204725Y118898D02*
Y122638D01*
X1200197Y123415D02*
Y127746D01*
X1209252Y123415D02*
Y127746D01*
X1200197Y123415D02*
X1209252D01*
X1200197Y127746D02*
X1209252D01*
X1202855Y125581D02*
X1206595D01*
X1204725Y123710D02*
Y127451D01*
X1109941Y159548D02*
Y163879D01*
X1100886Y159548D02*
Y163879D01*
X1109941D01*
X1100886Y159548D02*
X1109941D01*
X1103543Y161713D02*
X1107284D01*
X1105414Y159843D02*
Y163583D01*
X1109941Y154735D02*
Y159066D01*
X1100886Y154735D02*
Y159066D01*
X1109941D01*
X1100886Y154735D02*
X1109941D01*
X1103543Y156900D02*
X1107284D01*
X1105414Y155030D02*
Y158770D01*
X1024803Y118898D02*
Y122638D01*
X1022933Y120768D02*
X1026673D01*
X1020276Y122933D02*
X1029331D01*
X1020276Y118602D02*
X1029331D01*
Y122933D01*
X1020276Y118602D02*
Y122933D01*
X1024803Y123710D02*
Y127451D01*
X1022933Y125581D02*
X1026673D01*
X1020276Y127746D02*
X1029331D01*
X1020276Y123415D02*
X1029331D01*
Y127746D01*
X1020276Y123415D02*
Y127746D01*
X930020Y159548D02*
Y163879D01*
X920965Y159548D02*
Y163879D01*
X930020D01*
X920965Y159548D02*
X930020D01*
X923622Y161713D02*
X927362D01*
X925492Y159843D02*
Y163583D01*
X930020Y154735D02*
Y159066D01*
X920965Y154735D02*
Y159066D01*
X930020D01*
X920965Y154735D02*
X930020D01*
X923622Y156900D02*
X927362D01*
X925492Y155030D02*
Y158770D01*
X840355Y118602D02*
Y122933D01*
X849409Y118602D02*
Y122933D01*
X840355Y118602D02*
X849409D01*
X840355Y122933D02*
X849409D01*
X843012Y120768D02*
X846752D01*
X844882Y118898D02*
Y122638D01*
X840355Y123415D02*
Y127746D01*
X849409Y123415D02*
Y127746D01*
X840355Y123415D02*
X849409D01*
X840355Y127746D02*
X849409D01*
X843012Y125581D02*
X846752D01*
X844882Y123710D02*
Y127451D01*
X750098Y159548D02*
Y163879D01*
X741043Y159548D02*
Y163879D01*
X750098D01*
X741043Y159548D02*
X750098D01*
X743701Y161713D02*
X747441D01*
X745571Y159843D02*
Y163583D01*
X750098Y154735D02*
Y159066D01*
X741043Y154735D02*
Y159066D01*
X750098D01*
X741043Y154735D02*
X750098D01*
X743701Y156900D02*
X747441D01*
X745571Y155030D02*
Y158770D01*
X660433Y118602D02*
Y122933D01*
X669488Y118602D02*
Y122933D01*
X660433Y118602D02*
X669488D01*
X660433Y122933D02*
X669488D01*
X663091Y120768D02*
X666831D01*
X664961Y118898D02*
Y122638D01*
X660433Y123415D02*
Y127746D01*
X669488Y123415D02*
Y127746D01*
X660433Y123415D02*
X669488D01*
X660433Y127746D02*
X669488D01*
X663091Y125581D02*
X666831D01*
X664961Y123710D02*
Y127451D01*
X570177Y159548D02*
Y163879D01*
X561122Y159548D02*
Y163879D01*
X570177D01*
X561122Y159548D02*
X570177D01*
X563780Y161713D02*
X567520D01*
X565650Y159843D02*
Y163583D01*
X570177Y154735D02*
Y159066D01*
X561122Y154735D02*
Y159066D01*
X570177D01*
X561122Y154735D02*
X570177D01*
X563780Y156900D02*
X567520D01*
X565650Y155030D02*
Y158770D01*
X480512Y118602D02*
Y122933D01*
X489567Y118602D02*
Y122933D01*
X480512Y118602D02*
X489567D01*
X480512Y122933D02*
X489567D01*
X483170Y120768D02*
X486909D01*
X485040Y118898D02*
Y122638D01*
X480512Y123415D02*
Y127746D01*
X489567Y123415D02*
Y127746D01*
X480512Y123415D02*
X489567D01*
X480512Y127746D02*
X489567D01*
X483170Y125581D02*
X486909D01*
X485040Y123710D02*
Y127451D01*
X390256Y159548D02*
Y163879D01*
X381201Y159548D02*
Y163879D01*
X390256D01*
X381201Y159548D02*
X390256D01*
X383858Y161713D02*
X387598D01*
X385729Y159843D02*
Y163583D01*
X390256Y154735D02*
Y159066D01*
X381201Y154735D02*
Y159066D01*
X390256D01*
X381201Y154735D02*
X390256D01*
X383858Y156900D02*
X387598D01*
X385729Y155030D02*
Y158770D01*
X300591Y118602D02*
Y122933D01*
X309646Y118602D02*
Y122933D01*
X300591Y118602D02*
X309646D01*
X300591Y122933D02*
X309646D01*
X303248Y120768D02*
X306988D01*
X305118Y118898D02*
Y122638D01*
X300591Y123415D02*
Y127746D01*
X309646Y123415D02*
Y127746D01*
X300591Y123415D02*
X309646D01*
X300591Y127746D02*
X309646D01*
X303248Y125581D02*
X306988D01*
X305118Y123710D02*
Y127451D01*
X125197Y123710D02*
Y127451D01*
X123327Y125581D02*
X127067D01*
X120669Y127746D02*
X129724D01*
X120669Y123415D02*
X129724D01*
Y127746D01*
X120669Y123415D02*
Y127746D01*
X82776Y129921D02*
X86516D01*
X84646Y128051D02*
Y131791D01*
X82480Y125394D02*
Y134449D01*
X86811Y125394D02*
Y134449D01*
X82480Y125394D02*
X86811D01*
X82480Y134449D02*
X86811D01*
X94587Y129921D02*
X98327D01*
X96457Y128051D02*
Y131791D01*
X94291Y125394D02*
Y134449D01*
X98622Y125394D02*
Y134449D01*
X94291Y125394D02*
X98622D01*
X94291Y134449D02*
X98622D01*
X88681Y129921D02*
X92421D01*
X90551Y128051D02*
Y131791D01*
X88386Y125394D02*
Y134449D01*
X92717Y125394D02*
Y134449D01*
X88386Y125394D02*
X92717D01*
X88386Y134449D02*
X92717D01*
X125197Y118898D02*
Y122638D01*
X123327Y120768D02*
X127067D01*
X120669Y122933D02*
X129724D01*
X120669Y118602D02*
X129724D01*
Y122933D01*
X120669Y118602D02*
Y122933D01*
X1492126Y152560D02*
X1495866D01*
X1493996Y150690D02*
Y154430D01*
X1496161Y148032D02*
Y157087D01*
X1491831Y148032D02*
Y157087D01*
X1496161D01*
X1491831Y148032D02*
X1496161D01*
X1354035Y129921D02*
X1357776D01*
X1355906Y128051D02*
Y131791D01*
X1353740Y125394D02*
Y134449D01*
X1358071Y125394D02*
Y134449D01*
X1353740Y125394D02*
X1358071D01*
X1353740Y134449D02*
X1358071D01*
X1312205Y152560D02*
X1315945D01*
X1314075Y150690D02*
Y154430D01*
X1316240Y148032D02*
Y157087D01*
X1311910Y148032D02*
Y157087D01*
X1316240D01*
X1311910Y148032D02*
X1316240D01*
X1174114Y129921D02*
X1177854D01*
X1175984Y128051D02*
Y131791D01*
X1173819Y125394D02*
Y134449D01*
X1178150Y125394D02*
Y134449D01*
X1173819Y125394D02*
X1178150D01*
X1173819Y134449D02*
X1178150D01*
X1132284Y152560D02*
X1136024D01*
X1134154Y150690D02*
Y154430D01*
X1136319Y148032D02*
Y157087D01*
X1131988Y148032D02*
Y157087D01*
X1136319D01*
X1131988Y148032D02*
X1136319D01*
X952362Y152560D02*
X956102D01*
X954233Y150690D02*
Y154430D01*
X956398Y148032D02*
Y157087D01*
X952067Y148032D02*
Y157087D01*
X956398D01*
X952067Y148032D02*
X956398D01*
X814272Y129921D02*
X818012D01*
X816142Y128051D02*
Y131791D01*
X813976Y125394D02*
Y134449D01*
X818307Y125394D02*
Y134449D01*
X813976Y125394D02*
X818307D01*
X813976Y134449D02*
X818307D01*
X772441Y152560D02*
X776181D01*
X774311Y150690D02*
Y154430D01*
X776476Y148032D02*
Y157087D01*
X772146Y148032D02*
Y157087D01*
X776476D01*
X772146Y148032D02*
X776476D01*
X634350Y129921D02*
X638091D01*
X636221Y128051D02*
Y131791D01*
X634055Y125394D02*
Y134449D01*
X638386Y125394D02*
Y134449D01*
X634055Y125394D02*
X638386D01*
X634055Y134449D02*
X638386D01*
X592520Y152560D02*
X596260D01*
X594390Y150690D02*
Y154430D01*
X596555Y148032D02*
Y157087D01*
X592225Y148032D02*
Y157087D01*
X596555D01*
X592225Y148032D02*
X596555D01*
X454429Y129921D02*
X458170D01*
X456299Y128051D02*
Y131791D01*
X454134Y125394D02*
Y134449D01*
X458465Y125394D02*
Y134449D01*
X454134Y125394D02*
X458465D01*
X454134Y134449D02*
X458465D01*
X412599Y152560D02*
X416339D01*
X414469Y150690D02*
Y154430D01*
X416634Y148032D02*
Y157087D01*
X412303Y148032D02*
Y157087D01*
X416634D01*
X412303Y148032D02*
X416634D01*
X274508Y129921D02*
X278248D01*
X276378Y128051D02*
Y131791D01*
X274213Y125394D02*
Y134449D01*
X278543Y125394D02*
Y134449D01*
X274213Y125394D02*
X278543D01*
X274213Y134449D02*
X278543D01*
X1498032Y152560D02*
X1501772D01*
X1499902Y150690D02*
Y154430D01*
X1502067Y148032D02*
Y157087D01*
X1497736Y148032D02*
Y157087D01*
X1502067D01*
X1497736Y148032D02*
X1502067D01*
X1348130Y129921D02*
X1351870D01*
X1350000Y128051D02*
Y131791D01*
X1347835Y125394D02*
Y134449D01*
X1352165Y125394D02*
Y134449D01*
X1347835Y125394D02*
X1352165D01*
X1347835Y134449D02*
X1352165D01*
X1318110Y152560D02*
X1321850D01*
X1319980Y150690D02*
Y154430D01*
X1322146Y148032D02*
Y157087D01*
X1317815Y148032D02*
Y157087D01*
X1322146D01*
X1317815Y148032D02*
X1322146D01*
X1168209Y129921D02*
X1171949D01*
X1170079Y128051D02*
Y131791D01*
X1167913Y125394D02*
Y134449D01*
X1172244Y125394D02*
Y134449D01*
X1167913Y125394D02*
X1172244D01*
X1167913Y134449D02*
X1172244D01*
X1138189Y152560D02*
X1141929D01*
X1140059Y150690D02*
Y154430D01*
X1142224Y148032D02*
Y157087D01*
X1137894Y148032D02*
Y157087D01*
X1142224D01*
X1137894Y148032D02*
X1142224D01*
X958268Y152560D02*
X962008D01*
X960138Y150690D02*
Y154430D01*
X962303Y148032D02*
Y157087D01*
X957973Y148032D02*
Y157087D01*
X962303D01*
X957973Y148032D02*
X962303D01*
X808366Y129921D02*
X812106D01*
X810236Y128051D02*
Y131791D01*
X808071Y125394D02*
Y134449D01*
X812401Y125394D02*
Y134449D01*
X808071Y125394D02*
X812401D01*
X808071Y134449D02*
X812401D01*
X778346Y152560D02*
X782087D01*
X780217Y150690D02*
Y154430D01*
X782382Y148032D02*
Y157087D01*
X778051Y148032D02*
Y157087D01*
X782382D01*
X778051Y148032D02*
X782382D01*
X628445Y129921D02*
X632185D01*
X630315Y128051D02*
Y131791D01*
X628150Y125394D02*
Y134449D01*
X632480Y125394D02*
Y134449D01*
X628150Y125394D02*
X632480D01*
X628150Y134449D02*
X632480D01*
X598425Y152560D02*
X602165D01*
X600295Y150690D02*
Y154430D01*
X602460Y148032D02*
Y157087D01*
X598130Y148032D02*
Y157087D01*
X602460D01*
X598130Y148032D02*
X602460D01*
X448524Y129921D02*
X452264D01*
X450394Y128051D02*
Y131791D01*
X448228Y125394D02*
Y134449D01*
X452559Y125394D02*
Y134449D01*
X448228Y125394D02*
X452559D01*
X448228Y134449D02*
X452559D01*
X418504Y152560D02*
X422244D01*
X420374Y150690D02*
Y154430D01*
X422540Y148032D02*
Y157087D01*
X418209Y148032D02*
Y157087D01*
X422540D01*
X418209Y148032D02*
X422540D01*
X268602Y129921D02*
X272342D01*
X270472Y128051D02*
Y131791D01*
X268307Y125394D02*
Y134449D01*
X272638Y125394D02*
Y134449D01*
X268307Y125394D02*
X272638D01*
X268307Y134449D02*
X272638D01*
X1503937Y152560D02*
X1507677D01*
X1505807Y150690D02*
Y154430D01*
X1507972Y148032D02*
Y157087D01*
X1503642Y148032D02*
Y157087D01*
X1507972D01*
X1503642Y148032D02*
X1507972D01*
X1342224Y129921D02*
X1345965D01*
X1344095Y128051D02*
Y131791D01*
X1341929Y125394D02*
Y134449D01*
X1346260Y125394D02*
Y134449D01*
X1341929Y125394D02*
X1346260D01*
X1341929Y134449D02*
X1346260D01*
X1324016Y152560D02*
X1327756D01*
X1325886Y150690D02*
Y154430D01*
X1328051Y148032D02*
Y157087D01*
X1323721Y148032D02*
Y157087D01*
X1328051D01*
X1323721Y148032D02*
X1328051D01*
X1162303Y129921D02*
X1166044D01*
X1164173Y128051D02*
Y131791D01*
X1162008Y125394D02*
Y134449D01*
X1166339Y125394D02*
Y134449D01*
X1162008Y125394D02*
X1166339D01*
X1162008Y134449D02*
X1166339D01*
X1144095Y152560D02*
X1147835D01*
X1145965Y150690D02*
Y154430D01*
X1148130Y148032D02*
Y157087D01*
X1143799Y148032D02*
Y157087D01*
X1148130D01*
X1143799Y148032D02*
X1148130D01*
X964173Y152560D02*
X967914D01*
X966043Y150690D02*
Y154430D01*
X968209Y148032D02*
Y157087D01*
X963878Y148032D02*
Y157087D01*
X968209D01*
X963878Y148032D02*
X968209D01*
X802461Y129921D02*
X806201D01*
X804331Y128051D02*
Y131791D01*
X802166Y125394D02*
Y134449D01*
X806496Y125394D02*
Y134449D01*
X802166Y125394D02*
X806496D01*
X802166Y134449D02*
X806496D01*
X784252Y152560D02*
X787992D01*
X786122Y150690D02*
Y154430D01*
X788287Y148032D02*
Y157087D01*
X783957Y148032D02*
Y157087D01*
X788287D01*
X783957Y148032D02*
X788287D01*
X622539Y129921D02*
X626280D01*
X624409Y128051D02*
Y131791D01*
X622244Y125394D02*
Y134449D01*
X626575Y125394D02*
Y134449D01*
X622244Y125394D02*
X626575D01*
X622244Y134449D02*
X626575D01*
X604331Y152560D02*
X608071D01*
X606201Y150690D02*
Y154430D01*
X608366Y148032D02*
Y157087D01*
X604036Y148032D02*
Y157087D01*
X608366D01*
X604036Y148032D02*
X608366D01*
X442618Y129921D02*
X446358D01*
X444488Y128051D02*
Y131791D01*
X442323Y125394D02*
Y134449D01*
X446654Y125394D02*
Y134449D01*
X442323Y125394D02*
X446654D01*
X442323Y134449D02*
X446654D01*
X424409Y152560D02*
X428150D01*
X426280Y150690D02*
Y154430D01*
X428445Y148032D02*
Y157087D01*
X424114Y148032D02*
Y157087D01*
X428445D01*
X424114Y148032D02*
X428445D01*
X262697Y129921D02*
X266437D01*
X264567Y128051D02*
Y131791D01*
X262402Y125394D02*
Y134449D01*
X266733Y125394D02*
Y134449D01*
X262402Y125394D02*
X266733D01*
X262402Y134449D02*
X266733D01*
X982087D02*
X986417D01*
X982087Y125394D02*
X986417D01*
Y134449D01*
X982087Y125394D02*
Y134449D01*
X984252Y128051D02*
Y131791D01*
X982382Y129921D02*
X986122D01*
X987992Y134449D02*
X992323D01*
X987992Y125394D02*
X992323D01*
Y134449D01*
X987992Y125394D02*
Y134449D01*
X990158Y128051D02*
Y131791D01*
X988287Y129921D02*
X992027D01*
X993898Y134449D02*
X998228D01*
X993898Y125394D02*
X998228D01*
Y134449D01*
X993898Y125394D02*
Y134449D01*
X996063Y128051D02*
Y131791D01*
X994193Y129921D02*
X997933D01*
D21*
X1150059Y4371D02*
Y277993D01*
X1070138Y4371D02*
X1150059D01*
X1070138D02*
Y277993D01*
X1150059D01*
X430374Y4371D02*
Y277993D01*
X350453Y4371D02*
X430374D01*
X350453D02*
Y277993D01*
X430374D01*
X790216Y4371D02*
Y277993D01*
X710295Y4371D02*
X790216D01*
X710295D02*
Y277993D01*
X790216D01*
X160473Y4370D02*
Y277992D01*
X80552Y4370D02*
X160473D01*
X80552Y277992D02*
X160473D01*
X80552Y4370D02*
Y277992D01*
X250452Y4371D02*
Y277993D01*
X170531Y4371D02*
X250452D01*
X170531D02*
Y277993D01*
X250452D01*
X1429980D02*
X1509901D01*
X1429980Y4371D02*
Y277993D01*
Y4371D02*
X1509901D01*
Y277993D01*
X1340000Y4370D02*
X1419921D01*
Y277992D01*
X1340000D02*
X1419921D01*
X1340000Y4370D02*
Y277992D01*
X1250059Y277993D02*
X1329980D01*
X1250059Y4371D02*
Y277993D01*
Y4371D02*
X1329980D01*
Y277993D01*
X1160079Y4370D02*
X1240000D01*
Y277992D01*
X1160079D02*
X1240000D01*
X1160079Y4370D02*
Y277992D01*
X980158Y4370D02*
X1060079D01*
Y277992D01*
X980158D02*
X1060079D01*
X980158Y4370D02*
Y277992D01*
X890217Y277993D02*
X970138D01*
X890217Y4371D02*
Y277993D01*
Y4371D02*
X970138D01*
Y277993D01*
X800237Y4370D02*
X880158D01*
Y277992D01*
X800237D02*
X880158D01*
X800237Y4370D02*
Y277992D01*
X620315Y4370D02*
X700236D01*
Y277992D01*
X620315D02*
X700236D01*
X620315Y4370D02*
Y277992D01*
X530374Y277993D02*
X610295D01*
X530374Y4371D02*
Y277993D01*
Y4371D02*
X610295D01*
Y277993D01*
X440394Y4370D02*
X520315D01*
Y277992D01*
X440394D02*
X520315D01*
X440394Y4370D02*
Y277992D01*
X260473Y4370D02*
X340394D01*
Y277992D01*
X260473D02*
X340394D01*
X260473Y4370D02*
Y277992D01*
D22*
X184618Y157366D02*
Y191649D01*
X236729Y157366D02*
Y191649D01*
X184618Y157366D02*
X236729D01*
X184618Y191649D02*
X236729D01*
X95653Y89881D02*
X147764D01*
X95653Y124164D02*
X147764D01*
X95653Y89881D02*
Y124164D01*
X147764Y89881D02*
Y124164D01*
X1444067Y191649D02*
X1496178D01*
X1444067Y157366D02*
X1496178D01*
Y191649D01*
X1444067Y157366D02*
Y191649D01*
X1355101Y89881D02*
X1407213D01*
X1355101Y124164D02*
X1407213D01*
X1355101Y89881D02*
Y124164D01*
X1407213Y89881D02*
Y124164D01*
X1264146Y191649D02*
X1316257D01*
X1264146Y157366D02*
X1316257D01*
Y191649D01*
X1264146Y157366D02*
Y191649D01*
X1175180Y89881D02*
X1227291D01*
X1175180Y124164D02*
X1227291D01*
X1175180Y89881D02*
Y124164D01*
X1227291Y89881D02*
Y124164D01*
X1084224Y191649D02*
X1136335D01*
X1084224Y157366D02*
X1136335D01*
Y191649D01*
X1084224Y157366D02*
Y191649D01*
X904303D02*
X956414D01*
X904303Y157366D02*
X956414D01*
Y191649D01*
X904303Y157366D02*
Y191649D01*
X815338Y89881D02*
X867449D01*
X815338Y124164D02*
X867449D01*
X815338Y89881D02*
Y124164D01*
X867449Y89881D02*
Y124164D01*
X724382Y191649D02*
X776493D01*
X724382Y157366D02*
X776493D01*
Y191649D01*
X724382Y157366D02*
Y191649D01*
X635417Y89881D02*
X687528D01*
X635417Y124164D02*
X687528D01*
X635417Y89881D02*
Y124164D01*
X687528Y89881D02*
Y124164D01*
X544461Y191649D02*
X596572D01*
X544461Y157366D02*
X596572D01*
Y191649D01*
X544461Y157366D02*
Y191649D01*
X455495Y89881D02*
X507606D01*
X455495Y124164D02*
X507606D01*
X455495Y89881D02*
Y124164D01*
X507606Y89881D02*
Y124164D01*
X364539Y191649D02*
X416650D01*
X364539Y157366D02*
X416650D01*
Y191649D01*
X364539Y157366D02*
Y191649D01*
X275574Y89881D02*
X327685D01*
X275574Y124164D02*
X327685D01*
X275574Y89881D02*
Y124164D01*
X327685Y89881D02*
Y124164D01*
X1047370Y89881D02*
Y124164D01*
X995259Y89881D02*
Y124164D01*
X1047370D01*
X995259Y89881D02*
X1047370D01*
M02*
