M48
;Layer_Color=9474304
;FILE_FORMAT=2:5
INCH,LZ
;TYPE=PLATED
T1F00S00C0.00787
T2F00S00C0.04000
T3F00S00C0.04016
T4F00S00C0.07283
T5F00S00C0.07874
T6F00S00C0.19685
%
T01
X0021654Y001811
X00256Y00668
X0032037Y006811
X0038091Y0068247
X00436Y00664
X00463Y0068046
X0050593Y00679
X0054Y00684
X0052165Y0078347
X004813
X004439
X00387Y00786
X0031496Y0087795
Y0107087
X0025984Y0113386
X00321Y01222
X0039Y0124313
X00539Y01246
X005738Y0124313
X00619Y01232
X00616Y0112416
X00576Y01128
X00545
X0066929Y0115918
X0064468Y01065
X0064468Y0102362
X00644Y00985
Y00945
X0064499Y00906
Y00868
X00645Y00829
X0062106Y0078347
X0056299Y0078248
X0073889Y0080708
X0074058Y00852
X0073981Y00886
X0073889Y00932
X0074447Y0096456
X007401Y01009
X0074012Y010433
X0074058Y01089
X0084646Y0132677
X0090551
X00966Y01325
X0102362Y0135039
X0106743Y0125197
X0122441Y0125591
X0139764Y0130906
X0144685Y0127953
X0144685Y0134414
X0107087Y0089173
X0105782Y0079217
X0021654Y0077559
X001757Y0077616
X0016697Y0082677
X0011948Y0084518
X00102Y0102953
X0020472Y0102362
Y0099606
X0009055Y0118898
X002126Y01501
X0027953Y0155118
X00491Y01488
X00492Y01337
X0186024Y0148572
X019124Y0148032
Y0151575
X0182087Y0152559
X0228642Y0147442
X0234547Y0149804
X0240453
X0246358
X0264567Y0132677
X0270473
X0276521Y01325
X0282283Y0135039
X0286614Y0123459
X0302362Y0125591
X0287008Y0089173
X0285703Y0079217
X0319685Y0130906
X0324606Y0127953
X0324606Y0134414
X0365945Y0148572
X0371162Y0148032
Y0151575
X0362008Y0152559
X0408563Y0147442
X0414468Y0149804
X0420374
X0426279
X0444488Y0132677
X0450394
X0456442Y01325
X0462205Y0135039
X0466536Y0123459
X0466929Y0089173
X0465625Y0079217
X0482283Y0125591
X0499606Y0130906
X0504528Y0127953
X0504527Y0134414
X0545866Y0148572
X0551083Y0148032
Y0151575
X0541929Y0152559
X0588484Y0147442
X059439Y0149804
X0600295
X0606201
X0624409Y0132677
X0630315
X0636364Y01325
X0642126Y0135039
X0646457Y0123459
X0662205Y0125591
X0679528Y0130906
X0684449Y0127953
X0684449Y0134414
X0725787Y0148572
X0731004Y0148032
Y0151575
X072185Y0152559
X0768406Y0147442
X0774311Y0149804
X0780217
X064685Y0089173
X0645546Y0079217
X0825467
X0826772Y0089173
X0826378Y0123459
X0822047Y0135039
X0816285Y01325
X0810236Y0132677
X0804331
X0786122Y0149804
X0842126Y0125591
X0859449Y0130906
X086437Y0127953
X086437Y0134414
X0905709Y0148572
X0910925Y0148032
Y0151575
X0901772Y0152559
X0948327Y0147442
X0954232Y0149804
X0960138
X0966043
X0984252Y0132677
X0990158
X0996206Y01325
X1001968Y0135039
X1006299Y0123459
X10218Y01253
X103937Y0130906
X1044291Y0127953
X1044291Y0134414
X108563Y0148572
X1090847Y0148032
Y0151575
X1081693Y0152559
X1006693Y0089173
X1005388Y0079217
X118531
X1186614Y0089173
X118622Y0123459
X118189Y0135039
X1176128Y01325
X1170079Y0132677
X1164173
X1145965Y0149804
X1140059
X1134153
X1128248Y0147442
X1201969Y0125591
X1219291Y0130906
X1224213Y0127953
X1224212Y0134414
X1265551Y0148572
X1270768Y0148032
Y0151575
X1261614Y0152559
X1308169Y0147442
X1314075Y0149804
X131998
X1325886
X1344094Y0132677
X135
X1356049Y01325
X1361811Y0135039
X1366142Y0123459
X138189Y0125591
X1399213Y0130906
X1404134Y0127953
X1404134Y0134414
X1366535Y0089173
X1365231Y0079217
X1445472Y0148572
X1450689Y0148032
Y0151575
X1441535Y0152559
X1488091Y0147442
X1493996Y0149804
X1499902
X1505807
X1484265Y0170276
X1485925Y0186122
X1482382Y0201379
X1302461
X1306004Y0186122
X1304344Y0170276
X1332677Y0165354
X1337402Y015748
X11579Y01579
X1152756Y0165354
X1124423Y0170276
X1126083Y0186122
X1122539Y0201379
X0942618
X0946161Y0186122
X0944501Y0170276
X0972835Y0165354
X0977559Y0159449
X0797638Y0161024
X0792913Y0165354
X076458Y0170276
X076624Y0186122
X0762697Y0201379
X0582775
X0586319Y0186122
X0584659Y0170276
X0612992Y0165354
X0617717Y0162324
X0438189Y0163386
X0433071Y0165354
X0404738Y0170276
X0406398Y0186122
X0402854Y0201379
X0222933
X0226476Y0186122
X0224816Y0170276
X025315Y0165354
X0061516Y0161516
X0057776Y0161417
X005374Y0161713
X0049803Y0161516
X0045866
X0041929
X0037992
X0034154
X003189Y015843
X0026555Y0171654
X003189Y0177756
X00197Y01794
X00182Y01821
X002069Y018563
X00184Y0176083
X00106Y01775
X001Y01948
X0015764
X003189Y0195276
X00254Y02084
X0032283Y0215748
X0055512Y0215587
X0059842Y0215748
X0063976Y0203642
X0064173Y0199705
Y0195768
Y0191831
Y0187894
Y0183858
Y0179921
X0064272Y0176083
X007126Y0263386
X0076772Y0267717
X0061024
X00561Y02675
X0040945Y0262992
X0021654Y0264547
X00239Y02484
X0023622Y02401
X00235Y02309
T02
X0205413Y0103347
X0215413
X0385335
X0395335
X0565256
X0575256
X0745177
X0755177
X0925099
X0935098
X110502
X111502
X1284941
X1294941
X1464862
X1474862
X1385039Y0179016
X1375039
X1205118
X1195118
X1025197
X1015197
X0845276
X0835276
X0665354
X0655354
X0485433
X0475433
X0305512
X0295512
X0125591
X0115591
T03
X0016752Y0009154
X0026752
X0045276Y0026693
Y0036693
Y0046693
Y0056693
X0026555Y0273622
X0016555
T04
X0120551Y001689
X0130512Y004685
X0110512Y0047126
X0200512
X0220512Y004685
X0210551Y001689
X0300551
X0310512Y004685
X0290512Y0047126
X0380512
X0400512Y004685
X0390551Y001689
X0480551
X0490512Y004685
X0470512Y0047126
X0560512
X0580512Y004685
X0570551Y001689
X0660551
X0670512Y004685
X0650512Y0047126
X0740512
X0760512Y004685
X0750551Y001689
X0840551
X0850512Y004685
X0830512Y0047126
X0920512
X0930551Y001689
X0940512Y004685
X1010512Y0047126
X1030512Y004685
X1020551Y001689
X1110551
X1120512Y004685
X1100512Y0047126
X1190512
X1210512Y004685
X1200551Y001689
X1290551
X1300512Y004685
X1280512Y0047126
X1370512
X1390512Y004685
X1380551Y001689
X1470551
X1480512Y004685
X1460512Y0047126
X1460452Y0235822
X1480294
X1470452Y0265822
X1380452
X1390294Y0235822
X1370452
X1300294
X1280452
X1290452Y0265822
X1200452
X1210294Y0235822
X1190452
X1120294
X1100452
X1110452Y0265822
X1020452
X1030294Y0235822
X1010452
X0940294
X0920452
X0930452Y0265822
X0840452
X0850294Y0235822
X0830452
X0760294
X0740452
X0750452Y0265822
X0660452
X0670294Y0235822
X0650452
X0580294
X0560452
X0570452Y0265822
X0480452
X0490294Y0235822
X0470452
X0400294
X0380452
X0390452Y0265822
X0300452
X0310294Y0235822
X0290452
X0220294
X0200452
X0210452Y0265822
X0120512Y0265827
X0130354Y0235827
X0110512
T05
X00474Y00953
X00461Y01892
T06
X0120513Y0052598
X0210491Y0052599
X0300434Y0052598
X0390413Y0052599
X0480355Y0052598
X0570334Y0052599
X0660276Y0052598
X0750255Y0052599
X0840198Y0052598
X0930177Y0052599
X1020119Y0052598
X1110098Y0052599
X120004Y0052598
X1290019Y0052599
X1379961Y0052598
X146994Y0052599
Y0229765
X1379961Y0229764
X1290019Y0229765
X120004Y0229764
X1110098Y0229765
X1020119Y0229764
X0930177Y0229765
X0840198Y0229764
X0750255Y0229765
X0660276Y0229764
X0570334Y0229765
X0480355Y0229764
X0390413Y0229765
X0300434Y0229764
X0210491Y0229765
X0120513Y0229764
M30
