G04*
G04 #@! TF.GenerationSoftware,Altium Limited,Altium Designer,19.0.10 (269)*
G04*
G04 Layer_Color=65535*
%FSLAX25Y25*%
%MOIN*%
G70*
G01*
G75*
%ADD10C,0.00591*%
%ADD11C,0.00600*%
%ADD12C,0.01000*%
D10*
X48819Y223228D02*
Y229528D01*
X45669Y223228D02*
X48819D01*
X45669D02*
Y229528D01*
X48819D01*
X1533858Y191732D02*
Y198031D01*
X1537008D01*
Y191732D02*
Y198031D01*
X1533858Y191732D02*
X1537008D01*
X1394094Y154331D02*
Y160630D01*
X1390945Y154331D02*
X1394094D01*
X1390945D02*
Y160630D01*
X1394094D01*
X1352756Y191732D02*
Y198031D01*
X1355906D01*
Y191732D02*
Y198031D01*
X1352756Y191732D02*
X1355906D01*
X1212992Y154331D02*
Y160630D01*
X1209842Y154331D02*
X1212992D01*
X1209842D02*
Y160630D01*
X1212992D01*
X1171653Y191732D02*
Y198031D01*
X1174803D01*
Y191732D02*
Y198031D01*
X1171653Y191732D02*
X1174803D01*
X1031890Y154331D02*
Y160630D01*
X1028740Y154331D02*
X1031890D01*
X1028740D02*
Y160630D01*
X1031890D01*
X990551Y191732D02*
Y198031D01*
X993701D01*
Y191732D02*
Y198031D01*
X990551Y191732D02*
X993701D01*
X850787Y154331D02*
Y160630D01*
X847638Y154331D02*
X850787D01*
X847638D02*
Y160630D01*
X850787D01*
X809449Y191732D02*
Y198031D01*
X812598D01*
Y191732D02*
Y198031D01*
X809449Y191732D02*
X812598D01*
X669685Y154331D02*
Y160630D01*
X666535Y154331D02*
X669685D01*
X666535D02*
Y160630D01*
X669685D01*
X628346Y191732D02*
Y198031D01*
X631496D01*
Y191732D02*
Y198031D01*
X628346Y191732D02*
X631496D01*
X488583Y154331D02*
Y160630D01*
X485433Y154331D02*
X488583D01*
X485433D02*
Y160630D01*
X488583D01*
X447244Y191732D02*
Y198031D01*
X450394D01*
Y191732D02*
Y198031D01*
X447244Y191732D02*
X450394D01*
X307480Y154331D02*
Y160630D01*
X304331Y154331D02*
X307480D01*
X304331D02*
Y160630D01*
X307480D01*
X266142Y191732D02*
Y198031D01*
X269291D01*
Y191732D02*
Y198031D01*
X266142Y191732D02*
X269291D01*
X126378Y154331D02*
Y160630D01*
X123228Y154331D02*
X126378D01*
X123228D02*
Y160630D01*
X126378D01*
X83661Y255020D02*
X89961D01*
X83661D02*
Y258169D01*
X89961D01*
Y255020D02*
Y258169D01*
X48819Y118898D02*
Y125197D01*
X45669Y118898D02*
X48819D01*
X45669D02*
Y125197D01*
X48819D01*
X1490551Y191732D02*
Y198031D01*
X1487402Y191732D02*
X1490551D01*
X1487402D02*
Y198031D01*
X1490551D01*
X1437402Y154331D02*
Y160630D01*
X1440551D01*
Y154331D02*
Y160630D01*
X1437402Y154331D02*
X1440551D01*
X1309449Y191732D02*
Y198031D01*
X1306299Y191732D02*
X1309449D01*
X1306299D02*
Y198031D01*
X1309449D01*
X1256299Y154331D02*
Y160630D01*
X1259449D01*
Y154331D02*
Y160630D01*
X1256299Y154331D02*
X1259449D01*
X1128347Y191732D02*
Y198031D01*
X1125197Y191732D02*
X1128347D01*
X1125197D02*
Y198031D01*
X1128347D01*
X1075197Y154331D02*
Y160630D01*
X1078347D01*
Y154331D02*
Y160630D01*
X1075197Y154331D02*
X1078347D01*
X947244Y191732D02*
Y198031D01*
X944094Y191732D02*
X947244D01*
X944094D02*
Y198031D01*
X947244D01*
X894094Y154331D02*
Y160630D01*
X897244D01*
Y154331D02*
Y160630D01*
X894094Y154331D02*
X897244D01*
X766142Y191732D02*
Y198031D01*
X762992Y191732D02*
X766142D01*
X762992D02*
Y198031D01*
X766142D01*
X712992Y154331D02*
Y160630D01*
X716142D01*
Y154331D02*
Y160630D01*
X712992Y154331D02*
X716142D01*
X585039Y191732D02*
Y198031D01*
X581890Y191732D02*
X585039D01*
X581890D02*
Y198031D01*
X585039D01*
X531890Y154331D02*
Y160630D01*
X535039D01*
Y154331D02*
Y160630D01*
X531890Y154331D02*
X535039D01*
X403937Y191732D02*
Y198031D01*
X400787Y191732D02*
X403937D01*
X400787D02*
Y198031D01*
X403937D01*
X350787Y154331D02*
Y160630D01*
X353937D01*
Y154331D02*
Y160630D01*
X350787Y154331D02*
X353937D01*
X222835Y191732D02*
Y198031D01*
X219685Y191732D02*
X222835D01*
X219685D02*
Y198031D01*
X222835D01*
X169685Y154331D02*
Y160630D01*
X172835D01*
Y154331D02*
Y160630D01*
X169685Y154331D02*
X172835D01*
X83661Y151083D02*
X89961D01*
X83661D02*
Y154232D01*
X89961D01*
Y151083D02*
Y154232D01*
X1453642Y125295D02*
Y150098D01*
X1441240Y125295D02*
X1453642D01*
X1441240D02*
Y150098D01*
X1453642D01*
X1455413Y125295D02*
Y150098D01*
X1467815D01*
Y125295D02*
Y150098D01*
X1455413Y125295D02*
X1467815D01*
X1547244Y191732D02*
Y198031D01*
X1544094Y191732D02*
X1547244D01*
X1544094D02*
Y198031D01*
X1547244D01*
X1380709Y154331D02*
Y160630D01*
X1383858D01*
Y154331D02*
Y160630D01*
X1380709Y154331D02*
X1383858D01*
X1366142Y191732D02*
Y198031D01*
X1362992Y191732D02*
X1366142D01*
X1362992D02*
Y198031D01*
X1366142D01*
X1199606Y154331D02*
Y160630D01*
X1202756D01*
Y154331D02*
Y160630D01*
X1199606Y154331D02*
X1202756D01*
X1185039Y191732D02*
Y198031D01*
X1181890Y191732D02*
X1185039D01*
X1181890D02*
Y198031D01*
X1185039D01*
X1018504Y154331D02*
Y160630D01*
X1021653D01*
Y154331D02*
Y160630D01*
X1018504Y154331D02*
X1021653D01*
X1003937Y191732D02*
Y198031D01*
X1000787Y191732D02*
X1003937D01*
X1000787D02*
Y198031D01*
X1003937D01*
X837402Y154331D02*
Y160630D01*
X840551D01*
Y154331D02*
Y160630D01*
X837402Y154331D02*
X840551D01*
X822835Y191732D02*
Y198031D01*
X819685Y191732D02*
X822835D01*
X819685D02*
Y198031D01*
X822835D01*
X656299Y154331D02*
Y160630D01*
X659449D01*
Y154331D02*
Y160630D01*
X656299Y154331D02*
X659449D01*
X641732Y191732D02*
Y198031D01*
X638583Y191732D02*
X641732D01*
X638583D02*
Y198031D01*
X641732D01*
X475197Y154331D02*
Y160630D01*
X478346D01*
Y154331D02*
Y160630D01*
X475197Y154331D02*
X478346D01*
X460630Y191732D02*
Y198031D01*
X457480Y191732D02*
X460630D01*
X457480D02*
Y198031D01*
X460630D01*
X294094Y154331D02*
Y160630D01*
X297244D01*
Y154331D02*
Y160630D01*
X294094Y154331D02*
X297244D01*
X279528Y191732D02*
Y198031D01*
X276378Y191732D02*
X279528D01*
X276378D02*
Y198031D01*
X279528D01*
X112992Y154331D02*
Y160630D01*
X116142D01*
Y154331D02*
Y160630D01*
X112992Y154331D02*
X116142D01*
X1488976Y113386D02*
Y119685D01*
X1492126D01*
Y113386D02*
Y119685D01*
X1488976Y113386D02*
X1492126D01*
X1438976Y232677D02*
Y238976D01*
X1435827Y232677D02*
X1438976D01*
X1435827D02*
Y238976D01*
X1438976D01*
X1307874Y113386D02*
Y119685D01*
X1311024D01*
Y113386D02*
Y119685D01*
X1307874Y113386D02*
X1311024D01*
X1257874Y232677D02*
Y238976D01*
X1254724Y232677D02*
X1257874D01*
X1254724D02*
Y238976D01*
X1257874D01*
X1126772Y113386D02*
Y119685D01*
X1129921D01*
Y113386D02*
Y119685D01*
X1126772Y113386D02*
X1129921D01*
X1076772Y232677D02*
Y238976D01*
X1073622Y232677D02*
X1076772D01*
X1073622D02*
Y238976D01*
X1076772D01*
X945669Y113386D02*
Y119685D01*
X948819D01*
Y113386D02*
Y119685D01*
X945669Y113386D02*
X948819D01*
X895669Y232677D02*
Y238976D01*
X892520Y232677D02*
X895669D01*
X892520D02*
Y238976D01*
X895669D01*
X764567Y113386D02*
Y119685D01*
X767717D01*
Y113386D02*
Y119685D01*
X764567Y113386D02*
X767717D01*
X714567Y232677D02*
Y238976D01*
X711417Y232677D02*
X714567D01*
X711417D02*
Y238976D01*
X714567D01*
X583465Y113386D02*
Y119685D01*
X586614D01*
Y113386D02*
Y119685D01*
X583465Y113386D02*
X586614D01*
X533465Y232677D02*
Y238976D01*
X530315Y232677D02*
X533465D01*
X530315D02*
Y238976D01*
X533465D01*
X402362Y113386D02*
Y119685D01*
X405512D01*
Y113386D02*
Y119685D01*
X402362Y113386D02*
X405512D01*
X352362Y232677D02*
Y238976D01*
X349213Y232677D02*
X352362D01*
X349213D02*
Y238976D01*
X352362D01*
X221260Y113386D02*
Y119685D01*
X224409D01*
Y113386D02*
Y119685D01*
X221260Y113386D02*
X224409D01*
X171260Y232677D02*
Y238976D01*
X168110Y232677D02*
X171260D01*
X168110D02*
Y238976D01*
X171260D01*
X1496374Y148460D02*
X1521964D01*
Y126019D02*
Y148460D01*
X1496374Y126019D02*
X1521964D01*
X1496374D02*
Y148460D01*
X1405988Y203902D02*
X1431579D01*
X1405988D02*
Y226343D01*
X1431579D01*
Y203902D02*
Y226343D01*
X1315271Y148460D02*
X1340862D01*
Y126019D02*
Y148460D01*
X1315271Y126019D02*
X1340862D01*
X1315271D02*
Y148460D01*
X1224886Y203902D02*
X1250477D01*
X1224886D02*
Y226343D01*
X1250477D01*
Y203902D02*
Y226343D01*
X1134169Y148460D02*
X1159760D01*
Y126019D02*
Y148460D01*
X1134169Y126019D02*
X1159760D01*
X1134169D02*
Y148460D01*
X1043784Y203902D02*
X1069374D01*
X1043784D02*
Y226343D01*
X1069374D01*
Y203902D02*
Y226343D01*
X953067Y148460D02*
X978657D01*
Y126019D02*
Y148460D01*
X953067Y126019D02*
X978657D01*
X953067D02*
Y148460D01*
X862681Y203902D02*
X888272D01*
X862681D02*
Y226343D01*
X888272D01*
Y203902D02*
Y226343D01*
X771964Y148460D02*
X797555D01*
Y126019D02*
Y148460D01*
X771964Y126019D02*
X797555D01*
X771964D02*
Y148460D01*
X681579Y203902D02*
X707169D01*
X681579D02*
Y226343D01*
X707169D01*
Y203902D02*
Y226343D01*
X590862Y148460D02*
X616453D01*
Y126019D02*
Y148460D01*
X590862Y126019D02*
X616453D01*
X590862D02*
Y148460D01*
X500477Y203902D02*
X526067D01*
X500477D02*
Y226343D01*
X526067D01*
Y203902D02*
Y226343D01*
X409760Y148460D02*
X435350D01*
Y126019D02*
Y148460D01*
X409760Y126019D02*
X435350D01*
X409760D02*
Y148460D01*
X319374Y203902D02*
X344965D01*
X319374D02*
Y226343D01*
X344965D01*
Y203902D02*
Y226343D01*
X228657Y148460D02*
X254248D01*
Y126019D02*
Y148460D01*
X228657Y126019D02*
X254248D01*
X228657D02*
Y148460D01*
X138272Y203902D02*
X163862D01*
X138272D02*
Y226343D01*
X163862D01*
Y203902D02*
Y226343D01*
X40945Y223228D02*
Y226377D01*
Y223228D02*
X44094D01*
Y226378D01*
X1528740Y191732D02*
Y194881D01*
Y191732D02*
X1531890D01*
Y194882D01*
X1399213Y157481D02*
Y160630D01*
X1396063D02*
X1399213D01*
X1396063Y157480D02*
Y160630D01*
X1347638Y191732D02*
Y194881D01*
Y191732D02*
X1350787D01*
Y194882D01*
X1218110Y157481D02*
Y160630D01*
X1214961D02*
X1218110D01*
X1214961Y157480D02*
Y160630D01*
X1166535Y191732D02*
Y194881D01*
Y191732D02*
X1169685D01*
Y194882D01*
X1037008Y157481D02*
Y160630D01*
X1033858D02*
X1037008D01*
X1033858Y157480D02*
Y160630D01*
X985433Y191732D02*
Y194881D01*
Y191732D02*
X988583D01*
Y194882D01*
X855906Y157481D02*
Y160630D01*
X852756D02*
X855906D01*
X852756Y157480D02*
Y160630D01*
X804331Y191732D02*
Y194881D01*
Y191732D02*
X807480D01*
Y194882D01*
X674803Y157481D02*
Y160630D01*
X671654D02*
X674803D01*
X671654Y157480D02*
Y160630D01*
X623228Y191732D02*
Y194881D01*
Y191732D02*
X626378D01*
Y194882D01*
X493701Y157481D02*
Y160630D01*
X490551D02*
X493701D01*
X490551Y157480D02*
Y160630D01*
X442126Y191732D02*
Y194881D01*
Y191732D02*
X445276D01*
Y194882D01*
X312598Y157481D02*
Y160630D01*
X309449D02*
X312598D01*
X309449Y157480D02*
Y160630D01*
X261024Y191732D02*
Y194881D01*
Y191732D02*
X264173D01*
Y194882D01*
X131496Y157481D02*
Y160630D01*
X128347D02*
X131496D01*
X128347Y157480D02*
Y160630D01*
X40945Y118898D02*
Y122047D01*
Y118898D02*
X44094D01*
Y122047D01*
X1535551Y115945D02*
X1545551D01*
Y139961D01*
X1535551D02*
X1545551D01*
X1535551Y115945D02*
Y139961D01*
X1382402Y236417D02*
X1392402D01*
X1382402Y212402D02*
Y236417D01*
Y212402D02*
X1392402D01*
Y236417D01*
X1354449Y115945D02*
X1364449D01*
Y139961D01*
X1354449D02*
X1364449D01*
X1354449Y115945D02*
Y139961D01*
X1201299Y236417D02*
X1211299D01*
X1201299Y212402D02*
Y236417D01*
Y212402D02*
X1211299D01*
Y236417D01*
X1173347Y115945D02*
X1183346D01*
Y139961D01*
X1173347D02*
X1183346D01*
X1173347Y115945D02*
Y139961D01*
X1020197Y236417D02*
X1030197D01*
X1020197Y212402D02*
Y236417D01*
Y212402D02*
X1030197D01*
Y236417D01*
X992244Y115945D02*
X1002244D01*
Y139961D01*
X992244D02*
X1002244D01*
X992244Y115945D02*
Y139961D01*
X839095Y236417D02*
X849094D01*
X839095Y212402D02*
Y236417D01*
Y212402D02*
X849094D01*
Y236417D01*
X811142Y115945D02*
X821142D01*
Y139961D01*
X811142D02*
X821142D01*
X811142Y115945D02*
Y139961D01*
X657992Y236417D02*
X667992D01*
X657992Y212402D02*
Y236417D01*
Y212402D02*
X667992D01*
Y236417D01*
X630039Y115945D02*
X640039D01*
Y139961D01*
X630039D02*
X640039D01*
X630039Y115945D02*
Y139961D01*
X476890Y236417D02*
X486890D01*
X476890Y212402D02*
Y236417D01*
Y212402D02*
X486890D01*
Y236417D01*
X448937Y115945D02*
X458937D01*
Y139961D01*
X448937D02*
X458937D01*
X448937Y115945D02*
Y139961D01*
X295787Y236417D02*
X305787D01*
X295787Y212402D02*
Y236417D01*
Y212402D02*
X305787D01*
Y236417D01*
X267835Y115945D02*
X277835D01*
Y139961D01*
X267835D02*
X277835D01*
X267835Y115945D02*
Y139961D01*
X114685Y236417D02*
X124685D01*
X114685Y212402D02*
Y236417D01*
Y212402D02*
X124685D01*
Y236417D01*
X1473347Y147244D02*
X1483346D01*
X1473347Y123228D02*
Y147244D01*
Y123228D02*
X1483346D01*
Y147244D01*
X1444606Y212402D02*
X1454606D01*
Y236417D01*
X1444606D02*
X1454606D01*
X1444606Y212402D02*
Y236417D01*
X1292244Y139961D02*
X1302244D01*
X1292244Y115945D02*
Y139961D01*
Y115945D02*
X1302244D01*
Y139961D01*
X1263504Y212402D02*
X1273504D01*
Y236417D01*
X1263504D02*
X1273504D01*
X1263504Y212402D02*
Y236417D01*
X1111142Y139961D02*
X1121142D01*
X1111142Y115945D02*
Y139961D01*
Y115945D02*
X1121142D01*
Y139961D01*
X1082402Y212402D02*
X1092402D01*
Y236417D01*
X1082402D02*
X1092402D01*
X1082402Y212402D02*
Y236417D01*
X930039Y139961D02*
X940039D01*
X930039Y115945D02*
Y139961D01*
Y115945D02*
X940039D01*
Y139961D01*
X901299Y212402D02*
X911299D01*
Y236417D01*
X901299D02*
X911299D01*
X901299Y212402D02*
Y236417D01*
X748937Y139961D02*
X758937D01*
X748937Y115945D02*
Y139961D01*
Y115945D02*
X758937D01*
Y139961D01*
X720197Y212402D02*
X730197D01*
Y236417D01*
X720197D02*
X730197D01*
X720197Y212402D02*
Y236417D01*
X567835Y139961D02*
X577835D01*
X567835Y115945D02*
Y139961D01*
Y115945D02*
X577835D01*
Y139961D01*
X539094Y212402D02*
X549094D01*
Y236417D01*
X539094D02*
X549094D01*
X539094Y212402D02*
Y236417D01*
X386732Y139961D02*
X396732D01*
X386732Y115945D02*
Y139961D01*
Y115945D02*
X396732D01*
Y139961D01*
X357992Y212402D02*
X367992D01*
Y236417D01*
X357992D02*
X367992D01*
X357992Y212402D02*
Y236417D01*
X205630Y139961D02*
X215630D01*
X205630Y115945D02*
Y139961D01*
Y115945D02*
X215630D01*
Y139961D01*
X176890Y212402D02*
X186890D01*
Y236417D01*
X176890D02*
X186890D01*
X176890Y212402D02*
Y236417D01*
X1507431Y232283D02*
X1508957D01*
X1507431Y224409D02*
Y232283D01*
Y224409D02*
Y228346D01*
X1511909D01*
Y232283D01*
X1511368D02*
X1511909D01*
X1507431Y228346D02*
X1511368Y232283D01*
X1507431Y228346D02*
X1511368Y224409D01*
X1511909D01*
Y228346D01*
X1504035D02*
X1514862D01*
X1549311Y39370D02*
Y312992D01*
X1469390Y39370D02*
X1549311D01*
X1469390D02*
Y312992D01*
X1549311D01*
X1502953Y209252D02*
X1515748D01*
X1502953D02*
Y217913D01*
X1515748D01*
Y209252D02*
Y217913D01*
X1418996Y120079D02*
X1420522D01*
Y127953D01*
Y124016D02*
Y127953D01*
X1416043Y124016D02*
X1420522D01*
X1416043Y120079D02*
Y124016D01*
Y120079D02*
X1416585D01*
X1420522Y124016D01*
X1416585Y127953D02*
X1420522Y124016D01*
X1416043Y127953D02*
X1416585D01*
X1416043Y124016D02*
Y127953D01*
X1413091Y124016D02*
X1423917D01*
X1378642Y39370D02*
Y312992D01*
X1458563D01*
Y39370D02*
Y312992D01*
X1378642Y39370D02*
X1458563D01*
X1412205Y143110D02*
X1425000D01*
Y134449D02*
Y143110D01*
X1412205Y134449D02*
X1425000D01*
X1412205D02*
Y143110D01*
X1326329Y232283D02*
X1327854D01*
X1326329Y224409D02*
Y232283D01*
Y224409D02*
Y228346D01*
X1330807D01*
Y232283D01*
X1330266D02*
X1330807D01*
X1326329Y228346D02*
X1330266Y232283D01*
X1326329Y228346D02*
X1330266Y224409D01*
X1330807D01*
Y228346D01*
X1322933D02*
X1333760D01*
X1368209Y39370D02*
Y312992D01*
X1288287Y39370D02*
X1368209D01*
X1288287D02*
Y312992D01*
X1368209D01*
X1321850Y209252D02*
X1334646D01*
X1321850D02*
Y217913D01*
X1334646D01*
Y209252D02*
Y217913D01*
X1237894Y120079D02*
X1239419D01*
Y127953D01*
Y124016D02*
Y127953D01*
X1234941Y124016D02*
X1239419D01*
X1234941Y120079D02*
Y124016D01*
Y120079D02*
X1235482D01*
X1239419Y124016D01*
X1235482Y127953D02*
X1239419Y124016D01*
X1234941Y127953D02*
X1235482D01*
X1234941Y124016D02*
Y127953D01*
X1231988Y124016D02*
X1242815D01*
X1197539Y39370D02*
Y312992D01*
X1277461D01*
Y39370D02*
Y312992D01*
X1197539Y39370D02*
X1277461D01*
X1231102Y143110D02*
X1243898D01*
Y134449D02*
Y143110D01*
X1231102Y134449D02*
X1243898D01*
X1231102D02*
Y143110D01*
X1145226Y232283D02*
X1146752D01*
X1145226Y224409D02*
Y232283D01*
Y224409D02*
Y228346D01*
X1149705D01*
Y232283D01*
X1149163D02*
X1149705D01*
X1145226Y228346D02*
X1149163Y232283D01*
X1145226Y228346D02*
X1149163Y224409D01*
X1149705D01*
Y228346D01*
X1141831D02*
X1152658D01*
X1187106Y39370D02*
Y312992D01*
X1107185Y39370D02*
X1187106D01*
X1107185D02*
Y312992D01*
X1187106D01*
X1140748Y209252D02*
X1153543D01*
X1140748D02*
Y217913D01*
X1153543D01*
Y209252D02*
Y217913D01*
X1056791Y120079D02*
X1058317D01*
Y127953D01*
Y124016D02*
Y127953D01*
X1053839Y124016D02*
X1058317D01*
X1053839Y120079D02*
Y124016D01*
Y120079D02*
X1054380D01*
X1058317Y124016D01*
X1054380Y127953D02*
X1058317Y124016D01*
X1053839Y127953D02*
X1054380D01*
X1053839Y124016D02*
Y127953D01*
X1050886Y124016D02*
X1061713D01*
X1016437Y39370D02*
Y312992D01*
X1096358D01*
Y39370D02*
Y312992D01*
X1016437Y39370D02*
X1096358D01*
X1050000Y143110D02*
X1062795D01*
Y134449D02*
Y143110D01*
X1050000Y134449D02*
X1062795D01*
X1050000D02*
Y143110D01*
X964124Y232283D02*
X965650D01*
X964124Y224409D02*
Y232283D01*
Y224409D02*
Y228346D01*
X968602D01*
Y232283D01*
X968061D02*
X968602D01*
X964124Y228346D02*
X968061Y232283D01*
X964124Y228346D02*
X968061Y224409D01*
X968602D01*
Y228346D01*
X960728D02*
X971555D01*
X1006004Y39370D02*
Y312992D01*
X926083Y39370D02*
X1006004D01*
X926083D02*
Y312992D01*
X1006004D01*
X959646Y209252D02*
X972441D01*
X959646D02*
Y217913D01*
X972441D01*
Y209252D02*
Y217913D01*
X875689Y120079D02*
X877215D01*
Y127953D01*
Y124016D02*
Y127953D01*
X872736Y124016D02*
X877215D01*
X872736Y120079D02*
Y124016D01*
Y120079D02*
X873278D01*
X877215Y124016D01*
X873278Y127953D02*
X877215Y124016D01*
X872736Y127953D02*
X873278D01*
X872736Y124016D02*
Y127953D01*
X869783Y124016D02*
X880610D01*
X835335Y39370D02*
Y312992D01*
X915256D01*
Y39370D02*
Y312992D01*
X835335Y39370D02*
X915256D01*
X868898Y143110D02*
X881693D01*
Y134449D02*
Y143110D01*
X868898Y134449D02*
X881693D01*
X868898D02*
Y143110D01*
X783022Y232283D02*
X784547D01*
X783022Y224409D02*
Y232283D01*
Y224409D02*
Y228346D01*
X787500D01*
Y232283D01*
X786959D02*
X787500D01*
X783022Y228346D02*
X786959Y232283D01*
X783022Y228346D02*
X786959Y224409D01*
X787500D01*
Y228346D01*
X779626D02*
X790453D01*
X824902Y39370D02*
Y312992D01*
X744980Y39370D02*
X824902D01*
X744980D02*
Y312992D01*
X824902D01*
X778543Y209252D02*
X791339D01*
X778543D02*
Y217913D01*
X791339D01*
Y209252D02*
Y217913D01*
X694587Y120079D02*
X696112D01*
Y127953D01*
Y124016D02*
Y127953D01*
X691634Y124016D02*
X696112D01*
X691634Y120079D02*
Y124016D01*
Y120079D02*
X692175D01*
X696112Y124016D01*
X692175Y127953D02*
X696112Y124016D01*
X691634Y127953D02*
X692175D01*
X691634Y124016D02*
Y127953D01*
X688681Y124016D02*
X699508D01*
X654232Y39370D02*
Y312992D01*
X734154D01*
Y39370D02*
Y312992D01*
X654232Y39370D02*
X734154D01*
X687795Y143110D02*
X700591D01*
Y134449D02*
Y143110D01*
X687795Y134449D02*
X700591D01*
X687795D02*
Y143110D01*
X601919Y232283D02*
X603445D01*
X601919Y224409D02*
Y232283D01*
Y224409D02*
Y228346D01*
X606398D01*
Y232283D01*
X605856D02*
X606398D01*
X601919Y228346D02*
X605856Y232283D01*
X601919Y228346D02*
X605856Y224409D01*
X606398D01*
Y228346D01*
X598524D02*
X609350D01*
X643799Y39370D02*
Y312992D01*
X563878Y39370D02*
X643799D01*
X563878D02*
Y312992D01*
X643799D01*
X597441Y209252D02*
X610236D01*
X597441D02*
Y217913D01*
X610236D01*
Y209252D02*
Y217913D01*
X513484Y120079D02*
X515010D01*
Y127953D01*
Y124016D02*
Y127953D01*
X510532Y124016D02*
X515010D01*
X510532Y120079D02*
Y124016D01*
Y120079D02*
X511073D01*
X515010Y124016D01*
X511073Y127953D02*
X515010Y124016D01*
X510532Y127953D02*
X511073D01*
X510532Y124016D02*
Y127953D01*
X507579Y124016D02*
X518405D01*
X473130Y39370D02*
Y312992D01*
X553051D01*
Y39370D02*
Y312992D01*
X473130Y39370D02*
X553051D01*
X506693Y143110D02*
X519488D01*
Y134449D02*
Y143110D01*
X506693Y134449D02*
X519488D01*
X506693D02*
Y143110D01*
X420817Y232283D02*
X422342D01*
X420817Y224409D02*
Y232283D01*
Y224409D02*
Y228346D01*
X425295D01*
Y232283D01*
X424754D02*
X425295D01*
X420817Y228346D02*
X424754Y232283D01*
X420817Y228346D02*
X424754Y224409D01*
X425295D01*
Y228346D01*
X417421D02*
X428248D01*
X462697Y39370D02*
Y312992D01*
X382776Y39370D02*
X462697D01*
X382776D02*
Y312992D01*
X462697D01*
X416339Y209252D02*
X429134D01*
X416339D02*
Y217913D01*
X429134D01*
Y209252D02*
Y217913D01*
X332382Y120079D02*
X333908D01*
Y127953D01*
Y124016D02*
Y127953D01*
X329429Y124016D02*
X333908D01*
X329429Y120079D02*
Y124016D01*
Y120079D02*
X329971D01*
X333908Y124016D01*
X329971Y127953D02*
X333908Y124016D01*
X329429Y127953D02*
X329971D01*
X329429Y124016D02*
Y127953D01*
X326476Y124016D02*
X337303D01*
X292028Y39370D02*
Y312992D01*
X371949D01*
Y39370D02*
Y312992D01*
X292028Y39370D02*
X371949D01*
X325590Y143110D02*
X338386D01*
Y134449D02*
Y143110D01*
X325590Y134449D02*
X338386D01*
X325590D02*
Y143110D01*
X239715Y232283D02*
X241240D01*
X239715Y224409D02*
Y232283D01*
Y224409D02*
Y228346D01*
X244193D01*
Y232283D01*
X243652D02*
X244193D01*
X239715Y228346D02*
X243652Y232283D01*
X239715Y228346D02*
X243652Y224409D01*
X244193D01*
Y228346D01*
X236319D02*
X247146D01*
X281594Y39370D02*
Y312992D01*
X201673Y39370D02*
X281594D01*
X201673D02*
Y312992D01*
X281594D01*
X235236Y209252D02*
X248031D01*
X235236D02*
Y217913D01*
X248031D01*
Y209252D02*
Y217913D01*
X151279Y120079D02*
X152805D01*
Y127953D01*
Y124016D02*
Y127953D01*
X148327Y124016D02*
X152805D01*
X148327Y120079D02*
Y124016D01*
Y120079D02*
X148868D01*
X152805Y124016D01*
X148868Y127953D02*
X152805Y124016D01*
X148327Y127953D02*
X148868D01*
X148327Y124016D02*
Y127953D01*
X145374Y124016D02*
X156201D01*
X110925Y39370D02*
Y312992D01*
X190847D01*
Y39370D02*
Y312992D01*
X110925Y39370D02*
X190847D01*
X144488Y143110D02*
X157283D01*
Y134449D02*
Y143110D01*
X144488Y134449D02*
X157283D01*
X144488D02*
Y143110D01*
X1542126Y191732D02*
Y198031D01*
X1538976Y191732D02*
X1542126D01*
X1538976D02*
Y198031D01*
X1542126D01*
X1385827Y154331D02*
Y160630D01*
X1388976D01*
Y154331D02*
Y160630D01*
X1385827Y154331D02*
X1388976D01*
X1361024Y191732D02*
Y198031D01*
X1357874Y191732D02*
X1361024D01*
X1357874D02*
Y198031D01*
X1361024D01*
X1204724Y154331D02*
Y160630D01*
X1207874D01*
Y154331D02*
Y160630D01*
X1204724Y154331D02*
X1207874D01*
X1179921Y191732D02*
Y198031D01*
X1176772Y191732D02*
X1179921D01*
X1176772D02*
Y198031D01*
X1179921D01*
X1023622Y154331D02*
Y160630D01*
X1026772D01*
Y154331D02*
Y160630D01*
X1023622Y154331D02*
X1026772D01*
X998819Y191732D02*
Y198031D01*
X995669Y191732D02*
X998819D01*
X995669D02*
Y198031D01*
X998819D01*
X842520Y154331D02*
Y160630D01*
X845669D01*
Y154331D02*
Y160630D01*
X842520Y154331D02*
X845669D01*
X817717Y191732D02*
Y198031D01*
X814567Y191732D02*
X817717D01*
X814567D02*
Y198031D01*
X817717D01*
X661417Y154331D02*
Y160630D01*
X664567D01*
Y154331D02*
Y160630D01*
X661417Y154331D02*
X664567D01*
X636614Y191732D02*
Y198031D01*
X633465Y191732D02*
X636614D01*
X633465D02*
Y198031D01*
X636614D01*
X480315Y154331D02*
Y160630D01*
X483465D01*
Y154331D02*
Y160630D01*
X480315Y154331D02*
X483465D01*
X455512Y191732D02*
Y198031D01*
X452362Y191732D02*
X455512D01*
X452362D02*
Y198031D01*
X455512D01*
X299213Y154331D02*
Y160630D01*
X302362D01*
Y154331D02*
Y160630D01*
X299213Y154331D02*
X302362D01*
X274409Y191732D02*
Y198031D01*
X271260Y191732D02*
X274409D01*
X271260D02*
Y198031D01*
X274409D01*
X118110Y154331D02*
Y160630D01*
X121260D01*
Y154331D02*
Y160630D01*
X118110Y154331D02*
X121260D01*
X73622Y258169D02*
X79921D01*
Y255020D02*
Y258169D01*
X73622Y255020D02*
X79921D01*
X73622D02*
Y258169D01*
X73425Y154232D02*
X79724D01*
Y151083D02*
Y154232D01*
X73425Y151083D02*
X79724D01*
X73425D02*
Y154232D01*
X110925Y176181D02*
X110925Y176181D01*
X40157Y176181D02*
X110925D01*
X102362Y279528D02*
Y300492D01*
X39370Y279528D02*
X102362D01*
Y51870D02*
Y85335D01*
X39370D02*
X102362D01*
D11*
X44544Y239539D02*
Y240739D01*
X43944Y241339D01*
X41545D01*
X40945Y240739D01*
Y239539D01*
X41545Y238939D01*
X43944D01*
X44544Y239539D01*
X44445Y247146D02*
Y245946D01*
Y246546D01*
X40846D01*
Y247146D01*
Y245946D01*
X43944Y258034D02*
X44544Y258634D01*
Y259833D01*
X43944Y260433D01*
X41545D01*
X40945Y259833D01*
Y258634D01*
X41545Y258034D01*
X43944Y251636D02*
X44544Y252236D01*
Y253436D01*
X43944Y254035D01*
X43344D01*
X42744Y253436D01*
Y252236D01*
X42145Y251636D01*
X41545D01*
X40945Y252236D01*
Y253436D01*
X41545Y254035D01*
X1533858Y187992D02*
X1537457D01*
Y186192D01*
X1536857Y185593D01*
X1535658D01*
X1535058Y186192D01*
Y187992D01*
Y186792D02*
X1533858Y185593D01*
X1537457Y181994D02*
Y184393D01*
X1533858D01*
Y181994D01*
X1535658Y184393D02*
Y183193D01*
X1536857Y178395D02*
X1537457Y178995D01*
Y180194D01*
X1536857Y180794D01*
X1536257D01*
X1535658Y180194D01*
Y178995D01*
X1535058Y178395D01*
X1534458D01*
X1533858Y178995D01*
Y180194D01*
X1534458Y180794D01*
X1536857Y173596D02*
X1537457Y172997D01*
Y171797D01*
X1536857Y171197D01*
X1536257D01*
X1535658Y171797D01*
Y172397D01*
Y171797D01*
X1535058Y171197D01*
X1534458D01*
X1533858Y171797D01*
Y172997D01*
X1534458Y173596D01*
X1536857Y169998D02*
X1537457Y169398D01*
Y168198D01*
X1536857Y167598D01*
X1534458D01*
X1533858Y168198D01*
Y169398D01*
X1534458Y169998D01*
X1536857D01*
Y166399D02*
X1537457Y165799D01*
Y164599D01*
X1536857Y163999D01*
X1534458D01*
X1533858Y164599D01*
Y165799D01*
X1534458Y166399D01*
X1536857D01*
X1390945Y188189D02*
X1394544D01*
Y186390D01*
X1393944Y185790D01*
X1392744D01*
X1392144Y186390D01*
Y188189D01*
Y186989D02*
X1390945Y185790D01*
X1394544Y182191D02*
Y184590D01*
X1390945D01*
Y182191D01*
X1392744Y184590D02*
Y183390D01*
X1393944Y178592D02*
X1394544Y179192D01*
Y180392D01*
X1393944Y180991D01*
X1393344D01*
X1392744Y180392D01*
Y179192D01*
X1392144Y178592D01*
X1391545D01*
X1390945Y179192D01*
Y180392D01*
X1391545Y180991D01*
X1393944Y173794D02*
X1394544Y173194D01*
Y171994D01*
X1393944Y171394D01*
X1393344D01*
X1392744Y171994D01*
Y172594D01*
Y171994D01*
X1392144Y171394D01*
X1391545D01*
X1390945Y171994D01*
Y173194D01*
X1391545Y173794D01*
X1393944Y170195D02*
X1394544Y169595D01*
Y168395D01*
X1393944Y167796D01*
X1391545D01*
X1390945Y168395D01*
Y169595D01*
X1391545Y170195D01*
X1393944D01*
Y166596D02*
X1394544Y165996D01*
Y164796D01*
X1393944Y164197D01*
X1391545D01*
X1390945Y164796D01*
Y165996D01*
X1391545Y166596D01*
X1393944D01*
X1352756Y187992D02*
X1356355D01*
Y186192D01*
X1355755Y185593D01*
X1354555D01*
X1353955Y186192D01*
Y187992D01*
Y186792D02*
X1352756Y185593D01*
X1356355Y181994D02*
Y184393D01*
X1352756D01*
Y181994D01*
X1354555Y184393D02*
Y183193D01*
X1355755Y178395D02*
X1356355Y178995D01*
Y180194D01*
X1355755Y180794D01*
X1355155D01*
X1354555Y180194D01*
Y178995D01*
X1353955Y178395D01*
X1353356D01*
X1352756Y178995D01*
Y180194D01*
X1353356Y180794D01*
X1355755Y173596D02*
X1356355Y172997D01*
Y171797D01*
X1355755Y171197D01*
X1355155D01*
X1354555Y171797D01*
Y172397D01*
Y171797D01*
X1353955Y171197D01*
X1353356D01*
X1352756Y171797D01*
Y172997D01*
X1353356Y173596D01*
X1355755Y169998D02*
X1356355Y169398D01*
Y168198D01*
X1355755Y167598D01*
X1353356D01*
X1352756Y168198D01*
Y169398D01*
X1353356Y169998D01*
X1355755D01*
Y166399D02*
X1356355Y165799D01*
Y164599D01*
X1355755Y163999D01*
X1353356D01*
X1352756Y164599D01*
Y165799D01*
X1353356Y166399D01*
X1355755D01*
X1209842Y188189D02*
X1213441D01*
Y186390D01*
X1212842Y185790D01*
X1211642D01*
X1211042Y186390D01*
Y188189D01*
Y186989D02*
X1209842Y185790D01*
X1213441Y182191D02*
Y184590D01*
X1209842D01*
Y182191D01*
X1211642Y184590D02*
Y183390D01*
X1212842Y178592D02*
X1213441Y179192D01*
Y180392D01*
X1212842Y180991D01*
X1212242D01*
X1211642Y180392D01*
Y179192D01*
X1211042Y178592D01*
X1210442D01*
X1209842Y179192D01*
Y180392D01*
X1210442Y180991D01*
X1212842Y173794D02*
X1213441Y173194D01*
Y171994D01*
X1212842Y171394D01*
X1212242D01*
X1211642Y171994D01*
Y172594D01*
Y171994D01*
X1211042Y171394D01*
X1210442D01*
X1209842Y171994D01*
Y173194D01*
X1210442Y173794D01*
X1212842Y170195D02*
X1213441Y169595D01*
Y168395D01*
X1212842Y167796D01*
X1210442D01*
X1209842Y168395D01*
Y169595D01*
X1210442Y170195D01*
X1212842D01*
Y166596D02*
X1213441Y165996D01*
Y164796D01*
X1212842Y164197D01*
X1210442D01*
X1209842Y164796D01*
Y165996D01*
X1210442Y166596D01*
X1212842D01*
X1171653Y187992D02*
X1175252D01*
Y186192D01*
X1174653Y185593D01*
X1173453D01*
X1172853Y186192D01*
Y187992D01*
Y186792D02*
X1171653Y185593D01*
X1175252Y181994D02*
Y184393D01*
X1171653D01*
Y181994D01*
X1173453Y184393D02*
Y183193D01*
X1174653Y178395D02*
X1175252Y178995D01*
Y180194D01*
X1174653Y180794D01*
X1174053D01*
X1173453Y180194D01*
Y178995D01*
X1172853Y178395D01*
X1172253D01*
X1171653Y178995D01*
Y180194D01*
X1172253Y180794D01*
X1174653Y173596D02*
X1175252Y172997D01*
Y171797D01*
X1174653Y171197D01*
X1174053D01*
X1173453Y171797D01*
Y172397D01*
Y171797D01*
X1172853Y171197D01*
X1172253D01*
X1171653Y171797D01*
Y172997D01*
X1172253Y173596D01*
X1174653Y169998D02*
X1175252Y169398D01*
Y168198D01*
X1174653Y167598D01*
X1172253D01*
X1171653Y168198D01*
Y169398D01*
X1172253Y169998D01*
X1174653D01*
Y166399D02*
X1175252Y165799D01*
Y164599D01*
X1174653Y163999D01*
X1172253D01*
X1171653Y164599D01*
Y165799D01*
X1172253Y166399D01*
X1174653D01*
X1028740Y188189D02*
X1032339D01*
Y186390D01*
X1031739Y185790D01*
X1030540D01*
X1029940Y186390D01*
Y188189D01*
Y186989D02*
X1028740Y185790D01*
X1032339Y182191D02*
Y184590D01*
X1028740D01*
Y182191D01*
X1030540Y184590D02*
Y183390D01*
X1031739Y178592D02*
X1032339Y179192D01*
Y180392D01*
X1031739Y180991D01*
X1031139D01*
X1030540Y180392D01*
Y179192D01*
X1029940Y178592D01*
X1029340D01*
X1028740Y179192D01*
Y180392D01*
X1029340Y180991D01*
X1031739Y173794D02*
X1032339Y173194D01*
Y171994D01*
X1031739Y171394D01*
X1031139D01*
X1030540Y171994D01*
Y172594D01*
Y171994D01*
X1029940Y171394D01*
X1029340D01*
X1028740Y171994D01*
Y173194D01*
X1029340Y173794D01*
X1031739Y170195D02*
X1032339Y169595D01*
Y168395D01*
X1031739Y167796D01*
X1029340D01*
X1028740Y168395D01*
Y169595D01*
X1029340Y170195D01*
X1031739D01*
Y166596D02*
X1032339Y165996D01*
Y164796D01*
X1031739Y164197D01*
X1029340D01*
X1028740Y164796D01*
Y165996D01*
X1029340Y166596D01*
X1031739D01*
X990551Y187992D02*
X994150D01*
Y186192D01*
X993550Y185593D01*
X992351D01*
X991751Y186192D01*
Y187992D01*
Y186792D02*
X990551Y185593D01*
X994150Y181994D02*
Y184393D01*
X990551D01*
Y181994D01*
X992351Y184393D02*
Y183193D01*
X993550Y178395D02*
X994150Y178995D01*
Y180194D01*
X993550Y180794D01*
X992950D01*
X992351Y180194D01*
Y178995D01*
X991751Y178395D01*
X991151D01*
X990551Y178995D01*
Y180194D01*
X991151Y180794D01*
X993550Y173596D02*
X994150Y172997D01*
Y171797D01*
X993550Y171197D01*
X992950D01*
X992351Y171797D01*
Y172397D01*
Y171797D01*
X991751Y171197D01*
X991151D01*
X990551Y171797D01*
Y172997D01*
X991151Y173596D01*
X993550Y169998D02*
X994150Y169398D01*
Y168198D01*
X993550Y167598D01*
X991151D01*
X990551Y168198D01*
Y169398D01*
X991151Y169998D01*
X993550D01*
Y166399D02*
X994150Y165799D01*
Y164599D01*
X993550Y163999D01*
X991151D01*
X990551Y164599D01*
Y165799D01*
X991151Y166399D01*
X993550D01*
X847638Y188189D02*
X851237D01*
Y186390D01*
X850637Y185790D01*
X849437D01*
X848837Y186390D01*
Y188189D01*
Y186989D02*
X847638Y185790D01*
X851237Y182191D02*
Y184590D01*
X847638D01*
Y182191D01*
X849437Y184590D02*
Y183390D01*
X850637Y178592D02*
X851237Y179192D01*
Y180392D01*
X850637Y180991D01*
X850037D01*
X849437Y180392D01*
Y179192D01*
X848837Y178592D01*
X848238D01*
X847638Y179192D01*
Y180392D01*
X848238Y180991D01*
X850637Y173794D02*
X851237Y173194D01*
Y171994D01*
X850637Y171394D01*
X850037D01*
X849437Y171994D01*
Y172594D01*
Y171994D01*
X848837Y171394D01*
X848238D01*
X847638Y171994D01*
Y173194D01*
X848238Y173794D01*
X850637Y170195D02*
X851237Y169595D01*
Y168395D01*
X850637Y167796D01*
X848238D01*
X847638Y168395D01*
Y169595D01*
X848238Y170195D01*
X850637D01*
Y166596D02*
X851237Y165996D01*
Y164796D01*
X850637Y164197D01*
X848238D01*
X847638Y164796D01*
Y165996D01*
X848238Y166596D01*
X850637D01*
X809449Y187992D02*
X813048D01*
Y186192D01*
X812448Y185593D01*
X811248D01*
X810648Y186192D01*
Y187992D01*
Y186792D02*
X809449Y185593D01*
X813048Y181994D02*
Y184393D01*
X809449D01*
Y181994D01*
X811248Y184393D02*
Y183193D01*
X812448Y178395D02*
X813048Y178995D01*
Y180194D01*
X812448Y180794D01*
X811848D01*
X811248Y180194D01*
Y178995D01*
X810648Y178395D01*
X810049D01*
X809449Y178995D01*
Y180194D01*
X810049Y180794D01*
X812448Y173596D02*
X813048Y172997D01*
Y171797D01*
X812448Y171197D01*
X811848D01*
X811248Y171797D01*
Y172397D01*
Y171797D01*
X810648Y171197D01*
X810049D01*
X809449Y171797D01*
Y172997D01*
X810049Y173596D01*
X812448Y169998D02*
X813048Y169398D01*
Y168198D01*
X812448Y167598D01*
X810049D01*
X809449Y168198D01*
Y169398D01*
X810049Y169998D01*
X812448D01*
Y166399D02*
X813048Y165799D01*
Y164599D01*
X812448Y163999D01*
X810049D01*
X809449Y164599D01*
Y165799D01*
X810049Y166399D01*
X812448D01*
X666535Y188189D02*
X670134D01*
Y186390D01*
X669534Y185790D01*
X668335D01*
X667735Y186390D01*
Y188189D01*
Y186989D02*
X666535Y185790D01*
X670134Y182191D02*
Y184590D01*
X666535D01*
Y182191D01*
X668335Y184590D02*
Y183390D01*
X669534Y178592D02*
X670134Y179192D01*
Y180392D01*
X669534Y180991D01*
X668935D01*
X668335Y180392D01*
Y179192D01*
X667735Y178592D01*
X667135D01*
X666535Y179192D01*
Y180392D01*
X667135Y180991D01*
X669534Y173794D02*
X670134Y173194D01*
Y171994D01*
X669534Y171394D01*
X668935D01*
X668335Y171994D01*
Y172594D01*
Y171994D01*
X667735Y171394D01*
X667135D01*
X666535Y171994D01*
Y173194D01*
X667135Y173794D01*
X669534Y170195D02*
X670134Y169595D01*
Y168395D01*
X669534Y167796D01*
X667135D01*
X666535Y168395D01*
Y169595D01*
X667135Y170195D01*
X669534D01*
Y166596D02*
X670134Y165996D01*
Y164796D01*
X669534Y164197D01*
X667135D01*
X666535Y164796D01*
Y165996D01*
X667135Y166596D01*
X669534D01*
X628346Y187992D02*
X631945D01*
Y186192D01*
X631346Y185593D01*
X630146D01*
X629546Y186192D01*
Y187992D01*
Y186792D02*
X628346Y185593D01*
X631945Y181994D02*
Y184393D01*
X628346D01*
Y181994D01*
X630146Y184393D02*
Y183193D01*
X631346Y178395D02*
X631945Y178995D01*
Y180194D01*
X631346Y180794D01*
X630746D01*
X630146Y180194D01*
Y178995D01*
X629546Y178395D01*
X628946D01*
X628346Y178995D01*
Y180194D01*
X628946Y180794D01*
X631346Y173596D02*
X631945Y172997D01*
Y171797D01*
X631346Y171197D01*
X630746D01*
X630146Y171797D01*
Y172397D01*
Y171797D01*
X629546Y171197D01*
X628946D01*
X628346Y171797D01*
Y172997D01*
X628946Y173596D01*
X631346Y169998D02*
X631945Y169398D01*
Y168198D01*
X631346Y167598D01*
X628946D01*
X628346Y168198D01*
Y169398D01*
X628946Y169998D01*
X631346D01*
Y166399D02*
X631945Y165799D01*
Y164599D01*
X631346Y163999D01*
X628946D01*
X628346Y164599D01*
Y165799D01*
X628946Y166399D01*
X631346D01*
X485433Y188189D02*
X489032D01*
Y186390D01*
X488432Y185790D01*
X487232D01*
X486633Y186390D01*
Y188189D01*
Y186989D02*
X485433Y185790D01*
X489032Y182191D02*
Y184590D01*
X485433D01*
Y182191D01*
X487232Y184590D02*
Y183390D01*
X488432Y178592D02*
X489032Y179192D01*
Y180392D01*
X488432Y180991D01*
X487832D01*
X487232Y180392D01*
Y179192D01*
X486633Y178592D01*
X486033D01*
X485433Y179192D01*
Y180392D01*
X486033Y180991D01*
X488432Y173794D02*
X489032Y173194D01*
Y171994D01*
X488432Y171394D01*
X487832D01*
X487232Y171994D01*
Y172594D01*
Y171994D01*
X486633Y171394D01*
X486033D01*
X485433Y171994D01*
Y173194D01*
X486033Y173794D01*
X488432Y170195D02*
X489032Y169595D01*
Y168395D01*
X488432Y167796D01*
X486033D01*
X485433Y168395D01*
Y169595D01*
X486033Y170195D01*
X488432D01*
Y166596D02*
X489032Y165996D01*
Y164796D01*
X488432Y164197D01*
X486033D01*
X485433Y164796D01*
Y165996D01*
X486033Y166596D01*
X488432D01*
X447244Y187992D02*
X450843D01*
Y186192D01*
X450243Y185593D01*
X449044D01*
X448444Y186192D01*
Y187992D01*
Y186792D02*
X447244Y185593D01*
X450843Y181994D02*
Y184393D01*
X447244D01*
Y181994D01*
X449044Y184393D02*
Y183193D01*
X450243Y178395D02*
X450843Y178995D01*
Y180194D01*
X450243Y180794D01*
X449643D01*
X449044Y180194D01*
Y178995D01*
X448444Y178395D01*
X447844D01*
X447244Y178995D01*
Y180194D01*
X447844Y180794D01*
X450243Y173596D02*
X450843Y172997D01*
Y171797D01*
X450243Y171197D01*
X449643D01*
X449044Y171797D01*
Y172397D01*
Y171797D01*
X448444Y171197D01*
X447844D01*
X447244Y171797D01*
Y172997D01*
X447844Y173596D01*
X450243Y169998D02*
X450843Y169398D01*
Y168198D01*
X450243Y167598D01*
X447844D01*
X447244Y168198D01*
Y169398D01*
X447844Y169998D01*
X450243D01*
Y166399D02*
X450843Y165799D01*
Y164599D01*
X450243Y163999D01*
X447844D01*
X447244Y164599D01*
Y165799D01*
X447844Y166399D01*
X450243D01*
X304331Y188189D02*
X307930D01*
Y186390D01*
X307330Y185790D01*
X306130D01*
X305530Y186390D01*
Y188189D01*
Y186989D02*
X304331Y185790D01*
X307930Y182191D02*
Y184590D01*
X304331D01*
Y182191D01*
X306130Y184590D02*
Y183390D01*
X307330Y178592D02*
X307930Y179192D01*
Y180392D01*
X307330Y180991D01*
X306730D01*
X306130Y180392D01*
Y179192D01*
X305530Y178592D01*
X304930D01*
X304331Y179192D01*
Y180392D01*
X304930Y180991D01*
X307330Y173794D02*
X307930Y173194D01*
Y171994D01*
X307330Y171394D01*
X306730D01*
X306130Y171994D01*
Y172594D01*
Y171994D01*
X305530Y171394D01*
X304930D01*
X304331Y171994D01*
Y173194D01*
X304930Y173794D01*
X307330Y170195D02*
X307930Y169595D01*
Y168395D01*
X307330Y167796D01*
X304930D01*
X304331Y168395D01*
Y169595D01*
X304930Y170195D01*
X307330D01*
Y166596D02*
X307930Y165996D01*
Y164796D01*
X307330Y164197D01*
X304930D01*
X304331Y164796D01*
Y165996D01*
X304930Y166596D01*
X307330D01*
X266142Y187992D02*
X269741D01*
Y186192D01*
X269141Y185593D01*
X267941D01*
X267341Y186192D01*
Y187992D01*
Y186792D02*
X266142Y185593D01*
X269741Y181994D02*
Y184393D01*
X266142D01*
Y181994D01*
X267941Y184393D02*
Y183193D01*
X269141Y178395D02*
X269741Y178995D01*
Y180194D01*
X269141Y180794D01*
X268541D01*
X267941Y180194D01*
Y178995D01*
X267341Y178395D01*
X266741D01*
X266142Y178995D01*
Y180194D01*
X266741Y180794D01*
X269141Y173596D02*
X269741Y172997D01*
Y171797D01*
X269141Y171197D01*
X268541D01*
X267941Y171797D01*
Y172397D01*
Y171797D01*
X267341Y171197D01*
X266741D01*
X266142Y171797D01*
Y172997D01*
X266741Y173596D01*
X269141Y169998D02*
X269741Y169398D01*
Y168198D01*
X269141Y167598D01*
X266741D01*
X266142Y168198D01*
Y169398D01*
X266741Y169998D01*
X269141D01*
Y166399D02*
X269741Y165799D01*
Y164599D01*
X269141Y163999D01*
X266741D01*
X266142Y164599D01*
Y165799D01*
X266741Y166399D01*
X269141D01*
X123228Y188189D02*
X126827D01*
Y186390D01*
X126227Y185790D01*
X125028D01*
X124428Y186390D01*
Y188189D01*
Y186989D02*
X123228Y185790D01*
X126827Y182191D02*
Y184590D01*
X123228D01*
Y182191D01*
X125028Y184590D02*
Y183390D01*
X126227Y178592D02*
X126827Y179192D01*
Y180392D01*
X126227Y180991D01*
X125628D01*
X125028Y180392D01*
Y179192D01*
X124428Y178592D01*
X123828D01*
X123228Y179192D01*
Y180392D01*
X123828Y180991D01*
X126227Y173794D02*
X126827Y173194D01*
Y171994D01*
X126227Y171394D01*
X125628D01*
X125028Y171994D01*
Y172594D01*
Y171994D01*
X124428Y171394D01*
X123828D01*
X123228Y171994D01*
Y173194D01*
X123828Y173794D01*
X126227Y170195D02*
X126827Y169595D01*
Y168395D01*
X126227Y167796D01*
X123828D01*
X123228Y168395D01*
Y169595D01*
X123828Y170195D01*
X126227D01*
Y166596D02*
X126827Y165996D01*
Y164796D01*
X126227Y164197D01*
X123828D01*
X123228Y164796D01*
Y165996D01*
X123828Y166596D01*
X126227D01*
X1487402Y187992D02*
X1491000D01*
Y186192D01*
X1490401Y185593D01*
X1489201D01*
X1488601Y186192D01*
Y187992D01*
Y186792D02*
X1487402Y185593D01*
X1491000Y181994D02*
Y184393D01*
X1487402D01*
Y181994D01*
X1489201Y184393D02*
Y183193D01*
X1490401Y178395D02*
X1491000Y178995D01*
Y180194D01*
X1490401Y180794D01*
X1489801D01*
X1489201Y180194D01*
Y178995D01*
X1488601Y178395D01*
X1488001D01*
X1487402Y178995D01*
Y180194D01*
X1488001Y180794D01*
X1487402Y171197D02*
Y173596D01*
X1489801Y171197D01*
X1490401D01*
X1491000Y171797D01*
Y172997D01*
X1490401Y173596D01*
X1491000Y169998D02*
X1487402D01*
X1488601D01*
X1491000Y167598D01*
X1489201Y169398D01*
X1487402Y167598D01*
X1437402Y187992D02*
X1441000D01*
Y186192D01*
X1440401Y185593D01*
X1439201D01*
X1438601Y186192D01*
Y187992D01*
Y186792D02*
X1437402Y185593D01*
X1441000Y181994D02*
Y184393D01*
X1437402D01*
Y181994D01*
X1439201Y184393D02*
Y183193D01*
X1440401Y178395D02*
X1441000Y178995D01*
Y180194D01*
X1440401Y180794D01*
X1439801D01*
X1439201Y180194D01*
Y178995D01*
X1438601Y178395D01*
X1438001D01*
X1437402Y178995D01*
Y180194D01*
X1438001Y180794D01*
X1437402Y171197D02*
Y173596D01*
X1439801Y171197D01*
X1440401D01*
X1441000Y171797D01*
Y172997D01*
X1440401Y173596D01*
X1441000Y169998D02*
X1437402D01*
X1438601D01*
X1441000Y167598D01*
X1439201Y169398D01*
X1437402Y167598D01*
X1306299Y187992D02*
X1309898D01*
Y186192D01*
X1309298Y185593D01*
X1308099D01*
X1307499Y186192D01*
Y187992D01*
Y186792D02*
X1306299Y185593D01*
X1309898Y181994D02*
Y184393D01*
X1306299D01*
Y181994D01*
X1308099Y184393D02*
Y183193D01*
X1309298Y178395D02*
X1309898Y178995D01*
Y180194D01*
X1309298Y180794D01*
X1308698D01*
X1308099Y180194D01*
Y178995D01*
X1307499Y178395D01*
X1306899D01*
X1306299Y178995D01*
Y180194D01*
X1306899Y180794D01*
X1306299Y171197D02*
Y173596D01*
X1308698Y171197D01*
X1309298D01*
X1309898Y171797D01*
Y172997D01*
X1309298Y173596D01*
X1309898Y169998D02*
X1306299D01*
X1307499D01*
X1309898Y167598D01*
X1308099Y169398D01*
X1306299Y167598D01*
X1256299Y187992D02*
X1259898D01*
Y186192D01*
X1259298Y185593D01*
X1258099D01*
X1257499Y186192D01*
Y187992D01*
Y186792D02*
X1256299Y185593D01*
X1259898Y181994D02*
Y184393D01*
X1256299D01*
Y181994D01*
X1258099Y184393D02*
Y183193D01*
X1259298Y178395D02*
X1259898Y178995D01*
Y180194D01*
X1259298Y180794D01*
X1258698D01*
X1258099Y180194D01*
Y178995D01*
X1257499Y178395D01*
X1256899D01*
X1256299Y178995D01*
Y180194D01*
X1256899Y180794D01*
X1256299Y171197D02*
Y173596D01*
X1258698Y171197D01*
X1259298D01*
X1259898Y171797D01*
Y172997D01*
X1259298Y173596D01*
X1259898Y169998D02*
X1256299D01*
X1257499D01*
X1259898Y167598D01*
X1258099Y169398D01*
X1256299Y167598D01*
X1125197Y187992D02*
X1128796D01*
Y186192D01*
X1128196Y185593D01*
X1126996D01*
X1126396Y186192D01*
Y187992D01*
Y186792D02*
X1125197Y185593D01*
X1128796Y181994D02*
Y184393D01*
X1125197D01*
Y181994D01*
X1126996Y184393D02*
Y183193D01*
X1128196Y178395D02*
X1128796Y178995D01*
Y180194D01*
X1128196Y180794D01*
X1127596D01*
X1126996Y180194D01*
Y178995D01*
X1126396Y178395D01*
X1125797D01*
X1125197Y178995D01*
Y180194D01*
X1125797Y180794D01*
X1125197Y171197D02*
Y173596D01*
X1127596Y171197D01*
X1128196D01*
X1128796Y171797D01*
Y172997D01*
X1128196Y173596D01*
X1128796Y169998D02*
X1125197D01*
X1126396D01*
X1128796Y167598D01*
X1126996Y169398D01*
X1125197Y167598D01*
X1075197Y187992D02*
X1078796D01*
Y186192D01*
X1078196Y185593D01*
X1076996D01*
X1076396Y186192D01*
Y187992D01*
Y186792D02*
X1075197Y185593D01*
X1078796Y181994D02*
Y184393D01*
X1075197D01*
Y181994D01*
X1076996Y184393D02*
Y183193D01*
X1078196Y178395D02*
X1078796Y178995D01*
Y180194D01*
X1078196Y180794D01*
X1077596D01*
X1076996Y180194D01*
Y178995D01*
X1076396Y178395D01*
X1075797D01*
X1075197Y178995D01*
Y180194D01*
X1075797Y180794D01*
X1075197Y171197D02*
Y173596D01*
X1077596Y171197D01*
X1078196D01*
X1078796Y171797D01*
Y172997D01*
X1078196Y173596D01*
X1078796Y169998D02*
X1075197D01*
X1076396D01*
X1078796Y167598D01*
X1076996Y169398D01*
X1075197Y167598D01*
X944094Y187992D02*
X947693D01*
Y186192D01*
X947093Y185593D01*
X945894D01*
X945294Y186192D01*
Y187992D01*
Y186792D02*
X944094Y185593D01*
X947693Y181994D02*
Y184393D01*
X944094D01*
Y181994D01*
X945894Y184393D02*
Y183193D01*
X947093Y178395D02*
X947693Y178995D01*
Y180194D01*
X947093Y180794D01*
X946494D01*
X945894Y180194D01*
Y178995D01*
X945294Y178395D01*
X944694D01*
X944094Y178995D01*
Y180194D01*
X944694Y180794D01*
X944094Y171197D02*
Y173596D01*
X946494Y171197D01*
X947093D01*
X947693Y171797D01*
Y172997D01*
X947093Y173596D01*
X947693Y169998D02*
X944094D01*
X945294D01*
X947693Y167598D01*
X945894Y169398D01*
X944094Y167598D01*
X894094Y187992D02*
X897693D01*
Y186192D01*
X897093Y185593D01*
X895894D01*
X895294Y186192D01*
Y187992D01*
Y186792D02*
X894094Y185593D01*
X897693Y181994D02*
Y184393D01*
X894094D01*
Y181994D01*
X895894Y184393D02*
Y183193D01*
X897093Y178395D02*
X897693Y178995D01*
Y180194D01*
X897093Y180794D01*
X896494D01*
X895894Y180194D01*
Y178995D01*
X895294Y178395D01*
X894694D01*
X894094Y178995D01*
Y180194D01*
X894694Y180794D01*
X894094Y171197D02*
Y173596D01*
X896494Y171197D01*
X897093D01*
X897693Y171797D01*
Y172997D01*
X897093Y173596D01*
X897693Y169998D02*
X894094D01*
X895294D01*
X897693Y167598D01*
X895894Y169398D01*
X894094Y167598D01*
X762992Y187992D02*
X766591D01*
Y186192D01*
X765991Y185593D01*
X764791D01*
X764192Y186192D01*
Y187992D01*
Y186792D02*
X762992Y185593D01*
X766591Y181994D02*
Y184393D01*
X762992D01*
Y181994D01*
X764791Y184393D02*
Y183193D01*
X765991Y178395D02*
X766591Y178995D01*
Y180194D01*
X765991Y180794D01*
X765391D01*
X764791Y180194D01*
Y178995D01*
X764192Y178395D01*
X763592D01*
X762992Y178995D01*
Y180194D01*
X763592Y180794D01*
X762992Y171197D02*
Y173596D01*
X765391Y171197D01*
X765991D01*
X766591Y171797D01*
Y172997D01*
X765991Y173596D01*
X766591Y169998D02*
X762992D01*
X764192D01*
X766591Y167598D01*
X764791Y169398D01*
X762992Y167598D01*
X712992Y187992D02*
X716591D01*
Y186192D01*
X715991Y185593D01*
X714792D01*
X714192Y186192D01*
Y187992D01*
Y186792D02*
X712992Y185593D01*
X716591Y181994D02*
Y184393D01*
X712992D01*
Y181994D01*
X714792Y184393D02*
Y183193D01*
X715991Y178395D02*
X716591Y178995D01*
Y180194D01*
X715991Y180794D01*
X715391D01*
X714792Y180194D01*
Y178995D01*
X714192Y178395D01*
X713592D01*
X712992Y178995D01*
Y180194D01*
X713592Y180794D01*
X712992Y171197D02*
Y173596D01*
X715391Y171197D01*
X715991D01*
X716591Y171797D01*
Y172997D01*
X715991Y173596D01*
X716591Y169998D02*
X712992D01*
X714192D01*
X716591Y167598D01*
X714792Y169398D01*
X712992Y167598D01*
X581890Y187992D02*
X585489D01*
Y186192D01*
X584889Y185593D01*
X583689D01*
X583089Y186192D01*
Y187992D01*
Y186792D02*
X581890Y185593D01*
X585489Y181994D02*
Y184393D01*
X581890D01*
Y181994D01*
X583689Y184393D02*
Y183193D01*
X584889Y178395D02*
X585489Y178995D01*
Y180194D01*
X584889Y180794D01*
X584289D01*
X583689Y180194D01*
Y178995D01*
X583089Y178395D01*
X582490D01*
X581890Y178995D01*
Y180194D01*
X582490Y180794D01*
X581890Y171197D02*
Y173596D01*
X584289Y171197D01*
X584889D01*
X585489Y171797D01*
Y172997D01*
X584889Y173596D01*
X585489Y169998D02*
X581890D01*
X583089D01*
X585489Y167598D01*
X583689Y169398D01*
X581890Y167598D01*
X531890Y187992D02*
X535489D01*
Y186192D01*
X534889Y185593D01*
X533689D01*
X533089Y186192D01*
Y187992D01*
Y186792D02*
X531890Y185593D01*
X535489Y181994D02*
Y184393D01*
X531890D01*
Y181994D01*
X533689Y184393D02*
Y183193D01*
X534889Y178395D02*
X535489Y178995D01*
Y180194D01*
X534889Y180794D01*
X534289D01*
X533689Y180194D01*
Y178995D01*
X533089Y178395D01*
X532490D01*
X531890Y178995D01*
Y180194D01*
X532490Y180794D01*
X531890Y171197D02*
Y173596D01*
X534289Y171197D01*
X534889D01*
X535489Y171797D01*
Y172997D01*
X534889Y173596D01*
X535489Y169998D02*
X531890D01*
X533089D01*
X535489Y167598D01*
X533689Y169398D01*
X531890Y167598D01*
X400787Y187992D02*
X404386D01*
Y186192D01*
X403786Y185593D01*
X402587D01*
X401987Y186192D01*
Y187992D01*
Y186792D02*
X400787Y185593D01*
X404386Y181994D02*
Y184393D01*
X400787D01*
Y181994D01*
X402587Y184393D02*
Y183193D01*
X403786Y178395D02*
X404386Y178995D01*
Y180194D01*
X403786Y180794D01*
X403187D01*
X402587Y180194D01*
Y178995D01*
X401987Y178395D01*
X401387D01*
X400787Y178995D01*
Y180194D01*
X401387Y180794D01*
X400787Y171197D02*
Y173596D01*
X403187Y171197D01*
X403786D01*
X404386Y171797D01*
Y172997D01*
X403786Y173596D01*
X404386Y169998D02*
X400787D01*
X401987D01*
X404386Y167598D01*
X402587Y169398D01*
X400787Y167598D01*
X350787Y187992D02*
X354386D01*
Y186192D01*
X353786Y185593D01*
X352587D01*
X351987Y186192D01*
Y187992D01*
Y186792D02*
X350787Y185593D01*
X354386Y181994D02*
Y184393D01*
X350787D01*
Y181994D01*
X352587Y184393D02*
Y183193D01*
X353786Y178395D02*
X354386Y178995D01*
Y180194D01*
X353786Y180794D01*
X353187D01*
X352587Y180194D01*
Y178995D01*
X351987Y178395D01*
X351387D01*
X350787Y178995D01*
Y180194D01*
X351387Y180794D01*
X350787Y171197D02*
Y173596D01*
X353187Y171197D01*
X353786D01*
X354386Y171797D01*
Y172997D01*
X353786Y173596D01*
X354386Y169998D02*
X350787D01*
X351987D01*
X354386Y167598D01*
X352587Y169398D01*
X350787Y167598D01*
X219685Y187992D02*
X223284D01*
Y186192D01*
X222684Y185593D01*
X221484D01*
X220885Y186192D01*
Y187992D01*
Y186792D02*
X219685Y185593D01*
X223284Y181994D02*
Y184393D01*
X219685D01*
Y181994D01*
X221484Y184393D02*
Y183193D01*
X222684Y178395D02*
X223284Y178995D01*
Y180194D01*
X222684Y180794D01*
X222084D01*
X221484Y180194D01*
Y178995D01*
X220885Y178395D01*
X220285D01*
X219685Y178995D01*
Y180194D01*
X220285Y180794D01*
X219685Y171197D02*
Y173596D01*
X222084Y171197D01*
X222684D01*
X223284Y171797D01*
Y172997D01*
X222684Y173596D01*
X223284Y169998D02*
X219685D01*
X220885D01*
X223284Y167598D01*
X221484Y169398D01*
X219685Y167598D01*
X169685Y187992D02*
X173284D01*
Y186192D01*
X172684Y185593D01*
X171484D01*
X170885Y186192D01*
Y187992D01*
Y186792D02*
X169685Y185593D01*
X173284Y181994D02*
Y184393D01*
X169685D01*
Y181994D01*
X171484Y184393D02*
Y183193D01*
X172684Y178395D02*
X173284Y178995D01*
Y180194D01*
X172684Y180794D01*
X172084D01*
X171484Y180194D01*
Y178995D01*
X170885Y178395D01*
X170285D01*
X169685Y178995D01*
Y180194D01*
X170285Y180794D01*
X169685Y171197D02*
Y173596D01*
X172084Y171197D01*
X172684D01*
X173284Y171797D01*
Y172997D01*
X172684Y173596D01*
X173284Y169998D02*
X169685D01*
X170885D01*
X173284Y167598D01*
X171484Y169398D01*
X169685Y167598D01*
X1544291Y187992D02*
X1547890D01*
Y186193D01*
X1547290Y185593D01*
X1546091D01*
X1545491Y186193D01*
Y187992D01*
Y186793D02*
X1544291Y185593D01*
X1547890Y181994D02*
Y184393D01*
X1544291D01*
Y181994D01*
X1546091Y184393D02*
Y183194D01*
X1547290Y178395D02*
X1547890Y178995D01*
Y180195D01*
X1547290Y180795D01*
X1546691D01*
X1546091Y180195D01*
Y178995D01*
X1545491Y178395D01*
X1544891D01*
X1544291Y178995D01*
Y180195D01*
X1544891Y180795D01*
X1544291Y173597D02*
Y172397D01*
Y172997D01*
X1547890D01*
X1547290Y173597D01*
Y170598D02*
X1547890Y169998D01*
Y168798D01*
X1547290Y168199D01*
X1544891D01*
X1544291Y168798D01*
Y169998D01*
X1544891Y170598D01*
X1547290D01*
Y166999D02*
X1547890Y166399D01*
Y165199D01*
X1547290Y164600D01*
X1544891D01*
X1544291Y165199D01*
Y166399D01*
X1544891Y166999D01*
X1547290D01*
X1380315Y188189D02*
X1383914D01*
Y186390D01*
X1383314Y185790D01*
X1382114D01*
X1381515Y186390D01*
Y188189D01*
Y186989D02*
X1380315Y185790D01*
X1383914Y182191D02*
Y184590D01*
X1380315D01*
Y182191D01*
X1382114Y184590D02*
Y183390D01*
X1383314Y178592D02*
X1383914Y179192D01*
Y180392D01*
X1383314Y180991D01*
X1382714D01*
X1382114Y180392D01*
Y179192D01*
X1381515Y178592D01*
X1380915D01*
X1380315Y179192D01*
Y180392D01*
X1380915Y180991D01*
X1380315Y173794D02*
Y172594D01*
Y173194D01*
X1383914D01*
X1383314Y173794D01*
Y170795D02*
X1383914Y170195D01*
Y168995D01*
X1383314Y168395D01*
X1380915D01*
X1380315Y168995D01*
Y170195D01*
X1380915Y170795D01*
X1383314D01*
Y167196D02*
X1383914Y166596D01*
Y165396D01*
X1383314Y164796D01*
X1380915D01*
X1380315Y165396D01*
Y166596D01*
X1380915Y167196D01*
X1383314D01*
X1363189Y187992D02*
X1366788D01*
Y186193D01*
X1366188Y185593D01*
X1364988D01*
X1364389Y186193D01*
Y187992D01*
Y186793D02*
X1363189Y185593D01*
X1366788Y181994D02*
Y184393D01*
X1363189D01*
Y181994D01*
X1364988Y184393D02*
Y183194D01*
X1366188Y178395D02*
X1366788Y178995D01*
Y180195D01*
X1366188Y180795D01*
X1365588D01*
X1364988Y180195D01*
Y178995D01*
X1364389Y178395D01*
X1363789D01*
X1363189Y178995D01*
Y180195D01*
X1363789Y180795D01*
X1363189Y173597D02*
Y172397D01*
Y172997D01*
X1366788D01*
X1366188Y173597D01*
Y170598D02*
X1366788Y169998D01*
Y168798D01*
X1366188Y168199D01*
X1363789D01*
X1363189Y168798D01*
Y169998D01*
X1363789Y170598D01*
X1366188D01*
Y166999D02*
X1366788Y166399D01*
Y165199D01*
X1366188Y164600D01*
X1363789D01*
X1363189Y165199D01*
Y166399D01*
X1363789Y166999D01*
X1366188D01*
X1199213Y188189D02*
X1202811D01*
Y186390D01*
X1202212Y185790D01*
X1201012D01*
X1200412Y186390D01*
Y188189D01*
Y186989D02*
X1199213Y185790D01*
X1202811Y182191D02*
Y184590D01*
X1199213D01*
Y182191D01*
X1201012Y184590D02*
Y183390D01*
X1202212Y178592D02*
X1202811Y179192D01*
Y180392D01*
X1202212Y180991D01*
X1201612D01*
X1201012Y180392D01*
Y179192D01*
X1200412Y178592D01*
X1199812D01*
X1199213Y179192D01*
Y180392D01*
X1199812Y180991D01*
X1199213Y173794D02*
Y172594D01*
Y173194D01*
X1202811D01*
X1202212Y173794D01*
Y170795D02*
X1202811Y170195D01*
Y168995D01*
X1202212Y168395D01*
X1199812D01*
X1199213Y168995D01*
Y170195D01*
X1199812Y170795D01*
X1202212D01*
Y167196D02*
X1202811Y166596D01*
Y165396D01*
X1202212Y164796D01*
X1199812D01*
X1199213Y165396D01*
Y166596D01*
X1199812Y167196D01*
X1202212D01*
X1182087Y187992D02*
X1185685D01*
Y186193D01*
X1185086Y185593D01*
X1183886D01*
X1183286Y186193D01*
Y187992D01*
Y186793D02*
X1182087Y185593D01*
X1185685Y181994D02*
Y184393D01*
X1182087D01*
Y181994D01*
X1183886Y184393D02*
Y183194D01*
X1185086Y178395D02*
X1185685Y178995D01*
Y180195D01*
X1185086Y180795D01*
X1184486D01*
X1183886Y180195D01*
Y178995D01*
X1183286Y178395D01*
X1182686D01*
X1182087Y178995D01*
Y180195D01*
X1182686Y180795D01*
X1182087Y173597D02*
Y172397D01*
Y172997D01*
X1185685D01*
X1185086Y173597D01*
Y170598D02*
X1185685Y169998D01*
Y168798D01*
X1185086Y168199D01*
X1182686D01*
X1182087Y168798D01*
Y169998D01*
X1182686Y170598D01*
X1185086D01*
Y166999D02*
X1185685Y166399D01*
Y165199D01*
X1185086Y164600D01*
X1182686D01*
X1182087Y165199D01*
Y166399D01*
X1182686Y166999D01*
X1185086D01*
X1018110Y188189D02*
X1021709D01*
Y186390D01*
X1021109Y185790D01*
X1019910D01*
X1019310Y186390D01*
Y188189D01*
Y186989D02*
X1018110Y185790D01*
X1021709Y182191D02*
Y184590D01*
X1018110D01*
Y182191D01*
X1019910Y184590D02*
Y183390D01*
X1021109Y178592D02*
X1021709Y179192D01*
Y180392D01*
X1021109Y180991D01*
X1020510D01*
X1019910Y180392D01*
Y179192D01*
X1019310Y178592D01*
X1018710D01*
X1018110Y179192D01*
Y180392D01*
X1018710Y180991D01*
X1018110Y173794D02*
Y172594D01*
Y173194D01*
X1021709D01*
X1021109Y173794D01*
Y170795D02*
X1021709Y170195D01*
Y168995D01*
X1021109Y168395D01*
X1018710D01*
X1018110Y168995D01*
Y170195D01*
X1018710Y170795D01*
X1021109D01*
Y167196D02*
X1021709Y166596D01*
Y165396D01*
X1021109Y164796D01*
X1018710D01*
X1018110Y165396D01*
Y166596D01*
X1018710Y167196D01*
X1021109D01*
X1000984Y187992D02*
X1004583D01*
Y186193D01*
X1003983Y185593D01*
X1002784D01*
X1002184Y186193D01*
Y187992D01*
Y186793D02*
X1000984Y185593D01*
X1004583Y181994D02*
Y184393D01*
X1000984D01*
Y181994D01*
X1002784Y184393D02*
Y183194D01*
X1003983Y178395D02*
X1004583Y178995D01*
Y180195D01*
X1003983Y180795D01*
X1003384D01*
X1002784Y180195D01*
Y178995D01*
X1002184Y178395D01*
X1001584D01*
X1000984Y178995D01*
Y180195D01*
X1001584Y180795D01*
X1000984Y173597D02*
Y172397D01*
Y172997D01*
X1004583D01*
X1003983Y173597D01*
Y170598D02*
X1004583Y169998D01*
Y168798D01*
X1003983Y168199D01*
X1001584D01*
X1000984Y168798D01*
Y169998D01*
X1001584Y170598D01*
X1003983D01*
Y166999D02*
X1004583Y166399D01*
Y165199D01*
X1003983Y164600D01*
X1001584D01*
X1000984Y165199D01*
Y166399D01*
X1001584Y166999D01*
X1003983D01*
X837008Y188189D02*
X840607D01*
Y186390D01*
X840007Y185790D01*
X838807D01*
X838208Y186390D01*
Y188189D01*
Y186989D02*
X837008Y185790D01*
X840607Y182191D02*
Y184590D01*
X837008D01*
Y182191D01*
X838807Y184590D02*
Y183390D01*
X840007Y178592D02*
X840607Y179192D01*
Y180392D01*
X840007Y180991D01*
X839407D01*
X838807Y180392D01*
Y179192D01*
X838208Y178592D01*
X837608D01*
X837008Y179192D01*
Y180392D01*
X837608Y180991D01*
X837008Y173794D02*
Y172594D01*
Y173194D01*
X840607D01*
X840007Y173794D01*
Y170795D02*
X840607Y170195D01*
Y168995D01*
X840007Y168395D01*
X837608D01*
X837008Y168995D01*
Y170195D01*
X837608Y170795D01*
X840007D01*
Y167196D02*
X840607Y166596D01*
Y165396D01*
X840007Y164796D01*
X837608D01*
X837008Y165396D01*
Y166596D01*
X837608Y167196D01*
X840007D01*
X819882Y187992D02*
X823481D01*
Y186193D01*
X822881Y185593D01*
X821681D01*
X821082Y186193D01*
Y187992D01*
Y186793D02*
X819882Y185593D01*
X823481Y181994D02*
Y184393D01*
X819882D01*
Y181994D01*
X821681Y184393D02*
Y183194D01*
X822881Y178395D02*
X823481Y178995D01*
Y180195D01*
X822881Y180795D01*
X822281D01*
X821681Y180195D01*
Y178995D01*
X821082Y178395D01*
X820482D01*
X819882Y178995D01*
Y180195D01*
X820482Y180795D01*
X819882Y173597D02*
Y172397D01*
Y172997D01*
X823481D01*
X822881Y173597D01*
Y170598D02*
X823481Y169998D01*
Y168798D01*
X822881Y168199D01*
X820482D01*
X819882Y168798D01*
Y169998D01*
X820482Y170598D01*
X822881D01*
Y166999D02*
X823481Y166399D01*
Y165199D01*
X822881Y164600D01*
X820482D01*
X819882Y165199D01*
Y166399D01*
X820482Y166999D01*
X822881D01*
X655905Y188189D02*
X659504D01*
Y186390D01*
X658905Y185790D01*
X657705D01*
X657105Y186390D01*
Y188189D01*
Y186989D02*
X655905Y185790D01*
X659504Y182191D02*
Y184590D01*
X655905D01*
Y182191D01*
X657705Y184590D02*
Y183390D01*
X658905Y178592D02*
X659504Y179192D01*
Y180392D01*
X658905Y180991D01*
X658305D01*
X657705Y180392D01*
Y179192D01*
X657105Y178592D01*
X656505D01*
X655905Y179192D01*
Y180392D01*
X656505Y180991D01*
X655905Y173794D02*
Y172594D01*
Y173194D01*
X659504D01*
X658905Y173794D01*
Y170795D02*
X659504Y170195D01*
Y168995D01*
X658905Y168395D01*
X656505D01*
X655905Y168995D01*
Y170195D01*
X656505Y170795D01*
X658905D01*
Y167196D02*
X659504Y166596D01*
Y165396D01*
X658905Y164796D01*
X656505D01*
X655905Y165396D01*
Y166596D01*
X656505Y167196D01*
X658905D01*
X638779Y187992D02*
X642378D01*
Y186193D01*
X641779Y185593D01*
X640579D01*
X639979Y186193D01*
Y187992D01*
Y186793D02*
X638779Y185593D01*
X642378Y181994D02*
Y184393D01*
X638779D01*
Y181994D01*
X640579Y184393D02*
Y183194D01*
X641779Y178395D02*
X642378Y178995D01*
Y180195D01*
X641779Y180795D01*
X641179D01*
X640579Y180195D01*
Y178995D01*
X639979Y178395D01*
X639379D01*
X638779Y178995D01*
Y180195D01*
X639379Y180795D01*
X638779Y173597D02*
Y172397D01*
Y172997D01*
X642378D01*
X641779Y173597D01*
Y170598D02*
X642378Y169998D01*
Y168798D01*
X641779Y168199D01*
X639379D01*
X638779Y168798D01*
Y169998D01*
X639379Y170598D01*
X641779D01*
Y166999D02*
X642378Y166399D01*
Y165199D01*
X641779Y164600D01*
X639379D01*
X638779Y165199D01*
Y166399D01*
X639379Y166999D01*
X641779D01*
X474803Y188189D02*
X478402D01*
Y186390D01*
X477802Y185790D01*
X476603D01*
X476003Y186390D01*
Y188189D01*
Y186989D02*
X474803Y185790D01*
X478402Y182191D02*
Y184590D01*
X474803D01*
Y182191D01*
X476603Y184590D02*
Y183390D01*
X477802Y178592D02*
X478402Y179192D01*
Y180392D01*
X477802Y180991D01*
X477202D01*
X476603Y180392D01*
Y179192D01*
X476003Y178592D01*
X475403D01*
X474803Y179192D01*
Y180392D01*
X475403Y180991D01*
X474803Y173794D02*
Y172594D01*
Y173194D01*
X478402D01*
X477802Y173794D01*
Y170795D02*
X478402Y170195D01*
Y168995D01*
X477802Y168395D01*
X475403D01*
X474803Y168995D01*
Y170195D01*
X475403Y170795D01*
X477802D01*
Y167196D02*
X478402Y166596D01*
Y165396D01*
X477802Y164796D01*
X475403D01*
X474803Y165396D01*
Y166596D01*
X475403Y167196D01*
X477802D01*
X457677Y187992D02*
X461276D01*
Y186193D01*
X460676Y185593D01*
X459477D01*
X458877Y186193D01*
Y187992D01*
Y186793D02*
X457677Y185593D01*
X461276Y181994D02*
Y184393D01*
X457677D01*
Y181994D01*
X459477Y184393D02*
Y183194D01*
X460676Y178395D02*
X461276Y178995D01*
Y180195D01*
X460676Y180795D01*
X460076D01*
X459477Y180195D01*
Y178995D01*
X458877Y178395D01*
X458277D01*
X457677Y178995D01*
Y180195D01*
X458277Y180795D01*
X457677Y173597D02*
Y172397D01*
Y172997D01*
X461276D01*
X460676Y173597D01*
Y170598D02*
X461276Y169998D01*
Y168798D01*
X460676Y168199D01*
X458277D01*
X457677Y168798D01*
Y169998D01*
X458277Y170598D01*
X460676D01*
Y166999D02*
X461276Y166399D01*
Y165199D01*
X460676Y164600D01*
X458277D01*
X457677Y165199D01*
Y166399D01*
X458277Y166999D01*
X460676D01*
X293701Y188189D02*
X297300D01*
Y186390D01*
X296700Y185790D01*
X295500D01*
X294900Y186390D01*
Y188189D01*
Y186989D02*
X293701Y185790D01*
X297300Y182191D02*
Y184590D01*
X293701D01*
Y182191D01*
X295500Y184590D02*
Y183390D01*
X296700Y178592D02*
X297300Y179192D01*
Y180392D01*
X296700Y180991D01*
X296100D01*
X295500Y180392D01*
Y179192D01*
X294900Y178592D01*
X294301D01*
X293701Y179192D01*
Y180392D01*
X294301Y180991D01*
X293701Y173794D02*
Y172594D01*
Y173194D01*
X297300D01*
X296700Y173794D01*
Y170795D02*
X297300Y170195D01*
Y168995D01*
X296700Y168395D01*
X294301D01*
X293701Y168995D01*
Y170195D01*
X294301Y170795D01*
X296700D01*
Y167196D02*
X297300Y166596D01*
Y165396D01*
X296700Y164796D01*
X294301D01*
X293701Y165396D01*
Y166596D01*
X294301Y167196D01*
X296700D01*
X276575Y187992D02*
X280174D01*
Y186193D01*
X279574Y185593D01*
X278374D01*
X277774Y186193D01*
Y187992D01*
Y186793D02*
X276575Y185593D01*
X280174Y181994D02*
Y184393D01*
X276575D01*
Y181994D01*
X278374Y184393D02*
Y183194D01*
X279574Y178395D02*
X280174Y178995D01*
Y180195D01*
X279574Y180795D01*
X278974D01*
X278374Y180195D01*
Y178995D01*
X277774Y178395D01*
X277175D01*
X276575Y178995D01*
Y180195D01*
X277175Y180795D01*
X276575Y173597D02*
Y172397D01*
Y172997D01*
X280174D01*
X279574Y173597D01*
Y170598D02*
X280174Y169998D01*
Y168798D01*
X279574Y168199D01*
X277175D01*
X276575Y168798D01*
Y169998D01*
X277175Y170598D01*
X279574D01*
Y166999D02*
X280174Y166399D01*
Y165199D01*
X279574Y164600D01*
X277175D01*
X276575Y165199D01*
Y166399D01*
X277175Y166999D01*
X279574D01*
X112598Y188189D02*
X116197D01*
Y186390D01*
X115597Y185790D01*
X114398D01*
X113798Y186390D01*
Y188189D01*
Y186989D02*
X112598Y185790D01*
X116197Y182191D02*
Y184590D01*
X112598D01*
Y182191D01*
X114398Y184590D02*
Y183390D01*
X115597Y178592D02*
X116197Y179192D01*
Y180392D01*
X115597Y180991D01*
X114998D01*
X114398Y180392D01*
Y179192D01*
X113798Y178592D01*
X113198D01*
X112598Y179192D01*
Y180392D01*
X113198Y180991D01*
X112598Y173794D02*
Y172594D01*
Y173194D01*
X116197D01*
X115597Y173794D01*
Y170795D02*
X116197Y170195D01*
Y168995D01*
X115597Y168395D01*
X113198D01*
X112598Y168995D01*
Y170195D01*
X113198Y170795D01*
X115597D01*
Y167196D02*
X116197Y166596D01*
Y165396D01*
X115597Y164796D01*
X113198D01*
X112598Y165396D01*
Y166596D01*
X113198Y167196D01*
X115597D01*
X1488780Y151575D02*
X1492378D01*
Y149775D01*
X1491778Y149176D01*
X1490579D01*
X1489979Y149775D01*
Y151575D01*
Y150375D02*
X1488780Y149176D01*
X1492378Y145577D02*
Y147976D01*
X1488780D01*
Y145577D01*
X1490579Y147976D02*
Y146776D01*
X1491778Y141978D02*
X1492378Y142578D01*
Y143777D01*
X1491778Y144377D01*
X1491179D01*
X1490579Y143777D01*
Y142578D01*
X1489979Y141978D01*
X1489379D01*
X1488780Y142578D01*
Y143777D01*
X1489379Y144377D01*
X1491778Y137179D02*
X1492378Y136580D01*
Y135380D01*
X1491778Y134780D01*
X1491179D01*
X1490579Y135380D01*
Y135980D01*
Y135380D01*
X1489979Y134780D01*
X1489379D01*
X1488780Y135380D01*
Y136580D01*
X1489379Y137179D01*
X1488780Y133581D02*
X1489379D01*
Y132981D01*
X1488780D01*
Y133581D01*
X1491778Y130582D02*
X1492378Y129982D01*
Y128782D01*
X1491778Y128182D01*
X1491179D01*
X1490579Y128782D01*
Y129382D01*
Y128782D01*
X1489979Y128182D01*
X1489379D01*
X1488780Y128782D01*
Y129982D01*
X1489379Y130582D01*
X1492378Y126983D02*
X1488780D01*
X1489979D01*
X1492378Y124583D01*
X1490579Y126383D01*
X1488780Y124583D01*
X1435630Y228346D02*
X1439229D01*
Y226547D01*
X1438629Y225947D01*
X1437429D01*
X1436829Y226547D01*
Y228346D01*
Y227147D02*
X1435630Y225947D01*
X1439229Y222348D02*
Y224748D01*
X1435630D01*
Y222348D01*
X1437429Y224748D02*
Y223548D01*
X1438629Y218750D02*
X1439229Y219349D01*
Y220549D01*
X1438629Y221149D01*
X1438029D01*
X1437429Y220549D01*
Y219349D01*
X1436829Y218750D01*
X1436230D01*
X1435630Y219349D01*
Y220549D01*
X1436230Y221149D01*
X1438629Y213951D02*
X1439229Y213351D01*
Y212152D01*
X1438629Y211552D01*
X1438029D01*
X1437429Y212152D01*
Y212752D01*
Y212152D01*
X1436829Y211552D01*
X1436230D01*
X1435630Y212152D01*
Y213351D01*
X1436230Y213951D01*
X1435630Y210352D02*
X1436230D01*
Y209752D01*
X1435630D01*
Y210352D01*
X1438629Y207353D02*
X1439229Y206753D01*
Y205554D01*
X1438629Y204954D01*
X1438029D01*
X1437429Y205554D01*
Y206154D01*
Y205554D01*
X1436829Y204954D01*
X1436230D01*
X1435630Y205554D01*
Y206753D01*
X1436230Y207353D01*
X1439229Y203754D02*
X1435630D01*
X1436829D01*
X1439229Y201355D01*
X1437429Y203155D01*
X1435630Y201355D01*
X1307677Y151575D02*
X1311276D01*
Y149775D01*
X1310676Y149176D01*
X1309477D01*
X1308877Y149775D01*
Y151575D01*
Y150375D02*
X1307677Y149176D01*
X1311276Y145577D02*
Y147976D01*
X1307677D01*
Y145577D01*
X1309477Y147976D02*
Y146776D01*
X1310676Y141978D02*
X1311276Y142578D01*
Y143777D01*
X1310676Y144377D01*
X1310076D01*
X1309477Y143777D01*
Y142578D01*
X1308877Y141978D01*
X1308277D01*
X1307677Y142578D01*
Y143777D01*
X1308277Y144377D01*
X1310676Y137179D02*
X1311276Y136580D01*
Y135380D01*
X1310676Y134780D01*
X1310076D01*
X1309477Y135380D01*
Y135980D01*
Y135380D01*
X1308877Y134780D01*
X1308277D01*
X1307677Y135380D01*
Y136580D01*
X1308277Y137179D01*
X1307677Y133581D02*
X1308277D01*
Y132981D01*
X1307677D01*
Y133581D01*
X1310676Y130582D02*
X1311276Y129982D01*
Y128782D01*
X1310676Y128182D01*
X1310076D01*
X1309477Y128782D01*
Y129382D01*
Y128782D01*
X1308877Y128182D01*
X1308277D01*
X1307677Y128782D01*
Y129982D01*
X1308277Y130582D01*
X1311276Y126983D02*
X1307677D01*
X1308877D01*
X1311276Y124583D01*
X1309477Y126383D01*
X1307677Y124583D01*
X1254528Y228346D02*
X1258126D01*
Y226547D01*
X1257527Y225947D01*
X1256327D01*
X1255727Y226547D01*
Y228346D01*
Y227147D02*
X1254528Y225947D01*
X1258126Y222348D02*
Y224748D01*
X1254528D01*
Y222348D01*
X1256327Y224748D02*
Y223548D01*
X1257527Y218750D02*
X1258126Y219349D01*
Y220549D01*
X1257527Y221149D01*
X1256927D01*
X1256327Y220549D01*
Y219349D01*
X1255727Y218750D01*
X1255127D01*
X1254528Y219349D01*
Y220549D01*
X1255127Y221149D01*
X1257527Y213951D02*
X1258126Y213351D01*
Y212152D01*
X1257527Y211552D01*
X1256927D01*
X1256327Y212152D01*
Y212752D01*
Y212152D01*
X1255727Y211552D01*
X1255127D01*
X1254528Y212152D01*
Y213351D01*
X1255127Y213951D01*
X1254528Y210352D02*
X1255127D01*
Y209752D01*
X1254528D01*
Y210352D01*
X1257527Y207353D02*
X1258126Y206753D01*
Y205554D01*
X1257527Y204954D01*
X1256927D01*
X1256327Y205554D01*
Y206154D01*
Y205554D01*
X1255727Y204954D01*
X1255127D01*
X1254528Y205554D01*
Y206753D01*
X1255127Y207353D01*
X1258126Y203754D02*
X1254528D01*
X1255727D01*
X1258126Y201355D01*
X1256327Y203155D01*
X1254528Y201355D01*
X1126575Y151575D02*
X1130174D01*
Y149775D01*
X1129574Y149176D01*
X1128374D01*
X1127774Y149775D01*
Y151575D01*
Y150375D02*
X1126575Y149176D01*
X1130174Y145577D02*
Y147976D01*
X1126575D01*
Y145577D01*
X1128374Y147976D02*
Y146776D01*
X1129574Y141978D02*
X1130174Y142578D01*
Y143777D01*
X1129574Y144377D01*
X1128974D01*
X1128374Y143777D01*
Y142578D01*
X1127774Y141978D01*
X1127175D01*
X1126575Y142578D01*
Y143777D01*
X1127175Y144377D01*
X1129574Y137179D02*
X1130174Y136580D01*
Y135380D01*
X1129574Y134780D01*
X1128974D01*
X1128374Y135380D01*
Y135980D01*
Y135380D01*
X1127774Y134780D01*
X1127175D01*
X1126575Y135380D01*
Y136580D01*
X1127175Y137179D01*
X1126575Y133581D02*
X1127175D01*
Y132981D01*
X1126575D01*
Y133581D01*
X1129574Y130582D02*
X1130174Y129982D01*
Y128782D01*
X1129574Y128182D01*
X1128974D01*
X1128374Y128782D01*
Y129382D01*
Y128782D01*
X1127774Y128182D01*
X1127175D01*
X1126575Y128782D01*
Y129982D01*
X1127175Y130582D01*
X1130174Y126983D02*
X1126575D01*
X1127774D01*
X1130174Y124583D01*
X1128374Y126383D01*
X1126575Y124583D01*
X1073425Y228346D02*
X1077024D01*
Y226547D01*
X1076424Y225947D01*
X1075225D01*
X1074625Y226547D01*
Y228346D01*
Y227147D02*
X1073425Y225947D01*
X1077024Y222348D02*
Y224748D01*
X1073425D01*
Y222348D01*
X1075225Y224748D02*
Y223548D01*
X1076424Y218750D02*
X1077024Y219349D01*
Y220549D01*
X1076424Y221149D01*
X1075824D01*
X1075225Y220549D01*
Y219349D01*
X1074625Y218750D01*
X1074025D01*
X1073425Y219349D01*
Y220549D01*
X1074025Y221149D01*
X1076424Y213951D02*
X1077024Y213351D01*
Y212152D01*
X1076424Y211552D01*
X1075824D01*
X1075225Y212152D01*
Y212752D01*
Y212152D01*
X1074625Y211552D01*
X1074025D01*
X1073425Y212152D01*
Y213351D01*
X1074025Y213951D01*
X1073425Y210352D02*
X1074025D01*
Y209752D01*
X1073425D01*
Y210352D01*
X1076424Y207353D02*
X1077024Y206753D01*
Y205554D01*
X1076424Y204954D01*
X1075824D01*
X1075225Y205554D01*
Y206154D01*
Y205554D01*
X1074625Y204954D01*
X1074025D01*
X1073425Y205554D01*
Y206753D01*
X1074025Y207353D01*
X1077024Y203754D02*
X1073425D01*
X1074625D01*
X1077024Y201355D01*
X1075225Y203155D01*
X1073425Y201355D01*
X945472Y151575D02*
X949071D01*
Y149775D01*
X948472Y149176D01*
X947272D01*
X946672Y149775D01*
Y151575D01*
Y150375D02*
X945472Y149176D01*
X949071Y145577D02*
Y147976D01*
X945472D01*
Y145577D01*
X947272Y147976D02*
Y146776D01*
X948472Y141978D02*
X949071Y142578D01*
Y143777D01*
X948472Y144377D01*
X947872D01*
X947272Y143777D01*
Y142578D01*
X946672Y141978D01*
X946072D01*
X945472Y142578D01*
Y143777D01*
X946072Y144377D01*
X948472Y137179D02*
X949071Y136580D01*
Y135380D01*
X948472Y134780D01*
X947872D01*
X947272Y135380D01*
Y135980D01*
Y135380D01*
X946672Y134780D01*
X946072D01*
X945472Y135380D01*
Y136580D01*
X946072Y137179D01*
X945472Y133581D02*
X946072D01*
Y132981D01*
X945472D01*
Y133581D01*
X948472Y130582D02*
X949071Y129982D01*
Y128782D01*
X948472Y128182D01*
X947872D01*
X947272Y128782D01*
Y129382D01*
Y128782D01*
X946672Y128182D01*
X946072D01*
X945472Y128782D01*
Y129982D01*
X946072Y130582D01*
X949071Y126983D02*
X945472D01*
X946672D01*
X949071Y124583D01*
X947272Y126383D01*
X945472Y124583D01*
X892323Y228346D02*
X895922D01*
Y226547D01*
X895322Y225947D01*
X894122D01*
X893522Y226547D01*
Y228346D01*
Y227147D02*
X892323Y225947D01*
X895922Y222348D02*
Y224748D01*
X892323D01*
Y222348D01*
X894122Y224748D02*
Y223548D01*
X895322Y218750D02*
X895922Y219349D01*
Y220549D01*
X895322Y221149D01*
X894722D01*
X894122Y220549D01*
Y219349D01*
X893522Y218750D01*
X892923D01*
X892323Y219349D01*
Y220549D01*
X892923Y221149D01*
X895322Y213951D02*
X895922Y213351D01*
Y212152D01*
X895322Y211552D01*
X894722D01*
X894122Y212152D01*
Y212752D01*
Y212152D01*
X893522Y211552D01*
X892923D01*
X892323Y212152D01*
Y213351D01*
X892923Y213951D01*
X892323Y210352D02*
X892923D01*
Y209752D01*
X892323D01*
Y210352D01*
X895322Y207353D02*
X895922Y206753D01*
Y205554D01*
X895322Y204954D01*
X894722D01*
X894122Y205554D01*
Y206154D01*
Y205554D01*
X893522Y204954D01*
X892923D01*
X892323Y205554D01*
Y206753D01*
X892923Y207353D01*
X895922Y203754D02*
X892323D01*
X893522D01*
X895922Y201355D01*
X894122Y203155D01*
X892323Y201355D01*
X764370Y151575D02*
X767969D01*
Y149775D01*
X767369Y149176D01*
X766170D01*
X765570Y149775D01*
Y151575D01*
Y150375D02*
X764370Y149176D01*
X767969Y145577D02*
Y147976D01*
X764370D01*
Y145577D01*
X766170Y147976D02*
Y146776D01*
X767369Y141978D02*
X767969Y142578D01*
Y143777D01*
X767369Y144377D01*
X766769D01*
X766170Y143777D01*
Y142578D01*
X765570Y141978D01*
X764970D01*
X764370Y142578D01*
Y143777D01*
X764970Y144377D01*
X767369Y137179D02*
X767969Y136580D01*
Y135380D01*
X767369Y134780D01*
X766769D01*
X766170Y135380D01*
Y135980D01*
Y135380D01*
X765570Y134780D01*
X764970D01*
X764370Y135380D01*
Y136580D01*
X764970Y137179D01*
X764370Y133581D02*
X764970D01*
Y132981D01*
X764370D01*
Y133581D01*
X767369Y130582D02*
X767969Y129982D01*
Y128782D01*
X767369Y128182D01*
X766769D01*
X766170Y128782D01*
Y129382D01*
Y128782D01*
X765570Y128182D01*
X764970D01*
X764370Y128782D01*
Y129982D01*
X764970Y130582D01*
X767969Y126983D02*
X764370D01*
X765570D01*
X767969Y124583D01*
X766170Y126383D01*
X764370Y124583D01*
X711221Y228346D02*
X714819D01*
Y226547D01*
X714220Y225947D01*
X713020D01*
X712420Y226547D01*
Y228346D01*
Y227147D02*
X711221Y225947D01*
X714819Y222348D02*
Y224748D01*
X711221D01*
Y222348D01*
X713020Y224748D02*
Y223548D01*
X714220Y218750D02*
X714819Y219349D01*
Y220549D01*
X714220Y221149D01*
X713620D01*
X713020Y220549D01*
Y219349D01*
X712420Y218750D01*
X711820D01*
X711221Y219349D01*
Y220549D01*
X711820Y221149D01*
X714220Y213951D02*
X714819Y213351D01*
Y212152D01*
X714220Y211552D01*
X713620D01*
X713020Y212152D01*
Y212752D01*
Y212152D01*
X712420Y211552D01*
X711820D01*
X711221Y212152D01*
Y213351D01*
X711820Y213951D01*
X711221Y210352D02*
X711820D01*
Y209752D01*
X711221D01*
Y210352D01*
X714220Y207353D02*
X714819Y206753D01*
Y205554D01*
X714220Y204954D01*
X713620D01*
X713020Y205554D01*
Y206154D01*
Y205554D01*
X712420Y204954D01*
X711820D01*
X711221Y205554D01*
Y206753D01*
X711820Y207353D01*
X714819Y203754D02*
X711221D01*
X712420D01*
X714819Y201355D01*
X713020Y203155D01*
X711221Y201355D01*
X583268Y151575D02*
X586867D01*
Y149775D01*
X586267Y149176D01*
X585067D01*
X584467Y149775D01*
Y151575D01*
Y150375D02*
X583268Y149176D01*
X586867Y145577D02*
Y147976D01*
X583268D01*
Y145577D01*
X585067Y147976D02*
Y146776D01*
X586267Y141978D02*
X586867Y142578D01*
Y143777D01*
X586267Y144377D01*
X585667D01*
X585067Y143777D01*
Y142578D01*
X584467Y141978D01*
X583868D01*
X583268Y142578D01*
Y143777D01*
X583868Y144377D01*
X586267Y137179D02*
X586867Y136580D01*
Y135380D01*
X586267Y134780D01*
X585667D01*
X585067Y135380D01*
Y135980D01*
Y135380D01*
X584467Y134780D01*
X583868D01*
X583268Y135380D01*
Y136580D01*
X583868Y137179D01*
X583268Y133581D02*
X583868D01*
Y132981D01*
X583268D01*
Y133581D01*
X586267Y130582D02*
X586867Y129982D01*
Y128782D01*
X586267Y128182D01*
X585667D01*
X585067Y128782D01*
Y129382D01*
Y128782D01*
X584467Y128182D01*
X583868D01*
X583268Y128782D01*
Y129982D01*
X583868Y130582D01*
X586867Y126983D02*
X583268D01*
X584467D01*
X586867Y124583D01*
X585067Y126383D01*
X583268Y124583D01*
X530118Y228346D02*
X533717D01*
Y226547D01*
X533117Y225947D01*
X531917D01*
X531318Y226547D01*
Y228346D01*
Y227147D02*
X530118Y225947D01*
X533717Y222348D02*
Y224748D01*
X530118D01*
Y222348D01*
X531917Y224748D02*
Y223548D01*
X533117Y218750D02*
X533717Y219349D01*
Y220549D01*
X533117Y221149D01*
X532517D01*
X531917Y220549D01*
Y219349D01*
X531318Y218750D01*
X530718D01*
X530118Y219349D01*
Y220549D01*
X530718Y221149D01*
X533117Y213951D02*
X533717Y213351D01*
Y212152D01*
X533117Y211552D01*
X532517D01*
X531917Y212152D01*
Y212752D01*
Y212152D01*
X531318Y211552D01*
X530718D01*
X530118Y212152D01*
Y213351D01*
X530718Y213951D01*
X530118Y210352D02*
X530718D01*
Y209752D01*
X530118D01*
Y210352D01*
X533117Y207353D02*
X533717Y206753D01*
Y205554D01*
X533117Y204954D01*
X532517D01*
X531917Y205554D01*
Y206154D01*
Y205554D01*
X531318Y204954D01*
X530718D01*
X530118Y205554D01*
Y206753D01*
X530718Y207353D01*
X533717Y203754D02*
X530118D01*
X531318D01*
X533717Y201355D01*
X531917Y203155D01*
X530118Y201355D01*
X402165Y151575D02*
X405764D01*
Y149775D01*
X405164Y149176D01*
X403965D01*
X403365Y149775D01*
Y151575D01*
Y150375D02*
X402165Y149176D01*
X405764Y145577D02*
Y147976D01*
X402165D01*
Y145577D01*
X403965Y147976D02*
Y146776D01*
X405164Y141978D02*
X405764Y142578D01*
Y143777D01*
X405164Y144377D01*
X404565D01*
X403965Y143777D01*
Y142578D01*
X403365Y141978D01*
X402765D01*
X402165Y142578D01*
Y143777D01*
X402765Y144377D01*
X405164Y137179D02*
X405764Y136580D01*
Y135380D01*
X405164Y134780D01*
X404565D01*
X403965Y135380D01*
Y135980D01*
Y135380D01*
X403365Y134780D01*
X402765D01*
X402165Y135380D01*
Y136580D01*
X402765Y137179D01*
X402165Y133581D02*
X402765D01*
Y132981D01*
X402165D01*
Y133581D01*
X405164Y130582D02*
X405764Y129982D01*
Y128782D01*
X405164Y128182D01*
X404565D01*
X403965Y128782D01*
Y129382D01*
Y128782D01*
X403365Y128182D01*
X402765D01*
X402165Y128782D01*
Y129982D01*
X402765Y130582D01*
X405764Y126983D02*
X402165D01*
X403365D01*
X405764Y124583D01*
X403965Y126383D01*
X402165Y124583D01*
X349016Y228346D02*
X352615D01*
Y226547D01*
X352015Y225947D01*
X350815D01*
X350215Y226547D01*
Y228346D01*
Y227147D02*
X349016Y225947D01*
X352615Y222348D02*
Y224748D01*
X349016D01*
Y222348D01*
X350815Y224748D02*
Y223548D01*
X352015Y218750D02*
X352615Y219349D01*
Y220549D01*
X352015Y221149D01*
X351415D01*
X350815Y220549D01*
Y219349D01*
X350215Y218750D01*
X349616D01*
X349016Y219349D01*
Y220549D01*
X349616Y221149D01*
X352015Y213951D02*
X352615Y213351D01*
Y212152D01*
X352015Y211552D01*
X351415D01*
X350815Y212152D01*
Y212752D01*
Y212152D01*
X350215Y211552D01*
X349616D01*
X349016Y212152D01*
Y213351D01*
X349616Y213951D01*
X349016Y210352D02*
X349616D01*
Y209752D01*
X349016D01*
Y210352D01*
X352015Y207353D02*
X352615Y206753D01*
Y205554D01*
X352015Y204954D01*
X351415D01*
X350815Y205554D01*
Y206154D01*
Y205554D01*
X350215Y204954D01*
X349616D01*
X349016Y205554D01*
Y206753D01*
X349616Y207353D01*
X352615Y203754D02*
X349016D01*
X350215D01*
X352615Y201355D01*
X350815Y203155D01*
X349016Y201355D01*
X221063Y151575D02*
X224662D01*
Y149775D01*
X224062Y149176D01*
X222862D01*
X222263Y149775D01*
Y151575D01*
Y150375D02*
X221063Y149176D01*
X224662Y145577D02*
Y147976D01*
X221063D01*
Y145577D01*
X222862Y147976D02*
Y146776D01*
X224062Y141978D02*
X224662Y142578D01*
Y143777D01*
X224062Y144377D01*
X223462D01*
X222862Y143777D01*
Y142578D01*
X222263Y141978D01*
X221663D01*
X221063Y142578D01*
Y143777D01*
X221663Y144377D01*
X224062Y137179D02*
X224662Y136580D01*
Y135380D01*
X224062Y134780D01*
X223462D01*
X222862Y135380D01*
Y135980D01*
Y135380D01*
X222263Y134780D01*
X221663D01*
X221063Y135380D01*
Y136580D01*
X221663Y137179D01*
X221063Y133581D02*
X221663D01*
Y132981D01*
X221063D01*
Y133581D01*
X224062Y130582D02*
X224662Y129982D01*
Y128782D01*
X224062Y128182D01*
X223462D01*
X222862Y128782D01*
Y129382D01*
Y128782D01*
X222263Y128182D01*
X221663D01*
X221063Y128782D01*
Y129982D01*
X221663Y130582D01*
X224662Y126983D02*
X221063D01*
X222263D01*
X224662Y124583D01*
X222862Y126383D01*
X221063Y124583D01*
X167913Y228346D02*
X171512D01*
Y226547D01*
X170912Y225947D01*
X169713D01*
X169113Y226547D01*
Y228346D01*
Y227147D02*
X167913Y225947D01*
X171512Y222348D02*
Y224748D01*
X167913D01*
Y222348D01*
X169713Y224748D02*
Y223548D01*
X170912Y218750D02*
X171512Y219349D01*
Y220549D01*
X170912Y221149D01*
X170313D01*
X169713Y220549D01*
Y219349D01*
X169113Y218750D01*
X168513D01*
X167913Y219349D01*
Y220549D01*
X168513Y221149D01*
X170912Y213951D02*
X171512Y213351D01*
Y212152D01*
X170912Y211552D01*
X170313D01*
X169713Y212152D01*
Y212752D01*
Y212152D01*
X169113Y211552D01*
X168513D01*
X167913Y212152D01*
Y213351D01*
X168513Y213951D01*
X167913Y210352D02*
X168513D01*
Y209752D01*
X167913D01*
Y210352D01*
X170912Y207353D02*
X171512Y206753D01*
Y205554D01*
X170912Y204954D01*
X170313D01*
X169713Y205554D01*
Y206154D01*
Y205554D01*
X169113Y204954D01*
X168513D01*
X167913Y205554D01*
Y206753D01*
X168513Y207353D01*
X171512Y203754D02*
X167913D01*
X169113D01*
X171512Y201355D01*
X169713Y203155D01*
X167913Y201355D01*
X1532241Y187992D02*
X1528642D01*
Y186193D01*
X1529241Y185593D01*
X1531641D01*
X1532241Y186193D01*
Y187992D01*
X1528642Y184393D02*
Y183194D01*
Y183793D01*
X1531041D01*
Y184393D01*
X1528642Y181394D02*
Y179595D01*
X1529241Y178995D01*
X1529841Y179595D01*
Y180795D01*
X1530441Y181394D01*
X1531041Y180795D01*
Y178995D01*
Y175396D02*
Y177196D01*
X1530441Y177795D01*
X1529241D01*
X1528642Y177196D01*
Y175396D01*
X1532241Y174197D02*
X1528642D01*
X1530441D01*
X1531041Y173597D01*
Y172397D01*
X1530441Y171797D01*
X1528642D01*
X1531041Y169998D02*
Y168798D01*
X1530441Y168199D01*
X1528642D01*
Y169998D01*
X1529241Y170598D01*
X1529841Y169998D01*
Y168199D01*
X1531041Y166999D02*
X1528642D01*
X1529841D01*
X1530441Y166399D01*
X1531041Y165799D01*
Y165199D01*
X1527442Y162200D02*
Y161601D01*
X1528042Y161001D01*
X1531041D01*
Y162800D01*
X1530441Y163400D01*
X1529241D01*
X1528642Y162800D01*
Y161001D01*
Y159801D02*
Y158602D01*
Y159201D01*
X1531041D01*
Y159801D01*
X1528642Y156802D02*
X1531041D01*
Y155003D01*
X1530441Y154403D01*
X1528642D01*
X1527442Y152004D02*
Y151404D01*
X1528042Y150804D01*
X1531041D01*
Y152603D01*
X1530441Y153203D01*
X1529241D01*
X1528642Y152603D01*
Y150804D01*
X1401237Y201575D02*
X1397638D01*
Y199775D01*
X1398238Y199176D01*
X1400637D01*
X1401237Y199775D01*
Y201575D01*
X1397638Y197976D02*
Y196776D01*
Y197376D01*
X1400037D01*
Y197976D01*
X1397638Y194977D02*
Y193177D01*
X1398238Y192578D01*
X1398837Y193177D01*
Y194377D01*
X1399437Y194977D01*
X1400037Y194377D01*
Y192578D01*
Y188979D02*
Y190778D01*
X1399437Y191378D01*
X1398238D01*
X1397638Y190778D01*
Y188979D01*
X1401237Y187779D02*
X1397638D01*
X1399437D01*
X1400037Y187179D01*
Y185980D01*
X1399437Y185380D01*
X1397638D01*
X1400037Y183581D02*
Y182381D01*
X1399437Y181781D01*
X1397638D01*
Y183581D01*
X1398238Y184180D01*
X1398837Y183581D01*
Y181781D01*
X1400037Y180582D02*
X1397638D01*
X1398837D01*
X1399437Y179982D01*
X1400037Y179382D01*
Y178782D01*
X1396438Y175783D02*
Y175183D01*
X1397038Y174583D01*
X1400037D01*
Y176383D01*
X1399437Y176983D01*
X1398238D01*
X1397638Y176383D01*
Y174583D01*
Y173384D02*
Y172184D01*
Y172784D01*
X1400037D01*
Y173384D01*
X1397638Y170385D02*
X1400037D01*
Y168585D01*
X1399437Y167986D01*
X1397638D01*
X1396438Y165586D02*
Y164987D01*
X1397038Y164387D01*
X1400037D01*
Y166186D01*
X1399437Y166786D01*
X1398238D01*
X1397638Y166186D01*
Y164387D01*
X1351138Y187992D02*
X1347539D01*
Y186193D01*
X1348139Y185593D01*
X1350538D01*
X1351138Y186193D01*
Y187992D01*
X1347539Y184393D02*
Y183194D01*
Y183793D01*
X1349939D01*
Y184393D01*
X1347539Y181394D02*
Y179595D01*
X1348139Y178995D01*
X1348739Y179595D01*
Y180795D01*
X1349339Y181394D01*
X1349939Y180795D01*
Y178995D01*
Y175396D02*
Y177196D01*
X1349339Y177795D01*
X1348139D01*
X1347539Y177196D01*
Y175396D01*
X1351138Y174197D02*
X1347539D01*
X1349339D01*
X1349939Y173597D01*
Y172397D01*
X1349339Y171797D01*
X1347539D01*
X1349939Y169998D02*
Y168798D01*
X1349339Y168199D01*
X1347539D01*
Y169998D01*
X1348139Y170598D01*
X1348739Y169998D01*
Y168199D01*
X1349939Y166999D02*
X1347539D01*
X1348739D01*
X1349339Y166399D01*
X1349939Y165799D01*
Y165199D01*
X1346340Y162200D02*
Y161601D01*
X1346940Y161001D01*
X1349939D01*
Y162800D01*
X1349339Y163400D01*
X1348139D01*
X1347539Y162800D01*
Y161001D01*
Y159801D02*
Y158602D01*
Y159201D01*
X1349939D01*
Y159801D01*
X1347539Y156802D02*
X1349939D01*
Y155003D01*
X1349339Y154403D01*
X1347539D01*
X1346340Y152004D02*
Y151404D01*
X1346940Y150804D01*
X1349939D01*
Y152603D01*
X1349339Y153203D01*
X1348139D01*
X1347539Y152603D01*
Y150804D01*
X1220134Y201575D02*
X1216535D01*
Y199775D01*
X1217135Y199176D01*
X1219534D01*
X1220134Y199775D01*
Y201575D01*
X1216535Y197976D02*
Y196776D01*
Y197376D01*
X1218935D01*
Y197976D01*
X1216535Y194977D02*
Y193177D01*
X1217135Y192578D01*
X1217735Y193177D01*
Y194377D01*
X1218335Y194977D01*
X1218935Y194377D01*
Y192578D01*
Y188979D02*
Y190778D01*
X1218335Y191378D01*
X1217135D01*
X1216535Y190778D01*
Y188979D01*
X1220134Y187779D02*
X1216535D01*
X1218335D01*
X1218935Y187179D01*
Y185980D01*
X1218335Y185380D01*
X1216535D01*
X1218935Y183581D02*
Y182381D01*
X1218335Y181781D01*
X1216535D01*
Y183581D01*
X1217135Y184180D01*
X1217735Y183581D01*
Y181781D01*
X1218935Y180582D02*
X1216535D01*
X1217735D01*
X1218335Y179982D01*
X1218935Y179382D01*
Y178782D01*
X1215336Y175783D02*
Y175183D01*
X1215936Y174583D01*
X1218935D01*
Y176383D01*
X1218335Y176983D01*
X1217135D01*
X1216535Y176383D01*
Y174583D01*
Y173384D02*
Y172184D01*
Y172784D01*
X1218935D01*
Y173384D01*
X1216535Y170385D02*
X1218935D01*
Y168585D01*
X1218335Y167986D01*
X1216535D01*
X1215336Y165586D02*
Y164987D01*
X1215936Y164387D01*
X1218935D01*
Y166186D01*
X1218335Y166786D01*
X1217135D01*
X1216535Y166186D01*
Y164387D01*
X1170036Y187992D02*
X1166437D01*
Y186193D01*
X1167037Y185593D01*
X1169436D01*
X1170036Y186193D01*
Y187992D01*
X1166437Y184393D02*
Y183194D01*
Y183793D01*
X1168836D01*
Y184393D01*
X1166437Y181394D02*
Y179595D01*
X1167037Y178995D01*
X1167637Y179595D01*
Y180795D01*
X1168236Y181394D01*
X1168836Y180795D01*
Y178995D01*
Y175396D02*
Y177196D01*
X1168236Y177795D01*
X1167037D01*
X1166437Y177196D01*
Y175396D01*
X1170036Y174197D02*
X1166437D01*
X1168236D01*
X1168836Y173597D01*
Y172397D01*
X1168236Y171797D01*
X1166437D01*
X1168836Y169998D02*
Y168798D01*
X1168236Y168199D01*
X1166437D01*
Y169998D01*
X1167037Y170598D01*
X1167637Y169998D01*
Y168199D01*
X1168836Y166999D02*
X1166437D01*
X1167637D01*
X1168236Y166399D01*
X1168836Y165799D01*
Y165199D01*
X1165237Y162200D02*
Y161601D01*
X1165837Y161001D01*
X1168836D01*
Y162800D01*
X1168236Y163400D01*
X1167037D01*
X1166437Y162800D01*
Y161001D01*
Y159801D02*
Y158602D01*
Y159201D01*
X1168836D01*
Y159801D01*
X1166437Y156802D02*
X1168836D01*
Y155003D01*
X1168236Y154403D01*
X1166437D01*
X1165237Y152004D02*
Y151404D01*
X1165837Y150804D01*
X1168836D01*
Y152603D01*
X1168236Y153203D01*
X1167037D01*
X1166437Y152603D01*
Y150804D01*
X1039032Y201575D02*
X1035433D01*
Y199775D01*
X1036033Y199176D01*
X1038432D01*
X1039032Y199775D01*
Y201575D01*
X1035433Y197976D02*
Y196776D01*
Y197376D01*
X1037832D01*
Y197976D01*
X1035433Y194977D02*
Y193177D01*
X1036033Y192578D01*
X1036633Y193177D01*
Y194377D01*
X1037232Y194977D01*
X1037832Y194377D01*
Y192578D01*
Y188979D02*
Y190778D01*
X1037232Y191378D01*
X1036033D01*
X1035433Y190778D01*
Y188979D01*
X1039032Y187779D02*
X1035433D01*
X1037232D01*
X1037832Y187179D01*
Y185980D01*
X1037232Y185380D01*
X1035433D01*
X1037832Y183581D02*
Y182381D01*
X1037232Y181781D01*
X1035433D01*
Y183581D01*
X1036033Y184180D01*
X1036633Y183581D01*
Y181781D01*
X1037832Y180582D02*
X1035433D01*
X1036633D01*
X1037232Y179982D01*
X1037832Y179382D01*
Y178782D01*
X1034233Y175783D02*
Y175183D01*
X1034833Y174583D01*
X1037832D01*
Y176383D01*
X1037232Y176983D01*
X1036033D01*
X1035433Y176383D01*
Y174583D01*
Y173384D02*
Y172184D01*
Y172784D01*
X1037832D01*
Y173384D01*
X1035433Y170385D02*
X1037832D01*
Y168585D01*
X1037232Y167986D01*
X1035433D01*
X1034233Y165586D02*
Y164987D01*
X1034833Y164387D01*
X1037832D01*
Y166186D01*
X1037232Y166786D01*
X1036033D01*
X1035433Y166186D01*
Y164387D01*
X988933Y187992D02*
X985335D01*
Y186193D01*
X985935Y185593D01*
X988334D01*
X988933Y186193D01*
Y187992D01*
X985335Y184393D02*
Y183194D01*
Y183793D01*
X987734D01*
Y184393D01*
X985335Y181394D02*
Y179595D01*
X985935Y178995D01*
X986534Y179595D01*
Y180795D01*
X987134Y181394D01*
X987734Y180795D01*
Y178995D01*
Y175396D02*
Y177196D01*
X987134Y177795D01*
X985935D01*
X985335Y177196D01*
Y175396D01*
X988933Y174197D02*
X985335D01*
X987134D01*
X987734Y173597D01*
Y172397D01*
X987134Y171797D01*
X985335D01*
X987734Y169998D02*
Y168798D01*
X987134Y168199D01*
X985335D01*
Y169998D01*
X985935Y170598D01*
X986534Y169998D01*
Y168199D01*
X987734Y166999D02*
X985335D01*
X986534D01*
X987134Y166399D01*
X987734Y165799D01*
Y165199D01*
X984135Y162200D02*
Y161601D01*
X984735Y161001D01*
X987734D01*
Y162800D01*
X987134Y163400D01*
X985935D01*
X985335Y162800D01*
Y161001D01*
Y159801D02*
Y158602D01*
Y159201D01*
X987734D01*
Y159801D01*
X985335Y156802D02*
X987734D01*
Y155003D01*
X987134Y154403D01*
X985335D01*
X984135Y152004D02*
Y151404D01*
X984735Y150804D01*
X987734D01*
Y152603D01*
X987134Y153203D01*
X985935D01*
X985335Y152603D01*
Y150804D01*
X857930Y201575D02*
X854331D01*
Y199775D01*
X854930Y199176D01*
X857330D01*
X857930Y199775D01*
Y201575D01*
X854331Y197976D02*
Y196776D01*
Y197376D01*
X856730D01*
Y197976D01*
X854331Y194977D02*
Y193177D01*
X854930Y192578D01*
X855530Y193177D01*
Y194377D01*
X856130Y194977D01*
X856730Y194377D01*
Y192578D01*
Y188979D02*
Y190778D01*
X856130Y191378D01*
X854930D01*
X854331Y190778D01*
Y188979D01*
X857930Y187779D02*
X854331D01*
X856130D01*
X856730Y187179D01*
Y185980D01*
X856130Y185380D01*
X854331D01*
X856730Y183581D02*
Y182381D01*
X856130Y181781D01*
X854331D01*
Y183581D01*
X854930Y184180D01*
X855530Y183581D01*
Y181781D01*
X856730Y180582D02*
X854331D01*
X855530D01*
X856130Y179982D01*
X856730Y179382D01*
Y178782D01*
X853131Y175783D02*
Y175183D01*
X853731Y174583D01*
X856730D01*
Y176383D01*
X856130Y176983D01*
X854930D01*
X854331Y176383D01*
Y174583D01*
Y173384D02*
Y172184D01*
Y172784D01*
X856730D01*
Y173384D01*
X854331Y170385D02*
X856730D01*
Y168585D01*
X856130Y167986D01*
X854331D01*
X853131Y165586D02*
Y164987D01*
X853731Y164387D01*
X856730D01*
Y166186D01*
X856130Y166786D01*
X854930D01*
X854331Y166186D01*
Y164387D01*
X807831Y187992D02*
X804232D01*
Y186193D01*
X804832Y185593D01*
X807231D01*
X807831Y186193D01*
Y187992D01*
X804232Y184393D02*
Y183194D01*
Y183793D01*
X806631D01*
Y184393D01*
X804232Y181394D02*
Y179595D01*
X804832Y178995D01*
X805432Y179595D01*
Y180795D01*
X806032Y181394D01*
X806631Y180795D01*
Y178995D01*
Y175396D02*
Y177196D01*
X806032Y177795D01*
X804832D01*
X804232Y177196D01*
Y175396D01*
X807831Y174197D02*
X804232D01*
X806032D01*
X806631Y173597D01*
Y172397D01*
X806032Y171797D01*
X804232D01*
X806631Y169998D02*
Y168798D01*
X806032Y168199D01*
X804232D01*
Y169998D01*
X804832Y170598D01*
X805432Y169998D01*
Y168199D01*
X806631Y166999D02*
X804232D01*
X805432D01*
X806032Y166399D01*
X806631Y165799D01*
Y165199D01*
X803033Y162200D02*
Y161601D01*
X803633Y161001D01*
X806631D01*
Y162800D01*
X806032Y163400D01*
X804832D01*
X804232Y162800D01*
Y161001D01*
Y159801D02*
Y158602D01*
Y159201D01*
X806631D01*
Y159801D01*
X804232Y156802D02*
X806631D01*
Y155003D01*
X806032Y154403D01*
X804232D01*
X803033Y152004D02*
Y151404D01*
X803633Y150804D01*
X806631D01*
Y152603D01*
X806032Y153203D01*
X804832D01*
X804232Y152603D01*
Y150804D01*
X676827Y201575D02*
X673228D01*
Y199775D01*
X673828Y199176D01*
X676227D01*
X676827Y199775D01*
Y201575D01*
X673228Y197976D02*
Y196776D01*
Y197376D01*
X675628D01*
Y197976D01*
X673228Y194977D02*
Y193177D01*
X673828Y192578D01*
X674428Y193177D01*
Y194377D01*
X675028Y194977D01*
X675628Y194377D01*
Y192578D01*
Y188979D02*
Y190778D01*
X675028Y191378D01*
X673828D01*
X673228Y190778D01*
Y188979D01*
X676827Y187779D02*
X673228D01*
X675028D01*
X675628Y187179D01*
Y185980D01*
X675028Y185380D01*
X673228D01*
X675628Y183581D02*
Y182381D01*
X675028Y181781D01*
X673228D01*
Y183581D01*
X673828Y184180D01*
X674428Y183581D01*
Y181781D01*
X675628Y180582D02*
X673228D01*
X674428D01*
X675028Y179982D01*
X675628Y179382D01*
Y178782D01*
X672029Y175783D02*
Y175183D01*
X672628Y174583D01*
X675628D01*
Y176383D01*
X675028Y176983D01*
X673828D01*
X673228Y176383D01*
Y174583D01*
Y173384D02*
Y172184D01*
Y172784D01*
X675628D01*
Y173384D01*
X673228Y170385D02*
X675628D01*
Y168585D01*
X675028Y167986D01*
X673228D01*
X672029Y165586D02*
Y164987D01*
X672628Y164387D01*
X675628D01*
Y166186D01*
X675028Y166786D01*
X673828D01*
X673228Y166186D01*
Y164387D01*
X626729Y187992D02*
X623130D01*
Y186193D01*
X623730Y185593D01*
X626129D01*
X626729Y186193D01*
Y187992D01*
X623130Y184393D02*
Y183194D01*
Y183793D01*
X625529D01*
Y184393D01*
X623130Y181394D02*
Y179595D01*
X623730Y178995D01*
X624330Y179595D01*
Y180795D01*
X624929Y181394D01*
X625529Y180795D01*
Y178995D01*
Y175396D02*
Y177196D01*
X624929Y177795D01*
X623730D01*
X623130Y177196D01*
Y175396D01*
X626729Y174197D02*
X623130D01*
X624929D01*
X625529Y173597D01*
Y172397D01*
X624929Y171797D01*
X623130D01*
X625529Y169998D02*
Y168798D01*
X624929Y168199D01*
X623130D01*
Y169998D01*
X623730Y170598D01*
X624330Y169998D01*
Y168199D01*
X625529Y166999D02*
X623130D01*
X624330D01*
X624929Y166399D01*
X625529Y165799D01*
Y165199D01*
X621930Y162200D02*
Y161601D01*
X622530Y161001D01*
X625529D01*
Y162800D01*
X624929Y163400D01*
X623730D01*
X623130Y162800D01*
Y161001D01*
Y159801D02*
Y158602D01*
Y159201D01*
X625529D01*
Y159801D01*
X623130Y156802D02*
X625529D01*
Y155003D01*
X624929Y154403D01*
X623130D01*
X621930Y152004D02*
Y151404D01*
X622530Y150804D01*
X625529D01*
Y152603D01*
X624929Y153203D01*
X623730D01*
X623130Y152603D01*
Y150804D01*
X495725Y201575D02*
X492126D01*
Y199775D01*
X492726Y199176D01*
X495125D01*
X495725Y199775D01*
Y201575D01*
X492126Y197976D02*
Y196776D01*
Y197376D01*
X494525D01*
Y197976D01*
X492126Y194977D02*
Y193177D01*
X492726Y192578D01*
X493326Y193177D01*
Y194377D01*
X493925Y194977D01*
X494525Y194377D01*
Y192578D01*
Y188979D02*
Y190778D01*
X493925Y191378D01*
X492726D01*
X492126Y190778D01*
Y188979D01*
X495725Y187779D02*
X492126D01*
X493925D01*
X494525Y187179D01*
Y185980D01*
X493925Y185380D01*
X492126D01*
X494525Y183581D02*
Y182381D01*
X493925Y181781D01*
X492126D01*
Y183581D01*
X492726Y184180D01*
X493326Y183581D01*
Y181781D01*
X494525Y180582D02*
X492126D01*
X493326D01*
X493925Y179982D01*
X494525Y179382D01*
Y178782D01*
X490926Y175783D02*
Y175183D01*
X491526Y174583D01*
X494525D01*
Y176383D01*
X493925Y176983D01*
X492726D01*
X492126Y176383D01*
Y174583D01*
Y173384D02*
Y172184D01*
Y172784D01*
X494525D01*
Y173384D01*
X492126Y170385D02*
X494525D01*
Y168585D01*
X493925Y167986D01*
X492126D01*
X490926Y165586D02*
Y164987D01*
X491526Y164387D01*
X494525D01*
Y166186D01*
X493925Y166786D01*
X492726D01*
X492126Y166186D01*
Y164387D01*
X445626Y187992D02*
X442028D01*
Y186193D01*
X442627Y185593D01*
X445027D01*
X445626Y186193D01*
Y187992D01*
X442028Y184393D02*
Y183194D01*
Y183793D01*
X444427D01*
Y184393D01*
X442028Y181394D02*
Y179595D01*
X442627Y178995D01*
X443227Y179595D01*
Y180795D01*
X443827Y181394D01*
X444427Y180795D01*
Y178995D01*
Y175396D02*
Y177196D01*
X443827Y177795D01*
X442627D01*
X442028Y177196D01*
Y175396D01*
X445626Y174197D02*
X442028D01*
X443827D01*
X444427Y173597D01*
Y172397D01*
X443827Y171797D01*
X442028D01*
X444427Y169998D02*
Y168798D01*
X443827Y168199D01*
X442028D01*
Y169998D01*
X442627Y170598D01*
X443227Y169998D01*
Y168199D01*
X444427Y166999D02*
X442028D01*
X443227D01*
X443827Y166399D01*
X444427Y165799D01*
Y165199D01*
X440828Y162200D02*
Y161601D01*
X441428Y161001D01*
X444427D01*
Y162800D01*
X443827Y163400D01*
X442627D01*
X442028Y162800D01*
Y161001D01*
Y159801D02*
Y158602D01*
Y159201D01*
X444427D01*
Y159801D01*
X442028Y156802D02*
X444427D01*
Y155003D01*
X443827Y154403D01*
X442028D01*
X440828Y152004D02*
Y151404D01*
X441428Y150804D01*
X444427D01*
Y152603D01*
X443827Y153203D01*
X442627D01*
X442028Y152603D01*
Y150804D01*
X314622Y201575D02*
X311024D01*
Y199775D01*
X311623Y199176D01*
X314023D01*
X314622Y199775D01*
Y201575D01*
X311024Y197976D02*
Y196776D01*
Y197376D01*
X313423D01*
Y197976D01*
X311024Y194977D02*
Y193177D01*
X311623Y192578D01*
X312223Y193177D01*
Y194377D01*
X312823Y194977D01*
X313423Y194377D01*
Y192578D01*
Y188979D02*
Y190778D01*
X312823Y191378D01*
X311623D01*
X311024Y190778D01*
Y188979D01*
X314622Y187779D02*
X311024D01*
X312823D01*
X313423Y187179D01*
Y185980D01*
X312823Y185380D01*
X311024D01*
X313423Y183581D02*
Y182381D01*
X312823Y181781D01*
X311024D01*
Y183581D01*
X311623Y184180D01*
X312223Y183581D01*
Y181781D01*
X313423Y180582D02*
X311024D01*
X312223D01*
X312823Y179982D01*
X313423Y179382D01*
Y178782D01*
X309824Y175783D02*
Y175183D01*
X310424Y174583D01*
X313423D01*
Y176383D01*
X312823Y176983D01*
X311623D01*
X311024Y176383D01*
Y174583D01*
Y173384D02*
Y172184D01*
Y172784D01*
X313423D01*
Y173384D01*
X311024Y170385D02*
X313423D01*
Y168585D01*
X312823Y167986D01*
X311024D01*
X309824Y165586D02*
Y164987D01*
X310424Y164387D01*
X313423D01*
Y166186D01*
X312823Y166786D01*
X311623D01*
X311024Y166186D01*
Y164387D01*
X264524Y187992D02*
X260925D01*
Y186193D01*
X261525Y185593D01*
X263924D01*
X264524Y186193D01*
Y187992D01*
X260925Y184393D02*
Y183194D01*
Y183793D01*
X263324D01*
Y184393D01*
X260925Y181394D02*
Y179595D01*
X261525Y178995D01*
X262125Y179595D01*
Y180795D01*
X262725Y181394D01*
X263324Y180795D01*
Y178995D01*
Y175396D02*
Y177196D01*
X262725Y177795D01*
X261525D01*
X260925Y177196D01*
Y175396D01*
X264524Y174197D02*
X260925D01*
X262725D01*
X263324Y173597D01*
Y172397D01*
X262725Y171797D01*
X260925D01*
X263324Y169998D02*
Y168798D01*
X262725Y168199D01*
X260925D01*
Y169998D01*
X261525Y170598D01*
X262125Y169998D01*
Y168199D01*
X263324Y166999D02*
X260925D01*
X262125D01*
X262725Y166399D01*
X263324Y165799D01*
Y165199D01*
X259726Y162200D02*
Y161601D01*
X260325Y161001D01*
X263324D01*
Y162800D01*
X262725Y163400D01*
X261525D01*
X260925Y162800D01*
Y161001D01*
Y159801D02*
Y158602D01*
Y159201D01*
X263324D01*
Y159801D01*
X260925Y156802D02*
X263324D01*
Y155003D01*
X262725Y154403D01*
X260925D01*
X259726Y152004D02*
Y151404D01*
X260325Y150804D01*
X263324D01*
Y152603D01*
X262725Y153203D01*
X261525D01*
X260925Y152603D01*
Y150804D01*
X133520Y201575D02*
X129921D01*
Y199775D01*
X130521Y199176D01*
X132920D01*
X133520Y199775D01*
Y201575D01*
X129921Y197976D02*
Y196776D01*
Y197376D01*
X132320D01*
Y197976D01*
X129921Y194977D02*
Y193177D01*
X130521Y192578D01*
X131121Y193177D01*
Y194377D01*
X131721Y194977D01*
X132320Y194377D01*
Y192578D01*
Y188979D02*
Y190778D01*
X131721Y191378D01*
X130521D01*
X129921Y190778D01*
Y188979D01*
X133520Y187779D02*
X129921D01*
X131721D01*
X132320Y187179D01*
Y185980D01*
X131721Y185380D01*
X129921D01*
X132320Y183581D02*
Y182381D01*
X131721Y181781D01*
X129921D01*
Y183581D01*
X130521Y184180D01*
X131121Y183581D01*
Y181781D01*
X132320Y180582D02*
X129921D01*
X131121D01*
X131721Y179982D01*
X132320Y179382D01*
Y178782D01*
X128722Y175783D02*
Y175183D01*
X129322Y174583D01*
X132320D01*
Y176383D01*
X131721Y176983D01*
X130521D01*
X129921Y176383D01*
Y174583D01*
Y173384D02*
Y172184D01*
Y172784D01*
X132320D01*
Y173384D01*
X129921Y170385D02*
X132320D01*
Y168585D01*
X131721Y167986D01*
X129921D01*
X128722Y165586D02*
Y164987D01*
X129322Y164387D01*
X132320D01*
Y166186D01*
X131721Y166786D01*
X130521D01*
X129921Y166186D01*
Y164387D01*
X1538976Y104331D02*
Y103131D01*
Y103731D01*
X1542575D01*
X1541975Y104331D01*
X1538976Y101332D02*
X1541376D01*
X1542575Y100132D01*
X1541376Y98932D01*
X1538976D01*
X1540776D01*
Y101332D01*
X1542575Y91735D02*
Y94134D01*
X1540776D01*
Y92934D01*
Y94134D01*
X1538976D01*
X1541376Y90535D02*
X1539576D01*
X1538976Y89935D01*
Y88136D01*
X1541376D01*
X1538976Y86936D02*
Y85137D01*
X1539576Y84537D01*
X1540176Y85137D01*
Y86336D01*
X1540776Y86936D01*
X1541376Y86336D01*
Y84537D01*
X1538976Y81538D02*
Y82738D01*
X1539576Y83337D01*
X1540776D01*
X1541376Y82738D01*
Y81538D01*
X1540776Y80938D01*
X1540176D01*
Y83337D01*
X1385433Y272835D02*
Y271635D01*
Y272235D01*
X1389032D01*
X1388432Y272835D01*
X1385433Y269836D02*
X1387832D01*
X1389032Y268636D01*
X1387832Y267436D01*
X1385433D01*
X1387232D01*
Y269836D01*
X1389032Y260239D02*
Y262638D01*
X1387232D01*
Y261438D01*
Y262638D01*
X1385433D01*
X1387832Y259039D02*
X1386033D01*
X1385433Y258439D01*
Y256640D01*
X1387832D01*
X1385433Y255440D02*
Y253641D01*
X1386033Y253041D01*
X1386633Y253641D01*
Y254840D01*
X1387232Y255440D01*
X1387832Y254840D01*
Y253041D01*
X1385433Y250042D02*
Y251242D01*
X1386033Y251841D01*
X1387232D01*
X1387832Y251242D01*
Y250042D01*
X1387232Y249442D01*
X1386633D01*
Y251841D01*
X1357874Y104331D02*
Y103131D01*
Y103731D01*
X1361473D01*
X1360873Y104331D01*
X1357874Y101332D02*
X1360273D01*
X1361473Y100132D01*
X1360273Y98932D01*
X1357874D01*
X1359673D01*
Y101332D01*
X1361473Y91735D02*
Y94134D01*
X1359673D01*
Y92934D01*
Y94134D01*
X1357874D01*
X1360273Y90535D02*
X1358474D01*
X1357874Y89935D01*
Y88136D01*
X1360273D01*
X1357874Y86936D02*
Y85137D01*
X1358474Y84537D01*
X1359074Y85137D01*
Y86336D01*
X1359673Y86936D01*
X1360273Y86336D01*
Y84537D01*
X1357874Y81538D02*
Y82738D01*
X1358474Y83337D01*
X1359673D01*
X1360273Y82738D01*
Y81538D01*
X1359673Y80938D01*
X1359074D01*
Y83337D01*
X1204331Y272835D02*
Y271635D01*
Y272235D01*
X1207930D01*
X1207330Y272835D01*
X1204331Y269836D02*
X1206730D01*
X1207930Y268636D01*
X1206730Y267436D01*
X1204331D01*
X1206130D01*
Y269836D01*
X1207930Y260239D02*
Y262638D01*
X1206130D01*
Y261438D01*
Y262638D01*
X1204331D01*
X1206730Y259039D02*
X1204930D01*
X1204331Y258439D01*
Y256640D01*
X1206730D01*
X1204331Y255440D02*
Y253641D01*
X1204930Y253041D01*
X1205530Y253641D01*
Y254840D01*
X1206130Y255440D01*
X1206730Y254840D01*
Y253041D01*
X1204331Y250042D02*
Y251242D01*
X1204930Y251841D01*
X1206130D01*
X1206730Y251242D01*
Y250042D01*
X1206130Y249442D01*
X1205530D01*
Y251841D01*
X1176772Y104331D02*
Y103131D01*
Y103731D01*
X1180371D01*
X1179771Y104331D01*
X1176772Y101332D02*
X1179171D01*
X1180371Y100132D01*
X1179171Y98932D01*
X1176772D01*
X1178571D01*
Y101332D01*
X1180371Y91735D02*
Y94134D01*
X1178571D01*
Y92934D01*
Y94134D01*
X1176772D01*
X1179171Y90535D02*
X1177372D01*
X1176772Y89935D01*
Y88136D01*
X1179171D01*
X1176772Y86936D02*
Y85137D01*
X1177372Y84537D01*
X1177971Y85137D01*
Y86336D01*
X1178571Y86936D01*
X1179171Y86336D01*
Y84537D01*
X1176772Y81538D02*
Y82738D01*
X1177372Y83337D01*
X1178571D01*
X1179171Y82738D01*
Y81538D01*
X1178571Y80938D01*
X1177971D01*
Y83337D01*
X1023228Y272835D02*
Y271635D01*
Y272235D01*
X1026827D01*
X1026227Y272835D01*
X1023228Y269836D02*
X1025628D01*
X1026827Y268636D01*
X1025628Y267436D01*
X1023228D01*
X1025028D01*
Y269836D01*
X1026827Y260239D02*
Y262638D01*
X1025028D01*
Y261438D01*
Y262638D01*
X1023228D01*
X1025628Y259039D02*
X1023828D01*
X1023228Y258439D01*
Y256640D01*
X1025628D01*
X1023228Y255440D02*
Y253641D01*
X1023828Y253041D01*
X1024428Y253641D01*
Y254840D01*
X1025028Y255440D01*
X1025628Y254840D01*
Y253041D01*
X1023228Y250042D02*
Y251242D01*
X1023828Y251841D01*
X1025028D01*
X1025628Y251242D01*
Y250042D01*
X1025028Y249442D01*
X1024428D01*
Y251841D01*
X995669Y104331D02*
Y103131D01*
Y103731D01*
X999268D01*
X998668Y104331D01*
X995669Y101332D02*
X998069D01*
X999268Y100132D01*
X998069Y98932D01*
X995669D01*
X997469D01*
Y101332D01*
X999268Y91735D02*
Y94134D01*
X997469D01*
Y92934D01*
Y94134D01*
X995669D01*
X998069Y90535D02*
X996269D01*
X995669Y89935D01*
Y88136D01*
X998069D01*
X995669Y86936D02*
Y85137D01*
X996269Y84537D01*
X996869Y85137D01*
Y86336D01*
X997469Y86936D01*
X998069Y86336D01*
Y84537D01*
X995669Y81538D02*
Y82738D01*
X996269Y83337D01*
X997469D01*
X998069Y82738D01*
Y81538D01*
X997469Y80938D01*
X996869D01*
Y83337D01*
X842126Y272835D02*
Y271635D01*
Y272235D01*
X845725D01*
X845125Y272835D01*
X842126Y269836D02*
X844525D01*
X845725Y268636D01*
X844525Y267436D01*
X842126D01*
X843925D01*
Y269836D01*
X845725Y260239D02*
Y262638D01*
X843925D01*
Y261438D01*
Y262638D01*
X842126D01*
X844525Y259039D02*
X842726D01*
X842126Y258439D01*
Y256640D01*
X844525D01*
X842126Y255440D02*
Y253641D01*
X842726Y253041D01*
X843326Y253641D01*
Y254840D01*
X843925Y255440D01*
X844525Y254840D01*
Y253041D01*
X842126Y250042D02*
Y251242D01*
X842726Y251841D01*
X843925D01*
X844525Y251242D01*
Y250042D01*
X843925Y249442D01*
X843326D01*
Y251841D01*
X814567Y104331D02*
Y103131D01*
Y103731D01*
X818166D01*
X817566Y104331D01*
X814567Y101332D02*
X816966D01*
X818166Y100132D01*
X816966Y98932D01*
X814567D01*
X816366D01*
Y101332D01*
X818166Y91735D02*
Y94134D01*
X816366D01*
Y92934D01*
Y94134D01*
X814567D01*
X816966Y90535D02*
X815167D01*
X814567Y89935D01*
Y88136D01*
X816966D01*
X814567Y86936D02*
Y85137D01*
X815167Y84537D01*
X815767Y85137D01*
Y86336D01*
X816366Y86936D01*
X816966Y86336D01*
Y84537D01*
X814567Y81538D02*
Y82738D01*
X815167Y83337D01*
X816366D01*
X816966Y82738D01*
Y81538D01*
X816366Y80938D01*
X815767D01*
Y83337D01*
X661024Y272835D02*
Y271635D01*
Y272235D01*
X664622D01*
X664023Y272835D01*
X661024Y269836D02*
X663423D01*
X664622Y268636D01*
X663423Y267436D01*
X661024D01*
X662823D01*
Y269836D01*
X664622Y260239D02*
Y262638D01*
X662823D01*
Y261438D01*
Y262638D01*
X661024D01*
X663423Y259039D02*
X661623D01*
X661024Y258439D01*
Y256640D01*
X663423D01*
X661024Y255440D02*
Y253641D01*
X661623Y253041D01*
X662223Y253641D01*
Y254840D01*
X662823Y255440D01*
X663423Y254840D01*
Y253041D01*
X661024Y250042D02*
Y251242D01*
X661623Y251841D01*
X662823D01*
X663423Y251242D01*
Y250042D01*
X662823Y249442D01*
X662223D01*
Y251841D01*
X633465Y104331D02*
Y103131D01*
Y103731D01*
X637063D01*
X636464Y104331D01*
X633465Y101332D02*
X635864D01*
X637063Y100132D01*
X635864Y98932D01*
X633465D01*
X635264D01*
Y101332D01*
X637063Y91735D02*
Y94134D01*
X635264D01*
Y92934D01*
Y94134D01*
X633465D01*
X635864Y90535D02*
X634064D01*
X633465Y89935D01*
Y88136D01*
X635864D01*
X633465Y86936D02*
Y85137D01*
X634064Y84537D01*
X634664Y85137D01*
Y86336D01*
X635264Y86936D01*
X635864Y86336D01*
Y84537D01*
X633465Y81538D02*
Y82738D01*
X634064Y83337D01*
X635264D01*
X635864Y82738D01*
Y81538D01*
X635264Y80938D01*
X634664D01*
Y83337D01*
X479921Y272835D02*
Y271635D01*
Y272235D01*
X483520D01*
X482920Y272835D01*
X479921Y269836D02*
X482320D01*
X483520Y268636D01*
X482320Y267436D01*
X479921D01*
X481721D01*
Y269836D01*
X483520Y260239D02*
Y262638D01*
X481721D01*
Y261438D01*
Y262638D01*
X479921D01*
X482320Y259039D02*
X480521D01*
X479921Y258439D01*
Y256640D01*
X482320D01*
X479921Y255440D02*
Y253641D01*
X480521Y253041D01*
X481121Y253641D01*
Y254840D01*
X481721Y255440D01*
X482320Y254840D01*
Y253041D01*
X479921Y250042D02*
Y251242D01*
X480521Y251841D01*
X481721D01*
X482320Y251242D01*
Y250042D01*
X481721Y249442D01*
X481121D01*
Y251841D01*
X452362Y104331D02*
Y103131D01*
Y103731D01*
X455961D01*
X455361Y104331D01*
X452362Y101332D02*
X454761D01*
X455961Y100132D01*
X454761Y98932D01*
X452362D01*
X454162D01*
Y101332D01*
X455961Y91735D02*
Y94134D01*
X454162D01*
Y92934D01*
Y94134D01*
X452362D01*
X454761Y90535D02*
X452962D01*
X452362Y89935D01*
Y88136D01*
X454761D01*
X452362Y86936D02*
Y85137D01*
X452962Y84537D01*
X453562Y85137D01*
Y86336D01*
X454162Y86936D01*
X454761Y86336D01*
Y84537D01*
X452362Y81538D02*
Y82738D01*
X452962Y83337D01*
X454162D01*
X454761Y82738D01*
Y81538D01*
X454162Y80938D01*
X453562D01*
Y83337D01*
X298819Y272835D02*
Y271635D01*
Y272235D01*
X302418D01*
X301818Y272835D01*
X298819Y269836D02*
X301218D01*
X302418Y268636D01*
X301218Y267436D01*
X298819D01*
X300618D01*
Y269836D01*
X302418Y260239D02*
Y262638D01*
X300618D01*
Y261438D01*
Y262638D01*
X298819D01*
X301218Y259039D02*
X299419D01*
X298819Y258439D01*
Y256640D01*
X301218D01*
X298819Y255440D02*
Y253641D01*
X299419Y253041D01*
X300019Y253641D01*
Y254840D01*
X300618Y255440D01*
X301218Y254840D01*
Y253041D01*
X298819Y250042D02*
Y251242D01*
X299419Y251841D01*
X300618D01*
X301218Y251242D01*
Y250042D01*
X300618Y249442D01*
X300019D01*
Y251841D01*
X271260Y104331D02*
Y103131D01*
Y103731D01*
X274859D01*
X274259Y104331D01*
X271260Y101332D02*
X273659D01*
X274859Y100132D01*
X273659Y98932D01*
X271260D01*
X273059D01*
Y101332D01*
X274859Y91735D02*
Y94134D01*
X273059D01*
Y92934D01*
Y94134D01*
X271260D01*
X273659Y90535D02*
X271860D01*
X271260Y89935D01*
Y88136D01*
X273659D01*
X271260Y86936D02*
Y85137D01*
X271860Y84537D01*
X272460Y85137D01*
Y86336D01*
X273059Y86936D01*
X273659Y86336D01*
Y84537D01*
X271260Y81538D02*
Y82738D01*
X271860Y83337D01*
X273059D01*
X273659Y82738D01*
Y81538D01*
X273059Y80938D01*
X272460D01*
Y83337D01*
X117717Y272835D02*
Y271635D01*
Y272235D01*
X121315D01*
X120716Y272835D01*
X117717Y269836D02*
X120116D01*
X121315Y268636D01*
X120116Y267436D01*
X117717D01*
X119516D01*
Y269836D01*
X121315Y260239D02*
Y262638D01*
X119516D01*
Y261438D01*
Y262638D01*
X117717D01*
X120116Y259039D02*
X118316D01*
X117717Y258439D01*
Y256640D01*
X120116D01*
X117717Y255440D02*
Y253641D01*
X118316Y253041D01*
X118916Y253641D01*
Y254840D01*
X119516Y255440D01*
X120116Y254840D01*
Y253041D01*
X117717Y250042D02*
Y251242D01*
X118316Y251841D01*
X119516D01*
X120116Y251242D01*
Y250042D01*
X119516Y249442D01*
X118916D01*
Y251841D01*
X1479082Y182579D02*
X1479681Y181979D01*
Y180779D01*
X1479082Y180180D01*
X1476682D01*
X1476083Y180779D01*
Y181979D01*
X1476682Y182579D01*
X1479082D01*
X1476083Y178980D02*
X1476682D01*
Y178380D01*
X1476083D01*
Y178980D01*
Y175981D02*
Y174781D01*
Y175381D01*
X1479681D01*
X1479082Y175981D01*
X1476083Y172982D02*
X1478482D01*
X1479681Y171782D01*
X1478482Y170583D01*
X1476083D01*
X1477882D01*
Y172982D01*
X1479681Y163385D02*
Y165784D01*
X1477882D01*
Y164585D01*
Y165784D01*
X1476083D01*
X1478482Y162185D02*
X1476682D01*
X1476083Y161585D01*
Y159786D01*
X1478482D01*
X1476083Y158587D02*
Y156787D01*
X1476682Y156187D01*
X1477282Y156787D01*
Y157987D01*
X1477882Y158587D01*
X1478482Y157987D01*
Y156187D01*
X1476083Y153188D02*
Y154388D01*
X1476682Y154988D01*
X1477882D01*
X1478482Y154388D01*
Y153188D01*
X1477882Y152588D01*
X1477282D01*
Y154988D01*
X1451031Y277559D02*
X1451630Y276959D01*
Y275760D01*
X1451031Y275160D01*
X1448631D01*
X1448032Y275760D01*
Y276959D01*
X1448631Y277559D01*
X1451031D01*
X1448032Y273960D02*
X1448631D01*
Y273360D01*
X1448032D01*
Y273960D01*
Y270961D02*
Y269762D01*
Y270361D01*
X1451630D01*
X1451031Y270961D01*
X1448032Y267962D02*
X1450431D01*
X1451630Y266763D01*
X1450431Y265563D01*
X1448032D01*
X1449831D01*
Y267962D01*
X1451630Y258365D02*
Y260765D01*
X1449831D01*
Y259565D01*
Y260765D01*
X1448032D01*
X1450431Y257166D02*
X1448631D01*
X1448032Y256566D01*
Y254766D01*
X1450431D01*
X1448032Y253567D02*
Y251767D01*
X1448631Y251168D01*
X1449231Y251767D01*
Y252967D01*
X1449831Y253567D01*
X1450431Y252967D01*
Y251168D01*
X1448032Y248168D02*
Y249368D01*
X1448631Y249968D01*
X1449831D01*
X1450431Y249368D01*
Y248168D01*
X1449831Y247569D01*
X1449231D01*
Y249968D01*
X1298176Y104331D02*
X1298776Y103731D01*
Y102531D01*
X1298176Y101932D01*
X1295777D01*
X1295177Y102531D01*
Y103731D01*
X1295777Y104331D01*
X1298176D01*
X1295177Y100732D02*
X1295777D01*
Y100132D01*
X1295177D01*
Y100732D01*
Y97733D02*
Y96533D01*
Y97133D01*
X1298776D01*
X1298176Y97733D01*
X1295177Y94734D02*
X1297576D01*
X1298776Y93534D01*
X1297576Y92335D01*
X1295177D01*
X1296977D01*
Y94734D01*
X1298776Y85137D02*
Y87536D01*
X1296977D01*
Y86336D01*
Y87536D01*
X1295177D01*
X1297576Y83937D02*
X1295777D01*
X1295177Y83337D01*
Y81538D01*
X1297576D01*
X1295177Y80339D02*
Y78539D01*
X1295777Y77939D01*
X1296377Y78539D01*
Y79739D01*
X1296977Y80339D01*
X1297576Y79739D01*
Y77939D01*
X1295177Y74940D02*
Y76140D01*
X1295777Y76740D01*
X1296977D01*
X1297576Y76140D01*
Y74940D01*
X1296977Y74340D01*
X1296377D01*
Y76740D01*
X1269928Y277559D02*
X1270528Y276959D01*
Y275760D01*
X1269928Y275160D01*
X1267529D01*
X1266929Y275760D01*
Y276959D01*
X1267529Y277559D01*
X1269928D01*
X1266929Y273960D02*
X1267529D01*
Y273360D01*
X1266929D01*
Y273960D01*
Y270961D02*
Y269762D01*
Y270361D01*
X1270528D01*
X1269928Y270961D01*
X1266929Y267962D02*
X1269328D01*
X1270528Y266763D01*
X1269328Y265563D01*
X1266929D01*
X1268729D01*
Y267962D01*
X1270528Y258365D02*
Y260765D01*
X1268729D01*
Y259565D01*
Y260765D01*
X1266929D01*
X1269328Y257166D02*
X1267529D01*
X1266929Y256566D01*
Y254766D01*
X1269328D01*
X1266929Y253567D02*
Y251767D01*
X1267529Y251168D01*
X1268129Y251767D01*
Y252967D01*
X1268729Y253567D01*
X1269328Y252967D01*
Y251168D01*
X1266929Y248168D02*
Y249368D01*
X1267529Y249968D01*
X1268729D01*
X1269328Y249368D01*
Y248168D01*
X1268729Y247569D01*
X1268129D01*
Y249968D01*
X1117074Y104331D02*
X1117674Y103731D01*
Y102531D01*
X1117074Y101932D01*
X1114675D01*
X1114075Y102531D01*
Y103731D01*
X1114675Y104331D01*
X1117074D01*
X1114075Y100732D02*
X1114675D01*
Y100132D01*
X1114075D01*
Y100732D01*
Y97733D02*
Y96533D01*
Y97133D01*
X1117674D01*
X1117074Y97733D01*
X1114075Y94734D02*
X1116474D01*
X1117674Y93534D01*
X1116474Y92335D01*
X1114075D01*
X1115874D01*
Y94734D01*
X1117674Y85137D02*
Y87536D01*
X1115874D01*
Y86336D01*
Y87536D01*
X1114075D01*
X1116474Y83937D02*
X1114675D01*
X1114075Y83337D01*
Y81538D01*
X1116474D01*
X1114075Y80339D02*
Y78539D01*
X1114675Y77939D01*
X1115274Y78539D01*
Y79739D01*
X1115874Y80339D01*
X1116474Y79739D01*
Y77939D01*
X1114075Y74940D02*
Y76140D01*
X1114675Y76740D01*
X1115874D01*
X1116474Y76140D01*
Y74940D01*
X1115874Y74340D01*
X1115274D01*
Y76740D01*
X1088826Y277559D02*
X1089426Y276959D01*
Y275760D01*
X1088826Y275160D01*
X1086427D01*
X1085827Y275760D01*
Y276959D01*
X1086427Y277559D01*
X1088826D01*
X1085827Y273960D02*
X1086427D01*
Y273360D01*
X1085827D01*
Y273960D01*
Y270961D02*
Y269762D01*
Y270361D01*
X1089426D01*
X1088826Y270961D01*
X1085827Y267962D02*
X1088226D01*
X1089426Y266763D01*
X1088226Y265563D01*
X1085827D01*
X1087626D01*
Y267962D01*
X1089426Y258365D02*
Y260765D01*
X1087626D01*
Y259565D01*
Y260765D01*
X1085827D01*
X1088226Y257166D02*
X1086427D01*
X1085827Y256566D01*
Y254766D01*
X1088226D01*
X1085827Y253567D02*
Y251767D01*
X1086427Y251168D01*
X1087026Y251767D01*
Y252967D01*
X1087626Y253567D01*
X1088226Y252967D01*
Y251168D01*
X1085827Y248168D02*
Y249368D01*
X1086427Y249968D01*
X1087626D01*
X1088226Y249368D01*
Y248168D01*
X1087626Y247569D01*
X1087026D01*
Y249968D01*
X935972Y104331D02*
X936571Y103731D01*
Y102531D01*
X935972Y101932D01*
X933572D01*
X932973Y102531D01*
Y103731D01*
X933572Y104331D01*
X935972D01*
X932973Y100732D02*
X933572D01*
Y100132D01*
X932973D01*
Y100732D01*
Y97733D02*
Y96533D01*
Y97133D01*
X936571D01*
X935972Y97733D01*
X932973Y94734D02*
X935372D01*
X936571Y93534D01*
X935372Y92335D01*
X932973D01*
X934772D01*
Y94734D01*
X936571Y85137D02*
Y87536D01*
X934772D01*
Y86336D01*
Y87536D01*
X932973D01*
X935372Y83937D02*
X933572D01*
X932973Y83337D01*
Y81538D01*
X935372D01*
X932973Y80339D02*
Y78539D01*
X933572Y77939D01*
X934172Y78539D01*
Y79739D01*
X934772Y80339D01*
X935372Y79739D01*
Y77939D01*
X932973Y74940D02*
Y76140D01*
X933572Y76740D01*
X934772D01*
X935372Y76140D01*
Y74940D01*
X934772Y74340D01*
X934172D01*
Y76740D01*
X907723Y277559D02*
X908323Y276959D01*
Y275760D01*
X907723Y275160D01*
X905324D01*
X904724Y275760D01*
Y276959D01*
X905324Y277559D01*
X907723D01*
X904724Y273960D02*
X905324D01*
Y273360D01*
X904724D01*
Y273960D01*
Y270961D02*
Y269762D01*
Y270361D01*
X908323D01*
X907723Y270961D01*
X904724Y267962D02*
X907124D01*
X908323Y266763D01*
X907124Y265563D01*
X904724D01*
X906524D01*
Y267962D01*
X908323Y258365D02*
Y260765D01*
X906524D01*
Y259565D01*
Y260765D01*
X904724D01*
X907124Y257166D02*
X905324D01*
X904724Y256566D01*
Y254766D01*
X907124D01*
X904724Y253567D02*
Y251767D01*
X905324Y251168D01*
X905924Y251767D01*
Y252967D01*
X906524Y253567D01*
X907124Y252967D01*
Y251168D01*
X904724Y248168D02*
Y249368D01*
X905324Y249968D01*
X906524D01*
X907124Y249368D01*
Y248168D01*
X906524Y247569D01*
X905924D01*
Y249968D01*
X754869Y104331D02*
X755469Y103731D01*
Y102531D01*
X754869Y101932D01*
X752470D01*
X751870Y102531D01*
Y103731D01*
X752470Y104331D01*
X754869D01*
X751870Y100732D02*
X752470D01*
Y100132D01*
X751870D01*
Y100732D01*
Y97733D02*
Y96533D01*
Y97133D01*
X755469D01*
X754869Y97733D01*
X751870Y94734D02*
X754269D01*
X755469Y93534D01*
X754269Y92335D01*
X751870D01*
X753670D01*
Y94734D01*
X755469Y85137D02*
Y87536D01*
X753670D01*
Y86336D01*
Y87536D01*
X751870D01*
X754269Y83937D02*
X752470D01*
X751870Y83337D01*
Y81538D01*
X754269D01*
X751870Y80339D02*
Y78539D01*
X752470Y77939D01*
X753070Y78539D01*
Y79739D01*
X753670Y80339D01*
X754269Y79739D01*
Y77939D01*
X751870Y74940D02*
Y76140D01*
X752470Y76740D01*
X753670D01*
X754269Y76140D01*
Y74940D01*
X753670Y74340D01*
X753070D01*
Y76740D01*
X726621Y277559D02*
X727221Y276959D01*
Y275760D01*
X726621Y275160D01*
X724222D01*
X723622Y275760D01*
Y276959D01*
X724222Y277559D01*
X726621D01*
X723622Y273960D02*
X724222D01*
Y273360D01*
X723622D01*
Y273960D01*
Y270961D02*
Y269762D01*
Y270361D01*
X727221D01*
X726621Y270961D01*
X723622Y267962D02*
X726021D01*
X727221Y266763D01*
X726021Y265563D01*
X723622D01*
X725421D01*
Y267962D01*
X727221Y258365D02*
Y260765D01*
X725421D01*
Y259565D01*
Y260765D01*
X723622D01*
X726021Y257166D02*
X724222D01*
X723622Y256566D01*
Y254766D01*
X726021D01*
X723622Y253567D02*
Y251767D01*
X724222Y251168D01*
X724822Y251767D01*
Y252967D01*
X725421Y253567D01*
X726021Y252967D01*
Y251168D01*
X723622Y248168D02*
Y249368D01*
X724222Y249968D01*
X725421D01*
X726021Y249368D01*
Y248168D01*
X725421Y247569D01*
X724822D01*
Y249968D01*
X573767Y104331D02*
X574367Y103731D01*
Y102531D01*
X573767Y101932D01*
X571368D01*
X570768Y102531D01*
Y103731D01*
X571368Y104331D01*
X573767D01*
X570768Y100732D02*
X571368D01*
Y100132D01*
X570768D01*
Y100732D01*
Y97733D02*
Y96533D01*
Y97133D01*
X574367D01*
X573767Y97733D01*
X570768Y94734D02*
X573167D01*
X574367Y93534D01*
X573167Y92335D01*
X570768D01*
X572567D01*
Y94734D01*
X574367Y85137D02*
Y87536D01*
X572567D01*
Y86336D01*
Y87536D01*
X570768D01*
X573167Y83937D02*
X571368D01*
X570768Y83337D01*
Y81538D01*
X573167D01*
X570768Y80339D02*
Y78539D01*
X571368Y77939D01*
X571967Y78539D01*
Y79739D01*
X572567Y80339D01*
X573167Y79739D01*
Y77939D01*
X570768Y74940D02*
Y76140D01*
X571368Y76740D01*
X572567D01*
X573167Y76140D01*
Y74940D01*
X572567Y74340D01*
X571967D01*
Y76740D01*
X545519Y277559D02*
X546118Y276959D01*
Y275760D01*
X545519Y275160D01*
X543119D01*
X542520Y275760D01*
Y276959D01*
X543119Y277559D01*
X545519D01*
X542520Y273960D02*
X543119D01*
Y273360D01*
X542520D01*
Y273960D01*
Y270961D02*
Y269762D01*
Y270361D01*
X546118D01*
X545519Y270961D01*
X542520Y267962D02*
X544919D01*
X546118Y266763D01*
X544919Y265563D01*
X542520D01*
X544319D01*
Y267962D01*
X546118Y258365D02*
Y260765D01*
X544319D01*
Y259565D01*
Y260765D01*
X542520D01*
X544919Y257166D02*
X543119D01*
X542520Y256566D01*
Y254766D01*
X544919D01*
X542520Y253567D02*
Y251767D01*
X543119Y251168D01*
X543719Y251767D01*
Y252967D01*
X544319Y253567D01*
X544919Y252967D01*
Y251168D01*
X542520Y248168D02*
Y249368D01*
X543119Y249968D01*
X544319D01*
X544919Y249368D01*
Y248168D01*
X544319Y247569D01*
X543719D01*
Y249968D01*
X392664Y104331D02*
X393264Y103731D01*
Y102531D01*
X392664Y101932D01*
X390265D01*
X389665Y102531D01*
Y103731D01*
X390265Y104331D01*
X392664D01*
X389665Y100732D02*
X390265D01*
Y100132D01*
X389665D01*
Y100732D01*
Y97733D02*
Y96533D01*
Y97133D01*
X393264D01*
X392664Y97733D01*
X389665Y94734D02*
X392065D01*
X393264Y93534D01*
X392065Y92335D01*
X389665D01*
X391465D01*
Y94734D01*
X393264Y85137D02*
Y87536D01*
X391465D01*
Y86336D01*
Y87536D01*
X389665D01*
X392065Y83937D02*
X390265D01*
X389665Y83337D01*
Y81538D01*
X392065D01*
X389665Y80339D02*
Y78539D01*
X390265Y77939D01*
X390865Y78539D01*
Y79739D01*
X391465Y80339D01*
X392065Y79739D01*
Y77939D01*
X389665Y74940D02*
Y76140D01*
X390265Y76740D01*
X391465D01*
X392065Y76140D01*
Y74940D01*
X391465Y74340D01*
X390865D01*
Y76740D01*
X364416Y277559D02*
X365016Y276959D01*
Y275760D01*
X364416Y275160D01*
X362017D01*
X361417Y275760D01*
Y276959D01*
X362017Y277559D01*
X364416D01*
X361417Y273960D02*
X362017D01*
Y273360D01*
X361417D01*
Y273960D01*
Y270961D02*
Y269762D01*
Y270361D01*
X365016D01*
X364416Y270961D01*
X361417Y267962D02*
X363816D01*
X365016Y266763D01*
X363816Y265563D01*
X361417D01*
X363217D01*
Y267962D01*
X365016Y258365D02*
Y260765D01*
X363217D01*
Y259565D01*
Y260765D01*
X361417D01*
X363816Y257166D02*
X362017D01*
X361417Y256566D01*
Y254766D01*
X363816D01*
X361417Y253567D02*
Y251767D01*
X362017Y251168D01*
X362617Y251767D01*
Y252967D01*
X363217Y253567D01*
X363816Y252967D01*
Y251168D01*
X361417Y248168D02*
Y249368D01*
X362017Y249968D01*
X363217D01*
X363816Y249368D01*
Y248168D01*
X363217Y247569D01*
X362617D01*
Y249968D01*
X211562Y104331D02*
X212162Y103731D01*
Y102531D01*
X211562Y101932D01*
X209163D01*
X208563Y102531D01*
Y103731D01*
X209163Y104331D01*
X211562D01*
X208563Y100732D02*
X209163D01*
Y100132D01*
X208563D01*
Y100732D01*
Y97733D02*
Y96533D01*
Y97133D01*
X212162D01*
X211562Y97733D01*
X208563Y94734D02*
X210962D01*
X212162Y93534D01*
X210962Y92335D01*
X208563D01*
X210362D01*
Y94734D01*
X212162Y85137D02*
Y87536D01*
X210362D01*
Y86336D01*
Y87536D01*
X208563D01*
X210962Y83937D02*
X209163D01*
X208563Y83337D01*
Y81538D01*
X210962D01*
X208563Y80339D02*
Y78539D01*
X209163Y77939D01*
X209763Y78539D01*
Y79739D01*
X210362Y80339D01*
X210962Y79739D01*
Y77939D01*
X208563Y74940D02*
Y76140D01*
X209163Y76740D01*
X210362D01*
X210962Y76140D01*
Y74940D01*
X210362Y74340D01*
X209763D01*
Y76740D01*
X183314Y277559D02*
X183914Y276959D01*
Y275760D01*
X183314Y275160D01*
X180915D01*
X180315Y275760D01*
Y276959D01*
X180915Y277559D01*
X183314D01*
X180315Y273960D02*
X180915D01*
Y273360D01*
X180315D01*
Y273960D01*
Y270961D02*
Y269762D01*
Y270361D01*
X183914D01*
X183314Y270961D01*
X180315Y267962D02*
X182714D01*
X183914Y266763D01*
X182714Y265563D01*
X180315D01*
X182114D01*
Y267962D01*
X183914Y258365D02*
Y260765D01*
X182114D01*
Y259565D01*
Y260765D01*
X180315D01*
X182714Y257166D02*
X180915D01*
X180315Y256566D01*
Y254766D01*
X182714D01*
X180315Y253567D02*
Y251767D01*
X180915Y251168D01*
X181515Y251767D01*
Y252967D01*
X182114Y253567D01*
X182714Y252967D01*
Y251168D01*
X180315Y248168D02*
Y249368D01*
X180915Y249968D01*
X182114D01*
X182714Y249368D01*
Y248168D01*
X182114Y247569D01*
X181515D01*
Y249968D01*
X1542074Y185593D02*
X1542674Y186193D01*
Y187392D01*
X1542074Y187992D01*
X1539675D01*
X1539075Y187392D01*
Y186193D01*
X1539675Y185593D01*
X1539075Y184393D02*
X1541474D01*
X1542674Y183194D01*
X1541474Y181994D01*
X1539075D01*
X1540874D01*
Y184393D01*
X1539075Y180795D02*
X1542674D01*
Y178995D01*
X1542074Y178395D01*
X1540874D01*
X1540274Y178995D01*
Y180795D01*
X1539075Y173597D02*
Y172397D01*
Y172997D01*
X1542674D01*
X1542074Y173597D01*
Y170598D02*
X1542674Y169998D01*
Y168798D01*
X1542074Y168199D01*
X1539675D01*
X1539075Y168798D01*
Y169998D01*
X1539675Y170598D01*
X1542074D01*
X1539075Y166999D02*
X1541474D01*
Y165199D01*
X1540874Y164600D01*
X1539075D01*
X1388826Y185790D02*
X1389426Y186390D01*
Y187589D01*
X1388826Y188189D01*
X1386427D01*
X1385827Y187589D01*
Y186390D01*
X1386427Y185790D01*
X1385827Y184590D02*
X1388226D01*
X1389426Y183390D01*
X1388226Y182191D01*
X1385827D01*
X1387626D01*
Y184590D01*
X1385827Y180991D02*
X1389426D01*
Y179192D01*
X1388826Y178592D01*
X1387626D01*
X1387026Y179192D01*
Y180991D01*
X1385827Y173794D02*
Y172594D01*
Y173194D01*
X1389426D01*
X1388826Y173794D01*
Y170795D02*
X1389426Y170195D01*
Y168995D01*
X1388826Y168395D01*
X1386427D01*
X1385827Y168995D01*
Y170195D01*
X1386427Y170795D01*
X1388826D01*
X1385827Y167196D02*
X1388226D01*
Y165396D01*
X1387626Y164796D01*
X1385827D01*
X1360972Y185593D02*
X1361571Y186193D01*
Y187392D01*
X1360972Y187992D01*
X1358572D01*
X1357973Y187392D01*
Y186193D01*
X1358572Y185593D01*
X1357973Y184393D02*
X1360372D01*
X1361571Y183194D01*
X1360372Y181994D01*
X1357973D01*
X1359772D01*
Y184393D01*
X1357973Y180795D02*
X1361571D01*
Y178995D01*
X1360972Y178395D01*
X1359772D01*
X1359172Y178995D01*
Y180795D01*
X1357973Y173597D02*
Y172397D01*
Y172997D01*
X1361571D01*
X1360972Y173597D01*
Y170598D02*
X1361571Y169998D01*
Y168798D01*
X1360972Y168199D01*
X1358572D01*
X1357973Y168798D01*
Y169998D01*
X1358572Y170598D01*
X1360972D01*
X1357973Y166999D02*
X1360372D01*
Y165199D01*
X1359772Y164600D01*
X1357973D01*
X1207723Y185790D02*
X1208323Y186390D01*
Y187589D01*
X1207723Y188189D01*
X1205324D01*
X1204724Y187589D01*
Y186390D01*
X1205324Y185790D01*
X1204724Y184590D02*
X1207124D01*
X1208323Y183390D01*
X1207124Y182191D01*
X1204724D01*
X1206524D01*
Y184590D01*
X1204724Y180991D02*
X1208323D01*
Y179192D01*
X1207723Y178592D01*
X1206524D01*
X1205924Y179192D01*
Y180991D01*
X1204724Y173794D02*
Y172594D01*
Y173194D01*
X1208323D01*
X1207723Y173794D01*
Y170795D02*
X1208323Y170195D01*
Y168995D01*
X1207723Y168395D01*
X1205324D01*
X1204724Y168995D01*
Y170195D01*
X1205324Y170795D01*
X1207723D01*
X1204724Y167196D02*
X1207124D01*
Y165396D01*
X1206524Y164796D01*
X1204724D01*
X1179869Y185593D02*
X1180469Y186193D01*
Y187392D01*
X1179869Y187992D01*
X1177470D01*
X1176870Y187392D01*
Y186193D01*
X1177470Y185593D01*
X1176870Y184393D02*
X1179269D01*
X1180469Y183194D01*
X1179269Y181994D01*
X1176870D01*
X1178669D01*
Y184393D01*
X1176870Y180795D02*
X1180469D01*
Y178995D01*
X1179869Y178395D01*
X1178669D01*
X1178070Y178995D01*
Y180795D01*
X1176870Y173597D02*
Y172397D01*
Y172997D01*
X1180469D01*
X1179869Y173597D01*
Y170598D02*
X1180469Y169998D01*
Y168798D01*
X1179869Y168199D01*
X1177470D01*
X1176870Y168798D01*
Y169998D01*
X1177470Y170598D01*
X1179869D01*
X1176870Y166999D02*
X1179269D01*
Y165199D01*
X1178669Y164600D01*
X1176870D01*
X1026621Y185790D02*
X1027221Y186390D01*
Y187589D01*
X1026621Y188189D01*
X1024222D01*
X1023622Y187589D01*
Y186390D01*
X1024222Y185790D01*
X1023622Y184590D02*
X1026021D01*
X1027221Y183390D01*
X1026021Y182191D01*
X1023622D01*
X1025422D01*
Y184590D01*
X1023622Y180991D02*
X1027221D01*
Y179192D01*
X1026621Y178592D01*
X1025422D01*
X1024822Y179192D01*
Y180991D01*
X1023622Y173794D02*
Y172594D01*
Y173194D01*
X1027221D01*
X1026621Y173794D01*
Y170795D02*
X1027221Y170195D01*
Y168995D01*
X1026621Y168395D01*
X1024222D01*
X1023622Y168995D01*
Y170195D01*
X1024222Y170795D01*
X1026621D01*
X1023622Y167196D02*
X1026021D01*
Y165396D01*
X1025422Y164796D01*
X1023622D01*
X998767Y185593D02*
X999367Y186193D01*
Y187392D01*
X998767Y187992D01*
X996367D01*
X995768Y187392D01*
Y186193D01*
X996367Y185593D01*
X995768Y184393D02*
X998167D01*
X999367Y183194D01*
X998167Y181994D01*
X995768D01*
X997567D01*
Y184393D01*
X995768Y180795D02*
X999367D01*
Y178995D01*
X998767Y178395D01*
X997567D01*
X996967Y178995D01*
Y180795D01*
X995768Y173597D02*
Y172397D01*
Y172997D01*
X999367D01*
X998767Y173597D01*
Y170598D02*
X999367Y169998D01*
Y168798D01*
X998767Y168199D01*
X996367D01*
X995768Y168798D01*
Y169998D01*
X996367Y170598D01*
X998767D01*
X995768Y166999D02*
X998167D01*
Y165199D01*
X997567Y164600D01*
X995768D01*
X845519Y185790D02*
X846119Y186390D01*
Y187589D01*
X845519Y188189D01*
X843120D01*
X842520Y187589D01*
Y186390D01*
X843120Y185790D01*
X842520Y184590D02*
X844919D01*
X846119Y183390D01*
X844919Y182191D01*
X842520D01*
X844319D01*
Y184590D01*
X842520Y180991D02*
X846119D01*
Y179192D01*
X845519Y178592D01*
X844319D01*
X843719Y179192D01*
Y180991D01*
X842520Y173794D02*
Y172594D01*
Y173194D01*
X846119D01*
X845519Y173794D01*
Y170795D02*
X846119Y170195D01*
Y168995D01*
X845519Y168395D01*
X843120D01*
X842520Y168995D01*
Y170195D01*
X843120Y170795D01*
X845519D01*
X842520Y167196D02*
X844919D01*
Y165396D01*
X844319Y164796D01*
X842520D01*
X817664Y185593D02*
X818264Y186193D01*
Y187392D01*
X817664Y187992D01*
X815265D01*
X814665Y187392D01*
Y186193D01*
X815265Y185593D01*
X814665Y184393D02*
X817065D01*
X818264Y183194D01*
X817065Y181994D01*
X814665D01*
X816465D01*
Y184393D01*
X814665Y180795D02*
X818264D01*
Y178995D01*
X817664Y178395D01*
X816465D01*
X815865Y178995D01*
Y180795D01*
X814665Y173597D02*
Y172397D01*
Y172997D01*
X818264D01*
X817664Y173597D01*
Y170598D02*
X818264Y169998D01*
Y168798D01*
X817664Y168199D01*
X815265D01*
X814665Y168798D01*
Y169998D01*
X815265Y170598D01*
X817664D01*
X814665Y166999D02*
X817065D01*
Y165199D01*
X816465Y164600D01*
X814665D01*
X664416Y185790D02*
X665016Y186390D01*
Y187589D01*
X664416Y188189D01*
X662017D01*
X661417Y187589D01*
Y186390D01*
X662017Y185790D01*
X661417Y184590D02*
X663817D01*
X665016Y183390D01*
X663817Y182191D01*
X661417D01*
X663217D01*
Y184590D01*
X661417Y180991D02*
X665016D01*
Y179192D01*
X664416Y178592D01*
X663217D01*
X662617Y179192D01*
Y180991D01*
X661417Y173794D02*
Y172594D01*
Y173194D01*
X665016D01*
X664416Y173794D01*
Y170795D02*
X665016Y170195D01*
Y168995D01*
X664416Y168395D01*
X662017D01*
X661417Y168995D01*
Y170195D01*
X662017Y170795D01*
X664416D01*
X661417Y167196D02*
X663817D01*
Y165396D01*
X663217Y164796D01*
X661417D01*
X636562Y185593D02*
X637162Y186193D01*
Y187392D01*
X636562Y187992D01*
X634163D01*
X633563Y187392D01*
Y186193D01*
X634163Y185593D01*
X633563Y184393D02*
X635962D01*
X637162Y183194D01*
X635962Y181994D01*
X633563D01*
X635362D01*
Y184393D01*
X633563Y180795D02*
X637162D01*
Y178995D01*
X636562Y178395D01*
X635362D01*
X634763Y178995D01*
Y180795D01*
X633563Y173597D02*
Y172397D01*
Y172997D01*
X637162D01*
X636562Y173597D01*
Y170598D02*
X637162Y169998D01*
Y168798D01*
X636562Y168199D01*
X634163D01*
X633563Y168798D01*
Y169998D01*
X634163Y170598D01*
X636562D01*
X633563Y166999D02*
X635962D01*
Y165199D01*
X635362Y164600D01*
X633563D01*
X483314Y185790D02*
X483914Y186390D01*
Y187589D01*
X483314Y188189D01*
X480915D01*
X480315Y187589D01*
Y186390D01*
X480915Y185790D01*
X480315Y184590D02*
X482714D01*
X483914Y183390D01*
X482714Y182191D01*
X480315D01*
X482114D01*
Y184590D01*
X480315Y180991D02*
X483914D01*
Y179192D01*
X483314Y178592D01*
X482114D01*
X481515Y179192D01*
Y180991D01*
X480315Y173794D02*
Y172594D01*
Y173194D01*
X483914D01*
X483314Y173794D01*
Y170795D02*
X483914Y170195D01*
Y168995D01*
X483314Y168395D01*
X480915D01*
X480315Y168995D01*
Y170195D01*
X480915Y170795D01*
X483314D01*
X480315Y167196D02*
X482714D01*
Y165396D01*
X482114Y164796D01*
X480315D01*
X455460Y185593D02*
X456060Y186193D01*
Y187392D01*
X455460Y187992D01*
X453060D01*
X452461Y187392D01*
Y186193D01*
X453060Y185593D01*
X452461Y184393D02*
X454860D01*
X456060Y183194D01*
X454860Y181994D01*
X452461D01*
X454260D01*
Y184393D01*
X452461Y180795D02*
X456060D01*
Y178995D01*
X455460Y178395D01*
X454260D01*
X453660Y178995D01*
Y180795D01*
X452461Y173597D02*
Y172397D01*
Y172997D01*
X456060D01*
X455460Y173597D01*
Y170598D02*
X456060Y169998D01*
Y168798D01*
X455460Y168199D01*
X453060D01*
X452461Y168798D01*
Y169998D01*
X453060Y170598D01*
X455460D01*
X452461Y166999D02*
X454860D01*
Y165199D01*
X454260Y164600D01*
X452461D01*
X302212Y185790D02*
X302811Y186390D01*
Y187589D01*
X302212Y188189D01*
X299812D01*
X299213Y187589D01*
Y186390D01*
X299812Y185790D01*
X299213Y184590D02*
X301612D01*
X302811Y183390D01*
X301612Y182191D01*
X299213D01*
X301012D01*
Y184590D01*
X299213Y180991D02*
X302811D01*
Y179192D01*
X302212Y178592D01*
X301012D01*
X300412Y179192D01*
Y180991D01*
X299213Y173794D02*
Y172594D01*
Y173194D01*
X302811D01*
X302212Y173794D01*
Y170795D02*
X302811Y170195D01*
Y168995D01*
X302212Y168395D01*
X299812D01*
X299213Y168995D01*
Y170195D01*
X299812Y170795D01*
X302212D01*
X299213Y167196D02*
X301612D01*
Y165396D01*
X301012Y164796D01*
X299213D01*
X274357Y185593D02*
X274957Y186193D01*
Y187392D01*
X274357Y187992D01*
X271958D01*
X271358Y187392D01*
Y186193D01*
X271958Y185593D01*
X271358Y184393D02*
X273758D01*
X274957Y183194D01*
X273758Y181994D01*
X271358D01*
X273158D01*
Y184393D01*
X271358Y180795D02*
X274957D01*
Y178995D01*
X274357Y178395D01*
X273158D01*
X272558Y178995D01*
Y180795D01*
X271358Y173597D02*
Y172397D01*
Y172997D01*
X274957D01*
X274357Y173597D01*
Y170598D02*
X274957Y169998D01*
Y168798D01*
X274357Y168199D01*
X271958D01*
X271358Y168798D01*
Y169998D01*
X271958Y170598D01*
X274357D01*
X271358Y166999D02*
X273758D01*
Y165199D01*
X273158Y164600D01*
X271358D01*
X121109Y185790D02*
X121709Y186390D01*
Y187589D01*
X121109Y188189D01*
X118710D01*
X118110Y187589D01*
Y186390D01*
X118710Y185790D01*
X118110Y184590D02*
X120510D01*
X121709Y183390D01*
X120510Y182191D01*
X118110D01*
X119910D01*
Y184590D01*
X118110Y180991D02*
X121709D01*
Y179192D01*
X121109Y178592D01*
X119910D01*
X119310Y179192D01*
Y180991D01*
X118110Y173794D02*
Y172594D01*
Y173194D01*
X121709D01*
X121109Y173794D01*
Y170795D02*
X121709Y170195D01*
Y168995D01*
X121109Y168395D01*
X118710D01*
X118110Y168995D01*
Y170195D01*
X118710Y170795D01*
X121109D01*
X118110Y167196D02*
X120510D01*
Y165396D01*
X119910Y164796D01*
X118110D01*
D12*
X54823Y294089D02*
X58821Y288090D01*
Y294089D02*
X54823Y288090D01*
X60821Y287091D02*
X64820D01*
X66819Y294089D02*
Y290090D01*
X68818Y288090D01*
X70818Y290090D01*
Y294089D01*
X72817Y287091D02*
X76816D01*
X78815Y288090D02*
Y292089D01*
X80814Y294089D01*
X82814Y292089D01*
Y288090D01*
Y291090D01*
X78815D01*
X54823Y64856D02*
X58821Y58858D01*
Y64856D02*
X54823Y58858D01*
X60821Y57859D02*
X64820D01*
X66819Y64856D02*
X70818D01*
X68818D01*
Y58858D01*
X72817Y57859D02*
X76816D01*
X78815Y64856D02*
Y58858D01*
X81814D01*
X82814Y59858D01*
Y60858D01*
X81814Y61857D01*
X78815D01*
X81814D01*
X82814Y62857D01*
Y63857D01*
X81814Y64856D01*
X78815D01*
M02*
