G04*
G04 #@! TF.GenerationSoftware,Altium Limited,Altium Designer,19.0.12 (326)*
G04*
G04 Layer_Physical_Order=1*
G04 Layer_Color=255*
%FSLAX25Y25*%
%MOIN*%
G70*
G01*
G75*
%ADD11C,0.01000*%
G04:AMPARAMS|DCode=26|XSize=39.37mil|YSize=31.5mil|CornerRadius=0mil|HoleSize=0mil|Usage=FLASHONLY|Rotation=173.000|XOffset=0mil|YOffset=0mil|HoleType=Round|Shape=Rectangle|*
%AMROTATEDRECTD26*
4,1,4,0.02146,0.01323,0.01762,-0.01803,-0.02146,-0.01323,-0.01762,0.01803,0.02146,0.01323,0.0*
%
%ADD26ROTATEDRECTD26*%

G04:AMPARAMS|DCode=27|XSize=39.37mil|YSize=31.5mil|CornerRadius=0mil|HoleSize=0mil|Usage=FLASHONLY|Rotation=187.000|XOffset=0mil|YOffset=0mil|HoleType=Round|Shape=Rectangle|*
%AMROTATEDRECTD27*
4,1,4,0.01762,0.01803,0.02146,-0.01323,-0.01762,-0.01803,-0.02146,0.01323,0.01762,0.01803,0.0*
%
%ADD27ROTATEDRECTD27*%

G04:AMPARAMS|DCode=28|XSize=39.37mil|YSize=31.5mil|CornerRadius=0mil|HoleSize=0mil|Usage=FLASHONLY|Rotation=201.000|XOffset=0mil|YOffset=0mil|HoleType=Round|Shape=Rectangle|*
%AMROTATEDRECTD28*
4,1,4,0.01273,0.02176,0.02402,-0.00765,-0.01273,-0.02176,-0.02402,0.00765,0.01273,0.02176,0.0*
%
%ADD28ROTATEDRECTD28*%

G04:AMPARAMS|DCode=29|XSize=39.37mil|YSize=31.5mil|CornerRadius=0mil|HoleSize=0mil|Usage=FLASHONLY|Rotation=159.000|XOffset=0mil|YOffset=0mil|HoleType=Round|Shape=Rectangle|*
%AMROTATEDRECTD29*
4,1,4,0.02402,0.00765,0.01273,-0.02176,-0.02402,-0.00765,-0.01273,0.02176,0.02402,0.00765,0.0*
%
%ADD29ROTATEDRECTD29*%

G04:AMPARAMS|DCode=30|XSize=39.37mil|YSize=31.5mil|CornerRadius=0mil|HoleSize=0mil|Usage=FLASHONLY|Rotation=145.000|XOffset=0mil|YOffset=0mil|HoleType=Round|Shape=Rectangle|*
%AMROTATEDRECTD30*
4,1,4,0.02516,0.00161,0.00709,-0.02419,-0.02516,-0.00161,-0.00709,0.02419,0.02516,0.00161,0.0*
%
%ADD30ROTATEDRECTD30*%

G04:AMPARAMS|DCode=31|XSize=39.37mil|YSize=31.5mil|CornerRadius=0mil|HoleSize=0mil|Usage=FLASHONLY|Rotation=131.000|XOffset=0mil|YOffset=0mil|HoleType=Round|Shape=Rectangle|*
%AMROTATEDRECTD31*
4,1,4,0.02480,-0.00453,0.00103,-0.02519,-0.02480,0.00453,-0.00103,0.02519,0.02480,-0.00453,0.0*
%
%ADD31ROTATEDRECTD31*%

G04:AMPARAMS|DCode=32|XSize=39.37mil|YSize=31.5mil|CornerRadius=0mil|HoleSize=0mil|Usage=FLASHONLY|Rotation=117.000|XOffset=0mil|YOffset=0mil|HoleType=Round|Shape=Rectangle|*
%AMROTATEDRECTD32*
4,1,4,0.02297,-0.01039,-0.00510,-0.02469,-0.02297,0.01039,0.00510,0.02469,0.02297,-0.01039,0.0*
%
%ADD32ROTATEDRECTD32*%

G04:AMPARAMS|DCode=33|XSize=39.37mil|YSize=31.5mil|CornerRadius=0mil|HoleSize=0mil|Usage=FLASHONLY|Rotation=103.000|XOffset=0mil|YOffset=0mil|HoleType=Round|Shape=Rectangle|*
%AMROTATEDRECTD33*
4,1,4,0.01977,-0.01564,-0.01092,-0.02272,-0.01977,0.01564,0.01092,0.02272,0.01977,-0.01564,0.0*
%
%ADD33ROTATEDRECTD33*%

G04:AMPARAMS|DCode=34|XSize=39.37mil|YSize=31.5mil|CornerRadius=0mil|HoleSize=0mil|Usage=FLASHONLY|Rotation=77.000|XOffset=0mil|YOffset=0mil|HoleType=Round|Shape=Rectangle|*
%AMROTATEDRECTD34*
4,1,4,0.01092,-0.02272,-0.01977,-0.01564,-0.01092,0.02272,0.01977,0.01564,0.01092,-0.02272,0.0*
%
%ADD34ROTATEDRECTD34*%

G04:AMPARAMS|DCode=35|XSize=39.37mil|YSize=31.5mil|CornerRadius=0mil|HoleSize=0mil|Usage=FLASHONLY|Rotation=63.000|XOffset=0mil|YOffset=0mil|HoleType=Round|Shape=Rectangle|*
%AMROTATEDRECTD35*
4,1,4,0.00510,-0.02469,-0.02297,-0.01039,-0.00510,0.02469,0.02297,0.01039,0.00510,-0.02469,0.0*
%
%ADD35ROTATEDRECTD35*%

G04:AMPARAMS|DCode=36|XSize=39.37mil|YSize=31.5mil|CornerRadius=0mil|HoleSize=0mil|Usage=FLASHONLY|Rotation=49.000|XOffset=0mil|YOffset=0mil|HoleType=Round|Shape=Rectangle|*
%AMROTATEDRECTD36*
4,1,4,-0.00103,-0.02519,-0.02480,-0.00453,0.00103,0.02519,0.02480,0.00453,-0.00103,-0.02519,0.0*
%
%ADD36ROTATEDRECTD36*%

G04:AMPARAMS|DCode=37|XSize=39.37mil|YSize=31.5mil|CornerRadius=0mil|HoleSize=0mil|Usage=FLASHONLY|Rotation=35.000|XOffset=0mil|YOffset=0mil|HoleType=Round|Shape=Rectangle|*
%AMROTATEDRECTD37*
4,1,4,-0.00709,-0.02419,-0.02516,0.00161,0.00709,0.02419,0.02516,-0.00161,-0.00709,-0.02419,0.0*
%
%ADD37ROTATEDRECTD37*%

%ADD38C,0.05000*%
%ADD39C,0.23622*%
G36*
X201735Y265145D02*
X206594Y264622D01*
X211404Y263754D01*
X216140Y262546D01*
X220778Y261002D01*
X225293Y259132D01*
X229664Y256944D01*
X233867Y254450D01*
X237882Y251662D01*
X241688Y248595D01*
X245265Y245265D01*
X248595Y241688D01*
X251662Y237882D01*
X254450Y233867D01*
X256944Y229664D01*
X259132Y225293D01*
X261002Y220778D01*
X262546Y216140D01*
X263754Y211404D01*
X264622Y206594D01*
X264894Y204067D01*
X264560Y203696D01*
X259850D01*
Y203708D01*
X258512Y203577D01*
X257226Y203186D01*
X256040Y202553D01*
X255001Y201700D01*
X254148Y200660D01*
X253514Y199475D01*
X253124Y198188D01*
X252992Y196850D01*
X253124Y195512D01*
X253514Y194226D01*
X254148Y193040D01*
X255001Y192001D01*
X256040Y191148D01*
X257226Y190514D01*
X258512Y190124D01*
X259850Y189992D01*
Y190005D01*
X264560D01*
X264894Y189633D01*
X264622Y187106D01*
X263754Y182296D01*
X262546Y177560D01*
X261002Y172923D01*
X259132Y168407D01*
X256944Y164037D01*
X254450Y159833D01*
X251662Y155819D01*
X248595Y152013D01*
X245265Y148436D01*
X241688Y145105D01*
X237882Y142038D01*
X233867Y139251D01*
X229664Y136757D01*
X225293Y134569D01*
X220778Y132699D01*
X216140Y131155D01*
X211404Y129946D01*
X206594Y129079D01*
X201735Y128556D01*
X196850Y128382D01*
X191966Y128556D01*
X187106Y129079D01*
X182296Y129946D01*
X177560Y131155D01*
X172923Y132699D01*
X168407Y134569D01*
X164037Y136757D01*
X159833Y139251D01*
X155819Y142038D01*
X152013Y145105D01*
X148436Y148436D01*
X145105Y152013D01*
X142038Y155819D01*
X139251Y159833D01*
X136757Y164037D01*
X134569Y168407D01*
X132699Y172923D01*
X131155Y177560D01*
X129946Y182296D01*
X129079Y187106D01*
X128807Y189633D01*
X129141Y190005D01*
X133850D01*
Y189992D01*
X135188Y190124D01*
X136475Y190514D01*
X137661Y191148D01*
X138700Y192001D01*
X139553Y193040D01*
X140186Y194226D01*
X140577Y195512D01*
X140708Y196850D01*
X140577Y198188D01*
X140186Y199475D01*
X139553Y200660D01*
X138700Y201700D01*
X137661Y202553D01*
X136475Y203186D01*
X135188Y203577D01*
X133850Y203708D01*
Y203696D01*
X129141D01*
X128807Y204067D01*
X129079Y206594D01*
X129946Y211404D01*
X131155Y216140D01*
X132699Y220778D01*
X134569Y225293D01*
X136757Y229664D01*
X139251Y233867D01*
X142038Y237882D01*
X145105Y241688D01*
X148436Y245265D01*
X152013Y248595D01*
X155819Y251662D01*
X159833Y254450D01*
X164037Y256944D01*
X168407Y259132D01*
X172923Y261002D01*
X177560Y262546D01*
X182296Y263754D01*
X187106Y264622D01*
X191966Y265145D01*
X196850Y265319D01*
X201735Y265145D01*
D02*
G37*
%LPC*%
G36*
X198260Y262562D02*
X198090Y261174D01*
X195611D01*
X195441Y262562D01*
X189548Y261838D01*
X190176Y256727D01*
X196068Y257451D01*
X196033Y257740D01*
X196364Y258115D01*
X197337D01*
X197668Y257740D01*
X197632Y257451D01*
X203525Y256727D01*
X204153Y261838D01*
X198260Y262562D01*
D02*
G37*
G36*
X188407Y261698D02*
X182514Y260975D01*
X182550Y260685D01*
X182219Y260310D01*
X179559D01*
X178974Y260194D01*
X178478Y259862D01*
X178447Y259832D01*
X173787Y258043D01*
X175633Y253235D01*
X181175Y255363D01*
X180608Y256839D01*
X180892Y257251D01*
X182971D01*
X183142Y255863D01*
X189035Y256587D01*
X188407Y261698D01*
D02*
G37*
G36*
X220987Y257631D02*
X220243Y255694D01*
X222548Y254809D01*
X223291Y256746D01*
X220987Y257631D01*
D02*
G37*
G36*
X224225Y256388D02*
X223481Y254451D01*
X225786Y253566D01*
X226530Y255503D01*
X224225Y256388D01*
D02*
G37*
G36*
X205294Y261698D02*
X204666Y256587D01*
X208418Y256126D01*
X208923Y255621D01*
X209419Y255290D01*
X210004Y255173D01*
X213019D01*
X218068Y253235D01*
X219914Y258043D01*
X214371Y260171D01*
X213627Y258232D01*
X211227D01*
X210896Y258607D01*
X211187Y260975D01*
X205294Y261698D01*
D02*
G37*
G36*
X219885Y254760D02*
X219142Y252823D01*
X221446Y251939D01*
X222189Y253876D01*
X219885Y254760D01*
D02*
G37*
G36*
X164802Y254348D02*
X162780Y252932D01*
X163970Y251233D01*
X165992Y252648D01*
X164802Y254348D01*
D02*
G37*
G36*
X161961Y252359D02*
X159939Y250943D01*
X161129Y249243D01*
X163151Y250659D01*
X161961Y252359D01*
D02*
G37*
G36*
X166566Y251829D02*
X164544Y250413D01*
X165734Y248714D01*
X167756Y250130D01*
X166566Y251829D01*
D02*
G37*
G36*
X172714Y257631D02*
X167171Y255503D01*
X169017Y250696D01*
X171295Y251570D01*
X175522Y247344D01*
X176018Y247012D01*
X176603Y246896D01*
X179849D01*
X185700Y241044D01*
X186196Y240713D01*
X186782Y240597D01*
X204225D01*
X205744Y239078D01*
X205711Y238579D01*
X205378Y238323D01*
X204817Y237592D01*
X204464Y236740D01*
X204344Y235827D01*
X204464Y234913D01*
X204817Y234062D01*
X205378Y233330D01*
X205408Y232873D01*
X202855Y230320D01*
X181321Y208786D01*
X138348D01*
X138037Y209177D01*
X138128Y209569D01*
X133110Y210728D01*
X131774Y204943D01*
X136792Y203784D01*
X137240Y205727D01*
X177609D01*
X177800Y205265D01*
X162766Y190231D01*
X162434Y189735D01*
X162318Y189149D01*
Y148297D01*
X162165Y147861D01*
X162165Y147861D01*
Y147861D01*
X161818Y147729D01*
X161620Y147868D01*
X157088Y151041D01*
X157025Y150951D01*
X156527Y150908D01*
X155807Y151628D01*
X155822Y152050D01*
Y152050D01*
X151927Y156531D01*
X148040Y153153D01*
X151935Y148672D01*
X153273Y149835D01*
X155020Y148089D01*
X154134Y146823D01*
X158997Y143417D01*
X161695Y147270D01*
X161818Y147446D01*
X162180Y147332D01*
Y147332D01*
X162180Y147332D01*
X162318Y146887D01*
Y146156D01*
X159939Y142758D01*
X164802Y139353D01*
X167756Y143571D01*
X165377Y145237D01*
Y188516D01*
X183036Y206175D01*
X201945Y225084D01*
X202407Y224893D01*
Y212993D01*
X202524Y212407D01*
X202855Y211911D01*
X221306Y193460D01*
Y186461D01*
X201149Y166304D01*
X200914Y166402D01*
X200000Y166522D01*
X199086Y166402D01*
X198235Y166049D01*
X197504Y165488D01*
X196943Y164757D01*
X196590Y163906D01*
X196470Y162992D01*
X196590Y162078D01*
X196943Y161227D01*
X197504Y160496D01*
X198235Y159935D01*
X199086Y159582D01*
X200000Y159462D01*
X200914Y159582D01*
X201765Y159935D01*
X202496Y160496D01*
X203057Y161227D01*
X203410Y162078D01*
X203530Y162992D01*
X203410Y163906D01*
X203312Y164141D01*
X220844Y181674D01*
X221306Y181482D01*
Y141708D01*
X219142Y140877D01*
X220987Y136070D01*
X226530Y138198D01*
X224684Y143005D01*
X224684D01*
X224365Y143225D01*
Y185828D01*
Y189748D01*
X224827Y189939D01*
X229403Y185363D01*
X229899Y185032D01*
X230485Y184915D01*
X255353D01*
X255664Y184524D01*
X255573Y184131D01*
X260591Y182973D01*
X261926Y188758D01*
X256909Y189916D01*
X256460Y187974D01*
X231118D01*
X223917Y195175D01*
X205466Y213626D01*
Y228605D01*
X208956Y232095D01*
X209287Y232591D01*
X209294Y232627D01*
X209639Y232769D01*
X210370Y233330D01*
X210931Y234062D01*
X211029Y234297D01*
X212205D01*
X212790Y234414D01*
X213286Y234745D01*
X227548Y249007D01*
X227549D01*
X230808Y246725D01*
X233762Y250943D01*
X228899Y254348D01*
X227300Y252066D01*
X226914D01*
X226329Y251949D01*
X225833Y251618D01*
X225412Y251197D01*
X224984Y251476D01*
X225428Y252633D01*
X223123Y253517D01*
X222380Y251580D01*
X224337Y250829D01*
X224461Y250246D01*
X211571Y237356D01*
X211029D01*
X210931Y237592D01*
X210370Y238323D01*
X209639Y238884D01*
X209403Y238982D01*
Y239110D01*
X209287Y239696D01*
X208956Y240192D01*
X205940Y243207D01*
X205444Y243539D01*
X204858Y243655D01*
X187415D01*
X181564Y249507D01*
X181068Y249838D01*
X180482Y249955D01*
X177237D01*
X174526Y252666D01*
X174559Y252823D01*
X174559Y252823D01*
X172714Y257631D01*
D02*
G37*
G36*
X163725Y249840D02*
X161703Y248424D01*
X162893Y246725D01*
X164915Y248140D01*
X163725Y249840D01*
D02*
G37*
G36*
X158997Y250283D02*
X154134Y246878D01*
X154716Y246047D01*
X152878Y244209D01*
X151935Y245029D01*
X148040Y240548D01*
X151927Y237170D01*
X155822Y241651D01*
X155469Y241957D01*
X155451Y242457D01*
X156222Y243228D01*
X156720Y243184D01*
X157088Y242660D01*
X161951Y246065D01*
X158997Y250283D01*
D02*
G37*
G36*
X234704Y250283D02*
X231750Y246065D01*
X236613Y242660D01*
X236676Y242749D01*
X237174Y242793D01*
X237894Y242073D01*
X237879Y241651D01*
Y241651D01*
X241774Y237170D01*
X245661Y240548D01*
X241766Y245029D01*
X240427Y243866D01*
X238681Y245612D01*
X239567Y246878D01*
X234704Y250283D01*
D02*
G37*
G36*
X187902Y239291D02*
Y236327D01*
X190866D01*
X190812Y236740D01*
X190459Y237592D01*
X189898Y238323D01*
X189167Y238884D01*
X188315Y239237D01*
X187902Y239291D01*
D02*
G37*
G36*
X186902D02*
X186488Y239237D01*
X185636Y238884D01*
X184905Y238323D01*
X184344Y237592D01*
X183992Y236740D01*
X183937Y236327D01*
X186902D01*
Y239291D01*
D02*
G37*
G36*
X190866Y235327D02*
X187902D01*
Y232362D01*
X188315Y232417D01*
X189167Y232769D01*
X189898Y233330D01*
X190459Y234062D01*
X190812Y234913D01*
X190866Y235327D01*
D02*
G37*
G36*
X186902D02*
X183937D01*
X183992Y234913D01*
X184344Y234062D01*
X184905Y233330D01*
X185636Y232769D01*
X186488Y232417D01*
X186902Y232362D01*
Y235327D01*
D02*
G37*
G36*
X197244Y239357D02*
X196330Y239237D01*
X195479Y238884D01*
X194748Y238323D01*
X194187Y237592D01*
X193834Y236740D01*
X193714Y235827D01*
X193834Y234913D01*
X194187Y234062D01*
X194748Y233330D01*
X195479Y232769D01*
X196330Y232417D01*
X197244Y232297D01*
X198158Y232417D01*
X199009Y232769D01*
X199740Y233330D01*
X200301Y234062D01*
X200654Y234913D01*
X200774Y235827D01*
X200654Y236740D01*
X200301Y237592D01*
X199740Y238323D01*
X199009Y238884D01*
X198158Y239237D01*
X197244Y239357D01*
D02*
G37*
G36*
X147286Y239681D02*
X143391Y235200D01*
X145087Y233725D01*
X145105Y233226D01*
X143170Y231291D01*
X141449Y232168D01*
X138754Y226878D01*
X143342Y224540D01*
X146038Y229830D01*
X146038Y229830D01*
X146037Y229833D01*
X148363Y232158D01*
X148695Y232654D01*
X148811Y233240D01*
Y233586D01*
X151172Y236302D01*
X147286Y239681D01*
D02*
G37*
G36*
X246415Y239681D02*
X242528Y236302D01*
X244890Y233586D01*
Y233240D01*
X245006Y232654D01*
X245338Y232158D01*
X247663Y229833D01*
X247663Y229830D01*
X247663Y229830D01*
X250358Y224540D01*
X254947Y226878D01*
X252251Y232168D01*
X250531Y231291D01*
X248596Y233226D01*
X248614Y233725D01*
X250310Y235200D01*
X246415Y239681D01*
D02*
G37*
G36*
X138232Y225854D02*
X135537Y220564D01*
X137649Y219487D01*
Y217428D01*
X137263Y217042D01*
X134704Y217633D01*
X133369Y211848D01*
X138386Y210689D01*
X139332Y214785D01*
X140260Y215713D01*
X140592Y216210D01*
X140708Y216795D01*
Y219370D01*
X142821Y223516D01*
X138232Y225854D01*
D02*
G37*
G36*
X255469Y225854D02*
X250880Y223516D01*
X253575Y218226D01*
X255296Y219103D01*
X255626Y218773D01*
Y216855D01*
X253979Y216474D01*
X255315Y210689D01*
X260332Y211848D01*
X258997Y217633D01*
X258997D01*
X258685Y217881D01*
Y219406D01*
X258569Y219991D01*
X258237Y220487D01*
X258172Y220553D01*
X257954Y220976D01*
X255469Y225854D01*
D02*
G37*
G36*
X260591Y210728D02*
X258569Y210261D01*
X259124Y207856D01*
X261146Y208323D01*
X260591Y210728D01*
D02*
G37*
G36*
X257595Y210036D02*
X255573Y209569D01*
X256129Y207164D01*
X258150Y207631D01*
X257595Y210036D01*
D02*
G37*
G36*
X261371Y207348D02*
X259349Y206881D01*
X259905Y204476D01*
X261926Y204943D01*
X261371Y207348D01*
D02*
G37*
G36*
X258375Y206657D02*
X256353Y206190D01*
X256909Y203784D01*
X258930Y204251D01*
X258375Y206657D01*
D02*
G37*
G36*
X136792Y189916D02*
X134770Y189450D01*
X135326Y187044D01*
X137347Y187511D01*
X136792Y189916D01*
D02*
G37*
G36*
X133796Y189225D02*
X131774Y188758D01*
X132330Y186353D01*
X134351Y186819D01*
X133796Y189225D01*
D02*
G37*
G36*
X196850Y209701D02*
X194840Y209543D01*
X192879Y209072D01*
X191016Y208300D01*
X189297Y207247D01*
X187764Y205937D01*
X186454Y204404D01*
X185400Y202684D01*
X184629Y200821D01*
X184158Y198861D01*
X184000Y196850D01*
X184158Y194840D01*
X184629Y192879D01*
X185400Y191016D01*
X186454Y189297D01*
X187764Y187764D01*
X189297Y186454D01*
X191016Y185400D01*
X192879Y184629D01*
X194840Y184158D01*
X196850Y184000D01*
X198861Y184158D01*
X200821Y184629D01*
X202684Y185400D01*
X204404Y186454D01*
X205937Y187764D01*
X207247Y189297D01*
X208300Y191016D01*
X209072Y192879D01*
X209543Y194840D01*
X209701Y196850D01*
X209543Y198861D01*
X209072Y200821D01*
X208300Y202684D01*
X207247Y204404D01*
X205937Y205937D01*
X204404Y207247D01*
X202684Y208300D01*
X200821Y209072D01*
X198861Y209543D01*
X196850Y209701D01*
D02*
G37*
G36*
X137572Y186537D02*
X135551Y186070D01*
X136106Y183665D01*
X138128Y184131D01*
X137572Y186537D01*
D02*
G37*
G36*
X134576Y185845D02*
X132555Y185378D01*
X133110Y182973D01*
X135132Y183440D01*
X134576Y185845D01*
D02*
G37*
G36*
X255315Y183011D02*
X254369Y178916D01*
X253441Y177987D01*
X253109Y177491D01*
X252993Y176906D01*
Y174331D01*
X250880Y170185D01*
X255469Y167847D01*
X258164Y173137D01*
X256051Y174213D01*
Y176272D01*
X256438Y176659D01*
X258997Y176068D01*
X260332Y181853D01*
X255315Y183011D01*
D02*
G37*
G36*
X138386Y183011D02*
X133369Y181853D01*
X134704Y176068D01*
X134704D01*
X135016Y175820D01*
Y174295D01*
X135132Y173709D01*
X135464Y173213D01*
X135529Y173148D01*
X135747Y172725D01*
X138232Y167847D01*
X142821Y170185D01*
X140125Y175475D01*
X138405Y174598D01*
X138075Y174928D01*
Y176846D01*
X139722Y177226D01*
X138386Y183011D01*
D02*
G37*
G36*
X250358Y169161D02*
X247663Y163871D01*
X247663Y163871D01*
X247663Y163868D01*
X245338Y161543D01*
X245006Y161046D01*
X244890Y160461D01*
Y160115D01*
X242528Y157399D01*
X246415Y154020D01*
X250310Y158501D01*
X248614Y159976D01*
X248596Y160475D01*
X250531Y162410D01*
X252251Y161533D01*
X254947Y166823D01*
X250358Y169161D01*
D02*
G37*
G36*
X187008Y166442D02*
X186094Y166321D01*
X185243Y165969D01*
X184512Y165408D01*
X183951Y164676D01*
X183598Y163825D01*
X183478Y162911D01*
X183598Y161998D01*
X183951Y161146D01*
X184512Y160415D01*
X185243Y159854D01*
X186094Y159501D01*
X187008Y159381D01*
X187922Y159501D01*
X188773Y159854D01*
X189504Y160415D01*
X190065Y161146D01*
X190418Y161998D01*
X190538Y162911D01*
X190418Y163825D01*
X190065Y164676D01*
X189504Y165408D01*
X188773Y165969D01*
X187922Y166321D01*
X187008Y166442D01*
D02*
G37*
G36*
X143342Y169161D02*
X138754Y166823D01*
X140918Y162575D01*
X140983Y162250D01*
X141315Y161754D01*
X141360Y161708D01*
X141449Y161533D01*
X141507Y161562D01*
X143761Y159307D01*
X143744Y158808D01*
X143391Y158501D01*
X147286Y154020D01*
X151172Y157399D01*
X147277Y161879D01*
X146335Y161060D01*
X144673Y162721D01*
X144751Y163215D01*
X146038Y163871D01*
X143342Y169161D01*
D02*
G37*
G36*
X241774Y156531D02*
X237879Y152050D01*
X238232Y151744D01*
X238249Y151244D01*
X237478Y150473D01*
X236981Y150517D01*
X236613Y151041D01*
X231750Y147636D01*
X234704Y143417D01*
X239567Y146823D01*
X238985Y147654D01*
X240823Y149491D01*
X241766Y148672D01*
X245661Y153153D01*
X241774Y156531D01*
D02*
G37*
G36*
X230808Y146976D02*
X228786Y145560D01*
X229976Y143861D01*
X231998Y145277D01*
X230808Y146976D01*
D02*
G37*
G36*
X227967Y144987D02*
X225945Y143571D01*
X227135Y141871D01*
X229157Y143287D01*
X227967Y144987D01*
D02*
G37*
G36*
X232572Y144458D02*
X230550Y143042D01*
X231740Y141342D01*
X233762Y142758D01*
X232572Y144458D01*
D02*
G37*
G36*
X169017Y143005D02*
X168273Y141068D01*
X170578Y140183D01*
X171321Y142121D01*
X169017Y143005D01*
D02*
G37*
G36*
X229731Y142468D02*
X227709Y141052D01*
X228899Y139353D01*
X230921Y140769D01*
X229731Y142468D01*
D02*
G37*
G36*
X172255Y141762D02*
X171511Y139825D01*
X173816Y138941D01*
X174559Y140877D01*
X172255Y141762D01*
D02*
G37*
G36*
X167915Y140135D02*
X167171Y138198D01*
X169476Y137313D01*
X170219Y139250D01*
X167915Y140135D01*
D02*
G37*
G36*
X171153Y138892D02*
X170409Y136955D01*
X172714Y136070D01*
X173457Y138007D01*
X171153Y138892D01*
D02*
G37*
G36*
X218068Y140465D02*
X213019Y138527D01*
X210004D01*
X209419Y138411D01*
X208923Y138079D01*
X208418Y137575D01*
X204666Y137114D01*
X205294Y132003D01*
X211187Y132726D01*
X210896Y135094D01*
X211227Y135468D01*
X213627D01*
X214371Y133530D01*
X219914Y135658D01*
X218068Y140465D01*
D02*
G37*
G36*
X175633D02*
X173787Y135658D01*
X179330Y133530D01*
X180074Y135468D01*
X182474D01*
X182805Y135094D01*
X182514Y132726D01*
X188407Y132003D01*
X189035Y137114D01*
X185283Y137575D01*
X184778Y138079D01*
X184282Y138411D01*
X183696Y138527D01*
X180682D01*
X175633Y140465D01*
D02*
G37*
G36*
X190176Y136974D02*
X189548Y131862D01*
X195441Y131139D01*
X195611Y132527D01*
X198090D01*
X198260Y131139D01*
X204153Y131862D01*
X203525Y136974D01*
X197632Y136250D01*
X197668Y135960D01*
X197337Y135586D01*
X196364D01*
X196033Y135960D01*
X196068Y136250D01*
X190176Y136974D01*
D02*
G37*
%LPD*%
D11*
X222835Y139538D02*
Y185828D01*
Y194094D01*
X200000Y162992D02*
X222835Y185828D01*
X204858Y242126D02*
X207874Y239110D01*
X186782Y242126D02*
X204858D01*
X180482Y248425D02*
X186782Y242126D01*
X207874Y235827D02*
Y239110D01*
X163847Y143165D02*
Y189149D01*
X181954Y207256D01*
X203937Y229239D01*
X176603Y248425D02*
X180482D01*
X170865Y254163D02*
X176603Y248425D01*
X134951Y207256D02*
X181954D01*
X203937Y212993D02*
Y229239D01*
Y212993D02*
X222835Y194094D01*
X230485Y186445D02*
X258750D01*
X222835Y194094D02*
X230485Y186445D01*
X203937Y229239D02*
X207874Y233176D01*
Y235827D01*
X212205D01*
X226914Y250536D01*
X229853D01*
X136545Y214161D02*
X139179Y216795D01*
Y222040D01*
X142396Y228354D02*
X147282Y233240D01*
Y235751D01*
X151931Y241099D02*
X157303Y246472D01*
X158042D01*
X177481Y256703D02*
X179559Y258781D01*
X185774D01*
X192808Y259644D02*
X200893D01*
X207926Y258781D02*
X210004Y256703D01*
X216220D01*
X235658Y246472D02*
X241031Y241099D01*
X241770D01*
X246419Y233240D02*
Y235751D01*
Y233240D02*
X251305Y228354D01*
X254522Y222040D02*
X257156Y219406D01*
Y214161D02*
Y219406D01*
X254522Y176906D02*
X257156Y179540D01*
X254522Y171661D02*
Y176906D01*
X246419Y160461D02*
X251305Y165347D01*
X246419Y157950D02*
Y160461D01*
X236398Y147229D02*
X241770Y152601D01*
X235658Y147229D02*
X236398D01*
X210004Y136998D02*
X216220D01*
X207926Y134920D02*
X210004Y136998D01*
X200892Y134056D02*
X200893Y134056D01*
X192808Y134056D02*
X200892D01*
X183696Y136998D02*
X185774Y134920D01*
X177481Y136998D02*
X183696D01*
X152670Y152601D02*
X158042Y147229D01*
X151931Y152601D02*
X152670D01*
X142396Y162835D02*
X147282Y157950D01*
X142396Y162835D02*
Y165347D01*
X136545Y174295D02*
X139179Y171661D01*
X136545Y174295D02*
Y179540D01*
D26*
X207926Y258781D02*
D03*
X200893Y259644D02*
D03*
X185774Y134920D02*
D03*
X192808Y134056D02*
D03*
D27*
Y259644D02*
D03*
X185774Y258781D02*
D03*
X200893Y134056D02*
D03*
X207926Y134920D02*
D03*
D28*
X177481Y256703D02*
D03*
X170865Y254163D02*
D03*
X216220Y136998D02*
D03*
X222835Y139538D02*
D03*
D29*
Y254163D02*
D03*
X216220Y256703D02*
D03*
X170865Y139538D02*
D03*
X177481Y136998D02*
D03*
D30*
X235658Y246472D02*
D03*
X229853Y250536D02*
D03*
X158042Y147229D02*
D03*
X163847Y143165D02*
D03*
D31*
X246419Y235751D02*
D03*
X241770Y241099D02*
D03*
X147282Y157950D02*
D03*
X151931Y152601D02*
D03*
D32*
X254522Y222040D02*
D03*
X251305Y228354D02*
D03*
X139179Y171661D02*
D03*
X142396Y165347D02*
D03*
D33*
X258750Y207256D02*
D03*
X257156Y214161D02*
D03*
X134951Y186445D02*
D03*
X136545Y179540D02*
D03*
D34*
X257156Y179540D02*
D03*
X258750Y186445D02*
D03*
X136545Y214161D02*
D03*
X134951Y207256D02*
D03*
D35*
X251305Y165347D02*
D03*
X254522Y171661D02*
D03*
X142396Y228354D02*
D03*
X139179Y222040D02*
D03*
D36*
X241770Y152601D02*
D03*
X246419Y157950D02*
D03*
X151931Y241099D02*
D03*
X147282Y235751D02*
D03*
D37*
X229853Y143165D02*
D03*
X235658Y147229D02*
D03*
X163847Y250536D02*
D03*
X158042Y246472D02*
D03*
D38*
X187008Y162911D02*
D03*
X207874Y235827D02*
D03*
X200000Y162992D02*
D03*
X187402Y235827D02*
D03*
X197244D02*
D03*
D39*
X196850Y196850D02*
D03*
M02*
