G04*
G04 #@! TF.GenerationSoftware,Altium Limited,Altium Designer,19.0.12 (326)*
G04*
G04 Layer_Color=8388736*
%FSLAX25Y25*%
%MOIN*%
G70*
G01*
G75*
G04:AMPARAMS|DCode=12|XSize=47.37mil|YSize=39.5mil|CornerRadius=0mil|HoleSize=0mil|Usage=FLASHONLY|Rotation=173.000|XOffset=0mil|YOffset=0mil|HoleType=Round|Shape=Rectangle|*
%AMROTATEDRECTD12*
4,1,4,0.02592,0.01671,0.02110,-0.02249,-0.02592,-0.01671,-0.02110,0.02249,0.02592,0.01671,0.0*
%
%ADD12ROTATEDRECTD12*%

G04:AMPARAMS|DCode=13|XSize=47.37mil|YSize=39.5mil|CornerRadius=0mil|HoleSize=0mil|Usage=FLASHONLY|Rotation=187.000|XOffset=0mil|YOffset=0mil|HoleType=Round|Shape=Rectangle|*
%AMROTATEDRECTD13*
4,1,4,0.02110,0.02249,0.02592,-0.01671,-0.02110,-0.02249,-0.02592,0.01671,0.02110,0.02249,0.0*
%
%ADD13ROTATEDRECTD13*%

G04:AMPARAMS|DCode=14|XSize=47.37mil|YSize=39.5mil|CornerRadius=0mil|HoleSize=0mil|Usage=FLASHONLY|Rotation=201.000|XOffset=0mil|YOffset=0mil|HoleType=Round|Shape=Rectangle|*
%AMROTATEDRECTD14*
4,1,4,0.01504,0.02692,0.02919,-0.00995,-0.01504,-0.02692,-0.02919,0.00995,0.01504,0.02692,0.0*
%
%ADD14ROTATEDRECTD14*%

G04:AMPARAMS|DCode=15|XSize=47.37mil|YSize=39.5mil|CornerRadius=0mil|HoleSize=0mil|Usage=FLASHONLY|Rotation=159.000|XOffset=0mil|YOffset=0mil|HoleType=Round|Shape=Rectangle|*
%AMROTATEDRECTD15*
4,1,4,0.02919,0.00995,0.01504,-0.02692,-0.02919,-0.00995,-0.01504,0.02692,0.02919,0.00995,0.0*
%
%ADD15ROTATEDRECTD15*%

G04:AMPARAMS|DCode=16|XSize=47.37mil|YSize=39.5mil|CornerRadius=0mil|HoleSize=0mil|Usage=FLASHONLY|Rotation=145.000|XOffset=0mil|YOffset=0mil|HoleType=Round|Shape=Rectangle|*
%AMROTATEDRECTD16*
4,1,4,0.03073,0.00259,0.00807,-0.02976,-0.03073,-0.00259,-0.00807,0.02976,0.03073,0.00259,0.0*
%
%ADD16ROTATEDRECTD16*%

G04:AMPARAMS|DCode=17|XSize=47.37mil|YSize=39.5mil|CornerRadius=0mil|HoleSize=0mil|Usage=FLASHONLY|Rotation=131.000|XOffset=0mil|YOffset=0mil|HoleType=Round|Shape=Rectangle|*
%AMROTATEDRECTD17*
4,1,4,0.03044,-0.00492,0.00064,-0.03083,-0.03044,0.00492,-0.00064,0.03083,0.03044,-0.00492,0.0*
%
%ADD17ROTATEDRECTD17*%

G04:AMPARAMS|DCode=18|XSize=47.37mil|YSize=39.5mil|CornerRadius=0mil|HoleSize=0mil|Usage=FLASHONLY|Rotation=117.000|XOffset=0mil|YOffset=0mil|HoleType=Round|Shape=Rectangle|*
%AMROTATEDRECTD18*
4,1,4,0.02835,-0.01214,-0.00684,-0.03007,-0.02835,0.01214,0.00684,0.03007,0.02835,-0.01214,0.0*
%
%ADD18ROTATEDRECTD18*%

G04:AMPARAMS|DCode=19|XSize=47.37mil|YSize=39.5mil|CornerRadius=0mil|HoleSize=0mil|Usage=FLASHONLY|Rotation=103.000|XOffset=0mil|YOffset=0mil|HoleType=Round|Shape=Rectangle|*
%AMROTATEDRECTD19*
4,1,4,0.02457,-0.01864,-0.01391,-0.02752,-0.02457,0.01864,0.01391,0.02752,0.02457,-0.01864,0.0*
%
%ADD19ROTATEDRECTD19*%

G04:AMPARAMS|DCode=20|XSize=47.37mil|YSize=39.5mil|CornerRadius=0mil|HoleSize=0mil|Usage=FLASHONLY|Rotation=77.000|XOffset=0mil|YOffset=0mil|HoleType=Round|Shape=Rectangle|*
%AMROTATEDRECTD20*
4,1,4,0.01391,-0.02752,-0.02457,-0.01864,-0.01391,0.02752,0.02457,0.01864,0.01391,-0.02752,0.0*
%
%ADD20ROTATEDRECTD20*%

G04:AMPARAMS|DCode=21|XSize=47.37mil|YSize=39.5mil|CornerRadius=0mil|HoleSize=0mil|Usage=FLASHONLY|Rotation=63.000|XOffset=0mil|YOffset=0mil|HoleType=Round|Shape=Rectangle|*
%AMROTATEDRECTD21*
4,1,4,0.00684,-0.03007,-0.02835,-0.01214,-0.00684,0.03007,0.02835,0.01214,0.00684,-0.03007,0.0*
%
%ADD21ROTATEDRECTD21*%

G04:AMPARAMS|DCode=22|XSize=47.37mil|YSize=39.5mil|CornerRadius=0mil|HoleSize=0mil|Usage=FLASHONLY|Rotation=49.000|XOffset=0mil|YOffset=0mil|HoleType=Round|Shape=Rectangle|*
%AMROTATEDRECTD22*
4,1,4,-0.00064,-0.03083,-0.03044,-0.00492,0.00064,0.03083,0.03044,0.00492,-0.00064,-0.03083,0.0*
%
%ADD22ROTATEDRECTD22*%

G04:AMPARAMS|DCode=23|XSize=47.37mil|YSize=39.5mil|CornerRadius=0mil|HoleSize=0mil|Usage=FLASHONLY|Rotation=35.000|XOffset=0mil|YOffset=0mil|HoleType=Round|Shape=Rectangle|*
%AMROTATEDRECTD23*
4,1,4,-0.00807,-0.02976,-0.03073,0.00259,0.00807,0.02976,0.03073,-0.00259,-0.00807,-0.02976,0.0*
%
%ADD23ROTATEDRECTD23*%

%ADD24C,0.05800*%
%ADD25C,0.24422*%
D12*
X207926Y258781D02*
D03*
X200893Y259644D02*
D03*
X185774Y134920D02*
D03*
X192808Y134056D02*
D03*
D13*
Y259644D02*
D03*
X185774Y258781D02*
D03*
X200893Y134056D02*
D03*
X207926Y134920D02*
D03*
D14*
X177481Y256703D02*
D03*
X170865Y254163D02*
D03*
X216220Y136998D02*
D03*
X222835Y139538D02*
D03*
D15*
Y254163D02*
D03*
X216220Y256703D02*
D03*
X170865Y139538D02*
D03*
X177481Y136998D02*
D03*
D16*
X235658Y246472D02*
D03*
X229853Y250536D02*
D03*
X158042Y147229D02*
D03*
X163847Y143165D02*
D03*
D17*
X246419Y235751D02*
D03*
X241770Y241099D02*
D03*
X147282Y157950D02*
D03*
X151931Y152601D02*
D03*
D18*
X254522Y222040D02*
D03*
X251305Y228354D02*
D03*
X139179Y171661D02*
D03*
X142396Y165347D02*
D03*
D19*
X258750Y207256D02*
D03*
X257156Y214161D02*
D03*
X134951Y186445D02*
D03*
X136545Y179540D02*
D03*
D20*
X257156Y179540D02*
D03*
X258750Y186445D02*
D03*
X136545Y214161D02*
D03*
X134951Y207256D02*
D03*
D21*
X251305Y165347D02*
D03*
X254522Y171661D02*
D03*
X142396Y228354D02*
D03*
X139179Y222040D02*
D03*
D22*
X241770Y152601D02*
D03*
X246419Y157950D02*
D03*
X151931Y241099D02*
D03*
X147282Y235751D02*
D03*
D23*
X229853Y143165D02*
D03*
X235658Y147229D02*
D03*
X163847Y250536D02*
D03*
X158042Y246472D02*
D03*
D24*
X187008Y162911D02*
D03*
X207874Y235827D02*
D03*
X200000Y162992D02*
D03*
X187402Y235827D02*
D03*
X197244D02*
D03*
D25*
X196850Y196850D02*
D03*
M02*
