G04*
G04 #@! TF.GenerationSoftware,Altium Limited,Altium Designer,19.0.10 (269)*
G04*
G04 Layer_Physical_Order=2*
G04 Layer_Color=16711680*
%FSLAX25Y25*%
%MOIN*%
G70*
G01*
G75*
%ADD12C,0.00600*%
%ADD16C,0.01000*%
%ADD59C,0.05906*%
%ADD60C,0.03838*%
%ADD61C,0.04724*%
%ADD62C,0.03543*%
%ADD63C,0.09843*%
%ADD64C,0.02362*%
G36*
X232677Y145258D02*
X232215Y145067D01*
X224749Y152533D01*
Y155002D01*
X224759Y155003D01*
X225623Y155361D01*
X226365Y155931D01*
X226934Y156673D01*
X227292Y157537D01*
X227414Y158465D01*
X227292Y159392D01*
X226934Y160256D01*
X226365Y160998D01*
X225623Y161568D01*
X224759Y161926D01*
X223831Y162048D01*
X222904Y161926D01*
X222039Y161568D01*
X221297Y160998D01*
X220728Y160256D01*
X220370Y159392D01*
X220248Y158465D01*
X220370Y157537D01*
X220728Y156673D01*
X221297Y155931D01*
X222039Y155361D01*
X222904Y155003D01*
X222913Y155002D01*
Y152153D01*
X222983Y151802D01*
X223182Y151504D01*
X232264Y142422D01*
X232562Y142223D01*
X232677Y142200D01*
Y123988D01*
X197480D01*
X197129Y123919D01*
X196831Y123720D01*
X193346Y120234D01*
X192913Y120320D01*
X192218Y120182D01*
X191629Y119788D01*
X191236Y119199D01*
X191097Y118504D01*
X191236Y117809D01*
X191629Y117220D01*
X192218Y116826D01*
X192913Y116688D01*
X193608Y116826D01*
X194197Y117220D01*
X194591Y117809D01*
X194729Y118504D01*
X194643Y118936D01*
X197860Y122153D01*
X232677D01*
Y40474D01*
X40474Y40474D01*
X40474Y305983D01*
X232677D01*
Y145258D01*
D02*
G37*
%LPC*%
G36*
X185433Y304271D02*
X185433Y304271D01*
X154331D01*
X154331Y304271D01*
X154331Y304271D01*
X102086D01*
X102086Y304271D01*
X101657Y304186D01*
X101293Y303943D01*
X101293Y303943D01*
X73026Y275675D01*
X72834Y275714D01*
X72139Y275575D01*
X71550Y275182D01*
X71156Y274592D01*
X71018Y273898D01*
X71156Y273203D01*
X71550Y272614D01*
X72139Y272220D01*
X72834Y272082D01*
X73529Y272220D01*
X74118Y272614D01*
X74512Y273203D01*
X74650Y273898D01*
X74612Y274089D01*
X102551Y302028D01*
X112166D01*
Y237810D01*
X111708Y237505D01*
X111314Y236915D01*
X111176Y236220D01*
X111314Y235525D01*
X111708Y234936D01*
X112297Y234543D01*
X112992Y234404D01*
X113687Y234543D01*
X114276Y234936D01*
X114670Y235525D01*
X114808Y236220D01*
X114670Y236915D01*
X114383Y237346D01*
X114409Y237479D01*
X114409Y237479D01*
Y302028D01*
X153866D01*
X161214Y294680D01*
X161176Y294488D01*
X161314Y293793D01*
X161708Y293204D01*
X162297Y292810D01*
X162992Y292672D01*
X163687Y292810D01*
X164276Y293204D01*
X164670Y293793D01*
X164808Y294488D01*
X164670Y295183D01*
X164276Y295772D01*
X163687Y296166D01*
X162992Y296304D01*
X162800Y296266D01*
X157500Y301566D01*
X157692Y302028D01*
X184968D01*
X192317Y294680D01*
X192279Y294488D01*
X192417Y293793D01*
X192810Y293204D01*
X193400Y292810D01*
X194095Y292672D01*
X194789Y292810D01*
X195379Y293204D01*
X195772Y293793D01*
X195911Y294488D01*
X195772Y295183D01*
X195379Y295772D01*
X194789Y296166D01*
X194095Y296304D01*
X193903Y296266D01*
X186226Y303943D01*
X185862Y304186D01*
X185433Y304271D01*
D02*
G37*
G36*
X212705Y296613D02*
Y294988D01*
X214329D01*
X214259Y295339D01*
X213777Y296061D01*
X213056Y296543D01*
X212705Y296613D01*
D02*
G37*
G36*
X211705D02*
X211354Y296543D01*
X210632Y296061D01*
X210150Y295339D01*
X210080Y294988D01*
X211705D01*
Y296613D01*
D02*
G37*
G36*
X181602D02*
Y294988D01*
X183227D01*
X183157Y295339D01*
X182675Y296061D01*
X181953Y296543D01*
X181602Y296613D01*
D02*
G37*
G36*
X180602D02*
X180251Y296543D01*
X179530Y296061D01*
X179048Y295339D01*
X178978Y294988D01*
X180602D01*
Y296613D01*
D02*
G37*
G36*
X214329Y293988D02*
X212705D01*
Y292364D01*
X213056Y292434D01*
X213777Y292916D01*
X214259Y293637D01*
X214329Y293988D01*
D02*
G37*
G36*
X211705D02*
X210080D01*
X210150Y293637D01*
X210632Y292916D01*
X211354Y292434D01*
X211705Y292364D01*
Y293988D01*
D02*
G37*
G36*
X183227D02*
X181602D01*
Y292364D01*
X181953Y292434D01*
X182675Y292916D01*
X183157Y293637D01*
X183227Y293988D01*
D02*
G37*
G36*
X180602D02*
X178978D01*
X179048Y293637D01*
X179530Y292916D01*
X180251Y292434D01*
X180602Y292364D01*
Y293988D01*
D02*
G37*
G36*
X149713Y286869D02*
Y285244D01*
X151337D01*
X151267Y285595D01*
X150785Y286317D01*
X150064Y286799D01*
X149713Y286869D01*
D02*
G37*
G36*
X148713D02*
X148362Y286799D01*
X147640Y286317D01*
X147158Y285595D01*
X147088Y285244D01*
X148713D01*
Y286869D01*
D02*
G37*
G36*
X151337Y284244D02*
X149713D01*
Y282620D01*
X150064Y282689D01*
X150785Y283172D01*
X151267Y283893D01*
X151337Y284244D01*
D02*
G37*
G36*
X148713D02*
X147088D01*
X147158Y283893D01*
X147640Y283172D01*
X148362Y282689D01*
X148713Y282620D01*
Y284244D01*
D02*
G37*
G36*
X172146Y282525D02*
X171451Y282386D01*
X170862Y281993D01*
X170468Y281404D01*
X170330Y280709D01*
X170368Y280517D01*
X169290Y279440D01*
X137472D01*
X137472Y279440D01*
X137042Y279354D01*
X136679Y279111D01*
X136679Y279111D01*
X126150Y268583D01*
X125907Y268219D01*
X125822Y267790D01*
X125822Y267790D01*
Y167197D01*
X120770Y162145D01*
X116649D01*
X116540Y162308D01*
X115951Y162701D01*
X115256Y162840D01*
X114561Y162701D01*
X113972Y162308D01*
X113863Y162145D01*
X84267D01*
X84158Y162308D01*
X83569Y162701D01*
X82874Y162840D01*
X82179Y162701D01*
X81590Y162308D01*
X81196Y161719D01*
X81058Y161024D01*
X81196Y160329D01*
X81590Y159739D01*
X82179Y159346D01*
X82874Y159208D01*
X83569Y159346D01*
X84158Y159739D01*
X84267Y159902D01*
X113863D01*
X113972Y159739D01*
X114561Y159346D01*
X115256Y159208D01*
X115951Y159346D01*
X116540Y159739D01*
X116649Y159902D01*
X121235D01*
X121235Y159902D01*
X121664Y159987D01*
X122028Y160231D01*
X126960Y165163D01*
X127422Y164971D01*
Y117677D01*
X127422Y117677D01*
X127507Y117248D01*
X127750Y116884D01*
X128864Y115771D01*
X128586Y115101D01*
X128464Y114173D01*
X128586Y113246D01*
X128944Y112381D01*
X129513Y111639D01*
X130255Y111070D01*
X131120Y110712D01*
X131130Y110711D01*
Y90675D01*
X125235Y84781D01*
X124803Y84867D01*
X124108Y84729D01*
X123519Y84335D01*
X123274Y83969D01*
X119272D01*
X118921Y83899D01*
X118623Y83700D01*
X107494Y72571D01*
X100840D01*
X100595Y72938D01*
X100006Y73331D01*
X99311Y73470D01*
X98616Y73331D01*
X98027Y72938D01*
X97633Y72348D01*
X97495Y71653D01*
X97633Y70959D01*
X98027Y70369D01*
X98616Y69976D01*
X99311Y69838D01*
X100006Y69976D01*
X100595Y70369D01*
X100840Y70736D01*
X107874D01*
X108225Y70806D01*
X108523Y71005D01*
X119652Y82134D01*
X123274D01*
X123519Y81767D01*
X124108Y81373D01*
X124803Y81235D01*
X125498Y81373D01*
X126087Y81767D01*
X126481Y82356D01*
X126619Y83051D01*
X126533Y83483D01*
X132696Y89646D01*
X132895Y89944D01*
X132965Y90295D01*
Y110711D01*
X132975Y110712D01*
X133839Y111070D01*
X134581Y111639D01*
X135151Y112381D01*
X135509Y113246D01*
X135631Y114173D01*
X135509Y115101D01*
X135151Y115965D01*
X134581Y116707D01*
X133839Y117277D01*
X132975Y117634D01*
X132047Y117757D01*
X131120Y117634D01*
X130450Y117357D01*
X129665Y118142D01*
Y266661D01*
X138600Y275596D01*
X201694D01*
X201767Y275488D01*
X202356Y275094D01*
X203051Y274956D01*
X203746Y275094D01*
X204335Y275488D01*
X204729Y276077D01*
X204867Y276772D01*
X204729Y277467D01*
X204335Y278056D01*
X203746Y278449D01*
X203051Y278588D01*
X202356Y278449D01*
X201767Y278056D01*
X201623Y277840D01*
X171516D01*
X171325Y278302D01*
X171954Y278931D01*
X172146Y278893D01*
X172841Y279031D01*
X173430Y279425D01*
X173823Y280014D01*
X173962Y280709D01*
X173823Y281404D01*
X173430Y281993D01*
X172841Y282386D01*
X172146Y282525D01*
D02*
G37*
G36*
X108768Y276022D02*
Y274398D01*
X110393D01*
X110323Y274749D01*
X109841Y275470D01*
X109119Y275952D01*
X108768Y276022D01*
D02*
G37*
G36*
X107768D02*
X107417Y275952D01*
X106696Y275470D01*
X106214Y274749D01*
X106144Y274398D01*
X107768D01*
Y276022D01*
D02*
G37*
G36*
X96957D02*
Y274398D01*
X98582D01*
X98512Y274749D01*
X98030Y275470D01*
X97308Y275952D01*
X96957Y276022D01*
D02*
G37*
G36*
X95957D02*
X95606Y275952D01*
X94885Y275470D01*
X94403Y274749D01*
X94333Y274398D01*
X95957D01*
Y276022D01*
D02*
G37*
G36*
X110393Y273398D02*
X108768D01*
Y271773D01*
X109119Y271843D01*
X109841Y272325D01*
X110323Y273046D01*
X110393Y273398D01*
D02*
G37*
G36*
X107768D02*
X106144D01*
X106214Y273046D01*
X106696Y272325D01*
X107417Y271843D01*
X107768Y271773D01*
Y273398D01*
D02*
G37*
G36*
X98582D02*
X96957D01*
Y271773D01*
X97308Y271843D01*
X98030Y272325D01*
X98512Y273046D01*
X98582Y273398D01*
D02*
G37*
G36*
X95957D02*
X94333D01*
X94403Y273046D01*
X94885Y272325D01*
X95606Y271843D01*
X95957Y271773D01*
Y273398D01*
D02*
G37*
G36*
X188098Y266101D02*
Y264476D01*
X189723D01*
X189653Y264827D01*
X189171Y265549D01*
X188450Y266031D01*
X188098Y266101D01*
D02*
G37*
G36*
X187098D02*
X186747Y266031D01*
X186026Y265549D01*
X185544Y264827D01*
X185474Y264476D01*
X187098D01*
Y266101D01*
D02*
G37*
G36*
X189723Y263476D02*
X188098D01*
Y261852D01*
X188450Y261922D01*
X189171Y262404D01*
X189653Y263125D01*
X189723Y263476D01*
D02*
G37*
G36*
X187098D02*
X185474D01*
X185544Y263125D01*
X186026Y262404D01*
X186747Y261922D01*
X187098Y261852D01*
Y263476D01*
D02*
G37*
G36*
X76484Y226534D02*
Y224909D01*
X78109D01*
X78039Y225260D01*
X77557Y225982D01*
X76835Y226464D01*
X76484Y226534D01*
D02*
G37*
G36*
X75484D02*
X75133Y226464D01*
X74412Y225982D01*
X73930Y225260D01*
X73860Y224909D01*
X75484D01*
Y226534D01*
D02*
G37*
G36*
X78109Y223909D02*
X76484D01*
Y222285D01*
X76835Y222355D01*
X77557Y222837D01*
X78039Y223558D01*
X78109Y223909D01*
D02*
G37*
G36*
X75484D02*
X73860D01*
X73930Y223558D01*
X74412Y222837D01*
X75133Y222355D01*
X75484Y222285D01*
Y223909D01*
D02*
G37*
G36*
X133472Y217971D02*
Y216346D01*
X135097D01*
X135027Y216698D01*
X134545Y217419D01*
X133823Y217901D01*
X133472Y217971D01*
D02*
G37*
G36*
X132472D02*
X132121Y217901D01*
X131400Y217419D01*
X130918Y216698D01*
X130848Y216346D01*
X132472D01*
Y217971D01*
D02*
G37*
G36*
X135097Y215346D02*
X133472D01*
Y213722D01*
X133823Y213792D01*
X134545Y214274D01*
X135027Y214995D01*
X135097Y215346D01*
D02*
G37*
G36*
X132472D02*
X130848D01*
X130918Y214995D01*
X131400Y214274D01*
X132121Y213792D01*
X132472Y213722D01*
Y215346D01*
D02*
G37*
G36*
X141445Y208916D02*
Y207291D01*
X143069D01*
X142999Y207642D01*
X142517Y208364D01*
X141796Y208846D01*
X141445Y208916D01*
D02*
G37*
G36*
X140445D02*
X140094Y208846D01*
X139372Y208364D01*
X138890Y207642D01*
X138821Y207291D01*
X140445D01*
Y208916D01*
D02*
G37*
G36*
X143069Y206291D02*
X141445D01*
Y204667D01*
X141796Y204737D01*
X142517Y205219D01*
X142999Y205940D01*
X143069Y206291D01*
D02*
G37*
G36*
X140445D02*
X138821D01*
X138890Y205940D01*
X139372Y205219D01*
X140094Y204737D01*
X140445Y204667D01*
Y206291D01*
D02*
G37*
G36*
X224331Y201756D02*
Y198335D01*
X227752D01*
X227682Y198866D01*
X227284Y199828D01*
X226650Y200654D01*
X225824Y201287D01*
X224863Y201686D01*
X224331Y201756D01*
D02*
G37*
G36*
X223331Y201756D02*
X222799Y201686D01*
X221838Y201287D01*
X221012Y200654D01*
X220378Y199828D01*
X219980Y198866D01*
X219910Y198335D01*
X223331D01*
Y201756D01*
D02*
G37*
G36*
X133472Y199664D02*
Y198039D01*
X135097D01*
X135027Y198390D01*
X134545Y199112D01*
X133823Y199594D01*
X133472Y199664D01*
D02*
G37*
G36*
X132472D02*
X132121Y199594D01*
X131400Y199112D01*
X130918Y198390D01*
X130848Y198039D01*
X132472D01*
Y199664D01*
D02*
G37*
G36*
X135097Y197039D02*
X133472D01*
Y195415D01*
X133823Y195485D01*
X134545Y195967D01*
X135027Y196688D01*
X135097Y197039D01*
D02*
G37*
G36*
X132472D02*
X130848D01*
X130918Y196688D01*
X131400Y195967D01*
X132121Y195485D01*
X132472Y195415D01*
Y197039D01*
D02*
G37*
G36*
X227752Y197335D02*
X224331D01*
Y193914D01*
X224863Y193984D01*
X225824Y194382D01*
X226650Y195016D01*
X227284Y195841D01*
X227682Y196803D01*
X227752Y197335D01*
D02*
G37*
G36*
X223331D02*
X219910D01*
X219980Y196803D01*
X220378Y195841D01*
X221012Y195016D01*
X221838Y194382D01*
X222799Y193984D01*
X223331Y193914D01*
Y197335D01*
D02*
G37*
G36*
X209492Y191864D02*
Y189634D01*
X211722D01*
X211693Y189857D01*
X211413Y190532D01*
X210969Y191111D01*
X210390Y191555D01*
X209716Y191834D01*
X209492Y191864D01*
D02*
G37*
G36*
X208492Y191863D02*
X208269Y191834D01*
X207595Y191555D01*
X207016Y191111D01*
X206572Y190532D01*
X206292Y189857D01*
X206263Y189634D01*
X208492D01*
Y191863D01*
D02*
G37*
G36*
X188993Y191552D02*
X188067Y191368D01*
X187283Y190844D01*
X186759Y190059D01*
X186575Y189134D01*
X186759Y188208D01*
X187283Y187424D01*
X188067Y186900D01*
X188993Y186716D01*
X189918Y186900D01*
X190702Y187424D01*
X191226Y188208D01*
X191411Y189134D01*
X191226Y190059D01*
X190702Y190844D01*
X189918Y191368D01*
X188993Y191552D01*
D02*
G37*
G36*
X178992D02*
X178067Y191368D01*
X177283Y190844D01*
X176759Y190059D01*
X176575Y189134D01*
X176759Y188208D01*
X177283Y187424D01*
X178067Y186900D01*
X178992Y186716D01*
X179918Y186900D01*
X180702Y187424D01*
X181226Y188208D01*
X181411Y189134D01*
X181226Y190059D01*
X180702Y190844D01*
X179918Y191368D01*
X178992Y191552D01*
D02*
G37*
G36*
X168992D02*
X168067Y191368D01*
X167283Y190844D01*
X166759Y190059D01*
X166575Y189134D01*
X166759Y188208D01*
X167283Y187424D01*
X168067Y186900D01*
X168992Y186716D01*
X169918Y186900D01*
X170702Y187424D01*
X171226Y188208D01*
X171411Y189134D01*
X171226Y190059D01*
X170702Y190844D01*
X169918Y191368D01*
X168992Y191552D01*
D02*
G37*
G36*
X208492Y188634D02*
X206263D01*
X206292Y188410D01*
X206572Y187736D01*
X207016Y187157D01*
X207595Y186713D01*
X208269Y186434D01*
X208492Y186404D01*
Y188634D01*
D02*
G37*
G36*
X211722D02*
X209492D01*
Y186404D01*
X209716Y186434D01*
X210390Y186713D01*
X210969Y187157D01*
X211413Y187736D01*
X211693Y188410D01*
X211722Y188634D01*
D02*
G37*
G36*
X208993Y171552D02*
X208067Y171368D01*
X207283Y170844D01*
X206759Y170059D01*
X206575Y169134D01*
X206759Y168209D01*
X207283Y167424D01*
X208067Y166900D01*
X208993Y166716D01*
X209918Y166900D01*
X210702Y167424D01*
X211226Y168209D01*
X211410Y169134D01*
X211226Y170059D01*
X210702Y170844D01*
X209918Y171368D01*
X208993Y171552D01*
D02*
G37*
G36*
X188993D02*
X188067Y171368D01*
X187283Y170844D01*
X186759Y170059D01*
X186575Y169134D01*
X186759Y168209D01*
X187283Y167424D01*
X188067Y166900D01*
X188993Y166716D01*
X189918Y166900D01*
X190702Y167424D01*
X191226Y168209D01*
X191411Y169134D01*
X191226Y170059D01*
X190702Y170844D01*
X189918Y171368D01*
X188993Y171552D01*
D02*
G37*
G36*
X168992D02*
X168067Y171368D01*
X167283Y170844D01*
X166759Y170059D01*
X166575Y169134D01*
X166759Y168209D01*
X167283Y167424D01*
X168067Y166900D01*
X168992Y166716D01*
X169918Y166900D01*
X170702Y167424D01*
X171226Y168209D01*
X171411Y169134D01*
X171226Y170059D01*
X170702Y170844D01*
X169918Y171368D01*
X168992Y171552D01*
D02*
G37*
G36*
X178347Y162948D02*
X177573Y162847D01*
X176853Y162548D01*
X176234Y162073D01*
X175759Y161454D01*
X175461Y160734D01*
X175359Y159961D01*
X175461Y159187D01*
X175759Y158467D01*
X176234Y157848D01*
X176853Y157373D01*
X177573Y157075D01*
X178347Y156973D01*
X179120Y157075D01*
X179840Y157373D01*
X180459Y157848D01*
X180934Y158467D01*
X181232Y159187D01*
X181334Y159961D01*
X181232Y160734D01*
X180934Y161454D01*
X180459Y162073D01*
X179840Y162548D01*
X179120Y162847D01*
X178347Y162948D01*
D02*
G37*
G36*
X161417D02*
X160644Y162847D01*
X159924Y162548D01*
X159305Y162073D01*
X158830Y161454D01*
X158531Y160734D01*
X158430Y159961D01*
X158531Y159187D01*
X158830Y158467D01*
X159305Y157848D01*
X159924Y157373D01*
X160644Y157075D01*
X161417Y156973D01*
X162191Y157075D01*
X162911Y157373D01*
X163530Y157848D01*
X164005Y158467D01*
X164303Y159187D01*
X164405Y159961D01*
X164303Y160734D01*
X164005Y161454D01*
X163530Y162073D01*
X162911Y162548D01*
X162191Y162847D01*
X161417Y162948D01*
D02*
G37*
G36*
X198031Y201422D02*
X197337Y201284D01*
X196747Y200890D01*
X196354Y200301D01*
X196215Y199606D01*
X196354Y198911D01*
X196747Y198322D01*
X197114Y198077D01*
Y144868D01*
X196102Y143856D01*
X195669Y143942D01*
X194974Y143804D01*
X194385Y143410D01*
X193991Y142821D01*
X193853Y142126D01*
X193991Y141431D01*
X194385Y140842D01*
X194974Y140448D01*
X195669Y140310D01*
X196364Y140448D01*
X196953Y140842D01*
X197347Y141431D01*
X197485Y142126D01*
X197399Y142558D01*
X198680Y143839D01*
X198879Y144137D01*
X198949Y144488D01*
Y198077D01*
X199316Y198322D01*
X199709Y198911D01*
X199847Y199606D01*
X199709Y200301D01*
X199316Y200890D01*
X198726Y201284D01*
X198031Y201422D01*
D02*
G37*
G36*
X191445Y144250D02*
Y142626D01*
X193069D01*
X192999Y142977D01*
X192517Y143699D01*
X191796Y144181D01*
X191445Y144250D01*
D02*
G37*
G36*
X193069Y141626D02*
X191445D01*
Y140002D01*
X191796Y140071D01*
X192517Y140553D01*
X192999Y141275D01*
X193069Y141626D01*
D02*
G37*
G36*
X178992Y171552D02*
X178067Y171368D01*
X177283Y170844D01*
X176759Y170059D01*
X176575Y169134D01*
X176759Y168209D01*
X177283Y167424D01*
X178067Y166900D01*
X178992Y166716D01*
X179918Y166900D01*
X179924Y166904D01*
X187665Y159164D01*
Y135433D01*
X187735Y135082D01*
X187934Y134784D01*
X196595Y126123D01*
X196893Y125924D01*
X197244Y125854D01*
X209888D01*
X210133Y125488D01*
X210722Y125094D01*
X211417Y124956D01*
X212112Y125094D01*
X212701Y125488D01*
X213095Y126077D01*
X213233Y126772D01*
X213095Y127467D01*
X212701Y128056D01*
X212112Y128449D01*
X211417Y128588D01*
X210722Y128449D01*
X210133Y128056D01*
X209888Y127689D01*
X197624D01*
X189500Y135813D01*
Y139938D01*
X189941Y140173D01*
X190094Y140071D01*
X190445Y140002D01*
Y142126D01*
Y144250D01*
X190094Y144181D01*
X189941Y144079D01*
X189500Y144314D01*
Y159544D01*
X189430Y159895D01*
X189232Y160193D01*
X181222Y168202D01*
X181226Y168209D01*
X181411Y169134D01*
X181226Y170059D01*
X180702Y170844D01*
X179918Y171368D01*
X178992Y171552D01*
D02*
G37*
G36*
X85145Y138227D02*
Y136602D01*
X86770D01*
X86700Y136953D01*
X86218Y137675D01*
X85496Y138157D01*
X85145Y138227D01*
D02*
G37*
G36*
X84145D02*
X83794Y138157D01*
X83073Y137675D01*
X82591Y136953D01*
X82521Y136602D01*
X84145D01*
Y138227D01*
D02*
G37*
G36*
X108366Y137741D02*
X107671Y137603D01*
X107082Y137209D01*
X106688Y136620D01*
X106550Y135925D01*
X106636Y135493D01*
X99915Y128772D01*
X60925D01*
X60574Y128702D01*
X60276Y128503D01*
X46497Y114724D01*
X46298Y114426D01*
X46228Y114075D01*
Y79331D01*
X46298Y78979D01*
X46497Y78682D01*
X49351Y75827D01*
X49649Y75629D01*
X50000Y75559D01*
X72290D01*
X72535Y75192D01*
X73124Y74799D01*
X73819Y74660D01*
X74514Y74799D01*
X75103Y75192D01*
X75497Y75781D01*
X75635Y76476D01*
X75497Y77171D01*
X75103Y77760D01*
X74514Y78154D01*
X73819Y78292D01*
X73124Y78154D01*
X72535Y77760D01*
X72290Y77394D01*
X50380D01*
X48063Y79711D01*
Y86360D01*
X48301Y86438D01*
X48563Y86444D01*
X48913Y85921D01*
X49502Y85527D01*
X50197Y85389D01*
X50892Y85527D01*
X51481Y85921D01*
X51660Y86189D01*
X64086D01*
X64282Y85689D01*
X63890Y85103D01*
X63820Y84752D01*
X68069D01*
X67999Y85103D01*
X67608Y85689D01*
X67804Y86189D01*
X70177D01*
X70528Y86259D01*
X70826Y86457D01*
X87486Y103118D01*
X112402D01*
X112753Y103188D01*
X113050Y103387D01*
X120594Y110930D01*
X121120Y110712D01*
X122047Y110590D01*
X122975Y110712D01*
X123839Y111070D01*
X124581Y111639D01*
X125151Y112381D01*
X125508Y113246D01*
X125631Y114173D01*
X125508Y115101D01*
X125151Y115965D01*
X124581Y116707D01*
X123839Y117277D01*
X122975Y117634D01*
X122047Y117757D01*
X121120Y117634D01*
X120255Y117277D01*
X119513Y116707D01*
X118944Y115965D01*
X118586Y115101D01*
X118464Y114173D01*
X118586Y113246D01*
X118944Y112381D01*
X119164Y112095D01*
X112022Y104953D01*
X87106D01*
X86755Y104883D01*
X86457Y104684D01*
X69797Y88024D01*
X51792D01*
X51481Y88489D01*
X50892Y88882D01*
X50197Y89021D01*
X49502Y88882D01*
X48913Y88489D01*
X48563Y87966D01*
X48301Y87971D01*
X48063Y88049D01*
Y113695D01*
X61305Y126937D01*
X100295D01*
X100646Y127006D01*
X100944Y127206D01*
X107934Y134195D01*
X108366Y134109D01*
X109061Y134247D01*
X109650Y134641D01*
X110044Y135230D01*
X110182Y135925D01*
X110044Y136620D01*
X109650Y137209D01*
X109061Y137603D01*
X108366Y137741D01*
D02*
G37*
G36*
X75984Y202603D02*
X75289Y202465D01*
X74700Y202071D01*
X74306Y201482D01*
X74168Y200787D01*
X74306Y200093D01*
X74700Y199503D01*
X75067Y199258D01*
Y156102D01*
X75136Y155751D01*
X75335Y155454D01*
X94431Y136357D01*
X94345Y135925D01*
X94484Y135230D01*
X94877Y134641D01*
X95467Y134247D01*
X96161Y134109D01*
X96856Y134247D01*
X97445Y134641D01*
X97839Y135230D01*
X97977Y135925D01*
X97839Y136620D01*
X97445Y137209D01*
X96856Y137603D01*
X96161Y137741D01*
X95729Y137655D01*
X76902Y156483D01*
Y199258D01*
X77268Y199503D01*
X77662Y200093D01*
X77800Y200787D01*
X77662Y201482D01*
X77268Y202071D01*
X76679Y202465D01*
X75984Y202603D01*
D02*
G37*
G36*
X86770Y135602D02*
X85145D01*
Y133978D01*
X85496Y134048D01*
X86218Y134530D01*
X86700Y135251D01*
X86770Y135602D01*
D02*
G37*
G36*
X84145D02*
X82521D01*
X82591Y135251D01*
X83073Y134530D01*
X83794Y134048D01*
X84145Y133978D01*
Y135602D01*
D02*
G37*
G36*
X217035Y128896D02*
Y127272D01*
X218660D01*
X218590Y127623D01*
X218108Y128344D01*
X217387Y128826D01*
X217035Y128896D01*
D02*
G37*
G36*
X216035D02*
X215684Y128826D01*
X214963Y128344D01*
X214481Y127623D01*
X214411Y127272D01*
X216035D01*
Y128896D01*
D02*
G37*
G36*
X189673Y128502D02*
Y126878D01*
X191298D01*
X191228Y127229D01*
X190746Y127950D01*
X190024Y128433D01*
X189673Y128502D01*
D02*
G37*
G36*
X188673D02*
X188322Y128433D01*
X187601Y127950D01*
X187119Y127229D01*
X187049Y126878D01*
X188673D01*
Y128502D01*
D02*
G37*
G36*
X218660Y126272D02*
X217035D01*
Y124647D01*
X217387Y124717D01*
X218108Y125199D01*
X218590Y125921D01*
X218660Y126272D01*
D02*
G37*
G36*
X216035D02*
X214411D01*
X214481Y125921D01*
X214963Y125199D01*
X215684Y124717D01*
X216035Y124647D01*
Y126272D01*
D02*
G37*
G36*
X191298Y125878D02*
X189673D01*
Y124254D01*
X190024Y124323D01*
X190746Y124805D01*
X191228Y125527D01*
X191298Y125878D01*
D02*
G37*
G36*
X188673D02*
X187049D01*
X187119Y125527D01*
X187601Y124805D01*
X188322Y124323D01*
X188673Y124254D01*
Y125878D01*
D02*
G37*
G36*
X92547Y118094D02*
Y114673D01*
X95968D01*
X95898Y115205D01*
X95500Y116167D01*
X94866Y116992D01*
X94041Y117626D01*
X93079Y118024D01*
X92547Y118094D01*
D02*
G37*
G36*
X82980Y116298D02*
Y114673D01*
X84605D01*
X84535Y115024D01*
X84053Y115746D01*
X83331Y116228D01*
X82980Y116298D01*
D02*
G37*
G36*
X81980D02*
X81629Y116228D01*
X80908Y115746D01*
X80426Y115024D01*
X80356Y114673D01*
X81980D01*
Y116298D01*
D02*
G37*
G36*
X91547Y118094D02*
X91015Y118024D01*
X90054Y117626D01*
X89228Y116992D01*
X88595Y116167D01*
X88196Y115205D01*
X88126Y114673D01*
X91547D01*
Y118094D01*
D02*
G37*
G36*
X194004Y114723D02*
Y113098D01*
X195628D01*
X195559Y113450D01*
X195076Y114171D01*
X194355Y114653D01*
X194004Y114723D01*
D02*
G37*
G36*
X193004D02*
X192653Y114653D01*
X191931Y114171D01*
X191449Y113450D01*
X191380Y113098D01*
X193004D01*
Y114723D01*
D02*
G37*
G36*
X52469Y114723D02*
Y113098D01*
X54093D01*
X54023Y113449D01*
X53541Y114171D01*
X52820Y114653D01*
X52469Y114723D01*
D02*
G37*
G36*
X51468D02*
X51117Y114653D01*
X50396Y114171D01*
X49914Y113449D01*
X49844Y113098D01*
X51468D01*
Y114723D01*
D02*
G37*
G36*
X84605Y113673D02*
X82980D01*
Y112049D01*
X83331Y112119D01*
X84053Y112601D01*
X84535Y113322D01*
X84605Y113673D01*
D02*
G37*
G36*
X81980D02*
X80356D01*
X80426Y113322D01*
X80908Y112601D01*
X81629Y112119D01*
X81980Y112049D01*
Y113673D01*
D02*
G37*
G36*
X178847Y113444D02*
Y110618D01*
X181672D01*
X181622Y110996D01*
X181283Y111814D01*
X180744Y112516D01*
X180042Y113055D01*
X179224Y113394D01*
X178847Y113444D01*
D02*
G37*
G36*
X177847D02*
X177469Y113394D01*
X176651Y113055D01*
X175949Y112516D01*
X175410Y111814D01*
X175071Y110996D01*
X175021Y110618D01*
X177847D01*
Y113444D01*
D02*
G37*
G36*
X112047Y117757D02*
X111120Y117634D01*
X110256Y117277D01*
X109513Y116707D01*
X108944Y115965D01*
X108586Y115101D01*
X108464Y114173D01*
X108586Y113246D01*
X108944Y112381D01*
X109513Y111639D01*
X110256Y111070D01*
X111120Y110712D01*
X112047Y110590D01*
X112975Y110712D01*
X113839Y111070D01*
X114581Y111639D01*
X115151Y112381D01*
X115508Y113246D01*
X115631Y114173D01*
X115508Y115101D01*
X115151Y115965D01*
X114581Y116707D01*
X113839Y117277D01*
X112975Y117634D01*
X112047Y117757D01*
D02*
G37*
G36*
X102047D02*
X101120Y117634D01*
X100256Y117277D01*
X99513Y116707D01*
X98944Y115965D01*
X98586Y115101D01*
X98464Y114173D01*
X98586Y113246D01*
X98944Y112381D01*
X99513Y111639D01*
X100256Y111070D01*
X101120Y110712D01*
X102047Y110590D01*
X102975Y110712D01*
X103839Y111070D01*
X104581Y111639D01*
X105151Y112381D01*
X105508Y113246D01*
X105631Y114173D01*
X105508Y115101D01*
X105151Y115965D01*
X104581Y116707D01*
X103839Y117277D01*
X102975Y117634D01*
X102047Y117757D01*
D02*
G37*
G36*
X195628Y112098D02*
X194004D01*
Y110474D01*
X194355Y110544D01*
X195076Y111026D01*
X195559Y111747D01*
X195628Y112098D01*
D02*
G37*
G36*
X193004D02*
X191380D01*
X191449Y111747D01*
X191931Y111026D01*
X192653Y110544D01*
X193004Y110474D01*
Y112098D01*
D02*
G37*
G36*
X54093Y112098D02*
X52469D01*
Y110474D01*
X52820Y110544D01*
X53541Y111026D01*
X54023Y111747D01*
X54093Y112098D01*
D02*
G37*
G36*
X51468D02*
X49844D01*
X49914Y111747D01*
X50396Y111026D01*
X51117Y110544D01*
X51468Y110474D01*
Y112098D01*
D02*
G37*
G36*
X95968Y113673D02*
X92547D01*
Y110252D01*
X93079Y110322D01*
X94041Y110721D01*
X94866Y111354D01*
X95500Y112180D01*
X95898Y113141D01*
X95968Y113673D01*
D02*
G37*
G36*
X91547D02*
X88126D01*
X88196Y113141D01*
X88595Y112180D01*
X89228Y111354D01*
X90054Y110721D01*
X91015Y110322D01*
X91547Y110252D01*
Y113673D01*
D02*
G37*
G36*
X215461Y109211D02*
Y107587D01*
X217085D01*
X217015Y107938D01*
X216533Y108659D01*
X215812Y109141D01*
X215461Y109211D01*
D02*
G37*
G36*
X214461D02*
X214110Y109141D01*
X213388Y108659D01*
X212906Y107938D01*
X212836Y107587D01*
X214461D01*
Y109211D01*
D02*
G37*
G36*
X206799D02*
Y107587D01*
X208424D01*
X208354Y107938D01*
X207872Y108659D01*
X207150Y109141D01*
X206799Y109211D01*
D02*
G37*
G36*
X205799D02*
X205448Y109141D01*
X204727Y108659D01*
X204245Y107938D01*
X204175Y107587D01*
X205799D01*
Y109211D01*
D02*
G37*
G36*
X161417Y113106D02*
X160644Y113004D01*
X159924Y112706D01*
X159305Y112231D01*
X158830Y111612D01*
X158531Y110891D01*
X158430Y110118D01*
X158531Y109345D01*
X158830Y108624D01*
X159305Y108005D01*
X159924Y107531D01*
X160644Y107232D01*
X161417Y107130D01*
X162191Y107232D01*
X162911Y107531D01*
X163530Y108005D01*
X164005Y108624D01*
X164303Y109345D01*
X164405Y110118D01*
X164303Y110891D01*
X164005Y111612D01*
X163530Y112231D01*
X162911Y112706D01*
X162191Y113004D01*
X161417Y113106D01*
D02*
G37*
G36*
X181672Y109618D02*
X178847D01*
Y106793D01*
X179224Y106843D01*
X180042Y107181D01*
X180744Y107720D01*
X181283Y108423D01*
X181622Y109240D01*
X181672Y109618D01*
D02*
G37*
G36*
X177847D02*
X175021D01*
X175071Y109240D01*
X175410Y108423D01*
X175949Y107720D01*
X176651Y107181D01*
X177469Y106843D01*
X177847Y106793D01*
Y109618D01*
D02*
G37*
G36*
X217085Y106587D02*
X215461D01*
Y104962D01*
X215812Y105032D01*
X216533Y105514D01*
X217015Y106236D01*
X217085Y106587D01*
D02*
G37*
G36*
X214461D02*
X212836D01*
X212906Y106236D01*
X213388Y105514D01*
X214110Y105032D01*
X214461Y104962D01*
Y106587D01*
D02*
G37*
G36*
X208424D02*
X206799D01*
Y104962D01*
X207150Y105032D01*
X207872Y105514D01*
X208354Y106236D01*
X208424Y106587D01*
D02*
G37*
G36*
X205799D02*
X204175D01*
X204245Y106236D01*
X204727Y105514D01*
X205448Y105032D01*
X205799Y104962D01*
Y106587D01*
D02*
G37*
G36*
X123335Y105372D02*
Y103748D01*
X124959D01*
X124889Y104099D01*
X124407Y104821D01*
X123686Y105303D01*
X123335Y105372D01*
D02*
G37*
G36*
X122335D02*
X121984Y105303D01*
X121262Y104821D01*
X120780Y104099D01*
X120710Y103748D01*
X122335D01*
Y105372D01*
D02*
G37*
G36*
X197047Y106737D02*
X196352Y106599D01*
X195763Y106205D01*
X195370Y105616D01*
X195231Y104921D01*
X195370Y104226D01*
X195763Y103637D01*
X196352Y103244D01*
X197047Y103105D01*
X197742Y103244D01*
X198331Y103637D01*
X198725Y104226D01*
X198863Y104921D01*
X198725Y105616D01*
X198331Y106205D01*
X197742Y106599D01*
X197047Y106737D01*
D02*
G37*
G36*
X124959Y102748D02*
X123335D01*
Y101124D01*
X123686Y101193D01*
X124407Y101675D01*
X124889Y102397D01*
X124959Y102748D01*
D02*
G37*
G36*
X122335D02*
X120710D01*
X120780Y102397D01*
X121262Y101675D01*
X121984Y101193D01*
X122335Y101124D01*
Y102748D01*
D02*
G37*
G36*
X169004Y100156D02*
Y98532D01*
X170628D01*
X170559Y98883D01*
X170076Y99604D01*
X169355Y100086D01*
X169004Y100156D01*
D02*
G37*
G36*
X168004D02*
X167653Y100086D01*
X166931Y99604D01*
X166449Y98883D01*
X166380Y98532D01*
X168004D01*
Y100156D01*
D02*
G37*
G36*
X69299Y98581D02*
Y96957D01*
X70924D01*
X70854Y97308D01*
X70372Y98029D01*
X69650Y98511D01*
X69299Y98581D01*
D02*
G37*
G36*
X68299D02*
X67948Y98511D01*
X67227Y98029D01*
X66745Y97308D01*
X66675Y96957D01*
X68299D01*
Y98581D01*
D02*
G37*
G36*
X124803Y99867D02*
X124108Y99729D01*
X123519Y99335D01*
X123125Y98746D01*
X122987Y98051D01*
X123073Y97619D01*
X113970Y88516D01*
X86568D01*
X86323Y88882D01*
X85734Y89276D01*
X85039Y89414D01*
X84344Y89276D01*
X83755Y88882D01*
X83362Y88293D01*
X83223Y87598D01*
X83362Y86904D01*
X83755Y86314D01*
X84344Y85921D01*
X85039Y85782D01*
X85734Y85921D01*
X86323Y86314D01*
X86568Y86681D01*
X114350D01*
X114702Y86751D01*
X114999Y86950D01*
X124371Y96321D01*
X124803Y96235D01*
X125498Y96373D01*
X126087Y96767D01*
X126481Y97356D01*
X126619Y98051D01*
X126481Y98746D01*
X126087Y99335D01*
X125498Y99729D01*
X124803Y99867D01*
D02*
G37*
G36*
X170628Y97531D02*
X169004D01*
Y95907D01*
X169355Y95977D01*
X170076Y96459D01*
X170559Y97180D01*
X170628Y97531D01*
D02*
G37*
G36*
X168004D02*
X166380D01*
X166449Y97180D01*
X166931Y96459D01*
X167653Y95977D01*
X168004Y95907D01*
Y97531D01*
D02*
G37*
G36*
X70924Y95957D02*
X69299D01*
Y94332D01*
X69650Y94402D01*
X70372Y94884D01*
X70854Y95606D01*
X70924Y95957D01*
D02*
G37*
G36*
X68299D02*
X66675D01*
X66745Y95606D01*
X67227Y94884D01*
X67948Y94402D01*
X68299Y94332D01*
Y95957D01*
D02*
G37*
G36*
X104043Y95175D02*
Y93551D01*
X105668D01*
X105598Y93902D01*
X105116Y94624D01*
X104394Y95106D01*
X104043Y95175D01*
D02*
G37*
G36*
X103043D02*
X102692Y95106D01*
X101971Y94624D01*
X101489Y93902D01*
X101419Y93551D01*
X103043D01*
Y95175D01*
D02*
G37*
G36*
X84260Y94349D02*
Y92724D01*
X85884D01*
X85814Y93075D01*
X85332Y93797D01*
X84611Y94279D01*
X84260Y94349D01*
D02*
G37*
G36*
X83260D02*
X82909Y94279D01*
X82187Y93797D01*
X81705Y93075D01*
X81635Y92724D01*
X83260D01*
Y94349D01*
D02*
G37*
G36*
X105668Y92551D02*
X104043D01*
Y90927D01*
X104394Y90997D01*
X105116Y91479D01*
X105598Y92200D01*
X105668Y92551D01*
D02*
G37*
G36*
X103043D02*
X101419D01*
X101489Y92200D01*
X101971Y91479D01*
X102692Y90997D01*
X103043Y90927D01*
Y92551D01*
D02*
G37*
G36*
X85884Y91724D02*
X84260D01*
Y90100D01*
X84611Y90170D01*
X85332Y90652D01*
X85814Y91373D01*
X85884Y91724D01*
D02*
G37*
G36*
X83260D02*
X81635D01*
X81705Y91373D01*
X82187Y90652D01*
X82909Y90170D01*
X83260Y90100D01*
Y91724D01*
D02*
G37*
G36*
X213492Y88739D02*
Y87114D01*
X215117D01*
X215047Y87465D01*
X214565Y88187D01*
X213843Y88669D01*
X213492Y88739D01*
D02*
G37*
G36*
X212492D02*
X212141Y88669D01*
X211420Y88187D01*
X210938Y87465D01*
X210868Y87114D01*
X212492D01*
Y88739D01*
D02*
G37*
G36*
X199713Y86376D02*
Y84752D01*
X201337D01*
X201267Y85103D01*
X200785Y85825D01*
X200064Y86307D01*
X199713Y86376D01*
D02*
G37*
G36*
X198713D02*
X198362Y86307D01*
X197640Y85825D01*
X197158Y85103D01*
X197088Y84752D01*
X198713D01*
Y86376D01*
D02*
G37*
G36*
X215117Y86114D02*
X213492D01*
Y84490D01*
X213843Y84560D01*
X214565Y85042D01*
X215047Y85763D01*
X215117Y86114D01*
D02*
G37*
G36*
X212492D02*
X210868D01*
X210938Y85763D01*
X211420Y85042D01*
X212141Y84560D01*
X212492Y84490D01*
Y86114D01*
D02*
G37*
G36*
X68069Y83752D02*
X66445D01*
Y82128D01*
X66796Y82197D01*
X67517Y82679D01*
X67999Y83401D01*
X68069Y83752D01*
D02*
G37*
G36*
X65445D02*
X63820D01*
X63890Y83401D01*
X64372Y82679D01*
X65094Y82197D01*
X65445Y82128D01*
Y83752D01*
D02*
G37*
G36*
X201337D02*
X199713D01*
Y82128D01*
X200064Y82197D01*
X200785Y82679D01*
X201267Y83401D01*
X201337Y83752D01*
D02*
G37*
G36*
X198713D02*
X197088D01*
X197158Y83401D01*
X197640Y82679D01*
X198362Y82197D01*
X198713Y82128D01*
Y83752D01*
D02*
G37*
G36*
X193504Y84100D02*
X192809Y83961D01*
X192220Y83568D01*
X191826Y82978D01*
X191688Y82284D01*
X191726Y82092D01*
X189693Y80059D01*
X124129D01*
X124020Y80221D01*
X123431Y80615D01*
X122736Y80753D01*
X122041Y80615D01*
X121452Y80221D01*
X121058Y79632D01*
X120920Y78937D01*
X121058Y78242D01*
X121452Y77653D01*
X122041Y77259D01*
X122736Y77121D01*
X123431Y77259D01*
X124020Y77653D01*
X124129Y77816D01*
X190157D01*
X190157Y77815D01*
X190587Y77901D01*
X190951Y78144D01*
X193312Y80506D01*
X193504Y80467D01*
X194199Y80606D01*
X194788Y80999D01*
X195182Y81589D01*
X195320Y82284D01*
X195182Y82978D01*
X194788Y83568D01*
X194199Y83961D01*
X193504Y84100D01*
D02*
G37*
G36*
X105717Y80668D02*
Y79043D01*
X107341D01*
X107271Y79394D01*
X106789Y80116D01*
X106068Y80598D01*
X105717Y80668D01*
D02*
G37*
G36*
X104717D02*
X104366Y80598D01*
X103644Y80116D01*
X103162Y79394D01*
X103092Y79043D01*
X104717D01*
Y80668D01*
D02*
G37*
G36*
X80323Y80176D02*
Y78551D01*
X81947D01*
X81877Y78902D01*
X81395Y79624D01*
X80674Y80106D01*
X80323Y80176D01*
D02*
G37*
G36*
X79323D02*
X78972Y80106D01*
X78250Y79624D01*
X77768Y78902D01*
X77698Y78551D01*
X79323D01*
Y80176D01*
D02*
G37*
G36*
X107341Y78043D02*
X105717D01*
Y76419D01*
X106068Y76489D01*
X106789Y76971D01*
X107271Y77692D01*
X107341Y78043D01*
D02*
G37*
G36*
X104717D02*
X103092D01*
X103162Y77692D01*
X103644Y76971D01*
X104366Y76489D01*
X104717Y76419D01*
Y78043D01*
D02*
G37*
G36*
X81947Y77551D02*
X80323D01*
Y75927D01*
X80674Y75997D01*
X81395Y76479D01*
X81877Y77200D01*
X81947Y77551D01*
D02*
G37*
G36*
X79323D02*
X77698D01*
X77768Y77200D01*
X78250Y76479D01*
X78972Y75997D01*
X79323Y75927D01*
Y77551D01*
D02*
G37*
G36*
X114476Y74369D02*
Y72744D01*
X116101D01*
X116031Y73095D01*
X115549Y73817D01*
X114827Y74299D01*
X114476Y74369D01*
D02*
G37*
G36*
X113476D02*
X113125Y74299D01*
X112404Y73817D01*
X111922Y73095D01*
X111852Y72744D01*
X113476D01*
Y74369D01*
D02*
G37*
G36*
X212213Y73778D02*
Y72154D01*
X213837D01*
X213767Y72505D01*
X213285Y73226D01*
X212564Y73708D01*
X212213Y73778D01*
D02*
G37*
G36*
X211213D02*
X210862Y73708D01*
X210140Y73226D01*
X209658Y72505D01*
X209588Y72154D01*
X211213D01*
Y73778D01*
D02*
G37*
G36*
X116101Y71744D02*
X114476D01*
Y70120D01*
X114827Y70189D01*
X115549Y70672D01*
X116031Y71393D01*
X116101Y71744D01*
D02*
G37*
G36*
X113476D02*
X111852D01*
X111922Y71393D01*
X112404Y70672D01*
X113125Y70189D01*
X113476Y70120D01*
Y71744D01*
D02*
G37*
G36*
X213837Y71153D02*
X212213D01*
Y69529D01*
X212564Y69599D01*
X213285Y70081D01*
X213767Y70802D01*
X213837Y71153D01*
D02*
G37*
G36*
X211213D02*
X209588D01*
X209658Y70802D01*
X210140Y70081D01*
X210862Y69599D01*
X211213Y69529D01*
Y71153D01*
D02*
G37*
G36*
X224909Y67872D02*
Y66248D01*
X226534D01*
X226464Y66599D01*
X225982Y67321D01*
X225260Y67803D01*
X224909Y67872D01*
D02*
G37*
G36*
X223909D02*
X223558Y67803D01*
X222837Y67321D01*
X222355Y66599D01*
X222285Y66248D01*
X223909D01*
Y67872D01*
D02*
G37*
G36*
X226534Y65248D02*
X224909D01*
Y63624D01*
X225260Y63693D01*
X225982Y64175D01*
X226464Y64897D01*
X226534Y65248D01*
D02*
G37*
G36*
X223909D02*
X222285D01*
X222355Y64897D01*
X222837Y64175D01*
X223558Y63693D01*
X223909Y63624D01*
Y65248D01*
D02*
G37*
%LPD*%
D12*
X132047Y90295D02*
Y114173D01*
X124803Y83051D02*
X132047Y90295D01*
X114350Y87598D02*
X124803Y98051D01*
X223831Y152153D02*
Y158465D01*
Y152153D02*
X232913Y143071D01*
X269291D01*
X60925Y127854D02*
X100295D01*
X47146Y114075D02*
X60925Y127854D01*
X47146Y79331D02*
Y114075D01*
X119272Y83051D02*
X124803D01*
X107874Y71653D02*
X119272Y83051D01*
X99311Y71653D02*
X107874D01*
X47146Y79331D02*
X50000Y76476D01*
X50197Y87106D02*
X70177D01*
X50000Y76476D02*
X73819D01*
X100295Y127854D02*
X108366Y135925D01*
X75984Y156102D02*
Y200787D01*
Y156102D02*
X96161Y135925D01*
X112402Y104035D02*
X122047Y113681D01*
Y114173D01*
X87106Y104035D02*
X112402D01*
X70177Y87106D02*
X87106Y104035D01*
X85039Y87598D02*
X114350D01*
X197480Y123071D02*
X269291D01*
X192913Y118504D02*
X197480Y123071D01*
X197244Y126772D02*
X211417D01*
X188583Y135433D02*
X197244Y126772D01*
X188583Y135433D02*
Y159544D01*
X178992Y169134D02*
X188583Y159544D01*
X195669Y142126D02*
X198031Y144488D01*
Y199606D01*
D16*
X122736Y78937D02*
X190157D01*
X138135Y276718D02*
X202998D01*
X203051Y276772D01*
X128543Y267126D02*
X138135Y276718D01*
X128543Y117677D02*
Y267126D01*
X126943Y166732D02*
Y267790D01*
X137472Y278318D02*
X169755D01*
X172146Y280709D01*
X126943Y267790D02*
X137472Y278318D01*
X128543Y117677D02*
X132047Y114173D01*
X190157Y78937D02*
X193504Y82284D01*
X115256Y161024D02*
X121235D01*
X82874D02*
X115256D01*
X121235D02*
X126943Y166732D01*
X113287Y303150D02*
X154331D01*
X102086D02*
X113287D01*
Y237479D02*
Y303150D01*
X113253Y237444D02*
X113287Y237479D01*
X113253Y236481D02*
Y237444D01*
X112992Y236220D02*
X113253Y236481D01*
X72834Y273898D02*
X102086Y303150D01*
X154331D02*
X162992Y294488D01*
X154331Y303150D02*
X185433D01*
X194095Y294488D01*
D59*
X132047Y114173D02*
D03*
X122047D02*
D03*
X112047D02*
D03*
X102047D02*
D03*
X92047D02*
D03*
X223831Y197835D02*
D03*
Y158465D02*
D03*
D60*
X269291Y173071D02*
D03*
Y143071D02*
D03*
Y123071D02*
D03*
Y93071D02*
D03*
D61*
X161417Y159961D02*
D03*
Y110118D02*
D03*
X178347Y159961D02*
D03*
Y110118D02*
D03*
D62*
X188993Y189134D02*
D03*
X178992D02*
D03*
X168992D02*
D03*
Y169134D02*
D03*
X178992D02*
D03*
X188993D02*
D03*
X208993D02*
D03*
Y189134D02*
D03*
D63*
X311024Y297638D02*
D03*
Y154331D02*
D03*
X366142D02*
D03*
Y297638D02*
D03*
D64*
X122736Y78937D02*
D03*
X124803Y98051D02*
D03*
X211713Y71653D02*
D03*
X203051Y276772D02*
D03*
X99311Y71653D02*
D03*
X124803Y83051D02*
D03*
X132972Y215846D02*
D03*
X79823Y78051D02*
D03*
X83760Y92224D02*
D03*
X68799Y96457D02*
D03*
X65945Y84252D02*
D03*
X115256Y161024D02*
D03*
X82874D02*
D03*
X172146Y280709D02*
D03*
X73819Y76476D02*
D03*
X108366Y135925D02*
D03*
X75984Y200787D02*
D03*
X96161Y135925D02*
D03*
X50197Y87205D02*
D03*
X193504Y82284D02*
D03*
X140945Y206791D02*
D03*
X132972Y197539D02*
D03*
X85039Y87598D02*
D03*
X103543Y93051D02*
D03*
X113976Y72244D02*
D03*
X82480Y114173D02*
D03*
X84645Y136102D02*
D03*
X75984Y224409D02*
D03*
X108268Y273898D02*
D03*
X96457D02*
D03*
X112992Y236220D02*
D03*
X72834Y273898D02*
D03*
X122835Y103248D02*
D03*
X162992Y294488D02*
D03*
X194095D02*
D03*
X197047Y104921D02*
D03*
X192913Y118504D02*
D03*
X189173Y126378D02*
D03*
X149213Y284744D02*
D03*
X51968Y112598D02*
D03*
X105217Y78543D02*
D03*
X190945Y142126D02*
D03*
X216535Y126772D02*
D03*
X214961Y107087D02*
D03*
X206299D02*
D03*
X193504Y112598D02*
D03*
X168504Y98032D02*
D03*
X224410Y65748D02*
D03*
X212992Y86614D02*
D03*
X199213Y84252D02*
D03*
X212205Y294488D02*
D03*
X181102D02*
D03*
X187598Y263976D02*
D03*
X211417Y126772D02*
D03*
X195669Y142126D02*
D03*
X198031Y199606D02*
D03*
M02*
