G04*
G04 #@! TF.GenerationSoftware,Altium Limited,Altium Designer,19.0.15 (446)*
G04*
G04 Layer_Physical_Order=2*
G04 Layer_Color=16711680*
%FSLAX25Y25*%
%MOIN*%
G70*
G01*
G75*
%ADD12C,0.00600*%
%ADD18C,0.01000*%
%ADD44R,0.02953X0.03150*%
%ADD63C,0.31496*%
%ADD64C,0.05906*%
%ADD65C,0.03838*%
%ADD66C,0.03543*%
%ADD67C,0.02362*%
%ADD68C,0.01968*%
G36*
X24016Y122811D02*
Y1980D01*
X17252Y-4784D01*
X-17682D01*
X-17786Y-3994D01*
X-18144Y-3130D01*
X-18714Y-2387D01*
X-19456Y-1818D01*
X-20320Y-1460D01*
X-21248Y-1338D01*
X-22175Y-1460D01*
X-23039Y-1818D01*
X-23782Y-2387D01*
X-24351Y-3130D01*
X-24629Y-3800D01*
X-36132D01*
X-36132Y-3800D01*
X-36561Y-3885D01*
X-36925Y-4128D01*
X-36925Y-4128D01*
X-46373Y-13577D01*
X-46565Y-13538D01*
X-47260Y-13677D01*
X-47849Y-14070D01*
X-47958Y-14233D01*
X-52145D01*
X-52574Y-14318D01*
X-52938Y-14561D01*
X-52938Y-14561D01*
X-60908Y-22532D01*
X-61369Y-22285D01*
X-61243Y-21654D01*
X-61427Y-20728D01*
X-61952Y-19944D01*
X-62736Y-19420D01*
X-63661Y-19236D01*
X-64587Y-19420D01*
X-65371Y-19944D01*
X-65895Y-20728D01*
X-66052Y-21516D01*
X-67805D01*
Y-20463D01*
X-71958D01*
Y-24813D01*
X-67805D01*
Y-23759D01*
X-65334D01*
X-65334Y-23759D01*
X-64906Y-23674D01*
X-64587Y-23888D01*
X-63661Y-24071D01*
X-63029Y-23946D01*
X-62783Y-24407D01*
X-70675Y-32298D01*
X-70918Y-32662D01*
X-71004Y-33091D01*
X-71003Y-33091D01*
Y-34242D01*
X-71958D01*
Y-35500D01*
X-74259D01*
X-74503Y-35133D01*
X-75093Y-34740D01*
X-75787Y-34601D01*
X-76482Y-34740D01*
X-77071Y-35133D01*
X-77465Y-35722D01*
X-77478Y-35789D01*
X-77978Y-35740D01*
Y-17160D01*
X-71578Y-10760D01*
X-60632D01*
X-60281Y-10690D01*
X-59983Y-10491D01*
X-58015Y-8523D01*
X-57816Y-8225D01*
X-57746Y-7874D01*
Y11D01*
X-37834Y19924D01*
X-37402Y19838D01*
X-36707Y19976D01*
X-36118Y20369D01*
X-35724Y20959D01*
X-35586Y21654D01*
X-35724Y22348D01*
X-36118Y22938D01*
X-36707Y23331D01*
X-37402Y23470D01*
X-38096Y23331D01*
X-38686Y22938D01*
X-39079Y22348D01*
X-39218Y21654D01*
X-39132Y21221D01*
X-59313Y1040D01*
X-59512Y742D01*
X-59581Y391D01*
Y-7494D01*
X-61012Y-8925D01*
X-71958D01*
X-72309Y-8995D01*
X-72607Y-9194D01*
X-79545Y-16131D01*
X-79744Y-16429D01*
X-79814Y-16780D01*
Y-90038D01*
X-89252Y-99476D01*
X-176951D01*
X-211681Y-64746D01*
Y-44364D01*
X-211314Y-44119D01*
X-210921Y-43530D01*
X-210782Y-42835D01*
X-210921Y-42140D01*
X-211314Y-41551D01*
X-211904Y-41157D01*
X-212598Y-41019D01*
X-213293Y-41157D01*
X-213882Y-41551D01*
X-214276Y-42140D01*
X-214414Y-42835D01*
X-214276Y-43530D01*
X-213882Y-44119D01*
X-213516Y-44364D01*
Y-65126D01*
X-213446Y-65477D01*
X-213247Y-65775D01*
X-177979Y-101043D01*
X-177682Y-101242D01*
X-177331Y-101311D01*
X-88872D01*
X-88847Y-101306D01*
X-88601Y-101767D01*
X-88963Y-102129D01*
X-178069D01*
X-215893Y-64305D01*
Y-59600D01*
X-215527Y-59355D01*
X-215133Y-58766D01*
X-214995Y-58071D01*
X-215133Y-57376D01*
X-215527Y-56787D01*
X-216116Y-56393D01*
X-216811Y-56255D01*
X-217506Y-56393D01*
X-218095Y-56787D01*
X-218267Y-57045D01*
X-218767Y-56893D01*
Y-33182D01*
X-218401Y-32938D01*
X-218007Y-32348D01*
X-217869Y-31654D01*
X-218007Y-30959D01*
X-218401Y-30369D01*
X-218990Y-29976D01*
X-219685Y-29838D01*
X-220380Y-29976D01*
X-220969Y-30369D01*
X-221363Y-30959D01*
X-221501Y-31654D01*
X-221363Y-32348D01*
X-220969Y-32938D01*
X-220603Y-33182D01*
Y-65134D01*
X-220533Y-65485D01*
X-220334Y-65783D01*
X-180442Y-105675D01*
X-180145Y-105873D01*
X-179794Y-105943D01*
X-87669D01*
X-87317Y-105873D01*
X-87020Y-105675D01*
X-70611Y-89266D01*
X-70412Y-88968D01*
X-70342Y-88617D01*
Y-59649D01*
X-65154Y-54461D01*
X-25663D01*
X-25418Y-54827D01*
X-24829Y-55221D01*
X-24134Y-55359D01*
X-23439Y-55221D01*
X-22850Y-54827D01*
X-22456Y-54238D01*
X-22318Y-53543D01*
X-22456Y-52848D01*
X-22850Y-52259D01*
X-23439Y-51866D01*
X-24134Y-51727D01*
X-24829Y-51866D01*
X-25418Y-52259D01*
X-25663Y-52626D01*
X-65534D01*
X-65886Y-52696D01*
X-66183Y-52894D01*
X-71909Y-58620D01*
X-72108Y-58918D01*
X-72177Y-59269D01*
Y-87774D01*
X-72204Y-87794D01*
X-72704Y-87542D01*
Y-38583D01*
X-72774Y-38232D01*
X-72973Y-37934D01*
X-73110Y-37797D01*
X-72919Y-37335D01*
X-71958D01*
Y-38592D01*
X-67805D01*
Y-34242D01*
X-68760D01*
Y-33556D01*
X-66523Y-31318D01*
X-66062Y-31564D01*
X-66079Y-31654D01*
X-65895Y-32579D01*
X-65371Y-33363D01*
X-64587Y-33887D01*
X-63661Y-34071D01*
X-62736Y-33887D01*
X-62730Y-33883D01*
X-53475Y-43138D01*
X-53639Y-43681D01*
X-54001Y-43753D01*
X-54722Y-44235D01*
X-55204Y-44956D01*
X-55274Y-45307D01*
X-53150D01*
Y-45807D01*
X-52650D01*
Y-47932D01*
X-52299Y-47862D01*
X-51577Y-47380D01*
X-51095Y-46658D01*
X-51007Y-46216D01*
X-50689Y-45842D01*
X-50468Y-45875D01*
X-50330Y-45903D01*
X-34993D01*
X-34749Y-46269D01*
X-34159Y-46663D01*
X-33465Y-46801D01*
X-32770Y-46663D01*
X-32181Y-46269D01*
X-31787Y-45680D01*
X-31649Y-44985D01*
X-31787Y-44290D01*
X-32181Y-43701D01*
X-32770Y-43307D01*
X-33465Y-43169D01*
X-34159Y-43307D01*
X-34749Y-43701D01*
X-34993Y-44067D01*
X-49950D01*
X-61432Y-32585D01*
X-61427Y-32579D01*
X-61243Y-31654D01*
X-61427Y-30728D01*
X-61952Y-29944D01*
X-62736Y-29420D01*
X-63661Y-29236D01*
X-63751Y-29253D01*
X-63997Y-28793D01*
X-51680Y-16476D01*
X-47958D01*
X-47849Y-16638D01*
X-47260Y-17032D01*
X-46565Y-17170D01*
X-45870Y-17032D01*
X-45281Y-16638D01*
X-44887Y-16049D01*
X-44749Y-15354D01*
X-44787Y-15163D01*
X-35667Y-6043D01*
X-24629D01*
X-24351Y-6713D01*
X-23782Y-7455D01*
X-23039Y-8025D01*
X-22175Y-8383D01*
X-21248Y-8505D01*
X-20320Y-8383D01*
X-19456Y-8025D01*
X-18714Y-7455D01*
X-18385Y-7027D01*
X17717D01*
X17717Y-7027D01*
X18146Y-6942D01*
X18510Y-6699D01*
X23554Y-1654D01*
X24016Y-1846D01*
Y-122811D01*
X-254308Y-122811D01*
X-254308Y122811D01*
X24016Y122811D01*
D02*
G37*
G36*
X-77465Y-37112D02*
X-77071Y-37701D01*
X-76482Y-38095D01*
X-75787Y-38233D01*
X-75355Y-38147D01*
X-74540Y-38963D01*
Y-67412D01*
X-75040Y-67564D01*
X-75199Y-67325D01*
X-75921Y-66843D01*
X-76272Y-66773D01*
Y-68898D01*
Y-71022D01*
X-75921Y-70952D01*
X-75199Y-70470D01*
X-75040Y-70231D01*
X-74540Y-70383D01*
Y-87706D01*
X-77522Y-90689D01*
X-77983Y-90442D01*
X-77978Y-90418D01*
Y-71270D01*
X-77478Y-70981D01*
X-77272Y-71022D01*
Y-68898D01*
Y-66773D01*
X-77478Y-66814D01*
X-77978Y-66525D01*
Y-37095D01*
X-77478Y-37046D01*
X-77465Y-37112D01*
D02*
G37*
G36*
X-218095Y-59355D02*
X-217729Y-59600D01*
Y-64685D01*
X-217659Y-65036D01*
X-217460Y-65334D01*
X-179580Y-103214D01*
X-179727Y-103774D01*
X-179734Y-103776D01*
X-179752Y-103769D01*
X-218767Y-64754D01*
Y-59249D01*
X-218267Y-59097D01*
X-218095Y-59355D01*
D02*
G37*
%LPC*%
G36*
X-154422Y116097D02*
Y114673D01*
X-152998D01*
X-153053Y114947D01*
X-153491Y115604D01*
X-154148Y116042D01*
X-154422Y116097D01*
D02*
G37*
G36*
X-155422D02*
X-155696Y116042D01*
X-156352Y115604D01*
X-156791Y114947D01*
X-156845Y114673D01*
X-155422D01*
Y116097D01*
D02*
G37*
G36*
X-166233D02*
Y114673D01*
X-164809D01*
X-164864Y114947D01*
X-165302Y115604D01*
X-165958Y116042D01*
X-166233Y116097D01*
D02*
G37*
G36*
X-167233D02*
X-167507Y116042D01*
X-168163Y115604D01*
X-168602Y114947D01*
X-168656Y114673D01*
X-167233D01*
Y116097D01*
D02*
G37*
G36*
X-152998Y113673D02*
X-156845D01*
X-156791Y113399D01*
X-156352Y112743D01*
X-155997Y112505D01*
Y111904D01*
X-156352Y111667D01*
X-156791Y111010D01*
X-156845Y110736D01*
X-152998D01*
X-153053Y111010D01*
X-153491Y111667D01*
X-153846Y111904D01*
Y112505D01*
X-153491Y112743D01*
X-153053Y113399D01*
X-152998Y113673D01*
D02*
G37*
G36*
X-164809D02*
X-168656D01*
X-168602Y113399D01*
X-168163Y112743D01*
X-167808Y112505D01*
Y111904D01*
X-168163Y111667D01*
X-168602Y111010D01*
X-168656Y110736D01*
X-164809D01*
X-164864Y111010D01*
X-165302Y111667D01*
X-165657Y111904D01*
Y112505D01*
X-165302Y112743D01*
X-164864Y113399D01*
X-164809Y113673D01*
D02*
G37*
G36*
X-152998Y109736D02*
X-154422D01*
Y108313D01*
X-154148Y108367D01*
X-153491Y108806D01*
X-153053Y109462D01*
X-152998Y109736D01*
D02*
G37*
G36*
X-155422D02*
X-156845D01*
X-156791Y109462D01*
X-156352Y108806D01*
X-155696Y108367D01*
X-155422Y108313D01*
Y109736D01*
D02*
G37*
G36*
X-164809D02*
X-166233D01*
Y108313D01*
X-165958Y108367D01*
X-165302Y108806D01*
X-164864Y109462D01*
X-164809Y109736D01*
D02*
G37*
G36*
X-167233D02*
X-168656D01*
X-168602Y109462D01*
X-168163Y108806D01*
X-167507Y108367D01*
X-167233Y108313D01*
Y109736D01*
D02*
G37*
G36*
X-32374Y105471D02*
Y103847D01*
X-30750D01*
X-30819Y104198D01*
X-31302Y104919D01*
X-32023Y105401D01*
X-32374Y105471D01*
D02*
G37*
G36*
X-33374D02*
X-33725Y105401D01*
X-34446Y104919D01*
X-34929Y104198D01*
X-34998Y103847D01*
X-33374D01*
Y105471D01*
D02*
G37*
G36*
X-63476D02*
Y103847D01*
X-61852D01*
X-61922Y104198D01*
X-62404Y104919D01*
X-63125Y105401D01*
X-63476Y105471D01*
D02*
G37*
G36*
X-64476D02*
X-64827Y105401D01*
X-65549Y104919D01*
X-66031Y104198D01*
X-66101Y103847D01*
X-64476D01*
Y105471D01*
D02*
G37*
G36*
X-30750Y102847D02*
X-32374D01*
Y101222D01*
X-32023Y101292D01*
X-31302Y101774D01*
X-30819Y102495D01*
X-30750Y102847D01*
D02*
G37*
G36*
X-33374D02*
X-34998D01*
X-34929Y102495D01*
X-34446Y101774D01*
X-33725Y101292D01*
X-33374Y101222D01*
Y102847D01*
D02*
G37*
G36*
X-61852D02*
X-63476D01*
Y101222D01*
X-63125Y101292D01*
X-62404Y101774D01*
X-61922Y102495D01*
X-61852Y102847D01*
D02*
G37*
G36*
X-64476D02*
X-66101D01*
X-66031Y102495D01*
X-65549Y101774D01*
X-64827Y101292D01*
X-64476Y101222D01*
Y102847D01*
D02*
G37*
G36*
X2468Y115176D02*
Y98925D01*
X18720D01*
X18609Y100616D01*
X18181Y102769D01*
X17475Y104848D01*
X16504Y106817D01*
X15284Y108643D01*
X13837Y110293D01*
X12186Y111741D01*
X10361Y112961D01*
X8392Y113932D01*
X6312Y114637D01*
X4159Y115066D01*
X2468Y115176D01*
D02*
G37*
G36*
X1469D02*
X-222Y115066D01*
X-2376Y114637D01*
X-4454Y113932D01*
X-6424Y112961D01*
X-8249Y111741D01*
X-9900Y110293D01*
X-11347Y108643D01*
X-12567Y106817D01*
X-13538Y104848D01*
X-14244Y102769D01*
X-14672Y100616D01*
X-14783Y98925D01*
X1469D01*
Y115176D01*
D02*
G37*
G36*
X-220957D02*
Y98925D01*
X-204706D01*
X-204816Y100616D01*
X-205245Y102769D01*
X-205950Y104848D01*
X-206921Y106817D01*
X-208141Y108643D01*
X-209589Y110293D01*
X-211239Y111741D01*
X-213065Y112961D01*
X-215034Y113932D01*
X-217113Y114637D01*
X-219266Y115066D01*
X-220957Y115176D01*
D02*
G37*
G36*
X-221957D02*
X-223647Y115066D01*
X-225801Y114637D01*
X-227880Y113932D01*
X-229849Y112961D01*
X-231674Y111741D01*
X-233325Y110293D01*
X-234772Y108643D01*
X-235992Y106817D01*
X-236963Y104848D01*
X-237669Y102769D01*
X-238097Y100616D01*
X-238208Y98925D01*
X-221957D01*
Y115176D01*
D02*
G37*
G36*
X-93988Y94144D02*
Y92520D01*
X-92364D01*
X-92434Y92871D01*
X-92916Y93592D01*
X-93637Y94074D01*
X-93988Y94144D01*
D02*
G37*
G36*
X-94988D02*
X-95339Y94074D01*
X-96061Y93592D01*
X-96543Y92871D01*
X-96613Y92520D01*
X-94988D01*
Y94144D01*
D02*
G37*
G36*
X-92364Y91520D02*
X-93988D01*
Y89895D01*
X-93637Y89965D01*
X-92916Y90447D01*
X-92434Y91169D01*
X-92364Y91520D01*
D02*
G37*
G36*
X-94988D02*
X-96613D01*
X-96543Y91169D01*
X-96061Y90447D01*
X-95339Y89965D01*
X-94988Y89895D01*
Y91520D01*
D02*
G37*
G36*
X18720Y97925D02*
X2468D01*
Y81674D01*
X4159Y81785D01*
X6312Y82213D01*
X8392Y82919D01*
X10361Y83890D01*
X12186Y85110D01*
X13837Y86557D01*
X15284Y88208D01*
X16504Y90033D01*
X17475Y92002D01*
X18181Y94081D01*
X18609Y96234D01*
X18720Y97925D01*
D02*
G37*
G36*
X1469D02*
X-14783D01*
X-14672Y96234D01*
X-14244Y94081D01*
X-13538Y92002D01*
X-12567Y90033D01*
X-11347Y88208D01*
X-9900Y86557D01*
X-8249Y85110D01*
X-6424Y83890D01*
X-4454Y82919D01*
X-2376Y82213D01*
X-222Y81785D01*
X1469Y81674D01*
Y97925D01*
D02*
G37*
G36*
X-204706D02*
X-220957D01*
Y81674D01*
X-219266Y81785D01*
X-217113Y82213D01*
X-215034Y82919D01*
X-213065Y83890D01*
X-211239Y85110D01*
X-209589Y86557D01*
X-208141Y88208D01*
X-206921Y90033D01*
X-205950Y92002D01*
X-205245Y94081D01*
X-204816Y96234D01*
X-204706Y97925D01*
D02*
G37*
G36*
X-221957D02*
X-238208D01*
X-238097Y96234D01*
X-237669Y94081D01*
X-236963Y92002D01*
X-235992Y90033D01*
X-234772Y88208D01*
X-233325Y86557D01*
X-231674Y85110D01*
X-229849Y83890D01*
X-227880Y82919D01*
X-225801Y82213D01*
X-223647Y81785D01*
X-221957Y81674D01*
Y97925D01*
D02*
G37*
G36*
X-51181Y80642D02*
X-75787D01*
X-76139Y80572D01*
X-76436Y80373D01*
X-103680Y53129D01*
X-103879Y52832D01*
X-103949Y52480D01*
Y-10317D01*
X-103959Y-10318D01*
X-104823Y-10676D01*
X-104831Y-10682D01*
X-108288Y-7225D01*
X-108586Y-7026D01*
X-108937Y-6956D01*
X-144685D01*
X-145036Y-7026D01*
X-145334Y-7225D01*
X-149986Y-11878D01*
X-152999D01*
X-153244Y-11511D01*
X-153833Y-11118D01*
X-154528Y-10979D01*
X-155222Y-11118D01*
X-155812Y-11511D01*
X-156205Y-12100D01*
X-156344Y-12795D01*
X-156205Y-13490D01*
X-155812Y-14079D01*
X-155222Y-14473D01*
X-154528Y-14611D01*
X-153833Y-14473D01*
X-153244Y-14079D01*
X-152999Y-13713D01*
X-149606D01*
X-149255Y-13643D01*
X-148957Y-13444D01*
X-146505Y-10991D01*
X-146128Y-11322D01*
X-146484Y-11786D01*
X-146882Y-12748D01*
X-146952Y-13280D01*
X-143032D01*
Y-13780D01*
X-142532D01*
Y-17701D01*
X-142000Y-17630D01*
X-141038Y-17232D01*
X-140212Y-16599D01*
X-139579Y-15773D01*
X-139181Y-14811D01*
X-138713Y-14925D01*
Y-27999D01*
X-139079Y-28243D01*
X-139473Y-28833D01*
X-139611Y-29528D01*
X-139473Y-30222D01*
X-139079Y-30812D01*
X-138490Y-31205D01*
X-137795Y-31343D01*
X-137100Y-31205D01*
X-136511Y-30812D01*
X-136117Y-30222D01*
X-135979Y-29528D01*
X-136117Y-28833D01*
X-136511Y-28243D01*
X-136878Y-27999D01*
Y-15085D01*
X-136378Y-14985D01*
X-136135Y-15571D01*
X-135565Y-16313D01*
X-134823Y-16883D01*
X-133959Y-17241D01*
X-133031Y-17363D01*
X-132104Y-17241D01*
X-131240Y-16883D01*
X-130498Y-16313D01*
X-129928Y-15571D01*
X-129570Y-14707D01*
X-129448Y-13780D01*
X-129570Y-12852D01*
X-129928Y-11988D01*
X-130498Y-11246D01*
X-131240Y-10676D01*
X-132104Y-10318D01*
X-133031Y-10196D01*
X-133959Y-10318D01*
X-134823Y-10676D01*
X-135565Y-11246D01*
X-136135Y-11988D01*
X-136378Y-12574D01*
X-136878Y-12475D01*
Y-8792D01*
X-109317D01*
X-106129Y-11980D01*
X-106135Y-11988D01*
X-106493Y-12852D01*
X-106615Y-13780D01*
X-106493Y-14707D01*
X-106135Y-15571D01*
X-105565Y-16313D01*
X-104823Y-16883D01*
X-103959Y-17241D01*
X-103032Y-17363D01*
X-102104Y-17241D01*
X-101240Y-16883D01*
X-100498Y-16313D01*
X-99928Y-15571D01*
X-99843Y-15365D01*
X-99343Y-15465D01*
Y-35022D01*
X-99724Y-35341D01*
X-100187Y-35190D01*
X-100308Y-34582D01*
X-100790Y-33861D01*
X-101511Y-33378D01*
X-101862Y-33309D01*
Y-35433D01*
X-102362D01*
Y-35933D01*
X-104487D01*
X-104417Y-36284D01*
X-103935Y-37006D01*
X-103213Y-37488D01*
X-102605Y-37609D01*
X-102431Y-38142D01*
X-108357Y-44067D01*
X-110044D01*
X-110133Y-44085D01*
X-113297D01*
X-113297Y-44085D01*
X-113790Y-44067D01*
X-114173Y-43991D01*
X-114868Y-44129D01*
X-115457Y-44523D01*
X-115851Y-45112D01*
X-115989Y-45807D01*
X-115851Y-46502D01*
X-115457Y-47091D01*
X-114868Y-47485D01*
X-114173Y-47623D01*
X-113797Y-47548D01*
X-113297Y-47919D01*
Y-48435D01*
X-109144D01*
Y-45903D01*
X-107977D01*
X-107626Y-45833D01*
X-107328Y-45634D01*
X-97776Y-36082D01*
X-97577Y-35784D01*
X-97508Y-35433D01*
Y48832D01*
X-73091Y73249D01*
X-72892Y73547D01*
X-72822Y73898D01*
Y73916D01*
X-72338Y74240D01*
X-71944Y74829D01*
X-71806Y75524D01*
X-71944Y76219D01*
X-72338Y76808D01*
X-72927Y77201D01*
X-73622Y77340D01*
X-74317Y77201D01*
X-74906Y76808D01*
X-75300Y76219D01*
X-75438Y75524D01*
X-75300Y74829D01*
X-74906Y74240D01*
X-74887Y74048D01*
X-99074Y49861D01*
X-99273Y49564D01*
X-99343Y49213D01*
Y-12094D01*
X-99843Y-12194D01*
X-99928Y-11988D01*
X-100498Y-11246D01*
X-101240Y-10676D01*
X-102104Y-10318D01*
X-102114Y-10317D01*
Y52100D01*
X-75407Y78807D01*
X-52068D01*
X-52013Y78740D01*
X-51875Y78045D01*
X-51481Y77456D01*
X-50892Y77062D01*
X-50197Y76924D01*
X-49502Y77062D01*
X-48913Y77456D01*
X-48519Y78045D01*
X-48381Y78740D01*
X-48519Y79435D01*
X-48913Y80024D01*
X-49502Y80418D01*
X-50197Y80556D01*
X-50666Y80463D01*
X-50830Y80572D01*
X-51181Y80642D01*
D02*
G37*
G36*
X-54224Y75156D02*
Y73532D01*
X-52600D01*
X-52670Y73883D01*
X-53152Y74604D01*
X-53873Y75086D01*
X-54224Y75156D01*
D02*
G37*
G36*
X-55224D02*
X-55575Y75086D01*
X-56297Y74604D01*
X-56779Y73883D01*
X-56849Y73532D01*
X-55224D01*
Y75156D01*
D02*
G37*
G36*
X-59736D02*
Y73532D01*
X-58112D01*
X-58182Y73883D01*
X-58664Y74604D01*
X-59385Y75086D01*
X-59736Y75156D01*
D02*
G37*
G36*
X-60736D02*
X-61087Y75086D01*
X-61809Y74604D01*
X-62291Y73883D01*
X-62361Y73532D01*
X-60736D01*
Y75156D01*
D02*
G37*
G36*
X-52600Y72531D02*
X-54224D01*
Y70907D01*
X-53873Y70977D01*
X-53152Y71459D01*
X-52670Y72180D01*
X-52600Y72531D01*
D02*
G37*
G36*
X-55224D02*
X-56849D01*
X-56779Y72180D01*
X-56297Y71459D01*
X-55575Y70977D01*
X-55224Y70907D01*
Y72531D01*
D02*
G37*
G36*
X-58112D02*
X-59736D01*
Y70907D01*
X-59385Y70977D01*
X-58664Y71459D01*
X-58182Y72180D01*
X-58112Y72531D01*
D02*
G37*
G36*
X-60736D02*
X-62361D01*
X-62291Y72180D01*
X-61809Y71459D01*
X-61087Y70977D01*
X-60736Y70907D01*
Y72531D01*
D02*
G37*
G36*
X-131890Y64808D02*
X-132585Y64670D01*
X-133174Y64276D01*
X-133568Y63687D01*
X-133706Y62992D01*
X-133620Y62560D01*
X-166397Y29783D01*
X-166596Y29485D01*
X-166666Y29134D01*
Y-7920D01*
X-167032Y-8165D01*
X-167426Y-8754D01*
X-167564Y-9449D01*
X-167426Y-10144D01*
X-167032Y-10733D01*
X-166443Y-11127D01*
X-165748Y-11265D01*
X-165053Y-11127D01*
X-164464Y-10733D01*
X-164070Y-10144D01*
X-163932Y-9449D01*
X-164070Y-8754D01*
X-164464Y-8165D01*
X-164830Y-7920D01*
Y28754D01*
X-132322Y61262D01*
X-131890Y61176D01*
X-131195Y61314D01*
X-130606Y61708D01*
X-130212Y62297D01*
X-130074Y62992D01*
X-130212Y63687D01*
X-130606Y64276D01*
X-131195Y64670D01*
X-131890Y64808D01*
D02*
G37*
G36*
X-190445Y59010D02*
Y57587D01*
X-189021D01*
X-189076Y57861D01*
X-189514Y58517D01*
X-190171Y58956D01*
X-190445Y59010D01*
D02*
G37*
G36*
X-191445D02*
X-191719Y58956D01*
X-192375Y58517D01*
X-192814Y57861D01*
X-192868Y57587D01*
X-191445D01*
Y59010D01*
D02*
G37*
G36*
X-189021Y56587D02*
X-192868D01*
X-192814Y56312D01*
X-192375Y55656D01*
X-192020Y55419D01*
Y54817D01*
X-192375Y54580D01*
X-192814Y53924D01*
X-192868Y53650D01*
X-189021D01*
X-189076Y53924D01*
X-189514Y54580D01*
X-189869Y54817D01*
Y55419D01*
X-189514Y55656D01*
X-189076Y56312D01*
X-189021Y56587D01*
D02*
G37*
G36*
Y52650D02*
X-190445D01*
Y51226D01*
X-190171Y51280D01*
X-189514Y51719D01*
X-189076Y52375D01*
X-189021Y52650D01*
D02*
G37*
G36*
X-191445D02*
X-192868D01*
X-192814Y52375D01*
X-192375Y51719D01*
X-191719Y51280D01*
X-191445Y51226D01*
Y52650D01*
D02*
G37*
G36*
X-20748Y38370D02*
Y34949D01*
X-17327D01*
X-17397Y35481D01*
X-17795Y36442D01*
X-18429Y37268D01*
X-19254Y37901D01*
X-20216Y38300D01*
X-20748Y38370D01*
D02*
G37*
G36*
X-21748D02*
X-22280Y38300D01*
X-23241Y37901D01*
X-24067Y37268D01*
X-24700Y36442D01*
X-25099Y35481D01*
X-25169Y34949D01*
X-21748D01*
Y38370D01*
D02*
G37*
G36*
Y33949D02*
X-25169D01*
X-25099Y33417D01*
X-24700Y32455D01*
X-24067Y31630D01*
X-23241Y30996D01*
X-22280Y30598D01*
X-21748Y30528D01*
Y33949D01*
D02*
G37*
G36*
X-17327D02*
X-20748D01*
Y30528D01*
X-20216Y30598D01*
X-19254Y30996D01*
X-18429Y31630D01*
X-17795Y32455D01*
X-17397Y33417D01*
X-17327Y33949D01*
D02*
G37*
G36*
X-74303Y30864D02*
Y29240D01*
X-72679D01*
X-72749Y29591D01*
X-73231Y30312D01*
X-73952Y30795D01*
X-74303Y30864D01*
D02*
G37*
G36*
X-75303D02*
X-75654Y30795D01*
X-76376Y30312D01*
X-76858Y29591D01*
X-76928Y29240D01*
X-75303D01*
Y30864D01*
D02*
G37*
G36*
X-72679Y28240D02*
X-74303D01*
Y26616D01*
X-73952Y26686D01*
X-73231Y27167D01*
X-72749Y27889D01*
X-72679Y28240D01*
D02*
G37*
G36*
X-75303D02*
X-76928D01*
X-76858Y27889D01*
X-76376Y27167D01*
X-75654Y26686D01*
X-75303Y26616D01*
Y28240D01*
D02*
G37*
G36*
X-58071Y21809D02*
Y20185D01*
X-56446D01*
X-56516Y20536D01*
X-56998Y21258D01*
X-57720Y21740D01*
X-58071Y21809D01*
D02*
G37*
G36*
X-59071D02*
X-59422Y21740D01*
X-60143Y21258D01*
X-60625Y20536D01*
X-60695Y20185D01*
X-59071D01*
Y21809D01*
D02*
G37*
G36*
X-56446Y19185D02*
X-58071D01*
Y17561D01*
X-57720Y17630D01*
X-56998Y18113D01*
X-56516Y18834D01*
X-56446Y19185D01*
D02*
G37*
G36*
X-59071D02*
X-60695D01*
X-60625Y18834D01*
X-60143Y18113D01*
X-59422Y17630D01*
X-59071Y17561D01*
Y19185D01*
D02*
G37*
G36*
X-74303Y12754D02*
Y11130D01*
X-72679D01*
X-72749Y11481D01*
X-73231Y12202D01*
X-73952Y12685D01*
X-74303Y12754D01*
D02*
G37*
G36*
X-75303D02*
X-75654Y12685D01*
X-76376Y12202D01*
X-76858Y11481D01*
X-76928Y11130D01*
X-75303D01*
Y12754D01*
D02*
G37*
G36*
X-72679Y10130D02*
X-74303D01*
Y8506D01*
X-73952Y8575D01*
X-73231Y9058D01*
X-72749Y9779D01*
X-72679Y10130D01*
D02*
G37*
G36*
X-75303D02*
X-76928D01*
X-76858Y9779D01*
X-76376Y9058D01*
X-75654Y8575D01*
X-75303Y8506D01*
Y10130D01*
D02*
G37*
G36*
X-134343Y6061D02*
Y4437D01*
X-132718D01*
X-132788Y4788D01*
X-133270Y5509D01*
X-133992Y5992D01*
X-134343Y6061D01*
D02*
G37*
G36*
X-135343D02*
X-135694Y5992D01*
X-136415Y5509D01*
X-136897Y4788D01*
X-136967Y4437D01*
X-135343D01*
Y6061D01*
D02*
G37*
G36*
X-154028D02*
Y4437D01*
X-152403D01*
X-152473Y4788D01*
X-152955Y5509D01*
X-153676Y5992D01*
X-154028Y6061D01*
D02*
G37*
G36*
X-155028D02*
X-155379Y5992D01*
X-156100Y5509D01*
X-156582Y4788D01*
X-156652Y4437D01*
X-155028D01*
Y6061D01*
D02*
G37*
G36*
X-132718Y3437D02*
X-134343D01*
Y1813D01*
X-133992Y1883D01*
X-133270Y2365D01*
X-132788Y3086D01*
X-132718Y3437D01*
D02*
G37*
G36*
X-135343D02*
X-136967D01*
X-136897Y3086D01*
X-136415Y2365D01*
X-135694Y1883D01*
X-135343Y1813D01*
Y3437D01*
D02*
G37*
G36*
X-152403D02*
X-154028D01*
Y1813D01*
X-153676Y1883D01*
X-152955Y2365D01*
X-152473Y3086D01*
X-152403Y3437D01*
D02*
G37*
G36*
X-155028D02*
X-156652D01*
X-156582Y3086D01*
X-156100Y2365D01*
X-155379Y1883D01*
X-155028Y1813D01*
Y3437D01*
D02*
G37*
G36*
X-208661Y3391D02*
X-209356Y3253D01*
X-209946Y2859D01*
X-210190Y2492D01*
X-212205D01*
X-212556Y2423D01*
X-212854Y2224D01*
X-216397Y-1320D01*
X-216596Y-1617D01*
X-216666Y-1969D01*
Y-20079D01*
X-216596Y-20430D01*
X-216397Y-20728D01*
X-208917Y-28208D01*
X-208619Y-28407D01*
X-208268Y-28477D01*
X-186568D01*
X-186323Y-28843D01*
X-185734Y-29237D01*
X-185039Y-29375D01*
X-184344Y-29237D01*
X-183755Y-28843D01*
X-183362Y-28254D01*
X-183223Y-27559D01*
X-183362Y-26864D01*
X-183755Y-26275D01*
X-184344Y-25881D01*
X-185039Y-25743D01*
X-185734Y-25881D01*
X-186323Y-26275D01*
X-186568Y-26641D01*
X-207888D01*
X-214830Y-19699D01*
Y-2349D01*
X-211825Y657D01*
X-210190D01*
X-209946Y291D01*
X-209356Y-103D01*
X-208661Y-241D01*
X-207966Y-103D01*
X-207377Y291D01*
X-206984Y880D01*
X-206845Y1575D01*
X-206984Y2270D01*
X-207377Y2859D01*
X-207966Y3253D01*
X-208661Y3391D01*
D02*
G37*
G36*
X-63161Y1076D02*
Y-1154D01*
X-60932D01*
X-60961Y-930D01*
X-61241Y-256D01*
X-61685Y323D01*
X-62264Y767D01*
X-62938Y1047D01*
X-63161Y1076D01*
D02*
G37*
G36*
X-64161Y1076D02*
X-64385Y1047D01*
X-65059Y767D01*
X-65638Y323D01*
X-66082Y-256D01*
X-66362Y-930D01*
X-66391Y-1154D01*
X-64161D01*
Y1076D01*
D02*
G37*
G36*
X-83661Y764D02*
X-84587Y580D01*
X-85371Y56D01*
X-85895Y-728D01*
X-86079Y-1654D01*
X-85895Y-2579D01*
X-85371Y-3363D01*
X-84587Y-3887D01*
X-83661Y-4072D01*
X-82736Y-3887D01*
X-81952Y-3363D01*
X-81428Y-2579D01*
X-81243Y-1654D01*
X-81428Y-728D01*
X-81952Y56D01*
X-82736Y580D01*
X-83661Y764D01*
D02*
G37*
G36*
X-64161Y-2153D02*
X-66391D01*
X-66362Y-2377D01*
X-66082Y-3051D01*
X-65638Y-3630D01*
X-65059Y-4075D01*
X-64385Y-4354D01*
X-64161Y-4383D01*
Y-2153D01*
D02*
G37*
G36*
X-60932D02*
X-63161D01*
Y-4383D01*
X-62938Y-4354D01*
X-62264Y-4075D01*
X-61685Y-3630D01*
X-61241Y-3051D01*
X-60961Y-2377D01*
X-60932Y-2153D01*
D02*
G37*
G36*
X-160917Y-14608D02*
Y-16232D01*
X-159293D01*
X-159363Y-15881D01*
X-159845Y-15160D01*
X-160566Y-14678D01*
X-160917Y-14608D01*
D02*
G37*
G36*
X-161917D02*
X-162268Y-14678D01*
X-162990Y-15160D01*
X-163472Y-15881D01*
X-163542Y-16232D01*
X-161917D01*
Y-14608D01*
D02*
G37*
G36*
X-67405Y-14157D02*
X-69382D01*
Y-16232D01*
X-67405D01*
Y-14157D01*
D02*
G37*
G36*
X-70382D02*
X-72358D01*
Y-16232D01*
X-70382D01*
Y-14157D01*
D02*
G37*
G36*
X-113031Y-10196D02*
X-113959Y-10318D01*
X-114823Y-10676D01*
X-115565Y-11246D01*
X-116135Y-11988D01*
X-116493Y-12852D01*
X-116615Y-13780D01*
X-116493Y-14707D01*
X-116135Y-15571D01*
X-116129Y-15579D01*
X-148845Y-48295D01*
X-160873D01*
X-161117Y-47929D01*
X-161707Y-47535D01*
X-162402Y-47397D01*
X-163096Y-47535D01*
X-163686Y-47929D01*
X-163930Y-48295D01*
X-170168D01*
Y-47038D01*
X-174320D01*
Y-51037D01*
X-174820Y-51244D01*
X-176248Y-49817D01*
Y-37946D01*
X-175881Y-37701D01*
X-175488Y-37112D01*
X-175349Y-36417D01*
X-175488Y-35722D01*
X-175881Y-35133D01*
X-176470Y-34740D01*
X-177165Y-34601D01*
X-177860Y-34740D01*
X-178449Y-35133D01*
X-178843Y-35722D01*
X-178981Y-36417D01*
X-178843Y-37112D01*
X-178449Y-37701D01*
X-178083Y-37946D01*
Y-50197D01*
X-178013Y-50548D01*
X-177814Y-50846D01*
X-174320Y-54339D01*
Y-57293D01*
X-170168D01*
Y-52943D01*
X-173121D01*
X-174177Y-51887D01*
X-173970Y-51387D01*
X-170168D01*
Y-50130D01*
X-163930D01*
X-163686Y-50497D01*
X-163096Y-50890D01*
X-162402Y-51029D01*
X-161707Y-50890D01*
X-161117Y-50497D01*
X-160873Y-50130D01*
X-152513D01*
X-152361Y-50630D01*
X-152737Y-50881D01*
X-153130Y-51470D01*
X-153269Y-52165D01*
X-153130Y-52860D01*
X-152737Y-53449D01*
X-152147Y-53843D01*
X-151453Y-53981D01*
X-150758Y-53843D01*
X-150169Y-53449D01*
X-149924Y-53083D01*
X-138175D01*
X-112854Y-78405D01*
X-112556Y-78604D01*
X-112205Y-78673D01*
X-86175D01*
X-85930Y-79040D01*
X-85341Y-79434D01*
X-84646Y-79572D01*
X-83951Y-79434D01*
X-83362Y-79040D01*
X-82968Y-78451D01*
X-82830Y-77756D01*
X-82968Y-77061D01*
X-83362Y-76472D01*
X-83951Y-76078D01*
X-84646Y-75940D01*
X-85341Y-76078D01*
X-85930Y-76472D01*
X-86175Y-76838D01*
X-111825D01*
X-137146Y-51516D01*
X-137444Y-51318D01*
X-137795Y-51248D01*
X-149924D01*
X-150169Y-50881D01*
X-150544Y-50630D01*
X-150392Y-50130D01*
X-148465D01*
X-148113Y-50060D01*
X-147816Y-49861D01*
X-133597Y-35643D01*
X-133055Y-35808D01*
X-132960Y-36284D01*
X-132478Y-37006D01*
X-131757Y-37488D01*
X-131406Y-37557D01*
Y-35433D01*
X-130906D01*
Y-34933D01*
X-128781D01*
X-128851Y-34582D01*
X-129333Y-33861D01*
X-130055Y-33378D01*
X-130531Y-33284D01*
X-130695Y-32741D01*
X-114831Y-16877D01*
X-114823Y-16883D01*
X-113959Y-17241D01*
X-113031Y-17363D01*
X-112104Y-17241D01*
X-111240Y-16883D01*
X-110498Y-16313D01*
X-109928Y-15571D01*
X-109570Y-14707D01*
X-109448Y-13780D01*
X-109570Y-12852D01*
X-109928Y-11988D01*
X-110498Y-11246D01*
X-111240Y-10676D01*
X-112104Y-10318D01*
X-113031Y-10196D01*
D02*
G37*
G36*
X-123031D02*
X-123959Y-10318D01*
X-124823Y-10676D01*
X-125565Y-11246D01*
X-126135Y-11988D01*
X-126493Y-12852D01*
X-126615Y-13780D01*
X-126493Y-14707D01*
X-126135Y-15571D01*
X-125565Y-16313D01*
X-124823Y-16883D01*
X-123959Y-17241D01*
X-123031Y-17363D01*
X-122104Y-17241D01*
X-121240Y-16883D01*
X-120498Y-16313D01*
X-119928Y-15571D01*
X-119570Y-14707D01*
X-119448Y-13780D01*
X-119570Y-12852D01*
X-119928Y-11988D01*
X-120498Y-11246D01*
X-121240Y-10676D01*
X-122104Y-10318D01*
X-123031Y-10196D01*
D02*
G37*
G36*
X-143532Y-14280D02*
X-146952D01*
X-146882Y-14811D01*
X-146484Y-15773D01*
X-145851Y-16599D01*
X-145025Y-17232D01*
X-144063Y-17630D01*
X-143532Y-17701D01*
Y-14280D01*
D02*
G37*
G36*
X-159293Y-17232D02*
X-160917D01*
Y-18857D01*
X-160566Y-18787D01*
X-159845Y-18305D01*
X-159363Y-17583D01*
X-159293Y-17232D01*
D02*
G37*
G36*
X-161917D02*
X-163542D01*
X-163472Y-17583D01*
X-162990Y-18305D01*
X-162268Y-18787D01*
X-161917Y-18857D01*
Y-17232D01*
D02*
G37*
G36*
X-67405Y-17232D02*
X-69382D01*
Y-19307D01*
X-67405D01*
Y-17232D01*
D02*
G37*
G36*
X-70382D02*
X-72358D01*
Y-19307D01*
X-70382D01*
Y-17232D01*
D02*
G37*
G36*
X-53634Y-21498D02*
Y-23122D01*
X-52009D01*
X-52079Y-22771D01*
X-52561Y-22050D01*
X-53283Y-21567D01*
X-53634Y-21498D01*
D02*
G37*
G36*
X-54634D02*
X-54985Y-21567D01*
X-55706Y-22050D01*
X-56188Y-22771D01*
X-56258Y-23122D01*
X-54634D01*
Y-21498D01*
D02*
G37*
G36*
X-83661Y-19236D02*
X-84587Y-19420D01*
X-85371Y-19944D01*
X-85895Y-20728D01*
X-86079Y-21654D01*
X-85895Y-22579D01*
X-85371Y-23363D01*
X-84587Y-23888D01*
X-83661Y-24071D01*
X-82736Y-23888D01*
X-81952Y-23363D01*
X-81428Y-22579D01*
X-81243Y-21654D01*
X-81428Y-20728D01*
X-81952Y-19944D01*
X-82736Y-19420D01*
X-83661Y-19236D01*
D02*
G37*
G36*
X-52009Y-24122D02*
X-53634D01*
Y-25746D01*
X-53283Y-25677D01*
X-52561Y-25194D01*
X-52079Y-24473D01*
X-52009Y-24122D01*
D02*
G37*
G36*
X-54634D02*
X-56258D01*
X-56188Y-24473D01*
X-55706Y-25194D01*
X-54985Y-25677D01*
X-54634Y-25746D01*
Y-24122D01*
D02*
G37*
G36*
X-208661Y-12947D02*
X-209356Y-13086D01*
X-209946Y-13479D01*
X-210339Y-14068D01*
X-210477Y-14763D01*
X-210339Y-15458D01*
X-209946Y-16047D01*
X-209356Y-16441D01*
X-208661Y-16579D01*
X-208229Y-16493D01*
X-199861Y-24861D01*
X-199563Y-25060D01*
X-199212Y-25130D01*
X-148576D01*
X-148331Y-25497D01*
X-147742Y-25890D01*
X-147047Y-26029D01*
X-146352Y-25890D01*
X-145763Y-25497D01*
X-145370Y-24908D01*
X-145231Y-24213D01*
X-145370Y-23518D01*
X-145763Y-22929D01*
X-146352Y-22535D01*
X-147047Y-22397D01*
X-147742Y-22535D01*
X-148331Y-22929D01*
X-148576Y-23295D01*
X-198832D01*
X-206931Y-15196D01*
X-206845Y-14763D01*
X-206984Y-14068D01*
X-207377Y-13479D01*
X-207966Y-13086D01*
X-208661Y-12947D01*
D02*
G37*
G36*
X-83661Y-29236D02*
X-84587Y-29420D01*
X-85371Y-29944D01*
X-85895Y-30728D01*
X-86079Y-31654D01*
X-85895Y-32579D01*
X-85371Y-33363D01*
X-84587Y-33887D01*
X-83661Y-34071D01*
X-82736Y-33887D01*
X-81952Y-33363D01*
X-81428Y-32579D01*
X-81243Y-31654D01*
X-81428Y-30728D01*
X-81952Y-29944D01*
X-82736Y-29420D01*
X-83661Y-29236D01*
D02*
G37*
G36*
X-102862Y-33309D02*
X-103213Y-33378D01*
X-103935Y-33861D01*
X-104417Y-34582D01*
X-104487Y-34933D01*
X-102862D01*
Y-33309D01*
D02*
G37*
G36*
X-181587D02*
Y-34933D01*
X-179962D01*
X-180032Y-34582D01*
X-180514Y-33861D01*
X-181236Y-33378D01*
X-181587Y-33309D01*
D02*
G37*
G36*
X-182587D02*
X-182938Y-33378D01*
X-183659Y-33861D01*
X-184141Y-34582D01*
X-184211Y-34933D01*
X-182587D01*
Y-33309D01*
D02*
G37*
G36*
X-110721Y-34293D02*
Y-35917D01*
X-109096D01*
X-109166Y-35566D01*
X-109648Y-34845D01*
X-110370Y-34363D01*
X-110721Y-34293D01*
D02*
G37*
G36*
X-111721D02*
X-112072Y-34363D01*
X-112793Y-34845D01*
X-113275Y-35566D01*
X-113345Y-35917D01*
X-111721D01*
Y-34293D01*
D02*
G37*
G36*
X-128781Y-35933D02*
X-130406D01*
Y-37557D01*
X-130055Y-37488D01*
X-129333Y-37006D01*
X-128851Y-36284D01*
X-128781Y-35933D01*
D02*
G37*
G36*
X-179962D02*
X-181587D01*
Y-37557D01*
X-181236Y-37488D01*
X-180514Y-37006D01*
X-180032Y-36284D01*
X-179962Y-35933D01*
D02*
G37*
G36*
X-182587D02*
X-184211D01*
X-184141Y-36284D01*
X-183659Y-37006D01*
X-182938Y-37488D01*
X-182587Y-37557D01*
Y-35933D01*
D02*
G37*
G36*
X-158949Y-37246D02*
Y-38870D01*
X-157325D01*
X-157394Y-38519D01*
X-157876Y-37798D01*
X-158598Y-37315D01*
X-158949Y-37246D01*
D02*
G37*
G36*
X-159949D02*
X-160300Y-37315D01*
X-161021Y-37798D01*
X-161503Y-38519D01*
X-161573Y-38870D01*
X-159949D01*
Y-37246D01*
D02*
G37*
G36*
X-28220Y-38230D02*
Y-39854D01*
X-26596D01*
X-26666Y-39503D01*
X-27148Y-38782D01*
X-27869Y-38300D01*
X-28220Y-38230D01*
D02*
G37*
G36*
X-29221D02*
X-29572Y-38300D01*
X-30293Y-38782D01*
X-30775Y-39503D01*
X-30845Y-39854D01*
X-29221D01*
Y-38230D01*
D02*
G37*
G36*
X-109096Y-36917D02*
X-113345D01*
X-113275Y-37268D01*
X-113228Y-37339D01*
X-113464Y-37780D01*
X-113697D01*
Y-39854D01*
X-111221D01*
X-108744D01*
Y-37780D01*
X-108977D01*
X-109213Y-37339D01*
X-109166Y-37268D01*
X-109096Y-36917D01*
D02*
G37*
G36*
X-63661Y-39236D02*
X-64587Y-39420D01*
X-65371Y-39944D01*
X-65895Y-40728D01*
X-65989Y-41201D01*
X-67805D01*
Y-40148D01*
X-71958D01*
Y-44498D01*
X-67805D01*
Y-43444D01*
X-65250D01*
X-64587Y-43887D01*
X-63661Y-44071D01*
X-62736Y-43887D01*
X-61952Y-43363D01*
X-61427Y-42579D01*
X-61243Y-41654D01*
X-61427Y-40728D01*
X-61952Y-39944D01*
X-62736Y-39420D01*
X-63661Y-39236D01*
D02*
G37*
G36*
X-157325Y-39870D02*
X-158949D01*
Y-41495D01*
X-158598Y-41425D01*
X-157876Y-40943D01*
X-157394Y-40221D01*
X-157325Y-39870D01*
D02*
G37*
G36*
X-159949D02*
X-161573D01*
X-161503Y-40221D01*
X-161021Y-40943D01*
X-160300Y-41425D01*
X-159949Y-41495D01*
Y-39870D01*
D02*
G37*
G36*
X-26596Y-40854D02*
X-28220D01*
Y-42479D01*
X-27869Y-42409D01*
X-27148Y-41927D01*
X-26666Y-41205D01*
X-26596Y-40854D01*
D02*
G37*
G36*
X-29221D02*
X-30845D01*
X-30775Y-41205D01*
X-30293Y-41927D01*
X-29572Y-42409D01*
X-29221Y-42479D01*
Y-40854D01*
D02*
G37*
G36*
X-185524Y-41183D02*
Y-42807D01*
X-183899D01*
X-183969Y-42456D01*
X-184451Y-41735D01*
X-185173Y-41252D01*
X-185524Y-41183D01*
D02*
G37*
G36*
X-186524D02*
X-186875Y-41252D01*
X-187596Y-41735D01*
X-188078Y-42456D01*
X-188148Y-42807D01*
X-186524D01*
Y-41183D01*
D02*
G37*
G36*
X-108744Y-40854D02*
X-110721D01*
Y-42929D01*
X-108744D01*
Y-40854D01*
D02*
G37*
G36*
X-111721D02*
X-113697D01*
Y-42929D01*
X-111721D01*
Y-40854D01*
D02*
G37*
G36*
X-83661Y-39236D02*
X-84587Y-39420D01*
X-85371Y-39944D01*
X-85895Y-40728D01*
X-86079Y-41654D01*
X-85895Y-42579D01*
X-85371Y-43363D01*
X-84587Y-43887D01*
X-83661Y-44071D01*
X-82736Y-43887D01*
X-81952Y-43363D01*
X-81428Y-42579D01*
X-81243Y-41654D01*
X-81428Y-40728D01*
X-81952Y-39944D01*
X-82736Y-39420D01*
X-83661Y-39236D01*
D02*
G37*
G36*
X-183899Y-43807D02*
X-185524D01*
Y-45432D01*
X-185173Y-45362D01*
X-184451Y-44880D01*
X-183969Y-44158D01*
X-183899Y-43807D01*
D02*
G37*
G36*
X-186524D02*
X-188148D01*
X-188078Y-44158D01*
X-187596Y-44880D01*
X-186875Y-45362D01*
X-186524Y-45432D01*
Y-43807D01*
D02*
G37*
G36*
X-53650Y-46307D02*
X-55274D01*
X-55204Y-46658D01*
X-54722Y-47380D01*
X-54001Y-47862D01*
X-53650Y-47932D01*
Y-46307D01*
D02*
G37*
G36*
X-157480Y-51334D02*
X-158175Y-51472D01*
X-158764Y-51866D01*
X-159158Y-52455D01*
X-159296Y-53150D01*
X-159158Y-53845D01*
X-158764Y-54434D01*
X-158510Y-54603D01*
Y-56551D01*
X-159011Y-56787D01*
X-159096Y-56717D01*
X-159071Y-56590D01*
X-159209Y-55895D01*
X-159603Y-55306D01*
X-160192Y-54912D01*
X-160887Y-54774D01*
X-161200Y-54836D01*
X-161625Y-54411D01*
X-161570Y-54134D01*
X-161708Y-53439D01*
X-162102Y-52850D01*
X-162691Y-52456D01*
X-163386Y-52318D01*
X-164081Y-52456D01*
X-164670Y-52850D01*
X-165064Y-53439D01*
X-165202Y-54134D01*
X-165064Y-54829D01*
X-164670Y-55418D01*
X-164304Y-55663D01*
Y-57110D01*
X-164234Y-57461D01*
X-164035Y-57759D01*
X-159236Y-62558D01*
X-159084Y-62659D01*
X-129896Y-91847D01*
X-129598Y-92046D01*
X-129247Y-92116D01*
X-95205D01*
X-91297Y-96024D01*
X-91383Y-96457D01*
X-91245Y-97152D01*
X-90851Y-97741D01*
X-90262Y-98134D01*
X-89567Y-98273D01*
X-88872Y-98134D01*
X-88283Y-97741D01*
X-87889Y-97152D01*
X-87751Y-96457D01*
X-87889Y-95762D01*
X-88283Y-95173D01*
X-88364Y-95118D01*
X-88234Y-94604D01*
X-88034Y-94585D01*
X-87898Y-94788D01*
X-87309Y-95182D01*
X-86614Y-95320D01*
X-85919Y-95182D01*
X-85330Y-94788D01*
X-84936Y-94199D01*
X-84798Y-93504D01*
X-84936Y-92809D01*
X-85330Y-92220D01*
X-85919Y-91826D01*
X-86614Y-91688D01*
X-87309Y-91826D01*
X-87736Y-92111D01*
X-88096Y-91751D01*
X-87889Y-91441D01*
X-87751Y-90746D01*
X-87889Y-90051D01*
X-88283Y-89462D01*
X-88342Y-89422D01*
Y-88922D01*
X-88283Y-88882D01*
X-87889Y-88293D01*
X-87751Y-87598D01*
X-87889Y-86904D01*
X-88283Y-86314D01*
X-88872Y-85921D01*
X-89567Y-85782D01*
X-90262Y-85921D01*
X-90851Y-86314D01*
X-91096Y-86681D01*
X-127376D01*
X-154594Y-59462D01*
Y-57749D01*
X-154228Y-57505D01*
X-153834Y-56915D01*
X-153696Y-56221D01*
X-153834Y-55525D01*
X-154228Y-54936D01*
X-154817Y-54543D01*
X-155512Y-54404D01*
X-155585Y-54419D01*
X-155886Y-53969D01*
X-155803Y-53845D01*
X-155664Y-53150D01*
X-155803Y-52455D01*
X-156196Y-51866D01*
X-156785Y-51472D01*
X-157480Y-51334D01*
D02*
G37*
G36*
X-29028Y-57915D02*
Y-59539D01*
X-27403D01*
X-27473Y-59188D01*
X-27955Y-58467D01*
X-28677Y-57985D01*
X-29028Y-57915D01*
D02*
G37*
G36*
X-30028D02*
X-30379Y-57985D01*
X-31100Y-58467D01*
X-31582Y-59188D01*
X-31652Y-59539D01*
X-30028D01*
Y-57915D01*
D02*
G37*
G36*
X-38870D02*
Y-59539D01*
X-37246D01*
X-37315Y-59188D01*
X-37798Y-58467D01*
X-38519Y-57985D01*
X-38870Y-57915D01*
D02*
G37*
G36*
X-39870D02*
X-40221Y-57985D01*
X-40943Y-58467D01*
X-41425Y-59188D01*
X-41495Y-59539D01*
X-39870D01*
Y-57915D01*
D02*
G37*
G36*
X-27403Y-60539D02*
X-29028D01*
Y-62164D01*
X-28677Y-62094D01*
X-27955Y-61612D01*
X-27473Y-60890D01*
X-27403Y-60539D01*
D02*
G37*
G36*
X-30028D02*
X-31652D01*
X-31582Y-60890D01*
X-31100Y-61612D01*
X-30379Y-62094D01*
X-30028Y-62164D01*
Y-60539D01*
D02*
G37*
G36*
X-37246D02*
X-38870D01*
Y-62164D01*
X-38519Y-62094D01*
X-37798Y-61612D01*
X-37315Y-60890D01*
X-37246Y-60539D01*
D02*
G37*
G36*
X-39870D02*
X-41495D01*
X-41425Y-60890D01*
X-40943Y-61612D01*
X-40221Y-62094D01*
X-39870Y-62164D01*
Y-60539D01*
D02*
G37*
G36*
X-54485Y-69923D02*
Y-71547D01*
X-52860D01*
X-52930Y-71196D01*
X-53412Y-70475D01*
X-54134Y-69993D01*
X-54485Y-69923D01*
D02*
G37*
G36*
X-55485D02*
X-55836Y-69993D01*
X-56557Y-70475D01*
X-57039Y-71196D01*
X-57109Y-71547D01*
X-55485D01*
Y-69923D01*
D02*
G37*
G36*
X-52860Y-72547D02*
X-54485D01*
Y-74172D01*
X-54134Y-74102D01*
X-53412Y-73620D01*
X-52930Y-72898D01*
X-52860Y-72547D01*
D02*
G37*
G36*
X-55485D02*
X-57109D01*
X-57039Y-72898D01*
X-56557Y-73620D01*
X-55836Y-74102D01*
X-55485Y-74172D01*
Y-72547D01*
D02*
G37*
G36*
X-148713Y-77009D02*
Y-78634D01*
X-147088D01*
X-147158Y-78283D01*
X-147640Y-77561D01*
X-148362Y-77079D01*
X-148713Y-77009D01*
D02*
G37*
G36*
X-149713D02*
X-150064Y-77079D01*
X-150785Y-77561D01*
X-151267Y-78283D01*
X-151337Y-78634D01*
X-149713D01*
Y-77009D01*
D02*
G37*
G36*
X-147088Y-79634D02*
X-148713D01*
Y-81258D01*
X-148362Y-81188D01*
X-147640Y-80706D01*
X-147158Y-79985D01*
X-147088Y-79634D01*
D02*
G37*
G36*
X-149713D02*
X-151337D01*
X-151267Y-79985D01*
X-150785Y-80706D01*
X-150064Y-81188D01*
X-149713Y-81258D01*
Y-79634D01*
D02*
G37*
G36*
X-177650Y-86097D02*
Y-87520D01*
X-176226D01*
X-176280Y-87246D01*
X-176719Y-86590D01*
X-177375Y-86151D01*
X-177650Y-86097D01*
D02*
G37*
G36*
X-178650D02*
X-178924Y-86151D01*
X-179580Y-86590D01*
X-180019Y-87246D01*
X-180073Y-87520D01*
X-178650D01*
Y-86097D01*
D02*
G37*
G36*
X-176226Y-88520D02*
X-177650D01*
Y-89944D01*
X-177375Y-89889D01*
X-176719Y-89451D01*
X-176280Y-88794D01*
X-176226Y-88520D01*
D02*
G37*
G36*
X-178650D02*
X-180073D01*
X-180019Y-88794D01*
X-179580Y-89451D01*
X-178924Y-89889D01*
X-178650Y-89944D01*
Y-88520D01*
D02*
G37*
G36*
X-59539Y-88427D02*
Y-90051D01*
X-57915D01*
X-57985Y-89700D01*
X-58467Y-88979D01*
X-59188Y-88497D01*
X-59539Y-88427D01*
D02*
G37*
G36*
X-60539D02*
X-60890Y-88497D01*
X-61612Y-88979D01*
X-62094Y-89700D01*
X-62164Y-90051D01*
X-60539D01*
Y-88427D01*
D02*
G37*
G36*
X-179134Y-66759D02*
X-179829Y-66897D01*
X-180418Y-67290D01*
X-180812Y-67880D01*
X-180950Y-68575D01*
X-180812Y-69270D01*
X-180418Y-69859D01*
X-179829Y-70252D01*
X-179134Y-70390D01*
X-178702Y-70305D01*
X-157924Y-91082D01*
X-157626Y-91281D01*
X-157275Y-91351D01*
X-144358D01*
X-144113Y-91717D01*
X-143524Y-92111D01*
X-142829Y-92249D01*
X-142134Y-92111D01*
X-141545Y-91717D01*
X-141151Y-91128D01*
X-141013Y-90433D01*
X-141151Y-89738D01*
X-141545Y-89149D01*
X-142134Y-88755D01*
X-142829Y-88617D01*
X-143524Y-88755D01*
X-144113Y-89149D01*
X-144358Y-89515D01*
X-156895D01*
X-177404Y-69007D01*
X-177318Y-68575D01*
X-177456Y-67880D01*
X-177850Y-67290D01*
X-178439Y-66897D01*
X-179134Y-66759D01*
D02*
G37*
G36*
X-57915Y-91051D02*
X-59539D01*
Y-92676D01*
X-59188Y-92606D01*
X-58467Y-92124D01*
X-57985Y-91402D01*
X-57915Y-91051D01*
D02*
G37*
G36*
X-60539D02*
X-62164D01*
X-62094Y-91402D01*
X-61612Y-92124D01*
X-60890Y-92606D01*
X-60539Y-92676D01*
Y-91051D01*
D02*
G37*
G36*
X-177650Y-91299D02*
Y-92723D01*
X-176226D01*
X-176280Y-92449D01*
X-176719Y-91792D01*
X-177375Y-91354D01*
X-177650Y-91299D01*
D02*
G37*
G36*
X-178650D02*
X-178924Y-91354D01*
X-179580Y-91792D01*
X-180019Y-92449D01*
X-180073Y-92723D01*
X-178650D01*
Y-91299D01*
D02*
G37*
G36*
X-176226Y-93723D02*
X-177650D01*
Y-95147D01*
X-177375Y-95092D01*
X-176719Y-94653D01*
X-176280Y-93997D01*
X-176226Y-93723D01*
D02*
G37*
G36*
X-178650D02*
X-180073D01*
X-180019Y-93997D01*
X-179580Y-94653D01*
X-178924Y-95092D01*
X-178650Y-95147D01*
Y-93723D01*
D02*
G37*
G36*
X2468Y-81674D02*
Y-97925D01*
X18720D01*
X18609Y-96235D01*
X18181Y-94081D01*
X17475Y-92002D01*
X16504Y-90033D01*
X15284Y-88208D01*
X13837Y-86557D01*
X12186Y-85110D01*
X10361Y-83890D01*
X8392Y-82919D01*
X6312Y-82213D01*
X4159Y-81785D01*
X2468Y-81674D01*
D02*
G37*
G36*
X1469D02*
X-222Y-81785D01*
X-2376Y-82213D01*
X-4454Y-82919D01*
X-6424Y-83890D01*
X-8249Y-85110D01*
X-9900Y-86557D01*
X-11347Y-88208D01*
X-12567Y-90033D01*
X-13538Y-92002D01*
X-14244Y-94081D01*
X-14672Y-96235D01*
X-14783Y-97925D01*
X1469D01*
Y-81674D01*
D02*
G37*
G36*
X-220957D02*
Y-97925D01*
X-204706D01*
X-204816Y-96235D01*
X-205245Y-94081D01*
X-205950Y-92002D01*
X-206921Y-90033D01*
X-208141Y-88208D01*
X-209589Y-86557D01*
X-211239Y-85110D01*
X-213065Y-83890D01*
X-215034Y-82919D01*
X-217113Y-82213D01*
X-219266Y-81785D01*
X-220957Y-81674D01*
D02*
G37*
G36*
X-221957D02*
X-223647Y-81785D01*
X-225801Y-82213D01*
X-227880Y-82919D01*
X-229849Y-83890D01*
X-231674Y-85110D01*
X-233325Y-86557D01*
X-234772Y-88208D01*
X-235992Y-90033D01*
X-236963Y-92002D01*
X-237669Y-94081D01*
X-238097Y-96235D01*
X-238208Y-97925D01*
X-221957D01*
Y-81674D01*
D02*
G37*
G36*
X-63395Y-104175D02*
Y-105799D01*
X-61771D01*
X-61841Y-105448D01*
X-62323Y-104727D01*
X-63044Y-104245D01*
X-63395Y-104175D01*
D02*
G37*
G36*
X-64395D02*
X-64746Y-104245D01*
X-65468Y-104727D01*
X-65950Y-105448D01*
X-66020Y-105799D01*
X-64395D01*
Y-104175D01*
D02*
G37*
G36*
X-78240D02*
Y-105799D01*
X-76616D01*
X-76686Y-105448D01*
X-77168Y-104727D01*
X-77889Y-104245D01*
X-78240Y-104175D01*
D02*
G37*
G36*
X-79240D02*
X-79591Y-104245D01*
X-80313Y-104727D01*
X-80795Y-105448D01*
X-80865Y-105799D01*
X-79240D01*
Y-104175D01*
D02*
G37*
G36*
X-61771Y-106799D02*
X-63395D01*
Y-108424D01*
X-63044Y-108354D01*
X-62323Y-107872D01*
X-61841Y-107150D01*
X-61771Y-106799D01*
D02*
G37*
G36*
X-64395D02*
X-66020D01*
X-65950Y-107150D01*
X-65468Y-107872D01*
X-64746Y-108354D01*
X-64395Y-108424D01*
Y-106799D01*
D02*
G37*
G36*
X-76616D02*
X-78240D01*
Y-108424D01*
X-77889Y-108354D01*
X-77168Y-107872D01*
X-76686Y-107150D01*
X-76616Y-106799D01*
D02*
G37*
G36*
X-79240D02*
X-80865D01*
X-80795Y-107150D01*
X-80313Y-107872D01*
X-79591Y-108354D01*
X-79240Y-108424D01*
Y-106799D01*
D02*
G37*
G36*
X18720Y-98925D02*
X2468D01*
Y-115176D01*
X4159Y-115066D01*
X6312Y-114637D01*
X8392Y-113932D01*
X10361Y-112961D01*
X12186Y-111741D01*
X13837Y-110293D01*
X15284Y-108643D01*
X16504Y-106817D01*
X17475Y-104848D01*
X18181Y-102769D01*
X18609Y-100616D01*
X18720Y-98925D01*
D02*
G37*
G36*
X1469D02*
X-14783D01*
X-14672Y-100616D01*
X-14244Y-102769D01*
X-13538Y-104848D01*
X-12567Y-106817D01*
X-11347Y-108643D01*
X-9900Y-110293D01*
X-8249Y-111741D01*
X-6424Y-112961D01*
X-4454Y-113932D01*
X-2376Y-114637D01*
X-222Y-115066D01*
X1469Y-115176D01*
Y-98925D01*
D02*
G37*
G36*
X-204706D02*
X-220957D01*
Y-115176D01*
X-219266Y-115066D01*
X-217113Y-114637D01*
X-215034Y-113932D01*
X-213065Y-112961D01*
X-211239Y-111741D01*
X-209589Y-110293D01*
X-208141Y-108643D01*
X-206921Y-106817D01*
X-205950Y-104848D01*
X-205245Y-102769D01*
X-204816Y-100616D01*
X-204706Y-98925D01*
D02*
G37*
G36*
X-221957D02*
X-238208D01*
X-238097Y-100616D01*
X-237669Y-102769D01*
X-236963Y-104848D01*
X-235992Y-106817D01*
X-234772Y-108643D01*
X-233325Y-110293D01*
X-231674Y-111741D01*
X-229849Y-112961D01*
X-227880Y-113932D01*
X-225801Y-114637D01*
X-223647Y-115066D01*
X-221957Y-115176D01*
Y-98925D01*
D02*
G37*
%LPD*%
D12*
X-212205Y1575D02*
X-208661D01*
X-215748Y-1969D02*
X-212205Y1575D01*
X-215748Y-20079D02*
Y-1969D01*
X-208268Y-27559D02*
X-185039D01*
X-215748Y-20079D02*
X-208268Y-27559D01*
X-165748Y29134D02*
X-131890Y62992D01*
X-165748Y-9449D02*
Y29134D01*
X-219685Y-65134D02*
X-179794Y-105026D01*
X-219685Y-65134D02*
Y-31654D01*
X-179794Y-105026D02*
X-87669D01*
X-71260Y-88617D01*
Y-59269D01*
X-65534Y-53543D01*
X-24134D01*
X-212598Y-65126D02*
Y-42835D01*
Y-65126D02*
X-177331Y-100394D01*
X-88872D01*
X-78896Y-90418D01*
Y-16780D01*
X-178449Y-103047D02*
X-88583D01*
X-216811Y-64685D02*
X-178449Y-103047D01*
X-88583D02*
X-73622Y-88086D01*
Y-38583D01*
X-78896Y-16780D02*
X-71958Y-9843D01*
X-60632D01*
X-58664Y-7874D01*
Y391D01*
X-37402Y21654D01*
X-216811Y-64685D02*
Y-58071D01*
X-75787Y-36417D02*
X-73622Y-38583D01*
X-208661Y-14763D02*
X-199212Y-24213D01*
X-147047D01*
X-157275Y-90433D02*
X-142829D01*
X-179134Y-68575D02*
X-157275Y-90433D01*
X-6240Y-17874D02*
X60630D01*
X-28721Y-40354D02*
X-6240Y-17874D01*
X86614Y10630D02*
X98425Y-1181D01*
X110841Y11911D02*
X124521Y25591D01*
X110841Y11855D02*
Y11911D01*
X110236Y11250D02*
X110841Y11855D01*
X110236Y10773D02*
Y11250D01*
X-127756Y-87598D02*
X-89567D01*
X-155512Y-59842D02*
X-127756Y-87598D01*
X-112205Y-77756D02*
X-84646D01*
X-137795Y-52165D02*
X-112205Y-77756D01*
X-94057Y-89998D02*
X-90551Y-93504D01*
X-129247Y-91198D02*
X-94825D01*
X-158537Y-61909D02*
X-129247Y-91198D01*
X-90551Y-93504D02*
X-86614D01*
X-128750Y-89998D02*
X-94057D01*
X-128253Y-88798D02*
X-91514D01*
X-157543Y-59509D02*
X-128253Y-88798D01*
X-50330Y-44985D02*
X-33465D01*
X-63661Y-31654D02*
X-50330Y-44985D01*
X-75787Y-36417D02*
X-75787Y-36417D01*
X-69882D01*
X-177165Y-50197D02*
Y-36417D01*
Y-50197D02*
X-172244Y-55118D01*
X-163386Y-57110D02*
Y-54134D01*
X-163386Y-54134D02*
X-163386Y-54134D01*
X-172244Y-49213D02*
X-162402D01*
X-148465D01*
X-113031Y-13780D01*
X-160887Y-56590D02*
X-158793Y-58684D01*
X-155512Y-59842D02*
Y-56221D01*
X-157593Y-59509D02*
Y-53262D01*
X-163386Y-57110D02*
X-158587Y-61909D01*
X-157593Y-59509D02*
X-157543D01*
X-157593Y-53262D02*
X-157480Y-53150D01*
X-137795Y-7874D02*
X-108937D01*
X-144685D02*
X-137795D01*
Y-29528D02*
Y-7874D01*
X-51181Y79724D02*
X-50197Y78740D01*
X-75787Y79724D02*
X-51181D01*
X-103032Y52480D02*
X-75787Y79724D01*
X-103032Y-13780D02*
Y52480D01*
X-108937Y-7874D02*
X-103032Y-13780D01*
X-149606Y-12795D02*
X-144685Y-7874D01*
X-154528Y-12795D02*
X-149606D01*
X-151453Y-52165D02*
X-137795D01*
X-98425Y-35433D02*
Y49213D01*
X-107977Y-44985D02*
X-98425Y-35433D01*
X-110044Y-44985D02*
X-107977D01*
X-98425Y49213D02*
X-73740Y73898D01*
Y75406D01*
X-73622Y75524D01*
X-111221Y-46161D02*
X-110044Y-44985D01*
X-111221Y-46260D02*
Y-46161D01*
X-111673Y-45807D02*
X-111221Y-46260D01*
X-114173Y-45807D02*
X-111673D01*
X-94825Y-91198D02*
X-89567Y-96457D01*
X-158040Y-60709D02*
X-128750Y-89998D01*
X-158587Y-61909D02*
X-158537D01*
X-158793Y-60006D02*
Y-58684D01*
X-158090Y-60709D02*
X-158040D01*
X-158793Y-60006D02*
X-158090Y-60709D01*
X-91514Y-88798D02*
X-89567Y-90746D01*
X86614Y10630D02*
Y102363D01*
X124521Y25591D02*
Y102363D01*
D18*
X-69882Y-33091D02*
X-52145Y-15354D01*
X-69882Y-36417D02*
Y-33091D01*
X-52145Y-15354D02*
X-46565D01*
X25748Y2126D02*
X60630D01*
X17717Y-5906D02*
X25748Y2126D01*
X-20264Y-5906D02*
X17717D01*
X-21248Y-4921D02*
X-20264Y-5906D01*
X-64350Y-41654D02*
X-63661D01*
X-65019Y-42323D02*
X-64350Y-41654D01*
X-69882Y-42323D02*
X-65019D01*
X-65334Y-22638D02*
X-64350Y-21654D01*
X-69882Y-22638D02*
X-65334D01*
X-64350Y-21654D02*
X-63661D01*
X-36132Y-4921D02*
X-21248D01*
X-46565Y-15354D02*
X-36132Y-4921D01*
D44*
X-111221Y-40354D02*
D03*
Y-46260D02*
D03*
X-172244Y-55118D02*
D03*
Y-49213D02*
D03*
X-69882Y-36417D02*
D03*
Y-42323D02*
D03*
Y-16732D02*
D03*
Y-22638D02*
D03*
D63*
X-221457Y98425D02*
D03*
Y-98425D02*
D03*
X1969D02*
D03*
Y98425D02*
D03*
D64*
X-103032Y-13780D02*
D03*
X-113031D02*
D03*
X-123031D02*
D03*
X-133031D02*
D03*
X-143032D02*
D03*
X-21248Y34449D02*
D03*
Y-4921D02*
D03*
D65*
X60630Y32126D02*
D03*
Y2126D02*
D03*
Y-17874D02*
D03*
Y-47874D02*
D03*
D66*
X-83661Y-21654D02*
D03*
Y-31654D02*
D03*
Y-41654D02*
D03*
X-63661D02*
D03*
Y-31654D02*
D03*
Y-21654D02*
D03*
Y-1654D02*
D03*
X-83661D02*
D03*
D67*
X-54985Y-72047D02*
D03*
X-149213Y-79134D02*
D03*
X-185039Y-27559D02*
D03*
X-208661Y1575D02*
D03*
X-131890Y62992D02*
D03*
X-165748Y-9449D02*
D03*
X-219685Y-31654D02*
D03*
X-24134Y-53543D02*
D03*
X-212598Y-42835D02*
D03*
X-37402Y21654D02*
D03*
X-216811Y-58071D02*
D03*
X-208661Y-14763D02*
D03*
X-147047Y-24213D02*
D03*
X-142829Y-90433D02*
D03*
X-179134Y-68575D02*
D03*
X98425Y-1181D02*
D03*
X110236Y10773D02*
D03*
X-33465Y-44985D02*
D03*
X-53150Y-45807D02*
D03*
X-60039Y-90551D02*
D03*
X-75787Y-36417D02*
D03*
X-76772Y-68898D02*
D03*
X-130906Y-35433D02*
D03*
X-177165Y-36417D02*
D03*
X-163386Y-54134D02*
D03*
X-162402Y-49213D02*
D03*
X-160887Y-56590D02*
D03*
X-155512Y-56221D02*
D03*
X-137795Y-29528D02*
D03*
X-111221Y-36417D02*
D03*
X-50197Y78740D02*
D03*
X-154528Y-12795D02*
D03*
X-151453Y-52165D02*
D03*
X-159449Y-39370D02*
D03*
X-161417Y-16732D02*
D03*
X-84646Y-77756D02*
D03*
X-73622Y75524D02*
D03*
X-114173Y-45807D02*
D03*
X-102362Y-35433D02*
D03*
X-154528Y3937D02*
D03*
X-134843D02*
D03*
X-186024Y-43307D02*
D03*
X-89567Y-96457D02*
D03*
X-157480Y-53150D02*
D03*
X-86614Y-93504D02*
D03*
X-89567Y-90746D02*
D03*
Y-87598D02*
D03*
X-182087Y-35433D02*
D03*
X-78740Y-106299D02*
D03*
X-63895D02*
D03*
X-29528Y-60039D02*
D03*
X-39370D02*
D03*
X-54134Y-23622D02*
D03*
X-46565Y-15354D02*
D03*
X-28721Y-40354D02*
D03*
X-94488Y92020D02*
D03*
X-74803Y10630D02*
D03*
X-58571Y19685D02*
D03*
X-74803Y28740D02*
D03*
X-32874Y103347D02*
D03*
X-54724Y73032D02*
D03*
X-60236D02*
D03*
X-63976Y103347D02*
D03*
X86614Y102363D02*
D03*
X124521D02*
D03*
D68*
X-190945Y53150D02*
D03*
Y57087D02*
D03*
X-166733Y114173D02*
D03*
Y110236D02*
D03*
X-154922D02*
D03*
Y114173D02*
D03*
X-178150Y-93223D02*
D03*
Y-88020D02*
D03*
M02*
