G04*
G04 #@! TF.GenerationSoftware,Altium Limited,Altium Designer,19.0.15 (446)*
G04*
G04 Layer_Color=65535*
%FSLAX25Y25*%
%MOIN*%
G70*
G01*
G75*
%ADD10C,0.00984*%
%ADD11C,0.02362*%
%ADD12C,0.00600*%
%ADD13C,0.00787*%
%ADD14C,0.00591*%
%ADD15C,0.00800*%
%ADD16C,0.00500*%
%ADD17C,0.01575*%
%ADD18C,0.01000*%
G36*
X-70863Y-82626D02*
X-70835Y-82640D01*
X-70806Y-82669D01*
X-70799Y-82676D01*
X-70784Y-82705D01*
X-70770Y-82748D01*
X-70763Y-82812D01*
Y-83773D01*
X-69852Y-83472D01*
X-69845Y-83465D01*
X-69817Y-83457D01*
X-69788Y-83450D01*
X-69752D01*
X-69731Y-83457D01*
X-69702Y-83465D01*
X-69666Y-83493D01*
X-69659Y-83500D01*
X-69644Y-83515D01*
X-69630Y-83551D01*
X-69623Y-83587D01*
Y-83594D01*
Y-83615D01*
X-69637Y-83644D01*
X-69652Y-83680D01*
X-69659Y-83687D01*
X-69673Y-83701D01*
X-69709Y-83715D01*
X-69766Y-83737D01*
X-70677Y-84038D01*
X-70118Y-84812D01*
X-70111Y-84827D01*
X-70089Y-84856D01*
X-70068Y-84899D01*
X-70060Y-84934D01*
Y-84942D01*
X-70068Y-84970D01*
X-70075Y-84999D01*
X-70103Y-85035D01*
X-70111Y-85042D01*
X-70132Y-85056D01*
X-70161Y-85071D01*
X-70204Y-85078D01*
X-70218D01*
X-70247Y-85063D01*
X-70290Y-85035D01*
X-70319Y-85013D01*
X-70340Y-84977D01*
X-70906Y-84203D01*
X-71473Y-84977D01*
Y-84985D01*
X-71487Y-84992D01*
X-71516Y-85028D01*
X-71559Y-85063D01*
X-71580Y-85071D01*
X-71609Y-85078D01*
X-71616D01*
X-71645Y-85071D01*
X-71674Y-85056D01*
X-71710Y-85035D01*
X-71717Y-85028D01*
X-71731Y-85006D01*
X-71745Y-84977D01*
X-71753Y-84934D01*
Y-84927D01*
X-71745Y-84906D01*
X-71731Y-84863D01*
X-71695Y-84812D01*
X-71129Y-84038D01*
X-72047Y-83730D01*
X-72061Y-83723D01*
X-72089Y-83715D01*
X-72132Y-83694D01*
X-72161Y-83672D01*
Y-83665D01*
X-72168Y-83651D01*
X-72176Y-83622D01*
X-72183Y-83587D01*
Y-83579D01*
X-72176Y-83551D01*
X-72168Y-83522D01*
X-72147Y-83493D01*
X-72140Y-83486D01*
X-72118Y-83472D01*
X-72089Y-83457D01*
X-72054Y-83450D01*
X-72025D01*
X-71996Y-83457D01*
X-71953Y-83472D01*
X-71043Y-83773D01*
Y-82812D01*
Y-82805D01*
Y-82798D01*
X-71035Y-82755D01*
X-71028Y-82712D01*
X-71007Y-82669D01*
X-71000Y-82661D01*
X-70978Y-82640D01*
X-70942Y-82626D01*
X-70899Y-82618D01*
X-70892D01*
X-70863Y-82626D01*
D02*
G37*
D10*
X81398Y-115984D02*
X80660Y-115558D01*
Y-116410D01*
X81398Y-115984D01*
X-169587Y-34646D02*
X-170325Y-34220D01*
Y-35072D01*
X-169587Y-34646D01*
D11*
X72835Y-117717D02*
X72390Y-116793D01*
X71391Y-116565D01*
X70589Y-117204D01*
Y-118229D01*
X71391Y-118868D01*
X72390Y-118640D01*
X72835Y-117717D01*
X-159252Y-41732D02*
X-159697Y-40809D01*
X-160696Y-40581D01*
X-161497Y-41220D01*
Y-42245D01*
X-160696Y-42884D01*
X-159697Y-42656D01*
X-159252Y-41732D01*
D12*
X-64783Y-85601D02*
X-64396Y-86435D01*
X-63533Y-86751D01*
X-62699Y-86364D01*
X-62383Y-85501D01*
X-22731Y-101575D02*
X-21944Y-102362D01*
X-23519Y-103150D02*
X-21944Y-102362D01*
X-23519Y-103150D02*
X-22731Y-103937D01*
X-22835Y-92322D02*
Y-91535D01*
Y-93897D02*
Y-93110D01*
X-23622D02*
X-22047D01*
X-23622Y-92322D02*
X-22047D01*
X-209449Y-5906D02*
X-208661Y-6693D01*
X-209449Y-5906D02*
X-207874Y-5118D01*
X-208661Y-4331D02*
X-207874Y-5118D01*
X-67520Y-85501D02*
X-63583D01*
X-67520Y-101901D02*
X-59646D01*
X-63583Y-85501D02*
X-59646D01*
X86614Y15410D02*
X87814D01*
X87214D01*
Y11811D01*
X86614D01*
X87814D01*
X89613D02*
Y15410D01*
X90813Y14210D01*
X92012Y15410D01*
Y11811D01*
X93212Y15410D02*
Y11811D01*
X95012D01*
X95611Y12411D01*
Y14810D01*
X95012Y15410D01*
X93212D01*
X96811Y13610D02*
X99210D01*
X98010Y14810D02*
Y12411D01*
X86614Y3599D02*
X87814D01*
X87214D01*
Y-0D01*
X86614D01*
X87814D01*
X89613D02*
Y3599D01*
X90813Y2399D01*
X92012Y3599D01*
Y-0D01*
X93212Y3599D02*
Y-0D01*
X95012D01*
X95611Y600D01*
Y2999D01*
X95012Y3599D01*
X93212D01*
X96811Y1799D02*
X99210D01*
X90551Y-8212D02*
Y-11811D01*
Y-10012D01*
X92950D01*
Y-8212D01*
Y-11811D01*
X94150Y-8212D02*
Y-10611D01*
X95350Y-11811D01*
X96549Y-10611D01*
Y-8212D01*
X97749Y-10012D02*
X100148D01*
X90551Y27221D02*
Y23622D01*
Y25422D01*
X92950D01*
Y27221D01*
Y23622D01*
X94150Y27221D02*
Y24822D01*
X95350Y23622D01*
X96549Y24822D01*
Y27221D01*
X97749Y25422D02*
X100148D01*
X98949Y26621D02*
Y24222D01*
X86614Y-23622D02*
Y-20023D01*
X88414D01*
X89013Y-20623D01*
Y-21823D01*
X88414Y-22422D01*
X86614D01*
X92612Y-20623D02*
X92012Y-20023D01*
X90813D01*
X90213Y-20623D01*
Y-23022D01*
X90813Y-23622D01*
X92012D01*
X92612Y-23022D01*
X96211Y-20623D02*
X95611Y-20023D01*
X94412D01*
X93812Y-20623D01*
Y-23022D01*
X94412Y-23622D01*
X95611D01*
X96211Y-23022D01*
Y-21823D01*
X95012D01*
X97411D02*
X99810D01*
X98610Y-20623D02*
Y-23022D01*
X-181440Y1969D02*
X-185039D01*
X-181440D02*
Y-260D01*
X-183154Y1969D02*
Y597D01*
X-185039Y-3413D02*
X-181440Y-2042D01*
X-185039Y-671D01*
X-183840Y-1185D02*
Y-2899D01*
X-181440Y-4253D02*
X-184011D01*
X-184525Y-4424D01*
X-184868Y-4767D01*
X-185039Y-5281D01*
Y-5624D01*
X-184868Y-6138D01*
X-184525Y-6481D01*
X-184011Y-6652D01*
X-181440D01*
Y-7647D02*
X-185039D01*
Y-9703D01*
X-181440Y-11297D02*
X-185039D01*
X-181440Y-10097D02*
Y-12497D01*
X-195220Y2953D02*
X-198819D01*
Y1153D01*
X-198219Y554D01*
X-195820D01*
X-195220Y1153D01*
Y2953D01*
Y-3045D02*
Y-646D01*
X-198819D01*
Y-3045D01*
X-197020Y-646D02*
Y-1846D01*
X-195220Y-4245D02*
X-198819D01*
Y-6044D01*
X-198219Y-6644D01*
X-197619D01*
X-197020Y-6044D01*
Y-4245D01*
Y-6044D01*
X-196420Y-6644D01*
X-195820D01*
X-195220Y-6044D01*
Y-4245D01*
Y-7844D02*
X-198219D01*
X-198819Y-8444D01*
Y-9643D01*
X-198219Y-10243D01*
X-195220D01*
X-195820Y-13842D02*
X-195220Y-13242D01*
Y-12042D01*
X-195820Y-11443D01*
X-198219D01*
X-198819Y-12042D01*
Y-13242D01*
X-198219Y-13842D01*
X-197020D01*
Y-12642D01*
X89764Y-98370D02*
X90963D01*
X90364D01*
Y-101969D01*
X89764D01*
X90963D01*
X92763D02*
Y-98370D01*
X93962Y-99569D01*
X95162Y-98370D01*
Y-101969D01*
X89764Y-86559D02*
X90963D01*
X90364D01*
Y-90158D01*
X89764D01*
X90963D01*
X92763D02*
Y-86559D01*
X94562D01*
X95162Y-87159D01*
Y-88358D01*
X94562Y-88958D01*
X92763D01*
X-17520Y-46457D02*
X-21118D01*
Y-44657D01*
X-20519Y-44058D01*
X-19319D01*
X-18719Y-44657D01*
Y-46457D01*
X-19919Y-42858D02*
X-17520D01*
X-18719D01*
X-19319Y-42258D01*
X-19919Y-41658D01*
Y-41058D01*
X-17520Y-37460D02*
Y-38659D01*
X-18120Y-39259D01*
X-19319D01*
X-19919Y-38659D01*
Y-37460D01*
X-19319Y-36860D01*
X-18719D01*
Y-39259D01*
X-19919Y-33261D02*
Y-35060D01*
X-19319Y-35660D01*
X-18120D01*
X-17520Y-35060D01*
Y-33261D01*
X-21118Y-32061D02*
X-17520D01*
X-19319D01*
X-19919Y-31462D01*
Y-30262D01*
X-19319Y-29662D01*
X-17520D01*
X-19919Y-27863D02*
Y-26663D01*
X-19319Y-26063D01*
X-17520D01*
Y-27863D01*
X-18120Y-28462D01*
X-18719Y-27863D01*
Y-26063D01*
X-19919Y-24864D02*
X-17520D01*
X-18719D01*
X-19319Y-24264D01*
X-19919Y-23664D01*
Y-23064D01*
X-16320Y-20065D02*
Y-19465D01*
X-16920Y-18866D01*
X-19919D01*
Y-20665D01*
X-19319Y-21265D01*
X-18120D01*
X-17520Y-20665D01*
Y-18866D01*
Y-15867D02*
Y-17066D01*
X-18120Y-17666D01*
X-19319D01*
X-19919Y-17066D01*
Y-15867D01*
X-19319Y-15267D01*
X-18719D01*
Y-17666D01*
X-21118Y-11668D02*
X-17520D01*
Y-13467D01*
X-18120Y-14067D01*
X-19319D01*
X-19919Y-13467D01*
Y-11668D01*
X-71063Y-66535D02*
Y-64136D01*
X-69863Y-62937D01*
X-68664Y-64136D01*
Y-66535D01*
Y-64736D01*
X-71063D01*
X-67464Y-62937D02*
X-66264D01*
X-66864D01*
Y-66535D01*
X-67464D01*
X-66264D01*
X-64465D02*
Y-62937D01*
X-62666D01*
X-62066Y-63536D01*
Y-64736D01*
X-62666Y-65336D01*
X-64465D01*
X-63266D02*
X-62066Y-66535D01*
X29111Y99875D02*
X31110D01*
X30111D01*
Y105874D01*
X29111Y104874D01*
X38108Y99875D02*
X34109D01*
X38108Y103874D01*
Y104874D01*
X37108Y105874D01*
X35109D01*
X34109Y104874D01*
X40107Y99875D02*
Y100875D01*
X41107D01*
Y99875D01*
X40107D01*
X45106Y105874D02*
X49104D01*
Y104874D01*
X45106Y100875D01*
Y99875D01*
X51104Y104874D02*
X52103Y105874D01*
X54103D01*
X55102Y104874D01*
Y100875D01*
X54103Y99875D01*
X52103D01*
X51104Y100875D01*
Y104874D01*
X57102Y99875D02*
Y103874D01*
X58101D01*
X59101Y102875D01*
Y99875D01*
Y102875D01*
X60101Y103874D01*
X61101Y102875D01*
Y99875D01*
X63100D02*
Y103874D01*
X64100D01*
X65099Y102875D01*
Y99875D01*
Y102875D01*
X66099Y103874D01*
X67099Y102875D01*
Y99875D01*
D13*
X75591Y-121653D02*
Y-62598D01*
X29921Y-121653D02*
Y-62598D01*
Y-121653D02*
X75591D01*
X29921Y-62598D02*
X75591D01*
X-164370Y-58661D02*
Y-37795D01*
X-143504Y-58661D02*
Y-37795D01*
X-164370D02*
X-143504D01*
X-164370Y-58661D02*
X-143504D01*
X66831Y111647D02*
X74705Y114272D01*
X66831Y116896D02*
X74705Y114272D01*
X24705D02*
X32579Y116896D01*
X24705Y114272D02*
X32579Y111647D01*
X49705Y114272D02*
X74705D01*
X24705D02*
X49705D01*
X74705Y106398D02*
Y122146D01*
X24705Y106398D02*
Y122146D01*
X-182677Y-114044D02*
X-181365D01*
X-182021D01*
Y-117979D01*
X-182677D01*
X-181365D01*
X-179397D02*
X-178085D01*
X-178741D01*
Y-114044D01*
X-179397D01*
X-176118Y-117979D02*
X-174806D01*
X-175462D01*
Y-114044D01*
X-176118D01*
X-172838Y-117979D02*
X-171526D01*
X-172182D01*
Y-115356D01*
X-172838D01*
X-169558Y-117979D02*
Y-115356D01*
X-167590D01*
X-166934Y-116012D01*
Y-117979D01*
X-165622D02*
X-164310D01*
X-164966D01*
Y-115356D01*
X-165622D01*
X-155783Y-114044D02*
X-158407D01*
Y-116012D01*
X-157095D01*
X-158407D01*
Y-117979D01*
X-153815D02*
X-152503D01*
X-151847Y-117324D01*
Y-116012D01*
X-152503Y-115356D01*
X-153815D01*
X-154471Y-116012D01*
Y-117324D01*
X-153815Y-117979D01*
X-150535Y-115356D02*
Y-117979D01*
Y-116667D01*
X-149879Y-116012D01*
X-149223Y-115356D01*
X-148567D01*
X-146600Y-117979D02*
Y-115356D01*
X-145944D01*
X-145288Y-116012D01*
Y-117979D01*
Y-116012D01*
X-144632Y-115356D01*
X-143976Y-116012D01*
Y-117979D01*
X-142664Y-115356D02*
Y-117324D01*
X-142008Y-117979D01*
X-140040D01*
Y-115356D01*
X-138728Y-117979D02*
X-137416D01*
X-138072D01*
Y-114044D01*
X-138728D01*
X-134792Y-115356D02*
X-133480D01*
X-132825Y-116012D01*
Y-117979D01*
X-134792D01*
X-135448Y-117324D01*
X-134792Y-116667D01*
X-132825D01*
X-124953Y-114044D02*
X-127577D01*
Y-117979D01*
X-124953D01*
X-127577Y-116012D02*
X-126265D01*
X-123641Y-117979D02*
X-122329D01*
X-122985D01*
Y-114044D01*
X-123641D01*
X-118393Y-117979D02*
X-119705D01*
X-120361Y-117324D01*
Y-116012D01*
X-119705Y-115356D01*
X-118393D01*
X-117737Y-116012D01*
Y-116667D01*
X-120361D01*
X-113802Y-115356D02*
X-115770D01*
X-116426Y-116012D01*
Y-117324D01*
X-115770Y-117979D01*
X-113802D01*
X-111834Y-114700D02*
Y-115356D01*
X-112490D01*
X-111178D01*
X-111834D01*
Y-117324D01*
X-111178Y-117979D01*
X-109210D02*
X-107898D01*
X-108554D01*
Y-115356D01*
X-109210D01*
X-103306D02*
X-105274D01*
X-105930Y-116012D01*
Y-117324D01*
X-105274Y-117979D01*
X-103306D01*
X-98059Y-116012D02*
X-95435D01*
X-90187Y-117979D02*
Y-115356D01*
X-88875Y-114044D01*
X-87564Y-115356D01*
Y-117979D01*
Y-116012D01*
X-90187D01*
X-86252Y-119291D02*
Y-115356D01*
X-84284D01*
X-83628Y-116012D01*
Y-117324D01*
X-84284Y-117979D01*
X-86252D01*
X-81660D02*
X-80348D01*
X-79692Y-117324D01*
Y-116012D01*
X-80348Y-115356D01*
X-81660D01*
X-82316Y-116012D01*
Y-117324D01*
X-81660Y-117979D01*
X-78380D02*
X-77068D01*
X-77724D01*
Y-114044D01*
X-78380D01*
X-75100Y-117979D02*
X-73788D01*
X-74444D01*
Y-114044D01*
X-75100D01*
X-71165Y-117979D02*
X-69853D01*
X-69197Y-117324D01*
Y-116012D01*
X-69853Y-115356D01*
X-71165D01*
X-71820Y-116012D01*
Y-117324D01*
X-71165Y-117979D01*
X-61325D02*
X-63949D01*
X-61325Y-115356D01*
Y-114700D01*
X-61981Y-114044D01*
X-63293D01*
X-63949Y-114700D01*
X-60013D02*
X-59357Y-114044D01*
X-58045D01*
X-57389Y-114700D01*
Y-117324D01*
X-58045Y-117979D01*
X-59357D01*
X-60013Y-117324D01*
Y-114700D01*
X-56078Y-117979D02*
X-54766D01*
X-55422D01*
Y-114044D01*
X-56078Y-114700D01*
X-52798Y-117324D02*
X-52142Y-117979D01*
X-50830D01*
X-50174Y-117324D01*
Y-114700D01*
X-50830Y-114044D01*
X-52142D01*
X-52798Y-114700D01*
Y-115356D01*
X-52142Y-116012D01*
X-50174D01*
D14*
X-199484Y-25185D02*
X-196335D01*
X-188189Y-53996D02*
Y-51181D01*
Y-53996D02*
X-186024D01*
X-178150D02*
X-175984D01*
Y-51181D01*
X-75984Y-76634D02*
Y-73819D01*
Y-76634D02*
X-73819D01*
X-65945D02*
X-63779D01*
Y-73819D01*
X-184721Y-25185D02*
X-181571D01*
X-171122Y-14370D02*
X-168307D01*
X-171122Y-16535D02*
Y-14370D01*
Y-26575D02*
Y-24409D01*
Y-26575D02*
X-168307D01*
X-150787Y-59D02*
Y2756D01*
Y-59D02*
X-148622D01*
X-140748D02*
X-138583D01*
Y2756D01*
X-98032Y-18779D02*
Y-8779D01*
X-148031Y-18779D02*
X-98032D01*
X-148031D02*
Y-8779D01*
X-98032D01*
X-15933Y4528D02*
Y25000D01*
X-26563Y4528D02*
X-15933D01*
X-26563D02*
Y25000D01*
X-15933D01*
X-25185Y7874D02*
X-17311D01*
X-73831Y-67004D02*
Y-63854D01*
X-54134Y-57342D02*
Y-54528D01*
Y-57342D02*
X-51968D01*
X-44094D02*
X-41929D01*
Y-54528D01*
X-26575Y-33661D02*
Y-18307D01*
X-45866Y-33661D02*
Y-18307D01*
X-23106Y-58768D02*
X-19957D01*
X24409Y124016D02*
X24409Y-123721D01*
X74803Y-124016D02*
Y124016D01*
X-115945Y-52953D02*
X-100591D01*
X-115945Y-33661D02*
X-100591D01*
X-67201Y64579D02*
X-64051D01*
X-86811Y99016D02*
X-85827D01*
X-86811Y83661D02*
Y99016D01*
Y83661D02*
X-84842D01*
X-60236Y99016D02*
X-59252D01*
Y83661D02*
Y99016D01*
X-61221Y83661D02*
X-59252D01*
X-51453Y64579D02*
X-48303D01*
X-55709Y99016D02*
X-54724D01*
X-55709Y83661D02*
Y99016D01*
Y83661D02*
X-53740D01*
X-29134Y99016D02*
X-28150D01*
Y83661D02*
Y99016D01*
X-30118Y83661D02*
X-28150D01*
D15*
X-45945Y7004D02*
Y32594D01*
X-49444D02*
X-45944Y32594D01*
X-49444Y7004D02*
X-45944Y7003D01*
D16*
X-58897Y-56182D02*
Y2874D01*
X-88425Y-56182D02*
X-58897D01*
X-88425D02*
Y2874D01*
X-58897D01*
D17*
X-241079Y58007D02*
X-239636Y59450D01*
Y62336D01*
X-241079Y63779D01*
X-246852D01*
X-248295Y62336D01*
Y59450D01*
X-246852Y58007D01*
X-239636Y55121D02*
X-248295D01*
X-243966D01*
X-242523Y53678D01*
Y50792D01*
X-243966Y49349D01*
X-248295D01*
X-242523Y45019D02*
Y42133D01*
X-243966Y40690D01*
X-248295D01*
Y45019D01*
X-246852Y46462D01*
X-245409Y45019D01*
Y40690D01*
X-248295Y37804D02*
Y34918D01*
Y36361D01*
X-242523D01*
Y37804D01*
X-241079Y29145D02*
X-242523D01*
Y30588D01*
Y27702D01*
Y29145D01*
X-246852D01*
X-248295Y27702D01*
X-242523Y21929D02*
Y19043D01*
X-243966Y17600D01*
X-248295D01*
Y21929D01*
X-246852Y23373D01*
X-245409Y21929D01*
Y17600D01*
X-248295Y14714D02*
X-242523D01*
Y10385D01*
X-243966Y8942D01*
X-248295D01*
X-242523Y6055D02*
X-246852D01*
X-248295Y4612D01*
Y283D01*
X-249738D01*
X-251181Y1726D01*
Y3169D01*
X-248295Y283D02*
X-242523D01*
Y-4046D02*
Y-6933D01*
X-243966Y-8376D01*
X-248295D01*
Y-4046D01*
X-246852Y-2603D01*
X-245409Y-4046D01*
Y-8376D01*
X-241079Y-25693D02*
X-239636Y-24250D01*
Y-21364D01*
X-241079Y-19920D01*
X-242523D01*
X-243966Y-21364D01*
Y-24250D01*
X-245409Y-25693D01*
X-246852D01*
X-248295Y-24250D01*
Y-21364D01*
X-246852Y-19920D01*
X-248295Y-28579D02*
Y-31465D01*
Y-30022D01*
X-242523D01*
Y-28579D01*
X-248295Y-35795D02*
X-242523D01*
Y-40124D01*
X-243966Y-41567D01*
X-248295D01*
X-239636Y-50226D02*
X-248295D01*
Y-45896D01*
X-246852Y-44453D01*
X-243966D01*
X-242523Y-45896D01*
Y-50226D01*
Y-54555D02*
Y-57441D01*
X-243966Y-58884D01*
X-248295D01*
Y-54555D01*
X-246852Y-53112D01*
X-245409Y-54555D01*
Y-58884D01*
X-251181Y-64657D02*
Y-66100D01*
X-249738Y-67543D01*
X-242523D01*
Y-63214D01*
X-243966Y-61770D01*
X-246852D01*
X-248295Y-63214D01*
Y-67543D01*
Y-70429D02*
Y-73315D01*
Y-71872D01*
X-242523D01*
Y-70429D01*
D18*
X82677Y-45183D02*
Y-51181D01*
X85676D01*
X86676Y-50181D01*
Y-49182D01*
X85676Y-48182D01*
X82677D01*
X85676D01*
X86676Y-47182D01*
Y-46183D01*
X85676Y-45183D01*
X82677D01*
X88675Y-51181D02*
Y-45183D01*
X90675Y-47182D01*
X92674Y-45183D01*
Y-51181D01*
X98672Y-46183D02*
X97672Y-45183D01*
X95673D01*
X94673Y-46183D01*
Y-47182D01*
X95673Y-48182D01*
X97672D01*
X98672Y-49182D01*
Y-50181D01*
X97672Y-51181D01*
X95673D01*
X94673Y-50181D01*
X-46654Y71534D02*
X-45654Y72534D01*
X-43655D01*
X-42655Y71534D01*
Y70534D01*
X-43655Y69534D01*
X-44654D01*
X-43655D01*
X-42655Y68535D01*
Y67535D01*
X-43655Y66535D01*
X-45654D01*
X-46654Y67535D01*
X-40655Y66535D02*
Y67535D01*
X-39656D01*
Y66535D01*
X-40655D01*
X-35657Y71534D02*
X-34657Y72534D01*
X-32658D01*
X-31658Y71534D01*
Y70534D01*
X-32658Y69534D01*
X-33658D01*
X-32658D01*
X-31658Y68535D01*
Y67535D01*
X-32658Y66535D01*
X-34657D01*
X-35657Y67535D01*
X-29659Y72534D02*
Y68535D01*
X-27660Y66535D01*
X-25660Y68535D01*
Y72534D01*
X-75726D02*
X-79724D01*
Y69534D01*
X-77725Y70534D01*
X-76725D01*
X-75726Y69534D01*
Y67535D01*
X-76725Y66535D01*
X-78725D01*
X-79724Y67535D01*
X-73726Y72534D02*
Y68535D01*
X-71727Y66535D01*
X-69728Y68535D01*
Y72534D01*
M02*
