G04*
G04 #@! TF.GenerationSoftware,Altium Limited,Altium Designer,19.0.15 (446)*
G04*
G04 Layer_Color=16711935*
%FSLAX25Y25*%
%MOIN*%
G70*
G01*
G75*
%ADD19R,0.03353X0.03550*%
%ADD38C,0.31896*%
%ADD39C,0.06306*%
%ADD40C,0.04239*%
%ADD41C,0.03943*%
%ADD42C,0.02762*%
%ADD43C,0.02368*%
D19*
X-111221Y-40354D02*
D03*
Y-46260D02*
D03*
X-172244Y-55118D02*
D03*
Y-49213D02*
D03*
X-69882Y-36417D02*
D03*
Y-42323D02*
D03*
Y-16732D02*
D03*
Y-22638D02*
D03*
D38*
X-221457Y98425D02*
D03*
Y-98425D02*
D03*
X1969D02*
D03*
Y98425D02*
D03*
D39*
X-103032Y-13780D02*
D03*
X-113031D02*
D03*
X-123031D02*
D03*
X-133031D02*
D03*
X-143032D02*
D03*
X-21248Y34449D02*
D03*
Y-4921D02*
D03*
D40*
X60630Y32126D02*
D03*
Y2126D02*
D03*
Y-17874D02*
D03*
Y-47874D02*
D03*
D41*
X-83661Y-21654D02*
D03*
Y-31654D02*
D03*
Y-41654D02*
D03*
X-63661D02*
D03*
Y-31654D02*
D03*
Y-21654D02*
D03*
Y-1654D02*
D03*
X-83661D02*
D03*
D42*
X-54985Y-72047D02*
D03*
X-149213Y-79134D02*
D03*
X-185039Y-27559D02*
D03*
X-208661Y1575D02*
D03*
X-131890Y62992D02*
D03*
X-165748Y-9449D02*
D03*
X-219685Y-31654D02*
D03*
X-24134Y-53543D02*
D03*
X-212598Y-42835D02*
D03*
X-37402Y21654D02*
D03*
X-216811Y-58071D02*
D03*
X-208661Y-14763D02*
D03*
X-147047Y-24213D02*
D03*
X-142829Y-90433D02*
D03*
X-179134Y-68575D02*
D03*
X98425Y-1181D02*
D03*
X110236Y10773D02*
D03*
X-33465Y-44985D02*
D03*
X-53150Y-45807D02*
D03*
X-60039Y-90551D02*
D03*
X-75787Y-36417D02*
D03*
X-76772Y-68898D02*
D03*
X-130906Y-35433D02*
D03*
X-177165Y-36417D02*
D03*
X-163386Y-54134D02*
D03*
X-162402Y-49213D02*
D03*
X-160887Y-56590D02*
D03*
X-155512Y-56221D02*
D03*
X-137795Y-29528D02*
D03*
X-111221Y-36417D02*
D03*
X-50197Y78740D02*
D03*
X-154528Y-12795D02*
D03*
X-151453Y-52165D02*
D03*
X-159449Y-39370D02*
D03*
X-161417Y-16732D02*
D03*
X-84646Y-77756D02*
D03*
X-73622Y75524D02*
D03*
X-114173Y-45807D02*
D03*
X-102362Y-35433D02*
D03*
X-154528Y3937D02*
D03*
X-134843D02*
D03*
X-186024Y-43307D02*
D03*
X-89567Y-96457D02*
D03*
X-157480Y-53150D02*
D03*
X-86614Y-93504D02*
D03*
X-89567Y-90746D02*
D03*
Y-87598D02*
D03*
X-182087Y-35433D02*
D03*
X-78740Y-106299D02*
D03*
X-63895D02*
D03*
X-29528Y-60039D02*
D03*
X-39370D02*
D03*
X-54134Y-23622D02*
D03*
X-46565Y-15354D02*
D03*
X-28721Y-40354D02*
D03*
X-94488Y92020D02*
D03*
X-74803Y10630D02*
D03*
X-58571Y19685D02*
D03*
X-74803Y28740D02*
D03*
X-32874Y103347D02*
D03*
X-54724Y73032D02*
D03*
X-60236D02*
D03*
X-63976Y103347D02*
D03*
X86614Y102363D02*
D03*
X124521D02*
D03*
D43*
X-190945Y53150D02*
D03*
Y57087D02*
D03*
X-166733Y114173D02*
D03*
Y110236D02*
D03*
X-154922D02*
D03*
Y114173D02*
D03*
X-178150Y-93223D02*
D03*
Y-88020D02*
D03*
M02*
