G04*
G04 #@! TF.GenerationSoftware,Altium Limited,Altium Designer,19.0.15 (446)*
G04*
G04 Layer_Color=8388736*
%FSLAX25Y25*%
%MOIN*%
G70*
G01*
G75*
%ADD19R,0.03353X0.03550*%
%ADD20R,0.07880X0.04416*%
%ADD21R,0.05400X0.10400*%
%ADD22R,0.13904X0.06896*%
%ADD23R,0.10400X0.05400*%
%ADD24R,0.06896X0.13904*%
%ADD25O,0.08668X0.01581*%
%ADD26O,0.01581X0.08668*%
%ADD27R,0.03550X0.03353*%
%ADD28R,0.03156X0.03943*%
%ADD29R,0.16148X0.24022*%
%ADD30R,0.03943X0.03156*%
%ADD31R,0.09061X0.05124*%
%ADD32R,0.30400X0.25400*%
%ADD33R,0.02762X0.06502*%
%ADD34R,0.05900X0.01500*%
%ADD35R,0.06502X0.02762*%
%ADD36R,0.05124X0.05124*%
%ADD37R,0.14573X0.05124*%
%ADD38C,0.31896*%
%ADD39C,0.06306*%
%ADD40C,0.04239*%
%ADD41C,0.03943*%
%ADD42C,0.02762*%
%ADD43C,0.02368*%
D19*
X-22731Y-99803D02*
D03*
Y-105709D02*
D03*
X-22835Y-95669D02*
D03*
Y-89763D02*
D03*
X-208661Y-8465D02*
D03*
Y-2559D02*
D03*
X-192913Y-22638D02*
D03*
Y-16732D02*
D03*
X-197835D02*
D03*
Y-22638D02*
D03*
X-85630Y-81693D02*
D03*
Y-87598D02*
D03*
X-79724Y-77756D02*
D03*
Y-71850D02*
D03*
X-178150Y-22638D02*
D03*
Y-16732D02*
D03*
X-183071D02*
D03*
Y-22638D02*
D03*
X-79331Y-90748D02*
D03*
Y-84842D02*
D03*
X-49409Y-15354D02*
D03*
Y-21260D02*
D03*
X-30118Y-50591D02*
D03*
Y-56496D02*
D03*
X-17126Y-56221D02*
D03*
Y-50315D02*
D03*
X-34449Y-56496D02*
D03*
Y-50591D02*
D03*
X-21457Y-50315D02*
D03*
Y-56221D02*
D03*
X-54134Y-15354D02*
D03*
Y-21260D02*
D03*
X-38780Y-50591D02*
D03*
Y-56496D02*
D03*
X-79331Y-97441D02*
D03*
Y-103347D02*
D03*
X-65551Y67126D02*
D03*
Y73032D02*
D03*
X-60236D02*
D03*
Y67126D02*
D03*
X-49803D02*
D03*
Y73032D02*
D03*
X-54724D02*
D03*
Y67126D02*
D03*
D20*
X80905Y-111811D02*
D03*
Y-103937D02*
D03*
Y-96063D02*
D03*
Y-88189D02*
D03*
Y-80315D02*
D03*
Y-72441D02*
D03*
X24606Y-111811D02*
D03*
Y-103937D02*
D03*
Y-96063D02*
D03*
Y-88189D02*
D03*
Y-80315D02*
D03*
Y-72441D02*
D03*
D21*
X-214567Y54843D02*
D03*
X-202756D02*
D03*
X-190945D02*
D03*
X-179134D02*
D03*
X-167322D02*
D03*
X-155511D02*
D03*
X-143700D02*
D03*
X-131889D02*
D03*
X-166733Y111929D02*
D03*
X-154922D02*
D03*
X-143110D02*
D03*
X-131299D02*
D03*
X-178263Y-90433D02*
D03*
X-166452D02*
D03*
X-154640D02*
D03*
X-142829D02*
D03*
D22*
X-116574Y41339D02*
D03*
X-229882D02*
D03*
X-115984Y98425D02*
D03*
X-182048D02*
D03*
X-127514Y-103937D02*
D03*
X-193578D02*
D03*
D23*
X-216811Y-14763D02*
D03*
Y-26574D02*
D03*
Y-38386D02*
D03*
Y-50197D02*
D03*
X104331Y-98426D02*
D03*
Y-86615D02*
D03*
Y-74803D02*
D03*
Y-62992D02*
D03*
X104319Y-12849D02*
D03*
Y-1038D02*
D03*
Y10773D02*
D03*
Y22584D02*
D03*
Y34395D02*
D03*
D24*
X-230315Y-65512D02*
D03*
Y552D02*
D03*
X117835Y-47677D02*
D03*
Y-113741D02*
D03*
X117823Y49710D02*
D03*
Y-28164D02*
D03*
D25*
X-170079Y-37402D02*
D03*
Y-39370D02*
D03*
Y-41339D02*
D03*
Y-43307D02*
D03*
Y-45276D02*
D03*
Y-47244D02*
D03*
Y-49213D02*
D03*
Y-51181D02*
D03*
Y-53150D02*
D03*
Y-55118D02*
D03*
Y-57087D02*
D03*
Y-59055D02*
D03*
X-137795D02*
D03*
Y-57087D02*
D03*
Y-55118D02*
D03*
Y-53150D02*
D03*
Y-51181D02*
D03*
Y-49213D02*
D03*
Y-47244D02*
D03*
Y-45276D02*
D03*
Y-43307D02*
D03*
Y-41339D02*
D03*
Y-39370D02*
D03*
Y-37402D02*
D03*
D26*
X-164764Y-64370D02*
D03*
X-162795D02*
D03*
X-160827D02*
D03*
X-158858D02*
D03*
X-156890D02*
D03*
X-154921D02*
D03*
X-152953D02*
D03*
X-150984D02*
D03*
X-149016D02*
D03*
X-147047D02*
D03*
X-145079D02*
D03*
X-143110D02*
D03*
Y-32087D02*
D03*
X-145079D02*
D03*
X-147047D02*
D03*
X-149016D02*
D03*
X-150984D02*
D03*
X-152953D02*
D03*
X-154921D02*
D03*
X-156890D02*
D03*
X-158858D02*
D03*
X-160827D02*
D03*
X-162795D02*
D03*
X-164764D02*
D03*
D27*
X-185039Y-61024D02*
D03*
X-179134D02*
D03*
X-153937Y6791D02*
D03*
X-159843D02*
D03*
Y13189D02*
D03*
X-153937D02*
D03*
X-147539D02*
D03*
X-141634D02*
D03*
X-135630Y6791D02*
D03*
X-129724D02*
D03*
Y13189D02*
D03*
X-135630D02*
D03*
X-88583Y92520D02*
D03*
X-94488D02*
D03*
X-82284Y-65354D02*
D03*
X-76378D02*
D03*
X-82284Y-60630D02*
D03*
X-76378D02*
D03*
X-53543Y-81102D02*
D03*
X-59449D02*
D03*
X-55118Y-106299D02*
D03*
X-61024D02*
D03*
X-59449Y-76772D02*
D03*
X-53543D02*
D03*
X-143701Y-73603D02*
D03*
X-149606D02*
D03*
X-176181Y-32480D02*
D03*
X-182087D02*
D03*
D28*
X-178346Y-47244D02*
D03*
X-185827D02*
D03*
X-182087Y-55118D02*
D03*
X-66142Y-69882D02*
D03*
X-73622D02*
D03*
X-69882Y-77756D02*
D03*
X-140945Y6693D02*
D03*
X-148425D02*
D03*
X-144685Y-1181D02*
D03*
X-44291Y-50591D02*
D03*
X-51772D02*
D03*
X-48031Y-58465D02*
D03*
D29*
X123819Y102362D02*
D03*
X88779Y102559D02*
D03*
Y72835D02*
D03*
X123819Y72638D02*
D03*
D30*
X-164370Y-24213D02*
D03*
Y-16732D02*
D03*
X-172244Y-20472D02*
D03*
D31*
X-36811Y28740D02*
D03*
Y10630D02*
D03*
D32*
X-65945Y19685D02*
D03*
D33*
X-43720Y-36614D02*
D03*
X-38721D02*
D03*
X-33720D02*
D03*
X-28721D02*
D03*
Y-15354D02*
D03*
X-33720D02*
D03*
X-38721D02*
D03*
X-43720D02*
D03*
D34*
X-72183Y-86806D02*
D03*
Y-88776D02*
D03*
Y-90746D02*
D03*
Y-92716D02*
D03*
Y-94686D02*
D03*
Y-96656D02*
D03*
Y-98626D02*
D03*
Y-100596D02*
D03*
X-54983D02*
D03*
Y-98626D02*
D03*
Y-96656D02*
D03*
Y-94686D02*
D03*
Y-92716D02*
D03*
Y-90746D02*
D03*
Y-88776D02*
D03*
Y-86806D02*
D03*
D35*
X-118898Y-35807D02*
D03*
Y-40807D02*
D03*
Y-45807D02*
D03*
Y-50807D02*
D03*
X-97638D02*
D03*
Y-45807D02*
D03*
Y-40807D02*
D03*
Y-35807D02*
D03*
D36*
X-63976Y103347D02*
D03*
X-73032D02*
D03*
X-82087D02*
D03*
X-32874D02*
D03*
X-41929D02*
D03*
X-50984D02*
D03*
D37*
X-73032Y79331D02*
D03*
X-41929D02*
D03*
D38*
X-221457Y98425D02*
D03*
Y-98425D02*
D03*
X1969D02*
D03*
Y98425D02*
D03*
D39*
X-103032Y-13780D02*
D03*
X-113031D02*
D03*
X-123031D02*
D03*
X-133031D02*
D03*
X-143032D02*
D03*
X-21248Y34449D02*
D03*
Y-4921D02*
D03*
D40*
X60630Y32126D02*
D03*
Y2126D02*
D03*
Y-17874D02*
D03*
Y-47874D02*
D03*
D41*
X-83661Y-21654D02*
D03*
Y-31654D02*
D03*
Y-41654D02*
D03*
X-63661D02*
D03*
Y-31654D02*
D03*
Y-21654D02*
D03*
Y-1654D02*
D03*
X-83661D02*
D03*
D42*
X-54985Y-72047D02*
D03*
X-149213Y-79134D02*
D03*
X-185039Y-27559D02*
D03*
X-208661Y1575D02*
D03*
X-131890Y62992D02*
D03*
X-165748Y-9449D02*
D03*
X-219685Y-31654D02*
D03*
X-24134Y-53543D02*
D03*
X-212598Y-42835D02*
D03*
X-37402Y21654D02*
D03*
X-216811Y-58071D02*
D03*
X-208661Y-14763D02*
D03*
X-147047Y-24213D02*
D03*
X-142829Y-90433D02*
D03*
X-179134Y-68575D02*
D03*
X98425Y-1181D02*
D03*
X110236Y10773D02*
D03*
X-33465Y-44985D02*
D03*
X-53150Y-45807D02*
D03*
X-60039Y-90551D02*
D03*
X-75787Y-36417D02*
D03*
X-76772Y-68898D02*
D03*
X-130906Y-35433D02*
D03*
X-177165Y-36417D02*
D03*
X-163386Y-54134D02*
D03*
X-162402Y-49213D02*
D03*
X-160887Y-56590D02*
D03*
X-155512Y-56221D02*
D03*
X-137795Y-29528D02*
D03*
X-111221Y-36417D02*
D03*
X-50197Y78740D02*
D03*
X-154528Y-12795D02*
D03*
X-151453Y-52165D02*
D03*
X-159449Y-39370D02*
D03*
X-161417Y-16732D02*
D03*
X-84646Y-77756D02*
D03*
X-73622Y75524D02*
D03*
X-114173Y-45807D02*
D03*
X-102362Y-35433D02*
D03*
X-154528Y3937D02*
D03*
X-134843D02*
D03*
X-186024Y-43307D02*
D03*
X-89567Y-96457D02*
D03*
X-157480Y-53150D02*
D03*
X-86614Y-93504D02*
D03*
X-89567Y-90746D02*
D03*
Y-87598D02*
D03*
X-182087Y-35433D02*
D03*
X-78740Y-106299D02*
D03*
X-63895D02*
D03*
X-29528Y-60039D02*
D03*
X-39370D02*
D03*
X-54134Y-23622D02*
D03*
X-46565Y-15354D02*
D03*
X-28721Y-40354D02*
D03*
X-94488Y92020D02*
D03*
X-74803Y10630D02*
D03*
X-58571Y19685D02*
D03*
X-74803Y28740D02*
D03*
X-32874Y103347D02*
D03*
X-54724Y73032D02*
D03*
X-60236D02*
D03*
X-63976Y103347D02*
D03*
X86614Y102363D02*
D03*
X124521D02*
D03*
D43*
X-190945Y53150D02*
D03*
Y57087D02*
D03*
X-166733Y114173D02*
D03*
Y110236D02*
D03*
X-154922D02*
D03*
Y114173D02*
D03*
X-178150Y-93223D02*
D03*
Y-88020D02*
D03*
M02*
