G04*
G04 #@! TF.GenerationSoftware,Altium Limited,Altium Designer,18.1.9 (240)*
G04*
G04 Layer_Physical_Order=1*
G04 Layer_Color=255*
%FSLAX25Y25*%
%MOIN*%
G70*
G01*
G75*
%ADD12C,0.01000*%
%ADD13C,0.00197*%
%ADD14C,0.00394*%
%ADD15C,0.00500*%
%ADD16R,0.07677X0.04016*%
%ADD17R,0.04331X0.04331*%
%ADD18R,0.04331X0.04331*%
%ADD19R,0.03543X0.03937*%
%ADD20O,0.07677X0.01181*%
%ADD30C,0.06102*%
%ADD31R,0.06102X0.06102*%
%ADD32R,0.06102X0.06102*%
%ADD33C,0.05000*%
G36*
X124409Y598D02*
X7154D01*
X7057Y800D01*
X7019Y1098D01*
X7589Y1536D01*
X7966Y2028D01*
X29921D01*
X29921Y2028D01*
X30351Y2113D01*
X30714Y2357D01*
X31104Y2747D01*
X34655D01*
Y8277D01*
X32933D01*
Y9394D01*
X38724D01*
X38724Y9394D01*
X38724Y9394D01*
X48543D01*
X48693Y9424D01*
X51791D01*
X52256Y9516D01*
X52650Y9780D01*
X52913Y10173D01*
X53005Y10638D01*
X52936Y10985D01*
X53213Y11485D01*
X54252D01*
X58258Y7479D01*
Y3534D01*
X63789D01*
Y7479D01*
X64883Y8572D01*
X65345Y8381D01*
Y3534D01*
X70876D01*
Y9065D01*
X69232D01*
Y11408D01*
X70876D01*
Y13052D01*
X75187D01*
Y11014D01*
X80718D01*
Y16545D01*
X75187D01*
Y15295D01*
X70876D01*
Y16939D01*
X66148D01*
X65689Y17082D01*
Y42520D01*
X65603Y42949D01*
X65360Y43313D01*
X65360Y43313D01*
X60010Y48662D01*
X60202Y49124D01*
X60266D01*
Y54340D01*
X51389D01*
Y49124D01*
X54464D01*
X54562Y48979D01*
X54926Y48735D01*
X55355Y48650D01*
X55784Y48735D01*
X56148Y48979D01*
X56658Y48842D01*
X63445Y42055D01*
Y17082D01*
X63445Y17082D01*
X62986Y16939D01*
X58258D01*
Y15696D01*
X57027D01*
Y29124D01*
X60266D01*
Y34340D01*
X51389D01*
Y29124D01*
X54464D01*
X54562Y28979D01*
X54784Y28756D01*
Y15696D01*
X53213D01*
X52936Y16196D01*
X53005Y16543D01*
X52913Y17008D01*
X52756Y17243D01*
X52938Y17365D01*
X53290Y17891D01*
X53314Y18012D01*
X48543D01*
X43773D01*
X43797Y17891D01*
X44103Y17433D01*
X43959Y17336D01*
X43959Y17336D01*
X38260Y11637D01*
X36445D01*
X36178Y12137D01*
X36180Y12142D01*
X36273Y12606D01*
X36180Y13071D01*
X36079Y13223D01*
X35959Y13591D01*
X36079Y13958D01*
X36180Y14110D01*
X36273Y14575D01*
X36180Y15039D01*
X36079Y15191D01*
X35959Y15559D01*
X36079Y15927D01*
X36180Y16079D01*
X36273Y16543D01*
X36180Y17008D01*
X35917Y17402D01*
Y17653D01*
X36180Y18047D01*
X36273Y18512D01*
X36204Y18859D01*
X36481Y19359D01*
X36732D01*
X36732Y19359D01*
X37161Y19444D01*
X37525Y19687D01*
X38313Y20475D01*
X38313Y20475D01*
X38556Y20839D01*
X38641Y21268D01*
Y24488D01*
X39105Y24743D01*
X39141Y24738D01*
X39364Y24404D01*
X42112Y21656D01*
X42112Y21656D01*
X42476Y21413D01*
X42906Y21327D01*
X42906Y21327D01*
X43393D01*
X43635Y20980D01*
X48543D01*
X53314D01*
X53290Y21101D01*
X52938Y21627D01*
X52756Y21749D01*
X52913Y21984D01*
X53005Y22449D01*
X52913Y22913D01*
X52650Y23307D01*
Y23559D01*
X52913Y23953D01*
X53005Y24417D01*
X52913Y24882D01*
X52650Y25276D01*
X52256Y25539D01*
X51791Y25631D01*
X48916D01*
X46270Y28277D01*
X46461Y28739D01*
X47175D01*
Y34269D01*
X41644D01*
X41279Y34595D01*
Y35499D01*
X41644Y35825D01*
X47175D01*
Y41356D01*
X41644D01*
Y40446D01*
X41182Y40254D01*
X39694Y41742D01*
Y45687D01*
X34164D01*
Y40156D01*
X38108D01*
X39674Y38591D01*
X39364Y38281D01*
X39121Y37917D01*
X39036Y37488D01*
X39036Y37488D01*
Y34044D01*
X38573Y33788D01*
X38536Y33794D01*
X38313Y34128D01*
X38313Y34128D01*
X37824Y34616D01*
Y37970D01*
X33081D01*
Y32833D01*
X36398D01*
Y25456D01*
X36012Y25311D01*
X35898Y25289D01*
X35524Y25539D01*
X35059Y25631D01*
X32183D01*
X30999Y26816D01*
X31043Y27479D01*
X31345Y27710D01*
X31842Y28358D01*
X32154Y29112D01*
X32261Y29921D01*
X32154Y30731D01*
X31842Y31485D01*
X31345Y32132D01*
X31083Y32333D01*
X31253Y32833D01*
X31525D01*
Y37970D01*
X26782D01*
Y32833D01*
X27015D01*
X27185Y32333D01*
X26923Y32132D01*
X26543Y31637D01*
X26043Y31807D01*
Y41346D01*
X26043Y41346D01*
X25957Y41776D01*
X25714Y42140D01*
X20106Y47748D01*
X20093Y47851D01*
X19725Y48739D01*
X19139Y49502D01*
X18377Y50087D01*
X17489Y50455D01*
X16535Y50580D01*
X15582Y50455D01*
X14694Y50087D01*
X13931Y49502D01*
X13346Y48739D01*
X12978Y47851D01*
X12853Y46898D01*
X12978Y45944D01*
X13346Y45056D01*
X13931Y44294D01*
X14694Y43708D01*
X15582Y43340D01*
X16535Y43215D01*
X17489Y43340D01*
X18377Y43708D01*
X19139Y44294D01*
X19451Y44699D01*
X19950Y44732D01*
X23800Y40882D01*
Y32182D01*
X23300Y31975D01*
X19870Y35406D01*
X20093Y35945D01*
X20218Y36898D01*
X20093Y37851D01*
X19725Y38739D01*
X19139Y39502D01*
X18377Y40087D01*
X17489Y40455D01*
X16535Y40580D01*
X15582Y40455D01*
X14694Y40087D01*
X13931Y39502D01*
X13346Y38739D01*
X12978Y37851D01*
X12853Y36898D01*
X12978Y35945D01*
X13346Y35056D01*
X13931Y34294D01*
X14694Y33708D01*
X15582Y33340D01*
X16535Y33215D01*
X17489Y33340D01*
X18377Y33708D01*
X18387Y33716D01*
X21800Y30303D01*
Y23782D01*
X21300Y23574D01*
X19752Y25122D01*
X20093Y25945D01*
X20218Y26898D01*
X20093Y27851D01*
X19725Y28739D01*
X19139Y29502D01*
X18377Y30087D01*
X17489Y30455D01*
X16535Y30580D01*
X15582Y30455D01*
X14694Y30087D01*
X13931Y29502D01*
X13346Y28739D01*
X12978Y27851D01*
X12853Y26898D01*
X12978Y25945D01*
X13346Y25056D01*
X13931Y24294D01*
X14694Y23708D01*
X15582Y23340D01*
X16535Y23215D01*
X17489Y23340D01*
X18106Y23596D01*
X22553Y19149D01*
X22346Y18649D01*
X19762D01*
X19725Y18739D01*
X19139Y19502D01*
X18377Y20087D01*
X17489Y20455D01*
X16535Y20580D01*
X15582Y20455D01*
X14694Y20087D01*
X13931Y19502D01*
X13346Y18739D01*
X13157Y18282D01*
X12657Y18382D01*
Y21898D01*
X12657Y21898D01*
X12572Y22327D01*
X12329Y22691D01*
X12329Y22691D01*
X9794Y25225D01*
X10093Y25945D01*
X10218Y26898D01*
X10093Y27851D01*
X9725Y28739D01*
X9139Y29502D01*
X8377Y30087D01*
X7489Y30455D01*
X6535Y30580D01*
X5582Y30455D01*
X4694Y30087D01*
X3931Y29502D01*
X3346Y28739D01*
X2978Y27851D01*
X2853Y26898D01*
X2978Y25945D01*
X3346Y25056D01*
X3931Y24294D01*
X4694Y23708D01*
X5582Y23340D01*
X6535Y23215D01*
X7489Y23340D01*
X8208Y23639D01*
X10414Y21433D01*
Y18382D01*
X9914Y18282D01*
X9725Y18739D01*
X9139Y19502D01*
X8377Y20087D01*
X7489Y20455D01*
X6535Y20580D01*
X5582Y20455D01*
X4694Y20087D01*
X3931Y19502D01*
X3346Y18739D01*
X2978Y17851D01*
X2853Y16898D01*
X2978Y15945D01*
X3346Y15056D01*
X3931Y14294D01*
X4256Y14044D01*
Y6638D01*
X3814Y6455D01*
X3167Y5958D01*
X2670Y5310D01*
X2358Y4556D01*
X2251Y3747D01*
X2358Y2937D01*
X2670Y2183D01*
X3167Y1536D01*
X3737Y1098D01*
X3699Y800D01*
X3602Y598D01*
X512D01*
Y60630D01*
X124409D01*
Y598D01*
D02*
G37*
G36*
X27082Y13290D02*
X27393Y12827D01*
X27349Y12606D01*
X27441Y12142D01*
X27543Y11990D01*
X27663Y11622D01*
X27543Y11254D01*
X27441Y11102D01*
X27349Y10638D01*
X27441Y10173D01*
X27705Y9780D01*
X28098Y9516D01*
X28563Y9424D01*
X30689D01*
Y8277D01*
X29124D01*
Y4271D01*
X26309D01*
Y9742D01*
X24665D01*
Y12032D01*
X24927Y12207D01*
X26047Y13327D01*
X27022D01*
X27082Y13290D01*
D02*
G37*
G36*
X10420Y15429D02*
X10499Y15032D01*
X10742Y14668D01*
X13857Y11553D01*
X13857Y11553D01*
X14221Y11310D01*
X14650Y11225D01*
X14650Y11225D01*
X18420D01*
X18421Y11225D01*
X18850Y11310D01*
X19214Y11553D01*
X19539Y11878D01*
X22422D01*
Y9742D01*
X20778D01*
Y4271D01*
X19622D01*
Y6476D01*
X16457D01*
Y6976D01*
X15957D01*
Y10142D01*
X13291D01*
X13291Y10142D01*
Y10142D01*
X12925Y10428D01*
X12867Y10504D01*
X12135Y11065D01*
X11284Y11418D01*
X10870Y11472D01*
Y8008D01*
X9870D01*
Y11472D01*
X9457Y11418D01*
X8605Y11065D01*
X7874Y10504D01*
X7313Y9773D01*
X6999Y9016D01*
X6499Y9115D01*
Y13183D01*
X6535Y13215D01*
X7489Y13340D01*
X8377Y13708D01*
X9139Y14294D01*
X9725Y15056D01*
X9888Y15451D01*
X10376Y15457D01*
X10420Y15429D01*
D02*
G37*
%LPC*%
G36*
X47575Y56315D02*
X44909D01*
Y53650D01*
X47575D01*
Y56315D01*
D02*
G37*
G36*
X43909D02*
X41244D01*
Y53650D01*
X43909D01*
Y56315D01*
D02*
G37*
G36*
X47575Y52650D02*
X44909D01*
Y49984D01*
X47575D01*
Y52650D01*
D02*
G37*
G36*
X43909D02*
X41244D01*
Y49984D01*
X43909D01*
Y52650D01*
D02*
G37*
G36*
X10587Y50949D02*
X7035D01*
Y47398D01*
X10587D01*
Y50949D01*
D02*
G37*
G36*
X6035D02*
X2484D01*
Y47398D01*
X6035D01*
Y50949D01*
D02*
G37*
G36*
X33008Y46087D02*
X30343D01*
Y43421D01*
X33008D01*
Y46087D01*
D02*
G37*
G36*
X29342D02*
X26677D01*
Y43421D01*
X29342D01*
Y46087D01*
D02*
G37*
G36*
X10587Y46398D02*
X7035D01*
Y42846D01*
X10587D01*
Y46398D01*
D02*
G37*
G36*
X6035D02*
X2484D01*
Y42846D01*
X6035D01*
Y46398D01*
D02*
G37*
G36*
X33008Y42421D02*
X30343D01*
Y39756D01*
X33008D01*
Y42421D01*
D02*
G37*
G36*
X29342D02*
X26677D01*
Y39756D01*
X29342D01*
Y42421D01*
D02*
G37*
G36*
X121840Y54340D02*
X112963D01*
Y49124D01*
X114042D01*
X114233Y48662D01*
X91057Y25486D01*
X90814Y25122D01*
X90729Y24693D01*
X90729Y24693D01*
Y13100D01*
X88199D01*
Y5798D01*
X95502D01*
Y13100D01*
X92972D01*
Y24229D01*
X112501Y43758D01*
X112963Y43566D01*
Y39124D01*
X121840D01*
Y44340D01*
X113737D01*
X113545Y44802D01*
X117722Y48979D01*
X117819Y49124D01*
X121840D01*
Y54340D01*
D02*
G37*
G36*
X47175Y48828D02*
X41644D01*
Y43298D01*
X47175D01*
Y44941D01*
X50323D01*
X51389Y43876D01*
Y39124D01*
X54464D01*
X54562Y38979D01*
X54926Y38735D01*
X55355Y38650D01*
X55784Y38735D01*
X56148Y38979D01*
X56245Y39124D01*
X60266D01*
Y44340D01*
X54096D01*
X51581Y46856D01*
X51217Y47099D01*
X50787Y47185D01*
X50787Y47185D01*
X47175D01*
Y48828D01*
D02*
G37*
G36*
X7035Y40918D02*
Y37398D01*
X10556D01*
X10482Y37955D01*
X10074Y38941D01*
X9425Y39787D01*
X8579Y40436D01*
X7593Y40845D01*
X7035Y40918D01*
D02*
G37*
G36*
X6035D02*
X5478Y40845D01*
X4492Y40436D01*
X3646Y39787D01*
X2997Y38941D01*
X2589Y37955D01*
X2515Y37398D01*
X6035D01*
Y40918D01*
D02*
G37*
G36*
X10556Y36398D02*
X7035D01*
Y32877D01*
X7593Y32951D01*
X8579Y33359D01*
X9425Y34008D01*
X10074Y34855D01*
X10482Y35840D01*
X10556Y36398D01*
D02*
G37*
G36*
X6035D02*
X2515D01*
X2589Y35840D01*
X2997Y34855D01*
X3646Y34008D01*
X4492Y33359D01*
X5478Y32951D01*
X6035Y32877D01*
Y36398D01*
D02*
G37*
G36*
X53314Y19980D02*
X48543D01*
X43773D01*
X43797Y19860D01*
X44040Y19496D01*
X43797Y19132D01*
X43773Y19012D01*
X48543D01*
X53314D01*
X53290Y19132D01*
X53047Y19496D01*
X53290Y19860D01*
X53314Y19980D01*
D02*
G37*
G36*
X81118Y9858D02*
X78453D01*
Y7193D01*
X81118D01*
Y9858D01*
D02*
G37*
G36*
X77453D02*
X74787D01*
Y7193D01*
X77453D01*
Y9858D01*
D02*
G37*
G36*
X42142Y8677D02*
X39476D01*
Y6012D01*
X42142D01*
Y8677D01*
D02*
G37*
G36*
X38476D02*
X35811D01*
Y6012D01*
X38476D01*
Y8677D01*
D02*
G37*
G36*
X121840Y34340D02*
X112963D01*
Y29124D01*
X114042D01*
X114233Y28662D01*
X101057Y15486D01*
X100814Y15123D01*
X100729Y14693D01*
X100729Y14693D01*
Y12936D01*
X100009Y12638D01*
X99246Y12053D01*
X98661Y11290D01*
X98293Y10402D01*
X98168Y9449D01*
X98293Y8496D01*
X98661Y7608D01*
X99246Y6845D01*
X100009Y6260D01*
X100897Y5892D01*
X101850Y5766D01*
X102804Y5892D01*
X103692Y6260D01*
X104454Y6845D01*
X105040Y7608D01*
X105408Y8496D01*
X105533Y9449D01*
X105408Y10402D01*
X105040Y11290D01*
X104454Y12053D01*
X103692Y12638D01*
X102972Y12936D01*
Y14229D01*
X117722Y28979D01*
X117819Y29124D01*
X121840D01*
Y34340D01*
D02*
G37*
G36*
X81118Y6193D02*
X78453D01*
Y3528D01*
X81118D01*
Y6193D01*
D02*
G37*
G36*
X77453D02*
X74787D01*
Y3528D01*
X77453D01*
Y6193D01*
D02*
G37*
G36*
X42142Y5012D02*
X39476D01*
Y2347D01*
X42142D01*
Y5012D01*
D02*
G37*
G36*
X38476D02*
X35811D01*
Y2347D01*
X38476D01*
Y5012D01*
D02*
G37*
G36*
X19622Y10142D02*
X16957D01*
Y7476D01*
X19622D01*
Y10142D01*
D02*
G37*
%LPD*%
D12*
X15425Y8008D02*
X16457Y6976D01*
X10370Y8008D02*
X15425D01*
X11535Y15461D02*
Y21898D01*
Y15461D02*
X14650Y12347D01*
X6535Y26898D02*
X11535Y21898D01*
X38724Y10516D02*
X48543D01*
X29154Y27075D02*
Y35402D01*
X31811Y10516D02*
X38724D01*
X31811Y5039D02*
Y10516D01*
X5378Y3150D02*
X29921D01*
X5378Y3747D02*
Y15740D01*
Y3150D02*
Y3747D01*
Y15740D02*
X6535Y16898D01*
X38724Y10516D02*
X44752Y16543D01*
X48543D01*
X31811Y10516D02*
Y10638D01*
X29921Y3150D02*
X31811Y5039D01*
X55355Y29772D02*
X55905Y29221D01*
Y14575D02*
Y29221D01*
X55355Y39772D02*
Y41496D01*
X50787Y46063D02*
X55355Y41496D01*
X44409Y46063D02*
X50787D01*
X55355Y49772D02*
Y51732D01*
X64567Y42520D01*
Y17082D02*
Y42520D01*
X101850Y14693D02*
X116929Y29772D01*
X101850Y11024D02*
Y14693D01*
X91850Y11024D02*
Y24693D01*
X116929Y49772D01*
X64567Y17082D02*
X64567Y17082D01*
X64567Y9843D02*
Y17082D01*
X61024Y6299D02*
X64567Y9843D01*
X77559Y14173D02*
X77953Y13780D01*
X68110Y14173D02*
X77559D01*
X68110Y6299D02*
Y14173D01*
X48543Y14575D02*
X55905D01*
X54716Y12606D02*
X61024Y6299D01*
X48543Y12606D02*
X54716D01*
X55905Y14575D02*
X60622D01*
X61024Y14173D01*
X42906Y22449D02*
X48543D01*
X40157Y25197D02*
X42906Y22449D01*
X40157Y25197D02*
Y37488D01*
X41260Y38591D01*
X36929Y42921D02*
X41260Y38591D01*
X44409D01*
Y28551D02*
Y31504D01*
Y28551D02*
X48543Y24417D01*
X29154Y27075D02*
X31811Y24417D01*
X23150Y13000D02*
X24134D01*
X19074D02*
X23150D01*
X23543Y12606D01*
Y6976D02*
Y12606D01*
X27441Y14449D02*
X27567Y14575D01*
X31811D01*
X25583Y14449D02*
X27441D01*
X27346Y16449D02*
X27441Y16543D01*
X24011Y16449D02*
X27346D01*
Y18512D02*
X31811D01*
X27283Y18449D02*
X27346Y18512D01*
X24839Y18449D02*
X27283D01*
X27441Y16543D02*
X31811D01*
X24134Y13000D02*
X25583Y14449D01*
X18421Y12347D02*
X19074Y13000D01*
X14650Y12347D02*
X18421D01*
X16161Y27127D02*
X24839Y18449D01*
X26496Y22449D02*
X31811D01*
X24921Y24024D02*
X26496Y22449D01*
X26528Y20480D02*
X31811D01*
X26496Y20449D02*
X26528Y20480D01*
X25668Y20449D02*
X26496D01*
X22921Y23195D02*
X25668Y20449D01*
X22921Y23195D02*
Y30768D01*
X22932Y17528D02*
X24011Y16449D01*
X16161Y17528D02*
X22932D01*
X31811Y10638D02*
Y12484D01*
X16161Y27127D02*
Y27528D01*
Y37528D02*
X22921Y30768D01*
X24921Y24024D02*
Y41346D01*
X35453Y35402D02*
X37520Y33335D01*
Y21268D02*
Y33335D01*
X36732Y20480D02*
X37520Y21268D01*
X31811Y20480D02*
X36732D01*
X18740Y47528D02*
X24921Y41346D01*
X16161Y47528D02*
X18740D01*
X124500Y55500D02*
X124350Y56519D01*
X124005Y57490D01*
X123476Y58375D01*
X122785Y59139D01*
X121959Y59754D01*
X121028Y60196D01*
X120029Y60448D01*
X119000Y60500D01*
X119500Y-0D02*
X120475Y96D01*
X121413Y381D01*
X122278Y843D01*
X123036Y1464D01*
X123657Y2222D01*
X124119Y3087D01*
X124404Y4025D01*
X124500Y5000D01*
X-0Y5000D02*
X96Y4025D01*
X381Y3087D01*
X843Y2222D01*
X1464Y1464D01*
X2222Y843D01*
X3087Y381D01*
X4025Y96D01*
X5000Y0D01*
Y60500D02*
X4025Y60404D01*
X3087Y60119D01*
X2222Y59657D01*
X1464Y59035D01*
X843Y58278D01*
X381Y57413D01*
X96Y56476D01*
X0Y55500D01*
X124500Y5000D02*
Y55500D01*
X5000Y0D02*
X119500D01*
X0Y5000D02*
Y55500D01*
X5000Y60500D02*
X119000D01*
D13*
X60000Y61000D02*
X60500Y60500D01*
X124500D01*
X42539Y35047D02*
X46279D01*
X44409Y33177D02*
Y36917D01*
X48543Y27370D02*
Y42724D01*
X40276Y27370D02*
Y42724D01*
X48543D01*
X40276Y27370D02*
X48543D01*
X86457Y4055D02*
Y14842D01*
X107744D01*
X86457Y4055D02*
X107744D01*
Y14842D01*
X73819Y17913D02*
X82087D01*
X73819Y2559D02*
X82087D01*
Y17913D01*
X73819Y2559D02*
Y17913D01*
X77953Y8366D02*
Y12106D01*
X76083Y10236D02*
X79823D01*
X64567Y4429D02*
Y8169D01*
X62697Y6299D02*
X66437D01*
X56890Y2165D02*
X72244D01*
X56890Y10433D02*
X72244D01*
Y2165D02*
Y10433D01*
X56890Y2165D02*
Y10433D01*
X64567Y12303D02*
Y16043D01*
X62697Y14173D02*
X66437D01*
X56890Y10039D02*
X72244D01*
X56890Y18307D02*
X72244D01*
Y10039D02*
Y18307D01*
X56890Y10039D02*
Y18307D01*
X40276Y57284D02*
X48543D01*
X40276Y41929D02*
X48543D01*
Y57284D01*
X40276Y41929D02*
Y57284D01*
X44409Y47736D02*
Y51476D01*
X42539Y49606D02*
X46279D01*
X1142Y11504D02*
X21929D01*
X1142D02*
Y52291D01*
X21929Y11504D02*
Y52291D01*
X1142D02*
X21929D01*
X33386Y41051D02*
Y44791D01*
X31516Y42921D02*
X35256D01*
X25709Y47055D02*
X41063D01*
X25709Y38787D02*
X41063D01*
X25709D02*
Y47055D01*
X41063Y38787D02*
Y47055D01*
X32303Y33531D02*
Y37272D01*
X30433Y35402D02*
X34173D01*
X26398Y32449D02*
X38209D01*
X26398Y38354D02*
X38209D01*
Y32449D02*
Y38354D01*
X26398Y32449D02*
Y38354D01*
X12323Y2843D02*
Y11110D01*
X27677Y2843D02*
Y11110D01*
X12323D02*
X27677D01*
X12323Y2843D02*
X27677D01*
X18130Y6976D02*
X21870D01*
X20000Y5106D02*
Y8846D01*
X43110Y1378D02*
Y9646D01*
X27756Y1378D02*
Y9646D01*
Y1378D02*
X43110D01*
X27756Y9646D02*
X43110D01*
X33563Y5512D02*
X37303D01*
X35433Y3642D02*
Y7382D01*
X26102Y7291D02*
Y27764D01*
X54252Y7291D02*
Y27764D01*
X26102D02*
X54252D01*
X26102Y7291D02*
X54252D01*
D14*
X39587Y22055D02*
X39323Y23039D01*
X38602Y23760D01*
X37618Y24024D01*
X36634Y23760D01*
X35913Y23039D01*
X35650Y22055D01*
X35913Y21071D01*
X36634Y20350D01*
X37618Y20087D01*
X38602Y20350D01*
X39323Y21071D01*
X39587Y22055D01*
X46279Y31701D02*
Y38394D01*
X42539Y31701D02*
Y38394D01*
X46279D01*
X42539Y31701D02*
X46279D01*
X106850Y4449D02*
Y14449D01*
X86850Y4449D02*
X106850D01*
X86850D02*
Y14449D01*
X106850D01*
X76083Y13681D02*
X79823D01*
X76083Y6791D02*
X79823D01*
Y13681D01*
X76083Y6791D02*
Y13681D01*
X61221Y4429D02*
X67913D01*
X61221Y8169D02*
X67913D01*
Y4429D02*
Y8169D01*
X61221Y4429D02*
Y8169D01*
Y12303D02*
X67913D01*
X61221Y16043D02*
X67913D01*
Y12303D02*
Y16043D01*
X61221Y12303D02*
Y16043D01*
X42539Y53051D02*
X46279D01*
X42539Y46161D02*
X46279D01*
Y53051D01*
X42539Y46161D02*
Y53051D01*
X1535Y11898D02*
X21535D01*
X1535D02*
Y51898D01*
X21535Y11898D02*
Y51898D01*
X1535D02*
X21535D01*
X30039Y44791D02*
X36732D01*
X30039Y41051D02*
X36732D01*
X30039D02*
Y44791D01*
X36732Y41051D02*
Y44791D01*
X28957Y33531D02*
X35650D01*
X28957Y37272D02*
X35650D01*
Y33531D02*
Y37272D01*
X28957Y33531D02*
Y37272D01*
X16555Y5106D02*
Y8846D01*
X23445Y5106D02*
Y8846D01*
X16555D02*
X23445D01*
X16555Y5106D02*
X23445D01*
X38878Y3642D02*
Y7382D01*
X31988Y3642D02*
Y7382D01*
Y3642D02*
X38878D01*
X31988Y7382D02*
X38878D01*
X34075Y9457D02*
Y25598D01*
X46279Y9457D02*
Y25598D01*
X34075D02*
X46279D01*
X34075Y9457D02*
X46279D01*
X96850Y7480D02*
Y11417D01*
X94882Y9449D02*
X98819D01*
X9567Y31898D02*
X13504D01*
X11535Y29929D02*
Y33866D01*
X38209Y17528D02*
X42146D01*
X40177Y15559D02*
Y19496D01*
D15*
X112205Y29921D02*
X111941Y30906D01*
X111221Y31626D01*
X110236Y31890D01*
X109252Y31626D01*
X108531Y30906D01*
X108267Y29921D01*
X108531Y28937D01*
X109252Y28216D01*
X110236Y27952D01*
X111221Y28216D01*
X111941Y28937D01*
X112205Y29921D01*
X59055Y25984D02*
Y57480D01*
X114173D01*
Y25984D02*
Y57480D01*
X59055Y25984D02*
X114173D01*
D16*
X55827Y41732D02*
D03*
Y51732D02*
D03*
Y31732D02*
D03*
X117401D02*
D03*
Y41732D02*
D03*
Y51732D02*
D03*
D17*
X44409Y38591D02*
D03*
Y31504D02*
D03*
X77953Y13780D02*
D03*
Y6693D02*
D03*
X44409Y53150D02*
D03*
Y46063D02*
D03*
D18*
X68110Y6299D02*
D03*
X61024D02*
D03*
X68110Y14173D02*
D03*
X61024D02*
D03*
X29842Y42921D02*
D03*
X36929D02*
D03*
X16457Y6976D02*
D03*
X23543D02*
D03*
X38976Y5512D02*
D03*
X31890D02*
D03*
D19*
X35453Y35402D02*
D03*
X29154D02*
D03*
D20*
X31811Y24417D02*
D03*
Y22449D02*
D03*
Y20480D02*
D03*
Y18512D02*
D03*
Y16543D02*
D03*
Y14575D02*
D03*
Y12606D02*
D03*
Y10638D02*
D03*
X48543Y24417D02*
D03*
Y22449D02*
D03*
Y20480D02*
D03*
Y18512D02*
D03*
Y16543D02*
D03*
Y14575D02*
D03*
Y12606D02*
D03*
Y10638D02*
D03*
D30*
X101850Y9449D02*
D03*
X16535Y16898D02*
D03*
X6535D02*
D03*
X16535Y26898D02*
D03*
Y36898D02*
D03*
X6535Y26898D02*
D03*
Y36898D02*
D03*
X16535Y46898D02*
D03*
D31*
X91850Y9449D02*
D03*
D32*
X6535Y46898D02*
D03*
D33*
X10370Y8008D02*
D03*
X5378Y3747D02*
D03*
X29134Y29921D02*
D03*
M02*
