G04*
G04 #@! TF.GenerationSoftware,Altium Limited,Altium Designer,18.1.9 (240)*
G04*
G04 Layer_Color=16711935*
%FSLAX25Y25*%
%MOIN*%
G70*
G01*
G75*
%ADD12C,0.01000*%
%ADD13C,0.00197*%
%ADD14C,0.00394*%
%ADD15C,0.00500*%
D12*
X124500Y55500D02*
X124350Y56519D01*
X124005Y57490D01*
X123476Y58375D01*
X122785Y59139D01*
X121959Y59754D01*
X121028Y60196D01*
X120029Y60448D01*
X119000Y60500D01*
X119500Y-0D02*
X120475Y96D01*
X121413Y381D01*
X122278Y843D01*
X123036Y1464D01*
X123657Y2222D01*
X124119Y3087D01*
X124404Y4025D01*
X124500Y5000D01*
X-0Y5000D02*
X96Y4025D01*
X381Y3087D01*
X843Y2222D01*
X1464Y1464D01*
X2222Y843D01*
X3087Y381D01*
X4025Y96D01*
X5000Y0D01*
Y60500D02*
X4025Y60404D01*
X3087Y60119D01*
X2222Y59657D01*
X1464Y59035D01*
X843Y58278D01*
X381Y57413D01*
X96Y56476D01*
X0Y55500D01*
X124500Y5000D02*
Y55500D01*
X5000Y0D02*
X119500D01*
X0Y5000D02*
Y55500D01*
X5000Y60500D02*
X119000D01*
D13*
X60000Y61000D02*
X60500Y60500D01*
X124500D01*
X42539Y35047D02*
X46279D01*
X44409Y33177D02*
Y36917D01*
X48543Y27370D02*
Y42724D01*
X40276Y27370D02*
Y42724D01*
X48543D01*
X40276Y27370D02*
X48543D01*
X86457Y4055D02*
Y14842D01*
X107744D01*
X86457Y4055D02*
X107744D01*
Y14842D01*
X73819Y17913D02*
X82087D01*
X73819Y2559D02*
X82087D01*
Y17913D01*
X73819Y2559D02*
Y17913D01*
X77953Y8366D02*
Y12106D01*
X76083Y10236D02*
X79823D01*
X64567Y4429D02*
Y8169D01*
X62697Y6299D02*
X66437D01*
X56890Y2165D02*
X72244D01*
X56890Y10433D02*
X72244D01*
Y2165D02*
Y10433D01*
X56890Y2165D02*
Y10433D01*
X64567Y12303D02*
Y16043D01*
X62697Y14173D02*
X66437D01*
X56890Y10039D02*
X72244D01*
X56890Y18307D02*
X72244D01*
Y10039D02*
Y18307D01*
X56890Y10039D02*
Y18307D01*
X40276Y57284D02*
X48543D01*
X40276Y41929D02*
X48543D01*
Y57284D01*
X40276Y41929D02*
Y57284D01*
X44409Y47736D02*
Y51476D01*
X42539Y49606D02*
X46279D01*
X1142Y11504D02*
X21929D01*
X1142D02*
Y52291D01*
X21929Y11504D02*
Y52291D01*
X1142D02*
X21929D01*
X33386Y41051D02*
Y44791D01*
X31516Y42921D02*
X35256D01*
X25709Y47055D02*
X41063D01*
X25709Y38787D02*
X41063D01*
X25709D02*
Y47055D01*
X41063Y38787D02*
Y47055D01*
X32303Y33531D02*
Y37272D01*
X30433Y35402D02*
X34173D01*
X26398Y32449D02*
X38209D01*
X26398Y38354D02*
X38209D01*
Y32449D02*
Y38354D01*
X26398Y32449D02*
Y38354D01*
X12323Y2843D02*
Y11110D01*
X27677Y2843D02*
Y11110D01*
X12323D02*
X27677D01*
X12323Y2843D02*
X27677D01*
X18130Y6976D02*
X21870D01*
X20000Y5106D02*
Y8846D01*
X43110Y1378D02*
Y9646D01*
X27756Y1378D02*
Y9646D01*
Y1378D02*
X43110D01*
X27756Y9646D02*
X43110D01*
X33563Y5512D02*
X37303D01*
X35433Y3642D02*
Y7382D01*
X26102Y7291D02*
Y27764D01*
X54252Y7291D02*
Y27764D01*
X26102D02*
X54252D01*
X26102Y7291D02*
X54252D01*
D14*
X39587Y22055D02*
X39323Y23039D01*
X38602Y23760D01*
X37618Y24024D01*
X36634Y23760D01*
X35913Y23039D01*
X35650Y22055D01*
X35913Y21071D01*
X36634Y20350D01*
X37618Y20087D01*
X38602Y20350D01*
X39323Y21071D01*
X39587Y22055D01*
X46279Y31701D02*
Y38394D01*
X42539Y31701D02*
Y38394D01*
X46279D01*
X42539Y31701D02*
X46279D01*
X106850Y4449D02*
Y14449D01*
X86850Y4449D02*
X106850D01*
X86850D02*
Y14449D01*
X106850D01*
X76083Y13681D02*
X79823D01*
X76083Y6791D02*
X79823D01*
Y13681D01*
X76083Y6791D02*
Y13681D01*
X61221Y4429D02*
X67913D01*
X61221Y8169D02*
X67913D01*
Y4429D02*
Y8169D01*
X61221Y4429D02*
Y8169D01*
Y12303D02*
X67913D01*
X61221Y16043D02*
X67913D01*
Y12303D02*
Y16043D01*
X61221Y12303D02*
Y16043D01*
X42539Y53051D02*
X46279D01*
X42539Y46161D02*
X46279D01*
Y53051D01*
X42539Y46161D02*
Y53051D01*
X1535Y11898D02*
X21535D01*
X1535D02*
Y51898D01*
X21535Y11898D02*
Y51898D01*
X1535D02*
X21535D01*
X30039Y44791D02*
X36732D01*
X30039Y41051D02*
X36732D01*
X30039D02*
Y44791D01*
X36732Y41051D02*
Y44791D01*
X28957Y33531D02*
X35650D01*
X28957Y37272D02*
X35650D01*
Y33531D02*
Y37272D01*
X28957Y33531D02*
Y37272D01*
X16555Y5106D02*
Y8846D01*
X23445Y5106D02*
Y8846D01*
X16555D02*
X23445D01*
X16555Y5106D02*
X23445D01*
X38878Y3642D02*
Y7382D01*
X31988Y3642D02*
Y7382D01*
Y3642D02*
X38878D01*
X31988Y7382D02*
X38878D01*
X34075Y9457D02*
Y25598D01*
X46279Y9457D02*
Y25598D01*
X34075D02*
X46279D01*
X34075Y9457D02*
X46279D01*
X96850Y7480D02*
Y11417D01*
X94882Y9449D02*
X98819D01*
X9567Y31898D02*
X13504D01*
X11535Y29929D02*
Y33866D01*
X38209Y17528D02*
X42146D01*
X40177Y15559D02*
Y19496D01*
D15*
X112205Y29921D02*
X111941Y30906D01*
X111221Y31626D01*
X110236Y31890D01*
X109252Y31626D01*
X108531Y30906D01*
X108267Y29921D01*
X108531Y28937D01*
X109252Y28216D01*
X110236Y27952D01*
X111221Y28216D01*
X111941Y28937D01*
X112205Y29921D01*
X59055Y25984D02*
Y57480D01*
X114173D01*
Y25984D02*
Y57480D01*
X59055Y25984D02*
X114173D01*
M02*
