G04*
G04 #@! TF.GenerationSoftware,Altium Limited,Altium Designer,19.0.14 (431)*
G04*
G04 Layer_Physical_Order=2*
G04 Layer_Color=16711680*
%FSLAX25Y25*%
%MOIN*%
G70*
G01*
G75*
%ADD12C,0.01000*%
%ADD80C,0.03543*%
%ADD81C,0.04724*%
%ADD82C,0.18307*%
%ADD83C,0.03543*%
%ADD84C,0.05906*%
%ADD85C,0.03937*%
%ADD86C,0.02362*%
G36*
X238348Y429878D02*
X229090Y420622D01*
X219471D01*
X219422Y421122D01*
X219837Y421204D01*
X220426Y421598D01*
X220534Y421760D01*
X228079D01*
X228079Y421760D01*
X228508Y421846D01*
X228872Y422089D01*
X237161Y430378D01*
X238140D01*
X238348Y429878D01*
D02*
G37*
G36*
X430000Y41500D02*
X44500D01*
Y171000D01*
X43000Y172500D01*
X43500Y173000D01*
X126500D01*
Y187323D01*
X146177D01*
X182849Y150652D01*
X182849Y150652D01*
X183212Y150409D01*
X183642Y150323D01*
X252749D01*
X252858Y150161D01*
X253447Y149767D01*
X254142Y149629D01*
X254837Y149767D01*
X255426Y150161D01*
X255820Y150750D01*
X255958Y151445D01*
X255820Y152140D01*
X255426Y152729D01*
X254837Y153123D01*
X254142Y153261D01*
X253447Y153123D01*
X252858Y152729D01*
X252749Y152566D01*
X184106D01*
X147435Y189238D01*
X147071Y189481D01*
X146642Y189566D01*
X146642Y189566D01*
X126500D01*
Y222500D01*
X125500Y223500D01*
X126500Y224500D01*
X91673D01*
Y234828D01*
X91835Y234936D01*
X92229Y235525D01*
X92367Y236221D01*
X92229Y236915D01*
X91835Y237505D01*
X91246Y237898D01*
X90551Y238036D01*
X89856Y237898D01*
X89267Y237505D01*
X88873Y236915D01*
X88735Y236221D01*
X88873Y235525D01*
X89267Y234936D01*
X89430Y234828D01*
Y224500D01*
X83000D01*
X81000Y226500D01*
Y237642D01*
X74142Y244500D01*
X43000D01*
Y432058D01*
X235015D01*
X235207Y431596D01*
X227614Y424003D01*
X220534D01*
X220426Y424166D01*
X219837Y424560D01*
X219142Y424698D01*
X218447Y424560D01*
X217858Y424166D01*
X217749Y424003D01*
X205079D01*
X205079Y424003D01*
X204649Y423918D01*
X204286Y423675D01*
X198336Y417725D01*
X197642Y417863D01*
X196948Y417725D01*
X192935Y421738D01*
X192571Y421981D01*
X192142Y422066D01*
X192142Y422066D01*
X156142D01*
X156142Y422066D01*
X155712Y421981D01*
X155349Y421738D01*
X155349Y421738D01*
X149209Y415598D01*
X148703Y415629D01*
X148352Y416155D01*
X147567Y416679D01*
X146642Y416863D01*
X145716Y416679D01*
X144932Y416155D01*
X144408Y415370D01*
X144224Y414445D01*
X144408Y413520D01*
X144932Y412735D01*
X145716Y412211D01*
X146642Y412027D01*
X147567Y412211D01*
X148352Y412735D01*
X148744Y413323D01*
X149642D01*
X149642Y413323D01*
X150071Y413409D01*
X150435Y413652D01*
X156606Y419823D01*
X178968D01*
X179068Y419323D01*
X178850Y419233D01*
X178108Y418664D01*
X177538Y417922D01*
X177180Y417057D01*
X177058Y416130D01*
X177180Y415203D01*
X177538Y414338D01*
X178108Y413596D01*
X178850Y413027D01*
X179714Y412669D01*
X180642Y412546D01*
X181569Y412669D01*
X182433Y413027D01*
X183176Y413596D01*
X183745Y414338D01*
X184103Y415203D01*
X184225Y416130D01*
X184103Y417057D01*
X183745Y417922D01*
X183176Y418664D01*
X182433Y419233D01*
X182216Y419323D01*
X182315Y419823D01*
X191677D01*
X195362Y416139D01*
X195224Y415445D01*
X195408Y414520D01*
X195932Y413735D01*
X196716Y413211D01*
X197642Y413027D01*
X198567Y413211D01*
X199352Y413735D01*
X199876Y414520D01*
X200060Y415445D01*
X199922Y416139D01*
X205543Y421760D01*
X217749D01*
X217858Y421598D01*
X218447Y421204D01*
X218862Y421122D01*
X218813Y420622D01*
X212579D01*
X212150Y420536D01*
X211786Y420293D01*
X211786Y420293D01*
X201614Y410122D01*
X179500D01*
X179500Y410122D01*
X179071Y410036D01*
X178707Y409793D01*
X178707Y409793D01*
X169535Y400622D01*
X154000D01*
X154000Y400622D01*
X153571Y400536D01*
X153207Y400293D01*
X150207Y397293D01*
X149964Y396929D01*
X149878Y396500D01*
X149878Y396500D01*
Y391965D01*
X148535Y390621D01*
X145000D01*
X144571Y390536D01*
X144207Y390293D01*
X144207Y390293D01*
X144192Y390278D01*
X144000Y390316D01*
X143305Y390178D01*
X142716Y389784D01*
X142322Y389195D01*
X142184Y388500D01*
X142322Y387805D01*
X142716Y387216D01*
X143305Y386822D01*
X144000Y386684D01*
X144695Y386822D01*
X145284Y387216D01*
X145678Y387805D01*
X145792Y388379D01*
X149000D01*
X149000Y388378D01*
X149429Y388464D01*
X149793Y388707D01*
X151793Y390707D01*
X151793Y390707D01*
X152036Y391071D01*
X152122Y391500D01*
X152122Y391500D01*
Y396035D01*
X154465Y398378D01*
X170000D01*
X170000Y398378D01*
X170429Y398464D01*
X170793Y398707D01*
X179965Y407878D01*
X196115D01*
X196267Y407378D01*
X195932Y407155D01*
X195408Y406370D01*
X195224Y405445D01*
X195408Y404520D01*
X195932Y403735D01*
X196716Y403211D01*
X197642Y403027D01*
X198567Y403211D01*
X199352Y403735D01*
X199876Y404520D01*
X200060Y405445D01*
X199876Y406370D01*
X199352Y407155D01*
X199016Y407378D01*
X199168Y407878D01*
X202079D01*
X202079Y407878D01*
X202508Y407964D01*
X202872Y408207D01*
X213043Y418378D01*
X229555D01*
X229555Y418378D01*
X229984Y418464D01*
X230348Y418707D01*
X240020Y428378D01*
X261197D01*
X261230Y427878D01*
X260868Y427831D01*
X260148Y427532D01*
X259529Y427058D01*
X259054Y426439D01*
X258756Y425718D01*
X258654Y424945D01*
X258756Y424172D01*
X259054Y423451D01*
X259529Y422832D01*
X260148Y422357D01*
X260868Y422059D01*
X261642Y421957D01*
X262415Y422059D01*
X263136Y422357D01*
X263754Y422832D01*
X264229Y423451D01*
X264528Y424172D01*
X264630Y424945D01*
X264528Y425718D01*
X264229Y426439D01*
X263754Y427058D01*
X263136Y427532D01*
X262415Y427831D01*
X262053Y427878D01*
X262086Y428378D01*
X304880D01*
X305032Y427878D01*
X304904Y427793D01*
X304904Y427793D01*
X302932Y425821D01*
X302216Y425679D01*
X301432Y425155D01*
X300908Y424370D01*
X300724Y423445D01*
X300908Y422519D01*
X301432Y421735D01*
X302216Y421211D01*
X303142Y421027D01*
X304067Y421211D01*
X304500Y421500D01*
X319020Y406980D01*
Y399838D01*
X318858Y399729D01*
X318464Y399140D01*
X318326Y398445D01*
X318464Y397750D01*
X318858Y397161D01*
X319447Y396767D01*
X320142Y396629D01*
X320837Y396767D01*
X321426Y397161D01*
X321819Y397750D01*
X321958Y398445D01*
X321819Y399140D01*
X321426Y399729D01*
X321263Y399838D01*
Y407445D01*
X321263Y407445D01*
X321178Y407874D01*
X320935Y408238D01*
X305518Y423655D01*
X305376Y424370D01*
X305086Y424803D01*
X306161Y425878D01*
X325939D01*
X326095Y425563D01*
X326132Y425378D01*
X325721Y424843D01*
X325441Y424168D01*
X325412Y423945D01*
X328142D01*
X330872D01*
X330842Y424168D01*
X330563Y424843D01*
X330152Y425378D01*
X330188Y425563D01*
X330345Y425878D01*
X336615D01*
X336767Y425378D01*
X336432Y425155D01*
X335908Y424370D01*
X335724Y423445D01*
X335908Y422519D01*
X336432Y421735D01*
X337020Y421342D01*
Y410409D01*
X327349Y400738D01*
X327105Y400374D01*
X327020Y399945D01*
X327020Y399945D01*
Y383410D01*
X325333Y381723D01*
X325142Y381761D01*
X324447Y381623D01*
X323858Y381229D01*
X323464Y380640D01*
X323326Y379945D01*
X323464Y379250D01*
X323858Y378661D01*
X324447Y378267D01*
X325142Y378129D01*
X325837Y378267D01*
X326426Y378661D01*
X326819Y379250D01*
X326958Y379945D01*
X326920Y380137D01*
X328935Y382152D01*
X329178Y382516D01*
X329263Y382945D01*
X329263Y382945D01*
Y399480D01*
X338935Y409152D01*
X338935Y409152D01*
X339178Y409516D01*
X339263Y409945D01*
X339263Y409945D01*
Y421342D01*
X339852Y421735D01*
X340376Y422519D01*
X340560Y423445D01*
X340376Y424370D01*
X339852Y425155D01*
X339517Y425378D01*
X339668Y425878D01*
X340535D01*
X343762Y422652D01*
X343762Y422652D01*
X344126Y422409D01*
X344555Y422323D01*
X344555Y422323D01*
X346039D01*
X346432Y421735D01*
X347020Y421342D01*
Y406445D01*
X347020Y406445D01*
X347106Y406016D01*
X347349Y405652D01*
X348520Y404480D01*
Y401338D01*
X348358Y401229D01*
X347964Y400640D01*
X347826Y399945D01*
X347964Y399250D01*
X348358Y398661D01*
X348947Y398267D01*
X349642Y398129D01*
X350337Y398267D01*
X350926Y398661D01*
X351320Y399250D01*
X351458Y399945D01*
X351320Y400640D01*
X350926Y401229D01*
X350763Y401338D01*
Y404945D01*
X350763Y404945D01*
X350678Y405374D01*
X350435Y405738D01*
X349263Y406910D01*
Y421342D01*
X349852Y421735D01*
X350376Y422519D01*
X350560Y423445D01*
X350376Y424370D01*
X349852Y425155D01*
X349067Y425679D01*
X348142Y425863D01*
X347216Y425679D01*
X346432Y425155D01*
X346039Y424566D01*
X345020D01*
X341793Y427793D01*
X341665Y427878D01*
X341817Y428378D01*
X350035D01*
X351207Y427207D01*
X351571Y426964D01*
X352000Y426878D01*
X352000Y426878D01*
X366535D01*
X378020Y415394D01*
Y393751D01*
X377858Y393642D01*
X377464Y393053D01*
X377326Y392358D01*
X377464Y391663D01*
X377858Y391074D01*
X378447Y390681D01*
X379142Y390542D01*
X379837Y390681D01*
X380426Y391074D01*
X380820Y391663D01*
X380958Y392358D01*
X380820Y393053D01*
X380426Y393642D01*
X380263Y393751D01*
Y415858D01*
X380263Y415858D01*
X380178Y416288D01*
X379935Y416651D01*
X367793Y428793D01*
X367429Y429036D01*
X367000Y429122D01*
X367000Y429122D01*
X352465D01*
X351708Y429878D01*
X351915Y430378D01*
X368122D01*
X382520Y415980D01*
Y384945D01*
X382520Y384945D01*
X382606Y384516D01*
X382849Y384152D01*
X388014Y378987D01*
Y376338D01*
X387851Y376229D01*
X387457Y375640D01*
X387319Y374945D01*
X387457Y374250D01*
X387851Y373661D01*
X388440Y373267D01*
X389135Y373129D01*
X389830Y373267D01*
X390419Y373661D01*
X390813Y374250D01*
X390951Y374945D01*
X390813Y375640D01*
X390419Y376229D01*
X390257Y376338D01*
Y379451D01*
X390257Y379451D01*
X390171Y379881D01*
X389928Y380245D01*
X384763Y385409D01*
Y416445D01*
X384678Y416874D01*
X384435Y417238D01*
X384435Y417238D01*
X370077Y431596D01*
X370268Y432058D01*
X430000D01*
Y41500D01*
D02*
G37*
G36*
X77520Y239480D02*
Y237742D01*
X80000Y235262D01*
Y226500D01*
X83000Y223500D01*
X89430D01*
Y205035D01*
X89430Y205035D01*
X89515Y204606D01*
X89758Y204242D01*
X101864Y192137D01*
X101826Y191945D01*
X101964Y191250D01*
X102358Y190661D01*
X102520Y190552D01*
Y182846D01*
X99885Y180212D01*
X99709Y180229D01*
X99120Y180623D01*
X98425Y180761D01*
X97730Y180623D01*
X97141Y180229D01*
X96747Y179640D01*
X96609Y178945D01*
X96747Y178250D01*
X97141Y177661D01*
X97730Y177267D01*
X98425Y177129D01*
X99120Y177267D01*
X99709Y177661D01*
X99818Y177823D01*
X100205D01*
X100205Y177823D01*
X100634Y177909D01*
X100998Y178152D01*
X104435Y181589D01*
X104435Y181589D01*
X104678Y181953D01*
X104763Y182382D01*
X104763Y182382D01*
Y190552D01*
X104926Y190661D01*
X105319Y191250D01*
X105458Y191945D01*
X105319Y192640D01*
X104926Y193229D01*
X104337Y193623D01*
X103642Y193761D01*
X103450Y193723D01*
X91673Y205500D01*
Y223500D01*
X124375D01*
X124792Y223298D01*
Y189566D01*
X116606D01*
X103920Y202253D01*
X103958Y202445D01*
X103820Y203140D01*
X103426Y203729D01*
X102837Y204123D01*
X102142Y204261D01*
X101447Y204123D01*
X100858Y203729D01*
X100464Y203140D01*
X100326Y202445D01*
X100464Y201750D01*
X100858Y201161D01*
X101447Y200767D01*
X102142Y200629D01*
X102333Y200667D01*
X115349Y187652D01*
X115712Y187409D01*
X116142Y187323D01*
X116142Y187323D01*
X124792D01*
Y175500D01*
X41463D01*
X41463Y175500D01*
X40819Y176144D01*
Y243500D01*
X73500D01*
X73500Y243500D01*
X77520Y239480D01*
D02*
G37*
%LPC*%
G36*
X283642Y426175D02*
Y423945D01*
X285872D01*
X285842Y424168D01*
X285563Y424843D01*
X285119Y425422D01*
X284540Y425866D01*
X283865Y426145D01*
X283642Y426175D01*
D02*
G37*
G36*
X282642D02*
X282418Y426145D01*
X281744Y425866D01*
X281165Y425422D01*
X280721Y424843D01*
X280441Y424168D01*
X280412Y423945D01*
X282642D01*
Y426175D01*
D02*
G37*
G36*
X327642Y422945D02*
X325412D01*
X325441Y422721D01*
X325721Y422047D01*
X326165Y421468D01*
X326744Y421024D01*
X327418Y420745D01*
X327642Y420715D01*
Y422945D01*
D02*
G37*
G36*
X282642D02*
X280412D01*
X280441Y422721D01*
X280721Y422047D01*
X281165Y421468D01*
X281744Y421024D01*
X282418Y420745D01*
X282642Y420715D01*
Y422945D01*
D02*
G37*
G36*
X330872D02*
X328642D01*
Y420715D01*
X328865Y420745D01*
X329539Y421024D01*
X330118Y421468D01*
X330563Y422047D01*
X330842Y422721D01*
X330872Y422945D01*
D02*
G37*
G36*
X285872D02*
X283642D01*
Y420715D01*
X283865Y420745D01*
X284540Y421024D01*
X285119Y421468D01*
X285563Y422047D01*
X285842Y422721D01*
X285872Y422945D01*
D02*
G37*
G36*
X366142Y424933D02*
X365368Y424831D01*
X364648Y424532D01*
X364029Y424057D01*
X363554Y423439D01*
X363256Y422718D01*
X363154Y421945D01*
X363256Y421172D01*
X363554Y420451D01*
X364029Y419832D01*
X364648Y419357D01*
X365368Y419059D01*
X366142Y418957D01*
X366915Y419059D01*
X367636Y419357D01*
X368254Y419832D01*
X368729Y420451D01*
X369028Y421172D01*
X369129Y421945D01*
X369028Y422718D01*
X368729Y423439D01*
X368254Y424057D01*
X367636Y424532D01*
X366915Y424831D01*
X366142Y424933D01*
D02*
G37*
G36*
X95642Y417363D02*
X94716Y417179D01*
X93932Y416655D01*
X93539Y416066D01*
X91642D01*
X91642Y416066D01*
X91212Y415981D01*
X90849Y415738D01*
X59849Y384738D01*
X59606Y384374D01*
X59520Y383945D01*
X59520Y383945D01*
Y351398D01*
X59520Y351398D01*
X59606Y350968D01*
X59849Y350605D01*
X76520Y333933D01*
Y273338D01*
X76358Y273229D01*
X75964Y272640D01*
X75826Y271945D01*
X75964Y271250D01*
X76358Y270661D01*
X76947Y270267D01*
X77642Y270129D01*
X78337Y270267D01*
X78926Y270661D01*
X79320Y271250D01*
X79458Y271945D01*
X79320Y272640D01*
X78926Y273229D01*
X78763Y273338D01*
Y334398D01*
X78763Y334398D01*
X78678Y334827D01*
X78435Y335191D01*
X61763Y351862D01*
Y383480D01*
X92106Y413823D01*
X93539D01*
X93932Y413235D01*
X94716Y412711D01*
X95642Y412527D01*
X96567Y412711D01*
X97351Y413235D01*
X97876Y414020D01*
X98060Y414945D01*
X97876Y415870D01*
X97351Y416655D01*
X96567Y417179D01*
X95642Y417363D01*
D02*
G37*
G36*
X217642Y417863D02*
X216716Y417679D01*
X215932Y417155D01*
X215408Y416370D01*
X215224Y415445D01*
X215362Y414751D01*
X202677Y402066D01*
X180642D01*
X180642Y402066D01*
X180212Y401981D01*
X179849Y401738D01*
X179849Y401738D01*
X164177Y386066D01*
X111142D01*
X111142Y386066D01*
X110713Y385981D01*
X110349Y385738D01*
X98168Y373557D01*
X97780Y373876D01*
X97876Y374020D01*
X98060Y374945D01*
X97876Y375870D01*
X97351Y376655D01*
X96567Y377179D01*
X95642Y377363D01*
X94716Y377179D01*
X93932Y376655D01*
X93539Y376066D01*
X89380D01*
X89380Y376066D01*
X88951Y375981D01*
X88587Y375738D01*
X88587Y375738D01*
X87722Y374873D01*
X86778Y375816D01*
X86890Y375984D01*
X87028Y376679D01*
X86890Y377374D01*
X86497Y377963D01*
X85908Y378357D01*
X85212Y378495D01*
X84518Y378357D01*
X83928Y377963D01*
X83535Y377374D01*
X83397Y376679D01*
X83520Y376057D01*
Y373429D01*
X83520Y373429D01*
X83520Y373428D01*
Y373187D01*
X83148Y373032D01*
X82529Y372557D01*
X82054Y371939D01*
X81756Y371218D01*
X81654Y370445D01*
X81756Y369672D01*
X82054Y368951D01*
X82529Y368332D01*
X83086Y367905D01*
X83070Y367683D01*
X82947Y367405D01*
X82205D01*
X82205Y367405D01*
X81776Y367320D01*
X81412Y367077D01*
X81412Y367077D01*
X74943Y360607D01*
X74699Y360243D01*
X74614Y359814D01*
X74614Y359814D01*
Y358998D01*
X74452Y358890D01*
X74058Y358301D01*
X73920Y357606D01*
X74058Y356911D01*
X74452Y356322D01*
X75041Y355928D01*
X75736Y355790D01*
X76431Y355928D01*
X77020Y356322D01*
X77413Y356911D01*
X77552Y357606D01*
X77413Y358301D01*
X77020Y358890D01*
X76995Y358906D01*
X76957Y359450D01*
X82670Y365162D01*
X92480D01*
X92480Y365162D01*
X92910Y365247D01*
X93274Y365491D01*
X111606Y383823D01*
X161325D01*
X161477Y383323D01*
X161349Y383238D01*
X161349Y383238D01*
X154350Y376239D01*
X154337Y376249D01*
X153642Y376387D01*
X153450Y376349D01*
X149061Y380738D01*
X148697Y380981D01*
X148268Y381066D01*
X148268Y381066D01*
X138034D01*
X137926Y381229D01*
X137337Y381623D01*
X136642Y381761D01*
X135947Y381623D01*
X135358Y381229D01*
X134964Y380640D01*
X134826Y379945D01*
X134964Y379250D01*
X135358Y378661D01*
X135947Y378267D01*
X136642Y378129D01*
X137337Y378267D01*
X137926Y378661D01*
X138034Y378823D01*
X147803D01*
X151864Y374763D01*
X151826Y374571D01*
X151964Y373876D01*
X152358Y373287D01*
X152947Y372893D01*
X153642Y372755D01*
X153833Y372793D01*
X155520Y371106D01*
Y326338D01*
X155358Y326229D01*
X154964Y325640D01*
X154826Y324945D01*
X154964Y324250D01*
X155358Y323661D01*
X155947Y323267D01*
X156642Y323129D01*
X157337Y323267D01*
X157926Y323661D01*
X158319Y324250D01*
X158458Y324945D01*
X158319Y325640D01*
X157926Y326229D01*
X157763Y326338D01*
Y371571D01*
X157763Y371571D01*
X157678Y372000D01*
X157435Y372364D01*
X155541Y374258D01*
X162606Y381323D01*
X198177D01*
X201927Y377574D01*
X201889Y377382D01*
X202027Y376687D01*
X202421Y376098D01*
X203010Y375704D01*
X203705Y375566D01*
X204400Y375704D01*
X204989Y376098D01*
X205382Y376687D01*
X205521Y377382D01*
X205382Y378077D01*
X204989Y378666D01*
X204400Y379060D01*
X203705Y379198D01*
X203513Y379160D01*
X199435Y383238D01*
X199071Y383481D01*
X198642Y383566D01*
X198642Y383566D01*
X165459D01*
X165307Y384066D01*
X165435Y384152D01*
X181106Y399823D01*
X203142D01*
X203142Y399823D01*
X203571Y399909D01*
X203935Y400152D01*
X216948Y413165D01*
X217642Y413027D01*
X218567Y413211D01*
X219352Y413735D01*
X219876Y414520D01*
X220060Y415445D01*
X219876Y416370D01*
X219352Y417155D01*
X218567Y417679D01*
X217642Y417863D01*
D02*
G37*
G36*
X115642Y417363D02*
X114716Y417179D01*
X113932Y416655D01*
X113408Y415870D01*
X113224Y414945D01*
X113408Y414020D01*
X113932Y413235D01*
X114716Y412711D01*
X115642Y412527D01*
X116567Y412711D01*
X117351Y413235D01*
X117876Y414020D01*
X118060Y414945D01*
X117876Y415870D01*
X117351Y416655D01*
X116567Y417179D01*
X115642Y417363D01*
D02*
G37*
G36*
X166642Y416863D02*
X165716Y416679D01*
X164932Y416155D01*
X164408Y415370D01*
X164224Y414445D01*
X164408Y413520D01*
X164932Y412735D01*
X165716Y412211D01*
X166642Y412027D01*
X167567Y412211D01*
X168351Y412735D01*
X168876Y413520D01*
X169060Y414445D01*
X168876Y415370D01*
X168351Y416155D01*
X167567Y416679D01*
X166642Y416863D01*
D02*
G37*
G36*
X235142Y418713D02*
X234214Y418591D01*
X233350Y418233D01*
X232608Y417664D01*
X232038Y416922D01*
X231680Y416057D01*
X231558Y415130D01*
X231680Y414202D01*
X232038Y413338D01*
X232608Y412596D01*
X233350Y412027D01*
X234214Y411669D01*
X235142Y411547D01*
X236069Y411669D01*
X236933Y412027D01*
X237676Y412596D01*
X238245Y413338D01*
X238603Y414202D01*
X238725Y415130D01*
X238603Y416057D01*
X238245Y416922D01*
X237676Y417664D01*
X236933Y418233D01*
X236069Y418591D01*
X235142Y418713D01*
D02*
G37*
G36*
X130142D02*
X129214Y418591D01*
X128350Y418233D01*
X127608Y417664D01*
X127038Y416922D01*
X126680Y416057D01*
X126558Y415130D01*
X126680Y414202D01*
X127038Y413338D01*
X127608Y412596D01*
X128350Y412027D01*
X129214Y411669D01*
X130142Y411547D01*
X131069Y411669D01*
X131933Y412027D01*
X132676Y412596D01*
X133245Y413338D01*
X133603Y414202D01*
X133725Y415130D01*
X133603Y416057D01*
X133245Y416922D01*
X132676Y417664D01*
X131933Y418233D01*
X131069Y418591D01*
X130142Y418713D01*
D02*
G37*
G36*
X217642Y407863D02*
X216716Y407679D01*
X215932Y407155D01*
X215408Y406370D01*
X215224Y405445D01*
X215408Y404520D01*
X215932Y403735D01*
X216716Y403211D01*
X217642Y403027D01*
X218567Y403211D01*
X219352Y403735D01*
X219876Y404520D01*
X220060Y405445D01*
X219876Y406370D01*
X219352Y407155D01*
X218567Y407679D01*
X217642Y407863D01*
D02*
G37*
G36*
X115642Y407363D02*
X114716Y407179D01*
X113932Y406655D01*
X113408Y405870D01*
X113224Y404945D01*
X113362Y404251D01*
X90970Y381859D01*
X78935D01*
X78506Y381774D01*
X78142Y381531D01*
X78142Y381531D01*
X74834Y378223D01*
X74642Y378261D01*
X73947Y378123D01*
X73358Y377729D01*
X72964Y377140D01*
X72826Y376445D01*
X72964Y375750D01*
X73358Y375161D01*
X73947Y374767D01*
X74642Y374629D01*
X75337Y374767D01*
X75926Y375161D01*
X76319Y375750D01*
X76458Y376445D01*
X76420Y376637D01*
X79399Y379616D01*
X91435D01*
X91435Y379616D01*
X91864Y379702D01*
X92228Y379945D01*
X114948Y402665D01*
X115642Y402527D01*
X116567Y402711D01*
X117351Y403235D01*
X117876Y404020D01*
X118060Y404945D01*
X117876Y405870D01*
X117351Y406655D01*
X116567Y407179D01*
X115642Y407363D01*
D02*
G37*
G36*
X95642D02*
X94716Y407179D01*
X93932Y406655D01*
X93408Y405870D01*
X93224Y404945D01*
X93362Y404251D01*
X83849Y394738D01*
X83606Y394374D01*
X83520Y393945D01*
X83520Y393945D01*
Y391338D01*
X83358Y391229D01*
X82964Y390640D01*
X82826Y389945D01*
X82964Y389250D01*
X83358Y388661D01*
X83947Y388267D01*
X84642Y388129D01*
X85337Y388267D01*
X85926Y388661D01*
X86320Y389250D01*
X86458Y389945D01*
X86320Y390640D01*
X85926Y391229D01*
X85763Y391338D01*
Y393480D01*
X94948Y402665D01*
X95642Y402527D01*
X96567Y402711D01*
X97351Y403235D01*
X97876Y404020D01*
X98060Y404945D01*
X97876Y405870D01*
X97351Y406655D01*
X96567Y407179D01*
X95642Y407363D01*
D02*
G37*
G36*
X166642Y406863D02*
X165716Y406679D01*
X164932Y406155D01*
X164408Y405370D01*
X164224Y404445D01*
X164408Y403520D01*
X164932Y402735D01*
X165716Y402211D01*
X166642Y402027D01*
X167567Y402211D01*
X168351Y402735D01*
X168876Y403520D01*
X169060Y404445D01*
X168876Y405370D01*
X168351Y406155D01*
X167567Y406679D01*
X166642Y406863D01*
D02*
G37*
G36*
X146642D02*
X145716Y406679D01*
X144932Y406155D01*
X144408Y405370D01*
X144224Y404445D01*
X144408Y403520D01*
X144932Y402735D01*
X145716Y402211D01*
X146642Y402027D01*
X147567Y402211D01*
X148352Y402735D01*
X148876Y403520D01*
X149060Y404445D01*
X148876Y405370D01*
X148352Y406155D01*
X147567Y406679D01*
X146642Y406863D01*
D02*
G37*
G36*
X217642Y397863D02*
X216716Y397679D01*
X215932Y397155D01*
X215408Y396370D01*
X215224Y395445D01*
X215408Y394520D01*
X215932Y393735D01*
X216716Y393211D01*
X217642Y393027D01*
X218567Y393211D01*
X219352Y393735D01*
X219876Y394520D01*
X220060Y395445D01*
X219876Y396370D01*
X219352Y397155D01*
X218567Y397679D01*
X217642Y397863D01*
D02*
G37*
G36*
X197642D02*
X196716Y397679D01*
X195932Y397155D01*
X195408Y396370D01*
X195224Y395445D01*
X195408Y394520D01*
X195932Y393735D01*
X196716Y393211D01*
X197642Y393027D01*
X198567Y393211D01*
X199352Y393735D01*
X199876Y394520D01*
X200060Y395445D01*
X199876Y396370D01*
X199352Y397155D01*
X198567Y397679D01*
X197642Y397863D01*
D02*
G37*
G36*
X115642Y397363D02*
X114716Y397179D01*
X113932Y396655D01*
X113408Y395870D01*
X113224Y394945D01*
X113408Y394020D01*
X113932Y393235D01*
X114716Y392711D01*
X115642Y392527D01*
X116567Y392711D01*
X117351Y393235D01*
X117876Y394020D01*
X118060Y394945D01*
X117876Y395870D01*
X117351Y396655D01*
X116567Y397179D01*
X115642Y397363D01*
D02*
G37*
G36*
X95642D02*
X94716Y397179D01*
X93932Y396655D01*
X93408Y395870D01*
X93224Y394945D01*
X93408Y394020D01*
X93932Y393235D01*
X94716Y392711D01*
X95642Y392527D01*
X96567Y392711D01*
X97351Y393235D01*
X97876Y394020D01*
X98060Y394945D01*
X97876Y395870D01*
X97351Y396655D01*
X96567Y397179D01*
X95642Y397363D01*
D02*
G37*
G36*
X166642Y396863D02*
X165716Y396679D01*
X164932Y396155D01*
X164408Y395370D01*
X164224Y394445D01*
X164408Y393520D01*
X164932Y392735D01*
X165716Y392211D01*
X166642Y392027D01*
X167567Y392211D01*
X168351Y392735D01*
X168876Y393520D01*
X169060Y394445D01*
X168876Y395370D01*
X168351Y396155D01*
X167567Y396679D01*
X166642Y396863D01*
D02*
G37*
G36*
X146642D02*
X145716Y396679D01*
X144932Y396155D01*
X144408Y395370D01*
X144224Y394445D01*
X144408Y393520D01*
X144932Y392735D01*
X145716Y392211D01*
X146642Y392027D01*
X147567Y392211D01*
X148352Y392735D01*
X148876Y393520D01*
X149060Y394445D01*
X148876Y395370D01*
X148352Y396155D01*
X147567Y396679D01*
X146642Y396863D01*
D02*
G37*
G36*
X293142Y425863D02*
X292216Y425679D01*
X291432Y425155D01*
X290908Y424370D01*
X290724Y423445D01*
X290908Y422519D01*
X291432Y421735D01*
X292020Y421342D01*
Y412945D01*
X292020Y412945D01*
X292106Y412516D01*
X292349Y412152D01*
X303020Y401480D01*
Y388582D01*
X302520Y388431D01*
X302284Y388784D01*
X301695Y389178D01*
X301000Y389316D01*
X300305Y389178D01*
X299716Y388784D01*
X299322Y388195D01*
X299184Y387500D01*
X299322Y386805D01*
X299716Y386216D01*
X300305Y385822D01*
X300378Y385808D01*
Y384001D01*
X300376Y383998D01*
X299917Y383755D01*
X284435Y399238D01*
X284071Y399481D01*
X283642Y399566D01*
X283642Y399566D01*
X279534D01*
X279426Y399729D01*
X278837Y400123D01*
X278142Y400261D01*
X277447Y400123D01*
X276858Y399729D01*
X276464Y399140D01*
X276326Y398445D01*
X276464Y397750D01*
X276858Y397161D01*
X277447Y396767D01*
X278142Y396629D01*
X278837Y396767D01*
X279426Y397161D01*
X279534Y397323D01*
X283177D01*
X306723Y373778D01*
X306723Y373778D01*
X307086Y373535D01*
X307208Y373511D01*
X307358Y373287D01*
X307520Y373178D01*
Y365398D01*
X307520Y365398D01*
X307606Y364968D01*
X307849Y364605D01*
X309317Y363137D01*
X309278Y362945D01*
X309417Y362250D01*
X309810Y361661D01*
X310400Y361267D01*
X311094Y361129D01*
X311789Y361267D01*
X312379Y361661D01*
X312772Y362250D01*
X312911Y362945D01*
X312772Y363640D01*
X312379Y364229D01*
X311789Y364623D01*
X311094Y364761D01*
X310903Y364723D01*
X309763Y365862D01*
Y373178D01*
X309926Y373287D01*
X310319Y373876D01*
X310458Y374571D01*
X310414Y374793D01*
X310874Y375040D01*
X318879Y367035D01*
Y349500D01*
X318878Y349500D01*
X318964Y349071D01*
X319207Y348707D01*
X324879Y343035D01*
Y339491D01*
X324716Y339383D01*
X324322Y338793D01*
X324184Y338098D01*
X324322Y337403D01*
X324716Y336814D01*
X325305Y336421D01*
X326000Y336282D01*
X326695Y336421D01*
X327284Y336814D01*
X327678Y337403D01*
X327816Y338098D01*
X327678Y338793D01*
X327284Y339383D01*
X327121Y339491D01*
Y343500D01*
X327122Y343500D01*
X327036Y343929D01*
X326793Y344293D01*
X326793Y344293D01*
X321122Y349965D01*
Y367500D01*
X321122Y367500D01*
X321036Y367929D01*
X320793Y368293D01*
X320793Y368293D01*
X309293Y379793D01*
X308929Y380036D01*
X308500Y380122D01*
X308500Y380121D01*
X306965D01*
X302735Y384351D01*
X302777Y384755D01*
X303245Y384989D01*
X303447Y384854D01*
X304142Y384716D01*
X304837Y384854D01*
X305426Y385247D01*
X305820Y385837D01*
X305958Y386531D01*
X305820Y387227D01*
X305426Y387816D01*
X305263Y387924D01*
Y401945D01*
X305263Y401945D01*
X305178Y402374D01*
X304935Y402738D01*
X294263Y413410D01*
Y421342D01*
X294852Y421735D01*
X295376Y422519D01*
X295560Y423445D01*
X295376Y424370D01*
X294852Y425155D01*
X294067Y425679D01*
X293142Y425863D01*
D02*
G37*
G36*
X180642Y380343D02*
X179714Y380221D01*
X178850Y379863D01*
X178108Y379294D01*
X177538Y378552D01*
X177180Y377687D01*
X177058Y376760D01*
X177180Y375832D01*
X177538Y374968D01*
X178108Y374226D01*
X178850Y373657D01*
X179714Y373299D01*
X180642Y373176D01*
X181569Y373299D01*
X182433Y373657D01*
X183176Y374226D01*
X183745Y374968D01*
X184103Y375832D01*
X184225Y376760D01*
X184103Y377687D01*
X183745Y378552D01*
X183176Y379294D01*
X182433Y379863D01*
X181569Y380221D01*
X180642Y380343D01*
D02*
G37*
G36*
X217642Y377863D02*
X216716Y377679D01*
X215932Y377155D01*
X215408Y376370D01*
X215224Y375445D01*
X215408Y374520D01*
X215932Y373735D01*
X216716Y373211D01*
X217642Y373027D01*
X218567Y373211D01*
X219352Y373735D01*
X219876Y374520D01*
X220060Y375445D01*
X219876Y376370D01*
X219352Y377155D01*
X218567Y377679D01*
X217642Y377863D01*
D02*
G37*
G36*
X197642D02*
X196716Y377679D01*
X195932Y377155D01*
X195408Y376370D01*
X195224Y375445D01*
X195408Y374520D01*
X195932Y373735D01*
X196716Y373211D01*
X197642Y373027D01*
X198567Y373211D01*
X199352Y373735D01*
X199876Y374520D01*
X200060Y375445D01*
X199876Y376370D01*
X199352Y377155D01*
X198567Y377679D01*
X197642Y377863D01*
D02*
G37*
G36*
X115642Y377363D02*
X114716Y377179D01*
X113932Y376655D01*
X113408Y375870D01*
X113224Y374945D01*
X113408Y374020D01*
X113932Y373235D01*
X114716Y372711D01*
X115642Y372527D01*
X116567Y372711D01*
X117351Y373235D01*
X117876Y374020D01*
X118060Y374945D01*
X117876Y375870D01*
X117351Y376655D01*
X116567Y377179D01*
X115642Y377363D01*
D02*
G37*
G36*
X235142Y379343D02*
X234214Y379221D01*
X233350Y378863D01*
X232608Y378294D01*
X232038Y377552D01*
X231680Y376687D01*
X231558Y375760D01*
X231680Y374832D01*
X232038Y373968D01*
X232608Y373226D01*
X233350Y372656D01*
X234214Y372299D01*
X235142Y372176D01*
X236069Y372299D01*
X236933Y372656D01*
X237676Y373226D01*
X238245Y373968D01*
X238603Y374832D01*
X238725Y375760D01*
X238603Y376687D01*
X238245Y377552D01*
X237676Y378294D01*
X236933Y378863D01*
X236069Y379221D01*
X235142Y379343D01*
D02*
G37*
G36*
X130142D02*
X129214Y379221D01*
X128350Y378863D01*
X127608Y378294D01*
X127038Y377552D01*
X126680Y376687D01*
X126558Y375760D01*
X126680Y374832D01*
X127038Y373968D01*
X127608Y373226D01*
X128350Y372656D01*
X129214Y372299D01*
X130142Y372176D01*
X131069Y372299D01*
X131933Y372656D01*
X132676Y373226D01*
X133245Y373968D01*
X133603Y374832D01*
X133725Y375760D01*
X133603Y376687D01*
X133245Y377552D01*
X132676Y378294D01*
X131933Y378863D01*
X131069Y379221D01*
X130142Y379343D01*
D02*
G37*
G36*
X166642Y376863D02*
X165716Y376679D01*
X164932Y376155D01*
X164408Y375370D01*
X164224Y374445D01*
X164408Y373520D01*
X164932Y372735D01*
X165716Y372211D01*
X166642Y372027D01*
X167567Y372211D01*
X168351Y372735D01*
X168876Y373520D01*
X169060Y374445D01*
X168876Y375370D01*
X168351Y376155D01*
X167567Y376679D01*
X166642Y376863D01*
D02*
G37*
G36*
X146642D02*
X145716Y376679D01*
X144932Y376155D01*
X144408Y375370D01*
X144224Y374445D01*
X144408Y373520D01*
X144932Y372735D01*
X145716Y372211D01*
X146642Y372027D01*
X147567Y372211D01*
X148352Y372735D01*
X148876Y373520D01*
X149060Y374445D01*
X148876Y375370D01*
X148352Y376155D01*
X147567Y376679D01*
X146642Y376863D01*
D02*
G37*
G36*
X138142Y375433D02*
X137368Y375331D01*
X136648Y375032D01*
X136029Y374557D01*
X135554Y373939D01*
X135256Y373218D01*
X135154Y372445D01*
X135256Y371672D01*
X135554Y370951D01*
X136029Y370332D01*
X136648Y369857D01*
X137368Y369559D01*
X138142Y369457D01*
X138915Y369559D01*
X139636Y369857D01*
X140254Y370332D01*
X140729Y370951D01*
X141028Y371672D01*
X141130Y372445D01*
X141028Y373218D01*
X140729Y373939D01*
X140254Y374557D01*
X139636Y375032D01*
X138915Y375331D01*
X138142Y375433D01*
D02*
G37*
G36*
X183642Y366385D02*
X182868Y366284D01*
X182148Y365985D01*
X181529Y365510D01*
X181054Y364892D01*
X180756Y364171D01*
X180654Y363398D01*
X180756Y362624D01*
X181054Y361904D01*
X181529Y361285D01*
X182148Y360810D01*
X182868Y360512D01*
X183642Y360410D01*
X184415Y360512D01*
X185136Y360810D01*
X185754Y361285D01*
X186229Y361904D01*
X186528Y362624D01*
X186629Y363398D01*
X186528Y364171D01*
X186229Y364892D01*
X185754Y365510D01*
X185136Y365985D01*
X184415Y366284D01*
X183642Y366385D01*
D02*
G37*
G36*
X331689Y374214D02*
X330994Y374075D01*
X330405Y373682D01*
X330011Y373093D01*
X329873Y372398D01*
X330011Y371703D01*
X330405Y371113D01*
X330567Y371005D01*
Y368457D01*
X327849Y365738D01*
X327606Y365374D01*
X327520Y364945D01*
X327520Y364945D01*
Y354410D01*
X325834Y352723D01*
X325642Y352761D01*
X324947Y352623D01*
X324358Y352229D01*
X323964Y351640D01*
X323826Y350945D01*
X323964Y350250D01*
X324358Y349661D01*
X324947Y349267D01*
X325642Y349129D01*
X326337Y349267D01*
X326926Y349661D01*
X327320Y350250D01*
X327458Y350945D01*
X327420Y351137D01*
X329435Y353152D01*
X329678Y353516D01*
X329763Y353945D01*
X329763Y353945D01*
Y364480D01*
X332482Y367199D01*
X332482Y367199D01*
X332725Y367563D01*
X332810Y367992D01*
X332810Y367992D01*
Y371005D01*
X332973Y371113D01*
X333367Y371703D01*
X333505Y372398D01*
X333367Y373093D01*
X332973Y373682D01*
X332384Y374075D01*
X331689Y374214D01*
D02*
G37*
G36*
X356842Y345808D02*
X356148Y345670D01*
X355558Y345276D01*
X355450Y345114D01*
X342189D01*
X342189Y345114D01*
X341760Y345028D01*
X341396Y344785D01*
X341396Y344785D01*
X331333Y334723D01*
X331142Y334761D01*
X330447Y334623D01*
X329858Y334229D01*
X329464Y333640D01*
X329326Y332945D01*
X329464Y332250D01*
X329858Y331661D01*
X330447Y331267D01*
X331142Y331129D01*
X331837Y331267D01*
X332426Y331661D01*
X332820Y332250D01*
X332958Y332945D01*
X332920Y333137D01*
X342653Y342871D01*
X355450D01*
X355558Y342708D01*
X356148Y342314D01*
X356842Y342176D01*
X357538Y342314D01*
X358127Y342708D01*
X358520Y343297D01*
X358659Y343992D01*
X358520Y344687D01*
X358127Y345276D01*
X357538Y345670D01*
X356842Y345808D01*
D02*
G37*
G36*
X184642Y347261D02*
X183947Y347123D01*
X183358Y346729D01*
X182964Y346140D01*
X182826Y345445D01*
X182864Y345253D01*
X181177Y343566D01*
X176642D01*
X176642Y343566D01*
X176213Y343481D01*
X175849Y343238D01*
X173834Y341223D01*
X173642Y341261D01*
X172947Y341123D01*
X172358Y340729D01*
X171964Y340140D01*
X171826Y339445D01*
X171964Y338750D01*
X172358Y338161D01*
X172520Y338052D01*
Y331909D01*
X168849Y328238D01*
X168605Y327874D01*
X168520Y327445D01*
X168520Y327445D01*
Y321838D01*
X168358Y321729D01*
X167964Y321140D01*
X167826Y320445D01*
X167923Y319957D01*
X167462Y319711D01*
X162858Y324315D01*
Y339052D01*
X163020Y339161D01*
X163414Y339750D01*
X163552Y340445D01*
X163414Y341140D01*
X163020Y341729D01*
X162431Y342123D01*
X161736Y342261D01*
X161041Y342123D01*
X160452Y341729D01*
X160058Y341140D01*
X159920Y340445D01*
X160058Y339750D01*
X160452Y339161D01*
X160615Y339052D01*
Y324577D01*
X160606Y324563D01*
X160520Y324134D01*
X160539Y324039D01*
X160520Y323945D01*
X160606Y323516D01*
X160849Y323152D01*
X267849Y216152D01*
X267849Y216152D01*
X268213Y215909D01*
X268642Y215823D01*
X268642Y215823D01*
X327609D01*
X327821Y215323D01*
X327612Y215066D01*
X259606D01*
X136420Y338253D01*
X136458Y338445D01*
X136319Y339140D01*
X135926Y339729D01*
X135337Y340123D01*
X134642Y340261D01*
X133947Y340123D01*
X133358Y339729D01*
X132964Y339140D01*
X132826Y338445D01*
X132964Y337750D01*
X133358Y337161D01*
X133947Y336767D01*
X134642Y336629D01*
X134834Y336667D01*
X258349Y213152D01*
X258349Y213152D01*
X258476Y213066D01*
X258325Y212566D01*
X242106D01*
X227572Y227101D01*
X227644Y227274D01*
X227732Y227945D01*
X227644Y228615D01*
X227385Y229240D01*
X226974Y229777D01*
X226437Y230188D01*
X225812Y230447D01*
X225142Y230536D01*
X224471Y230447D01*
X223846Y230188D01*
X223310Y229777D01*
X222898Y229240D01*
X222639Y228615D01*
X222551Y227945D01*
X222639Y227274D01*
X222898Y226649D01*
X223310Y226113D01*
X223846Y225701D01*
X224471Y225443D01*
X225142Y225354D01*
X225812Y225443D01*
X225986Y225515D01*
X240849Y210652D01*
X240849Y210652D01*
X241213Y210409D01*
X241642Y210323D01*
X298134D01*
X298195Y210240D01*
X298076Y209560D01*
X297929Y209461D01*
X297535Y208872D01*
X297397Y208177D01*
X297535Y207482D01*
X297929Y206893D01*
X298518Y206499D01*
X299213Y206361D01*
X299907Y206499D01*
X300497Y206893D01*
X300605Y207056D01*
X307445D01*
X314506Y199994D01*
X314506Y199994D01*
X317794Y196706D01*
X317630Y196163D01*
X317062Y196051D01*
X316341Y195569D01*
X315859Y194847D01*
X315789Y194496D01*
X317913D01*
Y193996D01*
X318413D01*
Y191872D01*
X318764Y191941D01*
X319486Y192424D01*
X319894Y193035D01*
X320438Y193273D01*
X320447Y193267D01*
X321142Y193129D01*
X321837Y193267D01*
X322426Y193661D01*
X322819Y194250D01*
X322958Y194945D01*
X322819Y195640D01*
X322426Y196229D01*
X321837Y196623D01*
X321142Y196761D01*
X320950Y196723D01*
X318469Y199204D01*
X318660Y199666D01*
X325665D01*
X328021Y197310D01*
X328025Y197264D01*
X327751Y197039D01*
X327565Y196970D01*
X327337Y197123D01*
X326642Y197261D01*
X325947Y197123D01*
X325358Y196729D01*
X324964Y196140D01*
X324826Y195445D01*
X324964Y194750D01*
X325358Y194161D01*
X325520Y194052D01*
Y181445D01*
X325520Y181445D01*
X325572Y181185D01*
X325288Y180816D01*
X325187Y180752D01*
X325142Y180761D01*
X324447Y180623D01*
X324280Y180511D01*
X323724Y180741D01*
X323678Y180974D01*
X323284Y181563D01*
X323127Y181668D01*
X323232Y182199D01*
X323337Y182220D01*
X323926Y182614D01*
X324320Y183203D01*
X324458Y183898D01*
X324320Y184593D01*
X323926Y185182D01*
X323337Y185575D01*
X322642Y185714D01*
X321947Y185575D01*
X321358Y185182D01*
X321249Y185019D01*
X311094D01*
X311094Y185019D01*
X310665Y184934D01*
X310301Y184691D01*
X310301Y184691D01*
X269177Y143566D01*
X248034D01*
X247926Y143729D01*
X247337Y144123D01*
X246642Y144261D01*
X245947Y144123D01*
X245358Y143729D01*
X244964Y143140D01*
X244826Y142445D01*
X244964Y141750D01*
X245358Y141161D01*
X245947Y140767D01*
X246642Y140629D01*
X247337Y140767D01*
X247926Y141161D01*
X248034Y141323D01*
X269642D01*
X269642Y141323D01*
X270071Y141409D01*
X270435Y141652D01*
X311559Y182776D01*
X321138D01*
X321427Y182445D01*
X321316Y182001D01*
X321300Y181953D01*
X320716Y181563D01*
X320607Y181401D01*
X316976D01*
X316976Y181401D01*
X316547Y181315D01*
X316183Y181072D01*
X316183Y181072D01*
X269502Y134391D01*
X255328D01*
X255219Y134554D01*
X254630Y134947D01*
X253935Y135086D01*
X253240Y134947D01*
X252651Y134554D01*
X252570Y134432D01*
X252049Y134554D01*
X252028Y134718D01*
X251729Y135439D01*
X251254Y136057D01*
X250636Y136532D01*
X249915Y136831D01*
X249142Y136933D01*
X248368Y136831D01*
X247648Y136532D01*
X247029Y136057D01*
X246554Y135439D01*
X246256Y134718D01*
X246154Y133945D01*
X246256Y133172D01*
X246554Y132451D01*
X247029Y131832D01*
X247648Y131357D01*
X248368Y131059D01*
X249142Y130957D01*
X249915Y131059D01*
X250636Y131357D01*
X251254Y131832D01*
X251729Y132451D01*
X251758Y132520D01*
X252033Y132550D01*
X252297Y132515D01*
X252651Y131985D01*
X253240Y131592D01*
X253935Y131454D01*
X254630Y131592D01*
X255219Y131985D01*
X255328Y132148D01*
X269966D01*
X269967Y132148D01*
X270396Y132233D01*
X270760Y132476D01*
X317441Y179158D01*
X320607D01*
X320716Y178995D01*
X321305Y178601D01*
X322000Y178463D01*
X322458Y178554D01*
X322704Y178093D01*
X272874Y128263D01*
X249534D01*
X249426Y128426D01*
X248837Y128820D01*
X248142Y128958D01*
X247447Y128820D01*
X246858Y128426D01*
X246368Y128410D01*
X246254Y128558D01*
X245636Y129032D01*
X244915Y129331D01*
X244142Y129433D01*
X243368Y129331D01*
X242648Y129032D01*
X242029Y128558D01*
X241554Y127939D01*
X241256Y127218D01*
X241154Y126445D01*
X241256Y125672D01*
X241554Y124951D01*
X242029Y124332D01*
X242648Y123857D01*
X243368Y123559D01*
X244142Y123457D01*
X244915Y123559D01*
X245636Y123857D01*
X246254Y124332D01*
X246729Y124951D01*
X246856Y125257D01*
X247447Y125464D01*
X248142Y125326D01*
X248837Y125464D01*
X249426Y125858D01*
X249534Y126020D01*
X271407D01*
X271456Y125520D01*
X271260Y125481D01*
X270896Y125238D01*
X270896Y125238D01*
X266334Y120676D01*
X266142Y120714D01*
X265447Y120575D01*
X264858Y120182D01*
X264464Y119593D01*
X264326Y118898D01*
X264464Y118203D01*
X264858Y117613D01*
X265447Y117220D01*
X266142Y117082D01*
X266837Y117220D01*
X267426Y117613D01*
X267819Y118203D01*
X267958Y118898D01*
X267920Y119089D01*
X272153Y123323D01*
X278642D01*
X278642Y123323D01*
X279071Y123409D01*
X279435Y123652D01*
X316106Y160323D01*
X319825D01*
X319976Y159823D01*
X319849Y159738D01*
X319849Y159738D01*
X315349Y155238D01*
X315106Y154874D01*
X315020Y154445D01*
X315020Y154445D01*
Y142445D01*
X315020Y142445D01*
X315106Y142016D01*
X315349Y141652D01*
X317849Y139152D01*
X317849Y139152D01*
X318213Y138909D01*
X318642Y138823D01*
X370642D01*
X370642Y138823D01*
X371071Y138909D01*
X371435Y139152D01*
X392979Y160696D01*
X393337Y160767D01*
X393926Y161161D01*
X394320Y161750D01*
X394458Y162445D01*
X394320Y163140D01*
X393926Y163729D01*
X393337Y164123D01*
X392642Y164261D01*
X391947Y164123D01*
X391358Y163729D01*
X390964Y163140D01*
X390826Y162445D01*
X390947Y161836D01*
X370177Y141066D01*
X319106D01*
X317263Y142909D01*
Y153980D01*
X321106Y157823D01*
X326081D01*
X326190Y157661D01*
X326779Y157267D01*
X327474Y157129D01*
X328169Y157267D01*
X328758Y157661D01*
X329152Y158250D01*
X329290Y158945D01*
X329152Y159640D01*
X328758Y160229D01*
X328169Y160623D01*
X327474Y160761D01*
X326779Y160623D01*
X326190Y160229D01*
X326081Y160066D01*
X321959D01*
X321807Y160566D01*
X321935Y160652D01*
X322450Y161167D01*
X322642Y161129D01*
X323337Y161267D01*
X323926Y161661D01*
X324320Y162250D01*
X324458Y162945D01*
X324320Y163640D01*
X323926Y164229D01*
X323337Y164623D01*
X322642Y164761D01*
X321947Y164623D01*
X321358Y164229D01*
X320964Y163640D01*
X320826Y162945D01*
X320433Y162566D01*
X315642D01*
X315212Y162481D01*
X314849Y162238D01*
X314849Y162238D01*
X278177Y125566D01*
X273959D01*
X273807Y126066D01*
X273935Y126152D01*
X324950Y177167D01*
X325142Y177129D01*
X325837Y177267D01*
X326426Y177661D01*
X326819Y178250D01*
X326940Y178854D01*
X327212Y179002D01*
X327446Y179055D01*
X330349Y176152D01*
X330349Y176152D01*
X330713Y175909D01*
X331142Y175823D01*
X331142Y175823D01*
X332842D01*
X354708Y153958D01*
X354474Y153484D01*
X354142Y153528D01*
X353214Y153406D01*
X352350Y153048D01*
X351730Y152573D01*
X342050Y162253D01*
X342088Y162445D01*
X341949Y163140D01*
X341556Y163729D01*
X340967Y164123D01*
X340272Y164261D01*
X339577Y164123D01*
X338988Y163729D01*
X338594Y163140D01*
X338456Y162445D01*
X338594Y161750D01*
X338988Y161161D01*
X339577Y160767D01*
X340272Y160629D01*
X340463Y160667D01*
X350631Y150499D01*
X350558Y149945D01*
X350680Y149017D01*
X351038Y148153D01*
X351608Y147411D01*
X352350Y146842D01*
X353214Y146484D01*
X354142Y146361D01*
X355069Y146484D01*
X355933Y146842D01*
X356676Y147411D01*
X357245Y148153D01*
X357603Y149017D01*
X357725Y149945D01*
X357681Y150277D01*
X358155Y150511D01*
X359514Y149152D01*
X359514Y149152D01*
X359878Y148909D01*
X360307Y148823D01*
X360307Y148823D01*
X360761D01*
X361038Y148153D01*
X361608Y147411D01*
X362350Y146842D01*
X363214Y146484D01*
X364142Y146361D01*
X365069Y146484D01*
X365933Y146842D01*
X366676Y147411D01*
X367245Y148153D01*
X367603Y149017D01*
X367725Y149945D01*
X367603Y150872D01*
X367245Y151737D01*
X366676Y152479D01*
X365933Y153048D01*
X365069Y153406D01*
X364142Y153528D01*
X363214Y153406D01*
X362350Y153048D01*
X361608Y152479D01*
X361038Y151737D01*
X360936Y151490D01*
X360446Y151392D01*
X335499Y176339D01*
X335696Y176849D01*
X336195Y176948D01*
X336784Y177342D01*
X336893Y177505D01*
X368963D01*
X369023Y177464D01*
X369453Y177378D01*
X369783Y177444D01*
X370142Y177373D01*
X370837Y177511D01*
X371426Y177905D01*
X371819Y178494D01*
X371958Y179189D01*
X371819Y179884D01*
X371426Y180473D01*
X370837Y180867D01*
X370142Y181005D01*
X369447Y180867D01*
X368858Y180473D01*
X368464Y179884D01*
X368437Y179748D01*
X336893D01*
X336784Y179910D01*
X336195Y180304D01*
X335500Y180442D01*
X334805Y180304D01*
X334216Y179910D01*
X333822Y179321D01*
X333684Y178626D01*
X333710Y178496D01*
X333310Y178069D01*
X333285Y178066D01*
X331606D01*
X331220Y178453D01*
X331467Y178913D01*
X331689Y178869D01*
X332384Y179007D01*
X332973Y179401D01*
X333367Y179990D01*
X333505Y180685D01*
X333367Y181380D01*
X332973Y181969D01*
X332810Y182078D01*
Y195228D01*
X332725Y195658D01*
X332482Y196021D01*
X332482Y196021D01*
X326923Y201581D01*
X326559Y201824D01*
X326130Y201909D01*
X326130Y201909D01*
X315764D01*
X308702Y208970D01*
X308339Y209213D01*
X307909Y209299D01*
X307909Y209299D01*
X300605D01*
X300497Y209461D01*
X300349Y209560D01*
X300230Y210240D01*
X300291Y210323D01*
X340142D01*
X340142Y210323D01*
X340571Y210409D01*
X340935Y210652D01*
X340950Y210667D01*
X341142Y210629D01*
X341837Y210767D01*
X342426Y211161D01*
X342819Y211750D01*
X342958Y212445D01*
X342819Y213140D01*
X342426Y213729D01*
X341837Y214123D01*
X341142Y214261D01*
X340447Y214123D01*
X339858Y213729D01*
X339464Y213140D01*
X339350Y212566D01*
X330964D01*
X330697Y213066D01*
X330820Y213250D01*
X330958Y213945D01*
X330862Y214427D01*
X331312Y214727D01*
X331411Y214661D01*
X332106Y214523D01*
X332801Y214661D01*
X333390Y215054D01*
X333784Y215644D01*
X333922Y216339D01*
X333784Y217034D01*
X333656Y217225D01*
X333817Y217767D01*
X334406Y218161D01*
X334800Y218750D01*
X334938Y219445D01*
X334800Y220140D01*
X334406Y220729D01*
X333817Y221123D01*
X333122Y221261D01*
X332930Y221223D01*
X329915Y224238D01*
X329551Y224481D01*
X329122Y224566D01*
X329122Y224566D01*
X285606D01*
X234935Y275238D01*
X234571Y275481D01*
X234142Y275566D01*
X234142Y275566D01*
X232106D01*
X220763Y286910D01*
Y314445D01*
X220763Y314445D01*
X220678Y314874D01*
X220435Y315238D01*
X210420Y325253D01*
X210458Y325445D01*
X210319Y326140D01*
X209926Y326729D01*
X209337Y327123D01*
X208642Y327261D01*
X207947Y327123D01*
X207358Y326729D01*
X206964Y326140D01*
X206826Y325445D01*
X206964Y324750D01*
X207358Y324161D01*
X207947Y323767D01*
X208642Y323629D01*
X208834Y323667D01*
X218520Y313980D01*
Y286445D01*
X218520Y286445D01*
X218605Y286016D01*
X218849Y285652D01*
X230849Y273652D01*
X230849Y273652D01*
X231212Y273409D01*
X231642Y273323D01*
X233677D01*
X284349Y222652D01*
X284349Y222652D01*
X284713Y222409D01*
X285142Y222323D01*
X285142Y222323D01*
X328658D01*
X331344Y219637D01*
X331306Y219445D01*
X331444Y218750D01*
X331572Y218558D01*
X331423Y218055D01*
X331413Y218042D01*
X331348Y217994D01*
X330985Y218066D01*
X330985Y218066D01*
X269106D01*
X168908Y318265D01*
X169154Y318726D01*
X169642Y318629D01*
X170337Y318767D01*
X170926Y319161D01*
X171319Y319750D01*
X171458Y320445D01*
X171319Y321140D01*
X170926Y321729D01*
X170763Y321838D01*
Y326980D01*
X174435Y330652D01*
X174435Y330652D01*
X174678Y331016D01*
X174763Y331445D01*
Y338052D01*
X174926Y338161D01*
X175320Y338750D01*
X175458Y339445D01*
X175420Y339637D01*
X177106Y341323D01*
X181642D01*
X181642Y341323D01*
X182071Y341409D01*
X182435Y341652D01*
X184450Y343667D01*
X184642Y343629D01*
X185337Y343767D01*
X185926Y344161D01*
X186319Y344750D01*
X186458Y345445D01*
X186319Y346140D01*
X185926Y346729D01*
X185337Y347123D01*
X184642Y347261D01*
D02*
G37*
G36*
X332642Y363761D02*
X331947Y363623D01*
X331358Y363229D01*
X330964Y362640D01*
X330826Y361945D01*
X330964Y361250D01*
X331358Y360661D01*
X331947Y360267D01*
X332642Y360129D01*
X333337Y360267D01*
X333926Y360661D01*
X334034Y360823D01*
X358630D01*
X370540Y348913D01*
Y345885D01*
X370377Y345776D01*
X369984Y345187D01*
X369845Y344492D01*
X369984Y343797D01*
X370377Y343208D01*
X370967Y342814D01*
X371661Y342676D01*
X372356Y342814D01*
X372945Y343208D01*
X373339Y343797D01*
X373477Y344492D01*
X373339Y345187D01*
X372945Y345776D01*
X372783Y345885D01*
Y349378D01*
X372698Y349807D01*
X372455Y350171D01*
X372454Y350171D01*
X359888Y362738D01*
X359524Y362981D01*
X359095Y363066D01*
X359094Y363066D01*
X334034D01*
X333926Y363229D01*
X333337Y363623D01*
X332642Y363761D01*
D02*
G37*
G36*
X124689Y345808D02*
X123994Y345670D01*
X123405Y345276D01*
X123011Y344687D01*
X122873Y343992D01*
X122911Y343800D01*
X118677Y339566D01*
X93534D01*
X93426Y339729D01*
X92837Y340123D01*
X92142Y340261D01*
X91447Y340123D01*
X90858Y339729D01*
X90464Y339140D01*
X90326Y338445D01*
X90464Y337750D01*
X90858Y337161D01*
X91447Y336767D01*
X92142Y336629D01*
X92837Y336767D01*
X93426Y337161D01*
X93534Y337323D01*
X119142D01*
X119142Y337323D01*
X119571Y337409D01*
X119935Y337652D01*
X124497Y342214D01*
X124689Y342176D01*
X125384Y342314D01*
X125973Y342708D01*
X126367Y343297D01*
X126505Y343992D01*
X126367Y344687D01*
X125973Y345276D01*
X125384Y345670D01*
X124689Y345808D01*
D02*
G37*
G36*
X55618Y329051D02*
Y319398D01*
X65272D01*
X65125Y320888D01*
X64544Y322802D01*
X63601Y324566D01*
X62332Y326112D01*
X60786Y327381D01*
X59022Y328324D01*
X57109Y328904D01*
X55618Y329051D01*
D02*
G37*
G36*
X54618D02*
X53128Y328904D01*
X51214Y328324D01*
X49450Y327381D01*
X47904Y326112D01*
X46635Y324566D01*
X45692Y322802D01*
X45112Y320888D01*
X44965Y319398D01*
X54618D01*
Y329051D01*
D02*
G37*
G36*
X320142Y316261D02*
X319447Y316123D01*
X318858Y315729D01*
X318464Y315140D01*
X318326Y314445D01*
X318364Y314253D01*
X301677Y297566D01*
X252034D01*
X251926Y297729D01*
X251337Y298123D01*
X250642Y298261D01*
X249947Y298123D01*
X249358Y297729D01*
X248964Y297140D01*
X248826Y296445D01*
X248964Y295750D01*
X249358Y295161D01*
X249947Y294767D01*
X250642Y294629D01*
X250834Y294667D01*
X281020Y264480D01*
Y235945D01*
X281020Y235945D01*
X281105Y235516D01*
X281349Y235152D01*
X289849Y226652D01*
X289849Y226652D01*
X290212Y226409D01*
X290642Y226323D01*
X290642Y226323D01*
X310249D01*
X310358Y226161D01*
X310947Y225767D01*
X311642Y225629D01*
X312337Y225767D01*
X312926Y226161D01*
X313034Y226323D01*
X343142D01*
X343142Y226323D01*
X343571Y226409D01*
X343935Y226652D01*
X349450Y232167D01*
X349642Y232129D01*
X350337Y232267D01*
X350926Y232661D01*
X351034Y232823D01*
X357177D01*
X361849Y228152D01*
X361849Y228152D01*
X362212Y227909D01*
X362642Y227823D01*
X362642Y227823D01*
X375642D01*
X375642Y227823D01*
X376071Y227909D01*
X376435Y228152D01*
X376450Y228167D01*
X376642Y228129D01*
X377337Y228267D01*
X377926Y228661D01*
X378320Y229250D01*
X378458Y229945D01*
X378320Y230640D01*
X377926Y231229D01*
X377337Y231623D01*
X376642Y231761D01*
X375947Y231623D01*
X375358Y231229D01*
X374964Y230640D01*
X374850Y230066D01*
X363106D01*
X358435Y234738D01*
X358071Y234981D01*
X357642Y235066D01*
X357642Y235066D01*
X351034D01*
X350926Y235229D01*
X350337Y235623D01*
X349642Y235761D01*
X348947Y235623D01*
X348358Y235229D01*
X347964Y234640D01*
X347826Y233945D01*
X347864Y233753D01*
X342677Y228566D01*
X313034D01*
X312926Y228729D01*
X312337Y229123D01*
X311642Y229261D01*
X310947Y229123D01*
X310358Y228729D01*
X310249Y228566D01*
X291106D01*
X283263Y236409D01*
Y264945D01*
X283263Y264945D01*
X283178Y265374D01*
X282935Y265738D01*
X282935Y265738D01*
X253811Y294861D01*
X254003Y295323D01*
X302142D01*
X302142Y295323D01*
X302571Y295409D01*
X302935Y295652D01*
X319950Y312667D01*
X320142Y312629D01*
X320837Y312767D01*
X321426Y313161D01*
X321819Y313750D01*
X321958Y314445D01*
X321819Y315140D01*
X321426Y315729D01*
X320837Y316123D01*
X320142Y316261D01*
D02*
G37*
G36*
X238142Y316933D02*
X237368Y316831D01*
X236648Y316532D01*
X236029Y316057D01*
X235554Y315439D01*
X235256Y314718D01*
X235154Y313945D01*
X235256Y313172D01*
X235554Y312451D01*
X236029Y311832D01*
X236648Y311357D01*
X237368Y311059D01*
X238142Y310957D01*
X238915Y311059D01*
X239636Y311357D01*
X240254Y311832D01*
X240729Y312451D01*
X241028Y313172D01*
X241129Y313945D01*
X241028Y314718D01*
X240729Y315439D01*
X240254Y316057D01*
X239636Y316532D01*
X238915Y316831D01*
X238142Y316933D01*
D02*
G37*
G36*
X65272Y318398D02*
X55618D01*
Y308744D01*
X57109Y308891D01*
X59022Y309472D01*
X60786Y310414D01*
X62332Y311683D01*
X63601Y313229D01*
X64544Y314993D01*
X65125Y316907D01*
X65272Y318398D01*
D02*
G37*
G36*
X54618D02*
X44965D01*
X45112Y316907D01*
X45692Y314993D01*
X46635Y313229D01*
X47904Y311683D01*
X49450Y310414D01*
X51214Y309472D01*
X53128Y308891D01*
X54618Y308744D01*
Y318398D01*
D02*
G37*
G36*
X413886Y317240D02*
Y307587D01*
X423539D01*
X423392Y309077D01*
X422812Y310991D01*
X421869Y312755D01*
X420600Y314301D01*
X419054Y315570D01*
X417290Y316513D01*
X415376Y317093D01*
X413886Y317240D01*
D02*
G37*
G36*
X412886D02*
X411395Y317093D01*
X409481Y316513D01*
X407718Y315570D01*
X406172Y314301D01*
X404903Y312755D01*
X403960Y310991D01*
X403379Y309077D01*
X403232Y307587D01*
X412886D01*
Y317240D01*
D02*
G37*
G36*
X140000Y301124D02*
Y299500D01*
X141624D01*
X141554Y299851D01*
X141072Y300572D01*
X140351Y301055D01*
X140000Y301124D01*
D02*
G37*
G36*
X139000D02*
X138649Y301055D01*
X137927Y300572D01*
X137445Y299851D01*
X137376Y299500D01*
X139000D01*
Y301124D01*
D02*
G37*
G36*
X423539Y306587D02*
X413886D01*
Y296933D01*
X415376Y297080D01*
X417290Y297661D01*
X419054Y298603D01*
X420600Y299872D01*
X421869Y301418D01*
X422812Y303182D01*
X423392Y305096D01*
X423539Y306587D01*
D02*
G37*
G36*
X412886D02*
X403232D01*
X403379Y305096D01*
X403960Y303182D01*
X404903Y301418D01*
X406172Y299872D01*
X407718Y298603D01*
X409481Y297661D01*
X411395Y297080D01*
X412886Y296933D01*
Y306587D01*
D02*
G37*
G36*
X141624Y298500D02*
X137376D01*
X137445Y298149D01*
X137927Y297428D01*
X138378Y297126D01*
Y289083D01*
X137927Y288781D01*
X137445Y288060D01*
X137376Y287709D01*
X141624D01*
X141554Y288060D01*
X141072Y288781D01*
X140622Y289083D01*
Y297126D01*
X141072Y297428D01*
X141554Y298149D01*
X141624Y298500D01*
D02*
G37*
G36*
Y286709D02*
X140000D01*
Y285084D01*
X140351Y285154D01*
X141072Y285636D01*
X141554Y286358D01*
X141624Y286709D01*
D02*
G37*
G36*
X139000D02*
X137376D01*
X137445Y286358D01*
X137927Y285636D01*
X138649Y285154D01*
X139000Y285084D01*
Y286709D01*
D02*
G37*
G36*
X225142Y289591D02*
X224471Y289502D01*
X223846Y289244D01*
X223310Y288832D01*
X222898Y288295D01*
X222639Y287670D01*
X222551Y287000D01*
X222639Y286330D01*
X222898Y285705D01*
X223310Y285168D01*
X223846Y284756D01*
X224471Y284498D01*
X225142Y284409D01*
X225812Y284498D01*
X226437Y284756D01*
X226974Y285168D01*
X227385Y285705D01*
X227644Y286330D01*
X227732Y287000D01*
X227644Y287670D01*
X227385Y288295D01*
X226974Y288832D01*
X226437Y289244D01*
X225812Y289502D01*
X225142Y289591D01*
D02*
G37*
G36*
X164642Y222213D02*
X163868Y222111D01*
X163148Y221812D01*
X162529Y221338D01*
X162054Y220719D01*
X161756Y219998D01*
X161654Y219225D01*
X161756Y218452D01*
X162054Y217731D01*
X162529Y217112D01*
X163148Y216637D01*
X163868Y216339D01*
X164642Y216237D01*
X165415Y216339D01*
X166136Y216637D01*
X166754Y217112D01*
X167229Y217731D01*
X167528Y218452D01*
X167630Y219225D01*
X167528Y219998D01*
X167229Y220719D01*
X166754Y221338D01*
X166136Y221812D01*
X165415Y222111D01*
X164642Y222213D01*
D02*
G37*
G36*
X295606Y207761D02*
X294911Y207623D01*
X294322Y207229D01*
X294214Y207066D01*
X232142D01*
X232142Y207066D01*
X231713Y206981D01*
X231349Y206738D01*
X231349Y206738D01*
X216849Y192238D01*
X216605Y191874D01*
X216520Y191445D01*
X216520Y191445D01*
Y178838D01*
X216358Y178729D01*
X215964Y178140D01*
X215826Y177445D01*
X215964Y176750D01*
X216358Y176161D01*
X216947Y175767D01*
X217642Y175629D01*
X218337Y175767D01*
X218926Y176161D01*
X219320Y176750D01*
X219458Y177445D01*
X219320Y178140D01*
X218926Y178729D01*
X218763Y178838D01*
Y190980D01*
X232606Y204823D01*
X241397D01*
X241664Y204323D01*
X241444Y203994D01*
X241306Y203299D01*
X241444Y202604D01*
X241838Y202015D01*
X242427Y201622D01*
X243122Y201483D01*
X243314Y201521D01*
X253020Y191815D01*
Y186803D01*
X253020Y186803D01*
X253105Y186374D01*
X253349Y186010D01*
X254128Y185231D01*
X254089Y185039D01*
X254228Y184344D01*
X254621Y183755D01*
X255211Y183362D01*
X255906Y183223D01*
X256600Y183362D01*
X257190Y183755D01*
X257583Y184344D01*
X257721Y185039D01*
X257583Y185734D01*
X257190Y186323D01*
X256600Y186717D01*
X255906Y186855D01*
X255714Y186817D01*
X255263Y187268D01*
Y192280D01*
X255263Y192280D01*
X255178Y192709D01*
X254935Y193073D01*
X254935Y193073D01*
X244900Y203108D01*
X244938Y203299D01*
X244800Y203994D01*
X244580Y204323D01*
X244847Y204823D01*
X294214D01*
X294322Y204661D01*
X294911Y204267D01*
X295606Y204129D01*
X296301Y204267D01*
X296890Y204661D01*
X297284Y205250D01*
X297422Y205945D01*
X297284Y206640D01*
X296890Y207229D01*
X296301Y207623D01*
X295606Y207761D01*
D02*
G37*
G36*
X392642Y200592D02*
X391947Y200453D01*
X391358Y200060D01*
X391249Y199897D01*
X354034D01*
X353926Y200060D01*
X353337Y200453D01*
X352642Y200592D01*
X351947Y200453D01*
X351358Y200060D01*
X350964Y199470D01*
X350826Y198776D01*
X350964Y198081D01*
X351358Y197492D01*
X351947Y197098D01*
X352642Y196960D01*
X353337Y197098D01*
X353926Y197492D01*
X354034Y197654D01*
X391249D01*
X391358Y197492D01*
X391947Y197098D01*
X392642Y196960D01*
X393337Y197098D01*
X393926Y197492D01*
X394320Y198081D01*
X394458Y198776D01*
X394320Y199470D01*
X393926Y200060D01*
X393337Y200453D01*
X392642Y200592D01*
D02*
G37*
G36*
X162142Y199366D02*
Y195945D01*
X165563D01*
X165493Y196477D01*
X165094Y197438D01*
X164461Y198264D01*
X163635Y198898D01*
X162674Y199296D01*
X162142Y199366D01*
D02*
G37*
G36*
X161142D02*
X160610Y199296D01*
X159648Y198898D01*
X158823Y198264D01*
X158189Y197438D01*
X157791Y196477D01*
X157721Y195945D01*
X161142D01*
Y199366D01*
D02*
G37*
G36*
X317413Y193496D02*
X315789D01*
X315859Y193145D01*
X316341Y192424D01*
X317062Y191941D01*
X317413Y191872D01*
Y193496D01*
D02*
G37*
G36*
X181642Y199028D02*
X180714Y198906D01*
X179850Y198548D01*
X179108Y197979D01*
X178538Y197237D01*
X178180Y196372D01*
X178058Y195445D01*
X178180Y194517D01*
X178538Y193653D01*
X179108Y192911D01*
X179850Y192342D01*
X180714Y191984D01*
X181642Y191861D01*
X182569Y191984D01*
X183433Y192342D01*
X184176Y192911D01*
X184745Y193653D01*
X185103Y194517D01*
X185225Y195445D01*
X185103Y196372D01*
X184745Y197237D01*
X184176Y197979D01*
X183433Y198548D01*
X182569Y198906D01*
X181642Y199028D01*
D02*
G37*
G36*
X171642D02*
X170714Y198906D01*
X169850Y198548D01*
X169108Y197979D01*
X168538Y197237D01*
X168180Y196372D01*
X168058Y195445D01*
X168180Y194517D01*
X168538Y193653D01*
X169108Y192911D01*
X169850Y192342D01*
X170714Y191984D01*
X171642Y191861D01*
X172569Y191984D01*
X173433Y192342D01*
X174176Y192911D01*
X174745Y193653D01*
X175103Y194517D01*
X175225Y195445D01*
X175103Y196372D01*
X174745Y197237D01*
X174176Y197979D01*
X173433Y198548D01*
X172569Y198906D01*
X171642Y199028D01*
D02*
G37*
G36*
X165563Y194945D02*
X162142D01*
Y191524D01*
X162674Y191594D01*
X163635Y191992D01*
X164461Y192626D01*
X165094Y193451D01*
X165493Y194413D01*
X165563Y194945D01*
D02*
G37*
G36*
X161142D02*
X157721D01*
X157791Y194413D01*
X158189Y193451D01*
X158823Y192626D01*
X159648Y191992D01*
X160610Y191594D01*
X161142Y191524D01*
Y194945D01*
D02*
G37*
G36*
X295642Y193761D02*
X294947Y193623D01*
X294358Y193229D01*
X294249Y193066D01*
X270142D01*
X269712Y192981D01*
X269349Y192738D01*
X269349Y192738D01*
X240677Y164066D01*
X206106D01*
X204661Y165512D01*
X204819Y165750D01*
X204958Y166445D01*
X204819Y167140D01*
X204426Y167729D01*
X203837Y168123D01*
X203142Y168261D01*
X202447Y168123D01*
X201858Y167729D01*
X201464Y167140D01*
X201326Y166445D01*
X201464Y165750D01*
X201858Y165161D01*
X202130Y164979D01*
X202349Y164652D01*
X204849Y162152D01*
X204849Y162152D01*
X205212Y161909D01*
X205642Y161823D01*
X241142D01*
X241142Y161823D01*
X241571Y161909D01*
X241935Y162152D01*
X270606Y190823D01*
X294249D01*
X294358Y190661D01*
X294947Y190267D01*
X295642Y190129D01*
X296337Y190267D01*
X296926Y190661D01*
X297320Y191250D01*
X297458Y191945D01*
X297320Y192640D01*
X296926Y193229D01*
X296337Y193623D01*
X295642Y193761D01*
D02*
G37*
G36*
X271142Y185261D02*
X270447Y185123D01*
X269858Y184729D01*
X269464Y184140D01*
X269326Y183445D01*
X269364Y183253D01*
X243177Y157066D01*
X205034D01*
X204926Y157229D01*
X204337Y157623D01*
X203642Y157761D01*
X202947Y157623D01*
X202358Y157229D01*
X201964Y156640D01*
X201826Y155945D01*
X201964Y155250D01*
X202358Y154661D01*
X202947Y154267D01*
X203642Y154129D01*
X204337Y154267D01*
X204926Y154661D01*
X205034Y154823D01*
X243642D01*
X243642Y154823D01*
X244071Y154909D01*
X244435Y155152D01*
X270950Y181667D01*
X271142Y181629D01*
X271837Y181767D01*
X272426Y182161D01*
X272819Y182750D01*
X272958Y183445D01*
X272819Y184140D01*
X272426Y184729D01*
X271837Y185123D01*
X271142Y185261D01*
D02*
G37*
G36*
X352642Y188781D02*
X351947Y188642D01*
X351358Y188249D01*
X350964Y187660D01*
X350826Y186965D01*
X350964Y186270D01*
X351358Y185680D01*
X351947Y185287D01*
X352642Y185149D01*
X352834Y185187D01*
X356368Y181652D01*
X356368Y181652D01*
X356732Y181409D01*
X357161Y181323D01*
X357161Y181323D01*
X360249D01*
X360358Y181161D01*
X360947Y180767D01*
X361642Y180629D01*
X362337Y180767D01*
X362926Y181161D01*
X363319Y181750D01*
X363458Y182445D01*
X363319Y183140D01*
X362926Y183729D01*
X362337Y184123D01*
X361642Y184261D01*
X360947Y184123D01*
X360358Y183729D01*
X360249Y183566D01*
X357626D01*
X354420Y186773D01*
X354458Y186965D01*
X354320Y187660D01*
X353926Y188249D01*
X353337Y188642D01*
X352642Y188781D01*
D02*
G37*
G36*
X130642Y254784D02*
X129947Y254646D01*
X129358Y254253D01*
X128964Y253663D01*
X128826Y252969D01*
X128964Y252274D01*
X129358Y251684D01*
X129520Y251576D01*
Y245438D01*
X129520Y245438D01*
X129605Y245009D01*
X129849Y244645D01*
X169342Y205152D01*
X169342Y205152D01*
X169706Y204909D01*
X170135Y204823D01*
X185012D01*
X190520Y199315D01*
Y198826D01*
X189850Y198548D01*
X189108Y197979D01*
X188538Y197237D01*
X188180Y196372D01*
X188058Y195445D01*
X188180Y194517D01*
X188538Y193653D01*
X188946Y193122D01*
X188700Y192622D01*
X186029D01*
X185600Y192536D01*
X185236Y192293D01*
X185236Y192293D01*
X174544Y181601D01*
X174353Y181639D01*
X173658Y181501D01*
X173068Y181107D01*
X172675Y180518D01*
X172537Y179823D01*
X172675Y179129D01*
X173068Y178539D01*
X173658Y178146D01*
X174353Y178007D01*
X175048Y178146D01*
X175637Y178539D01*
X176030Y179129D01*
X176169Y179823D01*
X176130Y180015D01*
X186494Y190378D01*
X191642D01*
X192071Y190464D01*
X192435Y190707D01*
X192678Y191071D01*
X192763Y191500D01*
Y192064D01*
X193433Y192342D01*
X194176Y192911D01*
X194745Y193653D01*
X195103Y194517D01*
X195225Y195445D01*
X195103Y196372D01*
X194825Y197043D01*
X196441Y198658D01*
X199172D01*
X199341Y198158D01*
X199108Y197979D01*
X198538Y197237D01*
X198180Y196372D01*
X198058Y195445D01*
X198180Y194517D01*
X198538Y193653D01*
X199108Y192911D01*
X199850Y192342D01*
X200520Y192064D01*
Y184909D01*
X193849Y178238D01*
X193605Y177874D01*
X193520Y177445D01*
X193520Y177445D01*
Y157838D01*
X193358Y157729D01*
X192964Y157140D01*
X192826Y156445D01*
X192964Y155750D01*
X193358Y155161D01*
X193947Y154767D01*
X194642Y154629D01*
X195337Y154767D01*
X195926Y155161D01*
X196319Y155750D01*
X196458Y156445D01*
X196319Y157140D01*
X195926Y157729D01*
X195763Y157838D01*
Y176980D01*
X202435Y183652D01*
X202435Y183652D01*
X202678Y184016D01*
X202763Y184445D01*
Y192064D01*
X203433Y192342D01*
X204176Y192911D01*
X204745Y193653D01*
X205103Y194517D01*
X205225Y195445D01*
X205103Y196372D01*
X204745Y197237D01*
X204176Y197979D01*
X203942Y198158D01*
X204112Y198658D01*
X208197D01*
X211477Y195378D01*
Y177165D01*
X211477Y177165D01*
X211562Y176736D01*
X211805Y176372D01*
X215414Y172764D01*
Y170684D01*
X215251Y170575D01*
X214858Y169986D01*
X214719Y169291D01*
X214858Y168596D01*
X215251Y168007D01*
X215841Y167614D01*
X216535Y167475D01*
X217230Y167614D01*
X217819Y168007D01*
X218213Y168596D01*
X218351Y169291D01*
X218213Y169986D01*
X217819Y170575D01*
X217657Y170684D01*
Y173228D01*
X217657Y173228D01*
X217572Y173658D01*
X217329Y174021D01*
X217329Y174021D01*
X213720Y177630D01*
Y195843D01*
Y197000D01*
X214211Y197098D01*
X214800Y197492D01*
X215194Y198081D01*
X215332Y198776D01*
X215194Y199470D01*
X214800Y200060D01*
X214211Y200453D01*
X213516Y200592D01*
X212821Y200453D01*
X212232Y200060D01*
X211838Y199470D01*
X211743Y198992D01*
X211223Y198804D01*
X209454Y200573D01*
X209091Y200816D01*
X208661Y200901D01*
X208661Y200901D01*
X195976D01*
X195976Y200901D01*
X195547Y200816D01*
X195183Y200573D01*
X193239Y198629D01*
X192763Y198826D01*
Y199779D01*
X192763Y199779D01*
X192678Y200209D01*
X192435Y200573D01*
X192435Y200573D01*
X186269Y206738D01*
X185906Y206981D01*
X185476Y207066D01*
X185476Y207066D01*
X170600D01*
X131763Y245903D01*
Y251576D01*
X131926Y251684D01*
X132319Y252274D01*
X132458Y252969D01*
X132319Y253663D01*
X131926Y254253D01*
X131337Y254646D01*
X130642Y254784D01*
D02*
G37*
G36*
X266142Y169836D02*
X265447Y169697D01*
X264858Y169304D01*
X264464Y168715D01*
X264326Y168020D01*
X264464Y167325D01*
X264858Y166736D01*
X265447Y166342D01*
X266142Y166204D01*
X266837Y166342D01*
X267426Y166736D01*
X267534Y166898D01*
X282759D01*
X283133Y166492D01*
X283271Y165797D01*
X283665Y165208D01*
X284254Y164814D01*
X284949Y164676D01*
X285644Y164814D01*
X286233Y165208D01*
X286627Y165797D01*
X286765Y166492D01*
X286627Y167187D01*
X286233Y167776D01*
X285644Y168170D01*
X284949Y168308D01*
X284757Y168270D01*
X284214Y168813D01*
X283851Y169056D01*
X283421Y169141D01*
X283421Y169141D01*
X267534D01*
X267426Y169304D01*
X266837Y169697D01*
X266142Y169836D01*
D02*
G37*
G36*
X334642Y153866D02*
Y150445D01*
X338063D01*
X337993Y150977D01*
X337595Y151938D01*
X336961Y152764D01*
X336135Y153398D01*
X335174Y153796D01*
X334642Y153866D01*
D02*
G37*
G36*
X333642D02*
X333110Y153796D01*
X332148Y153398D01*
X331323Y152764D01*
X330689Y151938D01*
X330291Y150977D01*
X330221Y150445D01*
X333642D01*
Y153866D01*
D02*
G37*
G36*
X344142Y153528D02*
X343214Y153406D01*
X342350Y153048D01*
X341608Y152479D01*
X341038Y151737D01*
X340680Y150872D01*
X340558Y149945D01*
X340680Y149017D01*
X341038Y148153D01*
X341608Y147411D01*
X342350Y146842D01*
X343214Y146484D01*
X344142Y146361D01*
X345069Y146484D01*
X345933Y146842D01*
X346676Y147411D01*
X347245Y148153D01*
X347603Y149017D01*
X347725Y149945D01*
X347603Y150872D01*
X347245Y151737D01*
X346676Y152479D01*
X345933Y153048D01*
X345069Y153406D01*
X344142Y153528D01*
D02*
G37*
G36*
X324142D02*
X323214Y153406D01*
X322350Y153048D01*
X321608Y152479D01*
X321038Y151737D01*
X320680Y150872D01*
X320558Y149945D01*
X320680Y149017D01*
X321038Y148153D01*
X321608Y147411D01*
X322350Y146842D01*
X323214Y146484D01*
X324142Y146361D01*
X325069Y146484D01*
X325933Y146842D01*
X326676Y147411D01*
X327245Y148153D01*
X327603Y149017D01*
X327725Y149945D01*
X327603Y150872D01*
X327245Y151737D01*
X326676Y152479D01*
X325933Y153048D01*
X325069Y153406D01*
X324142Y153528D01*
D02*
G37*
G36*
X338063Y149445D02*
X334642D01*
Y146024D01*
X335174Y146094D01*
X336135Y146492D01*
X336961Y147126D01*
X337595Y147951D01*
X337993Y148913D01*
X338063Y149445D01*
D02*
G37*
G36*
X333642D02*
X330221D01*
X330291Y148913D01*
X330689Y147951D01*
X331323Y147126D01*
X332148Y146492D01*
X333110Y146094D01*
X333642Y146024D01*
Y149445D01*
D02*
G37*
G36*
X241142Y143956D02*
X240368Y143854D01*
X239648Y143556D01*
X239029Y143081D01*
X238554Y142462D01*
X238256Y141742D01*
X238154Y140969D01*
X238256Y140195D01*
X238554Y139475D01*
X239029Y138856D01*
X239648Y138381D01*
X240368Y138083D01*
X241142Y137981D01*
X241915Y138083D01*
X242636Y138381D01*
X243254Y138856D01*
X243729Y139475D01*
X244028Y140195D01*
X244129Y140969D01*
X244028Y141742D01*
X243729Y142462D01*
X243254Y143081D01*
X242636Y143556D01*
X241915Y143854D01*
X241142Y143956D01*
D02*
G37*
G36*
X197642Y139611D02*
X196947Y139473D01*
X196358Y139079D01*
X195964Y138490D01*
X195826Y137795D01*
X195864Y137603D01*
X193346Y135086D01*
X170684D01*
X170575Y135249D01*
X169986Y135642D01*
X169291Y135781D01*
X168596Y135642D01*
X168007Y135249D01*
X167614Y134660D01*
X167475Y133965D01*
X167614Y133270D01*
X168007Y132680D01*
X168596Y132287D01*
X169291Y132149D01*
X169986Y132287D01*
X170575Y132680D01*
X170684Y132843D01*
X193811D01*
X193811Y132843D01*
X194240Y132928D01*
X194604Y133171D01*
X197450Y136017D01*
X197642Y135979D01*
X198337Y136117D01*
X198926Y136511D01*
X199320Y137100D01*
X199458Y137795D01*
X199320Y138490D01*
X198926Y139079D01*
X198337Y139473D01*
X197642Y139611D01*
D02*
G37*
G36*
X350642Y130761D02*
X349947Y130623D01*
X349358Y130229D01*
X349249Y130066D01*
X343142D01*
X343142Y130066D01*
X342712Y129981D01*
X342349Y129738D01*
X342349Y129738D01*
X341334Y128723D01*
X341142Y128761D01*
X340447Y128623D01*
X339858Y128229D01*
X339464Y127640D01*
X339326Y126945D01*
X339464Y126250D01*
X339858Y125661D01*
X340020Y125552D01*
Y93551D01*
X340020Y93551D01*
X340106Y93122D01*
X340349Y92758D01*
X343813Y89294D01*
X343775Y89102D01*
X343913Y88407D01*
X344307Y87818D01*
X344896Y87424D01*
X345591Y87286D01*
X346286Y87424D01*
X346875Y87818D01*
X347269Y88407D01*
X347407Y89102D01*
X347269Y89797D01*
X346875Y90386D01*
X346286Y90780D01*
X345591Y90918D01*
X345399Y90880D01*
X342263Y94016D01*
Y125552D01*
X342426Y125661D01*
X342819Y126250D01*
X342958Y126945D01*
X342920Y127137D01*
X343606Y127823D01*
X349249D01*
X349358Y127661D01*
X349947Y127267D01*
X350642Y127129D01*
X351337Y127267D01*
X351926Y127661D01*
X352320Y128250D01*
X352458Y128945D01*
X352320Y129640D01*
X351926Y130229D01*
X351337Y130623D01*
X350642Y130761D01*
D02*
G37*
G36*
X148642Y160261D02*
X147947Y160123D01*
X147358Y159729D01*
X146964Y159140D01*
X146826Y158445D01*
X146964Y157750D01*
X147358Y157161D01*
X147947Y156767D01*
X148485Y156660D01*
Y146802D01*
X148322Y146694D01*
X147929Y146104D01*
X147790Y145409D01*
X147929Y144714D01*
X148322Y144125D01*
X148485Y144017D01*
Y130386D01*
X141924Y123825D01*
X141732Y123863D01*
X141037Y123725D01*
X140448Y123331D01*
X140055Y122742D01*
X139916Y122047D01*
X140055Y121352D01*
X140448Y120763D01*
X141037Y120370D01*
X141732Y120231D01*
X141924Y120269D01*
X160624Y101569D01*
X160988Y101326D01*
X161417Y101241D01*
X161417Y101241D01*
X172764D01*
X179868Y94137D01*
X179830Y93945D01*
X179968Y93250D01*
X180362Y92661D01*
X180951Y92267D01*
X181646Y92129D01*
X182341Y92267D01*
X182930Y92661D01*
X183323Y93250D01*
X183462Y93945D01*
X183323Y94640D01*
X182930Y95229D01*
X182341Y95623D01*
X181646Y95761D01*
X181454Y95723D01*
X174021Y103155D01*
X173658Y103398D01*
X173228Y103484D01*
X173228Y103484D01*
X161882D01*
X143510Y121855D01*
X143548Y122047D01*
X143510Y122239D01*
X150399Y129128D01*
X150399Y129128D01*
X150643Y129492D01*
X150728Y129921D01*
X150728Y129921D01*
Y144017D01*
X150890Y144125D01*
X151284Y144714D01*
X151422Y145409D01*
X151284Y146104D01*
X150890Y146694D01*
X150728Y146802D01*
Y157480D01*
X150728Y157480D01*
X150643Y157910D01*
X150418Y158245D01*
X150458Y158445D01*
X150320Y159140D01*
X149926Y159729D01*
X149337Y160123D01*
X148642Y160261D01*
D02*
G37*
G36*
X220472Y127611D02*
X219777Y127473D01*
X219188Y127079D01*
X218795Y126490D01*
X218656Y125795D01*
X218795Y125100D01*
X219188Y124511D01*
X219777Y124117D01*
X220472Y123979D01*
X220664Y124017D01*
X239175Y105506D01*
X239175Y105506D01*
X239539Y105263D01*
X239968Y105178D01*
X249740D01*
X252364Y102554D01*
X252326Y102362D01*
X252464Y101667D01*
X252858Y101078D01*
X253447Y100684D01*
X254142Y100546D01*
X254837Y100684D01*
X255426Y101078D01*
X255820Y101667D01*
X255958Y102362D01*
X255820Y103057D01*
X255426Y103646D01*
X254837Y104040D01*
X254142Y104178D01*
X253950Y104140D01*
X250998Y107092D01*
X250634Y107335D01*
X250205Y107421D01*
X250205Y107421D01*
X240433D01*
X222250Y125603D01*
X222288Y125795D01*
X222150Y126490D01*
X221757Y127079D01*
X221167Y127473D01*
X220472Y127611D01*
D02*
G37*
G36*
X413886Y81020D02*
Y71366D01*
X423539D01*
X423392Y72857D01*
X422812Y74770D01*
X421869Y76534D01*
X420600Y78080D01*
X419054Y79349D01*
X417290Y80292D01*
X415376Y80873D01*
X413886Y81020D01*
D02*
G37*
G36*
X412886D02*
X411395Y80873D01*
X409481Y80292D01*
X407718Y79349D01*
X406172Y78080D01*
X404903Y76534D01*
X403960Y74770D01*
X403379Y72857D01*
X403232Y71366D01*
X412886D01*
Y81020D01*
D02*
G37*
G36*
X79240D02*
Y71366D01*
X88894D01*
X88747Y72857D01*
X88166Y74770D01*
X87223Y76534D01*
X85954Y78080D01*
X84408Y79349D01*
X82645Y80292D01*
X80731Y80873D01*
X79240Y81020D01*
D02*
G37*
G36*
X78240D02*
X76750Y80873D01*
X74836Y80292D01*
X73072Y79349D01*
X71526Y78080D01*
X70257Y76534D01*
X69314Y74770D01*
X68734Y72857D01*
X68587Y71366D01*
X78240D01*
Y81020D01*
D02*
G37*
G36*
X423539Y70366D02*
X413886D01*
Y60713D01*
X415376Y60860D01*
X417290Y61440D01*
X419054Y62383D01*
X420600Y63652D01*
X421869Y65198D01*
X422812Y66962D01*
X423392Y68876D01*
X423539Y70366D01*
D02*
G37*
G36*
X412886D02*
X403232D01*
X403379Y68876D01*
X403960Y66962D01*
X404903Y65198D01*
X406172Y63652D01*
X407718Y62383D01*
X409481Y61440D01*
X411395Y60860D01*
X412886Y60713D01*
Y70366D01*
D02*
G37*
G36*
X88894D02*
X79240D01*
Y60713D01*
X80731Y60860D01*
X82645Y61440D01*
X84408Y62383D01*
X85954Y63652D01*
X87223Y65198D01*
X88166Y66962D01*
X88747Y68876D01*
X88894Y70366D01*
D02*
G37*
G36*
X78240D02*
X68587D01*
X68734Y68876D01*
X69314Y66962D01*
X70257Y65198D01*
X71526Y63652D01*
X73072Y62383D01*
X74836Y61440D01*
X76750Y60860D01*
X78240Y60713D01*
Y70366D01*
D02*
G37*
%LPD*%
G36*
X93932Y373235D02*
X94716Y372711D01*
X95642Y372527D01*
X96567Y372711D01*
X96710Y372807D01*
X97029Y372418D01*
X92016Y367405D01*
X86337D01*
X86213Y367683D01*
X86198Y367905D01*
X86754Y368332D01*
X87229Y368951D01*
X87528Y369672D01*
X87629Y370445D01*
X87528Y371218D01*
X87313Y371737D01*
X87637Y372178D01*
X87643Y372181D01*
X87722Y372165D01*
X88151Y372251D01*
X88515Y372494D01*
X89844Y373823D01*
X93539D01*
X93932Y373235D01*
D02*
G37*
G36*
X328507Y196824D02*
X330567Y194764D01*
Y182078D01*
X330405Y181969D01*
X330011Y181380D01*
X329873Y180685D01*
X329917Y180463D01*
X329456Y180216D01*
X327763Y181909D01*
Y194052D01*
X327926Y194161D01*
X328320Y194750D01*
X328458Y195445D01*
X328320Y196140D01*
X328167Y196368D01*
X328236Y196555D01*
X328461Y196828D01*
X328507Y196824D01*
D02*
G37*
%LPC*%
G36*
X91000Y183624D02*
X90649Y183554D01*
X89928Y183072D01*
X89626Y182622D01*
X86141D01*
X85493Y183054D01*
X85142Y183124D01*
Y181000D01*
Y178876D01*
X85493Y178946D01*
X86214Y179428D01*
X86696Y180149D01*
X86742Y180378D01*
X89626D01*
X89928Y179928D01*
X90649Y179446D01*
X91000Y179376D01*
Y181500D01*
Y183624D01*
D02*
G37*
G36*
X92000D02*
Y182000D01*
X93624D01*
X93555Y182351D01*
X93072Y183072D01*
X92351Y183554D01*
X92000Y183624D01*
D02*
G37*
G36*
X84142Y183124D02*
X83791Y183054D01*
X83069Y182572D01*
X82587Y181851D01*
X82517Y181500D01*
X84142D01*
Y183124D01*
D02*
G37*
G36*
X93624Y181000D02*
X92000D01*
Y179376D01*
X92351Y179446D01*
X93072Y179928D01*
X93555Y180649D01*
X93624Y181000D01*
D02*
G37*
G36*
X84142Y180500D02*
X82517D01*
X82587Y180149D01*
X83069Y179428D01*
X83791Y178946D01*
X84142Y178876D01*
Y180500D01*
D02*
G37*
%LPD*%
D12*
X269967Y133270D02*
X316976Y180279D01*
X253935Y133270D02*
X269967D01*
X85212Y373999D02*
Y375796D01*
X84642Y373429D02*
X85212Y373999D01*
X84642Y373429D02*
Y376108D01*
Y370445D02*
Y373429D01*
Y376108D02*
X85212Y376679D01*
Y375796D02*
X87722Y373287D01*
X91435Y380738D02*
X115642Y404945D01*
X78935Y380738D02*
X91435D01*
X74642Y376445D02*
X78935Y380738D01*
X170135Y205945D02*
X185476D01*
X130642Y245438D02*
X170135Y205945D01*
X130642Y245438D02*
Y252969D01*
X75736Y357606D02*
Y359814D01*
X82205Y366284D01*
X92480D01*
X111142Y384945D01*
X191642Y191500D02*
Y195445D01*
X195976Y199779D01*
X208661D01*
X186029Y191500D02*
X191642D01*
X174353Y179823D02*
X186029Y191500D01*
X139500Y287209D02*
Y299000D01*
Y286910D02*
Y287209D01*
X84642Y181000D02*
X85142Y181500D01*
X91500D01*
X335500Y178626D02*
X369327D01*
X369453Y178500D01*
X370142Y179189D01*
X87722Y373287D02*
X89380Y374945D01*
X95642D01*
X316976Y180279D02*
X322000D01*
X144000Y388500D02*
X145000Y389500D01*
X149000D01*
X151000Y391500D01*
Y396500D01*
X154000Y399500D01*
X170000D01*
X179500Y409000D01*
X202079D01*
X212579Y419500D01*
X229555D01*
X239555Y429500D01*
X350500D02*
X352000Y428000D01*
X239555Y429500D02*
X350500D01*
X368587Y431500D02*
X383642Y416445D01*
X236697Y431500D02*
X368587D01*
X228079Y422882D02*
X236697Y431500D01*
X352000Y428000D02*
X367000D01*
X379142Y415858D01*
Y392358D02*
Y415858D01*
X326000Y338098D02*
Y343500D01*
X320000Y349500D02*
X326000Y343500D01*
X320000Y349500D02*
Y367500D01*
X308500Y379000D02*
X320000Y367500D01*
X306500Y379000D02*
X308500D01*
X301500Y384000D02*
X306500Y379000D01*
X301500Y384000D02*
Y387000D01*
X301000Y387500D02*
X301500Y387000D01*
X349642Y399945D02*
Y404945D01*
X348142Y406445D02*
X349642Y404945D01*
X348142Y406445D02*
Y423445D01*
X303142Y424445D02*
X305697Y427000D01*
X341000D01*
X344555Y423445D01*
X348142D01*
X320142Y398445D02*
Y407445D01*
X303142Y424445D02*
X320142Y407445D01*
X352642Y198776D02*
X392642D01*
X341142Y93551D02*
X345591Y89102D01*
X341142Y93551D02*
Y126945D01*
X250205Y106299D02*
X254142Y102362D01*
X239968Y106299D02*
X250205D01*
X220472Y125795D02*
X239968Y106299D01*
X266142Y168020D02*
X283421D01*
X284949Y166492D01*
X254142Y186803D02*
X255906Y185039D01*
X254142Y186803D02*
Y192280D01*
X243122Y203299D02*
X254142Y192280D01*
X341142Y126945D02*
X343142Y128945D01*
X350642D01*
X352772Y149945D02*
X354142D01*
X340272Y162445D02*
X352772Y149945D01*
X315299Y200787D02*
X321142Y194945D01*
X307909Y208177D02*
X315299Y200787D01*
X331689Y180685D02*
Y195228D01*
Y180445D02*
Y180685D01*
X315299Y200787D02*
X326130D01*
X331689Y195228D01*
X360307Y149945D02*
X364142D01*
X333307Y176945D02*
X360307Y149945D01*
X331142Y176945D02*
X333307D01*
X299213Y208177D02*
X307909D01*
X212598Y197858D02*
X213516Y198776D01*
X212598Y195843D02*
Y197858D01*
X213516Y198776D02*
Y199169D01*
X173228Y102362D02*
X181646Y93945D01*
X161417Y102362D02*
X173228D01*
X141732Y122047D02*
X161417Y102362D01*
X193811Y133965D02*
X197642Y137795D01*
X169291Y133965D02*
X193811D01*
X216535Y169291D02*
Y173228D01*
X212598Y177165D02*
X216535Y173228D01*
X212598Y177165D02*
Y195843D01*
X208661Y199779D02*
X212598Y195843D01*
X191642Y195445D02*
Y199779D01*
X185476Y205945D02*
X191642Y199779D01*
X141732Y122047D02*
X149606Y129921D01*
Y145409D01*
Y157480D01*
X148642Y158445D02*
X149606Y157480D01*
X98425Y178945D02*
X100205D01*
X103642Y182382D01*
Y191945D01*
X90551Y205035D02*
Y236221D01*
Y205035D02*
X103642Y191945D01*
X375642Y228945D02*
X376642Y229945D01*
X362642Y228945D02*
X375642D01*
X357642Y233945D02*
X362642Y228945D01*
X349642Y233945D02*
X357642D01*
X343142Y227445D02*
X349642Y233945D01*
X311642Y227445D02*
X343142D01*
X290642D02*
X311642D01*
X282142Y235945D02*
X290642Y227445D01*
X282142Y235945D02*
Y264945D01*
X250642Y296445D02*
X282142Y264945D01*
X278142Y398445D02*
X283642D01*
X307516Y374571D01*
X308642D01*
Y365398D02*
X311094Y362945D01*
X308642Y365398D02*
Y374571D01*
X302142Y296445D02*
X320142Y314445D01*
X250642Y296445D02*
X302142D01*
X389135Y374945D02*
Y379451D01*
X383642Y384945D02*
X389135Y379451D01*
X383642Y384945D02*
Y416445D01*
X219142Y422882D02*
X228079D01*
X169642Y320445D02*
Y327445D01*
X173642Y331445D01*
Y339445D01*
X181642Y342445D02*
X184642Y345445D01*
X176642Y342445D02*
X181642D01*
X173642Y339445D02*
X176642Y342445D01*
X161736Y324228D02*
Y340445D01*
X161642Y324134D02*
X161736Y324228D01*
X161642Y324134D02*
X161736Y324039D01*
X330985Y216945D02*
X332106Y215823D01*
X161642Y323945D02*
X161736Y324039D01*
X119142Y338445D02*
X124689Y343992D01*
X92142Y338445D02*
X119142D01*
X225142Y227945D02*
X241642Y211445D01*
X340142D01*
X341142Y212445D01*
X232142Y205945D02*
X295606D01*
X217642Y191445D02*
X232142Y205945D01*
X84642Y389945D02*
Y393945D01*
X95642Y404945D01*
X321142Y161445D02*
X322642Y162945D01*
X315642Y161445D02*
X321142D01*
X278642Y124445D02*
X315642Y161445D01*
X271689Y124445D02*
X278642D01*
X266142Y118898D02*
X271689Y124445D01*
X357161Y182445D02*
X361642D01*
X352642Y186965D02*
X357161Y182445D01*
X246642Y142445D02*
X269642D01*
X311094Y183898D01*
X322642D01*
X248142Y127142D02*
X272945D01*
X273142Y126945D01*
X325142Y178945D01*
X231642Y274445D02*
X234142D01*
X219642Y286445D02*
X231642Y274445D01*
X219642Y286445D02*
Y314445D01*
X208642Y325445D02*
X219642Y314445D01*
X326642Y181445D02*
Y195445D01*
Y181445D02*
X331142Y176945D01*
X332106Y215823D02*
Y216339D01*
X234142Y274445D02*
X285142Y223445D01*
X329122D01*
X333122Y219445D01*
X268642Y216945D02*
X330985D01*
X161642Y323945D02*
X268642Y216945D01*
X134642Y338445D02*
X259142Y213945D01*
X329142D01*
X60642Y351398D02*
X77642Y334398D01*
Y271945D02*
Y334398D01*
X60642Y351398D02*
Y383945D01*
X318642Y139945D02*
X370642D01*
X316142Y142445D02*
X318642Y139945D01*
X370642D02*
X392642Y161945D01*
X371661Y344492D02*
Y349378D01*
X359095Y361945D02*
X371661Y349378D01*
X331142Y332945D02*
X342189Y343992D01*
X356842D01*
X116142Y188445D02*
X146642D01*
X102142Y202445D02*
X116142Y188445D01*
X201642Y184445D02*
Y195445D01*
X194642Y156445D02*
Y177445D01*
X201642Y184445D01*
X183642Y151445D02*
X254142D01*
X146642Y188445D02*
X183642Y151445D01*
X203642Y155945D02*
X243642D01*
X271142Y183445D01*
X241142Y162945D02*
X270142Y191945D01*
X205642Y162945D02*
X241142D01*
X203142Y165445D02*
X205642Y162945D01*
X203142Y165445D02*
Y166445D01*
X217642Y177445D02*
Y191445D01*
X270142Y191945D02*
X295642D01*
X316142Y142445D02*
Y154445D01*
X320642Y158945D01*
X327474D01*
X392642Y161945D02*
Y162445D01*
X197642Y415445D02*
X205079Y422882D01*
X219142D01*
X91642Y414945D02*
X95642D01*
X60642Y383945D02*
X91642Y414945D01*
X192142Y420945D02*
X197642Y415445D01*
X156142Y420945D02*
X192142D01*
X149642Y414445D02*
X156142Y420945D01*
X146642Y414445D02*
X149642D01*
X304142Y386531D02*
Y401945D01*
X293142Y412945D02*
X304142Y401945D01*
X293142Y412945D02*
Y424445D01*
X325142Y379945D02*
X328142Y382945D01*
Y399945D01*
X338142Y409945D01*
Y423445D01*
X325642Y350945D02*
X328642Y353945D01*
Y364945D01*
X331689Y367992D01*
Y372398D01*
X332642Y361945D02*
X359095D01*
X111142Y384945D02*
X164642D01*
X180642Y400945D01*
X203142D01*
X217642Y415445D01*
X156642Y324945D02*
Y371571D01*
X153642Y374571D02*
X156642Y371571D01*
X198642Y382445D02*
X203705Y377382D01*
X162142Y382445D02*
X198642D01*
X154268Y374571D02*
X162142Y382445D01*
X153642Y374571D02*
X154268D01*
X148268Y379945D02*
X153642Y374571D01*
X136642Y379945D02*
X148268D01*
D80*
X115642Y394945D02*
D03*
Y404945D02*
D03*
Y414945D02*
D03*
X95642D02*
D03*
Y404945D02*
D03*
Y394945D02*
D03*
Y374945D02*
D03*
X115642D02*
D03*
X217642Y375445D02*
D03*
X197642D02*
D03*
Y395445D02*
D03*
Y405445D02*
D03*
Y415445D02*
D03*
X217642D02*
D03*
Y405445D02*
D03*
Y395445D02*
D03*
X166642Y374445D02*
D03*
X146642D02*
D03*
Y394445D02*
D03*
Y404445D02*
D03*
Y414445D02*
D03*
X166642D02*
D03*
Y404445D02*
D03*
Y394445D02*
D03*
D81*
X84642Y370445D02*
D03*
X183642Y363398D02*
D03*
X138142Y372445D02*
D03*
X164642Y219225D02*
D03*
X238142Y313945D02*
D03*
X366142Y421945D02*
D03*
X261642Y424945D02*
D03*
X241142Y140969D02*
D03*
X244142Y126445D02*
D03*
X249142Y133945D02*
D03*
D82*
X55118Y318898D02*
D03*
X78740Y70866D02*
D03*
X413386D02*
D03*
Y307087D02*
D03*
D83*
X303142Y423445D02*
D03*
X293142D02*
D03*
X283142D02*
D03*
X348142D02*
D03*
X338142D02*
D03*
X328142D02*
D03*
D84*
X364142Y149945D02*
D03*
X354142D02*
D03*
X344142D02*
D03*
X334142D02*
D03*
X324142D02*
D03*
X201642Y195445D02*
D03*
X191642D02*
D03*
X181642D02*
D03*
X171642D02*
D03*
X161642D02*
D03*
X235142Y375760D02*
D03*
Y415130D02*
D03*
X130142Y375760D02*
D03*
Y415130D02*
D03*
X180642Y376760D02*
D03*
Y416130D02*
D03*
D85*
X225142Y287000D02*
D03*
Y227945D02*
D03*
D86*
X253935Y133270D02*
D03*
X85212Y376679D02*
D03*
X317913Y193996D02*
D03*
X174353Y179823D02*
D03*
X139500Y287209D02*
D03*
X84642Y181000D02*
D03*
X139500Y299000D02*
D03*
X335500Y178626D02*
D03*
X322000Y180279D02*
D03*
X91500Y181500D02*
D03*
X295606Y205945D02*
D03*
X144000Y388500D02*
D03*
X379142Y392358D02*
D03*
X326000Y338098D02*
D03*
X301000Y387500D02*
D03*
X349642Y399945D02*
D03*
X320142Y398445D02*
D03*
X352642Y198776D02*
D03*
X392642D02*
D03*
X345591Y89102D02*
D03*
X254142Y102362D02*
D03*
X220472Y125795D02*
D03*
X266142Y168020D02*
D03*
X284949Y166492D02*
D03*
X255906Y185039D02*
D03*
X243122Y203299D02*
D03*
X341142Y126945D02*
D03*
X350642Y128945D02*
D03*
X340272Y162445D02*
D03*
X331689Y180685D02*
D03*
X370142Y179189D02*
D03*
X321142Y194945D02*
D03*
X299213Y208177D02*
D03*
X213516Y198776D02*
D03*
X181646Y93945D02*
D03*
X197642Y137795D02*
D03*
X169291Y133965D02*
D03*
X216535Y169291D02*
D03*
X130642Y252969D02*
D03*
X141732Y122047D02*
D03*
X149606Y145409D02*
D03*
X148642Y158445D02*
D03*
X98425Y178945D02*
D03*
X90551Y236221D02*
D03*
X103642Y191945D02*
D03*
X75736Y357606D02*
D03*
X376642Y229945D02*
D03*
X349642Y233945D02*
D03*
X311642Y227445D02*
D03*
X278142Y398445D02*
D03*
X311094Y362945D02*
D03*
X308642Y374571D02*
D03*
X320142Y314445D02*
D03*
X250642Y296445D02*
D03*
X389135Y374945D02*
D03*
X169642Y320445D02*
D03*
X184642Y345445D02*
D03*
X173642Y339445D02*
D03*
X161736Y340445D02*
D03*
X124689Y343992D02*
D03*
X92142Y338445D02*
D03*
X341142Y212445D02*
D03*
X84642Y389945D02*
D03*
X322642Y162945D02*
D03*
X266142Y118898D02*
D03*
X361642Y182445D02*
D03*
X352642Y186965D02*
D03*
X246642Y142445D02*
D03*
X322642Y183898D02*
D03*
X248142Y127142D02*
D03*
X325142Y178945D02*
D03*
X326642Y195445D02*
D03*
X332106Y216339D02*
D03*
X208642Y325445D02*
D03*
X333122Y219445D02*
D03*
X134642Y338445D02*
D03*
X329142Y213945D02*
D03*
X77642Y271945D02*
D03*
X74642Y376445D02*
D03*
X371661Y344492D02*
D03*
X356842Y343992D02*
D03*
X102142Y202445D02*
D03*
X194642Y156445D02*
D03*
X254142Y151445D02*
D03*
X203642Y155945D02*
D03*
X203142Y166445D02*
D03*
X271142Y183445D02*
D03*
X217642Y177445D02*
D03*
X327474Y158945D02*
D03*
X392642Y162445D02*
D03*
X219142Y422882D02*
D03*
X295642Y191945D02*
D03*
X304142Y386531D02*
D03*
X325142Y379945D02*
D03*
X325642Y350945D02*
D03*
X331689Y372398D02*
D03*
X332642Y361945D02*
D03*
X331142Y332945D02*
D03*
X156642Y324945D02*
D03*
X203705Y377382D02*
D03*
X153642Y374571D02*
D03*
X136642Y379945D02*
D03*
M02*
