G04*
G04 #@! TF.GenerationSoftware,Altium Limited,Altium Designer,19.0.14 (431)*
G04*
G04 Layer_Color=65535*
%FSLAX25Y25*%
%MOIN*%
G70*
G01*
G75*
%ADD10C,0.00984*%
%ADD11C,0.02362*%
%ADD12C,0.01000*%
%ADD13C,0.00500*%
%ADD14C,0.00591*%
%ADD15C,0.00600*%
%ADD16C,0.00787*%
D10*
X338221Y399031D02*
X337482Y399458D01*
Y398605D01*
X338221Y399031D01*
X276949Y361221D02*
X276211Y361647D01*
Y360794D01*
X276949Y361221D01*
X93410Y220130D02*
X92671Y220556D01*
Y219704D01*
X93410Y220130D01*
X350284Y247126D02*
X349545Y247552D01*
Y246700D01*
X350284Y247126D01*
X318898Y242626D02*
X318160Y243052D01*
Y242200D01*
X318898Y242626D01*
X291122Y154693D02*
X290384Y155119D01*
Y154267D01*
X291122Y154693D01*
X257949Y153173D02*
X257211Y153599D01*
Y152747D01*
X257949Y153173D01*
X172882Y128110D02*
X172144Y128536D01*
Y127684D01*
X172882Y128110D01*
X87122Y188205D02*
X86384Y188631D01*
Y187778D01*
X87122Y188205D01*
X383079Y244894D02*
X382341Y245320D01*
Y244467D01*
X383079Y244894D01*
X339122Y135602D02*
X338384Y136028D01*
Y135176D01*
X339122Y135602D01*
X342039Y204114D02*
X341301Y204540D01*
Y203688D01*
X342039Y204114D01*
X363906Y362291D02*
X363167Y362718D01*
Y361865D01*
X363906Y362291D01*
D11*
X176917Y136772D02*
X176473Y137695D01*
X175473Y137923D01*
X174672Y137284D01*
Y136259D01*
X175473Y135620D01*
X176473Y135848D01*
X176917Y136772D01*
X335642Y194468D02*
X335197Y195392D01*
X334198Y195620D01*
X333397Y194981D01*
Y193956D01*
X334198Y193317D01*
X335197Y193545D01*
X335642Y194468D01*
X372867Y357424D02*
X372422Y358348D01*
X371423Y358576D01*
X370622Y357937D01*
Y356912D01*
X371423Y356273D01*
X372422Y356501D01*
X372867Y357424D01*
D12*
X276323Y257472D02*
X276313Y258471D01*
X276284Y259469D01*
X276235Y260467D01*
X276167Y261463D01*
X276079Y262458D01*
X275972Y263451D01*
X275846Y264442D01*
X275700Y265430D01*
X275536Y266415D01*
X275352Y267396D01*
X275148Y268374D01*
X274926Y269348D01*
X274685Y270317D01*
X274425Y271281D01*
X274146Y272240D01*
X273849Y273193D01*
X273533Y274141D01*
X273198Y275082D01*
X272845Y276016D01*
X272475Y276943D01*
X272086Y277863D01*
X271679Y278775D01*
X271254Y279679D01*
X270812Y280575D01*
X270353Y281461D01*
X269876Y282339D01*
X269382Y283207D01*
X268872Y284065D01*
X268345Y284913D01*
X267801Y285751D01*
X267241Y286578D01*
X266665Y287394D01*
X266073Y288199D01*
X265466Y288991D01*
X264844Y289772D01*
X264206Y290541D01*
X263553Y291297D01*
X262886Y292040D01*
X262204Y292770D01*
X261508Y293486D01*
X260799Y294189D01*
X260076Y294877D01*
X259339Y295552D01*
X258590Y296212D01*
X257827Y296857D01*
X257053Y297487D01*
X256266Y298102D01*
X255467Y298702D01*
X254657Y299286D01*
X253835Y299854D01*
X253003Y300406D01*
X252160Y300941D01*
X251307Y301460D01*
X250444Y301962D01*
X249571Y302447D01*
X248688Y302915D01*
X247797Y303366D01*
X246898Y303800D01*
X245989Y304215D01*
X245073Y304613D01*
X244150Y304993D01*
X243219Y305355D01*
X242281Y305698D01*
X241337Y306024D01*
X240387Y306330D01*
X239430Y306618D01*
X238469Y306888D01*
X237502Y307139D01*
X236531Y307370D01*
X235555Y307583D01*
X234575Y307777D01*
X233592Y307951D01*
X232605Y308106D01*
X231616Y308242D01*
X230624Y308359D01*
X229630Y308456D01*
X228635Y308534D01*
X227638Y308593D01*
X226640Y308632D01*
X225641Y308651D01*
X224642D01*
X223644Y308632D01*
X222646Y308593D01*
X221649Y308534D01*
X220653Y308456D01*
X219659Y308359D01*
X218668Y308242D01*
X217678Y308106D01*
X216692Y307951D01*
X215708Y307777D01*
X214729Y307583D01*
X213753Y307370D01*
X212782Y307139D01*
X211815Y306888D01*
X210853Y306619D01*
X209897Y306330D01*
X208946Y306024D01*
X208002Y305698D01*
X207065Y305355D01*
X206134Y304993D01*
X205210Y304613D01*
X204294Y304215D01*
X203386Y303800D01*
X202486Y303366D01*
X201595Y302915D01*
X200713Y302447D01*
X199840Y301962D01*
X198977Y301460D01*
X198124Y300941D01*
X197281Y300406D01*
X196448Y299854D01*
X195627Y299286D01*
X194816Y298702D01*
X194018Y298102D01*
X193231Y297487D01*
X192456Y296857D01*
X191694Y296212D01*
X190945Y295552D01*
X190208Y294878D01*
X189485Y294189D01*
X188775Y293486D01*
X188079Y292770D01*
X187398Y292040D01*
X186731Y291297D01*
X186078Y290541D01*
X185440Y289772D01*
X184817Y288991D01*
X184210Y288199D01*
X183618Y287394D01*
X183042Y286578D01*
X182483Y285751D01*
X181939Y284914D01*
X181412Y284065D01*
X180901Y283207D01*
X180407Y282339D01*
X179931Y281461D01*
X179471Y280575D01*
X179029Y279679D01*
X178605Y278775D01*
X178198Y277863D01*
X177809Y276943D01*
X177438Y276016D01*
X177085Y275082D01*
X176751Y274141D01*
X176435Y273193D01*
X176137Y272240D01*
X175859Y271281D01*
X175599Y270317D01*
X175357Y269348D01*
X175135Y268374D01*
X174932Y267396D01*
X174748Y266415D01*
X174583Y265430D01*
X174437Y264442D01*
X174311Y263451D01*
X174204Y262458D01*
X174117Y261463D01*
X174048Y260467D01*
X174000Y259470D01*
X173970Y258471D01*
X173961Y257473D01*
X173970Y256474D01*
X174000Y255476D01*
X174048Y254478D01*
X174116Y253482D01*
X174204Y252487D01*
X174311Y251494D01*
X174437Y250503D01*
X174583Y249515D01*
X174748Y248530D01*
X174932Y247549D01*
X175135Y246571D01*
X175357Y245597D01*
X175599Y244628D01*
X175858Y243664D01*
X176137Y242705D01*
X176435Y241752D01*
X176751Y240804D01*
X177085Y239863D01*
X177438Y238929D01*
X177809Y238002D01*
X178198Y237082D01*
X178605Y236170D01*
X179029Y235266D01*
X179471Y234370D01*
X179931Y233484D01*
X180407Y232606D01*
X180901Y231738D01*
X181412Y230880D01*
X181939Y230031D01*
X182482Y229194D01*
X183042Y228367D01*
X183618Y227551D01*
X184210Y226746D01*
X184817Y225954D01*
X185440Y225173D01*
X186078Y224404D01*
X186730Y223648D01*
X187398Y222905D01*
X188079Y222176D01*
X188775Y221459D01*
X189485Y220756D01*
X190208Y220068D01*
X190944Y219393D01*
X191694Y218733D01*
X192456Y218088D01*
X193231Y217458D01*
X194018Y216843D01*
X194816Y216243D01*
X195626Y215659D01*
X196448Y215091D01*
X197280Y214539D01*
X198123Y214004D01*
X198977Y213485D01*
X199840Y212983D01*
X200713Y212498D01*
X201595Y212030D01*
X202486Y211579D01*
X203386Y211145D01*
X204294Y210730D01*
X205210Y210332D01*
X206134Y209952D01*
X207064Y209590D01*
X208002Y209246D01*
X208946Y208921D01*
X209897Y208615D01*
X210853Y208326D01*
X211814Y208057D01*
X212781Y207806D01*
X213753Y207575D01*
X214728Y207362D01*
X215708Y207168D01*
X216691Y206994D01*
X217678Y206838D01*
X218667Y206702D01*
X219659Y206586D01*
X220653Y206488D01*
X221649Y206411D01*
X222646Y206352D01*
X223644Y206313D01*
X224642Y206294D01*
X225641Y206294D01*
X226639Y206313D01*
X227637Y206352D01*
X228634Y206411D01*
X229630Y206488D01*
X230624Y206586D01*
X231616Y206702D01*
X232605Y206838D01*
X233592Y206994D01*
X234575Y207168D01*
X235555Y207362D01*
X236530Y207575D01*
X237502Y207806D01*
X238469Y208057D01*
X239430Y208326D01*
X240386Y208614D01*
X241337Y208921D01*
X242281Y209246D01*
X243219Y209590D01*
X244150Y209952D01*
X245073Y210332D01*
X245989Y210730D01*
X246897Y211145D01*
X247797Y211579D01*
X248688Y212029D01*
X249570Y212497D01*
X250443Y212983D01*
X251307Y213485D01*
X252160Y214004D01*
X253003Y214539D01*
X253835Y215091D01*
X254657Y215659D01*
X255467Y216243D01*
X256266Y216842D01*
X257052Y217457D01*
X257827Y218088D01*
X258589Y218733D01*
X259339Y219393D01*
X260075Y220067D01*
X260799Y220756D01*
X261508Y221459D01*
X262204Y222175D01*
X262886Y222905D01*
X263553Y223648D01*
X264206Y224404D01*
X264843Y225172D01*
X265466Y225953D01*
X266073Y226746D01*
X266665Y227551D01*
X267241Y228366D01*
X267801Y229193D01*
X268344Y230031D01*
X268872Y230879D01*
X269382Y231738D01*
X269876Y232606D01*
X270353Y233483D01*
X270812Y234370D01*
X271254Y235266D01*
X271679Y236170D01*
X272085Y237082D01*
X272474Y238001D01*
X272845Y238929D01*
X273198Y239863D01*
X273533Y240804D01*
X273849Y241751D01*
X274146Y242705D01*
X274425Y243664D01*
X274685Y244628D01*
X274926Y245597D01*
X275148Y246571D01*
X275352Y247549D01*
X275536Y248530D01*
X275700Y249515D01*
X275846Y250503D01*
X275972Y251494D01*
X276079Y252487D01*
X276167Y253482D01*
X276235Y254478D01*
X276284Y255475D01*
X276313Y256474D01*
X276323Y257472D01*
X44500Y174445D02*
X132142D01*
X180500Y301945D02*
Y428500D01*
X129500Y301945D02*
Y428500D01*
X67000D02*
X250700D01*
X391142Y218445D02*
X402500D01*
X397945Y166500D02*
X398000Y166445D01*
X363291Y166500D02*
X397945D01*
X356000Y173791D02*
X363291Y166500D01*
X356000Y173791D02*
Y196799D01*
X347500Y205299D02*
X356000Y196799D01*
X347500Y205299D02*
Y218445D01*
X319142Y134642D02*
Y162358D01*
X311500Y170000D02*
X319142Y162358D01*
X259300Y170000D02*
X311500D01*
X244600Y155300D02*
X259300Y170000D01*
X244600Y145900D02*
Y155300D01*
X319142Y61500D02*
Y138358D01*
X262500Y61000D02*
Y97000D01*
X254000Y105500D02*
X262500Y97000D01*
X254000Y105500D02*
Y136500D01*
X244600Y145900D02*
X254000Y136500D01*
X234500Y145900D02*
X243939D01*
X215142Y126542D02*
X234500Y145900D01*
X215142Y120000D02*
Y126542D01*
X205142Y41642D02*
X205784Y41000D01*
X205142Y41642D02*
Y60000D01*
X216500Y71358D01*
Y118642D01*
X214642Y120500D02*
X216500Y118642D01*
X179000Y120500D02*
X214642D01*
X150000Y41894D02*
Y60500D01*
X42500Y82000D02*
X111500D01*
X133000Y60500D01*
X150000D01*
X163500Y74000D01*
X166000D01*
X170500Y78500D01*
Y82500D01*
X173500Y85500D01*
X177000D01*
X185000Y93500D01*
Y114500D01*
X179000Y120500D02*
X185000Y114500D01*
X164200Y120500D02*
X179000D01*
X161000Y123700D02*
X164200Y120500D01*
X161000Y123700D02*
Y168886D01*
X155441Y174445D02*
X161000Y168886D01*
X132142Y174445D02*
X155441D01*
X388461Y218764D02*
Y278126D01*
Y294126D01*
X381087Y301500D02*
X388461Y294126D01*
X351512Y301500D02*
X381087D01*
X147142Y189445D02*
Y223945D01*
X132142Y174445D02*
X147142Y189445D01*
X67142Y302945D02*
X68642Y301445D01*
X67142Y302945D02*
Y304445D01*
X60642Y310945D02*
X67142Y304445D01*
X41142Y310945D02*
X60642D01*
X175642Y301445D02*
X186642D01*
X162642D02*
X186642D01*
X162642Y227626D02*
Y301445D01*
X159461Y224445D02*
X162642Y227626D01*
X83142Y224445D02*
X159461D01*
X81142Y226445D02*
X83142Y224445D01*
X81142Y226445D02*
Y237445D01*
X74142Y244445D02*
X81142Y237445D01*
X39370Y244445D02*
X74142D01*
X320642Y218445D02*
X391142D01*
X315642Y301445D02*
X351512D01*
Y264186D02*
Y301445D01*
X350706Y218445D02*
X351512Y217639D01*
Y301500D01*
X288142Y301445D02*
X315642D01*
X321142Y218445D02*
Y301000D01*
X320642Y217945D02*
X321142Y218445D01*
X290642Y217945D02*
X320642D01*
X288142Y220445D02*
X290642Y217945D01*
X288142Y220445D02*
Y301445D01*
X256142Y433071D02*
X256142Y302445D01*
X255142Y301445D02*
X256142Y302445D01*
X255142Y301445D02*
X364642D01*
X430500Y367303D01*
Y424303D01*
X250642Y302445D02*
Y433071D01*
Y302445D02*
X251642Y301445D01*
X68642D02*
X251642D01*
X323220Y233402D02*
X324721Y234902D01*
X67142Y433071D02*
X67142Y302945D01*
X240644Y376000D02*
Y377999D01*
Y377000D01*
X246642D01*
Y376000D01*
Y377999D01*
Y380998D02*
X240644D01*
X242643Y382998D01*
X240644Y384997D01*
X246642D01*
X240644Y386996D02*
X246642D01*
Y389996D01*
X245642Y390995D01*
X241643D01*
X240644Y389996D01*
Y386996D01*
X247641Y392994D02*
Y396993D01*
X246642Y398993D02*
X240644D01*
Y401992D01*
X241643Y402991D01*
X243643D01*
X244642Y401992D01*
Y398993D01*
Y400992D02*
X246642Y402991D01*
X240644Y408989D02*
Y404991D01*
X246642D01*
Y408989D01*
X243643Y404991D02*
Y406990D01*
X240644Y410989D02*
X246642D01*
Y414987D01*
Y416987D02*
X242643D01*
X240644Y418986D01*
X242643Y420986D01*
X246642D01*
X243643D01*
Y416987D01*
X240644Y422985D02*
X241643D01*
X243643Y424984D01*
X241643Y426983D01*
X240644D01*
X243643Y424984D02*
X246642D01*
X326999Y296998D02*
X325999Y297998D01*
X324000D01*
X323000Y296998D01*
Y295999D01*
X324000Y294999D01*
X325999D01*
X326999Y293999D01*
Y293000D01*
X325999Y292000D01*
X324000D01*
X323000Y293000D01*
X328998Y297998D02*
X332997D01*
X330997D01*
Y292000D01*
X338995Y297998D02*
X334996D01*
Y292000D01*
X338995D01*
X334996Y294999D02*
X336996D01*
X344993Y297998D02*
X340994D01*
Y292000D01*
X344993D01*
X340994Y294999D02*
X342993D01*
X346992Y292000D02*
Y297998D01*
X349991D01*
X350991Y296998D01*
Y294999D01*
X349991Y293999D01*
X346992D01*
X348992D02*
X350991Y292000D01*
X352990Y291000D02*
X356989D01*
X358988Y292000D02*
Y297998D01*
X361987D01*
X362987Y296998D01*
Y294999D01*
X361987Y293999D01*
X358988D01*
X367985Y297998D02*
X365986D01*
X364986Y296998D01*
Y293000D01*
X365986Y292000D01*
X367985D01*
X368985Y293000D01*
Y296998D01*
X367985Y297998D01*
X374983Y296998D02*
X373984Y297998D01*
X371984D01*
X370985Y296998D01*
Y295999D01*
X371984Y294999D01*
X373984D01*
X374983Y293999D01*
Y293000D01*
X373984Y292000D01*
X371984D01*
X370985Y293000D01*
X355000Y283998D02*
Y278000D01*
X357999D01*
X358999Y279000D01*
Y279999D01*
X357999Y280999D01*
X355000D01*
X357999D01*
X358999Y281999D01*
Y282998D01*
X357999Y283998D01*
X355000D01*
X360998Y278000D02*
Y283998D01*
X363997D01*
X364997Y282998D01*
Y280999D01*
X363997Y279999D01*
X360998D01*
X362997D02*
X364997Y278000D01*
X366996D02*
Y281999D01*
X368995Y283998D01*
X370995Y281999D01*
Y278000D01*
Y280999D01*
X366996D01*
X372994Y283998D02*
Y278000D01*
Y279999D01*
X376993Y283998D01*
X373994Y280999D01*
X376993Y278000D01*
X382991Y283998D02*
X378992D01*
Y278000D01*
X382991D01*
X378992Y280999D02*
X380992D01*
X384990Y277000D02*
X388989D01*
X390988Y278000D02*
Y283998D01*
X393987D01*
X394987Y282998D01*
Y280999D01*
X393987Y279999D01*
X390988D01*
X399985Y283998D02*
X397986D01*
X396986Y282998D01*
Y279000D01*
X397986Y278000D01*
X399985D01*
X400985Y279000D01*
Y282998D01*
X399985Y283998D01*
X406983Y282998D02*
X405983Y283998D01*
X403984D01*
X402985Y282998D01*
Y281999D01*
X403984Y280999D01*
X405983D01*
X406983Y279999D01*
Y279000D01*
X405983Y278000D01*
X403984D01*
X402985Y279000D01*
X362372Y176999D02*
X361372Y175999D01*
Y174000D01*
X362372Y173000D01*
X366370D01*
X367370Y174000D01*
Y175999D01*
X366370Y176999D01*
X367370Y178998D02*
X363371D01*
X361372Y180997D01*
X363371Y182997D01*
X367370D01*
X364371D01*
Y178998D01*
X367370Y184996D02*
X361372D01*
X367370Y188995D01*
X361372D01*
X266000Y95498D02*
X269999D01*
X267999D01*
Y89500D01*
X271998Y95498D02*
Y89500D01*
Y92499D01*
X275997D01*
Y95498D01*
Y89500D01*
X277996D02*
Y95498D01*
X280995D01*
X281995Y94498D01*
Y92499D01*
X280995Y91499D01*
X277996D01*
X279995D02*
X281995Y89500D01*
X286993Y95498D02*
X284994D01*
X283994Y94498D01*
Y90500D01*
X284994Y89500D01*
X286993D01*
X287993Y90500D01*
Y94498D01*
X286993Y95498D01*
X289992D02*
X293991D01*
X291992D01*
Y89500D01*
X295990Y95498D02*
X299989D01*
X297990D01*
Y89500D01*
X301988Y95498D02*
Y89500D01*
X305987D01*
X311985Y95498D02*
X307986D01*
Y89500D01*
X311985D01*
X307986Y92499D02*
X309986D01*
X317983Y94498D02*
X316984Y95498D01*
X314984D01*
X313984Y94498D01*
Y93499D01*
X314984Y92499D01*
X316984D01*
X317983Y91499D01*
Y90500D01*
X316984Y89500D01*
X314984D01*
X313984Y90500D01*
X43000Y168943D02*
Y162945D01*
Y165944D01*
X46999D01*
Y168943D01*
Y162945D01*
X48998D02*
Y166944D01*
X50997Y168943D01*
X52997Y166944D01*
Y162945D01*
Y165944D01*
X48998D01*
X54996Y168943D02*
Y162945D01*
X58995D01*
X60994Y168943D02*
Y162945D01*
X64993D01*
X66992Y161945D02*
X70991D01*
X76989Y168943D02*
X72990D01*
Y162945D01*
X76989D01*
X72990Y165944D02*
X74990D01*
X82987Y168943D02*
X78988D01*
Y165944D01*
X80988D01*
X78988D01*
Y162945D01*
X88985Y168943D02*
X84986D01*
Y165944D01*
X86986D01*
X84986D01*
Y162945D01*
X94983Y168943D02*
X90984D01*
Y162945D01*
X94983D01*
X90984Y165944D02*
X92984D01*
X100981Y167943D02*
X99982Y168943D01*
X97982D01*
X96983Y167943D01*
Y163945D01*
X97982Y162945D01*
X99982D01*
X100981Y163945D01*
X102981Y168943D02*
X106979D01*
X104980D01*
Y162945D01*
X112977Y167943D02*
X111978Y168943D01*
X109978D01*
X108979Y167943D01*
Y166944D01*
X109978Y165944D01*
X111978D01*
X112977Y164944D01*
Y163945D01*
X111978Y162945D01*
X109978D01*
X108979Y163945D01*
X47500Y179189D02*
Y183188D01*
X49499Y185187D01*
X51499Y183188D01*
Y179189D01*
Y182188D01*
X47500D01*
X53498Y179189D02*
Y185187D01*
X57497Y179189D01*
Y185187D01*
X59496Y179189D02*
Y183188D01*
X61496Y185187D01*
X63495Y183188D01*
Y179189D01*
Y182188D01*
X59496D01*
X65494Y185187D02*
Y179189D01*
X69493D01*
X74491Y185187D02*
X72492D01*
X71492Y184187D01*
Y180189D01*
X72492Y179189D01*
X74491D01*
X75491Y180189D01*
Y184187D01*
X74491Y185187D01*
X81489Y184187D02*
X80489Y185187D01*
X78490D01*
X77490Y184187D01*
Y180189D01*
X78490Y179189D01*
X80489D01*
X81489Y180189D01*
Y182188D01*
X79490D01*
D13*
X192878Y370917D02*
X222406D01*
Y429973D01*
X192878D02*
X222406D01*
X192878Y370917D02*
Y429973D01*
X141878Y369917D02*
X171406D01*
Y428973D01*
X141878D02*
X171406D01*
X141878Y369917D02*
Y428973D01*
X90878Y370417D02*
X120406D01*
Y429473D01*
X90878D02*
X120406D01*
X90878Y370417D02*
Y429473D01*
D14*
X311902Y413957D02*
Y432972D01*
X310071Y413957D02*
X311902D01*
X310071D02*
Y415571D01*
X276213D02*
X310071D01*
X276213Y413957D02*
Y415571D01*
X274382Y413957D02*
X276213D01*
X274382D02*
Y432972D01*
X311902D01*
X356902Y413957D02*
Y432972D01*
X355071Y413957D02*
X356902D01*
X355071D02*
Y415571D01*
X321213D02*
X355071D01*
X321213Y413957D02*
Y415571D01*
X319382Y413957D02*
X321213D01*
X319382D02*
Y432972D01*
X356902D01*
X373039Y383445D02*
Y386260D01*
X375205D01*
X383079D02*
X385244D01*
Y383445D02*
Y386260D01*
X363642Y390480D02*
X366457D01*
Y388315D02*
Y390480D01*
Y378276D02*
Y380441D01*
X363642Y378276D02*
X366457D01*
X304315Y260248D02*
X316126D01*
X107142Y366945D02*
X110291D01*
X379504Y212402D02*
Y215216D01*
X381669D01*
X389543D02*
X391709D01*
Y212402D02*
Y215216D01*
X394787Y175350D02*
Y190705D01*
X375496Y175350D02*
Y190705D01*
X384736Y267299D02*
X396547D01*
X353827Y206343D02*
X356642D01*
X353827D02*
Y208508D01*
Y216382D02*
Y218547D01*
X356642D01*
X349260Y266996D02*
Y278807D01*
X362787Y82696D02*
Y94507D01*
X288685Y131098D02*
X300496D01*
X256236Y134799D02*
X268047D01*
X225520Y116659D02*
Y119474D01*
X227685D01*
X235559D02*
X237724D01*
Y116659D02*
Y119474D01*
X209579Y111988D02*
X212394D01*
Y109823D02*
Y111988D01*
Y99783D02*
Y101949D01*
X209579Y99783D02*
X212394D01*
X198890Y83602D02*
X201705D01*
X198890D02*
Y85768D01*
Y93642D02*
Y95807D01*
X201705D01*
X197744Y98870D02*
Y101685D01*
X195579Y98870D02*
X197744D01*
X185539D02*
X187705D01*
X185539D02*
Y101685D01*
X240520Y116222D02*
Y119037D01*
X242685D01*
X250559D02*
X252724D01*
Y116222D02*
Y119037D01*
X319142Y144945D02*
X369142D01*
Y154945D01*
X319142D02*
X369142D01*
X319142Y144945D02*
Y154945D01*
X129147Y228445D02*
Y231594D01*
X249945Y206291D02*
Y212591D01*
X200339Y206291D02*
X249945D01*
X200339D02*
Y212591D01*
X142453Y263768D02*
X144421D01*
Y279122D01*
X143437D02*
X144421D01*
X116862Y263768D02*
X118831D01*
X116862D02*
Y279122D01*
X117847D01*
X371890Y107759D02*
X374705D01*
X371890D02*
Y109925D01*
Y117799D02*
Y119964D01*
X374705D01*
X135736Y108799D02*
X147547D01*
X136295Y128539D02*
Y140350D01*
X158236Y108799D02*
X170047D01*
X135295Y148539D02*
Y160350D01*
X228807Y94557D02*
X231622D01*
X228807D02*
Y96722D01*
Y104596D02*
Y106762D01*
X231622D01*
X251496Y322587D02*
Y334398D01*
X174287Y315492D02*
Y327303D01*
X263787Y321039D02*
Y332850D01*
X119236Y323299D02*
X131047D01*
X344039Y111545D02*
Y114360D01*
X346205D01*
X354079D02*
X356244D01*
Y111545D02*
Y114360D01*
X150492Y276898D02*
X153642D01*
X323965Y325799D02*
X339319D01*
X323965Y345091D02*
X339319D01*
X327465Y355252D02*
X342819D01*
X327465Y374543D02*
X342819D01*
X297965Y397091D02*
X313319D01*
X297965Y377799D02*
X313319D01*
X201913Y343567D02*
Y346382D01*
Y343567D02*
X204079D01*
X211953D02*
X214118D01*
Y346382D01*
X221827Y367047D02*
X224642D01*
X221827Y364882D02*
Y367047D01*
Y354842D02*
Y357008D01*
Y354842D02*
X224642D01*
X212642Y366445D02*
X215791D01*
X199890Y368835D02*
X202705D01*
X199890Y366669D02*
Y368835D01*
Y356630D02*
Y358795D01*
Y356630D02*
X202705D01*
X151654Y343693D02*
Y346508D01*
Y343693D02*
X153819D01*
X161693D02*
X163858D01*
Y346508D01*
X93327Y368047D02*
X96142D01*
X93327Y365882D02*
Y368047D01*
Y355842D02*
Y358008D01*
Y355842D02*
X96142D01*
X91539Y344567D02*
Y347382D01*
Y344567D02*
X93705D01*
X101579D02*
X103744D01*
Y347382D01*
X117327Y369047D02*
X120142D01*
X117327Y366882D02*
Y369047D01*
Y356842D02*
Y359008D01*
Y356842D02*
X120142D01*
X332142Y108006D02*
X334957D01*
Y110171D01*
Y118045D02*
Y120211D01*
X332142D02*
X334957D01*
X338744Y99545D02*
Y102360D01*
X336579D02*
X338744D01*
X326539D02*
X328705D01*
X326539Y99545D02*
Y102360D01*
X326299Y79793D02*
Y82608D01*
Y79793D02*
X328465D01*
X336339D02*
X338504D01*
Y82608D01*
X206642Y190445D02*
Y200445D01*
X156642Y190445D02*
X206642D01*
X156642D02*
Y200445D01*
X206642D01*
X99465Y227165D02*
Y228150D01*
Y227165D02*
X114819D01*
Y229134D01*
X99465Y253740D02*
Y254724D01*
X114819D01*
Y252756D02*
Y254724D01*
X108134Y272358D02*
Y286531D01*
X102228Y266453D02*
X108134Y272358D01*
X82150Y266453D02*
X102228D01*
Y292437D02*
X108134Y286531D01*
X82150Y292437D02*
X102228D01*
X82150Y266453D02*
Y292437D01*
X147264Y368047D02*
X150079D01*
X147264Y365882D02*
Y368047D01*
Y355842D02*
Y358008D01*
Y355842D02*
X150079D01*
X229827Y385209D02*
Y405681D01*
X240457D01*
Y385209D02*
Y405681D01*
X229827Y385209D02*
X240457D01*
X231205Y402335D02*
X239079D01*
X124827Y385209D02*
Y405681D01*
X135457D01*
Y385209D02*
Y405681D01*
X124827Y385209D02*
X135457D01*
X126205Y402335D02*
X134079D01*
X175327Y386209D02*
Y406681D01*
X185957D01*
Y386209D02*
Y406681D01*
X175327Y386209D02*
X185957D01*
X176705Y403335D02*
X184579D01*
X159142Y365945D02*
X162291D01*
X168327Y367047D02*
X171142D01*
X168327Y364882D02*
Y367047D01*
Y354842D02*
Y357008D01*
Y354842D02*
X171142D01*
D15*
X341173Y398047D02*
X345110D01*
X341173Y385842D02*
X345110D01*
X341173D02*
Y398047D01*
X345110Y385842D02*
Y398047D01*
X367843Y326622D02*
X380441D01*
X367843Y361268D02*
X380441D01*
Y326622D02*
Y361268D01*
X367843Y326622D02*
Y361268D01*
D16*
X277736Y364961D02*
Y366929D01*
X289547Y364961D02*
Y366929D01*
X277736Y364961D02*
X289547D01*
X277736Y366929D02*
X289547D01*
X98626Y207039D02*
Y218850D01*
X96658Y207039D02*
Y218850D01*
Y207039D02*
X98626D01*
X96658Y218850D02*
X98626D01*
X336701Y241417D02*
X348512D01*
X336701Y243386D02*
X348512D01*
X336701Y241417D02*
Y243386D01*
X348512Y241417D02*
Y243386D01*
X305315Y236917D02*
X317126D01*
X305315Y238886D02*
X317126D01*
X305315Y236917D02*
Y238886D01*
X317126Y236917D02*
Y238886D01*
X291910Y160402D02*
X303720D01*
X291910Y158433D02*
X303720D01*
Y160402D01*
X291910Y158433D02*
Y160402D01*
X258736Y156913D02*
Y158882D01*
X270547Y156913D02*
Y158882D01*
X258736Y156913D02*
X270547D01*
X258736Y158882D02*
X270547D01*
X171799Y132835D02*
X208020D01*
X171799Y169055D02*
X208020D01*
X171799Y132835D02*
Y169055D01*
X208020Y132835D02*
Y169055D01*
X87811Y192929D02*
X96472D01*
X87811Y190961D02*
X96472D01*
Y192929D01*
X87811Y190961D02*
Y192929D01*
X369496Y239185D02*
X381307D01*
X369496Y241154D02*
X381307D01*
X369496Y239185D02*
Y241154D01*
X381307Y239185D02*
Y241154D01*
X325539Y128614D02*
X337744D01*
X325539Y132551D02*
X337744D01*
X325539Y128614D02*
Y132551D01*
X337744Y128614D02*
Y132551D01*
X317531Y198405D02*
X338398D01*
X317531Y177539D02*
X338398D01*
Y198405D01*
X317531Y177539D02*
Y198405D01*
X127929Y367657D02*
X131865D01*
X127929Y365034D01*
X131865D01*
X131209Y363722D02*
X131865Y363066D01*
Y361754D01*
X131209Y361098D01*
X128585D01*
X127929Y361754D01*
Y363066D01*
X128585Y363722D01*
X131209D01*
X381500Y430936D02*
X384124Y427000D01*
Y430936D02*
X381500Y427000D01*
X385436D02*
X386748D01*
X386092D01*
Y430936D01*
X385436Y430280D01*
X391339Y427000D02*
X388716D01*
X391339Y429624D01*
Y430280D01*
X390683Y430936D01*
X389371D01*
X388716Y430280D01*
X290000Y296936D02*
Y293000D01*
X291968D01*
X292624Y293656D01*
Y294312D01*
X291968Y294968D01*
X290000D01*
X291968D01*
X292624Y295624D01*
Y296280D01*
X291968Y296936D01*
X290000D01*
X293936Y293000D02*
Y296936D01*
X295904D01*
X296560Y296280D01*
Y294968D01*
X295904Y294312D01*
X293936D01*
X295248D02*
X296560Y293000D01*
X297871D02*
Y295624D01*
X299183Y296936D01*
X300495Y295624D01*
Y293000D01*
Y294968D01*
X297871D01*
X301807Y296936D02*
Y293000D01*
Y294312D01*
X304431Y296936D01*
X302463Y294968D01*
X304431Y293000D01*
X308367Y296936D02*
X305743D01*
Y293000D01*
X308367D01*
X305743Y294968D02*
X307055D01*
X309679Y292344D02*
X312302D01*
X313614Y293000D02*
Y296936D01*
X315582D01*
X316238Y296280D01*
Y294968D01*
X315582Y294312D01*
X313614D01*
X317550Y293000D02*
Y296936D01*
X319518D01*
X320174Y296280D01*
Y294968D01*
X319518Y294312D01*
X317550D01*
X318862D02*
X320174Y293000D01*
X170500Y239000D02*
X166564D01*
Y240968D01*
X167220Y241624D01*
X168532D01*
X169188Y240968D01*
Y239000D01*
Y240312D02*
X170500Y241624D01*
X166564Y242936D02*
Y245560D01*
Y244248D01*
X170500D01*
X166564Y246871D02*
X170500D01*
Y248839D01*
X169844Y249495D01*
X167220D01*
X166564Y248839D01*
Y246871D01*
Y254743D02*
X170500D01*
Y256711D01*
X169844Y257367D01*
X169188D01*
X168532Y256711D01*
Y254743D01*
Y256711D01*
X167876Y257367D01*
X167220D01*
X166564Y256711D01*
Y254743D01*
Y258679D02*
X169844D01*
X170500Y259335D01*
Y260647D01*
X169844Y261302D01*
X166564D01*
Y262614D02*
Y265238D01*
X167220D01*
X169844Y262614D01*
X170500D01*
Y265238D01*
X166564Y266550D02*
Y269174D01*
X167220D01*
X169844Y266550D01*
X170500D01*
Y269174D01*
X166564Y273110D02*
Y270486D01*
X170500D01*
Y273110D01*
X168532Y270486D02*
Y271798D01*
X170500Y274422D02*
X166564D01*
Y276390D01*
X167220Y277045D01*
X168532D01*
X169188Y276390D01*
Y274422D01*
Y275734D02*
X170500Y277045D01*
X269142Y310881D02*
Y306945D01*
X271110D01*
X271765Y307601D01*
Y308257D01*
X271110Y308913D01*
X269142D01*
X271110D01*
X271765Y309569D01*
Y310225D01*
X271110Y310881D01*
X269142D01*
X275701Y310225D02*
X275045Y310881D01*
X273733D01*
X273078Y310225D01*
Y309569D01*
X273733Y308913D01*
X275045D01*
X275701Y308257D01*
Y307601D01*
X275045Y306945D01*
X273733D01*
X273078Y307601D01*
X277013Y306945D02*
Y310881D01*
X278981D01*
X279637Y310225D01*
Y308913D01*
X278981Y308257D01*
X277013D01*
X280949Y310881D02*
Y306945D01*
X282917D01*
X283573Y307601D01*
Y310225D01*
X282917Y310881D01*
X280949D01*
X288820D02*
Y306945D01*
X291444D01*
X294724Y310881D02*
X293412D01*
X292756Y310225D01*
Y307601D01*
X293412Y306945D01*
X294724D01*
X295380Y307601D01*
Y310225D01*
X294724Y310881D01*
X299316Y310225D02*
X298660Y310881D01*
X297348D01*
X296692Y310225D01*
Y307601D01*
X297348Y306945D01*
X298660D01*
X299316Y307601D01*
Y308913D01*
X298004D01*
X300628Y310881D02*
X301940D01*
X301284D01*
Y306945D01*
X300628D01*
X301940D01*
X306531Y310225D02*
X305875Y310881D01*
X304563D01*
X303907Y310225D01*
Y307601D01*
X304563Y306945D01*
X305875D01*
X306531Y307601D01*
X71624Y311936D02*
X69000D01*
Y309968D01*
X70312D01*
X69000D01*
Y308000D01*
X72936D02*
Y310624D01*
X74248Y311936D01*
X75560Y310624D01*
Y308000D01*
Y309968D01*
X72936D01*
X76872Y311936D02*
Y308656D01*
X77527Y308000D01*
X78839D01*
X79495Y308656D01*
Y311936D01*
X80807D02*
Y308000D01*
X83431D01*
X84743Y311936D02*
X87367D01*
X86055D01*
Y308000D01*
X92614Y311936D02*
Y308000D01*
X95238D01*
X96550D02*
Y310624D01*
X97862Y311936D01*
X99174Y310624D01*
Y308000D01*
Y309968D01*
X96550D01*
X100486Y311936D02*
X103110D01*
X101798D01*
Y308000D01*
X107045Y311280D02*
X106389Y311936D01*
X105078D01*
X104422Y311280D01*
Y308656D01*
X105078Y308000D01*
X106389D01*
X107045Y308656D01*
X108357Y311936D02*
Y308000D01*
Y309968D01*
X110981D01*
Y311936D01*
Y308000D01*
X114917Y311936D02*
X112293D01*
Y308000D01*
X114917D01*
X112293Y309968D02*
X113605D01*
X118853Y311280D02*
X118197Y311936D01*
X116885D01*
X116229Y311280D01*
Y310624D01*
X116885Y309968D01*
X118197D01*
X118853Y309312D01*
Y308656D01*
X118197Y308000D01*
X116885D01*
X116229Y308656D01*
X215600Y204400D02*
Y208336D01*
X217568D01*
X218224Y207680D01*
Y206368D01*
X217568Y205712D01*
X215600D01*
X216912D02*
X218224Y204400D01*
X219536Y205056D02*
X220192Y204400D01*
X221504D01*
X222160Y205056D01*
Y207680D01*
X221504Y208336D01*
X220192D01*
X219536Y207680D01*
Y207024D01*
X220192Y206368D01*
X222160D01*
X226095Y204400D02*
X223471D01*
X226095Y207024D01*
Y207680D01*
X225439Y208336D01*
X224127D01*
X223471Y207680D01*
X270064Y123500D02*
X274000D01*
Y125468D01*
X273344Y126124D01*
X270720D01*
X270064Y125468D01*
Y123500D01*
X274000Y127436D02*
Y128748D01*
Y128092D01*
X270064D01*
X270720Y127436D01*
X274000Y130716D02*
Y132027D01*
Y131371D01*
X270064D01*
X270720Y130716D01*
X45000Y142636D02*
X47624Y138700D01*
Y142636D02*
X45000Y138700D01*
X48936D02*
X50248D01*
X49592D01*
Y142636D01*
X48936Y141980D01*
X52215D02*
X52872Y142636D01*
X54183D01*
X54839Y141980D01*
Y139356D01*
X54183Y138700D01*
X52872D01*
X52215Y139356D01*
Y141980D01*
X320400Y80136D02*
X323024Y76200D01*
Y80136D02*
X320400Y76200D01*
X324336Y79480D02*
X324992Y80136D01*
X326304D01*
X326960Y79480D01*
Y78824D01*
X326304Y78168D01*
X326960Y77512D01*
Y76856D01*
X326304Y76200D01*
X324992D01*
X324336Y76856D01*
Y77512D01*
X324992Y78168D01*
X324336Y78824D01*
Y79480D01*
X324992Y78168D02*
X326304D01*
X164200Y184136D02*
Y180856D01*
X164856Y180200D01*
X166168D01*
X166824Y180856D01*
Y184136D01*
X170760Y180200D02*
X168136D01*
X170760Y182824D01*
Y183480D01*
X170104Y184136D01*
X168792D01*
X168136Y183480D01*
X272624Y372436D02*
X270000D01*
Y370468D01*
X271312D01*
X270000D01*
Y368500D01*
X276560D02*
X273936D01*
X276560Y371124D01*
Y371780D01*
X275904Y372436D01*
X274592D01*
X273936Y371780D01*
X253624Y160436D02*
X251000D01*
Y158468D01*
X252312D01*
X251000D01*
Y156500D01*
X254936Y159780D02*
X255592Y160436D01*
X256904D01*
X257560Y159780D01*
Y157156D01*
X256904Y156500D01*
X255592D01*
X254936Y157156D01*
Y159780D01*
X285500Y157500D02*
X281564D01*
Y159468D01*
X282220Y160124D01*
X283532D01*
X284188Y159468D01*
Y157500D01*
Y158812D02*
X285500Y160124D01*
Y164060D02*
Y161436D01*
X282876Y164060D01*
X282220D01*
X281564Y163404D01*
Y162092D01*
X282220Y161436D01*
X284844Y165372D02*
X285500Y166027D01*
Y167339D01*
X284844Y167995D01*
X282220D01*
X281564Y167339D01*
Y166027D01*
X282220Y165372D01*
X282876D01*
X283532Y166027D01*
Y167995D01*
X270000Y164500D02*
Y168436D01*
X271968D01*
X272624Y167780D01*
Y166468D01*
X271968Y165812D01*
X270000D01*
X271312D02*
X272624Y164500D01*
X276560D02*
X273936D01*
X276560Y167124D01*
Y167780D01*
X275904Y168436D01*
X274592D01*
X273936Y167780D01*
X277871D02*
X278527Y168436D01*
X279839D01*
X280495Y167780D01*
Y167124D01*
X279839Y166468D01*
X280495Y165812D01*
Y165156D01*
X279839Y164500D01*
X278527D01*
X277871Y165156D01*
Y165812D01*
X278527Y166468D01*
X277871Y167124D01*
Y167780D01*
X278527Y166468D02*
X279839D01*
X278642Y111992D02*
X274706D01*
Y113960D01*
X275362Y114616D01*
X276674D01*
X277330Y113960D01*
Y111992D01*
Y113304D02*
X278642Y114616D01*
Y118552D02*
Y115928D01*
X276018Y118552D01*
X275362D01*
X274706Y117896D01*
Y116584D01*
X275362Y115928D01*
X274706Y119864D02*
Y122487D01*
X275362D01*
X277986Y119864D01*
X278642D01*
X274500Y135000D02*
X270564D01*
Y136968D01*
X271220Y137624D01*
X272532D01*
X273188Y136968D01*
Y135000D01*
Y136312D02*
X274500Y137624D01*
Y141560D02*
Y138936D01*
X271876Y141560D01*
X271220D01*
X270564Y140904D01*
Y139592D01*
X271220Y138936D01*
X270564Y145495D02*
X271220Y144183D01*
X272532Y142871D01*
X273844D01*
X274500Y143527D01*
Y144839D01*
X273844Y145495D01*
X273188D01*
X272532Y144839D01*
Y142871D01*
X255124Y148780D02*
X254468Y149436D01*
X253156D01*
X252500Y148780D01*
Y146156D01*
X253156Y145500D01*
X254468D01*
X255124Y146156D01*
X256436Y145500D02*
X257748D01*
X257092D01*
Y149436D01*
X256436Y148780D01*
X259716Y149436D02*
X262339D01*
Y148780D01*
X259716Y146156D01*
Y145500D01*
X42100Y238536D02*
X44724Y234600D01*
Y238536D02*
X42100Y234600D01*
X46036D02*
Y237224D01*
X47348Y238536D01*
X48660Y237224D01*
Y234600D01*
Y236568D01*
X46036D01*
X49972Y234600D02*
Y238536D01*
X52595Y234600D01*
Y238536D01*
X53907Y234600D02*
Y237224D01*
X55219Y238536D01*
X56531Y237224D01*
Y234600D01*
Y236568D01*
X53907D01*
X57843Y238536D02*
Y234600D01*
X60467D01*
X63747Y238536D02*
X62435D01*
X61779Y237880D01*
Y235256D01*
X62435Y234600D01*
X63747D01*
X64403Y235256D01*
Y237880D01*
X63747Y238536D01*
X68338Y237880D02*
X67682Y238536D01*
X66370D01*
X65714Y237880D01*
Y235256D01*
X66370Y234600D01*
X67682D01*
X68338Y235256D01*
Y236568D01*
X67026D01*
X72274Y234600D02*
X69650D01*
X72274Y237224D01*
Y237880D01*
X71618Y238536D01*
X70306D01*
X69650Y237880D01*
X263300Y81336D02*
X265924Y77400D01*
Y81336D02*
X263300Y77400D01*
X267236D02*
Y80024D01*
X268548Y81336D01*
X269860Y80024D01*
Y77400D01*
Y79368D01*
X267236D01*
X271171Y77400D02*
Y81336D01*
X273795Y77400D01*
Y81336D01*
X275107Y77400D02*
Y80024D01*
X276419Y81336D01*
X277731Y80024D01*
Y77400D01*
Y79368D01*
X275107D01*
X279043Y81336D02*
Y77400D01*
X281667D01*
X284947Y81336D02*
X283635D01*
X282979Y80680D01*
Y78056D01*
X283635Y77400D01*
X284947D01*
X285602Y78056D01*
Y80680D01*
X284947Y81336D01*
X289538Y80680D02*
X288882Y81336D01*
X287570D01*
X286914Y80680D01*
Y78056D01*
X287570Y77400D01*
X288882D01*
X289538Y78056D01*
Y79368D01*
X288226D01*
X290850Y77400D02*
X292162D01*
X291506D01*
Y81336D01*
X290850Y80680D01*
X319600Y161936D02*
X322224Y158000D01*
Y161936D02*
X319600Y158000D01*
X323536Y161936D02*
X326160D01*
X324848D01*
Y158000D01*
X330095Y161280D02*
X329439Y161936D01*
X328127D01*
X327471Y161280D01*
Y158656D01*
X328127Y158000D01*
X329439D01*
X330095Y158656D01*
X237000Y138936D02*
X239624D01*
X238312D01*
Y135000D01*
X240936D02*
Y138936D01*
X242904D01*
X243560Y138280D01*
Y136968D01*
X242904Y136312D01*
X240936D01*
X244871Y138280D02*
X245527Y138936D01*
X246839D01*
X247495Y138280D01*
Y137624D01*
X246839Y136968D01*
X246183D01*
X246839D01*
X247495Y136312D01*
Y135656D01*
X246839Y135000D01*
X245527D01*
X244871Y135656D01*
X157100Y207436D02*
X159724Y203500D01*
Y207436D02*
X157100Y203500D01*
X161036Y204156D02*
X161692Y203500D01*
X163004D01*
X163660Y204156D01*
Y206780D01*
X163004Y207436D01*
X161692D01*
X161036Y206780D01*
Y206124D01*
X161692Y205468D01*
X163660D01*
X161400Y89036D02*
X164024Y85100D01*
Y89036D02*
X161400Y85100D01*
X165336D02*
X166648D01*
X165992D01*
Y89036D01*
X165336Y88380D01*
X168615Y85100D02*
X169927D01*
X169272D01*
Y89036D01*
X168615Y88380D01*
X87000Y426818D02*
X89624Y422882D01*
Y426818D02*
X87000Y422882D01*
X93560Y426818D02*
X92248Y426162D01*
X90936Y424850D01*
Y423538D01*
X91592Y422882D01*
X92904D01*
X93560Y423538D01*
Y424194D01*
X92904Y424850D01*
X90936D01*
X399700Y152936D02*
X402324Y149000D01*
Y152936D02*
X399700Y149000D01*
X406260Y152936D02*
X403636D01*
Y150968D01*
X404948Y151624D01*
X405604D01*
X406260Y150968D01*
Y149656D01*
X405604Y149000D01*
X404292D01*
X403636Y149656D01*
X399642Y225966D02*
X397018Y229902D01*
Y225966D02*
X399642Y229902D01*
X393738D02*
Y225966D01*
X395706Y227934D01*
X393082D01*
X206300Y81336D02*
X208924Y77400D01*
Y81336D02*
X206300Y77400D01*
X210236Y80680D02*
X210892Y81336D01*
X212204D01*
X212860Y80680D01*
Y80024D01*
X212204Y79368D01*
X211548D01*
X212204D01*
X212860Y78712D01*
Y78056D01*
X212204Y77400D01*
X210892D01*
X210236Y78056D01*
X75142Y297381D02*
X77766Y293445D01*
Y297381D02*
X75142Y293445D01*
X81701D02*
X79078D01*
X81701Y296069D01*
Y296725D01*
X81045Y297381D01*
X79733D01*
X79078Y296725D01*
X399700Y215836D02*
X402324Y211900D01*
Y215836D02*
X399700Y211900D01*
X403636D02*
X404948D01*
X404292D01*
Y215836D01*
X403636Y215180D01*
X45600Y393936D02*
X48224Y390000D01*
Y393936D02*
X45600Y390000D01*
X49536Y393280D02*
X50192Y393936D01*
X51504D01*
X52160Y393280D01*
Y390656D01*
X51504Y390000D01*
X50192D01*
X49536Y390656D01*
Y393280D01*
X336000Y385436D02*
Y382156D01*
X336656Y381500D01*
X337968D01*
X338624Y382156D01*
Y385436D01*
X339936Y381500D02*
X341248D01*
X340592D01*
Y385436D01*
X339936Y384780D01*
X341706Y126082D02*
X344986D01*
X345642Y126738D01*
Y128050D01*
X344986Y128706D01*
X341706D01*
Y132642D02*
X342362Y131330D01*
X343674Y130018D01*
X344986D01*
X345642Y130674D01*
Y131986D01*
X344986Y132642D01*
X344330D01*
X343674Y131986D01*
Y130018D01*
X361100Y370036D02*
Y366756D01*
X361756Y366100D01*
X363068D01*
X363724Y366756D01*
Y370036D01*
X365036Y369380D02*
X365692Y370036D01*
X367004D01*
X367660Y369380D01*
Y368724D01*
X367004Y368068D01*
X366348D01*
X367004D01*
X367660Y367412D01*
Y366756D01*
X367004Y366100D01*
X365692D01*
X365036Y366756D01*
X308300Y215159D02*
Y211879D01*
X308956Y211224D01*
X310268D01*
X310924Y211879D01*
Y215159D01*
X312236Y214503D02*
X312892Y215159D01*
X314204D01*
X314860Y214503D01*
Y211879D01*
X314204Y211224D01*
X312892D01*
X312236Y211879D01*
Y214503D01*
X341500Y412436D02*
X344124D01*
X342812D01*
Y408500D01*
X345436D02*
Y412436D01*
X347404D01*
X348060Y411780D01*
Y410468D01*
X347404Y409812D01*
X345436D01*
X346748D02*
X348060Y408500D01*
X349372D02*
X350683D01*
X350027D01*
Y412436D01*
X349372Y411780D01*
X278000Y413436D02*
X280624D01*
X279312D01*
Y409500D01*
X281936D02*
Y413436D01*
X283904D01*
X284560Y412780D01*
Y411468D01*
X283904Y410812D01*
X281936D01*
X283248D02*
X284560Y409500D01*
X285872Y412780D02*
X286527Y413436D01*
X287839D01*
X288495Y412780D01*
Y410156D01*
X287839Y409500D01*
X286527D01*
X285872Y410156D01*
Y412780D01*
X268064Y401500D02*
Y404124D01*
Y402812D01*
X272000D01*
Y405436D02*
X268064D01*
Y407404D01*
X268720Y408060D01*
X270032D01*
X270688Y407404D01*
Y405436D01*
X272656Y409372D02*
Y411995D01*
X268720Y415931D02*
X268064Y415275D01*
Y413963D01*
X268720Y413307D01*
X271344D01*
X272000Y413963D01*
Y415275D01*
X271344Y415931D01*
X268064Y417243D02*
X271344D01*
X272000Y417899D01*
Y419211D01*
X271344Y419867D01*
X268064D01*
X272000Y421179D02*
X268064D01*
Y423147D01*
X268720Y423803D01*
X270032D01*
X270688Y423147D01*
Y421179D01*
Y422491D02*
X272000Y423803D01*
Y425114D02*
X268064D01*
Y427082D01*
X268720Y427738D01*
X270032D01*
X270688Y427082D01*
Y425114D01*
Y426426D02*
X272000Y427738D01*
X359564Y410000D02*
Y412624D01*
Y411312D01*
X363500D01*
Y413936D02*
X359564D01*
Y415904D01*
X360220Y416560D01*
X361532D01*
X362188Y415904D01*
Y413936D01*
X364156Y417872D02*
Y420495D01*
X359564Y421807D02*
X363500D01*
Y423775D01*
X362844Y424431D01*
X362188D01*
X361532Y423775D01*
Y421807D01*
Y423775D01*
X360876Y424431D01*
X360220D01*
X359564Y423775D01*
Y421807D01*
X363500Y425743D02*
X359564D01*
Y427711D01*
X360220Y428367D01*
X361532D01*
X362188Y427711D01*
Y425743D01*
Y427055D02*
X363500Y428367D01*
X233500Y144436D02*
X236124D01*
X234812D01*
Y140500D01*
X237436D02*
Y144436D01*
X239404D01*
X240060Y143780D01*
Y142468D01*
X239404Y141812D01*
X237436D01*
X243995Y140500D02*
X241371D01*
X243995Y143124D01*
Y143780D01*
X243339Y144436D01*
X242027D01*
X241371Y143780D01*
X83300Y379336D02*
X85924D01*
X84612D01*
Y375400D01*
X87236D02*
Y379336D01*
X89204D01*
X89860Y378680D01*
Y377368D01*
X89204Y376712D01*
X87236D01*
X93139Y375400D02*
Y379336D01*
X91171Y377368D01*
X93795D01*
X236000Y133333D02*
X238624D01*
X237312D01*
Y129398D01*
X239936D02*
Y133333D01*
X241904D01*
X242560Y132677D01*
Y131366D01*
X241904Y130710D01*
X239936D01*
X243871Y129398D02*
X245183D01*
X244527D01*
Y133333D01*
X243871Y132677D01*
X236800Y322836D02*
X239424D01*
X238112D01*
Y318900D01*
X240736D02*
Y322836D01*
X242704D01*
X243360Y322180D01*
Y320868D01*
X242704Y320212D01*
X240736D01*
X244672Y322180D02*
X247295Y319556D01*
X244672D02*
X247295Y322180D01*
X244672Y320868D02*
X247295D01*
X245983Y319556D02*
Y322180D01*
X182300Y372336D02*
X184924D01*
X183612D01*
Y368400D01*
X186236D02*
Y372336D01*
X188204D01*
X188860Y371680D01*
Y370368D01*
X188204Y369712D01*
X186236D01*
X192795Y372336D02*
X190172D01*
Y370368D01*
X191483Y371024D01*
X192139D01*
X192795Y370368D01*
Y369056D01*
X192139Y368400D01*
X190827D01*
X190172Y369056D01*
X133500Y379436D02*
X136124D01*
X134812D01*
Y375500D01*
X137436D02*
Y379436D01*
X139404D01*
X140060Y378780D01*
Y377468D01*
X139404Y376812D01*
X137436D01*
X143995Y375500D02*
X141372D01*
X143995Y378124D01*
Y378780D01*
X143339Y379436D01*
X142027D01*
X141372Y378780D01*
X145307Y375500D02*
X146619D01*
X145963D01*
Y379436D01*
X145307Y378780D01*
X163300Y228136D02*
X165924D01*
X164612D01*
Y224200D01*
X167236D02*
Y228136D01*
X169204D01*
X169860Y227480D01*
Y226168D01*
X169204Y225512D01*
X167236D01*
X171171Y224856D02*
X171827Y224200D01*
X173139D01*
X173795Y224856D01*
Y227480D01*
X173139Y228136D01*
X171827D01*
X171171Y227480D01*
Y226824D01*
X171827Y226168D01*
X173795D01*
X106578Y187445D02*
Y184821D01*
Y186133D01*
X102642D01*
X105921Y180885D02*
X106578Y181541D01*
Y182853D01*
X105921Y183509D01*
X103298D01*
X102642Y182853D01*
Y181541D01*
X103298Y180885D01*
X105921Y179573D02*
X106578Y178917D01*
Y177605D01*
X105921Y176950D01*
X103298D01*
X102642Y177605D01*
Y178917D01*
X103298Y179573D01*
X105921D01*
X191500Y412500D02*
X187564D01*
Y414468D01*
X188220Y415124D01*
X189532D01*
X190188Y414468D01*
Y412500D01*
Y413812D02*
X191500Y415124D01*
X187564Y419060D02*
Y416436D01*
X191500D01*
Y419060D01*
X189532Y416436D02*
Y417748D01*
X191500Y422995D02*
Y420371D01*
X188876Y422995D01*
X188220D01*
X187564Y422339D01*
Y421027D01*
X188220Y420371D01*
X135000Y331436D02*
Y327500D01*
X136968D01*
X137624Y328156D01*
Y328812D01*
X136968Y329468D01*
X135000D01*
X136968D01*
X137624Y330124D01*
Y330780D01*
X136968Y331436D01*
X135000D01*
X138936Y327500D02*
Y331436D01*
X140248Y330124D01*
X141560Y331436D01*
Y327500D01*
X145495Y330780D02*
X144839Y331436D01*
X143527D01*
X142871Y330780D01*
Y330124D01*
X143527Y329468D01*
X144839D01*
X145495Y328812D01*
Y328156D01*
X144839Y327500D01*
X143527D01*
X142871Y328156D01*
X146807Y326844D02*
X149431D01*
X150743Y327500D02*
Y331436D01*
X152711D01*
X153367Y330780D01*
Y329468D01*
X152711Y328812D01*
X150743D01*
X152055D02*
X153367Y327500D01*
X157302Y331436D02*
X154679D01*
Y327500D01*
X157302D01*
X154679Y329468D02*
X155991D01*
X158614Y331436D02*
Y327500D01*
X161238D01*
X162550D02*
Y330124D01*
X163862Y331436D01*
X165174Y330124D01*
Y327500D01*
Y329468D01*
X162550D01*
X166486Y331436D02*
Y330780D01*
X167798Y329468D01*
X169110Y330780D01*
Y331436D01*
X167798Y329468D02*
Y327500D01*
X79500Y330936D02*
Y327000D01*
X81468D01*
X82124Y327656D01*
Y328312D01*
X81468Y328968D01*
X79500D01*
X81468D01*
X82124Y329624D01*
Y330280D01*
X81468Y330936D01*
X79500D01*
X86060Y330280D02*
X85404Y330936D01*
X84092D01*
X83436Y330280D01*
Y329624D01*
X84092Y328968D01*
X85404D01*
X86060Y328312D01*
Y327656D01*
X85404Y327000D01*
X84092D01*
X83436Y327656D01*
X87371Y327000D02*
Y330936D01*
X89339D01*
X89995Y330280D01*
Y328968D01*
X89339Y328312D01*
X87371D01*
X91307Y330936D02*
Y327000D01*
X93275D01*
X93931Y327656D01*
Y330280D01*
X93275Y330936D01*
X91307D01*
X95243Y326344D02*
X97867D01*
X99179Y327000D02*
Y330936D01*
X101147D01*
X101803Y330280D01*
Y328968D01*
X101147Y328312D01*
X99179D01*
X100491D02*
X101803Y327000D01*
X105738Y330936D02*
X103114D01*
Y327000D01*
X105738D01*
X103114Y328968D02*
X104426D01*
X107050Y330936D02*
Y327000D01*
X109674D01*
X110986D02*
Y329624D01*
X112298Y330936D01*
X113610Y329624D01*
Y327000D01*
Y328968D01*
X110986D01*
X114922Y330936D02*
Y330280D01*
X116234Y328968D01*
X117545Y330280D01*
Y330936D01*
X116234Y328968D02*
Y327000D01*
X136295Y135500D02*
X132360D01*
Y137468D01*
X133016Y138124D01*
X134327D01*
X134983Y137468D01*
Y135500D01*
Y136812D02*
X136295Y138124D01*
X135639Y139436D02*
X136295Y140092D01*
Y141404D01*
X135639Y142060D01*
X133016D01*
X132360Y141404D01*
Y140092D01*
X133016Y139436D01*
X133671D01*
X134327Y140092D01*
Y142060D01*
X133016Y143371D02*
X132360Y144027D01*
Y145339D01*
X133016Y145995D01*
X135639D01*
X136295Y145339D01*
Y144027D01*
X135639Y143371D01*
X133016D01*
X330606Y237000D02*
X334542D01*
Y235032D01*
X333886Y234376D01*
X332574D01*
X331918Y235032D01*
Y237000D01*
Y235688D02*
X330606Y234376D01*
X333886Y233064D02*
X334542Y232408D01*
Y231096D01*
X333886Y230440D01*
X333230D01*
X332574Y231096D01*
X331918Y230440D01*
X331262D01*
X330606Y231096D01*
Y232408D01*
X331262Y233064D01*
X331918D01*
X332574Y232408D01*
X333230Y233064D01*
X333886D01*
X332574Y232408D02*
Y231096D01*
X330606Y229129D02*
Y227817D01*
Y228473D01*
X334542D01*
X333886Y229129D01*
X82150Y184000D02*
X78214D01*
Y185968D01*
X78870Y186624D01*
X80182D01*
X80838Y185968D01*
Y184000D01*
Y185312D02*
X82150Y186624D01*
X81494Y187936D02*
X82150Y188592D01*
Y189904D01*
X81494Y190560D01*
X78870D01*
X78214Y189904D01*
Y188592D01*
X78870Y187936D01*
X79526D01*
X80182Y188592D01*
Y190560D01*
X82150Y191872D02*
Y193183D01*
Y192527D01*
X78214D01*
X78870Y191872D01*
X397945Y197000D02*
X394009D01*
Y198968D01*
X394665Y199624D01*
X395977D01*
X396633Y198968D01*
Y197000D01*
Y198312D02*
X397945Y199624D01*
X394665Y200936D02*
X394009Y201592D01*
Y202904D01*
X394665Y203560D01*
X395321D01*
X395977Y202904D01*
X396633Y203560D01*
X397289D01*
X397945Y202904D01*
Y201592D01*
X397289Y200936D01*
X396633D01*
X395977Y201592D01*
X395321Y200936D01*
X394665D01*
X395977Y201592D02*
Y202904D01*
X394665Y204872D02*
X394009Y205527D01*
Y206839D01*
X394665Y207495D01*
X397289D01*
X397945Y206839D01*
Y205527D01*
X397289Y204872D01*
X394665D01*
X92229Y176485D02*
X88293D01*
Y178453D01*
X88949Y179109D01*
X90261D01*
X90917Y178453D01*
Y176485D01*
Y177797D02*
X92229Y179109D01*
X88293Y180421D02*
Y183045D01*
X88949D01*
X91573Y180421D01*
X92229D01*
X91573Y184356D02*
X92229Y185012D01*
Y186324D01*
X91573Y186980D01*
X88949D01*
X88293Y186324D01*
Y185012D01*
X88949Y184356D01*
X89605D01*
X90261Y185012D01*
Y186980D01*
X105000Y198500D02*
X108936D01*
Y196532D01*
X108280Y195876D01*
X106968D01*
X106312Y196532D01*
Y198500D01*
Y197188D02*
X105000Y195876D01*
X108936Y194564D02*
Y191940D01*
X108280D01*
X105656Y194564D01*
X105000D01*
X108280Y190629D02*
X108936Y189973D01*
Y188661D01*
X108280Y188005D01*
X107624D01*
X106968Y188661D01*
X106312Y188005D01*
X105656D01*
X105000Y188661D01*
Y189973D01*
X105656Y190629D01*
X106312D01*
X106968Y189973D01*
X107624Y190629D01*
X108280D01*
X106968Y189973D02*
Y188661D01*
X144000Y105500D02*
Y109436D01*
X145968D01*
X146624Y108780D01*
Y107468D01*
X145968Y106812D01*
X144000D01*
X145312D02*
X146624Y105500D01*
X147936Y109436D02*
X150560D01*
Y108780D01*
X147936Y106156D01*
Y105500D01*
X151872Y109436D02*
X154495D01*
Y108780D01*
X151872Y106156D01*
Y105500D01*
X134500Y120500D02*
Y124436D01*
X136468D01*
X137124Y123780D01*
Y122468D01*
X136468Y121812D01*
X134500D01*
X135812D02*
X137124Y120500D01*
X138436Y124436D02*
X141060D01*
Y123780D01*
X138436Y121156D01*
Y120500D01*
X144995Y124436D02*
X143683Y123780D01*
X142371Y122468D01*
Y121156D01*
X143027Y120500D01*
X144339D01*
X144995Y121156D01*
Y121812D01*
X144339Y122468D01*
X142371D01*
X129000Y110492D02*
X125064D01*
Y112460D01*
X125720Y113116D01*
X127032D01*
X127688Y112460D01*
Y110492D01*
Y111804D02*
X129000Y113116D01*
X125064Y114428D02*
Y117052D01*
X125720D01*
X128344Y114428D01*
X129000D01*
X125064Y120987D02*
Y118364D01*
X127032D01*
X126376Y119676D01*
Y120332D01*
X127032Y120987D01*
X128344D01*
X129000Y120332D01*
Y119020D01*
X128344Y118364D01*
X158236Y108799D02*
X154300D01*
Y110767D01*
X154956Y111423D01*
X156268D01*
X156924Y110767D01*
Y108799D01*
Y110111D02*
X158236Y111423D01*
X154300Y112735D02*
Y115359D01*
X154956D01*
X157580Y112735D01*
X158236D01*
Y118639D02*
X154300D01*
X156268Y116671D01*
Y119295D01*
X176917Y106000D02*
Y109936D01*
X178885D01*
X179541Y109280D01*
Y107968D01*
X178885Y107312D01*
X176917D01*
X178229D02*
X179541Y106000D01*
X180853Y109936D02*
X183477D01*
Y109280D01*
X180853Y106656D01*
Y106000D01*
X184789Y109280D02*
X185445Y109936D01*
X186757D01*
X187413Y109280D01*
Y108624D01*
X186757Y107968D01*
X186101D01*
X186757D01*
X187413Y107312D01*
Y106656D01*
X186757Y106000D01*
X185445D01*
X184789Y106656D01*
X173000Y90000D02*
Y93936D01*
X174968D01*
X175624Y93280D01*
Y91968D01*
X174968Y91312D01*
X173000D01*
X174312D02*
X175624Y90000D01*
X176936Y93936D02*
X179560D01*
Y93280D01*
X176936Y90656D01*
Y90000D01*
X183495D02*
X180871D01*
X183495Y92624D01*
Y93280D01*
X182839Y93936D01*
X181527D01*
X180871Y93280D01*
X148000Y152000D02*
Y155936D01*
X149968D01*
X150624Y155280D01*
Y153968D01*
X149968Y153312D01*
X148000D01*
X149312D02*
X150624Y152000D01*
X151936Y155936D02*
X154560D01*
Y155280D01*
X151936Y152656D01*
Y152000D01*
X155871D02*
X157183D01*
X156527D01*
Y155936D01*
X155871Y155280D01*
X148000Y156445D02*
Y160381D01*
X149968D01*
X150624Y159725D01*
Y158413D01*
X149968Y157757D01*
X148000D01*
X149312D02*
X150624Y156445D01*
X151936Y160381D02*
X154560D01*
Y159725D01*
X151936Y157101D01*
Y156445D01*
X155871Y159725D02*
X156527Y160381D01*
X157839D01*
X158495Y159725D01*
Y157101D01*
X157839Y156445D01*
X156527D01*
X155871Y157101D01*
Y159725D01*
X137000Y166000D02*
Y169936D01*
X138968D01*
X139624Y169280D01*
Y167968D01*
X138968Y167312D01*
X137000D01*
X138312D02*
X139624Y166000D01*
X143560Y169936D02*
X142248Y169280D01*
X140936Y167968D01*
Y166656D01*
X141592Y166000D01*
X142904D01*
X143560Y166656D01*
Y167312D01*
X142904Y167968D01*
X140936D01*
X144871Y166656D02*
X145527Y166000D01*
X146839D01*
X147495Y166656D01*
Y169280D01*
X146839Y169936D01*
X145527D01*
X144871Y169280D01*
Y168624D01*
X145527Y167968D01*
X147495D01*
X146500Y130500D02*
Y134436D01*
X148468D01*
X149124Y133780D01*
Y132468D01*
X148468Y131812D01*
X146500D01*
X147812D02*
X149124Y130500D01*
X153060Y134436D02*
X151748Y133780D01*
X150436Y132468D01*
Y131156D01*
X151092Y130500D01*
X152404D01*
X153060Y131156D01*
Y131812D01*
X152404Y132468D01*
X150436D01*
X154372Y133780D02*
X155027Y134436D01*
X156339D01*
X156995Y133780D01*
Y133124D01*
X156339Y132468D01*
X156995Y131812D01*
Y131156D01*
X156339Y130500D01*
X155027D01*
X154372Y131156D01*
Y131812D01*
X155027Y132468D01*
X154372Y133124D01*
Y133780D01*
X155027Y132468D02*
X156339D01*
X150642Y136000D02*
X146706D01*
Y137968D01*
X147362Y138624D01*
X148674D01*
X149330Y137968D01*
Y136000D01*
Y137312D02*
X150642Y138624D01*
X146706Y142560D02*
X147362Y141248D01*
X148674Y139936D01*
X149986D01*
X150642Y140592D01*
Y141904D01*
X149986Y142560D01*
X149330D01*
X148674Y141904D01*
Y139936D01*
X146706Y143871D02*
Y146495D01*
X147362D01*
X149986Y143871D01*
X150642D01*
X257539Y101945D02*
Y105881D01*
X259507D01*
X260163Y105225D01*
Y103913D01*
X259507Y103257D01*
X257539D01*
X258851D02*
X260163Y101945D01*
X264099Y105881D02*
X262787Y105225D01*
X261475Y103913D01*
Y102601D01*
X262131Y101945D01*
X263443D01*
X264099Y102601D01*
Y103257D01*
X263443Y103913D01*
X261475D01*
X268035Y105881D02*
X266723Y105225D01*
X265411Y103913D01*
Y102601D01*
X266067Y101945D01*
X267379D01*
X268035Y102601D01*
Y103257D01*
X267379Y103913D01*
X265411D01*
X247622Y97659D02*
Y101595D01*
X249590D01*
X250246Y100939D01*
Y99627D01*
X249590Y98971D01*
X247622D01*
X248934D02*
X250246Y97659D01*
X254182Y101595D02*
X252870Y100939D01*
X251558Y99627D01*
Y98315D01*
X252214Y97659D01*
X253526D01*
X254182Y98315D01*
Y98971D01*
X253526Y99627D01*
X251558D01*
X258117Y101595D02*
X255493D01*
Y99627D01*
X256805Y100283D01*
X257461D01*
X258117Y99627D01*
Y98315D01*
X257461Y97659D01*
X256150D01*
X255493Y98315D01*
X226000Y104596D02*
X222064D01*
Y106564D01*
X222720Y107220D01*
X224032D01*
X224688Y106564D01*
Y104596D01*
Y105908D02*
X226000Y107220D01*
X222064Y111156D02*
X222720Y109844D01*
X224032Y108532D01*
X225344D01*
X226000Y109188D01*
Y110500D01*
X225344Y111156D01*
X224688D01*
X224032Y110500D01*
Y108532D01*
X226000Y114436D02*
X222064D01*
X224032Y112468D01*
Y115092D01*
X225315Y81045D02*
Y84981D01*
X227283D01*
X227939Y84325D01*
Y83013D01*
X227283Y82357D01*
X225315D01*
X226627D02*
X227939Y81045D01*
X231875Y84981D02*
X230563Y84325D01*
X229251Y83013D01*
Y81701D01*
X229907Y81045D01*
X231219D01*
X231875Y81701D01*
Y82357D01*
X231219Y83013D01*
X229251D01*
X233187Y84325D02*
X233843Y84981D01*
X235155D01*
X235811Y84325D01*
Y83669D01*
X235155Y83013D01*
X234499D01*
X235155D01*
X235811Y82357D01*
Y81701D01*
X235155Y81045D01*
X233843D01*
X233187Y81701D01*
X371000Y127500D02*
Y131436D01*
X372968D01*
X373624Y130780D01*
Y129468D01*
X372968Y128812D01*
X371000D01*
X372312D02*
X373624Y127500D01*
X377560Y131436D02*
X376248Y130780D01*
X374936Y129468D01*
Y128156D01*
X375592Y127500D01*
X376904D01*
X377560Y128156D01*
Y128812D01*
X376904Y129468D01*
X374936D01*
X381495Y127500D02*
X378871D01*
X381495Y130124D01*
Y130780D01*
X380839Y131436D01*
X379527D01*
X378871Y130780D01*
X378500Y98000D02*
Y101936D01*
X380468D01*
X381124Y101280D01*
Y99968D01*
X380468Y99312D01*
X378500D01*
X379812D02*
X381124Y98000D01*
X385060Y101936D02*
X382436D01*
Y99968D01*
X383748Y100624D01*
X384404D01*
X385060Y99968D01*
Y98656D01*
X384404Y98000D01*
X383092D01*
X382436Y98656D01*
X386371Y101936D02*
X388995D01*
Y101280D01*
X386371Y98656D01*
Y98000D01*
X388500Y118045D02*
X392436D01*
Y116077D01*
X391780Y115421D01*
X390468D01*
X389812Y116077D01*
Y118045D01*
Y116733D02*
X388500Y115421D01*
X392436Y111486D02*
Y114109D01*
X390468D01*
X391124Y112797D01*
Y112142D01*
X390468Y111486D01*
X389156D01*
X388500Y112142D01*
Y113453D01*
X389156Y114109D01*
X392436Y107550D02*
X391780Y108862D01*
X390468Y110174D01*
X389156D01*
X388500Y109518D01*
Y108206D01*
X389156Y107550D01*
X389812D01*
X390468Y108206D01*
Y110174D01*
X243642Y343992D02*
Y347928D01*
X245610D01*
X246266Y347272D01*
Y345960D01*
X245610Y345304D01*
X243642D01*
X244954D02*
X246266Y343992D01*
X250201Y347928D02*
X247578D01*
Y345960D01*
X248889Y346616D01*
X249545D01*
X250201Y345960D01*
Y344648D01*
X249545Y343992D01*
X248233D01*
X247578Y344648D01*
X254137Y347928D02*
X251513D01*
Y345960D01*
X252825Y346616D01*
X253481D01*
X254137Y345960D01*
Y344648D01*
X253481Y343992D01*
X252169D01*
X251513Y344648D01*
X235642Y330492D02*
Y334428D01*
X237610D01*
X238265Y333772D01*
Y332460D01*
X237610Y331804D01*
X235642D01*
X236954D02*
X238265Y330492D01*
X242201Y334428D02*
X239578D01*
Y332460D01*
X240889Y333116D01*
X241545D01*
X242201Y332460D01*
Y331148D01*
X241545Y330492D01*
X240233D01*
X239578Y331148D01*
X245481Y330492D02*
Y334428D01*
X243513Y332460D01*
X246137D01*
X186500Y341000D02*
X182564D01*
Y342968D01*
X183220Y343624D01*
X184532D01*
X185188Y342968D01*
Y341000D01*
Y342312D02*
X186500Y343624D01*
X182564Y347560D02*
Y344936D01*
X184532D01*
X183876Y346248D01*
Y346904D01*
X184532Y347560D01*
X185844D01*
X186500Y346904D01*
Y345592D01*
X185844Y344936D01*
X183220Y348871D02*
X182564Y349527D01*
Y350839D01*
X183220Y351495D01*
X183876D01*
X184532Y350839D01*
Y350183D01*
Y350839D01*
X185188Y351495D01*
X185844D01*
X186500Y350839D01*
Y349527D01*
X185844Y348871D01*
X176000Y327303D02*
X172064D01*
Y329271D01*
X172720Y329927D01*
X174032D01*
X174688Y329271D01*
Y327303D01*
Y328615D02*
X176000Y329927D01*
X172064Y333863D02*
Y331239D01*
X174032D01*
X173376Y332551D01*
Y333207D01*
X174032Y333863D01*
X175344D01*
X176000Y333207D01*
Y331895D01*
X175344Y331239D01*
X176000Y337799D02*
Y335175D01*
X173376Y337799D01*
X172720D01*
X172064Y337142D01*
Y335831D01*
X172720Y335175D01*
X136700Y320900D02*
Y324836D01*
X138668D01*
X139324Y324180D01*
Y322868D01*
X138668Y322212D01*
X136700D01*
X138012D02*
X139324Y320900D01*
X143260Y324836D02*
X140636D01*
Y322868D01*
X141948Y323524D01*
X142604D01*
X143260Y322868D01*
Y321556D01*
X142604Y320900D01*
X141292D01*
X140636Y321556D01*
X144571Y320900D02*
X145883D01*
X145227D01*
Y324836D01*
X144571Y324180D01*
X104700Y320900D02*
Y324836D01*
X106668D01*
X107324Y324180D01*
Y322868D01*
X106668Y322212D01*
X104700D01*
X106012D02*
X107324Y320900D01*
X111260Y324836D02*
X108636D01*
Y322868D01*
X109948Y323524D01*
X110604D01*
X111260Y322868D01*
Y321556D01*
X110604Y320900D01*
X109292D01*
X108636Y321556D01*
X112572Y324180D02*
X113227Y324836D01*
X114539D01*
X115195Y324180D01*
Y321556D01*
X114539Y320900D01*
X113227D01*
X112572Y321556D01*
Y324180D01*
X358000Y235500D02*
X361936D01*
Y233532D01*
X361280Y232876D01*
X359968D01*
X359312Y233532D01*
Y235500D01*
Y234188D02*
X358000Y232876D01*
Y229596D02*
X361936D01*
X359968Y231564D01*
Y228940D01*
X358656Y227628D02*
X358000Y226973D01*
Y225661D01*
X358656Y225005D01*
X361280D01*
X361936Y225661D01*
Y226973D01*
X361280Y227628D01*
X360624D01*
X359968Y226973D01*
Y225005D01*
X368000Y225500D02*
X364064D01*
Y227468D01*
X364720Y228124D01*
X366032D01*
X366688Y227468D01*
Y225500D01*
Y226812D02*
X368000Y228124D01*
Y231404D02*
X364064D01*
X366032Y229436D01*
Y232060D01*
X364720Y233371D02*
X364064Y234027D01*
Y235339D01*
X364720Y235995D01*
X365376D01*
X366032Y235339D01*
X366688Y235995D01*
X367344D01*
X368000Y235339D01*
Y234027D01*
X367344Y233371D01*
X366688D01*
X366032Y234027D01*
X365376Y233371D01*
X364720D01*
X366032Y234027D02*
Y235339D01*
X355370Y265307D02*
X359306D01*
Y263339D01*
X358650Y262683D01*
X357338D01*
X356682Y263339D01*
Y265307D01*
Y263995D02*
X355370Y262683D01*
Y259403D02*
X359306D01*
X357338Y261371D01*
Y258748D01*
X359306Y257436D02*
Y254812D01*
X358650D01*
X356026Y257436D01*
X355370D01*
X379000Y261000D02*
X382936D01*
Y259032D01*
X382280Y258376D01*
X380968D01*
X380312Y259032D01*
Y261000D01*
Y259688D02*
X379000Y258376D01*
Y255096D02*
X382936D01*
X380968Y257064D01*
Y254440D01*
X382936Y250505D02*
X382280Y251817D01*
X380968Y253129D01*
X379656D01*
X379000Y252473D01*
Y251161D01*
X379656Y250505D01*
X380312D01*
X380968Y251161D01*
Y253129D01*
X323606Y235449D02*
X327542D01*
Y233481D01*
X326886Y232825D01*
X325574D01*
X324918Y233481D01*
Y235449D01*
Y234137D02*
X323606Y232825D01*
Y229545D02*
X327542D01*
X325574Y231513D01*
Y228889D01*
X327542Y224954D02*
Y227577D01*
X325574D01*
X326230Y226265D01*
Y225609D01*
X325574Y224954D01*
X324262D01*
X323606Y225609D01*
Y226921D01*
X324262Y227577D01*
X384500Y370000D02*
Y373936D01*
X386468D01*
X387124Y373280D01*
Y371968D01*
X386468Y371312D01*
X384500D01*
X385812D02*
X387124Y370000D01*
X390404D02*
Y373936D01*
X388436Y371968D01*
X391060D01*
X394339Y370000D02*
Y373936D01*
X392372Y371968D01*
X394995D01*
X330606Y264449D02*
Y268385D01*
X332574D01*
X333230Y267729D01*
Y266417D01*
X332574Y265761D01*
X330606D01*
X331918D02*
X333230Y264449D01*
X336510D02*
Y268385D01*
X334542Y266417D01*
X337166D01*
X338478Y267729D02*
X339134Y268385D01*
X340446D01*
X341102Y267729D01*
Y267073D01*
X340446Y266417D01*
X339790D01*
X340446D01*
X341102Y265761D01*
Y265105D01*
X340446Y264449D01*
X339134D01*
X338478Y265105D01*
X350284Y256000D02*
X346348D01*
Y257968D01*
X347004Y258624D01*
X348316D01*
X348972Y257968D01*
Y256000D01*
Y257312D02*
X350284Y258624D01*
Y261904D02*
X346348D01*
X348316Y259936D01*
Y262560D01*
X350284Y266495D02*
Y263872D01*
X347660Y266495D01*
X347004D01*
X346348Y265839D01*
Y264527D01*
X347004Y263872D01*
X289000Y245169D02*
X292936D01*
Y243201D01*
X292280Y242546D01*
X290968D01*
X290312Y243201D01*
Y245169D01*
Y243857D02*
X289000Y242546D01*
Y239266D02*
X292936D01*
X290968Y241234D01*
Y238610D01*
X289000Y237298D02*
Y235986D01*
Y236642D01*
X292936D01*
X292280Y237298D01*
X297000Y226500D02*
Y230436D01*
X298968D01*
X299624Y229780D01*
Y228468D01*
X298968Y227812D01*
X297000D01*
X298312D02*
X299624Y226500D01*
X302904D02*
Y230436D01*
X300936Y228468D01*
X303560D01*
X304872Y229780D02*
X305527Y230436D01*
X306839D01*
X307495Y229780D01*
Y227156D01*
X306839Y226500D01*
X305527D01*
X304872Y227156D01*
Y229780D01*
X305500Y245500D02*
Y249436D01*
X307468D01*
X308124Y248780D01*
Y247468D01*
X307468Y246812D01*
X305500D01*
X306812D02*
X308124Y245500D01*
X309436Y248780D02*
X310092Y249436D01*
X311404D01*
X312060Y248780D01*
Y248124D01*
X311404Y247468D01*
X310748D01*
X311404D01*
X312060Y246812D01*
Y246156D01*
X311404Y245500D01*
X310092D01*
X309436Y246156D01*
X313371D02*
X314027Y245500D01*
X315339D01*
X315995Y246156D01*
Y248780D01*
X315339Y249436D01*
X314027D01*
X313371Y248780D01*
Y248124D01*
X314027Y247468D01*
X315995D01*
X325000Y249000D02*
X321064D01*
Y250968D01*
X321720Y251624D01*
X323032D01*
X323688Y250968D01*
Y249000D01*
Y250312D02*
X325000Y251624D01*
X321720Y252936D02*
X321064Y253592D01*
Y254904D01*
X321720Y255560D01*
X322376D01*
X323032Y254904D01*
Y254248D01*
Y254904D01*
X323688Y255560D01*
X324344D01*
X325000Y254904D01*
Y253592D01*
X324344Y252936D01*
X321720Y256872D02*
X321064Y257527D01*
Y258839D01*
X321720Y259495D01*
X322376D01*
X323032Y258839D01*
X323688Y259495D01*
X324344D01*
X325000Y258839D01*
Y257527D01*
X324344Y256872D01*
X323688D01*
X323032Y257527D01*
X322376Y256872D01*
X321720D01*
X323032Y257527D02*
Y258839D01*
X277736Y354500D02*
Y358436D01*
X279704D01*
X280360Y357780D01*
Y356468D01*
X279704Y355812D01*
X277736D01*
X279048D02*
X280360Y354500D01*
X281672Y357780D02*
X282328Y358436D01*
X283640D01*
X284296Y357780D01*
Y357124D01*
X283640Y356468D01*
X282984D01*
X283640D01*
X284296Y355812D01*
Y355156D01*
X283640Y354500D01*
X282328D01*
X281672Y355156D01*
X285608Y358436D02*
X288231D01*
Y357780D01*
X285608Y355156D01*
Y354500D01*
X262000Y358000D02*
X265936D01*
Y356032D01*
X265280Y355376D01*
X263968D01*
X263312Y356032D01*
Y358000D01*
Y356688D02*
X262000Y355376D01*
X265280Y354064D02*
X265936Y353408D01*
Y352096D01*
X265280Y351440D01*
X264624D01*
X263968Y352096D01*
Y352752D01*
Y352096D01*
X263312Y351440D01*
X262656D01*
X262000Y352096D01*
Y353408D01*
X262656Y354064D01*
X265936Y347505D02*
X265280Y348817D01*
X263968Y350129D01*
X262656D01*
X262000Y349473D01*
Y348161D01*
X262656Y347505D01*
X263312D01*
X263968Y348161D01*
Y350129D01*
X278000Y349000D02*
Y352936D01*
X279968D01*
X280624Y352280D01*
Y350968D01*
X279968Y350312D01*
X278000D01*
X279312D02*
X280624Y349000D01*
X281936Y352280D02*
X282592Y352936D01*
X283904D01*
X284560Y352280D01*
Y351624D01*
X283904Y350968D01*
X283248D01*
X283904D01*
X284560Y350312D01*
Y349656D01*
X283904Y349000D01*
X282592D01*
X281936Y349656D01*
X288495Y352936D02*
X285872D01*
Y350968D01*
X287183Y351624D01*
X287839D01*
X288495Y350968D01*
Y349656D01*
X287839Y349000D01*
X286527D01*
X285872Y349656D01*
X291000Y337500D02*
X287064D01*
Y339468D01*
X287720Y340124D01*
X289032D01*
X289688Y339468D01*
Y337500D01*
Y338812D02*
X291000Y340124D01*
X287720Y341436D02*
X287064Y342092D01*
Y343404D01*
X287720Y344060D01*
X288376D01*
X289032Y343404D01*
Y342748D01*
Y343404D01*
X289688Y344060D01*
X290344D01*
X291000Y343404D01*
Y342092D01*
X290344Y341436D01*
X291000Y347339D02*
X287064D01*
X289032Y345372D01*
Y347995D01*
X315500Y146000D02*
X311564D01*
Y147968D01*
X312220Y148624D01*
X313532D01*
X314188Y147968D01*
Y146000D01*
Y147312D02*
X315500Y148624D01*
X312220Y149936D02*
X311564Y150592D01*
Y151904D01*
X312220Y152560D01*
X312876D01*
X313532Y151904D01*
Y151248D01*
Y151904D01*
X314188Y152560D01*
X314844D01*
X315500Y151904D01*
Y150592D01*
X314844Y149936D01*
X312220Y153872D02*
X311564Y154527D01*
Y155839D01*
X312220Y156495D01*
X312876D01*
X313532Y155839D01*
Y155183D01*
Y155839D01*
X314188Y156495D01*
X314844D01*
X315500Y155839D01*
Y154527D01*
X314844Y153872D01*
X305500Y155500D02*
X309436D01*
Y153532D01*
X308780Y152876D01*
X307468D01*
X306812Y153532D01*
Y155500D01*
Y154188D02*
X305500Y152876D01*
X308780Y151564D02*
X309436Y150908D01*
Y149596D01*
X308780Y148940D01*
X308124D01*
X307468Y149596D01*
Y150252D01*
Y149596D01*
X306812Y148940D01*
X306156D01*
X305500Y149596D01*
Y150908D01*
X306156Y151564D01*
X305500Y145005D02*
Y147628D01*
X308124Y145005D01*
X308780D01*
X309436Y145661D01*
Y146973D01*
X308780Y147628D01*
X286000Y145409D02*
Y149345D01*
X287968D01*
X288624Y148689D01*
Y147377D01*
X287968Y146721D01*
X286000D01*
X287312D02*
X288624Y145409D01*
X289936Y148689D02*
X290592Y149345D01*
X291904D01*
X292560Y148689D01*
Y148033D01*
X291904Y147377D01*
X291248D01*
X291904D01*
X292560Y146721D01*
Y146065D01*
X291904Y145409D01*
X290592D01*
X289936Y146065D01*
X293871Y145409D02*
X295183D01*
X294527D01*
Y149345D01*
X293871Y148689D01*
X305000Y134039D02*
X301064D01*
Y136007D01*
X301720Y136663D01*
X303032D01*
X303688Y136007D01*
Y134039D01*
Y135351D02*
X305000Y136663D01*
X301720Y137975D02*
X301064Y138631D01*
Y139943D01*
X301720Y140598D01*
X302376D01*
X303032Y139943D01*
Y139286D01*
Y139943D01*
X303688Y140598D01*
X304344D01*
X305000Y139943D01*
Y138631D01*
X304344Y137975D01*
X301720Y141910D02*
X301064Y142566D01*
Y143878D01*
X301720Y144534D01*
X304344D01*
X305000Y143878D01*
Y142566D01*
X304344Y141910D01*
X301720D01*
X140000Y235000D02*
Y238936D01*
X141968D01*
X142624Y238280D01*
Y236968D01*
X141968Y236312D01*
X140000D01*
X141312D02*
X142624Y235000D01*
X146560D02*
X143936D01*
X146560Y237624D01*
Y238280D01*
X145904Y238936D01*
X144592D01*
X143936Y238280D01*
X150495Y238936D02*
X147871D01*
Y236968D01*
X149183Y237624D01*
X149839D01*
X150495Y236968D01*
Y235656D01*
X149839Y235000D01*
X148527D01*
X147871Y235656D01*
X168595Y282256D02*
Y286192D01*
X170562D01*
X171218Y285536D01*
Y284224D01*
X170562Y283568D01*
X168595D01*
X169906D02*
X171218Y282256D01*
X175154D02*
X172530D01*
X175154Y284880D01*
Y285536D01*
X174498Y286192D01*
X173186D01*
X172530Y285536D01*
X178434Y282256D02*
Y286192D01*
X176466Y284224D01*
X179090D01*
X319742Y136549D02*
Y140485D01*
X321710D01*
X322365Y139829D01*
Y138517D01*
X321710Y137861D01*
X319742D01*
X321054D02*
X322365Y136549D01*
X326301D02*
X323677D01*
X326301Y139173D01*
Y139829D01*
X325645Y140485D01*
X324333D01*
X323677Y139829D01*
X327613D02*
X328269Y140485D01*
X329581D01*
X330237Y139829D01*
Y139173D01*
X329581Y138517D01*
X328925D01*
X329581D01*
X330237Y137861D01*
Y137205D01*
X329581Y136549D01*
X328269D01*
X327613Y137205D01*
X342000Y86000D02*
Y89936D01*
X343968D01*
X344624Y89280D01*
Y87968D01*
X343968Y87312D01*
X342000D01*
X343312D02*
X344624Y86000D01*
X348560D02*
X345936D01*
X348560Y88624D01*
Y89280D01*
X347904Y89936D01*
X346592D01*
X345936Y89280D01*
X352495Y86000D02*
X349871D01*
X352495Y88624D01*
Y89280D01*
X351839Y89936D01*
X350527D01*
X349871Y89280D01*
X355000Y98000D02*
Y94064D01*
X353032D01*
X352376Y94720D01*
Y96032D01*
X353032Y96688D01*
X355000D01*
X353688D02*
X352376Y98000D01*
X348440D02*
X351064D01*
X348440Y95376D01*
Y94720D01*
X349096Y94064D01*
X350408D01*
X351064Y94720D01*
X347129Y98000D02*
X345817D01*
X346473D01*
Y94064D01*
X347129Y94720D01*
X342819Y375445D02*
Y379381D01*
X344787D01*
X345443Y378725D01*
Y377413D01*
X344787Y376757D01*
X342819D01*
X344131D02*
X345443Y375445D01*
X349378D02*
X346755D01*
X349378Y378069D01*
Y378725D01*
X348723Y379381D01*
X347411D01*
X346755Y378725D01*
X350690D02*
X351346Y379381D01*
X352658D01*
X353314Y378725D01*
Y376101D01*
X352658Y375445D01*
X351346D01*
X350690Y376101D01*
Y378725D01*
X323500Y383445D02*
Y387381D01*
X325468D01*
X326124Y386725D01*
Y385413D01*
X325468Y384757D01*
X323500D01*
X324812D02*
X326124Y383445D01*
X327436D02*
X328748D01*
X328092D01*
Y387381D01*
X327436Y386725D01*
X330715Y384101D02*
X331371Y383445D01*
X332683D01*
X333339Y384101D01*
Y386725D01*
X332683Y387381D01*
X331371D01*
X330715Y386725D01*
Y386069D01*
X331371Y385413D01*
X333339D01*
X296000Y404000D02*
Y407936D01*
X297968D01*
X298624Y407280D01*
Y405968D01*
X297968Y405312D01*
X296000D01*
X297312D02*
X298624Y404000D01*
X299936D02*
X301248D01*
X300592D01*
Y407936D01*
X299936Y407280D01*
X303216D02*
X303871Y407936D01*
X305183D01*
X305839Y407280D01*
Y406624D01*
X305183Y405968D01*
X305839Y405312D01*
Y404656D01*
X305183Y404000D01*
X303871D01*
X303216Y404656D01*
Y405312D01*
X303871Y405968D01*
X303216Y406624D01*
Y407280D01*
X303871Y405968D02*
X305183D01*
X283500Y394500D02*
X279564D01*
Y396468D01*
X280220Y397124D01*
X281532D01*
X282188Y396468D01*
Y394500D01*
Y395812D02*
X283500Y397124D01*
Y398436D02*
Y399748D01*
Y399092D01*
X279564D01*
X280220Y398436D01*
X279564Y401716D02*
Y404339D01*
X280220D01*
X282844Y401716D01*
X283500D01*
X272000Y384500D02*
X268064D01*
Y386468D01*
X268720Y387124D01*
X270032D01*
X270688Y386468D01*
Y384500D01*
Y385812D02*
X272000Y387124D01*
Y388436D02*
Y389748D01*
Y389092D01*
X268064D01*
X268720Y388436D01*
X268064Y394339D02*
X268720Y393027D01*
X270032Y391716D01*
X271344D01*
X272000Y392372D01*
Y393683D01*
X271344Y394339D01*
X270688D01*
X270032Y393683D01*
Y391716D01*
X303500Y336500D02*
Y340436D01*
X305468D01*
X306124Y339780D01*
Y338468D01*
X305468Y337812D01*
X303500D01*
X304812D02*
X306124Y336500D01*
X307436D02*
X308748D01*
X308092D01*
Y340436D01*
X307436Y339780D01*
X313339Y340436D02*
X310716D01*
Y338468D01*
X312027Y339124D01*
X312683D01*
X313339Y338468D01*
Y337156D01*
X312683Y336500D01*
X311371D01*
X310716Y337156D01*
X347500Y314445D02*
X343564D01*
Y316413D01*
X344220Y317069D01*
X345532D01*
X346188Y316413D01*
Y314445D01*
Y315757D02*
X347500Y317069D01*
Y318381D02*
Y319692D01*
Y319037D01*
X343564D01*
X344220Y318381D01*
X347500Y323628D02*
X343564D01*
X345532Y321660D01*
Y324284D01*
X312500Y345000D02*
X308564D01*
Y346968D01*
X309220Y347624D01*
X310532D01*
X311188Y346968D01*
Y345000D01*
Y346312D02*
X312500Y347624D01*
Y348936D02*
Y350248D01*
Y349592D01*
X308564D01*
X309220Y348936D01*
Y352216D02*
X308564Y352871D01*
Y354183D01*
X309220Y354839D01*
X309876D01*
X310532Y354183D01*
Y353527D01*
Y354183D01*
X311188Y354839D01*
X311844D01*
X312500Y354183D01*
Y352871D01*
X311844Y352216D01*
X336000Y303000D02*
X332064D01*
Y304968D01*
X332720Y305624D01*
X334032D01*
X334688Y304968D01*
Y303000D01*
Y304312D02*
X336000Y305624D01*
Y306936D02*
Y308248D01*
Y307592D01*
X332064D01*
X332720Y306936D01*
X336000Y312839D02*
Y310215D01*
X333376Y312839D01*
X332720D01*
X332064Y312183D01*
Y310872D01*
X332720Y310215D01*
X151700Y320900D02*
Y324836D01*
X153668D01*
X154324Y324180D01*
Y322868D01*
X153668Y322212D01*
X151700D01*
X153012D02*
X154324Y320900D01*
X157604D02*
X156292D01*
X155636Y321556D01*
Y322868D01*
X156292Y323524D01*
X157604D01*
X158260Y322868D01*
Y322212D01*
X155636D01*
X159572Y320900D02*
X161539D01*
X162195Y321556D01*
X161539Y322212D01*
X160227D01*
X159572Y322868D01*
X160227Y323524D01*
X162195D01*
X165475Y320900D02*
X164163D01*
X163507Y321556D01*
Y322868D01*
X164163Y323524D01*
X165475D01*
X166131Y322868D01*
Y322212D01*
X163507D01*
X168099Y324180D02*
Y323524D01*
X167443D01*
X168755D01*
X168099D01*
Y321556D01*
X168755Y320900D01*
X214500Y335000D02*
Y338936D01*
X216468D01*
X217124Y338280D01*
Y336968D01*
X216468Y336312D01*
X214500D01*
X215812D02*
X217124Y335000D01*
X218436D02*
X219748D01*
X219092D01*
Y338936D01*
X218436Y338280D01*
X221715D02*
X222372Y338936D01*
X223683D01*
X224339Y338280D01*
Y335656D01*
X223683Y335000D01*
X222372D01*
X221715Y335656D01*
Y338280D01*
X166000Y339500D02*
Y343436D01*
X167968D01*
X168624Y342780D01*
Y341468D01*
X167968Y340812D01*
X166000D01*
X167312D02*
X168624Y339500D01*
X169936Y340156D02*
X170592Y339500D01*
X171904D01*
X172560Y340156D01*
Y342780D01*
X171904Y343436D01*
X170592D01*
X169936Y342780D01*
Y342124D01*
X170592Y341468D01*
X172560D01*
X116000Y344567D02*
X112064D01*
Y346535D01*
X112720Y347191D01*
X114032D01*
X114688Y346535D01*
Y344567D01*
Y345879D02*
X116000Y347191D01*
X112720Y348503D02*
X112064Y349159D01*
Y350470D01*
X112720Y351127D01*
X113376D01*
X114032Y350470D01*
X114688Y351127D01*
X115344D01*
X116000Y350470D01*
Y349159D01*
X115344Y348503D01*
X114688D01*
X114032Y349159D01*
X113376Y348503D01*
X112720D01*
X114032Y349159D02*
Y350470D01*
X195500Y343000D02*
X191564D01*
Y344968D01*
X192220Y345624D01*
X193532D01*
X194188Y344968D01*
Y343000D01*
Y344312D02*
X195500Y345624D01*
X191564Y346936D02*
Y349560D01*
X192220D01*
X194844Y346936D01*
X195500D01*
X143500Y345000D02*
X139564D01*
Y346968D01*
X140220Y347624D01*
X141532D01*
X142188Y346968D01*
Y345000D01*
Y346312D02*
X143500Y347624D01*
X139564Y351560D02*
X140220Y350248D01*
X141532Y348936D01*
X142844D01*
X143500Y349592D01*
Y350904D01*
X142844Y351560D01*
X142188D01*
X141532Y350904D01*
Y348936D01*
X79500Y350500D02*
X83436D01*
Y348532D01*
X82780Y347876D01*
X81468D01*
X80812Y348532D01*
Y350500D01*
Y349188D02*
X79500Y347876D01*
X83436Y343940D02*
Y346564D01*
X81468D01*
X82124Y345252D01*
Y344596D01*
X81468Y343940D01*
X80156D01*
X79500Y344596D01*
Y345908D01*
X80156Y346564D01*
X384000Y204091D02*
Y208026D01*
X385968D01*
X386624Y207370D01*
Y206058D01*
X385968Y205402D01*
X384000D01*
X385312D02*
X386624Y204091D01*
X389904D02*
Y208026D01*
X387936Y206058D01*
X390560D01*
X376642Y200000D02*
X372706D01*
Y201968D01*
X373362Y202624D01*
X374674D01*
X375330Y201968D01*
Y200000D01*
Y201312D02*
X376642Y202624D01*
X373362Y203936D02*
X372706Y204592D01*
Y205904D01*
X373362Y206560D01*
X374018D01*
X374674Y205904D01*
Y205248D01*
Y205904D01*
X375330Y206560D01*
X375986D01*
X376642Y205904D01*
Y204592D01*
X375986Y203936D01*
X372500Y157500D02*
X368564D01*
Y159468D01*
X369220Y160124D01*
X370532D01*
X371188Y159468D01*
Y157500D01*
Y158812D02*
X372500Y160124D01*
X369220Y161436D02*
X368564Y162092D01*
Y163404D01*
X369220Y164060D01*
X371844D01*
X372500Y163404D01*
Y162092D01*
X371844Y161436D01*
X369220D01*
X93400Y257800D02*
Y261736D01*
X95368D01*
X96024Y261080D01*
Y259768D01*
X95368Y259112D01*
X93400D01*
X97336Y261736D02*
X98648D01*
X97992D01*
Y257800D01*
X97336D01*
X98648D01*
X103239Y261080D02*
X102583Y261736D01*
X101271D01*
X100616Y261080D01*
Y258456D01*
X101271Y257800D01*
X102583D01*
X103239Y258456D01*
X104551Y257800D02*
X105863D01*
X105207D01*
Y261736D01*
X104551Y261080D01*
X148142Y266945D02*
Y270881D01*
X150110D01*
X150766Y270225D01*
Y268913D01*
X150110Y268257D01*
X148142D01*
X152077Y270881D02*
X153389D01*
X152733D01*
Y266945D01*
X152077D01*
X153389D01*
X157981Y270225D02*
X157325Y270881D01*
X156013D01*
X155357Y270225D01*
Y267601D01*
X156013Y266945D01*
X157325D01*
X157981Y267601D01*
X159293Y270225D02*
X159949Y270881D01*
X161261D01*
X161917Y270225D01*
Y267601D01*
X161261Y266945D01*
X159949D01*
X159293Y267601D01*
Y270225D01*
X188768Y374232D02*
X184832D01*
Y376200D01*
X185488Y376856D01*
X186800D01*
X187456Y376200D01*
Y374232D01*
X188768Y380792D02*
Y378168D01*
X186144Y380792D01*
X185488D01*
X184832Y380136D01*
Y378824D01*
X185488Y378168D01*
X145000Y371100D02*
Y375036D01*
X146968D01*
X147624Y374380D01*
Y373068D01*
X146968Y372412D01*
X145000D01*
X148936Y371100D02*
X150248D01*
X149592D01*
Y375036D01*
X148936Y374380D01*
X106500Y359008D02*
X102564D01*
Y360976D01*
X103220Y361632D01*
X104532D01*
X105188Y360976D01*
Y359008D01*
X103220Y362944D02*
X102564Y363600D01*
Y364912D01*
X103220Y365567D01*
X105844D01*
X106500Y364912D01*
Y363600D01*
X105844Y362944D01*
X103220D01*
X240000Y122500D02*
Y126436D01*
X242624Y122500D01*
Y126436D01*
X246560Y122500D02*
X243936D01*
X246560Y125124D01*
Y125780D01*
X245904Y126436D01*
X244592D01*
X243936Y125780D01*
X247871D02*
X248527Y126436D01*
X249839D01*
X250495Y125780D01*
Y125124D01*
X249839Y124468D01*
X250495Y123812D01*
Y123156D01*
X249839Y122500D01*
X248527D01*
X247871Y123156D01*
Y123812D01*
X248527Y124468D01*
X247871Y125124D01*
Y125780D01*
X248527Y124468D02*
X249839D01*
X197744Y97000D02*
Y100936D01*
X200368Y97000D01*
Y100936D01*
X204304Y97000D02*
X201680D01*
X204304Y99624D01*
Y100280D01*
X203648Y100936D01*
X202336D01*
X201680Y100280D01*
X205616D02*
X206272Y100936D01*
X207583D01*
X208239Y100280D01*
Y97656D01*
X207583Y97000D01*
X206272D01*
X205616Y97656D01*
Y100280D01*
X205000Y113000D02*
Y116936D01*
X207624Y113000D01*
Y116936D01*
X208936Y113000D02*
X210248D01*
X209592D01*
Y116936D01*
X208936Y116280D01*
X212215Y113656D02*
X212872Y113000D01*
X214183D01*
X214839Y113656D01*
Y116280D01*
X214183Y116936D01*
X212872D01*
X212215Y116280D01*
Y115624D01*
X212872Y114968D01*
X214839D01*
X186500Y109000D02*
Y112936D01*
X189124Y109000D01*
Y112936D01*
X190436Y109000D02*
X191748D01*
X191092D01*
Y112936D01*
X190436Y112280D01*
X193716D02*
X194371Y112936D01*
X195683D01*
X196339Y112280D01*
Y111624D01*
X195683Y110968D01*
X196339Y110312D01*
Y109656D01*
X195683Y109000D01*
X194371D01*
X193716Y109656D01*
Y110312D01*
X194371Y110968D01*
X193716Y111624D01*
Y112280D01*
X194371Y110968D02*
X195683D01*
X226500Y124000D02*
Y127936D01*
X229124Y124000D01*
Y127936D01*
X230436Y124000D02*
X231748D01*
X231092D01*
Y127936D01*
X230436Y127280D01*
X236339Y127936D02*
X235027Y127280D01*
X233716Y125968D01*
Y124656D01*
X234371Y124000D01*
X235683D01*
X236339Y124656D01*
Y125312D01*
X235683Y125968D01*
X233716D01*
X241122Y88159D02*
Y92095D01*
X243746Y88159D01*
Y92095D01*
X245058Y88159D02*
X246370D01*
X245714D01*
Y92095D01*
X245058Y91439D01*
X250961Y92095D02*
X248338D01*
Y90127D01*
X249650Y90783D01*
X250305D01*
X250961Y90127D01*
Y88815D01*
X250305Y88159D01*
X248993D01*
X248338Y88815D01*
X356205Y119862D02*
X360140D01*
X356205Y117238D01*
X360140D01*
X356205Y115926D02*
Y114614D01*
Y115270D01*
X360140D01*
X359485Y115926D01*
Y112646D02*
X360140Y111990D01*
Y110678D01*
X359485Y110022D01*
X358828D01*
X358173Y110678D01*
Y111334D01*
Y110678D01*
X357517Y110022D01*
X356861D01*
X356205Y110678D01*
Y111990D01*
X356861Y112646D01*
X352300Y220400D02*
Y224336D01*
X354924Y220400D01*
Y224336D01*
X356236Y220400D02*
X357548D01*
X356892D01*
Y224336D01*
X356236Y223680D01*
X362139Y220400D02*
X359516D01*
X362139Y223024D01*
Y223680D01*
X361483Y224336D01*
X360172D01*
X359516Y223680D01*
X327000Y123300D02*
Y127236D01*
X329624Y123300D01*
Y127236D01*
X330936Y123300D02*
X332248D01*
X331592D01*
Y127236D01*
X330936Y126580D01*
X334215Y123300D02*
X335527D01*
X334872D01*
Y127236D01*
X334215Y126580D01*
X326800Y91300D02*
Y95236D01*
X329424Y91300D01*
Y95236D01*
X330736Y91300D02*
X332048D01*
X331392D01*
Y95236D01*
X330736Y94580D01*
X334015D02*
X334671Y95236D01*
X335983D01*
X336639Y94580D01*
Y91956D01*
X335983Y91300D01*
X334671D01*
X334015Y91956D01*
Y94580D01*
X327000Y108200D02*
Y112136D01*
X329624Y108200D01*
Y112136D01*
X330936Y108856D02*
X331592Y108200D01*
X332904D01*
X333560Y108856D01*
Y111480D01*
X332904Y112136D01*
X331592D01*
X330936Y111480D01*
Y110824D01*
X331592Y110168D01*
X333560D01*
X344642Y119982D02*
Y123918D01*
X347266Y119982D01*
Y123918D01*
X348577Y123262D02*
X349233Y123918D01*
X350545D01*
X351201Y123262D01*
Y122606D01*
X350545Y121950D01*
X351201Y121294D01*
Y120638D01*
X350545Y119982D01*
X349233D01*
X348577Y120638D01*
Y121294D01*
X349233Y121950D01*
X348577Y122606D01*
Y123262D01*
X349233Y121950D02*
X350545D01*
X374500Y390480D02*
Y394416D01*
X377124Y390480D01*
Y394416D01*
X378436D02*
X381060D01*
Y393760D01*
X378436Y391136D01*
Y390480D01*
X359000Y391500D02*
Y395436D01*
X361624Y391500D01*
Y395436D01*
X365560D02*
X364248Y394780D01*
X362936Y393468D01*
Y392156D01*
X363592Y391500D01*
X364904D01*
X365560Y392156D01*
Y392812D01*
X364904Y393468D01*
X362936D01*
X201000Y335500D02*
Y339436D01*
X203624Y335500D01*
Y339436D01*
X207560D02*
X204936D01*
Y337468D01*
X206248Y338124D01*
X206904D01*
X207560Y337468D01*
Y336156D01*
X206904Y335500D01*
X205592D01*
X204936Y336156D01*
X154000Y335000D02*
Y338936D01*
X156624Y335000D01*
Y338936D01*
X159904Y335000D02*
Y338936D01*
X157936Y336968D01*
X160560D01*
X92142Y332882D02*
Y336818D01*
X94766Y332882D01*
Y336818D01*
X96078Y336162D02*
X96733Y336818D01*
X98045D01*
X98701Y336162D01*
Y335506D01*
X98045Y334850D01*
X97389D01*
X98045D01*
X98701Y334194D01*
Y333538D01*
X98045Y332882D01*
X96733D01*
X96078Y333538D01*
X233642Y364945D02*
X237578D01*
X233642Y362321D01*
X237578D01*
X233642Y358385D02*
Y361009D01*
X236265Y358385D01*
X236922D01*
X237578Y359041D01*
Y360353D01*
X236922Y361009D01*
X166000Y370100D02*
Y374036D01*
X168624Y370100D01*
Y374036D01*
X169936Y370100D02*
X171248D01*
X170592D01*
Y374036D01*
X169936Y373380D01*
X140064Y200000D02*
Y201312D01*
Y200656D01*
X144000D01*
Y200000D01*
Y201312D01*
Y203280D02*
X140064D01*
X144000Y205904D01*
X140064D01*
Y207215D02*
X143344D01*
X144000Y207872D01*
Y209183D01*
X143344Y209839D01*
X140064D01*
Y211151D02*
X144000D01*
Y213119D01*
X143344Y213775D01*
X140720D01*
X140064Y213119D01*
Y211151D01*
X140720Y217711D02*
X140064Y217055D01*
Y215743D01*
X140720Y215087D01*
X143344D01*
X144000Y215743D01*
Y217055D01*
X143344Y217711D01*
X144000Y219023D02*
Y220335D01*
Y219679D01*
X140064D01*
X140720Y219023D01*
X370064Y185039D02*
Y186351D01*
Y185695D01*
X374000D01*
Y185039D01*
Y186351D01*
X370720Y190943D02*
X370064Y190287D01*
Y188975D01*
X370720Y188319D01*
X373344D01*
X374000Y188975D01*
Y190287D01*
X373344Y190943D01*
X370720Y192255D02*
X370064Y192911D01*
Y194223D01*
X370720Y194879D01*
X373344D01*
X374000Y194223D01*
Y192911D01*
X373344Y192255D01*
X370720D01*
X85064Y212624D02*
Y210000D01*
X87032D01*
Y211312D01*
Y210000D01*
X89000D01*
X85064Y216560D02*
X85720Y215248D01*
X87032Y213936D01*
X88344D01*
X89000Y214592D01*
Y215904D01*
X88344Y216560D01*
X87688D01*
X87032Y215904D01*
Y213936D01*
X346124Y254436D02*
X343500D01*
Y252468D01*
X344812D01*
X343500D01*
Y250500D01*
X350060Y254436D02*
X347436D01*
Y252468D01*
X348748Y253124D01*
X349404D01*
X350060Y252468D01*
Y251156D01*
X349404Y250500D01*
X348092D01*
X347436Y251156D01*
X301836Y246436D02*
X299213D01*
Y244468D01*
X300524D01*
X299213D01*
Y242500D01*
X305116D02*
Y246436D01*
X303148Y244468D01*
X305772D01*
X381124Y231381D02*
X378500D01*
Y229413D01*
X379812D01*
X378500D01*
Y227445D01*
X382436Y230725D02*
X383092Y231381D01*
X384404D01*
X385060Y230725D01*
Y230069D01*
X384404Y229413D01*
X383748D01*
X384404D01*
X385060Y228757D01*
Y228101D01*
X384404Y227445D01*
X383092D01*
X382436Y228101D01*
X296124Y174936D02*
X293500D01*
Y172968D01*
X294812D01*
X293500D01*
Y171000D01*
X297436D02*
X298748D01*
X298092D01*
Y174936D01*
X297436Y174280D01*
X127706Y89203D02*
X131642D01*
Y91171D01*
X130986Y91827D01*
X128362D01*
X127706Y91171D01*
Y89203D01*
X131642Y95762D02*
Y93138D01*
X129018Y95762D01*
X128362D01*
X127706Y95106D01*
Y93794D01*
X128362Y93138D01*
X131642Y99042D02*
X127706D01*
X129674Y97074D01*
Y99698D01*
X151564Y84500D02*
X155500D01*
Y86468D01*
X154844Y87124D01*
X152220D01*
X151564Y86468D01*
Y84500D01*
X155500Y91060D02*
Y88436D01*
X152876Y91060D01*
X152220D01*
X151564Y90404D01*
Y89092D01*
X152220Y88436D01*
Y92371D02*
X151564Y93027D01*
Y94339D01*
X152220Y94995D01*
X152876D01*
X153532Y94339D01*
Y93683D01*
Y94339D01*
X154188Y94995D01*
X154844D01*
X155500Y94339D01*
Y93027D01*
X154844Y92371D01*
X112941Y169381D02*
Y165445D01*
X114909D01*
X115565Y166101D01*
Y168725D01*
X114909Y169381D01*
X112941D01*
X119501Y165445D02*
X116877D01*
X119501Y168069D01*
Y168725D01*
X118845Y169381D01*
X117533D01*
X116877Y168725D01*
X123436Y165445D02*
X120812D01*
X123436Y168069D01*
Y168725D01*
X122780Y169381D01*
X121468D01*
X120812Y168725D01*
X112441Y150881D02*
Y146945D01*
X114409D01*
X115065Y147601D01*
Y150225D01*
X114409Y150881D01*
X112441D01*
X119000Y146945D02*
X116377D01*
X119000Y149569D01*
Y150225D01*
X118345Y150881D01*
X117033D01*
X116377Y150225D01*
X120312Y146945D02*
X121624D01*
X120968D01*
Y150881D01*
X120312Y150225D01*
X377500Y79936D02*
Y76000D01*
X379468D01*
X380124Y76656D01*
Y79280D01*
X379468Y79936D01*
X377500D01*
X384060Y76000D02*
X381436D01*
X384060Y78624D01*
Y79280D01*
X383404Y79936D01*
X382092D01*
X381436Y79280D01*
X385371D02*
X386027Y79936D01*
X387339D01*
X387995Y79280D01*
Y76656D01*
X387339Y76000D01*
X386027D01*
X385371Y76656D01*
Y79280D01*
X217064Y320445D02*
X221000D01*
Y322413D01*
X220344Y323069D01*
X217720D01*
X217064Y322413D01*
Y320445D01*
X221000Y324381D02*
Y325693D01*
Y325037D01*
X217064D01*
X217720Y324381D01*
X220344Y327660D02*
X221000Y328316D01*
Y329628D01*
X220344Y330284D01*
X217720D01*
X217064Y329628D01*
Y328316D01*
X217720Y327660D01*
X218376D01*
X219032Y328316D01*
Y330284D01*
X208436Y322000D02*
X204500D01*
Y320032D01*
X205156Y319376D01*
X207780D01*
X208436Y320032D01*
Y322000D01*
X204500Y318064D02*
Y316752D01*
Y317408D01*
X208436D01*
X207780Y318064D01*
Y314785D02*
X208436Y314128D01*
Y312817D01*
X207780Y312161D01*
X207124D01*
X206468Y312817D01*
X205812Y312161D01*
X205156D01*
X204500Y312817D01*
Y314128D01*
X205156Y314785D01*
X205812D01*
X206468Y314128D01*
X207124Y314785D01*
X207780D01*
X206468Y314128D02*
Y312817D01*
X118642Y328881D02*
Y324945D01*
X120610D01*
X121266Y325601D01*
Y328225D01*
X120610Y328881D01*
X118642D01*
X122578Y324945D02*
X123889D01*
X123233D01*
Y328881D01*
X122578Y328225D01*
X125857Y328881D02*
X128481D01*
Y328225D01*
X125857Y325601D01*
Y324945D01*
X390500Y273936D02*
Y270000D01*
X392468D01*
X393124Y270656D01*
Y273280D01*
X392468Y273936D01*
X390500D01*
X394436Y270000D02*
X395748D01*
X395092D01*
Y273936D01*
X394436Y273280D01*
X400339Y273936D02*
X399027Y273280D01*
X397715Y271968D01*
Y270656D01*
X398372Y270000D01*
X399683D01*
X400339Y270656D01*
Y271312D01*
X399683Y271968D01*
X397715D01*
X326000Y285436D02*
Y281500D01*
X327968D01*
X328624Y282156D01*
Y284780D01*
X327968Y285436D01*
X326000D01*
X329936Y281500D02*
X331248D01*
X330592D01*
Y285436D01*
X329936Y284780D01*
X335839Y285436D02*
X333215D01*
Y283468D01*
X334527Y284124D01*
X335183D01*
X335839Y283468D01*
Y282156D01*
X335183Y281500D01*
X333872D01*
X333215Y282156D01*
X296564Y272500D02*
X300500D01*
Y274468D01*
X299844Y275124D01*
X297220D01*
X296564Y274468D01*
Y272500D01*
X300500Y276436D02*
Y277748D01*
Y277092D01*
X296564D01*
X297220Y276436D01*
X300500Y281683D02*
X296564D01*
X298532Y279715D01*
Y282339D01*
X286000Y313564D02*
Y317500D01*
X284032D01*
X283376Y316844D01*
Y314220D01*
X284032Y313564D01*
X286000D01*
X282064Y317500D02*
X280752D01*
X281408D01*
Y313564D01*
X282064Y314220D01*
X278784D02*
X278129Y313564D01*
X276817D01*
X276161Y314220D01*
Y314876D01*
X276817Y315532D01*
X277473D01*
X276817D01*
X276161Y316188D01*
Y316844D01*
X276817Y317500D01*
X278129D01*
X278784Y316844D01*
X304064Y115000D02*
X308000D01*
Y116968D01*
X307344Y117624D01*
X304720D01*
X304064Y116968D01*
Y115000D01*
X308000Y118936D02*
Y120248D01*
Y119592D01*
X304064D01*
X304720Y118936D01*
X308000Y124839D02*
Y122215D01*
X305376Y124839D01*
X304720D01*
X304064Y124183D01*
Y122871D01*
X304720Y122215D01*
X141000Y230936D02*
Y227000D01*
X142968D01*
X143624Y227656D01*
Y230280D01*
X142968Y230936D01*
X141000D01*
X144936Y227000D02*
X146248D01*
X145592D01*
Y230936D01*
X144936Y230280D01*
X148215D02*
X148872Y230936D01*
X150183D01*
X150839Y230280D01*
Y227656D01*
X150183Y227000D01*
X148872D01*
X148215Y227656D01*
Y230280D01*
X146888Y289398D02*
X142953D01*
Y287430D01*
X143609Y286774D01*
X146232D01*
X146888Y287430D01*
Y289398D01*
X143609Y285462D02*
X142953Y284806D01*
Y283494D01*
X143609Y282838D01*
X146232D01*
X146888Y283494D01*
Y284806D01*
X146232Y285462D01*
X145577D01*
X144921Y284806D01*
Y282838D01*
X230300Y425036D02*
Y421100D01*
X232268D01*
X232924Y421756D01*
Y424380D01*
X232268Y425036D01*
X230300D01*
X234236Y424380D02*
X234892Y425036D01*
X236204D01*
X236860Y424380D01*
Y423724D01*
X236204Y423068D01*
X236860Y422412D01*
Y421756D01*
X236204Y421100D01*
X234892D01*
X234236Y421756D01*
Y422412D01*
X234892Y423068D01*
X234236Y423724D01*
Y424380D01*
X234892Y423068D02*
X236204D01*
X221578Y365945D02*
X217642D01*
Y363977D01*
X218298Y363321D01*
X220921D01*
X221578Y363977D01*
Y365945D01*
Y362009D02*
Y359385D01*
X220921D01*
X218298Y362009D01*
X217642D01*
X175800Y426036D02*
Y422100D01*
X177768D01*
X178424Y422756D01*
Y425380D01*
X177768Y426036D01*
X175800D01*
X182360D02*
X181048Y425380D01*
X179736Y424068D01*
Y422756D01*
X180392Y422100D01*
X181704D01*
X182360Y422756D01*
Y423412D01*
X181704Y424068D01*
X179736D01*
X159600Y372936D02*
Y369000D01*
X161568D01*
X162224Y369656D01*
Y372280D01*
X161568Y372936D01*
X159600D01*
X166160D02*
X163536D01*
Y370968D01*
X164848Y371624D01*
X165504D01*
X166160Y370968D01*
Y369656D01*
X165504Y369000D01*
X164192D01*
X163536Y369656D01*
X125300Y425036D02*
Y421100D01*
X127268D01*
X127924Y421756D01*
Y424380D01*
X127268Y425036D01*
X125300D01*
X131204Y421100D02*
Y425036D01*
X129236Y423068D01*
X131860D01*
X110564Y358500D02*
X114500D01*
Y360468D01*
X113844Y361124D01*
X111220D01*
X110564Y360468D01*
Y358500D01*
X111220Y362436D02*
X110564Y363092D01*
Y364404D01*
X111220Y365060D01*
X111876D01*
X112532Y364404D01*
Y363748D01*
Y364404D01*
X113188Y365060D01*
X113844D01*
X114500Y364404D01*
Y363092D01*
X113844Y362436D01*
X381000Y224436D02*
Y220500D01*
X382968D01*
X383624Y221156D01*
Y223780D01*
X382968Y224436D01*
X381000D01*
X384936Y220500D02*
X386248D01*
X385592D01*
Y224436D01*
X384936Y223780D01*
X308813Y402225D02*
X308157Y402881D01*
X306845D01*
X306189Y402225D01*
Y399601D01*
X306845Y398945D01*
X308157D01*
X308813Y399601D01*
X312093Y402881D02*
X310781D01*
X310125Y402225D01*
Y399601D01*
X310781Y398945D01*
X312093D01*
X312749Y399601D01*
Y402225D01*
X312093Y402881D01*
X314060Y398945D02*
Y402881D01*
X315372Y401569D01*
X316684Y402881D01*
Y398945D01*
X317996D02*
Y402881D01*
X319964D01*
X320620Y402225D01*
Y400913D01*
X319964Y400257D01*
X317996D01*
X324556Y398945D02*
X321932D01*
X324556Y401569D01*
Y402225D01*
X323900Y402881D01*
X322588D01*
X321932Y402225D01*
X327636Y350772D02*
X326980Y351428D01*
X325668D01*
X325012Y350772D01*
Y348148D01*
X325668Y347492D01*
X326980D01*
X327636Y348148D01*
X330915Y351428D02*
X329604D01*
X328948Y350772D01*
Y348148D01*
X329604Y347492D01*
X330915D01*
X331571Y348148D01*
Y350772D01*
X330915Y351428D01*
X332883Y347492D02*
Y351428D01*
X334195Y350116D01*
X335507Y351428D01*
Y347492D01*
X336819D02*
Y351428D01*
X338787D01*
X339443Y350772D01*
Y349460D01*
X338787Y348804D01*
X336819D01*
X340755Y347492D02*
X342067D01*
X341411D01*
Y351428D01*
X340755Y350772D01*
X313720Y322124D02*
X313064Y321468D01*
Y320156D01*
X313720Y319500D01*
X316344D01*
X317000Y320156D01*
Y321468D01*
X316344Y322124D01*
X313064Y325404D02*
Y324092D01*
X313720Y323436D01*
X316344D01*
X317000Y324092D01*
Y325404D01*
X316344Y326060D01*
X313720D01*
X313064Y325404D01*
X317000Y327372D02*
X313064D01*
X314376Y328683D01*
X313064Y329995D01*
X317000D01*
Y331307D02*
X313064D01*
Y333275D01*
X313720Y333931D01*
X315032D01*
X315688Y333275D01*
Y331307D01*
X313720Y335243D02*
X313064Y335899D01*
Y337211D01*
X313720Y337867D01*
X316344D01*
X317000Y337211D01*
Y335899D01*
X316344Y335243D01*
X313720D01*
X350624Y405280D02*
X349968Y405936D01*
X348656D01*
X348000Y405280D01*
Y402656D01*
X348656Y402000D01*
X349968D01*
X350624Y402656D01*
X351936D02*
X352592Y402000D01*
X353904D01*
X354560Y402656D01*
Y405280D01*
X353904Y405936D01*
X352592D01*
X351936Y405280D01*
Y404624D01*
X352592Y403968D01*
X354560D01*
X355872Y405280D02*
X356527Y405936D01*
X357839D01*
X358495Y405280D01*
Y402656D01*
X357839Y402000D01*
X356527D01*
X355872Y402656D01*
Y405280D01*
X79424Y298780D02*
X78768Y299436D01*
X77456D01*
X76800Y298780D01*
Y296156D01*
X77456Y295500D01*
X78768D01*
X79424Y296156D01*
X80736Y298780D02*
X81392Y299436D01*
X82704D01*
X83360Y298780D01*
Y298124D01*
X82704Y297468D01*
X83360Y296812D01*
Y296156D01*
X82704Y295500D01*
X81392D01*
X80736Y296156D01*
Y296812D01*
X81392Y297468D01*
X80736Y298124D01*
Y298780D01*
X81392Y297468D02*
X82704D01*
X84671Y296156D02*
X85327Y295500D01*
X86639D01*
X87295Y296156D01*
Y298780D01*
X86639Y299436D01*
X85327D01*
X84671Y298780D01*
Y298124D01*
X85327Y297468D01*
X87295D01*
X143624Y244780D02*
X142968Y245436D01*
X141656D01*
X141000Y244780D01*
Y242156D01*
X141656Y241500D01*
X142968D01*
X143624Y242156D01*
X144936Y244780D02*
X145592Y245436D01*
X146904D01*
X147560Y244780D01*
Y244124D01*
X146904Y243468D01*
X147560Y242812D01*
Y242156D01*
X146904Y241500D01*
X145592D01*
X144936Y242156D01*
Y242812D01*
X145592Y243468D01*
X144936Y244124D01*
Y244780D01*
X145592Y243468D02*
X146904D01*
X148872Y244780D02*
X149527Y245436D01*
X150839D01*
X151495Y244780D01*
Y244124D01*
X150839Y243468D01*
X151495Y242812D01*
Y242156D01*
X150839Y241500D01*
X149527D01*
X148872Y242156D01*
Y242812D01*
X149527Y243468D01*
X148872Y244124D01*
Y244780D01*
X149527Y243468D02*
X150839D01*
X120422Y295321D02*
X121078Y295977D01*
Y297289D01*
X120422Y297945D01*
X117798D01*
X117142Y297289D01*
Y295977D01*
X117798Y295321D01*
X120422Y294009D02*
X121078Y293353D01*
Y292041D01*
X120422Y291385D01*
X119766D01*
X119110Y292041D01*
X118454Y291385D01*
X117798D01*
X117142Y292041D01*
Y293353D01*
X117798Y294009D01*
X118454D01*
X119110Y293353D01*
X119766Y294009D01*
X120422D01*
X119110Y293353D02*
Y292041D01*
X121078Y290073D02*
Y287450D01*
X120422D01*
X117798Y290073D01*
X117142D01*
X154766Y294225D02*
X154110Y294881D01*
X152798D01*
X152142Y294225D01*
Y291601D01*
X152798Y290945D01*
X154110D01*
X154766Y291601D01*
X156078Y294225D02*
X156733Y294881D01*
X158045D01*
X158701Y294225D01*
Y293569D01*
X158045Y292913D01*
X158701Y292257D01*
Y291601D01*
X158045Y290945D01*
X156733D01*
X156078Y291601D01*
Y292257D01*
X156733Y292913D01*
X156078Y293569D01*
Y294225D01*
X156733Y292913D02*
X158045D01*
X162637Y294881D02*
X161325Y294225D01*
X160013Y292913D01*
Y291601D01*
X160669Y290945D01*
X161981D01*
X162637Y291601D01*
Y292257D01*
X161981Y292913D01*
X160013D01*
X178220Y346317D02*
X177564Y345661D01*
Y344349D01*
X178220Y343693D01*
X180844D01*
X181500Y344349D01*
Y345661D01*
X180844Y346317D01*
X178220Y347629D02*
X177564Y348285D01*
Y349597D01*
X178220Y350253D01*
X178876D01*
X179532Y349597D01*
X180188Y350253D01*
X180844D01*
X181500Y349597D01*
Y348285D01*
X180844Y347629D01*
X180188D01*
X179532Y348285D01*
X178876Y347629D01*
X178220D01*
X179532Y348285D02*
Y349597D01*
X177564Y354188D02*
Y351564D01*
X179532D01*
X178876Y352876D01*
Y353532D01*
X179532Y354188D01*
X180844D01*
X181500Y353532D01*
Y352220D01*
X180844Y351564D01*
X125780Y350376D02*
X126436Y351032D01*
Y352344D01*
X125780Y353000D01*
X123156D01*
X122500Y352344D01*
Y351032D01*
X123156Y350376D01*
X125780Y349064D02*
X126436Y348408D01*
Y347096D01*
X125780Y346440D01*
X125124D01*
X124468Y347096D01*
X123812Y346440D01*
X123156D01*
X122500Y347096D01*
Y348408D01*
X123156Y349064D01*
X123812D01*
X124468Y348408D01*
X125124Y349064D01*
X125780D01*
X124468Y348408D02*
Y347096D01*
X122500Y343161D02*
X126436D01*
X124468Y345128D01*
Y342505D01*
X234421Y349211D02*
X235078Y349867D01*
Y351179D01*
X234421Y351835D01*
X231798D01*
X231142Y351179D01*
Y349867D01*
X231798Y349211D01*
X234421Y347899D02*
X235078Y347243D01*
Y345931D01*
X234421Y345275D01*
X233766D01*
X233110Y345931D01*
X232454Y345275D01*
X231798D01*
X231142Y345931D01*
Y347243D01*
X231798Y347899D01*
X232454D01*
X233110Y347243D01*
X233766Y347899D01*
X234421D01*
X233110Y347243D02*
Y345931D01*
X231142Y341339D02*
Y343963D01*
X233766Y341339D01*
X234421D01*
X235078Y341995D01*
Y343307D01*
X234421Y343963D01*
X86924Y245380D02*
X86268Y246036D01*
X84956D01*
X84300Y245380D01*
Y242756D01*
X84956Y242100D01*
X86268D01*
X86924Y242756D01*
X88236Y245380D02*
X88892Y246036D01*
X90204D01*
X90860Y245380D01*
Y244724D01*
X90204Y244068D01*
X89548D01*
X90204D01*
X90860Y243412D01*
Y242756D01*
X90204Y242100D01*
X88892D01*
X88236Y242756D01*
X94139Y242100D02*
Y246036D01*
X92172Y244068D01*
X94795D01*
X106124Y222280D02*
X105468Y222936D01*
X104156D01*
X103500Y222280D01*
Y219656D01*
X104156Y219000D01*
X105468D01*
X106124Y219656D01*
X107436Y222280D02*
X108092Y222936D01*
X109404D01*
X110060Y222280D01*
Y221624D01*
X109404Y220968D01*
X108748D01*
X109404D01*
X110060Y220312D01*
Y219656D01*
X109404Y219000D01*
X108092D01*
X107436Y219656D01*
X111372Y222280D02*
X112027Y222936D01*
X113339D01*
X113995Y222280D01*
Y221624D01*
X113339Y220968D01*
X112683D01*
X113339D01*
X113995Y220312D01*
Y219656D01*
X113339Y219000D01*
X112027D01*
X111372Y219656D01*
X154124Y123280D02*
X153468Y123936D01*
X152156D01*
X151500Y123280D01*
Y120656D01*
X152156Y120000D01*
X153468D01*
X154124Y120656D01*
X155436Y123280D02*
X156092Y123936D01*
X157404D01*
X158060Y123280D01*
Y122624D01*
X157404Y121968D01*
X156748D01*
X157404D01*
X158060Y121312D01*
Y120656D01*
X157404Y120000D01*
X156092D01*
X155436Y120656D01*
X161995Y120000D02*
X159371D01*
X161995Y122624D01*
Y123280D01*
X161339Y123936D01*
X160027D01*
X159371Y123280D01*
X175280Y115376D02*
X175936Y116032D01*
Y117344D01*
X175280Y118000D01*
X172656D01*
X172000Y117344D01*
Y116032D01*
X172656Y115376D01*
X175280Y114064D02*
X175936Y113408D01*
Y112096D01*
X175280Y111440D01*
X174624D01*
X173968Y112096D01*
Y112752D01*
Y112096D01*
X173312Y111440D01*
X172656D01*
X172000Y112096D01*
Y113408D01*
X172656Y114064D01*
X172000Y110128D02*
Y108817D01*
Y109473D01*
X175936D01*
X175280Y110128D01*
X151266Y150225D02*
X150610Y150881D01*
X149298D01*
X148642Y150225D01*
Y147601D01*
X149298Y146945D01*
X150610D01*
X151266Y147601D01*
X152577Y150225D02*
X153233Y150881D01*
X154545D01*
X155201Y150225D01*
Y149569D01*
X154545Y148913D01*
X153889D01*
X154545D01*
X155201Y148257D01*
Y147601D01*
X154545Y146945D01*
X153233D01*
X152577Y147601D01*
X156513Y150225D02*
X157169Y150881D01*
X158481D01*
X159137Y150225D01*
Y147601D01*
X158481Y146945D01*
X157169D01*
X156513Y147601D01*
Y150225D01*
X148624Y128280D02*
X147968Y128936D01*
X146656D01*
X146000Y128280D01*
Y125656D01*
X146656Y125000D01*
X147968D01*
X148624Y125656D01*
X152560Y125000D02*
X149936D01*
X152560Y127624D01*
Y128280D01*
X151904Y128936D01*
X150592D01*
X149936Y128280D01*
X153872Y125656D02*
X154527Y125000D01*
X155839D01*
X156495Y125656D01*
Y128280D01*
X155839Y128936D01*
X154527D01*
X153872Y128280D01*
Y127624D01*
X154527Y126968D01*
X156495D01*
X221765Y135780D02*
X221110Y136436D01*
X219798D01*
X219142Y135780D01*
Y133156D01*
X219798Y132500D01*
X221110D01*
X221765Y133156D01*
X225701Y132500D02*
X223078D01*
X225701Y135124D01*
Y135780D01*
X225045Y136436D01*
X223733D01*
X223078Y135780D01*
X227013D02*
X227669Y136436D01*
X228981D01*
X229637Y135780D01*
Y135124D01*
X228981Y134468D01*
X229637Y133812D01*
Y133156D01*
X228981Y132500D01*
X227669D01*
X227013Y133156D01*
Y133812D01*
X227669Y134468D01*
X227013Y135124D01*
Y135780D01*
X227669Y134468D02*
X228981D01*
X227424Y180280D02*
X226768Y180936D01*
X225456D01*
X224800Y180280D01*
Y177656D01*
X225456Y177000D01*
X226768D01*
X227424Y177656D01*
X231360Y177000D02*
X228736D01*
X231360Y179624D01*
Y180280D01*
X230704Y180936D01*
X229392D01*
X228736Y180280D01*
X232671Y180936D02*
X235295D01*
Y180280D01*
X232671Y177656D01*
Y177000D01*
X362720Y103624D02*
X362064Y102968D01*
Y101656D01*
X362720Y101000D01*
X365344D01*
X366000Y101656D01*
Y102968D01*
X365344Y103624D01*
X366000Y107560D02*
Y104936D01*
X363376Y107560D01*
X362720D01*
X362064Y106904D01*
Y105592D01*
X362720Y104936D01*
X362064Y111495D02*
X362720Y110183D01*
X364032Y108871D01*
X365344D01*
X366000Y109527D01*
Y110839D01*
X365344Y111495D01*
X364688D01*
X364032Y110839D01*
Y108871D01*
X231924Y356280D02*
X231268Y356936D01*
X229956D01*
X229300Y356280D01*
Y353656D01*
X229956Y353000D01*
X231268D01*
X231924Y353656D01*
X235860Y353000D02*
X233236D01*
X235860Y355624D01*
Y356280D01*
X235204Y356936D01*
X233892D01*
X233236Y356280D01*
X239795Y356936D02*
X237172D01*
Y354968D01*
X238483Y355624D01*
X239139D01*
X239795Y354968D01*
Y353656D01*
X239139Y353000D01*
X237827D01*
X237172Y353656D01*
X193720Y332124D02*
X193064Y331468D01*
Y330156D01*
X193720Y329500D01*
X196344D01*
X197000Y330156D01*
Y331468D01*
X196344Y332124D01*
X197000Y336060D02*
Y333436D01*
X194376Y336060D01*
X193720D01*
X193064Y335404D01*
Y334092D01*
X193720Y333436D01*
X197000Y339339D02*
X193064D01*
X195032Y337371D01*
Y339995D01*
X150766Y312725D02*
X150110Y313381D01*
X148798D01*
X148142Y312725D01*
Y310101D01*
X148798Y309445D01*
X150110D01*
X150766Y310101D01*
X154701Y309445D02*
X152077D01*
X154701Y312069D01*
Y312725D01*
X154045Y313381D01*
X152733D01*
X152077Y312725D01*
X156013D02*
X156669Y313381D01*
X157981D01*
X158637Y312725D01*
Y312069D01*
X157981Y311413D01*
X157325D01*
X157981D01*
X158637Y310757D01*
Y310101D01*
X157981Y309445D01*
X156669D01*
X156013Y310101D01*
X329780Y258876D02*
X330436Y259532D01*
Y260844D01*
X329780Y261500D01*
X327156D01*
X326500Y260844D01*
Y259532D01*
X327156Y258876D01*
X326500Y254940D02*
Y257564D01*
X329124Y254940D01*
X329780D01*
X330436Y255596D01*
Y256908D01*
X329780Y257564D01*
X326500Y251005D02*
Y253628D01*
X329124Y251005D01*
X329780D01*
X330436Y251661D01*
Y252973D01*
X329780Y253628D01*
X298280Y255876D02*
X298936Y256532D01*
Y257844D01*
X298280Y258500D01*
X295656D01*
X295000Y257844D01*
Y256532D01*
X295656Y255876D01*
X295000Y251940D02*
Y254564D01*
X297624Y251940D01*
X298280D01*
X298936Y252596D01*
Y253908D01*
X298280Y254564D01*
X295000Y250628D02*
Y249317D01*
Y249973D01*
X298936D01*
X298280Y250628D01*
X369994Y267634D02*
X369338Y268290D01*
X368026D01*
X367370Y267634D01*
Y265010D01*
X368026Y264354D01*
X369338D01*
X369994Y265010D01*
X373930Y264354D02*
X371306D01*
X373930Y266978D01*
Y267634D01*
X373274Y268290D01*
X371962D01*
X371306Y267634D01*
X375242D02*
X375898Y268290D01*
X377209D01*
X377865Y267634D01*
Y265010D01*
X377209Y264354D01*
X375898D01*
X375242Y265010D01*
Y267634D01*
X267220Y339124D02*
X266564Y338468D01*
Y337156D01*
X267220Y336500D01*
X269844D01*
X270500Y337156D01*
Y338468D01*
X269844Y339124D01*
X270500Y340436D02*
Y341748D01*
Y341092D01*
X266564D01*
X267220Y340436D01*
X269844Y343716D02*
X270500Y344372D01*
Y345683D01*
X269844Y346339D01*
X267220D01*
X266564Y345683D01*
Y344372D01*
X267220Y343716D01*
X267876D01*
X268532Y344372D01*
Y346339D01*
X282720Y136663D02*
X282064Y136007D01*
Y134695D01*
X282720Y134039D01*
X285344D01*
X286000Y134695D01*
Y136007D01*
X285344Y136663D01*
X286000Y137975D02*
Y139286D01*
Y138631D01*
X282064D01*
X282720Y137975D01*
Y141254D02*
X282064Y141910D01*
Y143222D01*
X282720Y143878D01*
X283376D01*
X284032Y143222D01*
X284688Y143878D01*
X285344D01*
X286000Y143222D01*
Y141910D01*
X285344Y141254D01*
X284688D01*
X284032Y141910D01*
X283376Y141254D01*
X282720D01*
X284032Y141910D02*
Y143222D01*
X327124Y400780D02*
X326468Y401436D01*
X325156D01*
X324500Y400780D01*
Y398156D01*
X325156Y397500D01*
X326468D01*
X327124Y398156D01*
X328436Y397500D02*
X329748D01*
X329092D01*
Y401436D01*
X328436Y400780D01*
X334339Y401436D02*
X333027Y400780D01*
X331715Y399468D01*
Y398156D01*
X332371Y397500D01*
X333683D01*
X334339Y398156D01*
Y398812D01*
X333683Y399468D01*
X331715D01*
X288720Y385124D02*
X288064Y384468D01*
Y383156D01*
X288720Y382500D01*
X291344D01*
X292000Y383156D01*
Y384468D01*
X291344Y385124D01*
X292000Y386436D02*
Y387748D01*
Y387092D01*
X288064D01*
X288720Y386436D01*
X292000Y391683D02*
X288064D01*
X290032Y389716D01*
Y392339D01*
X313720Y409124D02*
X313064Y408468D01*
Y407156D01*
X313720Y406500D01*
X316344D01*
X317000Y407156D01*
Y408468D01*
X316344Y409124D01*
X317000Y410436D02*
Y411748D01*
Y411092D01*
X313064D01*
X313720Y410436D01*
Y413716D02*
X313064Y414371D01*
Y415683D01*
X313720Y416339D01*
X314376D01*
X315032Y415683D01*
Y415027D01*
Y415683D01*
X315688Y416339D01*
X316344D01*
X317000Y415683D01*
Y414371D01*
X316344Y413716D01*
X306220Y321524D02*
X305564Y320868D01*
Y319556D01*
X306220Y318900D01*
X308844D01*
X309500Y319556D01*
Y320868D01*
X308844Y321524D01*
X309500Y322836D02*
Y324148D01*
Y323492D01*
X305564D01*
X306220Y322836D01*
X309500Y328739D02*
Y326115D01*
X306876Y328739D01*
X306220D01*
X305564Y328083D01*
Y326771D01*
X306220Y326115D01*
X322362Y307624D02*
X321706Y306968D01*
Y305656D01*
X322362Y305000D01*
X324986D01*
X325642Y305656D01*
Y306968D01*
X324986Y307624D01*
X325642Y308936D02*
Y310248D01*
Y309592D01*
X321706D01*
X322362Y308936D01*
X325642Y312215D02*
Y313527D01*
Y312872D01*
X321706D01*
X322362Y312215D01*
X354924Y251280D02*
X354268Y251936D01*
X352956D01*
X352300Y251280D01*
Y248656D01*
X352956Y248000D01*
X354268D01*
X354924Y248656D01*
X356236Y248000D02*
X357548D01*
X356892D01*
Y251936D01*
X356236Y251280D01*
X359516D02*
X360172Y251936D01*
X361483D01*
X362139Y251280D01*
Y248656D01*
X361483Y248000D01*
X360172D01*
X359516Y248656D01*
Y251280D01*
X313624Y363780D02*
X312968Y364436D01*
X311656D01*
X311000Y363780D01*
Y361156D01*
X311656Y360500D01*
X312968D01*
X313624Y361156D01*
X314936D02*
X315592Y360500D01*
X316904D01*
X317560Y361156D01*
Y363780D01*
X316904Y364436D01*
X315592D01*
X314936Y363780D01*
Y363124D01*
X315592Y362468D01*
X317560D01*
X390624Y367280D02*
X389968Y367936D01*
X388656D01*
X388000Y367280D01*
Y364656D01*
X388656Y364000D01*
X389968D01*
X390624Y364656D01*
X391936Y367280D02*
X392592Y367936D01*
X393904D01*
X394560Y367280D01*
Y366624D01*
X393904Y365968D01*
X394560Y365312D01*
Y364656D01*
X393904Y364000D01*
X392592D01*
X391936Y364656D01*
Y365312D01*
X392592Y365968D01*
X391936Y366624D01*
Y367280D01*
X392592Y365968D02*
X393904D01*
X284720Y152624D02*
X284064Y151968D01*
Y150656D01*
X284720Y150000D01*
X287344D01*
X288000Y150656D01*
Y151968D01*
X287344Y152624D01*
X284064Y153936D02*
Y156560D01*
X284720D01*
X287344Y153936D01*
X288000D01*
X184862Y362569D02*
X184206Y361913D01*
Y360601D01*
X184862Y359945D01*
X187486D01*
X188142Y360601D01*
Y361913D01*
X187486Y362569D01*
X184206Y366504D02*
X184862Y365193D01*
X186174Y363881D01*
X187486D01*
X188142Y364537D01*
Y365848D01*
X187486Y366504D01*
X186830D01*
X186174Y365848D01*
Y363881D01*
X134720Y353124D02*
X134064Y352468D01*
Y351156D01*
X134720Y350500D01*
X137344D01*
X138000Y351156D01*
Y352468D01*
X137344Y353124D01*
X134064Y357060D02*
Y354436D01*
X136032D01*
X135376Y355748D01*
Y356404D01*
X136032Y357060D01*
X137344D01*
X138000Y356404D01*
Y355092D01*
X137344Y354436D01*
X80720Y361124D02*
X80064Y360468D01*
Y359156D01*
X80720Y358500D01*
X83344D01*
X84000Y359156D01*
Y360468D01*
X83344Y361124D01*
X84000Y364404D02*
X80064D01*
X82032Y362436D01*
Y365060D01*
X372124Y223680D02*
X371468Y224336D01*
X370156D01*
X369500Y223680D01*
Y221056D01*
X370156Y220400D01*
X371468D01*
X372124Y221056D01*
X373436Y223680D02*
X374092Y224336D01*
X375404D01*
X376060Y223680D01*
Y223024D01*
X375404Y222368D01*
X374748D01*
X375404D01*
X376060Y221712D01*
Y221056D01*
X375404Y220400D01*
X374092D01*
X373436Y221056D01*
X403720Y213624D02*
X403064Y212968D01*
Y211656D01*
X403720Y211000D01*
X406344D01*
X407000Y211656D01*
Y212968D01*
X406344Y213624D01*
X407000Y217560D02*
Y214936D01*
X404376Y217560D01*
X403720D01*
X403064Y216904D01*
Y215592D01*
X403720Y214936D01*
X293424Y217080D02*
X292768Y217736D01*
X291456D01*
X290800Y217080D01*
Y214456D01*
X291456Y213800D01*
X292768D01*
X293424Y214456D01*
X294736Y213800D02*
X296048D01*
X295392D01*
Y217736D01*
X294736Y217080D01*
X355265Y168780D02*
X354610Y169436D01*
X353298D01*
X352642Y168780D01*
Y166156D01*
X353298Y165500D01*
X354610D01*
X355265Y166156D01*
X356577Y168780D02*
X357233Y169436D01*
X358545D01*
X359201Y168780D01*
Y166156D01*
X358545Y165500D01*
X357233D01*
X356577Y166156D01*
Y168780D01*
X263500Y315936D02*
Y312000D01*
X265468D01*
X266124Y312656D01*
Y313312D01*
X265468Y313968D01*
X263500D01*
X265468D01*
X266124Y314624D01*
Y315280D01*
X265468Y315936D01*
X263500D01*
X267436Y315280D02*
X268092Y315936D01*
X269404D01*
X270060Y315280D01*
Y312656D01*
X269404Y312000D01*
X268092D01*
X267436Y312656D01*
Y315280D01*
M02*
