G04*
G04 #@! TF.GenerationSoftware,Altium Limited,Altium Designer,19.0.14 (431)*
G04*
G04 Layer_Color=32896*
%FSLAX25Y25*%
%MOIN*%
G70*
G01*
G75*
%ADD10C,0.00600*%
%ADD12C,0.00984*%
%ADD13C,0.00591*%
%ADD14C,0.00787*%
D10*
X681890Y118502D02*
X689761D01*
X685825Y122438D02*
Y114566D01*
X685829Y-122441D02*
Y-114569D01*
X643307Y-118502D02*
X635436D01*
X639371Y-122438D02*
Y-114566D01*
X639368Y122441D02*
Y114569D01*
X502362Y118502D02*
X510234D01*
X506298Y122438D02*
Y114566D01*
X506301Y-122441D02*
Y-114569D01*
X463779Y-118502D02*
X455908D01*
X459844Y-122438D02*
Y-114566D01*
X459841Y122441D02*
Y114569D01*
X322835Y118502D02*
X330706D01*
X326770Y122438D02*
Y114566D01*
X326774Y-122441D02*
Y-114569D01*
X284252Y-118502D02*
X276380D01*
X280316Y-122438D02*
Y-114566D01*
X280313Y122441D02*
Y114569D01*
X143307Y118502D02*
X151179D01*
X147243Y122438D02*
Y114566D01*
X147246Y-122441D02*
Y-114569D01*
X104724Y-118502D02*
X96853D01*
X100789Y-122438D02*
Y-114566D01*
X100786Y122441D02*
Y114569D01*
X-104724Y118502D02*
X-96853D01*
X-100789Y122438D02*
Y114566D01*
X-100786Y-122441D02*
Y-114569D01*
X-143307Y-118502D02*
X-151179D01*
X-147243Y-122438D02*
Y-114566D01*
X-147246Y122441D02*
Y114569D01*
X-284252Y118502D02*
X-276380D01*
X-280316Y122438D02*
Y114566D01*
X-280313Y-122441D02*
Y-114569D01*
X-322835Y-118502D02*
X-330706D01*
X-326770Y-122438D02*
Y-114566D01*
X-326774Y122441D02*
Y114569D01*
X-463779Y118502D02*
X-455908D01*
X-459844Y122438D02*
Y114566D01*
X-459841Y-122441D02*
Y-114569D01*
X-502362Y-118502D02*
X-510234D01*
X-506298Y-122438D02*
Y-114566D01*
X-506301Y122441D02*
Y114569D01*
X-643307Y118502D02*
X-635436D01*
X-639371Y122438D02*
Y114566D01*
X-639368Y-122441D02*
Y-114569D01*
X-681890Y-118502D02*
X-689761D01*
X-685825Y-122438D02*
Y-114566D01*
X-685829Y122441D02*
Y114569D01*
D12*
X-2067Y4232D02*
X-2805Y4659D01*
Y3806D01*
X-2067Y4232D01*
X29429D02*
X28691Y4659D01*
Y3806D01*
X29429Y4232D01*
X-14075Y-39370D02*
X-14813Y-38944D01*
Y-39796D01*
X-14075Y-39370D01*
X14665Y-33071D02*
X13927Y-32645D01*
Y-33497D01*
X14665Y-33071D01*
D13*
X-8661Y-22047D02*
Y-18898D01*
X-2362D01*
Y-22047D02*
Y-18898D01*
X-8661Y-22047D02*
X-2362D01*
X11024Y-50394D02*
Y-47244D01*
X4724Y-50394D02*
X11024D01*
X4724D02*
Y-47244D01*
X11024D01*
X2756Y-5902D02*
Y-2753D01*
X9055D01*
Y-5902D02*
Y-2753D01*
X2756Y-5902D02*
X9055D01*
X-34646Y7087D02*
X-31496D01*
Y787D02*
Y7087D01*
X-34646Y787D02*
X-31496D01*
X-34646D02*
Y7087D01*
X33071Y45276D02*
Y57087D01*
X-33071Y45276D02*
Y57087D01*
X-78972Y41618D02*
X-56531D01*
Y16028D02*
Y41618D01*
X-78972Y16028D02*
X-56531D01*
X-78972D02*
Y41618D01*
X20276Y-40635D02*
Y-34336D01*
X17126D02*
X20276D01*
X17126Y-40635D02*
Y-34336D01*
Y-40635D02*
X20276D01*
X-17183Y-44950D02*
Y-38651D01*
X-20333D02*
X-17183D01*
X-20333Y-44950D02*
Y-38651D01*
Y-44950D02*
X-17183D01*
X27953Y-23425D02*
X31102D01*
Y-29724D02*
Y-23425D01*
X27953Y-29724D02*
X31102D01*
X27953D02*
Y-23425D01*
Y-12598D02*
X31102D01*
Y-18898D02*
Y-12598D01*
X27953Y-18898D02*
X31102D01*
X27953D02*
Y-12598D01*
X24803Y-25197D02*
Y-22047D01*
X18504Y-25197D02*
X24803D01*
X18504D02*
Y-22047D01*
X24803D01*
X-31299Y-79331D02*
Y-76181D01*
X-25000D01*
Y-79331D02*
Y-76181D01*
X-31299Y-79331D02*
X-25000D01*
X40551Y-10433D02*
Y-7283D01*
X34252Y-10433D02*
X40551D01*
X34252D02*
Y-7283D01*
X40551D01*
X-31299Y-57677D02*
Y-54528D01*
X-25000D01*
Y-57677D02*
Y-54528D01*
X-31299Y-57677D02*
X-25000D01*
X-37008Y-73032D02*
X-33858D01*
X-37008D02*
Y-66732D01*
X-33858D01*
Y-73032D02*
Y-66732D01*
X-37008Y-62205D02*
X-33858D01*
X-37008D02*
Y-55905D01*
X-33858D01*
Y-62205D02*
Y-55905D01*
X-31299Y-46850D02*
Y-43701D01*
X-25000D01*
Y-46850D02*
Y-43701D01*
X-31299Y-46850D02*
X-25000D01*
X24803Y-31102D02*
Y-27953D01*
X18504Y-31102D02*
X24803D01*
X18504D02*
Y-27953D01*
X24803D01*
X-31299Y-63583D02*
Y-60433D01*
X-25000D01*
Y-63583D02*
Y-60433D01*
X-31299Y-63583D02*
X-25000D01*
X24803Y-14370D02*
Y-11220D01*
X18504Y-14370D02*
X24803D01*
X18504D02*
Y-11220D01*
X24803D01*
X-37008Y-83858D02*
X-33858D01*
X-37008D02*
Y-77559D01*
X-33858D01*
Y-83858D02*
Y-77559D01*
X-31299Y-68504D02*
Y-65354D01*
X-25000D01*
Y-68504D02*
Y-65354D01*
X-31299Y-68504D02*
X-25000D01*
X43701Y-8661D02*
X46850D01*
X43701Y-14961D02*
Y-8661D01*
X46850Y-14961D02*
Y-8661D01*
X43701Y-14961D02*
X46850D01*
X40551Y-22244D02*
Y-19094D01*
X34252Y-22244D02*
X40551D01*
X34252D02*
Y-19094D01*
X40551D01*
X43701Y-20472D02*
X46850D01*
Y-26772D02*
Y-20472D01*
X43701Y-26772D02*
X46850D01*
X43701D02*
Y-20472D01*
X-37008Y-51378D02*
X-33858D01*
X-37008D02*
Y-45079D01*
X-33858D01*
Y-51378D02*
Y-45079D01*
X24803Y-20276D02*
Y-17126D01*
X18504Y-20276D02*
X24803D01*
X18504D02*
Y-17126D01*
X24803D01*
X-31299Y-85236D02*
Y-82087D01*
X-25000D01*
Y-85236D02*
Y-82087D01*
X-31299Y-85236D02*
X-25000D01*
X-31299Y-74410D02*
Y-71260D01*
X-25000D01*
Y-74410D02*
Y-71260D01*
X-31299Y-74410D02*
X-25000D01*
X40551Y-16339D02*
Y-13189D01*
X34252Y-16339D02*
X40551D01*
X34252D02*
Y-13189D01*
X40551D01*
Y-28150D02*
Y-25000D01*
X34252Y-28150D02*
X40551D01*
X34252D02*
Y-25000D01*
X40551D01*
X-31299Y-52756D02*
Y-49606D01*
X-25000D01*
Y-52756D02*
Y-49606D01*
X-31299Y-52756D02*
X-25000D01*
X599606Y-45669D02*
Y-42520D01*
X605905D01*
Y-45669D02*
Y-42520D01*
X599606Y-45669D02*
X605905D01*
X420079D02*
Y-42520D01*
X426378D01*
Y-45669D02*
Y-42520D01*
X420079Y-45669D02*
X426378D01*
X240551D02*
Y-42520D01*
X246850D01*
Y-45669D02*
Y-42520D01*
X240551Y-45669D02*
X246850D01*
X61024D02*
Y-42520D01*
X67323D01*
Y-45669D02*
Y-42520D01*
X61024Y-45669D02*
X67323D01*
X725591Y42520D02*
Y45669D01*
X719291Y42520D02*
X725591D01*
X719291D02*
Y45669D01*
X725591D01*
X546063Y42520D02*
Y45669D01*
X539764Y42520D02*
X546063D01*
X539764D02*
Y45669D01*
X546063D01*
X366535Y42520D02*
Y45669D01*
X360236Y42520D02*
X366535D01*
X360236D02*
Y45669D01*
X366535D01*
X187008Y42520D02*
Y45669D01*
X180709Y42520D02*
X187008D01*
X180709D02*
Y45669D01*
X187008D01*
X-61024Y42520D02*
Y45669D01*
X-67323Y42520D02*
X-61024D01*
X-67323D02*
Y45669D01*
X-61024D01*
X-240551Y42520D02*
Y45669D01*
X-246850Y42520D02*
X-240551D01*
X-246850D02*
Y45669D01*
X-240551D01*
X-420079Y42520D02*
Y45669D01*
X-426378Y42520D02*
X-420079D01*
X-426378D02*
Y45669D01*
X-420079D01*
X-187008Y-45669D02*
Y-42520D01*
X-180709D01*
Y-45669D02*
Y-42520D01*
X-187008Y-45669D02*
X-180709D01*
X-366535D02*
Y-42520D01*
X-360236D01*
Y-45669D02*
Y-42520D01*
X-366535Y-45669D02*
X-360236D01*
X-546063D02*
Y-42520D01*
X-539764D01*
Y-45669D02*
Y-42520D01*
X-546063Y-45669D02*
X-539764D01*
X-599606Y42520D02*
Y45669D01*
X-605905Y42520D02*
X-599606D01*
X-605905D02*
Y45669D01*
X-599606D01*
X-730083Y-41618D02*
X-707642D01*
X-730083D02*
Y-16028D01*
X-707642D01*
Y-41618D02*
Y-16028D01*
X-725591Y-45669D02*
Y-42520D01*
X-719291D01*
Y-45669D02*
Y-42520D01*
X-725591Y-45669D02*
X-719291D01*
X91571Y-42012D02*
Y-16422D01*
X69130D02*
X91571D01*
X69130Y-42012D02*
Y-16422D01*
Y-42012D02*
X91571D01*
X617555Y-41618D02*
Y-16028D01*
X595114D02*
X617555D01*
X595114Y-41618D02*
Y-16028D01*
Y-41618D02*
X617555D01*
X258500D02*
Y-16028D01*
X236059D02*
X258500D01*
X236059Y-41618D02*
Y-16028D01*
Y-41618D02*
X258500D01*
X438027D02*
Y-16028D01*
X415586D02*
X438027D01*
X415586Y-41618D02*
Y-16028D01*
Y-41618D02*
X438027D01*
X528115Y16028D02*
Y41618D01*
Y16028D02*
X550556D01*
Y41618D01*
X528115D02*
X550556D01*
X348587Y16028D02*
Y41618D01*
Y16028D02*
X371028D01*
Y41618D01*
X348587D02*
X371028D01*
X169060Y16028D02*
Y41618D01*
Y16028D02*
X191500D01*
Y41618D01*
X169060D02*
X191500D01*
X707642Y16028D02*
Y41618D01*
Y16028D02*
X730083D01*
Y41618D01*
X707642D02*
X730083D01*
X-258500Y16028D02*
Y41618D01*
Y16028D02*
X-236059D01*
Y41618D01*
X-258500D02*
X-236059D01*
X-438027Y16028D02*
Y41618D01*
Y16028D02*
X-415586D01*
Y41618D01*
X-438027D02*
X-415586D01*
X-169060Y-41618D02*
Y-16028D01*
X-191500D02*
X-169060D01*
X-191500Y-41618D02*
Y-16028D01*
Y-41618D02*
X-169060D01*
X-348587D02*
Y-16028D01*
X-371028D02*
X-348587D01*
X-371028Y-41618D02*
Y-16028D01*
Y-41618D02*
X-348587D01*
X-528115D02*
Y-16028D01*
X-550556D02*
X-528115D01*
X-550556Y-41618D02*
Y-16028D01*
Y-41618D02*
X-528115D01*
X-617555Y16028D02*
Y41618D01*
Y16028D02*
X-595114D01*
Y41618D01*
X-617555D02*
X-595114D01*
D14*
X29134Y42323D02*
X28346D01*
X29134D01*
X-10236D02*
X-11024D01*
X-10236D01*
X-28937Y9646D02*
Y21850D01*
X-2559Y9646D02*
Y21850D01*
X-28937D02*
X-2559D01*
X-28937Y9646D02*
X-2559D01*
X2559D02*
Y21850D01*
X28937Y9646D02*
Y21850D01*
X2559D02*
X28937D01*
X2559Y9646D02*
X28937D01*
X-4724Y-46850D02*
X-1378D01*
Y-42913D01*
X-13583Y-46850D02*
X-10236D01*
X-13583D02*
Y-42913D01*
X984Y-25591D02*
X4331D01*
X984Y-29528D02*
Y-25591D01*
X9843D02*
X13189D01*
Y-29528D02*
Y-25591D01*
M02*
