G04*
G04 #@! TF.GenerationSoftware,Altium Limited,Altium Designer,19.0.14 (431)*
G04*
G04 Layer_Color=128*
%FSLAX25Y25*%
%MOIN*%
G70*
G01*
G75*
%ADD20R,0.03150X0.02953*%
%ADD21R,0.02953X0.03150*%
%ADD26R,0.02362X0.03937*%
%ADD58R,0.08500X0.10799*%
%ADD59R,0.04724X0.04724*%
%ADD60R,0.30000X0.25000*%
%ADD61R,0.08661X0.04724*%
%ADD62R,0.12795X0.08465*%
%ADD63R,0.03937X0.08465*%
D20*
X39370Y-65945D02*
D03*
X45276D02*
D03*
X-2559Y-14764D02*
D03*
X-8465D02*
D03*
X-2559Y-20472D02*
D03*
X-8465D02*
D03*
X4921Y-54134D02*
D03*
X10827D02*
D03*
X4921Y-48819D02*
D03*
X10827D02*
D03*
X8858Y-4328D02*
D03*
X2953D02*
D03*
X18701Y-23622D02*
D03*
X24606D02*
D03*
X-25197Y-77756D02*
D03*
X-31102D02*
D03*
X34449Y-8858D02*
D03*
X40354D02*
D03*
X-25197Y-56102D02*
D03*
X-31102D02*
D03*
X-25197Y-45276D02*
D03*
X-31102D02*
D03*
X18701Y-29528D02*
D03*
X24606D02*
D03*
X-25197Y-62008D02*
D03*
X-31102D02*
D03*
X18701Y-12795D02*
D03*
X24606D02*
D03*
X-25197Y-66929D02*
D03*
X-31102D02*
D03*
X34449Y-20669D02*
D03*
X40354D02*
D03*
X18701Y-18701D02*
D03*
X24606D02*
D03*
X-25197Y-83661D02*
D03*
X-31102D02*
D03*
X-25197Y-72835D02*
D03*
X-31102D02*
D03*
X34449Y-14764D02*
D03*
X40354D02*
D03*
X34449Y-26575D02*
D03*
X40354D02*
D03*
X-25197Y-51181D02*
D03*
X-31102D02*
D03*
X605709Y-44094D02*
D03*
X599803D02*
D03*
X426181D02*
D03*
X420276D02*
D03*
X246654D02*
D03*
X240748D02*
D03*
X67126D02*
D03*
X61221D02*
D03*
X719488Y44094D02*
D03*
X725394D02*
D03*
X539961D02*
D03*
X545866D02*
D03*
X360433D02*
D03*
X366339D02*
D03*
X180905D02*
D03*
X186811D02*
D03*
X-67126D02*
D03*
X-61221D02*
D03*
X-246654D02*
D03*
X-240748D02*
D03*
X-426181D02*
D03*
X-420276D02*
D03*
X-180905Y-44094D02*
D03*
X-186811D02*
D03*
X-360433D02*
D03*
X-366339D02*
D03*
X-539961D02*
D03*
X-545866D02*
D03*
X-605709Y44094D02*
D03*
X-599803D02*
D03*
X-719488Y-44094D02*
D03*
X-725394D02*
D03*
D21*
X-33071Y984D02*
D03*
Y6890D02*
D03*
X7874Y40945D02*
D03*
Y35039D02*
D03*
X-7874Y40945D02*
D03*
Y35039D02*
D03*
X2953Y40945D02*
D03*
Y35039D02*
D03*
X-2953Y40945D02*
D03*
Y35039D02*
D03*
X18701Y-40438D02*
D03*
Y-34533D02*
D03*
X-18758Y-44753D02*
D03*
Y-38848D02*
D03*
X29528Y-29528D02*
D03*
Y-23622D02*
D03*
Y-18701D02*
D03*
Y-12795D02*
D03*
X-35433Y-66929D02*
D03*
Y-72835D02*
D03*
Y-56102D02*
D03*
Y-62008D02*
D03*
Y-77756D02*
D03*
Y-83661D02*
D03*
X45276Y-8858D02*
D03*
Y-14764D02*
D03*
Y-26575D02*
D03*
Y-20669D02*
D03*
X-35433Y-45276D02*
D03*
Y-51181D02*
D03*
D26*
X-7480Y-48819D02*
D03*
X-3740Y-39370D02*
D03*
X-11220D02*
D03*
X7087Y-23622D02*
D03*
X3347Y-33071D02*
D03*
X10827D02*
D03*
D58*
X9016Y51181D02*
D03*
X26417D02*
D03*
X-9016D02*
D03*
X-26417D02*
D03*
D59*
X25591Y38386D02*
D03*
X13780D02*
D03*
X-13780D02*
D03*
X-25591D02*
D03*
D60*
X-76575Y28937D02*
D03*
X-710039Y-28937D02*
D03*
X89173Y-29331D02*
D03*
X615158Y-28937D02*
D03*
X256102D02*
D03*
X435630D02*
D03*
X530512Y28937D02*
D03*
X350984D02*
D03*
X171457D02*
D03*
X710039D02*
D03*
X-256102D02*
D03*
X-435630D02*
D03*
X-171457Y-28937D02*
D03*
X-350984D02*
D03*
X-530512D02*
D03*
X-615158Y28937D02*
D03*
D61*
X-47441Y37992D02*
D03*
Y19882D02*
D03*
X-739173Y-37992D02*
D03*
Y-19882D02*
D03*
X60039Y-20276D02*
D03*
Y-38386D02*
D03*
X586024Y-19882D02*
D03*
Y-37992D02*
D03*
X226968Y-19882D02*
D03*
Y-37992D02*
D03*
X406496Y-19882D02*
D03*
Y-37992D02*
D03*
X559646Y19882D02*
D03*
Y37992D02*
D03*
X380118Y19882D02*
D03*
Y37992D02*
D03*
X200591Y19882D02*
D03*
Y37992D02*
D03*
X739173Y19882D02*
D03*
Y37992D02*
D03*
X-226968Y19882D02*
D03*
Y37992D02*
D03*
X-406496Y19882D02*
D03*
Y37992D02*
D03*
X-200591Y-19882D02*
D03*
Y-37992D02*
D03*
X-380118Y-19882D02*
D03*
Y-37992D02*
D03*
X-559646Y-19882D02*
D03*
Y-37992D02*
D03*
X-586024Y19882D02*
D03*
Y37992D02*
D03*
D62*
X-15748Y27264D02*
D03*
X15748D02*
D03*
D63*
X-24803Y4232D02*
D03*
X-15748D02*
D03*
X-6693D02*
D03*
X6693D02*
D03*
X15748D02*
D03*
X24803D02*
D03*
M02*
