G04*
G04 #@! TF.GenerationSoftware,Altium Limited,Altium Designer,19.0.14 (431)*
G04*
G04 Layer_Color=8388736*
%FSLAX25Y25*%
%MOIN*%
G70*
G01*
G75*
%ADD29R,0.01900X0.06300*%
%ADD30R,0.05800X0.10800*%
%ADD31R,0.14304X0.07296*%
%ADD32O,0.03162X0.07099*%
%ADD33R,0.03950X0.03753*%
%ADD34R,0.03753X0.03950*%
%ADD35R,0.06312X0.06312*%
%ADD36R,0.05131X0.06115*%
%ADD37R,0.08792X0.06784*%
%ADD38R,0.02769X0.04343*%
%ADD39R,0.03162X0.04737*%
%ADD40O,0.05721X0.01784*%
G04:AMPARAMS|DCode=41|XSize=55.12mil|YSize=55.12mil|CornerRadius=11.81mil|HoleSize=0mil|Usage=FLASHONLY|Rotation=90.000|XOffset=0mil|YOffset=0mil|HoleType=Round|Shape=RoundedRectangle|*
%AMROUNDEDRECTD41*
21,1,0.05512,0.03150,0,0,90.0*
21,1,0.03150,0.05512,0,0,90.0*
1,1,0.02362,0.01575,0.01575*
1,1,0.02362,0.01575,-0.01575*
1,1,0.02362,-0.01575,-0.01575*
1,1,0.02362,-0.01575,0.01575*
%
%ADD41ROUNDEDRECTD41*%
%ADD42C,0.36233*%
%ADD43C,0.05918*%
%ADD44C,0.12611*%
%ADD45C,0.04737*%
%ADD46C,0.02572*%
D29*
X14759Y-6632D02*
D03*
X16728D02*
D03*
X18699D02*
D03*
X20669D02*
D03*
X22638D02*
D03*
X24609D02*
D03*
X26579D02*
D03*
X28548D02*
D03*
Y10569D02*
D03*
X26579D02*
D03*
X24609D02*
D03*
X22638D02*
D03*
X20669D02*
D03*
X18699D02*
D03*
X16728D02*
D03*
X14759D02*
D03*
X-24611Y-6632D02*
D03*
X-22641D02*
D03*
X-20672D02*
D03*
X-18701D02*
D03*
X-16732D02*
D03*
X-14762D02*
D03*
X-12791D02*
D03*
X-10821D02*
D03*
Y10569D02*
D03*
X-12791D02*
D03*
X-14762D02*
D03*
X-16732D02*
D03*
X-18701D02*
D03*
X-20672D02*
D03*
X-22641D02*
D03*
X-24611D02*
D03*
D30*
X17717Y82953D02*
D03*
X5906D02*
D03*
X-5906D02*
D03*
X-17717D02*
D03*
D31*
X-33032Y96457D02*
D03*
X33032D02*
D03*
D32*
X26496Y46260D02*
D03*
X36496D02*
D03*
X26496Y71850D02*
D03*
X36496D02*
D03*
X-36496Y46260D02*
D03*
X-26496D02*
D03*
X-36496Y71850D02*
D03*
X-26496D02*
D03*
D33*
X30512Y39370D02*
D03*
X36417D02*
D03*
X30512Y34449D02*
D03*
X36417D02*
D03*
X9646Y18504D02*
D03*
X3740D02*
D03*
X9646Y28937D02*
D03*
X3740D02*
D03*
Y23622D02*
D03*
X9646D02*
D03*
X-36417Y39370D02*
D03*
X-30512D02*
D03*
X-26181Y80087D02*
D03*
X-32087D02*
D03*
X-36417Y34449D02*
D03*
X-30512D02*
D03*
X-9646Y28937D02*
D03*
X-3740D02*
D03*
X-9646Y18504D02*
D03*
X-3740D02*
D03*
Y23622D02*
D03*
X-9646D02*
D03*
X40157Y29134D02*
D03*
X46063D02*
D03*
Y18110D02*
D03*
X40157D02*
D03*
X46063Y23622D02*
D03*
X40157D02*
D03*
X67815Y-48031D02*
D03*
X61910D02*
D03*
X606398D02*
D03*
X600492D02*
D03*
X247342D02*
D03*
X241437D02*
D03*
X426870D02*
D03*
X420965D02*
D03*
X539272Y48031D02*
D03*
X545177D02*
D03*
X359744D02*
D03*
X365650D02*
D03*
X180217D02*
D03*
X186122D02*
D03*
X718799D02*
D03*
X724705D02*
D03*
X-247342D02*
D03*
X-241437D02*
D03*
X-426870D02*
D03*
X-420965D02*
D03*
X-67815D02*
D03*
X-61910D02*
D03*
X-180217Y-48031D02*
D03*
X-186122D02*
D03*
X-359744D02*
D03*
X-365650D02*
D03*
X-539272D02*
D03*
X-545177D02*
D03*
X-606398Y48031D02*
D03*
X-600492D02*
D03*
X-718799Y-48031D02*
D03*
X-724705D02*
D03*
X-44291Y17717D02*
D03*
X-38386D02*
D03*
X-44291Y29528D02*
D03*
X-38386D02*
D03*
X4528Y-38189D02*
D03*
X10433D02*
D03*
X-4921Y-29134D02*
D03*
X-10827D02*
D03*
X4528Y-29528D02*
D03*
X10433D02*
D03*
X-4921Y-38189D02*
D03*
X-10827D02*
D03*
X4528Y-33858D02*
D03*
X10433D02*
D03*
X-4921Y-33740D02*
D03*
X-10827D02*
D03*
X-38386Y23622D02*
D03*
X-44291D02*
D03*
D34*
X35433Y79724D02*
D03*
Y85630D02*
D03*
X-45276Y-984D02*
D03*
Y-6890D02*
D03*
X35512Y-6891D02*
D03*
Y-985D02*
D03*
X40536D02*
D03*
Y-6891D02*
D03*
X-36969D02*
D03*
Y-985D02*
D03*
X-32133Y-984D02*
D03*
Y-6890D02*
D03*
X-7480Y-63189D02*
D03*
Y-57284D02*
D03*
X114370Y-14173D02*
D03*
Y-8268D02*
D03*
X99606Y-14173D02*
D03*
Y-8268D02*
D03*
X109449Y-8268D02*
D03*
Y-14174D02*
D03*
X104528Y-14173D02*
D03*
Y-8268D02*
D03*
X652953Y-14173D02*
D03*
Y-8268D02*
D03*
X638189Y-14173D02*
D03*
Y-8268D02*
D03*
X648032Y-8268D02*
D03*
Y-14174D02*
D03*
X643110Y-14173D02*
D03*
Y-8268D02*
D03*
X293898Y-14173D02*
D03*
Y-8268D02*
D03*
X279134Y-14173D02*
D03*
Y-8268D02*
D03*
X288976Y-8268D02*
D03*
Y-14174D02*
D03*
X284055Y-14173D02*
D03*
Y-8268D02*
D03*
X473425Y-14173D02*
D03*
Y-8268D02*
D03*
X458661Y-14173D02*
D03*
Y-8268D02*
D03*
X468504Y-8268D02*
D03*
Y-14174D02*
D03*
X463583Y-14173D02*
D03*
Y-8268D02*
D03*
X492717Y14173D02*
D03*
Y8268D02*
D03*
X507480Y14173D02*
D03*
Y8268D02*
D03*
X497638Y8268D02*
D03*
Y14174D02*
D03*
X502559Y14173D02*
D03*
Y8268D02*
D03*
X313189Y14173D02*
D03*
Y8268D02*
D03*
X327953Y14173D02*
D03*
Y8268D02*
D03*
X318110Y8268D02*
D03*
Y14174D02*
D03*
X323031Y14173D02*
D03*
Y8268D02*
D03*
X133661Y14173D02*
D03*
Y8268D02*
D03*
X148425Y14173D02*
D03*
Y8268D02*
D03*
X138583Y8268D02*
D03*
Y14174D02*
D03*
X143504Y14173D02*
D03*
Y8268D02*
D03*
X672244Y14173D02*
D03*
Y8268D02*
D03*
X687008Y14173D02*
D03*
Y8268D02*
D03*
X677165Y8268D02*
D03*
Y14174D02*
D03*
X682087Y14173D02*
D03*
Y8268D02*
D03*
X-293898Y14173D02*
D03*
Y8268D02*
D03*
X-279134Y14173D02*
D03*
Y8268D02*
D03*
X-288976Y8268D02*
D03*
Y14174D02*
D03*
X-284055Y14173D02*
D03*
Y8268D02*
D03*
X-473425Y14173D02*
D03*
Y8268D02*
D03*
X-458661Y14173D02*
D03*
Y8268D02*
D03*
X-468504Y8268D02*
D03*
Y14174D02*
D03*
X-463583Y14173D02*
D03*
Y8268D02*
D03*
X-114370Y14173D02*
D03*
Y8268D02*
D03*
X-99606Y14173D02*
D03*
Y8268D02*
D03*
X-109449Y8268D02*
D03*
Y14174D02*
D03*
X-104528Y14173D02*
D03*
Y8268D02*
D03*
X-133661Y-14173D02*
D03*
Y-8268D02*
D03*
X-148425Y-14173D02*
D03*
Y-8268D02*
D03*
X-138583Y-8268D02*
D03*
Y-14174D02*
D03*
X-143504Y-14173D02*
D03*
Y-8268D02*
D03*
X-313189Y-14173D02*
D03*
Y-8268D02*
D03*
X-327953Y-14173D02*
D03*
Y-8268D02*
D03*
X-318110Y-8268D02*
D03*
Y-14174D02*
D03*
X-323031Y-14173D02*
D03*
Y-8268D02*
D03*
X-492717Y-14173D02*
D03*
Y-8268D02*
D03*
X-507480Y-14173D02*
D03*
Y-8268D02*
D03*
X-497638Y-8268D02*
D03*
Y-14174D02*
D03*
X-502559Y-14173D02*
D03*
Y-8268D02*
D03*
X-643110Y8268D02*
D03*
Y14173D02*
D03*
X-682087Y-8268D02*
D03*
Y-14173D02*
D03*
X-648032Y14174D02*
D03*
Y8268D02*
D03*
X-677165Y-14174D02*
D03*
Y-8268D02*
D03*
X1654Y-17953D02*
D03*
Y-12047D02*
D03*
X5118Y-43110D02*
D03*
Y-49016D02*
D03*
X-5512Y-49213D02*
D03*
Y-43307D02*
D03*
X-638189Y14173D02*
D03*
Y8268D02*
D03*
X-687008Y-14173D02*
D03*
Y-8268D02*
D03*
X10236Y-49016D02*
D03*
Y-43110D02*
D03*
X-10630D02*
D03*
Y-49016D02*
D03*
X-652953Y8268D02*
D03*
Y14173D02*
D03*
X-672244Y-8268D02*
D03*
Y-14173D02*
D03*
X7126Y-11969D02*
D03*
Y-17874D02*
D03*
X-12205Y-63189D02*
D03*
Y-57284D02*
D03*
D35*
X6811Y36909D02*
D03*
X16811D02*
D03*
X6811Y69390D02*
D03*
X16811D02*
D03*
X-16811Y36909D02*
D03*
X-6811D02*
D03*
X-16811Y69390D02*
D03*
X-6811D02*
D03*
D36*
X32874Y28051D02*
D03*
X16732D02*
D03*
Y19193D02*
D03*
X32874D02*
D03*
X-32874D02*
D03*
X-16732D02*
D03*
Y28051D02*
D03*
X-32874D02*
D03*
D37*
X707480Y37421D02*
D03*
Y49390D02*
D03*
X617717Y-37421D02*
D03*
Y-49390D02*
D03*
X527953Y37421D02*
D03*
Y49390D02*
D03*
X438189Y-37421D02*
D03*
Y-49390D02*
D03*
X348425Y37421D02*
D03*
Y49390D02*
D03*
X258661Y-37421D02*
D03*
Y-49390D02*
D03*
X168898Y37421D02*
D03*
Y49390D02*
D03*
X79134Y-37421D02*
D03*
Y-49390D02*
D03*
X-79134Y37421D02*
D03*
Y49390D02*
D03*
X-168898Y-37421D02*
D03*
Y-49390D02*
D03*
X-258661Y37421D02*
D03*
Y49390D02*
D03*
X-348425Y-37421D02*
D03*
Y-49390D02*
D03*
X-438189Y37421D02*
D03*
Y49390D02*
D03*
X-527953Y-37421D02*
D03*
Y-49390D02*
D03*
X-617717Y37421D02*
D03*
Y49390D02*
D03*
X-707480Y-37421D02*
D03*
Y-49390D02*
D03*
D38*
X8859Y4921D02*
D03*
X2953D02*
D03*
X2953Y10827D02*
D03*
X8858D02*
D03*
X-36417Y4921D02*
D03*
X-30512D02*
D03*
X-30512Y10569D02*
D03*
X-36417D02*
D03*
D39*
X718209Y32972D02*
D03*
X725689D02*
D03*
X721949Y42421D02*
D03*
X606988Y-32972D02*
D03*
X599508D02*
D03*
X603248Y-42421D02*
D03*
X538681Y32972D02*
D03*
X546161D02*
D03*
X542421Y42421D02*
D03*
X427461Y-32972D02*
D03*
X419980D02*
D03*
X423721Y-42421D02*
D03*
X359154Y32972D02*
D03*
X366634D02*
D03*
X362894Y42421D02*
D03*
X247933Y-32972D02*
D03*
X240453D02*
D03*
X244193Y-42421D02*
D03*
X179626Y32972D02*
D03*
X187106D02*
D03*
X183366Y42421D02*
D03*
X68405Y-32972D02*
D03*
X60925D02*
D03*
X64665Y-42421D02*
D03*
X-68405Y32972D02*
D03*
X-60925D02*
D03*
X-64665Y42421D02*
D03*
X-179626Y-32972D02*
D03*
X-187106D02*
D03*
X-183366Y-42421D02*
D03*
X-247933Y32972D02*
D03*
X-240453D02*
D03*
X-244193Y42421D02*
D03*
X-359154Y-32972D02*
D03*
X-366634D02*
D03*
X-362894Y-42421D02*
D03*
X-427461Y32972D02*
D03*
X-419980D02*
D03*
X-423721Y42421D02*
D03*
X-538681Y-32972D02*
D03*
X-546161D02*
D03*
X-542421Y-42421D02*
D03*
X-606988Y32972D02*
D03*
X-599508D02*
D03*
X-603248Y42421D02*
D03*
X-718209Y-32972D02*
D03*
X-725689D02*
D03*
X-721949Y-42421D02*
D03*
D40*
X46457Y-59449D02*
D03*
Y-57480D02*
D03*
Y-55512D02*
D03*
Y-53543D02*
D03*
Y-51575D02*
D03*
Y-49606D02*
D03*
Y-47638D02*
D03*
Y-45669D02*
D03*
Y-43701D02*
D03*
Y-41732D02*
D03*
Y-39764D02*
D03*
Y-37795D02*
D03*
Y-35827D02*
D03*
Y-33858D02*
D03*
Y-31890D02*
D03*
Y-29921D02*
D03*
Y-27953D02*
D03*
Y-25984D02*
D03*
Y-24016D02*
D03*
Y-22047D02*
D03*
Y-20079D02*
D03*
Y-18110D02*
D03*
Y-16142D02*
D03*
Y-14173D02*
D03*
X18898Y-59449D02*
D03*
Y-57480D02*
D03*
Y-55512D02*
D03*
Y-53543D02*
D03*
Y-51575D02*
D03*
Y-49606D02*
D03*
Y-47638D02*
D03*
Y-45669D02*
D03*
Y-43701D02*
D03*
Y-41732D02*
D03*
Y-39764D02*
D03*
Y-37795D02*
D03*
Y-35827D02*
D03*
Y-33858D02*
D03*
Y-31890D02*
D03*
Y-29921D02*
D03*
Y-27953D02*
D03*
Y-25984D02*
D03*
Y-24016D02*
D03*
Y-22047D02*
D03*
Y-20079D02*
D03*
Y-18110D02*
D03*
Y-16142D02*
D03*
Y-14173D02*
D03*
X-46850Y-14173D02*
D03*
Y-16142D02*
D03*
Y-18110D02*
D03*
Y-20079D02*
D03*
Y-22047D02*
D03*
Y-24016D02*
D03*
Y-25984D02*
D03*
Y-27953D02*
D03*
Y-29921D02*
D03*
Y-31890D02*
D03*
Y-33858D02*
D03*
Y-35827D02*
D03*
Y-37795D02*
D03*
Y-39764D02*
D03*
Y-41732D02*
D03*
Y-43701D02*
D03*
Y-45669D02*
D03*
Y-47638D02*
D03*
Y-49606D02*
D03*
Y-51575D02*
D03*
Y-53543D02*
D03*
Y-55512D02*
D03*
Y-57480D02*
D03*
Y-59449D02*
D03*
X-19291Y-14173D02*
D03*
Y-16142D02*
D03*
Y-18110D02*
D03*
Y-20079D02*
D03*
Y-22047D02*
D03*
Y-24016D02*
D03*
Y-25984D02*
D03*
Y-27953D02*
D03*
Y-29921D02*
D03*
Y-31890D02*
D03*
Y-33858D02*
D03*
Y-35827D02*
D03*
Y-37795D02*
D03*
Y-39764D02*
D03*
Y-41732D02*
D03*
Y-43701D02*
D03*
Y-45669D02*
D03*
Y-47638D02*
D03*
Y-49606D02*
D03*
Y-51575D02*
D03*
Y-53543D02*
D03*
Y-55512D02*
D03*
Y-57480D02*
D03*
Y-59449D02*
D03*
D41*
X14764Y-87598D02*
D03*
Y-97835D02*
D03*
Y-92716D02*
D03*
X-14764Y-87598D02*
D03*
Y-97835D02*
D03*
Y-92716D02*
D03*
X21457Y-87598D02*
D03*
Y-97835D02*
D03*
Y-92716D02*
D03*
X-21457Y-87598D02*
D03*
Y-97835D02*
D03*
Y-92716D02*
D03*
X28150Y-87598D02*
D03*
Y-97835D02*
D03*
Y-92716D02*
D03*
X-28150Y-87598D02*
D03*
Y-97835D02*
D03*
Y-92716D02*
D03*
X34843Y-87598D02*
D03*
Y-97835D02*
D03*
Y-92716D02*
D03*
X-34843Y-87598D02*
D03*
Y-97835D02*
D03*
Y-92716D02*
D03*
D42*
X707480Y-88583D02*
D03*
Y88583D02*
D03*
X617717D02*
D03*
Y-88583D02*
D03*
X527953D02*
D03*
Y88583D02*
D03*
X438189Y88583D02*
D03*
Y-88583D02*
D03*
X348425Y-88583D02*
D03*
Y88583D02*
D03*
X258661D02*
D03*
Y-88583D02*
D03*
X168898D02*
D03*
Y88583D02*
D03*
X79134Y88583D02*
D03*
Y-88583D02*
D03*
X-79134Y-88583D02*
D03*
Y88583D02*
D03*
X-168898Y88583D02*
D03*
Y-88583D02*
D03*
X-258661Y-88583D02*
D03*
Y88583D02*
D03*
X-348425D02*
D03*
Y-88583D02*
D03*
X-438189D02*
D03*
Y88583D02*
D03*
X-527953Y88583D02*
D03*
Y-88583D02*
D03*
X-617717Y-88583D02*
D03*
Y88583D02*
D03*
X-707480Y88583D02*
D03*
Y-88583D02*
D03*
D43*
X712992Y-32677D02*
D03*
X705118D02*
D03*
X612205Y32677D02*
D03*
X620079D02*
D03*
X533465Y-32677D02*
D03*
X525591D02*
D03*
X432677Y32677D02*
D03*
X440551D02*
D03*
X353937Y-32677D02*
D03*
X346063D02*
D03*
X253150Y32677D02*
D03*
X261024D02*
D03*
X174409Y-32677D02*
D03*
X166535D02*
D03*
X73622Y32677D02*
D03*
X81496D02*
D03*
X-73622Y-32677D02*
D03*
X-81496D02*
D03*
X-174409Y32677D02*
D03*
X-166535D02*
D03*
X-253150Y-32677D02*
D03*
X-261024D02*
D03*
X-353937Y32677D02*
D03*
X-346063D02*
D03*
X-432677Y-32677D02*
D03*
X-440551D02*
D03*
X-533465Y32677D02*
D03*
X-525591D02*
D03*
X-612205Y-32677D02*
D03*
X-620079D02*
D03*
X-712992Y32677D02*
D03*
X-705118D02*
D03*
D44*
X0Y-98425D02*
D03*
D45*
X707480Y104331D02*
D03*
X702094Y103381D02*
D03*
X697358Y100646D02*
D03*
X693842Y96457D02*
D03*
X691971Y91317D02*
D03*
Y85848D02*
D03*
X693842Y80709D02*
D03*
X697358Y76519D02*
D03*
X702094Y73784D02*
D03*
X707480Y72835D02*
D03*
X712866Y73784D02*
D03*
X717603Y76519D02*
D03*
X721118Y80709D02*
D03*
X722989Y85848D02*
D03*
X722989Y91317D02*
D03*
X721118Y96457D02*
D03*
X717603Y100646D02*
D03*
X712866Y103381D02*
D03*
X707480Y-104331D02*
D03*
X712866Y-103381D02*
D03*
X717603Y-100646D02*
D03*
X721118Y-96457D02*
D03*
X722989Y-91317D02*
D03*
X722989Y-85848D02*
D03*
X721118Y-80709D02*
D03*
X717603Y-76519D02*
D03*
X712866Y-73784D02*
D03*
X707480Y-72835D02*
D03*
X702094Y-73784D02*
D03*
X697358Y-76519D02*
D03*
X693842Y-80709D02*
D03*
X691971Y-85848D02*
D03*
X691971Y-91317D02*
D03*
X693842Y-96457D02*
D03*
X697358Y-100646D02*
D03*
X702094Y-103381D02*
D03*
X617717Y-104331D02*
D03*
X623103Y-103381D02*
D03*
X627839Y-100646D02*
D03*
X631355Y-96457D02*
D03*
X633225Y-91317D02*
D03*
Y-85848D02*
D03*
X631355Y-80709D02*
D03*
X627839Y-76519D02*
D03*
X623103Y-73784D02*
D03*
X617717Y-72835D02*
D03*
X612330Y-73784D02*
D03*
X607594Y-76519D02*
D03*
X604078Y-80709D02*
D03*
X602208Y-85848D02*
D03*
X602208Y-91317D02*
D03*
X604078Y-96457D02*
D03*
X607594Y-100646D02*
D03*
X612330Y-103381D02*
D03*
X617717Y104331D02*
D03*
X612330Y103381D02*
D03*
X607594Y100646D02*
D03*
X604078Y96457D02*
D03*
X602208Y91317D02*
D03*
X602208Y85848D02*
D03*
X604078Y80709D02*
D03*
X607594Y76519D02*
D03*
X612330Y73784D02*
D03*
X617717Y72835D02*
D03*
X623103Y73784D02*
D03*
X627839Y76519D02*
D03*
X631355Y80709D02*
D03*
X633225Y85848D02*
D03*
X633225Y91317D02*
D03*
X631355Y96457D02*
D03*
X627839Y100646D02*
D03*
X623103Y103381D02*
D03*
X527953Y104331D02*
D03*
X522567Y103381D02*
D03*
X517830Y100646D02*
D03*
X514315Y96457D02*
D03*
X512444Y91317D02*
D03*
Y85848D02*
D03*
X514315Y80709D02*
D03*
X517830Y76519D02*
D03*
X522567Y73784D02*
D03*
X527953Y72835D02*
D03*
X533339Y73784D02*
D03*
X538075Y76519D02*
D03*
X541591Y80709D02*
D03*
X543462Y85848D02*
D03*
X543462Y91317D02*
D03*
X541591Y96457D02*
D03*
X538075Y100646D02*
D03*
X533339Y103381D02*
D03*
X527953Y-104331D02*
D03*
X533339Y-103381D02*
D03*
X538075Y-100646D02*
D03*
X541591Y-96457D02*
D03*
X543462Y-91317D02*
D03*
X543462Y-85848D02*
D03*
X541591Y-80709D02*
D03*
X538075Y-76519D02*
D03*
X533339Y-73784D02*
D03*
X527953Y-72835D02*
D03*
X522567Y-73784D02*
D03*
X517830Y-76519D02*
D03*
X514315Y-80709D02*
D03*
X512444Y-85848D02*
D03*
X512444Y-91317D02*
D03*
X514315Y-96457D02*
D03*
X517830Y-100646D02*
D03*
X522567Y-103381D02*
D03*
X438189Y-104331D02*
D03*
X443575Y-103381D02*
D03*
X448312Y-100646D02*
D03*
X451827Y-96457D02*
D03*
X453698Y-91317D02*
D03*
Y-85848D02*
D03*
X451827Y-80709D02*
D03*
X448312Y-76519D02*
D03*
X443575Y-73784D02*
D03*
X438189Y-72835D02*
D03*
X432803Y-73784D02*
D03*
X428066Y-76519D02*
D03*
X424551Y-80709D02*
D03*
X422680Y-85848D02*
D03*
X422680Y-91317D02*
D03*
X424551Y-96457D02*
D03*
X428066Y-100646D02*
D03*
X432803Y-103381D02*
D03*
X438189Y104331D02*
D03*
X432803Y103381D02*
D03*
X428066Y100646D02*
D03*
X424551Y96457D02*
D03*
X422680Y91317D02*
D03*
X422680Y85848D02*
D03*
X424551Y80709D02*
D03*
X428066Y76519D02*
D03*
X432803Y73784D02*
D03*
X438189Y72835D02*
D03*
X443575Y73784D02*
D03*
X448312Y76519D02*
D03*
X451827Y80709D02*
D03*
X453698Y85848D02*
D03*
X453698Y91317D02*
D03*
X451827Y96457D02*
D03*
X448312Y100646D02*
D03*
X443575Y103381D02*
D03*
X348425Y104331D02*
D03*
X343039Y103381D02*
D03*
X338303Y100646D02*
D03*
X334787Y96457D02*
D03*
X332916Y91317D02*
D03*
Y85848D02*
D03*
X334787Y80709D02*
D03*
X338303Y76519D02*
D03*
X343039Y73784D02*
D03*
X348425Y72835D02*
D03*
X353811Y73784D02*
D03*
X358548Y76519D02*
D03*
X362063Y80709D02*
D03*
X363934Y85848D02*
D03*
X363934Y91317D02*
D03*
X362063Y96457D02*
D03*
X358548Y100646D02*
D03*
X353811Y103381D02*
D03*
X348425Y-104331D02*
D03*
X353811Y-103381D02*
D03*
X358548Y-100646D02*
D03*
X362063Y-96457D02*
D03*
X363934Y-91317D02*
D03*
X363934Y-85848D02*
D03*
X362063Y-80709D02*
D03*
X358548Y-76519D02*
D03*
X353811Y-73784D02*
D03*
X348425Y-72835D02*
D03*
X343039Y-73784D02*
D03*
X338302Y-76519D02*
D03*
X334787Y-80709D02*
D03*
X332916Y-85848D02*
D03*
X332916Y-91317D02*
D03*
X334787Y-96457D02*
D03*
X338303Y-100646D02*
D03*
X343039Y-103381D02*
D03*
X258661Y-104331D02*
D03*
X264048Y-103381D02*
D03*
X268784Y-100646D02*
D03*
X272300Y-96457D02*
D03*
X274170Y-91317D02*
D03*
Y-85848D02*
D03*
X272300Y-80709D02*
D03*
X268784Y-76519D02*
D03*
X264048Y-73784D02*
D03*
X258661Y-72835D02*
D03*
X253275Y-73784D02*
D03*
X248539Y-76519D02*
D03*
X245023Y-80709D02*
D03*
X243153Y-85848D02*
D03*
X243153Y-91317D02*
D03*
X245023Y-96457D02*
D03*
X248539Y-100646D02*
D03*
X253275Y-103381D02*
D03*
X258661Y104331D02*
D03*
X253275Y103381D02*
D03*
X248539Y100646D02*
D03*
X245023Y96457D02*
D03*
X243153Y91317D02*
D03*
X243153Y85848D02*
D03*
X245023Y80709D02*
D03*
X248539Y76519D02*
D03*
X253275Y73784D02*
D03*
X258661Y72835D02*
D03*
X264048Y73784D02*
D03*
X268784Y76519D02*
D03*
X272300Y80709D02*
D03*
X274170Y85848D02*
D03*
X274170Y91317D02*
D03*
X272300Y96457D02*
D03*
X268784Y100646D02*
D03*
X264048Y103381D02*
D03*
X168898Y104331D02*
D03*
X163512Y103381D02*
D03*
X158775Y100646D02*
D03*
X155259Y96457D02*
D03*
X153389Y91317D02*
D03*
Y85848D02*
D03*
X155259Y80709D02*
D03*
X158775Y76519D02*
D03*
X163512Y73784D02*
D03*
X168898Y72835D02*
D03*
X174284Y73784D02*
D03*
X179020Y76519D02*
D03*
X182536Y80709D02*
D03*
X184406Y85848D02*
D03*
X184406Y91317D02*
D03*
X182536Y96457D02*
D03*
X179020Y100646D02*
D03*
X174284Y103381D02*
D03*
X168898Y-104331D02*
D03*
X174284Y-103381D02*
D03*
X179020Y-100646D02*
D03*
X182536Y-96457D02*
D03*
X184406Y-91317D02*
D03*
X184406Y-85848D02*
D03*
X182536Y-80709D02*
D03*
X179020Y-76519D02*
D03*
X174284Y-73784D02*
D03*
X168898Y-72835D02*
D03*
X163512Y-73784D02*
D03*
X158775Y-76519D02*
D03*
X155259Y-80709D02*
D03*
X153389Y-85848D02*
D03*
X153389Y-91317D02*
D03*
X155259Y-96457D02*
D03*
X158775Y-100646D02*
D03*
X163512Y-103381D02*
D03*
X79134Y-104331D02*
D03*
X84520Y-103381D02*
D03*
X89257Y-100646D02*
D03*
X92772Y-96457D02*
D03*
X94643Y-91317D02*
D03*
Y-85848D02*
D03*
X92772Y-80709D02*
D03*
X89257Y-76519D02*
D03*
X84520Y-73784D02*
D03*
X79134Y-72835D02*
D03*
X73748Y-73784D02*
D03*
X69011Y-76519D02*
D03*
X65496Y-80709D02*
D03*
X63625Y-85848D02*
D03*
X63625Y-91317D02*
D03*
X65496Y-96457D02*
D03*
X69011Y-100646D02*
D03*
X73748Y-103381D02*
D03*
X79134Y104331D02*
D03*
X73748Y103381D02*
D03*
X69011Y100646D02*
D03*
X65496Y96457D02*
D03*
X63625Y91317D02*
D03*
X63625Y85848D02*
D03*
X65496Y80709D02*
D03*
X69011Y76519D02*
D03*
X73748Y73784D02*
D03*
X79134Y72835D02*
D03*
X84520Y73784D02*
D03*
X89257Y76519D02*
D03*
X92772Y80709D02*
D03*
X94643Y85848D02*
D03*
X94643Y91317D02*
D03*
X92772Y96457D02*
D03*
X89257Y100646D02*
D03*
X84520Y103381D02*
D03*
X-79134Y104331D02*
D03*
X-84520Y103381D02*
D03*
X-89257Y100646D02*
D03*
X-92772Y96457D02*
D03*
X-94643Y91317D02*
D03*
Y85848D02*
D03*
X-92772Y80709D02*
D03*
X-89257Y76519D02*
D03*
X-84520Y73784D02*
D03*
X-79134Y72835D02*
D03*
X-73748Y73784D02*
D03*
X-69011Y76519D02*
D03*
X-65496Y80709D02*
D03*
X-63625Y85848D02*
D03*
X-63625Y91317D02*
D03*
X-65496Y96457D02*
D03*
X-69011Y100646D02*
D03*
X-73748Y103381D02*
D03*
X-79134Y-104331D02*
D03*
X-73748Y-103381D02*
D03*
X-69011Y-100646D02*
D03*
X-65496Y-96457D02*
D03*
X-63625Y-91317D02*
D03*
X-63625Y-85848D02*
D03*
X-65496Y-80709D02*
D03*
X-69011Y-76519D02*
D03*
X-73748Y-73784D02*
D03*
X-79134Y-72835D02*
D03*
X-84520Y-73784D02*
D03*
X-89257Y-76519D02*
D03*
X-92772Y-80709D02*
D03*
X-94643Y-85848D02*
D03*
X-94643Y-91317D02*
D03*
X-92772Y-96457D02*
D03*
X-89257Y-100646D02*
D03*
X-84520Y-103381D02*
D03*
X-168898Y-104331D02*
D03*
X-163512Y-103381D02*
D03*
X-158775Y-100646D02*
D03*
X-155259Y-96457D02*
D03*
X-153389Y-91317D02*
D03*
Y-85848D02*
D03*
X-155259Y-80709D02*
D03*
X-158775Y-76519D02*
D03*
X-163512Y-73784D02*
D03*
X-168898Y-72835D02*
D03*
X-174284Y-73784D02*
D03*
X-179020Y-76519D02*
D03*
X-182536Y-80709D02*
D03*
X-184406Y-85848D02*
D03*
X-184406Y-91317D02*
D03*
X-182536Y-96457D02*
D03*
X-179020Y-100646D02*
D03*
X-174284Y-103381D02*
D03*
X-168898Y104331D02*
D03*
X-174284Y103381D02*
D03*
X-179020Y100646D02*
D03*
X-182536Y96457D02*
D03*
X-184406Y91317D02*
D03*
X-184406Y85848D02*
D03*
X-182536Y80709D02*
D03*
X-179020Y76519D02*
D03*
X-174284Y73784D02*
D03*
X-168898Y72835D02*
D03*
X-163512Y73784D02*
D03*
X-158775Y76519D02*
D03*
X-155259Y80709D02*
D03*
X-153389Y85848D02*
D03*
X-153389Y91317D02*
D03*
X-155259Y96457D02*
D03*
X-158775Y100646D02*
D03*
X-163512Y103381D02*
D03*
X-258661Y104331D02*
D03*
X-264048Y103381D02*
D03*
X-268784Y100646D02*
D03*
X-272300Y96457D02*
D03*
X-274170Y91317D02*
D03*
Y85848D02*
D03*
X-272300Y80709D02*
D03*
X-268784Y76519D02*
D03*
X-264048Y73784D02*
D03*
X-258661Y72835D02*
D03*
X-253275Y73784D02*
D03*
X-248539Y76519D02*
D03*
X-245023Y80709D02*
D03*
X-243153Y85848D02*
D03*
X-243153Y91317D02*
D03*
X-245023Y96457D02*
D03*
X-248539Y100646D02*
D03*
X-253275Y103381D02*
D03*
X-258661Y-104331D02*
D03*
X-253275Y-103381D02*
D03*
X-248539Y-100646D02*
D03*
X-245023Y-96457D02*
D03*
X-243153Y-91317D02*
D03*
X-243153Y-85848D02*
D03*
X-245023Y-80709D02*
D03*
X-248539Y-76519D02*
D03*
X-253275Y-73784D02*
D03*
X-258661Y-72835D02*
D03*
X-264048Y-73784D02*
D03*
X-268784Y-76519D02*
D03*
X-272300Y-80709D02*
D03*
X-274170Y-85848D02*
D03*
X-274170Y-91317D02*
D03*
X-272300Y-96457D02*
D03*
X-268784Y-100646D02*
D03*
X-264048Y-103381D02*
D03*
X-348425Y-104331D02*
D03*
X-343039Y-103381D02*
D03*
X-338303Y-100646D02*
D03*
X-334787Y-96457D02*
D03*
X-332916Y-91317D02*
D03*
Y-85848D02*
D03*
X-334787Y-80709D02*
D03*
X-338303Y-76519D02*
D03*
X-343039Y-73784D02*
D03*
X-348425Y-72835D02*
D03*
X-353811Y-73784D02*
D03*
X-358548Y-76519D02*
D03*
X-362063Y-80709D02*
D03*
X-363934Y-85848D02*
D03*
X-363934Y-91317D02*
D03*
X-362063Y-96457D02*
D03*
X-358548Y-100646D02*
D03*
X-353811Y-103381D02*
D03*
X-348425Y104331D02*
D03*
X-353811Y103381D02*
D03*
X-358548Y100646D02*
D03*
X-362063Y96457D02*
D03*
X-363934Y91317D02*
D03*
X-363934Y85848D02*
D03*
X-362063Y80709D02*
D03*
X-358548Y76519D02*
D03*
X-353811Y73784D02*
D03*
X-348425Y72835D02*
D03*
X-343039Y73784D02*
D03*
X-338303Y76519D02*
D03*
X-334787Y80709D02*
D03*
X-332916Y85848D02*
D03*
X-332916Y91317D02*
D03*
X-334787Y96457D02*
D03*
X-338303Y100646D02*
D03*
X-343039Y103381D02*
D03*
X-438189Y104331D02*
D03*
X-443575Y103381D02*
D03*
X-448312Y100646D02*
D03*
X-451827Y96457D02*
D03*
X-453698Y91317D02*
D03*
Y85848D02*
D03*
X-451827Y80709D02*
D03*
X-448312Y76519D02*
D03*
X-443575Y73784D02*
D03*
X-438189Y72835D02*
D03*
X-432803Y73784D02*
D03*
X-428066Y76519D02*
D03*
X-424551Y80709D02*
D03*
X-422680Y85848D02*
D03*
X-422680Y91317D02*
D03*
X-424551Y96457D02*
D03*
X-428066Y100646D02*
D03*
X-432803Y103381D02*
D03*
X-438189Y-104331D02*
D03*
X-432803Y-103381D02*
D03*
X-428066Y-100646D02*
D03*
X-424551Y-96457D02*
D03*
X-422680Y-91317D02*
D03*
X-422680Y-85848D02*
D03*
X-424551Y-80709D02*
D03*
X-428066Y-76519D02*
D03*
X-432803Y-73784D02*
D03*
X-438189Y-72835D02*
D03*
X-443575Y-73784D02*
D03*
X-448312Y-76519D02*
D03*
X-451827Y-80709D02*
D03*
X-453698Y-85848D02*
D03*
X-453698Y-91317D02*
D03*
X-451827Y-96457D02*
D03*
X-448312Y-100646D02*
D03*
X-443575Y-103381D02*
D03*
X-527953Y-104331D02*
D03*
X-522567Y-103381D02*
D03*
X-517830Y-100646D02*
D03*
X-514315Y-96457D02*
D03*
X-512444Y-91317D02*
D03*
Y-85848D02*
D03*
X-514315Y-80709D02*
D03*
X-517830Y-76519D02*
D03*
X-522567Y-73784D02*
D03*
X-527953Y-72835D02*
D03*
X-533339Y-73784D02*
D03*
X-538075Y-76519D02*
D03*
X-541591Y-80709D02*
D03*
X-543462Y-85848D02*
D03*
X-543462Y-91317D02*
D03*
X-541591Y-96457D02*
D03*
X-538075Y-100646D02*
D03*
X-533339Y-103381D02*
D03*
X-527953Y104331D02*
D03*
X-533339Y103381D02*
D03*
X-538075Y100646D02*
D03*
X-541591Y96457D02*
D03*
X-543462Y91317D02*
D03*
X-543462Y85848D02*
D03*
X-541591Y80709D02*
D03*
X-538075Y76519D02*
D03*
X-533339Y73784D02*
D03*
X-527953Y72835D02*
D03*
X-522567Y73784D02*
D03*
X-517830Y76519D02*
D03*
X-514315Y80709D02*
D03*
X-512444Y85848D02*
D03*
X-512444Y91317D02*
D03*
X-514315Y96457D02*
D03*
X-517830Y100646D02*
D03*
X-522567Y103381D02*
D03*
X-617717Y104331D02*
D03*
X-623103Y103381D02*
D03*
X-627839Y100646D02*
D03*
X-631355Y96457D02*
D03*
X-633225Y91317D02*
D03*
Y85848D02*
D03*
X-631355Y80709D02*
D03*
X-627839Y76519D02*
D03*
X-623103Y73784D02*
D03*
X-617717Y72835D02*
D03*
X-612330Y73784D02*
D03*
X-607594Y76519D02*
D03*
X-604078Y80709D02*
D03*
X-602208Y85848D02*
D03*
X-602208Y91317D02*
D03*
X-604078Y96457D02*
D03*
X-607594Y100646D02*
D03*
X-612330Y103381D02*
D03*
X-617717Y-104331D02*
D03*
X-612330Y-103381D02*
D03*
X-607594Y-100646D02*
D03*
X-604078Y-96457D02*
D03*
X-602208Y-91317D02*
D03*
X-602208Y-85848D02*
D03*
X-604078Y-80709D02*
D03*
X-607594Y-76519D02*
D03*
X-612330Y-73784D02*
D03*
X-617717Y-72835D02*
D03*
X-623103Y-73784D02*
D03*
X-627839Y-76519D02*
D03*
X-631355Y-80709D02*
D03*
X-633225Y-85848D02*
D03*
X-633225Y-91317D02*
D03*
X-631355Y-96457D02*
D03*
X-627839Y-100646D02*
D03*
X-623103Y-103381D02*
D03*
X-707480Y-104331D02*
D03*
X-702094Y-103381D02*
D03*
X-697358Y-100646D02*
D03*
X-693842Y-96457D02*
D03*
X-691971Y-91317D02*
D03*
Y-85848D02*
D03*
X-693842Y-80709D02*
D03*
X-697358Y-76519D02*
D03*
X-702094Y-73784D02*
D03*
X-707480Y-72835D02*
D03*
X-712866Y-73784D02*
D03*
X-717603Y-76519D02*
D03*
X-721118Y-80709D02*
D03*
X-722989Y-85848D02*
D03*
X-722989Y-91317D02*
D03*
X-721118Y-96457D02*
D03*
X-717603Y-100646D02*
D03*
X-712866Y-103381D02*
D03*
X-707480Y104331D02*
D03*
X-712866Y103381D02*
D03*
X-717603Y100646D02*
D03*
X-721118Y96457D02*
D03*
X-722989Y91317D02*
D03*
X-722989Y85848D02*
D03*
X-721118Y80709D02*
D03*
X-717603Y76519D02*
D03*
X-712866Y73784D02*
D03*
X-707480Y72835D02*
D03*
X-702094Y73784D02*
D03*
X-697358Y76519D02*
D03*
X-693842Y80709D02*
D03*
X-691971Y85848D02*
D03*
X-691971Y91317D02*
D03*
X-693842Y96457D02*
D03*
X-697358Y100646D02*
D03*
X-702094Y103381D02*
D03*
D46*
X67815Y-48031D02*
D03*
X-28400Y33000D02*
D03*
X-4700Y-39500D02*
D03*
X37795Y-30315D02*
D03*
X41597Y-17608D02*
D03*
X-7800Y21400D02*
D03*
X12201Y40364D02*
D03*
X8501Y21339D02*
D03*
X45200Y-7300D02*
D03*
X40659Y984D02*
D03*
X27500Y-13000D02*
D03*
X28200Y-23263D02*
D03*
X10500Y5000D02*
D03*
X-35700Y-60376D02*
D03*
X-9646Y-4921D02*
D03*
X-21000Y4900D02*
D03*
X-1575Y-23090D02*
D03*
X-38386Y23622D02*
D03*
X40157D02*
D03*
X36417Y34449D02*
D03*
X28740Y32283D02*
D03*
X-39370Y35433D02*
D03*
X-31890Y44882D02*
D03*
X30315Y46457D02*
D03*
X680043Y54724D02*
D03*
X5312Y-7874D02*
D03*
X26378Y-45669D02*
D03*
X23622Y-1969D02*
D03*
X24016Y-47638D02*
D03*
X20866Y-1969D02*
D03*
X18021D02*
D03*
X15354D02*
D03*
X-32992Y-25298D02*
D03*
X-31102Y-22146D02*
D03*
X-20866Y-11417D02*
D03*
X-28740Y-26378D02*
D03*
X-25984Y-26378D02*
D03*
X-18110Y-11811D02*
D03*
X-15354D02*
D03*
X-6693Y4232D02*
D03*
X-15354Y-20079D02*
D03*
X24882Y4331D02*
D03*
X14272Y-12008D02*
D03*
X14173Y-28937D02*
D03*
Y-18110D02*
D03*
Y-21654D02*
D03*
X13632Y-53937D02*
D03*
X14173Y-48701D02*
D03*
X12205Y-43307D02*
D03*
X-10827Y-51387D02*
D03*
X-14764Y-87598D02*
D03*
X-11024Y-24803D02*
D03*
X14764Y-87598D02*
D03*
X17717Y54134D02*
D03*
X0D02*
D03*
X48228Y-65945D02*
D03*
X41437Y-59449D02*
D03*
X-50197Y0D02*
D03*
X24803Y-12500D02*
D03*
X77167Y13780D02*
D03*
X-25197Y-77756D02*
D03*
X-21260Y-92716D02*
D03*
X51181Y-44685D02*
D03*
Y-47539D02*
D03*
X61220Y-43307D02*
D03*
X51181Y-39764D02*
D03*
X53543Y-41339D02*
D03*
X51181Y-36811D02*
D03*
X34843Y-97835D02*
D03*
X28150D02*
D03*
X21457D02*
D03*
X14764D02*
D03*
X4528Y-38189D02*
D03*
X3543Y-12500D02*
D03*
X7126Y-11969D02*
D03*
X706693Y-14173D02*
D03*
X677264Y8268D02*
D03*
X-14764Y-97835D02*
D03*
X-21457D02*
D03*
X-28150D02*
D03*
X-34843D02*
D03*
X-35433Y-72835D02*
D03*
Y-51073D02*
D03*
X-7480Y-63189D02*
D03*
X-12205D02*
D03*
X3543Y-28937D02*
D03*
X15157Y-25197D02*
D03*
X-20472Y-48425D02*
D03*
X-17323D02*
D03*
X-14567Y-43701D02*
D03*
X34646Y-30315D02*
D03*
X40945D02*
D03*
X52165Y-16043D02*
D03*
X53642Y-18602D02*
D03*
X51181Y-20079D02*
D03*
X59252Y-19882D02*
D03*
X668504Y13386D02*
D03*
X709447Y-13780D02*
D03*
X68405Y-32874D02*
D03*
X53937Y-12500D02*
D03*
X109449Y-8268D02*
D03*
X138583Y7972D02*
D03*
X148425Y14075D02*
D03*
X279331Y-14173D02*
D03*
X53150Y-22146D02*
D03*
X51279Y-24803D02*
D03*
X53150Y-28543D02*
D03*
X288976Y-8268D02*
D03*
X318110Y8366D02*
D03*
X327953Y14173D02*
D03*
X53642Y-34941D02*
D03*
X458661Y-14075D02*
D03*
X468504Y-8169D02*
D03*
X497638Y8268D02*
D03*
X507382Y13878D02*
D03*
X638189Y-14075D02*
D03*
X648032Y-8268D02*
D03*
X41437Y-48819D02*
D03*
X687008Y14075D02*
D03*
X51083Y-53543D02*
D03*
X-35531Y-45079D02*
D03*
X-42028Y-43012D02*
D03*
Y-46358D02*
D03*
X-40354Y-59055D02*
D03*
X-19685Y-62008D02*
D03*
X-61023Y-55118D02*
D03*
X-58268D02*
D03*
X-55118Y-55118D02*
D03*
X-709447Y13780D02*
D03*
X-51575Y-33071D02*
D03*
Y-29921D02*
D03*
Y-37795D02*
D03*
X-54724Y-34646D02*
D03*
X-25000Y-66831D02*
D03*
X-25098Y-56102D02*
D03*
X-25197Y-45276D02*
D03*
X34449Y-10827D02*
D03*
Y-20472D02*
D03*
X-51575Y-16535D02*
D03*
X-109448Y8268D02*
D03*
X-99606Y14075D02*
D03*
X-51575Y-25984D02*
D03*
X-54068Y-27874D02*
D03*
X-50787Y20079D02*
D03*
X-138583Y-8268D02*
D03*
X-148425Y-13780D02*
D03*
X-288976Y8268D02*
D03*
X-279134Y14173D02*
D03*
X-54724Y-37795D02*
D03*
X-318110Y-8268D02*
D03*
X-327559Y-13780D02*
D03*
X-42520Y-49606D02*
D03*
X-458661Y14075D02*
D03*
X-468504Y8268D02*
D03*
X-51181Y-48425D02*
D03*
X-42520Y-53543D02*
D03*
X-507480Y-14173D02*
D03*
X-497638Y-8268D02*
D03*
X-51181Y-51575D02*
D03*
X-648032Y8268D02*
D03*
X-638189Y13780D02*
D03*
X-677165Y-8268D02*
D03*
X-687008Y-14173D02*
D03*
X14803Y-92716D02*
D03*
X21260D02*
D03*
X34803D02*
D03*
X28150D02*
D03*
X23110Y-59449D02*
D03*
X24882Y-57480D02*
D03*
X26654Y-55551D02*
D03*
X28307Y-53543D02*
D03*
X-33071Y-36906D02*
D03*
X-15354Y-16142D02*
D03*
X-13081Y-18199D02*
D03*
Y-14173D02*
D03*
X-14961Y-92520D02*
D03*
X-28150Y-92716D02*
D03*
X-35039Y-92913D02*
D03*
X-7087Y-48819D02*
D03*
X7087Y-23622D02*
D03*
X14961Y-39764D02*
D03*
X32677Y-36220D02*
D03*
Y-43110D02*
D03*
X-33071Y-30315D02*
D03*
X653051Y-8268D02*
D03*
X606299Y-48031D02*
D03*
X615750Y13780D02*
D03*
X586024Y-20079D02*
D03*
X596457Y-32677D02*
D03*
X473524Y-8268D02*
D03*
X426772Y-48031D02*
D03*
X436222Y13780D02*
D03*
X406496Y-20079D02*
D03*
X416929Y-32677D02*
D03*
X293996Y-8268D02*
D03*
X247244Y-48031D02*
D03*
X256694Y13780D02*
D03*
X226969Y-20079D02*
D03*
X237402Y-32677D02*
D03*
X114469Y-8268D02*
D03*
X-114469Y8268D02*
D03*
X-67716Y48031D02*
D03*
X-77167Y-13780D02*
D03*
X-57874Y32677D02*
D03*
X-293996Y8268D02*
D03*
X-247244Y48031D02*
D03*
X-226969Y20079D02*
D03*
X-256694Y-13780D02*
D03*
X-237402Y32677D02*
D03*
X-473524Y8268D02*
D03*
X-426772Y48031D02*
D03*
X-406496Y20079D02*
D03*
X-436222Y-13780D02*
D03*
X-416929Y32677D02*
D03*
X672146Y8268D02*
D03*
X718898Y48031D02*
D03*
X739173Y20079D02*
D03*
X728740Y32677D02*
D03*
X492618Y8268D02*
D03*
X539370Y48031D02*
D03*
X559646Y20079D02*
D03*
X529920Y-13780D02*
D03*
X549213Y32677D02*
D03*
X313090Y8268D02*
D03*
X359842Y48031D02*
D03*
X380118Y20079D02*
D03*
X350392Y-13780D02*
D03*
X369685Y32677D02*
D03*
X133563Y8268D02*
D03*
X190157Y32677D02*
D03*
X180315Y48031D02*
D03*
X170865Y-13780D02*
D03*
X200591Y20079D02*
D03*
X-133563Y-8268D02*
D03*
X-190157Y-32677D02*
D03*
X-180315Y-48031D02*
D03*
X-170865Y13780D02*
D03*
X-200591Y-20079D02*
D03*
X-313090Y-8268D02*
D03*
X-369685Y-32677D02*
D03*
X-359842Y-48031D02*
D03*
X-350392Y13780D02*
D03*
X-380118Y-20079D02*
D03*
X-492618Y-8268D02*
D03*
X-549213Y-32677D02*
D03*
X-539370Y-48031D02*
D03*
X-529920Y13780D02*
D03*
X-559646Y-20079D02*
D03*
X-653051Y8268D02*
D03*
X-596457Y32677D02*
D03*
X-606299Y48031D02*
D03*
X-615750Y-13780D02*
D03*
X-586024Y20079D02*
D03*
X-739173Y-20079D02*
D03*
X-728740Y-32677D02*
D03*
X-718898Y-48031D02*
D03*
X-672146Y-8268D02*
D03*
M02*
