G04*
G04 #@! TF.GenerationSoftware,Altium Limited,Altium Designer,19.0.14 (431)*
G04*
G04 Layer_Physical_Order=3*
G04 Layer_Color=16440176*
%FSLAX25Y25*%
%MOIN*%
G70*
G01*
G75*
%ADD48C,0.00400*%
%ADD49C,0.01000*%
%ADD50C,0.50000*%
%ADD52C,0.05118*%
%ADD54C,0.01772*%
%ADD55C,0.03937*%
%ADD56C,0.27559*%
%ADD57C,0.29528*%
D48*
X37795Y-30315D02*
X37935Y-30455D01*
X45395Y-28728D02*
X50101D01*
X45726Y-27928D02*
X50433D01*
X32285Y-14486D02*
X45726Y-27928D01*
X31953Y-15286D02*
X45395Y-28728D01*
X26789Y-14486D02*
X32285D01*
X17550Y-15286D02*
X31953D01*
X14272Y-12008D02*
X17550Y-15286D01*
X24803Y-12500D02*
X26789Y-14486D01*
X-6693Y-20472D02*
Y4232D01*
X-11024Y-24803D02*
X-6693Y-20472D01*
X65905Y-54343D02*
X351168D01*
X65573Y-55143D02*
X462131D01*
X468504Y-49902D02*
Y-8169D01*
X469304Y-50233D02*
Y-17310D01*
X470104Y-50564D02*
Y-17642D01*
X65242Y-55943D02*
X462462D01*
X64911Y-56743D02*
X462794D01*
X469304Y-17310D02*
X494882Y8268D01*
X64579Y-57543D02*
X463125D01*
X470104Y-17642D02*
X493179Y5433D01*
X462462Y-55943D02*
X468504Y-49902D01*
X462794Y-56743D02*
X469304Y-50233D01*
X463125Y-57543D02*
X470104Y-50564D01*
X56667Y-46237D02*
X65573Y-55143D01*
X55067Y-46900D02*
X64911Y-56743D01*
X54267Y-47231D02*
X64579Y-57543D01*
X53467Y-47563D02*
X64248Y-58343D01*
X52667Y-47894D02*
X63916Y-59143D01*
X51181Y-47539D02*
X63585Y-59943D01*
X59254Y-56743D02*
X63254Y-60743D01*
X59325Y-57946D02*
X62922Y-61543D01*
X50564Y-57946D02*
X59325D01*
X645040Y-59143D02*
X647231Y-56952D01*
X54283Y-56743D02*
X59254D01*
X645703Y-60743D02*
X648832Y-57615D01*
X63254Y-60743D02*
X645703D01*
X646034Y-61543D02*
X649632Y-57946D01*
X63916Y-59143D02*
X645040D01*
X63585Y-59943D02*
X645372D01*
X54267Y-47231D02*
Y-44538D01*
X526433Y-58343D02*
X533465Y-51311D01*
X64248Y-58343D02*
X526433D01*
X62922Y-61543D02*
X646034D01*
X645372Y-59943D02*
X648032Y-57284D01*
X53467Y-47563D02*
Y-44870D01*
X52667Y-47894D02*
Y-46924D01*
X55067Y-46900D02*
Y-44207D01*
X41437Y-48819D02*
X50564Y-57946D01*
X51181Y-45438D02*
X52667Y-46924D01*
X51181Y-45438D02*
Y-44685D01*
X45859Y-37262D02*
X53467Y-44870D01*
X648032Y-57284D02*
Y-8268D01*
X648832Y-57615D02*
Y-17148D01*
X649632Y-57946D02*
Y-17479D01*
X648832Y-17148D02*
X673558Y7579D01*
X649632Y-17479D02*
X673889Y6779D01*
X647231Y-56952D02*
Y-18110D01*
X643196Y-14075D02*
X647231Y-18110D01*
X57467Y-45906D02*
X65905Y-54343D01*
X55867Y-46568D02*
X65242Y-55943D01*
X712992Y-62343D02*
Y-32677D01*
X34646Y-56902D02*
X39062Y-61319D01*
X60435D01*
X61460Y-62343D01*
X712992D01*
X533465Y-51311D02*
Y-32677D01*
X-47750Y62217D02*
X-41840Y56308D01*
X-285665Y62217D02*
X-47750D01*
X-48081Y61417D02*
X-42640Y55976D01*
X-285334Y61417D02*
X-48081D01*
X-48413Y60617D02*
X-43440Y55645D01*
X-285002Y60617D02*
X-48413D01*
X-48744Y59817D02*
X-44240Y55313D01*
X-284671Y59817D02*
X-48744D01*
X-49075Y59017D02*
X-45040Y54982D01*
X-284339Y59017D02*
X-49075D01*
X-49407Y58217D02*
X-45840Y54651D01*
X-122848Y58217D02*
X-49407D01*
X-49738Y57417D02*
X-46640Y54319D01*
X-122517Y57417D02*
X-49738D01*
X-50069Y56617D02*
X-47440Y53988D01*
X-122185Y56617D02*
X-50069D01*
X-303950Y41670D02*
X-285002Y60617D01*
X-305550Y42333D02*
X-285665Y62217D01*
X-124016Y54787D02*
X-122185Y56617D01*
X-302350Y41007D02*
X-284339Y59017D01*
X-303150Y41339D02*
X-284671Y59817D01*
X-125616Y55449D02*
X-122848Y58217D01*
X-124816Y55118D02*
X-122517Y57417D01*
X-304750Y42001D02*
X-285334Y61417D01*
X37935Y-30455D02*
X38983D01*
X18504Y4331D02*
X24882D01*
X11024Y-3150D02*
X18504Y4331D01*
X11024Y-35827D02*
Y-3150D01*
Y-35827D02*
X14961Y-39764D01*
X41437Y-59449D02*
X41473Y-59485D01*
X-47440Y-21850D02*
Y53988D01*
X-46640Y-27130D02*
Y54319D01*
X-45840Y-27461D02*
Y54651D01*
X-45040Y-27792D02*
Y54982D01*
X-44240Y-28198D02*
Y55313D01*
X-43440Y-28529D02*
Y55645D01*
X-42640Y-28861D02*
Y55976D01*
X-41840Y-42824D02*
Y56308D01*
X52534Y-30029D02*
X56979D01*
X50433Y-27928D02*
X52534Y-30029D01*
X56979D02*
X61220Y-25787D01*
Y20276D01*
X154724Y-12992D02*
X174409Y-32677D01*
X61220Y20276D02*
X73622Y32677D01*
X76378D01*
X102362Y-3543D02*
X111811Y-12992D01*
X154724D01*
X76378Y32677D02*
X102362Y6693D01*
Y-3543D02*
Y6693D01*
X-42028Y-43012D02*
X-41840Y-42824D01*
X-51575Y-37795D02*
X-42640Y-28861D01*
X-51220Y-36309D02*
X-43440Y-28529D01*
X-51475Y-35433D02*
X-44240Y-28198D01*
X-50319Y-33071D02*
X-45040Y-27792D01*
X-48300Y-29921D02*
X-45840Y-27461D01*
X-47385Y-27874D02*
X-46640Y-27130D01*
X-51575Y-25984D02*
X-47440Y-21850D01*
X-54068Y-27874D02*
X-47385D01*
X56629Y-41030D02*
X57467Y-41868D01*
Y-45906D02*
Y-41868D01*
X55829Y-41362D02*
X56667Y-42200D01*
Y-46237D02*
Y-42200D01*
X55029Y-41693D02*
X55867Y-42531D01*
Y-46568D02*
Y-42531D01*
X53543Y-41339D02*
X54283Y-42078D01*
Y-43423D02*
Y-42078D01*
Y-43423D02*
X55067Y-44207D01*
X51181Y-41452D02*
X54267Y-44538D01*
X45791Y-37262D02*
X45859D01*
X51871Y-31629D02*
Y-31629D01*
Y-31629D02*
X53626Y-33383D01*
X54185D01*
X55128Y-34326D01*
X56629Y-41030D02*
Y-40060D01*
X54442Y-37873D02*
X56629Y-40060D01*
X54442Y-37873D02*
Y-36242D01*
X51181Y-36875D02*
Y-36811D01*
X53642Y-38204D02*
X55829Y-40392D01*
X53642Y-38204D02*
Y-34941D01*
X55829Y-41362D02*
Y-40392D01*
X55029Y-41693D02*
Y-40723D01*
X51181Y-36875D02*
X55029Y-40723D01*
X54442Y-36242D02*
X55128Y-35556D01*
Y-34326D01*
X51181Y-41452D02*
Y-39764D01*
X51083Y-53543D02*
X54283Y-56743D01*
X462131Y-55143D02*
X467704Y-49570D01*
X351168Y-54343D02*
X353026Y-52486D01*
X353937Y-51293D02*
Y-32677D01*
X353026Y-52204D02*
X353937Y-51293D01*
X353026Y-52486D02*
Y-52204D01*
X438717Y13386D02*
X505662D01*
X505896Y13620D01*
Y14493D01*
X710628Y-32677D02*
X712992D01*
X709447Y-31497D02*
X710628Y-32677D01*
X709447Y-31497D02*
Y-16928D01*
X706693Y-14173D02*
X709447Y-16928D01*
X673889Y6779D02*
X679712D01*
X687008Y14075D01*
X676575Y7579D02*
X677264Y8268D01*
X673558Y7579D02*
X676575D01*
X638189Y-14075D02*
X643196D01*
X612687Y15265D02*
X616365D01*
X612205Y15748D02*
X612687Y15265D01*
X612205Y15748D02*
Y32677D01*
X616365Y15265D02*
X618244Y13386D01*
X668504D01*
X434834Y15265D02*
X436837D01*
X432677Y17423D02*
X434834Y15265D01*
X436837D02*
X438717Y13386D01*
X432677Y17423D02*
Y32677D01*
X507997Y15364D02*
X511217Y12144D01*
X506766Y15364D02*
X507997D01*
X505896Y14493D02*
X506766Y15364D01*
X511217Y-12220D02*
Y12144D01*
X528434Y-14395D02*
Y-13280D01*
X527953Y-12798D02*
X528434Y-13280D01*
X511796Y-12798D02*
X527953D01*
X533465Y-32677D02*
Y-16535D01*
X532195Y-15265D02*
X533465Y-16535D01*
X529304Y-15265D02*
X532195D01*
X528434Y-14395D02*
X529304Y-15265D01*
X511217Y-12220D02*
X511796Y-12798D01*
X498937Y5433D02*
X507382Y13878D01*
X493179Y5433D02*
X498937D01*
X494882Y8268D02*
X497638D01*
X467704Y-49570D02*
Y-19279D01*
X462500Y-14075D02*
X467704Y-19279D01*
X458661Y-14075D02*
X462500D01*
X291381Y12414D02*
X315194D01*
X290576Y13219D02*
X291381Y12414D01*
X290576Y13219D02*
Y56371D01*
X325999Y12220D02*
X327953Y14173D01*
X315388Y12220D02*
X325999D01*
X315194Y12414D02*
X315388Y12220D01*
X286040Y60908D02*
X290576Y56371D01*
X58053Y60908D02*
X286040D01*
X314862Y11614D02*
X318110Y8366D01*
X291050Y11614D02*
X314862D01*
X289776Y12888D02*
X291050Y11614D01*
X289776Y12888D02*
Y56040D01*
X285708Y60108D02*
X289776Y56040D01*
X58385Y60108D02*
X285708D01*
X275397Y-12341D02*
X278715Y-15659D01*
X275397Y-12341D02*
Y12220D01*
X254417Y15265D02*
X257310D01*
X253150Y16533D02*
X254417Y15265D01*
X253150Y16533D02*
Y32677D01*
X258180Y13472D02*
X258854Y12798D01*
X258180Y13472D02*
Y14395D01*
X257310Y15265D02*
X258180Y14395D01*
X274818Y12798D02*
X275397Y12220D01*
X258854Y12798D02*
X274818D01*
X288176Y-5328D02*
Y55377D01*
X285046Y58508D02*
X288176Y55377D01*
X59048Y58508D02*
X285046D01*
X279331Y-14173D02*
X288176Y-5328D01*
X139383Y16917D02*
Y51906D01*
X133581Y57708D02*
X139383Y51906D01*
X59379Y57708D02*
X133581D01*
X142224Y14075D02*
X148425D01*
X139383Y16917D02*
X142224Y14075D01*
X113853Y-6782D02*
X116294D01*
X112367Y-8268D02*
X113853Y-6782D01*
X109449Y-8268D02*
X112367D01*
X116294Y-6782D02*
X137783Y14707D01*
Y51243D01*
X132918Y56108D02*
X137783Y51243D01*
X60042Y56108D02*
X132918D01*
X-50000Y-45079D02*
X-42849D01*
X-62401Y-32677D02*
X-50000Y-45079D01*
X-73622Y-32677D02*
X-62401D01*
X-73622D02*
Y-17750D01*
X-76018Y-15354D02*
X-73622Y-17750D01*
X-148952Y-15354D02*
X-76018D01*
X-173927Y15265D02*
X-170249D01*
X-174409Y15748D02*
X-173927Y15265D01*
X-174409Y15748D02*
Y32677D01*
X-169379Y13866D02*
X-168311Y12798D01*
X-169379Y13866D02*
Y14395D01*
X-168311Y12798D02*
X-152741D01*
X-170249Y15265D02*
X-169379Y14395D01*
X-152162Y-3351D02*
X-150689Y-4824D01*
X-152162Y-3351D02*
Y12220D01*
X-152741Y12798D02*
X-152162Y12220D01*
X-150689Y-13617D02*
Y-4824D01*
X-125616Y9030D02*
Y55449D01*
X-148425Y-13780D02*
X-125616Y9030D01*
X-138583Y-8268D02*
X-124816Y5499D01*
Y55118D01*
X-124016Y18110D02*
Y54787D01*
Y18110D02*
X-119980Y14075D01*
X-101581Y8268D02*
X-97050Y12798D01*
X-109448Y8268D02*
X-101581D01*
X-454924Y-12220D02*
X-451879Y-15265D01*
X-97050Y12798D02*
X-62977D01*
X-62398Y12220D01*
Y-5712D02*
Y12220D01*
Y-5712D02*
X-51575Y-16535D01*
X-451879Y-15265D02*
X-434736D01*
X-119980Y14075D02*
X-99606D01*
X-331690Y11811D02*
Y12220D01*
Y-11750D02*
Y11811D01*
X-347310Y12798D02*
X-332268D01*
X-331690Y12220D01*
Y11811D02*
X-314124D01*
X-305550Y20385D01*
Y42333D01*
X-304750Y20053D02*
Y42001D01*
X-327559Y-2756D02*
X-304750Y20053D01*
X-327559Y-13780D02*
Y-2756D01*
X-303950Y19747D02*
Y41670D01*
Y19747D02*
X-303937Y19735D01*
Y19735D02*
Y19735D01*
X-318110Y5562D02*
X-303937Y19735D01*
X-318110Y-8268D02*
Y5562D01*
X-296113Y14173D02*
X-279134D01*
X-302350Y20410D02*
X-296113Y14173D01*
X-302350Y20410D02*
Y41007D01*
X-291339Y8268D02*
X-288976D01*
X-303150Y20079D02*
X-291339Y8268D01*
X-303150Y20079D02*
Y41339D01*
X-351881Y15265D02*
X-349777D01*
X-353937Y17322D02*
X-351881Y15265D01*
X-353937Y17322D02*
Y32677D01*
X-349777Y15265D02*
X-347310Y12798D01*
X-42277Y-46139D02*
X-42043Y-46374D01*
X-395669Y-52756D02*
Y-35433D01*
X-398425Y-32677D02*
X-395669Y-35433D01*
X-432677Y-32677D02*
X-398425D01*
X-395669Y-52756D02*
X-393617Y-54808D01*
X-74837D01*
X-454924Y-12220D02*
Y12439D01*
X-458046Y15561D02*
X-454924Y12439D01*
X-434736Y-15265D02*
X-432677Y-17324D01*
Y-32677D02*
Y-17324D01*
X-477411Y-55608D02*
X-74506D01*
X-482652Y-50367D02*
X-477411Y-55608D01*
X-482652Y-50367D02*
Y-9916D01*
X-458661Y14075D01*
X-483452Y-6680D02*
X-468504Y8268D01*
X-483452Y-50699D02*
Y-6680D01*
Y-50699D02*
X-477743Y-56408D01*
X-74174D01*
X-478405Y-58008D02*
X-68932D01*
X-485052Y-51361D02*
X-478405Y-58008D01*
X-485052Y-51361D02*
Y-21985D01*
X-492864Y-14173D02*
X-485052Y-21985D01*
X-507480Y-14173D02*
X-492864D01*
X-74837Y-54808D02*
X-68343Y-48314D01*
X-74506Y-55608D02*
X-68012Y-49114D01*
X-74174Y-56408D02*
X-67680Y-49914D01*
X-69263Y-57208D02*
X-63288Y-51232D01*
X-478074Y-57208D02*
X-69263D01*
X-484252Y-51030D02*
X-478074Y-57208D01*
X-68932Y-58008D02*
X-62956Y-52032D01*
X-497638Y-8268D02*
X-484252Y-21654D01*
Y-51030D02*
Y-21654D01*
X-574803Y-55880D02*
Y-34646D01*
X-576772Y-32677D02*
X-574803Y-34646D01*
X-612205Y-32677D02*
X-576772D01*
X-574803Y-55880D02*
X-571876Y-58808D01*
X-68601D01*
X-62625Y-52832D01*
X-636703Y13869D02*
X-634452Y11617D01*
X-618994Y-12798D02*
X-612205Y-19588D01*
X-633874Y-12798D02*
X-618994D01*
X-634452Y-12220D02*
X-633874Y-12798D01*
X-634452Y-12220D02*
Y11617D01*
X-612205Y-32677D02*
Y-19588D01*
X-68269Y-59608D02*
X-62294Y-53632D01*
X-659364Y-59608D02*
X-68269D01*
X-661786Y-57186D02*
X-659364Y-59608D01*
X-661786Y-57186D02*
Y-9817D01*
X-638189Y13780D01*
X-662586Y-6286D02*
X-648032Y8268D01*
X-662586Y-57517D02*
Y-6286D01*
Y-57517D02*
X-659695Y-60408D01*
X-65551D02*
X-61286Y-56143D01*
X-659695Y-60408D02*
X-65551D01*
X-687008Y-14173D02*
X-672392D01*
X-664186Y-22379D01*
X-660358Y-62008D02*
X-19685D01*
X-664186Y-58180D02*
X-660358Y-62008D01*
X-664186Y-58180D02*
Y-22379D01*
X-660027Y-61208D02*
X-61208D01*
X-58268Y-58268D01*
X-663386Y-57849D02*
X-660027Y-61208D01*
X-677165Y-8268D02*
X-663386Y-22048D01*
Y-57849D02*
Y-22048D01*
X38983Y-30455D02*
X45791Y-37262D01*
X34646Y-56902D02*
Y-30315D01*
X40945D02*
X50557D01*
X51871Y-31629D01*
X336919Y-15659D02*
X353937Y-32677D01*
X66361Y-30829D02*
X68405Y-32874D01*
X52203Y-30829D02*
X66361D01*
X50101Y-28728D02*
X52203Y-30829D01*
X50739Y-14617D02*
X52165Y-16043D01*
X51539Y-13316D02*
X53651Y-15428D01*
X51539Y-13316D02*
Y48737D01*
X53651Y-16659D02*
Y-15428D01*
X53642Y-18602D02*
Y-16668D01*
X49939Y-18837D02*
X51181Y-20079D01*
X53642Y-16668D02*
X53651Y-16659D01*
X278715Y-15659D02*
X336919D01*
X52339Y-10902D02*
X53937Y-12500D01*
X52339Y-10902D02*
Y48406D01*
X60042Y56108D01*
X138583Y7972D02*
Y51575D01*
X133250Y56908D02*
X138583Y51575D01*
X59710Y56908D02*
X133250D01*
X51539Y48737D02*
X59710Y56908D01*
X58716Y59308D02*
X285377D01*
X49139Y-20400D02*
Y49731D01*
X50739Y49068D02*
X59379Y57708D01*
X49139Y49731D02*
X58716Y59308D01*
X47539Y50394D02*
X58053Y60908D01*
X50739Y-14617D02*
Y49068D01*
X48339Y-20732D02*
Y50062D01*
X49939Y-18837D02*
Y49400D01*
X48339Y50062D02*
X58385Y60108D01*
X47539Y-21063D02*
Y50394D01*
X285377Y59308D02*
X288976Y55709D01*
X49939Y49400D02*
X59048Y58508D01*
X48339Y-20732D02*
X50925Y-23317D01*
X47539Y-21063D02*
X51279Y-24803D01*
X49139Y-20400D02*
X50885Y-22146D01*
X288976Y-8268D02*
Y55709D01*
X50885Y-22146D02*
X53150D01*
X52765Y-28159D02*
X53150Y-28543D01*
X50925Y-23317D02*
X51895D01*
X52765Y-24188D01*
Y-28159D02*
Y-24188D01*
X-35738Y-44872D02*
X-35531Y-45079D01*
X-42643Y-44872D02*
X-35738D01*
X-42849Y-45079D02*
X-42643Y-44872D01*
X-150689Y-13617D02*
X-148952Y-15354D01*
X-270561Y-15265D02*
X-253150Y-32677D01*
X-328174Y-15265D02*
X-270561D01*
X-331690Y-11750D02*
X-328174Y-15265D01*
X-53470Y-46139D02*
X-42277D01*
X-42043Y-46374D02*
X-42028Y-46358D01*
X-55645Y-48314D02*
X-53470Y-46139D01*
X-68343Y-48314D02*
X-55645D01*
X-516348Y15561D02*
X-458046D01*
X-533465Y32677D02*
X-516348Y15561D01*
X-52350Y-52743D02*
X-51181Y-51575D01*
X-53129Y-52743D02*
X-52350D01*
X-54640Y-51232D02*
X-53129Y-52743D01*
X-63288Y-51232D02*
X-54640D01*
X-54971Y-52032D02*
X-53460Y-53543D01*
X-62956Y-52032D02*
X-54971D01*
X-44094Y-55315D02*
X-40354Y-59055D01*
X-52820Y-55315D02*
X-44094D01*
X-55303Y-52832D02*
X-52820Y-55315D01*
X-62625Y-52832D02*
X-55303D01*
X-53460Y-53543D02*
X-42520D01*
X-54983Y-49914D02*
X-53494Y-48425D01*
X-67680Y-49914D02*
X-54983D01*
X-55314Y-49114D02*
X-53139Y-46939D01*
X-68012Y-49114D02*
X-55314D01*
X-53139Y-46939D02*
X-45187D01*
X-56604Y-53632D02*
X-55118Y-55118D01*
X-62294Y-53632D02*
X-56604D01*
X-61286Y-55380D02*
X-61023Y-55118D01*
X-58268Y-58268D02*
Y-55118D01*
X-61286Y-56143D02*
Y-55380D01*
X-636703Y13869D02*
Y14395D01*
X-637761Y15453D02*
X-636703Y14395D01*
X-695768Y15453D02*
X-637761D01*
X-712992Y32677D02*
X-695768Y15453D01*
X-53239Y-36309D02*
X-51220D01*
X-54724Y-37795D02*
X-53239Y-36309D01*
X-53937Y-35433D02*
X-51475D01*
X-51575Y-33071D02*
X-50319D01*
X-51575Y-29921D02*
X-48300D01*
X-54724Y-34646D02*
X-53937Y-35433D01*
X-45187Y-46939D02*
X-42520Y-49606D01*
X-53494Y-48425D02*
X-51181D01*
D49*
X30315Y46457D02*
X45866Y62008D01*
X286495D01*
X293779Y54724D01*
X680043D01*
D50*
X79134Y88583D02*
X79134Y88583D01*
X-79134Y88583D02*
X79134D01*
X79134Y-88583D02*
X168898D01*
X706886D02*
X706886Y-88583D01*
X617123Y-88583D02*
X706886D01*
X617717Y88583D02*
X617717Y88583D01*
X527953Y88583D02*
X617717D01*
X527953Y-88583D02*
X527953Y-88583D01*
X438189Y-88583D02*
X527953D01*
X438189Y88583D02*
X438189Y88583D01*
X348425Y88583D02*
X438189D01*
X348425Y-88583D02*
X348425Y-88583D01*
X258661Y-88583D02*
X348425D01*
X258661Y88583D02*
X258661Y88583D01*
X168898Y88583D02*
X258661D01*
X168898Y-88583D02*
X168898Y-88583D01*
X-79134Y-88583D02*
X-79134Y-88583D01*
X-168898Y-88583D02*
X-79134D01*
X-168898Y88583D02*
X-168898Y88583D01*
X-258661Y88583D02*
X-168898D01*
X-258661Y-88583D02*
X-258661Y-88583D01*
X-348425Y-88583D02*
X-258661D01*
X-348425Y88583D02*
X-348425Y88583D01*
X-438189Y88583D02*
X-348425D01*
X-438189Y-88583D02*
X-438189Y-88583D01*
X-527953Y-88583D02*
X-438189D01*
X-527953Y88583D02*
X-527953Y88583D01*
X-617717Y88583D02*
X-527953D01*
X-707480Y-88583D02*
X-617717D01*
X-617717Y-88583D01*
D52*
X712992Y-32677D02*
D03*
X612205Y32677D02*
D03*
X533465Y-32677D02*
D03*
X432677Y32677D02*
D03*
X353937Y-32677D02*
D03*
X253150Y32677D02*
D03*
X174409Y-32677D02*
D03*
X73622Y32677D02*
D03*
X-73622Y-32677D02*
D03*
X-174409Y32677D02*
D03*
X-253150Y-32677D02*
D03*
X-353937Y32677D02*
D03*
X-432677Y-32677D02*
D03*
X-533465Y32677D02*
D03*
X-612205Y-32677D02*
D03*
X-712992Y32677D02*
D03*
D54*
X37795Y-30315D02*
D03*
X30315Y46457D02*
D03*
X680043Y54724D02*
D03*
X-6693Y4232D02*
D03*
X24882Y4331D02*
D03*
X14272Y-12008D02*
D03*
X-11024Y-24803D02*
D03*
X41437Y-59449D02*
D03*
X24803Y-12500D02*
D03*
X51181Y-44685D02*
D03*
Y-47539D02*
D03*
Y-39764D02*
D03*
X53543Y-41339D02*
D03*
X51181Y-36811D02*
D03*
X706693Y-14173D02*
D03*
X677264Y8268D02*
D03*
X34646Y-30315D02*
D03*
X40945D02*
D03*
X52165Y-16043D02*
D03*
X53642Y-18602D02*
D03*
X51181Y-20079D02*
D03*
X668504Y13386D02*
D03*
X68405Y-32874D02*
D03*
X53937Y-12500D02*
D03*
X109449Y-8268D02*
D03*
X138583Y7972D02*
D03*
X148425Y14075D02*
D03*
X279331Y-14173D02*
D03*
X53150Y-22146D02*
D03*
X51279Y-24803D02*
D03*
X53150Y-28543D02*
D03*
X288976Y-8268D02*
D03*
X318110Y8366D02*
D03*
X327953Y14173D02*
D03*
X53642Y-34941D02*
D03*
X458661Y-14075D02*
D03*
X468504Y-8169D02*
D03*
X497638Y8268D02*
D03*
X507382Y13878D02*
D03*
X638189Y-14075D02*
D03*
X648032Y-8268D02*
D03*
X41437Y-48819D02*
D03*
X687008Y14075D02*
D03*
X51083Y-53543D02*
D03*
X-35531Y-45079D02*
D03*
X-42028Y-43012D02*
D03*
Y-46358D02*
D03*
X-40354Y-59055D02*
D03*
X-19685Y-62008D02*
D03*
X-61023Y-55118D02*
D03*
X-58268D02*
D03*
X-55118Y-55118D02*
D03*
X-51575Y-33071D02*
D03*
Y-29921D02*
D03*
Y-37795D02*
D03*
X-54724Y-34646D02*
D03*
X-51575Y-16535D02*
D03*
X-109448Y8268D02*
D03*
X-99606Y14075D02*
D03*
X-51575Y-25984D02*
D03*
X-54068Y-27874D02*
D03*
X-138583Y-8268D02*
D03*
X-148425Y-13780D02*
D03*
X-288976Y8268D02*
D03*
X-279134Y14173D02*
D03*
X-54724Y-37795D02*
D03*
X-318110Y-8268D02*
D03*
X-327559Y-13780D02*
D03*
X-42520Y-49606D02*
D03*
X-458661Y14075D02*
D03*
X-468504Y8268D02*
D03*
X-51181Y-48425D02*
D03*
X-42520Y-53543D02*
D03*
X-507480Y-14173D02*
D03*
X-497638Y-8268D02*
D03*
X-51181Y-51575D02*
D03*
X-648032Y8268D02*
D03*
X-638189Y13780D02*
D03*
X-677165Y-8268D02*
D03*
X-687008Y-14173D02*
D03*
X14961Y-39764D02*
D03*
D55*
X707480Y-104331D02*
D03*
X712866Y-103381D02*
D03*
X717603Y-100646D02*
D03*
X721118Y-96457D02*
D03*
X722989Y-91317D02*
D03*
X722989Y-85848D02*
D03*
X721118Y-80709D02*
D03*
X717603Y-76519D02*
D03*
X712866Y-73784D02*
D03*
X707480Y-72835D02*
D03*
X702094Y-73784D02*
D03*
X697358Y-76519D02*
D03*
X693842Y-80709D02*
D03*
X691971Y-85848D02*
D03*
X691971Y-91317D02*
D03*
X693842Y-96457D02*
D03*
X697358Y-100646D02*
D03*
X702094Y-103381D02*
D03*
X617717Y-104331D02*
D03*
X623103Y-103381D02*
D03*
X627839Y-100646D02*
D03*
X631355Y-96457D02*
D03*
X633225Y-91317D02*
D03*
Y-85848D02*
D03*
X631355Y-80709D02*
D03*
X627839Y-76519D02*
D03*
X623103Y-73784D02*
D03*
X617717Y-72835D02*
D03*
X612330Y-73784D02*
D03*
X607594Y-76519D02*
D03*
X604078Y-80709D02*
D03*
X602208Y-85848D02*
D03*
X602208Y-91317D02*
D03*
X604078Y-96457D02*
D03*
X607594Y-100646D02*
D03*
X612330Y-103381D02*
D03*
X617717Y104331D02*
D03*
X612330Y103381D02*
D03*
X607594Y100646D02*
D03*
X604078Y96457D02*
D03*
X602208Y91317D02*
D03*
X602208Y85848D02*
D03*
X604078Y80709D02*
D03*
X607594Y76519D02*
D03*
X612330Y73784D02*
D03*
X617717Y72835D02*
D03*
X623103Y73784D02*
D03*
X627839Y76519D02*
D03*
X631355Y80709D02*
D03*
X633225Y85848D02*
D03*
X633225Y91317D02*
D03*
X631355Y96457D02*
D03*
X627839Y100646D02*
D03*
X623103Y103381D02*
D03*
X527953Y104331D02*
D03*
X522567Y103381D02*
D03*
X517830Y100646D02*
D03*
X514315Y96457D02*
D03*
X512444Y91317D02*
D03*
Y85848D02*
D03*
X514315Y80709D02*
D03*
X517830Y76519D02*
D03*
X522567Y73784D02*
D03*
X527953Y72835D02*
D03*
X533339Y73784D02*
D03*
X538075Y76519D02*
D03*
X541591Y80709D02*
D03*
X543462Y85848D02*
D03*
X543462Y91317D02*
D03*
X541591Y96457D02*
D03*
X538075Y100646D02*
D03*
X533339Y103381D02*
D03*
X527953Y-104331D02*
D03*
X533339Y-103381D02*
D03*
X538075Y-100646D02*
D03*
X541591Y-96457D02*
D03*
X543462Y-91317D02*
D03*
X543462Y-85848D02*
D03*
X541591Y-80709D02*
D03*
X538075Y-76519D02*
D03*
X533339Y-73784D02*
D03*
X527953Y-72835D02*
D03*
X522567Y-73784D02*
D03*
X517830Y-76519D02*
D03*
X514315Y-80709D02*
D03*
X512444Y-85848D02*
D03*
X512444Y-91317D02*
D03*
X514315Y-96457D02*
D03*
X517830Y-100646D02*
D03*
X522567Y-103381D02*
D03*
X438189Y-104331D02*
D03*
X443575Y-103381D02*
D03*
X448312Y-100646D02*
D03*
X451827Y-96457D02*
D03*
X453698Y-91317D02*
D03*
Y-85848D02*
D03*
X451827Y-80709D02*
D03*
X448312Y-76519D02*
D03*
X443575Y-73784D02*
D03*
X438189Y-72835D02*
D03*
X432803Y-73784D02*
D03*
X428066Y-76519D02*
D03*
X424551Y-80709D02*
D03*
X422680Y-85848D02*
D03*
X422680Y-91317D02*
D03*
X424551Y-96457D02*
D03*
X428066Y-100646D02*
D03*
X432803Y-103381D02*
D03*
X438189Y104331D02*
D03*
X432803Y103381D02*
D03*
X428066Y100646D02*
D03*
X424551Y96457D02*
D03*
X422680Y91317D02*
D03*
X422680Y85848D02*
D03*
X424551Y80709D02*
D03*
X428066Y76519D02*
D03*
X432803Y73784D02*
D03*
X438189Y72835D02*
D03*
X443575Y73784D02*
D03*
X448312Y76519D02*
D03*
X451827Y80709D02*
D03*
X453698Y85848D02*
D03*
X453698Y91317D02*
D03*
X451827Y96457D02*
D03*
X448312Y100646D02*
D03*
X443575Y103381D02*
D03*
X348425Y104331D02*
D03*
X343039Y103381D02*
D03*
X338303Y100646D02*
D03*
X334787Y96457D02*
D03*
X332916Y91317D02*
D03*
Y85848D02*
D03*
X334787Y80709D02*
D03*
X338303Y76519D02*
D03*
X343039Y73784D02*
D03*
X348425Y72835D02*
D03*
X353811Y73784D02*
D03*
X358548Y76519D02*
D03*
X362063Y80709D02*
D03*
X363934Y85848D02*
D03*
X363934Y91317D02*
D03*
X362063Y96457D02*
D03*
X358548Y100646D02*
D03*
X353811Y103381D02*
D03*
X348425Y-104331D02*
D03*
X353811Y-103381D02*
D03*
X358548Y-100646D02*
D03*
X362063Y-96457D02*
D03*
X363934Y-91317D02*
D03*
X363934Y-85848D02*
D03*
X362063Y-80709D02*
D03*
X358548Y-76519D02*
D03*
X353811Y-73784D02*
D03*
X348425Y-72835D02*
D03*
X343039Y-73784D02*
D03*
X338302Y-76519D02*
D03*
X334787Y-80709D02*
D03*
X332916Y-85848D02*
D03*
X332916Y-91317D02*
D03*
X334787Y-96457D02*
D03*
X338303Y-100646D02*
D03*
X343039Y-103381D02*
D03*
X258661Y-104331D02*
D03*
X264048Y-103381D02*
D03*
X268784Y-100646D02*
D03*
X272300Y-96457D02*
D03*
X274170Y-91317D02*
D03*
Y-85848D02*
D03*
X272300Y-80709D02*
D03*
X268784Y-76519D02*
D03*
X264048Y-73784D02*
D03*
X258661Y-72835D02*
D03*
X253275Y-73784D02*
D03*
X248539Y-76519D02*
D03*
X245023Y-80709D02*
D03*
X243153Y-85848D02*
D03*
X243153Y-91317D02*
D03*
X245023Y-96457D02*
D03*
X248539Y-100646D02*
D03*
X253275Y-103381D02*
D03*
X258661Y104331D02*
D03*
X253275Y103381D02*
D03*
X248539Y100646D02*
D03*
X245023Y96457D02*
D03*
X243153Y91317D02*
D03*
X243153Y85848D02*
D03*
X245023Y80709D02*
D03*
X248539Y76519D02*
D03*
X253275Y73784D02*
D03*
X258661Y72835D02*
D03*
X264048Y73784D02*
D03*
X268784Y76519D02*
D03*
X272300Y80709D02*
D03*
X274170Y85848D02*
D03*
X274170Y91317D02*
D03*
X272300Y96457D02*
D03*
X268784Y100646D02*
D03*
X264048Y103381D02*
D03*
X168898Y104331D02*
D03*
X163512Y103381D02*
D03*
X158775Y100646D02*
D03*
X155259Y96457D02*
D03*
X153389Y91317D02*
D03*
Y85848D02*
D03*
X155259Y80709D02*
D03*
X158775Y76519D02*
D03*
X163512Y73784D02*
D03*
X168898Y72835D02*
D03*
X174284Y73784D02*
D03*
X179020Y76519D02*
D03*
X182536Y80709D02*
D03*
X184406Y85848D02*
D03*
X184406Y91317D02*
D03*
X182536Y96457D02*
D03*
X179020Y100646D02*
D03*
X174284Y103381D02*
D03*
X168898Y-104331D02*
D03*
X174284Y-103381D02*
D03*
X179020Y-100646D02*
D03*
X182536Y-96457D02*
D03*
X184406Y-91317D02*
D03*
X184406Y-85848D02*
D03*
X182536Y-80709D02*
D03*
X179020Y-76519D02*
D03*
X174284Y-73784D02*
D03*
X168898Y-72835D02*
D03*
X163512Y-73784D02*
D03*
X158775Y-76519D02*
D03*
X155259Y-80709D02*
D03*
X153389Y-85848D02*
D03*
X153389Y-91317D02*
D03*
X155259Y-96457D02*
D03*
X158775Y-100646D02*
D03*
X163512Y-103381D02*
D03*
X79134Y-104331D02*
D03*
X84520Y-103381D02*
D03*
X89257Y-100646D02*
D03*
X92772Y-96457D02*
D03*
X94643Y-91317D02*
D03*
Y-85848D02*
D03*
X92772Y-80709D02*
D03*
X89257Y-76519D02*
D03*
X84520Y-73784D02*
D03*
X79134Y-72835D02*
D03*
X73748Y-73784D02*
D03*
X69011Y-76519D02*
D03*
X65496Y-80709D02*
D03*
X63625Y-85848D02*
D03*
X63625Y-91317D02*
D03*
X65496Y-96457D02*
D03*
X69011Y-100646D02*
D03*
X73748Y-103381D02*
D03*
X79134Y104331D02*
D03*
X73748Y103381D02*
D03*
X69011Y100646D02*
D03*
X65496Y96457D02*
D03*
X63625Y91317D02*
D03*
X63625Y85848D02*
D03*
X65496Y80709D02*
D03*
X69011Y76519D02*
D03*
X73748Y73784D02*
D03*
X79134Y72835D02*
D03*
X84520Y73784D02*
D03*
X89257Y76519D02*
D03*
X92772Y80709D02*
D03*
X94643Y85848D02*
D03*
X94643Y91317D02*
D03*
X92772Y96457D02*
D03*
X89257Y100646D02*
D03*
X84520Y103381D02*
D03*
X-79134Y104331D02*
D03*
X-84520Y103381D02*
D03*
X-89257Y100646D02*
D03*
X-92772Y96457D02*
D03*
X-94643Y91317D02*
D03*
Y85848D02*
D03*
X-92772Y80709D02*
D03*
X-89257Y76519D02*
D03*
X-84520Y73784D02*
D03*
X-79134Y72835D02*
D03*
X-73748Y73784D02*
D03*
X-69011Y76519D02*
D03*
X-65496Y80709D02*
D03*
X-63625Y85848D02*
D03*
X-63625Y91317D02*
D03*
X-65496Y96457D02*
D03*
X-69011Y100646D02*
D03*
X-73748Y103381D02*
D03*
X-79134Y-104331D02*
D03*
X-73748Y-103381D02*
D03*
X-69011Y-100646D02*
D03*
X-65496Y-96457D02*
D03*
X-63625Y-91317D02*
D03*
X-63625Y-85848D02*
D03*
X-65496Y-80709D02*
D03*
X-69011Y-76519D02*
D03*
X-73748Y-73784D02*
D03*
X-79134Y-72835D02*
D03*
X-84520Y-73784D02*
D03*
X-89257Y-76519D02*
D03*
X-92772Y-80709D02*
D03*
X-94643Y-85848D02*
D03*
X-94643Y-91317D02*
D03*
X-92772Y-96457D02*
D03*
X-89257Y-100646D02*
D03*
X-84520Y-103381D02*
D03*
X-168898Y-104331D02*
D03*
X-163512Y-103381D02*
D03*
X-158775Y-100646D02*
D03*
X-155259Y-96457D02*
D03*
X-153389Y-91317D02*
D03*
Y-85848D02*
D03*
X-155259Y-80709D02*
D03*
X-158775Y-76519D02*
D03*
X-163512Y-73784D02*
D03*
X-168898Y-72835D02*
D03*
X-174284Y-73784D02*
D03*
X-179020Y-76519D02*
D03*
X-182536Y-80709D02*
D03*
X-184406Y-85848D02*
D03*
X-184406Y-91317D02*
D03*
X-182536Y-96457D02*
D03*
X-179020Y-100646D02*
D03*
X-174284Y-103381D02*
D03*
X-168898Y104331D02*
D03*
X-174284Y103381D02*
D03*
X-179020Y100646D02*
D03*
X-182536Y96457D02*
D03*
X-184406Y91317D02*
D03*
X-184406Y85848D02*
D03*
X-182536Y80709D02*
D03*
X-179020Y76519D02*
D03*
X-174284Y73784D02*
D03*
X-168898Y72835D02*
D03*
X-163512Y73784D02*
D03*
X-158775Y76519D02*
D03*
X-155259Y80709D02*
D03*
X-153389Y85848D02*
D03*
X-153389Y91317D02*
D03*
X-155259Y96457D02*
D03*
X-158775Y100646D02*
D03*
X-163512Y103381D02*
D03*
X-258661Y104331D02*
D03*
X-264048Y103381D02*
D03*
X-268784Y100646D02*
D03*
X-272300Y96457D02*
D03*
X-274170Y91317D02*
D03*
Y85848D02*
D03*
X-272300Y80709D02*
D03*
X-268784Y76519D02*
D03*
X-264048Y73784D02*
D03*
X-258661Y72835D02*
D03*
X-253275Y73784D02*
D03*
X-248539Y76519D02*
D03*
X-245023Y80709D02*
D03*
X-243153Y85848D02*
D03*
X-243153Y91317D02*
D03*
X-245023Y96457D02*
D03*
X-248539Y100646D02*
D03*
X-253275Y103381D02*
D03*
X-258661Y-104331D02*
D03*
X-253275Y-103381D02*
D03*
X-248539Y-100646D02*
D03*
X-245023Y-96457D02*
D03*
X-243153Y-91317D02*
D03*
X-243153Y-85848D02*
D03*
X-245023Y-80709D02*
D03*
X-248539Y-76519D02*
D03*
X-253275Y-73784D02*
D03*
X-258661Y-72835D02*
D03*
X-264048Y-73784D02*
D03*
X-268784Y-76519D02*
D03*
X-272300Y-80709D02*
D03*
X-274170Y-85848D02*
D03*
X-274170Y-91317D02*
D03*
X-272300Y-96457D02*
D03*
X-268784Y-100646D02*
D03*
X-264048Y-103381D02*
D03*
X-348425Y-104331D02*
D03*
X-343039Y-103381D02*
D03*
X-338303Y-100646D02*
D03*
X-334787Y-96457D02*
D03*
X-332916Y-91317D02*
D03*
Y-85848D02*
D03*
X-334787Y-80709D02*
D03*
X-338303Y-76519D02*
D03*
X-343039Y-73784D02*
D03*
X-348425Y-72835D02*
D03*
X-353811Y-73784D02*
D03*
X-358548Y-76519D02*
D03*
X-362063Y-80709D02*
D03*
X-363934Y-85848D02*
D03*
X-363934Y-91317D02*
D03*
X-362063Y-96457D02*
D03*
X-358548Y-100646D02*
D03*
X-353811Y-103381D02*
D03*
X-348425Y104331D02*
D03*
X-353811Y103381D02*
D03*
X-358548Y100646D02*
D03*
X-362063Y96457D02*
D03*
X-363934Y91317D02*
D03*
X-363934Y85848D02*
D03*
X-362063Y80709D02*
D03*
X-358548Y76519D02*
D03*
X-353811Y73784D02*
D03*
X-348425Y72835D02*
D03*
X-343039Y73784D02*
D03*
X-338303Y76519D02*
D03*
X-334787Y80709D02*
D03*
X-332916Y85848D02*
D03*
X-332916Y91317D02*
D03*
X-334787Y96457D02*
D03*
X-338303Y100646D02*
D03*
X-343039Y103381D02*
D03*
X-438189Y104331D02*
D03*
X-443575Y103381D02*
D03*
X-448312Y100646D02*
D03*
X-451827Y96457D02*
D03*
X-453698Y91317D02*
D03*
Y85848D02*
D03*
X-451827Y80709D02*
D03*
X-448312Y76519D02*
D03*
X-443575Y73784D02*
D03*
X-438189Y72835D02*
D03*
X-432803Y73784D02*
D03*
X-428066Y76519D02*
D03*
X-424551Y80709D02*
D03*
X-422680Y85848D02*
D03*
X-422680Y91317D02*
D03*
X-424551Y96457D02*
D03*
X-428066Y100646D02*
D03*
X-432803Y103381D02*
D03*
X-438189Y-104331D02*
D03*
X-432803Y-103381D02*
D03*
X-428066Y-100646D02*
D03*
X-424551Y-96457D02*
D03*
X-422680Y-91317D02*
D03*
X-422680Y-85848D02*
D03*
X-424551Y-80709D02*
D03*
X-428066Y-76519D02*
D03*
X-432803Y-73784D02*
D03*
X-438189Y-72835D02*
D03*
X-443575Y-73784D02*
D03*
X-448312Y-76519D02*
D03*
X-451827Y-80709D02*
D03*
X-453698Y-85848D02*
D03*
X-453698Y-91317D02*
D03*
X-451827Y-96457D02*
D03*
X-448312Y-100646D02*
D03*
X-443575Y-103381D02*
D03*
X-527953Y-104331D02*
D03*
X-522567Y-103381D02*
D03*
X-517830Y-100646D02*
D03*
X-514315Y-96457D02*
D03*
X-512444Y-91317D02*
D03*
Y-85848D02*
D03*
X-514315Y-80709D02*
D03*
X-517830Y-76519D02*
D03*
X-522567Y-73784D02*
D03*
X-527953Y-72835D02*
D03*
X-533339Y-73784D02*
D03*
X-538075Y-76519D02*
D03*
X-541591Y-80709D02*
D03*
X-543462Y-85848D02*
D03*
X-543462Y-91317D02*
D03*
X-541591Y-96457D02*
D03*
X-538075Y-100646D02*
D03*
X-533339Y-103381D02*
D03*
X-527953Y104331D02*
D03*
X-533339Y103381D02*
D03*
X-538075Y100646D02*
D03*
X-541591Y96457D02*
D03*
X-543462Y91317D02*
D03*
X-543462Y85848D02*
D03*
X-541591Y80709D02*
D03*
X-538075Y76519D02*
D03*
X-533339Y73784D02*
D03*
X-527953Y72835D02*
D03*
X-522567Y73784D02*
D03*
X-517830Y76519D02*
D03*
X-514315Y80709D02*
D03*
X-512444Y85848D02*
D03*
X-512444Y91317D02*
D03*
X-514315Y96457D02*
D03*
X-517830Y100646D02*
D03*
X-522567Y103381D02*
D03*
X-617717Y104331D02*
D03*
X-623103Y103381D02*
D03*
X-627839Y100646D02*
D03*
X-631355Y96457D02*
D03*
X-633225Y91317D02*
D03*
Y85848D02*
D03*
X-631355Y80709D02*
D03*
X-627839Y76519D02*
D03*
X-623103Y73784D02*
D03*
X-617717Y72835D02*
D03*
X-612330Y73784D02*
D03*
X-607594Y76519D02*
D03*
X-604078Y80709D02*
D03*
X-602208Y85848D02*
D03*
X-602208Y91317D02*
D03*
X-604078Y96457D02*
D03*
X-607594Y100646D02*
D03*
X-612330Y103381D02*
D03*
X-617717Y-104331D02*
D03*
X-612330Y-103381D02*
D03*
X-607594Y-100646D02*
D03*
X-604078Y-96457D02*
D03*
X-602208Y-91317D02*
D03*
X-602208Y-85848D02*
D03*
X-604078Y-80709D02*
D03*
X-607594Y-76519D02*
D03*
X-612330Y-73784D02*
D03*
X-617717Y-72835D02*
D03*
X-623103Y-73784D02*
D03*
X-627839Y-76519D02*
D03*
X-631355Y-80709D02*
D03*
X-633225Y-85848D02*
D03*
X-633225Y-91317D02*
D03*
X-631355Y-96457D02*
D03*
X-627839Y-100646D02*
D03*
X-623103Y-103381D02*
D03*
X-707480Y-104331D02*
D03*
X-702094Y-103381D02*
D03*
X-697358Y-100646D02*
D03*
X-693842Y-96457D02*
D03*
X-691971Y-91317D02*
D03*
Y-85848D02*
D03*
X-693842Y-80709D02*
D03*
X-697358Y-76519D02*
D03*
X-702094Y-73784D02*
D03*
X-707480Y-72835D02*
D03*
X-712866Y-73784D02*
D03*
X-717603Y-76519D02*
D03*
X-721118Y-80709D02*
D03*
X-722989Y-85848D02*
D03*
X-722989Y-91317D02*
D03*
X-721118Y-96457D02*
D03*
X-717603Y-100646D02*
D03*
X-712866Y-103381D02*
D03*
D56*
X707480Y-88583D02*
D03*
X617717Y88583D02*
D03*
X527953Y-88583D02*
D03*
X438189Y88583D02*
D03*
X348425Y-88583D02*
D03*
X258661Y88583D02*
D03*
X168898Y-88583D02*
D03*
X79134Y88583D02*
D03*
X-79134Y-88583D02*
D03*
X-168898Y88583D02*
D03*
X-258661Y-88583D02*
D03*
X-348425Y88583D02*
D03*
X-438189Y-88583D02*
D03*
X-527953Y88583D02*
D03*
X-617717Y-88583D02*
D03*
X-707480Y88583D02*
D03*
D57*
X707480Y88583D02*
D03*
X617717Y-88583D02*
D03*
X527953Y88583D02*
D03*
X438189Y-88583D02*
D03*
X348425Y88583D02*
D03*
X258661Y-88583D02*
D03*
X168898Y88583D02*
D03*
X79134Y-88583D02*
D03*
X-79134Y88583D02*
D03*
X-168898Y-88583D02*
D03*
X-258661Y88583D02*
D03*
X-348425Y-88583D02*
D03*
X-438189Y88583D02*
D03*
X-527953Y-88583D02*
D03*
X-617717Y88583D02*
D03*
X-707480Y-88583D02*
D03*
M02*
