G04*
G04 #@! TF.GenerationSoftware,Altium Limited,Altium Designer,19.0.14 (431)*
G04*
G04 Layer_Color=8421504*
%FSLAX25Y25*%
%MOIN*%
G70*
G01*
G75*
%ADD16R,0.01100X0.05500*%
%ADD17R,0.05000X0.10000*%
%ADD18R,0.13504X0.06496*%
%ADD19O,0.02362X0.06299*%
%ADD20R,0.03150X0.02953*%
%ADD21R,0.02953X0.03150*%
%ADD22R,0.05512X0.05512*%
%ADD23R,0.04331X0.05315*%
%ADD24R,0.07992X0.05984*%
%ADD25R,0.01968X0.03543*%
%ADD26R,0.02362X0.03937*%
%ADD27O,0.04921X0.00984*%
G04:AMPARAMS|DCode=28|XSize=39.37mil|YSize=39.37mil|CornerRadius=3.94mil|HoleSize=0mil|Usage=FLASHONLY|Rotation=90.000|XOffset=0mil|YOffset=0mil|HoleType=Round|Shape=RoundedRectangle|*
%AMROUNDEDRECTD28*
21,1,0.03937,0.03150,0,0,90.0*
21,1,0.03150,0.03937,0,0,90.0*
1,1,0.00787,0.01575,0.01575*
1,1,0.00787,0.01575,-0.01575*
1,1,0.00787,-0.01575,-0.01575*
1,1,0.00787,-0.01575,0.01575*
%
%ADD28ROUNDEDRECTD28*%
D16*
X14759Y-6632D02*
D03*
X16728D02*
D03*
X18699D02*
D03*
X20669D02*
D03*
X22638D02*
D03*
X24609D02*
D03*
X26579D02*
D03*
X28548D02*
D03*
Y10569D02*
D03*
X26579D02*
D03*
X24609D02*
D03*
X22638D02*
D03*
X20669D02*
D03*
X18699D02*
D03*
X16728D02*
D03*
X14759D02*
D03*
X-24611Y-6632D02*
D03*
X-22641D02*
D03*
X-20672D02*
D03*
X-18701D02*
D03*
X-16732D02*
D03*
X-14762D02*
D03*
X-12791D02*
D03*
X-10821D02*
D03*
Y10569D02*
D03*
X-12791D02*
D03*
X-14762D02*
D03*
X-16732D02*
D03*
X-18701D02*
D03*
X-20672D02*
D03*
X-22641D02*
D03*
X-24611D02*
D03*
D17*
X17717Y82953D02*
D03*
X5906D02*
D03*
X-5906D02*
D03*
X-17717D02*
D03*
D18*
X-33032Y96457D02*
D03*
X33032D02*
D03*
D19*
X26496Y46260D02*
D03*
X36496D02*
D03*
X26496Y71850D02*
D03*
X36496D02*
D03*
X-36496Y46260D02*
D03*
X-26496D02*
D03*
X-36496Y71850D02*
D03*
X-26496D02*
D03*
D20*
X30512Y39370D02*
D03*
X36417D02*
D03*
X30512Y34449D02*
D03*
X36417D02*
D03*
X9646Y18504D02*
D03*
X3740D02*
D03*
X9646Y28937D02*
D03*
X3740D02*
D03*
Y23622D02*
D03*
X9646D02*
D03*
X-36417Y39370D02*
D03*
X-30512D02*
D03*
X-26181Y80087D02*
D03*
X-32087D02*
D03*
X-36417Y34449D02*
D03*
X-30512D02*
D03*
X-9646Y28937D02*
D03*
X-3740D02*
D03*
X-9646Y18504D02*
D03*
X-3740D02*
D03*
Y23622D02*
D03*
X-9646D02*
D03*
X40157Y29134D02*
D03*
X46063D02*
D03*
Y18110D02*
D03*
X40157D02*
D03*
X46063Y23622D02*
D03*
X40157D02*
D03*
X67815Y-48031D02*
D03*
X61910D02*
D03*
X606398D02*
D03*
X600492D02*
D03*
X247342D02*
D03*
X241437D02*
D03*
X426870D02*
D03*
X420965D02*
D03*
X539272Y48031D02*
D03*
X545177D02*
D03*
X359744D02*
D03*
X365650D02*
D03*
X180217D02*
D03*
X186122D02*
D03*
X718799D02*
D03*
X724705D02*
D03*
X-247342D02*
D03*
X-241437D02*
D03*
X-426870D02*
D03*
X-420965D02*
D03*
X-67815D02*
D03*
X-61910D02*
D03*
X-180217Y-48031D02*
D03*
X-186122D02*
D03*
X-359744D02*
D03*
X-365650D02*
D03*
X-539272D02*
D03*
X-545177D02*
D03*
X-606398Y48031D02*
D03*
X-600492D02*
D03*
X-718799Y-48031D02*
D03*
X-724705D02*
D03*
X-44291Y17717D02*
D03*
X-38386D02*
D03*
X-44291Y29528D02*
D03*
X-38386D02*
D03*
X4528Y-38189D02*
D03*
X10433D02*
D03*
X-4921Y-29134D02*
D03*
X-10827D02*
D03*
X4528Y-29528D02*
D03*
X10433D02*
D03*
X-4921Y-38189D02*
D03*
X-10827D02*
D03*
X4528Y-33858D02*
D03*
X10433D02*
D03*
X-4921Y-33740D02*
D03*
X-10827D02*
D03*
X-38386Y23622D02*
D03*
X-44291D02*
D03*
D21*
X35433Y79724D02*
D03*
Y85630D02*
D03*
X-45276Y-984D02*
D03*
Y-6890D02*
D03*
X35512Y-6891D02*
D03*
Y-985D02*
D03*
X40536D02*
D03*
Y-6891D02*
D03*
X-36969D02*
D03*
Y-985D02*
D03*
X-32133Y-984D02*
D03*
Y-6890D02*
D03*
X-7480Y-63189D02*
D03*
Y-57284D02*
D03*
X114370Y-14173D02*
D03*
Y-8268D02*
D03*
X99606Y-14173D02*
D03*
Y-8268D02*
D03*
X109449Y-8268D02*
D03*
Y-14174D02*
D03*
X104528Y-14173D02*
D03*
Y-8268D02*
D03*
X652953Y-14173D02*
D03*
Y-8268D02*
D03*
X638189Y-14173D02*
D03*
Y-8268D02*
D03*
X648032Y-8268D02*
D03*
Y-14174D02*
D03*
X643110Y-14173D02*
D03*
Y-8268D02*
D03*
X293898Y-14173D02*
D03*
Y-8268D02*
D03*
X279134Y-14173D02*
D03*
Y-8268D02*
D03*
X288976Y-8268D02*
D03*
Y-14174D02*
D03*
X284055Y-14173D02*
D03*
Y-8268D02*
D03*
X473425Y-14173D02*
D03*
Y-8268D02*
D03*
X458661Y-14173D02*
D03*
Y-8268D02*
D03*
X468504Y-8268D02*
D03*
Y-14174D02*
D03*
X463583Y-14173D02*
D03*
Y-8268D02*
D03*
X492717Y14173D02*
D03*
Y8268D02*
D03*
X507480Y14173D02*
D03*
Y8268D02*
D03*
X497638Y8268D02*
D03*
Y14174D02*
D03*
X502559Y14173D02*
D03*
Y8268D02*
D03*
X313189Y14173D02*
D03*
Y8268D02*
D03*
X327953Y14173D02*
D03*
Y8268D02*
D03*
X318110Y8268D02*
D03*
Y14174D02*
D03*
X323031Y14173D02*
D03*
Y8268D02*
D03*
X133661Y14173D02*
D03*
Y8268D02*
D03*
X148425Y14173D02*
D03*
Y8268D02*
D03*
X138583Y8268D02*
D03*
Y14174D02*
D03*
X143504Y14173D02*
D03*
Y8268D02*
D03*
X672244Y14173D02*
D03*
Y8268D02*
D03*
X687008Y14173D02*
D03*
Y8268D02*
D03*
X677165Y8268D02*
D03*
Y14174D02*
D03*
X682087Y14173D02*
D03*
Y8268D02*
D03*
X-293898Y14173D02*
D03*
Y8268D02*
D03*
X-279134Y14173D02*
D03*
Y8268D02*
D03*
X-288976Y8268D02*
D03*
Y14174D02*
D03*
X-284055Y14173D02*
D03*
Y8268D02*
D03*
X-473425Y14173D02*
D03*
Y8268D02*
D03*
X-458661Y14173D02*
D03*
Y8268D02*
D03*
X-468504Y8268D02*
D03*
Y14174D02*
D03*
X-463583Y14173D02*
D03*
Y8268D02*
D03*
X-114370Y14173D02*
D03*
Y8268D02*
D03*
X-99606Y14173D02*
D03*
Y8268D02*
D03*
X-109449Y8268D02*
D03*
Y14174D02*
D03*
X-104528Y14173D02*
D03*
Y8268D02*
D03*
X-133661Y-14173D02*
D03*
Y-8268D02*
D03*
X-148425Y-14173D02*
D03*
Y-8268D02*
D03*
X-138583Y-8268D02*
D03*
Y-14174D02*
D03*
X-143504Y-14173D02*
D03*
Y-8268D02*
D03*
X-313189Y-14173D02*
D03*
Y-8268D02*
D03*
X-327953Y-14173D02*
D03*
Y-8268D02*
D03*
X-318110Y-8268D02*
D03*
Y-14174D02*
D03*
X-323031Y-14173D02*
D03*
Y-8268D02*
D03*
X-492717Y-14173D02*
D03*
Y-8268D02*
D03*
X-507480Y-14173D02*
D03*
Y-8268D02*
D03*
X-497638Y-8268D02*
D03*
Y-14174D02*
D03*
X-502559Y-14173D02*
D03*
Y-8268D02*
D03*
X-643110Y8268D02*
D03*
Y14173D02*
D03*
X-682087Y-8268D02*
D03*
Y-14173D02*
D03*
X-648032Y14174D02*
D03*
Y8268D02*
D03*
X-677165Y-14174D02*
D03*
Y-8268D02*
D03*
X1654Y-17953D02*
D03*
Y-12047D02*
D03*
X5118Y-43110D02*
D03*
Y-49016D02*
D03*
X-5512Y-49213D02*
D03*
Y-43307D02*
D03*
X-638189Y14173D02*
D03*
Y8268D02*
D03*
X-687008Y-14173D02*
D03*
Y-8268D02*
D03*
X10236Y-49016D02*
D03*
Y-43110D02*
D03*
X-10630D02*
D03*
Y-49016D02*
D03*
X-652953Y8268D02*
D03*
Y14173D02*
D03*
X-672244Y-8268D02*
D03*
Y-14173D02*
D03*
X7126Y-11969D02*
D03*
Y-17874D02*
D03*
X-12205Y-63189D02*
D03*
Y-57284D02*
D03*
D22*
X6811Y36909D02*
D03*
X16811D02*
D03*
X6811Y69390D02*
D03*
X16811D02*
D03*
X-16811Y36909D02*
D03*
X-6811D02*
D03*
X-16811Y69390D02*
D03*
X-6811D02*
D03*
D23*
X32874Y28051D02*
D03*
X16732D02*
D03*
Y19193D02*
D03*
X32874D02*
D03*
X-32874D02*
D03*
X-16732D02*
D03*
Y28051D02*
D03*
X-32874D02*
D03*
D24*
X707480Y37421D02*
D03*
Y49390D02*
D03*
X617717Y-37421D02*
D03*
Y-49390D02*
D03*
X527953Y37421D02*
D03*
Y49390D02*
D03*
X438189Y-37421D02*
D03*
Y-49390D02*
D03*
X348425Y37421D02*
D03*
Y49390D02*
D03*
X258661Y-37421D02*
D03*
Y-49390D02*
D03*
X168898Y37421D02*
D03*
Y49390D02*
D03*
X79134Y-37421D02*
D03*
Y-49390D02*
D03*
X-79134Y37421D02*
D03*
Y49390D02*
D03*
X-168898Y-37421D02*
D03*
Y-49390D02*
D03*
X-258661Y37421D02*
D03*
Y49390D02*
D03*
X-348425Y-37421D02*
D03*
Y-49390D02*
D03*
X-438189Y37421D02*
D03*
Y49390D02*
D03*
X-527953Y-37421D02*
D03*
Y-49390D02*
D03*
X-617717Y37421D02*
D03*
Y49390D02*
D03*
X-707480Y-37421D02*
D03*
Y-49390D02*
D03*
D25*
X8859Y4921D02*
D03*
X2953D02*
D03*
X2953Y10827D02*
D03*
X8858D02*
D03*
X-36417Y4921D02*
D03*
X-30512D02*
D03*
X-30512Y10569D02*
D03*
X-36417D02*
D03*
D26*
X718209Y32972D02*
D03*
X725689D02*
D03*
X721949Y42421D02*
D03*
X606988Y-32972D02*
D03*
X599508D02*
D03*
X603248Y-42421D02*
D03*
X538681Y32972D02*
D03*
X546161D02*
D03*
X542421Y42421D02*
D03*
X427461Y-32972D02*
D03*
X419980D02*
D03*
X423721Y-42421D02*
D03*
X359154Y32972D02*
D03*
X366634D02*
D03*
X362894Y42421D02*
D03*
X247933Y-32972D02*
D03*
X240453D02*
D03*
X244193Y-42421D02*
D03*
X179626Y32972D02*
D03*
X187106D02*
D03*
X183366Y42421D02*
D03*
X68405Y-32972D02*
D03*
X60925D02*
D03*
X64665Y-42421D02*
D03*
X-68405Y32972D02*
D03*
X-60925D02*
D03*
X-64665Y42421D02*
D03*
X-179626Y-32972D02*
D03*
X-187106D02*
D03*
X-183366Y-42421D02*
D03*
X-247933Y32972D02*
D03*
X-240453D02*
D03*
X-244193Y42421D02*
D03*
X-359154Y-32972D02*
D03*
X-366634D02*
D03*
X-362894Y-42421D02*
D03*
X-427461Y32972D02*
D03*
X-419980D02*
D03*
X-423721Y42421D02*
D03*
X-538681Y-32972D02*
D03*
X-546161D02*
D03*
X-542421Y-42421D02*
D03*
X-606988Y32972D02*
D03*
X-599508D02*
D03*
X-603248Y42421D02*
D03*
X-718209Y-32972D02*
D03*
X-725689D02*
D03*
X-721949Y-42421D02*
D03*
D27*
X46457Y-59449D02*
D03*
Y-57480D02*
D03*
Y-55512D02*
D03*
Y-53543D02*
D03*
Y-51575D02*
D03*
Y-49606D02*
D03*
Y-47638D02*
D03*
Y-45669D02*
D03*
Y-43701D02*
D03*
Y-41732D02*
D03*
Y-39764D02*
D03*
Y-37795D02*
D03*
Y-35827D02*
D03*
Y-33858D02*
D03*
Y-31890D02*
D03*
Y-29921D02*
D03*
Y-27953D02*
D03*
Y-25984D02*
D03*
Y-24016D02*
D03*
Y-22047D02*
D03*
Y-20079D02*
D03*
Y-18110D02*
D03*
Y-16142D02*
D03*
Y-14173D02*
D03*
X18898Y-59449D02*
D03*
Y-57480D02*
D03*
Y-55512D02*
D03*
Y-53543D02*
D03*
Y-51575D02*
D03*
Y-49606D02*
D03*
Y-47638D02*
D03*
Y-45669D02*
D03*
Y-43701D02*
D03*
Y-41732D02*
D03*
Y-39764D02*
D03*
Y-37795D02*
D03*
Y-35827D02*
D03*
Y-33858D02*
D03*
Y-31890D02*
D03*
Y-29921D02*
D03*
Y-27953D02*
D03*
Y-25984D02*
D03*
Y-24016D02*
D03*
Y-22047D02*
D03*
Y-20079D02*
D03*
Y-18110D02*
D03*
Y-16142D02*
D03*
Y-14173D02*
D03*
X-46850Y-14173D02*
D03*
Y-16142D02*
D03*
Y-18110D02*
D03*
Y-20079D02*
D03*
Y-22047D02*
D03*
Y-24016D02*
D03*
Y-25984D02*
D03*
Y-27953D02*
D03*
Y-29921D02*
D03*
Y-31890D02*
D03*
Y-33858D02*
D03*
Y-35827D02*
D03*
Y-37795D02*
D03*
Y-39764D02*
D03*
Y-41732D02*
D03*
Y-43701D02*
D03*
Y-45669D02*
D03*
Y-47638D02*
D03*
Y-49606D02*
D03*
Y-51575D02*
D03*
Y-53543D02*
D03*
Y-55512D02*
D03*
Y-57480D02*
D03*
Y-59449D02*
D03*
X-19291Y-14173D02*
D03*
Y-16142D02*
D03*
Y-18110D02*
D03*
Y-20079D02*
D03*
Y-22047D02*
D03*
Y-24016D02*
D03*
Y-25984D02*
D03*
Y-27953D02*
D03*
Y-29921D02*
D03*
Y-31890D02*
D03*
Y-33858D02*
D03*
Y-35827D02*
D03*
Y-37795D02*
D03*
Y-39764D02*
D03*
Y-41732D02*
D03*
Y-43701D02*
D03*
Y-45669D02*
D03*
Y-47638D02*
D03*
Y-49606D02*
D03*
Y-51575D02*
D03*
Y-53543D02*
D03*
Y-55512D02*
D03*
Y-57480D02*
D03*
Y-59449D02*
D03*
D28*
X14764Y-87598D02*
D03*
Y-97835D02*
D03*
Y-92716D02*
D03*
X-14764Y-87598D02*
D03*
Y-97835D02*
D03*
Y-92716D02*
D03*
X21457Y-87598D02*
D03*
Y-97835D02*
D03*
Y-92716D02*
D03*
X-21457Y-87598D02*
D03*
Y-97835D02*
D03*
Y-92716D02*
D03*
X28150Y-87598D02*
D03*
Y-97835D02*
D03*
Y-92716D02*
D03*
X-28150Y-87598D02*
D03*
Y-97835D02*
D03*
Y-92716D02*
D03*
X34843Y-87598D02*
D03*
Y-97835D02*
D03*
Y-92716D02*
D03*
X-34843Y-87598D02*
D03*
Y-97835D02*
D03*
Y-92716D02*
D03*
M02*
