G04*
G04 #@! TF.GenerationSoftware,Altium Limited,Altium Designer,19.0.15 (446)*
G04*
G04 Layer_Physical_Order=1*
G04 Layer_Color=255*
%FSLAX25Y25*%
%MOIN*%
G70*
G01*
G75*
%ADD12C,0.00600*%
%ADD42R,0.03150X0.02953*%
%ADD43R,0.05512X0.05512*%
%ADD44R,0.04331X0.05315*%
%ADD45R,0.10000X0.05000*%
%ADD46R,0.06496X0.13504*%
%ADD47R,0.05500X0.01100*%
%ADD48R,0.02953X0.03150*%
%ADD49R,0.06102X0.02362*%
%ADD50R,0.08661X0.04724*%
%ADD51R,0.30000X0.25000*%
%ADD52R,0.03543X0.02756*%
%ADD53R,0.15748X0.23622*%
%ADD54O,0.08268X0.01181*%
%ADD55O,0.01181X0.08268*%
%ADD56R,0.02756X0.03543*%
%ADD57R,0.05000X0.10000*%
%ADD58R,0.13504X0.06496*%
%ADD59C,0.01000*%
%ADD60C,0.03543*%
%ADD61C,0.05906*%
%ADD62C,0.03838*%
%ADD63C,0.31496*%
%ADD64C,0.01968*%
%ADD65C,0.02362*%
D12*
X-150591Y0D02*
Y5512D01*
X-159200Y8516D02*
Y8610D01*
X-183465Y32874D02*
X-159200Y8610D01*
X-164961Y101181D02*
Y107283D01*
Y100197D02*
Y101181D01*
X-148425D01*
X-139764Y92520D01*
X-133071D01*
X-125197Y84646D01*
X-81496Y85039D02*
X-78347Y88189D01*
X-90551Y85039D02*
X-81496D01*
X-139764Y-98032D02*
X-139567Y-97835D01*
Y-89764D01*
X-139370Y-32283D02*
X-92205D01*
X-98435Y-33515D02*
X-94089Y-37862D01*
X-104382Y-33515D02*
X-98435D01*
X-110236Y-39370D02*
X-104382Y-33515D01*
X-149213Y-42126D02*
X-139370Y-32283D01*
X-191518Y-61024D02*
X-191042D01*
X-190669D01*
X-188583Y-102953D02*
X-183071D01*
X-169488Y101575D02*
X-169291Y101772D01*
X-179528Y110827D02*
X-174409D01*
X-189764D02*
X-184646D01*
X-69291Y81299D02*
Y94291D01*
X-95472Y120472D02*
X-69291Y94291D01*
X-186024Y120472D02*
X-95472D01*
X-188489Y118007D02*
X-186024Y120472D01*
X-188587Y118007D02*
X-188489D01*
X-189764Y116831D02*
X-188587Y118007D01*
X-189764Y116732D02*
Y116831D01*
X-183465Y32874D02*
Y53150D01*
X-202323Y55905D02*
X-165748D01*
X-211417Y38976D02*
Y46811D01*
X-202323Y55905D01*
X-165748D02*
X-136614Y26772D01*
X-168017Y97141D02*
X-164961Y100197D01*
X-168115Y97141D02*
X-168017D01*
X-169291Y95965D02*
X-168115Y97141D01*
X-169291Y95866D02*
Y95965D01*
X-173135Y115457D02*
X-164961Y107283D01*
X-173233Y115457D02*
X-173135D01*
X-174409Y116634D02*
X-173233Y115457D01*
X-174409Y116634D02*
Y116732D01*
X-99307Y73819D02*
X-94095D01*
X-99917Y74429D02*
X-99307Y73819D01*
X-100394Y74429D02*
X-99917D01*
X-106313Y77756D02*
X-94095D01*
X-103327Y71850D02*
X-94095D01*
X-105905Y74429D02*
X-103327Y71850D01*
X-103149Y69882D02*
X-94095D01*
X-105905Y67125D02*
X-103149Y69882D01*
X-98032Y83071D02*
X-97244Y83858D01*
X-99410Y83071D02*
X-98032D01*
X-109055Y90551D02*
X-106890D01*
X-102360Y95081D01*
X-100824D01*
X-100236Y95669D01*
X-102362Y92520D02*
X-90551D01*
X-107283Y87598D02*
X-102362Y92520D01*
X-107283Y83071D02*
Y87598D01*
X-102362Y89764D02*
X-85933D01*
X-103347Y88779D02*
X-102362Y89764D01*
X-103347Y83071D02*
Y88779D01*
X-107730Y-56382D02*
Y-55905D01*
Y-56382D02*
X-107283Y-56829D01*
Y-62598D02*
Y-56829D01*
X-103820Y-56382D02*
Y-55905D01*
Y-56382D02*
X-103347Y-56855D01*
Y-62598D02*
Y-56855D01*
X-105709Y-67913D02*
X-94220D01*
X-94488Y-67645D02*
Y-63779D01*
Y-67645D02*
X-94220Y-67913D01*
X-94095D01*
X-112205Y-74410D02*
X-105709Y-67913D01*
X-240158Y-69291D02*
X-234252Y-75197D01*
X-240158Y-69291D02*
Y-34252D01*
X-234252Y-75197D02*
X-214567D01*
X-192717Y-97047D01*
X-188583D01*
X-155604Y-3150D02*
X-131496D01*
X-185969Y-33515D02*
X-155604Y-3150D01*
X-185969Y-35201D02*
Y-33515D01*
X-201968Y-29528D02*
X-199606Y-31890D01*
X-214843Y-29528D02*
X-201968D01*
X-201968Y-17717D02*
X-199606Y-20079D01*
X-214843Y-17717D02*
X-201968D01*
X-223622Y-62205D02*
Y-3150D01*
X-218898Y-9843D02*
X-209842D01*
X-205906Y-5906D01*
X-220866Y-11811D02*
X-218898Y-9843D01*
X-220866Y-63264D02*
Y-11811D01*
X-184247Y-95772D02*
X-183120Y-96900D01*
X-218503Y-8269D02*
X-210569D01*
X-218110Y49606D02*
Y58661D01*
X-223622Y44094D02*
X-218110Y49606D01*
X-223622Y-3150D02*
Y44094D01*
X-198444Y-53253D02*
Y-33122D01*
X-199606Y-31960D02*
X-198444Y-33122D01*
X-199606Y-31960D02*
Y-31890D01*
X-223622Y-62205D02*
X-200000Y-85827D01*
X-220866Y-63264D02*
X-199503Y-84627D01*
X-198444Y-53253D02*
X-196560Y-55137D01*
X-171166D01*
X-160236Y-66067D01*
Y-85236D02*
Y-66067D01*
Y-85236D02*
X-156496Y-88976D01*
X-193794Y-84627D02*
X-187364Y-91057D01*
X-152111D01*
X-151994Y-90940D01*
X-146649D01*
X-145473Y-89764D01*
X-199606Y-20079D02*
X-197244Y-22441D01*
Y-52756D02*
Y-22441D01*
Y-52756D02*
X-196063Y-53937D01*
X-170669D01*
X-156496Y-68110D01*
X-113254Y57696D02*
Y68372D01*
X-113386Y68504D02*
X-113254Y68372D01*
X-122483Y81932D02*
X-122202D01*
X-125197Y84646D02*
X-122483Y81932D01*
X-130512Y-59842D02*
X-127756Y-62598D01*
X-130709Y-59842D02*
X-130512D01*
X-156693Y-19685D02*
X-153543Y-22835D01*
X-140176Y-26791D02*
X-86613D01*
X-142126Y-28740D02*
X-140176Y-26791D01*
X-152362Y-28740D02*
X-142126D01*
X-86613Y-26791D02*
X-80076Y-20253D01*
Y-19405D01*
X-79195Y-18524D01*
X-78347D01*
X-153543Y-27559D02*
X-152362Y-28740D01*
X-153543Y-27559D02*
Y-22835D01*
X-133858Y59429D02*
X-132874Y60413D01*
Y62008D01*
X-130623Y64088D02*
X-126489D01*
X-126378Y63976D01*
X-134252Y67716D02*
X-130623Y64088D01*
X-102362Y44488D02*
X-101378Y45472D01*
Y50787D01*
X-106299Y44488D02*
X-102362D01*
X-107283Y45472D02*
X-106299Y44488D01*
X-107283Y45472D02*
Y50787D01*
X-93983Y75899D02*
X-89849D01*
X-94095Y75787D02*
X-93983Y75899D01*
X-89849D02*
X-85433Y80315D01*
X-113675Y89764D02*
X-113324Y89412D01*
Y87160D02*
Y89412D01*
Y87160D02*
X-113300Y87136D01*
Y83182D02*
Y87136D01*
Y83182D02*
X-113189Y83071D01*
X-116356Y89764D02*
X-113675D01*
X-118983Y87136D02*
X-116356Y89764D01*
X-118983Y83182D02*
Y87136D01*
X-119095Y83071D02*
X-118983Y83182D01*
X-113189Y-54724D02*
Y-52362D01*
Y-62598D02*
Y-54724D01*
X-117126D02*
X-113189D01*
X-119095Y-56693D02*
X-117126Y-54724D01*
X-119095Y-62598D02*
Y-56693D01*
X-113189Y-52362D02*
X-112495Y-51669D01*
Y-51570D01*
X-111319Y-50394D01*
X-111221D01*
X-113976Y-47244D02*
X-109291D01*
X-107417Y-49119D01*
Y-49217D02*
Y-49119D01*
Y-49217D02*
X-106240Y-50394D01*
X-106142D01*
X-115851Y-49119D02*
X-113976Y-47244D01*
X-115851Y-49217D02*
Y-49119D01*
X-117028Y-50394D02*
X-115851Y-49217D01*
X-117126Y-50394D02*
X-117028D01*
X-133465Y-85433D02*
Y-83071D01*
X-132087Y-81693D01*
X-126378D01*
X-107283Y-101181D02*
Y-94882D01*
Y-101181D02*
X-106496Y-101969D01*
X-102362D01*
X-101378Y-100984D01*
Y-94882D01*
X-90158Y-62598D02*
X-88189Y-64567D01*
Y-68504D02*
Y-64567D01*
X-89567Y-69882D02*
X-88189Y-68504D01*
X-94095Y-69882D02*
X-89567D01*
X-94089Y-43762D02*
X-86221Y-51630D01*
Y-68779D02*
Y-51630D01*
X-89292Y-71850D02*
X-86221Y-68779D01*
X-190669Y-49213D02*
X-180119D01*
X-157771Y-26865D01*
Y-26767D01*
X-156595Y-25591D01*
X-156496D01*
X-116654Y64567D02*
X-115748D01*
X-114454Y63273D01*
X-122347Y62298D02*
X-116423Y68223D01*
X-109843Y72441D02*
Y74226D01*
Y58268D02*
Y72441D01*
X-114961D02*
X-109843D01*
X-116423Y70979D02*
X-114961Y72441D01*
X-116423Y68223D02*
Y70979D01*
X-122387Y62298D02*
X-122347D01*
X-122677Y62008D02*
X-122387Y62298D01*
X-126378Y62008D02*
X-122677D01*
X-114454Y58193D02*
Y63273D01*
X-120585Y65945D02*
X-118504Y68026D01*
Y70472D01*
X-126378Y65945D02*
X-120585D01*
X-109843Y74226D02*
X-106313Y77756D01*
X-109843Y58268D02*
X-108661Y57087D01*
X-100394D01*
X-99410Y56102D01*
Y50787D02*
Y56102D01*
X-121063Y82200D02*
Y83071D01*
X-121331Y81932D02*
X-121063Y82200D01*
X-122202Y81932D02*
X-121331D01*
X-125239Y78895D02*
X-122202Y81932D01*
X-125239Y78024D02*
Y78895D01*
X-125507Y77756D02*
X-125239Y78024D01*
X-126378Y77756D02*
X-125507D01*
X-137898Y80024D02*
X-135630Y77756D01*
X-137898Y80024D02*
Y80123D01*
X-139075Y81299D02*
X-137898Y80123D01*
X-139173Y81299D02*
X-139075D01*
X-135630Y77756D02*
X-126378D01*
X-142126Y71260D02*
Y78347D01*
X-140448Y80024D01*
Y80123D01*
X-139272Y81299D01*
X-139173D01*
X-142126Y71260D02*
X-132874Y62008D01*
X-126378D01*
X-115685Y-74410D02*
Y-72662D01*
Y-82220D02*
Y-74410D01*
X-112205D01*
X-117126Y-83661D02*
X-111811Y-88976D01*
X-100787D01*
X-99410Y-90354D01*
Y-94882D02*
Y-90354D01*
X-120236Y-68110D02*
X-115685Y-72662D01*
X-117126Y-83661D02*
X-115685Y-82220D01*
X-122227Y-68110D02*
X-120236D01*
X-122313Y-68025D02*
X-122227Y-68110D01*
X-126267Y-68025D02*
X-122313D01*
X-126378Y-67913D02*
X-126267Y-68025D01*
X-126378Y-83661D02*
X-117126D01*
X-129724Y-64567D02*
X-127756Y-62598D01*
X-121063D01*
X-137992Y-64567D02*
X-129724D01*
X-127517Y-66774D01*
Y-67645D02*
Y-66774D01*
Y-67645D02*
X-127249Y-67913D01*
X-126378D01*
X-218110Y58661D02*
X-190551Y86221D01*
X-178347D02*
X-171653Y92913D01*
X-190551Y86221D02*
X-178347D01*
X-171653Y92913D02*
X-147244D01*
X-223622Y-3150D02*
X-218503Y-8269D01*
X-136614Y26772D02*
X-122559D01*
X-115253Y34078D01*
X-114404D01*
X-112204Y36277D01*
Y37126D01*
X-120968Y40175D02*
X-116654Y44488D01*
X-121816Y40175D02*
X-120968D01*
X-124016Y37975D02*
X-121816Y40175D01*
X-124016Y37126D02*
Y37975D01*
X-116654Y44488D02*
X-112598D01*
X-111221Y45866D01*
Y50787D01*
X-213791Y27165D02*
X-211417D01*
X-199503Y-84627D02*
X-193794D01*
X-179921Y101575D02*
X-169488D01*
X-145079Y75787D02*
Y81299D01*
X-139173Y75787D02*
X-126378D01*
X-117126Y78937D02*
X-112992Y74803D01*
X-117126Y78937D02*
Y83071D01*
X-100236Y95669D02*
Y106299D01*
X-121063Y83071D02*
Y86754D01*
X-113324Y94493D01*
X-112791D01*
X-111614Y95669D01*
X-106142D01*
X-100393Y37126D02*
X-92205D01*
X-85330Y44001D01*
Y44099D01*
X-84153Y45276D01*
X-84055D01*
X-115157Y57490D02*
X-114454Y58193D01*
X-113386Y57565D02*
X-113254Y57696D01*
X-113386Y55332D02*
Y57565D01*
Y55332D02*
X-112992Y54939D01*
X-113078Y54853D02*
X-112992Y54939D01*
X-113078Y50899D02*
Y54853D01*
X-113189Y50787D02*
X-113078Y50899D01*
X-115157Y50787D02*
Y57490D01*
X-116535Y59055D02*
Y59842D01*
X-118898Y54939D02*
Y61811D01*
X-117126Y59252D02*
X-116535Y59842D01*
X-117126Y50787D02*
Y59252D01*
X-116535Y59842D02*
X-116535Y59842D01*
X-105905Y59429D02*
Y67125D01*
X-118983Y54853D02*
X-118898Y54939D01*
X-118983Y50899D02*
Y54853D01*
X-119095Y50787D02*
X-118983Y50899D01*
X-109604Y41826D02*
X-109252Y42178D01*
X-110004Y41826D02*
X-109604D01*
X-112204Y39626D02*
X-110004Y41826D01*
X-112204Y37126D02*
Y39626D01*
X-109252Y42178D02*
Y50787D01*
X-105905Y-86221D02*
Y-78740D01*
X-102953Y-75787D01*
X-94095D01*
X-105905Y-71240D02*
X-103327Y-73819D01*
X-94095D01*
X-200000Y-70669D02*
X-198824Y-69493D01*
Y-69178D01*
X-193718Y-64073D01*
Y-63224D01*
X-191518Y-61024D01*
X-200000Y-85827D02*
X-194291D01*
X-184346Y-95772D01*
X-184247D01*
X-206843Y6542D02*
X-201575Y11811D01*
X-206843Y5743D02*
Y6542D01*
X-209044Y3543D02*
X-206843Y5743D01*
X-211417Y3543D02*
X-209044D01*
X-201575Y11811D02*
Y38308D01*
X-193718Y46165D01*
Y47013D01*
X-191518Y49213D01*
X-190669D01*
X-145669Y-89567D02*
X-145473Y-89764D01*
X-145669Y-89567D02*
Y-79528D01*
X-99410Y-62598D02*
Y-56496D01*
X-103150Y-52756D02*
X-99410Y-56496D01*
X-103150Y-52756D02*
Y-47244D01*
X-107171Y-43223D02*
X-103150Y-47244D01*
X-111832Y-43223D02*
X-107171D01*
X-115685Y-39370D02*
X-111832Y-43223D01*
X-120236Y-39370D02*
X-115685D01*
X-94095Y-71850D02*
X-89292D01*
X-94089Y-43762D02*
Y-37862D01*
X-119488Y-79724D02*
X-119291Y-79921D01*
X-126378Y-79724D02*
X-119488D01*
X-136324Y-81796D02*
X-132283Y-77756D01*
X-136324Y-82190D02*
Y-81796D01*
X-137402Y-83268D02*
X-136324Y-82190D01*
X-137795Y-83268D02*
X-137402D01*
X-132283Y-77756D02*
X-126378D01*
X-143898Y-69880D02*
Y-64567D01*
X-137992Y-69880D02*
X-137990Y-69882D01*
X-126378D01*
X-117126Y-67126D02*
X-112598Y-71653D01*
X-117126Y-67126D02*
Y-62598D01*
X-121063D02*
Y-54331D01*
X-118401Y-51669D01*
Y-51570D01*
X-117224Y-50394D01*
X-117126D01*
X-100236D02*
Y-39370D01*
X-140157Y-25591D02*
X-100787D01*
X-97792Y-22595D01*
Y-21747D01*
X-95730Y-19685D01*
X-94882D01*
X-145079Y-20669D02*
X-140157Y-25591D01*
X-145079Y-20669D02*
Y-18504D01*
X-148528Y-15054D02*
X-145079Y-18504D01*
X-148528Y-15054D02*
Y-14661D01*
X-149606Y-13583D02*
X-148528Y-14661D01*
X-150000Y-13583D02*
X-149606D01*
X-131496Y-3150D02*
X-124016Y-10630D01*
X-188169Y-37401D02*
X-185969Y-35201D01*
X-190669Y-37401D02*
X-188169D01*
X-73622Y-25984D02*
X-61221D01*
X-160630Y-22047D02*
X-158263Y-24414D01*
X-157673D01*
X-156496Y-25591D01*
X-160630Y-22047D02*
Y-12598D01*
X-159346Y-11314D01*
Y-10921D01*
X-158268Y-9843D01*
X-157874D01*
X-150591Y-25591D02*
Y-19685D01*
X-137064Y-22830D02*
X-124864Y-10630D01*
X-124016D01*
X-59469Y-16142D02*
X-58816Y-16794D01*
Y-17642D02*
Y-16794D01*
Y-17642D02*
X-57935Y-18524D01*
X-57087D01*
X-87402Y-16142D02*
X-59469D01*
X-90003Y-18743D02*
X-87402Y-16142D01*
X-93940Y-18743D02*
X-90003D01*
X-94882Y-19685D02*
X-93940Y-18743D01*
X-43504Y-5906D02*
X-42251Y-7158D01*
Y-8064D02*
Y-7158D01*
Y-8064D02*
X-41142Y-9173D01*
X-51575Y-5906D02*
X-43504D01*
X-53487Y-7818D02*
X-51575Y-5906D01*
X-56381Y-7818D02*
X-53487D01*
X-57087Y-8524D02*
X-56381Y-7818D01*
X-62992Y-11668D02*
X-61137Y-13524D01*
X-57087D01*
X-62992Y-11668D02*
Y-3543D01*
X-58550Y899D01*
X-57566D01*
X-56496Y1969D01*
Y7087D01*
X-76617Y-20253D02*
X-73622Y-23248D01*
X-76617Y-20253D02*
Y-19405D01*
X-77498Y-18524D02*
X-76617Y-19405D01*
X-78347Y-18524D02*
X-77498D01*
X-73622Y-25984D02*
Y-23248D01*
X-61221Y-28150D02*
X-59842Y-29528D01*
X-61221Y-28150D02*
Y-25984D01*
X-59842Y-29528D02*
X-52362D01*
X-47047Y-24213D01*
Y-19173D01*
X-57087Y-18524D02*
X-56238D01*
X-55357Y-19405D01*
Y-20253D02*
Y-19405D01*
Y-20253D02*
X-55315Y-20295D01*
Y-25984D02*
Y-20295D01*
X-30709Y-19173D02*
X-30472Y-18937D01*
X-41142Y-19173D02*
X-30709D01*
Y-9173D02*
X-30472Y-8937D01*
X-41142Y-9173D02*
X-30709D01*
Y827D02*
X-30472Y1063D01*
X-41142Y827D02*
X-30709D01*
X-113189Y-103347D02*
X-110236Y-106299D01*
X-113189Y-103347D02*
Y-94882D01*
X-115157Y-105067D02*
X-114173Y-106051D01*
Y-106299D02*
Y-106051D01*
X-115157Y-105067D02*
Y-94882D01*
X-118110Y-106051D02*
X-117126Y-105067D01*
X-118110Y-106299D02*
Y-106051D01*
X-117126Y-105067D02*
Y-94882D01*
X-82677Y-77165D02*
X-79106D01*
X-119095Y-103347D02*
Y-94882D01*
X-122047Y-106299D02*
X-119095Y-103347D01*
X-78600Y-77671D02*
X-75506D01*
X-79106Y-77165D02*
X-78600Y-77671D01*
X-75506D02*
X-71654Y-73820D01*
X-76130Y-75590D02*
X-72390Y-71850D01*
X-77559Y-75590D02*
X-76130D01*
X-71654Y-73820D02*
X-67655D01*
X-72390Y-71850D02*
X-67655D01*
X-75588Y-69880D02*
X-67655D01*
X-76481Y-70772D02*
X-75588Y-69880D01*
X-76481Y-70871D02*
Y-70772D01*
X-77658Y-72047D02*
X-76481Y-70871D01*
X-77756Y-72047D02*
X-77658D01*
X-77756Y-66929D02*
X-76775Y-67910D01*
X-67655D01*
X-71457Y68306D02*
X-67655D01*
X-73622Y66142D02*
X-71457Y68306D01*
X-77165Y66142D02*
X-73622D01*
X-73622Y69685D02*
X-73031Y70276D01*
X-67655D01*
X-77756Y70472D02*
X-77658D01*
X-76481Y71649D01*
Y71747D01*
X-75982Y72246D01*
X-67655D01*
X-77756Y75197D02*
X-76775Y74216D01*
X-67655D01*
X-31693Y62402D02*
Y62501D01*
X-33558Y64366D02*
X-31693Y62501D01*
X-50455Y64366D02*
X-33558D01*
X-50455Y66336D02*
X-36616D01*
X-34050Y68902D01*
X-33558D01*
X-31693Y70768D01*
Y71260D01*
X-54724Y87205D02*
X-51968D01*
X-57480D02*
X-54724D01*
Y75197D02*
X-53754Y74226D01*
X-50465D01*
X-50455Y74216D01*
X-54724Y75197D02*
Y87205D01*
X-51968Y77700D02*
X-51554Y77285D01*
Y76436D02*
Y77285D01*
Y76436D02*
X-51304Y76186D01*
X-50455D01*
X-51968Y77700D02*
Y81299D01*
X-62992D02*
X-62801Y81108D01*
Y76186D02*
Y81108D01*
X-59055Y68504D02*
Y72441D01*
X-62801Y76186D02*
X-59055Y72441D01*
X-67655Y76186D02*
X-62801D01*
X-61223Y64466D02*
Y66336D01*
Y62595D02*
Y64466D01*
X-61322Y64366D02*
X-61223Y64466D01*
X-67655Y64366D02*
X-61322D01*
X-61024Y62396D02*
X-50455D01*
X-67655D02*
X-61024D01*
X-61223Y62595D02*
X-61024Y62396D01*
X-59055Y68504D02*
X-50653D01*
X-50455Y68306D01*
X-61223Y66336D02*
X-59055Y68504D01*
X-67655Y66336D02*
X-61223D01*
X-61420Y-77759D02*
Y-75790D01*
Y-79727D02*
Y-77759D01*
X-61421Y-77760D02*
X-61420Y-77759D01*
X-67655Y-77760D02*
X-61421D01*
X-61417Y-79730D02*
X-50455D01*
X-67655D02*
X-61417D01*
X-61420Y-79727D02*
X-61417Y-79730D01*
X-62598Y-65748D02*
X-62407Y-65940D01*
X-62598Y-65748D02*
Y-60433D01*
X-59449Y-73819D02*
Y-68898D01*
X-62407Y-65940D02*
X-59449Y-68898D01*
X-67655Y-65940D02*
X-62407D01*
X-59449Y-73819D02*
X-50456D01*
X-50455Y-73820D01*
X-61420Y-75790D02*
X-59449Y-73819D01*
X-67655Y-75790D02*
X-61420D01*
X-54331Y-54528D02*
X-51575D01*
X-57087D02*
X-54331D01*
Y-67323D02*
X-53754Y-67900D01*
X-50465D01*
X-50455Y-67910D01*
X-54331Y-67323D02*
Y-54528D01*
X-57087Y-54527D02*
X-57087Y-54528D01*
X-51575Y-60433D02*
X-50455Y-61553D01*
Y-65940D02*
Y-61553D01*
X-47051Y-77760D02*
X-40650Y-71358D01*
X-31693D01*
X-50455Y-77760D02*
X-47051D01*
X-47049Y-75790D02*
X-34407Y-63147D01*
X-32340D01*
X-31693Y-62500D01*
X-50455Y-75790D02*
X-47049D01*
X-24606Y-66929D02*
Y-54724D01*
Y-79921D02*
Y-66929D01*
X-30516Y-79921D02*
X-30512D01*
X-31693Y-78745D02*
X-30516Y-79921D01*
X-31693Y-78745D02*
Y-71358D01*
Y-62500D02*
X-30512Y-61319D01*
Y-54724D01*
X2480Y-71358D02*
X3051Y-71929D01*
X-15551Y-71358D02*
X2480D01*
X-15551Y-62500D02*
X-14980Y-61929D01*
X3051D01*
X64961Y-84646D02*
X108543D01*
X42244Y-61929D02*
X64961Y-84646D01*
X35531Y-61929D02*
X42244D01*
X60059Y-96457D02*
X108543D01*
X35531Y-71929D02*
X60059Y-96457D01*
X107637Y61929D02*
X108543Y61023D01*
X35925Y61929D02*
X107637D01*
X107638Y71929D02*
X108543Y72834D01*
X35925Y71929D02*
X107638D01*
X78729Y23765D02*
Y32689D01*
X71417Y40000D02*
X78729Y32689D01*
X51181Y40000D02*
X71417D01*
X78729Y-32295D02*
Y-23479D01*
X71024Y-40000D02*
X78729Y-32295D01*
X51181Y-40000D02*
X71024D01*
X139764Y-15748D02*
X151378D01*
X80053Y-1181D02*
X88976D01*
X78729Y143D02*
X80053Y-1181D01*
X78729Y-11668D02*
X112455D01*
X116339Y-15551D01*
X88726Y11954D02*
X88976Y12205D01*
X150787Y16142D02*
X151378Y15551D01*
X139764Y16142D02*
X150787D01*
X78729Y11954D02*
X88726D01*
X116339Y15748D02*
Y16191D01*
X108765Y23765D02*
X116339Y16191D01*
X78729Y23765D02*
X108765D01*
D42*
X-30512Y-54724D02*
D03*
X-24606D02*
D03*
X-30512Y-79921D02*
D03*
X-24606D02*
D03*
X-83661Y-72047D02*
D03*
X-77756D02*
D03*
X-84055Y45276D02*
D03*
X-78150D02*
D03*
X-83661Y-66929D02*
D03*
X-77756D02*
D03*
X-30512Y79134D02*
D03*
X-24606D02*
D03*
X-30512Y54724D02*
D03*
X-24606D02*
D03*
X-83661Y70472D02*
D03*
X-77756D02*
D03*
X-83661Y75197D02*
D03*
X-77756D02*
D03*
X-61221Y-25984D02*
D03*
X-55315D02*
D03*
X-41142Y-9173D02*
D03*
X-47047D02*
D03*
Y-19173D02*
D03*
X-41142D02*
D03*
X-47047Y827D02*
D03*
X-41142D02*
D03*
X-156496Y-19685D02*
D03*
X-150591D02*
D03*
Y0D02*
D03*
X-156496D02*
D03*
X-62402Y1969D02*
D03*
X-56496D02*
D03*
X-150591Y-25591D02*
D03*
X-156496D02*
D03*
X-150591Y5512D02*
D03*
X-156496D02*
D03*
X-73622Y-25984D02*
D03*
X-79528D02*
D03*
X-56496Y7087D02*
D03*
X-62402D02*
D03*
X-145473Y-89764D02*
D03*
X-139567D02*
D03*
X-139173Y81299D02*
D03*
X-145079D02*
D03*
X-100236Y95669D02*
D03*
X-106142D02*
D03*
X-145079Y75787D02*
D03*
X-139173D02*
D03*
X-137992Y-64567D02*
D03*
X-143898D02*
D03*
X-100236Y-50394D02*
D03*
X-106142D02*
D03*
X-143898Y-69880D02*
D03*
X-137992D02*
D03*
X-117126Y-50394D02*
D03*
X-111221D02*
D03*
X-111614Y95669D02*
D03*
X-117520D02*
D03*
D43*
X3051Y-61929D02*
D03*
Y-71929D02*
D03*
X35531Y-61929D02*
D03*
Y-71929D02*
D03*
X3445Y71929D02*
D03*
Y61929D02*
D03*
X35925Y71929D02*
D03*
Y61929D02*
D03*
D44*
X-31693Y-71358D02*
D03*
X-15551D02*
D03*
Y-62500D02*
D03*
X-31693D02*
D03*
Y62402D02*
D03*
X-15551D02*
D03*
Y71260D02*
D03*
X-31693D02*
D03*
D45*
X108543Y-96457D02*
D03*
Y-84646D02*
D03*
Y-72834D02*
D03*
Y-61023D02*
D03*
Y61023D02*
D03*
Y72834D02*
D03*
Y84646D02*
D03*
Y96457D02*
D03*
X78729Y-23479D02*
D03*
Y-11668D02*
D03*
Y143D02*
D03*
Y11954D02*
D03*
Y23765D02*
D03*
X-214843Y41339D02*
D03*
Y29528D02*
D03*
Y17717D02*
D03*
Y5906D02*
D03*
Y-5906D02*
D03*
Y-17717D02*
D03*
Y-29528D02*
D03*
Y-41339D02*
D03*
X-190669Y25590D02*
D03*
Y37401D02*
D03*
Y49213D02*
D03*
Y61024D02*
D03*
Y-61024D02*
D03*
Y-49213D02*
D03*
Y-37401D02*
D03*
Y-25590D02*
D03*
D46*
X122047Y-45708D02*
D03*
Y-111772D02*
D03*
Y111772D02*
D03*
Y45708D02*
D03*
X92233Y39080D02*
D03*
Y-38794D02*
D03*
X-228346Y-56654D02*
D03*
Y56654D02*
D03*
X-177165Y76339D02*
D03*
Y10275D02*
D03*
Y-10275D02*
D03*
Y-76339D02*
D03*
D47*
X-67655Y-65940D02*
D03*
Y-67910D02*
D03*
Y-69880D02*
D03*
Y-71850D02*
D03*
Y-73820D02*
D03*
Y-75790D02*
D03*
Y-77760D02*
D03*
Y-79730D02*
D03*
X-50455D02*
D03*
Y-77760D02*
D03*
Y-75790D02*
D03*
Y-73820D02*
D03*
Y-71850D02*
D03*
Y-69880D02*
D03*
Y-67910D02*
D03*
Y-65940D02*
D03*
X-67655Y76186D02*
D03*
Y74216D02*
D03*
Y72246D02*
D03*
Y70276D02*
D03*
Y68306D02*
D03*
Y66336D02*
D03*
Y64366D02*
D03*
Y62396D02*
D03*
X-50455D02*
D03*
Y64366D02*
D03*
Y66336D02*
D03*
Y68306D02*
D03*
Y70276D02*
D03*
Y72246D02*
D03*
Y74216D02*
D03*
Y76186D02*
D03*
D48*
X-51575Y-60433D02*
D03*
Y-54528D02*
D03*
X-57087Y-54527D02*
D03*
Y-60433D02*
D03*
X-51968Y81299D02*
D03*
Y87205D02*
D03*
X-57480D02*
D03*
Y81299D02*
D03*
X-169291Y101772D02*
D03*
Y95866D02*
D03*
X-188583Y-97047D02*
D03*
Y-102953D02*
D03*
X-183071D02*
D03*
Y-97047D02*
D03*
X-200000Y-70669D02*
D03*
Y-76575D02*
D03*
X-189764Y116732D02*
D03*
Y110827D02*
D03*
X-184646Y116732D02*
D03*
Y110827D02*
D03*
X-174409Y116732D02*
D03*
Y110827D02*
D03*
X-179528Y116732D02*
D03*
Y110827D02*
D03*
X-62598Y-60433D02*
D03*
Y-54527D02*
D03*
X-62992Y81299D02*
D03*
Y87205D02*
D03*
D49*
X-78347Y-18524D02*
D03*
Y-13524D02*
D03*
Y-8524D02*
D03*
Y-3524D02*
D03*
X-57087D02*
D03*
Y-8524D02*
D03*
Y-13524D02*
D03*
Y-18524D02*
D03*
D50*
X-94882Y-1575D02*
D03*
Y-19685D02*
D03*
D51*
X-124016Y-10630D02*
D03*
D52*
X-150000Y-13583D02*
D03*
Y-6102D02*
D03*
X-157874Y-9843D02*
D03*
X-139370Y89173D02*
D03*
Y96653D02*
D03*
X-147244Y92913D02*
D03*
X-137795Y-83268D02*
D03*
Y-75787D02*
D03*
X-145669Y-79528D02*
D03*
X-137795Y-57677D02*
D03*
Y-50197D02*
D03*
X-145669Y-53937D02*
D03*
D53*
X151378Y-15748D02*
D03*
X116339Y-15551D02*
D03*
Y15748D02*
D03*
X151378Y15551D02*
D03*
D54*
X-126378Y77756D02*
D03*
Y75787D02*
D03*
Y73819D02*
D03*
Y71850D02*
D03*
Y69882D02*
D03*
Y67913D02*
D03*
Y65945D02*
D03*
Y63976D02*
D03*
Y62008D02*
D03*
Y60039D02*
D03*
Y58071D02*
D03*
Y56102D02*
D03*
X-94095D02*
D03*
Y58071D02*
D03*
Y60039D02*
D03*
Y62008D02*
D03*
Y63976D02*
D03*
Y65945D02*
D03*
Y67913D02*
D03*
Y69882D02*
D03*
Y71850D02*
D03*
Y73819D02*
D03*
Y75787D02*
D03*
Y77756D02*
D03*
X-126378Y-67913D02*
D03*
Y-69882D02*
D03*
Y-71850D02*
D03*
Y-73819D02*
D03*
Y-75787D02*
D03*
Y-77756D02*
D03*
Y-79724D02*
D03*
Y-81693D02*
D03*
Y-83661D02*
D03*
Y-85630D02*
D03*
Y-87598D02*
D03*
Y-89567D02*
D03*
X-94095D02*
D03*
Y-87598D02*
D03*
Y-85630D02*
D03*
Y-83661D02*
D03*
Y-81693D02*
D03*
Y-79724D02*
D03*
Y-77756D02*
D03*
Y-75787D02*
D03*
Y-73819D02*
D03*
Y-71850D02*
D03*
Y-69882D02*
D03*
Y-67913D02*
D03*
D55*
X-121063Y50787D02*
D03*
X-119095D02*
D03*
X-117126D02*
D03*
X-115157D02*
D03*
X-113189D02*
D03*
X-111221D02*
D03*
X-109252D02*
D03*
X-107283D02*
D03*
X-105315D02*
D03*
X-103347D02*
D03*
X-101378D02*
D03*
X-99410D02*
D03*
Y83071D02*
D03*
X-101378D02*
D03*
X-103347D02*
D03*
X-105315D02*
D03*
X-107283D02*
D03*
X-109252D02*
D03*
X-111221D02*
D03*
X-113189D02*
D03*
X-115157D02*
D03*
X-117126D02*
D03*
X-119095D02*
D03*
X-121063D02*
D03*
Y-94882D02*
D03*
X-119095D02*
D03*
X-117126D02*
D03*
X-115157D02*
D03*
X-113189D02*
D03*
X-111221D02*
D03*
X-109252D02*
D03*
X-107283D02*
D03*
X-105315D02*
D03*
X-103347D02*
D03*
X-101378D02*
D03*
X-99410D02*
D03*
Y-62598D02*
D03*
X-101378D02*
D03*
X-103347D02*
D03*
X-105315D02*
D03*
X-107283D02*
D03*
X-109252D02*
D03*
X-111221D02*
D03*
X-113189D02*
D03*
X-115157D02*
D03*
X-117126D02*
D03*
X-119095D02*
D03*
X-121063D02*
D03*
D56*
X-183661Y93701D02*
D03*
X-176181D02*
D03*
X-179921Y101575D02*
D03*
D57*
X-135827Y37126D02*
D03*
X-124016D02*
D03*
X-112204D02*
D03*
X-100393D02*
D03*
D58*
X-85078Y23622D02*
D03*
X-151142D02*
D03*
D59*
X-163386Y-787D02*
Y4331D01*
Y-8661D02*
Y-787D01*
X-162598Y0D02*
X-156496D01*
X-163386Y-787D02*
X-162598Y0D01*
X-159200Y8516D02*
X-153150Y14567D01*
X-163386Y4331D02*
X-159200Y8516D01*
X-84055Y66142D02*
Y74803D01*
X-69291Y81299D02*
X-62992D01*
X-77559D02*
X-69291D01*
X-214961Y-41221D02*
Y-35201D01*
Y-41221D02*
X-214843Y-41339D01*
X12992Y-9843D02*
X13150Y-10000D01*
X51181D01*
X-190669Y-25590D02*
X-190669Y-25591D01*
X-183465D01*
X-72835Y14567D02*
X-39764D01*
X-153150D02*
X-72835D01*
Y7542D02*
Y14567D01*
Y7542D02*
X-67261Y1969D01*
X-62402D01*
X-39764Y14567D02*
X-33268Y21063D01*
X-30472D01*
X-155421Y976D02*
Y1075D01*
X-156398Y0D02*
X-155421Y976D01*
X-156496Y0D02*
X-156398D01*
X-180315Y-25590D02*
X-163386Y-8661D01*
X-183465Y-25590D02*
X-180315D01*
X-24606Y66929D02*
Y79134D01*
Y54724D02*
Y66929D01*
X-30610Y54724D02*
X-30512D01*
X-31587Y55701D02*
X-30610Y54724D01*
X-31587Y55701D02*
Y56180D01*
X-31693Y56287D02*
X-31587Y56180D01*
X-31693Y56287D02*
Y62402D01*
X-30610Y79134D02*
X-30512D01*
X-31587Y78158D02*
X-30610Y79134D01*
X-31587Y77678D02*
Y78158D01*
X-31693Y77572D02*
X-31587Y77678D01*
X-31693Y71260D02*
Y77572D01*
X2972Y62402D02*
X3445Y61929D01*
X-15551Y62402D02*
X2972D01*
X2776Y71260D02*
X3445Y71929D01*
X-15551Y71260D02*
X2776D01*
X-84055Y45276D02*
Y66142D01*
X-82587Y76272D02*
X-77559Y81299D01*
X-82587Y76173D02*
Y76272D01*
X-83563Y75197D02*
X-82587Y76173D01*
X-83661Y75197D02*
X-83563D01*
X-84055Y74803D02*
X-83661Y75197D01*
X-82587Y-65854D02*
X-77165Y-60433D01*
X-82587Y-65953D02*
Y-65854D01*
X-83563Y-66929D02*
X-82587Y-65953D01*
X-83661Y-66929D02*
X-83563D01*
X-77165Y-60433D02*
X-62598D01*
X-83858Y-71850D02*
Y-69685D01*
Y-71850D02*
X-83661Y-72047D01*
X-83858Y-69685D02*
Y-67126D01*
X-83661Y-66929D01*
D60*
X-30472Y1063D02*
D03*
Y-8937D02*
D03*
Y-18937D02*
D03*
X-10472D02*
D03*
Y-8937D02*
D03*
Y1063D02*
D03*
Y21063D02*
D03*
X-30472D02*
D03*
D61*
X-787Y34646D02*
D03*
X-40157D02*
D03*
X-90236Y106299D02*
D03*
X-100236D02*
D03*
X-110236D02*
D03*
X-120236D02*
D03*
X-130236D02*
D03*
X-90236Y-39370D02*
D03*
X-100236D02*
D03*
X-110236D02*
D03*
X-120236D02*
D03*
X-130236D02*
D03*
D62*
X51181Y40000D02*
D03*
Y10000D02*
D03*
Y-10000D02*
D03*
Y-40000D02*
D03*
D63*
X-221457Y98425D02*
D03*
Y-98425D02*
D03*
X1969D02*
D03*
Y98425D02*
D03*
D64*
X-62992Y87205D02*
D03*
X-57480Y81299D02*
D03*
X-50653Y71260D02*
D03*
X-50465Y-70871D02*
D03*
X-78347Y88189D02*
D03*
X-90551Y85039D02*
D03*
X-78150Y45276D02*
D03*
X-212598Y17323D02*
D03*
X-217323D02*
D03*
X-106299Y44488D02*
D03*
X-113675Y89764D02*
D03*
X-113189Y-54724D02*
D03*
X-137795Y-50197D02*
D03*
X-139370Y-77165D02*
D03*
X-135827Y35039D02*
D03*
Y40000D02*
D03*
X-117520Y95669D02*
D03*
X-139370Y96653D02*
D03*
X-176181Y93701D02*
D03*
X-179528Y116732D02*
D03*
X-184646D02*
D03*
X-188976Y37402D02*
D03*
X-192913Y37401D02*
D03*
X-188583Y25197D02*
D03*
X-192913Y25591D02*
D03*
X-150000Y-6102D02*
D03*
X-156496Y5512D02*
D03*
X-92913Y-1772D02*
D03*
X-96850D02*
D03*
X-79528Y-27559D02*
D03*
X-62402Y7087D02*
D03*
X-57087Y-3524D02*
D03*
X-47047Y-9173D02*
D03*
Y827D02*
D03*
X-57087Y-60433D02*
D03*
X-62598Y-54527D02*
D03*
D65*
X-139764Y-98032D02*
D03*
X-92205Y-32283D02*
D03*
X-149213Y-42126D02*
D03*
X-191042Y-61024D02*
D03*
X-169488Y101575D02*
D03*
X-183661Y93701D02*
D03*
X-183465Y53150D02*
D03*
X-100394Y74429D02*
D03*
X-97244Y83858D02*
D03*
X-109055Y90551D02*
D03*
X-85933Y89764D02*
D03*
X-90551Y92520D02*
D03*
X-107730Y-55905D02*
D03*
X-103820D02*
D03*
X-94488Y-63779D02*
D03*
X-200394Y-77165D02*
D03*
X-240158Y-34252D02*
D03*
X-214961Y-35201D02*
D03*
X12992Y-9843D02*
D03*
X-24606Y66929D02*
D03*
X-84055Y66142D02*
D03*
X-100393Y37126D02*
D03*
X-83858Y-69685D02*
D03*
X-214843Y29528D02*
D03*
X-205906Y-5906D02*
D03*
X-199606Y-31890D02*
D03*
X-156496Y-88976D02*
D03*
X-199606Y-20079D02*
D03*
X-156496Y-68110D02*
D03*
X-113386Y68504D02*
D03*
X-117126Y-83661D02*
D03*
X-125197Y84646D02*
D03*
X-130709Y-59842D02*
D03*
X-133858Y59429D02*
D03*
X-134252Y67716D02*
D03*
X-85433Y80315D02*
D03*
X-133465Y-85433D02*
D03*
X-102362Y-101969D02*
D03*
X-90158Y-62598D02*
D03*
X-190669Y61024D02*
D03*
X-183071Y-96850D02*
D03*
X-145669Y-53937D02*
D03*
X-116654Y64567D02*
D03*
X-118504Y70472D02*
D03*
X-139370Y89173D02*
D03*
X-112992Y74803D02*
D03*
X-116535Y59055D02*
D03*
X-118898Y61811D02*
D03*
X-105905Y59429D02*
D03*
Y74429D02*
D03*
Y-86221D02*
D03*
Y-71240D02*
D03*
X-119291Y-79921D02*
D03*
X-137795Y-57677D02*
D03*
X-112598Y-71653D02*
D03*
X-156693Y-19685D02*
D03*
X-183465Y-25591D02*
D03*
X-110236Y-106299D02*
D03*
X-114173D02*
D03*
X-118110D02*
D03*
X-122047D02*
D03*
X-77559Y-75590D02*
D03*
X-82677Y-77165D02*
D03*
X-77756Y-72047D02*
D03*
Y-66929D02*
D03*
X-77165Y66142D02*
D03*
X-73622Y69685D02*
D03*
X-77756Y75197D02*
D03*
Y70472D02*
D03*
X-24606Y-66929D02*
D03*
X139764Y-15748D02*
D03*
X88976Y-1181D02*
D03*
Y12205D02*
D03*
X139764Y16142D02*
D03*
M02*
