G04*
G04 #@! TF.GenerationSoftware,Altium Limited,Altium Designer,19.0.15 (446)*
G04*
G04 Layer_Color=32896*
%FSLAX25Y25*%
%MOIN*%
G70*
G01*
G75*
%ADD12C,0.00600*%
%ADD14C,0.00591*%
D12*
X-212598Y-67913D02*
X-211811D01*
X-211024D02*
X-210236D01*
X-211024Y-68701D02*
Y-67126D01*
X-211811Y-68701D02*
Y-67126D01*
X-142913Y76378D02*
X-142126D01*
X-141339D02*
X-140551D01*
X-141339Y75590D02*
Y77165D01*
X-142126Y75590D02*
Y77165D01*
X-153150D02*
X-152362Y76378D01*
X-153937Y75590D02*
X-153150Y77165D01*
X-154724Y76378D02*
X-153937Y75590D01*
X-156299Y67323D02*
X-155512Y68110D01*
X-156299Y67323D02*
X-154724Y66535D01*
X-155512Y65748D02*
X-154724Y66535D01*
X-142913Y57087D02*
X-142126D01*
X-141339D02*
X-140551D01*
X-141339Y56299D02*
Y57874D01*
X-142126Y56299D02*
Y57874D01*
X-153150D02*
X-152362Y57087D01*
X-153937Y56299D02*
X-153150Y57874D01*
X-154724Y57087D02*
X-153937Y56299D01*
X-153150Y-88189D02*
X-152362Y-88976D01*
X-153937Y-89764D02*
X-153150Y-88189D01*
X-154724Y-88976D02*
X-153937Y-89764D01*
X-142913Y-68110D02*
X-142126D01*
X-141339D02*
X-140551D01*
X-141339Y-68898D02*
Y-67323D01*
X-142126Y-68898D02*
Y-67323D01*
X-153150D02*
X-152362Y-68110D01*
X-153937Y-68898D02*
X-153150Y-67323D01*
X-154724Y-68110D02*
X-153937Y-68898D01*
X-156299Y-78347D02*
X-155512Y-77559D01*
X-156299Y-78347D02*
X-154724Y-79134D01*
X-155512Y-79921D02*
X-154724Y-79134D01*
X-142913Y-88976D02*
X-142126D01*
X-141339D02*
X-140551D01*
X-141339Y-89764D02*
Y-88189D01*
X-142126Y-89764D02*
Y-88189D01*
X-28740Y66929D02*
X-27953D01*
X-27165D02*
X-26378D01*
X-27165Y66142D02*
Y67716D01*
X-27953Y66142D02*
Y67716D01*
X-28740Y-66929D02*
X-27953D01*
X-27165D02*
X-26378D01*
X-27165Y-67716D02*
Y-66142D01*
X-27953Y-67716D02*
Y-66142D01*
D14*
X-124213Y76575D02*
X-108858D01*
X-124213Y57284D02*
X-108858D01*
X-144488Y72835D02*
X-141673D01*
Y70669D02*
Y72835D01*
Y60630D02*
Y62795D01*
X-144488Y60630D02*
X-141673D01*
X-124213Y-69095D02*
X-108858D01*
X-124213Y-88386D02*
X-108858D01*
X-144488Y-72638D02*
X-141673D01*
Y-74803D02*
Y-72638D01*
Y-84842D02*
Y-82677D01*
X-144488Y-84842D02*
X-141673D01*
X-213779Y-63779D02*
Y-61811D01*
X-229134Y-63779D02*
X-213779D01*
X-229134D02*
Y-62795D01*
X-213779Y-38189D02*
Y-36220D01*
X-229134D02*
X-213779D01*
X-229134Y-37205D02*
Y-36220D01*
X-213779Y-31102D02*
Y-29134D01*
X-229134Y-31102D02*
X-213779D01*
X-229134D02*
Y-30118D01*
X-213779Y-5512D02*
Y-3543D01*
X-229134D02*
X-213779D01*
X-229134Y-4528D02*
Y-3543D01*
M02*
