G04*
G04 #@! TF.GenerationSoftware,Altium Limited,Altium Designer,19.0.15 (446)*
G04*
G04 Layer_Color=65535*
%FSLAX25Y25*%
%MOIN*%
G70*
G01*
G75*
%ADD10C,0.02362*%
%ADD11C,0.00984*%
%ADD12C,0.00600*%
%ADD13C,0.00787*%
%ADD14C,0.00591*%
%ADD15C,0.00800*%
%ADD16C,0.00500*%
%ADD17C,0.01181*%
%ADD18C,0.01575*%
G36*
X-66336Y-61760D02*
X-66307Y-61774D01*
X-66278Y-61803D01*
X-66271Y-61810D01*
X-66257Y-61838D01*
X-66243Y-61881D01*
X-66236Y-61946D01*
Y-62907D01*
X-65325Y-62606D01*
X-65318Y-62598D01*
X-65289Y-62591D01*
X-65260Y-62584D01*
X-65224D01*
X-65203Y-62591D01*
X-65174Y-62598D01*
X-65139Y-62627D01*
X-65131Y-62634D01*
X-65117Y-62649D01*
X-65103Y-62685D01*
X-65095Y-62720D01*
Y-62727D01*
Y-62749D01*
X-65110Y-62778D01*
X-65124Y-62814D01*
X-65131Y-62821D01*
X-65146Y-62835D01*
X-65181Y-62849D01*
X-65239Y-62871D01*
X-66149Y-63172D01*
X-65590Y-63946D01*
X-65583Y-63961D01*
X-65561Y-63989D01*
X-65540Y-64032D01*
X-65533Y-64068D01*
Y-64075D01*
X-65540Y-64104D01*
X-65547Y-64133D01*
X-65576Y-64169D01*
X-65583Y-64176D01*
X-65605Y-64190D01*
X-65633Y-64205D01*
X-65676Y-64212D01*
X-65690D01*
X-65719Y-64197D01*
X-65762Y-64169D01*
X-65791Y-64147D01*
X-65812Y-64111D01*
X-66379Y-63337D01*
X-66945Y-64111D01*
Y-64118D01*
X-66960Y-64126D01*
X-66988Y-64161D01*
X-67031Y-64197D01*
X-67053Y-64205D01*
X-67081Y-64212D01*
X-67089D01*
X-67117Y-64205D01*
X-67146Y-64190D01*
X-67182Y-64169D01*
X-67189Y-64161D01*
X-67203Y-64140D01*
X-67218Y-64111D01*
X-67225Y-64068D01*
Y-64061D01*
X-67218Y-64040D01*
X-67203Y-63997D01*
X-67168Y-63946D01*
X-66601Y-63172D01*
X-67519Y-62864D01*
X-67533Y-62857D01*
X-67562Y-62849D01*
X-67605Y-62828D01*
X-67634Y-62806D01*
Y-62799D01*
X-67641Y-62785D01*
X-67648Y-62756D01*
X-67655Y-62720D01*
Y-62713D01*
X-67648Y-62685D01*
X-67641Y-62656D01*
X-67619Y-62627D01*
X-67612Y-62620D01*
X-67591Y-62606D01*
X-67562Y-62591D01*
X-67526Y-62584D01*
X-67497D01*
X-67469Y-62591D01*
X-67426Y-62606D01*
X-66515Y-62907D01*
Y-61946D01*
Y-61939D01*
Y-61932D01*
X-66508Y-61889D01*
X-66501Y-61846D01*
X-66479Y-61803D01*
X-66472Y-61795D01*
X-66451Y-61774D01*
X-66415Y-61760D01*
X-66372Y-61752D01*
X-66365D01*
X-66336Y-61760D01*
D02*
G37*
G36*
Y80366D02*
X-66307Y80352D01*
X-66278Y80323D01*
X-66271Y80316D01*
X-66257Y80288D01*
X-66243Y80245D01*
X-66236Y80180D01*
Y79219D01*
X-65325Y79520D01*
X-65318Y79528D01*
X-65289Y79535D01*
X-65260Y79542D01*
X-65224D01*
X-65203Y79535D01*
X-65174Y79528D01*
X-65139Y79499D01*
X-65131Y79492D01*
X-65117Y79477D01*
X-65103Y79441D01*
X-65095Y79406D01*
Y79399D01*
Y79377D01*
X-65110Y79348D01*
X-65124Y79312D01*
X-65131Y79305D01*
X-65146Y79291D01*
X-65181Y79277D01*
X-65239Y79255D01*
X-66149Y78954D01*
X-65590Y78180D01*
X-65583Y78165D01*
X-65561Y78137D01*
X-65540Y78094D01*
X-65533Y78058D01*
Y78051D01*
X-65540Y78022D01*
X-65547Y77993D01*
X-65576Y77957D01*
X-65583Y77950D01*
X-65605Y77936D01*
X-65633Y77921D01*
X-65676Y77914D01*
X-65690D01*
X-65719Y77929D01*
X-65762Y77957D01*
X-65791Y77979D01*
X-65812Y78015D01*
X-66379Y78789D01*
X-66945Y78015D01*
Y78008D01*
X-66960Y78000D01*
X-66988Y77965D01*
X-67031Y77929D01*
X-67053Y77921D01*
X-67081Y77914D01*
X-67089D01*
X-67117Y77921D01*
X-67146Y77936D01*
X-67182Y77957D01*
X-67189Y77965D01*
X-67203Y77986D01*
X-67218Y78015D01*
X-67225Y78058D01*
Y78065D01*
X-67218Y78086D01*
X-67203Y78129D01*
X-67168Y78180D01*
X-66601Y78954D01*
X-67519Y79262D01*
X-67533Y79269D01*
X-67562Y79277D01*
X-67605Y79298D01*
X-67634Y79320D01*
Y79327D01*
X-67641Y79341D01*
X-67648Y79370D01*
X-67655Y79406D01*
Y79413D01*
X-67648Y79441D01*
X-67641Y79470D01*
X-67619Y79499D01*
X-67612Y79506D01*
X-67591Y79520D01*
X-67562Y79535D01*
X-67526Y79542D01*
X-67497D01*
X-67469Y79535D01*
X-67426Y79520D01*
X-66515Y79219D01*
Y80180D01*
Y80187D01*
Y80194D01*
X-66508Y80237D01*
X-66501Y80280D01*
X-66479Y80323D01*
X-66472Y80331D01*
X-66451Y80352D01*
X-66415Y80366D01*
X-66372Y80374D01*
X-66365D01*
X-66336Y80366D01*
D02*
G37*
D10*
X28937Y-73228D02*
X28492Y-72305D01*
X27493Y-72077D01*
X26692Y-72716D01*
Y-73741D01*
X27493Y-74380D01*
X28492Y-74152D01*
X28937Y-73228D01*
X29331Y60630D02*
X28886Y61553D01*
X27887Y61781D01*
X27086Y61142D01*
Y60118D01*
X27887Y59478D01*
X28886Y59706D01*
X29331Y60630D01*
X-115551Y73425D02*
X-115996Y74349D01*
X-116995Y74577D01*
X-117796Y73938D01*
Y72913D01*
X-116995Y72274D01*
X-115996Y72502D01*
X-115551Y73425D01*
Y-72244D02*
X-115996Y-71321D01*
X-116995Y-71093D01*
X-117796Y-71732D01*
Y-72757D01*
X-116995Y-73396D01*
X-115996Y-73168D01*
X-115551Y-72244D01*
D11*
X36024Y-76850D02*
X35285Y-76424D01*
Y-77277D01*
X36024Y-76850D01*
X36417Y57008D02*
X35679Y57434D01*
Y56582D01*
X36417Y57008D01*
X-125886Y80512D02*
X-126624Y80938D01*
Y80086D01*
X-125886Y80512D01*
Y-65158D02*
X-126624Y-64731D01*
Y-65584D01*
X-125886Y-65158D01*
D12*
X-60255Y-64735D02*
X-59868Y-65569D01*
X-59005Y-65885D01*
X-58171Y-65498D01*
X-57855Y-64635D01*
X-60255Y77391D02*
X-59868Y76557D01*
X-59005Y76241D01*
X-58171Y76628D01*
X-57855Y77491D01*
X70866Y-124016D02*
Y124016D01*
X19685Y-124016D02*
Y124016D01*
X-28740Y-54724D02*
X-27953Y-53937D01*
X-27165Y-55512D01*
X-26378Y-54724D01*
X-28740Y-79921D02*
X-27953Y-79134D01*
X-27165Y-80709D01*
X-26378Y-79921D01*
X-62992Y-64635D02*
X-59055D01*
X-62992Y-81035D02*
X-55118D01*
X-59055Y-64635D02*
X-55118D01*
X-52362Y-57874D02*
X-51575Y-58661D01*
X-52362Y-57874D02*
X-50787Y-57087D01*
X-51575Y-56299D02*
X-50787Y-57087D01*
X-81890Y-72047D02*
X-81102Y-71260D01*
X-80315Y-72835D01*
X-79528Y-72047D01*
X-80709Y45276D02*
X-79921D01*
X-82284D02*
X-81496D01*
Y44488D02*
Y46063D01*
X-80709Y44488D02*
Y46063D01*
X-57087Y-56299D02*
X-56299Y-57087D01*
X-57874Y-57874D02*
X-56299Y-57087D01*
X-57874Y-57874D02*
X-57087Y-58661D01*
X-81890Y-66929D02*
X-81102Y-66142D01*
X-80315Y-67716D01*
X-79528Y-66929D01*
X-28740Y79134D02*
X-27953Y79921D01*
X-27165Y78347D01*
X-26378Y79134D01*
X-28740Y54724D02*
X-27953Y55512D01*
X-27165Y53937D01*
X-26378Y54724D01*
X-62992Y77491D02*
X-59055D01*
X-62992Y61091D02*
X-55118D01*
X-59055Y77491D02*
X-55118D01*
X-52756Y83858D02*
X-51968Y83071D01*
X-52756Y83858D02*
X-51181Y84646D01*
X-51968Y85433D02*
X-51181Y84646D01*
X-81890Y70472D02*
X-81102Y71260D01*
X-80315Y69685D01*
X-79528Y70472D01*
X-57480Y85433D02*
X-56693Y84646D01*
X-58268Y83858D02*
X-56693Y84646D01*
X-58268Y83858D02*
X-57480Y83071D01*
X-81890Y75197D02*
X-81102Y75984D01*
X-80315Y74410D01*
X-79528Y75197D01*
X-59449Y-25984D02*
X-58661Y-25197D01*
X-57874Y-26772D01*
X-57087Y-25984D01*
X-45276Y-9173D02*
X-44488D01*
X-43701D02*
X-42913D01*
X-43701Y-9961D02*
Y-8386D01*
X-44488Y-9961D02*
Y-8386D01*
X-45276Y-19173D02*
X-44488Y-18386D01*
X-43701Y-19961D01*
X-42913Y-19173D01*
X-45276Y827D02*
X-44488Y1614D01*
X-43701Y39D01*
X-42913Y827D01*
X-154724Y-19685D02*
X-153937Y-18898D01*
X-153150Y-20472D01*
X-152362Y-19685D01*
X-153150Y-787D02*
X-152362Y0D01*
X-153937Y787D02*
X-153150Y-787D01*
X-154724Y0D02*
X-153937Y787D01*
X-60630Y1969D02*
X-59842Y2756D01*
X-59055Y1181D01*
X-58268Y1969D01*
X-77756Y-25984D02*
X-76968D01*
X-76181D02*
X-75394D01*
X-76181Y-26772D02*
Y-25197D01*
X-76968Y-26772D02*
Y-25197D01*
X-59055Y6299D02*
X-58268Y7087D01*
X-59842Y7874D02*
X-59055Y6299D01*
X-60630Y7087D02*
X-59842Y7874D01*
X-169291Y100000D02*
X-168504Y99213D01*
X-170079Y98425D02*
X-168504Y99213D01*
X-170079Y98425D02*
X-169291Y97638D01*
X-188583Y-98819D02*
X-187795Y-99606D01*
X-189370Y-100394D02*
X-187795Y-99606D01*
X-189370Y-100394D02*
X-188583Y-101181D01*
X-143701Y-89764D02*
X-142913Y-88976D01*
X-142126Y-90551D01*
X-141339Y-89764D01*
X-141732Y80512D02*
X-140945Y81299D01*
X-142520Y82087D02*
X-141732Y80512D01*
X-143307Y81299D02*
X-142520Y82087D01*
X-102795Y94882D02*
X-102008Y95669D01*
X-103583Y96457D02*
X-102795Y94882D01*
X-104370Y95669D02*
X-103583Y96457D01*
X-200000Y-72441D02*
X-199213Y-73228D01*
X-200787Y-74016D02*
X-199213Y-73228D01*
X-200787Y-74016D02*
X-200000Y-74803D01*
X-184646Y114961D02*
X-183858Y114173D01*
X-185433Y113386D02*
X-183858Y114173D01*
X-185433Y113386D02*
X-184646Y112598D01*
X-179528Y114961D02*
X-178740Y114173D01*
X-180315Y113386D02*
X-178740Y114173D01*
X-180315Y113386D02*
X-179528Y112598D01*
X-140551Y-65354D02*
X-139764Y-64567D01*
X-141339Y-63779D02*
X-140551Y-65354D01*
X-142126Y-64567D02*
X-141339Y-63779D01*
X-102795Y-51181D02*
X-102008Y-50394D01*
X-103583Y-49606D02*
X-102795Y-51181D01*
X-104370Y-50394D02*
X-103583Y-49606D01*
X-113779Y-50394D02*
X-112992D01*
X-115354D02*
X-114567D01*
Y-51181D02*
Y-49606D01*
X-113779Y-51181D02*
Y-49606D01*
X-115748Y95669D02*
X-114961D01*
X-114173D02*
X-113386D01*
X-114173Y94882D02*
Y96457D01*
X-114961Y94882D02*
Y96457D01*
X-62598Y-57087D02*
Y-56299D01*
Y-58661D02*
Y-57874D01*
X-63386D02*
X-61811D01*
X-63386Y-57087D02*
X-61811D01*
X-62992Y84646D02*
Y85433D01*
Y83071D02*
Y83858D01*
X-63779D02*
X-62205D01*
X-63779Y84646D02*
X-62205D01*
D13*
X6890Y-56693D02*
X31693D01*
X6890Y-77165D02*
X31693D01*
X6890D02*
Y-56693D01*
X31693Y-77165D02*
Y-56693D01*
X7283Y77165D02*
X32087D01*
X7283Y56693D02*
X32087D01*
X7283D02*
Y77165D01*
X32087Y56693D02*
Y77165D01*
X-120669Y56496D02*
Y77362D01*
X-99803Y56496D02*
Y77362D01*
X-120669D02*
X-99803D01*
X-120669Y56496D02*
X-99803D01*
X-120669Y-89173D02*
Y-68307D01*
X-99803Y-89173D02*
Y-68307D01*
X-120669D02*
X-99803D01*
X-120669Y-89173D02*
X-99803D01*
X-196063Y-112863D02*
X-194751D01*
X-195407D01*
Y-116798D01*
X-196063D01*
X-194751D01*
X-192783D02*
X-191471D01*
X-192127D01*
Y-112863D01*
X-192783D01*
X-189503Y-116798D02*
X-188191D01*
X-188847D01*
Y-112863D01*
X-189503D01*
X-186224Y-116798D02*
X-184912D01*
X-185568D01*
Y-114174D01*
X-186224D01*
X-182944Y-116798D02*
Y-114174D01*
X-180976D01*
X-180320Y-114831D01*
Y-116798D01*
X-179008D02*
X-177696D01*
X-178352D01*
Y-114174D01*
X-179008D01*
X-169169Y-112863D02*
X-171793D01*
Y-114831D01*
X-170481D01*
X-171793D01*
Y-116798D01*
X-167201D02*
X-165889D01*
X-165233Y-116142D01*
Y-114831D01*
X-165889Y-114174D01*
X-167201D01*
X-167857Y-114831D01*
Y-116142D01*
X-167201Y-116798D01*
X-163921Y-114174D02*
Y-116798D01*
Y-115486D01*
X-163265Y-114831D01*
X-162609Y-114174D01*
X-161953D01*
X-159985Y-116798D02*
Y-114174D01*
X-159329D01*
X-158674Y-114831D01*
Y-116798D01*
Y-114831D01*
X-158018Y-114174D01*
X-157362Y-114831D01*
Y-116798D01*
X-156050Y-114174D02*
Y-116142D01*
X-155394Y-116798D01*
X-153426D01*
Y-114174D01*
X-152114Y-116798D02*
X-150802D01*
X-151458D01*
Y-112863D01*
X-152114D01*
X-148178Y-114174D02*
X-146866D01*
X-146210Y-114831D01*
Y-116798D01*
X-148178D01*
X-148834Y-116142D01*
X-148178Y-115486D01*
X-146210D01*
X-138339Y-112863D02*
X-140963D01*
Y-116798D01*
X-138339D01*
X-140963Y-114831D02*
X-139651D01*
X-137027Y-116798D02*
X-135715D01*
X-136371D01*
Y-112863D01*
X-137027D01*
X-131779Y-116798D02*
X-133091D01*
X-133747Y-116142D01*
Y-114831D01*
X-133091Y-114174D01*
X-131779D01*
X-131123Y-114831D01*
Y-115486D01*
X-133747D01*
X-127188Y-114174D02*
X-129155D01*
X-129811Y-114831D01*
Y-116142D01*
X-129155Y-116798D01*
X-127188D01*
X-125220Y-113519D02*
Y-114174D01*
X-125876D01*
X-124564D01*
X-125220D01*
Y-116142D01*
X-124564Y-116798D01*
X-122596D02*
X-121284D01*
X-121940D01*
Y-114174D01*
X-122596D01*
X-116692D02*
X-118660D01*
X-119316Y-114831D01*
Y-116142D01*
X-118660Y-116798D01*
X-116692D01*
X-111445Y-114831D02*
X-108821D01*
X-103573Y-116798D02*
Y-114174D01*
X-102261Y-112863D01*
X-100949Y-114174D01*
Y-116798D01*
Y-114831D01*
X-103573D01*
X-99637Y-118110D02*
Y-114174D01*
X-97670D01*
X-97014Y-114831D01*
Y-116142D01*
X-97670Y-116798D01*
X-99637D01*
X-95046D02*
X-93734D01*
X-93078Y-116142D01*
Y-114831D01*
X-93734Y-114174D01*
X-95046D01*
X-95702Y-114831D01*
Y-116142D01*
X-95046Y-116798D01*
X-91766D02*
X-90454D01*
X-91110D01*
Y-112863D01*
X-91766D01*
X-88486Y-116798D02*
X-87174D01*
X-87830D01*
Y-112863D01*
X-88486D01*
X-84550Y-116798D02*
X-83239D01*
X-82582Y-116142D01*
Y-114831D01*
X-83239Y-114174D01*
X-84550D01*
X-85206Y-114831D01*
Y-116142D01*
X-84550Y-116798D01*
X-74711D02*
X-77335D01*
X-74711Y-114174D01*
Y-113519D01*
X-75367Y-112863D01*
X-76679D01*
X-77335Y-113519D01*
X-73399D02*
X-72743Y-112863D01*
X-71431D01*
X-70775Y-113519D01*
Y-116142D01*
X-71431Y-116798D01*
X-72743D01*
X-73399Y-116142D01*
Y-113519D01*
X-69463Y-116798D02*
X-68151D01*
X-68807D01*
Y-112863D01*
X-69463Y-113519D01*
X-66184Y-116142D02*
X-65528Y-116798D01*
X-64216D01*
X-63560Y-116142D01*
Y-113519D01*
X-64216Y-112863D01*
X-65528D01*
X-66184Y-113519D01*
Y-114174D01*
X-65528Y-114831D01*
X-63560D01*
D14*
X-75394Y-20669D02*
X-60039D01*
X-75394Y-1378D02*
X-60039D01*
X-30709Y29331D02*
X-10236D01*
X-30709D02*
Y39961D01*
X-10236D01*
Y29331D02*
Y39961D01*
X-27362Y30709D02*
Y38583D01*
X-159043Y-27091D02*
Y-23941D01*
Y4012D02*
Y7161D01*
X-156752Y-3740D02*
X-153937D01*
X-156752Y-5906D02*
Y-3740D01*
Y-15945D02*
Y-13780D01*
Y-15945D02*
X-153937D01*
X-173819Y97638D02*
Y100453D01*
X-175984D02*
X-173819D01*
X-186024D02*
X-183858D01*
X-186024Y97638D02*
Y100453D01*
X-184571Y-94500D02*
X-181421D01*
X-146122Y99016D02*
X-143307D01*
X-146122Y96850D02*
Y99016D01*
Y86811D02*
Y88976D01*
Y86811D02*
X-143307D01*
X-144547Y-73425D02*
X-141732D01*
X-144547Y-75590D02*
Y-73425D01*
Y-85630D02*
Y-83465D01*
Y-85630D02*
X-141732D01*
X-136626Y74138D02*
Y77287D01*
X-191413Y108280D02*
X-188264D01*
X-85236Y101299D02*
Y111299D01*
X-135236Y101299D02*
X-85236D01*
X-135236D02*
Y111299D01*
X-85236D01*
X-176059Y108280D02*
X-172909D01*
X-144547Y-47835D02*
X-141732D01*
X-144547Y-50000D02*
Y-47835D01*
Y-60039D02*
Y-57874D01*
Y-60039D02*
X-141732D01*
X-135445Y-71529D02*
Y-68380D01*
X-85236Y-44370D02*
Y-34370D01*
X-135236Y-44370D02*
X-85236D01*
X-135236D02*
Y-34370D01*
X-85236D01*
D15*
X-104016Y-23311D02*
Y2279D01*
X-107515D02*
X-104015Y2279D01*
X-107515Y-23311D02*
X-104015Y-23312D01*
D16*
X-5708Y-33465D02*
Y25591D01*
X-35236Y-33465D02*
X-5708D01*
X-35236D02*
Y25591D01*
X-5708D01*
D17*
X-174804Y-97640D02*
X-178740D01*
Y-100592D01*
X-176772D01*
X-178740D01*
Y-103543D01*
X-172837D02*
Y-99608D01*
X-170869Y-97640D01*
X-168901Y-99608D01*
Y-103543D01*
Y-100592D01*
X-172837D01*
X-166933Y-97640D02*
Y-102559D01*
X-165949Y-103543D01*
X-163981D01*
X-162997Y-102559D01*
Y-97640D01*
X-161029D02*
Y-103543D01*
X-157094D01*
X-155126Y-97640D02*
X-151190D01*
X-153158D01*
Y-103543D01*
X-164567Y9055D02*
Y12991D01*
X-162599Y14959D01*
X-160631Y12991D01*
Y9055D01*
Y12007D01*
X-164567D01*
X-158663Y14959D02*
X-156695D01*
X-157679D01*
Y9055D01*
X-158663D01*
X-156695D01*
X-153744D02*
Y14959D01*
X-150792D01*
X-149808Y13975D01*
Y12007D01*
X-150792Y11023D01*
X-153744D01*
X-151776D02*
X-149808Y9055D01*
X-200395Y116140D02*
X-204331D01*
Y113188D01*
X-202363Y114172D01*
X-201379D01*
X-200395Y113188D01*
Y111220D01*
X-201379Y110236D01*
X-203347D01*
X-204331Y111220D01*
X-198427Y116140D02*
Y112204D01*
X-196459Y110236D01*
X-194491Y112204D01*
Y116140D01*
X-170866Y115550D02*
X-169882Y116534D01*
X-167914D01*
X-166930Y115550D01*
Y114566D01*
X-167914Y113582D01*
X-168898D01*
X-167914D01*
X-166930Y112598D01*
Y111614D01*
X-167914Y110630D01*
X-169882D01*
X-170866Y111614D01*
X-164962Y116534D02*
Y112598D01*
X-162995Y110630D01*
X-161027Y112598D01*
Y116534D01*
X-159059Y115550D02*
X-158075Y116534D01*
X-156107D01*
X-155123Y115550D01*
Y114566D01*
X-156107Y113582D01*
X-157091D01*
X-156107D01*
X-155123Y112598D01*
Y111614D01*
X-156107Y110630D01*
X-158075D01*
X-159059Y111614D01*
X-158268Y-35433D02*
Y-29530D01*
X-155316D01*
X-154332Y-30513D01*
Y-32481D01*
X-155316Y-33465D01*
X-158268D01*
X-148428Y-30513D02*
X-149412Y-29530D01*
X-151380D01*
X-152364Y-30513D01*
Y-34449D01*
X-151380Y-35433D01*
X-149412D01*
X-148428Y-34449D01*
D18*
X-241867Y61550D02*
X-240424Y62994D01*
Y65880D01*
X-241867Y67323D01*
X-247639D01*
X-249082Y65880D01*
Y62994D01*
X-247639Y61550D01*
X-240424Y58664D02*
X-249082D01*
X-244753D01*
X-243310Y57221D01*
Y54335D01*
X-244753Y52892D01*
X-249082D01*
X-243310Y48562D02*
Y45676D01*
X-244753Y44233D01*
X-249082D01*
Y48562D01*
X-247639Y50006D01*
X-246196Y48562D01*
Y44233D01*
X-249082Y41347D02*
Y38461D01*
Y39904D01*
X-243310D01*
Y41347D01*
X-241867Y32688D02*
X-243310D01*
Y34132D01*
Y31245D01*
Y32688D01*
X-247639D01*
X-249082Y31245D01*
X-243310Y25473D02*
Y22587D01*
X-244753Y21144D01*
X-249082D01*
Y25473D01*
X-247639Y26916D01*
X-246196Y25473D01*
Y21144D01*
X-249082Y18257D02*
X-243310D01*
Y13928D01*
X-244753Y12485D01*
X-249082D01*
X-243310Y9599D02*
X-247639D01*
X-249082Y8156D01*
Y3826D01*
X-250525D01*
X-251969Y5269D01*
Y6713D01*
X-249082Y3826D02*
X-243310D01*
Y-503D02*
Y-3389D01*
X-244753Y-4832D01*
X-249082D01*
Y-503D01*
X-247639Y940D01*
X-246196Y-503D01*
Y-4832D01*
X-241867Y-22150D02*
X-240424Y-20707D01*
Y-17820D01*
X-241867Y-16377D01*
X-243310D01*
X-244753Y-17820D01*
Y-20707D01*
X-246196Y-22150D01*
X-247639D01*
X-249082Y-20707D01*
Y-17820D01*
X-247639Y-16377D01*
X-249082Y-25036D02*
Y-27922D01*
Y-26479D01*
X-243310D01*
Y-25036D01*
X-249082Y-32251D02*
X-243310D01*
Y-36581D01*
X-244753Y-38024D01*
X-249082D01*
X-240424Y-46682D02*
X-249082D01*
Y-42353D01*
X-247639Y-40910D01*
X-244753D01*
X-243310Y-42353D01*
Y-46682D01*
Y-51012D02*
Y-53898D01*
X-244753Y-55341D01*
X-249082D01*
Y-51012D01*
X-247639Y-49569D01*
X-246196Y-51012D01*
Y-55341D01*
X-251969Y-61113D02*
Y-62556D01*
X-250525Y-64000D01*
X-243310D01*
Y-59670D01*
X-244753Y-58227D01*
X-247639D01*
X-249082Y-59670D01*
Y-64000D01*
Y-66886D02*
Y-69772D01*
Y-68329D01*
X-243310D01*
Y-66886D01*
M02*
