G04*
G04 #@! TF.GenerationSoftware,Altium Limited,Altium Designer,19.0.15 (446)*
G04*
G04 Layer_Color=8388736*
%FSLAX25Y25*%
%MOIN*%
G70*
G01*
G75*
%ADD19R,0.03550X0.03353*%
%ADD20R,0.05912X0.05912*%
%ADD21R,0.04731X0.05715*%
%ADD22R,0.10400X0.05400*%
%ADD23R,0.06896X0.13904*%
%ADD24R,0.05900X0.01500*%
%ADD25R,0.03353X0.03550*%
%ADD26R,0.06502X0.02762*%
%ADD27R,0.09061X0.05124*%
%ADD28R,0.30400X0.25400*%
%ADD29R,0.03943X0.03156*%
%ADD30R,0.16148X0.24022*%
%ADD31O,0.08668X0.01581*%
%ADD32O,0.01581X0.08668*%
%ADD33R,0.03156X0.03943*%
%ADD34R,0.05400X0.10400*%
%ADD35R,0.13904X0.06896*%
%ADD36C,0.03943*%
%ADD37C,0.06306*%
%ADD38C,0.04239*%
%ADD39C,0.31896*%
%ADD40C,0.02368*%
%ADD41C,0.02762*%
D19*
X-30512Y-54724D02*
D03*
X-24606D02*
D03*
X-30512Y-79921D02*
D03*
X-24606D02*
D03*
X-83661Y-72047D02*
D03*
X-77756D02*
D03*
X-84055Y45276D02*
D03*
X-78150D02*
D03*
X-83661Y-66929D02*
D03*
X-77756D02*
D03*
X-30512Y79134D02*
D03*
X-24606D02*
D03*
X-30512Y54724D02*
D03*
X-24606D02*
D03*
X-83661Y70472D02*
D03*
X-77756D02*
D03*
X-83661Y75197D02*
D03*
X-77756D02*
D03*
X-61221Y-25984D02*
D03*
X-55315D02*
D03*
X-41142Y-9173D02*
D03*
X-47047D02*
D03*
Y-19173D02*
D03*
X-41142D02*
D03*
X-47047Y827D02*
D03*
X-41142D02*
D03*
X-156496Y-19685D02*
D03*
X-150591D02*
D03*
Y0D02*
D03*
X-156496D02*
D03*
X-62402Y1969D02*
D03*
X-56496D02*
D03*
X-150591Y-25591D02*
D03*
X-156496D02*
D03*
X-150591Y5512D02*
D03*
X-156496D02*
D03*
X-73622Y-25984D02*
D03*
X-79528D02*
D03*
X-56496Y7087D02*
D03*
X-62402D02*
D03*
X-145473Y-89764D02*
D03*
X-139567D02*
D03*
X-139173Y81299D02*
D03*
X-145079D02*
D03*
X-100236Y95669D02*
D03*
X-106142D02*
D03*
X-145079Y75787D02*
D03*
X-139173D02*
D03*
X-137992Y-64567D02*
D03*
X-143898D02*
D03*
X-100236Y-50394D02*
D03*
X-106142D02*
D03*
X-143898Y-69880D02*
D03*
X-137992D02*
D03*
X-117126Y-50394D02*
D03*
X-111221D02*
D03*
X-111614Y95669D02*
D03*
X-117520D02*
D03*
D20*
X3051Y-61929D02*
D03*
Y-71929D02*
D03*
X35531Y-61929D02*
D03*
Y-71929D02*
D03*
X3445Y71929D02*
D03*
Y61929D02*
D03*
X35925Y71929D02*
D03*
Y61929D02*
D03*
D21*
X-31693Y-71358D02*
D03*
X-15551D02*
D03*
Y-62500D02*
D03*
X-31693D02*
D03*
Y62402D02*
D03*
X-15551D02*
D03*
Y71260D02*
D03*
X-31693D02*
D03*
D22*
X108543Y-96457D02*
D03*
Y-84646D02*
D03*
Y-72834D02*
D03*
Y-61023D02*
D03*
Y61023D02*
D03*
Y72834D02*
D03*
Y84646D02*
D03*
Y96457D02*
D03*
X78729Y-23479D02*
D03*
Y-11668D02*
D03*
Y143D02*
D03*
Y11954D02*
D03*
Y23765D02*
D03*
X-214843Y41339D02*
D03*
Y29528D02*
D03*
Y17717D02*
D03*
Y5906D02*
D03*
Y-5906D02*
D03*
Y-17717D02*
D03*
Y-29528D02*
D03*
Y-41339D02*
D03*
X-190669Y25590D02*
D03*
Y37401D02*
D03*
Y49213D02*
D03*
Y61024D02*
D03*
Y-61024D02*
D03*
Y-49213D02*
D03*
Y-37401D02*
D03*
Y-25590D02*
D03*
D23*
X122047Y-45708D02*
D03*
Y-111772D02*
D03*
Y111772D02*
D03*
Y45708D02*
D03*
X92233Y39080D02*
D03*
Y-38794D02*
D03*
X-228346Y-56654D02*
D03*
Y56654D02*
D03*
X-177165Y76339D02*
D03*
Y10275D02*
D03*
Y-10275D02*
D03*
Y-76339D02*
D03*
D24*
X-67655Y-65940D02*
D03*
Y-67910D02*
D03*
Y-69880D02*
D03*
Y-71850D02*
D03*
Y-73820D02*
D03*
Y-75790D02*
D03*
Y-77760D02*
D03*
Y-79730D02*
D03*
X-50455D02*
D03*
Y-77760D02*
D03*
Y-75790D02*
D03*
Y-73820D02*
D03*
Y-71850D02*
D03*
Y-69880D02*
D03*
Y-67910D02*
D03*
Y-65940D02*
D03*
X-67655Y76186D02*
D03*
Y74216D02*
D03*
Y72246D02*
D03*
Y70276D02*
D03*
Y68306D02*
D03*
Y66336D02*
D03*
Y64366D02*
D03*
Y62396D02*
D03*
X-50455D02*
D03*
Y64366D02*
D03*
Y66336D02*
D03*
Y68306D02*
D03*
Y70276D02*
D03*
Y72246D02*
D03*
Y74216D02*
D03*
Y76186D02*
D03*
D25*
X-51575Y-60433D02*
D03*
Y-54528D02*
D03*
X-57087Y-54527D02*
D03*
Y-60433D02*
D03*
X-51968Y81299D02*
D03*
Y87205D02*
D03*
X-57480D02*
D03*
Y81299D02*
D03*
X-169291Y101772D02*
D03*
Y95866D02*
D03*
X-188583Y-97047D02*
D03*
Y-102953D02*
D03*
X-183071D02*
D03*
Y-97047D02*
D03*
X-200000Y-70669D02*
D03*
Y-76575D02*
D03*
X-189764Y116732D02*
D03*
Y110827D02*
D03*
X-184646Y116732D02*
D03*
Y110827D02*
D03*
X-174409Y116732D02*
D03*
Y110827D02*
D03*
X-179528Y116732D02*
D03*
Y110827D02*
D03*
X-62598Y-60433D02*
D03*
Y-54527D02*
D03*
X-62992Y81299D02*
D03*
Y87205D02*
D03*
D26*
X-78347Y-18524D02*
D03*
Y-13524D02*
D03*
Y-8524D02*
D03*
Y-3524D02*
D03*
X-57087D02*
D03*
Y-8524D02*
D03*
Y-13524D02*
D03*
Y-18524D02*
D03*
D27*
X-94882Y-1575D02*
D03*
Y-19685D02*
D03*
D28*
X-124016Y-10630D02*
D03*
D29*
X-150000Y-13583D02*
D03*
Y-6102D02*
D03*
X-157874Y-9843D02*
D03*
X-139370Y89173D02*
D03*
Y96653D02*
D03*
X-147244Y92913D02*
D03*
X-137795Y-83268D02*
D03*
Y-75787D02*
D03*
X-145669Y-79528D02*
D03*
X-137795Y-57677D02*
D03*
Y-50197D02*
D03*
X-145669Y-53937D02*
D03*
D30*
X151378Y-15748D02*
D03*
X116339Y-15551D02*
D03*
Y15748D02*
D03*
X151378Y15551D02*
D03*
D31*
X-126378Y77756D02*
D03*
Y75787D02*
D03*
Y73819D02*
D03*
Y71850D02*
D03*
Y69882D02*
D03*
Y67913D02*
D03*
Y65945D02*
D03*
Y63976D02*
D03*
Y62008D02*
D03*
Y60039D02*
D03*
Y58071D02*
D03*
Y56102D02*
D03*
X-94095D02*
D03*
Y58071D02*
D03*
Y60039D02*
D03*
Y62008D02*
D03*
Y63976D02*
D03*
Y65945D02*
D03*
Y67913D02*
D03*
Y69882D02*
D03*
Y71850D02*
D03*
Y73819D02*
D03*
Y75787D02*
D03*
Y77756D02*
D03*
X-126378Y-67913D02*
D03*
Y-69882D02*
D03*
Y-71850D02*
D03*
Y-73819D02*
D03*
Y-75787D02*
D03*
Y-77756D02*
D03*
Y-79724D02*
D03*
Y-81693D02*
D03*
Y-83661D02*
D03*
Y-85630D02*
D03*
Y-87598D02*
D03*
Y-89567D02*
D03*
X-94095D02*
D03*
Y-87598D02*
D03*
Y-85630D02*
D03*
Y-83661D02*
D03*
Y-81693D02*
D03*
Y-79724D02*
D03*
Y-77756D02*
D03*
Y-75787D02*
D03*
Y-73819D02*
D03*
Y-71850D02*
D03*
Y-69882D02*
D03*
Y-67913D02*
D03*
D32*
X-121063Y50787D02*
D03*
X-119095D02*
D03*
X-117126D02*
D03*
X-115157D02*
D03*
X-113189D02*
D03*
X-111221D02*
D03*
X-109252D02*
D03*
X-107283D02*
D03*
X-105315D02*
D03*
X-103347D02*
D03*
X-101378D02*
D03*
X-99410D02*
D03*
Y83071D02*
D03*
X-101378D02*
D03*
X-103347D02*
D03*
X-105315D02*
D03*
X-107283D02*
D03*
X-109252D02*
D03*
X-111221D02*
D03*
X-113189D02*
D03*
X-115157D02*
D03*
X-117126D02*
D03*
X-119095D02*
D03*
X-121063D02*
D03*
Y-94882D02*
D03*
X-119095D02*
D03*
X-117126D02*
D03*
X-115157D02*
D03*
X-113189D02*
D03*
X-111221D02*
D03*
X-109252D02*
D03*
X-107283D02*
D03*
X-105315D02*
D03*
X-103347D02*
D03*
X-101378D02*
D03*
X-99410D02*
D03*
Y-62598D02*
D03*
X-101378D02*
D03*
X-103347D02*
D03*
X-105315D02*
D03*
X-107283D02*
D03*
X-109252D02*
D03*
X-111221D02*
D03*
X-113189D02*
D03*
X-115157D02*
D03*
X-117126D02*
D03*
X-119095D02*
D03*
X-121063D02*
D03*
D33*
X-183661Y93701D02*
D03*
X-176181D02*
D03*
X-179921Y101575D02*
D03*
D34*
X-135827Y37126D02*
D03*
X-124016D02*
D03*
X-112204D02*
D03*
X-100393D02*
D03*
D35*
X-85078Y23622D02*
D03*
X-151142D02*
D03*
D36*
X-30472Y1063D02*
D03*
Y-8937D02*
D03*
Y-18937D02*
D03*
X-10472D02*
D03*
Y-8937D02*
D03*
Y1063D02*
D03*
Y21063D02*
D03*
X-30472D02*
D03*
D37*
X-787Y34646D02*
D03*
X-40157D02*
D03*
X-90236Y106299D02*
D03*
X-100236D02*
D03*
X-110236D02*
D03*
X-120236D02*
D03*
X-130236D02*
D03*
X-90236Y-39370D02*
D03*
X-100236D02*
D03*
X-110236D02*
D03*
X-120236D02*
D03*
X-130236D02*
D03*
D38*
X51181Y40000D02*
D03*
Y10000D02*
D03*
Y-10000D02*
D03*
Y-40000D02*
D03*
D39*
X-221457Y98425D02*
D03*
Y-98425D02*
D03*
X1969D02*
D03*
Y98425D02*
D03*
D40*
X-62992Y87205D02*
D03*
X-57480Y81299D02*
D03*
X-50653Y71260D02*
D03*
X-50465Y-70871D02*
D03*
X-78347Y88189D02*
D03*
X-90551Y85039D02*
D03*
X-78150Y45276D02*
D03*
X-212598Y17323D02*
D03*
X-217323D02*
D03*
X-106299Y44488D02*
D03*
X-113675Y89764D02*
D03*
X-113189Y-54724D02*
D03*
X-137795Y-50197D02*
D03*
X-139370Y-77165D02*
D03*
X-135827Y35039D02*
D03*
Y40000D02*
D03*
X-117520Y95669D02*
D03*
X-139370Y96653D02*
D03*
X-176181Y93701D02*
D03*
X-179528Y116732D02*
D03*
X-184646D02*
D03*
X-188976Y37402D02*
D03*
X-192913Y37401D02*
D03*
X-188583Y25197D02*
D03*
X-192913Y25591D02*
D03*
X-150000Y-6102D02*
D03*
X-156496Y5512D02*
D03*
X-92913Y-1772D02*
D03*
X-96850D02*
D03*
X-79528Y-27559D02*
D03*
X-62402Y7087D02*
D03*
X-57087Y-3524D02*
D03*
X-47047Y-9173D02*
D03*
Y827D02*
D03*
X-57087Y-60433D02*
D03*
X-62598Y-54527D02*
D03*
D41*
X-139764Y-98032D02*
D03*
X-92205Y-32283D02*
D03*
X-149213Y-42126D02*
D03*
X-191042Y-61024D02*
D03*
X-169488Y101575D02*
D03*
X-183661Y93701D02*
D03*
X-183465Y53150D02*
D03*
X-100394Y74429D02*
D03*
X-97244Y83858D02*
D03*
X-109055Y90551D02*
D03*
X-85933Y89764D02*
D03*
X-90551Y92520D02*
D03*
X-107730Y-55905D02*
D03*
X-103820D02*
D03*
X-94488Y-63779D02*
D03*
X-200394Y-77165D02*
D03*
X-240158Y-34252D02*
D03*
X-214961Y-35201D02*
D03*
X12992Y-9843D02*
D03*
X-24606Y66929D02*
D03*
X-84055Y66142D02*
D03*
X-100393Y37126D02*
D03*
X-83858Y-69685D02*
D03*
X-214843Y29528D02*
D03*
X-205906Y-5906D02*
D03*
X-199606Y-31890D02*
D03*
X-156496Y-88976D02*
D03*
X-199606Y-20079D02*
D03*
X-156496Y-68110D02*
D03*
X-113386Y68504D02*
D03*
X-117126Y-83661D02*
D03*
X-125197Y84646D02*
D03*
X-130709Y-59842D02*
D03*
X-133858Y59429D02*
D03*
X-134252Y67716D02*
D03*
X-85433Y80315D02*
D03*
X-133465Y-85433D02*
D03*
X-102362Y-101969D02*
D03*
X-90158Y-62598D02*
D03*
X-190669Y61024D02*
D03*
X-183071Y-96850D02*
D03*
X-145669Y-53937D02*
D03*
X-116654Y64567D02*
D03*
X-118504Y70472D02*
D03*
X-139370Y89173D02*
D03*
X-112992Y74803D02*
D03*
X-116535Y59055D02*
D03*
X-118898Y61811D02*
D03*
X-105905Y59429D02*
D03*
Y74429D02*
D03*
Y-86221D02*
D03*
Y-71240D02*
D03*
X-119291Y-79921D02*
D03*
X-137795Y-57677D02*
D03*
X-112598Y-71653D02*
D03*
X-156693Y-19685D02*
D03*
X-183465Y-25591D02*
D03*
X-110236Y-106299D02*
D03*
X-114173D02*
D03*
X-118110D02*
D03*
X-122047D02*
D03*
X-77559Y-75590D02*
D03*
X-82677Y-77165D02*
D03*
X-77756Y-72047D02*
D03*
Y-66929D02*
D03*
X-77165Y66142D02*
D03*
X-73622Y69685D02*
D03*
X-77756Y75197D02*
D03*
Y70472D02*
D03*
X-24606Y-66929D02*
D03*
X139764Y-15748D02*
D03*
X88976Y-1181D02*
D03*
Y12205D02*
D03*
X139764Y16142D02*
D03*
M02*
