G04*
G04 #@! TF.GenerationSoftware,Altium Limited,Altium Designer,19.0.15 (446)*
G04*
G04 Layer_Color=16711935*
%FSLAX25Y25*%
%MOIN*%
G70*
G01*
G75*
%ADD19R,0.03550X0.03353*%
%ADD25R,0.03353X0.03550*%
%ADD26R,0.06502X0.02762*%
%ADD29R,0.03943X0.03156*%
%ADD36C,0.03943*%
%ADD37C,0.06306*%
%ADD38C,0.04239*%
%ADD39C,0.31896*%
%ADD40C,0.02368*%
%ADD41C,0.02762*%
%ADD69R,0.05124X0.14573*%
%ADD70R,0.05124X0.05124*%
D19*
X-208465Y-67913D02*
D03*
X-214370D02*
D03*
X-138779Y76378D02*
D03*
X-144685D02*
D03*
X-150591D02*
D03*
X-156496D02*
D03*
X-138779Y57087D02*
D03*
X-144685D02*
D03*
X-150591D02*
D03*
X-156496D02*
D03*
X-150591Y-88976D02*
D03*
X-156496D02*
D03*
X-138779Y-68110D02*
D03*
X-144685D02*
D03*
X-150591D02*
D03*
X-156496D02*
D03*
X-138779Y-88976D02*
D03*
X-144685D02*
D03*
X-24606Y66929D02*
D03*
X-30512D02*
D03*
X-24606Y-66929D02*
D03*
X-30512D02*
D03*
D25*
X-155512Y69882D02*
D03*
Y63976D02*
D03*
Y-75787D02*
D03*
Y-81693D02*
D03*
D26*
X-127165Y74429D02*
D03*
Y69429D02*
D03*
Y64429D02*
D03*
Y59429D02*
D03*
X-105905D02*
D03*
Y64429D02*
D03*
Y69429D02*
D03*
Y74429D02*
D03*
X-127165Y-71240D02*
D03*
Y-76240D02*
D03*
Y-81240D02*
D03*
Y-86240D02*
D03*
X-105905D02*
D03*
Y-81240D02*
D03*
Y-76240D02*
D03*
Y-71240D02*
D03*
D29*
X-148425Y62992D02*
D03*
Y70472D02*
D03*
X-140551Y66732D02*
D03*
X-148425Y-82480D02*
D03*
Y-75000D02*
D03*
X-140551Y-78740D02*
D03*
D36*
X-30472Y1063D02*
D03*
Y-8937D02*
D03*
Y-18937D02*
D03*
X-10472D02*
D03*
Y-8937D02*
D03*
Y1063D02*
D03*
Y21063D02*
D03*
X-30472D02*
D03*
D37*
X-787Y34646D02*
D03*
X-40157D02*
D03*
X-90236Y106299D02*
D03*
X-100236D02*
D03*
X-110236D02*
D03*
X-120236D02*
D03*
X-130236D02*
D03*
X-90236Y-39370D02*
D03*
X-100236D02*
D03*
X-110236D02*
D03*
X-120236D02*
D03*
X-130236D02*
D03*
D38*
X51181Y40000D02*
D03*
Y10000D02*
D03*
Y-10000D02*
D03*
Y-40000D02*
D03*
D39*
X-221457Y98425D02*
D03*
Y-98425D02*
D03*
X1969D02*
D03*
Y98425D02*
D03*
D40*
X-62992Y87205D02*
D03*
X-57480Y81299D02*
D03*
X-50653Y71260D02*
D03*
X-50465Y-70871D02*
D03*
X-78347Y88189D02*
D03*
X-90551Y85039D02*
D03*
X-78150Y45276D02*
D03*
X-212598Y17323D02*
D03*
X-217323D02*
D03*
X-106299Y44488D02*
D03*
X-113675Y89764D02*
D03*
X-113189Y-54724D02*
D03*
X-137795Y-50197D02*
D03*
X-139370Y-77165D02*
D03*
X-135827Y35039D02*
D03*
Y40000D02*
D03*
X-117520Y95669D02*
D03*
X-139370Y96653D02*
D03*
X-176181Y93701D02*
D03*
X-179528Y116732D02*
D03*
X-184646D02*
D03*
X-188976Y37402D02*
D03*
X-192913Y37401D02*
D03*
X-188583Y25197D02*
D03*
X-192913Y25591D02*
D03*
X-150000Y-6102D02*
D03*
X-156496Y5512D02*
D03*
X-92913Y-1772D02*
D03*
X-96850D02*
D03*
X-79528Y-27559D02*
D03*
X-62402Y7087D02*
D03*
X-57087Y-3524D02*
D03*
X-47047Y-9173D02*
D03*
Y827D02*
D03*
X-57087Y-60433D02*
D03*
X-62598Y-54527D02*
D03*
D41*
X-139764Y-98032D02*
D03*
X-92205Y-32283D02*
D03*
X-149213Y-42126D02*
D03*
X-191042Y-61024D02*
D03*
X-169488Y101575D02*
D03*
X-183661Y93701D02*
D03*
X-183465Y53150D02*
D03*
X-100394Y74429D02*
D03*
X-97244Y83858D02*
D03*
X-109055Y90551D02*
D03*
X-85933Y89764D02*
D03*
X-90551Y92520D02*
D03*
X-107730Y-55905D02*
D03*
X-103820D02*
D03*
X-94488Y-63779D02*
D03*
X-200394Y-77165D02*
D03*
X-240158Y-34252D02*
D03*
X-214961Y-35201D02*
D03*
X12992Y-9843D02*
D03*
X-24606Y66929D02*
D03*
X-84055Y66142D02*
D03*
X-100393Y37126D02*
D03*
X-83858Y-69685D02*
D03*
X-214843Y29528D02*
D03*
X-205906Y-5906D02*
D03*
X-199606Y-31890D02*
D03*
X-156496Y-88976D02*
D03*
X-199606Y-20079D02*
D03*
X-156496Y-68110D02*
D03*
X-113386Y68504D02*
D03*
X-117126Y-83661D02*
D03*
X-125197Y84646D02*
D03*
X-130709Y-59842D02*
D03*
X-133858Y59429D02*
D03*
X-134252Y67716D02*
D03*
X-85433Y80315D02*
D03*
X-133465Y-85433D02*
D03*
X-102362Y-101969D02*
D03*
X-90158Y-62598D02*
D03*
X-190669Y61024D02*
D03*
X-183071Y-96850D02*
D03*
X-145669Y-53937D02*
D03*
X-116654Y64567D02*
D03*
X-118504Y70472D02*
D03*
X-139370Y89173D02*
D03*
X-112992Y74803D02*
D03*
X-116535Y59055D02*
D03*
X-118898Y61811D02*
D03*
X-105905Y59429D02*
D03*
Y74429D02*
D03*
Y-86221D02*
D03*
Y-71240D02*
D03*
X-119291Y-79921D02*
D03*
X-137795Y-57677D02*
D03*
X-112598Y-71653D02*
D03*
X-156693Y-19685D02*
D03*
X-183465Y-25591D02*
D03*
X-110236Y-106299D02*
D03*
X-114173D02*
D03*
X-118110D02*
D03*
X-122047D02*
D03*
X-77559Y-75590D02*
D03*
X-82677Y-77165D02*
D03*
X-77756Y-72047D02*
D03*
Y-66929D02*
D03*
X-77165Y66142D02*
D03*
X-73622Y69685D02*
D03*
X-77756Y75197D02*
D03*
Y70472D02*
D03*
X-24606Y-66929D02*
D03*
X139764Y-15748D02*
D03*
X88976Y-1181D02*
D03*
Y12205D02*
D03*
X139764Y16142D02*
D03*
D69*
X-209449Y-50000D02*
D03*
Y-17323D02*
D03*
D70*
X-233465Y-40945D02*
D03*
Y-50000D02*
D03*
Y-59055D02*
D03*
Y-8268D02*
D03*
Y-17323D02*
D03*
Y-26378D02*
D03*
M02*
