G04*
G04 #@! TF.GenerationSoftware,Altium Limited,Altium Designer,19.0.15 (446)*
G04*
G04 Layer_Physical_Order=2*
G04 Layer_Color=16711680*
%FSLAX25Y25*%
%MOIN*%
G70*
G01*
G75*
%ADD12C,0.00600*%
%ADD42R,0.03150X0.02953*%
%ADD48R,0.02953X0.03150*%
%ADD49R,0.06102X0.02362*%
%ADD52R,0.03543X0.02756*%
%ADD59C,0.01000*%
%ADD60C,0.03543*%
%ADD61C,0.05906*%
%ADD62C,0.03838*%
%ADD63C,0.31496*%
%ADD64C,0.01968*%
%ADD65C,0.02362*%
%ADD66R,0.04724X0.14173*%
%ADD67R,0.04724X0.04724*%
%ADD68C,0.10000*%
G36*
X19685Y11122D02*
X-18945D01*
X-28192Y20369D01*
X-28054Y21063D01*
X-28238Y21988D01*
X-28763Y22773D01*
X-29547Y23297D01*
X-30472Y23481D01*
X-31398Y23297D01*
X-31404Y23292D01*
X-38894Y30782D01*
X-38777Y31372D01*
X-38366Y31542D01*
X-37624Y32112D01*
X-37054Y32854D01*
X-36696Y33718D01*
X-36574Y34646D01*
X-36696Y35573D01*
X-37054Y36437D01*
X-37624Y37179D01*
X-38366Y37749D01*
X-39230Y38107D01*
X-40157Y38229D01*
X-41085Y38107D01*
X-41949Y37749D01*
X-42691Y37179D01*
X-43261Y36437D01*
X-43619Y35573D01*
X-43741Y34646D01*
X-43619Y33718D01*
X-43261Y32854D01*
X-42691Y32112D01*
X-41949Y31542D01*
X-41085Y31184D01*
X-41075Y31183D01*
Y30748D01*
X-41005Y30397D01*
X-40806Y30099D01*
X-32702Y21995D01*
X-32706Y21988D01*
X-32890Y21063D01*
X-32706Y20138D01*
X-32182Y19353D01*
X-31398Y18829D01*
X-30472Y18645D01*
X-29779Y18783D01*
X-20202Y9207D01*
X-19839Y8964D01*
X-19410Y8878D01*
X-19409Y8878D01*
X19685D01*
Y-122907D01*
X-254403D01*
Y122907D01*
X19685D01*
Y11122D01*
D02*
G37*
%LPC*%
G36*
X-179028Y118656D02*
Y117232D01*
X-177604D01*
X-177658Y117507D01*
X-178097Y118163D01*
X-178753Y118601D01*
X-179028Y118656D01*
D02*
G37*
G36*
X-180028D02*
X-180302Y118601D01*
X-180958Y118163D01*
X-181397Y117507D01*
X-181451Y117232D01*
X-180028D01*
Y118656D01*
D02*
G37*
G36*
X-184146D02*
Y117232D01*
X-182722D01*
X-182776Y117507D01*
X-183215Y118163D01*
X-183871Y118601D01*
X-184146Y118656D01*
D02*
G37*
G36*
X-185146D02*
X-185420Y118601D01*
X-186076Y118163D01*
X-186515Y117507D01*
X-186569Y117232D01*
X-185146D01*
Y118656D01*
D02*
G37*
G36*
X-177604Y116232D02*
X-179028D01*
Y114809D01*
X-178753Y114863D01*
X-178097Y115302D01*
X-177658Y115958D01*
X-177604Y116232D01*
D02*
G37*
G36*
X-180028D02*
X-181451D01*
X-181397Y115958D01*
X-180958Y115302D01*
X-180302Y114863D01*
X-180028Y114809D01*
Y116232D01*
D02*
G37*
G36*
X-182722D02*
X-184146D01*
Y114809D01*
X-183871Y114863D01*
X-183215Y115302D01*
X-182776Y115958D01*
X-182722Y116232D01*
D02*
G37*
G36*
X-185146D02*
X-186569D01*
X-186515Y115958D01*
X-186076Y115302D01*
X-185420Y114863D01*
X-185146Y114809D01*
Y116232D01*
D02*
G37*
G36*
X-93243Y117059D02*
X-154921D01*
X-155272Y116990D01*
X-155570Y116791D01*
X-169056Y103305D01*
X-169488Y103391D01*
X-170183Y103253D01*
X-170772Y102859D01*
X-171166Y102270D01*
X-171304Y101575D01*
X-171166Y100880D01*
X-170772Y100291D01*
X-170183Y99897D01*
X-169488Y99759D01*
X-168793Y99897D01*
X-168204Y100291D01*
X-167810Y100880D01*
X-167672Y101575D01*
X-167758Y102007D01*
X-154541Y115224D01*
X-93624D01*
X-88272Y109872D01*
X-88555Y109448D01*
X-89309Y109760D01*
X-90236Y109883D01*
X-91164Y109760D01*
X-92028Y109403D01*
X-92036Y109397D01*
X-95887Y113247D01*
X-96184Y113446D01*
X-96535Y113516D01*
X-121653D01*
X-122005Y113446D01*
X-122302Y113247D01*
X-125846Y109704D01*
X-126045Y109406D01*
X-126114Y109055D01*
Y107984D01*
X-126614Y107885D01*
X-126784Y108293D01*
X-127417Y109118D01*
X-128243Y109752D01*
X-129204Y110150D01*
X-129736Y110220D01*
Y106299D01*
Y102378D01*
X-129204Y102448D01*
X-128243Y102847D01*
X-127417Y103480D01*
X-126784Y104306D01*
X-126614Y104714D01*
X-126114Y104614D01*
Y86175D01*
X-126481Y85930D01*
X-126875Y85341D01*
X-127013Y84646D01*
X-126875Y83951D01*
X-126481Y83362D01*
X-125892Y82968D01*
X-125197Y82830D01*
X-124502Y82968D01*
X-123913Y83362D01*
X-123519Y83951D01*
X-123381Y84646D01*
X-123519Y85341D01*
X-123913Y85930D01*
X-124279Y86175D01*
Y105959D01*
X-123779Y105992D01*
X-123697Y105372D01*
X-123340Y104508D01*
X-122770Y103765D01*
X-122028Y103196D01*
X-121164Y102838D01*
X-120236Y102716D01*
X-119309Y102838D01*
X-118445Y103196D01*
X-118125Y103441D01*
X-98974Y84290D01*
X-99060Y83858D01*
X-98922Y83163D01*
X-98528Y82574D01*
X-97939Y82181D01*
X-97244Y82042D01*
X-96549Y82181D01*
X-96299Y82347D01*
X-95799Y82080D01*
Y80321D01*
X-99961Y76159D01*
X-100394Y76245D01*
X-101089Y76107D01*
X-101678Y75713D01*
X-101754Y75599D01*
X-102254Y75750D01*
Y76210D01*
X-105730D01*
X-105905Y76245D01*
X-106081Y76210D01*
X-108939D01*
Y88758D01*
X-108360Y88873D01*
X-107771Y89267D01*
X-107377Y89856D01*
X-107239Y90551D01*
X-107377Y91246D01*
X-107771Y91835D01*
X-108360Y92229D01*
X-109055Y92367D01*
X-109750Y92229D01*
X-110339Y91835D01*
X-110733Y91246D01*
X-110871Y90551D01*
X-110733Y89856D01*
X-110656Y89742D01*
X-110705Y89670D01*
X-110774Y89319D01*
Y75826D01*
X-110901Y75727D01*
X-111547Y75846D01*
X-111708Y76087D01*
X-112297Y76481D01*
X-112992Y76619D01*
X-113687Y76481D01*
X-114276Y76087D01*
X-114521Y75721D01*
X-121654D01*
X-123092Y77159D01*
X-123390Y77358D01*
X-123741Y77428D01*
X-126327D01*
X-137640Y88741D01*
X-137554Y89173D01*
X-137692Y89868D01*
X-138086Y90457D01*
X-138675Y90851D01*
X-139370Y90989D01*
X-140065Y90851D01*
X-140654Y90457D01*
X-141048Y89868D01*
X-141186Y89173D01*
X-141048Y88478D01*
X-140654Y87889D01*
X-140065Y87495D01*
X-139370Y87357D01*
X-138938Y87443D01*
X-128567Y77072D01*
X-128758Y76610D01*
X-131217D01*
Y74929D01*
X-127165D01*
Y74429D01*
X-126665D01*
Y72248D01*
X-123114D01*
Y73968D01*
X-122614Y74108D01*
X-122386Y73955D01*
X-122034Y73886D01*
X-115056D01*
X-115040Y73859D01*
X-115323Y73359D01*
X-116535D01*
X-116887Y73289D01*
X-117184Y73090D01*
X-118072Y72202D01*
X-118504Y72288D01*
X-119199Y72150D01*
X-119788Y71757D01*
X-120182Y71167D01*
X-120320Y70472D01*
X-120182Y69778D01*
X-119788Y69188D01*
X-119199Y68795D01*
X-118504Y68656D01*
X-117809Y68795D01*
X-117220Y69188D01*
X-116826Y69778D01*
X-116688Y70472D01*
X-116774Y70905D01*
X-116155Y71523D01*
X-112765D01*
X-112558Y71023D01*
X-113282Y70299D01*
X-113386Y70320D01*
X-114081Y70182D01*
X-114670Y69788D01*
X-115064Y69199D01*
X-115202Y68504D01*
X-115064Y67809D01*
X-114670Y67220D01*
X-114081Y66826D01*
X-113386Y66688D01*
X-112691Y66826D01*
X-112102Y67220D01*
X-111708Y67809D01*
X-111570Y68504D01*
X-111708Y69199D01*
X-111740Y69246D01*
X-110457Y70529D01*
X-109957Y70439D01*
Y69929D01*
X-105905D01*
X-101854D01*
Y70593D01*
X-91876D01*
X-91524Y70662D01*
X-91227Y70861D01*
X-87809Y74279D01*
X-79285D01*
X-79040Y73913D01*
X-78451Y73519D01*
X-77756Y73381D01*
X-77061Y73519D01*
X-76472Y73913D01*
X-76078Y74502D01*
X-76019Y74801D01*
X-75476Y74966D01*
X-70228Y69718D01*
Y55995D01*
X-72531Y53692D01*
X-89385D01*
X-89736Y53623D01*
X-90034Y53424D01*
X-104323Y39134D01*
X-104522Y38836D01*
X-104592Y38485D01*
Y-22837D01*
X-104522Y-23188D01*
X-104323Y-23486D01*
X-97222Y-30588D01*
Y-36685D01*
X-97544Y-36794D01*
X-97722Y-36821D01*
X-98444Y-36267D01*
X-99309Y-35909D01*
X-100236Y-35787D01*
X-101164Y-35909D01*
X-102028Y-36267D01*
X-102770Y-36836D01*
X-103340Y-37578D01*
X-103698Y-38443D01*
X-103820Y-39370D01*
X-103698Y-40297D01*
X-103340Y-41162D01*
X-103333Y-41170D01*
X-110885Y-48721D01*
X-111084Y-49019D01*
X-111154Y-49370D01*
Y-53299D01*
X-111654Y-53450D01*
X-111758Y-53294D01*
X-112415Y-52855D01*
X-112689Y-52801D01*
Y-54724D01*
Y-56648D01*
X-112415Y-56594D01*
X-111758Y-56155D01*
X-111654Y-55998D01*
X-111154Y-56150D01*
Y-69875D01*
X-111654Y-70143D01*
X-111904Y-69976D01*
X-112598Y-69837D01*
X-113293Y-69976D01*
X-113883Y-70369D01*
X-114127Y-70736D01*
X-120867D01*
X-123092Y-68510D01*
X-123390Y-68311D01*
X-123741Y-68241D01*
X-125933D01*
X-136065Y-58109D01*
X-135979Y-57677D01*
X-136117Y-56982D01*
X-136511Y-56393D01*
X-137100Y-55999D01*
X-137795Y-55861D01*
X-138490Y-55999D01*
X-139079Y-56393D01*
X-139473Y-56982D01*
X-139611Y-57677D01*
X-139473Y-58372D01*
X-139079Y-58961D01*
X-138490Y-59355D01*
X-137795Y-59493D01*
X-137363Y-59407D01*
X-128173Y-68597D01*
X-128364Y-69059D01*
X-131217D01*
Y-70740D01*
X-127165D01*
Y-71240D01*
X-126665D01*
Y-73421D01*
X-123114D01*
Y-71737D01*
X-122652Y-71546D01*
X-121896Y-72302D01*
X-121598Y-72501D01*
X-121247Y-72571D01*
X-114127D01*
X-113883Y-72938D01*
X-113293Y-73331D01*
X-112598Y-73470D01*
X-112430Y-73436D01*
X-111867Y-73834D01*
X-111852Y-73940D01*
X-116916Y-79004D01*
X-117762D01*
X-118007Y-78637D01*
X-118596Y-78243D01*
X-119291Y-78105D01*
X-119986Y-78243D01*
X-120575Y-78637D01*
X-120969Y-79226D01*
X-121107Y-79921D01*
X-120969Y-80616D01*
X-120575Y-81205D01*
X-119986Y-81599D01*
X-119291Y-81737D01*
X-118596Y-81599D01*
X-118007Y-81205D01*
X-117762Y-80839D01*
X-116535D01*
X-116184Y-80769D01*
X-115887Y-80570D01*
X-110419Y-75102D01*
X-109957Y-75293D01*
Y-75740D01*
X-106405D01*
Y-74059D01*
X-108896D01*
X-109319Y-73622D01*
Y-73021D01*
X-106081D01*
X-105905Y-73056D01*
X-105730Y-73021D01*
X-102254D01*
Y-69459D01*
X-105730D01*
X-105905Y-69424D01*
X-106081Y-69459D01*
X-109319D01*
Y-57565D01*
X-108819Y-57320D01*
X-108425Y-57583D01*
X-107730Y-57722D01*
X-107035Y-57583D01*
X-106446Y-57190D01*
X-106052Y-56600D01*
X-106030Y-56488D01*
X-105520D01*
X-105497Y-56600D01*
X-105104Y-57190D01*
X-104515Y-57583D01*
X-103820Y-57722D01*
X-103125Y-57583D01*
X-102535Y-57190D01*
X-102142Y-56600D01*
X-102004Y-55905D01*
X-102142Y-55211D01*
X-102535Y-54621D01*
X-102902Y-54377D01*
Y-50479D01*
X-95884Y-43461D01*
X-95567Y-43568D01*
X-95406Y-43690D01*
Y-62251D01*
X-95772Y-62495D01*
X-96166Y-63085D01*
X-96304Y-63779D01*
X-96166Y-64474D01*
X-95772Y-65064D01*
X-95183Y-65457D01*
X-94488Y-65596D01*
X-93793Y-65457D01*
X-93204Y-65064D01*
X-92810Y-64474D01*
X-92672Y-63779D01*
X-92810Y-63085D01*
X-93204Y-62495D01*
X-93571Y-62251D01*
Y-44002D01*
X-92036Y-42467D01*
X-92028Y-42473D01*
X-91164Y-42831D01*
X-90236Y-42954D01*
X-89309Y-42831D01*
X-88445Y-42473D01*
X-87702Y-41904D01*
X-87133Y-41162D01*
X-86775Y-40297D01*
X-86653Y-39370D01*
X-86775Y-38443D01*
X-87133Y-37578D01*
X-87702Y-36836D01*
X-88445Y-36267D01*
X-89309Y-35909D01*
X-90236Y-35787D01*
X-91164Y-35909D01*
X-92028Y-36267D01*
X-92770Y-36836D01*
X-93340Y-37578D01*
X-93698Y-38443D01*
X-94187Y-38366D01*
Y-33292D01*
X-93686Y-33272D01*
X-93489Y-33568D01*
X-92900Y-33961D01*
X-92205Y-34100D01*
X-91510Y-33961D01*
X-90921Y-33568D01*
X-90527Y-32978D01*
X-90389Y-32283D01*
X-90527Y-31589D01*
X-90921Y-30999D01*
X-91510Y-30606D01*
X-92205Y-30468D01*
X-92900Y-30606D01*
X-93489Y-30999D01*
X-93686Y-31295D01*
X-94187Y-31275D01*
Y-29710D01*
X-94256Y-29359D01*
X-94455Y-29061D01*
X-101557Y-21960D01*
Y-19098D01*
X-101057Y-18915D01*
X-84980Y-34992D01*
Y-68292D01*
X-85142Y-68401D01*
X-85251Y-68563D01*
X-88976D01*
X-88976Y-68563D01*
X-89406Y-68649D01*
X-89769Y-68892D01*
X-89770Y-68892D01*
X-100996Y-80119D01*
X-102254D01*
Y-79459D01*
X-109557D01*
Y-80374D01*
X-109843D01*
X-110272Y-80460D01*
X-110636Y-80703D01*
X-110636Y-80703D01*
X-126842Y-96910D01*
X-138371D01*
X-138480Y-96747D01*
X-139069Y-96354D01*
X-139764Y-96215D01*
X-140459Y-96354D01*
X-141048Y-96747D01*
X-141156Y-96910D01*
X-176849D01*
X-177040Y-96448D01*
X-164706Y-84113D01*
X-164506Y-83816D01*
X-164437Y-83465D01*
Y-63372D01*
X-155919Y-54855D01*
X-147198D01*
X-146953Y-55221D01*
X-146364Y-55615D01*
X-145669Y-55753D01*
X-144974Y-55615D01*
X-144385Y-55221D01*
X-143991Y-54632D01*
X-143853Y-53937D01*
X-143991Y-53242D01*
X-144385Y-52653D01*
X-144974Y-52259D01*
X-145669Y-52121D01*
X-146364Y-52259D01*
X-146953Y-52653D01*
X-147198Y-53019D01*
X-156299D01*
X-156650Y-53089D01*
X-156948Y-53288D01*
X-166003Y-62343D01*
X-166202Y-62641D01*
X-166272Y-62992D01*
Y-83084D01*
X-179120Y-95933D01*
X-181542D01*
X-181787Y-95566D01*
X-182376Y-95173D01*
X-183071Y-95034D01*
X-183766Y-95173D01*
X-184355Y-95566D01*
X-184749Y-96155D01*
X-184809Y-96461D01*
X-185092Y-96876D01*
X-185370Y-96910D01*
X-188906D01*
X-207343Y-78473D01*
Y-69990D01*
X-206290D01*
Y-65837D01*
X-207343D01*
Y-57687D01*
X-206487D01*
Y-54786D01*
X-205455Y-53994D01*
X-204557Y-52824D01*
X-203993Y-51462D01*
X-203801Y-50000D01*
X-203993Y-48538D01*
X-204557Y-47176D01*
X-205455Y-46006D01*
X-206487Y-45214D01*
Y-42313D01*
X-212411D01*
Y-44352D01*
X-230369D01*
X-230502Y-43907D01*
X-230502Y-43852D01*
Y-37983D01*
X-234841D01*
X-236988Y-35835D01*
X-236796Y-35373D01*
X-216742D01*
X-216638Y-35896D01*
X-216245Y-36485D01*
X-215656Y-36879D01*
X-214961Y-37017D01*
X-214266Y-36879D01*
X-213677Y-36485D01*
X-213283Y-35896D01*
X-213145Y-35201D01*
X-213283Y-34506D01*
X-213677Y-33917D01*
X-214266Y-33523D01*
X-214961Y-33385D01*
X-215417Y-33476D01*
X-215435Y-33459D01*
X-215798Y-33216D01*
X-216228Y-33130D01*
X-216228Y-33130D01*
X-238765D01*
X-238873Y-32968D01*
X-239036Y-32859D01*
Y-19813D01*
X-238536Y-19713D01*
X-238356Y-20147D01*
X-237458Y-21317D01*
X-236289Y-22214D01*
X-234927Y-22779D01*
X-233465Y-22971D01*
X-212411D01*
Y-25009D01*
X-210570D01*
Y-28095D01*
X-210570Y-28095D01*
X-210485Y-28524D01*
X-210242Y-28888D01*
X-201581Y-37549D01*
X-201344Y-37707D01*
X-201311Y-37756D01*
Y-75636D01*
X-201678Y-75881D01*
X-202071Y-76470D01*
X-202210Y-77165D01*
X-202071Y-77860D01*
X-201678Y-78449D01*
X-201089Y-78843D01*
X-200394Y-78981D01*
X-199699Y-78843D01*
X-199110Y-78449D01*
X-198716Y-77860D01*
X-198578Y-77165D01*
X-198716Y-76470D01*
X-199110Y-75881D01*
X-199476Y-75636D01*
Y-38665D01*
X-135969D01*
X-135969Y-38665D01*
X-135539Y-38580D01*
X-135507Y-38558D01*
X-135007Y-38825D01*
Y-56462D01*
X-134937Y-56813D01*
X-134738Y-57111D01*
X-132439Y-59410D01*
X-132525Y-59842D01*
X-132386Y-60537D01*
X-131993Y-61127D01*
X-131404Y-61520D01*
X-130709Y-61659D01*
X-130014Y-61520D01*
X-129425Y-61127D01*
X-129031Y-60537D01*
X-128893Y-59842D01*
X-129031Y-59148D01*
X-129425Y-58558D01*
X-130014Y-58165D01*
X-130709Y-58026D01*
X-131141Y-58113D01*
X-133171Y-56082D01*
Y-42731D01*
X-132671Y-42484D01*
X-132230Y-42823D01*
X-131268Y-43221D01*
X-130736Y-43291D01*
Y-39370D01*
Y-35449D01*
X-131268Y-35519D01*
X-132230Y-35917D01*
X-132558Y-36169D01*
X-133012Y-35887D01*
X-132967Y-35664D01*
X-132977Y-35616D01*
X-132941Y-35433D01*
Y57900D01*
X-132574Y58145D01*
X-132329Y58512D01*
X-130816D01*
Y57648D01*
X-123514D01*
Y61210D01*
X-130816D01*
Y60347D01*
X-132329D01*
X-132574Y60713D01*
X-133163Y61107D01*
X-133858Y61245D01*
X-134553Y61107D01*
X-135142Y60713D01*
X-135536Y60124D01*
X-135674Y59429D01*
X-135536Y58734D01*
X-135142Y58145D01*
X-134776Y57900D01*
Y42240D01*
X-135276Y41914D01*
X-135327Y41924D01*
Y40000D01*
Y38076D01*
X-135276Y38087D01*
X-134776Y37760D01*
Y37279D01*
X-135276Y36953D01*
X-135327Y36963D01*
Y35039D01*
Y33116D01*
X-135276Y33126D01*
X-134776Y32800D01*
Y-34800D01*
X-134882Y-34871D01*
X-136433Y-36422D01*
X-199535D01*
X-199601Y-36357D01*
X-199837Y-36199D01*
X-199994Y-35963D01*
X-208327Y-27630D01*
Y-25009D01*
X-206487D01*
Y-22108D01*
X-205455Y-21317D01*
X-204557Y-20147D01*
X-203993Y-18785D01*
X-203801Y-17323D01*
X-203993Y-15861D01*
X-204557Y-14499D01*
X-205455Y-13329D01*
X-206487Y-12537D01*
Y-9636D01*
X-212411D01*
Y-11675D01*
X-230369D01*
X-230502Y-11230D01*
X-230502D01*
Y-5305D01*
X-232343D01*
Y17764D01*
X-190861Y59246D01*
X-190669Y59208D01*
X-189974Y59346D01*
X-189385Y59740D01*
X-188992Y60329D01*
X-188853Y61024D01*
X-188992Y61719D01*
X-189385Y62308D01*
X-189974Y62702D01*
X-190669Y62840D01*
X-191364Y62702D01*
X-191953Y62308D01*
X-192347Y61719D01*
X-192485Y61024D01*
X-192447Y60832D01*
X-234258Y19022D01*
X-234501Y18658D01*
X-234586Y18229D01*
X-234586Y18229D01*
Y-5305D01*
X-236427D01*
Y-7675D01*
X-240950Y-12199D01*
X-241194Y-12563D01*
X-241279Y-12992D01*
X-241279Y-12992D01*
Y-32859D01*
X-241442Y-32968D01*
X-241835Y-33557D01*
X-241973Y-34252D01*
X-241835Y-34947D01*
X-241442Y-35536D01*
X-240852Y-35930D01*
X-240158Y-36068D01*
X-239966Y-36030D01*
X-236427Y-39569D01*
Y-43907D01*
X-233918D01*
X-233885Y-44407D01*
X-234927Y-44544D01*
X-236289Y-45108D01*
X-237458Y-46006D01*
X-238356Y-47176D01*
X-238920Y-48538D01*
X-239113Y-50000D01*
X-238920Y-51462D01*
X-238356Y-52824D01*
X-237458Y-53994D01*
X-236289Y-54892D01*
X-234927Y-55456D01*
X-233465Y-55648D01*
X-212411D01*
Y-57687D01*
X-209586D01*
Y-65837D01*
X-210639D01*
Y-69990D01*
X-209586D01*
Y-78937D01*
X-209586Y-78937D01*
X-209501Y-79366D01*
X-209258Y-79730D01*
X-190163Y-98825D01*
X-190163Y-98825D01*
X-189799Y-99068D01*
X-189370Y-99153D01*
X-185580D01*
X-184809Y-99924D01*
X-184445Y-100168D01*
X-184016Y-100253D01*
X-184016Y-100253D01*
X-179041D01*
X-179041Y-100253D01*
X-178612Y-100168D01*
X-178248Y-99924D01*
X-177477Y-99153D01*
X-141156D01*
X-141048Y-99316D01*
X-140459Y-99709D01*
X-139764Y-99848D01*
X-139069Y-99709D01*
X-138480Y-99316D01*
X-138371Y-99153D01*
X-126378D01*
X-126378Y-99153D01*
X-125949Y-99068D01*
X-125585Y-98825D01*
X-109980Y-83220D01*
X-109557Y-83021D01*
Y-83021D01*
X-109557Y-83021D01*
X-102254D01*
Y-82362D01*
X-100532D01*
X-100531Y-82362D01*
X-100102Y-82276D01*
X-99738Y-82033D01*
X-88512Y-70807D01*
X-85251D01*
X-85142Y-70969D01*
X-84553Y-71363D01*
X-83858Y-71501D01*
X-83163Y-71363D01*
X-82574Y-70969D01*
X-82181Y-70380D01*
X-82042Y-69685D01*
X-82181Y-68990D01*
X-82574Y-68401D01*
X-82737Y-68292D01*
Y-34528D01*
X-82737Y-34528D01*
X-82822Y-34098D01*
X-83065Y-33735D01*
X-83065Y-33735D01*
X-99272Y-17528D01*
Y-2333D01*
X-98772Y-2283D01*
X-98720Y-2546D01*
X-98281Y-3202D01*
X-97625Y-3641D01*
X-97350Y-3695D01*
Y-1772D01*
Y152D01*
X-97625Y97D01*
X-98281Y-341D01*
X-98720Y-997D01*
X-98772Y-1260D01*
X-99272Y-1211D01*
Y35733D01*
X-99109Y35842D01*
X-98716Y36431D01*
X-98577Y37126D01*
X-98716Y37821D01*
X-99109Y38410D01*
X-99672Y38786D01*
X-99747Y38863D01*
X-99876Y39289D01*
X-88507Y50657D01*
X-71653D01*
X-71302Y50727D01*
X-71005Y50926D01*
X-67461Y54469D01*
X-67263Y54767D01*
X-67193Y55118D01*
Y71941D01*
X-67263Y72292D01*
X-67461Y72590D01*
X-84203Y89332D01*
X-84117Y89764D01*
X-84255Y90459D01*
X-84649Y91048D01*
X-85238Y91442D01*
X-85933Y91580D01*
X-86628Y91442D01*
X-87217Y91048D01*
X-87611Y90459D01*
X-87634Y90343D01*
X-88112Y90197D01*
X-89220Y91306D01*
X-88873Y91825D01*
X-88735Y92520D01*
X-88821Y92952D01*
X-83933Y97840D01*
X-83734Y98138D01*
X-83664Y98489D01*
Y107480D01*
X-83734Y107832D01*
X-83933Y108129D01*
X-92595Y116791D01*
X-92892Y116990D01*
X-93243Y117059D01*
D02*
G37*
G36*
X-130736Y110220D02*
X-131268Y110150D01*
X-132230Y109752D01*
X-133055Y109118D01*
X-133689Y108293D01*
X-134087Y107331D01*
X-134157Y106799D01*
X-130736D01*
Y110220D01*
D02*
G37*
G36*
Y105799D02*
X-134157D01*
X-134087Y105267D01*
X-133689Y104306D01*
X-133055Y103480D01*
X-132230Y102847D01*
X-131268Y102448D01*
X-130736Y102378D01*
Y105799D01*
D02*
G37*
G36*
X2468Y115176D02*
Y98925D01*
X18720D01*
X18609Y100616D01*
X18181Y102769D01*
X17475Y104848D01*
X16504Y106817D01*
X15284Y108643D01*
X13837Y110293D01*
X12186Y111741D01*
X10361Y112961D01*
X8392Y113932D01*
X6312Y114637D01*
X4159Y115066D01*
X2468Y115176D01*
D02*
G37*
G36*
X1469D02*
X-222Y115066D01*
X-2376Y114637D01*
X-4454Y113932D01*
X-6424Y112961D01*
X-8249Y111741D01*
X-9900Y110293D01*
X-11347Y108643D01*
X-12567Y106817D01*
X-13538Y104848D01*
X-14244Y102769D01*
X-14672Y100616D01*
X-14783Y98925D01*
X1469D01*
Y115176D01*
D02*
G37*
G36*
X-220957D02*
Y98925D01*
X-204706D01*
X-204816Y100616D01*
X-205245Y102769D01*
X-205950Y104848D01*
X-206921Y106817D01*
X-208141Y108643D01*
X-209589Y110293D01*
X-211239Y111741D01*
X-213065Y112961D01*
X-215034Y113932D01*
X-217113Y114637D01*
X-219266Y115066D01*
X-220957Y115176D01*
D02*
G37*
G36*
X-221957D02*
X-223647Y115066D01*
X-225801Y114637D01*
X-227880Y113932D01*
X-229849Y112961D01*
X-231674Y111741D01*
X-233325Y110293D01*
X-234772Y108643D01*
X-235992Y106817D01*
X-236963Y104848D01*
X-237669Y102769D01*
X-238097Y100616D01*
X-238208Y98925D01*
X-221957D01*
Y115176D01*
D02*
G37*
G36*
X-138870Y98577D02*
Y97154D01*
X-137446D01*
X-137501Y97428D01*
X-137940Y98084D01*
X-138596Y98523D01*
X-138870Y98577D01*
D02*
G37*
G36*
X-139870D02*
X-140144Y98523D01*
X-140801Y98084D01*
X-141239Y97428D01*
X-141294Y97154D01*
X-139870D01*
Y98577D01*
D02*
G37*
G36*
X-117020Y97593D02*
Y96169D01*
X-115596D01*
X-115651Y96443D01*
X-116089Y97100D01*
X-116745Y97538D01*
X-117020Y97593D01*
D02*
G37*
G36*
X-118020D02*
X-118294Y97538D01*
X-118950Y97100D01*
X-119389Y96443D01*
X-119443Y96169D01*
X-118020D01*
Y97593D01*
D02*
G37*
G36*
X-137446Y96153D02*
X-138870D01*
Y94730D01*
X-138596Y94784D01*
X-137940Y95223D01*
X-137501Y95879D01*
X-137446Y96153D01*
D02*
G37*
G36*
X-139870D02*
X-141294D01*
X-141239Y95879D01*
X-140801Y95223D01*
X-140144Y94784D01*
X-139870Y94730D01*
Y96153D01*
D02*
G37*
G36*
X-175681Y95624D02*
Y94201D01*
X-174257D01*
X-174312Y94475D01*
X-174750Y95131D01*
X-175407Y95570D01*
X-175681Y95624D01*
D02*
G37*
G36*
X-176681D02*
X-176955Y95570D01*
X-177612Y95131D01*
X-178050Y94475D01*
X-178105Y94201D01*
X-176681D01*
Y95624D01*
D02*
G37*
G36*
X-115596Y95169D02*
X-117020D01*
Y93746D01*
X-116745Y93800D01*
X-116089Y94239D01*
X-115651Y94895D01*
X-115596Y95169D01*
D02*
G37*
G36*
X-118020D02*
X-119443D01*
X-119389Y94895D01*
X-118950Y94239D01*
X-118294Y93800D01*
X-118020Y93746D01*
Y95169D01*
D02*
G37*
G36*
X-174257Y93201D02*
X-175681D01*
Y91777D01*
X-175407Y91832D01*
X-174750Y92270D01*
X-174312Y92927D01*
X-174257Y93201D01*
D02*
G37*
G36*
X-176681D02*
X-178105D01*
X-178050Y92927D01*
X-177612Y92270D01*
X-176955Y91832D01*
X-176681Y91777D01*
Y93201D01*
D02*
G37*
G36*
X-113175Y91687D02*
Y90264D01*
X-111751D01*
X-111806Y90538D01*
X-112245Y91194D01*
X-112901Y91633D01*
X-113175Y91687D01*
D02*
G37*
G36*
X-114175D02*
X-114449Y91633D01*
X-115106Y91194D01*
X-115544Y90538D01*
X-115599Y90264D01*
X-114175D01*
Y91687D01*
D02*
G37*
G36*
X-77846Y90113D02*
Y88689D01*
X-76423D01*
X-76477Y88963D01*
X-76916Y89619D01*
X-77572Y90058D01*
X-77846Y90113D01*
D02*
G37*
G36*
X-78847D02*
X-79121Y90058D01*
X-79777Y89619D01*
X-80216Y88963D01*
X-80270Y88689D01*
X-78847D01*
Y90113D01*
D02*
G37*
G36*
X-111751Y89264D02*
X-113175D01*
Y87840D01*
X-112901Y87895D01*
X-112245Y88333D01*
X-111806Y88990D01*
X-111751Y89264D01*
D02*
G37*
G36*
X-114175D02*
X-115599D01*
X-115544Y88990D01*
X-115106Y88333D01*
X-114449Y87895D01*
X-114175Y87840D01*
Y89264D01*
D02*
G37*
G36*
X-62492Y89128D02*
Y87705D01*
X-61068D01*
X-61123Y87979D01*
X-61562Y88635D01*
X-62218Y89074D01*
X-62492Y89128D01*
D02*
G37*
G36*
X-63492D02*
X-63766Y89074D01*
X-64423Y88635D01*
X-64861Y87979D01*
X-64916Y87705D01*
X-63492D01*
Y89128D01*
D02*
G37*
G36*
X-76423Y87689D02*
X-77846D01*
Y86265D01*
X-77572Y86320D01*
X-76916Y86758D01*
X-76477Y87415D01*
X-76423Y87689D01*
D02*
G37*
G36*
X-78847D02*
X-80270D01*
X-80216Y87415D01*
X-79777Y86758D01*
X-79121Y86320D01*
X-78847Y86265D01*
Y87689D01*
D02*
G37*
G36*
X-61068Y86705D02*
X-62492D01*
Y85281D01*
X-62218Y85336D01*
X-61562Y85774D01*
X-61123Y86431D01*
X-61068Y86705D01*
D02*
G37*
G36*
X-63492D02*
X-64916D01*
X-64861Y86431D01*
X-64423Y85774D01*
X-63766Y85336D01*
X-63492Y85281D01*
Y86705D01*
D02*
G37*
G36*
X-56980Y83223D02*
Y81799D01*
X-55557D01*
X-55611Y82073D01*
X-56050Y82730D01*
X-56706Y83168D01*
X-56980Y83223D01*
D02*
G37*
G36*
X-57980D02*
X-58254Y83168D01*
X-58911Y82730D01*
X-59349Y82073D01*
X-59404Y81799D01*
X-57980D01*
Y83223D01*
D02*
G37*
G36*
X18720Y97925D02*
X2468D01*
Y81674D01*
X4159Y81785D01*
X6312Y82213D01*
X8392Y82919D01*
X10361Y83890D01*
X12186Y85110D01*
X13837Y86557D01*
X15284Y88208D01*
X16504Y90033D01*
X17475Y92002D01*
X18181Y94081D01*
X18609Y96234D01*
X18720Y97925D01*
D02*
G37*
G36*
X1469D02*
X-14783D01*
X-14672Y96234D01*
X-14244Y94081D01*
X-13538Y92002D01*
X-12567Y90033D01*
X-11347Y88208D01*
X-9900Y86557D01*
X-8249Y85110D01*
X-6424Y83890D01*
X-4454Y82919D01*
X-2376Y82213D01*
X-222Y81785D01*
X1469Y81674D01*
Y97925D01*
D02*
G37*
G36*
X-204706D02*
X-220957D01*
Y81674D01*
X-219266Y81785D01*
X-217113Y82213D01*
X-215034Y82919D01*
X-213065Y83890D01*
X-211239Y85110D01*
X-209589Y86557D01*
X-208141Y88208D01*
X-206921Y90033D01*
X-205950Y92002D01*
X-205245Y94081D01*
X-204816Y96234D01*
X-204706Y97925D01*
D02*
G37*
G36*
X-221957D02*
X-238208D01*
X-238097Y96234D01*
X-237669Y94081D01*
X-236963Y92002D01*
X-235992Y90033D01*
X-234772Y88208D01*
X-233325Y86557D01*
X-231674Y85110D01*
X-229849Y83890D01*
X-227880Y82919D01*
X-225801Y82213D01*
X-223647Y81785D01*
X-221957Y81674D01*
Y97925D01*
D02*
G37*
G36*
X-55557Y80799D02*
X-56980D01*
Y79375D01*
X-56706Y79430D01*
X-56050Y79869D01*
X-55611Y80525D01*
X-55557Y80799D01*
D02*
G37*
G36*
X-57980D02*
X-59404D01*
X-59349Y80525D01*
X-58911Y79869D01*
X-58254Y79430D01*
X-57980Y79375D01*
Y80799D01*
D02*
G37*
G36*
X-142510Y78454D02*
X-146860D01*
Y77296D01*
X-148416D01*
Y78454D01*
X-152765D01*
Y74302D01*
X-148416D01*
Y75460D01*
X-146860D01*
Y74302D01*
X-142510D01*
Y78454D01*
D02*
G37*
G36*
X-136205Y78854D02*
X-138279D01*
Y76878D01*
X-136205D01*
Y78854D01*
D02*
G37*
G36*
X-139279D02*
X-141354D01*
Y76878D01*
X-139279D01*
Y78854D01*
D02*
G37*
G36*
X-136205Y75878D02*
X-138279D01*
Y73902D01*
X-136205D01*
Y75878D01*
D02*
G37*
G36*
X-139279D02*
X-141354D01*
Y73902D01*
X-139279D01*
Y75878D01*
D02*
G37*
G36*
X-127665Y73929D02*
X-131217D01*
Y72248D01*
X-127665D01*
Y73929D01*
D02*
G37*
G36*
X-50153Y73184D02*
Y71760D01*
X-48729D01*
X-48784Y72034D01*
X-49222Y72690D01*
X-49878Y73129D01*
X-50153Y73184D01*
D02*
G37*
G36*
X-51153D02*
X-51427Y73129D01*
X-52083Y72690D01*
X-52522Y72034D01*
X-52576Y71760D01*
X-51153D01*
Y73184D01*
D02*
G37*
G36*
X-48729Y70760D02*
X-50153D01*
Y69336D01*
X-49878Y69391D01*
X-49222Y69829D01*
X-48784Y70486D01*
X-48729Y70760D01*
D02*
G37*
G36*
X-51153D02*
X-52576D01*
X-52522Y70486D01*
X-52083Y69829D01*
X-51427Y69391D01*
X-51153Y69336D01*
Y70760D01*
D02*
G37*
G36*
X-183661Y95517D02*
X-184356Y95379D01*
X-184945Y94985D01*
X-185339Y94396D01*
X-185477Y93701D01*
X-185339Y93006D01*
X-184945Y92417D01*
X-184382Y92040D01*
Y54679D01*
X-184749Y54434D01*
X-185142Y53845D01*
X-185281Y53150D01*
X-185142Y52455D01*
X-184749Y51866D01*
X-184160Y51472D01*
X-183532Y51347D01*
X-183401Y51124D01*
X-183319Y50853D01*
X-184901Y49271D01*
X-185100Y48973D01*
X-185170Y48622D01*
Y-4344D01*
X-199174Y-18349D01*
X-199606Y-18263D01*
X-200301Y-18401D01*
X-200890Y-18795D01*
X-201284Y-19384D01*
X-201422Y-20079D01*
X-201284Y-20774D01*
X-200890Y-21363D01*
X-200301Y-21757D01*
X-199606Y-21895D01*
X-198911Y-21757D01*
X-198322Y-21363D01*
X-197929Y-20774D01*
X-197874Y-20501D01*
X-197374Y-20550D01*
Y-28360D01*
X-199174Y-30160D01*
X-199606Y-30074D01*
X-200301Y-30212D01*
X-200890Y-30606D01*
X-201284Y-31195D01*
X-201422Y-31890D01*
X-201284Y-32585D01*
X-200890Y-33174D01*
X-200301Y-33568D01*
X-199606Y-33706D01*
X-198911Y-33568D01*
X-198322Y-33174D01*
X-197929Y-32585D01*
X-197790Y-31890D01*
X-197876Y-31457D01*
X-195808Y-29389D01*
X-195609Y-29091D01*
X-195539Y-28740D01*
Y-19006D01*
X-182403Y-5870D01*
X-182204Y-5573D01*
X-182134Y-5221D01*
Y47745D01*
X-173710Y56169D01*
X-158671D01*
Y55010D01*
X-154321D01*
Y59163D01*
X-154594D01*
Y61802D01*
X-153435D01*
Y62075D01*
X-150797D01*
Y61014D01*
X-146054D01*
Y62075D01*
X-130268D01*
X-129917Y62144D01*
X-129619Y62343D01*
X-129314Y62648D01*
X-123514D01*
Y66210D01*
X-130816D01*
Y63910D01*
X-137646D01*
X-137779Y64354D01*
X-137779Y64410D01*
Y66232D01*
X-140551D01*
X-143323D01*
Y64410D01*
X-143323Y64354D01*
X-143457Y63910D01*
X-146054D01*
Y64970D01*
X-150797D01*
Y63910D01*
X-153435D01*
Y66151D01*
X-157588D01*
Y61802D01*
X-156429D01*
Y59163D01*
X-158671D01*
Y58004D01*
X-172919D01*
X-173110Y58466D01*
X-157275Y74302D01*
X-156429D01*
Y72057D01*
X-157588D01*
Y67707D01*
X-153435D01*
Y69555D01*
X-150797D01*
Y68494D01*
X-146054D01*
Y69555D01*
X-143457D01*
X-143323Y69110D01*
X-143323Y69055D01*
Y67232D01*
X-140551D01*
X-137779D01*
Y69055D01*
X-137779Y69110D01*
X-137646Y69555D01*
X-136248D01*
X-135981Y69055D01*
X-136307Y68568D01*
X-136376Y68217D01*
X-132128D01*
X-132197Y68568D01*
X-132523Y69055D01*
X-132256Y69555D01*
X-130816D01*
Y67648D01*
X-123514D01*
Y71210D01*
X-129563D01*
X-129728Y71320D01*
X-130079Y71390D01*
X-146054D01*
Y72450D01*
X-150797D01*
Y71390D01*
X-153435D01*
Y72057D01*
X-154594D01*
Y74302D01*
X-154321D01*
Y78454D01*
X-158671D01*
Y75501D01*
X-181168Y53004D01*
X-181439Y53086D01*
X-181662Y53217D01*
X-181787Y53845D01*
X-182181Y54434D01*
X-182547Y54679D01*
Y92303D01*
X-182377Y92417D01*
X-181984Y93006D01*
X-181845Y93701D01*
X-181984Y94396D01*
X-182377Y94985D01*
X-182966Y95379D01*
X-183661Y95517D01*
D02*
G37*
G36*
X-27937Y69406D02*
X-30012D01*
Y67429D01*
X-27937D01*
Y69406D01*
D02*
G37*
G36*
X-31012D02*
X-33087D01*
Y67429D01*
X-31012D01*
Y69406D01*
D02*
G37*
G36*
X-77756Y72288D02*
X-78451Y72150D01*
X-79040Y71757D01*
X-79285Y71390D01*
X-87598D01*
X-87950Y71320D01*
X-88247Y71121D01*
X-91941Y67428D01*
X-101854D01*
Y68929D01*
X-105905D01*
X-109957D01*
Y67428D01*
X-110655D01*
X-111006Y67358D01*
X-111304Y67159D01*
X-112978Y65485D01*
X-115125D01*
X-115370Y65851D01*
X-115959Y66245D01*
X-116654Y66383D01*
X-117349Y66245D01*
X-117938Y65851D01*
X-118332Y65262D01*
X-118470Y64567D01*
X-118363Y64031D01*
X-118631Y63674D01*
X-118748Y63597D01*
X-118898Y63627D01*
X-119593Y63489D01*
X-120182Y63095D01*
X-120575Y62506D01*
X-120714Y61811D01*
X-120575Y61116D01*
X-120182Y60527D01*
X-119593Y60133D01*
X-118898Y59995D01*
X-118613Y60052D01*
X-118481Y59952D01*
X-118240Y59616D01*
X-118351Y59055D01*
X-118213Y58360D01*
X-117819Y57771D01*
X-117230Y57377D01*
X-116535Y57239D01*
X-115840Y57377D01*
X-115251Y57771D01*
X-115006Y58138D01*
X-112979D01*
X-110885Y56044D01*
X-110588Y55845D01*
X-110236Y55775D01*
X-82677D01*
X-82326Y55845D01*
X-82028Y56044D01*
X-72973Y65099D01*
X-72774Y65397D01*
X-72704Y65748D01*
Y68156D01*
X-72338Y68401D01*
X-71944Y68990D01*
X-71806Y69685D01*
X-71944Y70380D01*
X-72338Y70969D01*
X-72927Y71363D01*
X-73622Y71501D01*
X-74317Y71363D01*
X-74906Y70969D01*
X-75300Y70380D01*
X-75438Y69685D01*
X-75300Y68990D01*
X-74906Y68401D01*
X-74540Y68156D01*
Y66128D01*
X-74917Y65750D01*
X-75378Y65997D01*
X-75349Y66142D01*
X-75488Y66837D01*
X-75881Y67426D01*
X-76470Y67819D01*
X-77165Y67958D01*
X-77860Y67819D01*
X-78449Y67426D01*
X-78485Y67373D01*
X-78718Y67327D01*
X-79015Y67128D01*
X-83415Y62729D01*
X-102254D01*
Y63308D01*
X-85768D01*
X-85768Y63308D01*
X-85338Y63393D01*
X-84975Y63636D01*
X-84247Y64364D01*
X-84055Y64326D01*
X-83360Y64464D01*
X-82771Y64858D01*
X-82377Y65447D01*
X-82239Y66142D01*
X-82377Y66837D01*
X-82771Y67426D01*
X-83360Y67819D01*
X-84055Y67958D01*
X-84750Y67819D01*
X-85339Y67426D01*
X-85733Y66837D01*
X-85871Y66142D01*
X-85833Y65950D01*
X-86232Y65551D01*
X-90515D01*
X-90723Y66051D01*
X-87218Y69555D01*
X-79285D01*
X-79040Y69188D01*
X-78451Y68795D01*
X-77756Y68656D01*
X-77061Y68795D01*
X-76472Y69188D01*
X-76078Y69778D01*
X-75940Y70472D01*
X-76078Y71167D01*
X-76472Y71757D01*
X-77061Y72150D01*
X-77756Y72288D01*
D02*
G37*
G36*
X-132128Y67216D02*
X-133752D01*
Y65592D01*
X-133401Y65662D01*
X-132679Y66144D01*
X-132197Y66865D01*
X-132128Y67216D01*
D02*
G37*
G36*
X-134752D02*
X-136376D01*
X-136307Y66865D01*
X-135825Y66144D01*
X-135103Y65662D01*
X-134752Y65592D01*
Y67216D01*
D02*
G37*
G36*
X-22432Y69006D02*
X-26781D01*
Y64853D01*
X-22432D01*
Y69006D01*
D02*
G37*
G36*
X-27937Y66429D02*
X-30012D01*
Y64453D01*
X-27937D01*
Y66429D01*
D02*
G37*
G36*
X-31012D02*
X-33087D01*
Y64453D01*
X-31012D01*
Y66429D01*
D02*
G37*
G36*
X-142510Y59163D02*
X-146860D01*
Y58004D01*
X-148416D01*
Y59163D01*
X-152765D01*
Y55010D01*
X-148416D01*
Y56169D01*
X-146860D01*
Y55010D01*
X-142510D01*
Y59163D01*
D02*
G37*
G36*
X-136205Y59563D02*
X-138279D01*
Y57587D01*
X-136205D01*
Y59563D01*
D02*
G37*
G36*
X-139279D02*
X-141354D01*
Y57587D01*
X-139279D01*
Y59563D01*
D02*
G37*
G36*
X-136205Y56587D02*
X-138279D01*
Y54610D01*
X-136205D01*
Y56587D01*
D02*
G37*
G36*
X-139279D02*
X-141354D01*
Y54610D01*
X-139279D01*
Y56587D01*
D02*
G37*
G36*
X-77650Y47199D02*
Y45776D01*
X-76226D01*
X-76280Y46050D01*
X-76719Y46706D01*
X-77375Y47145D01*
X-77650Y47199D01*
D02*
G37*
G36*
X-78650D02*
X-78924Y47145D01*
X-79580Y46706D01*
X-80019Y46050D01*
X-80073Y45776D01*
X-78650D01*
Y47199D01*
D02*
G37*
G36*
X-105799Y46412D02*
Y44988D01*
X-104376D01*
X-104430Y45262D01*
X-104869Y45919D01*
X-105525Y46357D01*
X-105799Y46412D01*
D02*
G37*
G36*
X-106799D02*
X-107073Y46357D01*
X-107730Y45919D01*
X-108168Y45262D01*
X-108223Y44988D01*
X-106799D01*
Y46412D01*
D02*
G37*
G36*
X-76226Y44776D02*
X-77650D01*
Y43352D01*
X-77375Y43407D01*
X-76719Y43845D01*
X-76280Y44501D01*
X-76226Y44776D01*
D02*
G37*
G36*
X-78650D02*
X-80073D01*
X-80019Y44501D01*
X-79580Y43845D01*
X-78924Y43407D01*
X-78650Y43352D01*
Y44776D01*
D02*
G37*
G36*
X-104376Y43988D02*
X-105799D01*
Y42564D01*
X-105525Y42619D01*
X-104869Y43058D01*
X-104430Y43714D01*
X-104376Y43988D01*
D02*
G37*
G36*
X-106799D02*
X-108223D01*
X-108168Y43714D01*
X-107730Y43058D01*
X-107073Y42619D01*
X-106799Y42564D01*
Y43988D01*
D02*
G37*
G36*
X-136327Y41924D02*
X-136601Y41869D01*
X-137257Y41431D01*
X-137696Y40774D01*
X-137750Y40500D01*
X-136327D01*
Y41924D01*
D02*
G37*
G36*
X-189476Y39325D02*
X-189751Y39271D01*
X-190407Y38832D01*
X-190644Y38477D01*
X-191246D01*
X-191483Y38832D01*
X-192139Y39270D01*
X-192413Y39325D01*
Y37401D01*
Y35477D01*
X-192139Y35532D01*
X-191483Y35971D01*
X-191245Y36326D01*
X-190644D01*
X-190407Y35971D01*
X-189751Y35533D01*
X-189476Y35478D01*
Y37402D01*
Y39325D01*
D02*
G37*
G36*
X-136327Y39500D02*
X-137750D01*
X-137696Y39226D01*
X-137257Y38569D01*
X-136601Y38131D01*
X-136327Y38076D01*
Y39500D01*
D02*
G37*
G36*
X-188476Y39325D02*
Y37902D01*
X-187053D01*
X-187107Y38176D01*
X-187546Y38832D01*
X-188202Y39271D01*
X-188476Y39325D01*
D02*
G37*
G36*
X-193413Y39325D02*
X-193688Y39270D01*
X-194344Y38832D01*
X-194782Y38175D01*
X-194837Y37901D01*
X-193413D01*
Y39325D01*
D02*
G37*
G36*
X-136327Y36963D02*
X-136601Y36909D01*
X-137257Y36470D01*
X-137696Y35814D01*
X-137750Y35539D01*
X-136327D01*
Y36963D01*
D02*
G37*
G36*
X-187053Y36902D02*
X-188476D01*
Y35478D01*
X-188202Y35533D01*
X-187546Y35971D01*
X-187107Y36627D01*
X-187053Y36902D01*
D02*
G37*
G36*
X-193413Y36901D02*
X-194837D01*
X-194782Y36627D01*
X-194344Y35971D01*
X-193688Y35532D01*
X-193413Y35477D01*
Y36901D01*
D02*
G37*
G36*
X-287Y38567D02*
Y35146D01*
X3134D01*
X3064Y35678D01*
X2665Y36639D01*
X2032Y37465D01*
X1206Y38098D01*
X244Y38497D01*
X-287Y38567D01*
D02*
G37*
G36*
X-1287Y38567D02*
X-1819Y38497D01*
X-2781Y38098D01*
X-3607Y37465D01*
X-4240Y36639D01*
X-4638Y35678D01*
X-4708Y35146D01*
X-1287D01*
Y38567D01*
D02*
G37*
G36*
X-136327Y34539D02*
X-137750D01*
X-137696Y34265D01*
X-137257Y33609D01*
X-136601Y33170D01*
X-136327Y33116D01*
Y34539D01*
D02*
G37*
G36*
X-1287Y34146D02*
X-4708D01*
X-4638Y33614D01*
X-4240Y32652D01*
X-3607Y31826D01*
X-2781Y31193D01*
X-1819Y30795D01*
X-1287Y30725D01*
Y34146D01*
D02*
G37*
G36*
X3134D02*
X-287D01*
Y30725D01*
X244Y30795D01*
X1206Y31193D01*
X2032Y31826D01*
X2665Y32652D01*
X3064Y33614D01*
X3134Y34146D01*
D02*
G37*
G36*
X-193413Y27514D02*
X-193688Y27460D01*
X-194344Y27021D01*
X-194782Y26365D01*
X-194837Y26091D01*
X-193413D01*
Y27514D01*
D02*
G37*
G36*
X-188083Y27121D02*
Y25697D01*
X-186659D01*
X-186714Y25971D01*
X-187152Y26627D01*
X-187809Y27066D01*
X-188083Y27121D01*
D02*
G37*
G36*
X-193413Y25091D02*
X-194837D01*
X-194782Y24816D01*
X-194344Y24160D01*
X-193688Y23721D01*
X-193413Y23667D01*
Y25091D01*
D02*
G37*
G36*
X-186659Y24697D02*
X-188083D01*
Y23273D01*
X-187809Y23328D01*
X-187152Y23766D01*
X-186714Y24423D01*
X-186659Y24697D01*
D02*
G37*
G36*
X-192413Y27514D02*
Y25591D01*
Y23667D01*
X-192139Y23721D01*
X-191483Y24160D01*
X-191044Y24816D01*
X-191042Y24827D01*
X-190532D01*
X-190452Y24423D01*
X-190013Y23766D01*
X-189357Y23328D01*
X-189083Y23273D01*
Y25197D01*
Y27121D01*
X-189357Y27066D01*
X-190013Y26627D01*
X-190452Y25971D01*
X-190454Y25960D01*
X-190964D01*
X-191044Y26365D01*
X-191483Y27021D01*
X-192139Y27460D01*
X-192413Y27514D01*
D02*
G37*
G36*
X-9972Y23793D02*
Y21563D01*
X-7743D01*
X-7772Y21787D01*
X-8051Y22461D01*
X-8496Y23040D01*
X-9075Y23484D01*
X-9749Y23763D01*
X-9972Y23793D01*
D02*
G37*
G36*
X-10972D02*
X-11196Y23763D01*
X-11870Y23484D01*
X-12449Y23040D01*
X-12893Y22461D01*
X-13173Y21787D01*
X-13202Y21563D01*
X-10972D01*
Y23793D01*
D02*
G37*
G36*
X-10472Y21063D02*
D01*
D01*
D01*
D02*
G37*
G36*
X-7743Y20563D02*
X-9972D01*
Y18333D01*
X-9749Y18363D01*
X-9075Y18642D01*
X-8496Y19086D01*
X-8051Y19665D01*
X-7772Y20339D01*
X-7743Y20563D01*
D02*
G37*
G36*
X-10972D02*
X-13202D01*
X-13173Y20339D01*
X-12893Y19665D01*
X-12449Y19086D01*
X-11870Y18642D01*
X-11196Y18363D01*
X-10972Y18333D01*
Y20563D01*
D02*
G37*
G36*
X-212098Y19247D02*
Y17823D01*
X-210675D01*
X-210729Y18097D01*
X-211168Y18753D01*
X-211824Y19192D01*
X-212098Y19247D01*
D02*
G37*
G36*
X-213098D02*
X-213373Y19192D01*
X-214029Y18753D01*
X-214468Y18097D01*
X-214522Y17823D01*
X-213098D01*
Y19247D01*
D02*
G37*
G36*
X-216823D02*
Y17823D01*
X-215399D01*
X-215454Y18097D01*
X-215892Y18753D01*
X-216549Y19192D01*
X-216823Y19247D01*
D02*
G37*
G36*
X-217823D02*
X-218097Y19192D01*
X-218753Y18753D01*
X-219192Y18097D01*
X-219247Y17823D01*
X-217823D01*
Y19247D01*
D02*
G37*
G36*
X-210675Y16823D02*
X-212098D01*
Y15399D01*
X-211824Y15454D01*
X-211168Y15892D01*
X-210729Y16549D01*
X-210675Y16823D01*
D02*
G37*
G36*
X-213098D02*
X-214522D01*
X-214468Y16549D01*
X-214029Y15892D01*
X-213373Y15454D01*
X-213098Y15399D01*
Y16823D01*
D02*
G37*
G36*
X-215399D02*
X-216823D01*
Y15399D01*
X-216549Y15454D01*
X-215892Y15892D01*
X-215454Y16549D01*
X-215399Y16823D01*
D02*
G37*
G36*
X-217823D02*
X-219247D01*
X-219192Y16549D01*
X-218753Y15892D01*
X-218097Y15454D01*
X-217823Y15399D01*
Y16823D01*
D02*
G37*
G36*
X-61902Y9010D02*
Y7587D01*
X-60478D01*
X-60532Y7861D01*
X-60971Y8517D01*
X-61627Y8956D01*
X-61902Y9010D01*
D02*
G37*
G36*
X-62902D02*
X-63176Y8956D01*
X-63832Y8517D01*
X-64271Y7861D01*
X-64325Y7587D01*
X-62902D01*
Y9010D01*
D02*
G37*
G36*
X-60478Y6587D02*
X-61902D01*
Y5163D01*
X-61627Y5218D01*
X-60971Y5656D01*
X-60532Y6312D01*
X-60478Y6587D01*
D02*
G37*
G36*
X-62902D02*
X-64325D01*
X-64271Y6312D01*
X-63832Y5656D01*
X-63176Y5218D01*
X-62902Y5163D01*
Y6587D01*
D02*
G37*
G36*
X-46547Y2750D02*
Y1327D01*
X-45124D01*
X-45178Y1601D01*
X-45617Y2257D01*
X-46273Y2696D01*
X-46547Y2750D01*
D02*
G37*
G36*
X-47547D02*
X-47822Y2696D01*
X-48478Y2257D01*
X-48916Y1601D01*
X-48971Y1327D01*
X-47547D01*
Y2750D01*
D02*
G37*
G36*
X-155996Y1924D02*
Y500D01*
X-154572D01*
X-154627Y774D01*
X-155066Y1431D01*
X-155722Y1869D01*
X-155996Y1924D01*
D02*
G37*
G36*
X-156996D02*
X-157270Y1869D01*
X-157927Y1431D01*
X-158365Y774D01*
X-158420Y500D01*
X-156996D01*
Y1924D01*
D02*
G37*
G36*
X-93413Y152D02*
X-93688Y97D01*
X-94344Y-341D01*
X-94581Y-696D01*
X-95183D01*
X-95420Y-341D01*
X-96076Y97D01*
X-96350Y152D01*
Y-1772D01*
Y-3695D01*
X-96076Y-3641D01*
X-95420Y-3202D01*
X-95183Y-2847D01*
X-94581D01*
X-94344Y-3202D01*
X-93688Y-3641D01*
X-93413Y-3695D01*
Y-1772D01*
Y152D01*
D02*
G37*
G36*
X-45124Y327D02*
X-46547D01*
Y-1097D01*
X-46273Y-1042D01*
X-45617Y-604D01*
X-45178Y53D01*
X-45124Y327D01*
D02*
G37*
G36*
X-47547D02*
X-48971D01*
X-48916Y53D01*
X-48478Y-604D01*
X-47822Y-1042D01*
X-47547Y-1097D01*
Y327D01*
D02*
G37*
G36*
X-92413Y152D02*
Y-1272D01*
X-90990D01*
X-91044Y-997D01*
X-91483Y-341D01*
X-92139Y97D01*
X-92413Y152D01*
D02*
G37*
G36*
X-10472Y3481D02*
X-11398Y3297D01*
X-12182Y2773D01*
X-12706Y1988D01*
X-12890Y1063D01*
X-12706Y138D01*
X-12182Y-647D01*
X-11398Y-1171D01*
X-10472Y-1355D01*
X-9547Y-1171D01*
X-8763Y-647D01*
X-8239Y138D01*
X-8055Y1063D01*
X-8239Y1988D01*
X-8763Y2773D01*
X-9547Y3297D01*
X-10472Y3481D01*
D02*
G37*
G36*
X-30472D02*
X-31398Y3297D01*
X-32182Y2773D01*
X-32706Y1988D01*
X-32890Y1063D01*
X-32706Y138D01*
X-32182Y-647D01*
X-31398Y-1171D01*
X-30472Y-1355D01*
X-29547Y-1171D01*
X-28763Y-647D01*
X-28238Y138D01*
X-28054Y1063D01*
X-28238Y1988D01*
X-28763Y2773D01*
X-29547Y3297D01*
X-30472Y3481D01*
D02*
G37*
G36*
X-154572Y-500D02*
X-155996D01*
Y-1924D01*
X-155722Y-1869D01*
X-155066Y-1431D01*
X-154627Y-774D01*
X-154572Y-500D01*
D02*
G37*
G36*
X-156996D02*
X-158420D01*
X-158365Y-774D01*
X-157927Y-1431D01*
X-157270Y-1869D01*
X-156996Y-1924D01*
Y-500D01*
D02*
G37*
G36*
X-56587Y-1600D02*
Y-3024D01*
X-55163D01*
X-55217Y-2749D01*
X-55656Y-2093D01*
X-56312Y-1654D01*
X-56587Y-1600D01*
D02*
G37*
G36*
X-57587D02*
X-57861Y-1654D01*
X-58517Y-2093D01*
X-58956Y-2749D01*
X-59010Y-3024D01*
X-57587D01*
Y-1600D01*
D02*
G37*
G36*
X-90990Y-2272D02*
X-92413D01*
Y-3695D01*
X-92139Y-3641D01*
X-91483Y-3202D01*
X-91044Y-2546D01*
X-90990Y-2272D01*
D02*
G37*
G36*
X-55163Y-4024D02*
X-56587D01*
Y-5447D01*
X-56312Y-5393D01*
X-55656Y-4954D01*
X-55217Y-4298D01*
X-55163Y-4024D01*
D02*
G37*
G36*
X-57587D02*
X-59010D01*
X-58956Y-4298D01*
X-58517Y-4954D01*
X-57861Y-5393D01*
X-57587Y-5447D01*
Y-4024D01*
D02*
G37*
G36*
X-149500Y-4179D02*
Y-5602D01*
X-148076D01*
X-148131Y-5328D01*
X-148569Y-4672D01*
X-149226Y-4233D01*
X-149500Y-4179D01*
D02*
G37*
G36*
X-150500D02*
X-150774Y-4233D01*
X-151431Y-4672D01*
X-151869Y-5328D01*
X-151924Y-5602D01*
X-150500D01*
Y-4179D01*
D02*
G37*
G36*
X-214843Y31344D02*
X-215537Y31206D01*
X-216127Y30812D01*
X-216520Y30223D01*
X-216658Y29528D01*
X-216520Y28833D01*
X-216127Y28244D01*
X-215537Y27850D01*
X-214843Y27712D01*
X-214410Y27798D01*
X-206823Y20211D01*
Y-4377D01*
X-207190Y-4621D01*
X-207583Y-5211D01*
X-207721Y-5906D01*
X-207583Y-6600D01*
X-207190Y-7190D01*
X-206600Y-7583D01*
X-205906Y-7722D01*
X-205211Y-7583D01*
X-204621Y-7190D01*
X-204228Y-6600D01*
X-204089Y-5906D01*
X-204228Y-5211D01*
X-204621Y-4621D01*
X-204988Y-4377D01*
Y20591D01*
X-205058Y20942D01*
X-205257Y21240D01*
X-213112Y29096D01*
X-213026Y29528D01*
X-213165Y30223D01*
X-213558Y30812D01*
X-214147Y31206D01*
X-214843Y31344D01*
D02*
G37*
G36*
X-148076Y-6602D02*
X-149500D01*
Y-8026D01*
X-149226Y-7971D01*
X-148569Y-7533D01*
X-148131Y-6877D01*
X-148076Y-6602D01*
D02*
G37*
G36*
X-150500D02*
X-151924D01*
X-151869Y-6877D01*
X-151431Y-7533D01*
X-150774Y-7971D01*
X-150500Y-8026D01*
Y-6602D01*
D02*
G37*
G36*
X-46547Y-7250D02*
Y-8673D01*
X-45124D01*
X-45178Y-8399D01*
X-45617Y-7743D01*
X-46273Y-7304D01*
X-46547Y-7250D01*
D02*
G37*
G36*
X-47547D02*
X-47822Y-7304D01*
X-48478Y-7743D01*
X-48916Y-8399D01*
X-48971Y-8673D01*
X-47547D01*
Y-7250D01*
D02*
G37*
G36*
X13492Y-7718D02*
Y-9342D01*
X15116D01*
X15047Y-8991D01*
X14565Y-8270D01*
X13843Y-7788D01*
X13492Y-7718D01*
D02*
G37*
G36*
X12492D02*
X12141Y-7788D01*
X11420Y-8270D01*
X10938Y-8991D01*
X10868Y-9342D01*
X12492D01*
Y-7718D01*
D02*
G37*
G36*
X-45124Y-9673D02*
X-46547D01*
Y-11097D01*
X-46273Y-11042D01*
X-45617Y-10604D01*
X-45178Y-9947D01*
X-45124Y-9673D01*
D02*
G37*
G36*
X-47547D02*
X-48971D01*
X-48916Y-9947D01*
X-48478Y-10604D01*
X-47822Y-11042D01*
X-47547Y-11097D01*
Y-9673D01*
D02*
G37*
G36*
X-10472Y-6519D02*
X-11398Y-6703D01*
X-12182Y-7227D01*
X-12706Y-8012D01*
X-12890Y-8937D01*
X-12706Y-9862D01*
X-12182Y-10647D01*
X-11398Y-11171D01*
X-10472Y-11355D01*
X-9547Y-11171D01*
X-8763Y-10647D01*
X-8239Y-9862D01*
X-8055Y-8937D01*
X-8239Y-8012D01*
X-8763Y-7227D01*
X-9547Y-6703D01*
X-10472Y-6519D01*
D02*
G37*
G36*
X-30472D02*
X-31398Y-6703D01*
X-32182Y-7227D01*
X-32706Y-8012D01*
X-32890Y-8937D01*
X-32706Y-9862D01*
X-32182Y-10647D01*
X-31398Y-11171D01*
X-30472Y-11355D01*
X-29547Y-11171D01*
X-28763Y-10647D01*
X-28238Y-9862D01*
X-28054Y-8937D01*
X-28238Y-8012D01*
X-28763Y-7227D01*
X-29547Y-6703D01*
X-30472Y-6519D01*
D02*
G37*
G36*
X15116Y-10343D02*
X13492D01*
Y-11967D01*
X13843Y-11897D01*
X14565Y-11415D01*
X15047Y-10694D01*
X15116Y-10343D01*
D02*
G37*
G36*
X12492D02*
X10868D01*
X10938Y-10694D01*
X11420Y-11415D01*
X12141Y-11897D01*
X12492Y-11967D01*
Y-10343D01*
D02*
G37*
G36*
X-10472Y-16519D02*
X-11398Y-16703D01*
X-12182Y-17227D01*
X-12706Y-18012D01*
X-12890Y-18937D01*
X-12706Y-19862D01*
X-12182Y-20647D01*
X-11398Y-21171D01*
X-10472Y-21355D01*
X-9547Y-21171D01*
X-8763Y-20647D01*
X-8239Y-19862D01*
X-8055Y-18937D01*
X-8239Y-18012D01*
X-8763Y-17227D01*
X-9547Y-16703D01*
X-10472Y-16519D01*
D02*
G37*
G36*
X-30472D02*
X-31398Y-16703D01*
X-32182Y-17227D01*
X-32706Y-18012D01*
X-32890Y-18937D01*
X-32706Y-19862D01*
X-32182Y-20647D01*
X-31398Y-21171D01*
X-30472Y-21355D01*
X-29547Y-21171D01*
X-28763Y-20647D01*
X-28238Y-19862D01*
X-28054Y-18937D01*
X-28238Y-18012D01*
X-28763Y-17227D01*
X-29547Y-16703D01*
X-30472Y-16519D01*
D02*
G37*
G36*
X-156693Y-17869D02*
X-157388Y-18007D01*
X-157977Y-18401D01*
X-158371Y-18990D01*
X-158509Y-19685D01*
X-158423Y-20117D01*
X-162978Y-24673D01*
X-181936D01*
X-182181Y-24306D01*
X-182770Y-23913D01*
X-183465Y-23775D01*
X-184160Y-23913D01*
X-184749Y-24306D01*
X-185142Y-24896D01*
X-185281Y-25591D01*
X-185142Y-26285D01*
X-184749Y-26875D01*
X-184160Y-27268D01*
X-183465Y-27406D01*
X-182770Y-27268D01*
X-182181Y-26875D01*
X-181936Y-26508D01*
X-162598D01*
X-162247Y-26438D01*
X-161950Y-26239D01*
X-157125Y-21415D01*
X-156693Y-21501D01*
X-155998Y-21363D01*
X-155409Y-20969D01*
X-155015Y-20380D01*
X-154877Y-19685D01*
X-155015Y-18990D01*
X-155409Y-18401D01*
X-155998Y-18007D01*
X-156693Y-17869D01*
D02*
G37*
G36*
X-79028Y-25635D02*
Y-27059D01*
X-77604D01*
X-77658Y-26785D01*
X-78097Y-26129D01*
X-78753Y-25690D01*
X-79028Y-25635D01*
D02*
G37*
G36*
X-80028D02*
X-80302Y-25690D01*
X-80958Y-26129D01*
X-81397Y-26785D01*
X-81451Y-27059D01*
X-80028D01*
Y-25635D01*
D02*
G37*
G36*
X-77604Y-28059D02*
X-79028D01*
Y-29483D01*
X-78753Y-29428D01*
X-78097Y-28990D01*
X-77658Y-28333D01*
X-77604Y-28059D01*
D02*
G37*
G36*
X-80028D02*
X-81451D01*
X-81397Y-28333D01*
X-80958Y-28990D01*
X-80302Y-29428D01*
X-80028Y-29483D01*
Y-28059D01*
D02*
G37*
G36*
X-129736Y-35449D02*
Y-38870D01*
X-126315D01*
X-126385Y-38338D01*
X-126784Y-37377D01*
X-127417Y-36551D01*
X-128243Y-35917D01*
X-129204Y-35519D01*
X-129736Y-35449D01*
D02*
G37*
G36*
X-110236Y-35787D02*
X-111164Y-35909D01*
X-112028Y-36267D01*
X-112770Y-36836D01*
X-113340Y-37578D01*
X-113698Y-38443D01*
X-113820Y-39370D01*
X-113698Y-40297D01*
X-113340Y-41162D01*
X-112770Y-41904D01*
X-112028Y-42473D01*
X-111164Y-42831D01*
X-110236Y-42954D01*
X-109309Y-42831D01*
X-108444Y-42473D01*
X-107702Y-41904D01*
X-107133Y-41162D01*
X-106775Y-40297D01*
X-106653Y-39370D01*
X-106775Y-38443D01*
X-107133Y-37578D01*
X-107702Y-36836D01*
X-108444Y-36267D01*
X-109309Y-35909D01*
X-110236Y-35787D01*
D02*
G37*
G36*
X-120236D02*
X-121164Y-35909D01*
X-122028Y-36267D01*
X-122770Y-36836D01*
X-123340Y-37578D01*
X-123697Y-38443D01*
X-123820Y-39370D01*
X-123697Y-40297D01*
X-123340Y-41162D01*
X-122770Y-41904D01*
X-122028Y-42473D01*
X-121164Y-42831D01*
X-120236Y-42954D01*
X-119309Y-42831D01*
X-118445Y-42473D01*
X-117702Y-41904D01*
X-117133Y-41162D01*
X-116775Y-40297D01*
X-116653Y-39370D01*
X-116775Y-38443D01*
X-117133Y-37578D01*
X-117702Y-36836D01*
X-118445Y-36267D01*
X-119309Y-35909D01*
X-120236Y-35787D01*
D02*
G37*
G36*
X-126315Y-39870D02*
X-129736D01*
Y-43291D01*
X-129204Y-43221D01*
X-128243Y-42823D01*
X-127417Y-42189D01*
X-126784Y-41363D01*
X-126385Y-40402D01*
X-126315Y-39870D01*
D02*
G37*
G36*
X-149213Y-40310D02*
X-149908Y-40448D01*
X-150497Y-40842D01*
X-150742Y-41208D01*
X-172144D01*
X-172495Y-41278D01*
X-172793Y-41477D01*
X-190610Y-59294D01*
X-191042Y-59208D01*
X-191737Y-59346D01*
X-192326Y-59740D01*
X-192720Y-60329D01*
X-192858Y-61024D01*
X-192720Y-61719D01*
X-192326Y-62308D01*
X-191737Y-62702D01*
X-191042Y-62840D01*
X-190347Y-62702D01*
X-189758Y-62308D01*
X-189364Y-61719D01*
X-189226Y-61024D01*
X-189312Y-60592D01*
X-171764Y-43044D01*
X-150742D01*
X-150497Y-43410D01*
X-149908Y-43804D01*
X-149213Y-43942D01*
X-148518Y-43804D01*
X-147929Y-43410D01*
X-147535Y-42821D01*
X-147397Y-42126D01*
X-147535Y-41431D01*
X-147929Y-40842D01*
X-148518Y-40448D01*
X-149213Y-40310D01*
D02*
G37*
G36*
X-137295Y-48273D02*
Y-49697D01*
X-135872D01*
X-135926Y-49423D01*
X-136365Y-48766D01*
X-137021Y-48328D01*
X-137295Y-48273D01*
D02*
G37*
G36*
X-138295D02*
X-138569Y-48328D01*
X-139226Y-48766D01*
X-139664Y-49423D01*
X-139719Y-49697D01*
X-138295D01*
Y-48273D01*
D02*
G37*
G36*
X-135872Y-50697D02*
X-137295D01*
Y-52121D01*
X-137021Y-52066D01*
X-136365Y-51627D01*
X-135926Y-50971D01*
X-135872Y-50697D01*
D02*
G37*
G36*
X-138295D02*
X-139719D01*
X-139664Y-50971D01*
X-139226Y-51627D01*
X-138569Y-52066D01*
X-138295Y-52121D01*
Y-50697D01*
D02*
G37*
G36*
X-62098Y-52604D02*
Y-54027D01*
X-60675D01*
X-60729Y-53753D01*
X-61168Y-53097D01*
X-61824Y-52658D01*
X-62098Y-52604D01*
D02*
G37*
G36*
X-63098D02*
X-63373Y-52658D01*
X-64029Y-53097D01*
X-64468Y-53753D01*
X-64522Y-54027D01*
X-63098D01*
Y-52604D01*
D02*
G37*
G36*
X-113689Y-52801D02*
X-113963Y-52855D01*
X-114620Y-53294D01*
X-115058Y-53950D01*
X-115113Y-54224D01*
X-113689D01*
Y-52801D01*
D02*
G37*
G36*
X-60675Y-55028D02*
X-62098D01*
Y-56451D01*
X-61824Y-56397D01*
X-61168Y-55958D01*
X-60729Y-55302D01*
X-60675Y-55028D01*
D02*
G37*
G36*
X-63098D02*
X-64522D01*
X-64468Y-55302D01*
X-64029Y-55958D01*
X-63373Y-56397D01*
X-63098Y-56451D01*
Y-55028D01*
D02*
G37*
G36*
X-113689Y-55224D02*
X-115113D01*
X-115058Y-55499D01*
X-114620Y-56155D01*
X-113963Y-56594D01*
X-113689Y-56648D01*
Y-55224D01*
D02*
G37*
G36*
X-56587Y-58509D02*
Y-59933D01*
X-55163D01*
X-55217Y-59659D01*
X-55656Y-59003D01*
X-56312Y-58564D01*
X-56587Y-58509D01*
D02*
G37*
G36*
X-57587D02*
X-57861Y-58564D01*
X-58517Y-59003D01*
X-58956Y-59659D01*
X-59010Y-59933D01*
X-57587D01*
Y-58509D01*
D02*
G37*
G36*
X-89657Y-60474D02*
Y-62098D01*
X-88033D01*
X-88103Y-61747D01*
X-88585Y-61026D01*
X-89306Y-60544D01*
X-89657Y-60474D01*
D02*
G37*
G36*
X-90658D02*
X-91009Y-60544D01*
X-91730Y-61026D01*
X-92212Y-61747D01*
X-92282Y-62098D01*
X-90658D01*
Y-60474D01*
D02*
G37*
G36*
X-55163Y-60933D02*
X-56587D01*
Y-62357D01*
X-56312Y-62302D01*
X-55656Y-61864D01*
X-55217Y-61207D01*
X-55163Y-60933D01*
D02*
G37*
G36*
X-57587D02*
X-59010D01*
X-58956Y-61207D01*
X-58517Y-61864D01*
X-57861Y-62302D01*
X-57587Y-62357D01*
Y-60933D01*
D02*
G37*
G36*
X-88033Y-63098D02*
X-89657D01*
Y-64723D01*
X-89306Y-64653D01*
X-88585Y-64171D01*
X-88103Y-63450D01*
X-88033Y-63098D01*
D02*
G37*
G36*
X-90658D02*
X-92282D01*
X-92212Y-63450D01*
X-91730Y-64171D01*
X-91009Y-64653D01*
X-90658Y-64723D01*
Y-63098D01*
D02*
G37*
G36*
X-27937Y-64453D02*
X-30012D01*
Y-66429D01*
X-27937D01*
Y-64453D01*
D02*
G37*
G36*
X-31012D02*
X-33087D01*
Y-66429D01*
X-31012D01*
Y-64453D01*
D02*
G37*
G36*
X-142510Y-66034D02*
X-146860D01*
Y-67193D01*
X-148416D01*
Y-66034D01*
X-152765D01*
Y-70187D01*
X-148416D01*
Y-69028D01*
X-146860D01*
Y-70187D01*
X-142510D01*
Y-66034D01*
D02*
G37*
G36*
X-211795Y-65437D02*
X-213870D01*
Y-67413D01*
X-211795D01*
Y-65437D01*
D02*
G37*
G36*
X-214870D02*
X-216945D01*
Y-67413D01*
X-214870D01*
Y-65437D01*
D02*
G37*
G36*
X-136205Y-65634D02*
X-138279D01*
Y-67610D01*
X-136205D01*
Y-65634D01*
D02*
G37*
G36*
X-139279D02*
X-141354D01*
Y-67610D01*
X-139279D01*
Y-65634D01*
D02*
G37*
G36*
X-22432Y-64853D02*
X-26781D01*
Y-69006D01*
X-22432D01*
Y-64853D01*
D02*
G37*
G36*
X-27937Y-67429D02*
X-30012D01*
Y-69406D01*
X-27937D01*
Y-67429D01*
D02*
G37*
G36*
X-31012D02*
X-33087D01*
Y-69406D01*
X-31012D01*
Y-67429D01*
D02*
G37*
G36*
X-49965Y-68947D02*
Y-70371D01*
X-48541D01*
X-48596Y-70097D01*
X-49034Y-69440D01*
X-49691Y-69002D01*
X-49965Y-68947D01*
D02*
G37*
G36*
X-50965D02*
X-51239Y-69002D01*
X-51895Y-69440D01*
X-52334Y-70097D01*
X-52389Y-70371D01*
X-50965D01*
Y-68947D01*
D02*
G37*
G36*
X-211795Y-68413D02*
X-213870D01*
Y-70390D01*
X-211795D01*
Y-68413D01*
D02*
G37*
G36*
X-214870D02*
X-216945D01*
Y-70390D01*
X-214870D01*
Y-68413D01*
D02*
G37*
G36*
X-136205Y-68610D02*
X-138279D01*
Y-70587D01*
X-136205D01*
Y-68610D01*
D02*
G37*
G36*
X-139279D02*
X-141354D01*
Y-70587D01*
X-139279D01*
Y-68610D01*
D02*
G37*
G36*
X-48541Y-71371D02*
X-49965D01*
Y-72795D01*
X-49691Y-72740D01*
X-49034Y-72301D01*
X-48596Y-71645D01*
X-48541Y-71371D01*
D02*
G37*
G36*
X-50965D02*
X-52389D01*
X-52334Y-71645D01*
X-51895Y-72301D01*
X-51239Y-72740D01*
X-50965Y-72795D01*
Y-71371D01*
D02*
G37*
G36*
X-127665Y-71740D02*
X-131217D01*
Y-73421D01*
X-127665D01*
Y-71740D01*
D02*
G37*
G36*
X-77756Y-65113D02*
X-78451Y-65251D01*
X-79040Y-65645D01*
X-79434Y-66234D01*
X-79572Y-66929D01*
X-79434Y-67624D01*
X-79040Y-68213D01*
X-78451Y-68607D01*
X-77756Y-68745D01*
X-77061Y-68607D01*
X-76896Y-68497D01*
X-74146Y-71246D01*
Y-73456D01*
X-74646Y-73663D01*
X-75993Y-72315D01*
X-75940Y-72047D01*
X-76078Y-71352D01*
X-76472Y-70763D01*
X-77061Y-70369D01*
X-77756Y-70231D01*
X-78451Y-70369D01*
X-79040Y-70763D01*
X-79434Y-71352D01*
X-79572Y-72047D01*
X-79434Y-72742D01*
X-79040Y-73331D01*
X-78662Y-73584D01*
X-78626Y-74158D01*
X-78628Y-74162D01*
X-78843Y-74306D01*
X-79237Y-74896D01*
X-79375Y-75590D01*
X-79289Y-76023D01*
X-80380Y-77114D01*
X-80907Y-76934D01*
X-80999Y-76470D01*
X-81393Y-75881D01*
X-81982Y-75488D01*
X-82677Y-75349D01*
X-83372Y-75488D01*
X-83961Y-75881D01*
X-84206Y-76248D01*
X-91326D01*
X-91677Y-76318D01*
X-91975Y-76516D01*
X-101792Y-86334D01*
X-102254Y-86143D01*
Y-84459D01*
X-105631D01*
X-105905Y-84404D01*
X-106180Y-84459D01*
X-109557D01*
Y-88021D01*
X-105982D01*
X-105905Y-88037D01*
X-105829Y-88021D01*
X-104132D01*
X-103941Y-88483D01*
X-114147Y-98689D01*
X-115354D01*
X-115706Y-98759D01*
X-116003Y-98957D01*
X-121615Y-104569D01*
X-122047Y-104483D01*
X-122742Y-104622D01*
X-123331Y-105015D01*
X-123725Y-105604D01*
X-123863Y-106299D01*
X-123725Y-106994D01*
X-123331Y-107583D01*
X-122742Y-107977D01*
X-122047Y-108115D01*
X-121352Y-107977D01*
X-120763Y-107583D01*
X-120370Y-106994D01*
X-120334Y-106814D01*
X-119824D01*
X-119788Y-106994D01*
X-119394Y-107583D01*
X-118805Y-107977D01*
X-118110Y-108115D01*
X-117415Y-107977D01*
X-116826Y-107583D01*
X-116432Y-106994D01*
X-116397Y-106814D01*
X-115887D01*
X-115851Y-106994D01*
X-115457Y-107583D01*
X-114868Y-107977D01*
X-114173Y-108115D01*
X-113478Y-107977D01*
X-112889Y-107583D01*
X-112496Y-106994D01*
X-112460Y-106814D01*
X-111950D01*
X-111914Y-106994D01*
X-111520Y-107583D01*
X-110931Y-107977D01*
X-110236Y-108115D01*
X-109541Y-107977D01*
X-108952Y-107583D01*
X-108558Y-106994D01*
X-108420Y-106299D01*
X-108506Y-105867D01*
X-105015Y-102376D01*
X-104472Y-102540D01*
X-104417Y-102820D01*
X-103935Y-103541D01*
X-103213Y-104023D01*
X-102862Y-104093D01*
Y-101969D01*
X-102362D01*
Y-101469D01*
X-100238D01*
X-100308Y-101118D01*
X-100790Y-100396D01*
X-101511Y-99914D01*
X-101791Y-99858D01*
X-101955Y-99316D01*
X-87809Y-85170D01*
X-79921D01*
X-79570Y-85100D01*
X-79272Y-84901D01*
X-72579Y-78208D01*
X-72381Y-77910D01*
X-72311Y-77559D01*
Y-70866D01*
X-72381Y-70515D01*
X-72579Y-70217D01*
X-75940Y-66857D01*
X-75956Y-66846D01*
X-76078Y-66234D01*
X-76472Y-65645D01*
X-77061Y-65251D01*
X-77756Y-65113D01*
D02*
G37*
G36*
X-101854Y-74059D02*
X-105405D01*
Y-75740D01*
X-101854D01*
Y-74059D01*
D02*
G37*
G36*
X-154321Y-66034D02*
X-158671D01*
Y-70187D01*
X-157414D01*
Y-73613D01*
X-157588D01*
Y-77962D01*
X-153435D01*
Y-76705D01*
X-150797D01*
Y-76978D01*
X-146054D01*
Y-75918D01*
X-143457D01*
X-143323Y-76362D01*
X-143323D01*
Y-78240D01*
X-140551D01*
X-137702D01*
X-137501Y-77940D01*
X-137446Y-77665D01*
X-139370D01*
Y-76665D01*
X-137446D01*
X-137496Y-76418D01*
X-137499Y-76330D01*
X-137243Y-75918D01*
X-130816D01*
Y-78021D01*
X-123514D01*
Y-74459D01*
X-129511D01*
X-129619Y-74351D01*
X-129917Y-74152D01*
X-130268Y-74082D01*
X-146054D01*
Y-73022D01*
X-150797D01*
Y-74870D01*
X-153435D01*
Y-73613D01*
X-155578D01*
Y-70187D01*
X-154321D01*
Y-66034D01*
D02*
G37*
G36*
X-101854Y-76740D02*
X-105405D01*
Y-78421D01*
X-101854D01*
Y-76740D01*
D02*
G37*
G36*
X-106405D02*
X-109957D01*
Y-78421D01*
X-106405D01*
Y-76740D01*
D02*
G37*
G36*
X-137779Y-79240D02*
X-140551D01*
X-143323D01*
Y-81063D01*
X-143323Y-81118D01*
X-143457Y-81563D01*
X-146054D01*
Y-80502D01*
X-150797D01*
Y-80775D01*
X-153435D01*
Y-79518D01*
X-157588D01*
Y-83868D01*
X-157414D01*
Y-86900D01*
X-158671D01*
Y-91053D01*
X-154321D01*
Y-86900D01*
X-155578D01*
Y-83868D01*
X-153435D01*
Y-82611D01*
X-150797D01*
Y-84458D01*
X-146054D01*
Y-83398D01*
X-135177D01*
X-135172Y-83414D01*
X-135062Y-83898D01*
X-135519Y-84582D01*
X-135589Y-84933D01*
X-133465D01*
Y-85433D01*
X-132965D01*
Y-87557D01*
X-132614Y-87488D01*
X-131892Y-87006D01*
X-131410Y-86284D01*
X-131316Y-85814D01*
X-130816Y-85863D01*
Y-88021D01*
X-123514D01*
Y-87158D01*
X-119705D01*
X-119354Y-87088D01*
X-119056Y-86889D01*
X-117558Y-85391D01*
X-117126Y-85477D01*
X-116431Y-85339D01*
X-115842Y-84945D01*
X-115448Y-84356D01*
X-115310Y-83661D01*
X-115448Y-82967D01*
X-115842Y-82377D01*
X-116431Y-81984D01*
X-117126Y-81845D01*
X-117821Y-81984D01*
X-118410Y-82377D01*
X-118804Y-82967D01*
X-118942Y-83661D01*
X-118856Y-84094D01*
X-120085Y-85322D01*
X-123514D01*
Y-84459D01*
X-130816D01*
Y-85003D01*
X-131316Y-85052D01*
X-131410Y-84582D01*
X-131867Y-83898D01*
X-131757Y-83414D01*
X-131752Y-83398D01*
X-130268D01*
X-129917Y-83328D01*
X-129619Y-83129D01*
X-129511Y-83021D01*
X-123514D01*
Y-79459D01*
X-130816D01*
Y-81563D01*
X-137646D01*
X-137779Y-81118D01*
X-137779Y-81063D01*
Y-79240D01*
D02*
G37*
G36*
X-133965Y-85933D02*
X-135589D01*
X-135519Y-86284D01*
X-135037Y-87006D01*
X-134316Y-87488D01*
X-133965Y-87557D01*
Y-85933D01*
D02*
G37*
G36*
X-142510Y-86900D02*
X-146860D01*
Y-88059D01*
X-148416D01*
Y-86900D01*
X-152765D01*
Y-91053D01*
X-148416D01*
Y-89894D01*
X-146860D01*
Y-91053D01*
X-142510D01*
Y-86900D01*
D02*
G37*
G36*
X-136205Y-86500D02*
X-138279D01*
Y-88476D01*
X-136205D01*
Y-86500D01*
D02*
G37*
G36*
X-139279D02*
X-141354D01*
Y-88476D01*
X-139279D01*
Y-86500D01*
D02*
G37*
G36*
X-136205Y-89476D02*
X-138279D01*
Y-91453D01*
X-136205D01*
Y-89476D01*
D02*
G37*
G36*
X-139279D02*
X-141354D01*
Y-91453D01*
X-139279D01*
Y-89476D01*
D02*
G37*
G36*
X2468Y-81674D02*
Y-97925D01*
X18720D01*
X18609Y-96235D01*
X18181Y-94081D01*
X17475Y-92002D01*
X16504Y-90033D01*
X15284Y-88208D01*
X13837Y-86557D01*
X12186Y-85110D01*
X10361Y-83890D01*
X8392Y-82919D01*
X6312Y-82213D01*
X4159Y-81785D01*
X2468Y-81674D01*
D02*
G37*
G36*
X1469D02*
X-222Y-81785D01*
X-2376Y-82213D01*
X-4454Y-82919D01*
X-6424Y-83890D01*
X-8249Y-85110D01*
X-9900Y-86557D01*
X-11347Y-88208D01*
X-12567Y-90033D01*
X-13538Y-92002D01*
X-14244Y-94081D01*
X-14672Y-96235D01*
X-14783Y-97925D01*
X1469D01*
Y-81674D01*
D02*
G37*
G36*
X-220957D02*
Y-97925D01*
X-204706D01*
X-204816Y-96235D01*
X-205245Y-94081D01*
X-205950Y-92002D01*
X-206921Y-90033D01*
X-208141Y-88208D01*
X-209589Y-86557D01*
X-211239Y-85110D01*
X-213065Y-83890D01*
X-215034Y-82919D01*
X-217113Y-82213D01*
X-219266Y-81785D01*
X-220957Y-81674D01*
D02*
G37*
G36*
X-221957D02*
X-223647Y-81785D01*
X-225801Y-82213D01*
X-227880Y-82919D01*
X-229849Y-83890D01*
X-231674Y-85110D01*
X-233325Y-86557D01*
X-234772Y-88208D01*
X-235992Y-90033D01*
X-236963Y-92002D01*
X-237669Y-94081D01*
X-238097Y-96235D01*
X-238208Y-97925D01*
X-221957D01*
Y-81674D01*
D02*
G37*
G36*
X-100238Y-102469D02*
X-101862D01*
Y-104093D01*
X-101511Y-104023D01*
X-100790Y-103541D01*
X-100308Y-102820D01*
X-100238Y-102469D01*
D02*
G37*
G36*
X18720Y-98925D02*
X2468D01*
Y-115176D01*
X4159Y-115066D01*
X6312Y-114637D01*
X8392Y-113932D01*
X10361Y-112961D01*
X12186Y-111741D01*
X13837Y-110293D01*
X15284Y-108643D01*
X16504Y-106817D01*
X17475Y-104848D01*
X18181Y-102769D01*
X18609Y-100616D01*
X18720Y-98925D01*
D02*
G37*
G36*
X1469D02*
X-14783D01*
X-14672Y-100616D01*
X-14244Y-102769D01*
X-13538Y-104848D01*
X-12567Y-106817D01*
X-11347Y-108643D01*
X-9900Y-110293D01*
X-8249Y-111741D01*
X-6424Y-112961D01*
X-4454Y-113932D01*
X-2376Y-114637D01*
X-222Y-115066D01*
X1469Y-115176D01*
Y-98925D01*
D02*
G37*
G36*
X-204706D02*
X-220957D01*
Y-115176D01*
X-219266Y-115066D01*
X-217113Y-114637D01*
X-215034Y-113932D01*
X-213065Y-112961D01*
X-211239Y-111741D01*
X-209589Y-110293D01*
X-208141Y-108643D01*
X-206921Y-106817D01*
X-205950Y-104848D01*
X-205245Y-102769D01*
X-204816Y-100616D01*
X-204706Y-98925D01*
D02*
G37*
G36*
X-221957D02*
X-238208D01*
X-238097Y-100616D01*
X-237669Y-102769D01*
X-236963Y-104848D01*
X-235992Y-106817D01*
X-234772Y-108643D01*
X-233325Y-110293D01*
X-231674Y-111741D01*
X-229849Y-112961D01*
X-227880Y-113932D01*
X-225801Y-114637D01*
X-223647Y-115066D01*
X-221957Y-115176D01*
Y-98925D01*
D02*
G37*
%LPD*%
G36*
X-93334Y108099D02*
X-93340Y108091D01*
X-93698Y107227D01*
X-93820Y106299D01*
X-93698Y105372D01*
X-93340Y104508D01*
X-92770Y103765D01*
X-92028Y103196D01*
X-91164Y102838D01*
X-90236Y102716D01*
X-89309Y102838D01*
X-88445Y103196D01*
X-87702Y103765D01*
X-87133Y104508D01*
X-86775Y105372D01*
X-86653Y106299D01*
X-86775Y107227D01*
X-87087Y107981D01*
X-86663Y108264D01*
X-85500Y107100D01*
Y98869D01*
X-90119Y94250D01*
X-90551Y94336D01*
X-91246Y94197D01*
X-91835Y93804D01*
X-92229Y93215D01*
X-92367Y92520D01*
X-92229Y91825D01*
X-91835Y91236D01*
X-91246Y90842D01*
X-91141Y90821D01*
X-91118Y90706D01*
X-90919Y90409D01*
X-77987Y77477D01*
X-78152Y76934D01*
X-78451Y76875D01*
X-79040Y76481D01*
X-79285Y76114D01*
X-88189D01*
X-88540Y76045D01*
X-88838Y75846D01*
X-92256Y72428D01*
X-99283D01*
X-99435Y72928D01*
X-99110Y73145D01*
X-98716Y73734D01*
X-98578Y74429D01*
X-98664Y74861D01*
X-94233Y79292D01*
X-94034Y79590D01*
X-93964Y79941D01*
Y84252D01*
X-94034Y84603D01*
X-94233Y84901D01*
X-94293Y84961D01*
X-94315Y85071D01*
X-94514Y85369D01*
X-109319Y100174D01*
Y102837D01*
X-109309Y102838D01*
X-108444Y103196D01*
X-107702Y103765D01*
X-107133Y104508D01*
X-106775Y105372D01*
X-106653Y106299D01*
X-106775Y107227D01*
X-107133Y108091D01*
X-107702Y108833D01*
X-108444Y109403D01*
X-109309Y109760D01*
X-110236Y109883D01*
X-111164Y109760D01*
X-112028Y109403D01*
X-112770Y108833D01*
X-113340Y108091D01*
X-113698Y107227D01*
X-113820Y106299D01*
X-113698Y105372D01*
X-113340Y104508D01*
X-112770Y103765D01*
X-112028Y103196D01*
X-111164Y102838D01*
X-111154Y102837D01*
Y99793D01*
X-111149Y99768D01*
X-111609Y99521D01*
X-116975Y104887D01*
X-116775Y105372D01*
X-116653Y106299D01*
X-116775Y107227D01*
X-117133Y108091D01*
X-117702Y108833D01*
X-118445Y109403D01*
X-119309Y109760D01*
X-120236Y109883D01*
X-121164Y109760D01*
X-122028Y109403D01*
X-122770Y108833D01*
X-123340Y108091D01*
X-123697Y107227D01*
X-123779Y106606D01*
X-124279Y106639D01*
Y108675D01*
X-121274Y111681D01*
X-96916D01*
X-93334Y108099D01*
D02*
G37*
%LPC*%
G36*
X-100236Y109883D02*
X-101164Y109760D01*
X-102028Y109403D01*
X-102770Y108833D01*
X-103340Y108091D01*
X-103698Y107227D01*
X-103820Y106299D01*
X-103698Y105372D01*
X-103340Y104508D01*
X-102770Y103765D01*
X-102028Y103196D01*
X-101164Y102838D01*
X-100236Y102716D01*
X-99309Y102838D01*
X-98444Y103196D01*
X-97702Y103765D01*
X-97133Y104508D01*
X-96775Y105372D01*
X-96653Y106299D01*
X-96775Y107227D01*
X-97133Y108091D01*
X-97702Y108833D01*
X-98444Y109403D01*
X-99309Y109760D01*
X-100236Y109883D01*
D02*
G37*
G36*
X-90051Y86963D02*
Y85539D01*
X-88627D01*
X-88682Y85814D01*
X-89121Y86470D01*
X-89777Y86909D01*
X-90051Y86963D01*
D02*
G37*
G36*
X-91051D02*
X-91325Y86909D01*
X-91982Y86470D01*
X-92420Y85814D01*
X-92475Y85539D01*
X-91051D01*
Y86963D01*
D02*
G37*
G36*
X-88627Y84539D02*
X-90051D01*
Y83116D01*
X-89777Y83170D01*
X-89121Y83609D01*
X-88682Y84265D01*
X-88627Y84539D01*
D02*
G37*
G36*
X-91051D02*
X-92475D01*
X-92420Y84265D01*
X-91982Y83609D01*
X-91325Y83170D01*
X-91051Y83116D01*
Y84539D01*
D02*
G37*
G36*
X-84933Y82439D02*
Y80815D01*
X-83309D01*
X-83378Y81166D01*
X-83861Y81888D01*
X-84582Y82370D01*
X-84933Y82439D01*
D02*
G37*
G36*
X-85933D02*
X-86284Y82370D01*
X-87006Y81888D01*
X-87488Y81166D01*
X-87557Y80815D01*
X-85933D01*
Y82439D01*
D02*
G37*
G36*
X-83309Y79815D02*
X-84933D01*
Y78191D01*
X-84582Y78260D01*
X-83861Y78742D01*
X-83378Y79464D01*
X-83309Y79815D01*
D02*
G37*
G36*
X-85933D02*
X-87557D01*
X-87488Y79464D01*
X-87006Y78742D01*
X-86284Y78260D01*
X-85933Y78191D01*
Y79815D01*
D02*
G37*
%LPD*%
D12*
X-95104Y-32283D02*
X-92205D01*
X-95104D02*
Y-29710D01*
Y-41384D02*
Y-32283D01*
X-172144Y-42126D02*
X-149213D01*
X-191042Y-61024D02*
X-172144Y-42126D01*
X-90551Y92520D02*
X-84582Y98489D01*
Y107480D01*
X-93243Y116142D02*
X-84582Y107480D01*
X-154921Y116142D02*
X-93243D01*
X-169488Y101575D02*
X-154921Y116142D01*
X-183661Y93701D02*
X-183465Y93504D01*
Y53150D02*
Y93504D01*
X-100394Y74429D02*
X-94882Y79941D01*
Y84252D01*
X-95163Y84533D02*
X-94882Y84252D01*
X-110773Y71510D02*
X-91876D01*
X-113386Y68898D02*
X-110773Y71510D01*
X-113386Y68504D02*
Y68898D01*
X-95163Y84533D02*
Y84720D01*
X-110236Y99793D02*
X-95163Y84720D01*
X-110236Y99793D02*
Y106299D01*
X-119685D02*
X-97244Y83858D01*
X-120236Y106299D02*
X-119685D01*
X-125197Y84646D02*
Y109055D01*
X-121653Y112598D01*
X-96535D01*
X-109857Y74995D02*
Y89319D01*
X-109055Y90120D01*
Y90551D01*
X-96304Y-40887D02*
Y-30207D01*
X-103674Y-22837D02*
X-96304Y-30207D01*
X-103674Y-22837D02*
Y38485D01*
X-89385Y52775D01*
X-72151D01*
X-69310Y55615D01*
X-88888Y51575D02*
X-71653D01*
X-102474Y37988D02*
X-88888Y51575D01*
X-68110Y55118D02*
Y71941D01*
X-71653Y51575D02*
X-68110Y55118D01*
X-69310Y55615D02*
Y70098D01*
X-90270Y91058D02*
X-69310Y70098D01*
X-90270Y91058D02*
Y92239D01*
X-90551Y92520D02*
X-90270Y92239D01*
X-85933Y89764D02*
X-68110Y71941D01*
X-102474Y-22340D02*
Y37988D01*
Y-22340D02*
X-95104Y-29710D01*
X-103820Y-50099D02*
X-95104Y-41384D01*
X-103820Y-55905D02*
Y-50099D01*
X-107730Y-52312D02*
X-96304Y-40887D01*
X-107730Y-55905D02*
Y-52312D01*
X-94488Y-63779D02*
Y-43622D01*
X-90236Y-39370D01*
X-200787Y-36756D02*
X-200394Y-37150D01*
Y-77165D02*
Y-37150D01*
X-87598Y70472D02*
X-77756D01*
X-91561Y66510D02*
X-87598Y70472D01*
X-110655Y66510D02*
X-91561D01*
X-88189Y75197D02*
X-77756D01*
X-91876Y71510D02*
X-88189Y75197D01*
X-134089Y-35664D02*
X-133858Y-35433D01*
X-134089Y-56462D02*
Y-35664D01*
Y-56462D02*
X-130709Y-59842D01*
X-199606Y-31890D02*
X-196457Y-28740D01*
Y-18626D01*
X-183052Y-5221D01*
Y48125D01*
X-174090Y57087D01*
X-156496D01*
X-199606Y-20079D02*
X-184252Y-4724D01*
Y48622D01*
X-157771Y75103D01*
Y75202D01*
X-156595Y76378D01*
X-156496D01*
X-214843Y29528D02*
X-205906Y20591D01*
Y-5906D02*
Y20591D01*
X-165354Y-62992D02*
X-156299Y-53937D01*
X-165354Y-83465D02*
Y-62992D01*
X-156299Y-53937D02*
X-145669D01*
X-119705Y-86240D02*
X-117126Y-83661D01*
X-127165Y-86240D02*
X-119705D01*
X-96535Y112598D02*
X-90236Y106299D01*
X-133858Y-35433D02*
Y59429D01*
X-162598Y-25591D02*
X-156693Y-19685D01*
X-183465Y-25591D02*
X-162598D01*
X-133858Y59429D02*
X-127165D01*
X-178740Y-96850D02*
X-165354Y-83465D01*
X-183071Y-96850D02*
X-178740D01*
X-112598Y64567D02*
X-110655Y66510D01*
X-116654Y64567D02*
X-112598D01*
X-116535Y72441D02*
X-112411D01*
X-109857Y74995D01*
X-118504Y70472D02*
X-116535Y72441D01*
X-139370Y89173D02*
X-126707Y76510D01*
X-123741D01*
X-122034Y74803D01*
X-112992D01*
X-118898Y61811D02*
X-83034D01*
X-110236Y56693D02*
X-82677D01*
X-112599Y59055D02*
X-110236Y56693D01*
X-83034Y61811D02*
X-78367Y66479D01*
X-82677Y56693D02*
X-73622Y65748D01*
X-116535Y59055D02*
X-112599D01*
X-78367Y66479D02*
X-77503D01*
X-77165Y66142D01*
X-129035Y64429D02*
X-127165D01*
X-129917Y63548D02*
X-129035Y64429D01*
X-129917Y63344D02*
Y63548D01*
X-130268Y62992D02*
X-129917Y63344D01*
X-73622Y65748D02*
Y69685D01*
X-156496Y57087D02*
X-155512Y58071D01*
Y63976D01*
X-154528Y62992D01*
X-148425D01*
X-156496Y76378D02*
X-155512Y75394D01*
Y69882D02*
Y75394D01*
Y69882D02*
X-154921Y70472D01*
X-148425D01*
X-150591Y57087D02*
X-144685D01*
X-150591Y76378D02*
X-144685D01*
X-148425Y62992D02*
X-130268D01*
X-129035Y69429D02*
X-127165D01*
X-130079Y70472D02*
X-129035Y69429D01*
X-148425Y70472D02*
X-130079D01*
X-149213Y-75787D02*
X-148425Y-75000D01*
X-155512Y-75787D02*
X-149213D01*
X-156496Y-74803D02*
X-155512Y-75787D01*
X-156496Y-74803D02*
Y-68110D01*
X-149213Y-81693D02*
X-148425Y-82480D01*
X-155512Y-81693D02*
X-149213D01*
X-156496Y-82677D02*
X-155512Y-81693D01*
X-156496Y-88976D02*
Y-82677D01*
X-150591Y-88976D02*
X-144685D01*
X-150591Y-68110D02*
X-144685D01*
X-148425Y-82480D02*
X-130268D01*
X-129917Y-82129D01*
Y-82121D01*
X-129035Y-81240D01*
X-127165D01*
X-148425Y-75000D02*
X-130268D01*
X-129917Y-75352D01*
Y-75359D02*
Y-75352D01*
Y-75359D02*
X-129035Y-76240D01*
X-127165D01*
X-110236Y-73622D02*
Y-49370D01*
X-100236Y-39370D01*
X-116535Y-79921D02*
X-110236Y-73622D01*
X-119291Y-79921D02*
X-116535D01*
X-137795Y-57677D02*
X-126313Y-69159D01*
X-123741D01*
X-121247Y-71653D01*
X-112598D01*
X-40157Y30748D02*
X-30472Y21063D01*
X-40157Y30748D02*
Y34646D01*
X-113767Y-99606D02*
X-91326Y-77165D01*
X-115354Y-99606D02*
X-113767D01*
X-122047Y-106299D02*
X-115354Y-99606D01*
X-76589Y-67505D02*
X-73228Y-70866D01*
X-76703Y-67505D02*
X-76589D01*
X-77279Y-66929D02*
X-76703Y-67505D01*
X-77756Y-66929D02*
X-77279D01*
X-73228Y-77559D02*
Y-70866D01*
X-79921Y-84252D02*
X-73228Y-77559D01*
X-88189Y-84252D02*
X-79921D01*
X-110236Y-106299D02*
X-88189Y-84252D01*
X-114173Y-106299D02*
X-90158Y-82284D01*
X-81102D01*
X-74803Y-75984D01*
Y-74803D01*
X-77559Y-72047D02*
X-74803Y-74803D01*
X-77756Y-72047D02*
X-77559D01*
X-118110Y-106299D02*
X-92126Y-80315D01*
X-82284D01*
X-77559Y-75590D01*
X-91326Y-77165D02*
X-82677D01*
X103543Y-15748D02*
X139764D01*
X88976Y-1181D02*
X103543Y-15748D01*
X88976Y12205D02*
X92913Y16142D01*
X139764D01*
D42*
X-208465Y-67913D02*
D03*
X-214370D02*
D03*
X-138779Y76378D02*
D03*
X-144685D02*
D03*
X-150591D02*
D03*
X-156496D02*
D03*
X-138779Y57087D02*
D03*
X-144685D02*
D03*
X-150591D02*
D03*
X-156496D02*
D03*
X-150591Y-88976D02*
D03*
X-156496D02*
D03*
X-138779Y-68110D02*
D03*
X-144685D02*
D03*
X-150591D02*
D03*
X-156496D02*
D03*
X-138779Y-88976D02*
D03*
X-144685D02*
D03*
X-24606Y66929D02*
D03*
X-30512D02*
D03*
X-24606Y-66929D02*
D03*
X-30512D02*
D03*
D48*
X-155512Y69882D02*
D03*
Y63976D02*
D03*
Y-75787D02*
D03*
Y-81693D02*
D03*
D49*
X-127165Y74429D02*
D03*
Y69429D02*
D03*
Y64429D02*
D03*
Y59429D02*
D03*
X-105905D02*
D03*
Y64429D02*
D03*
Y69429D02*
D03*
Y74429D02*
D03*
X-127165Y-71240D02*
D03*
Y-76240D02*
D03*
Y-81240D02*
D03*
Y-86240D02*
D03*
X-105905D02*
D03*
Y-81240D02*
D03*
Y-76240D02*
D03*
Y-71240D02*
D03*
D52*
X-148425Y62992D02*
D03*
Y70472D02*
D03*
X-140551Y66732D02*
D03*
X-148425Y-82480D02*
D03*
Y-75000D02*
D03*
X-140551Y-78740D02*
D03*
D59*
X-139764Y-98032D02*
X-126378D01*
X-177941D02*
X-139764D01*
X-83858Y-69685D02*
Y-34528D01*
X-100393Y-17993D02*
X-83858Y-34528D01*
X-100393Y-17993D02*
Y37126D01*
X-200394Y-37150D02*
X-200000Y-37543D01*
X-209449Y-28095D02*
X-200787Y-36756D01*
X-240158Y-34252D02*
X-216228D01*
X-215278Y-35201D01*
X-214961D01*
X-19410Y10000D02*
X51181D01*
X-30472Y21063D02*
X-19410Y10000D01*
X-85768Y64429D02*
X-84055Y66142D01*
X-105905Y64429D02*
X-85768D01*
X-88976Y-69685D02*
X-83858D01*
X-100531Y-81240D02*
X-88976Y-69685D01*
X-105905Y-81240D02*
X-100531D01*
X-109843Y-81496D02*
X-106161D01*
X-105905Y-81240D01*
X-126378Y-98032D02*
X-109843Y-81496D01*
X-179041Y-99132D02*
X-177941Y-98032D01*
X-184016Y-99132D02*
X-179041D01*
X-185116Y-98032D02*
X-184016Y-99132D01*
X-189370Y-98032D02*
X-185116D01*
X-208465Y-78937D02*
X-189370Y-98032D01*
X-208465Y-78937D02*
Y-67913D01*
X-135969Y-37543D02*
X-134089Y-35664D01*
X-200000Y-37543D02*
X-135969D01*
X-209449Y-28095D02*
Y-17323D01*
X-233465Y18229D02*
X-190669Y61024D01*
X-233465Y-8268D02*
Y18229D01*
X-209449Y-50000D02*
X-208465Y-50984D01*
Y-67913D02*
Y-50984D01*
X-235433Y-8268D02*
X-233465D01*
X-240158Y-12992D02*
X-235433Y-8268D01*
X-240158Y-34252D02*
Y-12992D01*
Y-34252D02*
X-233465Y-40945D01*
D60*
X-30472Y1063D02*
D03*
Y-8937D02*
D03*
Y-18937D02*
D03*
X-10472D02*
D03*
Y-8937D02*
D03*
Y1063D02*
D03*
Y21063D02*
D03*
X-30472D02*
D03*
D61*
X-787Y34646D02*
D03*
X-40157D02*
D03*
X-90236Y106299D02*
D03*
X-100236D02*
D03*
X-110236D02*
D03*
X-120236D02*
D03*
X-130236D02*
D03*
X-90236Y-39370D02*
D03*
X-100236D02*
D03*
X-110236D02*
D03*
X-120236D02*
D03*
X-130236D02*
D03*
D62*
X51181Y40000D02*
D03*
Y10000D02*
D03*
Y-10000D02*
D03*
Y-40000D02*
D03*
D63*
X-221457Y98425D02*
D03*
Y-98425D02*
D03*
X1969D02*
D03*
Y98425D02*
D03*
D64*
X-62992Y87205D02*
D03*
X-57480Y81299D02*
D03*
X-50653Y71260D02*
D03*
X-50465Y-70871D02*
D03*
X-78347Y88189D02*
D03*
X-90551Y85039D02*
D03*
X-78150Y45276D02*
D03*
X-212598Y17323D02*
D03*
X-217323D02*
D03*
X-106299Y44488D02*
D03*
X-113675Y89764D02*
D03*
X-113189Y-54724D02*
D03*
X-137795Y-50197D02*
D03*
X-139370Y-77165D02*
D03*
X-135827Y35039D02*
D03*
Y40000D02*
D03*
X-117520Y95669D02*
D03*
X-139370Y96653D02*
D03*
X-176181Y93701D02*
D03*
X-179528Y116732D02*
D03*
X-184646D02*
D03*
X-188976Y37402D02*
D03*
X-192913Y37401D02*
D03*
X-188583Y25197D02*
D03*
X-192913Y25591D02*
D03*
X-150000Y-6102D02*
D03*
X-156496Y5512D02*
D03*
X-92913Y-1772D02*
D03*
X-96850D02*
D03*
X-79528Y-27559D02*
D03*
X-62402Y7087D02*
D03*
X-57087Y-3524D02*
D03*
X-47047Y-9173D02*
D03*
Y827D02*
D03*
X-57087Y-60433D02*
D03*
X-62598Y-54527D02*
D03*
D65*
X-139764Y-98032D02*
D03*
X-92205Y-32283D02*
D03*
X-149213Y-42126D02*
D03*
X-191042Y-61024D02*
D03*
X-169488Y101575D02*
D03*
X-183661Y93701D02*
D03*
X-183465Y53150D02*
D03*
X-100394Y74429D02*
D03*
X-97244Y83858D02*
D03*
X-109055Y90551D02*
D03*
X-85933Y89764D02*
D03*
X-90551Y92520D02*
D03*
X-107730Y-55905D02*
D03*
X-103820D02*
D03*
X-94488Y-63779D02*
D03*
X-200394Y-77165D02*
D03*
X-240158Y-34252D02*
D03*
X-214961Y-35201D02*
D03*
X12992Y-9843D02*
D03*
X-24606Y66929D02*
D03*
X-84055Y66142D02*
D03*
X-100393Y37126D02*
D03*
X-83858Y-69685D02*
D03*
X-214843Y29528D02*
D03*
X-205906Y-5906D02*
D03*
X-199606Y-31890D02*
D03*
X-156496Y-88976D02*
D03*
X-199606Y-20079D02*
D03*
X-156496Y-68110D02*
D03*
X-113386Y68504D02*
D03*
X-117126Y-83661D02*
D03*
X-125197Y84646D02*
D03*
X-130709Y-59842D02*
D03*
X-133858Y59429D02*
D03*
X-134252Y67716D02*
D03*
X-85433Y80315D02*
D03*
X-133465Y-85433D02*
D03*
X-102362Y-101969D02*
D03*
X-90158Y-62598D02*
D03*
X-190669Y61024D02*
D03*
X-183071Y-96850D02*
D03*
X-145669Y-53937D02*
D03*
X-116654Y64567D02*
D03*
X-118504Y70472D02*
D03*
X-139370Y89173D02*
D03*
X-112992Y74803D02*
D03*
X-116535Y59055D02*
D03*
X-118898Y61811D02*
D03*
X-105905Y59429D02*
D03*
Y74429D02*
D03*
Y-86221D02*
D03*
Y-71240D02*
D03*
X-119291Y-79921D02*
D03*
X-137795Y-57677D02*
D03*
X-112598Y-71653D02*
D03*
X-156693Y-19685D02*
D03*
X-183465Y-25591D02*
D03*
X-110236Y-106299D02*
D03*
X-114173D02*
D03*
X-118110D02*
D03*
X-122047D02*
D03*
X-77559Y-75590D02*
D03*
X-82677Y-77165D02*
D03*
X-77756Y-72047D02*
D03*
Y-66929D02*
D03*
X-77165Y66142D02*
D03*
X-73622Y69685D02*
D03*
X-77756Y75197D02*
D03*
Y70472D02*
D03*
X-24606Y-66929D02*
D03*
X139764Y-15748D02*
D03*
X88976Y-1181D02*
D03*
Y12205D02*
D03*
X139764Y16142D02*
D03*
D66*
X-209449Y-50000D02*
D03*
Y-17323D02*
D03*
D67*
X-233465Y-40945D02*
D03*
Y-50000D02*
D03*
Y-59055D02*
D03*
Y-8268D02*
D03*
Y-17323D02*
D03*
Y-26378D02*
D03*
D68*
Y-17323D02*
X-209449D01*
X-233465Y-50000D02*
X-209449D01*
M02*
