M48
;Layer_Color=9474304
;FILE_FORMAT=2:5
INCH,LZ
;TYPE=PLATED
T1F00S00C0.01181
T2F00S00C0.02362
T3F00S00C0.02559
T4F00S00C0.03543
T5F00S00C0.04016
T6F00S00C0.16535
%
T01
X0139764Y-0015748
X0012992Y-0009843
X-0047047Y-0009173
X-0050465Y-0070871
X-0024606Y-0066929
X-0057087Y-0060433
X-0062598Y-0054527
X-0077756Y-0066929
Y-0072047
X-0077559Y-007559
X-0082677Y-0077165
X-0083858Y-0069685
X-0090158Y-0062598
X-0094488Y-0063779
X-010382Y-0055905
X-010773
X-0113189Y-0054724
X-0112598Y-0071653
X-0105905Y-007124
Y-0086221
X-0117126Y-0083661
X-0119291Y-0079921
X-0133465Y-0085433
X-013937Y-0077165
X-0137795Y-0057677
Y-0050197
X-0145669Y-0053937
X-0149213Y-0042126
X-0156693Y-0019685
X-0183465Y-0025591
X-0199606Y-0020079
Y-003189
X-0191042Y-0061024
X-0200394Y-0077165
X-0183071Y-009685
X-0156496Y-0088976
Y-006811
X-0130709Y-0059842
X-0139764Y-0098032
X-0122047Y-0106299
X-011811
X-0114173
X-0110236
X-0102362Y-0101969
X-0092205Y-0032283
X-0079528Y-0027559
X-0214961Y-0035201
X-0240158Y-0034252
X-0217323Y0017323
X-0212598
X-0214843Y0029528
X-0192913Y0025591
X-0188583Y0025197
X-0188976Y0037402
X-0192913Y0037401
X-0183465Y005315
X-0190669Y0061024
X-0183661Y0093701
X-0176181
X-0169488Y0101575
X-0179528Y0116732
X-0184646
X-013937Y0096653
Y0089173
X-0125197Y0084646
X-0113675Y0089764
X-0109055Y0090551
X-011752Y0095669
X-0112992Y0074803
X-0113386Y0068504
X-0118504Y0070472
X-0116654Y0064567
X-0118898Y0061811
X-0116535Y0059055
X-0105905Y0059429
Y0074429
X-0100394
X-0097244Y0083858
X-0090551Y0085039
Y009252
X-0085933Y0089764
X-0078347Y0088189
X-0077756Y0075197
Y0070472
X-0073622Y0069685
X-0077165Y0066142
X-0084055
X-0085433Y0080315
X-005748Y0081299
X-0062992Y0087205
X-007815Y0045276
X-0106299Y0044488
X-0100393Y0037126
X-0135827Y0035039
Y004
X-0133858Y0059429
X-0134252Y0067716
X-0156496Y0005512
X-015Y-0006102
X-0205906Y-0005906
X-009685Y-0001772
X-0092913
X-0057087Y-0003524
X-0062402Y0007087
X-0047047Y0000827
X-0050653Y007126
X-0024606Y0066929
X0088976Y0012205
Y-0001181
X0139764Y0016142
T02
X-0030472Y-0018937
Y-0008937
X-0010472
Y-0018937
Y0001063
X-0030472
Y0021063
X-0010472
T03
X0051181Y-004
Y-001
Y001
Y004
T04
X-0040157Y0034646
X-0000787
T05
X-0130236Y-003937
X-0120236
X-0110236
X-0100236
X-0090236
Y0106299
X-0100236
X-0110236
X-0120236
X-0130236
T06
X0001969Y-0098425
X-0221457
Y0098425
X0001969
M30
