G04*
G04 #@! TF.GenerationSoftware,Altium Limited,Altium Designer,19.0.13 (425)*
G04*
G04 Layer_Color=8388736*
%FSLAX25Y25*%
%MOIN*%
G70*
G01*
G75*
%ADD28R,0.03950X0.03753*%
%ADD29R,0.03753X0.03950*%
%ADD30R,0.08792X0.06784*%
%ADD31R,0.02769X0.04343*%
G04:AMPARAMS|DCode=32|XSize=55.12mil|YSize=55.12mil|CornerRadius=11.81mil|HoleSize=0mil|Usage=FLASHONLY|Rotation=90.000|XOffset=0mil|YOffset=0mil|HoleType=Round|Shape=RoundedRectangle|*
%AMROUNDEDRECTD32*
21,1,0.05512,0.03150,0,0,90.0*
21,1,0.03150,0.05512,0,0,90.0*
1,1,0.02362,0.01575,0.01575*
1,1,0.02362,0.01575,-0.01575*
1,1,0.02362,-0.01575,-0.01575*
1,1,0.02362,-0.01575,0.01575*
%
%ADD32ROUNDEDRECTD32*%
%ADD33R,0.03162X0.04737*%
%ADD34R,0.14304X0.07296*%
%ADD35R,0.05800X0.10800*%
%ADD36O,0.06509X0.03162*%
%ADD37O,0.05721X0.01784*%
%ADD38R,0.11599X0.09300*%
%ADD39R,0.05524X0.05524*%
%ADD40C,0.05918*%
%ADD41C,0.36233*%
G04:AMPARAMS|DCode=42|XSize=145.8mil|YSize=67.06mil|CornerRadius=33.53mil|HoleSize=0mil|Usage=FLASHONLY|Rotation=180.000|XOffset=0mil|YOffset=0mil|HoleType=Round|Shape=RoundedRectangle|*
%AMROUNDEDRECTD42*
21,1,0.14580,0.00000,0,0,180.0*
21,1,0.07874,0.06706,0,0,180.0*
1,1,0.06706,-0.03937,0.00000*
1,1,0.06706,0.03937,0.00000*
1,1,0.06706,0.03937,0.00000*
1,1,0.06706,-0.03937,0.00000*
%
%ADD42ROUNDEDRECTD42*%
%ADD43C,0.02572*%
%ADD44C,0.05524*%
D28*
X680118Y56235D02*
D03*
X686024D02*
D03*
X-34843Y94488D02*
D03*
X-40748D02*
D03*
X-4921Y-24364D02*
D03*
X-10827D02*
D03*
X67815Y-48031D02*
D03*
X61910D02*
D03*
X606398D02*
D03*
X600492D02*
D03*
X247342D02*
D03*
X241437D02*
D03*
X426870D02*
D03*
X420965D02*
D03*
X539272Y48031D02*
D03*
X545177D02*
D03*
X359744D02*
D03*
X365650D02*
D03*
X180217D02*
D03*
X186122D02*
D03*
X718799D02*
D03*
X724705D02*
D03*
X-247342D02*
D03*
X-241437D02*
D03*
X-426870D02*
D03*
X-420965D02*
D03*
X-67815D02*
D03*
X-61910D02*
D03*
X-180217Y-48031D02*
D03*
X-186122D02*
D03*
X-359744D02*
D03*
X-365650D02*
D03*
X-539272D02*
D03*
X-545177D02*
D03*
X-606398Y48031D02*
D03*
X-600492D02*
D03*
X-718799Y-48031D02*
D03*
X-724705D02*
D03*
X4528Y-38189D02*
D03*
X10433D02*
D03*
X-4921Y-29134D02*
D03*
X-10827D02*
D03*
X13189Y48031D02*
D03*
X7283D02*
D03*
X-33661D02*
D03*
X-39567D02*
D03*
X4528Y-29528D02*
D03*
X10433D02*
D03*
X-4921Y-38189D02*
D03*
X-10827D02*
D03*
X4528Y-33858D02*
D03*
X10433D02*
D03*
X-4921Y-33740D02*
D03*
X-10827D02*
D03*
D29*
X42913Y-2953D02*
D03*
Y2953D02*
D03*
X17717Y48227D02*
D03*
Y54133D02*
D03*
X22741D02*
D03*
Y48227D02*
D03*
X-42913Y-2953D02*
D03*
Y2953D02*
D03*
X-29134Y48227D02*
D03*
Y54133D02*
D03*
X-24298Y54134D02*
D03*
Y48228D02*
D03*
X14173Y11614D02*
D03*
Y17520D02*
D03*
X25197D02*
D03*
Y11614D02*
D03*
X19685Y17520D02*
D03*
Y11614D02*
D03*
X-7480Y-63189D02*
D03*
Y-57284D02*
D03*
X114370Y-14173D02*
D03*
Y-8268D02*
D03*
X99606Y-14173D02*
D03*
Y-8268D02*
D03*
X109449Y-8268D02*
D03*
Y-14174D02*
D03*
X104528Y-14173D02*
D03*
Y-8268D02*
D03*
X652953Y-14173D02*
D03*
Y-8268D02*
D03*
X638189Y-14173D02*
D03*
Y-8268D02*
D03*
X648032Y-8268D02*
D03*
Y-14174D02*
D03*
X643110Y-14173D02*
D03*
Y-8268D02*
D03*
X293898Y-14173D02*
D03*
Y-8268D02*
D03*
X279134Y-14173D02*
D03*
Y-8268D02*
D03*
X288976Y-8268D02*
D03*
Y-14174D02*
D03*
X284055Y-14173D02*
D03*
Y-8268D02*
D03*
X473425Y-14173D02*
D03*
Y-8268D02*
D03*
X458661Y-14173D02*
D03*
Y-8268D02*
D03*
X468504Y-8268D02*
D03*
Y-14174D02*
D03*
X463583Y-14173D02*
D03*
Y-8268D02*
D03*
X492717Y14173D02*
D03*
Y8268D02*
D03*
X507480Y14173D02*
D03*
Y8268D02*
D03*
X497638Y8268D02*
D03*
Y14174D02*
D03*
X502559Y14173D02*
D03*
Y8268D02*
D03*
X313189Y14173D02*
D03*
Y8268D02*
D03*
X327953Y14173D02*
D03*
Y8268D02*
D03*
X318110Y8268D02*
D03*
Y14174D02*
D03*
X323031Y14173D02*
D03*
Y8268D02*
D03*
X133661Y14173D02*
D03*
Y8268D02*
D03*
X148425Y14173D02*
D03*
Y8268D02*
D03*
X138583Y8268D02*
D03*
Y14174D02*
D03*
X143504Y14173D02*
D03*
Y8268D02*
D03*
X672244Y14173D02*
D03*
Y8268D02*
D03*
X687008Y14173D02*
D03*
Y8268D02*
D03*
X677165Y8268D02*
D03*
Y14174D02*
D03*
X682087Y14173D02*
D03*
Y8268D02*
D03*
X-293898Y14173D02*
D03*
Y8268D02*
D03*
X-279134Y14173D02*
D03*
Y8268D02*
D03*
X-288976Y8268D02*
D03*
Y14174D02*
D03*
X-284055Y14173D02*
D03*
Y8268D02*
D03*
X-473425Y14173D02*
D03*
Y8268D02*
D03*
X-458661Y14173D02*
D03*
Y8268D02*
D03*
X-468504Y8268D02*
D03*
Y14174D02*
D03*
X-463583Y14173D02*
D03*
Y8268D02*
D03*
X-114370Y14173D02*
D03*
Y8268D02*
D03*
X-99606Y14173D02*
D03*
Y8268D02*
D03*
X-109449Y8268D02*
D03*
Y14174D02*
D03*
X-104528Y14173D02*
D03*
Y8268D02*
D03*
X-133661Y-14173D02*
D03*
Y-8268D02*
D03*
X-148425Y-14173D02*
D03*
Y-8268D02*
D03*
X-138583Y-8268D02*
D03*
Y-14174D02*
D03*
X-143504Y-14173D02*
D03*
Y-8268D02*
D03*
X-313189Y-14173D02*
D03*
Y-8268D02*
D03*
X-327953Y-14173D02*
D03*
Y-8268D02*
D03*
X-318110Y-8268D02*
D03*
Y-14174D02*
D03*
X-323031Y-14173D02*
D03*
Y-8268D02*
D03*
X-492717Y-14173D02*
D03*
Y-8268D02*
D03*
X-507480Y-14173D02*
D03*
Y-8268D02*
D03*
X-497638Y-8268D02*
D03*
Y-14174D02*
D03*
X-502559Y-14173D02*
D03*
Y-8268D02*
D03*
X394Y31693D02*
D03*
Y25787D02*
D03*
X-46457Y31693D02*
D03*
Y25787D02*
D03*
X-643110Y8268D02*
D03*
Y14173D02*
D03*
X-682087Y-8268D02*
D03*
Y-14173D02*
D03*
X-24803Y17520D02*
D03*
Y11614D02*
D03*
X-648032Y14174D02*
D03*
Y8268D02*
D03*
X-677165Y-14174D02*
D03*
Y-8268D02*
D03*
X1654Y-17953D02*
D03*
Y-12047D02*
D03*
X-15354Y17520D02*
D03*
Y11614D02*
D03*
X5118Y-43110D02*
D03*
Y-49016D02*
D03*
X-5512Y-49213D02*
D03*
Y-43307D02*
D03*
X-638189Y14173D02*
D03*
Y8268D02*
D03*
X-687008Y-14173D02*
D03*
Y-8268D02*
D03*
X10236Y-49016D02*
D03*
Y-43110D02*
D03*
X-10630D02*
D03*
Y-49016D02*
D03*
X-652953Y8268D02*
D03*
Y14173D02*
D03*
X-672244Y-8268D02*
D03*
Y-14173D02*
D03*
X7126Y-11969D02*
D03*
Y-17874D02*
D03*
X-12205Y-63189D02*
D03*
Y-57284D02*
D03*
X-20079Y11614D02*
D03*
Y17520D02*
D03*
D30*
X707480Y37421D02*
D03*
Y49390D02*
D03*
X617717Y-37421D02*
D03*
Y-49390D02*
D03*
X527953Y37421D02*
D03*
Y49390D02*
D03*
X438189Y-37421D02*
D03*
Y-49390D02*
D03*
X348425Y37421D02*
D03*
Y49390D02*
D03*
X258661Y-37421D02*
D03*
Y-49390D02*
D03*
X168898Y37421D02*
D03*
Y49390D02*
D03*
X79134Y-37421D02*
D03*
Y-49390D02*
D03*
X-79134Y37421D02*
D03*
Y49390D02*
D03*
X-168898Y-37421D02*
D03*
Y-49390D02*
D03*
X-258661Y37421D02*
D03*
Y49390D02*
D03*
X-348425Y-37421D02*
D03*
Y-49390D02*
D03*
X-438189Y37421D02*
D03*
Y49390D02*
D03*
X-527953Y-37421D02*
D03*
Y-49390D02*
D03*
X-617717Y37421D02*
D03*
Y49390D02*
D03*
X-707480Y-37421D02*
D03*
Y-49390D02*
D03*
D31*
X36417Y17323D02*
D03*
X30512D02*
D03*
X30512Y12205D02*
D03*
X36417D02*
D03*
X-29724Y16929D02*
D03*
X-35630D02*
D03*
X-35630Y11811D02*
D03*
X-29724D02*
D03*
D32*
X36220Y0D02*
D03*
Y-5118D02*
D03*
Y5118D02*
D03*
X16142D02*
D03*
Y-5118D02*
D03*
Y0D02*
D03*
X-22441Y5118D02*
D03*
Y-5118D02*
D03*
Y0D02*
D03*
X22835Y5118D02*
D03*
Y-5118D02*
D03*
Y0D02*
D03*
X-15748Y5118D02*
D03*
Y-5118D02*
D03*
Y0D02*
D03*
X29528Y5118D02*
D03*
Y-5118D02*
D03*
Y0D02*
D03*
X-29134Y5118D02*
D03*
Y-5118D02*
D03*
Y0D02*
D03*
X-35827Y5118D02*
D03*
Y-5118D02*
D03*
Y0D02*
D03*
X14764Y-103347D02*
D03*
Y-113583D02*
D03*
Y-108465D02*
D03*
X-14764Y-103347D02*
D03*
Y-113583D02*
D03*
Y-108465D02*
D03*
X21457Y-103347D02*
D03*
Y-113583D02*
D03*
Y-108465D02*
D03*
X-21457Y-103347D02*
D03*
Y-113583D02*
D03*
Y-108465D02*
D03*
X28150Y-103347D02*
D03*
Y-113583D02*
D03*
Y-108465D02*
D03*
X-28150Y-103347D02*
D03*
Y-113583D02*
D03*
Y-108465D02*
D03*
X34843Y-103347D02*
D03*
Y-113583D02*
D03*
Y-108465D02*
D03*
X-34843Y-103347D02*
D03*
Y-113583D02*
D03*
Y-108465D02*
D03*
D33*
X718209Y32972D02*
D03*
X725689D02*
D03*
X721949Y42421D02*
D03*
X606988Y-32972D02*
D03*
X599508D02*
D03*
X603248Y-42421D02*
D03*
X538681Y32972D02*
D03*
X546161D02*
D03*
X542421Y42421D02*
D03*
X427461Y-32972D02*
D03*
X419980D02*
D03*
X423721Y-42421D02*
D03*
X359154Y32972D02*
D03*
X366634D02*
D03*
X362894Y42421D02*
D03*
X247933Y-32972D02*
D03*
X240453D02*
D03*
X244193Y-42421D02*
D03*
X179626Y32972D02*
D03*
X187106D02*
D03*
X183366Y42421D02*
D03*
X68405Y-32972D02*
D03*
X60925D02*
D03*
X64665Y-42421D02*
D03*
X-68405Y32972D02*
D03*
X-60925D02*
D03*
X-64665Y42421D02*
D03*
X-179626Y-32972D02*
D03*
X-187106D02*
D03*
X-183366Y-42421D02*
D03*
X-247933Y32972D02*
D03*
X-240453D02*
D03*
X-244193Y42421D02*
D03*
X-359154Y-32972D02*
D03*
X-366634D02*
D03*
X-362894Y-42421D02*
D03*
X-427461Y32972D02*
D03*
X-419980D02*
D03*
X-423721Y42421D02*
D03*
X-538681Y-32972D02*
D03*
X-546161D02*
D03*
X-542421Y-42421D02*
D03*
X-606988Y32972D02*
D03*
X-599508D02*
D03*
X-603248Y42421D02*
D03*
X-718209Y-32972D02*
D03*
X-725689D02*
D03*
X-721949Y-42421D02*
D03*
D34*
X-21220Y78740D02*
D03*
X21220D02*
D03*
D35*
X5906Y65236D02*
D03*
X-5906D02*
D03*
D36*
X28445Y26752D02*
D03*
Y31752D02*
D03*
Y36752D02*
D03*
Y41752D02*
D03*
X6988Y26752D02*
D03*
Y31752D02*
D03*
Y36752D02*
D03*
Y41752D02*
D03*
X-18012Y26752D02*
D03*
Y31752D02*
D03*
Y36752D02*
D03*
Y41752D02*
D03*
X-39469Y26752D02*
D03*
Y31752D02*
D03*
Y36752D02*
D03*
Y41752D02*
D03*
D37*
X46457Y-59449D02*
D03*
Y-57480D02*
D03*
Y-55512D02*
D03*
Y-53543D02*
D03*
Y-51575D02*
D03*
Y-49606D02*
D03*
Y-47638D02*
D03*
Y-45669D02*
D03*
Y-43701D02*
D03*
Y-41732D02*
D03*
Y-39764D02*
D03*
Y-37795D02*
D03*
Y-35827D02*
D03*
Y-33858D02*
D03*
Y-31890D02*
D03*
Y-29921D02*
D03*
Y-27953D02*
D03*
Y-25984D02*
D03*
Y-24016D02*
D03*
Y-22047D02*
D03*
Y-20079D02*
D03*
Y-18110D02*
D03*
Y-16142D02*
D03*
Y-14173D02*
D03*
X18898Y-59449D02*
D03*
Y-57480D02*
D03*
Y-55512D02*
D03*
Y-53543D02*
D03*
Y-51575D02*
D03*
Y-49606D02*
D03*
Y-47638D02*
D03*
Y-45669D02*
D03*
Y-43701D02*
D03*
Y-41732D02*
D03*
Y-39764D02*
D03*
Y-37795D02*
D03*
Y-35827D02*
D03*
Y-33858D02*
D03*
Y-31890D02*
D03*
Y-29921D02*
D03*
Y-27953D02*
D03*
Y-25984D02*
D03*
Y-24016D02*
D03*
Y-22047D02*
D03*
Y-20079D02*
D03*
Y-18110D02*
D03*
Y-16142D02*
D03*
Y-14173D02*
D03*
X-46850Y-14173D02*
D03*
Y-16142D02*
D03*
Y-18110D02*
D03*
Y-20079D02*
D03*
Y-22047D02*
D03*
Y-24016D02*
D03*
Y-25984D02*
D03*
Y-27953D02*
D03*
Y-29921D02*
D03*
Y-31890D02*
D03*
Y-33858D02*
D03*
Y-35827D02*
D03*
Y-37795D02*
D03*
Y-39764D02*
D03*
Y-41732D02*
D03*
Y-43701D02*
D03*
Y-45669D02*
D03*
Y-47638D02*
D03*
Y-49606D02*
D03*
Y-51575D02*
D03*
Y-53543D02*
D03*
Y-55512D02*
D03*
Y-57480D02*
D03*
Y-59449D02*
D03*
X-19291Y-14173D02*
D03*
Y-16142D02*
D03*
Y-18110D02*
D03*
Y-20079D02*
D03*
Y-22047D02*
D03*
Y-24016D02*
D03*
Y-25984D02*
D03*
Y-27953D02*
D03*
Y-29921D02*
D03*
Y-31890D02*
D03*
Y-33858D02*
D03*
Y-35827D02*
D03*
Y-37795D02*
D03*
Y-39764D02*
D03*
Y-41732D02*
D03*
Y-43701D02*
D03*
Y-45669D02*
D03*
Y-47638D02*
D03*
Y-49606D02*
D03*
Y-51575D02*
D03*
Y-53543D02*
D03*
Y-55512D02*
D03*
Y-57480D02*
D03*
Y-59449D02*
D03*
D38*
X38110Y66575D02*
D03*
Y83976D02*
D03*
X-37795Y66496D02*
D03*
Y83898D02*
D03*
D39*
X38583Y30315D02*
D03*
Y42126D02*
D03*
X-7874Y30315D02*
D03*
Y42126D02*
D03*
D40*
X-705118Y32677D02*
D03*
X-712992D02*
D03*
X705118Y-32677D02*
D03*
X712992D02*
D03*
X620079Y32677D02*
D03*
X612205D02*
D03*
X525591Y-32677D02*
D03*
X533465D02*
D03*
X440551Y32677D02*
D03*
X432677D02*
D03*
X346063Y-32677D02*
D03*
X353937D02*
D03*
X261024Y32677D02*
D03*
X253150D02*
D03*
X166535Y-32677D02*
D03*
X174409D02*
D03*
X81496Y32677D02*
D03*
X73622D02*
D03*
X-81496Y-32677D02*
D03*
X-73622D02*
D03*
X-166535Y32677D02*
D03*
X-174409D02*
D03*
X-261024Y-32677D02*
D03*
X-253150D02*
D03*
X-346063Y32677D02*
D03*
X-353937D02*
D03*
X-440551Y-32677D02*
D03*
X-432677D02*
D03*
X-525591Y32677D02*
D03*
X-533465D02*
D03*
X-620079Y-32677D02*
D03*
X-612205D02*
D03*
D41*
X-707480Y-88583D02*
D03*
Y88583D02*
D03*
X707480Y88583D02*
D03*
Y-88583D02*
D03*
X617717Y-88583D02*
D03*
Y88583D02*
D03*
X527953Y88583D02*
D03*
Y-88583D02*
D03*
X438189Y-88583D02*
D03*
Y88583D02*
D03*
X348425Y88583D02*
D03*
Y-88583D02*
D03*
X258661Y-88583D02*
D03*
Y88583D02*
D03*
X168898Y88583D02*
D03*
Y-88583D02*
D03*
X79134Y-88583D02*
D03*
Y88583D02*
D03*
X-79134Y88583D02*
D03*
Y-88583D02*
D03*
X-168898Y-88583D02*
D03*
Y88583D02*
D03*
X-258661Y88583D02*
D03*
Y-88583D02*
D03*
X-348425Y-88583D02*
D03*
Y88583D02*
D03*
X-438189Y88583D02*
D03*
Y-88583D02*
D03*
X-527953Y-88583D02*
D03*
Y88583D02*
D03*
X-617717Y88583D02*
D03*
Y-88583D02*
D03*
D42*
X-707480Y-119783D02*
D03*
X-697480Y-92047D02*
D03*
X-717480D02*
D03*
X-697480Y92047D02*
D03*
X-717480D02*
D03*
X-707480Y119783D02*
D03*
X707480Y119783D02*
D03*
X697480Y92047D02*
D03*
X717480D02*
D03*
X697480Y-92047D02*
D03*
X717480D02*
D03*
X707480Y-119783D02*
D03*
X617717Y-119783D02*
D03*
X627716Y-92047D02*
D03*
X607717D02*
D03*
X627716Y92047D02*
D03*
X607717D02*
D03*
X617717Y119783D02*
D03*
X527953Y119783D02*
D03*
X517953Y92047D02*
D03*
X537953D02*
D03*
X517953Y-92047D02*
D03*
X537953D02*
D03*
X527953Y-119783D02*
D03*
X438189Y-119783D02*
D03*
X448189Y-92047D02*
D03*
X428189D02*
D03*
X448189Y92047D02*
D03*
X428189D02*
D03*
X438189Y119783D02*
D03*
X348425Y119783D02*
D03*
X338425Y92047D02*
D03*
X358425D02*
D03*
X338425Y-92047D02*
D03*
X358425D02*
D03*
X348425Y-119783D02*
D03*
X258661Y-119783D02*
D03*
X268661Y-92047D02*
D03*
X248661D02*
D03*
X268661Y92047D02*
D03*
X248661D02*
D03*
X258661Y119783D02*
D03*
X168898Y119783D02*
D03*
X158898Y92047D02*
D03*
X178898D02*
D03*
X158898Y-92047D02*
D03*
X178898D02*
D03*
X168898Y-119783D02*
D03*
X79134Y-119783D02*
D03*
X89134Y-92047D02*
D03*
X69134D02*
D03*
X89134Y92047D02*
D03*
X69134D02*
D03*
X79134Y119783D02*
D03*
X-79134Y119783D02*
D03*
X-89134Y92047D02*
D03*
X-69134D02*
D03*
X-89134Y-92047D02*
D03*
X-69134D02*
D03*
X-79134Y-119783D02*
D03*
X-168898Y-119783D02*
D03*
X-158898Y-92047D02*
D03*
X-178898D02*
D03*
X-158898Y92047D02*
D03*
X-178898D02*
D03*
X-168898Y119783D02*
D03*
X-258661Y119783D02*
D03*
X-268661Y92047D02*
D03*
X-248661D02*
D03*
X-268661Y-92047D02*
D03*
X-248661D02*
D03*
X-258661Y-119783D02*
D03*
X-348425Y-119783D02*
D03*
X-338425Y-92047D02*
D03*
X-358425D02*
D03*
X-338425Y92047D02*
D03*
X-358425D02*
D03*
X-348425Y119783D02*
D03*
X-438189Y119783D02*
D03*
X-448189Y92047D02*
D03*
X-428189D02*
D03*
X-448189Y-92047D02*
D03*
X-428189D02*
D03*
X-438189Y-119783D02*
D03*
X-527953Y-119783D02*
D03*
X-517953Y-92047D02*
D03*
X-537953D02*
D03*
X-517953Y92047D02*
D03*
X-537953D02*
D03*
X-527953Y119783D02*
D03*
X-617717Y119783D02*
D03*
X-627716Y92047D02*
D03*
X-607717D02*
D03*
X-627716Y-92047D02*
D03*
X-607717D02*
D03*
X-617717Y-119783D02*
D03*
D43*
X-28150Y38386D02*
D03*
X-4725Y-24364D02*
D03*
X-11024Y-23622D02*
D03*
X42913Y2413D02*
D03*
X-40354Y5906D02*
D03*
X32306Y51181D02*
D03*
X1969Y53149D02*
D03*
X-5921D02*
D03*
X22835Y5118D02*
D03*
X16142Y5433D02*
D03*
X-15676Y4951D02*
D03*
X-22369D02*
D03*
X13189Y42421D02*
D03*
X-33465Y43364D02*
D03*
X51181Y-44685D02*
D03*
Y-47539D02*
D03*
X61220Y-43307D02*
D03*
X51181Y-39764D02*
D03*
X53543Y-41339D02*
D03*
X51181Y-36811D02*
D03*
X34843Y-113583D02*
D03*
X28150D02*
D03*
X21457D02*
D03*
X14764D02*
D03*
X4528Y-38189D02*
D03*
X3543Y-12500D02*
D03*
X7126Y-11969D02*
D03*
X36220Y28364D02*
D03*
X36417Y32677D02*
D03*
X37402Y30315D02*
D03*
X36417Y17323D02*
D03*
X19685Y11614D02*
D03*
X8501Y26752D02*
D03*
X5118Y26745D02*
D03*
X706693Y-14173D02*
D03*
X677264Y8268D02*
D03*
X-7480Y-33071D02*
D03*
X-38167Y31752D02*
D03*
X-10630Y-48957D02*
D03*
X-14764Y-113583D02*
D03*
X-21457D02*
D03*
X-28150D02*
D03*
X-34843D02*
D03*
X-35531Y-60528D02*
D03*
X-35433Y-72835D02*
D03*
Y-51073D02*
D03*
X-7480Y-63189D02*
D03*
X-12205D02*
D03*
X-37402Y26578D02*
D03*
X-6693Y31752D02*
D03*
X-20079Y11614D02*
D03*
X-10827Y-29134D02*
D03*
X-14567Y-103347D02*
D03*
X-39469Y41752D02*
D03*
X23228Y-48701D02*
D03*
X25512Y-50197D02*
D03*
X23110Y-45906D02*
D03*
X6988Y36752D02*
D03*
X10236Y-43012D02*
D03*
X14764Y-103347D02*
D03*
X3543Y-28937D02*
D03*
X14272Y-12008D02*
D03*
X15157Y-25197D02*
D03*
X-20472Y-48425D02*
D03*
X-17323D02*
D03*
X-14567Y-43701D02*
D03*
X14173Y-28937D02*
D03*
X34646Y-30315D02*
D03*
X37795D02*
D03*
X40945D02*
D03*
X52165Y-16043D02*
D03*
X53642Y-18602D02*
D03*
X51181Y-20079D02*
D03*
X59252Y-19882D02*
D03*
X24803Y-12500D02*
D03*
X668504Y13386D02*
D03*
X709447Y-13780D02*
D03*
X68405Y-32874D02*
D03*
X53937Y-12500D02*
D03*
X109449Y-8268D02*
D03*
X138583Y7972D02*
D03*
X148425Y14075D02*
D03*
X279331Y-14173D02*
D03*
X53150Y-22146D02*
D03*
X51279Y-24803D02*
D03*
X53150Y-28543D02*
D03*
X288976Y-8268D02*
D03*
X318110Y8366D02*
D03*
X327953Y14173D02*
D03*
X53642Y-34941D02*
D03*
X458661Y-14075D02*
D03*
X468504Y-8169D02*
D03*
X497638Y8268D02*
D03*
X507382Y13878D02*
D03*
X638189Y-14075D02*
D03*
X648032Y-8268D02*
D03*
X41437Y-48819D02*
D03*
X687008Y14075D02*
D03*
X51083Y-53543D02*
D03*
X-50394Y-11786D02*
D03*
X42126Y-60138D02*
D03*
X-35531Y-45079D02*
D03*
X-42028Y-43012D02*
D03*
Y-46358D02*
D03*
X-40354Y-59055D02*
D03*
X-19685Y-62008D02*
D03*
X-61023Y-55118D02*
D03*
X-58268D02*
D03*
X-55118Y-55118D02*
D03*
X-709447Y13780D02*
D03*
X-51575Y-33071D02*
D03*
Y-29921D02*
D03*
Y-37795D02*
D03*
X-54724Y-34646D02*
D03*
X-25197Y-77756D02*
D03*
X-25000Y-66831D02*
D03*
X-25098Y-56102D02*
D03*
X-25197Y-45276D02*
D03*
X14173Y-18110D02*
D03*
Y-21654D02*
D03*
X34449Y-10827D02*
D03*
Y-20472D02*
D03*
X-51575Y-16535D02*
D03*
X-109448Y8268D02*
D03*
X-99606Y14075D02*
D03*
X-51575Y-25984D02*
D03*
X-54068Y-27874D02*
D03*
X-50787Y20079D02*
D03*
X-138583Y-8268D02*
D03*
X-148425Y-13780D02*
D03*
X-288976Y8268D02*
D03*
X-279134Y14173D02*
D03*
X-54724Y-37795D02*
D03*
X-318110Y-8268D02*
D03*
X-327559Y-13780D02*
D03*
X-42520Y-49606D02*
D03*
X-458661Y14075D02*
D03*
X-468504Y8268D02*
D03*
X-51181Y-48425D02*
D03*
X-42520Y-53543D02*
D03*
X-507480Y-14173D02*
D03*
X-497638Y-8268D02*
D03*
X-51181Y-51575D02*
D03*
X-648032Y8268D02*
D03*
X-638189Y13780D02*
D03*
X-677165Y-8268D02*
D03*
X-687008Y-14173D02*
D03*
X48228Y57087D02*
D03*
X23386Y-51811D02*
D03*
X14803Y-108465D02*
D03*
X21260D02*
D03*
X34803D02*
D03*
X28150D02*
D03*
X23110Y-59449D02*
D03*
X24882Y-57480D02*
D03*
X26654Y-55551D02*
D03*
X28307Y-53543D02*
D03*
X-33071Y-36906D02*
D03*
X-15354Y-16142D02*
D03*
X-13081Y-18199D02*
D03*
Y-14173D02*
D03*
X-15354Y-20079D02*
D03*
X-14961Y-108268D02*
D03*
X-21260Y-108465D02*
D03*
X-28150D02*
D03*
X-35039Y-108661D02*
D03*
X-7087Y-48819D02*
D03*
X7087Y-23622D02*
D03*
X14961Y-39764D02*
D03*
X32677Y-36220D02*
D03*
Y-43110D02*
D03*
X-29134Y-24803D02*
D03*
X-33858Y-20866D02*
D03*
X-31496Y-22835D02*
D03*
X-35827Y-18898D02*
D03*
X-33071Y-30315D02*
D03*
X77167Y13780D02*
D03*
X653051Y-8268D02*
D03*
X606299Y-48031D02*
D03*
X615750Y13780D02*
D03*
X586024Y-20079D02*
D03*
X596457Y-32677D02*
D03*
X473524Y-8268D02*
D03*
X426772Y-48031D02*
D03*
X436222Y13780D02*
D03*
X406496Y-20079D02*
D03*
X416929Y-32677D02*
D03*
X293996Y-8268D02*
D03*
X247244Y-48031D02*
D03*
X256694Y13780D02*
D03*
X226969Y-20079D02*
D03*
X237402Y-32677D02*
D03*
X114469Y-8268D02*
D03*
X-114469Y8268D02*
D03*
X-67716Y48031D02*
D03*
X-77167Y-13780D02*
D03*
X-57874Y32677D02*
D03*
X-293996Y8268D02*
D03*
X-247244Y48031D02*
D03*
X-226969Y20079D02*
D03*
X-256694Y-13780D02*
D03*
X-237402Y32677D02*
D03*
X-473524Y8268D02*
D03*
X-426772Y48031D02*
D03*
X-406496Y20079D02*
D03*
X-436222Y-13780D02*
D03*
X-416929Y32677D02*
D03*
X672146Y8268D02*
D03*
X718898Y48031D02*
D03*
X739173Y20079D02*
D03*
X728740Y32677D02*
D03*
X492618Y8268D02*
D03*
X539370Y48031D02*
D03*
X559646Y20079D02*
D03*
X529920Y-13780D02*
D03*
X549213Y32677D02*
D03*
X313090Y8268D02*
D03*
X359842Y48031D02*
D03*
X380118Y20079D02*
D03*
X350392Y-13780D02*
D03*
X369685Y32677D02*
D03*
X133563Y8268D02*
D03*
X190157Y32677D02*
D03*
X180315Y48031D02*
D03*
X170865Y-13780D02*
D03*
X200591Y20079D02*
D03*
X-133563Y-8268D02*
D03*
X-190157Y-32677D02*
D03*
X-180315Y-48031D02*
D03*
X-170865Y13780D02*
D03*
X-200591Y-20079D02*
D03*
X-313090Y-8268D02*
D03*
X-369685Y-32677D02*
D03*
X-359842Y-48031D02*
D03*
X-350392Y13780D02*
D03*
X-380118Y-20079D02*
D03*
X-492618Y-8268D02*
D03*
X-549213Y-32677D02*
D03*
X-539370Y-48031D02*
D03*
X-529920Y13780D02*
D03*
X-559646Y-20079D02*
D03*
X-653051Y8268D02*
D03*
X-596457Y32677D02*
D03*
X-606299Y48031D02*
D03*
X-615750Y-13780D02*
D03*
X-586024Y20079D02*
D03*
X-739173Y-20079D02*
D03*
X-728740Y-32677D02*
D03*
X-718898Y-48031D02*
D03*
X-672146Y-8268D02*
D03*
D44*
X9646Y0D02*
D03*
X-9055D02*
D03*
X36220D02*
D03*
X29528D02*
D03*
X16220D02*
D03*
X22795D02*
D03*
X-22441D02*
D03*
X-15748D02*
D03*
X-29134D02*
D03*
X-35827D02*
D03*
M02*
