G04*
G04 #@! TF.GenerationSoftware,Altium Limited,Altium Designer,19.0.12 (326)*
G04*
G04 Layer_Physical_Order=4*
G04 Layer_Color=16711680*
%FSLAX25Y25*%
%MOIN*%
G70*
G01*
G75*
%ADD13C,0.01000*%
%ADD34R,0.02953X0.03150*%
%ADD41R,0.03150X0.02953*%
%ADD47C,0.00400*%
%ADD48C,0.04000*%
%ADD49R,0.01968X0.03150*%
G04:AMPARAMS|DCode=50|XSize=82.68mil|YSize=27.56mil|CornerRadius=13.78mil|HoleSize=0mil|Usage=FLASHONLY|Rotation=0.000|XOffset=0mil|YOffset=0mil|HoleType=Round|Shape=RoundedRectangle|*
%AMROUNDEDRECTD50*
21,1,0.08268,0.00000,0,0,0.0*
21,1,0.05512,0.02756,0,0,0.0*
1,1,0.02756,0.02756,0.00000*
1,1,0.02756,-0.02756,0.00000*
1,1,0.02756,-0.02756,0.00000*
1,1,0.02756,0.02756,0.00000*
%
%ADD50ROUNDEDRECTD50*%
%ADD51C,0.39370*%
%ADD52C,0.03937*%
%ADD53C,0.02362*%
%ADD54C,0.01772*%
%ADD55C,0.07874*%
%ADD56R,0.00984X0.02756*%
G04:AMPARAMS|DCode=57|XSize=64.96mil|YSize=118.11mil|CornerRadius=6.5mil|HoleSize=0mil|Usage=FLASHONLY|Rotation=90.000|XOffset=0mil|YOffset=0mil|HoleType=Round|Shape=RoundedRectangle|*
%AMROUNDEDRECTD57*
21,1,0.06496,0.10512,0,0,90.0*
21,1,0.05197,0.11811,0,0,90.0*
1,1,0.01299,0.05256,0.02598*
1,1,0.01299,0.05256,-0.02598*
1,1,0.01299,-0.05256,-0.02598*
1,1,0.01299,-0.05256,0.02598*
%
%ADD57ROUNDEDRECTD57*%
%ADD58R,0.02756X0.03543*%
%ADD59R,0.11811X0.02756*%
%ADD60R,0.02992X0.05000*%
%ADD61R,0.33071X0.31496*%
%ADD62R,0.11811X0.07874*%
G36*
X110236Y241959D02*
X109850Y241642D01*
X109744Y241663D01*
X109168Y241548D01*
X108680Y241222D01*
X108353Y240734D01*
X108239Y240158D01*
X108353Y239581D01*
X108680Y239093D01*
X108700Y239080D01*
Y238580D01*
X108680Y238566D01*
X108353Y238078D01*
X108239Y237502D01*
X108353Y236926D01*
X108680Y236437D01*
X109168Y236111D01*
X109744Y235997D01*
X109850Y236017D01*
X110236Y235700D01*
Y228839D01*
X106693D01*
Y219783D01*
X110236D01*
Y85236D01*
X40675D01*
Y228603D01*
X40898Y228678D01*
X41175Y228686D01*
X41455Y228266D01*
X41944Y227940D01*
X42520Y227825D01*
X43096Y227940D01*
X43584Y228266D01*
X43910Y228755D01*
X44025Y229331D01*
X43910Y229907D01*
X43584Y230395D01*
X43096Y230721D01*
X42520Y230836D01*
X41944Y230721D01*
X41455Y230395D01*
X41175Y229975D01*
X40898Y229984D01*
X40675Y230058D01*
Y231298D01*
X41929D01*
Y235629D01*
X40675D01*
Y237993D01*
X41929D01*
Y242323D01*
X40675D01*
Y244291D01*
X41929D01*
Y248622D01*
X40675D01*
Y250591D01*
X41929D01*
Y254922D01*
X40675D01*
Y279528D01*
X57368D01*
X59006Y277889D01*
X58921Y277244D01*
X59060Y276191D01*
X59467Y275209D01*
X60114Y274366D01*
X60957Y273719D01*
X61938Y273312D01*
X62992Y273174D01*
X64045Y273312D01*
X65027Y273719D01*
X65870Y274366D01*
X66517Y275209D01*
X66923Y276191D01*
X67062Y277244D01*
X66923Y278297D01*
X66621Y279028D01*
X66922Y279528D01*
X71378D01*
X71925Y278815D01*
X72768Y278168D01*
X73750Y277761D01*
X74803Y277623D01*
X75857Y277761D01*
X76838Y278168D01*
X77681Y278815D01*
X78228Y279528D01*
X110236D01*
Y241959D01*
D02*
G37*
G36*
X1548199Y224343D02*
Y177165D01*
X1526102D01*
Y187992D01*
X1526026Y188376D01*
X1525808Y188702D01*
X1525482Y188919D01*
X1525098Y188996D01*
X1493602D01*
X1493218Y188919D01*
X1492893Y188702D01*
X1492675Y188376D01*
X1492599Y187992D01*
Y177165D01*
X1435354D01*
Y187992D01*
X1435277Y188376D01*
X1435060Y188702D01*
X1434734Y188919D01*
X1434350Y188996D01*
X1405941D01*
X1405934Y189010D01*
X1405728Y189496D01*
X1405760Y189657D01*
X1402114D01*
X1402161Y189422D01*
X1402215Y189340D01*
X1402145Y188702D01*
X1401927Y188376D01*
X1401851Y187992D01*
Y177165D01*
X1389764D01*
Y195314D01*
X1390226Y195505D01*
X1391240Y194491D01*
Y191831D01*
X1395571D01*
Y195965D01*
X1392911D01*
X1390187Y198689D01*
Y212908D01*
X1390687Y213168D01*
X1390839Y213137D01*
Y214961D01*
Y216784D01*
X1390687Y216754D01*
X1390187Y217013D01*
Y230740D01*
X1393768Y234321D01*
X1426959D01*
X1427376Y234042D01*
X1427952Y233928D01*
X1428529Y234042D01*
X1429017Y234369D01*
X1429343Y234857D01*
X1429458Y235433D01*
X1429343Y236009D01*
X1429017Y236497D01*
X1428529Y236824D01*
X1427952Y236938D01*
X1427376Y236824D01*
X1426959Y236545D01*
X1393307D01*
X1393307Y236545D01*
X1392882Y236460D01*
X1392521Y236219D01*
X1392521Y236219D01*
X1390226Y233924D01*
X1389764Y234116D01*
Y240158D01*
X1532384D01*
X1548199Y224343D01*
D02*
G37*
G36*
X1367097D02*
Y177165D01*
X1345000D01*
Y187992D01*
X1344923Y188376D01*
X1344706Y188702D01*
X1344380Y188919D01*
X1343996Y188996D01*
X1312500D01*
X1312116Y188919D01*
X1311790Y188702D01*
X1311573Y188376D01*
X1311497Y187992D01*
Y177165D01*
X1254252D01*
Y187992D01*
X1254175Y188376D01*
X1253958Y188702D01*
X1253632Y188919D01*
X1253248Y188996D01*
X1224839D01*
X1224831Y189010D01*
X1224626Y189496D01*
X1224658Y189657D01*
X1221011D01*
X1221058Y189422D01*
X1221113Y189340D01*
X1221042Y188702D01*
X1220825Y188376D01*
X1220748Y187992D01*
Y177165D01*
X1208661D01*
Y195314D01*
X1209123Y195505D01*
X1210138Y194491D01*
Y191831D01*
X1214468D01*
Y195965D01*
X1211809D01*
X1209084Y198689D01*
Y212908D01*
X1209584Y213168D01*
X1209736Y213137D01*
Y214961D01*
Y216784D01*
X1209584Y216754D01*
X1209084Y217013D01*
Y230740D01*
X1212665Y234321D01*
X1245857D01*
X1246274Y234042D01*
X1246850Y233928D01*
X1247426Y234042D01*
X1247915Y234369D01*
X1248241Y234857D01*
X1248355Y235433D01*
X1248241Y236009D01*
X1247915Y236497D01*
X1247426Y236824D01*
X1246850Y236938D01*
X1246274Y236824D01*
X1245857Y236545D01*
X1212205D01*
X1212205Y236545D01*
X1211779Y236460D01*
X1211419Y236219D01*
X1211418Y236219D01*
X1209123Y233924D01*
X1208661Y234116D01*
Y240158D01*
X1351282D01*
X1367097Y224343D01*
D02*
G37*
G36*
X1185994D02*
Y177165D01*
X1163897D01*
Y187992D01*
X1163821Y188376D01*
X1163603Y188702D01*
X1163278Y188919D01*
X1162894Y188996D01*
X1131398D01*
X1131014Y188919D01*
X1130688Y188702D01*
X1130470Y188376D01*
X1130394Y187992D01*
Y177165D01*
X1073149D01*
Y187992D01*
X1073073Y188376D01*
X1072855Y188702D01*
X1072530Y188919D01*
X1072146Y188996D01*
X1043736D01*
X1043729Y189010D01*
X1043523Y189496D01*
X1043556Y189657D01*
X1039909D01*
X1039956Y189422D01*
X1040011Y189340D01*
X1039940Y188702D01*
X1039723Y188376D01*
X1039646Y187992D01*
Y177165D01*
X1027559D01*
Y195314D01*
X1028021Y195505D01*
X1029035Y194491D01*
Y191831D01*
X1033366D01*
Y195965D01*
X1030706D01*
X1027982Y198689D01*
Y212908D01*
X1028482Y213168D01*
X1028634Y213137D01*
Y214961D01*
Y216784D01*
X1028482Y216754D01*
X1027982Y217013D01*
Y230740D01*
X1031563Y234321D01*
X1064754D01*
X1065172Y234042D01*
X1065748Y233928D01*
X1066324Y234042D01*
X1066812Y234369D01*
X1067138Y234857D01*
X1067253Y235433D01*
X1067138Y236009D01*
X1066812Y236497D01*
X1066324Y236824D01*
X1065748Y236938D01*
X1065172Y236824D01*
X1064754Y236545D01*
X1031102D01*
X1031102Y236545D01*
X1030677Y236460D01*
X1030316Y236219D01*
X1030316Y236219D01*
X1028021Y233924D01*
X1027559Y234116D01*
Y240158D01*
X1170179D01*
X1185994Y224343D01*
D02*
G37*
G36*
X1004892D02*
Y177165D01*
X982795D01*
Y187992D01*
X982718Y188376D01*
X982501Y188702D01*
X982175Y188919D01*
X981791Y188996D01*
X950295D01*
X949911Y188919D01*
X949586Y188702D01*
X949368Y188376D01*
X949292Y187992D01*
Y177165D01*
X892047D01*
Y187992D01*
X891970Y188376D01*
X891753Y188702D01*
X891427Y188919D01*
X891043Y188996D01*
X862634D01*
X862626Y189010D01*
X862421Y189496D01*
X862453Y189657D01*
X858807D01*
X858854Y189422D01*
X858908Y189340D01*
X858838Y188702D01*
X858620Y188376D01*
X858544Y187992D01*
Y177165D01*
X846457D01*
Y195314D01*
X846919Y195505D01*
X847933Y194491D01*
Y191831D01*
X852264D01*
Y195965D01*
X849604D01*
X846880Y198689D01*
Y212908D01*
X847380Y213168D01*
X847532Y213137D01*
Y214961D01*
Y216784D01*
X847380Y216754D01*
X846880Y217013D01*
Y230740D01*
X850461Y234321D01*
X883652D01*
X884069Y234042D01*
X884645Y233928D01*
X885221Y234042D01*
X885710Y234369D01*
X886036Y234857D01*
X886151Y235433D01*
X886036Y236009D01*
X885710Y236497D01*
X885221Y236824D01*
X884645Y236938D01*
X884069Y236824D01*
X883652Y236545D01*
X850000D01*
X850000Y236545D01*
X849574Y236460D01*
X849214Y236219D01*
X849214Y236219D01*
X846919Y233924D01*
X846457Y234116D01*
Y240158D01*
X989077D01*
X1004892Y224343D01*
D02*
G37*
G36*
X823790D02*
Y177165D01*
X801692D01*
Y187992D01*
X801616Y188376D01*
X801399Y188702D01*
X801073Y188919D01*
X800689Y188996D01*
X769193D01*
X768809Y188919D01*
X768483Y188702D01*
X768266Y188376D01*
X768189Y187992D01*
Y177165D01*
X710945D01*
Y187992D01*
X710868Y188376D01*
X710651Y188702D01*
X710325Y188919D01*
X709941Y188996D01*
X681532D01*
X681524Y189010D01*
X681319Y189496D01*
X681351Y189657D01*
X677704D01*
X677751Y189422D01*
X677806Y189340D01*
X677735Y188702D01*
X677518Y188376D01*
X677441Y187992D01*
Y177165D01*
X665354D01*
Y195314D01*
X665816Y195505D01*
X666831Y194491D01*
Y191831D01*
X671161D01*
Y195965D01*
X668502D01*
X665777Y198689D01*
Y212908D01*
X666277Y213168D01*
X666429Y213137D01*
Y214961D01*
Y216784D01*
X666277Y216754D01*
X665777Y217013D01*
Y230740D01*
X669358Y234321D01*
X702550D01*
X702967Y234042D01*
X703543Y233928D01*
X704119Y234042D01*
X704607Y234369D01*
X704934Y234857D01*
X705048Y235433D01*
X704934Y236009D01*
X704607Y236497D01*
X704119Y236824D01*
X703543Y236938D01*
X702967Y236824D01*
X702550Y236545D01*
X668898D01*
X668898Y236545D01*
X668472Y236460D01*
X668111Y236219D01*
X668111Y236219D01*
X665816Y233924D01*
X665354Y234116D01*
Y240158D01*
X807975D01*
X823790Y224343D01*
D02*
G37*
G36*
X642687D02*
Y177165D01*
X620590D01*
Y187992D01*
X620514Y188376D01*
X620296Y188702D01*
X619971Y188919D01*
X619587Y188996D01*
X588091D01*
X587707Y188919D01*
X587381Y188702D01*
X587163Y188376D01*
X587087Y187992D01*
Y177165D01*
X529842D01*
Y187992D01*
X529766Y188376D01*
X529548Y188702D01*
X529223Y188919D01*
X528839Y188996D01*
X500429D01*
X500422Y189010D01*
X500216Y189496D01*
X500248Y189657D01*
X496602D01*
X496649Y189422D01*
X496704Y189340D01*
X496633Y188702D01*
X496415Y188376D01*
X496339Y187992D01*
Y177165D01*
X484252D01*
Y195314D01*
X484714Y195505D01*
X485728Y194491D01*
Y191831D01*
X490059D01*
Y195965D01*
X487399D01*
X484675Y198689D01*
Y212908D01*
X485175Y213168D01*
X485327Y213137D01*
Y214961D01*
Y216784D01*
X485175Y216754D01*
X484675Y217013D01*
Y230740D01*
X488256Y234321D01*
X521447D01*
X521865Y234042D01*
X522441Y233928D01*
X523017Y234042D01*
X523505Y234369D01*
X523831Y234857D01*
X523946Y235433D01*
X523831Y236009D01*
X523505Y236497D01*
X523017Y236824D01*
X522441Y236938D01*
X521865Y236824D01*
X521447Y236545D01*
X487795D01*
X487795Y236545D01*
X487370Y236460D01*
X487009Y236219D01*
X487009Y236219D01*
X484714Y233924D01*
X484252Y234116D01*
Y240158D01*
X626872D01*
X642687Y224343D01*
D02*
G37*
G36*
X461585D02*
Y177165D01*
X439488D01*
Y187992D01*
X439411Y188376D01*
X439194Y188702D01*
X438868Y188919D01*
X438484Y188996D01*
X406988D01*
X406604Y188919D01*
X406279Y188702D01*
X406061Y188376D01*
X405985Y187992D01*
Y177165D01*
X348740D01*
Y187992D01*
X348663Y188376D01*
X348446Y188702D01*
X348120Y188919D01*
X347736Y188996D01*
X319327D01*
X319319Y189010D01*
X319114Y189496D01*
X319146Y189657D01*
X315499D01*
X315546Y189422D01*
X315601Y189340D01*
X315530Y188702D01*
X315313Y188376D01*
X315237Y187992D01*
Y177165D01*
X303150D01*
Y195314D01*
X303611Y195505D01*
X304626Y194491D01*
Y191831D01*
X308957D01*
Y195965D01*
X306297D01*
X303573Y198689D01*
Y212908D01*
X304073Y213168D01*
X304224Y213137D01*
Y214961D01*
Y216784D01*
X304073Y216754D01*
X303573Y217013D01*
Y230740D01*
X307154Y234321D01*
X340345D01*
X340762Y234042D01*
X341338Y233928D01*
X341914Y234042D01*
X342403Y234369D01*
X342729Y234857D01*
X342844Y235433D01*
X342729Y236009D01*
X342403Y236497D01*
X341914Y236824D01*
X341338Y236938D01*
X340762Y236824D01*
X340345Y236545D01*
X306693D01*
X306693Y236545D01*
X306267Y236460D01*
X305907Y236219D01*
X305907Y236219D01*
X303611Y233924D01*
X303150Y234116D01*
Y240158D01*
X445770D01*
X461585Y224343D01*
D02*
G37*
G36*
X280483D02*
Y177165D01*
X258385D01*
Y187992D01*
X258309Y188376D01*
X258091Y188702D01*
X257766Y188919D01*
X257382Y188996D01*
X225886D01*
X225502Y188919D01*
X225176Y188702D01*
X224959Y188376D01*
X224882Y187992D01*
Y177165D01*
X167637D01*
Y187992D01*
X167561Y188376D01*
X167343Y188702D01*
X167018Y188919D01*
X166634Y188996D01*
X138225D01*
X138217Y189010D01*
X138012Y189496D01*
X138044Y189657D01*
X134397D01*
X134444Y189422D01*
X134499Y189340D01*
X134428Y188702D01*
X134211Y188376D01*
X134134Y187992D01*
Y177165D01*
X122047D01*
Y195314D01*
X122509Y195505D01*
X123524Y194491D01*
Y191831D01*
X127854D01*
Y195965D01*
X125195D01*
X122470Y198689D01*
Y212908D01*
X122970Y213168D01*
X123122Y213137D01*
Y214961D01*
Y216784D01*
X122970Y216754D01*
X122470Y217013D01*
Y230740D01*
X126051Y234321D01*
X159243D01*
X159660Y234042D01*
X160236Y233928D01*
X160812Y234042D01*
X161300Y234369D01*
X161627Y234857D01*
X161741Y235433D01*
X161627Y236009D01*
X161300Y236497D01*
X160812Y236824D01*
X160236Y236938D01*
X159660Y236824D01*
X159243Y236545D01*
X125591D01*
X125591Y236545D01*
X125165Y236460D01*
X124804Y236219D01*
X124804Y236219D01*
X122509Y233924D01*
X122047Y234116D01*
Y240158D01*
X264668D01*
X280483Y224343D01*
D02*
G37*
G36*
X1538189Y157049D02*
X1537727Y156857D01*
X1536713Y157872D01*
Y160531D01*
X1532382D01*
Y156398D01*
X1535042D01*
X1537766Y153673D01*
Y139454D01*
X1537266Y139195D01*
X1537114Y139225D01*
Y137402D01*
Y135578D01*
X1537266Y135608D01*
X1537766Y135349D01*
Y121622D01*
X1534185Y118041D01*
X1500994D01*
X1500576Y118320D01*
X1500000Y118434D01*
X1499424Y118320D01*
X1498936Y117993D01*
X1498610Y117505D01*
X1498495Y116929D01*
X1498610Y116353D01*
X1498936Y115865D01*
X1499424Y115538D01*
X1500000Y115424D01*
X1500576Y115538D01*
X1500994Y115817D01*
X1534646D01*
X1534646Y115817D01*
X1535071Y115902D01*
X1535432Y116143D01*
X1537727Y118438D01*
X1538189Y118247D01*
Y112205D01*
X1488313D01*
Y118110D01*
X1488213Y118609D01*
X1487930Y119033D01*
X1487507Y119316D01*
X1487008Y119415D01*
X1462008D01*
X1461509Y119316D01*
X1461085Y119033D01*
X1460803Y118609D01*
X1460703Y118110D01*
Y112205D01*
X1395569D01*
X1379016Y128757D01*
Y158792D01*
X1379516Y159108D01*
X1379890Y159034D01*
X1380466Y159149D01*
X1380955Y159475D01*
X1381281Y159963D01*
X1381396Y160539D01*
X1381281Y161115D01*
X1380955Y161604D01*
X1380466Y161930D01*
X1379890Y162045D01*
X1379516Y161970D01*
X1379016Y162287D01*
Y175197D01*
X1401851D01*
Y164370D01*
X1401927Y163986D01*
X1402145Y163661D01*
X1402470Y163443D01*
X1402854Y163367D01*
X1434350D01*
X1434734Y163443D01*
X1435060Y163661D01*
X1435277Y163986D01*
X1435354Y164370D01*
Y175197D01*
X1492599D01*
Y164370D01*
X1492675Y163986D01*
X1492893Y163661D01*
X1493218Y163443D01*
X1493602Y163366D01*
X1522012D01*
X1522019Y163352D01*
X1522225Y162866D01*
X1522192Y162705D01*
X1525839D01*
X1525792Y162941D01*
X1525737Y163023D01*
X1525808Y163661D01*
X1526026Y163986D01*
X1526102Y164370D01*
Y175197D01*
X1538189D01*
Y157049D01*
D02*
G37*
G36*
X1357087D02*
X1356625Y156857D01*
X1355610Y157872D01*
Y160531D01*
X1351280D01*
Y156398D01*
X1353939D01*
X1356664Y153673D01*
Y139454D01*
X1356164Y139195D01*
X1356012Y139225D01*
Y137402D01*
Y135578D01*
X1356164Y135608D01*
X1356664Y135349D01*
Y121622D01*
X1353083Y118041D01*
X1319891D01*
X1319474Y118320D01*
X1318898Y118434D01*
X1318322Y118320D01*
X1317834Y117993D01*
X1317507Y117505D01*
X1317393Y116929D01*
X1317507Y116353D01*
X1317834Y115865D01*
X1318322Y115538D01*
X1318898Y115424D01*
X1319474Y115538D01*
X1319891Y115817D01*
X1353543D01*
X1353543Y115817D01*
X1353969Y115902D01*
X1354330Y116143D01*
X1356625Y118438D01*
X1357087Y118247D01*
Y112205D01*
X1214466D01*
X1198651Y128020D01*
Y175197D01*
X1220748D01*
Y164370D01*
X1220825Y163986D01*
X1221042Y163661D01*
X1221368Y163443D01*
X1221752Y163367D01*
X1253248D01*
X1253632Y163443D01*
X1253958Y163661D01*
X1254175Y163986D01*
X1254252Y164370D01*
Y175197D01*
X1311497D01*
Y164370D01*
X1311573Y163986D01*
X1311790Y163661D01*
X1312116Y163443D01*
X1312500Y163366D01*
X1340909D01*
X1340917Y163352D01*
X1341122Y162866D01*
X1341090Y162705D01*
X1344737D01*
X1344690Y162941D01*
X1344635Y163023D01*
X1344706Y163661D01*
X1344923Y163986D01*
X1345000Y164370D01*
Y175197D01*
X1357087D01*
Y157049D01*
D02*
G37*
G36*
X1175984D02*
X1175522Y156857D01*
X1174508Y157872D01*
Y160531D01*
X1170177D01*
Y156398D01*
X1172837D01*
X1175561Y153673D01*
Y139454D01*
X1175061Y139195D01*
X1174909Y139225D01*
Y137402D01*
Y135578D01*
X1175061Y135608D01*
X1175561Y135349D01*
Y121622D01*
X1171980Y118041D01*
X1138789D01*
X1138372Y118320D01*
X1137796Y118434D01*
X1137220Y118320D01*
X1136731Y117993D01*
X1136405Y117505D01*
X1136290Y116929D01*
X1136405Y116353D01*
X1136731Y115865D01*
X1137220Y115538D01*
X1137796Y115424D01*
X1138372Y115538D01*
X1138789Y115817D01*
X1172441D01*
X1172441Y115817D01*
X1172867Y115902D01*
X1173227Y116143D01*
X1175522Y118438D01*
X1175984Y118247D01*
Y112205D01*
X1033364D01*
X1017549Y128020D01*
Y175197D01*
X1039646D01*
Y164370D01*
X1039723Y163986D01*
X1039940Y163661D01*
X1040266Y163443D01*
X1040650Y163367D01*
X1072146D01*
X1072530Y163443D01*
X1072855Y163661D01*
X1073073Y163986D01*
X1073149Y164370D01*
Y175197D01*
X1130394D01*
Y164370D01*
X1130470Y163986D01*
X1130688Y163661D01*
X1131014Y163443D01*
X1131398Y163366D01*
X1159807D01*
X1159814Y163352D01*
X1160020Y162866D01*
X1159988Y162705D01*
X1163634D01*
X1163587Y162941D01*
X1163533Y163023D01*
X1163603Y163661D01*
X1163821Y163986D01*
X1163897Y164370D01*
Y175197D01*
X1175984D01*
Y157049D01*
D02*
G37*
G36*
X994882D02*
X994420Y156857D01*
X993406Y157872D01*
Y160531D01*
X989075D01*
Y156398D01*
X991735D01*
X994459Y153673D01*
Y139454D01*
X993959Y139195D01*
X993807Y139225D01*
Y137402D01*
Y135578D01*
X993959Y135608D01*
X994459Y135349D01*
Y121622D01*
X990878Y118041D01*
X957686D01*
X957269Y118320D01*
X956693Y118434D01*
X956117Y118320D01*
X955629Y117993D01*
X955302Y117505D01*
X955188Y116929D01*
X955302Y116353D01*
X955629Y115865D01*
X956117Y115538D01*
X956693Y115424D01*
X957269Y115538D01*
X957686Y115817D01*
X991339D01*
X991339Y115817D01*
X991764Y115902D01*
X992125Y116143D01*
X994420Y118438D01*
X994882Y118247D01*
Y112205D01*
X852262D01*
X836447Y128020D01*
Y175197D01*
X858544D01*
Y164370D01*
X858620Y163986D01*
X858838Y163661D01*
X859163Y163443D01*
X859547Y163367D01*
X891043D01*
X891427Y163443D01*
X891753Y163661D01*
X891970Y163986D01*
X892047Y164370D01*
Y175197D01*
X949292D01*
Y164370D01*
X949368Y163986D01*
X949586Y163661D01*
X949911Y163443D01*
X950295Y163366D01*
X978704D01*
X978712Y163352D01*
X978918Y162866D01*
X978885Y162705D01*
X982532D01*
X982485Y162941D01*
X982430Y163023D01*
X982501Y163661D01*
X982718Y163986D01*
X982795Y164370D01*
Y175197D01*
X994882D01*
Y157049D01*
D02*
G37*
G36*
X813780D02*
X813318Y156857D01*
X812303Y157872D01*
Y160531D01*
X807973D01*
Y156398D01*
X810632D01*
X813357Y153673D01*
Y139454D01*
X812857Y139195D01*
X812705Y139225D01*
Y137402D01*
Y135578D01*
X812857Y135608D01*
X813357Y135349D01*
Y121622D01*
X809776Y118041D01*
X776584D01*
X776167Y118320D01*
X775591Y118434D01*
X775015Y118320D01*
X774526Y117993D01*
X774200Y117505D01*
X774086Y116929D01*
X774200Y116353D01*
X774526Y115865D01*
X775015Y115538D01*
X775591Y115424D01*
X776167Y115538D01*
X776584Y115817D01*
X810236D01*
X810236Y115817D01*
X810662Y115902D01*
X811022Y116143D01*
X813318Y118438D01*
X813780Y118247D01*
Y112205D01*
X671159D01*
X655344Y128020D01*
Y175197D01*
X677441D01*
Y164370D01*
X677518Y163986D01*
X677735Y163661D01*
X678061Y163443D01*
X678445Y163367D01*
X709941D01*
X710325Y163443D01*
X710651Y163661D01*
X710868Y163986D01*
X710945Y164370D01*
Y175197D01*
X768189D01*
Y164370D01*
X768266Y163986D01*
X768483Y163661D01*
X768809Y163443D01*
X769193Y163366D01*
X797602D01*
X797610Y163352D01*
X797815Y162866D01*
X797783Y162705D01*
X801430D01*
X801383Y162941D01*
X801328Y163023D01*
X801399Y163661D01*
X801616Y163986D01*
X801692Y164370D01*
Y175197D01*
X813780D01*
Y157049D01*
D02*
G37*
G36*
X632677D02*
X632215Y156857D01*
X631201Y157872D01*
Y160531D01*
X626870D01*
Y156398D01*
X629530D01*
X632254Y153673D01*
Y139454D01*
X631754Y139195D01*
X631602Y139225D01*
Y137402D01*
Y135578D01*
X631754Y135608D01*
X632254Y135349D01*
Y121622D01*
X628673Y118041D01*
X595482D01*
X595064Y118320D01*
X594488Y118434D01*
X593912Y118320D01*
X593424Y117993D01*
X593098Y117505D01*
X592983Y116929D01*
X593098Y116353D01*
X593424Y115865D01*
X593912Y115538D01*
X594488Y115424D01*
X595064Y115538D01*
X595482Y115817D01*
X629134D01*
X629134Y115817D01*
X629559Y115902D01*
X629920Y116143D01*
X632215Y118438D01*
X632677Y118247D01*
Y112205D01*
X490057D01*
X474242Y128020D01*
Y175197D01*
X496339D01*
Y164370D01*
X496415Y163986D01*
X496633Y163661D01*
X496958Y163443D01*
X497342Y163367D01*
X528839D01*
X529223Y163443D01*
X529548Y163661D01*
X529766Y163986D01*
X529842Y164370D01*
Y175197D01*
X587087D01*
Y164370D01*
X587163Y163986D01*
X587381Y163661D01*
X587707Y163443D01*
X588091Y163366D01*
X616500D01*
X616507Y163352D01*
X616713Y162866D01*
X616681Y162705D01*
X620327D01*
X620280Y162941D01*
X620225Y163023D01*
X620296Y163661D01*
X620514Y163986D01*
X620590Y164370D01*
Y175197D01*
X632677D01*
Y157049D01*
D02*
G37*
G36*
X451575D02*
X451113Y156857D01*
X450098Y157872D01*
Y160531D01*
X445768D01*
Y156398D01*
X448427D01*
X451152Y153673D01*
Y139454D01*
X450652Y139195D01*
X450500Y139225D01*
Y137402D01*
Y135578D01*
X450652Y135608D01*
X451152Y135349D01*
Y121622D01*
X447571Y118041D01*
X414379D01*
X413962Y118320D01*
X413386Y118434D01*
X412810Y118320D01*
X412322Y117993D01*
X411995Y117505D01*
X411881Y116929D01*
X411995Y116353D01*
X412322Y115865D01*
X412810Y115538D01*
X413386Y115424D01*
X413962Y115538D01*
X414379Y115817D01*
X448031D01*
X448032Y115817D01*
X448457Y115902D01*
X448818Y116143D01*
X451113Y118438D01*
X451575Y118247D01*
Y112205D01*
X308954D01*
X293140Y128020D01*
Y175197D01*
X315237D01*
Y164370D01*
X315313Y163986D01*
X315531Y163661D01*
X315856Y163443D01*
X316240Y163367D01*
X347736D01*
X348120Y163443D01*
X348446Y163661D01*
X348663Y163986D01*
X348740Y164370D01*
Y175197D01*
X405985D01*
Y164370D01*
X406061Y163986D01*
X406279Y163661D01*
X406604Y163443D01*
X406988Y163366D01*
X435397D01*
X435405Y163352D01*
X435610Y162866D01*
X435578Y162705D01*
X439225D01*
X439178Y162941D01*
X439123Y163023D01*
X439194Y163661D01*
X439411Y163986D01*
X439488Y164370D01*
Y175197D01*
X451575D01*
Y157049D01*
D02*
G37*
G36*
X270472D02*
X270010Y156857D01*
X268996Y157872D01*
Y160531D01*
X264665D01*
Y156398D01*
X267325D01*
X270050Y153673D01*
Y139454D01*
X269549Y139195D01*
X269398Y139225D01*
Y137402D01*
Y135578D01*
X269549Y135608D01*
X270050Y135349D01*
Y121622D01*
X266469Y118041D01*
X233277D01*
X232860Y118320D01*
X232284Y118434D01*
X231708Y118320D01*
X231219Y117993D01*
X230893Y117505D01*
X230778Y116929D01*
X230893Y116353D01*
X231219Y115865D01*
X231708Y115538D01*
X232284Y115424D01*
X232860Y115538D01*
X233277Y115817D01*
X266929D01*
X266929Y115817D01*
X267355Y115902D01*
X267715Y116143D01*
X270010Y118438D01*
X270472Y118247D01*
Y112205D01*
X199533D01*
Y118110D01*
X199434Y118609D01*
X199151Y119033D01*
X198728Y119316D01*
X198228Y119415D01*
X173228D01*
X172729Y119316D01*
X172306Y119033D01*
X172023Y118609D01*
X171924Y118110D01*
Y112205D01*
X127852D01*
X112037Y128020D01*
Y175197D01*
X134134D01*
Y164370D01*
X134211Y163986D01*
X134428Y163661D01*
X134754Y163443D01*
X135138Y163367D01*
X166634D01*
X167018Y163443D01*
X167343Y163661D01*
X167561Y163986D01*
X167637Y164370D01*
Y175197D01*
X224882D01*
Y164370D01*
X224959Y163986D01*
X225176Y163661D01*
X225502Y163443D01*
X225886Y163367D01*
X254295D01*
X254303Y163352D01*
X254508Y162866D01*
X254476Y162705D01*
X258122D01*
X258076Y162941D01*
X258021Y163023D01*
X258091Y163661D01*
X258309Y163986D01*
X258385Y164370D01*
Y175197D01*
X270472D01*
Y157049D01*
D02*
G37*
%LPC*%
G36*
X49902Y263415D02*
X49325Y263300D01*
X48837Y262974D01*
X48511Y262486D01*
X48396Y261910D01*
X48511Y261333D01*
X48837Y260845D01*
X49325Y260519D01*
X49902Y260404D01*
X50478Y260519D01*
X50966Y260845D01*
X51292Y261333D01*
X51407Y261910D01*
X51292Y262486D01*
X50966Y262974D01*
X50478Y263300D01*
X49902Y263415D01*
D02*
G37*
G36*
X67205Y265787D02*
X63032D01*
Y264233D01*
X62855Y264003D01*
X62594Y263373D01*
X62505Y262697D01*
X62545Y262398D01*
Y256791D01*
X62634Y256115D01*
X62895Y255485D01*
X62992Y255358D01*
Y254724D01*
X63596D01*
X63851Y254528D01*
X64481Y254268D01*
X65158Y254178D01*
X65834Y254268D01*
X66464Y254528D01*
X66719Y254724D01*
X67323D01*
Y255358D01*
X67420Y255485D01*
X67681Y256115D01*
X67770Y256791D01*
Y262657D01*
X67681Y263334D01*
X67420Y263964D01*
X67205Y264245D01*
Y265787D01*
D02*
G37*
G36*
X57205D02*
X53031D01*
Y259904D01*
X53031Y259606D01*
X52615Y259404D01*
X50984D01*
X50308Y259315D01*
X49678Y259054D01*
X49422Y258858D01*
X48819D01*
Y258225D01*
X48721Y258098D01*
X48460Y257468D01*
X48371Y256791D01*
X48460Y256115D01*
X48721Y255485D01*
X48819Y255358D01*
Y254724D01*
X49422D01*
X49678Y254528D01*
X50308Y254268D01*
X50984Y254178D01*
X59252D01*
X59928Y254268D01*
X60558Y254528D01*
X60814Y254724D01*
X61417D01*
Y255358D01*
X61515Y255485D01*
X61776Y256115D01*
X61865Y256791D01*
X61776Y257468D01*
X61515Y258098D01*
X61417Y258225D01*
Y258858D01*
X60814D01*
X60558Y259054D01*
X59928Y259315D01*
X59252Y259404D01*
X57621D01*
X57205Y259606D01*
X57205Y259904D01*
Y265787D01*
D02*
G37*
G36*
X47205D02*
X43031D01*
Y264245D01*
X42816Y263964D01*
X42555Y263334D01*
X42466Y262657D01*
Y256791D01*
X42555Y256115D01*
X42816Y255485D01*
X42913Y255358D01*
Y254724D01*
X43517D01*
X43772Y254528D01*
X44403Y254268D01*
X45079Y254178D01*
X45755Y254268D01*
X46385Y254528D01*
X46641Y254724D01*
X47244D01*
Y255358D01*
X47342Y255485D01*
X47603Y256115D01*
X47692Y256791D01*
Y262398D01*
X47731Y262697D01*
X47642Y263373D01*
X47381Y264003D01*
X47205Y264233D01*
Y265787D01*
D02*
G37*
G36*
X59646Y252588D02*
X59070Y252473D01*
X58581Y252147D01*
X58255Y251659D01*
X58140Y251083D01*
X58255Y250507D01*
X58581Y250018D01*
X59070Y249692D01*
X59646Y249577D01*
X60222Y249692D01*
X60710Y250018D01*
X61036Y250507D01*
X61151Y251083D01*
X61036Y251659D01*
X60710Y252147D01*
X60222Y252473D01*
X59646Y252588D01*
D02*
G37*
G36*
X91535Y247864D02*
X90959Y247749D01*
X90471Y247423D01*
X90145Y246934D01*
X90030Y246358D01*
X89747Y246076D01*
X89665Y246092D01*
X89556Y246070D01*
X89104Y246358D01*
X88989Y246934D01*
X88663Y247423D01*
X88174Y247749D01*
X87598Y247864D01*
X87022Y247749D01*
X86534Y247423D01*
X86208Y246934D01*
X86122Y246504D01*
X85677Y246082D01*
X85630Y246092D01*
X85466Y246059D01*
X85167Y246358D01*
X85052Y246934D01*
X84726Y247423D01*
X84238Y247749D01*
X83662Y247864D01*
X83086Y247749D01*
X82597Y247423D01*
X82271Y246934D01*
X82156Y246358D01*
X82271Y245782D01*
X82597Y245294D01*
X83086Y244968D01*
X83662Y244853D01*
X83826Y244886D01*
X84125Y244587D01*
X84239Y244011D01*
X84566Y243522D01*
X85054Y243196D01*
X85630Y243081D01*
X86206Y243196D01*
X86694Y243522D01*
X87021Y244011D01*
X87106Y244441D01*
X87551Y244862D01*
X87598Y244853D01*
X87708Y244875D01*
X88160Y244587D01*
X88275Y244011D01*
X88601Y243522D01*
X89089Y243196D01*
X89665Y243081D01*
X90241Y243196D01*
X90730Y243522D01*
X91056Y244011D01*
X91171Y244587D01*
X91453Y244869D01*
X91535Y244853D01*
X92111Y244968D01*
X92600Y245294D01*
X92926Y245782D01*
X93041Y246358D01*
X92926Y246934D01*
X92600Y247423D01*
X92111Y247749D01*
X91535Y247864D01*
D02*
G37*
G36*
X62598Y247342D02*
X58268D01*
Y243512D01*
X58268Y243209D01*
X58268Y242709D01*
Y239181D01*
X58268Y238878D01*
X58268Y238378D01*
Y234547D01*
X59466D01*
X59733Y234084D01*
X59728Y234047D01*
X59270Y233742D01*
X58944Y233253D01*
X58829Y232677D01*
X58944Y232101D01*
X59270Y231613D01*
X59728Y231307D01*
X59733Y231270D01*
X59466Y230807D01*
X58268D01*
Y226878D01*
X58268Y226378D01*
X58268Y226173D01*
Y223348D01*
X57806Y223157D01*
X51937Y229026D01*
X51997Y229331D01*
X51883Y229907D01*
X51556Y230395D01*
X51068Y230721D01*
X50492Y230836D01*
X49916Y230721D01*
X49428Y230395D01*
X49101Y229907D01*
X48987Y229331D01*
X49101Y228755D01*
X49428Y228266D01*
X49916Y227940D01*
X50492Y227825D01*
X50797Y227886D01*
X58187Y220496D01*
X58187Y220496D01*
X58448Y220321D01*
X58652Y220281D01*
X58808Y220155D01*
X59001Y219760D01*
X58928Y219390D01*
X59042Y218814D01*
X59369Y218325D01*
X59857Y217999D01*
X60433Y217884D01*
X60803Y217958D01*
X61198Y217765D01*
X61324Y217608D01*
X61365Y217405D01*
X61540Y217143D01*
X61166Y216837D01*
X61009Y216942D01*
X60433Y217057D01*
X59857Y216942D01*
X59369Y216616D01*
X59042Y216127D01*
X58928Y215551D01*
X59042Y214975D01*
X59369Y214487D01*
X59857Y214161D01*
X60433Y214046D01*
X60738Y214107D01*
X64351Y210493D01*
Y202864D01*
X63851Y202657D01*
X63596Y202461D01*
X62992D01*
Y201827D01*
X62895Y201700D01*
X62634Y201070D01*
X62545Y200394D01*
Y193409D01*
X62505Y193110D01*
X62594Y192434D01*
X62855Y191804D01*
X63032Y191574D01*
Y190020D01*
X67205D01*
Y191562D01*
X67420Y191843D01*
X67681Y192473D01*
X67770Y193150D01*
Y200394D01*
X67681Y201070D01*
X67420Y201700D01*
X67323Y201827D01*
Y202461D01*
X66719D01*
X66464Y202657D01*
X65964Y202864D01*
Y208621D01*
X66426Y208813D01*
X74036Y201202D01*
X74298Y201027D01*
X74606Y200966D01*
X74705Y200476D01*
Y199606D01*
X78839D01*
Y201950D01*
X80905D01*
Y200394D01*
X83935D01*
X84127Y199932D01*
X80867Y196672D01*
X78839D01*
Y198031D01*
X74705D01*
Y193955D01*
X67529Y186779D01*
X67224Y186840D01*
X66648Y186725D01*
X66160Y186399D01*
X65834Y185911D01*
X65719Y185335D01*
X65834Y184759D01*
X66160Y184270D01*
X66648Y183944D01*
X67224Y183829D01*
X67800Y183944D01*
X68289Y184270D01*
X68615Y184759D01*
X68730Y185335D01*
X68669Y185639D01*
X76385Y193356D01*
X76560Y193617D01*
X76577Y193701D01*
X78839D01*
Y195060D01*
X81201D01*
X81201Y195060D01*
X81509Y195122D01*
X81771Y195296D01*
X86987Y200513D01*
X87162Y200774D01*
X87223Y201083D01*
Y203442D01*
X93904Y210122D01*
X98454D01*
X98516Y210051D01*
X98674Y209622D01*
X98359Y209212D01*
X98098Y208582D01*
X98009Y207906D01*
Y206299D01*
X94685D01*
Y202362D01*
X99555D01*
X99946Y202201D01*
X100622Y202112D01*
X101298Y202201D01*
X101689Y202362D01*
X102165D01*
Y202643D01*
X102470Y202877D01*
X102885Y203418D01*
X103146Y204048D01*
X103235Y204724D01*
Y206594D01*
X103543D01*
Y210728D01*
X100451D01*
X99681Y211498D01*
X99419Y211673D01*
X99111Y211734D01*
X99111Y211734D01*
X95408D01*
X95327Y211988D01*
X95325Y212234D01*
X95749Y212518D01*
X96076Y213007D01*
X96190Y213583D01*
X96076Y214159D01*
X95749Y214647D01*
X95261Y214973D01*
X94831Y215059D01*
X94409Y215504D01*
X94419Y215551D01*
X94409Y215599D01*
X94735Y216025D01*
X95261Y216129D01*
X95749Y216456D01*
X96076Y216944D01*
X96190Y217520D01*
X96076Y218096D01*
X95749Y218584D01*
X95261Y218911D01*
X94685Y219025D01*
X94397Y219478D01*
X94419Y219587D01*
X94849Y219984D01*
X95261Y220066D01*
X95749Y220392D01*
X96076Y220881D01*
X96190Y221457D01*
X96076Y222033D01*
X95749Y222521D01*
X95261Y222847D01*
X94831Y222933D01*
X94409Y223378D01*
X94419Y223425D01*
X94409Y223472D01*
X94735Y223899D01*
X95261Y224003D01*
X95749Y224330D01*
X96075Y224818D01*
X96190Y225394D01*
X96075Y225970D01*
X95749Y226458D01*
X95261Y226785D01*
X94685Y226899D01*
X94507Y227077D01*
X94507Y227648D01*
X94685Y227825D01*
X95261Y227940D01*
X95749Y228266D01*
X96076Y228755D01*
X96190Y229331D01*
X96076Y229907D01*
X95749Y230395D01*
X95261Y230721D01*
X94849Y230803D01*
X94419Y231201D01*
X94397Y231310D01*
X94685Y231762D01*
X95261Y231877D01*
X95749Y232203D01*
X96076Y232692D01*
X96190Y233268D01*
X96076Y233844D01*
X95749Y234332D01*
X95261Y234658D01*
X94831Y234744D01*
X94409Y235189D01*
X94419Y235236D01*
X94396Y235353D01*
X94749Y235706D01*
X94784Y235699D01*
X95359Y235814D01*
X95848Y236140D01*
X96174Y236629D01*
X96289Y237205D01*
X96174Y237781D01*
X95848Y238269D01*
X95359Y238595D01*
X94948Y238677D01*
X94517Y239075D01*
X94495Y239184D01*
X94784Y239636D01*
X95359Y239751D01*
X95848Y240077D01*
X96174Y240566D01*
X96289Y241142D01*
X96174Y241718D01*
X95848Y242206D01*
X95359Y242532D01*
X94929Y242618D01*
X94508Y243063D01*
X94517Y243110D01*
X94402Y243686D01*
X94076Y244175D01*
X93588Y244501D01*
X93012Y244616D01*
X92436Y244501D01*
X91947Y244175D01*
X91621Y243686D01*
X91506Y243110D01*
X91621Y242534D01*
X91947Y242046D01*
X92436Y241720D01*
X92866Y241634D01*
X93287Y241189D01*
X93278Y241142D01*
X93300Y241033D01*
X93012Y240580D01*
X92436Y240465D01*
X91947Y240139D01*
X91621Y239651D01*
X91506Y239075D01*
X91621Y238499D01*
X91947Y238010D01*
X92436Y237684D01*
X92847Y237602D01*
X92998Y237463D01*
X93006Y237231D01*
X92913Y236741D01*
X92337Y236627D01*
X91849Y236301D01*
X91523Y235812D01*
X91408Y235236D01*
X91523Y234660D01*
X91849Y234172D01*
X92337Y233845D01*
X92768Y233760D01*
X93189Y233315D01*
X93180Y233268D01*
X93202Y233159D01*
X92913Y232706D01*
X92337Y232592D01*
X91849Y232265D01*
X91523Y231777D01*
X91408Y231201D01*
X91523Y230625D01*
X91849Y230136D01*
X92337Y229810D01*
X92749Y229728D01*
X92939Y229553D01*
X92964Y228918D01*
X92913Y228867D01*
X92337Y228753D01*
X91849Y228426D01*
X91523Y227938D01*
X91408Y227362D01*
X91523Y226786D01*
X91849Y226298D01*
X92337Y225971D01*
X92913Y225857D01*
X93091Y225679D01*
X93091Y225219D01*
X92863Y224921D01*
X92337Y224816D01*
X91849Y224490D01*
X91523Y224001D01*
X91408Y223425D01*
X91523Y222849D01*
X91849Y222361D01*
X92337Y222035D01*
X92768Y221949D01*
X92874Y221836D01*
X92848Y221150D01*
X92749Y221059D01*
X92337Y220977D01*
X91849Y220651D01*
X91523Y220163D01*
X91408Y219587D01*
X91523Y219011D01*
X91849Y218522D01*
X92337Y218196D01*
X92913Y218081D01*
X93201Y217629D01*
X93180Y217520D01*
X93189Y217473D01*
X92863Y217046D01*
X92337Y216942D01*
X91849Y216616D01*
X91523Y216127D01*
X91408Y215551D01*
X91523Y214975D01*
X91849Y214487D01*
X92337Y214160D01*
X92768Y214075D01*
X93189Y213630D01*
X93180Y213583D01*
X93294Y213007D01*
X93621Y212518D01*
X94046Y212234D01*
X94044Y211988D01*
X93962Y211734D01*
X93570D01*
X93262Y211673D01*
X93000Y211498D01*
X85847Y204345D01*
X85673Y204084D01*
X85611Y203776D01*
X85611Y203775D01*
Y201456D01*
X85303Y201207D01*
X84842Y201407D01*
Y205118D01*
X80905D01*
Y203562D01*
X78839D01*
Y203937D01*
X74705D01*
Y203466D01*
X74243Y203275D01*
X68349Y209169D01*
X68374Y209251D01*
X68551Y209674D01*
X68978Y209959D01*
X69304Y210448D01*
X69419Y211024D01*
X69304Y211600D01*
X69240Y211695D01*
X69541Y212145D01*
X69882Y212077D01*
X70336Y212168D01*
X70623Y211853D01*
X70667Y211763D01*
X70558Y211600D01*
X70443Y211024D01*
X70558Y210448D01*
X70884Y209959D01*
X71373Y209633D01*
X71949Y209518D01*
X72525Y209633D01*
X73013Y209959D01*
X73339Y210448D01*
X73454Y211024D01*
X73339Y211600D01*
X73291Y211673D01*
X73591Y212123D01*
X73819Y212077D01*
X74160Y212145D01*
X74461Y211695D01*
X74397Y211600D01*
X74282Y211024D01*
X74397Y210448D01*
X74723Y209959D01*
X75212Y209633D01*
X75788Y209518D01*
X76364Y209633D01*
X76852Y209959D01*
X77178Y210448D01*
X77293Y211024D01*
X77178Y211600D01*
X77115Y211695D01*
X77416Y212145D01*
X77756Y212077D01*
X78097Y212145D01*
X78397Y211695D01*
X78334Y211600D01*
X78219Y211024D01*
X78334Y210448D01*
X78660Y209959D01*
X79148Y209633D01*
X79724Y209518D01*
X80300Y209633D01*
X80789Y209959D01*
X81115Y210448D01*
X81230Y211024D01*
X81115Y211600D01*
X81051Y211695D01*
X81352Y212145D01*
X81693Y212077D01*
X81920Y212123D01*
X82221Y211673D01*
X82172Y211600D01*
X82058Y211024D01*
X82172Y210448D01*
X82499Y209959D01*
X82987Y209633D01*
X83563Y209518D01*
X84139Y209633D01*
X84627Y209959D01*
X84954Y210448D01*
X85068Y211024D01*
X84954Y211600D01*
X84845Y211762D01*
X84889Y211852D01*
X85176Y212168D01*
X85630Y212077D01*
X85971Y212145D01*
X86272Y211695D01*
X86208Y211600D01*
X86093Y211024D01*
X86208Y210448D01*
X86534Y209959D01*
X87022Y209633D01*
X87598Y209518D01*
X88174Y209633D01*
X88663Y209959D01*
X88989Y210448D01*
X89104Y211024D01*
X88989Y211600D01*
X88663Y212088D01*
X88174Y212414D01*
X87598Y212529D01*
X87257Y212461D01*
X86957Y212911D01*
X87020Y213007D01*
X87135Y213583D01*
X87020Y214159D01*
X86694Y214647D01*
X86206Y214973D01*
X85630Y215088D01*
X85054Y214973D01*
X84565Y214647D01*
X84239Y214159D01*
X84124Y213583D01*
X84239Y213007D01*
X84348Y212844D01*
X84304Y212754D01*
X84017Y212439D01*
X83563Y212529D01*
X83336Y212484D01*
X83035Y212934D01*
X83084Y213007D01*
X83198Y213583D01*
X83084Y214159D01*
X82757Y214647D01*
X82269Y214973D01*
X81693Y215088D01*
X81117Y214973D01*
X80629Y214647D01*
X80302Y214159D01*
X80188Y213583D01*
X80302Y213007D01*
X80366Y212911D01*
X80065Y212461D01*
X79724Y212529D01*
X79383Y212461D01*
X79083Y212911D01*
X79146Y213006D01*
X79261Y213582D01*
X79146Y214159D01*
X78820Y214647D01*
X78332Y214973D01*
X77756Y215088D01*
X77180Y214973D01*
X76691Y214647D01*
X76365Y214159D01*
X76250Y213582D01*
X76365Y213006D01*
X76429Y212911D01*
X76128Y212461D01*
X75788Y212529D01*
X75446Y212461D01*
X75146Y212911D01*
X75210Y213007D01*
X75324Y213583D01*
X75210Y214159D01*
X74883Y214647D01*
X74395Y214973D01*
X73819Y215088D01*
X73243Y214973D01*
X72755Y214647D01*
X72428Y214159D01*
X72314Y213583D01*
X72428Y213007D01*
X72477Y212934D01*
X72176Y212484D01*
X71949Y212529D01*
X71494Y212439D01*
X71208Y212753D01*
X71164Y212844D01*
X71273Y213007D01*
X71387Y213583D01*
X71273Y214159D01*
X70946Y214647D01*
X70458Y214973D01*
X69882Y215088D01*
X69306Y214973D01*
X68818Y214647D01*
X68491Y214159D01*
X68377Y213583D01*
X68491Y213007D01*
X68555Y212911D01*
X68254Y212461D01*
X67913Y212529D01*
X67543Y212455D01*
X67043Y212773D01*
Y213586D01*
X66982Y213894D01*
X66807Y214156D01*
X62915Y218047D01*
Y220084D01*
X62854Y220393D01*
X62679Y220654D01*
X61697Y221636D01*
X61536Y221744D01*
X61625Y222244D01*
X62598D01*
Y223860D01*
X65412Y226673D01*
X68504D01*
Y230807D01*
X64173D01*
Y227715D01*
X63075Y226616D01*
X62598Y226847D01*
Y230807D01*
X61203D01*
X60936Y231270D01*
X60942Y231307D01*
X61399Y231613D01*
X61725Y232101D01*
X61840Y232677D01*
X61725Y233253D01*
X61399Y233742D01*
X60942Y234047D01*
X60936Y234084D01*
X61204Y234547D01*
X62598D01*
Y238378D01*
X62598Y238681D01*
X62598Y239181D01*
Y242709D01*
X62598Y243012D01*
X62598Y243512D01*
Y247342D01*
D02*
G37*
G36*
X50000Y238710D02*
X49424Y238595D01*
X48936Y238269D01*
X48609Y237781D01*
X48495Y237205D01*
X48609Y236629D01*
X48936Y236140D01*
X49424Y235814D01*
X50000Y235699D01*
X50576Y235814D01*
X51064Y236140D01*
X51391Y236629D01*
X51505Y237205D01*
X51391Y237781D01*
X51064Y238269D01*
X50576Y238595D01*
X50000Y238710D01*
D02*
G37*
G36*
X44980Y235757D02*
X44404Y235643D01*
X43916Y235316D01*
X43590Y234828D01*
X43475Y234252D01*
X43590Y233676D01*
X43916Y233188D01*
X44404Y232861D01*
X44980Y232747D01*
X45556Y232861D01*
X46045Y233188D01*
X46371Y233676D01*
X46486Y234252D01*
X46371Y234828D01*
X46045Y235316D01*
X45556Y235643D01*
X44980Y235757D01*
D02*
G37*
G36*
X50000Y219123D02*
X49424Y219009D01*
X48936Y218683D01*
X48609Y218194D01*
X48495Y217618D01*
X48609Y217042D01*
X48936Y216554D01*
X49424Y216227D01*
X50000Y216113D01*
X50576Y216227D01*
X51064Y216554D01*
X51391Y217042D01*
X51505Y217618D01*
X51391Y218194D01*
X51064Y218683D01*
X50576Y219009D01*
X50000Y219123D01*
D02*
G37*
G36*
X48917Y215088D02*
X48341Y214973D01*
X47853Y214647D01*
X47527Y214159D01*
X47412Y213583D01*
X47473Y213278D01*
X44509Y210314D01*
X44334Y210053D01*
X44273Y209744D01*
X44273Y209744D01*
Y202864D01*
X43772Y202657D01*
X43517Y202461D01*
X42913D01*
Y201827D01*
X42816Y201700D01*
X42555Y201070D01*
X42466Y200394D01*
Y193150D01*
X42555Y192473D01*
X42816Y191843D01*
X43031Y191562D01*
Y190020D01*
X47205D01*
Y191574D01*
X47381Y191804D01*
X47642Y192434D01*
X47731Y193110D01*
X47692Y193409D01*
Y200394D01*
X47603Y201070D01*
X47342Y201700D01*
X47244Y201827D01*
Y202461D01*
X46641D01*
X46385Y202657D01*
X45885Y202864D01*
Y209410D01*
X48613Y212138D01*
X48917Y212077D01*
X49493Y212192D01*
X49982Y212518D01*
X50308Y213007D01*
X50423Y213583D01*
X50308Y214159D01*
X49982Y214647D01*
X49493Y214973D01*
X48917Y215088D01*
D02*
G37*
G36*
X60433Y207706D02*
X59857Y207592D01*
X59369Y207265D01*
X59042Y206777D01*
X58928Y206201D01*
X59042Y205625D01*
X59369Y205136D01*
X59857Y204810D01*
X60433Y204696D01*
X61009Y204810D01*
X61497Y205136D01*
X61824Y205625D01*
X61938Y206201D01*
X61824Y206777D01*
X61497Y207265D01*
X61009Y207592D01*
X60433Y207706D01*
D02*
G37*
G36*
X59252Y203007D02*
X50984D01*
X50308Y202918D01*
X49678Y202657D01*
X49422Y202461D01*
X48819D01*
Y201827D01*
X48721Y201700D01*
X48460Y201070D01*
X48371Y200394D01*
X48460Y199717D01*
X48721Y199087D01*
X48819Y198960D01*
Y198327D01*
X49422D01*
X49678Y198131D01*
X50308Y197870D01*
X50984Y197781D01*
X59252D01*
X59928Y197870D01*
X60558Y198131D01*
X60814Y198327D01*
X61417D01*
Y198960D01*
X61515Y199087D01*
X61776Y199717D01*
X61865Y200394D01*
X61776Y201070D01*
X61515Y201700D01*
X61417Y201827D01*
Y202461D01*
X60814D01*
X60558Y202657D01*
X59928Y202918D01*
X59252Y203007D01*
D02*
G37*
G36*
X57205Y196201D02*
X53031D01*
Y190020D01*
X57205D01*
Y196201D01*
D02*
G37*
G36*
X60335Y186545D02*
X59759Y186430D01*
X59270Y186104D01*
X58944Y185615D01*
X58829Y185039D01*
X58944Y184463D01*
X59270Y183975D01*
X59759Y183649D01*
X60335Y183534D01*
X60911Y183649D01*
X61399Y183975D01*
X61725Y184463D01*
X61840Y185039D01*
X61725Y185615D01*
X61399Y186104D01*
X60911Y186430D01*
X60335Y186545D01*
D02*
G37*
G36*
Y179950D02*
X59759Y179836D01*
X59270Y179509D01*
X58944Y179021D01*
X58829Y178445D01*
X58944Y177869D01*
X59270Y177381D01*
X59759Y177054D01*
X60335Y176940D01*
X60911Y177054D01*
X61399Y177381D01*
X61725Y177869D01*
X61840Y178445D01*
X61725Y179021D01*
X61399Y179509D01*
X60911Y179836D01*
X60335Y179950D01*
D02*
G37*
G36*
X56496D02*
X55920Y179836D01*
X55432Y179509D01*
X55105Y179021D01*
X54991Y178445D01*
X55105Y177869D01*
X55432Y177381D01*
X55920Y177054D01*
X56496Y176940D01*
X57072Y177054D01*
X57560Y177381D01*
X57887Y177869D01*
X58001Y178445D01*
X57887Y179021D01*
X57560Y179509D01*
X57072Y179836D01*
X56496Y179950D01*
D02*
G37*
G36*
X67118Y168828D02*
X66542Y168713D01*
X66054Y168387D01*
X65727Y167899D01*
X65613Y167323D01*
X65727Y166747D01*
X66054Y166258D01*
X66542Y165932D01*
X67118Y165817D01*
X67694Y165932D01*
X68182Y166258D01*
X68509Y166747D01*
X68623Y167323D01*
X68509Y167899D01*
X68182Y168387D01*
X67694Y168713D01*
X67118Y168828D01*
D02*
G37*
G36*
X88583Y197244D02*
X84646D01*
Y192520D01*
X87714D01*
X87792Y192504D01*
X87792Y192504D01*
X87852D01*
X90562Y189794D01*
X90562Y189794D01*
X90824Y189619D01*
X91132Y189558D01*
X91132Y189558D01*
X97291D01*
X97464Y189299D01*
X97952Y188973D01*
X98528Y188858D01*
X98899Y188932D01*
X99399Y188614D01*
Y178535D01*
X99399Y178535D01*
X99061Y178072D01*
X99022Y178051D01*
X96161D01*
Y174114D01*
X98896D01*
X99087Y173652D01*
X96182Y170747D01*
X96007Y170486D01*
X95946Y170177D01*
X95946Y170177D01*
Y163168D01*
X95821Y163075D01*
X95446Y162947D01*
X95064Y163202D01*
X94488Y163316D01*
X93912Y163202D01*
X93424Y162875D01*
X93251Y162617D01*
X89665D01*
X89665Y162617D01*
X89357Y162556D01*
X89095Y162381D01*
X86044Y159330D01*
X85869Y159068D01*
X85808Y158760D01*
X85808Y158760D01*
Y151969D01*
X84646D01*
Y147755D01*
X80747D01*
X78839Y149663D01*
Y151616D01*
X80298Y153076D01*
X80298Y153076D01*
X80473Y153337D01*
X80534Y153646D01*
Y154807D01*
X80905Y155118D01*
X84842D01*
Y159843D01*
X80905D01*
Y158691D01*
X79034D01*
X78964Y158677D01*
X78048D01*
X77970Y158661D01*
X74705D01*
Y157302D01*
X73917D01*
X73609Y157241D01*
X73347Y157066D01*
X73347Y157066D01*
X68270Y151989D01*
X67770Y152196D01*
Y159213D01*
X67681Y159889D01*
X67420Y160519D01*
X67205Y160800D01*
Y162343D01*
X63032D01*
Y160788D01*
X62855Y160558D01*
X62594Y159928D01*
X62505Y159252D01*
X62545Y158953D01*
Y151969D01*
X62634Y151292D01*
X62841Y150792D01*
X61919Y149870D01*
X61484Y150063D01*
X61475Y150130D01*
X61420Y150538D01*
X61515Y150662D01*
X61776Y151292D01*
X61865Y151969D01*
X61776Y152645D01*
X61515Y153275D01*
X61417Y153402D01*
Y154035D01*
X60814D01*
X60558Y154231D01*
X59928Y154492D01*
X59252Y154581D01*
X50984D01*
X50308Y154492D01*
X49678Y154231D01*
X49422Y154035D01*
X48819D01*
Y153402D01*
X48721Y153275D01*
X48460Y152645D01*
X48371Y151969D01*
X48460Y151292D01*
X48721Y150662D01*
X48819Y150535D01*
Y149902D01*
X49422D01*
X49678Y149706D01*
X50308Y149445D01*
X50984Y149356D01*
X59252D01*
X59928Y149445D01*
X60558Y149706D01*
X60782Y149877D01*
X61210Y149816D01*
X61406Y149356D01*
X57107Y145058D01*
X56932Y144797D01*
X56871Y144488D01*
X56871Y144488D01*
Y137284D01*
X56409Y137093D01*
X45924Y147578D01*
Y149515D01*
X46385Y149706D01*
X46641Y149902D01*
X47244D01*
Y150535D01*
X47342Y150662D01*
X47603Y151292D01*
X47692Y151969D01*
Y158953D01*
X47731Y159252D01*
X47642Y159928D01*
X47381Y160558D01*
X47205Y160788D01*
Y162343D01*
X43031D01*
Y160800D01*
X42816Y160519D01*
X42555Y159889D01*
X42466Y159213D01*
Y151969D01*
X42555Y151292D01*
X42816Y150662D01*
X42913Y150535D01*
Y149902D01*
X43517D01*
X43772Y149706D01*
X44312Y149482D01*
Y147244D01*
X44312Y147244D01*
X44373Y146936D01*
X44548Y146674D01*
X55871Y135351D01*
Y115370D01*
X55871Y115370D01*
X55932Y115062D01*
X56107Y114800D01*
X57709Y113198D01*
X57648Y112894D01*
X57763Y112318D01*
X58089Y111829D01*
X58578Y111503D01*
X59153Y111388D01*
X59730Y111503D01*
X60218Y111829D01*
X60544Y112318D01*
X60659Y112894D01*
X60544Y113470D01*
X60218Y113958D01*
X60174Y113988D01*
Y114589D01*
X60319Y114686D01*
X60646Y115175D01*
X60760Y115751D01*
X60646Y116327D01*
X60319Y116815D01*
X59831Y117142D01*
X59255Y117256D01*
X58983Y117202D01*
X58558Y117512D01*
X58607Y118012D01*
X62598D01*
Y119683D01*
X62682Y119700D01*
X62944Y119875D01*
X65412Y122343D01*
X68504D01*
Y126476D01*
X64173D01*
Y123384D01*
X63075Y122286D01*
X62598Y122516D01*
Y126145D01*
X62974Y126396D01*
X63300Y126885D01*
X63415Y127461D01*
X63300Y128037D01*
X63193Y128198D01*
X64353Y129358D01*
X64353Y129358D01*
X64527Y129619D01*
X64589Y129928D01*
Y146028D01*
X74205Y155644D01*
X74705Y155578D01*
Y154331D01*
X78566D01*
X78773Y153831D01*
X77699Y152756D01*
X74705D01*
Y148425D01*
X77797D01*
X79843Y146379D01*
X80105Y146204D01*
X80413Y146143D01*
X80413Y146143D01*
X92860D01*
Y143701D01*
X92949Y143025D01*
X93210Y142394D01*
X93307Y142267D01*
Y141634D01*
X93911D01*
X94166Y141438D01*
X94796Y141177D01*
X95472Y141088D01*
X96149Y141177D01*
X96779Y141438D01*
X97034Y141634D01*
X97638D01*
Y142267D01*
X97735Y142394D01*
X97996Y143025D01*
X98085Y143701D01*
Y145869D01*
X98234Y146063D01*
X102165D01*
Y150000D01*
X97457D01*
X96905Y150229D01*
X96228Y150318D01*
X95552Y150229D01*
X95000Y150000D01*
X94685D01*
Y149786D01*
X94381Y149552D01*
X93625Y148796D01*
X93210Y148255D01*
X93002Y147755D01*
X88583D01*
Y151969D01*
X87420D01*
Y158426D01*
X89999Y161005D01*
X93251D01*
X93424Y160747D01*
X93912Y160420D01*
X94488Y160306D01*
X94685Y160144D01*
Y157087D01*
X100394D01*
Y161024D01*
X100210D01*
X100118Y161099D01*
X99857Y161524D01*
X99935Y161917D01*
X99821Y162493D01*
X99494Y162982D01*
X99006Y163308D01*
X98430Y163423D01*
X98058Y163349D01*
X97558Y163666D01*
Y169843D01*
X101484Y173769D01*
X101484Y173769D01*
X101658Y174031D01*
X101675Y174114D01*
X109153D01*
Y178051D01*
X101675D01*
X101658Y178135D01*
X101484Y178396D01*
X101011Y178869D01*
Y191058D01*
X101398Y191339D01*
X102165D01*
Y195276D01*
X96457D01*
Y191339D01*
X96027Y191170D01*
X91466D01*
X88756Y193880D01*
X88583Y193996D01*
Y197244D01*
D02*
G37*
G36*
X75197Y162726D02*
X74621Y162611D01*
X74132Y162285D01*
X73839Y161846D01*
X73573Y161820D01*
X73306Y161846D01*
X73013Y162285D01*
X72525Y162611D01*
X71949Y162726D01*
X71373Y162611D01*
X70884Y162285D01*
X70558Y161796D01*
X70443Y161221D01*
X70558Y160644D01*
X70884Y160156D01*
X71373Y159830D01*
X71949Y159715D01*
X72525Y159830D01*
X73013Y160156D01*
X73306Y160595D01*
X73573Y160621D01*
X73839Y160595D01*
X74132Y160156D01*
X74621Y159830D01*
X75197Y159715D01*
X75773Y159830D01*
X76261Y160156D01*
X76588Y160644D01*
X76702Y161221D01*
X76588Y161796D01*
X76261Y162285D01*
X75773Y162611D01*
X75197Y162726D01*
D02*
G37*
G36*
X57205Y162343D02*
X53031D01*
Y156161D01*
X57205D01*
Y162343D01*
D02*
G37*
G36*
X89567Y143139D02*
X88991Y143025D01*
X88503Y142698D01*
X88176Y142210D01*
X88062Y141634D01*
X88176Y141058D01*
X88503Y140569D01*
X88991Y140243D01*
X89567Y140129D01*
X90143Y140243D01*
X90631Y140569D01*
X90958Y141058D01*
X91072Y141634D01*
X90958Y142210D01*
X90631Y142698D01*
X90143Y143025D01*
X89567Y143139D01*
D02*
G37*
G36*
X85630D02*
X85054Y143025D01*
X84565Y142698D01*
X84239Y142210D01*
X84124Y141634D01*
X84239Y141058D01*
X84565Y140569D01*
X85054Y140243D01*
X85630Y140129D01*
X86206Y140243D01*
X86694Y140569D01*
X87020Y141058D01*
X87135Y141634D01*
X87020Y142210D01*
X86694Y142698D01*
X86206Y143025D01*
X85630Y143139D01*
D02*
G37*
G36*
X94390Y140285D02*
X93814Y140170D01*
X93325Y139844D01*
X92999Y139356D01*
X92884Y138779D01*
X92999Y138204D01*
X93325Y137715D01*
X93814Y137389D01*
X94390Y137274D01*
X94966Y137389D01*
X95454Y137715D01*
X95780Y138204D01*
X95895Y138779D01*
X95780Y139356D01*
X95454Y139844D01*
X94966Y140170D01*
X94390Y140285D01*
D02*
G37*
G36*
Y136348D02*
X93814Y136233D01*
X93325Y135907D01*
X92999Y135419D01*
X92884Y134843D01*
X92999Y134266D01*
X93325Y133778D01*
X93814Y133452D01*
X94390Y133337D01*
X94966Y133452D01*
X95454Y133778D01*
X95780Y134266D01*
X95895Y134843D01*
X95780Y135419D01*
X95454Y135907D01*
X94966Y136233D01*
X94390Y136348D01*
D02*
G37*
G36*
X50000Y134379D02*
X49424Y134265D01*
X48936Y133938D01*
X48609Y133450D01*
X48495Y132874D01*
X48609Y132298D01*
X48936Y131810D01*
X49424Y131483D01*
X50000Y131369D01*
X50576Y131483D01*
X51064Y131810D01*
X51391Y132298D01*
X51505Y132874D01*
X51391Y133450D01*
X51064Y133938D01*
X50576Y134265D01*
X50000Y134379D01*
D02*
G37*
G36*
X94390Y132411D02*
X93814Y132296D01*
X93325Y131970D01*
X92999Y131482D01*
X92884Y130905D01*
X92999Y130330D01*
X93325Y129841D01*
X93814Y129515D01*
X94390Y129400D01*
X94966Y129515D01*
X95454Y129841D01*
X95780Y130330D01*
X95895Y130905D01*
X95780Y131482D01*
X95454Y131970D01*
X94966Y132296D01*
X94390Y132411D01*
D02*
G37*
G36*
Y128474D02*
X93814Y128359D01*
X93325Y128033D01*
X92999Y127545D01*
X92884Y126969D01*
X92999Y126392D01*
X93325Y125904D01*
X93814Y125578D01*
X94390Y125463D01*
X94966Y125578D01*
X95454Y125904D01*
X95780Y126392D01*
X95895Y126969D01*
X95780Y127545D01*
X95454Y128033D01*
X94966Y128359D01*
X94390Y128474D01*
D02*
G37*
G36*
Y124537D02*
X93814Y124422D01*
X93325Y124096D01*
X92999Y123608D01*
X92884Y123031D01*
X92999Y122455D01*
X93325Y121967D01*
X93814Y121641D01*
X94390Y121526D01*
X94966Y121641D01*
X95454Y121967D01*
X95780Y122455D01*
X95895Y123031D01*
X95780Y123608D01*
X95454Y124096D01*
X94966Y124422D01*
X94390Y124537D01*
D02*
G37*
G36*
Y120600D02*
X93814Y120485D01*
X93325Y120159D01*
X92999Y119670D01*
X92884Y119095D01*
X92999Y118518D01*
X93325Y118030D01*
X93814Y117704D01*
X94390Y117589D01*
X94966Y117704D01*
X95454Y118030D01*
X95780Y118518D01*
X95895Y119095D01*
X95780Y119670D01*
X95454Y120159D01*
X94966Y120485D01*
X94390Y120600D01*
D02*
G37*
G36*
Y116761D02*
X93814Y116647D01*
X93325Y116320D01*
X92999Y115832D01*
X92884Y115256D01*
X92999Y114680D01*
X93325Y114191D01*
X93814Y113865D01*
X94390Y113751D01*
X94966Y113865D01*
X95454Y114191D01*
X95780Y114680D01*
X95895Y115256D01*
X95780Y115832D01*
X95454Y116320D01*
X94966Y116647D01*
X94390Y116761D01*
D02*
G37*
G36*
Y112726D02*
X93814Y112611D01*
X93325Y112285D01*
X92999Y111796D01*
X92884Y111221D01*
X92999Y110644D01*
X93325Y110156D01*
X93814Y109830D01*
X94390Y109715D01*
X94966Y109830D01*
X95454Y110156D01*
X95780Y110644D01*
X95895Y111221D01*
X95780Y111796D01*
X95454Y112285D01*
X94966Y112611D01*
X94390Y112726D01*
D02*
G37*
G36*
X48622D02*
X48046Y112611D01*
X47558Y112285D01*
X47231Y111796D01*
X47117Y111221D01*
X47177Y110916D01*
X44509Y108247D01*
X44334Y107986D01*
X44273Y107677D01*
X44273Y107677D01*
Y98435D01*
X43772Y98227D01*
X43517Y98032D01*
X42913D01*
Y97398D01*
X42816Y97271D01*
X42555Y96641D01*
X42466Y95965D01*
Y89705D01*
X42555Y89028D01*
X42816Y88398D01*
X43031Y88117D01*
Y86575D01*
X47205D01*
Y88129D01*
X47381Y88359D01*
X47642Y88989D01*
X47731Y89665D01*
X47692Y89964D01*
Y95965D01*
X47603Y96641D01*
X47342Y97271D01*
X47244Y97398D01*
Y98032D01*
X46641D01*
X46385Y98227D01*
X45885Y98435D01*
Y107343D01*
X48317Y109776D01*
X48622Y109715D01*
X49198Y109830D01*
X49687Y110156D01*
X50013Y110644D01*
X50127Y111221D01*
X50013Y111796D01*
X49687Y112285D01*
X49198Y112611D01*
X48622Y112726D01*
D02*
G37*
G36*
X87598Y108100D02*
X87022Y107985D01*
X86534Y107659D01*
X86208Y107170D01*
X86093Y106595D01*
X86208Y106018D01*
X86534Y105530D01*
X87022Y105204D01*
X87598Y105089D01*
X88174Y105204D01*
X88663Y105530D01*
X88989Y106018D01*
X89104Y106595D01*
X88989Y107170D01*
X88663Y107659D01*
X88174Y107985D01*
X87598Y108100D01*
D02*
G37*
G36*
X71850D02*
X71274Y107985D01*
X70786Y107659D01*
X70460Y107170D01*
X70345Y106595D01*
X70460Y106018D01*
X70786Y105530D01*
X71274Y105204D01*
X71850Y105089D01*
X72426Y105204D01*
X72915Y105530D01*
X73241Y106018D01*
X73356Y106595D01*
X73241Y107170D01*
X72915Y107659D01*
X72426Y107985D01*
X71850Y108100D01*
D02*
G37*
G36*
X67913D02*
X67337Y107985D01*
X66849Y107659D01*
X66523Y107170D01*
X66408Y106595D01*
X66523Y106018D01*
X66849Y105530D01*
X67337Y105204D01*
X67913Y105089D01*
X68489Y105204D01*
X68978Y105530D01*
X69304Y106018D01*
X69419Y106595D01*
X69304Y107170D01*
X68978Y107659D01*
X68489Y107985D01*
X67913Y108100D01*
D02*
G37*
G36*
X91535Y108001D02*
X90959Y107887D01*
X90471Y107561D01*
X90145Y107072D01*
X90030Y106496D01*
X90145Y105920D01*
X90471Y105432D01*
X90959Y105105D01*
X91535Y104991D01*
X92111Y105105D01*
X92600Y105432D01*
X92926Y105920D01*
X93041Y106496D01*
X92926Y107072D01*
X92600Y107561D01*
X92111Y107887D01*
X91535Y108001D01*
D02*
G37*
G36*
X83662D02*
X83086Y107887D01*
X82597Y107561D01*
X82271Y107072D01*
X82156Y106496D01*
X82271Y105920D01*
X82597Y105432D01*
X83086Y105105D01*
X83662Y104991D01*
X84238Y105105D01*
X84726Y105432D01*
X85052Y105920D01*
X85167Y106496D01*
X85052Y107072D01*
X84726Y107561D01*
X84238Y107887D01*
X83662Y108001D01*
D02*
G37*
G36*
X79724D02*
X79148Y107887D01*
X78660Y107561D01*
X78334Y107072D01*
X78219Y106496D01*
X78334Y105920D01*
X78660Y105432D01*
X79148Y105105D01*
X79724Y104991D01*
X80300Y105105D01*
X80789Y105432D01*
X81115Y105920D01*
X81230Y106496D01*
X81115Y107072D01*
X80789Y107561D01*
X80300Y107887D01*
X79724Y108001D01*
D02*
G37*
G36*
X75787D02*
X75211Y107887D01*
X74723Y107561D01*
X74397Y107072D01*
X74282Y106496D01*
X74397Y105920D01*
X74723Y105432D01*
X75211Y105105D01*
X75787Y104991D01*
X76363Y105105D01*
X76852Y105432D01*
X77178Y105920D01*
X77293Y106496D01*
X77178Y107072D01*
X76852Y107561D01*
X76363Y107887D01*
X75787Y108001D01*
D02*
G37*
G36*
X60039Y103277D02*
X59463Y103162D01*
X58975Y102836D01*
X58649Y102348D01*
X58534Y101772D01*
X58649Y101196D01*
X58975Y100707D01*
X59463Y100381D01*
X60039Y100266D01*
X60615Y100381D01*
X61104Y100707D01*
X61430Y101196D01*
X61545Y101772D01*
X61430Y102348D01*
X61104Y102836D01*
X60615Y103162D01*
X60039Y103277D01*
D02*
G37*
G36*
X59252Y98577D02*
X50984D01*
X50308Y98488D01*
X49678Y98227D01*
X49422Y98032D01*
X48819D01*
Y97398D01*
X48721Y97271D01*
X48460Y96641D01*
X48371Y95965D01*
X48460Y95288D01*
X48721Y94658D01*
X48819Y94531D01*
Y93898D01*
X49422D01*
X49678Y93702D01*
X50308Y93441D01*
X50984Y93352D01*
X59252D01*
X59928Y93441D01*
X60558Y93702D01*
X60814Y93898D01*
X61417D01*
Y94531D01*
X61515Y94658D01*
X61776Y95288D01*
X61865Y95965D01*
X61776Y96641D01*
X61515Y97271D01*
X61417Y97398D01*
Y98032D01*
X60814D01*
X60558Y98227D01*
X59928Y98488D01*
X59252Y98577D01*
D02*
G37*
G36*
X60728Y110757D02*
X60152Y110643D01*
X59664Y110316D01*
X59338Y109828D01*
X59223Y109252D01*
X59338Y108676D01*
X59664Y108188D01*
X60152Y107861D01*
X60728Y107747D01*
X61033Y107807D01*
X64351Y104489D01*
Y98435D01*
X63851Y98227D01*
X63596Y98032D01*
X62992D01*
Y97398D01*
X62895Y97271D01*
X62634Y96641D01*
X62545Y95965D01*
Y89964D01*
X62505Y89665D01*
X62594Y88989D01*
X62855Y88359D01*
X63032Y88129D01*
Y86575D01*
X67205D01*
Y88117D01*
X67420Y88398D01*
X67681Y89028D01*
X67770Y89705D01*
Y95965D01*
X67681Y96641D01*
X67420Y97271D01*
X67323Y97398D01*
Y98032D01*
X66719D01*
X66464Y98227D01*
X65964Y98435D01*
Y104823D01*
X65964Y104823D01*
X65902Y105131D01*
X65727Y105393D01*
X65727Y105393D01*
X62173Y108947D01*
X62234Y109252D01*
X62119Y109828D01*
X61793Y110316D01*
X61304Y110643D01*
X60728Y110757D01*
D02*
G37*
G36*
X57205Y92756D02*
X53031D01*
Y86575D01*
X57205D01*
Y92756D01*
D02*
G37*
G36*
X1434842Y234379D02*
X1434266Y234265D01*
X1433778Y233938D01*
X1433452Y233450D01*
X1433337Y232874D01*
X1433452Y232298D01*
X1433778Y231810D01*
X1434266Y231483D01*
X1434842Y231369D01*
X1435419Y231483D01*
X1435907Y231810D01*
X1436233Y232298D01*
X1436348Y232874D01*
X1436233Y233450D01*
X1435907Y233938D01*
X1435419Y234265D01*
X1434842Y234379D01*
D02*
G37*
G36*
X1391839Y216784D02*
Y215461D01*
X1393162D01*
X1393115Y215696D01*
X1392698Y216320D01*
X1392074Y216737D01*
X1391839Y216784D01*
D02*
G37*
G36*
X1511811Y215573D02*
X1511143Y215485D01*
X1510520Y215227D01*
X1509986Y214817D01*
X1509634Y214359D01*
X1509350Y214317D01*
X1509066Y214359D01*
X1508715Y214817D01*
X1508180Y215227D01*
X1507558Y215485D01*
X1506890Y215573D01*
X1506222Y215485D01*
X1505599Y215227D01*
X1505065Y214817D01*
X1504654Y214283D01*
X1504397Y213660D01*
X1504309Y212992D01*
X1504397Y212324D01*
X1504654Y211702D01*
X1505065Y211167D01*
X1505599Y210757D01*
X1506222Y210499D01*
X1506890Y210411D01*
X1507558Y210499D01*
X1508180Y210757D01*
X1508715Y211167D01*
X1509066Y211625D01*
X1509350Y211668D01*
X1509634Y211625D01*
X1509986Y211167D01*
X1510520Y210757D01*
X1511143Y210499D01*
X1511811Y210411D01*
X1512479Y210499D01*
X1513102Y210757D01*
X1513636Y211167D01*
X1514046Y211702D01*
X1514304Y212324D01*
X1514392Y212992D01*
X1514304Y213660D01*
X1514046Y214283D01*
X1513636Y214817D01*
X1513102Y215227D01*
X1512479Y215485D01*
X1511811Y215573D01*
D02*
G37*
G36*
X1393162Y214461D02*
X1391839D01*
Y213137D01*
X1392074Y213184D01*
X1392698Y213601D01*
X1393115Y214225D01*
X1393162Y214461D01*
D02*
G37*
G36*
X1540650Y199340D02*
X1540074Y199225D01*
X1539585Y198899D01*
X1539259Y198411D01*
X1539144Y197835D01*
X1539259Y197259D01*
X1539585Y196770D01*
X1540074Y196444D01*
X1540650Y196329D01*
X1541226Y196444D01*
X1541714Y196770D01*
X1542040Y197259D01*
X1542155Y197835D01*
X1542040Y198411D01*
X1541714Y198899D01*
X1541226Y199225D01*
X1540650Y199340D01*
D02*
G37*
G36*
X1488976Y199241D02*
X1488400Y199127D01*
X1487912Y198801D01*
X1487586Y198312D01*
X1487471Y197736D01*
X1487586Y197160D01*
X1487912Y196672D01*
X1488400Y196345D01*
X1488976Y196231D01*
X1489552Y196345D01*
X1490041Y196672D01*
X1490367Y197160D01*
X1490482Y197736D01*
X1490367Y198312D01*
X1490041Y198801D01*
X1489552Y199127D01*
X1488976Y199241D01*
D02*
G37*
G36*
X1493110Y197864D02*
X1492534Y197749D01*
X1492046Y197423D01*
X1491720Y196934D01*
X1491605Y196358D01*
X1491720Y195782D01*
X1492046Y195294D01*
X1492534Y194968D01*
X1493110Y194853D01*
X1493686Y194968D01*
X1494175Y195294D01*
X1494501Y195782D01*
X1494615Y196358D01*
X1494501Y196934D01*
X1494175Y197423D01*
X1493686Y197749D01*
X1493110Y197864D01*
D02*
G37*
G36*
X1404437Y191981D02*
Y190657D01*
X1405760D01*
X1405713Y190893D01*
X1405297Y191517D01*
X1404673Y191934D01*
X1404437Y191981D01*
D02*
G37*
G36*
X1403437D02*
X1403201Y191934D01*
X1402577Y191517D01*
X1402161Y190893D01*
X1402114Y190657D01*
X1403437D01*
Y191981D01*
D02*
G37*
G36*
X1545669Y193336D02*
X1545093Y193221D01*
X1544605Y192895D01*
X1544279Y192407D01*
X1544164Y191831D01*
X1544279Y191255D01*
X1544605Y190766D01*
X1545093Y190440D01*
X1545669Y190325D01*
X1546245Y190440D01*
X1546734Y190766D01*
X1547060Y191255D01*
X1547175Y191831D01*
X1547060Y192407D01*
X1546734Y192895D01*
X1546245Y193221D01*
X1545669Y193336D01*
D02*
G37*
G36*
X1256299Y234183D02*
X1255723Y234068D01*
X1255235Y233742D01*
X1254908Y233253D01*
X1254794Y232677D01*
X1254908Y232101D01*
X1255235Y231613D01*
X1255723Y231287D01*
X1256299Y231172D01*
X1256875Y231287D01*
X1257364Y231613D01*
X1257690Y232101D01*
X1257804Y232677D01*
X1257690Y233253D01*
X1257364Y233742D01*
X1256875Y234068D01*
X1256299Y234183D01*
D02*
G37*
G36*
X1210736Y216784D02*
Y215461D01*
X1212059D01*
X1212013Y215696D01*
X1211596Y216320D01*
X1210972Y216737D01*
X1210736Y216784D01*
D02*
G37*
G36*
X1330709Y215573D02*
X1330041Y215485D01*
X1329418Y215227D01*
X1328883Y214817D01*
X1328532Y214359D01*
X1328248Y214317D01*
X1327964Y214359D01*
X1327612Y214817D01*
X1327078Y215227D01*
X1326455Y215485D01*
X1325787Y215573D01*
X1325119Y215485D01*
X1324497Y215227D01*
X1323962Y214817D01*
X1323552Y214283D01*
X1323294Y213660D01*
X1323206Y212992D01*
X1323294Y212324D01*
X1323552Y211702D01*
X1323962Y211167D01*
X1324497Y210757D01*
X1325119Y210499D01*
X1325787Y210411D01*
X1326455Y210499D01*
X1327078Y210757D01*
X1327612Y211167D01*
X1327964Y211625D01*
X1328248Y211668D01*
X1328532Y211625D01*
X1328883Y211167D01*
X1329418Y210757D01*
X1330041Y210499D01*
X1330709Y210411D01*
X1331377Y210499D01*
X1331999Y210757D01*
X1332534Y211167D01*
X1332944Y211702D01*
X1333202Y212324D01*
X1333290Y212992D01*
X1333202Y213660D01*
X1332944Y214283D01*
X1332534Y214817D01*
X1331999Y215227D01*
X1331377Y215485D01*
X1330709Y215573D01*
D02*
G37*
G36*
X1212059Y214461D02*
X1210736D01*
Y213137D01*
X1210972Y213184D01*
X1211596Y213601D01*
X1212013Y214225D01*
X1212059Y214461D01*
D02*
G37*
G36*
X1308957Y203572D02*
X1308381Y203458D01*
X1307892Y203131D01*
X1307566Y202643D01*
X1307451Y202067D01*
X1307566Y201491D01*
X1307892Y201003D01*
X1308381Y200676D01*
X1308957Y200562D01*
X1309533Y200676D01*
X1310021Y201003D01*
X1310347Y201491D01*
X1310462Y202067D01*
X1310347Y202643D01*
X1310021Y203131D01*
X1309533Y203458D01*
X1308957Y203572D01*
D02*
G37*
G36*
X1364665Y203474D02*
X1364089Y203359D01*
X1363601Y203033D01*
X1363275Y202545D01*
X1363160Y201969D01*
X1363275Y201393D01*
X1363601Y200904D01*
X1364089Y200578D01*
X1364665Y200463D01*
X1365241Y200578D01*
X1365730Y200904D01*
X1366056Y201393D01*
X1366171Y201969D01*
X1366056Y202545D01*
X1365730Y203033D01*
X1365241Y203359D01*
X1364665Y203474D01*
D02*
G37*
G36*
X1307579Y199340D02*
X1307003Y199225D01*
X1306514Y198899D01*
X1306188Y198411D01*
X1306073Y197835D01*
X1306188Y197259D01*
X1306514Y196770D01*
X1307003Y196444D01*
X1307579Y196329D01*
X1308155Y196444D01*
X1308643Y196770D01*
X1308969Y197259D01*
X1309084Y197835D01*
X1308969Y198411D01*
X1308643Y198899D01*
X1308155Y199225D01*
X1307579Y199340D01*
D02*
G37*
G36*
X1359547Y199340D02*
X1358971Y199225D01*
X1358483Y198899D01*
X1358156Y198411D01*
X1358042Y197835D01*
X1358156Y197259D01*
X1358483Y196770D01*
X1358971Y196444D01*
X1359547Y196329D01*
X1360123Y196444D01*
X1360612Y196770D01*
X1360938Y197259D01*
X1361053Y197835D01*
X1360938Y198411D01*
X1360612Y198899D01*
X1360123Y199225D01*
X1359547Y199340D01*
D02*
G37*
G36*
X1223335Y191981D02*
Y190657D01*
X1224658D01*
X1224611Y190893D01*
X1224194Y191517D01*
X1223570Y191934D01*
X1223335Y191981D01*
D02*
G37*
G36*
X1222335D02*
X1222099Y191934D01*
X1221475Y191517D01*
X1221058Y190893D01*
X1221011Y190657D01*
X1222335D01*
Y191981D01*
D02*
G37*
G36*
X1075295Y234183D02*
X1074719Y234068D01*
X1074231Y233742D01*
X1073905Y233253D01*
X1073790Y232677D01*
X1073905Y232101D01*
X1074231Y231613D01*
X1074719Y231287D01*
X1075295Y231172D01*
X1075871Y231287D01*
X1076360Y231613D01*
X1076686Y232101D01*
X1076801Y232677D01*
X1076686Y233253D01*
X1076360Y233742D01*
X1075871Y234068D01*
X1075295Y234183D01*
D02*
G37*
G36*
X1029634Y216784D02*
Y215461D01*
X1030957D01*
X1030910Y215696D01*
X1030494Y216320D01*
X1029870Y216737D01*
X1029634Y216784D01*
D02*
G37*
G36*
X1149606Y215573D02*
X1148938Y215485D01*
X1148316Y215227D01*
X1147781Y214817D01*
X1147430Y214359D01*
X1147146Y214317D01*
X1146861Y214359D01*
X1146510Y214817D01*
X1145976Y215227D01*
X1145353Y215485D01*
X1144685Y215573D01*
X1144017Y215485D01*
X1143394Y215227D01*
X1142860Y214817D01*
X1142450Y214283D01*
X1142192Y213660D01*
X1142104Y212992D01*
X1142192Y212324D01*
X1142450Y211702D01*
X1142860Y211167D01*
X1143394Y210757D01*
X1144017Y210499D01*
X1144685Y210411D01*
X1145353Y210499D01*
X1145976Y210757D01*
X1146510Y211167D01*
X1146861Y211625D01*
X1147146Y211668D01*
X1147430Y211625D01*
X1147781Y211167D01*
X1148316Y210757D01*
X1148938Y210499D01*
X1149606Y210411D01*
X1150274Y210499D01*
X1150897Y210757D01*
X1151431Y211167D01*
X1151842Y211702D01*
X1152100Y212324D01*
X1152187Y212992D01*
X1152100Y213660D01*
X1151842Y214283D01*
X1151431Y214817D01*
X1150897Y215227D01*
X1150274Y215485D01*
X1149606Y215573D01*
D02*
G37*
G36*
X1030957Y214461D02*
X1029634D01*
Y213137D01*
X1029870Y213184D01*
X1030494Y213601D01*
X1030910Y214225D01*
X1030957Y214461D01*
D02*
G37*
G36*
X1128248Y207214D02*
X1127672Y207099D01*
X1127184Y206773D01*
X1126857Y206285D01*
X1126743Y205709D01*
X1126857Y205133D01*
X1127184Y204644D01*
X1127672Y204318D01*
X1128248Y204203D01*
X1128824Y204318D01*
X1129312Y204644D01*
X1129639Y205133D01*
X1129753Y205709D01*
X1129639Y206285D01*
X1129312Y206773D01*
X1128824Y207099D01*
X1128248Y207214D01*
D02*
G37*
G36*
X1183563Y206427D02*
X1182987Y206312D01*
X1182499Y205986D01*
X1182172Y205497D01*
X1182058Y204921D01*
X1182172Y204345D01*
X1182499Y203857D01*
X1182987Y203531D01*
X1183563Y203416D01*
X1184139Y203531D01*
X1184627Y203857D01*
X1184954Y204345D01*
X1185068Y204921D01*
X1184954Y205497D01*
X1184627Y205986D01*
X1184139Y206312D01*
X1183563Y206427D01*
D02*
G37*
G36*
X1126476Y199340D02*
X1125900Y199225D01*
X1125412Y198899D01*
X1125086Y198411D01*
X1124971Y197835D01*
X1125086Y197259D01*
X1125412Y196770D01*
X1125900Y196444D01*
X1126476Y196329D01*
X1127052Y196444D01*
X1127541Y196770D01*
X1127867Y197259D01*
X1127982Y197835D01*
X1127867Y198411D01*
X1127541Y198899D01*
X1127052Y199225D01*
X1126476Y199340D01*
D02*
G37*
G36*
X1178445Y199340D02*
X1177869Y199225D01*
X1177380Y198899D01*
X1177054Y198411D01*
X1176940Y197835D01*
X1177054Y197259D01*
X1177380Y196770D01*
X1177869Y196444D01*
X1178445Y196329D01*
X1179021Y196444D01*
X1179509Y196770D01*
X1179836Y197259D01*
X1179950Y197835D01*
X1179836Y198411D01*
X1179509Y198899D01*
X1179021Y199225D01*
X1178445Y199340D01*
D02*
G37*
G36*
X1042232Y191981D02*
Y190657D01*
X1043556D01*
X1043509Y190893D01*
X1043092Y191517D01*
X1042468Y191934D01*
X1042232Y191981D01*
D02*
G37*
G36*
X1041232D02*
X1040996Y191934D01*
X1040373Y191517D01*
X1039956Y190893D01*
X1039909Y190657D01*
X1041232D01*
Y191981D01*
D02*
G37*
G36*
X894094Y234379D02*
X893518Y234265D01*
X893030Y233938D01*
X892704Y233450D01*
X892589Y232874D01*
X892704Y232298D01*
X893030Y231810D01*
X893518Y231483D01*
X894094Y231369D01*
X894670Y231483D01*
X895159Y231810D01*
X895485Y232298D01*
X895600Y232874D01*
X895485Y233450D01*
X895159Y233938D01*
X894670Y234265D01*
X894094Y234379D01*
D02*
G37*
G36*
X848532Y216784D02*
Y215461D01*
X849855D01*
X849808Y215696D01*
X849391Y216320D01*
X848767Y216737D01*
X848532Y216784D01*
D02*
G37*
G36*
X968504Y215573D02*
X967836Y215485D01*
X967213Y215227D01*
X966679Y214817D01*
X966327Y214359D01*
X966043Y214317D01*
X965759Y214359D01*
X965408Y214817D01*
X964873Y215227D01*
X964251Y215485D01*
X963583Y215573D01*
X962915Y215485D01*
X962292Y215227D01*
X961757Y214817D01*
X961347Y214283D01*
X961090Y213660D01*
X961001Y212992D01*
X961090Y212324D01*
X961347Y211702D01*
X961757Y211167D01*
X962292Y210757D01*
X962915Y210499D01*
X963583Y210411D01*
X964251Y210499D01*
X964873Y210757D01*
X965408Y211167D01*
X965759Y211625D01*
X966043Y211668D01*
X966327Y211625D01*
X966679Y211167D01*
X967213Y210757D01*
X967836Y210499D01*
X968504Y210411D01*
X969172Y210499D01*
X969794Y210757D01*
X970329Y211167D01*
X970739Y211702D01*
X970997Y212324D01*
X971085Y212992D01*
X970997Y213660D01*
X970739Y214283D01*
X970329Y214817D01*
X969794Y215227D01*
X969172Y215485D01*
X968504Y215573D01*
D02*
G37*
G36*
X849855Y214461D02*
X848532D01*
Y213137D01*
X848767Y213184D01*
X849391Y213601D01*
X849808Y214225D01*
X849855Y214461D01*
D02*
G37*
G36*
X946653Y210560D02*
X946078Y210446D01*
X945589Y210120D01*
X945263Y209631D01*
X945148Y209055D01*
X945263Y208479D01*
X945589Y207991D01*
X946078Y207664D01*
X946653Y207550D01*
X947230Y207664D01*
X947718Y207991D01*
X948044Y208479D01*
X948159Y209055D01*
X948044Y209631D01*
X947718Y210120D01*
X947230Y210446D01*
X946653Y210560D01*
D02*
G37*
G36*
X1002362Y209871D02*
X1001786Y209757D01*
X1001298Y209431D01*
X1000972Y208942D01*
X1000857Y208366D01*
X1000972Y207790D01*
X1001298Y207302D01*
X1001786Y206975D01*
X1002362Y206861D01*
X1002938Y206975D01*
X1003427Y207302D01*
X1003753Y207790D01*
X1003868Y208366D01*
X1003753Y208942D01*
X1003427Y209431D01*
X1002938Y209757D01*
X1002362Y209871D01*
D02*
G37*
G36*
X945472Y199340D02*
X944896Y199225D01*
X944408Y198899D01*
X944082Y198411D01*
X943967Y197835D01*
X944082Y197259D01*
X944408Y196770D01*
X944896Y196444D01*
X945472Y196329D01*
X946049Y196444D01*
X946537Y196770D01*
X946863Y197259D01*
X946978Y197835D01*
X946863Y198411D01*
X946537Y198899D01*
X946049Y199225D01*
X945472Y199340D01*
D02*
G37*
G36*
X997342Y199340D02*
X996766Y199225D01*
X996278Y198899D01*
X995952Y198411D01*
X995837Y197835D01*
X995952Y197259D01*
X996278Y196770D01*
X996766Y196444D01*
X997342Y196329D01*
X997919Y196444D01*
X998407Y196770D01*
X998733Y197259D01*
X998848Y197835D01*
X998733Y198411D01*
X998407Y198899D01*
X997919Y199225D01*
X997342Y199340D01*
D02*
G37*
G36*
X861130Y191981D02*
Y190657D01*
X862453D01*
X862406Y190893D01*
X861989Y191517D01*
X861366Y191934D01*
X861130Y191981D01*
D02*
G37*
G36*
X860130D02*
X859894Y191934D01*
X859270Y191517D01*
X858854Y190893D01*
X858807Y190657D01*
X860130D01*
Y191981D01*
D02*
G37*
G36*
X712992Y234379D02*
X712416Y234265D01*
X711928Y233938D01*
X711601Y233450D01*
X711487Y232874D01*
X711601Y232298D01*
X711928Y231810D01*
X712416Y231483D01*
X712992Y231369D01*
X713568Y231483D01*
X714056Y231810D01*
X714383Y232298D01*
X714497Y232874D01*
X714383Y233450D01*
X714056Y233938D01*
X713568Y234265D01*
X712992Y234379D01*
D02*
G37*
G36*
X667429Y216784D02*
Y215461D01*
X668752D01*
X668706Y215696D01*
X668289Y216320D01*
X667665Y216737D01*
X667429Y216784D01*
D02*
G37*
G36*
X787402Y215573D02*
X786733Y215485D01*
X786111Y215227D01*
X785576Y214817D01*
X785225Y214359D01*
X784941Y214317D01*
X784657Y214359D01*
X784305Y214817D01*
X783771Y215227D01*
X783148Y215485D01*
X782480Y215573D01*
X781812Y215485D01*
X781190Y215227D01*
X780655Y214817D01*
X780245Y214283D01*
X779987Y213660D01*
X779899Y212992D01*
X779987Y212324D01*
X780245Y211702D01*
X780655Y211167D01*
X781190Y210757D01*
X781812Y210499D01*
X782480Y210411D01*
X783148Y210499D01*
X783771Y210757D01*
X784305Y211167D01*
X784657Y211625D01*
X784941Y211668D01*
X785225Y211625D01*
X785576Y211167D01*
X786111Y210757D01*
X786733Y210499D01*
X787402Y210411D01*
X788070Y210499D01*
X788692Y210757D01*
X789227Y211167D01*
X789637Y211702D01*
X789895Y212324D01*
X789983Y212992D01*
X789895Y213660D01*
X789637Y214283D01*
X789227Y214817D01*
X788692Y215227D01*
X788070Y215485D01*
X787402Y215573D01*
D02*
G37*
G36*
X668752Y214461D02*
X667429D01*
Y213137D01*
X667665Y213184D01*
X668289Y213601D01*
X668706Y214225D01*
X668752Y214461D01*
D02*
G37*
G36*
X766043Y214596D02*
X765467Y214481D01*
X764979Y214155D01*
X764653Y213667D01*
X764538Y213090D01*
X764653Y212514D01*
X764979Y212026D01*
X765467Y211700D01*
X766043Y211585D01*
X766619Y211700D01*
X767108Y212026D01*
X767434Y212514D01*
X767549Y213090D01*
X767434Y213667D01*
X767108Y214155D01*
X766619Y214481D01*
X766043Y214596D01*
D02*
G37*
G36*
X821555Y212824D02*
X820979Y212710D01*
X820491Y212383D01*
X820164Y211895D01*
X820050Y211319D01*
X820164Y210743D01*
X820491Y210255D01*
X820979Y209928D01*
X821555Y209814D01*
X822131Y209928D01*
X822620Y210255D01*
X822946Y210743D01*
X823060Y211319D01*
X822946Y211895D01*
X822620Y212383D01*
X822131Y212710D01*
X821555Y212824D01*
D02*
G37*
G36*
X764272Y199537D02*
X763696Y199422D01*
X763207Y199096D01*
X762881Y198608D01*
X762766Y198031D01*
X762881Y197455D01*
X763207Y196967D01*
X763696Y196641D01*
X764272Y196526D01*
X764848Y196641D01*
X765336Y196967D01*
X765662Y197455D01*
X765777Y198031D01*
X765662Y198608D01*
X765336Y199096D01*
X764848Y199422D01*
X764272Y199537D01*
D02*
G37*
G36*
X816240Y199340D02*
X815664Y199225D01*
X815176Y198899D01*
X814849Y198411D01*
X814735Y197835D01*
X814849Y197259D01*
X815176Y196770D01*
X815664Y196444D01*
X816240Y196329D01*
X816816Y196444D01*
X817305Y196770D01*
X817631Y197259D01*
X817745Y197835D01*
X817631Y198411D01*
X817305Y198899D01*
X816816Y199225D01*
X816240Y199340D01*
D02*
G37*
G36*
X680028Y191981D02*
Y190657D01*
X681351D01*
X681304Y190893D01*
X680887Y191517D01*
X680263Y191934D01*
X680028Y191981D01*
D02*
G37*
G36*
X679028D02*
X678792Y191934D01*
X678168Y191517D01*
X677751Y190893D01*
X677704Y190657D01*
X679028D01*
Y191981D01*
D02*
G37*
G36*
X531988Y234281D02*
X531412Y234166D01*
X530924Y233840D01*
X530597Y233352D01*
X530483Y232776D01*
X530597Y232200D01*
X530924Y231711D01*
X531412Y231385D01*
X531988Y231270D01*
X532564Y231385D01*
X533053Y231711D01*
X533379Y232200D01*
X533494Y232776D01*
X533379Y233352D01*
X533053Y233840D01*
X532564Y234166D01*
X531988Y234281D01*
D02*
G37*
G36*
X584941Y222076D02*
X584365Y221962D01*
X583877Y221635D01*
X583550Y221147D01*
X583436Y220571D01*
X583550Y219995D01*
X583877Y219507D01*
X584365Y219180D01*
X584941Y219066D01*
X585517Y219180D01*
X586005Y219507D01*
X586332Y219995D01*
X586446Y220571D01*
X586332Y221147D01*
X586005Y221635D01*
X585517Y221962D01*
X584941Y222076D01*
D02*
G37*
G36*
X640158Y221879D02*
X639581Y221765D01*
X639093Y221438D01*
X638767Y220950D01*
X638652Y220374D01*
X638767Y219798D01*
X639093Y219310D01*
X639581Y218983D01*
X640158Y218869D01*
X640733Y218983D01*
X641222Y219310D01*
X641548Y219798D01*
X641663Y220374D01*
X641548Y220950D01*
X641222Y221438D01*
X640733Y221765D01*
X640158Y221879D01*
D02*
G37*
G36*
X486327Y216784D02*
Y215461D01*
X487650D01*
X487603Y215696D01*
X487186Y216320D01*
X486563Y216737D01*
X486327Y216784D01*
D02*
G37*
G36*
X606299Y215573D02*
X605631Y215485D01*
X605009Y215227D01*
X604474Y214817D01*
X604123Y214359D01*
X603839Y214317D01*
X603554Y214359D01*
X603203Y214817D01*
X602669Y215227D01*
X602046Y215485D01*
X601378Y215573D01*
X600710Y215485D01*
X600087Y215227D01*
X599553Y214817D01*
X599143Y214283D01*
X598885Y213660D01*
X598797Y212992D01*
X598885Y212324D01*
X599143Y211702D01*
X599553Y211167D01*
X600087Y210757D01*
X600710Y210499D01*
X601378Y210411D01*
X602046Y210499D01*
X602669Y210757D01*
X603203Y211167D01*
X603554Y211625D01*
X603839Y211668D01*
X604123Y211625D01*
X604474Y211167D01*
X605009Y210757D01*
X605631Y210499D01*
X606299Y210411D01*
X606967Y210499D01*
X607590Y210757D01*
X608124Y211167D01*
X608534Y211702D01*
X608792Y212324D01*
X608880Y212992D01*
X608792Y213660D01*
X608534Y214283D01*
X608124Y214817D01*
X607590Y215227D01*
X606967Y215485D01*
X606299Y215573D01*
D02*
G37*
G36*
X487650Y214461D02*
X486327D01*
Y213137D01*
X486563Y213184D01*
X487186Y213601D01*
X487603Y214225D01*
X487650Y214461D01*
D02*
G37*
G36*
X583268Y199340D02*
X582692Y199225D01*
X582203Y198899D01*
X581877Y198411D01*
X581762Y197835D01*
X581877Y197259D01*
X582203Y196770D01*
X582692Y196444D01*
X583268Y196329D01*
X583844Y196444D01*
X584332Y196770D01*
X584658Y197259D01*
X584773Y197835D01*
X584658Y198411D01*
X584332Y198899D01*
X583844Y199225D01*
X583268Y199340D01*
D02*
G37*
G36*
X635138Y199340D02*
X634562Y199225D01*
X634073Y198899D01*
X633747Y198411D01*
X633633Y197835D01*
X633747Y197259D01*
X634073Y196770D01*
X634562Y196444D01*
X635138Y196329D01*
X635714Y196444D01*
X636202Y196770D01*
X636528Y197259D01*
X636643Y197835D01*
X636528Y198411D01*
X636202Y198899D01*
X635714Y199225D01*
X635138Y199340D01*
D02*
G37*
G36*
X498925Y191981D02*
Y190657D01*
X500248D01*
X500202Y190893D01*
X499785Y191517D01*
X499161Y191934D01*
X498925Y191981D01*
D02*
G37*
G36*
X497925D02*
X497689Y191934D01*
X497066Y191517D01*
X496649Y190893D01*
X496602Y190657D01*
X497925D01*
Y191981D01*
D02*
G37*
G36*
X350787Y234576D02*
X350211Y234462D01*
X349723Y234135D01*
X349397Y233647D01*
X349282Y233071D01*
X349397Y232495D01*
X349723Y232007D01*
X350211Y231680D01*
X350787Y231566D01*
X351363Y231680D01*
X351852Y232007D01*
X352178Y232495D01*
X352293Y233071D01*
X352178Y233647D01*
X351852Y234135D01*
X351363Y234462D01*
X350787Y234576D01*
D02*
G37*
G36*
X403937Y225521D02*
X403361Y225407D01*
X402873Y225080D01*
X402546Y224592D01*
X402432Y224016D01*
X402546Y223440D01*
X402873Y222951D01*
X403361Y222625D01*
X403937Y222511D01*
X404513Y222625D01*
X405001Y222951D01*
X405328Y223440D01*
X405442Y224016D01*
X405328Y224592D01*
X405001Y225080D01*
X404513Y225407D01*
X403937Y225521D01*
D02*
G37*
G36*
X458957Y225226D02*
X458381Y225111D01*
X457892Y224785D01*
X457566Y224296D01*
X457451Y223721D01*
X457566Y223144D01*
X457892Y222656D01*
X458381Y222330D01*
X458957Y222215D01*
X459533Y222330D01*
X460021Y222656D01*
X460347Y223144D01*
X460462Y223721D01*
X460347Y224296D01*
X460021Y224785D01*
X459533Y225111D01*
X458957Y225226D01*
D02*
G37*
G36*
X305224Y216784D02*
Y215461D01*
X306548D01*
X306501Y215696D01*
X306084Y216320D01*
X305460Y216737D01*
X305224Y216784D01*
D02*
G37*
G36*
X425197Y215573D02*
X424529Y215485D01*
X423906Y215227D01*
X423372Y214817D01*
X423020Y214359D01*
X422736Y214317D01*
X422452Y214359D01*
X422101Y214817D01*
X421566Y215227D01*
X420944Y215485D01*
X420276Y215573D01*
X419607Y215485D01*
X418985Y215227D01*
X418450Y214817D01*
X418040Y214283D01*
X417782Y213660D01*
X417694Y212992D01*
X417782Y212324D01*
X418040Y211702D01*
X418450Y211167D01*
X418985Y210757D01*
X419607Y210499D01*
X420276Y210411D01*
X420944Y210499D01*
X421566Y210757D01*
X422101Y211167D01*
X422452Y211625D01*
X422736Y211668D01*
X423020Y211625D01*
X423372Y211167D01*
X423906Y210757D01*
X424529Y210499D01*
X425197Y210411D01*
X425865Y210499D01*
X426487Y210757D01*
X427022Y211167D01*
X427432Y211702D01*
X427690Y212324D01*
X427778Y212992D01*
X427690Y213660D01*
X427432Y214283D01*
X427022Y214817D01*
X426487Y215227D01*
X425865Y215485D01*
X425197Y215573D01*
D02*
G37*
G36*
X306548Y214461D02*
X305224D01*
Y213137D01*
X305460Y213184D01*
X306084Y213601D01*
X306501Y214225D01*
X306548Y214461D01*
D02*
G37*
G36*
X402264Y199340D02*
X401688Y199225D01*
X401199Y198899D01*
X400873Y198411D01*
X400759Y197835D01*
X400873Y197259D01*
X401199Y196770D01*
X401688Y196444D01*
X402264Y196329D01*
X402840Y196444D01*
X403328Y196770D01*
X403654Y197259D01*
X403769Y197835D01*
X403654Y198411D01*
X403328Y198899D01*
X402840Y199225D01*
X402264Y199340D01*
D02*
G37*
G36*
X454035Y199340D02*
X453459Y199225D01*
X452971Y198899D01*
X452645Y198411D01*
X452530Y197835D01*
X452645Y197259D01*
X452971Y196770D01*
X453459Y196444D01*
X454035Y196329D01*
X454611Y196444D01*
X455100Y196770D01*
X455426Y197259D01*
X455541Y197835D01*
X455426Y198411D01*
X455100Y198899D01*
X454611Y199225D01*
X454035Y199340D01*
D02*
G37*
G36*
X317823Y191981D02*
Y190657D01*
X319146D01*
X319099Y190893D01*
X318682Y191517D01*
X318059Y191934D01*
X317823Y191981D01*
D02*
G37*
G36*
X316823D02*
X316587Y191934D01*
X315963Y191517D01*
X315546Y190893D01*
X315499Y190657D01*
X316823D01*
Y191981D01*
D02*
G37*
G36*
X169685Y234379D02*
X169109Y234265D01*
X168621Y233938D01*
X168294Y233450D01*
X168180Y232874D01*
X168294Y232298D01*
X168621Y231810D01*
X169109Y231483D01*
X169685Y231369D01*
X170261Y231483D01*
X170749Y231810D01*
X171076Y232298D01*
X171190Y232874D01*
X171076Y233450D01*
X170749Y233938D01*
X170261Y234265D01*
X169685Y234379D01*
D02*
G37*
G36*
X222835Y231623D02*
X222259Y231509D01*
X221770Y231183D01*
X221444Y230694D01*
X221329Y230118D01*
X221444Y229542D01*
X221770Y229054D01*
X222259Y228727D01*
X222835Y228613D01*
X223411Y228727D01*
X223899Y229054D01*
X224225Y229542D01*
X224340Y230118D01*
X224225Y230694D01*
X223899Y231183D01*
X223411Y231509D01*
X222835Y231623D01*
D02*
G37*
G36*
X124122Y216784D02*
Y215461D01*
X125445D01*
X125399Y215696D01*
X124982Y216320D01*
X124358Y216737D01*
X124122Y216784D01*
D02*
G37*
G36*
X244094Y215573D02*
X243426Y215485D01*
X242804Y215227D01*
X242269Y214817D01*
X241918Y214359D01*
X241634Y214317D01*
X241350Y214359D01*
X240998Y214817D01*
X240464Y215227D01*
X239841Y215485D01*
X239173Y215573D01*
X238505Y215485D01*
X237883Y215227D01*
X237348Y214817D01*
X236938Y214283D01*
X236680Y213660D01*
X236592Y212992D01*
X236680Y212324D01*
X236938Y211702D01*
X237348Y211167D01*
X237883Y210757D01*
X238505Y210499D01*
X239173Y210411D01*
X239841Y210499D01*
X240464Y210757D01*
X240998Y211167D01*
X241350Y211625D01*
X241634Y211668D01*
X241918Y211625D01*
X242269Y211167D01*
X242804Y210757D01*
X243426Y210499D01*
X244094Y210411D01*
X244762Y210499D01*
X245385Y210757D01*
X245920Y211167D01*
X246330Y211702D01*
X246588Y212324D01*
X246676Y212992D01*
X246588Y213660D01*
X246330Y214283D01*
X245920Y214817D01*
X245385Y215227D01*
X244762Y215485D01*
X244094Y215573D01*
D02*
G37*
G36*
X125445Y214461D02*
X124122D01*
Y213137D01*
X124358Y213184D01*
X124982Y213601D01*
X125399Y214225D01*
X125445Y214461D01*
D02*
G37*
G36*
X221260Y199340D02*
X220684Y199225D01*
X220195Y198899D01*
X219869Y198411D01*
X219755Y197835D01*
X219869Y197259D01*
X220195Y196770D01*
X220684Y196444D01*
X221260Y196329D01*
X221836Y196444D01*
X222324Y196770D01*
X222651Y197259D01*
X222765Y197835D01*
X222651Y198411D01*
X222324Y198899D01*
X221836Y199225D01*
X221260Y199340D01*
D02*
G37*
G36*
X272933Y199340D02*
X272357Y199225D01*
X271869Y198899D01*
X271542Y198411D01*
X271428Y197835D01*
X271542Y197259D01*
X271869Y196770D01*
X272357Y196444D01*
X272933Y196329D01*
X273509Y196444D01*
X273997Y196770D01*
X274324Y197259D01*
X274438Y197835D01*
X274324Y198411D01*
X273997Y198899D01*
X273509Y199225D01*
X272933Y199340D01*
D02*
G37*
G36*
X136721Y191981D02*
Y190657D01*
X138044D01*
X137997Y190893D01*
X137580Y191517D01*
X136956Y191934D01*
X136721Y191981D01*
D02*
G37*
G36*
X135721D02*
X135485Y191934D01*
X134861Y191517D01*
X134444Y190893D01*
X134397Y190657D01*
X135721D01*
Y191981D01*
D02*
G37*
G36*
X1525839Y161705D02*
X1524516D01*
Y160381D01*
X1524752Y160428D01*
X1525375Y160845D01*
X1525792Y161469D01*
X1525839Y161705D01*
D02*
G37*
G36*
X1523516D02*
X1522192D01*
X1522239Y161469D01*
X1522656Y160845D01*
X1523280Y160428D01*
X1523516Y160381D01*
Y161705D01*
D02*
G37*
G36*
X1451378Y158395D02*
X1450802Y158281D01*
X1450314Y157954D01*
X1450141Y157696D01*
X1447103D01*
X1446931Y157954D01*
X1446442Y158281D01*
X1445866Y158395D01*
X1445290Y158281D01*
X1444802Y157954D01*
X1444475Y157466D01*
X1444361Y156890D01*
X1444475Y156314D01*
X1444802Y155825D01*
X1445290Y155499D01*
X1445866Y155385D01*
X1446442Y155499D01*
X1446931Y155825D01*
X1447103Y156084D01*
X1450141D01*
X1450314Y155825D01*
X1450802Y155499D01*
X1451378Y155385D01*
X1451954Y155499D01*
X1452442Y155825D01*
X1452769Y156314D01*
X1452883Y156890D01*
X1452769Y157466D01*
X1452442Y157954D01*
X1451954Y158281D01*
X1451378Y158395D01*
D02*
G37*
G36*
X1387303Y156033D02*
X1386727Y155918D01*
X1386239Y155592D01*
X1385912Y155104D01*
X1385798Y154528D01*
X1385912Y153952D01*
X1386239Y153463D01*
X1386727Y153137D01*
X1387303Y153022D01*
X1387879Y153137D01*
X1388367Y153463D01*
X1388694Y153952D01*
X1388808Y154528D01*
X1388694Y155104D01*
X1388367Y155592D01*
X1387879Y155918D01*
X1387303Y156033D01*
D02*
G37*
G36*
X1448327Y143828D02*
X1447751Y143713D01*
X1447262Y143387D01*
X1446936Y142899D01*
X1446821Y142323D01*
X1446936Y141747D01*
X1447262Y141258D01*
X1447751Y140932D01*
X1448327Y140817D01*
X1448903Y140932D01*
X1449391Y141258D01*
X1449718Y141747D01*
X1449832Y142323D01*
X1449718Y142899D01*
X1449391Y143387D01*
X1448903Y143713D01*
X1448327Y143828D01*
D02*
G37*
G36*
X1421063Y141951D02*
X1420395Y141863D01*
X1419772Y141605D01*
X1419238Y141195D01*
X1418886Y140737D01*
X1418602Y140695D01*
X1418318Y140737D01*
X1417967Y141195D01*
X1417432Y141605D01*
X1416810Y141863D01*
X1416142Y141951D01*
X1415474Y141863D01*
X1414851Y141605D01*
X1414317Y141195D01*
X1413906Y140661D01*
X1413649Y140038D01*
X1413561Y139370D01*
X1413649Y138702D01*
X1413906Y138080D01*
X1414317Y137545D01*
X1414851Y137135D01*
X1415474Y136877D01*
X1416142Y136789D01*
X1416810Y136877D01*
X1417432Y137135D01*
X1417967Y137545D01*
X1418318Y138003D01*
X1418602Y138046D01*
X1418886Y138003D01*
X1419238Y137545D01*
X1419772Y137135D01*
X1420395Y136877D01*
X1421063Y136789D01*
X1421731Y136877D01*
X1422354Y137135D01*
X1422888Y137545D01*
X1423298Y138080D01*
X1423556Y138702D01*
X1423644Y139370D01*
X1423556Y140038D01*
X1423298Y140661D01*
X1422888Y141195D01*
X1422354Y141605D01*
X1421731Y141863D01*
X1421063Y141951D01*
D02*
G37*
G36*
X1536114Y139225D02*
X1535878Y139178D01*
X1535255Y138761D01*
X1534838Y138137D01*
X1534791Y137902D01*
X1536114D01*
Y139225D01*
D02*
G37*
G36*
Y136902D02*
X1534791D01*
X1534838Y136666D01*
X1535255Y136042D01*
X1535878Y135625D01*
X1536114Y135578D01*
Y136902D01*
D02*
G37*
G36*
X1488976Y138316D02*
X1488400Y138202D01*
X1487912Y137875D01*
X1487586Y137387D01*
X1487471Y136811D01*
X1487586Y136235D01*
X1487912Y135747D01*
X1488400Y135420D01*
X1488976Y135306D01*
X1489552Y135420D01*
X1490041Y135747D01*
X1490367Y136235D01*
X1490482Y136811D01*
X1490367Y137387D01*
X1490041Y137875D01*
X1489552Y138202D01*
X1488976Y138316D01*
D02*
G37*
G36*
X1471555Y126801D02*
X1470979Y126686D01*
X1470491Y126360D01*
X1470164Y125871D01*
X1470050Y125295D01*
X1470164Y124719D01*
X1470491Y124231D01*
X1470979Y123905D01*
X1471555Y123790D01*
X1472131Y123905D01*
X1472620Y124231D01*
X1472946Y124719D01*
X1473060Y125295D01*
X1472946Y125871D01*
X1472620Y126360D01*
X1472131Y126686D01*
X1471555Y126801D01*
D02*
G37*
G36*
X1490453Y120993D02*
X1489877Y120879D01*
X1489388Y120553D01*
X1489062Y120064D01*
X1488947Y119488D01*
X1489062Y118912D01*
X1489388Y118424D01*
X1489877Y118097D01*
X1490453Y117983D01*
X1491029Y118097D01*
X1491517Y118424D01*
X1491844Y118912D01*
X1491958Y119488D01*
X1491844Y120064D01*
X1491517Y120553D01*
X1491029Y120879D01*
X1490453Y120993D01*
D02*
G37*
G36*
X1344737Y161705D02*
X1343413D01*
Y160381D01*
X1343649Y160428D01*
X1344273Y160845D01*
X1344690Y161469D01*
X1344737Y161705D01*
D02*
G37*
G36*
X1342413D02*
X1341090D01*
X1341137Y161469D01*
X1341554Y160845D01*
X1342178Y160428D01*
X1342413Y160381D01*
Y161705D01*
D02*
G37*
G36*
X1201181Y162045D02*
X1200605Y161930D01*
X1200117Y161604D01*
X1199790Y161115D01*
X1199676Y160539D01*
X1199790Y159963D01*
X1200117Y159475D01*
X1200605Y159149D01*
X1201181Y159034D01*
X1201757Y159149D01*
X1202246Y159475D01*
X1202572Y159963D01*
X1202686Y160539D01*
X1202572Y161115D01*
X1202246Y161604D01*
X1201757Y161930D01*
X1201181Y162045D01*
D02*
G37*
G36*
X1206201Y156033D02*
X1205625Y155918D01*
X1205136Y155592D01*
X1204810Y155104D01*
X1204696Y154528D01*
X1204810Y153952D01*
X1205136Y153463D01*
X1205625Y153137D01*
X1206201Y153022D01*
X1206777Y153137D01*
X1207265Y153463D01*
X1207592Y153952D01*
X1207706Y154528D01*
X1207592Y155104D01*
X1207265Y155592D01*
X1206777Y155918D01*
X1206201Y156033D01*
D02*
G37*
G36*
X1257874Y156033D02*
X1257298Y155918D01*
X1256810Y155592D01*
X1256483Y155104D01*
X1256369Y154527D01*
X1256483Y153952D01*
X1256810Y153463D01*
X1257298Y153137D01*
X1257874Y153022D01*
X1258450Y153137D01*
X1258938Y153463D01*
X1259265Y153952D01*
X1259379Y154527D01*
X1259265Y155104D01*
X1258938Y155592D01*
X1258450Y155918D01*
X1257874Y156033D01*
D02*
G37*
G36*
X1307480Y145501D02*
X1306904Y145387D01*
X1306416Y145061D01*
X1306090Y144572D01*
X1305975Y143996D01*
X1306090Y143420D01*
X1306416Y142932D01*
X1306904Y142605D01*
X1307480Y142491D01*
X1308056Y142605D01*
X1308545Y142932D01*
X1308871Y143420D01*
X1308986Y143996D01*
X1308871Y144572D01*
X1308545Y145061D01*
X1308056Y145387D01*
X1307480Y145501D01*
D02*
G37*
G36*
X1239961Y141951D02*
X1239293Y141863D01*
X1238670Y141605D01*
X1238136Y141195D01*
X1237784Y140737D01*
X1237500Y140695D01*
X1237216Y140737D01*
X1236864Y141195D01*
X1236330Y141605D01*
X1235707Y141863D01*
X1235039Y141951D01*
X1234371Y141863D01*
X1233749Y141605D01*
X1233214Y141195D01*
X1232804Y140661D01*
X1232546Y140038D01*
X1232458Y139370D01*
X1232546Y138702D01*
X1232804Y138080D01*
X1233214Y137545D01*
X1233749Y137135D01*
X1234371Y136877D01*
X1235039Y136789D01*
X1235707Y136877D01*
X1236330Y137135D01*
X1236864Y137545D01*
X1237216Y138003D01*
X1237500Y138046D01*
X1237784Y138003D01*
X1238136Y137545D01*
X1238670Y137135D01*
X1239293Y136877D01*
X1239961Y136789D01*
X1240629Y136877D01*
X1241251Y137135D01*
X1241786Y137545D01*
X1242196Y138080D01*
X1242454Y138702D01*
X1242542Y139370D01*
X1242454Y140038D01*
X1242196Y140661D01*
X1241786Y141195D01*
X1241251Y141605D01*
X1240629Y141863D01*
X1239961Y141951D01*
D02*
G37*
G36*
X1355012Y139225D02*
X1354776Y139178D01*
X1354152Y138761D01*
X1353735Y138137D01*
X1353689Y137902D01*
X1355012D01*
Y139225D01*
D02*
G37*
G36*
Y136902D02*
X1353689D01*
X1353735Y136666D01*
X1354152Y136042D01*
X1354776Y135625D01*
X1355012Y135578D01*
Y136902D01*
D02*
G37*
G36*
X1309449Y121092D02*
X1308873Y120977D01*
X1308384Y120651D01*
X1308058Y120163D01*
X1307944Y119587D01*
X1308058Y119011D01*
X1308384Y118522D01*
X1308873Y118196D01*
X1309449Y118081D01*
X1310025Y118196D01*
X1310513Y118522D01*
X1310839Y119011D01*
X1310954Y119587D01*
X1310839Y120163D01*
X1310513Y120651D01*
X1310025Y120977D01*
X1309449Y121092D01*
D02*
G37*
G36*
X1163634Y161705D02*
X1162311D01*
Y160381D01*
X1162547Y160428D01*
X1163171Y160845D01*
X1163587Y161469D01*
X1163634Y161705D01*
D02*
G37*
G36*
X1161311D02*
X1159988D01*
X1160035Y161469D01*
X1160451Y160845D01*
X1161075Y160428D01*
X1161311Y160381D01*
Y161705D01*
D02*
G37*
G36*
X1020079Y161938D02*
X1019503Y161824D01*
X1019014Y161497D01*
X1018688Y161009D01*
X1018573Y160433D01*
X1018688Y159857D01*
X1019014Y159369D01*
X1019503Y159042D01*
X1020079Y158928D01*
X1020655Y159042D01*
X1021143Y159369D01*
X1021469Y159857D01*
X1021584Y160433D01*
X1021469Y161009D01*
X1021143Y161497D01*
X1020655Y161824D01*
X1020079Y161938D01*
D02*
G37*
G36*
X1025098Y156033D02*
X1024522Y155918D01*
X1024034Y155592D01*
X1023708Y155104D01*
X1023593Y154528D01*
X1023708Y153952D01*
X1024034Y153463D01*
X1024522Y153137D01*
X1025098Y153022D01*
X1025675Y153137D01*
X1026163Y153463D01*
X1026489Y153952D01*
X1026604Y154528D01*
X1026489Y155104D01*
X1026163Y155592D01*
X1025675Y155918D01*
X1025098Y156033D01*
D02*
G37*
G36*
X1076772Y155934D02*
X1076196Y155820D01*
X1075707Y155493D01*
X1075381Y155005D01*
X1075266Y154429D01*
X1075381Y153853D01*
X1075707Y153365D01*
X1076196Y153038D01*
X1076772Y152924D01*
X1077348Y153038D01*
X1077836Y153365D01*
X1078162Y153853D01*
X1078277Y154429D01*
X1078162Y155005D01*
X1077836Y155493D01*
X1077348Y155820D01*
X1076772Y155934D01*
D02*
G37*
G36*
X1126575Y146683D02*
X1125999Y146568D01*
X1125510Y146242D01*
X1125184Y145753D01*
X1125070Y145177D01*
X1125184Y144601D01*
X1125510Y144113D01*
X1125999Y143787D01*
X1126575Y143672D01*
X1127151Y143787D01*
X1127639Y144113D01*
X1127966Y144601D01*
X1128080Y145177D01*
X1127966Y145753D01*
X1127639Y146242D01*
X1127151Y146568D01*
X1126575Y146683D01*
D02*
G37*
G36*
X1058858Y141951D02*
X1058190Y141863D01*
X1057568Y141605D01*
X1057033Y141195D01*
X1056682Y140737D01*
X1056398Y140695D01*
X1056114Y140737D01*
X1055762Y141195D01*
X1055228Y141605D01*
X1054605Y141863D01*
X1053937Y141951D01*
X1053269Y141863D01*
X1052646Y141605D01*
X1052112Y141195D01*
X1051702Y140661D01*
X1051444Y140038D01*
X1051356Y139370D01*
X1051444Y138702D01*
X1051702Y138080D01*
X1052112Y137545D01*
X1052646Y137135D01*
X1053269Y136877D01*
X1053937Y136789D01*
X1054605Y136877D01*
X1055228Y137135D01*
X1055762Y137545D01*
X1056114Y138003D01*
X1056398Y138046D01*
X1056682Y138003D01*
X1057033Y137545D01*
X1057568Y137135D01*
X1058190Y136877D01*
X1058858Y136789D01*
X1059526Y136877D01*
X1060149Y137135D01*
X1060683Y137545D01*
X1061094Y138080D01*
X1061351Y138702D01*
X1061439Y139370D01*
X1061351Y140038D01*
X1061094Y140661D01*
X1060683Y141195D01*
X1060149Y141605D01*
X1059526Y141863D01*
X1058858Y141951D01*
D02*
G37*
G36*
X1173909Y139225D02*
X1173674Y139178D01*
X1173050Y138761D01*
X1172633Y138137D01*
X1172586Y137902D01*
X1173909D01*
Y139225D01*
D02*
G37*
G36*
Y136902D02*
X1172586D01*
X1172633Y136666D01*
X1173050Y136042D01*
X1173674Y135625D01*
X1173909Y135578D01*
Y136902D01*
D02*
G37*
G36*
X1128248Y120993D02*
X1127672Y120879D01*
X1127184Y120553D01*
X1126857Y120064D01*
X1126743Y119488D01*
X1126857Y118912D01*
X1127184Y118424D01*
X1127672Y118097D01*
X1128248Y117983D01*
X1128824Y118097D01*
X1129312Y118424D01*
X1129639Y118912D01*
X1129753Y119488D01*
X1129639Y120064D01*
X1129312Y120553D01*
X1128824Y120879D01*
X1128248Y120993D01*
D02*
G37*
G36*
X982532Y161705D02*
X981209D01*
Y160381D01*
X981444Y160428D01*
X982068Y160845D01*
X982485Y161469D01*
X982532Y161705D01*
D02*
G37*
G36*
X980209D02*
X978885D01*
X978932Y161469D01*
X979349Y160845D01*
X979973Y160428D01*
X980209Y160381D01*
Y161705D01*
D02*
G37*
G36*
X838976Y162045D02*
X838400Y161930D01*
X837912Y161604D01*
X837586Y161115D01*
X837471Y160539D01*
X837586Y159963D01*
X837912Y159475D01*
X838400Y159149D01*
X838976Y159034D01*
X839552Y159149D01*
X840041Y159475D01*
X840367Y159963D01*
X840482Y160539D01*
X840367Y161115D01*
X840041Y161604D01*
X839552Y161930D01*
X838976Y162045D01*
D02*
G37*
G36*
X843996Y156033D02*
X843420Y155918D01*
X842932Y155592D01*
X842605Y155104D01*
X842491Y154528D01*
X842605Y153952D01*
X842932Y153463D01*
X843420Y153137D01*
X843996Y153022D01*
X844572Y153137D01*
X845061Y153463D01*
X845387Y153952D01*
X845501Y154528D01*
X845387Y155104D01*
X845061Y155592D01*
X844572Y155918D01*
X843996Y156033D01*
D02*
G37*
G36*
X895669Y156033D02*
X895093Y155918D01*
X894605Y155592D01*
X894279Y155104D01*
X894164Y154527D01*
X894279Y153952D01*
X894605Y153463D01*
X895093Y153137D01*
X895669Y153022D01*
X896245Y153137D01*
X896734Y153463D01*
X897060Y153952D01*
X897175Y154527D01*
X897060Y155104D01*
X896734Y155592D01*
X896245Y155918D01*
X895669Y156033D01*
D02*
G37*
G36*
X945472Y148257D02*
X944896Y148143D01*
X944408Y147816D01*
X944082Y147328D01*
X943967Y146752D01*
X944082Y146176D01*
X944408Y145688D01*
X944896Y145361D01*
X945472Y145247D01*
X946049Y145361D01*
X946537Y145688D01*
X946863Y146176D01*
X946978Y146752D01*
X946863Y147328D01*
X946537Y147816D01*
X946049Y148143D01*
X945472Y148257D01*
D02*
G37*
G36*
X877756Y141951D02*
X877088Y141863D01*
X876465Y141605D01*
X875931Y141195D01*
X875579Y140737D01*
X875295Y140695D01*
X875011Y140737D01*
X874660Y141195D01*
X874125Y141605D01*
X873503Y141863D01*
X872835Y141951D01*
X872167Y141863D01*
X871544Y141605D01*
X871010Y141195D01*
X870599Y140661D01*
X870341Y140038D01*
X870253Y139370D01*
X870341Y138702D01*
X870599Y138080D01*
X871010Y137545D01*
X871544Y137135D01*
X872167Y136877D01*
X872835Y136789D01*
X873503Y136877D01*
X874125Y137135D01*
X874660Y137545D01*
X875011Y138003D01*
X875295Y138046D01*
X875579Y138003D01*
X875931Y137545D01*
X876465Y137135D01*
X877088Y136877D01*
X877756Y136789D01*
X878424Y136877D01*
X879047Y137135D01*
X879581Y137545D01*
X879991Y138080D01*
X880249Y138702D01*
X880337Y139370D01*
X880249Y140038D01*
X879991Y140661D01*
X879581Y141195D01*
X879047Y141605D01*
X878424Y141863D01*
X877756Y141951D01*
D02*
G37*
G36*
X992807Y139225D02*
X992571Y139178D01*
X991947Y138761D01*
X991531Y138137D01*
X991484Y137902D01*
X992807D01*
Y139225D01*
D02*
G37*
G36*
Y136902D02*
X991484D01*
X991531Y136666D01*
X991947Y136042D01*
X992571Y135625D01*
X992807Y135578D01*
Y136902D01*
D02*
G37*
G36*
X947244Y120993D02*
X946668Y120879D01*
X946180Y120553D01*
X945853Y120064D01*
X945739Y119488D01*
X945853Y118912D01*
X946180Y118424D01*
X946668Y118097D01*
X947244Y117983D01*
X947820Y118097D01*
X948308Y118424D01*
X948635Y118912D01*
X948749Y119488D01*
X948635Y120064D01*
X948308Y120553D01*
X947820Y120879D01*
X947244Y120993D01*
D02*
G37*
G36*
X801430Y161705D02*
X800106D01*
Y160381D01*
X800342Y160428D01*
X800966Y160845D01*
X801383Y161469D01*
X801430Y161705D01*
D02*
G37*
G36*
X799106D02*
X797783D01*
X797830Y161469D01*
X798247Y160845D01*
X798871Y160428D01*
X799106Y160381D01*
Y161705D01*
D02*
G37*
G36*
X657874Y162135D02*
X657298Y162021D01*
X656810Y161694D01*
X656483Y161206D01*
X656369Y160630D01*
X656483Y160054D01*
X656810Y159565D01*
X657298Y159239D01*
X657874Y159125D01*
X658450Y159239D01*
X658938Y159565D01*
X659265Y160054D01*
X659379Y160630D01*
X659265Y161206D01*
X658938Y161694D01*
X658450Y162021D01*
X657874Y162135D01*
D02*
G37*
G36*
X662894Y156033D02*
X662318Y155918D01*
X661829Y155592D01*
X661503Y155104D01*
X661388Y154528D01*
X661503Y153952D01*
X661829Y153463D01*
X662318Y153137D01*
X662894Y153022D01*
X663470Y153137D01*
X663958Y153463D01*
X664284Y153952D01*
X664399Y154528D01*
X664284Y155104D01*
X663958Y155592D01*
X663470Y155918D01*
X662894Y156033D01*
D02*
G37*
G36*
X714468Y155836D02*
X713893Y155721D01*
X713404Y155395D01*
X713078Y154907D01*
X712963Y154331D01*
X713078Y153755D01*
X713404Y153266D01*
X713893Y152940D01*
X714468Y152825D01*
X715044Y152940D01*
X715533Y153266D01*
X715859Y153755D01*
X715974Y154331D01*
X715859Y154907D01*
X715533Y155395D01*
X715044Y155721D01*
X714468Y155836D01*
D02*
G37*
G36*
X764272Y149832D02*
X763696Y149717D01*
X763207Y149391D01*
X762881Y148903D01*
X762766Y148327D01*
X762881Y147751D01*
X763207Y147262D01*
X763696Y146936D01*
X764272Y146821D01*
X764848Y146936D01*
X765336Y147262D01*
X765662Y147751D01*
X765777Y148327D01*
X765662Y148903D01*
X765336Y149391D01*
X764848Y149717D01*
X764272Y149832D01*
D02*
G37*
G36*
X696654Y141951D02*
X695986Y141863D01*
X695363Y141605D01*
X694828Y141195D01*
X694477Y140737D01*
X694193Y140695D01*
X693909Y140737D01*
X693557Y141195D01*
X693023Y141605D01*
X692400Y141863D01*
X691732Y141951D01*
X691064Y141863D01*
X690442Y141605D01*
X689907Y141195D01*
X689497Y140661D01*
X689239Y140038D01*
X689151Y139370D01*
X689239Y138702D01*
X689497Y138080D01*
X689907Y137545D01*
X690442Y137135D01*
X691064Y136877D01*
X691732Y136789D01*
X692400Y136877D01*
X693023Y137135D01*
X693557Y137545D01*
X693909Y138003D01*
X694193Y138046D01*
X694477Y138003D01*
X694828Y137545D01*
X695363Y137135D01*
X695986Y136877D01*
X696654Y136789D01*
X697322Y136877D01*
X697944Y137135D01*
X698479Y137545D01*
X698889Y138080D01*
X699147Y138702D01*
X699235Y139370D01*
X699147Y140038D01*
X698889Y140661D01*
X698479Y141195D01*
X697944Y141605D01*
X697322Y141863D01*
X696654Y141951D01*
D02*
G37*
G36*
X811705Y139225D02*
X811469Y139178D01*
X810845Y138761D01*
X810428Y138137D01*
X810381Y137902D01*
X811705D01*
Y139225D01*
D02*
G37*
G36*
Y136902D02*
X810381D01*
X810428Y136666D01*
X810845Y136042D01*
X811469Y135625D01*
X811705Y135578D01*
Y136902D01*
D02*
G37*
G36*
X766043Y121289D02*
X765467Y121174D01*
X764979Y120848D01*
X764653Y120360D01*
X764538Y119783D01*
X764653Y119207D01*
X764979Y118719D01*
X765467Y118393D01*
X766043Y118278D01*
X766619Y118393D01*
X767108Y118719D01*
X767434Y119207D01*
X767549Y119783D01*
X767434Y120360D01*
X767108Y120848D01*
X766619Y121174D01*
X766043Y121289D01*
D02*
G37*
G36*
X620327Y161705D02*
X619004D01*
Y160381D01*
X619240Y160428D01*
X619864Y160845D01*
X620280Y161469D01*
X620327Y161705D01*
D02*
G37*
G36*
X618004D02*
X616681D01*
X616727Y161469D01*
X617144Y160845D01*
X617768Y160428D01*
X618004Y160381D01*
Y161705D01*
D02*
G37*
G36*
X476772Y161938D02*
X476196Y161824D01*
X475707Y161497D01*
X475381Y161009D01*
X475266Y160433D01*
X475381Y159857D01*
X475707Y159369D01*
X476196Y159042D01*
X476772Y158928D01*
X477348Y159042D01*
X477836Y159369D01*
X478162Y159857D01*
X478277Y160433D01*
X478162Y161009D01*
X477836Y161497D01*
X477348Y161824D01*
X476772Y161938D01*
D02*
G37*
G36*
X533563Y156033D02*
X532987Y155918D01*
X532499Y155592D01*
X532172Y155104D01*
X532058Y154528D01*
X532172Y153952D01*
X532499Y153463D01*
X532987Y153137D01*
X533563Y153022D01*
X534139Y153137D01*
X534627Y153463D01*
X534954Y153952D01*
X535068Y154528D01*
X534954Y155104D01*
X534627Y155592D01*
X534139Y155918D01*
X533563Y156033D01*
D02*
G37*
G36*
X481791D02*
X481215Y155918D01*
X480727Y155592D01*
X480401Y155104D01*
X480286Y154528D01*
X480401Y153952D01*
X480727Y153463D01*
X481215Y153137D01*
X481791Y153022D01*
X482367Y153137D01*
X482856Y153463D01*
X483182Y153952D01*
X483297Y154528D01*
X483182Y155104D01*
X482856Y155592D01*
X482367Y155918D01*
X481791Y156033D01*
D02*
G37*
G36*
X583071Y151899D02*
X582495Y151784D01*
X582007Y151458D01*
X581680Y150970D01*
X581566Y150394D01*
X581680Y149818D01*
X582007Y149329D01*
X582495Y149003D01*
X583071Y148888D01*
X583647Y149003D01*
X584135Y149329D01*
X584462Y149818D01*
X584576Y150394D01*
X584462Y150970D01*
X584135Y151458D01*
X583647Y151784D01*
X583071Y151899D01*
D02*
G37*
G36*
X515551Y141951D02*
X514883Y141863D01*
X514261Y141605D01*
X513726Y141195D01*
X513375Y140737D01*
X513091Y140695D01*
X512806Y140737D01*
X512455Y141195D01*
X511920Y141605D01*
X511298Y141863D01*
X510630Y141951D01*
X509962Y141863D01*
X509339Y141605D01*
X508805Y141195D01*
X508395Y140661D01*
X508137Y140038D01*
X508049Y139370D01*
X508137Y138702D01*
X508395Y138080D01*
X508805Y137545D01*
X509339Y137135D01*
X509962Y136877D01*
X510630Y136789D01*
X511298Y136877D01*
X511920Y137135D01*
X512455Y137545D01*
X512806Y138003D01*
X513091Y138046D01*
X513375Y138003D01*
X513726Y137545D01*
X514261Y137135D01*
X514883Y136877D01*
X515551Y136789D01*
X516219Y136877D01*
X516842Y137135D01*
X517376Y137545D01*
X517787Y138080D01*
X518044Y138702D01*
X518132Y139370D01*
X518044Y140038D01*
X517787Y140661D01*
X517376Y141195D01*
X516842Y141605D01*
X516219Y141863D01*
X515551Y141951D01*
D02*
G37*
G36*
X630602Y139225D02*
X630367Y139178D01*
X629743Y138761D01*
X629326Y138137D01*
X629279Y137902D01*
X630602D01*
Y139225D01*
D02*
G37*
G36*
Y136902D02*
X629279D01*
X629326Y136666D01*
X629743Y136042D01*
X630367Y135625D01*
X630602Y135578D01*
Y136902D01*
D02*
G37*
G36*
X584941Y121092D02*
X584365Y120977D01*
X583877Y120651D01*
X583550Y120163D01*
X583436Y119587D01*
X583550Y119011D01*
X583877Y118522D01*
X584365Y118196D01*
X584941Y118081D01*
X585517Y118196D01*
X586005Y118522D01*
X586332Y119011D01*
X586446Y119587D01*
X586332Y120163D01*
X586005Y120651D01*
X585517Y120977D01*
X584941Y121092D01*
D02*
G37*
G36*
X439225Y161705D02*
X437902D01*
Y160381D01*
X438137Y160428D01*
X438761Y160845D01*
X439178Y161469D01*
X439225Y161705D01*
D02*
G37*
G36*
X436902D02*
X435578D01*
X435625Y161469D01*
X436042Y160845D01*
X436666Y160428D01*
X436902Y160381D01*
Y161705D01*
D02*
G37*
G36*
X295669Y161938D02*
X295093Y161824D01*
X294605Y161497D01*
X294279Y161009D01*
X294164Y160433D01*
X294279Y159857D01*
X294605Y159369D01*
X295093Y159042D01*
X295669Y158928D01*
X296245Y159042D01*
X296734Y159369D01*
X297060Y159857D01*
X297175Y160433D01*
X297060Y161009D01*
X296734Y161497D01*
X296245Y161824D01*
X295669Y161938D01*
D02*
G37*
G36*
X300689Y156033D02*
X300113Y155918D01*
X299625Y155592D01*
X299298Y155104D01*
X299184Y154528D01*
X299298Y153952D01*
X299625Y153463D01*
X300113Y153137D01*
X300689Y153022D01*
X301265Y153137D01*
X301753Y153463D01*
X302080Y153952D01*
X302194Y154528D01*
X302080Y155104D01*
X301753Y155592D01*
X301265Y155918D01*
X300689Y156033D01*
D02*
G37*
G36*
X352264Y155836D02*
X351688Y155721D01*
X351199Y155395D01*
X350873Y154907D01*
X350759Y154331D01*
X350873Y153755D01*
X351199Y153266D01*
X351688Y152940D01*
X352264Y152825D01*
X352840Y152940D01*
X353328Y153266D01*
X353655Y153755D01*
X353769Y154331D01*
X353655Y154907D01*
X353328Y155395D01*
X352840Y155721D01*
X352264Y155836D01*
D02*
G37*
G36*
X402067Y152686D02*
X401491Y152572D01*
X401003Y152245D01*
X400676Y151757D01*
X400562Y151181D01*
X400676Y150605D01*
X401003Y150117D01*
X401491Y149790D01*
X402067Y149676D01*
X402643Y149790D01*
X403131Y150117D01*
X403458Y150605D01*
X403572Y151181D01*
X403458Y151757D01*
X403131Y152245D01*
X402643Y152572D01*
X402067Y152686D01*
D02*
G37*
G36*
X334449Y141951D02*
X333781Y141863D01*
X333158Y141605D01*
X332624Y141195D01*
X332272Y140737D01*
X331988Y140695D01*
X331704Y140737D01*
X331353Y141195D01*
X330818Y141605D01*
X330196Y141863D01*
X329528Y141951D01*
X328859Y141863D01*
X328237Y141605D01*
X327702Y141195D01*
X327292Y140661D01*
X327034Y140038D01*
X326946Y139370D01*
X327034Y138702D01*
X327292Y138080D01*
X327702Y137545D01*
X328237Y137135D01*
X328859Y136877D01*
X329528Y136789D01*
X330196Y136877D01*
X330818Y137135D01*
X331353Y137545D01*
X331704Y138003D01*
X331988Y138046D01*
X332272Y138003D01*
X332624Y137545D01*
X333158Y137135D01*
X333781Y136877D01*
X334449Y136789D01*
X335117Y136877D01*
X335739Y137135D01*
X336274Y137545D01*
X336684Y138080D01*
X336942Y138702D01*
X337030Y139370D01*
X336942Y140038D01*
X336684Y140661D01*
X336274Y141195D01*
X335739Y141605D01*
X335117Y141863D01*
X334449Y141951D01*
D02*
G37*
G36*
X449500Y139225D02*
X449264Y139178D01*
X448640Y138761D01*
X448224Y138137D01*
X448177Y137902D01*
X449500D01*
Y139225D01*
D02*
G37*
G36*
Y136902D02*
X448177D01*
X448224Y136666D01*
X448640Y136042D01*
X449264Y135625D01*
X449500Y135578D01*
Y136902D01*
D02*
G37*
G36*
X404035Y120895D02*
X403459Y120781D01*
X402971Y120454D01*
X402645Y119966D01*
X402530Y119390D01*
X402645Y118814D01*
X402971Y118325D01*
X403459Y117999D01*
X404035Y117885D01*
X404611Y117999D01*
X405100Y118325D01*
X405426Y118814D01*
X405541Y119390D01*
X405426Y119966D01*
X405100Y120454D01*
X404611Y120781D01*
X404035Y120895D01*
D02*
G37*
G36*
X258122Y161705D02*
X256799D01*
Y160381D01*
X257035Y160428D01*
X257659Y160845D01*
X258076Y161469D01*
X258122Y161705D01*
D02*
G37*
G36*
X255799D02*
X254476D01*
X254523Y161469D01*
X254940Y160845D01*
X255563Y160428D01*
X255799Y160381D01*
Y161705D01*
D02*
G37*
G36*
X114567Y161938D02*
X113991Y161824D01*
X113503Y161497D01*
X113176Y161009D01*
X113062Y160433D01*
X113176Y159857D01*
X113503Y159369D01*
X113991Y159042D01*
X114567Y158928D01*
X115143Y159042D01*
X115631Y159369D01*
X115958Y159857D01*
X116072Y160433D01*
X115958Y161009D01*
X115631Y161497D01*
X115143Y161824D01*
X114567Y161938D01*
D02*
G37*
G36*
X119587Y156033D02*
X119011Y155918D01*
X118522Y155592D01*
X118196Y155104D01*
X118081Y154528D01*
X118196Y153952D01*
X118522Y153463D01*
X119011Y153137D01*
X119587Y153022D01*
X120163Y153137D01*
X120651Y153463D01*
X120977Y153952D01*
X121092Y154528D01*
X120977Y155104D01*
X120651Y155592D01*
X120163Y155918D01*
X119587Y156033D01*
D02*
G37*
G36*
X171260Y155836D02*
X170684Y155721D01*
X170195Y155395D01*
X169869Y154907D01*
X169755Y154331D01*
X169869Y153755D01*
X170195Y153266D01*
X170684Y152940D01*
X171260Y152825D01*
X171836Y152940D01*
X172324Y153266D01*
X172651Y153755D01*
X172765Y154331D01*
X172651Y154907D01*
X172324Y155395D01*
X171836Y155721D01*
X171260Y155836D01*
D02*
G37*
G36*
X221358Y154557D02*
X220782Y154442D01*
X220294Y154116D01*
X219968Y153627D01*
X219853Y153051D01*
X219968Y152475D01*
X220294Y151987D01*
X220782Y151661D01*
X221358Y151546D01*
X221934Y151661D01*
X222423Y151987D01*
X222749Y152475D01*
X222864Y153051D01*
X222749Y153627D01*
X222423Y154116D01*
X221934Y154442D01*
X221358Y154557D01*
D02*
G37*
G36*
X153347Y141951D02*
X152678Y141863D01*
X152056Y141605D01*
X151521Y141195D01*
X151170Y140737D01*
X150886Y140695D01*
X150602Y140737D01*
X150250Y141195D01*
X149716Y141605D01*
X149093Y141863D01*
X148425Y141951D01*
X147757Y141863D01*
X147135Y141605D01*
X146600Y141195D01*
X146190Y140661D01*
X145932Y140038D01*
X145844Y139370D01*
X145932Y138702D01*
X146190Y138080D01*
X146600Y137545D01*
X147135Y137135D01*
X147757Y136877D01*
X148425Y136789D01*
X149093Y136877D01*
X149716Y137135D01*
X150250Y137545D01*
X150602Y138003D01*
X150886Y138046D01*
X151170Y138003D01*
X151521Y137545D01*
X152056Y137135D01*
X152678Y136877D01*
X153347Y136789D01*
X154015Y136877D01*
X154637Y137135D01*
X155172Y137545D01*
X155582Y138080D01*
X155840Y138702D01*
X155928Y139370D01*
X155840Y140038D01*
X155582Y140661D01*
X155172Y141195D01*
X154637Y141605D01*
X154015Y141863D01*
X153347Y141951D01*
D02*
G37*
G36*
X268398Y139225D02*
X268162Y139178D01*
X267538Y138761D01*
X267121Y138137D01*
X267074Y137902D01*
X268398D01*
Y139225D01*
D02*
G37*
G36*
Y136902D02*
X267074D01*
X267121Y136666D01*
X267538Y136042D01*
X268162Y135625D01*
X268398Y135578D01*
Y136902D01*
D02*
G37*
G36*
X222835Y120895D02*
X222259Y120781D01*
X221770Y120454D01*
X221444Y119966D01*
X221329Y119390D01*
X221444Y118814D01*
X221770Y118325D01*
X222259Y117999D01*
X222835Y117885D01*
X223411Y117999D01*
X223899Y118325D01*
X224225Y118814D01*
X224340Y119390D01*
X224225Y119966D01*
X223899Y120454D01*
X223411Y120781D01*
X222835Y120895D01*
D02*
G37*
%LPD*%
D13*
X1026870Y198228D02*
Y231201D01*
X1031102Y235433D01*
X1026870Y198228D02*
X1030126Y194973D01*
X1207972Y198228D02*
Y231201D01*
X1212205Y235433D01*
X1207972Y198228D02*
X1211228Y194973D01*
Y194874D02*
Y194973D01*
X1197539Y127559D02*
Y203839D01*
Y127559D02*
X1237500Y87598D01*
X1377904Y128296D02*
Y203101D01*
Y128296D02*
X1418602Y87598D01*
X1377904Y203101D02*
X1378642Y203839D01*
X1535622Y157390D02*
Y157488D01*
X1534547Y158465D02*
X1534646D01*
X1535622Y157488D01*
Y157390D02*
X1538878Y154134D01*
Y121161D02*
Y154134D01*
X1534646Y116929D02*
X1538878Y121161D01*
X1500000Y116929D02*
X1534646D01*
X1509350Y264764D02*
X1549311Y224803D01*
Y148524D02*
Y224803D01*
X1354520Y157390D02*
Y157488D01*
X1353445Y158465D02*
X1353543D01*
X1354520Y157488D01*
Y157390D02*
X1357776Y154134D01*
Y121161D02*
Y154134D01*
X1353543Y116929D02*
X1357776Y121161D01*
X1318898Y116929D02*
X1353543D01*
X1328248Y264764D02*
X1368209Y224803D01*
Y148524D02*
Y224803D01*
X1173417Y157390D02*
Y157488D01*
X1172342Y158465D02*
X1172441D01*
X1173417Y157488D01*
Y157390D02*
X1176673Y154134D01*
Y121161D02*
Y154134D01*
X1172441Y116929D02*
X1176673Y121161D01*
X1137796Y116929D02*
X1172441D01*
X1147146Y264764D02*
X1187106Y224803D01*
Y148524D02*
Y224803D01*
X992315Y157390D02*
Y157488D01*
X991240Y158465D02*
X991339D01*
X992315Y157488D01*
Y157390D02*
X995571Y154134D01*
Y121161D02*
Y154134D01*
X991339Y116929D02*
X995571Y121161D01*
X956693Y116929D02*
X991339D01*
X966043Y264764D02*
X1006004Y224803D01*
Y148524D02*
Y224803D01*
X811213Y157390D02*
Y157488D01*
X810138Y158465D02*
X810236D01*
X811213Y157488D01*
Y157390D02*
X814468Y154134D01*
Y121161D02*
Y154134D01*
X810236Y116929D02*
X814468Y121161D01*
X775591Y116929D02*
X810236D01*
X784941Y264764D02*
X824902Y224803D01*
Y148524D02*
Y224803D01*
X630110Y157390D02*
Y157488D01*
X629035Y158465D02*
X629134D01*
X630110Y157488D01*
Y157390D02*
X633366Y154134D01*
Y121161D02*
Y154134D01*
X629134Y116929D02*
X633366Y121161D01*
X594488Y116929D02*
X629134D01*
X603839Y264764D02*
X643799Y224803D01*
Y148524D02*
Y224803D01*
X449008Y157390D02*
Y157488D01*
X447933Y158465D02*
X448032D01*
X449008Y157488D01*
Y157390D02*
X452264Y154134D01*
Y121161D02*
Y154134D01*
X448032Y116929D02*
X452264Y121161D01*
X413386Y116929D02*
X448032D01*
X422736Y264764D02*
X462697Y224803D01*
Y148524D02*
Y224803D01*
X1392331Y194874D02*
Y194973D01*
X1389075Y231201D02*
X1393307Y235433D01*
X1427952D01*
X1389075Y198228D02*
Y231201D01*
Y198228D02*
X1392331Y194973D01*
X1393307Y193898D02*
X1393406D01*
X1392331Y194874D02*
X1393307Y193898D01*
X1212205Y235433D02*
X1246850D01*
X1212205Y193898D02*
X1212303D01*
X1211228Y194874D02*
X1212205Y193898D01*
X1030126Y194874D02*
Y194973D01*
X1031102Y235433D02*
X1065748D01*
X1031102Y193898D02*
X1031201D01*
X1030126Y194874D02*
X1031102Y193898D01*
X1016437Y127559D02*
Y203839D01*
Y127559D02*
X1056398Y87598D01*
X849024Y194874D02*
Y194973D01*
X845768Y231201D02*
X850000Y235433D01*
X884645D01*
X845768Y198228D02*
Y231201D01*
Y198228D02*
X849024Y194973D01*
X850000Y193898D02*
X850098D01*
X849024Y194874D02*
X850000Y193898D01*
X835335Y127559D02*
X875295Y87598D01*
X835335Y127559D02*
Y203839D01*
X667921Y194874D02*
Y194973D01*
X664665Y231201D02*
X668898Y235433D01*
X703543D01*
X664665Y198228D02*
Y231201D01*
Y198228D02*
X667921Y194973D01*
X668898Y193898D02*
X668996D01*
X667921Y194874D02*
X668898Y193898D01*
X654232Y127559D02*
X694193Y87598D01*
X654232Y127559D02*
Y203839D01*
X486819Y194874D02*
Y194973D01*
X483563Y231201D02*
X487795Y235433D01*
X522441D01*
X483563Y198228D02*
Y231201D01*
Y198228D02*
X486819Y194973D01*
X487795Y193898D02*
X487894D01*
X486819Y194874D02*
X487795Y193898D01*
X473130Y127559D02*
X513091Y87598D01*
X473130Y127559D02*
Y203839D01*
X305716Y194874D02*
Y194973D01*
X302461Y231201D02*
X306693Y235433D01*
X341338D01*
X302461Y198228D02*
Y231201D01*
Y198228D02*
X305716Y194973D01*
X306693Y193898D02*
X306791D01*
X305716Y194874D02*
X306693Y193898D01*
X292028Y127559D02*
X331988Y87598D01*
X292028Y127559D02*
Y203839D01*
X267905Y157390D02*
Y157488D01*
X266929Y116929D02*
X271161Y121161D01*
X232284Y116929D02*
X266929D01*
X271161Y121161D02*
Y154134D01*
X267905Y157390D02*
X271161Y154134D01*
X266831Y158465D02*
X266929D01*
X267905Y157488D01*
X241634Y264764D02*
X281594Y224803D01*
Y148524D02*
Y224803D01*
X121358Y198228D02*
Y231201D01*
Y198228D02*
X124614Y194973D01*
Y194874D02*
Y194973D01*
Y194874D02*
X125591Y193898D01*
X125689D01*
X121358Y231201D02*
X125591Y235433D01*
X160236D01*
X110925Y127559D02*
Y203839D01*
Y127559D02*
X150886Y87598D01*
D34*
X76772Y195866D02*
D03*
Y201772D02*
D03*
Y150591D02*
D03*
Y156496D02*
D03*
X55118Y206496D02*
D03*
Y200591D02*
D03*
Y250689D02*
D03*
Y256594D02*
D03*
Y102067D02*
D03*
Y96161D02*
D03*
Y145866D02*
D03*
Y151772D02*
D03*
D41*
X95472Y208661D02*
D03*
X101378D02*
D03*
Y143701D02*
D03*
X95472D02*
D03*
X50984Y200394D02*
D03*
X45079D02*
D03*
X50984Y256791D02*
D03*
X45079D02*
D03*
X59252Y200394D02*
D03*
X65158D02*
D03*
X59252Y256791D02*
D03*
X65158D02*
D03*
X66339Y224311D02*
D03*
X60433D02*
D03*
X66339Y228740D02*
D03*
X60433D02*
D03*
X59252Y95965D02*
D03*
X65158D02*
D03*
X50984Y151969D02*
D03*
X45079D02*
D03*
X50984Y95965D02*
D03*
X45079D02*
D03*
X59252Y151969D02*
D03*
X65158D02*
D03*
X66339Y120079D02*
D03*
X60433D02*
D03*
X66339Y124409D02*
D03*
X60433D02*
D03*
X1528642Y158465D02*
D03*
X1534547D02*
D03*
X1399311Y193898D02*
D03*
X1393406D02*
D03*
X1347539Y158465D02*
D03*
X1353445D02*
D03*
X1218209Y193898D02*
D03*
X1212303D02*
D03*
X1166437Y158465D02*
D03*
X1172342D02*
D03*
X1037106Y193898D02*
D03*
X1031201D02*
D03*
X985335Y158465D02*
D03*
X991240D02*
D03*
X856004Y193898D02*
D03*
X850098D02*
D03*
X804232Y158465D02*
D03*
X810138D02*
D03*
X674902Y193898D02*
D03*
X668996D02*
D03*
X623130Y158465D02*
D03*
X629035D02*
D03*
X493799Y193898D02*
D03*
X487894D02*
D03*
X442028Y158465D02*
D03*
X447933D02*
D03*
X312697Y193898D02*
D03*
X306791D02*
D03*
X260925Y158465D02*
D03*
X266831D02*
D03*
X131595Y193898D02*
D03*
X125689D02*
D03*
X66339Y245276D02*
D03*
X60433D02*
D03*
X66339Y240945D02*
D03*
X60433D02*
D03*
X66339Y236614D02*
D03*
X60433D02*
D03*
X66732Y140945D02*
D03*
X60827D02*
D03*
X66732Y136614D02*
D03*
X60827D02*
D03*
X66732Y132283D02*
D03*
X60827D02*
D03*
D47*
X67224Y185335D02*
X75815Y193926D01*
Y194910D01*
X76772Y195866D01*
X89764Y156890D02*
X90354Y157480D01*
X76772Y150591D02*
Y150689D01*
Y150492D02*
Y150591D01*
X82469Y157885D02*
X82874Y157480D01*
X79034Y157885D02*
X82469D01*
X79020Y157871D02*
X79034Y157885D01*
X78048Y157871D02*
X79020D01*
X76772Y156595D02*
X78048Y157871D01*
X76772Y156496D02*
Y156595D01*
X79728Y153646D02*
Y156208D01*
X76772Y150689D02*
X79728Y153646D01*
X73917Y156496D02*
X76772D01*
Y150492D02*
X78048Y149216D01*
X61910Y128054D02*
X63783Y129928D01*
X61910Y127461D02*
Y128054D01*
X57677Y116634D02*
Y144488D01*
X56677Y115370D02*
Y135685D01*
X57677Y116634D02*
X58951Y115360D01*
X56677Y115370D02*
X59153Y112894D01*
X57677Y144488D02*
X63783Y150594D01*
Y146361D02*
X73917Y156496D01*
X63783Y150692D02*
X65059Y151969D01*
X63783Y150594D02*
Y150692D01*
Y129928D02*
Y146361D01*
X89665Y161811D02*
X94488D01*
X86614Y158760D02*
X89665Y161811D01*
X86614Y149606D02*
Y158760D01*
X88186Y193310D02*
X91132Y190364D01*
X87792Y193310D02*
X88186D01*
X86614Y194488D02*
X87792Y193310D01*
X86614Y194488D02*
Y194882D01*
X91132Y190364D02*
X98528D01*
X97539Y191353D02*
X98528Y190364D01*
X97539Y191353D02*
Y193307D01*
X100197Y191066D02*
Y193307D01*
Y191066D02*
X100205Y191058D01*
Y178535D02*
Y191058D01*
Y178535D02*
X100914Y177826D01*
X98430Y161917D02*
X98692Y161655D01*
Y161150D02*
Y161655D01*
Y161150D02*
X99090Y160753D01*
Y159276D02*
Y160753D01*
Y159276D02*
X99311Y159055D01*
X96752D02*
Y170177D01*
X100914Y174339D01*
X96752Y159055D02*
X97539D01*
X95768D02*
X96752D01*
X100914Y174339D02*
Y174905D01*
X102092Y176083D01*
X100197Y193307D02*
X101083D01*
X99311D02*
X100197D01*
X100914Y177261D02*
Y177826D01*
Y177261D02*
X102092Y176083D01*
X102657D01*
X86417Y201083D02*
Y203776D01*
X81201Y195866D02*
X86417Y201083D01*
X76772Y195866D02*
X81201D01*
X86417Y203776D02*
X93570Y210928D01*
X99111D01*
X100003Y210036D01*
Y209938D02*
Y210036D01*
Y209938D02*
X101279Y208661D01*
X101378D01*
X80413Y146949D02*
X95472D01*
X78146Y149216D02*
X80413Y146949D01*
X78048Y149216D02*
X78146D01*
X99311Y204331D02*
X101083D01*
X76772Y201772D02*
X77756Y202756D01*
X82874D01*
X58757Y221066D02*
X61127D01*
X50492Y229331D02*
X58757Y221066D01*
X66237Y210141D02*
X74606Y201772D01*
X66237Y210141D02*
Y213586D01*
X74606Y201772D02*
X76772D01*
X62110Y217713D02*
X66237Y213586D01*
X62110Y217713D02*
Y220084D01*
X61127Y221066D02*
X62110Y220084D01*
X1445866Y156890D02*
X1451378D01*
X74803Y281693D02*
Y286870D01*
X45079Y96850D02*
Y107677D01*
X60433Y120079D02*
X60799Y120444D01*
X62374D01*
X65158Y97539D02*
Y104823D01*
X45079Y107677D02*
X48622Y111221D01*
X60728Y109252D02*
X65158Y104823D01*
X45118Y57717D02*
X62894Y75492D01*
X45118Y55807D02*
Y57717D01*
X74902Y65591D02*
Y75197D01*
X65118Y55807D02*
X74902Y65591D01*
X65118Y296555D02*
X74803Y286870D01*
X62992Y277244D02*
Y278682D01*
X46980Y294693D02*
X62992Y278682D01*
X46414Y294693D02*
X46980D01*
X45118Y295989D02*
X46414Y294693D01*
X45118Y295989D02*
Y296555D01*
X59255Y115664D02*
Y115751D01*
X58951Y115360D02*
X59255Y115664D01*
X45118Y147244D02*
X56677Y135685D01*
X45118Y147244D02*
Y151929D01*
X45079Y151969D02*
X45118Y151929D01*
X65059Y151969D02*
X65158D01*
X45079Y200394D02*
Y209744D01*
X48917Y213583D01*
X60433Y215551D02*
X65158Y210827D01*
Y200394D02*
Y210827D01*
X62374Y120444D02*
X64964Y123035D01*
Y123133D01*
X66240Y124409D01*
X66339D01*
X60630Y224410D02*
X62008D01*
X64964Y227365D01*
Y227464D01*
X66240Y228740D01*
X66339D01*
D48*
X95472Y146949D02*
X96228Y147705D01*
X95472Y143701D02*
Y146949D01*
X100622Y204724D02*
Y207906D01*
X50984Y256791D02*
X59252D01*
X45079Y89705D02*
Y95965D01*
X1509350Y264764D02*
X1509350Y264764D01*
X1418602Y264764D02*
X1509350D01*
X1418602Y87598D02*
X1418602Y87598D01*
X1328248Y87598D02*
X1418602D01*
X1328248Y264764D02*
X1328248Y264764D01*
X1237500Y264764D02*
X1328248D01*
X1237500Y87598D02*
X1237500Y87598D01*
X1147146Y87598D02*
X1237500D01*
X1147146Y264764D02*
X1147146Y264764D01*
X1056398Y264764D02*
X1147146D01*
X1056398Y87598D02*
X1056398Y87598D01*
X966043Y87598D02*
X1056398D01*
X966043Y264764D02*
X966043Y264764D01*
X875295Y264764D02*
X966043D01*
X875295Y87598D02*
X875295Y87598D01*
X784941Y87598D02*
X875295D01*
X784941Y264764D02*
X784941Y264764D01*
X694193Y264764D02*
X784941D01*
X694193Y87598D02*
X694193Y87598D01*
X603839Y87598D02*
X694193D01*
X603839Y264764D02*
X603839Y264764D01*
X513091Y264764D02*
X603839D01*
X513091Y87598D02*
X513091Y87598D01*
X422736Y87598D02*
X513091D01*
X422736Y264764D02*
X422736Y264764D01*
X331988Y264764D02*
X422736D01*
X331988Y87598D02*
X331988Y87598D01*
X241634Y87598D02*
X331988D01*
X241634Y264764D02*
X241634Y264764D01*
X150886Y264764D02*
X241634D01*
X65158Y151969D02*
Y159213D01*
X65118Y159252D02*
X65158Y159213D01*
X65118Y262697D02*
X65158Y262657D01*
Y256791D02*
Y262657D01*
X45079Y256791D02*
Y262657D01*
X45118Y262697D01*
X65118Y89665D02*
X65158Y89705D01*
Y95965D01*
X50984D02*
X59252D01*
X45079Y89705D02*
X45118Y89665D01*
X50984Y151969D02*
X59252D01*
X45079D02*
Y159213D01*
X45118Y159252D01*
X65118Y193110D02*
X65158Y193150D01*
Y200394D01*
X50984D02*
X59252D01*
X45079Y193150D02*
Y200394D01*
Y193150D02*
X45118Y193110D01*
D49*
X40354Y233463D02*
D03*
Y252757D02*
D03*
Y246457D02*
D03*
Y240158D02*
D03*
D50*
X1509350Y297638D02*
D03*
X1499350Y268228D02*
D03*
X1519350D02*
D03*
X1499350Y84134D02*
D03*
X1519350D02*
D03*
X1509350Y54724D02*
D03*
X1328248Y297638D02*
D03*
X1318248Y268228D02*
D03*
X1338248D02*
D03*
X1318248Y84134D02*
D03*
X1338248D02*
D03*
X1328248Y54724D02*
D03*
X1147146Y297638D02*
D03*
X1137146Y268228D02*
D03*
X1157146D02*
D03*
X1137146Y84134D02*
D03*
X1157146D02*
D03*
X1147146Y54724D02*
D03*
X966043Y297638D02*
D03*
X956043Y268228D02*
D03*
X976043D02*
D03*
X956043Y84134D02*
D03*
X976043D02*
D03*
X966043Y54724D02*
D03*
X784941Y297638D02*
D03*
X774941Y268228D02*
D03*
X794941D02*
D03*
X774941Y84134D02*
D03*
X794941D02*
D03*
X784941Y54724D02*
D03*
X603839Y297638D02*
D03*
X593839Y268228D02*
D03*
X613839D02*
D03*
X593839Y84134D02*
D03*
X613839D02*
D03*
X603839Y54724D02*
D03*
X422736Y297638D02*
D03*
X412736Y268228D02*
D03*
X432736D02*
D03*
X412736Y84134D02*
D03*
X432736D02*
D03*
X422736Y54724D02*
D03*
X241634Y297638D02*
D03*
X231634Y268228D02*
D03*
X251634D02*
D03*
X231634Y84134D02*
D03*
X251634D02*
D03*
X241634Y54724D02*
D03*
X1418602D02*
D03*
X1428602Y84134D02*
D03*
X1408602D02*
D03*
X1428602Y268228D02*
D03*
X1408602D02*
D03*
X1418602Y297638D02*
D03*
X1237500Y54724D02*
D03*
X1247500Y84134D02*
D03*
X1227500D02*
D03*
X1247500Y268228D02*
D03*
X1227500D02*
D03*
X1237500Y297638D02*
D03*
X1056398Y54724D02*
D03*
X1066398Y84134D02*
D03*
X1046398D02*
D03*
X1066398Y268228D02*
D03*
X1046398D02*
D03*
X1056398Y297638D02*
D03*
X875295Y54724D02*
D03*
X885295Y84134D02*
D03*
X865295D02*
D03*
X885295Y268228D02*
D03*
X865295D02*
D03*
X875295Y297638D02*
D03*
X694193Y54724D02*
D03*
X704193Y84134D02*
D03*
X684193D02*
D03*
X704193Y268228D02*
D03*
X684193D02*
D03*
X694193Y297638D02*
D03*
X513091Y54724D02*
D03*
X523091Y84134D02*
D03*
X503091D02*
D03*
X523091Y268228D02*
D03*
X503091D02*
D03*
X513091Y297638D02*
D03*
X331988Y54724D02*
D03*
X341988Y84134D02*
D03*
X321988D02*
D03*
X341988Y268228D02*
D03*
X321988D02*
D03*
X331988Y297638D02*
D03*
X150886Y54724D02*
D03*
X160886Y84134D02*
D03*
X140886D02*
D03*
X160886Y268228D02*
D03*
X140886D02*
D03*
X150886Y297638D02*
D03*
D51*
X1509350Y264764D02*
D03*
Y87598D02*
D03*
X1328248Y264764D02*
D03*
Y87598D02*
D03*
X1147146Y264764D02*
D03*
Y87598D02*
D03*
X966043Y264764D02*
D03*
Y87598D02*
D03*
X784941Y264764D02*
D03*
Y87598D02*
D03*
X603839Y264764D02*
D03*
Y87598D02*
D03*
X422736Y264764D02*
D03*
Y87598D02*
D03*
X241634Y264764D02*
D03*
Y87598D02*
D03*
X1418602D02*
D03*
Y264764D02*
D03*
X1237500Y87598D02*
D03*
Y264764D02*
D03*
X1056398Y87598D02*
D03*
Y264764D02*
D03*
X875295Y87598D02*
D03*
Y264764D02*
D03*
X694193Y87598D02*
D03*
Y264764D02*
D03*
X513091Y87598D02*
D03*
Y264764D02*
D03*
X331988Y87598D02*
D03*
Y264764D02*
D03*
X150886Y87598D02*
D03*
Y264764D02*
D03*
D52*
X1506890Y212992D02*
D03*
X1511811D02*
D03*
X1325787D02*
D03*
X1330709D02*
D03*
X1144685D02*
D03*
X1149606D02*
D03*
X963583D02*
D03*
X968504D02*
D03*
X782480D02*
D03*
X787402D02*
D03*
X601378D02*
D03*
X606299D02*
D03*
X420276D02*
D03*
X425197D02*
D03*
X239173Y212992D02*
D03*
X244094D02*
D03*
X1421063Y139370D02*
D03*
X1416142D02*
D03*
X1239961D02*
D03*
X1235039D02*
D03*
X1058858D02*
D03*
X1053937D02*
D03*
X877756D02*
D03*
X872835D02*
D03*
X696654D02*
D03*
X691732D02*
D03*
X515551D02*
D03*
X510630D02*
D03*
X334449D02*
D03*
X329528D02*
D03*
X153347D02*
D03*
X148425D02*
D03*
D53*
X47244Y125000D02*
D03*
Y229331D02*
D03*
X95768Y197736D02*
D03*
Y154724D02*
D03*
X98425D02*
D03*
X101181D02*
D03*
Y197736D02*
D03*
X98425D02*
D03*
D54*
X1448327Y142323D02*
D03*
X1471555Y125295D02*
D03*
X98425Y176181D02*
D03*
X79728Y156208D02*
D03*
X61910Y127461D02*
D03*
X59649Y129239D02*
D03*
X94488Y161811D02*
D03*
X98528Y190364D02*
D03*
X98430Y161917D02*
D03*
X69882Y213583D02*
D03*
X50492Y229331D02*
D03*
X50000Y237205D02*
D03*
X56496Y178445D02*
D03*
X71457Y262402D02*
D03*
X1451378Y156890D02*
D03*
X1445866D02*
D03*
X74803Y281693D02*
D03*
X49902Y261910D02*
D03*
X59646Y251083D02*
D03*
X44980Y234252D02*
D03*
X65158Y262657D02*
D03*
X45118Y262697D02*
D03*
X60039Y101772D02*
D03*
X60433Y120079D02*
D03*
Y124409D02*
D03*
X48622Y111221D02*
D03*
X60728Y109252D02*
D03*
X1490453Y119488D02*
D03*
X285827Y227953D02*
D03*
X54718Y222441D02*
D03*
X54626Y118110D02*
D03*
X60335Y232677D02*
D03*
X42520Y229331D02*
D03*
X83662Y246358D02*
D03*
X85630Y244587D02*
D03*
X87598Y246358D02*
D03*
X91535D02*
D03*
X55118Y167323D02*
D03*
Y185039D02*
D03*
X87890D02*
D03*
Y167323D02*
D03*
X73622Y152657D02*
D03*
X89764D02*
D03*
X67224Y185335D02*
D03*
X67118Y167323D02*
D03*
X1488976Y197736D02*
D03*
Y136811D02*
D03*
X1307579Y197835D02*
D03*
X1307480Y143996D02*
D03*
X1257874Y154527D02*
D03*
X1126476Y197835D02*
D03*
X1126575Y145177D02*
D03*
X1076772Y154429D02*
D03*
X945472Y197835D02*
D03*
Y146752D02*
D03*
X895669Y154527D02*
D03*
X764272Y198031D02*
D03*
Y148327D02*
D03*
X714468Y154331D02*
D03*
X583268Y197835D02*
D03*
X583071Y150394D02*
D03*
X533563Y154528D02*
D03*
X402264Y197835D02*
D03*
X402067Y151181D02*
D03*
X352264Y154331D02*
D03*
X221260Y197835D02*
D03*
X221358Y153051D02*
D03*
X171260Y154331D02*
D03*
X85630Y141634D02*
D03*
X89567D02*
D03*
X94390Y138779D02*
D03*
Y134843D02*
D03*
Y130905D02*
D03*
Y126969D02*
D03*
Y123031D02*
D03*
Y119095D02*
D03*
Y115256D02*
D03*
Y111221D02*
D03*
X91535Y106496D02*
D03*
X87598Y106595D02*
D03*
X83662Y106496D02*
D03*
X79724D02*
D03*
X75787D02*
D03*
X71850Y106595D02*
D03*
X67913D02*
D03*
X169685Y232874D02*
D03*
X109744Y240158D02*
D03*
X114567Y160433D02*
D03*
X109744Y237502D02*
D03*
X222835Y230118D02*
D03*
X222835Y119390D02*
D03*
X279823Y230413D02*
D03*
X285827Y230906D02*
D03*
X350787Y233071D02*
D03*
X295669Y160433D02*
D03*
X403937Y224016D02*
D03*
X404035Y119390D02*
D03*
X458957Y223721D02*
D03*
X467126Y225590D02*
D03*
X531988Y232776D02*
D03*
X476772Y160433D02*
D03*
X467126Y222638D02*
D03*
X584941Y220571D02*
D03*
Y119587D02*
D03*
X640158Y220374D02*
D03*
X712992Y232874D02*
D03*
X649016Y221358D02*
D03*
X657874Y160630D02*
D03*
X649016Y218701D02*
D03*
X766043Y213090D02*
D03*
Y119783D02*
D03*
X821555Y211319D02*
D03*
X833957Y213090D02*
D03*
X894094Y232874D02*
D03*
X838976Y160539D02*
D03*
X833957Y209744D02*
D03*
X946653Y209055D02*
D03*
X92913Y219587D02*
D03*
X947244Y119488D02*
D03*
X1002362Y208366D02*
D03*
X62894Y75492D02*
D03*
X74902Y75197D02*
D03*
X62992Y277244D02*
D03*
X89665Y244587D02*
D03*
X94784Y237205D02*
D03*
X93012Y239075D02*
D03*
X94784Y241142D02*
D03*
X93012Y243110D02*
D03*
X92913Y235236D02*
D03*
X94685Y233268D02*
D03*
X92913Y231201D02*
D03*
X94685Y229331D02*
D03*
X92913Y227362D02*
D03*
X94685Y225394D02*
D03*
X94685Y221457D02*
D03*
Y217520D02*
D03*
X92913Y215551D02*
D03*
Y223425D02*
D03*
X94685Y213583D02*
D03*
X1010925Y209154D02*
D03*
X1075295Y232677D02*
D03*
X1020079Y160433D02*
D03*
X1010925Y206496D02*
D03*
X1128248Y205709D02*
D03*
Y119488D02*
D03*
X1183563Y204921D02*
D03*
X1191831Y205807D02*
D03*
X1256299Y232677D02*
D03*
X1201181Y160539D02*
D03*
X1191831Y202953D02*
D03*
X1308957Y202067D02*
D03*
X1309449Y119587D02*
D03*
X1364665Y201969D02*
D03*
X83563Y211024D02*
D03*
X79724D02*
D03*
X87598D02*
D03*
X85630Y213583D02*
D03*
X81693D02*
D03*
X77756Y213582D02*
D03*
X75788Y211024D02*
D03*
X73819Y213583D02*
D03*
X71949Y211024D02*
D03*
X123622Y214961D02*
D03*
X1359547Y197835D02*
D03*
X1434842Y232874D02*
D03*
X1178445Y197835D02*
D03*
X1380217Y196555D02*
D03*
X1379890Y160539D02*
D03*
X1493110Y196358D02*
D03*
X67913Y211024D02*
D03*
X1545669Y191831D02*
D03*
X1524016Y162205D02*
D03*
X1540650Y197835D02*
D03*
X1536614Y137402D02*
D03*
X1500000Y116929D02*
D03*
X1547047Y128051D02*
D03*
X1342913Y162205D02*
D03*
X1355512Y137402D02*
D03*
X1318898Y116929D02*
D03*
X1365945Y128051D02*
D03*
X1161811Y162205D02*
D03*
X1174409Y137402D02*
D03*
X1137796Y116929D02*
D03*
X1184842Y128051D02*
D03*
X980709Y162205D02*
D03*
X997342Y197835D02*
D03*
X993307Y137402D02*
D03*
X956693Y116929D02*
D03*
X1003740Y128051D02*
D03*
X799606Y162205D02*
D03*
X816240Y197835D02*
D03*
X812205Y137402D02*
D03*
X775591Y116929D02*
D03*
X822638Y128051D02*
D03*
X618504Y162205D02*
D03*
X635138Y197835D02*
D03*
X631102Y137402D02*
D03*
X594488Y116929D02*
D03*
X641535Y128051D02*
D03*
X437402Y162205D02*
D03*
X454035Y197835D02*
D03*
X450000Y137402D02*
D03*
X413386Y116929D02*
D03*
X460433Y128051D02*
D03*
X1387303Y154528D02*
D03*
X1403937Y190157D02*
D03*
X1391339Y214961D02*
D03*
X1427952Y235433D02*
D03*
X1380906Y224311D02*
D03*
X1206201Y154528D02*
D03*
X1222835Y190157D02*
D03*
X1210236Y214961D02*
D03*
X1246850Y235433D02*
D03*
X1199803Y224311D02*
D03*
X1025098Y154528D02*
D03*
X1041732Y190157D02*
D03*
X1029134Y214961D02*
D03*
X1065748Y235433D02*
D03*
X1018701Y224311D02*
D03*
X843996Y154528D02*
D03*
X860630Y190157D02*
D03*
X848032Y214961D02*
D03*
X884645Y235433D02*
D03*
X837598Y224311D02*
D03*
X662894Y154528D02*
D03*
X679528Y190157D02*
D03*
X666929Y214961D02*
D03*
X703543Y235433D02*
D03*
X656496Y224311D02*
D03*
X481791Y154528D02*
D03*
X498425Y190157D02*
D03*
X485827Y214961D02*
D03*
X522441Y235433D02*
D03*
X475394Y224311D02*
D03*
X300689Y154528D02*
D03*
X317323Y190157D02*
D03*
X304724Y214961D02*
D03*
X341338Y235433D02*
D03*
X294291Y224311D02*
D03*
X272933Y197835D02*
D03*
X256299Y162205D02*
D03*
X268898Y137402D02*
D03*
X232284Y116929D02*
D03*
X279331Y128051D02*
D03*
X113189Y224311D02*
D03*
X119587Y154528D02*
D03*
X60433Y206201D02*
D03*
Y219390D02*
D03*
X50000Y217618D02*
D03*
X59255Y115751D02*
D03*
X59153Y112894D02*
D03*
X48917Y213583D02*
D03*
X60433Y215551D02*
D03*
X60335Y178445D02*
D03*
Y185039D02*
D03*
X60827Y140945D02*
D03*
Y136614D02*
D03*
X75197Y161221D02*
D03*
X71949D02*
D03*
X50000Y132874D02*
D03*
X60630Y132283D02*
D03*
Y224410D02*
D03*
X60433Y228740D02*
D03*
Y236847D02*
D03*
X60236Y240945D02*
D03*
X60433Y245276D02*
D03*
X136221Y190157D02*
D03*
X160236Y235433D02*
D03*
D55*
X76772Y228346D02*
D03*
Y124016D02*
D03*
D56*
X101083Y148031D02*
D03*
X99311D02*
D03*
X97539D02*
D03*
X95768D02*
D03*
Y159055D02*
D03*
X97539D02*
D03*
X99311D02*
D03*
X101083D02*
D03*
X95768Y204331D02*
D03*
X97539D02*
D03*
X99311D02*
D03*
X101083D02*
D03*
Y193307D02*
D03*
X99311D02*
D03*
X97539D02*
D03*
X95768D02*
D03*
D57*
X98425Y153543D02*
D03*
Y198819D02*
D03*
D58*
X82874Y157480D02*
D03*
X90354D02*
D03*
X86614Y149606D02*
D03*
X82874Y202756D02*
D03*
X90354D02*
D03*
X86614Y194882D02*
D03*
D59*
X76673Y176083D02*
D03*
X102657D02*
D03*
D60*
X45118Y193110D02*
D03*
X55118D02*
D03*
X65118D02*
D03*
Y159252D02*
D03*
X55118D02*
D03*
X45118D02*
D03*
Y296555D02*
D03*
X55118D02*
D03*
X65118D02*
D03*
Y262697D02*
D03*
X55118D02*
D03*
X45118D02*
D03*
X65118Y55807D02*
D03*
X55118D02*
D03*
X45118D02*
D03*
Y89665D02*
D03*
X55118D02*
D03*
X65118D02*
D03*
D61*
X1513582Y138090D02*
D03*
X1414371Y214272D02*
D03*
X1332480Y138090D02*
D03*
X1233268Y214272D02*
D03*
X1151377Y138090D02*
D03*
X1052166Y214272D02*
D03*
X970275Y138090D02*
D03*
X871063Y214272D02*
D03*
X789173Y138090D02*
D03*
X689961Y214272D02*
D03*
X608071Y138090D02*
D03*
X508859Y214272D02*
D03*
X426968Y138090D02*
D03*
X327756Y214272D02*
D03*
X245866Y138090D02*
D03*
X146654Y214272D02*
D03*
D62*
X1547047Y148129D02*
D03*
Y128051D02*
D03*
X1380906Y204233D02*
D03*
Y224311D02*
D03*
X1365945Y148129D02*
D03*
Y128051D02*
D03*
X1199803Y204233D02*
D03*
Y224311D02*
D03*
X1184842Y148129D02*
D03*
Y128051D02*
D03*
X1018701Y204233D02*
D03*
Y224311D02*
D03*
X1003740Y148129D02*
D03*
Y128051D02*
D03*
X837598Y204233D02*
D03*
Y224311D02*
D03*
X822638Y148129D02*
D03*
Y128051D02*
D03*
X656496Y204233D02*
D03*
Y224311D02*
D03*
X641535Y148129D02*
D03*
Y128051D02*
D03*
X475394Y204233D02*
D03*
Y224311D02*
D03*
X460433Y148129D02*
D03*
Y128051D02*
D03*
X294291Y204233D02*
D03*
Y224311D02*
D03*
X279331Y148129D02*
D03*
Y128051D02*
D03*
X113189Y204233D02*
D03*
Y224311D02*
D03*
M02*
