G04*
G04 #@! TF.GenerationSoftware,Altium Limited,Altium Designer,19.0.12 (326)*
G04*
G04 Layer_Physical_Order=3*
G04 Layer_Color=16440176*
%FSLAX25Y25*%
%MOIN*%
G70*
G01*
G75*
%ADD47C,0.00400*%
%ADD49R,0.01968X0.03150*%
G04:AMPARAMS|DCode=50|XSize=82.68mil|YSize=27.56mil|CornerRadius=13.78mil|HoleSize=0mil|Usage=FLASHONLY|Rotation=0.000|XOffset=0mil|YOffset=0mil|HoleType=Round|Shape=RoundedRectangle|*
%AMROUNDEDRECTD50*
21,1,0.08268,0.00000,0,0,0.0*
21,1,0.05512,0.02756,0,0,0.0*
1,1,0.02756,0.02756,0.00000*
1,1,0.02756,-0.02756,0.00000*
1,1,0.02756,-0.02756,0.00000*
1,1,0.02756,0.02756,0.00000*
%
%ADD50ROUNDEDRECTD50*%
%ADD51C,0.39370*%
%ADD52C,0.03937*%
%ADD54C,0.01772*%
D47*
X63316Y143434D02*
Y163521D01*
X67118Y167323D01*
X78248Y156498D02*
Y163583D01*
Y156498D02*
X78482Y156264D01*
X79673D01*
X79728Y156208D01*
X74508Y167323D02*
X78248Y163583D01*
X67118Y167323D02*
X74508D01*
X62106Y129232D02*
X63779Y130905D01*
X62100Y129239D02*
X62106Y129232D01*
X59649Y129239D02*
X62100D01*
X69882Y210568D02*
Y213583D01*
Y210568D02*
X85749Y194701D01*
X40709Y252756D02*
X57972D01*
X59646Y251083D01*
X40850Y246457D02*
X46555D01*
X50000Y237205D02*
X58465Y228740D01*
X46555Y246457D02*
X60335Y232677D01*
X49639Y261647D02*
X49902Y261910D01*
X49639Y261152D02*
Y261647D01*
X51342Y234252D02*
X57465Y228129D01*
Y181315D02*
Y228129D01*
X44980Y234252D02*
X51342D01*
X284560Y226686D02*
X285827Y227953D01*
X83662Y246358D02*
Y246801D01*
X85630Y244587D02*
Y247638D01*
X87598Y246358D02*
Y246702D01*
X89665Y244587D02*
Y247638D01*
X91535Y246358D02*
X94045D01*
X126846Y135116D02*
X1487281D01*
X1488976Y136811D01*
X92861Y101131D02*
X126846Y135116D01*
X73377Y101131D02*
X92861D01*
X67913Y106595D02*
X73377Y101131D01*
X92529Y101931D02*
X126515Y135916D01*
X1417609D01*
X1421063Y139370D01*
X131528Y142061D02*
X1305545D01*
X131197Y142861D02*
X1246207D01*
X130865Y143661D02*
X1125058D01*
X130189Y144461D02*
X1066803D01*
X128430Y145261D02*
X943981D01*
X125195Y146061D02*
X887202D01*
X122156Y146861D02*
X762806D01*
X119019Y147661D02*
X707798D01*
X115882Y148461D02*
X581138D01*
X112745Y149261D02*
X528296D01*
X109608Y150061D02*
X400947D01*
X106471Y150861D02*
X348794D01*
X99594Y151661D02*
X219968D01*
X96456Y152461D02*
X169390D01*
X1246207Y142861D02*
X1257874Y154527D01*
X1305545Y142061D02*
X1307480Y143996D01*
X707798Y147661D02*
X714468Y154331D01*
X219968Y151661D02*
X221358Y153051D01*
X1125058Y143661D02*
X1126575Y145177D01*
X943981Y145261D02*
X945472Y146752D01*
X528296Y149261D02*
X533563Y154528D01*
X348794Y150861D02*
X352264Y154331D01*
X400947Y150061D02*
X402067Y151181D01*
X169390Y152461D02*
X171260Y154331D01*
X1066803Y144461D02*
X1076772Y154429D01*
X887202Y146061D02*
X895669Y154527D01*
X581138Y148461D02*
X583071Y150394D01*
X762806Y146861D02*
X764272Y148327D01*
X94390Y134843D02*
X109608Y150061D01*
X91867Y103531D02*
X131197Y142861D01*
X94390Y126969D02*
X115882Y148461D01*
X94390Y119095D02*
X122156Y146861D01*
X94390Y123031D02*
X119019Y147661D01*
X91535Y104331D02*
X130865Y143661D01*
X94390Y138779D02*
X106471Y150861D01*
X89567Y141634D02*
X99594Y151661D01*
X94390Y115256D02*
X125195Y146061D01*
X94390Y111221D02*
X128430Y145261D01*
X92487Y106758D02*
X130189Y144461D01*
X92198Y102731D02*
X131528Y142061D01*
X85630Y141634D02*
X96456Y152461D01*
X94390Y130905D02*
X112745Y149261D01*
X82690Y103531D02*
X91867D01*
X79724Y106496D02*
X82690Y103531D01*
X85827Y104331D02*
X91535D01*
X83662Y106496D02*
X85827Y104331D01*
X91798Y106758D02*
X92487D01*
X71850Y106595D02*
X76514Y101931D01*
X92529D01*
X79553Y102731D02*
X92198D01*
X75787Y106496D02*
X79553Y102731D01*
X83573Y199705D02*
X1401673D01*
X83905Y200505D02*
X1363202D01*
X84236Y201305D02*
X1308037D01*
X84567Y202105D02*
X1190983D01*
X84899Y202905D02*
X1188928D01*
X85230Y203705D02*
X1182347D01*
X1127044Y204505D02*
X1128248Y205709D01*
X86614Y204505D02*
X1127044D01*
X1401673Y199705D02*
X1434842Y232874D01*
X81693Y206111D02*
X84899Y202905D01*
X77756Y207785D02*
X84236Y201305D01*
X85630Y205489D02*
X86614Y204505D01*
X1308037Y201305D02*
X1308799Y202067D01*
X1182347Y203705D02*
X1183563Y204921D01*
X1188928Y202905D02*
X1191831Y205807D01*
X83563Y205372D02*
X85230Y203705D01*
X79724Y206948D02*
X84567Y202105D01*
X1190983D02*
X1191831Y202953D01*
X75788Y208622D02*
X83905Y200505D01*
X1308799Y202067D02*
X1308957D01*
X1363202Y200505D02*
X1364665Y201969D01*
X73819Y209459D02*
X83573Y199705D01*
X91437Y106595D02*
X91535Y106496D01*
X87598Y106595D02*
X91437D01*
X91535Y106496D02*
X91798Y106758D01*
X104995Y239939D02*
X109526D01*
X109744Y240158D01*
X94207Y250727D02*
X104995Y239939D01*
X93545Y249127D02*
X113585Y229086D01*
X90023Y249127D02*
X93545D01*
X87598Y246702D02*
X90023Y249127D01*
X93213Y248327D02*
X113254Y228286D01*
X90354Y248327D02*
X93213D01*
X89665Y247638D02*
X90354Y248327D01*
X83662Y246801D02*
X87587Y250727D01*
X94207D01*
X106301Y237502D02*
X109744D01*
X93876Y249927D02*
X106301Y237502D01*
X87919Y249927D02*
X93876D01*
X85630Y247638D02*
X87919Y249927D01*
X94045Y246358D02*
X112917Y227486D01*
X96161Y243110D02*
X112586Y226686D01*
X93012Y243110D02*
X96161D01*
X112917Y227486D02*
X282210D01*
X285630Y230906D01*
X113254Y228286D02*
X277695D01*
X112586Y226686D02*
X284560D01*
X285630Y230906D02*
X285827D01*
X113585Y229086D02*
X221802D01*
X222835Y230118D01*
X110482Y225886D02*
X402067D01*
X95655Y240712D02*
X110482Y225886D01*
X402067D02*
X403937Y224016D01*
X277695Y228286D02*
X279823Y230413D01*
X95584Y240712D02*
X95655D01*
X95155Y241142D02*
X95584Y240712D01*
X94784Y241142D02*
X95155D01*
X113002Y222234D02*
X457470D01*
X110800Y221434D02*
X462969D01*
X110468Y220634D02*
X465122D01*
X108561Y219834D02*
X584021D01*
X108230Y219034D02*
X638817D01*
X106421Y218234D02*
X645891D01*
X106090Y217434D02*
X647749D01*
X103937Y216634D02*
X762500D01*
X766043Y213090D01*
X584758Y220571D02*
X584941D01*
X647749Y217434D02*
X649016Y218701D01*
X584021Y219834D02*
X584758Y220571D01*
X95582Y224989D02*
X103937Y216634D01*
X457470Y222234D02*
X458957Y223721D01*
X96161Y239075D02*
X113002Y222234D01*
X93012Y239075D02*
X96161D01*
X95029Y237205D02*
X110800Y221434D01*
X94784Y237205D02*
X95029D01*
X462969Y221434D02*
X467126Y225590D01*
X465122Y220634D02*
X467126Y222638D01*
X96063Y231201D02*
X108230Y219034D01*
X645891Y218234D02*
X649016Y221358D01*
X638817Y219034D02*
X640158Y220374D01*
X95587Y229068D02*
X106421Y218234D01*
X96162Y227362D02*
X106090Y217434D01*
X95866Y235236D02*
X110468Y220634D01*
X92913Y235236D02*
X95866D01*
X95127Y233268D02*
X108561Y219834D01*
X94685Y233268D02*
X95127D01*
X92913Y231201D02*
X96063D01*
X94685Y229331D02*
X94947Y229068D01*
X95587D01*
X92913Y227362D02*
X96162D01*
X820341Y210105D02*
X821555Y211319D01*
X109285Y210105D02*
X820341D01*
X94685Y225394D02*
X95056D01*
X95461Y224989D01*
X95582D01*
X107428Y209305D02*
X830171D01*
X107046Y208505D02*
X832717D01*
X104942Y207705D02*
X945303D01*
X104611Y206905D02*
X1000901D01*
X101769Y206105D02*
X1007876D01*
X87833Y205305D02*
X1009734D01*
X95965Y219587D02*
X107046Y208505D01*
X95965Y215551D02*
X104611Y206905D01*
X95127Y217520D02*
X104942Y207705D01*
X94291Y213583D02*
X101769Y206105D01*
X945303Y207705D02*
X946653Y209055D01*
X95538Y221194D02*
X107428Y209305D01*
X1000901Y206905D02*
X1002362Y208366D01*
X1007876Y206105D02*
X1010925Y209154D01*
X87598Y205539D02*
X87833Y205305D01*
X1009734D02*
X1010925Y206496D01*
X830171Y209305D02*
X833957Y213090D01*
X832717Y208505D02*
X833957Y209744D01*
X92913Y219587D02*
X95965D01*
Y223425D02*
X109285Y210105D01*
X92913Y223425D02*
X95965D01*
X94947Y221194D02*
X95538D01*
X94685Y221457D02*
X94947Y221194D01*
X94685Y217520D02*
X95127D01*
X92913Y215551D02*
X95965D01*
X87598Y205539D02*
Y211024D01*
X85630Y205489D02*
Y213583D01*
X83563Y205372D02*
Y211024D01*
X77756Y207785D02*
Y213582D01*
X79724Y206948D02*
Y211024D01*
X81693Y206111D02*
Y213583D01*
X71949Y209915D02*
X86163Y195701D01*
X75788Y208622D02*
Y211024D01*
X71949Y209915D02*
Y211024D01*
X86163Y195701D02*
X1379362D01*
X73819Y209459D02*
Y213583D01*
X85749Y194701D02*
X1491453D01*
X85335Y193701D02*
X1543799D01*
X1379362Y195701D02*
X1380217Y196555D01*
X1543799Y193701D02*
X1545669Y191831D01*
X1491453Y194701D02*
X1493110Y196358D01*
X67913Y211122D02*
X85335Y193701D01*
X58465Y186909D02*
Y228740D01*
X57465Y181315D02*
X60335Y178445D01*
X58465Y186909D02*
X60335Y185039D01*
X63779Y130905D02*
Y140099D01*
X65316Y141636D01*
Y153173D01*
X60566Y138300D02*
X64316Y142050D01*
X60128Y138300D02*
X60566D01*
X54703Y132874D02*
X60128Y138300D01*
X60827Y140945D02*
X63316Y143434D01*
X50000Y132874D02*
X54703D01*
X64316Y142050D02*
Y153587D01*
X65316Y153173D02*
X71493Y159350D01*
X73327D01*
X75197Y161221D01*
X64316Y153587D02*
X71949Y161221D01*
X60433Y245276D02*
Y245280D01*
D49*
X40354Y252757D02*
D03*
Y246457D02*
D03*
D50*
X1499350Y268228D02*
D03*
X1519350D02*
D03*
X1499350Y84134D02*
D03*
X1519350D02*
D03*
X1318248Y268228D02*
D03*
X1338248D02*
D03*
X1318248Y84134D02*
D03*
X1338248D02*
D03*
X1137146Y268228D02*
D03*
X1157146D02*
D03*
X1137146Y84134D02*
D03*
X1157146D02*
D03*
X956043Y268228D02*
D03*
X976043D02*
D03*
X956043Y84134D02*
D03*
X976043D02*
D03*
X774941Y268228D02*
D03*
X794941D02*
D03*
X774941Y84134D02*
D03*
X794941D02*
D03*
X593839Y268228D02*
D03*
X613839D02*
D03*
X593839Y84134D02*
D03*
X613839D02*
D03*
X412736Y268228D02*
D03*
X432736D02*
D03*
X412736Y84134D02*
D03*
X432736D02*
D03*
X231634Y268228D02*
D03*
X251634D02*
D03*
X231634Y84134D02*
D03*
X251634D02*
D03*
X1428602D02*
D03*
X1408602D02*
D03*
X1428602Y268228D02*
D03*
X1408602D02*
D03*
X1247500Y84134D02*
D03*
X1227500D02*
D03*
X1247500Y268228D02*
D03*
X1227500D02*
D03*
X1066398Y84134D02*
D03*
X1046398D02*
D03*
X1066398Y268228D02*
D03*
X1046398D02*
D03*
X885295Y84134D02*
D03*
X865295D02*
D03*
X885295Y268228D02*
D03*
X865295D02*
D03*
X704193Y84134D02*
D03*
X684193D02*
D03*
X704193Y268228D02*
D03*
X684193D02*
D03*
X523091Y84134D02*
D03*
X503091D02*
D03*
X523091Y268228D02*
D03*
X503091D02*
D03*
X341988Y84134D02*
D03*
X321988D02*
D03*
X341988Y268228D02*
D03*
X321988D02*
D03*
X160886Y84134D02*
D03*
X140886D02*
D03*
X160886Y268228D02*
D03*
X140886D02*
D03*
D51*
X1509350Y264764D02*
D03*
Y87598D02*
D03*
X1328248Y264764D02*
D03*
Y87598D02*
D03*
X1147146Y264764D02*
D03*
Y87598D02*
D03*
X966043Y264764D02*
D03*
Y87598D02*
D03*
X784941Y264764D02*
D03*
Y87598D02*
D03*
X603839Y264764D02*
D03*
Y87598D02*
D03*
X422736Y264764D02*
D03*
Y87598D02*
D03*
X241634Y264764D02*
D03*
Y87598D02*
D03*
X1418602D02*
D03*
Y264764D02*
D03*
X1237500Y87598D02*
D03*
Y264764D02*
D03*
X1056398Y87598D02*
D03*
Y264764D02*
D03*
X875295Y87598D02*
D03*
Y264764D02*
D03*
X694193Y87598D02*
D03*
Y264764D02*
D03*
X513091Y87598D02*
D03*
Y264764D02*
D03*
X331988Y87598D02*
D03*
Y264764D02*
D03*
X150886Y87598D02*
D03*
Y264764D02*
D03*
D52*
X1421063Y139370D02*
D03*
D54*
X79728Y156208D02*
D03*
X59649Y129239D02*
D03*
X69882Y213583D02*
D03*
X50000Y237205D02*
D03*
X49902Y261910D02*
D03*
X59646Y251083D02*
D03*
X44980Y234252D02*
D03*
X285827Y227953D02*
D03*
X60335Y232677D02*
D03*
X83662Y246358D02*
D03*
X85630Y244587D02*
D03*
X87598Y246358D02*
D03*
X91535D02*
D03*
X67118Y167323D02*
D03*
X1488976Y136811D02*
D03*
X1307480Y143996D02*
D03*
X1257874Y154527D02*
D03*
X1126575Y145177D02*
D03*
X1076772Y154429D02*
D03*
X945472Y146752D02*
D03*
X895669Y154527D02*
D03*
X764272Y148327D02*
D03*
X714468Y154331D02*
D03*
X583071Y150394D02*
D03*
X533563Y154528D02*
D03*
X402067Y151181D02*
D03*
X352264Y154331D02*
D03*
X221358Y153051D02*
D03*
X171260Y154331D02*
D03*
X85630Y141634D02*
D03*
X89567D02*
D03*
X94390Y138779D02*
D03*
Y134843D02*
D03*
Y130905D02*
D03*
Y126969D02*
D03*
Y123031D02*
D03*
Y119095D02*
D03*
Y115256D02*
D03*
Y111221D02*
D03*
X91535Y106496D02*
D03*
X87598Y106595D02*
D03*
X83662Y106496D02*
D03*
X79724D02*
D03*
X75787D02*
D03*
X71850Y106595D02*
D03*
X67913D02*
D03*
X109744Y240158D02*
D03*
Y237502D02*
D03*
X222835Y230118D02*
D03*
X279823Y230413D02*
D03*
X285827Y230906D02*
D03*
X403937Y224016D02*
D03*
X458957Y223721D02*
D03*
X467126Y225590D02*
D03*
Y222638D02*
D03*
X584941Y220571D02*
D03*
X640158Y220374D02*
D03*
X649016Y221358D02*
D03*
Y218701D02*
D03*
X766043Y213090D02*
D03*
X821555Y211319D02*
D03*
X833957Y213090D02*
D03*
Y209744D02*
D03*
X946653Y209055D02*
D03*
X92913Y219587D02*
D03*
X1002362Y208366D02*
D03*
X89665Y244587D02*
D03*
X94784Y237205D02*
D03*
X93012Y239075D02*
D03*
X94784Y241142D02*
D03*
X93012Y243110D02*
D03*
X92913Y235236D02*
D03*
X94685Y233268D02*
D03*
X92913Y231201D02*
D03*
X94685Y229331D02*
D03*
X92913Y227362D02*
D03*
X94685Y225394D02*
D03*
X94685Y221457D02*
D03*
Y217520D02*
D03*
X92913Y215551D02*
D03*
Y223425D02*
D03*
X94685Y213583D02*
D03*
X1010925Y209154D02*
D03*
Y206496D02*
D03*
X1128248Y205709D02*
D03*
X1183563Y204921D02*
D03*
X1191831Y205807D02*
D03*
Y202953D02*
D03*
X1308957Y202067D02*
D03*
X1364665Y201969D02*
D03*
X83563Y211024D02*
D03*
X79724D02*
D03*
X87598D02*
D03*
X85630Y213583D02*
D03*
X81693D02*
D03*
X77756Y213582D02*
D03*
X75788Y211024D02*
D03*
X73819Y213583D02*
D03*
X71949Y211024D02*
D03*
X1434842Y232874D02*
D03*
X1380217Y196555D02*
D03*
X1493110Y196358D02*
D03*
X67913Y211024D02*
D03*
X1545669Y191831D02*
D03*
X60335Y178445D02*
D03*
Y185039D02*
D03*
X60827Y140945D02*
D03*
X75197Y161221D02*
D03*
X71949D02*
D03*
X50000Y132874D02*
D03*
X60433Y245276D02*
D03*
M02*
