M48
;Layer_Color=9474304
;FILE_FORMAT=2:5
INCH,LZ
;TYPE=PLATED
T1F00S00C0.00787
T2F00S00C0.01181
T4F00S00C0.01968
T5F00S00C0.02362
T6F00S00C0.05906
T7F00S00C0.19685
%
T01
X0062894Y0075492
X0074902Y0075197
X0075787Y0106496
X0079724
X0083662
X0087598Y0106595
X0091535Y0106496
X009439Y0111221
Y0115256
Y0119095
Y0123031
Y0126969
Y0130905
Y0134843
Y0138779
X0089567Y0141634
X008563
X0089764Y0152657
X0079728Y0156208
X0073622Y0152657
X0060827Y0140945
Y0136614
X006063Y0132283
X0059649Y0129239
X006191Y0127461
X0060433Y0124409
Y0120079
X0059255Y0115751
X0059153Y0112894
X0060728Y0109252
X0060039Y0101772
X0067913Y0106595
X007185
X0048622Y0111221
X0054626Y011811
X005Y0132874
X0119587Y0154528
X017126Y0154331
X0221358Y0153051
X0222835Y011939
X0232284Y0116929
X0268898Y0137402
X0279331Y0128051
X0300689Y0154528
X0352264Y0154331
X0402067Y0151181
X0404035Y011939
X0413386Y0116929
X045Y0137402
X0460433Y0128051
X0481791Y0154528
X0533563
X0583071Y0150394
X0584941Y0119587
X0594488Y0116929
X0631102Y0137402
X0641535Y0128051
X0662894Y0154528
X0714468Y0154331
X0764272Y0148327
X0766043Y0119783
X0775591Y0116929
X0812205Y0137402
X0822638Y0128051
X0843996Y0154528
X0895669Y0154527
X0945472Y0146752
X0947244Y0119488
X0956693Y0116929
X0993307Y0137402
X100374Y0128051
X1025098Y0154528
X1076772Y0154429
X1126575Y0145177
X1128248Y0119488
X1137796Y0116929
X1174409Y0137402
X1184842Y0128051
X1206201Y0154528
X1257874Y0154527
X130748Y0143996
X1309449Y0119587
X1318898Y0116929
X1355512Y0137402
X1365945Y0128051
X1387303Y0154528
X1448327Y0142323
X1471555Y0125295
X1490453Y0119488
X15Y0116929
X1488976Y0136811
X1536614Y0137402
X1547047Y0128051
X1524016Y0162205
X1545669Y0191831
X154065Y0197835
X149311Y0196358
X1488976Y0197736
X1451378Y015689
X1445866
X1434842Y0232874
X1427952Y0235433
X1391339Y0214961
X1380906Y0224311
X1380217Y0196555
X1364665Y0201969
X1359547Y0197835
X1307579Y0197835
X1308957Y0202067
X1342913Y0162205
X137989Y0160539
X1403937Y0190157
X1256299Y0232677
X124685Y0235433
X1210236Y0214961
X1199803Y0224311
X1191831Y0205807
Y0202953
X1183563Y0204921
X1178445Y0197835
X1126476Y0197835
X1128248Y0205709
X1161811Y0162205
X1201181Y0160539
X1222835Y0190157
X1041732
X1029134Y0214961
X1018701Y0224311
X1010925Y0209154
Y0206496
X1002362Y0208366
X0997342Y0197835
X0945472Y0197835
X0946653Y0209055
X0980709Y0162205
X1020079Y0160433
X1065748Y0235433
X1075295Y0232677
X0894094Y0232874
X0884645Y0235433
X0848032Y0214961
X0833957Y021309
Y0209744
X0821555Y0211319
X081624Y0197835
X0837598Y0224311
X086063Y0190157
X0838976Y0160539
X0799606Y0162205
X0764272Y0198031
X0766043Y021309
X0712992Y0232874
X0703543Y0235433
X0666929Y0214961
X0656496Y0224311
X0649016Y0221358
Y0218701
X0640158Y0220374
X0635138Y0197835
X0679528Y0190157
X0657874Y016063
X0618504Y0162205
X0583268Y0197835
X0584941Y0220571
X0531988Y0232776
X0522441Y0235433
X0485827Y0214961
X0475394Y0224311
X0498425Y0190157
X0476772Y0160433
X0437402Y0162205
X0454035Y0197835
X0458957Y0223721
X0467126Y0222638
Y022559
X0403937Y0224016
X0402264Y0197835
X0350787Y0233071
X0341338Y0235433
X0317323Y0190157
X0304724Y0214961
X0294291Y0224311
X0285827Y0227953
Y0230906
X0279823Y0230413
X0272933Y0197835
X022126Y0197835
X0222835Y0230118
X0169685Y0232874
X0160236Y0235433
X0256299Y0162205
X0295669Y0160433
X0114567
X009843Y0161917
X0094488Y0161811
X008789Y0167323
Y0185039
X0098528Y0190364
X0098425Y0176181
X0075197Y0161221
X0071949
X0067118Y0167323
X0055118
X0056496Y0178445
X0060335
Y0185039
X0055118
X0067224Y0185335
X0067913Y0211024
X0071949
X0075788
X0079724
X0083563
X0087598
X008563Y0213583
X0081693
X0077756Y0213582
X0073819Y0213583
X0069882
X0060433Y0215551
Y021939
X006063Y022441
X0060433Y022874
X0060335Y0232677
X0060433Y0236847
X0060236Y0240945
X0060433Y0245276
X0059646Y0251083
X0065158Y0262657
X0071457Y0262402
X0049902Y026191
X0045118Y0262697
X004498Y0234252
X004252Y0229331
X0050492
X005Y0237205
X0054718Y0222441
X005Y0217618
X0048917Y0213583
X0060433Y0206201
X0094685Y0213583
X0092913Y0215551
X0094685Y021752
X0092913Y0219587
X0094685Y0221457
X0092913Y0223425
X0094685Y0225394
X0092913Y0227362
X0094685Y0229331
X0092913Y0231201
X0094685Y0233268
X0092913Y0235236
X0094784Y0237205
X0093012Y0239075
X0094784Y0241142
X0093012Y024311
X0091535Y0246358
X0089665Y0244587
X0087598Y0246358
X008563Y0244587
X0083662Y0246358
X0109744Y0240158
Y0237502
X0113189Y0224311
X0123622Y0214961
X0136221Y0190157
X0074803Y0281693
X0062992Y0277244
T02
X0047244Y0125
X0095768Y0154724
X0098425
X0101181
Y0197736
X0098425
X0095768
X0047244Y0229331
T04
X0148425Y013937
X0153347
X0329528
X0334449
X051063
X0515551
X0691732
X0696654
X0872835
X0877756
X1053937
X1058858
X1235039
X1239961
X1416142
X1421063
X150689Y0212992
X1511811
X1330709
X1325787
X1149606
X1144685
X0968504
X0963583
X0787402
X078248
X0606299
X0601378
X0425197
X0420276
X0244094Y0212992
X0239173
T05
X003937Y0233463
Y0240158
Y0246457
Y0252757
T06
X0076772Y0124016
Y0228346
T07
X0150886Y0087598
X0241634
X0331988
X0422736Y0087598
X0513091Y0087598
X0603839Y0087598
X0694193Y0087598
X0784941Y0087598
X0875295Y0087598
X0966043Y0087598
X1056398Y0087598
X1147146Y0087598
X12375Y0087598
X1328248Y0087598
X1418602Y0087598
X150935Y0087598
Y0264764
X1418602Y0264764
X1328248Y0264764
X12375Y0264764
X1147146Y0264764
X1056398Y0264764
X0966043Y0264764
X0875295Y0264764
X0784941Y0264764
X0694193Y0264764
X0603839Y0264764
X0513091Y0264764
X0422736Y0264764
X0331988Y0264764
X0241634
X0150886
M30
