G04*
G04 #@! TF.GenerationSoftware,Altium Limited,Altium Designer,19.0.12 (326)*
G04*
G04 Layer_Color=8388736*
%FSLAX25Y25*%
%MOIN*%
G70*
G01*
G75*
%ADD14R,0.03153X0.03350*%
%ADD15R,0.10999X0.08700*%
%ADD16R,0.13704X0.06696*%
%ADD17R,0.05200X0.10200*%
%ADD18R,0.22798X0.22798*%
%ADD19R,0.05953X0.01263*%
%ADD20R,0.01263X0.05953*%
%ADD21R,0.03350X0.03153*%
%ADD22R,0.04924X0.08861*%
%ADD23R,0.25200X0.30200*%
%ADD24R,0.04800X0.06500*%
%ADD25R,0.06500X0.04800*%
%ADD26R,0.12602X0.07917*%
%ADD27R,0.02169X0.03350*%
G04:AMPARAMS|DCode=28|XSize=84.68mil|YSize=29.56mil|CornerRadius=14.78mil|HoleSize=0mil|Usage=FLASHONLY|Rotation=0.000|XOffset=0mil|YOffset=0mil|HoleType=Round|Shape=RoundedRectangle|*
%AMROUNDEDRECTD28*
21,1,0.08468,0.00000,0,0,0.0*
21,1,0.05512,0.02956,0,0,0.0*
1,1,0.02956,0.02756,0.00000*
1,1,0.02956,-0.02756,0.00000*
1,1,0.02956,-0.02756,0.00000*
1,1,0.02956,0.02756,0.00000*
%
%ADD28ROUNDEDRECTD28*%
%ADD29C,0.39570*%
%ADD30C,0.04137*%
%ADD31C,0.02562*%
%ADD32C,0.01972*%
%ADD33C,0.08074*%
G36*
X51321Y259749D02*
X58521D01*
Y259149D01*
X51321D01*
Y259749D01*
D02*
G37*
G36*
X61656D02*
X68856D01*
Y259149D01*
X61656D01*
Y259749D01*
D02*
G37*
D14*
X98425Y190945D02*
D03*
Y185039D02*
D03*
Y161417D02*
D03*
Y167323D02*
D03*
X47244Y229331D02*
D03*
Y223425D02*
D03*
X1535433Y191929D02*
D03*
Y197835D02*
D03*
X1392520Y160433D02*
D03*
Y154527D02*
D03*
X1354331Y191929D02*
D03*
Y197835D02*
D03*
X1211417Y160433D02*
D03*
Y154527D02*
D03*
X1173228Y191929D02*
D03*
Y197835D02*
D03*
X1030315Y160433D02*
D03*
Y154527D02*
D03*
X992126Y191929D02*
D03*
Y197835D02*
D03*
X849213Y160433D02*
D03*
Y154527D02*
D03*
X811024Y191929D02*
D03*
Y197835D02*
D03*
X668110Y160433D02*
D03*
Y154527D02*
D03*
X629921Y191929D02*
D03*
Y197835D02*
D03*
X487008Y160433D02*
D03*
Y154527D02*
D03*
X448819Y191929D02*
D03*
Y197835D02*
D03*
X305906Y160433D02*
D03*
Y154527D02*
D03*
X267717Y191929D02*
D03*
Y197835D02*
D03*
X124803Y160433D02*
D03*
Y154527D02*
D03*
X47244Y125000D02*
D03*
Y119095D02*
D03*
X1488976Y197835D02*
D03*
Y191929D02*
D03*
X1438976Y154527D02*
D03*
Y160433D02*
D03*
X1307874Y197835D02*
D03*
Y191929D02*
D03*
X1257874Y154527D02*
D03*
Y160433D02*
D03*
X1126772Y197835D02*
D03*
Y191929D02*
D03*
X1076772Y154527D02*
D03*
Y160433D02*
D03*
X945669Y197835D02*
D03*
Y191929D02*
D03*
X895669Y154527D02*
D03*
Y160433D02*
D03*
X764567Y197835D02*
D03*
Y191929D02*
D03*
X714567Y154527D02*
D03*
Y160433D02*
D03*
X583465Y197835D02*
D03*
Y191929D02*
D03*
X533465Y154527D02*
D03*
Y160433D02*
D03*
X402362Y197835D02*
D03*
Y191929D02*
D03*
X352362Y154527D02*
D03*
Y160433D02*
D03*
X221260Y197835D02*
D03*
Y191929D02*
D03*
X171260Y154527D02*
D03*
Y160433D02*
D03*
X1545669Y197835D02*
D03*
Y191929D02*
D03*
X1382283Y154527D02*
D03*
Y160433D02*
D03*
X1364567Y197835D02*
D03*
Y191929D02*
D03*
X1201181Y154527D02*
D03*
Y160433D02*
D03*
X1183465Y197835D02*
D03*
Y191929D02*
D03*
X1020079Y154527D02*
D03*
Y160433D02*
D03*
X1002362Y197835D02*
D03*
Y191929D02*
D03*
X838976Y154527D02*
D03*
Y160433D02*
D03*
X821260Y197835D02*
D03*
Y191929D02*
D03*
X657874Y154527D02*
D03*
Y160433D02*
D03*
X640158Y197835D02*
D03*
Y191929D02*
D03*
X476772Y154527D02*
D03*
Y160433D02*
D03*
X459055Y197835D02*
D03*
Y191929D02*
D03*
X295669Y154527D02*
D03*
Y160433D02*
D03*
X277953Y197835D02*
D03*
Y191929D02*
D03*
X114567Y154527D02*
D03*
Y160433D02*
D03*
X1490551Y113583D02*
D03*
Y119488D02*
D03*
X1437402Y238779D02*
D03*
Y232874D02*
D03*
X1309449Y113583D02*
D03*
Y119488D02*
D03*
X1256299Y238779D02*
D03*
Y232874D02*
D03*
X1128347Y113583D02*
D03*
Y119488D02*
D03*
X1075197Y238779D02*
D03*
Y232874D02*
D03*
X947244Y113583D02*
D03*
Y119488D02*
D03*
X894094Y238779D02*
D03*
Y232874D02*
D03*
X766142Y113583D02*
D03*
Y119488D02*
D03*
X712992Y238779D02*
D03*
Y232874D02*
D03*
X585039Y113583D02*
D03*
Y119488D02*
D03*
X531890Y238779D02*
D03*
Y232874D02*
D03*
X403937Y113583D02*
D03*
Y119488D02*
D03*
X350787Y238779D02*
D03*
Y232874D02*
D03*
X222835Y113583D02*
D03*
Y119488D02*
D03*
X169685Y238779D02*
D03*
Y232874D02*
D03*
X42520Y223425D02*
D03*
Y229331D02*
D03*
X1530315Y191929D02*
D03*
Y197835D02*
D03*
X1397638Y160433D02*
D03*
Y154527D02*
D03*
X1349213Y191929D02*
D03*
Y197835D02*
D03*
X1216535Y160433D02*
D03*
Y154527D02*
D03*
X1168110Y191929D02*
D03*
Y197835D02*
D03*
X1035433Y160433D02*
D03*
Y154527D02*
D03*
X987008Y191929D02*
D03*
Y197835D02*
D03*
X854331Y160433D02*
D03*
Y154527D02*
D03*
X805906Y191929D02*
D03*
Y197835D02*
D03*
X673228Y160433D02*
D03*
Y154527D02*
D03*
X624803Y191929D02*
D03*
Y197835D02*
D03*
X492126Y160433D02*
D03*
Y154527D02*
D03*
X443701Y191929D02*
D03*
Y197835D02*
D03*
X311024Y160433D02*
D03*
Y154527D02*
D03*
X262598Y191929D02*
D03*
Y197835D02*
D03*
X129921Y160433D02*
D03*
Y154527D02*
D03*
X42520Y119095D02*
D03*
Y125000D02*
D03*
X1540551Y197835D02*
D03*
Y191929D02*
D03*
X1387402Y154527D02*
D03*
Y160433D02*
D03*
X1359449Y197835D02*
D03*
Y191929D02*
D03*
X1206299Y154527D02*
D03*
Y160433D02*
D03*
X1178347Y197835D02*
D03*
Y191929D02*
D03*
X1025197Y154527D02*
D03*
Y160433D02*
D03*
X997244Y197835D02*
D03*
Y191929D02*
D03*
X844094Y154527D02*
D03*
Y160433D02*
D03*
X816142Y197835D02*
D03*
Y191929D02*
D03*
X662992Y154527D02*
D03*
Y160433D02*
D03*
X635039Y197835D02*
D03*
Y191929D02*
D03*
X481890Y154527D02*
D03*
Y160433D02*
D03*
X453937Y197835D02*
D03*
Y191929D02*
D03*
X300787Y154527D02*
D03*
Y160433D02*
D03*
X272835Y197835D02*
D03*
Y191929D02*
D03*
X119685Y154527D02*
D03*
Y160433D02*
D03*
D15*
X1460630Y126437D02*
D03*
Y143839D02*
D03*
D16*
X90118Y61614D02*
D03*
X47678D02*
D03*
Y290748D02*
D03*
X90118D02*
D03*
D17*
X62992Y75118D02*
D03*
X74804D02*
D03*
Y277244D02*
D03*
X62992D02*
D03*
D18*
X76772Y228346D02*
D03*
Y124016D02*
D03*
D19*
X54626Y213582D02*
D03*
Y215551D02*
D03*
Y217519D02*
D03*
Y219489D02*
D03*
Y221457D02*
D03*
Y223426D02*
D03*
Y225394D02*
D03*
Y227362D02*
D03*
Y229330D02*
D03*
Y231299D02*
D03*
Y233267D02*
D03*
Y235237D02*
D03*
Y237205D02*
D03*
Y239174D02*
D03*
Y241142D02*
D03*
Y243110D02*
D03*
X98918D02*
D03*
Y241142D02*
D03*
Y239174D02*
D03*
Y237205D02*
D03*
Y235237D02*
D03*
Y233267D02*
D03*
Y231299D02*
D03*
Y229330D02*
D03*
Y227362D02*
D03*
Y225394D02*
D03*
Y223426D02*
D03*
Y221457D02*
D03*
Y219489D02*
D03*
Y217519D02*
D03*
Y215551D02*
D03*
Y213582D02*
D03*
X54626Y109252D02*
D03*
Y111221D02*
D03*
Y113189D02*
D03*
Y115158D02*
D03*
Y117126D02*
D03*
Y119095D02*
D03*
Y121063D02*
D03*
Y123032D02*
D03*
Y125000D02*
D03*
Y126969D02*
D03*
Y128937D02*
D03*
Y130906D02*
D03*
Y132874D02*
D03*
Y134843D02*
D03*
Y136811D02*
D03*
Y138780D02*
D03*
X98918D02*
D03*
Y136811D02*
D03*
Y134843D02*
D03*
Y132874D02*
D03*
Y130906D02*
D03*
Y128937D02*
D03*
Y126969D02*
D03*
Y125000D02*
D03*
Y123032D02*
D03*
Y121063D02*
D03*
Y119095D02*
D03*
Y117126D02*
D03*
Y115158D02*
D03*
Y113189D02*
D03*
Y111221D02*
D03*
Y109252D02*
D03*
D20*
X62008Y250493D02*
D03*
X63977D02*
D03*
X65945D02*
D03*
X67914D02*
D03*
X69882D02*
D03*
X71851D02*
D03*
X73819D02*
D03*
X75788D02*
D03*
X77756D02*
D03*
X79725D02*
D03*
X81693D02*
D03*
X83662D02*
D03*
X85630D02*
D03*
X87599D02*
D03*
X89567D02*
D03*
X91536D02*
D03*
Y206201D02*
D03*
X89567D02*
D03*
X87599D02*
D03*
X85630D02*
D03*
X83662D02*
D03*
X81693D02*
D03*
X79725D02*
D03*
X77756D02*
D03*
X75788D02*
D03*
X73819D02*
D03*
X71851D02*
D03*
X69882D02*
D03*
X67914D02*
D03*
X65945D02*
D03*
X63977D02*
D03*
X62008D02*
D03*
Y146162D02*
D03*
X63977D02*
D03*
X65945D02*
D03*
X67914D02*
D03*
X69882D02*
D03*
X71851D02*
D03*
X73819D02*
D03*
X75788D02*
D03*
X77756D02*
D03*
X79725D02*
D03*
X81693D02*
D03*
X83662D02*
D03*
X85630D02*
D03*
X87599D02*
D03*
X89567D02*
D03*
X91536D02*
D03*
Y101870D02*
D03*
X89567D02*
D03*
X87599D02*
D03*
X85630D02*
D03*
X83662D02*
D03*
X81693D02*
D03*
X79725D02*
D03*
X77756D02*
D03*
X75788D02*
D03*
X73819D02*
D03*
X71851D02*
D03*
X69882D02*
D03*
X67914D02*
D03*
X65945D02*
D03*
X63977D02*
D03*
X62008D02*
D03*
D21*
X89764Y256594D02*
D03*
X83858D02*
D03*
X89764Y152657D02*
D03*
X83858D02*
D03*
X73819Y256594D02*
D03*
X79724D02*
D03*
X73622Y152657D02*
D03*
X79528D02*
D03*
D22*
X1518110Y116929D02*
D03*
X1500000D02*
D03*
X1409842Y235433D02*
D03*
X1427952D02*
D03*
X1337008Y116929D02*
D03*
X1318898D02*
D03*
X1228740Y235433D02*
D03*
X1246850D02*
D03*
X1155906Y116929D02*
D03*
X1137796D02*
D03*
X1047638Y235433D02*
D03*
X1065748D02*
D03*
X974803Y116929D02*
D03*
X956693D02*
D03*
X866535Y235433D02*
D03*
X884645D02*
D03*
X793701Y116929D02*
D03*
X775591D02*
D03*
X685433Y235433D02*
D03*
X703543D02*
D03*
X612598Y116929D02*
D03*
X594488D02*
D03*
X504331Y235433D02*
D03*
X522441D02*
D03*
X431496Y116929D02*
D03*
X413386D02*
D03*
X323228Y235433D02*
D03*
X341338D02*
D03*
X250394Y116929D02*
D03*
X232284D02*
D03*
X142126Y235433D02*
D03*
X160236D02*
D03*
D23*
X1509055Y146063D02*
D03*
X1418898Y206299D02*
D03*
X1327953Y146063D02*
D03*
X1237795Y206299D02*
D03*
X1146850Y146063D02*
D03*
X1056693Y206299D02*
D03*
X965748Y146063D02*
D03*
X875590Y206299D02*
D03*
X784646Y146063D02*
D03*
X694488Y206299D02*
D03*
X603543Y146063D02*
D03*
X513386Y206299D02*
D03*
X422441Y146063D02*
D03*
X332283Y206299D02*
D03*
X241339Y146063D02*
D03*
X151181Y206299D02*
D03*
D24*
X87890Y185039D02*
D03*
X81890D02*
D03*
X75890D02*
D03*
X55118D02*
D03*
X61118D02*
D03*
X67118D02*
D03*
X87890Y167323D02*
D03*
X81890D02*
D03*
X75890D02*
D03*
X55118D02*
D03*
X61118D02*
D03*
X67118D02*
D03*
D25*
X54921Y262449D02*
D03*
Y256449D02*
D03*
X65256Y262449D02*
D03*
Y256449D02*
D03*
D26*
X1540551Y118287D02*
D03*
Y137618D02*
D03*
X1387402Y234075D02*
D03*
Y214744D02*
D03*
X1359449Y118287D02*
D03*
Y137618D02*
D03*
X1206299Y234075D02*
D03*
Y214744D02*
D03*
X1178347Y118287D02*
D03*
Y137618D02*
D03*
X1025197Y234075D02*
D03*
Y214744D02*
D03*
X997244Y118287D02*
D03*
Y137618D02*
D03*
X844094Y234075D02*
D03*
Y214744D02*
D03*
X816142Y118287D02*
D03*
Y137618D02*
D03*
X662992Y234075D02*
D03*
Y214744D02*
D03*
X635039Y118287D02*
D03*
Y137618D02*
D03*
X481890Y234075D02*
D03*
Y214744D02*
D03*
X453937Y118287D02*
D03*
Y137618D02*
D03*
X300787Y234075D02*
D03*
Y214744D02*
D03*
X272835Y118287D02*
D03*
Y137618D02*
D03*
X119685Y234075D02*
D03*
Y214744D02*
D03*
X1478347Y144902D02*
D03*
Y125571D02*
D03*
X1449606Y214744D02*
D03*
Y234075D02*
D03*
X1297244Y137618D02*
D03*
Y118287D02*
D03*
X1268504Y214744D02*
D03*
Y234075D02*
D03*
X1116142Y137618D02*
D03*
Y118287D02*
D03*
X1087402Y214744D02*
D03*
Y234075D02*
D03*
X935039Y137618D02*
D03*
Y118287D02*
D03*
X906299Y214744D02*
D03*
Y234075D02*
D03*
X753937Y137618D02*
D03*
Y118287D02*
D03*
X725197Y214744D02*
D03*
Y234075D02*
D03*
X572835Y137618D02*
D03*
Y118287D02*
D03*
X544095Y214744D02*
D03*
Y234075D02*
D03*
X391732Y137618D02*
D03*
Y118287D02*
D03*
X362992Y214744D02*
D03*
Y234075D02*
D03*
X210630Y137618D02*
D03*
Y118287D02*
D03*
X181890Y214744D02*
D03*
Y234075D02*
D03*
D27*
X40354Y233463D02*
D03*
Y252757D02*
D03*
Y246457D02*
D03*
Y240158D02*
D03*
D28*
X1509350Y297638D02*
D03*
X1499350Y268228D02*
D03*
X1519350D02*
D03*
X1499350Y84134D02*
D03*
X1519350D02*
D03*
X1509350Y54724D02*
D03*
X1328248Y297638D02*
D03*
X1318248Y268228D02*
D03*
X1338248D02*
D03*
X1318248Y84134D02*
D03*
X1338248D02*
D03*
X1328248Y54724D02*
D03*
X1147146Y297638D02*
D03*
X1137146Y268228D02*
D03*
X1157146D02*
D03*
X1137146Y84134D02*
D03*
X1157146D02*
D03*
X1147146Y54724D02*
D03*
X966043Y297638D02*
D03*
X956043Y268228D02*
D03*
X976043D02*
D03*
X956043Y84134D02*
D03*
X976043D02*
D03*
X966043Y54724D02*
D03*
X784941Y297638D02*
D03*
X774941Y268228D02*
D03*
X794941D02*
D03*
X774941Y84134D02*
D03*
X794941D02*
D03*
X784941Y54724D02*
D03*
X603839Y297638D02*
D03*
X593839Y268228D02*
D03*
X613839D02*
D03*
X593839Y84134D02*
D03*
X613839D02*
D03*
X603839Y54724D02*
D03*
X422736Y297638D02*
D03*
X412736Y268228D02*
D03*
X432736D02*
D03*
X412736Y84134D02*
D03*
X432736D02*
D03*
X422736Y54724D02*
D03*
X241634Y297638D02*
D03*
X231634Y268228D02*
D03*
X251634D02*
D03*
X231634Y84134D02*
D03*
X251634D02*
D03*
X241634Y54724D02*
D03*
X1418602D02*
D03*
X1428602Y84134D02*
D03*
X1408602D02*
D03*
X1428602Y268228D02*
D03*
X1408602D02*
D03*
X1418602Y297638D02*
D03*
X1237500Y54724D02*
D03*
X1247500Y84134D02*
D03*
X1227500D02*
D03*
X1247500Y268228D02*
D03*
X1227500D02*
D03*
X1237500Y297638D02*
D03*
X1056398Y54724D02*
D03*
X1066398Y84134D02*
D03*
X1046398D02*
D03*
X1066398Y268228D02*
D03*
X1046398D02*
D03*
X1056398Y297638D02*
D03*
X875295Y54724D02*
D03*
X885295Y84134D02*
D03*
X865295D02*
D03*
X885295Y268228D02*
D03*
X865295D02*
D03*
X875295Y297638D02*
D03*
X694193Y54724D02*
D03*
X704193Y84134D02*
D03*
X684193D02*
D03*
X704193Y268228D02*
D03*
X684193D02*
D03*
X694193Y297638D02*
D03*
X513091Y54724D02*
D03*
X523091Y84134D02*
D03*
X503091D02*
D03*
X523091Y268228D02*
D03*
X503091D02*
D03*
X513091Y297638D02*
D03*
X331988Y54724D02*
D03*
X341988Y84134D02*
D03*
X321988D02*
D03*
X341988Y268228D02*
D03*
X321988D02*
D03*
X331988Y297638D02*
D03*
X150886Y54724D02*
D03*
X160886Y84134D02*
D03*
X140886D02*
D03*
X160886Y268228D02*
D03*
X140886D02*
D03*
X150886Y297638D02*
D03*
D29*
X1509350Y264764D02*
D03*
Y87598D02*
D03*
X1328248Y264764D02*
D03*
Y87598D02*
D03*
X1147146Y264764D02*
D03*
Y87598D02*
D03*
X966043Y264764D02*
D03*
Y87598D02*
D03*
X784941Y264764D02*
D03*
Y87598D02*
D03*
X603839Y264764D02*
D03*
Y87598D02*
D03*
X422736Y264764D02*
D03*
Y87598D02*
D03*
X241634Y264764D02*
D03*
Y87598D02*
D03*
X1418602D02*
D03*
Y264764D02*
D03*
X1237500Y87598D02*
D03*
Y264764D02*
D03*
X1056398Y87598D02*
D03*
Y264764D02*
D03*
X875295Y87598D02*
D03*
Y264764D02*
D03*
X694193Y87598D02*
D03*
Y264764D02*
D03*
X513091Y87598D02*
D03*
Y264764D02*
D03*
X331988Y87598D02*
D03*
Y264764D02*
D03*
X150886Y87598D02*
D03*
Y264764D02*
D03*
D30*
X1506890Y212992D02*
D03*
X1511811D02*
D03*
X1325787D02*
D03*
X1330709D02*
D03*
X1144685D02*
D03*
X1149606D02*
D03*
X963583D02*
D03*
X968504D02*
D03*
X782480D02*
D03*
X787402D02*
D03*
X601378D02*
D03*
X606299D02*
D03*
X420276D02*
D03*
X425197D02*
D03*
X239173Y212992D02*
D03*
X244094D02*
D03*
X1421063Y139370D02*
D03*
X1416142D02*
D03*
X1239961D02*
D03*
X1235039D02*
D03*
X1058858D02*
D03*
X1053937D02*
D03*
X877756D02*
D03*
X872835D02*
D03*
X696654D02*
D03*
X691732D02*
D03*
X515551D02*
D03*
X510630D02*
D03*
X334449D02*
D03*
X329528D02*
D03*
X153347D02*
D03*
X148425D02*
D03*
D31*
X47244Y125000D02*
D03*
Y229331D02*
D03*
X95768Y197736D02*
D03*
Y154724D02*
D03*
X98425D02*
D03*
X101181D02*
D03*
Y197736D02*
D03*
X98425D02*
D03*
D32*
X1448327Y142323D02*
D03*
X1471555Y125295D02*
D03*
X98425Y176181D02*
D03*
X79728Y156208D02*
D03*
X61910Y127461D02*
D03*
X59649Y129239D02*
D03*
X94488Y161811D02*
D03*
X98528Y190364D02*
D03*
X98430Y161917D02*
D03*
X69882Y213583D02*
D03*
X50492Y229331D02*
D03*
X50000Y237205D02*
D03*
X56496Y178445D02*
D03*
X71457Y262402D02*
D03*
X1451378Y156890D02*
D03*
X1445866D02*
D03*
X74803Y281693D02*
D03*
X49902Y261910D02*
D03*
X59646Y251083D02*
D03*
X44980Y234252D02*
D03*
X65158Y262657D02*
D03*
X45118Y262697D02*
D03*
X60039Y101772D02*
D03*
X60433Y120079D02*
D03*
Y124409D02*
D03*
X48622Y111221D02*
D03*
X60728Y109252D02*
D03*
X1490453Y119488D02*
D03*
X285827Y227953D02*
D03*
X54718Y222441D02*
D03*
X54626Y118110D02*
D03*
X60335Y232677D02*
D03*
X42520Y229331D02*
D03*
X83662Y246358D02*
D03*
X85630Y244587D02*
D03*
X87598Y246358D02*
D03*
X91535D02*
D03*
X55118Y167323D02*
D03*
Y185039D02*
D03*
X87890D02*
D03*
Y167323D02*
D03*
X73622Y152657D02*
D03*
X89764D02*
D03*
X67224Y185335D02*
D03*
X67118Y167323D02*
D03*
X1488976Y197736D02*
D03*
Y136811D02*
D03*
X1307579Y197835D02*
D03*
X1307480Y143996D02*
D03*
X1257874Y154527D02*
D03*
X1126476Y197835D02*
D03*
X1126575Y145177D02*
D03*
X1076772Y154429D02*
D03*
X945472Y197835D02*
D03*
Y146752D02*
D03*
X895669Y154527D02*
D03*
X764272Y198031D02*
D03*
Y148327D02*
D03*
X714468Y154331D02*
D03*
X583268Y197835D02*
D03*
X583071Y150394D02*
D03*
X533563Y154528D02*
D03*
X402264Y197835D02*
D03*
X402067Y151181D02*
D03*
X352264Y154331D02*
D03*
X221260Y197835D02*
D03*
X221358Y153051D02*
D03*
X171260Y154331D02*
D03*
X85630Y141634D02*
D03*
X89567D02*
D03*
X94390Y138779D02*
D03*
Y134843D02*
D03*
Y130905D02*
D03*
Y126969D02*
D03*
Y123031D02*
D03*
Y119095D02*
D03*
Y115256D02*
D03*
Y111221D02*
D03*
X91535Y106496D02*
D03*
X87598Y106595D02*
D03*
X83662Y106496D02*
D03*
X79724D02*
D03*
X75787D02*
D03*
X71850Y106595D02*
D03*
X67913D02*
D03*
X169685Y232874D02*
D03*
X109744Y240158D02*
D03*
X114567Y160433D02*
D03*
X109744Y237502D02*
D03*
X222835Y230118D02*
D03*
X222835Y119390D02*
D03*
X279823Y230413D02*
D03*
X285827Y230906D02*
D03*
X350787Y233071D02*
D03*
X295669Y160433D02*
D03*
X403937Y224016D02*
D03*
X404035Y119390D02*
D03*
X458957Y223721D02*
D03*
X467126Y225590D02*
D03*
X531988Y232776D02*
D03*
X476772Y160433D02*
D03*
X467126Y222638D02*
D03*
X584941Y220571D02*
D03*
Y119587D02*
D03*
X640158Y220374D02*
D03*
X712992Y232874D02*
D03*
X649016Y221358D02*
D03*
X657874Y160630D02*
D03*
X649016Y218701D02*
D03*
X766043Y213090D02*
D03*
Y119783D02*
D03*
X821555Y211319D02*
D03*
X833957Y213090D02*
D03*
X894094Y232874D02*
D03*
X838976Y160539D02*
D03*
X833957Y209744D02*
D03*
X946653Y209055D02*
D03*
X92913Y219587D02*
D03*
X947244Y119488D02*
D03*
X1002362Y208366D02*
D03*
X62894Y75492D02*
D03*
X74902Y75197D02*
D03*
X62992Y277244D02*
D03*
X89665Y244587D02*
D03*
X94784Y237205D02*
D03*
X93012Y239075D02*
D03*
X94784Y241142D02*
D03*
X93012Y243110D02*
D03*
X92913Y235236D02*
D03*
X94685Y233268D02*
D03*
X92913Y231201D02*
D03*
X94685Y229331D02*
D03*
X92913Y227362D02*
D03*
X94685Y225394D02*
D03*
X94685Y221457D02*
D03*
Y217520D02*
D03*
X92913Y215551D02*
D03*
Y223425D02*
D03*
X94685Y213583D02*
D03*
X1010925Y209154D02*
D03*
X1075295Y232677D02*
D03*
X1020079Y160433D02*
D03*
X1010925Y206496D02*
D03*
X1128248Y205709D02*
D03*
Y119488D02*
D03*
X1183563Y204921D02*
D03*
X1191831Y205807D02*
D03*
X1256299Y232677D02*
D03*
X1201181Y160539D02*
D03*
X1191831Y202953D02*
D03*
X1308957Y202067D02*
D03*
X1309449Y119587D02*
D03*
X1364665Y201969D02*
D03*
X83563Y211024D02*
D03*
X79724D02*
D03*
X87598D02*
D03*
X85630Y213583D02*
D03*
X81693D02*
D03*
X77756Y213582D02*
D03*
X75788Y211024D02*
D03*
X73819Y213583D02*
D03*
X71949Y211024D02*
D03*
X123622Y214961D02*
D03*
X1359547Y197835D02*
D03*
X1434842Y232874D02*
D03*
X1178445Y197835D02*
D03*
X1380217Y196555D02*
D03*
X1379890Y160539D02*
D03*
X1493110Y196358D02*
D03*
X67913Y211024D02*
D03*
X1545669Y191831D02*
D03*
X1524016Y162205D02*
D03*
X1540650Y197835D02*
D03*
X1536614Y137402D02*
D03*
X1500000Y116929D02*
D03*
X1547047Y128051D02*
D03*
X1342913Y162205D02*
D03*
X1355512Y137402D02*
D03*
X1318898Y116929D02*
D03*
X1365945Y128051D02*
D03*
X1161811Y162205D02*
D03*
X1174409Y137402D02*
D03*
X1137796Y116929D02*
D03*
X1184842Y128051D02*
D03*
X980709Y162205D02*
D03*
X997342Y197835D02*
D03*
X993307Y137402D02*
D03*
X956693Y116929D02*
D03*
X1003740Y128051D02*
D03*
X799606Y162205D02*
D03*
X816240Y197835D02*
D03*
X812205Y137402D02*
D03*
X775591Y116929D02*
D03*
X822638Y128051D02*
D03*
X618504Y162205D02*
D03*
X635138Y197835D02*
D03*
X631102Y137402D02*
D03*
X594488Y116929D02*
D03*
X641535Y128051D02*
D03*
X437402Y162205D02*
D03*
X454035Y197835D02*
D03*
X450000Y137402D02*
D03*
X413386Y116929D02*
D03*
X460433Y128051D02*
D03*
X1387303Y154528D02*
D03*
X1403937Y190157D02*
D03*
X1391339Y214961D02*
D03*
X1427952Y235433D02*
D03*
X1380906Y224311D02*
D03*
X1206201Y154528D02*
D03*
X1222835Y190157D02*
D03*
X1210236Y214961D02*
D03*
X1246850Y235433D02*
D03*
X1199803Y224311D02*
D03*
X1025098Y154528D02*
D03*
X1041732Y190157D02*
D03*
X1029134Y214961D02*
D03*
X1065748Y235433D02*
D03*
X1018701Y224311D02*
D03*
X843996Y154528D02*
D03*
X860630Y190157D02*
D03*
X848032Y214961D02*
D03*
X884645Y235433D02*
D03*
X837598Y224311D02*
D03*
X662894Y154528D02*
D03*
X679528Y190157D02*
D03*
X666929Y214961D02*
D03*
X703543Y235433D02*
D03*
X656496Y224311D02*
D03*
X481791Y154528D02*
D03*
X498425Y190157D02*
D03*
X485827Y214961D02*
D03*
X522441Y235433D02*
D03*
X475394Y224311D02*
D03*
X300689Y154528D02*
D03*
X317323Y190157D02*
D03*
X304724Y214961D02*
D03*
X341338Y235433D02*
D03*
X294291Y224311D02*
D03*
X272933Y197835D02*
D03*
X256299Y162205D02*
D03*
X268898Y137402D02*
D03*
X232284Y116929D02*
D03*
X279331Y128051D02*
D03*
X113189Y224311D02*
D03*
X119587Y154528D02*
D03*
X60433Y206201D02*
D03*
Y219390D02*
D03*
X50000Y217618D02*
D03*
X59255Y115751D02*
D03*
X59153Y112894D02*
D03*
X48917Y213583D02*
D03*
X60433Y215551D02*
D03*
X60335Y178445D02*
D03*
Y185039D02*
D03*
X60827Y140945D02*
D03*
Y136614D02*
D03*
X75197Y161221D02*
D03*
X71949D02*
D03*
X50000Y132874D02*
D03*
X60630Y132283D02*
D03*
Y224410D02*
D03*
X60433Y228740D02*
D03*
Y236847D02*
D03*
X60236Y240945D02*
D03*
X60433Y245276D02*
D03*
X136221Y190157D02*
D03*
X160236Y235433D02*
D03*
D33*
X76772Y228346D02*
D03*
Y124016D02*
D03*
M02*
