M48
;Layer_Color=9474304
;FILE_FORMAT=2:5
INCH,LZ
;TYPE=PLATED
T3F00S00C0.01378
%
G90
G05
T03
G00X0153543Y0054134
M15
G01X0148228
M16
G00X0143543Y0084134
M15
G01X0138228
M16
G00X0163543Y0084134
M15
G01X0158228
M16
G00X0234291Y0084134
M15
G01X0228976
M16
G00X0254291Y0084134
M15
G01X0248976
M16
G00X0244291Y0054134
M15
G01X0238976
M16
G00X0334646Y0054134
M15
G01X0329331
M16
G00X0344646Y0084134
M15
G01X0339331
M16
G00X0324646Y0084134
M15
G01X0319331
M16
G00X0415394Y0084134
M15
G01X0410079
M16
G00X0435394Y0084134
M15
G01X0430079
M16
G00X0425394Y0054134
M15
G01X0420079
M16
G00X0515748Y0054134
M15
G01X0510433
M16
G00X0525748Y0084134
M15
G01X0520433
M16
G00X0505748Y0084134
M15
G01X0500433
M16
G00X0596496Y0084134
M15
G01X0591181
M16
G00X0616496Y0084134
M15
G01X0611181
M16
G00X0606496Y0054134
M15
G01X0601181
M16
G00X069685Y0054134
M15
G01X0691535
M16
G00X070685Y0084134
M15
G01X0701535
M16
G00X068685Y0084134
M15
G01X0681535
M16
G00X0777598Y0084134
M15
G01X0772284
M16
G00X0797598Y0084134
M15
G01X0792283
M16
G00X0787598Y0054134
M15
G01X0782283
M16
G00X0877953Y0054134
M15
G01X0872638
M16
G00X0887953Y0084134
M15
G01X0882638
M16
G00X0867953Y0084134
M15
G01X0862638
M16
G00X0958701Y0084134
M15
G01X0953386
M16
G00X0978701Y0084134
M15
G01X0973386
M16
G00X0968701Y0054134
M15
G01X0963386
M16
G00X1059055Y0054134
M15
G01X105374
M16
G00X1069055Y0084134
M15
G01X106374
M16
G00X1049055Y0084134
M15
G01X104374
M16
G00X1139803Y0084134
M15
G01X1134488
M16
G00X1159803Y0084134
M15
G01X1154488
M16
G00X1149803Y0054134
M15
G01X1144488
M16
G00X1240158Y0054134
M15
G01X1234842
M16
G00X1250158Y0084134
M15
G01X1244843
M16
G00X1230157Y0084134
M15
G01X1224842
M16
G00X1320905Y0084134
M15
G01X1315591
M16
G00X1340905Y0084134
M15
G01X1335591
M16
G00X1330906Y0054134
M15
G01X1325591
M16
G00X142126Y0054134
M15
G01X1415945
M16
G00X143126Y0084134
M15
G01X1425945
M16
G00X141126Y0084134
M15
G01X1405945
M16
G00X1502008Y0084134
M15
G01X1496693
M16
G00X1522008Y0084134
M15
G01X1516693
M16
G00X1512008Y0054134
M15
G01X1506693
M16
G00X1496693Y0268228
M15
G01X1502008
M16
G00X1516693Y0268228
M15
G01X1522008
M16
G00X1506693Y0298228
M15
G01X1512008
M16
G00X1415945Y0298228
M15
G01X142126
M16
G00X1425945Y0268228
M15
G01X143126
M16
G00X1405945Y0268228
M15
G01X141126
M16
G00X1335591Y0268228
M15
G01X1340905
M16
G00X1315591Y0268228
M15
G01X1320905
M16
G00X1325591Y0298228
M15
G01X1330906
M16
G00X1234842Y0298228
M15
G01X1240158
M16
G00X1244843Y0268228
M15
G01X1250158
M16
G00X1224842Y0268228
M15
G01X1230157
M16
G00X1154488Y0268228
M15
G01X1159803
M16
G00X1134488Y0268228
M15
G01X1139803
M16
G00X1144488Y0298228
M15
G01X1149803
M16
G00X105374Y0298228
M15
G01X1059055
M16
G00X106374Y0268228
M15
G01X1069055
M16
G00X104374Y0268228
M15
G01X1049055
M16
G00X0973386Y0268228
M15
G01X0978701
M16
G00X0953386Y0268228
M15
G01X0958701
M16
G00X0963386Y0298228
M15
G01X0968701
M16
G00X0872638Y0298228
M15
G01X0877953
M16
G00X0882638Y0268228
M15
G01X0887953
M16
G00X0862638Y0268228
M15
G01X0867953
M16
G00X0792283Y0268228
M15
G01X0797598
M16
G00X0782283Y0298228
M15
G01X0787598
M16
G00X0772284Y0268228
M15
G01X0777598
M16
G00X0701535Y0268228
M15
G01X070685
M16
G00X0681535Y0268228
M15
G01X068685
M16
G00X0691535Y0298228
M15
G01X069685
M16
G00X0601181Y0298228
M15
G01X0606496
M16
G00X0591181Y0268228
M15
G01X0596496
M16
G00X0611181Y0268228
M15
G01X0616496
M16
G00X0520433Y0268228
M15
G01X0525748
M16
G00X0500433Y0268228
M15
G01X0505748
M16
G00X0510433Y0298228
M15
G01X0515748
M16
G00X0420079Y0298228
M15
G01X0425394
M16
G00X0410079Y0268228
M15
G01X0415394
M16
G00X0430079Y0268228
M15
G01X0435394
M16
G00X0339331Y0268228
M15
G01X0344646
M16
G00X0319331Y0268228
M15
G01X0324646
M16
G00X0329331Y0298228
M15
G01X0334646
M16
G00X0238976Y0298228
M15
G01X0244291
M16
G00X0228976Y0268228
M15
G01X0234291
M16
G00X0248976Y0268228
M15
G01X0254291
M16
G00X0158228Y0268228
M15
G01X0163543
M16
G00X0138228Y0268228
M15
G01X0143543
M16
G00X0148228Y0298228
M15
G01X0153543
M16
M17
M30
