G04*
G04 #@! TF.GenerationSoftware,Altium Limited,Altium Designer,19.0.10 (269)*
G04*
G04 Layer_Physical_Order=1*
G04 Layer_Color=255*
%FSLAX25Y25*%
%MOIN*%
G70*
G01*
G75*
%ADD12C,0.00600*%
%ADD16C,0.01000*%
%ADD41R,0.02953X0.03150*%
%ADD42R,0.03543X0.02756*%
%ADD43R,0.02756X0.03543*%
%ADD44O,0.08268X0.01181*%
%ADD45O,0.01181X0.08268*%
%ADD46R,0.05000X0.10000*%
%ADD47R,0.13504X0.06496*%
%ADD48R,0.06496X0.13504*%
%ADD49R,0.10000X0.05000*%
%ADD50R,0.03150X0.02953*%
%ADD51R,0.10000X0.05000*%
%ADD52R,0.06496X0.13504*%
%ADD53R,0.02362X0.06102*%
%ADD54R,0.05000X0.02992*%
%ADD55R,0.05500X0.01100*%
%ADD56R,0.06102X0.02362*%
%ADD57R,0.04724X0.04724*%
%ADD58R,0.14173X0.04724*%
%ADD59C,0.05906*%
%ADD60C,0.03838*%
%ADD61C,0.04724*%
%ADD62C,0.03543*%
%ADD63C,0.09843*%
%ADD64C,0.02362*%
G36*
X187008Y266614D02*
X186919Y266151D01*
X182766D01*
Y261802D01*
X186919D01*
X187008Y261338D01*
Y260709D01*
X186919Y260246D01*
X186508Y260246D01*
X182766D01*
Y258988D01*
X181604D01*
Y260246D01*
X177451D01*
Y255896D01*
X181604D01*
Y257153D01*
X182766D01*
Y255896D01*
X186919Y255896D01*
X187008Y255433D01*
Y204724D01*
X160746D01*
X153543Y211927D01*
Y282268D01*
X154618D01*
Y284744D01*
Y287221D01*
X153543D01*
Y305983D01*
X187008D01*
Y266614D01*
D02*
G37*
G36*
X221654Y204724D02*
X188189D01*
Y255433D01*
X188278Y255896D01*
X188689Y255896D01*
X192431D01*
Y257153D01*
X193199D01*
Y255896D01*
X197352D01*
Y260246D01*
X193199D01*
Y258988D01*
X192431D01*
Y260246D01*
X188278Y260246D01*
X188189Y260709D01*
Y261338D01*
X188278Y261802D01*
X192299D01*
X192431Y261802D01*
X192799Y261484D01*
Y261402D01*
X194776D01*
Y263976D01*
Y266551D01*
X192799D01*
Y266469D01*
X192431Y266151D01*
X192299Y266151D01*
X188278D01*
X188189Y266614D01*
Y305983D01*
X221654D01*
Y204724D01*
D02*
G37*
%LPC*%
G36*
X184065Y297253D02*
X178140D01*
Y291329D01*
X184065D01*
Y297253D01*
D02*
G37*
G36*
X165954D02*
X160030D01*
Y291329D01*
X165954D01*
Y297253D01*
D02*
G37*
G36*
X157693Y287221D02*
X155618D01*
Y285244D01*
X157693D01*
Y287221D01*
D02*
G37*
G36*
Y284244D02*
X155618D01*
Y282268D01*
X157693D01*
Y284244D01*
D02*
G37*
G36*
X172646Y282833D02*
Y281209D01*
X174270D01*
X174200Y281560D01*
X173718Y282281D01*
X172997Y282763D01*
X172646Y282833D01*
D02*
G37*
G36*
X171646D02*
X171295Y282763D01*
X170573Y282281D01*
X170091Y281560D01*
X170021Y281209D01*
X171646D01*
Y282833D01*
D02*
G37*
G36*
X174270Y280209D02*
X172646D01*
Y278584D01*
X172997Y278654D01*
X173718Y279136D01*
X174200Y279858D01*
X174270Y280209D01*
D02*
G37*
G36*
X171646D02*
X170021D01*
X170091Y279858D01*
X170573Y279136D01*
X171295Y278654D01*
X171646Y278584D01*
Y280209D01*
D02*
G37*
G36*
X182004Y266551D02*
X180028D01*
Y264476D01*
X182004D01*
Y266551D01*
D02*
G37*
G36*
X179028D02*
X177051D01*
Y264476D01*
X179028D01*
Y266551D01*
D02*
G37*
G36*
X182004Y263476D02*
X180028D01*
Y261402D01*
X182004D01*
Y263476D01*
D02*
G37*
G36*
X179028D02*
X177051D01*
Y261402D01*
X179028D01*
Y263476D01*
D02*
G37*
G36*
X215167Y297253D02*
X209243D01*
Y291329D01*
X215167D01*
Y297253D01*
D02*
G37*
G36*
X197057D02*
X191132D01*
Y291329D01*
X197057D01*
Y297253D01*
D02*
G37*
G36*
X203551Y278896D02*
Y277272D01*
X205176D01*
X205106Y277623D01*
X204624Y278344D01*
X203902Y278826D01*
X203551Y278896D01*
D02*
G37*
G36*
X202551D02*
X202200Y278826D01*
X201479Y278344D01*
X200997Y277623D01*
X200927Y277272D01*
X202551D01*
Y278896D01*
D02*
G37*
G36*
X205176Y276272D02*
X203551D01*
Y274647D01*
X203902Y274717D01*
X204624Y275199D01*
X205106Y275921D01*
X205176Y276272D01*
D02*
G37*
G36*
X202551D02*
X200927D01*
X200997Y275921D01*
X201479Y275199D01*
X202200Y274717D01*
X202551Y274647D01*
Y276272D01*
D02*
G37*
G36*
X197752Y266551D02*
X195776D01*
Y264476D01*
X197752D01*
Y266551D01*
D02*
G37*
G36*
Y263476D02*
X195776D01*
Y261402D01*
X197752D01*
Y263476D01*
D02*
G37*
%LPD*%
D12*
X389173Y75846D02*
Y95355D01*
X371553Y112975D02*
X389173Y95355D01*
X370704Y112975D02*
X371553D01*
X368504Y115175D02*
X370704Y112975D01*
X368504Y115175D02*
Y116024D01*
X376121Y62794D02*
X389173Y75846D01*
X365630Y62794D02*
X376121D01*
X211750Y70670D02*
Y72640D01*
X58563Y112500D02*
X63484D01*
X64759Y119680D02*
X67126Y122047D01*
X64661Y119680D02*
X64759D01*
X63484Y118504D02*
X64661Y119680D01*
X63484Y118405D02*
Y118504D01*
X67126Y122047D02*
X78740D01*
X58297Y122215D02*
X58563Y121949D01*
Y118405D02*
Y121949D01*
X47047Y133465D02*
X58297Y122215D01*
X47244Y118504D02*
X52854D01*
X85898Y71555D02*
X99311D01*
X52854Y118504D02*
X55118Y116240D01*
Y110630D02*
Y116240D01*
Y110630D02*
X61853Y103895D01*
X63708D01*
X124803Y93051D02*
X129961D01*
X145749Y108839D02*
Y196771D01*
X129961Y93051D02*
X145749Y108839D01*
X191629Y104724D02*
X197047D01*
X82283Y218898D02*
X143007D01*
X173917Y122436D02*
Y187987D01*
X143007Y218898D02*
X173917Y187987D01*
Y122436D02*
X191629Y104724D01*
X79033Y215647D02*
X82283Y218898D01*
X79033Y214798D02*
Y215647D01*
X76833Y212598D02*
X79033Y214798D01*
X75984Y212598D02*
X76833D01*
X126575D02*
Y215748D01*
X79823Y78051D02*
X83371Y74503D01*
Y74463D02*
Y74503D01*
Y74463D02*
X83661Y74173D01*
Y70472D02*
Y74173D01*
X83760Y92224D02*
X86897Y95361D01*
X90834D01*
X90945Y95472D01*
X74888Y86628D02*
X85898Y97638D01*
X86794D02*
X86879Y97552D01*
X90834D01*
X90945Y97441D01*
X85898Y97638D02*
X86794D01*
X85630Y71287D02*
Y75886D01*
X68799Y97722D02*
X70499D01*
X66774D02*
X68799D01*
Y96457D02*
Y97722D01*
X65945Y98551D02*
Y102756D01*
Y98551D02*
X66774Y97722D01*
X71850Y99073D02*
Y102756D01*
X70499Y97722D02*
X71850Y99073D01*
X65468Y84252D02*
X65945D01*
X64877Y83661D02*
X65468Y84252D01*
X58661Y83661D02*
X64877D01*
X58661Y81693D02*
X69954D01*
X74888Y86628D01*
X50492Y81693D02*
X58661D01*
X115157Y160925D02*
X115256Y161024D01*
X103543Y88051D02*
X104424Y88932D01*
X112599Y130020D02*
Y189370D01*
X104626Y122047D02*
X112599Y130020D01*
X78740Y122047D02*
X104626D01*
X74888Y86628D02*
X85630Y75886D01*
Y70472D02*
Y71287D01*
X63976Y97539D02*
Y102756D01*
Y97539D02*
X74888Y86628D01*
X50197Y81398D02*
X50492Y81693D01*
X50197Y87205D02*
X51772Y85630D01*
X58661D01*
X73819Y70472D02*
Y76476D01*
X108366Y135925D02*
Y136004D01*
X108268Y136102D02*
X108366Y136004D01*
X96161Y135925D02*
X96338Y136102D01*
X96457D01*
X112599Y189370D02*
X112992Y188976D01*
X47047Y133465D02*
Y248111D01*
X69786Y270849D01*
X70634D01*
X72834Y273049D01*
Y273898D01*
X75000Y113779D02*
Y114173D01*
X73922Y112702D02*
X75000Y113779D01*
X73528Y112702D02*
X73922D01*
X67974Y107147D02*
X73528Y112702D01*
X67974Y102816D02*
Y107147D01*
X67913Y102756D02*
X67974Y102816D01*
X85630Y102756D02*
X90630D01*
X102047Y114173D01*
X95979Y97849D02*
X112047Y113917D01*
Y114173D01*
X95979Y94855D02*
Y97849D01*
X94628Y93504D02*
X95979Y94855D01*
X90945Y93504D02*
X94628D01*
X164797Y76313D02*
X190453Y101969D01*
X132194Y76313D02*
X164797D01*
X120645Y64764D02*
X132194Y76313D01*
X113976Y64764D02*
X120645D01*
X189253Y75113D02*
X189756Y74610D01*
X132691Y75113D02*
X189253D01*
X126575Y221654D02*
X132972D01*
X126575Y191535D02*
X132972D01*
X126575Y212598D02*
X133169D01*
X112992D02*
X126575D01*
Y209744D02*
Y212598D01*
X133169D02*
X142815D01*
X133071Y212500D02*
X133169Y212598D01*
X133071Y210433D02*
Y212500D01*
X132874Y200787D02*
X141732D01*
X126575D02*
X132874D01*
Y202756D01*
X133071Y202953D01*
X112992Y200787D02*
X126575D01*
Y203839D01*
Y197441D02*
Y200787D01*
X146949Y106693D02*
Y208465D01*
X142815Y212598D02*
X146949Y208465D01*
X141732Y200787D02*
X145749Y196771D01*
X128403Y88147D02*
X146949Y106693D01*
X124899Y88147D02*
X128403D01*
X124803Y88051D02*
X124899Y88147D01*
X85039Y87598D02*
X85039Y87598D01*
X90945D01*
X95866Y89567D02*
X100810Y84623D01*
Y83932D02*
Y84623D01*
Y83932D02*
X101691Y83051D01*
X103543D01*
X90945Y89567D02*
X95866D01*
X95866Y91535D02*
X100810Y96479D01*
Y97170D01*
X101691Y98051D01*
X103543D01*
X90945Y91535D02*
X95866D01*
X79033Y239269D02*
X84645Y244881D01*
X79033Y238420D02*
Y239269D01*
X76833Y236220D02*
X79033Y238420D01*
X75984Y236220D02*
X76833D01*
X84645Y244881D02*
Y273898D01*
X73622Y58113D02*
X120782D01*
X131370Y68700D01*
X194550D01*
X65945Y65790D02*
X73622Y58113D01*
X65945Y65790D02*
Y70472D01*
X67913Y65650D02*
Y70472D01*
Y65650D02*
X74250Y59313D01*
X120285D01*
X131136Y70163D01*
X189251D01*
X189758Y70670D01*
X194550D01*
X132012Y72736D02*
X187402D01*
X75159Y60513D02*
X119788D01*
X132012Y72736D01*
X69882Y65790D02*
X75159Y60513D01*
X69882Y65790D02*
Y70472D01*
X189756Y74610D02*
X194550D01*
X71850Y65748D02*
Y70472D01*
X71850Y70472D01*
X71850Y65748D02*
X75886Y61713D01*
X119291D01*
X132691Y75113D01*
X103248Y65650D02*
X104631Y67032D01*
Y67426D01*
X105709Y68504D01*
X106102D01*
X99311Y65650D02*
X103248D01*
X75787Y66339D02*
Y70472D01*
Y66339D02*
X76870Y65256D01*
X98917D01*
X99311Y65650D01*
X85630Y71287D02*
X85898Y71555D01*
X63976Y102756D02*
Y103627D01*
X63708Y103895D02*
X63976Y103627D01*
X47244Y112598D02*
X47244Y112598D01*
X47244Y105315D02*
Y112598D01*
X51181Y95472D02*
X58661D01*
X48519Y98135D02*
X51181Y95472D01*
X48421Y98135D02*
X48519D01*
X47244Y99311D02*
X48421Y98135D01*
X47244Y99311D02*
Y99409D01*
X351142Y74606D02*
X365630D01*
X322598Y103150D02*
X351142Y74606D01*
X302756Y103150D02*
X322598D01*
X292677Y93071D02*
X302756Y103150D01*
X269291Y93071D02*
X292677D01*
X292284Y173071D02*
X311024Y154331D01*
X269291Y173071D02*
X292284D01*
X192913Y118504D02*
Y118504D01*
X200965Y126378D02*
X201358Y126772D01*
X196653Y126378D02*
X200965D01*
X287205Y55847D02*
X293918D01*
X298408Y60337D01*
Y61185D01*
X300608Y63385D01*
X301457D01*
X300807Y75846D02*
X301457Y75197D01*
X287205Y75846D02*
X300807D01*
X187402Y72638D02*
Y72736D01*
Y72638D02*
X187404Y72640D01*
X194550D01*
X187598Y263976D02*
X190354D01*
X184843D02*
X187598D01*
X190354Y258071D02*
X195276D01*
X179528D02*
X184843D01*
X198031Y199606D02*
X198032Y199606D01*
X198425D01*
D16*
X223831Y158465D02*
X231102Y151193D01*
Y109449D02*
Y151193D01*
X190945Y148031D02*
X201358D01*
X161417Y110039D02*
Y110118D01*
Y110039D02*
X167626Y103831D01*
Y103732D02*
Y103831D01*
Y103732D02*
X168602Y102756D01*
X168701D01*
X179059Y160673D02*
X180532D01*
X188993Y169134D01*
X178347Y159961D02*
X179059Y160673D01*
X121024Y78937D02*
X122736D01*
X194750Y169134D02*
X208993D01*
X139475Y224409D02*
X194750Y169134D01*
X112992Y224409D02*
X139475D01*
X99311Y71653D02*
Y78543D01*
Y71555D02*
Y71653D01*
X194550Y76580D02*
Y85638D01*
X111910Y88051D02*
X121024Y78937D01*
X116831Y92972D02*
Y117815D01*
X111910Y88051D02*
X116831Y92972D01*
X103543Y88051D02*
X111910D01*
X115256Y119390D02*
X116831Y117815D01*
X115256Y119390D02*
Y161024D01*
X190453Y101969D02*
X210630D01*
X72834Y136102D02*
Y150984D01*
X82874Y161024D01*
X169488Y101969D02*
X190453D01*
X189365Y76580D02*
X194550D01*
X188476Y77469D02*
X189365Y76580D01*
X188378Y77469D02*
X188476D01*
X187402Y78445D02*
X188378Y77469D01*
X198031Y76580D02*
X205911Y68700D01*
X211750D01*
X194550Y76580D02*
X198031D01*
X366142Y118386D02*
Y154331D01*
Y118386D02*
X368504Y116024D01*
X356693D02*
Y288190D01*
X366142Y297638D01*
X311024D02*
X344881Y263781D01*
Y116024D02*
Y263781D01*
X311024Y154331D02*
X333070Y132284D01*
Y116024D02*
Y132284D01*
Y115355D02*
Y116024D01*
X211358Y118898D02*
Y126772D01*
X201358Y161500D02*
X208993Y169134D01*
X201358Y148031D02*
Y161500D01*
X190945Y148031D02*
X190945Y148031D01*
X195669Y132461D02*
X199263Y128867D01*
X200677D01*
X201358Y128186D01*
Y126772D02*
Y128186D01*
X195669Y132461D02*
Y142126D01*
X220945Y109843D02*
X222547Y108240D01*
X222646D01*
X223622Y107264D01*
Y107165D02*
Y107264D01*
X201969Y109843D02*
X220945D01*
X198319Y106193D02*
X201969Y109843D01*
X197925Y106193D02*
X198319D01*
X223622Y113071D02*
X227953D01*
X229894Y108240D02*
X231102Y109449D01*
X228929Y108240D02*
X229894D01*
X227953Y107264D02*
X228929Y108240D01*
X227953Y107165D02*
Y107264D01*
X213162Y169134D02*
X223831Y158465D01*
X208993Y169134D02*
X213162D01*
X168506Y168647D02*
X168992Y169134D01*
X168506Y167049D02*
Y168647D01*
X161417Y159961D02*
X168506Y167049D01*
X210630Y101969D02*
X225197D01*
X210630D02*
Y106890D01*
X227953Y104724D02*
Y107165D01*
X225197Y101969D02*
X227953Y104724D01*
X168701Y102756D02*
X169488Y101969D01*
X211358Y118898D02*
X214961Y115295D01*
Y112795D02*
Y115295D01*
X206299Y112795D02*
X210630D01*
X206299D02*
X206358Y112854D01*
Y126772D01*
X200787Y112795D02*
X201358Y113366D01*
Y126772D01*
X162795Y98032D02*
Y102756D01*
X207283Y75590D02*
Y82284D01*
Y86614D01*
Y75590D02*
X208264Y74610D01*
X211750D01*
X213139Y76580D02*
X213189Y76630D01*
X211750Y76580D02*
X213139D01*
X213189Y76630D02*
Y82284D01*
X203941Y66730D02*
X205911Y68700D01*
X194550Y66730D02*
X203941D01*
X194550Y62790D02*
X211750D01*
X194550Y64760D02*
Y66730D01*
Y62790D02*
Y64760D01*
X193504Y86614D02*
X193573D01*
X194550Y85638D01*
X187402Y78445D02*
Y78543D01*
X230512Y65748D02*
Y69882D01*
Y61614D02*
Y65748D01*
X224804Y75787D02*
X230512D01*
X215746Y66730D02*
X224804Y75787D01*
X211750Y66730D02*
X215746D01*
X224803Y55905D02*
X230315D01*
X230512Y55709D01*
X215949Y64760D02*
X224803Y55905D01*
X211750Y64760D02*
X215949D01*
X230512Y55709D02*
X230650Y55847D01*
X253346D01*
X253287Y75787D02*
X253346Y75846D01*
X230512Y75787D02*
X253287D01*
X333070Y115355D02*
X333071Y115354D01*
D41*
X63484Y112500D02*
D03*
Y118405D02*
D03*
X47244Y112598D02*
D03*
Y118504D02*
D03*
X132972Y197441D02*
D03*
Y191535D02*
D03*
X126575D02*
D03*
Y197441D02*
D03*
Y203839D02*
D03*
Y209744D02*
D03*
X132972Y215748D02*
D03*
Y221654D02*
D03*
X126575D02*
D03*
Y215748D02*
D03*
X187402Y72638D02*
D03*
Y78543D02*
D03*
X58563Y118405D02*
D03*
Y112500D02*
D03*
X99311Y65650D02*
D03*
Y71555D02*
D03*
X47244Y99409D02*
D03*
Y105315D02*
D03*
X50197Y87303D02*
D03*
Y81398D02*
D03*
X195669Y148031D02*
D03*
Y142126D02*
D03*
X214961Y112795D02*
D03*
Y106890D02*
D03*
X227953Y107165D02*
D03*
Y113071D02*
D03*
X210630Y106890D02*
D03*
Y112795D02*
D03*
X223622Y113071D02*
D03*
Y107165D02*
D03*
X190945Y148031D02*
D03*
Y142126D02*
D03*
X206299Y112795D02*
D03*
Y106890D02*
D03*
X230512Y69882D02*
D03*
Y75787D02*
D03*
Y61614D02*
D03*
Y55709D02*
D03*
X179528Y258071D02*
D03*
Y263976D02*
D03*
X184843D02*
D03*
Y258071D02*
D03*
X195276D02*
D03*
Y263976D02*
D03*
X190354D02*
D03*
Y258071D02*
D03*
X51968Y118504D02*
D03*
Y112598D02*
D03*
D42*
X133071Y210433D02*
D03*
Y202953D02*
D03*
X140945Y206693D02*
D03*
X113976Y64764D02*
D03*
Y72244D02*
D03*
X106102Y68504D02*
D03*
D43*
X75000Y114173D02*
D03*
X82480D02*
D03*
X78740Y122047D02*
D03*
X196653Y126378D02*
D03*
X189173D02*
D03*
X192913Y118504D02*
D03*
X200787Y112795D02*
D03*
X193307D02*
D03*
X197047Y104921D02*
D03*
D44*
X58661Y97441D02*
D03*
Y95472D02*
D03*
Y93504D02*
D03*
Y91535D02*
D03*
Y89567D02*
D03*
Y87598D02*
D03*
Y85630D02*
D03*
Y83661D02*
D03*
Y81693D02*
D03*
Y79724D02*
D03*
Y77756D02*
D03*
Y75787D02*
D03*
X90945D02*
D03*
Y77756D02*
D03*
Y79724D02*
D03*
Y81693D02*
D03*
Y83661D02*
D03*
Y85630D02*
D03*
Y87598D02*
D03*
Y89567D02*
D03*
Y91535D02*
D03*
Y93504D02*
D03*
Y95472D02*
D03*
Y97441D02*
D03*
D45*
X63976Y70472D02*
D03*
X65945D02*
D03*
X67913D02*
D03*
X69882D02*
D03*
X71850D02*
D03*
X73819D02*
D03*
X75787D02*
D03*
X77756D02*
D03*
X79724D02*
D03*
X81693D02*
D03*
X83661D02*
D03*
X85630D02*
D03*
Y102756D02*
D03*
X83661D02*
D03*
X81693D02*
D03*
X79724D02*
D03*
X77756D02*
D03*
X75787D02*
D03*
X73819D02*
D03*
X71850D02*
D03*
X69882D02*
D03*
X67913D02*
D03*
X65945D02*
D03*
X63976D02*
D03*
D46*
X108268Y273898D02*
D03*
X96457D02*
D03*
X84645D02*
D03*
X72834D02*
D03*
X108268Y136102D02*
D03*
X96457D02*
D03*
X84645D02*
D03*
X72834D02*
D03*
X333070Y116024D02*
D03*
X344881D02*
D03*
X356693D02*
D03*
X368504D02*
D03*
D47*
X57519Y287402D02*
D03*
X123583D02*
D03*
X57519Y149606D02*
D03*
X123583D02*
D03*
X383819Y129528D02*
D03*
X317755D02*
D03*
D48*
X379134Y89920D02*
D03*
Y47480D02*
D03*
X314961Y90511D02*
D03*
Y48071D02*
D03*
D49*
X365630Y62794D02*
D03*
Y74606D02*
D03*
X301457Y63385D02*
D03*
Y75197D02*
D03*
D50*
X116929Y103248D02*
D03*
X122835D02*
D03*
X155118Y284744D02*
D03*
X149213D02*
D03*
X162795Y98032D02*
D03*
X168701D02*
D03*
X162795Y102756D02*
D03*
X168701D02*
D03*
X224606Y65748D02*
D03*
X230512D02*
D03*
X213189Y82284D02*
D03*
X207283D02*
D03*
X193504Y86614D02*
D03*
X199409D02*
D03*
X193504Y82284D02*
D03*
X199409D02*
D03*
X207283Y86614D02*
D03*
X213189D02*
D03*
X99311Y78543D02*
D03*
X105217D02*
D03*
D51*
X112992Y236220D02*
D03*
Y224409D02*
D03*
Y212598D02*
D03*
Y200787D02*
D03*
Y188976D02*
D03*
X75984Y236220D02*
D03*
Y224409D02*
D03*
Y212598D02*
D03*
Y200787D02*
D03*
Y188976D02*
D03*
D52*
X94488Y173700D02*
D03*
Y251496D02*
D03*
D53*
X201358Y126772D02*
D03*
X206358D02*
D03*
X211358D02*
D03*
X216358D02*
D03*
Y148031D02*
D03*
X211358D02*
D03*
X206358D02*
D03*
X201358D02*
D03*
D54*
X287205Y55847D02*
D03*
Y65847D02*
D03*
Y75846D02*
D03*
X253346D02*
D03*
Y65847D02*
D03*
Y55847D02*
D03*
D55*
X194550Y76580D02*
D03*
Y74610D02*
D03*
Y72640D02*
D03*
Y70670D02*
D03*
Y68700D02*
D03*
Y66730D02*
D03*
Y64760D02*
D03*
Y62790D02*
D03*
X211750D02*
D03*
Y64760D02*
D03*
Y66730D02*
D03*
Y68700D02*
D03*
Y70670D02*
D03*
Y72640D02*
D03*
Y74610D02*
D03*
Y76580D02*
D03*
D56*
X103543Y98051D02*
D03*
Y93051D02*
D03*
Y88051D02*
D03*
Y83051D02*
D03*
X124803D02*
D03*
Y88051D02*
D03*
Y93051D02*
D03*
Y98051D02*
D03*
D57*
X181102Y294291D02*
D03*
X172047D02*
D03*
X162992D02*
D03*
X212205D02*
D03*
X203150D02*
D03*
X194095D02*
D03*
D58*
X172047Y270276D02*
D03*
X203150D02*
D03*
D59*
X132047Y114173D02*
D03*
X122047D02*
D03*
X112047D02*
D03*
X102047D02*
D03*
X92047D02*
D03*
X223831Y197835D02*
D03*
Y158465D02*
D03*
D60*
X269291Y173071D02*
D03*
Y143071D02*
D03*
Y123071D02*
D03*
Y93071D02*
D03*
D61*
X161417Y159961D02*
D03*
Y110118D02*
D03*
X178347Y159961D02*
D03*
Y110118D02*
D03*
D62*
X188993Y189134D02*
D03*
X178992D02*
D03*
X168992D02*
D03*
Y169134D02*
D03*
X178992D02*
D03*
X188993D02*
D03*
X208993D02*
D03*
Y189134D02*
D03*
D63*
X311024Y297638D02*
D03*
Y154331D02*
D03*
X366142D02*
D03*
Y297638D02*
D03*
D64*
X122736Y78937D02*
D03*
X124803Y98051D02*
D03*
X211713Y71653D02*
D03*
X203051Y276772D02*
D03*
X99311Y71653D02*
D03*
X124803Y83051D02*
D03*
X132972Y215846D02*
D03*
X79823Y78051D02*
D03*
X83760Y92224D02*
D03*
X68799Y96457D02*
D03*
X65945Y84252D02*
D03*
X115256Y161024D02*
D03*
X82874D02*
D03*
X172146Y280709D02*
D03*
X73819Y76476D02*
D03*
X108366Y135925D02*
D03*
X75984Y200787D02*
D03*
X96161Y135925D02*
D03*
X50197Y87205D02*
D03*
X193504Y82284D02*
D03*
X140945Y206791D02*
D03*
X132972Y197539D02*
D03*
X85039Y87598D02*
D03*
X103543Y93051D02*
D03*
X113976Y72244D02*
D03*
X82480Y114173D02*
D03*
X84645Y136102D02*
D03*
X75984Y224409D02*
D03*
X108268Y273898D02*
D03*
X96457D02*
D03*
X112992Y236220D02*
D03*
X72834Y273898D02*
D03*
X122835Y103248D02*
D03*
X162992Y294488D02*
D03*
X194095D02*
D03*
X197047Y104921D02*
D03*
X192913Y118504D02*
D03*
X189173Y126378D02*
D03*
X149213Y284744D02*
D03*
X51968Y112598D02*
D03*
X105217Y78543D02*
D03*
X190945Y142126D02*
D03*
X216535Y126772D02*
D03*
X214961Y107087D02*
D03*
X206299D02*
D03*
X193504Y112598D02*
D03*
X168504Y98032D02*
D03*
X224410Y65748D02*
D03*
X212992Y86614D02*
D03*
X199213Y84252D02*
D03*
X212205Y294488D02*
D03*
X181102D02*
D03*
X187598Y263976D02*
D03*
X211417Y126772D02*
D03*
X195669Y142126D02*
D03*
X198031Y199606D02*
D03*
M02*
