G04*
G04 #@! TF.GenerationSoftware,Altium Limited,Altium Designer,19.0.10 (269)*
G04*
G04 Layer_Color=65535*
%FSLAX25Y25*%
%MOIN*%
G70*
G01*
G75*
%ADD10C,0.00984*%
%ADD11C,0.02362*%
%ADD12C,0.00600*%
%ADD13C,0.00591*%
%ADD14C,0.00787*%
%ADD15C,0.00500*%
%ADD16C,0.01000*%
G36*
X195869Y80760D02*
X195898Y80746D01*
X195926Y80717D01*
X195933Y80710D01*
X195948Y80681D01*
X195962Y80638D01*
X195969Y80574D01*
Y79613D01*
X196880Y79914D01*
X196887Y79921D01*
X196916Y79928D01*
X196944Y79936D01*
X196980D01*
X197002Y79928D01*
X197030Y79921D01*
X197066Y79893D01*
X197073Y79885D01*
X197088Y79871D01*
X197102Y79835D01*
X197109Y79799D01*
Y79792D01*
Y79771D01*
X197095Y79742D01*
X197081Y79706D01*
X197073Y79699D01*
X197059Y79685D01*
X197023Y79670D01*
X196966Y79649D01*
X196055Y79348D01*
X196615Y78573D01*
X196622Y78559D01*
X196643Y78530D01*
X196665Y78487D01*
X196672Y78451D01*
Y78444D01*
X196665Y78416D01*
X196658Y78387D01*
X196629Y78351D01*
X196622Y78344D01*
X196600Y78329D01*
X196572Y78315D01*
X196528Y78308D01*
X196514D01*
X196485Y78322D01*
X196442Y78351D01*
X196414Y78373D01*
X196392Y78408D01*
X195826Y79183D01*
X195259Y78408D01*
Y78401D01*
X195245Y78394D01*
X195216Y78358D01*
X195173Y78322D01*
X195152Y78315D01*
X195123Y78308D01*
X195116D01*
X195087Y78315D01*
X195059Y78329D01*
X195023Y78351D01*
X195016Y78358D01*
X195001Y78380D01*
X194987Y78408D01*
X194980Y78451D01*
Y78459D01*
X194987Y78480D01*
X195001Y78523D01*
X195037Y78573D01*
X195604Y79348D01*
X194686Y79656D01*
X194671Y79663D01*
X194643Y79670D01*
X194600Y79692D01*
X194571Y79713D01*
Y79720D01*
X194564Y79735D01*
X194557Y79764D01*
X194550Y79799D01*
Y79807D01*
X194557Y79835D01*
X194564Y79864D01*
X194586Y79893D01*
X194593Y79900D01*
X194614Y79914D01*
X194643Y79928D01*
X194679Y79936D01*
X194707D01*
X194736Y79928D01*
X194779Y79914D01*
X195690Y79613D01*
Y80574D01*
Y80581D01*
Y80588D01*
X195697Y80631D01*
X195704Y80674D01*
X195726Y80717D01*
X195733Y80724D01*
X195754Y80746D01*
X195790Y80760D01*
X195833Y80767D01*
X195840D01*
X195869Y80760D01*
D02*
G37*
D10*
X59153Y100197D02*
X58415Y100623D01*
Y99771D01*
X59153Y100197D01*
D11*
X69488Y93110D02*
X69043Y94034D01*
X68044Y94262D01*
X67243Y93623D01*
Y92598D01*
X68044Y91959D01*
X69043Y92187D01*
X69488Y93110D01*
D12*
X201950Y77785D02*
X202336Y76951D01*
X203200Y76635D01*
X204033Y77022D01*
X204350Y77885D01*
X199213D02*
X203150D01*
X199213Y61485D02*
X207087D01*
X203150Y77885D02*
X207087D01*
X65312Y137500D02*
X61713D01*
X65312D02*
Y135272D01*
X63598Y137500D02*
Y136129D01*
X61713Y132118D02*
X65312Y133489D01*
X61713Y134861D01*
X62912Y134346D02*
Y132633D01*
X65312Y131279D02*
X62741D01*
X62227Y131107D01*
X61884Y130764D01*
X61713Y130250D01*
Y129907D01*
X61884Y129393D01*
X62227Y129050D01*
X62741Y128879D01*
X65312D01*
Y127885D02*
X61713D01*
Y125828D01*
X65312Y124234D02*
X61713D01*
X65312Y125434D02*
Y123035D01*
X48973Y138878D02*
X45374D01*
Y137078D01*
X45974Y136479D01*
X48373D01*
X48973Y137078D01*
Y138878D01*
Y132880D02*
Y135279D01*
X45374D01*
Y132880D01*
X47173Y135279D02*
Y134080D01*
X48973Y131680D02*
X45374D01*
Y129881D01*
X45974Y129281D01*
X46574D01*
X47173Y129881D01*
Y131680D01*
Y129881D01*
X47773Y129281D01*
X48373D01*
X48973Y129881D01*
Y131680D01*
Y128081D02*
X45974D01*
X45374Y127482D01*
Y126282D01*
X45974Y125682D01*
X48973D01*
X48373Y122083D02*
X48973Y122683D01*
Y123883D01*
X48373Y124483D01*
X45974D01*
X45374Y123883D01*
Y122683D01*
X45974Y122083D01*
X47173D01*
Y123283D01*
X327953Y65016D02*
X329152D01*
X328553D01*
Y61417D01*
X327953D01*
X329152D01*
X330952D02*
Y65016D01*
X332151Y63816D01*
X333351Y65016D01*
Y61417D01*
X327953Y76827D02*
X329152D01*
X328553D01*
Y73228D01*
X327953D01*
X329152D01*
X330952D02*
Y76827D01*
X332751D01*
X333351Y76227D01*
Y75028D01*
X332751Y74428D01*
X330952D01*
X331047Y97638D02*
X334646D01*
X332846D01*
Y100037D01*
X331047D01*
X334646D01*
X331047Y101237D02*
X333446D01*
X334646Y102436D01*
X333446Y103636D01*
X331047D01*
X332846Y104835D02*
Y107235D01*
X331647Y106035D02*
X334046D01*
X366874Y97638D02*
X370472D01*
X368673D01*
Y100037D01*
X366874D01*
X370472D01*
X366874Y101237D02*
X369273D01*
X370472Y102436D01*
X369273Y103636D01*
X366874D01*
X368673Y104835D02*
Y107235D01*
X354669Y97638D02*
Y98837D01*
Y98238D01*
X358268D01*
Y97638D01*
Y98837D01*
Y100637D02*
X354669D01*
X355869Y101836D01*
X354669Y103036D01*
X358268D01*
X354669Y104236D02*
X358268D01*
Y106035D01*
X357668Y106635D01*
X355269D01*
X354669Y106035D01*
Y104236D01*
X356468Y107834D02*
Y110234D01*
X343252Y97638D02*
Y98837D01*
Y98238D01*
X346850D01*
Y97638D01*
Y98837D01*
Y100637D02*
X343252D01*
X344451Y101836D01*
X343252Y103036D01*
X346850D01*
X343252Y104236D02*
X346850D01*
Y106035D01*
X346251Y106635D01*
X343851D01*
X343252Y106035D01*
Y104236D01*
X345051Y107834D02*
Y110234D01*
X343851Y109034D02*
X346251D01*
X227559Y116929D02*
X223960D01*
Y118728D01*
X224560Y119328D01*
X225760D01*
X226360Y118728D01*
Y116929D01*
X225160Y120528D02*
X227559D01*
X226360D01*
X225760Y121128D01*
X225160Y121728D01*
Y122327D01*
X227559Y125926D02*
Y124727D01*
X226959Y124127D01*
X225760D01*
X225160Y124727D01*
Y125926D01*
X225760Y126526D01*
X226360D01*
Y124127D01*
X225160Y130125D02*
Y128325D01*
X225760Y127726D01*
X226959D01*
X227559Y128325D01*
Y130125D01*
X223960Y131325D02*
X227559D01*
X225760D01*
X225160Y131924D01*
Y133124D01*
X225760Y133724D01*
X227559D01*
X225160Y135523D02*
Y136723D01*
X225760Y137323D01*
X227559D01*
Y135523D01*
X226959Y134923D01*
X226360Y135523D01*
Y137323D01*
X225160Y138522D02*
X227559D01*
X226360D01*
X225760Y139122D01*
X225160Y139722D01*
Y140322D01*
X228759Y143321D02*
Y143920D01*
X228159Y144520D01*
X225160D01*
Y142721D01*
X225760Y142121D01*
X226959D01*
X227559Y142721D01*
Y144520D01*
Y147519D02*
Y146320D01*
X226959Y145720D01*
X225760D01*
X225160Y146320D01*
Y147519D01*
X225760Y148119D01*
X226360D01*
Y145720D01*
X223960Y151718D02*
X227559D01*
Y149918D01*
X226959Y149319D01*
X225760D01*
X225160Y149918D01*
Y151718D01*
X174016Y96850D02*
Y99250D01*
X175215Y100449D01*
X176415Y99250D01*
Y96850D01*
Y98650D01*
X174016D01*
X177615Y100449D02*
X178814D01*
X178214D01*
Y96850D01*
X177615D01*
X178814D01*
X180614D02*
Y100449D01*
X182413D01*
X183013Y99849D01*
Y98650D01*
X182413Y98050D01*
X180614D01*
X181813D02*
X183013Y96850D01*
X237772Y282946D02*
X239772D01*
X238772D01*
Y288945D01*
X237772Y287945D01*
X246769Y282946D02*
X242771D01*
X246769Y286945D01*
Y287945D01*
X245770Y288945D01*
X243770D01*
X242771Y287945D01*
X248769Y282946D02*
Y283946D01*
X249768D01*
Y282946D01*
X248769D01*
X253767Y288945D02*
X257766D01*
Y287945D01*
X253767Y283946D01*
Y282946D01*
X259765Y287945D02*
X260765Y288945D01*
X262764D01*
X263764Y287945D01*
Y283946D01*
X262764Y282946D01*
X260765D01*
X259765Y283946D01*
Y287945D01*
X265763Y282946D02*
Y286945D01*
X266763D01*
X267763Y285945D01*
Y282946D01*
Y285945D01*
X268762Y286945D01*
X269762Y285945D01*
Y282946D01*
X271761D02*
Y286945D01*
X272761D01*
X273761Y285945D01*
Y282946D01*
Y285945D01*
X274760Y286945D01*
X275760Y285945D01*
Y282946D01*
D13*
X61984Y120953D02*
X65134D01*
X45594Y110051D02*
X48744D01*
X137008Y200591D02*
X139823D01*
Y202756D01*
Y210630D02*
Y212795D01*
X137008D02*
X139823D01*
X84842Y118110D02*
Y120925D01*
X82677D02*
X84842D01*
X72638D02*
X74803D01*
X72638Y118110D02*
Y120925D01*
X107224Y74606D02*
X110039D01*
X107224Y72441D02*
Y74606D01*
Y62402D02*
Y64567D01*
Y62402D02*
X110039D01*
X137047Y109173D02*
Y119173D01*
X87047Y109173D02*
X137047D01*
X87047D02*
Y119173D01*
X137047D01*
X186811Y119626D02*
Y122441D01*
Y119626D02*
X188976D01*
X196850D02*
X199016D01*
Y122441D01*
X229146Y167913D02*
Y188386D01*
X218516Y167913D02*
X229146D01*
X218516D02*
Y188386D01*
X229146D01*
X219894Y171260D02*
X227768D01*
X171248Y96382D02*
Y99532D01*
X190945Y106043D02*
Y108858D01*
Y106043D02*
X193110D01*
X200984D02*
X203150D01*
Y108858D01*
X218504Y129724D02*
Y145079D01*
X199213Y129724D02*
Y145079D01*
X155118Y151772D02*
X167717D01*
X155118Y118307D02*
Y151772D01*
Y118307D02*
X167717D01*
Y151772D01*
X172047D02*
X184646D01*
X172047Y118307D02*
Y151772D01*
Y118307D02*
X184646D01*
Y151772D01*
X221972Y104618D02*
X225122D01*
X233071Y307087D02*
X233071Y39665D01*
X283465Y39370D02*
Y306790D01*
X316929Y299016D02*
X336221D01*
X285827D02*
X305118D01*
X285827Y152953D02*
X305118D01*
X316929D02*
X336221D01*
Y299016D01*
X285827Y152953D02*
Y299016D01*
X340945Y152953D02*
X360236D01*
X372047D02*
X391339D01*
X372047Y299016D02*
X391339D01*
X340945D02*
X360236D01*
X340945Y152953D02*
Y299016D01*
X391339Y152953D02*
Y299016D01*
X257028Y50846D02*
Y80847D01*
X283524D01*
X257028Y50846D02*
X283524D01*
Y80847D01*
X106496Y80905D02*
X121850D01*
X106496Y100197D02*
X121850D01*
X177878Y255524D02*
X181028D01*
X158268Y289961D02*
X159252D01*
X158268Y274606D02*
Y289961D01*
Y274606D02*
X160236D01*
X184843Y289961D02*
X185827D01*
Y274606D02*
Y289961D01*
X183858Y274606D02*
X185827D01*
X193626Y255524D02*
X196776D01*
X189370Y289961D02*
X190354D01*
X189370Y274606D02*
Y289961D01*
Y274606D02*
X191339D01*
X215945Y289961D02*
X216929D01*
Y274606D02*
Y289961D01*
X214961Y274606D02*
X216929D01*
D14*
X64370Y76181D02*
Y97047D01*
X85236Y76181D02*
Y97047D01*
X64370D02*
X85236D01*
X64370Y76181D02*
X85236D01*
X275492Y294718D02*
X283366Y297342D01*
X275492Y299967D02*
X283366Y297342D01*
X233366D02*
X241240Y299967D01*
X233366Y297342D02*
X241240Y294718D01*
X258366Y297342D02*
X283366D01*
X233366D02*
X258366D01*
X283366Y289469D02*
Y305217D01*
X233366Y289469D02*
Y305217D01*
D15*
X154464Y164370D02*
X213521D01*
X154464D02*
Y193898D01*
X213521D01*
Y164370D02*
Y193898D01*
D16*
X291339Y141037D02*
X293338D01*
X292338D01*
Y135039D01*
X291339D01*
X293338D01*
X296337D02*
Y141037D01*
X298336Y139038D01*
X300336Y141037D01*
Y135039D01*
X302335Y141037D02*
Y135039D01*
X305334D01*
X306334Y136039D01*
Y140038D01*
X305334Y141037D01*
X302335D01*
X350695Y43307D02*
X356693D01*
Y46306D01*
X355694Y47306D01*
X351695D01*
X350695Y46306D01*
Y43307D01*
X356693Y49305D02*
Y51305D01*
Y50305D01*
X352695D01*
Y49305D01*
X356693Y54303D02*
Y57303D01*
X355694Y58302D01*
X354694Y57303D01*
Y55303D01*
X353694Y54303D01*
X352695Y55303D01*
Y58302D01*
Y64300D02*
Y61301D01*
X353694Y60302D01*
X355694D01*
X356693Y61301D01*
Y64300D01*
X350695Y66300D02*
X356693D01*
X353694D01*
X352695Y67299D01*
Y69299D01*
X353694Y70298D01*
X356693D01*
X352695Y73297D02*
Y75297D01*
X353694Y76296D01*
X356693D01*
Y73297D01*
X355694Y72298D01*
X354694Y73297D01*
Y76296D01*
X352695Y78296D02*
X356693D01*
X354694D01*
X353694Y79295D01*
X352695Y80295D01*
Y81295D01*
X358693Y86293D02*
Y87293D01*
X357693Y88292D01*
X352695D01*
Y85294D01*
X353694Y84294D01*
X355694D01*
X356693Y85294D01*
Y88292D01*
Y93291D02*
Y91292D01*
X355694Y90292D01*
X353694D01*
X352695Y91292D01*
Y93291D01*
X353694Y94291D01*
X354694D01*
Y90292D01*
X291339Y104423D02*
Y98425D01*
X294338D01*
X295337Y99425D01*
Y100425D01*
X294338Y101424D01*
X291339D01*
X294338D01*
X295337Y102424D01*
Y103424D01*
X294338Y104423D01*
X291339D01*
X297337Y98425D02*
Y104423D01*
X299336Y102424D01*
X301335Y104423D01*
Y98425D01*
X307333Y103424D02*
X306334Y104423D01*
X304334D01*
X303335Y103424D01*
Y102424D01*
X304334Y101424D01*
X306334D01*
X307333Y100425D01*
Y99425D01*
X306334Y98425D01*
X304334D01*
X303335Y99425D01*
X198425Y262479D02*
X199425Y263478D01*
X201424D01*
X202424Y262479D01*
Y261479D01*
X201424Y260479D01*
X200425D01*
X201424D01*
X202424Y259480D01*
Y258480D01*
X201424Y257480D01*
X199425D01*
X198425Y258480D01*
X204423Y257480D02*
Y258480D01*
X205423D01*
Y257480D01*
X204423D01*
X209422Y262479D02*
X210421Y263478D01*
X212421D01*
X213420Y262479D01*
Y261479D01*
X212421Y260479D01*
X211421D01*
X212421D01*
X213420Y259480D01*
Y258480D01*
X212421Y257480D01*
X210421D01*
X209422Y258480D01*
X215420Y263478D02*
Y259480D01*
X217419Y257480D01*
X219418Y259480D01*
Y263478D01*
X169353D02*
X165354D01*
Y260479D01*
X167354Y261479D01*
X168353D01*
X169353Y260479D01*
Y258480D01*
X168353Y257480D01*
X166354D01*
X165354Y258480D01*
X171352Y263478D02*
Y259480D01*
X173352Y257480D01*
X175351Y259480D01*
Y263478D01*
M02*
