M48
;Layer_Color=9474304
;FILE_FORMAT=2:5
INCH,LZ
;TYPE=PLATED
T1F00S00C0.01181
T2F00S00C0.02362
T3F00S00C0.02559
;TYPE=NON_PLATED
T4F00S00C0.03150
T5F00S00C0.03543
T6F00S00C0.04016
T7F00S00C0.07874
%
T01
X0050197Y0087205
X0065945Y0084252
X0068799Y0096457
X008376Y0092224
X0085039Y0087598
X0079823Y0078051
X0073819Y0076476
X0099311Y0071653
X0105217Y0078543
X0113976Y0072244
X0122736Y0078937
X0124803Y0083051
Y0098051
X0122835Y0103248
X0103543Y0093051
X008248Y0114173
X0084645Y0136102
X0096161Y0135925
X0108366
X0051968Y0112598
X0168504Y0098032
X0197047Y0104921
X0193504Y0112598
X0192913Y0118504
X0189173Y0126378
X0190945Y0142126
X0195669
X0211417Y0126772
X0216535
X0214961Y0107087
X0206299
X0212992Y0086614
X0199213Y0084252
X0193504Y0082284
X0211713Y0071653
X022441Y0065748
X0198031Y0199606
X0187598Y0263976
X0203051Y0276772
X0194095Y0294488
X0181102
X0162992
X0172146Y0280709
X0212205Y0294488
X0149213Y0284744
X0108268Y0273898
X0096457
X0072834
X0075984Y0224409
Y0200787
X0082874Y0161024
X0115256
X0132972Y0197539
X0140945Y0206791
X0132972Y0215846
X0112992Y023622
T02
X0168992Y0169134
X0178992
X0188993
Y0189134
X0178992
X0168992
X0208993
Y0169134
T03
X0269291Y0093071
Y0123071
Y0143071
Y0173071
T04
X0161417Y0110118
X0178347
Y0159961
X0161417
T05
X0223831Y0158465
Y0197835
T06
X0092047Y0114173
X0102047
X0112047
X0122047
X0132047
T07
X0311024Y0154331
X0366142
Y0297638
X0311024
M30
