G04*
G04 #@! TF.GenerationSoftware,Altium Limited,Altium Designer,19.0.10 (269)*
G04*
G04 Layer_Color=16711935*
%FSLAX25Y25*%
%MOIN*%
G70*
G01*
G75*
%ADD35C,0.06306*%
%ADD36C,0.04239*%
%ADD37C,0.05124*%
%ADD38C,0.03943*%
%ADD39C,0.10243*%
%ADD40C,0.02762*%
D35*
X132047Y114173D02*
D03*
X122047D02*
D03*
X112047D02*
D03*
X102047D02*
D03*
X92047D02*
D03*
X223831Y197835D02*
D03*
Y158465D02*
D03*
D36*
X269291Y173071D02*
D03*
Y143071D02*
D03*
Y123071D02*
D03*
Y93071D02*
D03*
D37*
X161417Y159961D02*
D03*
Y110118D02*
D03*
X178347Y159961D02*
D03*
Y110118D02*
D03*
D38*
X188993Y189134D02*
D03*
X178992D02*
D03*
X168992D02*
D03*
Y169134D02*
D03*
X178992D02*
D03*
X188993D02*
D03*
X208993D02*
D03*
Y189134D02*
D03*
D39*
X311024Y297638D02*
D03*
Y154331D02*
D03*
X366142D02*
D03*
Y297638D02*
D03*
D40*
X122736Y78937D02*
D03*
X124803Y98051D02*
D03*
X211713Y71653D02*
D03*
X203051Y276772D02*
D03*
X99311Y71653D02*
D03*
X124803Y83051D02*
D03*
X132972Y215846D02*
D03*
X79823Y78051D02*
D03*
X83760Y92224D02*
D03*
X68799Y96457D02*
D03*
X65945Y84252D02*
D03*
X115256Y161024D02*
D03*
X82874D02*
D03*
X172146Y280709D02*
D03*
X73819Y76476D02*
D03*
X108366Y135925D02*
D03*
X75984Y200787D02*
D03*
X96161Y135925D02*
D03*
X50197Y87205D02*
D03*
X193504Y82284D02*
D03*
X140945Y206791D02*
D03*
X132972Y197539D02*
D03*
X85039Y87598D02*
D03*
X103543Y93051D02*
D03*
X113976Y72244D02*
D03*
X82480Y114173D02*
D03*
X84645Y136102D02*
D03*
X75984Y224409D02*
D03*
X108268Y273898D02*
D03*
X96457D02*
D03*
X112992Y236220D02*
D03*
X72834Y273898D02*
D03*
X122835Y103248D02*
D03*
X162992Y294488D02*
D03*
X194095D02*
D03*
X197047Y104921D02*
D03*
X192913Y118504D02*
D03*
X189173Y126378D02*
D03*
X149213Y284744D02*
D03*
X51968Y112598D02*
D03*
X105217Y78543D02*
D03*
X190945Y142126D02*
D03*
X216535Y126772D02*
D03*
X214961Y107087D02*
D03*
X206299D02*
D03*
X193504Y112598D02*
D03*
X168504Y98032D02*
D03*
X224410Y65748D02*
D03*
X212992Y86614D02*
D03*
X199213Y84252D02*
D03*
X212205Y294488D02*
D03*
X181102D02*
D03*
X187598Y263976D02*
D03*
X211417Y126772D02*
D03*
X195669Y142126D02*
D03*
X198031Y199606D02*
D03*
M02*
