G04*
G04 #@! TF.GenerationSoftware,Altium Limited,Altium Designer,19.0.13 (425)*
G04*
G04 Layer_Physical_Order=1*
G04 Layer_Color=255*
%FSLAX25Y25*%
%MOIN*%
G70*
G01*
G75*
%ADD20R,0.05709X0.02638*%
%ADD21R,0.06496X0.13504*%
%ADD22R,0.10000X0.05000*%
%ADD23R,0.08500X0.10799*%
%ADD24R,0.10799X0.08500*%
%ADD25R,0.09449X0.29528*%
%ADD26C,0.01500*%
%ADD27C,0.00984*%
%ADD28C,0.11600*%
%ADD29C,0.02362*%
%ADD30C,0.05000*%
D20*
X104429Y77758D02*
D03*
Y72758D02*
D03*
Y67758D02*
D03*
Y62758D02*
D03*
Y57758D02*
D03*
Y52758D02*
D03*
Y47758D02*
D03*
Y42758D02*
D03*
X123917D02*
D03*
Y47758D02*
D03*
Y52758D02*
D03*
Y57758D02*
D03*
Y62758D02*
D03*
Y67758D02*
D03*
Y72758D02*
D03*
Y77758D02*
D03*
D21*
X61102Y48662D02*
D03*
Y91102D02*
D03*
D22*
X74606Y75788D02*
D03*
Y63976D02*
D03*
D23*
X74764Y49606D02*
D03*
X92165D02*
D03*
D24*
X77756Y109095D02*
D03*
Y91693D02*
D03*
D25*
X121457Y98819D02*
D03*
X97047D02*
D03*
D26*
X83465Y91339D02*
X87598Y87205D01*
Y61516D02*
Y87205D01*
Y61516D02*
X91535Y57579D01*
Y50000D02*
Y57579D01*
X74606Y50335D02*
Y62758D01*
D27*
X100394Y56924D02*
Y57087D01*
Y56924D02*
X101784Y55534D01*
X104429D01*
X105169Y42018D02*
X107610D01*
X107283Y42088D02*
X107540D01*
X107610Y42018D01*
X78937Y109055D02*
X89921Y98071D01*
X102428Y88517D02*
Y97572D01*
X108183Y67829D02*
X110236Y69882D01*
X104500Y67829D02*
X108183D01*
X104429Y67758D02*
X104500Y67829D01*
X110236Y69882D02*
Y80709D01*
X102428Y88517D02*
X110236Y80709D01*
X117421Y71131D02*
X119009Y72719D01*
X117271Y71282D02*
X117421Y71131D01*
X123917Y72758D02*
X123957Y72798D01*
X123917Y57758D02*
X131358D01*
X133071Y59471D01*
X96299Y98071D02*
X97047Y98819D01*
X89921Y98071D02*
X96299D01*
X104429Y42758D02*
X105169Y42018D01*
X104429Y55534D02*
Y57758D01*
Y52758D02*
Y55534D01*
Y47758D02*
Y52758D01*
X101181Y98819D02*
X102428Y97572D01*
X123878Y72719D02*
X123917Y72758D01*
X119009Y72719D02*
X123878D01*
X117421Y54931D02*
Y71131D01*
Y54931D02*
X119554Y52798D01*
X123878D01*
X123917Y52758D01*
Y62758D02*
Y67758D01*
D28*
X141417Y106905D02*
D03*
X41024Y48679D02*
D03*
D29*
X86614Y66929D02*
D03*
X70866Y76128D02*
D03*
X100394Y57087D02*
D03*
X107283Y42088D02*
D03*
X117271Y71282D02*
D03*
X133071Y59471D02*
D03*
X121736Y99606D02*
D03*
X123622Y41754D02*
D03*
D30*
X73819Y91535D02*
D03*
M02*
