G04*
G04 #@! TF.GenerationSoftware,Altium Limited,Altium Designer,19.0.13 (425)*
G04*
G04 Layer_Color=16711935*
%FSLAX25Y25*%
%MOIN*%
G70*
G01*
G75*
%ADD38C,0.00079*%
D38*
X34308Y60258D02*
X33462Y59724D01*
X32658Y59129D01*
X31901Y58475D01*
X31195Y57766D01*
X30544Y57007D01*
X29951Y56201D01*
X29421Y55353D01*
X28954Y54468D01*
X28556Y53551D01*
X28227Y52606D01*
X27969Y51640D01*
X27785Y50657D01*
X27674Y49663D01*
X27638Y48663D01*
X27676Y47664D01*
X27790Y46670D01*
X27976Y45687D01*
X28236Y44721D01*
X28567Y43777D01*
X28968Y42861D01*
X29436Y41977D01*
X29969Y41130D01*
X30564Y40326D01*
X31217Y39568D01*
X31925Y38861D01*
X32683Y38209D01*
X33488Y37616D01*
X34335Y37084D01*
X35220Y36617D01*
X36137Y36217D01*
X37081Y35887D01*
X38047Y35628D01*
X39030Y35442D01*
X40024Y35331D01*
X41024Y35293D01*
X36033Y61259D02*
X36906Y61802D01*
X37745Y62398D01*
X38545Y63044D01*
X39304Y63738D01*
X40019Y64477D01*
X40687Y65259D01*
X41306Y66081D01*
X41873Y66939D01*
X42386Y67830D01*
X42844Y68752D01*
X43244Y69699D01*
X43586Y70670D01*
X43867Y71659D01*
X44086Y72664D01*
X44244Y73680D01*
X44339Y74704D01*
X44370Y75732D01*
X61102Y120293D02*
X60092Y120263D01*
X59086Y120171D01*
X58086Y120019D01*
X57098Y119807D01*
X56125Y119536D01*
X55169Y119206D01*
X54235Y118819D01*
X53326Y118377D01*
X52446Y117880D01*
X51597Y117331D01*
X50783Y116732D01*
X50007Y116085D01*
X49271Y115392D01*
X48578Y114656D01*
X47931Y113880D01*
X47332Y113066D01*
X46783Y112217D01*
X46287Y111337D01*
X45844Y110428D01*
X45457Y109494D01*
X45128Y108539D01*
X44856Y107565D01*
X44644Y106577D01*
X44492Y105578D01*
X44401Y104571D01*
X44370Y103561D01*
X148133Y95328D02*
X148979Y95862D01*
X149783Y96457D01*
X150540Y97111D01*
X151246Y97820D01*
X151897Y98579D01*
X152490Y99385D01*
X153020Y100233D01*
X153486Y101118D01*
X153885Y102035D01*
X154214Y102980D01*
X154472Y103946D01*
X154656Y104929D01*
X154767Y105924D01*
X154803Y106923D01*
X154765Y107923D01*
X154651Y108917D01*
X154464Y109899D01*
X154205Y110865D01*
X153873Y111809D01*
X153473Y112725D01*
X153005Y113609D01*
X152472Y114456D01*
X151877Y115260D01*
X151224Y116018D01*
X150516Y116725D01*
X149758Y117377D01*
X148953Y117971D01*
X148106Y118502D01*
X147221Y118970D01*
X146304Y119369D01*
X145360Y119699D01*
X144394Y119958D01*
X143411Y120144D01*
X142417Y120256D01*
X141417Y120293D01*
X146408Y94328D02*
X145535Y93784D01*
X144696Y93189D01*
X143896Y92542D01*
X143137Y91848D01*
X142422Y91109D01*
X141754Y90327D01*
X141135Y89505D01*
X140568Y88647D01*
X140054Y87756D01*
X139597Y86835D01*
X139197Y85887D01*
X138855Y84917D01*
X138574Y83927D01*
X138355Y82923D01*
X138197Y81906D01*
X138102Y80882D01*
X138071Y79854D01*
X121339Y35293D02*
X122349Y35324D01*
X123355Y35415D01*
X124355Y35567D01*
X125343Y35779D01*
X126316Y36051D01*
X127272Y36380D01*
X128206Y36767D01*
X129114Y37210D01*
X129995Y37706D01*
X130844Y38255D01*
X131658Y38854D01*
X132434Y39501D01*
X133170Y40194D01*
X133863Y40930D01*
X134510Y41706D01*
X135109Y42520D01*
X135658Y43369D01*
X136154Y44250D01*
X136597Y45158D01*
X136984Y46092D01*
X137313Y47048D01*
X137585Y48021D01*
X137797Y49009D01*
X137949Y50009D01*
X138040Y51015D01*
X138071Y52025D01*
X34308Y60258D02*
X36033Y61259D01*
X44370Y75732D02*
Y103561D01*
X61102Y120293D02*
X141417D01*
X146408Y94328D02*
X148133Y95328D01*
X138071Y52025D02*
Y79854D01*
X41024Y35293D02*
X121339D01*
M02*
