G04*
G04 #@! TF.GenerationSoftware,Altium Limited,Altium Designer,19.0.14 (431)*
G04*
G04 Layer_Color=16711935*
%FSLAX25Y25*%
%MOIN*%
G70*
G01*
G75*
%ADD47C,0.03943*%
%ADD48C,0.05124*%
%ADD49C,0.06306*%
%ADD50C,0.18707*%
%ADD51C,0.03943*%
%ADD52C,0.04337*%
%ADD53C,0.02762*%
D47*
X118134Y396575D02*
D03*
Y406575D02*
D03*
Y416575D02*
D03*
X98134D02*
D03*
Y406575D02*
D03*
Y396575D02*
D03*
Y376575D02*
D03*
X118134D02*
D03*
X216799Y395685D02*
D03*
Y405685D02*
D03*
Y415685D02*
D03*
X196799D02*
D03*
Y405685D02*
D03*
Y395685D02*
D03*
Y375685D02*
D03*
X216799D02*
D03*
X168595Y374945D02*
D03*
X148594D02*
D03*
Y394945D02*
D03*
Y404945D02*
D03*
Y414945D02*
D03*
X168595D02*
D03*
Y404945D02*
D03*
Y394945D02*
D03*
D48*
X84642Y370445D02*
D03*
X183642Y363398D02*
D03*
X138142Y372445D02*
D03*
X164642Y219225D02*
D03*
X238142Y313945D02*
D03*
X366142Y421945D02*
D03*
X261642Y424945D02*
D03*
X241142Y140969D02*
D03*
X244142Y126445D02*
D03*
X249142Y133945D02*
D03*
D49*
X180642Y416130D02*
D03*
Y376760D02*
D03*
X130142Y415130D02*
D03*
Y375760D02*
D03*
X364142Y149945D02*
D03*
X354142D02*
D03*
X344142D02*
D03*
X334142D02*
D03*
X324142D02*
D03*
X201642Y195445D02*
D03*
X191642D02*
D03*
X181642D02*
D03*
X171642D02*
D03*
X161642D02*
D03*
X235142Y375760D02*
D03*
Y415130D02*
D03*
D50*
X55118Y318898D02*
D03*
X78740Y70866D02*
D03*
X413386D02*
D03*
Y307087D02*
D03*
D51*
X303142Y423445D02*
D03*
X293142D02*
D03*
X283142D02*
D03*
X348142D02*
D03*
X338142D02*
D03*
X328142D02*
D03*
D52*
X225142Y287000D02*
D03*
Y227945D02*
D03*
D53*
X270079Y397929D02*
D03*
X278716Y390976D02*
D03*
X315354Y229945D02*
D03*
X278716D02*
D03*
X377165Y230709D02*
D03*
X351969Y236356D02*
D03*
X349606Y315748D02*
D03*
X377917Y294130D02*
D03*
X288189Y165354D02*
D03*
X278346Y172835D02*
D03*
X240551Y169291D02*
D03*
X238142Y202362D02*
D03*
X274016Y369291D02*
D03*
X207543Y366472D02*
D03*
X288445Y400945D02*
D03*
X91642Y181500D02*
D03*
X104250Y191409D02*
D03*
X321539Y194945D02*
D03*
X304334Y386990D02*
D03*
X325524Y178869D02*
D03*
X332520Y220472D02*
D03*
X250362Y90519D02*
D03*
X253142Y102146D02*
D03*
X340413Y164350D02*
D03*
X238142Y276718D02*
D03*
Y229945D02*
D03*
X188976Y271654D02*
D03*
X238142Y110236D02*
D03*
X310221Y364398D02*
D03*
X352000Y350945D02*
D03*
X336004Y350394D02*
D03*
X158500Y374945D02*
D03*
X114173Y348445D02*
D03*
X121862Y371571D02*
D03*
X153955Y375084D02*
D03*
X108642Y370008D02*
D03*
X158736Y387382D02*
D03*
X153642Y362205D02*
D03*
X253935Y133270D02*
D03*
X317913Y193996D02*
D03*
X174353Y179823D02*
D03*
X139500Y287209D02*
D03*
X84642Y181000D02*
D03*
X139500Y299000D02*
D03*
X335500Y178626D02*
D03*
X322000Y180279D02*
D03*
X295606Y205945D02*
D03*
X379142Y392358D02*
D03*
X326000Y338098D02*
D03*
X301000Y387500D02*
D03*
X349642Y399945D02*
D03*
X320142Y398445D02*
D03*
X352642Y198776D02*
D03*
X392642D02*
D03*
X220472Y125795D02*
D03*
X341142Y126945D02*
D03*
X350642Y128945D02*
D03*
X331689Y180685D02*
D03*
X370142Y179189D02*
D03*
X299213Y208177D02*
D03*
X213516Y198776D02*
D03*
X181646Y93945D02*
D03*
X197642Y137795D02*
D03*
X169291Y133965D02*
D03*
X216535Y169291D02*
D03*
X130642Y252969D02*
D03*
X141732Y122047D02*
D03*
X149606Y145409D02*
D03*
X148642Y158445D02*
D03*
X98425Y178945D02*
D03*
X90551Y236221D02*
D03*
X75736Y357606D02*
D03*
X308642Y374571D02*
D03*
X320142Y314445D02*
D03*
X250642Y296445D02*
D03*
X389135Y374945D02*
D03*
X169642Y320445D02*
D03*
X184642Y345445D02*
D03*
X173642Y339445D02*
D03*
X161736Y340445D02*
D03*
X124689Y343992D02*
D03*
X92142Y338445D02*
D03*
X341142Y212445D02*
D03*
X322642Y162945D02*
D03*
X361642Y182445D02*
D03*
X352642Y186965D02*
D03*
X246642Y142445D02*
D03*
X322642Y183898D02*
D03*
X248142Y127142D02*
D03*
X326642Y195445D02*
D03*
X332106Y216339D02*
D03*
X208642Y325445D02*
D03*
X134642Y338445D02*
D03*
X329142Y213945D02*
D03*
X77642Y271945D02*
D03*
X74642Y376445D02*
D03*
X371661Y344492D02*
D03*
X356842Y343992D02*
D03*
X102142Y202445D02*
D03*
X194642Y156445D02*
D03*
X254142Y151445D02*
D03*
X203642Y155945D02*
D03*
X203142Y166445D02*
D03*
X271142Y183445D02*
D03*
X217642Y177445D02*
D03*
X327474Y158945D02*
D03*
X392642Y162445D02*
D03*
X219142Y422882D02*
D03*
X295642Y191945D02*
D03*
X325142Y379945D02*
D03*
X325642Y350945D02*
D03*
X331689Y372398D02*
D03*
X332642Y361945D02*
D03*
X331142Y332945D02*
D03*
X156642Y324945D02*
D03*
X203705Y377382D02*
D03*
M02*
