G04*
G04 #@! TF.GenerationSoftware,Altium Limited,Altium Designer,19.0.14 (431)*
G04*
G04 Layer_Color=65535*
%FSLAX25Y25*%
%MOIN*%
G70*
G01*
G75*
%ADD10C,0.00394*%
%ADD11C,0.00984*%
%ADD12C,0.02362*%
%ADD13C,0.01000*%
%ADD14C,0.00600*%
%ADD15C,0.00787*%
%ADD16C,0.00591*%
%ADD17C,0.00500*%
%ADD18C,0.00700*%
D10*
X245472Y338524D02*
D03*
X183900Y322047D02*
D03*
X136882Y318445D02*
D03*
X355709Y249587D02*
D03*
X391142Y247579D02*
D03*
X307677Y369094D02*
D03*
X294291Y353878D02*
D03*
X336961Y93701D02*
D03*
X263583Y83977D02*
D03*
X145382Y101260D02*
D03*
X135177Y150902D02*
D03*
X169095Y102303D02*
D03*
X128953Y130902D02*
D03*
X370524Y92145D02*
D03*
X272882Y377823D02*
D03*
X261614Y377106D02*
D03*
X286417Y142347D02*
D03*
X300370Y139705D02*
D03*
X341917Y269358D02*
D03*
X347559Y255709D02*
D03*
X291144Y249272D02*
D03*
X311221Y250059D02*
D03*
X274213Y133937D02*
D03*
X258071Y118835D02*
D03*
D11*
X286819Y390551D02*
X286081Y390977D01*
Y390125D01*
X286819Y390551D01*
X338221Y399031D02*
X337482Y399458D01*
Y398605D01*
X338221Y399031D01*
X276772Y361748D02*
X276033Y362174D01*
Y361322D01*
X276772Y361748D01*
X93410Y220130D02*
X92671Y220556D01*
Y219704D01*
X93410Y220130D01*
X350284Y247126D02*
X349545Y247552D01*
Y246700D01*
X350284Y247126D01*
X318898Y242626D02*
X318160Y243052D01*
Y242200D01*
X318898Y242626D01*
X291122Y154693D02*
X290384Y155119D01*
Y154267D01*
X291122Y154693D01*
X257087Y153110D02*
X256348Y153536D01*
Y152684D01*
X257087Y153110D01*
X172882Y128110D02*
X172144Y128536D01*
Y127684D01*
X172882Y128110D01*
X87122Y188205D02*
X86384Y188631D01*
Y187778D01*
X87122Y188205D01*
X383079Y244894D02*
X382341Y245320D01*
Y244467D01*
X383079Y244894D01*
X339122Y135602D02*
X338384Y136028D01*
Y135176D01*
X339122Y135602D01*
X342039Y204114D02*
X341301Y204540D01*
Y203688D01*
X342039Y204114D01*
X363906Y362291D02*
X363167Y362718D01*
Y361865D01*
X363906Y362291D01*
D12*
X176917Y136772D02*
X176473Y137695D01*
X175473Y137923D01*
X174672Y137284D01*
Y136259D01*
X175473Y135620D01*
X176473Y135848D01*
X176917Y136772D01*
X335642Y194468D02*
X335197Y195392D01*
X334198Y195620D01*
X333397Y194981D01*
Y193956D01*
X334198Y193317D01*
X335197Y193545D01*
X335642Y194468D01*
X372867Y357424D02*
X372422Y358348D01*
X371423Y358576D01*
X370622Y357937D01*
Y356912D01*
X371423Y356273D01*
X372422Y356501D01*
X372867Y357424D01*
D13*
X276323Y257472D02*
X276313Y258471D01*
X276284Y259469D01*
X276235Y260467D01*
X276167Y261463D01*
X276079Y262458D01*
X275972Y263451D01*
X275846Y264442D01*
X275700Y265430D01*
X275536Y266415D01*
X275352Y267396D01*
X275148Y268374D01*
X274926Y269348D01*
X274685Y270317D01*
X274425Y271281D01*
X274146Y272240D01*
X273849Y273193D01*
X273533Y274141D01*
X273198Y275082D01*
X272845Y276016D01*
X272475Y276943D01*
X272086Y277863D01*
X271679Y278775D01*
X271254Y279679D01*
X270812Y280575D01*
X270353Y281461D01*
X269876Y282339D01*
X269382Y283207D01*
X268872Y284065D01*
X268345Y284913D01*
X267801Y285751D01*
X267241Y286578D01*
X266665Y287394D01*
X266073Y288199D01*
X265466Y288991D01*
X264844Y289772D01*
X264206Y290541D01*
X263553Y291297D01*
X262886Y292040D01*
X262204Y292770D01*
X261508Y293486D01*
X260799Y294189D01*
X260076Y294877D01*
X259339Y295552D01*
X258590Y296212D01*
X257827Y296857D01*
X257053Y297487D01*
X256266Y298102D01*
X255467Y298702D01*
X254657Y299286D01*
X253835Y299854D01*
X253003Y300406D01*
X252160Y300941D01*
X251307Y301460D01*
X250444Y301962D01*
X249571Y302447D01*
X248688Y302915D01*
X247797Y303366D01*
X246898Y303800D01*
X245989Y304215D01*
X245073Y304613D01*
X244150Y304993D01*
X243219Y305355D01*
X242281Y305698D01*
X241337Y306024D01*
X240387Y306330D01*
X239430Y306618D01*
X238469Y306888D01*
X237502Y307139D01*
X236531Y307370D01*
X235555Y307583D01*
X234575Y307777D01*
X233592Y307951D01*
X232605Y308106D01*
X231616Y308242D01*
X230624Y308359D01*
X229630Y308456D01*
X228635Y308534D01*
X227638Y308593D01*
X226640Y308632D01*
X225641Y308651D01*
X224642D01*
X223644Y308632D01*
X222646Y308593D01*
X221649Y308534D01*
X220653Y308456D01*
X219659Y308359D01*
X218668Y308242D01*
X217678Y308106D01*
X216692Y307951D01*
X215708Y307777D01*
X214729Y307583D01*
X213753Y307370D01*
X212782Y307139D01*
X211815Y306888D01*
X210853Y306619D01*
X209897Y306330D01*
X208946Y306024D01*
X208002Y305698D01*
X207065Y305355D01*
X206134Y304993D01*
X205210Y304613D01*
X204294Y304215D01*
X203386Y303800D01*
X202486Y303366D01*
X201595Y302915D01*
X200713Y302447D01*
X199840Y301962D01*
X198977Y301460D01*
X198124Y300941D01*
X197281Y300406D01*
X196448Y299854D01*
X195627Y299286D01*
X194816Y298702D01*
X194018Y298102D01*
X193231Y297487D01*
X192456Y296857D01*
X191694Y296212D01*
X190945Y295552D01*
X190208Y294878D01*
X189485Y294189D01*
X188775Y293486D01*
X188079Y292770D01*
X187398Y292040D01*
X186731Y291297D01*
X186078Y290541D01*
X185440Y289772D01*
X184817Y288991D01*
X184210Y288199D01*
X183618Y287394D01*
X183042Y286578D01*
X182483Y285751D01*
X181939Y284914D01*
X181412Y284065D01*
X180901Y283207D01*
X180407Y282339D01*
X179931Y281461D01*
X179471Y280575D01*
X179029Y279679D01*
X178605Y278775D01*
X178198Y277863D01*
X177809Y276943D01*
X177438Y276016D01*
X177085Y275082D01*
X176751Y274141D01*
X176435Y273193D01*
X176137Y272240D01*
X175859Y271281D01*
X175599Y270317D01*
X175357Y269348D01*
X175135Y268374D01*
X174932Y267396D01*
X174748Y266415D01*
X174583Y265430D01*
X174437Y264442D01*
X174311Y263451D01*
X174204Y262458D01*
X174117Y261463D01*
X174048Y260467D01*
X174000Y259470D01*
X173970Y258471D01*
X173961Y257473D01*
X173970Y256474D01*
X174000Y255476D01*
X174048Y254478D01*
X174116Y253482D01*
X174204Y252487D01*
X174311Y251494D01*
X174437Y250503D01*
X174583Y249515D01*
X174748Y248530D01*
X174932Y247549D01*
X175135Y246571D01*
X175357Y245597D01*
X175599Y244628D01*
X175858Y243664D01*
X176137Y242705D01*
X176435Y241752D01*
X176751Y240804D01*
X177085Y239863D01*
X177438Y238929D01*
X177809Y238002D01*
X178198Y237082D01*
X178605Y236170D01*
X179029Y235266D01*
X179471Y234370D01*
X179931Y233484D01*
X180407Y232606D01*
X180901Y231738D01*
X181412Y230880D01*
X181939Y230031D01*
X182482Y229194D01*
X183042Y228367D01*
X183618Y227551D01*
X184210Y226746D01*
X184817Y225954D01*
X185440Y225173D01*
X186078Y224404D01*
X186730Y223648D01*
X187398Y222905D01*
X188079Y222176D01*
X188775Y221459D01*
X189485Y220756D01*
X190208Y220068D01*
X190944Y219393D01*
X191694Y218733D01*
X192456Y218088D01*
X193231Y217458D01*
X194018Y216843D01*
X194816Y216243D01*
X195626Y215659D01*
X196448Y215091D01*
X197280Y214539D01*
X198123Y214004D01*
X198977Y213485D01*
X199840Y212983D01*
X200713Y212498D01*
X201595Y212030D01*
X202486Y211579D01*
X203386Y211145D01*
X204294Y210730D01*
X205210Y210332D01*
X206134Y209952D01*
X207064Y209590D01*
X208002Y209246D01*
X208946Y208921D01*
X209897Y208615D01*
X210853Y208326D01*
X211814Y208057D01*
X212781Y207806D01*
X213753Y207575D01*
X214728Y207362D01*
X215708Y207168D01*
X216691Y206994D01*
X217678Y206838D01*
X218667Y206702D01*
X219659Y206586D01*
X220653Y206488D01*
X221649Y206411D01*
X222646Y206352D01*
X223644Y206313D01*
X224642Y206294D01*
X225641Y206294D01*
X226639Y206313D01*
X227637Y206352D01*
X228634Y206411D01*
X229630Y206488D01*
X230624Y206586D01*
X231616Y206702D01*
X232605Y206838D01*
X233592Y206994D01*
X234575Y207168D01*
X235555Y207362D01*
X236530Y207575D01*
X237502Y207806D01*
X238469Y208057D01*
X239430Y208326D01*
X240386Y208614D01*
X241337Y208921D01*
X242281Y209246D01*
X243219Y209590D01*
X244150Y209952D01*
X245073Y210332D01*
X245989Y210730D01*
X246897Y211145D01*
X247797Y211579D01*
X248688Y212029D01*
X249570Y212497D01*
X250443Y212983D01*
X251307Y213485D01*
X252160Y214004D01*
X253003Y214539D01*
X253835Y215091D01*
X254657Y215659D01*
X255467Y216243D01*
X256266Y216842D01*
X257052Y217457D01*
X257827Y218088D01*
X258589Y218733D01*
X259339Y219393D01*
X260075Y220067D01*
X260799Y220756D01*
X261508Y221459D01*
X262204Y222175D01*
X262886Y222905D01*
X263553Y223648D01*
X264206Y224404D01*
X264843Y225172D01*
X265466Y225953D01*
X266073Y226746D01*
X266665Y227551D01*
X267241Y228366D01*
X267801Y229193D01*
X268344Y230031D01*
X268872Y230879D01*
X269382Y231738D01*
X269876Y232606D01*
X270353Y233483D01*
X270812Y234370D01*
X271254Y235266D01*
X271679Y236170D01*
X272085Y237082D01*
X272474Y238001D01*
X272845Y238929D01*
X273198Y239863D01*
X273533Y240804D01*
X273849Y241751D01*
X274146Y242705D01*
X274425Y243664D01*
X274685Y244628D01*
X274926Y245597D01*
X275148Y246571D01*
X275352Y247549D01*
X275536Y248530D01*
X275700Y249515D01*
X275846Y250503D01*
X275972Y251494D01*
X276079Y252487D01*
X276167Y253482D01*
X276235Y254478D01*
X276284Y255475D01*
X276313Y256474D01*
X276323Y257472D01*
X253150Y430079D02*
X256142Y433071D01*
X44500Y174445D02*
X132142D01*
X180500Y301945D02*
Y428500D01*
X129500Y301945D02*
Y428500D01*
X67000D02*
X250700D01*
X391142Y218445D02*
X402500D01*
X397945Y166500D02*
X398000Y166445D01*
X363291Y166500D02*
X397945D01*
X356000Y173791D02*
X363291Y166500D01*
X356000Y173791D02*
Y196799D01*
X347500Y205299D02*
X356000Y196799D01*
X347500Y205299D02*
Y218445D01*
X319142Y134642D02*
Y162358D01*
X311500Y170000D02*
X319142Y162358D01*
X259300Y170000D02*
X311500D01*
X244600Y155300D02*
X259300Y170000D01*
X244600Y145900D02*
Y155300D01*
X319142Y61500D02*
Y138358D01*
X262500Y61000D02*
Y97000D01*
X254000Y105500D02*
X262500Y97000D01*
X254000Y105500D02*
Y136500D01*
X244600Y145900D02*
X254000Y136500D01*
X234500Y145900D02*
X243939D01*
X215142Y126542D02*
X234500Y145900D01*
X215142Y120000D02*
Y126542D01*
X205142Y41642D02*
X205784Y41000D01*
X205142Y41642D02*
Y60000D01*
X217642Y72500D01*
Y117500D01*
X214642Y120500D02*
X217642Y117500D01*
X179000Y120500D02*
X214642D01*
X150000Y41894D02*
Y60500D01*
X42500Y82000D02*
X111500D01*
X133000Y60500D01*
X150000D01*
X163500Y74000D01*
X166000D01*
X170500Y78500D01*
Y82500D01*
X173500Y85500D01*
X177000D01*
X185000Y93500D01*
Y114500D01*
X179000Y120500D02*
X185000Y114500D01*
X164200Y120500D02*
X179000D01*
X161000Y123700D02*
X164200Y120500D01*
X161000Y123700D02*
Y168886D01*
X155441Y174445D02*
X161000Y168886D01*
X132142Y174445D02*
X155441D01*
X388461Y218764D02*
Y278126D01*
Y294126D01*
X381087Y301500D02*
X388461Y294126D01*
X351512Y301500D02*
X381087D01*
X147142Y189445D02*
Y223945D01*
X132142Y174445D02*
X147142Y189445D01*
X67142Y302945D02*
X68642Y301445D01*
X67142Y302945D02*
Y304445D01*
X60642Y310945D02*
X67142Y304445D01*
X41142Y310945D02*
X60642D01*
X175642Y301445D02*
X186642D01*
X162642D02*
X186642D01*
X162642Y227626D02*
Y301445D01*
X159461Y224445D02*
X162642Y227626D01*
X83142Y224445D02*
X159461D01*
X81142Y226445D02*
X83142Y224445D01*
X81142Y226445D02*
Y237445D01*
X74142Y244445D02*
X81142Y237445D01*
X39370Y244445D02*
X74142D01*
X320642Y218445D02*
X391142D01*
X315642Y301445D02*
X351512D01*
Y264186D02*
Y301445D01*
X350706Y218445D02*
X351512Y217639D01*
Y301500D01*
X288142Y301445D02*
X315642D01*
X321142Y218445D02*
Y301000D01*
X320642Y217945D02*
X321142Y218445D01*
X290642Y217945D02*
X320642D01*
X288142Y220445D02*
X290642Y217945D01*
X288142Y220445D02*
Y301445D01*
X253150Y430079D02*
X253150Y303437D01*
X255142Y301445D01*
X364642D01*
X430500Y367303D01*
Y424303D01*
X250642Y302445D02*
Y433071D01*
Y302445D02*
X251642Y301445D01*
X68642D02*
X251642D01*
X323220Y233402D02*
X324721Y234902D01*
X67142Y433071D02*
X67142Y302945D01*
X71105Y403854D02*
X75041D01*
Y405822D01*
X74385Y406478D01*
X73729D01*
X73073Y405822D01*
Y403854D01*
Y405822D01*
X72417Y406478D01*
X71761D01*
X71105Y405822D01*
Y403854D01*
X75041Y407790D02*
X71105D01*
X72417Y409101D01*
X71105Y410413D01*
X75041D01*
X71761Y414349D02*
X71105Y413693D01*
Y412381D01*
X71761Y411725D01*
X72417D01*
X73073Y412381D01*
Y413693D01*
X73729Y414349D01*
X74385D01*
X75041Y413693D01*
Y412381D01*
X74385Y411725D01*
X61954Y403389D02*
Y404701D01*
Y404045D01*
X65889D01*
Y403389D01*
Y404701D01*
Y406669D02*
X61954D01*
X63266Y407981D01*
X61954Y409293D01*
X65889D01*
X61954Y410605D02*
X65889D01*
Y412573D01*
X65233Y413229D01*
X62609D01*
X61954Y412573D01*
Y410605D01*
X54358Y403389D02*
X56982D01*
X55670D01*
X55014Y404045D01*
X54358Y404701D01*
Y405357D01*
X56982Y409293D02*
Y407981D01*
X56326Y407325D01*
X55014D01*
X54358Y407981D01*
Y409293D01*
X55014Y409949D01*
X55670D01*
Y407325D01*
X56982Y411261D02*
Y413229D01*
X56326Y413885D01*
X55670Y413229D01*
Y411917D01*
X55014Y411261D01*
X54358Y411917D01*
Y413885D01*
X56982Y417164D02*
Y415852D01*
X56326Y415197D01*
X55014D01*
X54358Y415852D01*
Y417164D01*
X55014Y417820D01*
X55670D01*
Y415197D01*
X53702Y419788D02*
X54358D01*
Y419132D01*
Y420444D01*
Y419788D01*
X56326D01*
X56982Y420444D01*
X419360Y330770D02*
X418361Y329771D01*
Y327771D01*
X419360Y326772D01*
X423359D01*
X424359Y327771D01*
Y329771D01*
X423359Y330770D01*
X418361Y332770D02*
X423359D01*
X424359Y333769D01*
Y335769D01*
X423359Y336768D01*
X418361D01*
X424359Y338768D02*
X418361D01*
Y341767D01*
X419360Y342766D01*
X421360D01*
X422359Y341767D01*
Y338768D01*
Y340767D02*
X424359Y342766D01*
Y354763D02*
X423359Y353763D01*
X424359Y352763D01*
Y351764D01*
X423359Y350764D01*
X422359D01*
X421360Y351764D01*
X420360Y350764D01*
X419360D01*
X418361Y351764D01*
Y352763D01*
X419360Y353763D01*
X420360D01*
X421360Y352763D01*
X422359Y353763D01*
X423359D01*
X421360Y354763D02*
X422359Y353763D01*
X421360Y351764D02*
Y352763D01*
X418361Y362760D02*
X424359D01*
Y365759D01*
X423359Y366759D01*
X422359D01*
X421360Y365759D01*
Y362760D01*
Y365759D01*
X420360Y366759D01*
X419360D01*
X418361Y365759D01*
Y362760D01*
X424359Y368758D02*
X418361D01*
Y371757D01*
X419360Y372757D01*
X421360D01*
X422359Y371757D01*
Y368758D01*
Y370757D02*
X424359Y372757D01*
Y374756D02*
X420360D01*
X418361Y376755D01*
X420360Y378755D01*
X424359D01*
X421360D01*
Y374756D01*
X418361Y380754D02*
X424359D01*
X422359D01*
X418361Y384753D01*
X421360Y381754D01*
X424359Y384753D01*
X418361Y390751D02*
Y386752D01*
X424359D01*
Y390751D01*
X421360Y386752D02*
Y388752D01*
X86919Y372398D02*
X92917D01*
Y375397D01*
X91918Y376396D01*
X90918D01*
X89918Y375397D01*
Y372398D01*
Y375397D01*
X88919Y376396D01*
X87919D01*
X86919Y375397D01*
Y372398D01*
X87919Y382394D02*
X86919Y381395D01*
Y379395D01*
X87919Y378396D01*
X88919D01*
X89918Y379395D01*
Y381395D01*
X90918Y382394D01*
X91918D01*
X92917Y381395D01*
Y379395D01*
X91918Y378396D01*
X92917Y384394D02*
X86919D01*
Y387393D01*
X87919Y388392D01*
X89918D01*
X90918Y387393D01*
Y384394D01*
X86919Y390392D02*
X92917D01*
Y393391D01*
X91918Y394391D01*
X87919D01*
X86919Y393391D01*
Y390392D01*
X93917Y396390D02*
Y400389D01*
X92917Y402388D02*
X86919D01*
Y405387D01*
X87919Y406387D01*
X89918D01*
X90918Y405387D01*
Y402388D01*
Y404387D02*
X92917Y406387D01*
X86919Y412385D02*
Y408386D01*
X92917D01*
Y412385D01*
X89918Y408386D02*
Y410385D01*
X86919Y414384D02*
X92917D01*
Y418383D01*
Y420382D02*
X88919D01*
X86919Y422381D01*
X88919Y424381D01*
X92917D01*
X89918D01*
Y420382D01*
X86919Y426380D02*
X87919D01*
X89918Y428379D01*
X87919Y430379D01*
X86919D01*
X89918Y428379D02*
X92917D01*
X222348Y376760D02*
Y378759D01*
Y377760D01*
X228346D01*
Y376760D01*
Y378759D01*
Y381758D02*
X222348D01*
X224348Y383758D01*
X222348Y385757D01*
X228346D01*
X222348Y387756D02*
X228346D01*
Y390755D01*
X227347Y391755D01*
X223348D01*
X222348Y390755D01*
Y387756D01*
X228346Y399752D02*
X222348D01*
Y402751D01*
X223348Y403751D01*
X225347D01*
X226347Y402751D01*
Y399752D01*
Y401752D02*
X228346Y403751D01*
X222348Y405751D02*
X228346D01*
Y409749D01*
Y411749D02*
X224348D01*
X222348Y413748D01*
X224348Y415747D01*
X228346D01*
X225347D01*
Y411749D01*
X222348Y417747D02*
X223348D01*
X225347Y419746D01*
X223348Y421745D01*
X222348D01*
X225347Y419746D02*
X228346D01*
X325164Y295692D02*
X324164Y296692D01*
X322165D01*
X321165Y295692D01*
Y294693D01*
X322165Y293693D01*
X324164D01*
X325164Y292693D01*
Y291694D01*
X324164Y290694D01*
X322165D01*
X321165Y291694D01*
X327163Y296692D02*
X331162D01*
X329163D01*
Y290694D01*
X337160Y296692D02*
X333161D01*
Y290694D01*
X337160D01*
X333161Y293693D02*
X335161D01*
X343158Y296692D02*
X339159D01*
Y290694D01*
X343158D01*
X339159Y293693D02*
X341159D01*
X345158Y290694D02*
Y296692D01*
X348157D01*
X349156Y295692D01*
Y293693D01*
X348157Y292693D01*
X345158D01*
X347157D02*
X349156Y290694D01*
X357154D02*
Y296692D01*
X360153D01*
X361152Y295692D01*
Y293693D01*
X360153Y292693D01*
X357154D01*
X366151Y296692D02*
X364152D01*
X363152Y295692D01*
Y291694D01*
X364152Y290694D01*
X366151D01*
X367150Y291694D01*
Y295692D01*
X366151Y296692D01*
X373148Y295692D02*
X372149Y296692D01*
X370149D01*
X369150Y295692D01*
Y294693D01*
X370149Y293693D01*
X372149D01*
X373148Y292693D01*
Y291694D01*
X372149Y290694D01*
X370149D01*
X369150Y291694D01*
X354331Y285443D02*
Y279445D01*
X357330D01*
X358329Y280445D01*
Y281444D01*
X357330Y282444D01*
X354331D01*
X357330D01*
X358329Y283444D01*
Y284443D01*
X357330Y285443D01*
X354331D01*
X360329Y279445D02*
Y285443D01*
X363328D01*
X364328Y284443D01*
Y282444D01*
X363328Y281444D01*
X360329D01*
X362328D02*
X364328Y279445D01*
X366327D02*
Y283444D01*
X368326Y285443D01*
X370325Y283444D01*
Y279445D01*
Y282444D01*
X366327D01*
X372325Y285443D02*
Y279445D01*
Y281444D01*
X376324Y285443D01*
X373325Y282444D01*
X376324Y279445D01*
X382322Y285443D02*
X378323D01*
Y279445D01*
X382322D01*
X378323Y282444D02*
X380322D01*
X384321Y278445D02*
X388320D01*
X390319Y279445D02*
Y285443D01*
X393318D01*
X394318Y284443D01*
Y282444D01*
X393318Y281444D01*
X390319D01*
X399316Y285443D02*
X397317D01*
X396317Y284443D01*
Y280445D01*
X397317Y279445D01*
X399316D01*
X400316Y280445D01*
Y284443D01*
X399316Y285443D01*
X406314Y284443D02*
X405314Y285443D01*
X403315D01*
X402315Y284443D01*
Y283444D01*
X403315Y282444D01*
X405314D01*
X406314Y281444D01*
Y280445D01*
X405314Y279445D01*
X403315D01*
X402315Y280445D01*
X362372Y176999D02*
X361372Y175999D01*
Y174000D01*
X362372Y173000D01*
X366370D01*
X367370Y174000D01*
Y175999D01*
X366370Y176999D01*
X367370Y178998D02*
X363371D01*
X361372Y180997D01*
X363371Y182997D01*
X367370D01*
X364371D01*
Y178998D01*
X367370Y184996D02*
X361372D01*
X367370Y188995D01*
X361372D01*
X47500Y179189D02*
Y183188D01*
X49499Y185187D01*
X51499Y183188D01*
Y179189D01*
Y182188D01*
X47500D01*
X53498Y179189D02*
Y185187D01*
X57497Y179189D01*
Y185187D01*
X59496Y179189D02*
Y183188D01*
X61496Y185187D01*
X63495Y183188D01*
Y179189D01*
Y182188D01*
X59496D01*
X65494Y185187D02*
Y179189D01*
X69493D01*
X74491Y185187D02*
X72492D01*
X71492Y184187D01*
Y180189D01*
X72492Y179189D01*
X74491D01*
X75491Y180189D01*
Y184187D01*
X74491Y185187D01*
X81489Y184187D02*
X80489Y185187D01*
X78490D01*
X77490Y184187D01*
Y180189D01*
X78490Y179189D01*
X80489D01*
X81489Y180189D01*
Y182188D01*
X79490D01*
X325775Y108569D02*
Y110568D01*
X326775D01*
X327108Y110235D01*
Y109568D01*
X326775Y109235D01*
X325775D01*
X326441D02*
X327108Y108569D01*
X327774D02*
X328441D01*
X328107D01*
Y110568D01*
X327774Y110235D01*
X329440Y108902D02*
X329773Y108569D01*
X330440D01*
X330773Y108902D01*
Y110235D01*
X330440Y110568D01*
X329773D01*
X329440Y110235D01*
Y109901D01*
X329773Y109568D01*
X330773D01*
X260300Y392119D02*
Y394118D01*
X261300D01*
X261633Y393785D01*
Y393119D01*
X261300Y392785D01*
X260300D01*
X260966D02*
X261633Y392119D01*
X262299D02*
X262966D01*
X262633D01*
Y394118D01*
X262299Y393785D01*
X263966D02*
X264299Y394118D01*
X264965D01*
X265298Y393785D01*
Y393452D01*
X264965Y393119D01*
X265298Y392785D01*
Y392452D01*
X264965Y392119D01*
X264299D01*
X263966Y392452D01*
Y392785D01*
X264299Y393119D01*
X263966Y393452D01*
Y393785D01*
X264299Y393119D02*
X264965D01*
X264673Y392128D02*
Y394127D01*
X265672D01*
X266006Y393794D01*
Y393128D01*
X265672Y392794D01*
X264673D01*
X265339D02*
X266006Y392128D01*
X266672D02*
X267339D01*
X267005D01*
Y394127D01*
X266672Y393794D01*
X268338Y392128D02*
X269005D01*
X268671D01*
Y394127D01*
X268338Y393794D01*
X269397Y392128D02*
Y394127D01*
X270397D01*
X270730Y393794D01*
Y393128D01*
X270397Y392794D01*
X269397D01*
X270064D02*
X270730Y392128D01*
X272729D02*
X271397D01*
X272729Y393461D01*
Y393794D01*
X272396Y394127D01*
X271730D01*
X271397Y393794D01*
X256051Y392094D02*
Y394093D01*
X257051D01*
X257384Y393760D01*
Y393093D01*
X257051Y392760D01*
X256051D01*
X256718D02*
X257384Y392094D01*
X258050D02*
X258717D01*
X258384D01*
Y394093D01*
X258050Y393760D01*
X274533Y398848D02*
X273200D01*
Y397849D01*
X273866D01*
X273200D01*
Y396849D01*
X275199Y398848D02*
X276532D01*
Y398515D01*
X275199Y397182D01*
Y396849D01*
X238670Y344882D02*
Y342883D01*
X239670D01*
X240003Y343216D01*
Y344549D01*
X239670Y344882D01*
X238670D01*
X240669Y344549D02*
X241003Y344882D01*
X241669D01*
X242002Y344549D01*
Y344216D01*
X241669Y343882D01*
X241336D01*
X241669D01*
X242002Y343549D01*
Y343216D01*
X241669Y342883D01*
X241003D01*
X240669Y343216D01*
X242669Y344549D02*
X243002Y344882D01*
X243668D01*
X244002Y344549D01*
Y344216D01*
X243668Y343882D01*
X243335D01*
X243668D01*
X244002Y343549D01*
Y343216D01*
X243668Y342883D01*
X243002D01*
X242669Y343216D01*
X183349Y327558D02*
Y325559D01*
X184348D01*
X184682Y325892D01*
Y327225D01*
X184348Y327558D01*
X183349D01*
X185348Y327225D02*
X185681Y327558D01*
X186348D01*
X186681Y327225D01*
Y326892D01*
X186348Y326559D01*
X186015D01*
X186348D01*
X186681Y326225D01*
Y325892D01*
X186348Y325559D01*
X185681D01*
X185348Y325892D01*
X188680Y325559D02*
X187347D01*
X188680Y326892D01*
Y327225D01*
X188347Y327558D01*
X187681D01*
X187347Y327225D01*
X130084Y324745D02*
Y322746D01*
X131083D01*
X131416Y323079D01*
Y324412D01*
X131083Y324745D01*
X130084D01*
X132083Y324412D02*
X132416Y324745D01*
X133082D01*
X133416Y324412D01*
Y324079D01*
X133082Y323745D01*
X132749D01*
X133082D01*
X133416Y323412D01*
Y323079D01*
X133082Y322746D01*
X132416D01*
X132083Y323079D01*
X134082Y322746D02*
X134749D01*
X134415D01*
Y324745D01*
X134082Y324412D01*
X356005Y271551D02*
Y269552D01*
X357005D01*
X357338Y269885D01*
Y271218D01*
X357005Y271551D01*
X356005D01*
X358004Y271218D02*
X358338Y271551D01*
X359004D01*
X359337Y271218D01*
Y270884D01*
X359004Y270551D01*
X358671D01*
X359004D01*
X359337Y270218D01*
Y269885D01*
X359004Y269552D01*
X358338D01*
X358004Y269885D01*
X360004Y271218D02*
X360337Y271551D01*
X361003D01*
X361337Y271218D01*
Y269885D01*
X361003Y269552D01*
X360337D01*
X360004Y269885D01*
Y271218D01*
X384376Y253962D02*
Y251962D01*
X385375D01*
X385708Y252295D01*
Y253628D01*
X385375Y253962D01*
X384376D01*
X387708Y251962D02*
X386375D01*
X387708Y253295D01*
Y253628D01*
X387375Y253962D01*
X386708D01*
X386375Y253628D01*
X388374Y252295D02*
X388707Y251962D01*
X389374D01*
X389707Y252295D01*
Y253628D01*
X389374Y253962D01*
X388707D01*
X388374Y253628D01*
Y253295D01*
X388707Y252962D01*
X389707D01*
X300921Y375433D02*
Y373434D01*
X301920D01*
X302253Y373767D01*
Y375100D01*
X301920Y375433D01*
X300921D01*
X304253Y373434D02*
X302920D01*
X304253Y374767D01*
Y375100D01*
X303920Y375433D01*
X303253D01*
X302920Y375100D01*
X304919D02*
X305252Y375433D01*
X305919D01*
X306252Y375100D01*
Y374767D01*
X305919Y374433D01*
X306252Y374100D01*
Y373767D01*
X305919Y373434D01*
X305252D01*
X304919Y373767D01*
Y374100D01*
X305252Y374433D01*
X304919Y374767D01*
Y375100D01*
X305252Y374433D02*
X305919D01*
X287506Y360191D02*
Y358191D01*
X288506D01*
X288839Y358525D01*
Y359858D01*
X288506Y360191D01*
X287506D01*
X290839Y358191D02*
X289506D01*
X290839Y359524D01*
Y359858D01*
X290505Y360191D01*
X289839D01*
X289506Y359858D01*
X291505Y360191D02*
X292838D01*
Y359858D01*
X291505Y358525D01*
Y358191D01*
X320807Y106255D02*
Y104256D01*
X321807D01*
X322140Y104589D01*
Y105922D01*
X321807Y106255D01*
X320807D01*
X324139Y104256D02*
X322806D01*
X324139Y105589D01*
Y105922D01*
X323806Y106255D01*
X323140D01*
X322806Y105922D01*
X326139Y106255D02*
X325472Y105922D01*
X324806Y105256D01*
Y104589D01*
X325139Y104256D01*
X325805D01*
X326139Y104589D01*
Y104922D01*
X325805Y105256D01*
X324806D01*
X258376Y140790D02*
Y138790D01*
X259375D01*
X259708Y139123D01*
Y140456D01*
X259375Y140790D01*
X258376D01*
X261708Y138790D02*
X260375D01*
X261708Y140123D01*
Y140456D01*
X261375Y140790D01*
X260708D01*
X260375Y140456D01*
X270730Y404361D02*
X270397Y404694D01*
X269730D01*
X269397Y404361D01*
Y403028D01*
X269730Y402695D01*
X270397D01*
X270730Y403028D01*
X271397Y402695D02*
X272063D01*
X271730D01*
Y404694D01*
X271397Y404361D01*
X274396Y404694D02*
X273063D01*
Y403695D01*
X273729Y404028D01*
X274062D01*
X274396Y403695D01*
Y403028D01*
X274062Y402695D01*
X273396D01*
X273063Y403028D01*
X267717Y91704D02*
Y89705D01*
X268716D01*
X269049Y90038D01*
Y91371D01*
X268716Y91704D01*
X267717D01*
X271049Y89705D02*
X269716D01*
X271049Y91038D01*
Y91371D01*
X270716Y91704D01*
X270049D01*
X269716Y91371D01*
X273048Y91704D02*
X271715D01*
Y90704D01*
X272382Y91038D01*
X272715D01*
X273048Y90704D01*
Y90038D01*
X272715Y89705D01*
X272048D01*
X271715Y90038D01*
X240337Y90645D02*
Y92645D01*
X241336D01*
X241670Y92312D01*
Y91645D01*
X241336Y91312D01*
X240337D01*
X241003D02*
X241670Y90645D01*
X242336Y90979D02*
X242669Y90645D01*
X243336D01*
X243669Y90979D01*
Y92312D01*
X243336Y92645D01*
X242669D01*
X242336Y92312D01*
Y91978D01*
X242669Y91645D01*
X243669D01*
X244336Y90979D02*
X244669Y90645D01*
X245335D01*
X245668Y90979D01*
Y92312D01*
X245335Y92645D01*
X244669D01*
X244336Y92312D01*
Y91978D01*
X244669Y91645D01*
X245668D01*
X213516Y328492D02*
X211516D01*
Y329492D01*
X211850Y329825D01*
X212516D01*
X212849Y329492D01*
Y328492D01*
Y329159D02*
X213516Y329825D01*
X213182Y330491D02*
X213516Y330825D01*
Y331491D01*
X213182Y331824D01*
X211850D01*
X211516Y331491D01*
Y330825D01*
X211850Y330491D01*
X212183D01*
X212516Y330825D01*
Y331824D01*
X211516Y332491D02*
Y333824D01*
X211850D01*
X213182Y332491D01*
X213516D01*
X169000Y355600D02*
Y357599D01*
X170000D01*
X170333Y357266D01*
Y356600D01*
X170000Y356266D01*
X169000D01*
X169667D02*
X170333Y355600D01*
X170999Y355933D02*
X171333Y355600D01*
X171999D01*
X172332Y355933D01*
Y357266D01*
X171999Y357599D01*
X171333D01*
X170999Y357266D01*
Y356933D01*
X171333Y356600D01*
X172332D01*
X174332Y357599D02*
X173665Y357266D01*
X172999Y356600D01*
Y355933D01*
X173332Y355600D01*
X173998D01*
X174332Y355933D01*
Y356266D01*
X173998Y356600D01*
X172999D01*
X95902Y439007D02*
X96568D01*
X96235D01*
Y437008D01*
X95902D01*
X96568D01*
X97568D02*
Y439007D01*
X98234Y438341D01*
X98901Y439007D01*
Y437008D01*
X99567Y439007D02*
Y437008D01*
X100567D01*
X100900Y437341D01*
Y438674D01*
X100567Y439007D01*
X99567D01*
X101566Y436675D02*
X102899D01*
X103566Y437008D02*
Y439007D01*
X104565D01*
X104899Y438674D01*
Y438007D01*
X104565Y437674D01*
X103566D01*
X104232D02*
X104899Y437008D01*
X106898Y439007D02*
X105565D01*
Y437008D01*
X106898D01*
X105565Y438007D02*
X106231D01*
X107564Y439007D02*
Y437008D01*
X108897D01*
X109564D02*
Y438341D01*
X110230Y439007D01*
X110897Y438341D01*
Y437008D01*
Y438007D01*
X109564D01*
X111563Y439007D02*
Y438674D01*
X112230Y438007D01*
X112896Y438674D01*
Y439007D01*
X112230Y438007D02*
Y437008D01*
X290384Y405600D02*
Y407599D01*
X291384D01*
X291717Y407266D01*
Y406600D01*
X291384Y406266D01*
X290384D01*
X291051D02*
X291717Y405600D01*
X292383Y405933D02*
X292717Y405600D01*
X293383D01*
X293716Y405933D01*
Y407266D01*
X293383Y407599D01*
X292717D01*
X292383Y407266D01*
Y406933D01*
X292717Y406600D01*
X293716D01*
X294383Y407266D02*
X294716Y407599D01*
X295382D01*
X295716Y407266D01*
Y406933D01*
X295382Y406600D01*
X295049D01*
X295382D01*
X295716Y406266D01*
Y405933D01*
X295382Y405600D01*
X294716D01*
X294383Y405933D01*
X316837Y364961D02*
X312901D01*
Y366929D01*
X313557Y367584D01*
X314869D01*
X315525Y366929D01*
Y364961D01*
Y366272D02*
X316837Y367584D01*
X316181Y368896D02*
X316837Y369552D01*
Y370864D01*
X316181Y371520D01*
X313557D01*
X312901Y370864D01*
Y369552D01*
X313557Y368896D01*
X314213D01*
X314869Y369552D01*
Y371520D01*
X316837Y375456D02*
Y372832D01*
X314213Y375456D01*
X313557D01*
X312901Y374800D01*
Y373488D01*
X313557Y372832D01*
X351369Y362400D02*
Y364399D01*
X352369D01*
X352702Y364066D01*
Y363400D01*
X352369Y363066D01*
X351369D01*
X352036D02*
X352702Y362400D01*
X353369Y362733D02*
X353702Y362400D01*
X354368D01*
X354701Y362733D01*
Y364066D01*
X354368Y364399D01*
X353702D01*
X353369Y364066D01*
Y363733D01*
X353702Y363400D01*
X354701D01*
X355368Y364066D02*
X355701Y364399D01*
X356368D01*
X356701Y364066D01*
Y363733D01*
X356368Y363400D01*
X356701Y363066D01*
Y362733D01*
X356368Y362400D01*
X355701D01*
X355368Y362733D01*
Y363066D01*
X355701Y363400D01*
X355368Y363733D01*
Y364066D01*
X355701Y363400D02*
X356368D01*
X294094Y331890D02*
Y335825D01*
X296062D01*
X296718Y335170D01*
Y333858D01*
X296062Y333202D01*
X294094D01*
X295406D02*
X296718Y331890D01*
X298030Y332546D02*
X298686Y331890D01*
X299998D01*
X300654Y332546D01*
Y335170D01*
X299998Y335825D01*
X298686D01*
X298030Y335170D01*
Y334514D01*
X298686Y333858D01*
X300654D01*
X301966Y335170D02*
X302622Y335825D01*
X303934D01*
X304590Y335170D01*
Y332546D01*
X303934Y331890D01*
X302622D01*
X301966Y332546D01*
Y335170D01*
X353756Y322445D02*
X351757D01*
Y323445D01*
X352090Y323778D01*
X352757D01*
X353090Y323445D01*
Y322445D01*
Y323111D02*
X353756Y323778D01*
X352090Y324444D02*
X351757Y324778D01*
Y325444D01*
X352090Y325777D01*
X352423D01*
X352757Y325444D01*
X353090Y325777D01*
X353423D01*
X353756Y325444D01*
Y324778D01*
X353423Y324444D01*
X353090D01*
X352757Y324778D01*
X352423Y324444D01*
X352090D01*
X352757Y324778D02*
Y325444D01*
X353423Y326444D02*
X353756Y326777D01*
Y327443D01*
X353423Y327777D01*
X352090D01*
X351757Y327443D01*
Y326777D01*
X352090Y326444D01*
X352423D01*
X352757Y326777D01*
Y327777D01*
X371933Y146872D02*
X375869D01*
X373901D01*
Y140969D01*
X381772Y145888D02*
X380788Y146872D01*
X378821D01*
X377837Y145888D01*
Y144904D01*
X378821Y143920D01*
X380788D01*
X381772Y142936D01*
Y141952D01*
X380788Y140969D01*
X378821D01*
X377837Y141952D01*
X383740Y140969D02*
Y144904D01*
X385708Y146872D01*
X387676Y144904D01*
Y140969D01*
Y143920D01*
X383740D01*
X389644Y146872D02*
Y140969D01*
X393580D01*
X395548Y139985D02*
X399483D01*
X401451Y140969D02*
Y146872D01*
X404403D01*
X405387Y145888D01*
Y143920D01*
X404403Y142936D01*
X401451D01*
X410307Y146872D02*
X408339D01*
X407355Y145888D01*
Y141952D01*
X408339Y140969D01*
X410307D01*
X411290Y141952D01*
Y145888D01*
X410307Y146872D01*
X413258D02*
Y140969D01*
X415226Y142936D01*
X417194Y140969D01*
Y146872D01*
X423098D02*
X419162D01*
Y140969D01*
X423098D01*
X419162Y143920D02*
X421130D01*
X425066Y140969D02*
Y146872D01*
X428017D01*
X429001Y145888D01*
Y143920D01*
X428017Y142936D01*
X425066D01*
X427033D02*
X429001Y140969D01*
X265092Y85207D02*
X269028D01*
X267060D01*
Y79304D01*
X270996Y85207D02*
Y79304D01*
Y82255D01*
X274932D01*
Y85207D01*
Y79304D01*
X276900D02*
Y85207D01*
X279851D01*
X280835Y84223D01*
Y82255D01*
X279851Y81271D01*
X276900D01*
X278868D02*
X280835Y79304D01*
X285755Y85207D02*
X283787D01*
X282803Y84223D01*
Y80288D01*
X283787Y79304D01*
X285755D01*
X286739Y80288D01*
Y84223D01*
X285755Y85207D01*
X288707D02*
X292643D01*
X290675D01*
Y79304D01*
X294610Y85207D02*
X298546D01*
X296578D01*
Y79304D01*
X300514Y85207D02*
Y79304D01*
X304450D01*
X310353Y85207D02*
X306418D01*
Y79304D01*
X310353D01*
X306418Y82255D02*
X308385D01*
X316257Y84223D02*
X315273Y85207D01*
X313305D01*
X312321Y84223D01*
Y83239D01*
X313305Y82255D01*
X315273D01*
X316257Y81271D01*
Y80288D01*
X315273Y79304D01*
X313305D01*
X312321Y80288D01*
X43400Y297800D02*
Y303704D01*
X46352D01*
X47336Y302720D01*
Y300752D01*
X46352Y299768D01*
X43400D01*
X49304Y303704D02*
Y297800D01*
X51271Y299768D01*
X53239Y297800D01*
Y303704D01*
X55207Y297800D02*
Y303704D01*
X58159D01*
X59143Y302720D01*
Y300752D01*
X58159Y299768D01*
X55207D01*
X57175D02*
X59143Y297800D01*
X413386Y218036D02*
X407482D01*
Y220988D01*
X408466Y221972D01*
X410434D01*
X411418Y220988D01*
Y218036D01*
X407482Y226891D02*
Y224923D01*
X408466Y223939D01*
X412402D01*
X413386Y224923D01*
Y226891D01*
X412402Y227875D01*
X408466D01*
X407482Y226891D01*
X408466Y233779D02*
X407482Y232795D01*
Y230827D01*
X408466Y229843D01*
X409450D01*
X410434Y230827D01*
Y232795D01*
X411418Y233779D01*
X412402D01*
X413386Y232795D01*
Y230827D01*
X412402Y229843D01*
X407482Y235747D02*
Y237715D01*
Y236731D01*
X413386D01*
Y235747D01*
Y237715D01*
X407482Y240666D02*
Y244602D01*
Y242634D01*
X413386D01*
X407482Y246570D02*
Y248538D01*
Y247554D01*
X413386D01*
Y246570D01*
Y248538D01*
X407482Y254441D02*
Y252473D01*
X408466Y251490D01*
X412402D01*
X413386Y252473D01*
Y254441D01*
X412402Y255425D01*
X408466D01*
X407482Y254441D01*
X413386Y257393D02*
X407482D01*
X413386Y261329D01*
X407482D01*
X408466Y267232D02*
X407482Y266249D01*
Y264281D01*
X408466Y263297D01*
X409450D01*
X410434Y264281D01*
Y266249D01*
X411418Y267232D01*
X412402D01*
X413386Y266249D01*
Y264281D01*
X412402Y263297D01*
X47244Y155865D02*
Y151929D01*
Y153897D01*
X49868D01*
Y155865D01*
Y151929D01*
X51180D02*
Y154553D01*
X52492Y155865D01*
X53804Y154553D01*
Y151929D01*
Y153897D01*
X51180D01*
X55116Y155865D02*
Y151929D01*
X57739D01*
X59051Y155865D02*
Y151929D01*
X61675D01*
X62987Y151273D02*
X65611D01*
X69547Y155865D02*
X66923D01*
Y151929D01*
X69547D01*
X66923Y153897D02*
X68235D01*
X73482Y155865D02*
X70859D01*
Y153897D01*
X72170D01*
X70859D01*
Y151929D01*
X77418Y155865D02*
X74794D01*
Y153897D01*
X76106D01*
X74794D01*
Y151929D01*
X81354Y155865D02*
X78730D01*
Y151929D01*
X81354D01*
X78730Y153897D02*
X80042D01*
X85290Y155209D02*
X84634Y155865D01*
X83322D01*
X82666Y155209D01*
Y152585D01*
X83322Y151929D01*
X84634D01*
X85290Y152585D01*
X86602Y155865D02*
X89225D01*
X87913D01*
Y151929D01*
X93161Y155209D02*
X92505Y155865D01*
X91193D01*
X90537Y155209D01*
Y154553D01*
X91193Y153897D01*
X92505D01*
X93161Y153241D01*
Y152585D01*
X92505Y151929D01*
X91193D01*
X90537Y152585D01*
X412549Y205707D02*
X411565Y206691D01*
X409597D01*
X408614Y205707D01*
Y201771D01*
X409597Y200787D01*
X411565D01*
X412549Y201771D01*
X414517Y200787D02*
Y204723D01*
X416485Y206691D01*
X418453Y204723D01*
Y200787D01*
Y203739D01*
X414517D01*
X420421Y200787D02*
Y206691D01*
X424357Y200787D01*
Y206691D01*
X44100Y381200D02*
Y385136D01*
X46068Y387104D01*
X48036Y385136D01*
Y381200D01*
Y384152D01*
X44100D01*
X50004Y387104D02*
X51972D01*
X50987D01*
Y381200D01*
X50004D01*
X51972D01*
X54923D02*
Y387104D01*
X57875D01*
X58859Y386120D01*
Y384152D01*
X57875Y383168D01*
X54923D01*
X56891D02*
X58859Y381200D01*
X336100Y72000D02*
X336766D01*
X336433D01*
Y73999D01*
X336100Y73666D01*
X228930Y343595D02*
Y345594D01*
X229930D01*
X230263Y345261D01*
Y344594D01*
X229930Y344261D01*
X228930D01*
X229596D02*
X230263Y343595D01*
X230929D02*
Y345594D01*
X231929D01*
X232262Y345261D01*
Y344594D01*
X231929Y344261D01*
X230929D01*
X234262Y343595D02*
X232929D01*
X234262Y344927D01*
Y345261D01*
X233928Y345594D01*
X233262D01*
X232929Y345261D01*
X184824Y315737D02*
Y317736D01*
X185823D01*
X186156Y317403D01*
Y316737D01*
X185823Y316404D01*
X184824D01*
X185490D02*
X186156Y315737D01*
X186823D02*
Y317736D01*
X187823D01*
X188156Y317403D01*
Y316737D01*
X187823Y316404D01*
X186823D01*
X188822Y315737D02*
X189489D01*
X189155D01*
Y317736D01*
X188822Y317403D01*
X120155Y320337D02*
Y322336D01*
X121155D01*
X121488Y322003D01*
Y321337D01*
X121155Y321004D01*
X120155D01*
X120822D02*
X121488Y320337D01*
X122154D02*
Y322336D01*
X123154D01*
X123487Y322003D01*
Y321337D01*
X123154Y321004D01*
X122154D01*
X124154Y322003D02*
X124487Y322336D01*
X125154D01*
X125487Y322003D01*
Y320670D01*
X125154Y320337D01*
X124487D01*
X124154Y320670D01*
Y322003D01*
D14*
X233075Y338158D02*
X233862Y338945D01*
X232288Y339732D02*
X233075Y338158D01*
X231500Y338945D02*
X232288Y339732D01*
X187384Y311024D02*
X188172Y311811D01*
X188959Y310236D01*
X189746Y311024D01*
X120079Y312205D02*
X120866Y311417D01*
X120079Y312205D02*
X121653Y312992D01*
X120866Y313779D02*
X121653Y312992D01*
X244488Y85177D02*
X245276Y85965D01*
X243701Y86752D02*
X244488Y85177D01*
X242913Y85965D02*
X243701Y86752D01*
X351213Y354259D02*
X352000Y353472D01*
X351213Y354259D02*
X352787Y355047D01*
X352000Y355834D02*
X352787Y355047D01*
X217854Y332551D02*
X218642Y331764D01*
X217854Y332551D02*
X219429Y333339D01*
X218642Y334126D02*
X219429Y333339D01*
X169642Y349039D02*
X170429Y348252D01*
X168854Y347464D02*
X170429Y348252D01*
X168854Y347464D02*
X169642Y346677D01*
X111988Y341657D02*
X112776Y342445D01*
X111201Y343232D02*
X111988Y341657D01*
X110413Y342445D02*
X111201Y343232D01*
X137902Y140551D02*
X138689Y139764D01*
X137902Y140551D02*
X139476Y141339D01*
X138689Y142126D02*
X139476Y141339D01*
X322835Y394079D02*
X323622Y393291D01*
X322047Y392504D02*
X323622Y393291D01*
X322047Y392504D02*
X322835Y391717D01*
X292894Y400945D02*
X293681Y401732D01*
X294468Y400157D01*
X295256Y400945D01*
X216535Y198031D02*
X217323Y197244D01*
X215748Y196457D02*
X217323Y197244D01*
X215748Y196457D02*
X216535Y195669D01*
X315441Y361417D02*
X316228Y362205D01*
X314653Y362992D02*
X315441Y361417D01*
X313866Y362205D02*
X314653Y362992D01*
X84642Y190114D02*
X85429Y189327D01*
X83854Y188539D02*
X85429Y189327D01*
X83854Y188539D02*
X84642Y187752D01*
X309039Y332945D02*
X309827Y333732D01*
X310614Y332157D01*
X311402Y332945D01*
X348807Y324551D02*
X349594Y323764D01*
X348807Y324551D02*
X350382Y325339D01*
X349594Y326126D02*
X350382Y325339D01*
X332622Y245079D02*
X333410Y244291D01*
X331835Y243504D02*
X333410Y244291D01*
X331835Y243504D02*
X332622Y242717D01*
X393354Y212551D02*
X394142Y211764D01*
X393354Y212551D02*
X394929Y213339D01*
X394142Y214126D02*
X394929Y213339D01*
X94354Y180551D02*
X95142Y179764D01*
X94354Y180551D02*
X95929Y181339D01*
X95142Y182126D02*
X95929Y181339D01*
X100402Y192051D02*
X101189Y191264D01*
X100402Y192051D02*
X101976Y192839D01*
X101189Y193626D02*
X101976Y192839D01*
X144642Y116673D02*
X145429Y115886D01*
X143854Y115098D02*
X145429Y115886D01*
X143854Y115098D02*
X144642Y114311D01*
X139142Y116632D02*
X139929Y115845D01*
X138354Y115058D02*
X139929Y115845D01*
X138354Y115058D02*
X139142Y114270D01*
X131854Y114551D02*
X132642Y113764D01*
X131854Y114551D02*
X133429Y115339D01*
X132642Y116126D02*
X133429Y115339D01*
X161736Y115173D02*
X162524Y114386D01*
X160949Y113598D02*
X162524Y114386D01*
X160949Y113598D02*
X161736Y112811D01*
X180264Y99598D02*
X181051Y98811D01*
X180264Y99598D02*
X181839Y100386D01*
X181051Y101173D02*
X181839Y100386D01*
X175642Y100626D02*
X176429Y99839D01*
X174854Y99051D02*
X176429Y99839D01*
X174854Y99051D02*
X175642Y98264D01*
X142035Y152657D02*
X142823Y153445D01*
X141248Y154232D02*
X142035Y152657D01*
X140461Y153445D02*
X141248Y154232D01*
X142035Y157658D02*
X142823Y158445D01*
X141248Y159232D02*
X142035Y157658D01*
X140461Y158445D02*
X141248Y159232D01*
X140461Y162945D02*
X141248Y163732D01*
X142035Y162157D01*
X142823Y162945D01*
X141535Y132417D02*
X142323Y133205D01*
X140748Y133992D02*
X141535Y132417D01*
X139961Y133205D02*
X140748Y133992D01*
X143547Y141626D02*
X144335Y140839D01*
X142760Y140051D02*
X144335Y140839D01*
X142760Y140051D02*
X143547Y139264D01*
X249008Y102146D02*
X249795Y102933D01*
X250583Y101358D01*
X251370Y102146D01*
X243122Y102825D02*
X243910Y102037D01*
X242335Y101250D02*
X243910Y102037D01*
X242335Y101250D02*
X243122Y100462D01*
X220622Y110777D02*
X221410Y109990D01*
X219835Y109203D02*
X221410Y109990D01*
X219835Y109203D02*
X220622Y108415D01*
X233209Y90258D02*
X233996Y91045D01*
X232422Y91833D02*
X233209Y90258D01*
X231634Y91045D02*
X232422Y91833D01*
X374961Y124039D02*
X375748Y124826D01*
X376535Y123251D01*
X377323Y124039D01*
X383146Y103612D02*
X383933Y104400D01*
X382358Y105187D02*
X383146Y103612D01*
X381571Y104400D02*
X382358Y105187D01*
X384354Y113208D02*
X385142Y112421D01*
X384354Y113208D02*
X385929Y113996D01*
X385142Y114783D02*
X385929Y113996D01*
X235642Y346673D02*
X236429Y345886D01*
X234854Y345098D02*
X236429Y345886D01*
X234854Y345098D02*
X235642Y344311D01*
X240354Y345098D02*
X241142Y344311D01*
X240354Y345098D02*
X241929Y345886D01*
X241142Y346673D02*
X241929Y345886D01*
X185142Y336079D02*
X185929Y335291D01*
X184354Y334504D02*
X185929Y335291D01*
X184354Y334504D02*
X185142Y333717D01*
X178295Y334504D02*
X179083Y333717D01*
X178295Y334504D02*
X179870Y335291D01*
X179083Y336079D02*
X179870Y335291D01*
X142913Y315858D02*
X143701Y316646D01*
X142126Y317433D02*
X142913Y315858D01*
X141339Y316646D02*
X142126Y317433D01*
X109035Y315657D02*
X109823Y316445D01*
X108248Y317232D02*
X109035Y315657D01*
X107461Y316445D02*
X108248Y317232D01*
X359449Y241339D02*
X360236Y240551D01*
X359449Y241339D02*
X361024Y242126D01*
X360236Y242913D02*
X361024Y242126D01*
X365370Y242913D02*
X366158Y242126D01*
X364583Y241339D02*
X366158Y242126D01*
X364583Y241339D02*
X365370Y240551D01*
X370472Y256890D02*
X371260Y256102D01*
X369685Y255315D02*
X371260Y256102D01*
X369685Y255315D02*
X370472Y254528D01*
X377953Y255721D02*
X378740Y254934D01*
X377953Y255721D02*
X379528Y256508D01*
X378740Y257296D02*
X379528Y256508D01*
X325984Y243307D02*
X326772Y242520D01*
X325984Y243307D02*
X327559Y244094D01*
X326772Y244882D02*
X327559Y244094D01*
X377732Y372445D02*
X378520Y373232D01*
X379307Y371657D01*
X380095Y372445D01*
X338142Y259055D02*
X338929Y258268D01*
X337354Y257480D02*
X338929Y258268D01*
X337354Y257480D02*
X338142Y256693D01*
X343354Y258674D02*
X344142Y257886D01*
X343354Y258674D02*
X344929Y259461D01*
X344142Y260248D02*
X344929Y259461D01*
X294933Y238961D02*
X295721Y238173D01*
X294933Y238961D02*
X296508Y239748D01*
X295721Y240535D02*
X296508Y239748D01*
X300992Y240158D02*
X301780Y239370D01*
X300205Y238583D02*
X301780Y239370D01*
X300205Y238583D02*
X300992Y237795D01*
X308268Y255378D02*
X309055Y254591D01*
X307480Y253803D02*
X309055Y254591D01*
X307480Y253803D02*
X308268Y253016D01*
X320079Y254055D02*
X320866Y253268D01*
X320079Y254055D02*
X321654Y254842D01*
X320866Y255630D02*
X321654Y254842D01*
X275142Y354516D02*
X275929Y353728D01*
X274354Y352941D02*
X275929Y353728D01*
X274354Y352941D02*
X275142Y352153D01*
X269142Y354516D02*
X269929Y353728D01*
X268354Y352941D02*
X269929Y353728D01*
X268354Y352941D02*
X269142Y352153D01*
X293142Y365579D02*
X293929Y364791D01*
X292354Y364004D02*
X293929Y364791D01*
X292354Y364004D02*
X293142Y363216D01*
X284252Y350000D02*
X285039Y349213D01*
X283465Y348425D02*
X285039Y349213D01*
X283465Y348425D02*
X284252Y347638D01*
X311236Y163626D02*
X312024Y162839D01*
X310449Y162051D02*
X312024Y162839D01*
X310449Y162051D02*
X311236Y161264D01*
X305854Y162051D02*
X306642Y161264D01*
X305854Y162051D02*
X307429Y162839D01*
X306642Y163626D02*
X307429Y162839D01*
X298425Y144488D02*
X299213Y145276D01*
X300000Y143701D01*
X300787Y144488D01*
X289764Y140413D02*
X290551Y139626D01*
X288976Y138839D02*
X290551Y139626D01*
X288976Y138839D02*
X289764Y138051D01*
X280142Y160079D02*
X280929Y159291D01*
X279354Y158504D02*
X280929Y159291D01*
X279354Y158504D02*
X280142Y157717D01*
X275142Y160079D02*
X275929Y159291D01*
X274354Y158504D02*
X275929Y159291D01*
X274354Y158504D02*
X275142Y157717D01*
X269366Y140591D02*
X270153Y141378D01*
X268579Y142165D02*
X269366Y140591D01*
X267791Y141378D02*
X268579Y142165D01*
X262992Y110236D02*
X263779Y111024D01*
X264567Y109449D01*
X265354Y110236D01*
X132966Y235945D02*
X133754Y236732D01*
X134541Y235157D01*
X135328Y235945D01*
X157807Y281909D02*
X158595Y281122D01*
X157807Y281909D02*
X159382Y282697D01*
X158595Y283484D02*
X159382Y282697D01*
X320354Y128683D02*
X321142Y127896D01*
X320354Y128683D02*
X321929Y129470D01*
X321142Y130258D02*
X321929Y129470D01*
X342520Y78937D02*
X343307Y78150D01*
X342520Y78937D02*
X344094Y79724D01*
X343307Y80512D02*
X344094Y79724D01*
X349461Y100545D02*
X350248Y101333D01*
X351035Y99758D01*
X351823Y100545D01*
X345461Y381445D02*
X346248Y382232D01*
X347035Y380658D01*
X347823Y381445D01*
X329921Y103150D02*
X330709Y103937D01*
X329134Y104724D02*
X329921Y103150D01*
X328346Y103937D02*
X329134Y104724D01*
X260236Y383984D02*
X261024Y383197D01*
X260236Y383984D02*
X261811Y384772D01*
X261024Y385559D02*
X261811Y384772D01*
X307583Y341752D02*
X308370Y342539D01*
X306795Y343327D02*
X307583Y341752D01*
X306008Y342539D02*
X306795Y343327D01*
X340142Y319626D02*
X340929Y318839D01*
X339354Y318051D02*
X340929Y318839D01*
X339354Y318051D02*
X340142Y317264D01*
X315094Y347579D02*
X315882Y346791D01*
X314307Y346004D02*
X315882Y346791D01*
X314307Y346004D02*
X315094Y345216D01*
X332854Y317551D02*
X333642Y316764D01*
X332854Y317551D02*
X334429Y318339D01*
X333642Y319126D02*
X334429Y318339D01*
X265323Y385559D02*
X266110Y384772D01*
X264535Y383984D02*
X266110Y384772D01*
X264535Y383984D02*
X265323Y383197D01*
X218642Y346579D02*
X219429Y345791D01*
X217854Y345004D02*
X219429Y345791D01*
X217854Y345004D02*
X218642Y344216D01*
X163901Y348051D02*
X164689Y347264D01*
X163901Y348051D02*
X165476Y348839D01*
X164689Y349626D02*
X165476Y348839D01*
X108642Y351992D02*
X109429Y351205D01*
X107854Y350417D02*
X109429Y351205D01*
X107854Y350417D02*
X108642Y349630D01*
X197142Y348626D02*
X197929Y347839D01*
X196354Y347051D02*
X197929Y347839D01*
X196354Y347051D02*
X197142Y346264D01*
X145354Y346551D02*
X146142Y345764D01*
X145354Y346551D02*
X146929Y347339D01*
X146142Y348126D02*
X146929Y347339D01*
X85854Y346504D02*
X86642Y345717D01*
X85854Y346504D02*
X87429Y347291D01*
X86642Y348079D02*
X87429Y347291D01*
X386500Y201114D02*
X387287Y201902D01*
X385713Y202689D02*
X386500Y201114D01*
X384925Y201902D02*
X385713Y202689D01*
X373913Y211508D02*
X374701Y210720D01*
X373913Y211508D02*
X375488Y212295D01*
X374701Y213083D02*
X375488Y212295D01*
X270047Y385559D02*
X270835Y384772D01*
X269260Y383984D02*
X270835Y384772D01*
X269260Y383984D02*
X270047Y383197D01*
X255906Y383984D02*
X256693Y383197D01*
X255906Y383984D02*
X257480Y384772D01*
X256693Y385559D02*
X257480Y384772D01*
X363807Y159870D02*
X364595Y160658D01*
X363020Y161445D02*
X363807Y159870D01*
X362232Y160658D02*
X363020Y161445D01*
X238189Y333465D02*
X245276D01*
X188762Y314961D02*
Y322047D01*
X129598Y313386D02*
X136685D01*
X355512Y254646D02*
X362598D01*
X383858Y242520D02*
X390945D01*
X300394Y364035D02*
X307480D01*
X287008Y348819D02*
X294094D01*
X331705Y93701D02*
Y100787D01*
X256299Y78918D02*
X263386D01*
X138098Y96201D02*
X145185D01*
X129921Y150902D02*
Y157988D01*
X161811Y97244D02*
X168898D01*
X123697Y130902D02*
Y137988D01*
X375386Y85059D02*
Y92145D01*
X265598Y372764D02*
X272685D01*
X254331Y372047D02*
X261417D01*
X279134Y137287D02*
X286221D01*
X293087Y134646D02*
X300173D01*
X336661Y269358D02*
Y276445D01*
X347362Y260768D02*
X354449D01*
X290947Y254331D02*
X298034D01*
X311024Y255118D02*
X318110D01*
X266929Y128878D02*
X274016D01*
X257874Y123894D02*
X264961D01*
X342535Y402445D02*
X343323D01*
X340961D02*
X341748D01*
Y401657D02*
Y403232D01*
X342535Y401657D02*
Y403232D01*
X134541Y242445D02*
X135328D01*
X132966D02*
X133754D01*
Y241657D02*
Y243232D01*
X134541Y241657D02*
Y243232D01*
X113142Y290339D02*
Y291126D01*
Y288764D02*
Y289551D01*
X112354D02*
X113929D01*
X112354Y290339D02*
X113929D01*
X165142Y282839D02*
Y283626D01*
Y281264D02*
Y282051D01*
X164354D02*
X165929D01*
X164354Y282839D02*
X165929D01*
X175142Y346764D02*
Y347551D01*
Y348339D02*
Y349126D01*
X174354Y348339D02*
X175929D01*
X174354Y347551D02*
X175929D01*
X119142Y348228D02*
Y349016D01*
Y349803D02*
Y350590D01*
X118354Y349803D02*
X119929D01*
X118354Y349016D02*
X119929D01*
X224142Y344764D02*
Y345551D01*
Y346339D02*
Y347126D01*
X223354Y346339D02*
X224929D01*
X223354Y345551D02*
X224929D01*
X85142Y234933D02*
Y235720D01*
Y233358D02*
Y234145D01*
X84354D02*
X85929D01*
X84354Y234933D02*
X85929D01*
X110142Y212764D02*
Y213551D01*
Y214339D02*
Y215126D01*
X109354Y214339D02*
X110929D01*
X109354Y213551D02*
X110929D01*
X150142Y114764D02*
Y115551D01*
Y116339D02*
Y117126D01*
X149354Y116339D02*
X150929D01*
X149354Y115551D02*
X150929D01*
X169095Y112681D02*
Y113468D01*
Y114255D02*
Y115043D01*
X168307Y114255D02*
X169882D01*
X168307Y113468D02*
X169882D01*
X140461Y148445D02*
X141248D01*
X142035D02*
X142823D01*
X142035Y147658D02*
Y149232D01*
X141248Y147658D02*
Y149232D01*
X139961Y127945D02*
X140748D01*
X141535D02*
X142323D01*
X141535Y127157D02*
Y128732D01*
X140748Y127157D02*
Y128732D01*
X223035Y129945D02*
X223823D01*
X221461D02*
X222248D01*
Y129157D02*
Y130732D01*
X223035Y129157D02*
Y130732D01*
X225642Y169839D02*
Y170626D01*
Y168264D02*
Y169051D01*
X224854D02*
X226429D01*
X224854Y169839D02*
X226429D01*
X369961Y104602D02*
X370748D01*
X371535D02*
X372323D01*
X371535Y103814D02*
Y105389D01*
X370748Y103814D02*
Y105389D01*
X230142Y344311D02*
Y345098D01*
Y345886D02*
Y346673D01*
X229354Y345886D02*
X230929D01*
X229354Y345098D02*
X230929D01*
X190642Y333717D02*
Y334504D01*
Y335291D02*
Y336079D01*
X189854Y335291D02*
X191429D01*
X189854Y334504D02*
X191429D01*
X141339Y309842D02*
X142126D01*
X142913D02*
X143701D01*
X142913Y309055D02*
Y310630D01*
X142126Y309055D02*
Y310630D01*
X332106Y256221D02*
Y257008D01*
Y257795D02*
Y258583D01*
X331319Y257795D02*
X332894D01*
X331319Y257008D02*
X332894D01*
X301555Y253543D02*
Y254331D01*
Y255118D02*
Y255906D01*
X300768Y255118D02*
X302343D01*
X300768Y254331D02*
X302343D01*
X365748Y260236D02*
Y261024D01*
Y261811D02*
Y262598D01*
X364961Y261811D02*
X366535D01*
X364961Y261024D02*
X366535D01*
X297638Y364791D02*
Y365579D01*
Y363216D02*
Y364004D01*
X296850D02*
X298425D01*
X296850Y364791D02*
X298425D01*
X303594Y136616D02*
Y137404D01*
Y135041D02*
Y135829D01*
X302807D02*
X304382D01*
X302807Y136616D02*
X304382D01*
X269413Y146496D02*
X270201D01*
X267839D02*
X268626D01*
Y145709D02*
Y147283D01*
X269413Y145709D02*
Y147283D01*
X332402Y389154D02*
Y389941D01*
Y390728D02*
Y391516D01*
X331614Y390728D02*
X333189D01*
X331614Y389941D02*
X333189D01*
X270047Y393764D02*
Y394551D01*
Y395339D02*
Y396126D01*
X269260Y395339D02*
X270835D01*
X269260Y394551D02*
X270835D01*
X315595Y420079D02*
Y420866D01*
Y421654D02*
Y422441D01*
X314807Y421654D02*
X316382D01*
X314807Y420866D02*
X316382D01*
X314142Y323264D02*
Y324051D01*
Y324839D02*
Y325626D01*
X313354Y324839D02*
X314929D01*
X313354Y324051D02*
X314929D01*
X327142Y318339D02*
Y319126D01*
Y316764D02*
Y317551D01*
X326354D02*
X327929D01*
X326354Y318339D02*
X327929D01*
X355118Y399409D02*
Y400197D01*
Y397835D02*
Y398622D01*
X354331D02*
X355906D01*
X354331Y399409D02*
X355906D01*
X312961Y357205D02*
X313748D01*
X314535D02*
X315323D01*
X314535Y356417D02*
Y357992D01*
X313748Y356417D02*
Y357992D01*
X380685Y365685D02*
X381472D01*
X382260D02*
X383047D01*
X382260Y364898D02*
Y366472D01*
X381472Y364898D02*
Y366472D01*
X391339Y151575D02*
X392126D01*
X389764D02*
X390551D01*
Y150787D02*
Y152362D01*
X391339Y150787D02*
Y152362D01*
X192142Y361339D02*
Y362126D01*
Y359764D02*
Y360551D01*
X191354D02*
X192929D01*
X191354Y361339D02*
X192929D01*
X138142Y362339D02*
Y363126D01*
Y360764D02*
Y361551D01*
X137354D02*
X138929D01*
X137354Y362339D02*
X138929D01*
X86642D02*
Y363126D01*
Y360764D02*
Y361551D01*
X85854D02*
X87429D01*
X85854Y362339D02*
X87429D01*
X369606Y211720D02*
Y212508D01*
Y213295D02*
Y214083D01*
X368819Y213295D02*
X370394D01*
X368819Y212508D02*
X370394D01*
X399142Y211764D02*
Y212551D01*
Y213339D02*
Y214126D01*
X398354Y213339D02*
X399929D01*
X398354Y212551D02*
X399929D01*
X291642Y205071D02*
Y205858D01*
Y206646D02*
Y207433D01*
X290854Y206646D02*
X292429D01*
X290854Y205858D02*
X292429D01*
X340413Y160216D02*
Y161004D01*
Y161791D02*
Y162579D01*
X339626Y161791D02*
X341200D01*
X339626Y161004D02*
X341200D01*
X341173Y398047D02*
X345110D01*
X341173Y385842D02*
X345110D01*
X341173D02*
Y398047D01*
X345110Y385842D02*
Y398047D01*
X367843Y326622D02*
X380441D01*
X367843Y361268D02*
X380441D01*
Y326622D02*
Y361268D01*
X367843Y326622D02*
Y361268D01*
D15*
X285047Y384842D02*
Y386811D01*
X273236Y384842D02*
Y386811D01*
X285047D01*
X273236Y384842D02*
X285047D01*
X277559Y365488D02*
Y367457D01*
X289370Y365488D02*
Y367457D01*
X277559Y365488D02*
X289370D01*
X277559Y367457D02*
X289370D01*
X98626Y207039D02*
Y218850D01*
X96658Y207039D02*
Y218850D01*
Y207039D02*
X98626D01*
X96658Y218850D02*
X98626D01*
X336701Y241417D02*
X348512D01*
X336701Y243386D02*
X348512D01*
X336701Y241417D02*
Y243386D01*
X348512Y241417D02*
Y243386D01*
X305315Y236917D02*
X317126D01*
X305315Y238886D02*
X317126D01*
X305315Y236917D02*
Y238886D01*
X317126Y236917D02*
Y238886D01*
X291910Y160402D02*
X303720D01*
X291910Y158433D02*
X303720D01*
Y160402D01*
X291910Y158433D02*
Y160402D01*
X257874Y156850D02*
Y158819D01*
X269685Y156850D02*
Y158819D01*
X257874Y156850D02*
X269685D01*
X257874Y158819D02*
X269685D01*
X171799Y132835D02*
X208020D01*
X171799Y169055D02*
X208020D01*
X171799Y132835D02*
Y169055D01*
X208020Y132835D02*
Y169055D01*
X87811Y192929D02*
X96472D01*
X87811Y190961D02*
X96472D01*
Y192929D01*
X87811Y190961D02*
Y192929D01*
X369496Y239185D02*
X381307D01*
X369496Y241154D02*
X381307D01*
X369496Y239185D02*
Y241154D01*
X381307Y239185D02*
Y241154D01*
X325539Y128614D02*
X337744D01*
X325539Y132551D02*
X337744D01*
X325539Y128614D02*
Y132551D01*
X337744Y128614D02*
Y132551D01*
X317531Y198405D02*
X338398D01*
X317531Y177539D02*
X338398D01*
Y198405D01*
X317531Y177539D02*
Y198405D01*
X130866Y367657D02*
X134802D01*
X130866Y365034D01*
X134802D01*
X134146Y363722D02*
X134802Y363066D01*
Y361754D01*
X134146Y361098D01*
X131522D01*
X130866Y361754D01*
Y363066D01*
X131522Y363722D01*
X134146D01*
X51181Y55117D02*
Y51181D01*
X53149D01*
X53805Y51837D01*
Y52493D01*
X53149Y53149D01*
X51181D01*
X53149D01*
X53805Y53805D01*
Y54461D01*
X53149Y55117D01*
X51181D01*
X55117Y51181D02*
Y55117D01*
X57085D01*
X57741Y54461D01*
Y53149D01*
X57085Y52493D01*
X55117D01*
X56429D02*
X57741Y51181D01*
X59053Y55117D02*
Y51181D01*
X61020D01*
X61676Y51837D01*
Y54461D01*
X61020Y55117D01*
X59053D01*
X62988Y53805D02*
X63644D01*
Y53149D01*
X62988D01*
Y53805D01*
Y51837D02*
X63644D01*
Y51181D01*
X62988D01*
Y51837D01*
X70204Y51181D02*
Y55117D01*
X72828Y51181D01*
Y55117D01*
X74140D02*
X75451D01*
X74796D01*
Y51181D01*
X74140D01*
X75451D01*
X80043Y54461D02*
X79387Y55117D01*
X78075D01*
X77419Y54461D01*
Y51837D01*
X78075Y51181D01*
X79387D01*
X80043Y51837D01*
X81355Y55117D02*
Y51181D01*
Y52493D01*
X83979Y55117D01*
X82011Y53149D01*
X83979Y51181D01*
X53805Y46587D02*
X53149Y47243D01*
X51837D01*
X51181Y46587D01*
Y45931D01*
X51837Y45275D01*
X53149D01*
X53805Y44619D01*
Y43963D01*
X53149Y43307D01*
X51837D01*
X51181Y43963D01*
X57741Y46587D02*
X57085Y47243D01*
X55773D01*
X55117Y46587D01*
Y43963D01*
X55773Y43307D01*
X57085D01*
X57741Y43963D01*
X59053Y47243D02*
Y43307D01*
Y45275D01*
X61676D01*
Y47243D01*
Y43307D01*
X62988Y45931D02*
X63644D01*
Y45275D01*
X62988D01*
Y45931D01*
Y43963D02*
X63644D01*
Y43307D01*
X62988D01*
Y43963D01*
X70204Y43307D02*
Y47243D01*
X72828Y43307D01*
Y47243D01*
X74140D02*
X75451D01*
X74796D01*
Y43307D01*
X74140D01*
X75451D01*
X80043Y46587D02*
X79387Y47243D01*
X78075D01*
X77419Y46587D01*
Y43963D01*
X78075Y43307D01*
X79387D01*
X80043Y43963D01*
X81355Y47243D02*
Y43307D01*
Y44619D01*
X83979Y47243D01*
X82011Y45275D01*
X83979Y43307D01*
X91850D02*
X91194Y43963D01*
X90539Y43307D01*
X89882D01*
X89227Y43963D01*
Y44619D01*
X89882Y45275D01*
X89227Y45931D01*
Y46587D01*
X89882Y47243D01*
X90539D01*
X91194Y46587D01*
Y45931D01*
X90539Y45275D01*
X91194Y44619D01*
Y43963D01*
X91850Y45275D02*
X91194Y44619D01*
X89882Y45275D02*
X90539D01*
X95786Y43307D02*
X95130Y43963D01*
X94474Y43307D01*
X93818D01*
X93162Y43963D01*
Y44619D01*
X93818Y45275D01*
X93162Y45931D01*
Y46587D01*
X93818Y47243D01*
X94474D01*
X95130Y46587D01*
Y45931D01*
X94474Y45275D01*
X95130Y44619D01*
Y43963D01*
X95786Y45275D02*
X95130Y44619D01*
X93818Y45275D02*
X94474D01*
X101034Y43307D02*
Y45931D01*
X102346Y47243D01*
X103658Y45931D01*
Y43307D01*
Y45275D01*
X101034D01*
X104970Y43307D02*
Y47243D01*
X107593Y43307D01*
Y47243D01*
X108905D02*
Y43307D01*
X110873D01*
X111529Y43963D01*
Y46587D01*
X110873Y47243D01*
X108905D01*
X112841D02*
Y46587D01*
X114153Y45275D01*
X115465Y46587D01*
Y47243D01*
X114153Y45275D02*
Y43307D01*
X123336D02*
X122680Y43963D01*
X122024Y43307D01*
X121369D01*
X120712Y43963D01*
Y44619D01*
X121369Y45275D01*
X120712Y45931D01*
Y46587D01*
X121369Y47243D01*
X122024D01*
X122680Y46587D01*
Y45931D01*
X122024Y45275D01*
X122680Y44619D01*
Y43963D01*
X123336Y45275D02*
X122680Y44619D01*
X121369Y45275D02*
X122024D01*
X127272Y43307D02*
X126616Y43963D01*
X125960Y43307D01*
X125304D01*
X124648Y43963D01*
Y44619D01*
X125304Y45275D01*
X124648Y45931D01*
Y46587D01*
X125304Y47243D01*
X125960D01*
X126616Y46587D01*
Y45931D01*
X125960Y45275D01*
X126616Y44619D01*
Y43963D01*
X127272Y45275D02*
X126616Y44619D01*
X125304Y45275D02*
X125960D01*
X135143Y46587D02*
X134488Y47243D01*
X133176D01*
X132520Y46587D01*
Y43963D01*
X133176Y43307D01*
X134488D01*
X135143Y43963D01*
X136456Y47243D02*
Y43307D01*
Y45275D01*
X139079D01*
Y47243D01*
Y43307D01*
X140391D02*
Y45931D01*
X141703Y47243D01*
X143015Y45931D01*
Y43307D01*
Y45275D01*
X140391D01*
X144327Y47243D02*
X145639D01*
X144983D01*
Y43307D01*
X144327D01*
X145639D01*
X290139Y266902D02*
X294075D01*
Y268869D01*
X293419Y269525D01*
X292763D01*
X292107Y268869D01*
Y266902D01*
Y268869D01*
X291451Y269525D01*
X290795D01*
X290139Y268869D01*
Y266902D01*
X294075Y270837D02*
X290139D01*
Y272805D01*
X290795Y273461D01*
X292107D01*
X292763Y272805D01*
Y270837D01*
Y272149D02*
X294075Y273461D01*
Y274773D02*
X291451D01*
X290139Y276085D01*
X291451Y277397D01*
X294075D01*
X292107D01*
Y274773D01*
X290139Y278709D02*
X294075D01*
X292763D01*
X290139Y281333D01*
X292107Y279365D01*
X294075Y281333D01*
X290139Y285268D02*
Y282645D01*
X294075D01*
Y285268D01*
X292107Y282645D02*
Y283956D01*
X294731Y286580D02*
Y289204D01*
X294075Y290516D02*
X290139D01*
Y292484D01*
X290795Y293140D01*
X292107D01*
X292763Y292484D01*
Y290516D01*
X294075Y294452D02*
X290139D01*
Y296420D01*
X290795Y297076D01*
X292107D01*
X292763Y296420D01*
Y294452D01*
Y295764D02*
X294075Y297076D01*
X170500Y239000D02*
X166564D01*
Y240968D01*
X167220Y241624D01*
X168532D01*
X169188Y240968D01*
Y239000D01*
Y240312D02*
X170500Y241624D01*
X166564Y242936D02*
Y245560D01*
Y244248D01*
X170500D01*
X166564Y246871D02*
X170500D01*
Y248839D01*
X169844Y249495D01*
X167220D01*
X166564Y248839D01*
Y246871D01*
Y254743D02*
X170500D01*
Y256711D01*
X169844Y257367D01*
X169188D01*
X168532Y256711D01*
Y254743D01*
Y256711D01*
X167876Y257367D01*
X167220D01*
X166564Y256711D01*
Y254743D01*
Y258679D02*
X169844D01*
X170500Y259335D01*
Y260647D01*
X169844Y261302D01*
X166564D01*
Y262614D02*
Y265238D01*
X167220D01*
X169844Y262614D01*
X170500D01*
Y265238D01*
X166564Y266550D02*
Y269174D01*
X167220D01*
X169844Y266550D01*
X170500D01*
Y269174D01*
X166564Y273110D02*
Y270486D01*
X170500D01*
Y273110D01*
X168532Y270486D02*
Y271798D01*
X170500Y274422D02*
X166564D01*
Y276390D01*
X167220Y277045D01*
X168532D01*
X169188Y276390D01*
Y274422D01*
Y275734D02*
X170500Y277045D01*
X265591Y307085D02*
Y303150D01*
X267559D01*
X268215Y303806D01*
Y304462D01*
X267559Y305118D01*
X265591D01*
X267559D01*
X268215Y305773D01*
Y306429D01*
X267559Y307085D01*
X265591D01*
X272150Y306429D02*
X271495Y307085D01*
X270183D01*
X269527Y306429D01*
Y305773D01*
X270183Y305118D01*
X271495D01*
X272150Y304462D01*
Y303806D01*
X271495Y303150D01*
X270183D01*
X269527Y303806D01*
X273462Y303150D02*
Y307085D01*
X275430D01*
X276086Y306429D01*
Y305118D01*
X275430Y304462D01*
X273462D01*
X277398Y307085D02*
Y303150D01*
X279366D01*
X280022Y303806D01*
Y306429D01*
X279366Y307085D01*
X277398D01*
X285270D02*
Y303150D01*
X287894D01*
X291173Y307085D02*
X289861D01*
X289205Y306429D01*
Y303806D01*
X289861Y303150D01*
X291173D01*
X291829Y303806D01*
Y306429D01*
X291173Y307085D01*
X295765Y306429D02*
X295109Y307085D01*
X293797D01*
X293141Y306429D01*
Y303806D01*
X293797Y303150D01*
X295109D01*
X295765Y303806D01*
Y305118D01*
X294453D01*
X297077Y307085D02*
X298389D01*
X297733D01*
Y303150D01*
X297077D01*
X298389D01*
X302980Y306429D02*
X302325Y307085D01*
X301013D01*
X300357Y306429D01*
Y303806D01*
X301013Y303150D01*
X302325D01*
X302980Y303806D01*
X71624Y311936D02*
X69000D01*
Y309968D01*
X70312D01*
X69000D01*
Y308000D01*
X72936D02*
Y310624D01*
X74248Y311936D01*
X75560Y310624D01*
Y308000D01*
Y309968D01*
X72936D01*
X76872Y311936D02*
Y308656D01*
X77527Y308000D01*
X78839D01*
X79495Y308656D01*
Y311936D01*
X80807D02*
Y308000D01*
X83431D01*
X84743Y311936D02*
X87367D01*
X86055D01*
Y308000D01*
X92614Y311936D02*
Y308000D01*
X95238D01*
X96550D02*
Y310624D01*
X97862Y311936D01*
X99174Y310624D01*
Y308000D01*
Y309968D01*
X96550D01*
X100486Y311936D02*
X103110D01*
X101798D01*
Y308000D01*
X107045Y311280D02*
X106389Y311936D01*
X105078D01*
X104422Y311280D01*
Y308656D01*
X105078Y308000D01*
X106389D01*
X107045Y308656D01*
X108357Y311936D02*
Y308000D01*
Y309968D01*
X110981D01*
Y311936D01*
Y308000D01*
X114917Y311936D02*
X112293D01*
Y308000D01*
X114917D01*
X112293Y309968D02*
X113605D01*
X118853Y311280D02*
X118197Y311936D01*
X116885D01*
X116229Y311280D01*
Y310624D01*
X116885Y309968D01*
X118197D01*
X118853Y309312D01*
Y308656D01*
X118197Y308000D01*
X116885D01*
X116229Y308656D01*
X237405Y109474D02*
Y105538D01*
X234782Y109474D01*
Y105538D01*
X233470Y109474D02*
X232158D01*
X232814D01*
Y105538D01*
X233470Y106194D01*
X227566Y105538D02*
X228878Y106194D01*
X230190Y107506D01*
Y108818D01*
X229534Y109474D01*
X228222D01*
X227566Y108818D01*
Y108162D01*
X228222Y107506D01*
X230190D01*
X70866Y425196D02*
X73490Y421260D01*
Y425196D02*
X70866Y421260D01*
X77426Y425196D02*
X76114Y424540D01*
X74802Y423228D01*
Y421916D01*
X75458Y421260D01*
X76770D01*
X77426Y421916D01*
Y422572D01*
X76770Y423228D01*
X74802D01*
X175800Y426036D02*
Y422100D01*
X177768D01*
X178424Y422756D01*
Y425380D01*
X177768Y426036D01*
X175800D01*
X182360D02*
X181048Y425380D01*
X179736Y424068D01*
Y422756D01*
X180392Y422100D01*
X181704D01*
X182360Y422756D01*
Y423412D01*
X181704Y424068D01*
X179736D01*
X190657Y412740D02*
X186722D01*
Y414708D01*
X187378Y415364D01*
X188690D01*
X189346Y414708D01*
Y412740D01*
Y414052D02*
X190657Y415364D01*
X186722Y419300D02*
Y416676D01*
X190657D01*
Y419300D01*
X188690Y416676D02*
Y417988D01*
X190657Y423236D02*
Y420612D01*
X188034Y423236D01*
X187378D01*
X186722Y422579D01*
Y421268D01*
X187378Y420612D01*
X125300Y425036D02*
Y421100D01*
X127268D01*
X127924Y421756D01*
Y424380D01*
X127268Y425036D01*
X125300D01*
X131204Y421100D02*
Y425036D01*
X129236Y423068D01*
X131860D01*
X329071Y389335D02*
X325135D01*
Y391302D01*
X325791Y391958D01*
X327103D01*
X327759Y391302D01*
Y389335D01*
Y390647D02*
X329071Y391958D01*
X328415Y393270D02*
X329071Y393926D01*
Y395238D01*
X328415Y395894D01*
X325791D01*
X325135Y395238D01*
Y393926D01*
X325791Y393270D01*
X326447D01*
X327103Y393926D01*
Y395894D01*
X329071Y399174D02*
X325135D01*
X327103Y397206D01*
Y399830D01*
X215600Y204400D02*
Y208336D01*
X217568D01*
X218224Y207680D01*
Y206368D01*
X217568Y205712D01*
X215600D01*
X216912D02*
X218224Y204400D01*
X219536Y205056D02*
X220192Y204400D01*
X221504D01*
X222160Y205056D01*
Y207680D01*
X221504Y208336D01*
X220192D01*
X219536Y207680D01*
Y207024D01*
X220192Y206368D01*
X222160D01*
X226095Y204400D02*
X223471D01*
X226095Y207024D01*
Y207680D01*
X225439Y208336D01*
X224127D01*
X223471Y207680D01*
X278395Y130177D02*
X282331D01*
Y132145D01*
X281675Y132801D01*
X279051D01*
X278395Y132145D01*
Y130177D01*
X282331Y134113D02*
Y135425D01*
Y134769D01*
X278395D01*
X279051Y134113D01*
X282331Y137393D02*
Y138705D01*
Y138049D01*
X278395D01*
X279051Y137393D01*
X164200Y184136D02*
Y180856D01*
X164856Y180200D01*
X166168D01*
X166824Y180856D01*
Y184136D01*
X170760Y180200D02*
X168136D01*
X170760Y182824D01*
Y183480D01*
X170104Y184136D01*
X168792D01*
X168136Y183480D01*
X272447Y372963D02*
X269823D01*
Y370995D01*
X271135D01*
X269823D01*
Y369028D01*
X276382D02*
X273759D01*
X276382Y371651D01*
Y372307D01*
X275727Y372963D01*
X274414D01*
X273759Y372307D01*
X252762Y160373D02*
X250138D01*
Y158405D01*
X251450D01*
X250138D01*
Y156437D01*
X254074Y159717D02*
X254730Y160373D01*
X256041D01*
X256697Y159717D01*
Y157093D01*
X256041Y156437D01*
X254730D01*
X254074Y157093D01*
Y159717D01*
X285500Y157500D02*
X281564D01*
Y159468D01*
X282220Y160124D01*
X283532D01*
X284188Y159468D01*
Y157500D01*
Y158812D02*
X285500Y160124D01*
Y164060D02*
Y161436D01*
X282876Y164060D01*
X282220D01*
X281564Y163404D01*
Y162092D01*
X282220Y161436D01*
X284844Y165372D02*
X285500Y166027D01*
Y167339D01*
X284844Y167995D01*
X282220D01*
X281564Y167339D01*
Y166027D01*
X282220Y165372D01*
X282876D01*
X283532Y166027D01*
Y167995D01*
X270000Y164500D02*
Y168436D01*
X271968D01*
X272624Y167780D01*
Y166468D01*
X271968Y165812D01*
X270000D01*
X271312D02*
X272624Y164500D01*
X276560D02*
X273936D01*
X276560Y167124D01*
Y167780D01*
X275904Y168436D01*
X274592D01*
X273936Y167780D01*
X277871D02*
X278527Y168436D01*
X279839D01*
X280495Y167780D01*
Y167124D01*
X279839Y166468D01*
X280495Y165812D01*
Y165156D01*
X279839Y164500D01*
X278527D01*
X277871Y165156D01*
Y165812D01*
X278527Y166468D01*
X277871Y167124D01*
Y167780D01*
X278527Y166468D02*
X279839D01*
X240520Y122878D02*
Y126814D01*
X242488D01*
X243144Y126158D01*
Y124846D01*
X242488Y124190D01*
X240520D01*
X241832D02*
X243144Y122878D01*
X247079D02*
X244455D01*
X247079Y125502D01*
Y126158D01*
X246423Y126814D01*
X245111D01*
X244455Y126158D01*
X248391Y126814D02*
X251015D01*
Y126158D01*
X248391Y123534D01*
Y122878D01*
X258776Y102878D02*
Y106814D01*
X260743D01*
X261399Y106158D01*
Y104846D01*
X260743Y104190D01*
X258776D01*
X260087D02*
X261399Y102878D01*
X265335D02*
X262711D01*
X265335Y105502D01*
Y106158D01*
X264679Y106814D01*
X263367D01*
X262711Y106158D01*
X269271Y106814D02*
X267959Y106158D01*
X266647Y104846D01*
Y103534D01*
X267303Y102878D01*
X268615D01*
X269271Y103534D01*
Y104190D01*
X268615Y104846D01*
X266647D01*
X277307Y146014D02*
X277963Y146670D01*
Y147982D01*
X277307Y148638D01*
X274683D01*
X274028Y147982D01*
Y146670D01*
X274683Y146014D01*
X274028Y144702D02*
Y143390D01*
Y144046D01*
X277963D01*
X277307Y144702D01*
X277963Y141422D02*
Y138798D01*
X277307D01*
X274683Y141422D01*
X274028D01*
X40688Y238753D02*
X43312Y234817D01*
Y238753D02*
X40688Y234817D01*
X44624D02*
Y237441D01*
X45935Y238753D01*
X47247Y237441D01*
Y234817D01*
Y236785D01*
X44624D01*
X48559Y234817D02*
Y238753D01*
X51183Y234817D01*
Y238753D01*
X52495Y234817D02*
Y237441D01*
X53807Y238753D01*
X55119Y237441D01*
Y234817D01*
Y236785D01*
X52495D01*
X56431Y238753D02*
Y234817D01*
X59055D01*
X62335Y238753D02*
X61023D01*
X60367Y238097D01*
Y235473D01*
X61023Y234817D01*
X62335D01*
X62990Y235473D01*
Y238097D01*
X62335Y238753D01*
X66926Y238097D02*
X66270Y238753D01*
X64958D01*
X64302Y238097D01*
Y235473D01*
X64958Y234817D01*
X66270D01*
X66926Y235473D01*
Y236785D01*
X65614D01*
X70862Y234817D02*
X68238D01*
X70862Y237441D01*
Y238097D01*
X70206Y238753D01*
X68894D01*
X68238Y238097D01*
X319600Y161936D02*
X322224Y158000D01*
Y161936D02*
X319600Y158000D01*
X323536Y161936D02*
X326160D01*
X324848D01*
Y158000D01*
X330095Y161280D02*
X329439Y161936D01*
X328127D01*
X327471Y161280D01*
Y158656D01*
X328127Y158000D01*
X329439D01*
X330095Y158656D01*
X240905Y138566D02*
X243529D01*
X242217D01*
Y134630D01*
X244841D02*
Y138566D01*
X246809D01*
X247465Y137910D01*
Y136598D01*
X246809Y135942D01*
X244841D01*
X248777Y137910D02*
X249433Y138566D01*
X250745D01*
X251401Y137910D01*
Y137254D01*
X250745Y136598D01*
X250089D01*
X250745D01*
X251401Y135942D01*
Y135286D01*
X250745Y134630D01*
X249433D01*
X248777Y135286D01*
X157100Y207436D02*
X159724Y203500D01*
Y207436D02*
X157100Y203500D01*
X161036Y204156D02*
X161692Y203500D01*
X163004D01*
X163660Y204156D01*
Y206780D01*
X163004Y207436D01*
X161692D01*
X161036Y206780D01*
Y206124D01*
X161692Y205468D01*
X163660D01*
X381500Y430936D02*
X384124Y427000D01*
Y430936D02*
X381500Y427000D01*
X385436D02*
X386748D01*
X386092D01*
Y430936D01*
X385436Y430280D01*
X391339Y427000D02*
X388716D01*
X391339Y429624D01*
Y430280D01*
X390683Y430936D01*
X389371D01*
X388716Y430280D01*
X161381Y87677D02*
X164005Y83741D01*
Y87677D02*
X161381Y83741D01*
X165316D02*
X166628D01*
X165972D01*
Y87677D01*
X165316Y87021D01*
X168596Y83741D02*
X169908D01*
X169252D01*
Y87677D01*
X168596Y87021D01*
X336000Y385436D02*
Y382156D01*
X336656Y381500D01*
X337968D01*
X338624Y382156D01*
Y385436D01*
X339936Y381500D02*
X341248D01*
X340592D01*
Y385436D01*
X339936Y384780D01*
X341706Y126082D02*
X344986D01*
X345642Y126738D01*
Y128050D01*
X344986Y128706D01*
X341706D01*
Y132642D02*
X342362Y131330D01*
X343674Y130018D01*
X344986D01*
X345642Y130674D01*
Y131986D01*
X344986Y132642D01*
X344330D01*
X343674Y131986D01*
Y130018D01*
X361100Y370036D02*
Y366756D01*
X361756Y366100D01*
X363068D01*
X363724Y366756D01*
Y370036D01*
X365036Y369380D02*
X365692Y370036D01*
X367004D01*
X367660Y369380D01*
Y368724D01*
X367004Y368068D01*
X366348D01*
X367004D01*
X367660Y367412D01*
Y366756D01*
X367004Y366100D01*
X365692D01*
X365036Y366756D01*
X308300Y215159D02*
Y211879D01*
X308956Y211224D01*
X310268D01*
X310924Y211879D01*
Y215159D01*
X312236Y214503D02*
X312892Y215159D01*
X314204D01*
X314860Y214503D01*
Y211879D01*
X314204Y211224D01*
X312892D01*
X312236Y211879D01*
Y214503D01*
X362849Y429133D02*
X365473D01*
X364161D01*
Y425197D01*
X366784D02*
Y429133D01*
X368752D01*
X369408Y428477D01*
Y427165D01*
X368752Y426509D01*
X366784D01*
X368096D02*
X369408Y425197D01*
X370720D02*
X372032D01*
X371376D01*
Y429133D01*
X370720Y428477D01*
X260351Y409449D02*
Y412073D01*
Y410761D01*
X264287D01*
Y413385D02*
X260351D01*
Y415352D01*
X261007Y416008D01*
X262319D01*
X262975Y415352D01*
Y413385D01*
Y414697D02*
X264287Y416008D01*
X261007Y417320D02*
X260351Y417976D01*
Y419288D01*
X261007Y419944D01*
X263631D01*
X264287Y419288D01*
Y417976D01*
X263631Y417320D01*
X261007D01*
X268064Y401500D02*
Y404124D01*
Y402812D01*
X272000D01*
Y405436D02*
X268064D01*
Y407404D01*
X268720Y408060D01*
X270032D01*
X270688Y407404D01*
Y405436D01*
X272656Y409372D02*
Y411995D01*
X268720Y415931D02*
X268064Y415275D01*
Y413963D01*
X268720Y413307D01*
X271344D01*
X272000Y413963D01*
Y415275D01*
X271344Y415931D01*
X268064Y417243D02*
X271344D01*
X272000Y417899D01*
Y419211D01*
X271344Y419867D01*
X268064D01*
X272000Y421179D02*
X268064D01*
Y423147D01*
X268720Y423803D01*
X270032D01*
X270688Y423147D01*
Y421179D01*
Y422491D02*
X272000Y423803D01*
Y425114D02*
X268064D01*
Y427082D01*
X268720Y427738D01*
X270032D01*
X270688Y427082D01*
Y425114D01*
Y426426D02*
X272000Y427738D01*
X359616Y417322D02*
X362240D01*
X360928D01*
Y413386D01*
X363551D02*
Y417322D01*
X365519D01*
X366175Y416666D01*
Y415354D01*
X365519Y414698D01*
X363551D01*
X367487Y412730D02*
X370111D01*
X371423Y417322D02*
Y413386D01*
X373391D01*
X374047Y414042D01*
Y414698D01*
X373391Y415354D01*
X371423D01*
X373391D01*
X374047Y416010D01*
Y416666D01*
X373391Y417322D01*
X371423D01*
X375359Y413386D02*
Y417322D01*
X377327D01*
X377983Y416666D01*
Y415354D01*
X377327Y414698D01*
X375359D01*
X376671D02*
X377983Y413386D01*
X233500Y144436D02*
X236124D01*
X234812D01*
Y140500D01*
X237436D02*
Y144436D01*
X239404D01*
X240060Y143780D01*
Y142468D01*
X239404Y141812D01*
X237436D01*
X243995Y140500D02*
X241371D01*
X243995Y143124D01*
Y143780D01*
X243339Y144436D01*
X242027D01*
X241371Y143780D01*
X76773Y366472D02*
Y369096D01*
Y367784D01*
X80709D01*
Y370408D02*
X76773D01*
Y372376D01*
X77429Y373032D01*
X78741D01*
X79397Y372376D01*
Y370408D01*
X80709Y376312D02*
X76773D01*
X78741Y374344D01*
Y376968D01*
X236000Y133333D02*
X238624D01*
X237312D01*
Y129398D01*
X239936D02*
Y133333D01*
X241904D01*
X242560Y132677D01*
Y131366D01*
X241904Y130710D01*
X239936D01*
X243871Y129398D02*
X245183D01*
X244527D01*
Y133333D01*
X243871Y132677D01*
X236400Y323236D02*
X239024D01*
X237712D01*
Y319300D01*
X240336D02*
Y323236D01*
X242304D01*
X242960Y322580D01*
Y321268D01*
X242304Y320612D01*
X240336D01*
X244271Y322580D02*
X246895Y319956D01*
X244271D02*
X246895Y322580D01*
X244271Y321268D02*
X246895D01*
X245583Y319956D02*
Y322580D01*
X182300Y372336D02*
X184924D01*
X183612D01*
Y368400D01*
X186236D02*
Y372336D01*
X188204D01*
X188860Y371680D01*
Y370368D01*
X188204Y369712D01*
X186236D01*
X192795Y372336D02*
X190172D01*
Y370368D01*
X191483Y371024D01*
X192139D01*
X192795Y370368D01*
Y369056D01*
X192139Y368400D01*
X190827D01*
X190172Y369056D01*
X133500Y379436D02*
X136124D01*
X134812D01*
Y375500D01*
X137436D02*
Y379436D01*
X139404D01*
X140060Y378780D01*
Y377468D01*
X139404Y376812D01*
X137436D01*
X143995Y375500D02*
X141372D01*
X143995Y378124D01*
Y378780D01*
X143339Y379436D01*
X142027D01*
X141372Y378780D01*
X145307Y375500D02*
X146619D01*
X145963D01*
Y379436D01*
X145307Y378780D01*
X163300Y228136D02*
X165924D01*
X164612D01*
Y224200D01*
X167236D02*
Y228136D01*
X169204D01*
X169860Y227480D01*
Y226168D01*
X169204Y225512D01*
X167236D01*
X171171Y224856D02*
X171827Y224200D01*
X173139D01*
X173795Y224856D01*
Y227480D01*
X173139Y228136D01*
X171827D01*
X171171Y227480D01*
Y226824D01*
X171827Y226168D01*
X173795D01*
X106578Y187445D02*
Y184821D01*
Y186133D01*
X102642D01*
X105921Y180885D02*
X106578Y181541D01*
Y182853D01*
X105921Y183509D01*
X103298D01*
X102642Y182853D01*
Y181541D01*
X103298Y180885D01*
X105921Y179573D02*
X106578Y178917D01*
Y177605D01*
X105921Y176950D01*
X103298D01*
X102642Y177605D01*
Y178917D01*
X103298Y179573D01*
X105921D01*
X135923Y379945D02*
X141827D01*
Y382897D01*
X140843Y383881D01*
X139859D01*
X138875Y382897D01*
Y379945D01*
Y382897D01*
X137891Y383881D01*
X136907D01*
X135923Y382897D01*
Y379945D01*
X141827Y385848D02*
X135923D01*
X137891Y387816D01*
X135923Y389784D01*
X141827D01*
X136907Y395688D02*
X135923Y394704D01*
Y392736D01*
X136907Y391752D01*
X137891D01*
X138875Y392736D01*
Y394704D01*
X139859Y395688D01*
X140843D01*
X141827Y394704D01*
Y392736D01*
X140843Y391752D01*
X142811Y397656D02*
Y401591D01*
X141827Y403559D02*
X135923D01*
Y406511D01*
X136907Y407495D01*
X138875D01*
X139859Y406511D01*
Y403559D01*
Y405527D02*
X141827Y407495D01*
X135923Y413399D02*
Y409463D01*
X141827D01*
Y413399D01*
X138875Y409463D02*
Y411431D01*
X135923Y415367D02*
X141827D01*
Y419302D01*
Y421270D02*
X137891D01*
X135923Y423238D01*
X137891Y425206D01*
X141827D01*
X138875D01*
Y421270D01*
X135923Y427174D02*
X136907D01*
X138875Y429142D01*
X136907Y431109D01*
X135923D01*
X138875Y429142D02*
X141827D01*
X136295Y135500D02*
X132360D01*
Y137468D01*
X133016Y138124D01*
X134327D01*
X134983Y137468D01*
Y135500D01*
Y136812D02*
X136295Y138124D01*
X135639Y139436D02*
X136295Y140092D01*
Y141404D01*
X135639Y142060D01*
X133016D01*
X132360Y141404D01*
Y140092D01*
X133016Y139436D01*
X133671D01*
X134327Y140092D01*
Y142060D01*
X136295Y145339D02*
X132360D01*
X134327Y143371D01*
Y145995D01*
X333858Y229134D02*
X329923D01*
Y231102D01*
X330578Y231758D01*
X331890D01*
X332546Y231102D01*
Y229134D01*
Y230446D02*
X333858Y231758D01*
X330578Y233070D02*
X329923Y233726D01*
Y235037D01*
X330578Y235693D01*
X331235D01*
X331890Y235037D01*
X332546Y235693D01*
X333202D01*
X333858Y235037D01*
Y233726D01*
X333202Y233070D01*
X332546D01*
X331890Y233726D01*
X331235Y233070D01*
X330578D01*
X331890Y233726D02*
Y235037D01*
X333858Y237005D02*
Y238317D01*
Y237661D01*
X329923D01*
X330578Y237005D01*
X82150Y184000D02*
X78214D01*
Y185968D01*
X78870Y186624D01*
X80182D01*
X80838Y185968D01*
Y184000D01*
Y185312D02*
X82150Y186624D01*
X81494Y187936D02*
X82150Y188592D01*
Y189904D01*
X81494Y190560D01*
X78870D01*
X78214Y189904D01*
Y188592D01*
X78870Y187936D01*
X79526D01*
X80182Y188592D01*
Y190560D01*
X82150Y191872D02*
Y193183D01*
Y192527D01*
X78214D01*
X78870Y191872D01*
X397945Y197000D02*
X394009D01*
Y198968D01*
X394665Y199624D01*
X395977D01*
X396633Y198968D01*
Y197000D01*
Y198312D02*
X397945Y199624D01*
X394665Y200936D02*
X394009Y201592D01*
Y202904D01*
X394665Y203560D01*
X395321D01*
X395977Y202904D01*
X396633Y203560D01*
X397289D01*
X397945Y202904D01*
Y201592D01*
X397289Y200936D01*
X396633D01*
X395977Y201592D01*
X395321Y200936D01*
X394665D01*
X395977Y201592D02*
Y202904D01*
X394665Y204872D02*
X394009Y205527D01*
Y206839D01*
X394665Y207495D01*
X397289D01*
X397945Y206839D01*
Y205527D01*
X397289Y204872D01*
X394665D01*
X89041Y176361D02*
X85105D01*
Y178329D01*
X85761Y178985D01*
X87073D01*
X87729Y178329D01*
Y176361D01*
Y177673D02*
X89041Y178985D01*
X85105Y180297D02*
Y182921D01*
X85761D01*
X88385Y180297D01*
X89041D01*
X88385Y184232D02*
X89041Y184889D01*
Y186200D01*
X88385Y186856D01*
X85761D01*
X85105Y186200D01*
Y184889D01*
X85761Y184232D01*
X86417D01*
X87073Y184889D01*
Y186856D01*
X105000Y198500D02*
X108936D01*
Y196532D01*
X108280Y195876D01*
X106968D01*
X106312Y196532D01*
Y198500D01*
Y197188D02*
X105000Y195876D01*
X108936Y194564D02*
Y191940D01*
X108280D01*
X105656Y194564D01*
X105000D01*
X108280Y190629D02*
X108936Y189973D01*
Y188661D01*
X108280Y188005D01*
X107624D01*
X106968Y188661D01*
X106312Y188005D01*
X105656D01*
X105000Y188661D01*
Y189973D01*
X105656Y190629D01*
X106312D01*
X106968Y189973D01*
X107624Y190629D01*
X108280D01*
X106968Y189973D02*
Y188661D01*
X144000Y105500D02*
Y109436D01*
X145968D01*
X146624Y108780D01*
Y107468D01*
X145968Y106812D01*
X144000D01*
X145312D02*
X146624Y105500D01*
X147936Y109436D02*
X150560D01*
Y108780D01*
X147936Y106156D01*
Y105500D01*
X151872Y109436D02*
X154495D01*
Y108780D01*
X151872Y106156D01*
Y105500D01*
X134500Y120500D02*
Y124436D01*
X136468D01*
X137124Y123780D01*
Y122468D01*
X136468Y121812D01*
X134500D01*
X135812D02*
X137124Y120500D01*
X138436Y124436D02*
X141060D01*
Y123780D01*
X138436Y121156D01*
Y120500D01*
X144995Y124436D02*
X143683Y123780D01*
X142371Y122468D01*
Y121156D01*
X143027Y120500D01*
X144339D01*
X144995Y121156D01*
Y121812D01*
X144339Y122468D01*
X142371D01*
X129000Y110492D02*
X125064D01*
Y112460D01*
X125720Y113116D01*
X127032D01*
X127688Y112460D01*
Y110492D01*
Y111804D02*
X129000Y113116D01*
X125064Y114428D02*
Y117052D01*
X125720D01*
X128344Y114428D01*
X129000D01*
X125064Y120987D02*
Y118364D01*
X127032D01*
X126376Y119676D01*
Y120332D01*
X127032Y120987D01*
X128344D01*
X129000Y120332D01*
Y119020D01*
X128344Y118364D01*
X158236Y108799D02*
X154300D01*
Y110767D01*
X154956Y111423D01*
X156268D01*
X156924Y110767D01*
Y108799D01*
Y110111D02*
X158236Y111423D01*
X154300Y112735D02*
Y115359D01*
X154956D01*
X157580Y112735D01*
X158236D01*
Y118639D02*
X154300D01*
X156268Y116671D01*
Y119295D01*
X176917Y106000D02*
Y109936D01*
X178885D01*
X179541Y109280D01*
Y107968D01*
X178885Y107312D01*
X176917D01*
X178229D02*
X179541Y106000D01*
X180853Y109936D02*
X183477D01*
Y109280D01*
X180853Y106656D01*
Y106000D01*
X184789Y109280D02*
X185445Y109936D01*
X186757D01*
X187413Y109280D01*
Y108624D01*
X186757Y107968D01*
X186101D01*
X186757D01*
X187413Y107312D01*
Y106656D01*
X186757Y106000D01*
X185445D01*
X184789Y106656D01*
X173000Y90000D02*
Y93936D01*
X174968D01*
X175624Y93280D01*
Y91968D01*
X174968Y91312D01*
X173000D01*
X174312D02*
X175624Y90000D01*
X176936Y93936D02*
X179560D01*
Y93280D01*
X176936Y90656D01*
Y90000D01*
X183495D02*
X180871D01*
X183495Y92624D01*
Y93280D01*
X182839Y93936D01*
X181527D01*
X180871Y93280D01*
X148000Y152000D02*
Y155936D01*
X149968D01*
X150624Y155280D01*
Y153968D01*
X149968Y153312D01*
X148000D01*
X149312D02*
X150624Y152000D01*
X151936Y155936D02*
X154560D01*
Y155280D01*
X151936Y152656D01*
Y152000D01*
X155871D02*
X157183D01*
X156527D01*
Y155936D01*
X155871Y155280D01*
X148000Y156445D02*
Y160381D01*
X149968D01*
X150624Y159725D01*
Y158413D01*
X149968Y157757D01*
X148000D01*
X149312D02*
X150624Y156445D01*
X151936Y160381D02*
X154560D01*
Y159725D01*
X151936Y157101D01*
Y156445D01*
X155871Y159725D02*
X156527Y160381D01*
X157839D01*
X158495Y159725D01*
Y157101D01*
X157839Y156445D01*
X156527D01*
X155871Y157101D01*
Y159725D01*
X137000Y166000D02*
Y169936D01*
X138968D01*
X139624Y169280D01*
Y167968D01*
X138968Y167312D01*
X137000D01*
X138312D02*
X139624Y166000D01*
X143560Y169936D02*
X142248Y169280D01*
X140936Y167968D01*
Y166656D01*
X141592Y166000D01*
X142904D01*
X143560Y166656D01*
Y167312D01*
X142904Y167968D01*
X140936D01*
X144871Y166656D02*
X145527Y166000D01*
X146839D01*
X147495Y166656D01*
Y169280D01*
X146839Y169936D01*
X145527D01*
X144871Y169280D01*
Y168624D01*
X145527Y167968D01*
X147495D01*
X146500Y130500D02*
Y134436D01*
X148468D01*
X149124Y133780D01*
Y132468D01*
X148468Y131812D01*
X146500D01*
X147812D02*
X149124Y130500D01*
X153060Y134436D02*
X151748Y133780D01*
X150436Y132468D01*
Y131156D01*
X151092Y130500D01*
X152404D01*
X153060Y131156D01*
Y131812D01*
X152404Y132468D01*
X150436D01*
X154372Y133780D02*
X155027Y134436D01*
X156339D01*
X156995Y133780D01*
Y133124D01*
X156339Y132468D01*
X156995Y131812D01*
Y131156D01*
X156339Y130500D01*
X155027D01*
X154372Y131156D01*
Y131812D01*
X155027Y132468D01*
X154372Y133124D01*
Y133780D01*
X155027Y132468D02*
X156339D01*
X150642Y136000D02*
X146706D01*
Y137968D01*
X147362Y138624D01*
X148674D01*
X149330Y137968D01*
Y136000D01*
Y137312D02*
X150642Y138624D01*
X146706Y142560D02*
X147362Y141248D01*
X148674Y139936D01*
X149986D01*
X150642Y140592D01*
Y141904D01*
X149986Y142560D01*
X149330D01*
X148674Y141904D01*
Y139936D01*
X146706Y143871D02*
Y146495D01*
X147362D01*
X149986Y143871D01*
X150642D01*
X246763Y94976D02*
Y98912D01*
X248731D01*
X249387Y98256D01*
Y96944D01*
X248731Y96288D01*
X246763D01*
X248075D02*
X249387Y94976D01*
X253323Y98912D02*
X252011Y98256D01*
X250699Y96944D01*
Y95632D01*
X251355Y94976D01*
X252667D01*
X253323Y95632D01*
Y96288D01*
X252667Y96944D01*
X250699D01*
X257259Y98912D02*
X255947Y98256D01*
X254635Y96944D01*
Y95632D01*
X255291Y94976D01*
X256603D01*
X257259Y95632D01*
Y96288D01*
X256603Y96944D01*
X254635D01*
X241142Y97039D02*
X237206D01*
Y99007D01*
X237862Y99663D01*
X239174D01*
X239830Y99007D01*
Y97039D01*
Y98351D02*
X241142Y99663D01*
X237206Y103599D02*
X237862Y102287D01*
X239174Y100975D01*
X240486D01*
X241142Y101631D01*
Y102943D01*
X240486Y103599D01*
X239830D01*
X239174Y102943D01*
Y100975D01*
X237206Y107535D02*
Y104911D01*
X239174D01*
X238518Y106223D01*
Y106879D01*
X239174Y107535D01*
X240486D01*
X241142Y106879D01*
Y105567D01*
X240486Y104911D01*
X226000Y104596D02*
X222064D01*
Y106564D01*
X222720Y107220D01*
X224032D01*
X224688Y106564D01*
Y104596D01*
Y105908D02*
X226000Y107220D01*
X222064Y111156D02*
X222720Y109844D01*
X224032Y108532D01*
X225344D01*
X226000Y109188D01*
Y110500D01*
X225344Y111156D01*
X224688D01*
X224032Y110500D01*
Y108532D01*
X226000Y114436D02*
X222064D01*
X224032Y112468D01*
Y115092D01*
X238142Y90551D02*
Y94487D01*
X240110D01*
X240766Y93831D01*
Y92519D01*
X240110Y91863D01*
X238142D01*
X239454D02*
X240766Y90551D01*
X244701Y94487D02*
X243389Y93831D01*
X242077Y92519D01*
Y91207D01*
X242733Y90551D01*
X244045D01*
X244701Y91207D01*
Y91863D01*
X244045Y92519D01*
X242077D01*
X246013Y93831D02*
X246669Y94487D01*
X247981D01*
X248637Y93831D01*
Y93175D01*
X247981Y92519D01*
X247325D01*
X247981D01*
X248637Y91863D01*
Y91207D01*
X247981Y90551D01*
X246669D01*
X246013Y91207D01*
X371000Y127500D02*
Y131436D01*
X372968D01*
X373624Y130780D01*
Y129468D01*
X372968Y128812D01*
X371000D01*
X372312D02*
X373624Y127500D01*
X377560Y131436D02*
X376248Y130780D01*
X374936Y129468D01*
Y128156D01*
X375592Y127500D01*
X376904D01*
X377560Y128156D01*
Y128812D01*
X376904Y129468D01*
X374936D01*
X381495Y127500D02*
X378871D01*
X381495Y130124D01*
Y130780D01*
X380839Y131436D01*
X379527D01*
X378871Y130780D01*
X382882Y97748D02*
Y101684D01*
X384850D01*
X385506Y101028D01*
Y99716D01*
X384850Y99060D01*
X382882D01*
X384194D02*
X385506Y97748D01*
X389441Y101684D02*
X386818D01*
Y99716D01*
X388129Y100372D01*
X388786D01*
X389441Y99716D01*
Y98404D01*
X388786Y97748D01*
X387474D01*
X386818Y98404D01*
X390753Y101684D02*
X393377D01*
Y101028D01*
X390753Y98404D01*
Y97748D01*
X388500Y118045D02*
X392436D01*
Y116077D01*
X391780Y115421D01*
X390468D01*
X389812Y116077D01*
Y118045D01*
Y116733D02*
X388500Y115421D01*
X392436Y111486D02*
Y114109D01*
X390468D01*
X391124Y112797D01*
Y112142D01*
X390468Y111486D01*
X389156D01*
X388500Y112142D01*
Y113453D01*
X389156Y114109D01*
X392436Y107550D02*
X391780Y108862D01*
X390468Y110174D01*
X389156D01*
X388500Y109518D01*
Y108206D01*
X389156Y107550D01*
X389812D01*
X390468Y108206D01*
Y110174D01*
X243642Y343992D02*
Y347928D01*
X245610D01*
X246266Y347272D01*
Y345960D01*
X245610Y345304D01*
X243642D01*
X244954D02*
X246266Y343992D01*
X250201Y347928D02*
X247578D01*
Y345960D01*
X248889Y346616D01*
X249545D01*
X250201Y345960D01*
Y344648D01*
X249545Y343992D01*
X248233D01*
X247578Y344648D01*
X254137Y347928D02*
X251513D01*
Y345960D01*
X252825Y346616D01*
X253481D01*
X254137Y345960D01*
Y344648D01*
X253481Y343992D01*
X252169D01*
X251513Y344648D01*
X235642Y330492D02*
Y334428D01*
X237610D01*
X238265Y333772D01*
Y332460D01*
X237610Y331804D01*
X235642D01*
X236954D02*
X238265Y330492D01*
X242201Y334428D02*
X239578D01*
Y332460D01*
X240889Y333116D01*
X241545D01*
X242201Y332460D01*
Y331148D01*
X241545Y330492D01*
X240233D01*
X239578Y331148D01*
X245481Y330492D02*
Y334428D01*
X243513Y332460D01*
X246137D01*
X186500Y341000D02*
X182564D01*
Y342968D01*
X183220Y343624D01*
X184532D01*
X185188Y342968D01*
Y341000D01*
Y342312D02*
X186500Y343624D01*
X182564Y347560D02*
Y344936D01*
X184532D01*
X183876Y346248D01*
Y346904D01*
X184532Y347560D01*
X185844D01*
X186500Y346904D01*
Y345592D01*
X185844Y344936D01*
X183220Y348871D02*
X182564Y349527D01*
Y350839D01*
X183220Y351495D01*
X183876D01*
X184532Y350839D01*
Y350183D01*
Y350839D01*
X185188Y351495D01*
X185844D01*
X186500Y350839D01*
Y349527D01*
X185844Y348871D01*
X176000Y327303D02*
X172064D01*
Y329271D01*
X172720Y329927D01*
X174032D01*
X174688Y329271D01*
Y327303D01*
Y328615D02*
X176000Y329927D01*
X172064Y333863D02*
Y331239D01*
X174032D01*
X173376Y332551D01*
Y333207D01*
X174032Y333863D01*
X175344D01*
X176000Y333207D01*
Y331895D01*
X175344Y331239D01*
X176000Y337799D02*
Y335175D01*
X173376Y337799D01*
X172720D01*
X172064Y337142D01*
Y335831D01*
X172720Y335175D01*
X138625Y321101D02*
Y325037D01*
X140593D01*
X141249Y324381D01*
Y323069D01*
X140593Y322413D01*
X138625D01*
X139937D02*
X141249Y321101D01*
X145185Y325037D02*
X142561D01*
Y323069D01*
X143873Y323725D01*
X144529D01*
X145185Y323069D01*
Y321757D01*
X144529Y321101D01*
X143217D01*
X142561Y321757D01*
X146497Y321101D02*
X147809D01*
X147153D01*
Y325037D01*
X146497Y324381D01*
X104700Y320900D02*
Y324836D01*
X106668D01*
X107324Y324180D01*
Y322868D01*
X106668Y322212D01*
X104700D01*
X106012D02*
X107324Y320900D01*
X111260Y324836D02*
X108636D01*
Y322868D01*
X109948Y323524D01*
X110604D01*
X111260Y322868D01*
Y321556D01*
X110604Y320900D01*
X109292D01*
X108636Y321556D01*
X112572Y324180D02*
X113227Y324836D01*
X114539D01*
X115195Y324180D01*
Y321556D01*
X114539Y320900D01*
X113227D01*
X112572Y321556D01*
Y324180D01*
X362842Y247634D02*
X358907D01*
Y249602D01*
X359563Y250258D01*
X360875D01*
X361531Y249602D01*
Y247634D01*
Y248946D02*
X362842Y250258D01*
Y253538D02*
X358907D01*
X360875Y251570D01*
Y254193D01*
X362187Y255505D02*
X362842Y256161D01*
Y257473D01*
X362187Y258129D01*
X359563D01*
X358907Y257473D01*
Y256161D01*
X359563Y255505D01*
X360219D01*
X360875Y256161D01*
Y258129D01*
X363476Y257634D02*
X367412D01*
Y255666D01*
X366756Y255010D01*
X365444D01*
X364788Y255666D01*
Y257634D01*
Y256322D02*
X363476Y255010D01*
Y251730D02*
X367412D01*
X365444Y253698D01*
Y251074D01*
X366756Y249762D02*
X367412Y249106D01*
Y247795D01*
X366756Y247139D01*
X366100D01*
X365444Y247795D01*
X364788Y247139D01*
X364132D01*
X363476Y247795D01*
Y249106D01*
X364132Y249762D01*
X364788D01*
X365444Y249106D01*
X366100Y249762D01*
X366756D01*
X365444Y249106D02*
Y247795D01*
X385472Y246756D02*
X381537D01*
Y248724D01*
X382193Y249380D01*
X383505D01*
X384160Y248724D01*
Y246756D01*
Y248068D02*
X385472Y249380D01*
Y252660D02*
X381537D01*
X383505Y250692D01*
Y253315D01*
X381537Y254627D02*
Y257251D01*
X382193D01*
X384817Y254627D01*
X385472D01*
X375610Y251469D02*
X371674D01*
Y253437D01*
X372330Y254093D01*
X373642D01*
X374298Y253437D01*
Y251469D01*
Y252781D02*
X375610Y254093D01*
Y257373D02*
X371674D01*
X373642Y255405D01*
Y258029D01*
X371674Y261964D02*
X372330Y260652D01*
X373642Y259341D01*
X374954D01*
X375610Y259996D01*
Y261308D01*
X374954Y261964D01*
X374298D01*
X373642Y261308D01*
Y259341D01*
X324410Y238583D02*
X320474D01*
Y240551D01*
X321130Y241207D01*
X322442D01*
X323097Y240551D01*
Y238583D01*
Y239895D02*
X324410Y241207D01*
Y244486D02*
X320474D01*
X322442Y242518D01*
Y245142D01*
X320474Y249078D02*
Y246454D01*
X322442D01*
X321786Y247766D01*
Y248422D01*
X322442Y249078D01*
X323753D01*
X324410Y248422D01*
Y247110D01*
X323753Y246454D01*
X384500Y370000D02*
Y373936D01*
X386468D01*
X387124Y373280D01*
Y371968D01*
X386468Y371312D01*
X384500D01*
X385812D02*
X387124Y370000D01*
X390404D02*
Y373936D01*
X388436Y371968D01*
X391060D01*
X394339Y370000D02*
Y373936D01*
X392372Y371968D01*
X394995D01*
X333224Y263744D02*
Y267680D01*
X335192D01*
X335848Y267024D01*
Y265712D01*
X335192Y265056D01*
X333224D01*
X334536D02*
X335848Y263744D01*
X339128D02*
Y267680D01*
X337160Y265712D01*
X339784D01*
X341096Y267024D02*
X341752Y267680D01*
X343064D01*
X343720Y267024D01*
Y266368D01*
X343064Y265712D01*
X342408D01*
X343064D01*
X343720Y265056D01*
Y264400D01*
X343064Y263744D01*
X341752D01*
X341096Y264400D01*
X337465Y260729D02*
X341400D01*
Y258761D01*
X340744Y258105D01*
X339432D01*
X338776Y258761D01*
Y260729D01*
Y259417D02*
X337465Y258105D01*
Y254825D02*
X341400D01*
X339432Y256793D01*
Y254169D01*
X337465Y250234D02*
Y252857D01*
X340088Y250234D01*
X340744D01*
X341400Y250889D01*
Y252201D01*
X340744Y252857D01*
X302441Y230587D02*
X298505D01*
Y232555D01*
X299161Y233210D01*
X300473D01*
X301129Y232555D01*
Y230587D01*
Y231898D02*
X302441Y233210D01*
Y236490D02*
X298505D01*
X300473Y234522D01*
Y237146D01*
X302441Y238458D02*
Y239770D01*
Y239114D01*
X298505D01*
X299161Y238458D01*
X304713Y248878D02*
Y244942D01*
X302745D01*
X302089Y245598D01*
Y246910D01*
X302745Y247566D01*
X304713D01*
X303401D02*
X302089Y248878D01*
X298809D02*
Y244942D01*
X300777Y246910D01*
X298153D01*
X296841Y245598D02*
X296185Y244942D01*
X294873D01*
X294217Y245598D01*
Y248222D01*
X294873Y248878D01*
X296185D01*
X296841Y248222D01*
Y245598D01*
X305067Y245476D02*
Y249412D01*
X307035D01*
X307691Y248756D01*
Y247444D01*
X307035Y246788D01*
X305067D01*
X306379D02*
X307691Y245476D01*
X309003Y248756D02*
X309659Y249412D01*
X310970D01*
X311627Y248756D01*
Y248100D01*
X310970Y247444D01*
X310315D01*
X310970D01*
X311627Y246788D01*
Y246132D01*
X310970Y245476D01*
X309659D01*
X309003Y246132D01*
X312938D02*
X313594Y245476D01*
X314906D01*
X315562Y246132D01*
Y248756D01*
X314906Y249412D01*
X313594D01*
X312938Y248756D01*
Y248100D01*
X313594Y247444D01*
X315562D01*
X327714Y248543D02*
X323779D01*
Y250511D01*
X324434Y251167D01*
X325746D01*
X326402Y250511D01*
Y248543D01*
Y249855D02*
X327714Y251167D01*
X324434Y252479D02*
X323779Y253135D01*
Y254447D01*
X324434Y255103D01*
X325090D01*
X325746Y254447D01*
Y253791D01*
Y254447D01*
X326402Y255103D01*
X327058D01*
X327714Y254447D01*
Y253135D01*
X327058Y252479D01*
X324434Y256415D02*
X323779Y257071D01*
Y258383D01*
X324434Y259039D01*
X325090D01*
X325746Y258383D01*
X326402Y259039D01*
X327058D01*
X327714Y258383D01*
Y257071D01*
X327058Y256415D01*
X326402D01*
X325746Y257071D01*
X325090Y256415D01*
X324434D01*
X325746Y257071D02*
Y258383D01*
X277736Y354500D02*
Y358436D01*
X279704D01*
X280360Y357780D01*
Y356468D01*
X279704Y355812D01*
X277736D01*
X279048D02*
X280360Y354500D01*
X281672Y357780D02*
X282328Y358436D01*
X283640D01*
X284296Y357780D01*
Y357124D01*
X283640Y356468D01*
X282984D01*
X283640D01*
X284296Y355812D01*
Y355156D01*
X283640Y354500D01*
X282328D01*
X281672Y355156D01*
X285608Y358436D02*
X288231D01*
Y357780D01*
X285608Y355156D01*
Y354500D01*
X262000Y358000D02*
X265936D01*
Y356032D01*
X265280Y355376D01*
X263968D01*
X263312Y356032D01*
Y358000D01*
Y356688D02*
X262000Y355376D01*
X265280Y354064D02*
X265936Y353408D01*
Y352096D01*
X265280Y351440D01*
X264624D01*
X263968Y352096D01*
Y352752D01*
Y352096D01*
X263312Y351440D01*
X262656D01*
X262000Y352096D01*
Y353408D01*
X262656Y354064D01*
X265936Y347505D02*
X265280Y348817D01*
X263968Y350129D01*
X262656D01*
X262000Y349473D01*
Y348161D01*
X262656Y347505D01*
X263312D01*
X263968Y348161D01*
Y350129D01*
X292000Y370905D02*
Y374841D01*
X293968D01*
X294624Y374185D01*
Y372873D01*
X293968Y372217D01*
X292000D01*
X293312D02*
X294624Y370905D01*
X295936Y374185D02*
X296592Y374841D01*
X297904D01*
X298560Y374185D01*
Y373529D01*
X297904Y372873D01*
X297248D01*
X297904D01*
X298560Y372217D01*
Y371562D01*
X297904Y370905D01*
X296592D01*
X295936Y371562D01*
X302495Y374841D02*
X299871D01*
Y372873D01*
X301183Y373529D01*
X301839D01*
X302495Y372873D01*
Y371562D01*
X301839Y370905D01*
X300527D01*
X299871Y371562D01*
X277394Y353764D02*
X281329D01*
Y351796D01*
X280674Y351140D01*
X279362D01*
X278706Y351796D01*
Y353764D01*
Y352452D02*
X277394Y351140D01*
X280674Y349828D02*
X281329Y349172D01*
Y347860D01*
X280674Y347204D01*
X280017D01*
X279362Y347860D01*
Y348516D01*
Y347860D01*
X278706Y347204D01*
X278050D01*
X277394Y347860D01*
Y349172D01*
X278050Y349828D01*
X277394Y343924D02*
X281329D01*
X279362Y345892D01*
Y343268D01*
X315500Y146000D02*
X311564D01*
Y147968D01*
X312220Y148624D01*
X313532D01*
X314188Y147968D01*
Y146000D01*
Y147312D02*
X315500Y148624D01*
X312220Y149936D02*
X311564Y150592D01*
Y151904D01*
X312220Y152560D01*
X312876D01*
X313532Y151904D01*
Y151248D01*
Y151904D01*
X314188Y152560D01*
X314844D01*
X315500Y151904D01*
Y150592D01*
X314844Y149936D01*
X312220Y153872D02*
X311564Y154527D01*
Y155839D01*
X312220Y156495D01*
X312876D01*
X313532Y155839D01*
Y155183D01*
Y155839D01*
X314188Y156495D01*
X314844D01*
X315500Y155839D01*
Y154527D01*
X314844Y153872D01*
X305500Y155500D02*
X309436D01*
Y153532D01*
X308780Y152876D01*
X307468D01*
X306812Y153532D01*
Y155500D01*
Y154188D02*
X305500Y152876D01*
X308780Y151564D02*
X309436Y150908D01*
Y149596D01*
X308780Y148940D01*
X308124D01*
X307468Y149596D01*
Y150252D01*
Y149596D01*
X306812Y148940D01*
X306156D01*
X305500Y149596D01*
Y150908D01*
X306156Y151564D01*
X305500Y145005D02*
Y147628D01*
X308124Y145005D01*
X308780D01*
X309436Y145661D01*
Y146973D01*
X308780Y147628D01*
X293642Y136413D02*
X289706D01*
Y138381D01*
X290362Y139037D01*
X291674D01*
X292330Y138381D01*
Y136413D01*
Y137725D02*
X293642Y139037D01*
X290362Y140349D02*
X289706Y141005D01*
Y142317D01*
X290362Y142973D01*
X291018D01*
X291674Y142317D01*
Y141661D01*
Y142317D01*
X292330Y142973D01*
X292986D01*
X293642Y142317D01*
Y141005D01*
X292986Y140349D01*
X293642Y144285D02*
Y145597D01*
Y144941D01*
X289706D01*
X290362Y144285D01*
X283405Y144685D02*
X287341D01*
Y142718D01*
X286685Y142062D01*
X285373D01*
X284717Y142718D01*
Y144685D01*
Y143374D02*
X283405Y142062D01*
X286685Y140750D02*
X287341Y140094D01*
Y138782D01*
X286685Y138126D01*
X286029D01*
X285373Y138782D01*
Y139438D01*
Y138782D01*
X284717Y138126D01*
X284062D01*
X283405Y138782D01*
Y140094D01*
X284062Y140750D01*
X286685Y136814D02*
X287341Y136158D01*
Y134846D01*
X286685Y134190D01*
X284062D01*
X283405Y134846D01*
Y136158D01*
X284062Y136814D01*
X286685D01*
X140000Y235000D02*
Y238936D01*
X141968D01*
X142624Y238280D01*
Y236968D01*
X141968Y236312D01*
X140000D01*
X141312D02*
X142624Y235000D01*
X146560D02*
X143936D01*
X146560Y237624D01*
Y238280D01*
X145904Y238936D01*
X144592D01*
X143936Y238280D01*
X150495Y238936D02*
X147871D01*
Y236968D01*
X149183Y237624D01*
X149839D01*
X150495Y236968D01*
Y235656D01*
X149839Y235000D01*
X148527D01*
X147871Y235656D01*
X168595Y282256D02*
Y286192D01*
X170562D01*
X171218Y285536D01*
Y284224D01*
X170562Y283568D01*
X168595D01*
X169906D02*
X171218Y282256D01*
X175154D02*
X172530D01*
X175154Y284880D01*
Y285536D01*
X174498Y286192D01*
X173186D01*
X172530Y285536D01*
X178434Y282256D02*
Y286192D01*
X176466Y284224D01*
X179090D01*
X319742Y136549D02*
Y140485D01*
X321710D01*
X322365Y139829D01*
Y138517D01*
X321710Y137861D01*
X319742D01*
X321054D02*
X322365Y136549D01*
X326301D02*
X323677D01*
X326301Y139173D01*
Y139829D01*
X325645Y140485D01*
X324333D01*
X323677Y139829D01*
X327613D02*
X328269Y140485D01*
X329581D01*
X330237Y139829D01*
Y139173D01*
X329581Y138517D01*
X328925D01*
X329581D01*
X330237Y137861D01*
Y137205D01*
X329581Y136549D01*
X328269D01*
X327613Y137205D01*
X345762Y82472D02*
X349698D01*
Y80505D01*
X349042Y79849D01*
X347730D01*
X347074Y80505D01*
Y82472D01*
Y81160D02*
X345762Y79849D01*
Y75913D02*
Y78537D01*
X348386Y75913D01*
X349042D01*
X349698Y76569D01*
Y77881D01*
X349042Y78537D01*
X345762Y71977D02*
Y74601D01*
X348386Y71977D01*
X349042D01*
X349698Y72633D01*
Y73945D01*
X349042Y74601D01*
X355000Y98000D02*
Y94064D01*
X353032D01*
X352376Y94720D01*
Y96032D01*
X353032Y96688D01*
X355000D01*
X353688D02*
X352376Y98000D01*
X348440D02*
X351064D01*
X348440Y95376D01*
Y94720D01*
X349096Y94064D01*
X350408D01*
X351064Y94720D01*
X347129Y98000D02*
X345817D01*
X346473D01*
Y94064D01*
X347129Y94720D01*
X356642Y374250D02*
X352706D01*
Y376218D01*
X353362Y376874D01*
X354674D01*
X355330Y376218D01*
Y374250D01*
Y375562D02*
X356642Y376874D01*
Y380809D02*
Y378186D01*
X354018Y380809D01*
X353362D01*
X352706Y380153D01*
Y378842D01*
X353362Y378186D01*
Y382121D02*
X352706Y382777D01*
Y384089D01*
X353362Y384745D01*
X355986D01*
X356642Y384089D01*
Y382777D01*
X355986Y382121D01*
X353362D01*
X301189Y340992D02*
X297253D01*
Y342960D01*
X297909Y343616D01*
X299221D01*
X299877Y342960D01*
Y340992D01*
Y342304D02*
X301189Y343616D01*
Y344928D02*
Y346240D01*
Y345584D01*
X297253D01*
X297909Y344928D01*
X297253Y350832D02*
Y348208D01*
X299221D01*
X298565Y349519D01*
Y350175D01*
X299221Y350832D01*
X300533D01*
X301189Y350175D01*
Y348864D01*
X300533Y348208D01*
X347500Y314445D02*
X343564D01*
Y316413D01*
X344220Y317069D01*
X345532D01*
X346188Y316413D01*
Y314445D01*
Y315757D02*
X347500Y317069D01*
Y318381D02*
Y319692D01*
Y319037D01*
X343564D01*
X344220Y318381D01*
X347500Y323628D02*
X343564D01*
X345532Y321660D01*
Y324284D01*
X312500Y345000D02*
X308564D01*
Y346968D01*
X309220Y347624D01*
X310532D01*
X311188Y346968D01*
Y345000D01*
Y346312D02*
X312500Y347624D01*
Y348936D02*
Y350248D01*
Y349592D01*
X308564D01*
X309220Y348936D01*
Y352216D02*
X308564Y352871D01*
Y354183D01*
X309220Y354839D01*
X309876D01*
X310532Y354183D01*
Y353527D01*
Y354183D01*
X311188Y354839D01*
X311844D01*
X312500Y354183D01*
Y352871D01*
X311844Y352216D01*
X336000Y303000D02*
X332064D01*
Y304968D01*
X332720Y305624D01*
X334032D01*
X334688Y304968D01*
Y303000D01*
Y304312D02*
X336000Y305624D01*
Y306936D02*
Y308248D01*
Y307592D01*
X332064D01*
X332720Y306936D01*
X336000Y312839D02*
Y310215D01*
X333376Y312839D01*
X332720D01*
X332064Y312183D01*
Y310872D01*
X332720Y310215D01*
X224142Y334646D02*
X220206D01*
Y336613D01*
X220862Y337269D01*
X222174D01*
X222830Y336613D01*
Y334646D01*
Y335958D02*
X224142Y337269D01*
Y338581D02*
Y339893D01*
Y339237D01*
X220206D01*
X220862Y338581D01*
Y341861D02*
X220206Y342517D01*
Y343829D01*
X220862Y344485D01*
X223486D01*
X224142Y343829D01*
Y342517D01*
X223486Y341861D01*
X220862D01*
X162547Y339500D02*
Y343436D01*
X164515D01*
X165171Y342780D01*
Y341468D01*
X164515Y340812D01*
X162547D01*
X163859D02*
X165171Y339500D01*
X166482Y340156D02*
X167139Y339500D01*
X168450D01*
X169106Y340156D01*
Y342780D01*
X168450Y343436D01*
X167139D01*
X166482Y342780D01*
Y342124D01*
X167139Y341468D01*
X169106D01*
X114547Y351319D02*
X110611D01*
Y353287D01*
X111267Y353943D01*
X112579D01*
X113235Y353287D01*
Y351319D01*
Y352631D02*
X114547Y353943D01*
X111267Y355255D02*
X110611Y355911D01*
Y357223D01*
X111267Y357878D01*
X111923D01*
X112579Y357223D01*
X113235Y357878D01*
X113891D01*
X114547Y357223D01*
Y355911D01*
X113891Y355255D01*
X113235D01*
X112579Y355911D01*
X111923Y355255D01*
X111267D01*
X112579Y355911D02*
Y357223D01*
X195500Y343000D02*
X191564D01*
Y344968D01*
X192220Y345624D01*
X193532D01*
X194188Y344968D01*
Y343000D01*
Y344312D02*
X195500Y345624D01*
X191564Y346936D02*
Y349560D01*
X192220D01*
X194844Y346936D01*
X195500D01*
X143500Y345000D02*
X139564D01*
Y346968D01*
X140220Y347624D01*
X141532D01*
X142188Y346968D01*
Y345000D01*
Y346312D02*
X143500Y347624D01*
X139564Y351560D02*
X140220Y350248D01*
X141532Y348936D01*
X142844D01*
X143500Y349592D01*
Y350904D01*
X142844Y351560D01*
X142188D01*
X141532Y350904D01*
Y348936D01*
X79500Y350500D02*
X83436D01*
Y348532D01*
X82780Y347876D01*
X81468D01*
X80812Y348532D01*
Y350500D01*
Y349188D02*
X79500Y347876D01*
X83436Y343940D02*
Y346564D01*
X81468D01*
X82124Y345252D01*
Y344596D01*
X81468Y343940D01*
X80156D01*
X79500Y344596D01*
Y345908D01*
X80156Y346564D01*
X384000Y204091D02*
Y208026D01*
X385968D01*
X386624Y207370D01*
Y206058D01*
X385968Y205402D01*
X384000D01*
X385312D02*
X386624Y204091D01*
X389904D02*
Y208026D01*
X387936Y206058D01*
X390560D01*
X376642Y200000D02*
X372706D01*
Y201968D01*
X373362Y202624D01*
X374674D01*
X375330Y201968D01*
Y200000D01*
Y201312D02*
X376642Y202624D01*
X373362Y203936D02*
X372706Y204592D01*
Y205904D01*
X373362Y206560D01*
X374018D01*
X374674Y205904D01*
Y205248D01*
Y205904D01*
X375330Y206560D01*
X375986D01*
X376642Y205904D01*
Y204592D01*
X375986Y203936D01*
X366358Y168016D02*
Y164080D01*
X364390D01*
X363734Y164736D01*
Y166048D01*
X364390Y166704D01*
X366358D01*
X365046D02*
X363734Y168016D01*
X362422Y164736D02*
X361767Y164080D01*
X360455D01*
X359799Y164736D01*
Y167360D01*
X360455Y168016D01*
X361767D01*
X362422Y167360D01*
Y164736D01*
X93400Y257800D02*
Y261736D01*
X95368D01*
X96024Y261080D01*
Y259768D01*
X95368Y259112D01*
X93400D01*
X97336Y261736D02*
X98648D01*
X97992D01*
Y257800D01*
X97336D01*
X98648D01*
X103239Y261080D02*
X102583Y261736D01*
X101271D01*
X100616Y261080D01*
Y258456D01*
X101271Y257800D01*
X102583D01*
X103239Y258456D01*
X104551Y257800D02*
X105863D01*
X105207D01*
Y261736D01*
X104551Y261080D01*
X148142Y266945D02*
Y270881D01*
X150110D01*
X150766Y270225D01*
Y268913D01*
X150110Y268257D01*
X148142D01*
X152077Y270881D02*
X153389D01*
X152733D01*
Y266945D01*
X152077D01*
X153389D01*
X157981Y270225D02*
X157325Y270881D01*
X156013D01*
X155357Y270225D01*
Y267601D01*
X156013Y266945D01*
X157325D01*
X157981Y267601D01*
X159293Y270225D02*
X159949Y270881D01*
X161261D01*
X161917Y270225D01*
Y267601D01*
X161261Y266945D01*
X159949D01*
X159293Y267601D01*
Y270225D01*
X188768Y374232D02*
X184832D01*
Y376200D01*
X185488Y376856D01*
X186800D01*
X187456Y376200D01*
Y374232D01*
X188768Y380792D02*
Y378168D01*
X186144Y380792D01*
X185488D01*
X184832Y380136D01*
Y378824D01*
X185488Y378168D01*
X145000Y371100D02*
Y375036D01*
X146968D01*
X147624Y374380D01*
Y373068D01*
X146968Y372412D01*
X145000D01*
X148936Y371100D02*
X150248D01*
X149592D01*
Y375036D01*
X148936Y374380D01*
X106500Y359008D02*
X102564D01*
Y360976D01*
X103220Y361632D01*
X104532D01*
X105188Y360976D01*
Y359008D01*
X103220Y362944D02*
X102564Y363600D01*
Y364912D01*
X103220Y365567D01*
X105844D01*
X106500Y364912D01*
Y363600D01*
X105844Y362944D01*
X103220D01*
X240000Y122832D02*
Y126768D01*
X242624Y122832D01*
Y126768D01*
X246560Y122832D02*
X243936D01*
X246560Y125456D01*
Y126112D01*
X245904Y126768D01*
X244592D01*
X243936Y126112D01*
X247871D02*
X248527Y126768D01*
X249839D01*
X250495Y126112D01*
Y125456D01*
X249839Y124800D01*
X250495Y124144D01*
Y123488D01*
X249839Y122832D01*
X248527D01*
X247871Y123488D01*
Y124144D01*
X248527Y124800D01*
X247871Y125456D01*
Y126112D01*
X248527Y124800D02*
X249839D01*
X197744Y97000D02*
Y100936D01*
X200368Y97000D01*
Y100936D01*
X204304Y97000D02*
X201680D01*
X204304Y99624D01*
Y100280D01*
X203648Y100936D01*
X202336D01*
X201680Y100280D01*
X205616D02*
X206272Y100936D01*
X207583D01*
X208239Y100280D01*
Y97656D01*
X207583Y97000D01*
X206272D01*
X205616Y97656D01*
Y100280D01*
X205000Y113000D02*
Y116936D01*
X207624Y113000D01*
Y116936D01*
X208936Y113000D02*
X210248D01*
X209592D01*
Y116936D01*
X208936Y116280D01*
X212215Y113656D02*
X212872Y113000D01*
X214183D01*
X214839Y113656D01*
Y116280D01*
X214183Y116936D01*
X212872D01*
X212215Y116280D01*
Y115624D01*
X212872Y114968D01*
X214839D01*
X186500Y109000D02*
Y112936D01*
X189124Y109000D01*
Y112936D01*
X190436Y109000D02*
X191748D01*
X191092D01*
Y112936D01*
X190436Y112280D01*
X193716D02*
X194371Y112936D01*
X195683D01*
X196339Y112280D01*
Y111624D01*
X195683Y110968D01*
X196339Y110312D01*
Y109656D01*
X195683Y109000D01*
X194371D01*
X193716Y109656D01*
Y110312D01*
X194371Y110968D01*
X193716Y111624D01*
Y112280D01*
X194371Y110968D02*
X195683D01*
X223083Y93445D02*
X219147D01*
X223083Y96069D01*
X219147D01*
X223083Y97381D02*
Y98693D01*
Y98037D01*
X219147D01*
X219803Y97381D01*
X219147Y103284D02*
Y100660D01*
X221115D01*
X220459Y101972D01*
Y102628D01*
X221115Y103284D01*
X222427D01*
X223083Y102628D01*
Y101316D01*
X222427Y100660D01*
X357370Y120193D02*
X361306D01*
X357370Y117569D01*
X361306D01*
X357370Y116257D02*
Y114945D01*
Y115601D01*
X361306D01*
X360650Y116257D01*
Y112977D02*
X361306Y112321D01*
Y111010D01*
X360650Y110354D01*
X359994D01*
X359338Y111010D01*
Y111665D01*
Y111010D01*
X358682Y110354D01*
X358026D01*
X357370Y111010D01*
Y112321D01*
X358026Y112977D01*
X352300Y220400D02*
Y224336D01*
X354924Y220400D01*
Y224336D01*
X356236Y220400D02*
X357548D01*
X356892D01*
Y224336D01*
X356236Y223680D01*
X362139Y220400D02*
X359516D01*
X362139Y223024D01*
Y223680D01*
X361483Y224336D01*
X360172D01*
X359516Y223680D01*
X327000Y123300D02*
Y127236D01*
X329624Y123300D01*
Y127236D01*
X330936Y123300D02*
X332248D01*
X331592D01*
Y127236D01*
X330936Y126580D01*
X334215Y123300D02*
X335527D01*
X334872D01*
Y127236D01*
X334215Y126580D01*
X326800Y91300D02*
Y95236D01*
X329424Y91300D01*
Y95236D01*
X330736Y91300D02*
X332048D01*
X331392D01*
Y95236D01*
X330736Y94580D01*
X334015D02*
X334671Y95236D01*
X335983D01*
X336639Y94580D01*
Y91956D01*
X335983Y91300D01*
X334671D01*
X334015Y91956D01*
Y94580D01*
X344642Y119982D02*
Y123918D01*
X347266Y119982D01*
Y123918D01*
X348577Y123262D02*
X349233Y123918D01*
X350545D01*
X351201Y123262D01*
Y122606D01*
X350545Y121950D01*
X351201Y121294D01*
Y120638D01*
X350545Y119982D01*
X349233D01*
X348577Y120638D01*
Y121294D01*
X349233Y121950D01*
X348577Y122606D01*
Y123262D01*
X349233Y121950D02*
X350545D01*
X374500Y390480D02*
Y394416D01*
X377124Y390480D01*
Y394416D01*
X378436D02*
X381060D01*
Y393760D01*
X378436Y391136D01*
Y390480D01*
X359000Y391500D02*
Y395436D01*
X361624Y391500D01*
Y395436D01*
X365560D02*
X364248Y394780D01*
X362936Y393468D01*
Y392156D01*
X363592Y391500D01*
X364904D01*
X365560Y392156D01*
Y392812D01*
X364904Y393468D01*
X362936D01*
X201000Y335500D02*
Y339436D01*
X203624Y335500D01*
Y339436D01*
X207560D02*
X204936D01*
Y337468D01*
X206248Y338124D01*
X206904D01*
X207560Y337468D01*
Y336156D01*
X206904Y335500D01*
X205592D01*
X204936Y336156D01*
X151902Y335390D02*
Y339325D01*
X154525Y335390D01*
Y339325D01*
X157805Y335390D02*
Y339325D01*
X155837Y337358D01*
X158461D01*
X92142Y332882D02*
Y336818D01*
X94766Y332882D01*
Y336818D01*
X96078Y336162D02*
X96733Y336818D01*
X98045D01*
X98701Y336162D01*
Y335506D01*
X98045Y334850D01*
X97389D01*
X98045D01*
X98701Y334194D01*
Y333538D01*
X98045Y332882D01*
X96733D01*
X96078Y333538D01*
X236020Y365220D02*
X239955D01*
X236020Y362597D01*
X239955D01*
X236020Y358661D02*
Y361285D01*
X238644Y358661D01*
X239300D01*
X239955Y359317D01*
Y360629D01*
X239300Y361285D01*
X166500Y371887D02*
Y375823D01*
X169124Y371887D01*
Y375823D01*
X170436Y371887D02*
X171748D01*
X171092D01*
Y375823D01*
X170436Y375167D01*
X140064Y200000D02*
Y201312D01*
Y200656D01*
X144000D01*
Y200000D01*
Y201312D01*
Y203280D02*
X140064D01*
X144000Y205904D01*
X140064D01*
Y207215D02*
X143344D01*
X144000Y207872D01*
Y209183D01*
X143344Y209839D01*
X140064D01*
Y211151D02*
X144000D01*
Y213119D01*
X143344Y213775D01*
X140720D01*
X140064Y213119D01*
Y211151D01*
X140720Y217711D02*
X140064Y217055D01*
Y215743D01*
X140720Y215087D01*
X143344D01*
X144000Y215743D01*
Y217055D01*
X143344Y217711D01*
X144000Y219023D02*
Y220335D01*
Y219679D01*
X140064D01*
X140720Y219023D01*
X370064Y185039D02*
Y186351D01*
Y185695D01*
X374000D01*
Y185039D01*
Y186351D01*
X370720Y190943D02*
X370064Y190287D01*
Y188975D01*
X370720Y188319D01*
X373344D01*
X374000Y188975D01*
Y190287D01*
X373344Y190943D01*
X370720Y192255D02*
X370064Y192911D01*
Y194223D01*
X370720Y194879D01*
X373344D01*
X374000Y194223D01*
Y192911D01*
X373344Y192255D01*
X370720D01*
X85064Y212624D02*
Y210000D01*
X87032D01*
Y211312D01*
Y210000D01*
X89000D01*
X85064Y216560D02*
X85720Y215248D01*
X87032Y213936D01*
X88344D01*
X89000Y214592D01*
Y215904D01*
X88344Y216560D01*
X87688D01*
X87032Y215904D01*
Y213936D01*
X346124Y254436D02*
X343500D01*
Y252468D01*
X344812D01*
X343500D01*
Y250500D01*
X350060Y254436D02*
X347436D01*
Y252468D01*
X348748Y253124D01*
X349404D01*
X350060Y252468D01*
Y251156D01*
X349404Y250500D01*
X348092D01*
X347436Y251156D01*
X301836Y246436D02*
X299213D01*
Y244468D01*
X300524D01*
X299213D01*
Y242500D01*
X305116D02*
Y246436D01*
X303148Y244468D01*
X305772D01*
X381124Y231381D02*
X378500D01*
Y229413D01*
X379812D01*
X378500D01*
Y227445D01*
X382436Y230725D02*
X383092Y231381D01*
X384404D01*
X385060Y230725D01*
Y230069D01*
X384404Y229413D01*
X383748D01*
X384404D01*
X385060Y228757D01*
Y228101D01*
X384404Y227445D01*
X383092D01*
X382436Y228101D01*
X296124Y174936D02*
X293500D01*
Y172968D01*
X294812D01*
X293500D01*
Y171000D01*
X297436D02*
X298748D01*
X298092D01*
Y174936D01*
X297436Y174280D01*
X127706Y89203D02*
X131642D01*
Y91171D01*
X130986Y91827D01*
X128362D01*
X127706Y91171D01*
Y89203D01*
X131642Y95762D02*
Y93138D01*
X129018Y95762D01*
X128362D01*
X127706Y95106D01*
Y93794D01*
X128362Y93138D01*
X131642Y99042D02*
X127706D01*
X129674Y97074D01*
Y99698D01*
X118220Y167022D02*
Y163087D01*
X120188D01*
X120844Y163743D01*
Y166366D01*
X120188Y167022D01*
X118220D01*
X124780Y163087D02*
X122156D01*
X124780Y165710D01*
Y166366D01*
X124124Y167022D01*
X122812D01*
X122156Y166366D01*
X126092D02*
X126748Y167022D01*
X128060D01*
X128716Y166366D01*
Y165710D01*
X128060Y165055D01*
X127404D01*
X128060D01*
X128716Y164399D01*
Y163743D01*
X128060Y163087D01*
X126748D01*
X126092Y163743D01*
X171807Y76301D02*
Y80236D01*
X169839D01*
X169183Y79580D01*
Y76956D01*
X169839Y76301D01*
X171807D01*
X165247Y80236D02*
X167871D01*
X165247Y77612D01*
Y76956D01*
X165903Y76301D01*
X167215D01*
X167871Y76956D01*
X161312Y80236D02*
X163936D01*
X161312Y77612D01*
Y76956D01*
X161968Y76301D01*
X163280D01*
X163936Y76956D01*
X102155Y128146D02*
X106091D01*
Y130113D01*
X105435Y130770D01*
X102811D01*
X102155Y130113D01*
Y128146D01*
X106091Y134705D02*
Y132081D01*
X103467Y134705D01*
X102811D01*
X102155Y134049D01*
Y132737D01*
X102811Y132081D01*
X106091Y136017D02*
Y137329D01*
Y136673D01*
X102155D01*
X102811Y136017D01*
X377500Y79936D02*
Y76000D01*
X379468D01*
X380124Y76656D01*
Y79280D01*
X379468Y79936D01*
X377500D01*
X384060Y76000D02*
X381436D01*
X384060Y78624D01*
Y79280D01*
X383404Y79936D01*
X382092D01*
X381436Y79280D01*
X385371D02*
X386027Y79936D01*
X387339D01*
X387995Y79280D01*
Y76656D01*
X387339Y76000D01*
X386027D01*
X385371Y76656D01*
Y79280D01*
X277800Y356949D02*
X281736D01*
Y358917D01*
X281080Y359573D01*
X278456D01*
X277800Y358917D01*
Y356949D01*
X281736Y360884D02*
Y362196D01*
Y361541D01*
X277800D01*
X278456Y360884D01*
X281080Y364164D02*
X281736Y364820D01*
Y366132D01*
X281080Y366788D01*
X278456D01*
X277800Y366132D01*
Y364820D01*
X278456Y364164D01*
X279112D01*
X279768Y364820D01*
Y366788D01*
X258476Y350497D02*
Y354433D01*
X256508D01*
X255853Y353777D01*
Y351153D01*
X256508Y350497D01*
X258476D01*
X254541Y354433D02*
X253229D01*
X253885D01*
Y350497D01*
X254541Y351153D01*
X251261D02*
X250605Y350497D01*
X249293D01*
X248637Y351153D01*
Y351809D01*
X249293Y352465D01*
X248637Y353121D01*
Y353777D01*
X249293Y354433D01*
X250605D01*
X251261Y353777D01*
Y353121D01*
X250605Y352465D01*
X251261Y351809D01*
Y351153D01*
X250605Y352465D02*
X249293D01*
X276177Y155467D02*
Y151532D01*
X278145D01*
X278801Y152187D01*
Y154811D01*
X278145Y155467D01*
X276177D01*
X280113Y151532D02*
X281425D01*
X280769D01*
Y155467D01*
X280113Y154811D01*
X283393Y155467D02*
X286017D01*
Y154811D01*
X283393Y152187D01*
Y151532D01*
X285206Y146846D02*
X289142D01*
Y148814D01*
X288486Y149470D01*
X285862D01*
X285206Y148814D01*
Y146846D01*
X289142Y150782D02*
Y152094D01*
Y151438D01*
X285206D01*
X285862Y150782D01*
X285206Y156686D02*
X285862Y155374D01*
X287174Y154062D01*
X288486D01*
X289142Y154718D01*
Y156030D01*
X288486Y156686D01*
X287830D01*
X287174Y156030D01*
Y154062D01*
X326000Y285436D02*
Y281500D01*
X327968D01*
X328624Y282156D01*
Y284780D01*
X327968Y285436D01*
X326000D01*
X329936Y281500D02*
X331248D01*
X330592D01*
Y285436D01*
X329936Y284780D01*
X335839Y285436D02*
X333215D01*
Y283468D01*
X334527Y284124D01*
X335183D01*
X335839Y283468D01*
Y282156D01*
X335183Y281500D01*
X333872D01*
X333215Y282156D01*
X337249Y260421D02*
X341185D01*
Y262389D01*
X340529Y263045D01*
X337905D01*
X337249Y262389D01*
Y260421D01*
X341185Y264357D02*
Y265669D01*
Y265013D01*
X337249D01*
X337905Y264357D01*
X341185Y269605D02*
X337249D01*
X339217Y267637D01*
Y270261D01*
X286878Y251276D02*
X290813D01*
Y253243D01*
X290158Y253899D01*
X287534D01*
X286878Y253243D01*
Y251276D01*
X290813Y255211D02*
Y256523D01*
Y255867D01*
X286878D01*
X287534Y255211D01*
Y258491D02*
X286878Y259147D01*
Y260459D01*
X287534Y261115D01*
X288190D01*
X288846Y260459D01*
Y259803D01*
Y260459D01*
X289502Y261115D01*
X290158D01*
X290813Y260459D01*
Y259147D01*
X290158Y258491D01*
X305093Y258618D02*
X301157D01*
Y256650D01*
X301813Y255994D01*
X304437D01*
X305093Y256650D01*
Y258618D01*
X301157Y254682D02*
Y253370D01*
Y254026D01*
X305093D01*
X304437Y254682D01*
X301157Y248779D02*
Y251403D01*
X303781Y248779D01*
X304437D01*
X305093Y249435D01*
Y250747D01*
X304437Y251403D01*
X141000Y230936D02*
Y227000D01*
X142968D01*
X143624Y227656D01*
Y230280D01*
X142968Y230936D01*
X141000D01*
X144936Y227000D02*
X146248D01*
X145592D01*
Y230936D01*
X144936Y230280D01*
X148215D02*
X148872Y230936D01*
X150183D01*
X150839Y230280D01*
Y227656D01*
X150183Y227000D01*
X148872D01*
X148215Y227656D01*
Y230280D01*
X146888Y289398D02*
X142953D01*
Y287430D01*
X143609Y286774D01*
X146232D01*
X146888Y287430D01*
Y289398D01*
X143609Y285462D02*
X142953Y284806D01*
Y283494D01*
X143609Y282838D01*
X146232D01*
X146888Y283494D01*
Y284806D01*
X146232Y285462D01*
X145577D01*
X144921Y284806D01*
Y282838D01*
X230300Y425036D02*
Y421100D01*
X232268D01*
X232924Y421756D01*
Y424380D01*
X232268Y425036D01*
X230300D01*
X234236Y424380D02*
X234892Y425036D01*
X236204D01*
X236860Y424380D01*
Y423724D01*
X236204Y423068D01*
X236860Y422412D01*
Y421756D01*
X236204Y421100D01*
X234892D01*
X234236Y421756D01*
Y422412D01*
X234892Y423068D01*
X234236Y423724D01*
Y424380D01*
X234892Y423068D02*
X236204D01*
X223971Y366220D02*
X220035D01*
Y364253D01*
X220691Y363597D01*
X223315D01*
X223971Y364253D01*
Y366220D01*
Y362285D02*
Y359661D01*
X223315D01*
X220691Y362285D01*
X220035D01*
X159600Y373711D02*
Y369776D01*
X161568D01*
X162224Y370432D01*
Y373055D01*
X161568Y373711D01*
X159600D01*
X166160D02*
X163536D01*
Y371743D01*
X164848Y372399D01*
X165504D01*
X166160Y371743D01*
Y370432D01*
X165504Y369776D01*
X164192D01*
X163536Y370432D01*
X110564Y358500D02*
X114500D01*
Y360468D01*
X113844Y361124D01*
X111220D01*
X110564Y360468D01*
Y358500D01*
X111220Y362436D02*
X110564Y363092D01*
Y364404D01*
X111220Y365060D01*
X111876D01*
X112532Y364404D01*
Y363748D01*
Y364404D01*
X113188Y365060D01*
X113844D01*
X114500Y364404D01*
Y363092D01*
X113844Y362436D01*
X381000Y224436D02*
Y220500D01*
X382968D01*
X383624Y221156D01*
Y223780D01*
X382968Y224436D01*
X381000D01*
X384936Y220500D02*
X386248D01*
X385592D01*
Y224436D01*
X384936Y223780D01*
X308813Y402225D02*
X308157Y402881D01*
X306845D01*
X306189Y402225D01*
Y399601D01*
X306845Y398945D01*
X308157D01*
X308813Y399601D01*
X312093Y402881D02*
X310781D01*
X310125Y402225D01*
Y399601D01*
X310781Y398945D01*
X312093D01*
X312749Y399601D01*
Y402225D01*
X312093Y402881D01*
X314060Y398945D02*
Y402881D01*
X315372Y401569D01*
X316684Y402881D01*
Y398945D01*
X317996D02*
Y402881D01*
X319964D01*
X320620Y402225D01*
Y400913D01*
X319964Y400257D01*
X317996D01*
X324556Y398945D02*
X321932D01*
X324556Y401569D01*
Y402225D01*
X323900Y402881D01*
X322588D01*
X321932Y402225D01*
X325667Y378701D02*
X325011Y379357D01*
X323699D01*
X323043Y378701D01*
Y376077D01*
X323699Y375421D01*
X325011D01*
X325667Y376077D01*
X328947Y379357D02*
X327635D01*
X326979Y378701D01*
Y376077D01*
X327635Y375421D01*
X328947D01*
X329603Y376077D01*
Y378701D01*
X328947Y379357D01*
X330915Y375421D02*
Y379357D01*
X332227Y378045D01*
X333539Y379357D01*
Y375421D01*
X334851D02*
Y379357D01*
X336818D01*
X337474Y378701D01*
Y377389D01*
X336818Y376733D01*
X334851D01*
X338786Y375421D02*
X340098D01*
X339442D01*
Y379357D01*
X338786Y378701D01*
X325667Y350455D02*
X325011Y351111D01*
X323699D01*
X323043Y350455D01*
Y347832D01*
X323699Y347176D01*
X325011D01*
X325667Y347832D01*
X328947Y351111D02*
X327635D01*
X326979Y350455D01*
Y347832D01*
X327635Y347176D01*
X328947D01*
X329603Y347832D01*
Y350455D01*
X328947Y351111D01*
X330915Y347176D02*
Y351111D01*
X332227Y349799D01*
X333539Y351111D01*
Y347176D01*
X334851D02*
Y351111D01*
X336818D01*
X337474Y350455D01*
Y349144D01*
X336818Y348487D01*
X334851D01*
X338786Y350455D02*
X339442Y351111D01*
X340754D01*
X341410Y350455D01*
Y347832D01*
X340754Y347176D01*
X339442D01*
X338786Y347832D01*
Y350455D01*
X350624Y405280D02*
X349968Y405936D01*
X348656D01*
X348000Y405280D01*
Y402656D01*
X348656Y402000D01*
X349968D01*
X350624Y402656D01*
X351936D02*
X352592Y402000D01*
X353904D01*
X354560Y402656D01*
Y405280D01*
X353904Y405936D01*
X352592D01*
X351936Y405280D01*
Y404624D01*
X352592Y403968D01*
X354560D01*
X355872Y405280D02*
X356527Y405936D01*
X357839D01*
X358495Y405280D01*
Y402656D01*
X357839Y402000D01*
X356527D01*
X355872Y402656D01*
Y405280D01*
X79424Y298780D02*
X78768Y299436D01*
X77456D01*
X76800Y298780D01*
Y296156D01*
X77456Y295500D01*
X78768D01*
X79424Y296156D01*
X80736Y298780D02*
X81392Y299436D01*
X82704D01*
X83360Y298780D01*
Y298124D01*
X82704Y297468D01*
X83360Y296812D01*
Y296156D01*
X82704Y295500D01*
X81392D01*
X80736Y296156D01*
Y296812D01*
X81392Y297468D01*
X80736Y298124D01*
Y298780D01*
X81392Y297468D02*
X82704D01*
X84671Y296156D02*
X85327Y295500D01*
X86639D01*
X87295Y296156D01*
Y298780D01*
X86639Y299436D01*
X85327D01*
X84671Y298780D01*
Y298124D01*
X85327Y297468D01*
X87295D01*
X143624Y244780D02*
X142968Y245436D01*
X141656D01*
X141000Y244780D01*
Y242156D01*
X141656Y241500D01*
X142968D01*
X143624Y242156D01*
X144936Y244780D02*
X145592Y245436D01*
X146904D01*
X147560Y244780D01*
Y244124D01*
X146904Y243468D01*
X147560Y242812D01*
Y242156D01*
X146904Y241500D01*
X145592D01*
X144936Y242156D01*
Y242812D01*
X145592Y243468D01*
X144936Y244124D01*
Y244780D01*
X145592Y243468D02*
X146904D01*
X148872Y244780D02*
X149527Y245436D01*
X150839D01*
X151495Y244780D01*
Y244124D01*
X150839Y243468D01*
X151495Y242812D01*
Y242156D01*
X150839Y241500D01*
X149527D01*
X148872Y242156D01*
Y242812D01*
X149527Y243468D01*
X148872Y244124D01*
Y244780D01*
X149527Y243468D02*
X150839D01*
X120422Y295321D02*
X121078Y295977D01*
Y297289D01*
X120422Y297945D01*
X117798D01*
X117142Y297289D01*
Y295977D01*
X117798Y295321D01*
X120422Y294009D02*
X121078Y293353D01*
Y292041D01*
X120422Y291385D01*
X119766D01*
X119110Y292041D01*
X118454Y291385D01*
X117798D01*
X117142Y292041D01*
Y293353D01*
X117798Y294009D01*
X118454D01*
X119110Y293353D01*
X119766Y294009D01*
X120422D01*
X119110Y293353D02*
Y292041D01*
X121078Y290073D02*
Y287450D01*
X120422D01*
X117798Y290073D01*
X117142D01*
X154766Y294225D02*
X154110Y294881D01*
X152798D01*
X152142Y294225D01*
Y291601D01*
X152798Y290945D01*
X154110D01*
X154766Y291601D01*
X156078Y294225D02*
X156733Y294881D01*
X158045D01*
X158701Y294225D01*
Y293569D01*
X158045Y292913D01*
X158701Y292257D01*
Y291601D01*
X158045Y290945D01*
X156733D01*
X156078Y291601D01*
Y292257D01*
X156733Y292913D01*
X156078Y293569D01*
Y294225D01*
X156733Y292913D02*
X158045D01*
X162637Y294881D02*
X161325Y294225D01*
X160013Y292913D01*
Y291601D01*
X160669Y290945D01*
X161981D01*
X162637Y291601D01*
Y292257D01*
X161981Y292913D01*
X160013D01*
X178220Y346317D02*
X177564Y345661D01*
Y344349D01*
X178220Y343693D01*
X180844D01*
X181500Y344349D01*
Y345661D01*
X180844Y346317D01*
X178220Y347629D02*
X177564Y348285D01*
Y349597D01*
X178220Y350253D01*
X178876D01*
X179532Y349597D01*
X180188Y350253D01*
X180844D01*
X181500Y349597D01*
Y348285D01*
X180844Y347629D01*
X180188D01*
X179532Y348285D01*
X178876Y347629D01*
X178220D01*
X179532Y348285D02*
Y349597D01*
X177564Y354188D02*
Y351564D01*
X179532D01*
X178876Y352876D01*
Y353532D01*
X179532Y354188D01*
X180844D01*
X181500Y353532D01*
Y352220D01*
X180844Y351564D01*
X123205Y349080D02*
X122548Y348425D01*
Y347113D01*
X123205Y346457D01*
X125828D01*
X126484Y347113D01*
Y348425D01*
X125828Y349080D01*
X123205Y350392D02*
X122548Y351048D01*
Y352360D01*
X123205Y353016D01*
X123860D01*
X124516Y352360D01*
X125172Y353016D01*
X125828D01*
X126484Y352360D01*
Y351048D01*
X125828Y350392D01*
X125172D01*
X124516Y351048D01*
X123860Y350392D01*
X123205D01*
X124516Y351048D02*
Y352360D01*
X126484Y356296D02*
X122548D01*
X124516Y354328D01*
Y356952D01*
X234421Y349211D02*
X235078Y349867D01*
Y351179D01*
X234421Y351835D01*
X231798D01*
X231142Y351179D01*
Y349867D01*
X231798Y349211D01*
X234421Y347899D02*
X235078Y347243D01*
Y345931D01*
X234421Y345275D01*
X233766D01*
X233110Y345931D01*
X232454Y345275D01*
X231798D01*
X231142Y345931D01*
Y347243D01*
X231798Y347899D01*
X232454D01*
X233110Y347243D01*
X233766Y347899D01*
X234421D01*
X233110Y347243D02*
Y345931D01*
X231142Y341339D02*
Y343963D01*
X233766Y341339D01*
X234421D01*
X235078Y341995D01*
Y343307D01*
X234421Y343963D01*
X86924Y245380D02*
X86268Y246036D01*
X84956D01*
X84300Y245380D01*
Y242756D01*
X84956Y242100D01*
X86268D01*
X86924Y242756D01*
X88236Y245380D02*
X88892Y246036D01*
X90204D01*
X90860Y245380D01*
Y244724D01*
X90204Y244068D01*
X89548D01*
X90204D01*
X90860Y243412D01*
Y242756D01*
X90204Y242100D01*
X88892D01*
X88236Y242756D01*
X94139Y242100D02*
Y246036D01*
X92172Y244068D01*
X94795D01*
X106124Y222280D02*
X105468Y222936D01*
X104156D01*
X103500Y222280D01*
Y219656D01*
X104156Y219000D01*
X105468D01*
X106124Y219656D01*
X107436Y222280D02*
X108092Y222936D01*
X109404D01*
X110060Y222280D01*
Y221624D01*
X109404Y220968D01*
X108748D01*
X109404D01*
X110060Y220312D01*
Y219656D01*
X109404Y219000D01*
X108092D01*
X107436Y219656D01*
X111372Y222280D02*
X112027Y222936D01*
X113339D01*
X113995Y222280D01*
Y221624D01*
X113339Y220968D01*
X112683D01*
X113339D01*
X113995Y220312D01*
Y219656D01*
X113339Y219000D01*
X112027D01*
X111372Y219656D01*
X154124Y123280D02*
X153468Y123936D01*
X152156D01*
X151500Y123280D01*
Y120656D01*
X152156Y120000D01*
X153468D01*
X154124Y120656D01*
X155436Y123280D02*
X156092Y123936D01*
X157404D01*
X158060Y123280D01*
Y122624D01*
X157404Y121968D01*
X156748D01*
X157404D01*
X158060Y121312D01*
Y120656D01*
X157404Y120000D01*
X156092D01*
X155436Y120656D01*
X161995Y120000D02*
X159371D01*
X161995Y122624D01*
Y123280D01*
X161339Y123936D01*
X160027D01*
X159371Y123280D01*
X175280Y115376D02*
X175936Y116032D01*
Y117344D01*
X175280Y118000D01*
X172656D01*
X172000Y117344D01*
Y116032D01*
X172656Y115376D01*
X175280Y114064D02*
X175936Y113408D01*
Y112096D01*
X175280Y111440D01*
X174624D01*
X173968Y112096D01*
Y112752D01*
Y112096D01*
X173312Y111440D01*
X172656D01*
X172000Y112096D01*
Y113408D01*
X172656Y114064D01*
X172000Y110128D02*
Y108817D01*
Y109473D01*
X175936D01*
X175280Y110128D01*
X151266Y150225D02*
X150610Y150881D01*
X149298D01*
X148642Y150225D01*
Y147601D01*
X149298Y146945D01*
X150610D01*
X151266Y147601D01*
X152577Y150225D02*
X153233Y150881D01*
X154545D01*
X155201Y150225D01*
Y149569D01*
X154545Y148913D01*
X153889D01*
X154545D01*
X155201Y148257D01*
Y147601D01*
X154545Y146945D01*
X153233D01*
X152577Y147601D01*
X156513Y150225D02*
X157169Y150881D01*
X158481D01*
X159137Y150225D01*
Y147601D01*
X158481Y146945D01*
X157169D01*
X156513Y147601D01*
Y150225D01*
X148624Y128280D02*
X147968Y128936D01*
X146656D01*
X146000Y128280D01*
Y125656D01*
X146656Y125000D01*
X147968D01*
X148624Y125656D01*
X152560Y125000D02*
X149936D01*
X152560Y127624D01*
Y128280D01*
X151904Y128936D01*
X150592D01*
X149936Y128280D01*
X153872Y125656D02*
X154527Y125000D01*
X155839D01*
X156495Y125656D01*
Y128280D01*
X155839Y128936D01*
X154527D01*
X153872Y128280D01*
Y127624D01*
X154527Y126968D01*
X156495D01*
X221765Y135780D02*
X221110Y136436D01*
X219798D01*
X219142Y135780D01*
Y133156D01*
X219798Y132500D01*
X221110D01*
X221765Y133156D01*
X225701Y132500D02*
X223078D01*
X225701Y135124D01*
Y135780D01*
X225045Y136436D01*
X223733D01*
X223078Y135780D01*
X227013D02*
X227669Y136436D01*
X228981D01*
X229637Y135780D01*
Y135124D01*
X228981Y134468D01*
X229637Y133812D01*
Y133156D01*
X228981Y132500D01*
X227669D01*
X227013Y133156D01*
Y133812D01*
X227669Y134468D01*
X227013Y135124D01*
Y135780D01*
X227669Y134468D02*
X228981D01*
X227424Y180280D02*
X226768Y180936D01*
X225456D01*
X224800Y180280D01*
Y177656D01*
X225456Y177000D01*
X226768D01*
X227424Y177656D01*
X231360Y177000D02*
X228736D01*
X231360Y179624D01*
Y180280D01*
X230704Y180936D01*
X229392D01*
X228736Y180280D01*
X232671Y180936D02*
X235295D01*
Y180280D01*
X232671Y177656D01*
Y177000D01*
X368765Y101725D02*
X368110Y102381D01*
X366798D01*
X366142Y101725D01*
Y99101D01*
X366798Y98445D01*
X368110D01*
X368765Y99101D01*
X372701Y98445D02*
X370077D01*
X372701Y101069D01*
Y101725D01*
X372045Y102381D01*
X370733D01*
X370077Y101725D01*
X376637Y102381D02*
X375325Y101725D01*
X374013Y100413D01*
Y99101D01*
X374669Y98445D01*
X375981D01*
X376637Y99101D01*
Y99757D01*
X375981Y100413D01*
X374013D01*
X231924Y356280D02*
X231268Y356936D01*
X229956D01*
X229300Y356280D01*
Y353656D01*
X229956Y353000D01*
X231268D01*
X231924Y353656D01*
X235860Y353000D02*
X233236D01*
X235860Y355624D01*
Y356280D01*
X235204Y356936D01*
X233892D01*
X233236Y356280D01*
X239795Y356936D02*
X237172D01*
Y354968D01*
X238483Y355624D01*
X239139D01*
X239795Y354968D01*
Y353656D01*
X239139Y353000D01*
X237827D01*
X237172Y353656D01*
X193720Y332124D02*
X193064Y331468D01*
Y330156D01*
X193720Y329500D01*
X196344D01*
X197000Y330156D01*
Y331468D01*
X196344Y332124D01*
X197000Y336060D02*
Y333436D01*
X194376Y336060D01*
X193720D01*
X193064Y335404D01*
Y334092D01*
X193720Y333436D01*
X197000Y339339D02*
X193064D01*
X195032Y337371D01*
Y339995D01*
X152144Y313122D02*
X151488Y313778D01*
X150176D01*
X149520Y313122D01*
Y310498D01*
X150176Y309842D01*
X151488D01*
X152144Y310498D01*
X156079Y309842D02*
X153455D01*
X156079Y312466D01*
Y313122D01*
X155423Y313778D01*
X154111D01*
X153455Y313122D01*
X157391D02*
X158047Y313778D01*
X159359D01*
X160015Y313122D01*
Y312466D01*
X159359Y311810D01*
X158703D01*
X159359D01*
X160015Y311154D01*
Y310498D01*
X159359Y309842D01*
X158047D01*
X157391Y310498D01*
X328922Y261215D02*
X329577Y261871D01*
Y263183D01*
X328922Y263839D01*
X326298D01*
X325642Y263183D01*
Y261871D01*
X326298Y261215D01*
X325642Y257279D02*
Y259903D01*
X328266Y257279D01*
X328922D01*
X329577Y257935D01*
Y259247D01*
X328922Y259903D01*
X325642Y253343D02*
Y255967D01*
X328266Y253343D01*
X328922D01*
X329577Y253999D01*
Y255311D01*
X328922Y255967D01*
X300671Y263792D02*
X300015Y264448D01*
X298703D01*
X298047Y263792D01*
Y261168D01*
X298703Y260512D01*
X300015D01*
X300671Y261168D01*
X304607Y260512D02*
X301983D01*
X304607Y263136D01*
Y263792D01*
X303951Y264448D01*
X302639D01*
X301983Y263792D01*
X305919Y260512D02*
X307231D01*
X306575D01*
Y264448D01*
X305919Y263792D01*
X370372Y272697D02*
X369716Y273353D01*
X368404D01*
X367748Y272697D01*
Y270073D01*
X368404Y269417D01*
X369716D01*
X370372Y270073D01*
X374308Y269417D02*
X371684D01*
X374308Y272041D01*
Y272697D01*
X373652Y273353D01*
X372340D01*
X371684Y272697D01*
X375620D02*
X376275Y273353D01*
X377587D01*
X378243Y272697D01*
Y270073D01*
X377587Y269417D01*
X376275D01*
X375620Y270073D01*
Y272697D01*
X292216Y360982D02*
X291560Y360326D01*
Y359014D01*
X292216Y358358D01*
X294840D01*
X295496Y359014D01*
Y360326D01*
X294840Y360982D01*
X295496Y362294D02*
Y363606D01*
Y362950D01*
X291560D01*
X292216Y362294D01*
X294840Y365574D02*
X295496Y366230D01*
Y367542D01*
X294840Y368198D01*
X292216D01*
X291560Y367542D01*
Y366230D01*
X292216Y365574D01*
X292872D01*
X293528Y366230D01*
Y368198D01*
X297673Y133393D02*
X297017Y132737D01*
Y131425D01*
X297673Y130769D01*
X300297D01*
X300953Y131425D01*
Y132737D01*
X300297Y133393D01*
X300953Y134705D02*
Y136017D01*
Y135361D01*
X297017D01*
X297673Y134705D01*
Y137985D02*
X297017Y138641D01*
Y139953D01*
X297673Y140609D01*
X298329D01*
X298985Y139953D01*
X299641Y140609D01*
X300297D01*
X300953Y139953D01*
Y138641D01*
X300297Y137985D01*
X299641D01*
X298985Y138641D01*
X298329Y137985D01*
X297673D01*
X298985Y138641D02*
Y139953D01*
X327071Y384902D02*
X326415Y385558D01*
X325103D01*
X324447Y384902D01*
Y382279D01*
X325103Y381623D01*
X326415D01*
X327071Y382279D01*
X328382Y381623D02*
X329694D01*
X329039D01*
Y385558D01*
X328382Y384902D01*
X334286Y385558D02*
X332974Y384902D01*
X331662Y383591D01*
Y382279D01*
X332318Y381623D01*
X333630D01*
X334286Y382279D01*
Y382934D01*
X333630Y383591D01*
X331662D01*
X313720Y409124D02*
X313064Y408468D01*
Y407156D01*
X313720Y406500D01*
X316344D01*
X317000Y407156D01*
Y408468D01*
X316344Y409124D01*
X317000Y410436D02*
Y411748D01*
Y411092D01*
X313064D01*
X313720Y410436D01*
Y413716D02*
X313064Y414371D01*
Y415683D01*
X313720Y416339D01*
X314376D01*
X315032Y415683D01*
Y415027D01*
Y415683D01*
X315688Y416339D01*
X316344D01*
X317000Y415683D01*
Y414371D01*
X316344Y413716D01*
X312564Y311679D02*
X311909Y311023D01*
Y309711D01*
X312564Y309055D01*
X315188D01*
X315844Y309711D01*
Y311023D01*
X315188Y311679D01*
X315844Y312991D02*
Y314303D01*
Y313647D01*
X311909D01*
X312564Y312991D01*
X315844Y318895D02*
Y316271D01*
X313220Y318895D01*
X312564D01*
X311909Y318238D01*
Y316927D01*
X312564Y316271D01*
X322362Y307624D02*
X321706Y306968D01*
Y305656D01*
X322362Y305000D01*
X324986D01*
X325642Y305656D01*
Y306968D01*
X324986Y307624D01*
X325642Y308936D02*
Y310248D01*
Y309592D01*
X321706D01*
X322362Y308936D01*
X325642Y312215D02*
Y313527D01*
Y312872D01*
X321706D01*
X322362Y312215D01*
X356866Y409833D02*
X356210Y410489D01*
X354898D01*
X354242Y409833D01*
Y407209D01*
X354898Y406554D01*
X356210D01*
X356866Y407209D01*
X358177Y406554D02*
X359489D01*
X358833D01*
Y410489D01*
X358177Y409833D01*
X361457D02*
X362113Y410489D01*
X363425D01*
X364081Y409833D01*
Y407209D01*
X363425Y406554D01*
X362113D01*
X361457Y407209D01*
Y409833D01*
X303362Y354022D02*
X302706Y353365D01*
Y352054D01*
X303362Y351398D01*
X305986D01*
X306642Y352054D01*
Y353365D01*
X305986Y354022D01*
Y355333D02*
X306642Y355989D01*
Y357301D01*
X305986Y357957D01*
X303362D01*
X302706Y357301D01*
Y355989D01*
X303362Y355333D01*
X304018D01*
X304674Y355989D01*
Y357957D01*
X390624Y367280D02*
X389968Y367936D01*
X388656D01*
X388000Y367280D01*
Y364656D01*
X388656Y364000D01*
X389968D01*
X390624Y364656D01*
X391936Y367280D02*
X392592Y367936D01*
X393904D01*
X394560Y367280D01*
Y366624D01*
X393904Y365968D01*
X394560Y365312D01*
Y364656D01*
X393904Y364000D01*
X392592D01*
X391936Y364656D01*
Y365312D01*
X392592Y365968D01*
X391936Y366624D01*
Y367280D01*
X392592Y365968D02*
X393904D01*
X399219Y148705D02*
X399875Y148048D01*
X401187D01*
X401842Y148705D01*
Y151328D01*
X401187Y151984D01*
X399875D01*
X399219Y151328D01*
X397907Y148048D02*
X395283D01*
Y148705D01*
X397907Y151328D01*
Y151984D01*
X184862Y362569D02*
X184206Y361913D01*
Y360601D01*
X184862Y359945D01*
X187486D01*
X188142Y360601D01*
Y361913D01*
X187486Y362569D01*
X184206Y366504D02*
X184862Y365193D01*
X186174Y363881D01*
X187486D01*
X188142Y364537D01*
Y365848D01*
X187486Y366504D01*
X186830D01*
X186174Y365848D01*
Y363881D01*
X134720Y353124D02*
X134064Y352468D01*
Y351156D01*
X134720Y350500D01*
X137344D01*
X138000Y351156D01*
Y352468D01*
X137344Y353124D01*
X134064Y357060D02*
Y354436D01*
X136032D01*
X135376Y355748D01*
Y356404D01*
X136032Y357060D01*
X137344D01*
X138000Y356404D01*
Y355092D01*
X137344Y354436D01*
X80720Y361124D02*
X80064Y360468D01*
Y359156D01*
X80720Y358500D01*
X83344D01*
X84000Y359156D01*
Y360468D01*
X83344Y361124D01*
X84000Y364404D02*
X80064D01*
X82032Y362436D01*
Y365060D01*
X372124Y223680D02*
X371468Y224336D01*
X370156D01*
X369500Y223680D01*
Y221056D01*
X370156Y220400D01*
X371468D01*
X372124Y221056D01*
X373436Y223680D02*
X374092Y224336D01*
X375404D01*
X376060Y223680D01*
Y223024D01*
X375404Y222368D01*
X374748D01*
X375404D01*
X376060Y221712D01*
Y221056D01*
X375404Y220400D01*
X374092D01*
X373436Y221056D01*
X403720Y213624D02*
X403064Y212968D01*
Y211656D01*
X403720Y211000D01*
X406344D01*
X407000Y211656D01*
Y212968D01*
X406344Y213624D01*
X407000Y217560D02*
Y214936D01*
X404376Y217560D01*
X403720D01*
X403064Y216904D01*
Y215592D01*
X403720Y214936D01*
X293424Y217080D02*
X292768Y217736D01*
X291456D01*
X290800Y217080D01*
Y214456D01*
X291456Y213800D01*
X292768D01*
X293424Y214456D01*
X294736Y213800D02*
X296048D01*
X295392D01*
Y217736D01*
X294736Y217080D01*
X337037Y169780D02*
X336381Y170436D01*
X335069D01*
X334413Y169780D01*
Y167156D01*
X335069Y166500D01*
X336381D01*
X337037Y167156D01*
X338349Y169780D02*
X339005Y170436D01*
X340317D01*
X340972Y169780D01*
Y167156D01*
X340317Y166500D01*
X339005D01*
X338349Y167156D01*
Y169780D01*
X275789Y283339D02*
X279724D01*
Y285307D01*
X279068Y285963D01*
X278413D01*
X277757Y285307D01*
Y283339D01*
Y285307D01*
X277101Y285963D01*
X276445D01*
X275789Y285307D01*
Y283339D01*
X276445Y287274D02*
X275789Y287930D01*
Y289242D01*
X276445Y289898D01*
X279068D01*
X279724Y289242D01*
Y287930D01*
X279068Y287274D01*
X276445D01*
D16*
X226181Y113999D02*
Y116814D01*
Y113999D02*
X228346D01*
X236221D02*
X238386D01*
Y116814D01*
X176705Y403335D02*
X184579D01*
X175327Y386209D02*
X185957D01*
Y406681D01*
X175327D02*
X185957D01*
X175327Y386209D02*
Y406681D01*
X126205Y402335D02*
X134079D01*
X124827Y385209D02*
X135457D01*
Y405681D01*
X124827D02*
X135457D01*
X124827Y385209D02*
Y405681D01*
X311902Y413957D02*
Y432972D01*
X310071Y413957D02*
X311902D01*
X310071D02*
Y415571D01*
X276213D02*
X310071D01*
X276213Y413957D02*
Y415571D01*
X274382Y413957D02*
X276213D01*
X274382D02*
Y432972D01*
X311902D01*
X356902Y413957D02*
Y432972D01*
X355071Y413957D02*
X356902D01*
X355071D02*
Y415571D01*
X321213D02*
X355071D01*
X321213Y413957D02*
Y415571D01*
X319382Y413957D02*
X321213D01*
X319382D02*
Y432972D01*
X356902D01*
X373039Y383445D02*
Y386260D01*
X375205D01*
X383079D02*
X385244D01*
Y383445D02*
Y386260D01*
X363642Y390480D02*
X366457D01*
Y388315D02*
Y390480D01*
Y378276D02*
Y380441D01*
X363642Y378276D02*
X366457D01*
X107142Y366945D02*
X110291D01*
X379504Y212402D02*
Y215216D01*
X381669D01*
X389543D02*
X391709D01*
Y212402D02*
Y215216D01*
X394787Y175350D02*
Y190705D01*
X375496Y175350D02*
Y190705D01*
X353827Y206343D02*
X356642D01*
X353827D02*
Y208508D01*
Y216382D02*
Y218547D01*
X356642D01*
X209579Y111988D02*
X212394D01*
Y109823D02*
Y111988D01*
Y99783D02*
Y101949D01*
X209579Y99783D02*
X212394D01*
X198890Y83602D02*
X201705D01*
X198890D02*
Y85768D01*
Y93642D02*
Y95807D01*
X201705D01*
X197744Y98870D02*
Y101685D01*
X195579Y98870D02*
X197744D01*
X185539D02*
X187705D01*
X185539D02*
Y101685D01*
X240520Y116555D02*
Y119370D01*
X242685D01*
X250559D02*
X252724D01*
Y116555D02*
Y119370D01*
X319142Y144945D02*
X369142D01*
Y154945D01*
X319142D02*
X369142D01*
X319142Y144945D02*
Y154945D01*
X129147Y228445D02*
Y231594D01*
X249945Y206291D02*
Y212591D01*
X200339Y206291D02*
X249945D01*
X200339D02*
Y212591D01*
X142453Y263768D02*
X144421D01*
Y279122D01*
X143437D02*
X144421D01*
X116862Y263768D02*
X118831D01*
X116862D02*
Y279122D01*
X117847D01*
X373055Y108090D02*
X375870D01*
X373055D02*
Y110256D01*
Y118130D02*
Y120295D01*
X375870D01*
X228807Y94557D02*
X231622D01*
X228807D02*
Y96722D01*
Y104596D02*
Y106762D01*
X231622D01*
X344039Y111545D02*
Y114360D01*
X346205D01*
X354079D02*
X356244D01*
Y111545D02*
Y114360D01*
X150492Y276898D02*
X153642D01*
X323965Y325799D02*
X339319D01*
X323965Y345091D02*
X339319D01*
X327465Y355252D02*
X342819D01*
X327465Y374543D02*
X342819D01*
X297965Y397091D02*
X313319D01*
X297965Y377799D02*
X313319D01*
X201913Y343567D02*
Y346382D01*
Y343567D02*
X204079D01*
X211953D02*
X214118D01*
Y346382D01*
X224205Y367323D02*
X227020D01*
X224205Y365158D02*
Y367323D01*
Y355118D02*
Y357283D01*
Y355118D02*
X227020D01*
X215035Y366721D02*
X218185D01*
X199890Y368835D02*
X202705D01*
X199890Y366669D02*
Y368835D01*
Y356630D02*
Y358795D01*
Y356630D02*
X202705D01*
X149555Y344083D02*
Y346898D01*
Y344083D02*
X151720D01*
X159595D02*
X161760D01*
Y346898D01*
X93327Y368047D02*
X96142D01*
X93327Y365882D02*
Y368047D01*
Y355842D02*
Y358008D01*
Y355842D02*
X96142D01*
X91539Y344567D02*
Y347382D01*
Y344567D02*
X93705D01*
X101579D02*
X103744D01*
Y347382D01*
X120264Y369047D02*
X123079D01*
X120264Y366882D02*
Y369047D01*
Y356842D02*
Y359008D01*
Y356842D02*
X123079D01*
X332142Y108006D02*
X334957D01*
Y110171D01*
Y118045D02*
Y120211D01*
X332142D02*
X334957D01*
X326299Y79793D02*
Y82608D01*
Y79793D02*
X328465D01*
X336339D02*
X338504D01*
Y82608D01*
X206642Y190445D02*
Y200445D01*
X156642Y190445D02*
X206642D01*
X156642D02*
Y200445D01*
X206642D01*
X99465Y227165D02*
Y228150D01*
Y227165D02*
X114819D01*
Y229134D01*
X99465Y253740D02*
Y254724D01*
X114819D01*
Y252756D02*
Y254724D01*
X108134Y272358D02*
Y286531D01*
X102228Y266453D02*
X108134Y272358D01*
X82150Y266453D02*
X102228D01*
Y292437D02*
X108134Y286531D01*
X82150Y292437D02*
X102228D01*
X82150Y266453D02*
Y292437D01*
X147264Y368047D02*
X150079D01*
X147264Y365882D02*
Y368047D01*
Y355842D02*
Y358008D01*
Y355842D02*
X150079D01*
X229827Y385209D02*
Y405681D01*
X240457D01*
Y385209D02*
Y405681D01*
X229827Y385209D02*
X240457D01*
X231205Y402335D02*
X239079D01*
X159142Y366721D02*
X162291D01*
X168827Y368835D02*
X171642D01*
X168827Y366669D02*
Y368835D01*
Y356630D02*
Y358795D01*
Y356630D02*
X171642D01*
D17*
X93370Y372047D02*
Y431103D01*
X122898D01*
Y372047D02*
Y431103D01*
X93370Y372047D02*
X122898D01*
X192035Y371157D02*
Y430213D01*
X221563D01*
Y371157D02*
Y430213D01*
X192035Y371157D02*
X221563D01*
X143831Y370417D02*
X173359D01*
Y429473D01*
X143831D02*
X173359D01*
X143831Y370417D02*
Y429473D01*
X108642Y337850D02*
Y340350D01*
X109891D01*
X110308Y339933D01*
Y339100D01*
X109891Y338684D01*
X108642D01*
X109475D02*
X110308Y337850D01*
X111141Y338267D02*
X111557Y337850D01*
X112390D01*
X112807Y338267D01*
Y339933D01*
X112390Y340350D01*
X111557D01*
X111141Y339933D01*
Y339516D01*
X111557Y339100D01*
X112807D01*
X115306Y340350D02*
X113640D01*
Y339100D01*
X114473Y339516D01*
X114890D01*
X115306Y339100D01*
Y338267D01*
X114890Y337850D01*
X114057D01*
X113640Y338267D01*
D18*
X225707Y85881D02*
X223083D01*
Y81945D01*
X225707D01*
X223083Y83913D02*
X224395D01*
X227018Y81945D02*
Y85881D01*
X229642Y81945D01*
Y85881D01*
X230954Y81945D02*
Y84569D01*
X232266Y85881D01*
X233578Y84569D01*
Y81945D01*
Y83913D01*
X230954D01*
X234890Y85881D02*
Y81945D01*
X236858D01*
X237514Y82601D01*
Y83257D01*
X236858Y83913D01*
X234890D01*
X236858D01*
X237514Y84569D01*
Y85225D01*
X236858Y85881D01*
X234890D01*
X238826D02*
Y81945D01*
X241449D01*
X245385Y85881D02*
X242761D01*
Y81945D01*
X245385D01*
X242761Y83913D02*
X244073D01*
X249321Y85225D02*
X248665Y85881D01*
X247353D01*
X246697Y85225D01*
Y84569D01*
X247353Y83913D01*
X248665D01*
X249321Y83257D01*
Y82601D01*
X248665Y81945D01*
X247353D01*
X246697Y82601D01*
M02*
