M48
;Layer_Color=9474304
;FILE_FORMAT=2:5
INCH,LZ
;TYPE=PLATED
T1F00S00C0.01181
T2F00S00C0.02362
T3F00S00C0.03150
T4F00S00C0.03543
T5F00S00C0.04016
T6F00S00C0.11811
%
T01
X0141732Y0122047
X0149606Y0145409
X0169291Y0133965
X0197642Y0137795
X0203642Y0155945
X0220472Y0125795
X0248142Y0127142
X0253935Y013327
X0246642Y0142445
X0254142Y0151445
X0253142Y0102146
X0250362Y0090519
X0238142Y0110236
X0181646Y0093945
X0341142Y0126945
X0350642Y0128945
X0340413Y016435
X0327474Y0158945
X0322642Y0162945
X0322Y0180279
X0322642Y0183898
X0325524Y0178869
X0331689Y0180685
X03355Y0178626
X0352642Y0186965
Y0198776
X0341142Y0212445
X0332106Y0216339
X033252Y0220472
X0329142Y0213945
X0326642Y0195445
X0321539Y0194945
X0317913Y0193996
X0315354Y0229945
X0351969Y0236356
X0377165Y0230709
X0392642Y0198776
Y0162445
X0370142Y0179189
X0361642Y0182445
X0377917Y029413
X0250642Y0296445
X0238142Y0276718
Y0229945
Y0202362
X0213516Y0198776
X0217642Y0177445
X0216535Y0169291
X0203142Y0166445
X0194642Y0156445
X0174353Y0179823
X0240551Y0169291
X0278346Y0172835
X0288189Y0165354
X0295642Y0191945
X0295606Y0205945
X0299213Y0208177
X0278716Y0229945
X0271142Y0183445
X0188976Y0271654
X01395Y0287209
Y0299
X0130642Y0252969
X0090551Y0236221
X0102142Y0202445
X010425Y0191409
X0098425Y0178945
X0091642Y01815
X0084642Y0181
X0148642Y0158445
X0077642Y0271945
X0092142Y0338445
X0114173Y0348445
X0124689Y0343992
X0134642Y0338445
X0153642Y0362205
X0153955Y0375084
X0121862Y0371571
X0108642Y0370008
X0074642Y0376445
X0075736Y0357606
X01585Y0374945
X0158736Y0387382
X0161736Y0340445
X0173642Y0339445
X0184642Y0345445
X0169642Y0320445
X0156642Y0324945
X0208642Y0325445
X0207543Y0366472
X0203705Y0377382
X0219142Y0422882
X0270079Y0397929
X0278716Y0390976
X0288445Y0400945
X0301Y03875
X0304334Y038699
X0308642Y0374571
X0310221Y0364398
X0274016Y0369291
X0331689Y0372398
X0332642Y0361945
X0336004Y0350394
X0325642Y0350945
X0326Y0338098
X0331142Y0332945
X0320142Y0314445
X0349606Y0315748
X0356842Y0343992
X0352Y0350945
X0371661Y0344492
X0389135Y0374945
X0379142Y0392358
X0349642Y0399945
X0320142Y0398445
X0325142Y0379945
T02
X0098134Y0376575
Y0396575
Y0406575
Y0416575
X0118134
Y0406575
Y0396575
Y0376575
X0148594Y0374945
Y0394945
Y0404945
Y0414945
X0168595
Y0404945
Y0394945
Y0374945
X0196799Y0375685
Y0395685
Y0405685
Y0415685
X0216799
Y0405685
Y0395685
Y0375685
X0283142Y0423445
X0293142
X0303142
X0328142
X0338142
X0348142
T03
X0244142Y0126445
X0249142Y0133945
X0241142Y0140969
X0225142Y0227945
Y0287
X0164642Y0219225
X0138142Y0372445
X0084642Y0370445
X0183642Y0363398
X0238142Y0313945
X0261642Y0424945
X0366142Y0421945
T04
X0130142Y037576
Y041513
X0180642Y041613
Y037676
X0235142Y037576
Y041513
T05
X0324142Y0149945
X0334142
X0344142
X0354142
X0364142
X0201642Y0195445
X0191642
X0181642
X0171642
X0161642
T06
X007874Y0070866
X0413386
Y0307087
X0055118Y0318898
M30
