G04*
G04 #@! TF.GenerationSoftware,Altium Limited,Altium Designer,19.0.14 (431)*
G04*
G04 Layer_Physical_Order=2*
G04 Layer_Color=16711680*
%FSLAX25Y25*%
%MOIN*%
G70*
G01*
G75*
%ADD13C,0.01000*%
%ADD82C,0.03543*%
%ADD83C,0.04724*%
%ADD84C,0.05906*%
%ADD85C,0.18307*%
%ADD86C,0.03543*%
%ADD87C,0.03937*%
%ADD88C,0.02362*%
G36*
X231943Y416690D02*
X231680Y416057D01*
X231558Y415130D01*
X231680Y414202D01*
X231958Y413532D01*
X228996Y410570D01*
X220563D01*
X220563Y410570D01*
X220349Y410528D01*
X220102Y410989D01*
X226205Y417091D01*
X231409D01*
X231410Y417091D01*
X231591Y417127D01*
X231943Y416690D01*
D02*
G37*
G36*
X430000Y41500D02*
X44500D01*
Y171000D01*
X43000Y172500D01*
X43500Y173000D01*
X126500D01*
Y187323D01*
X146177D01*
X182849Y150652D01*
X182849Y150652D01*
X183212Y150409D01*
X183642Y150323D01*
X252749D01*
X252858Y150161D01*
X253447Y149767D01*
X254142Y149629D01*
X254837Y149767D01*
X255426Y150161D01*
X255820Y150750D01*
X255958Y151445D01*
X255820Y152140D01*
X255426Y152729D01*
X254837Y153123D01*
X254142Y153261D01*
X253447Y153123D01*
X252858Y152729D01*
X252749Y152566D01*
X184106D01*
X147435Y189238D01*
X147071Y189481D01*
X146642Y189566D01*
X146642Y189566D01*
X126500D01*
Y222500D01*
X125500Y223500D01*
X126500Y224500D01*
X91673D01*
Y234828D01*
X91835Y234936D01*
X92229Y235525D01*
X92367Y236221D01*
X92229Y236915D01*
X91835Y237505D01*
X91246Y237898D01*
X90551Y238036D01*
X89856Y237898D01*
X89267Y237505D01*
X88873Y236915D01*
X88735Y236221D01*
X88873Y235525D01*
X89267Y234936D01*
X89430Y234828D01*
Y224500D01*
X83000D01*
X81000Y226500D01*
Y237642D01*
X74142Y244500D01*
X43000D01*
Y432058D01*
X235015D01*
X235207Y431596D01*
X227614Y424003D01*
X220534D01*
X220426Y424166D01*
X219837Y424560D01*
X219142Y424698D01*
X218447Y424560D01*
X217858Y424166D01*
X217749Y424003D01*
X122823D01*
X122394Y423918D01*
X122030Y423675D01*
X122030Y423675D01*
X117341Y418986D01*
X117312Y418983D01*
X112620Y423675D01*
X112256Y423918D01*
X111827Y424003D01*
X111827Y424003D01*
X96110D01*
X96110Y424003D01*
X95681Y423918D01*
X95317Y423675D01*
X95317Y423675D01*
X59849Y388206D01*
X59606Y387843D01*
X59520Y387413D01*
X59520Y387413D01*
Y351398D01*
X59520Y351398D01*
X59606Y350968D01*
X59849Y350605D01*
X76520Y333933D01*
Y273338D01*
X76358Y273229D01*
X75964Y272640D01*
X75826Y271945D01*
X75964Y271250D01*
X76358Y270661D01*
X76947Y270267D01*
X77642Y270129D01*
X78337Y270267D01*
X78926Y270661D01*
X79320Y271250D01*
X79458Y271945D01*
X79320Y272640D01*
X78926Y273229D01*
X78763Y273338D01*
Y334398D01*
X78763Y334398D01*
X78678Y334827D01*
X78435Y335191D01*
X61763Y351862D01*
Y386949D01*
X96575Y421760D01*
X111362D01*
X115854Y417269D01*
X115716Y416575D01*
X115900Y415650D01*
X116424Y414865D01*
X117209Y414341D01*
X118134Y414157D01*
X119059Y414341D01*
X119844Y414865D01*
X120368Y415650D01*
X120552Y416575D01*
X120368Y417500D01*
X119844Y418285D01*
X119841Y418314D01*
X123287Y421760D01*
X169903D01*
X170094Y421298D01*
X167801Y419006D01*
X167558Y418642D01*
X167473Y418213D01*
X167473Y418213D01*
Y417048D01*
X166885Y416655D01*
X166361Y415870D01*
X166176Y414945D01*
X166361Y414020D01*
X166885Y413235D01*
X167669Y412711D01*
X168595Y412527D01*
X169520Y412711D01*
X170304Y413235D01*
X170828Y414020D01*
X171012Y414945D01*
X170828Y415870D01*
X170304Y416655D01*
X169716Y417048D01*
Y417748D01*
X173728Y421760D01*
X216556D01*
X216748Y421298D01*
X216006Y420557D01*
X215763Y420193D01*
X215678Y419764D01*
X215678Y419764D01*
Y417788D01*
X215089Y417395D01*
X214565Y416610D01*
X214381Y415685D01*
X214565Y414760D01*
X215089Y413975D01*
X215874Y413451D01*
X216799Y413267D01*
X217724Y413451D01*
X218509Y413975D01*
X219033Y414760D01*
X219217Y415685D01*
X219033Y416610D01*
X218509Y417395D01*
X217921Y417788D01*
Y419299D01*
X219823Y421201D01*
X219837Y421204D01*
X220426Y421598D01*
X220534Y421760D01*
X228079D01*
X228079Y421760D01*
X228508Y421846D01*
X228872Y422089D01*
X237161Y430378D01*
X238841D01*
X239048Y429878D01*
X237349Y428179D01*
X237105Y427815D01*
X237020Y427386D01*
X237020Y427386D01*
Y425409D01*
X230945Y419334D01*
X225740D01*
X225740Y419334D01*
X225311Y419249D01*
X224947Y419006D01*
X224947Y419006D01*
X216512Y410570D01*
X212598D01*
X212169Y410485D01*
X211805Y410242D01*
X211805Y410242D01*
X207868Y406305D01*
X207625Y405941D01*
X207540Y405512D01*
X207540Y405512D01*
Y398102D01*
X200323Y390885D01*
X166406D01*
X166405Y390885D01*
X165976Y390800D01*
X165612Y390557D01*
X165612Y390557D01*
X163559Y388503D01*
X160129D01*
X160020Y388666D01*
X159431Y389060D01*
X158736Y389198D01*
X158041Y389060D01*
X157452Y388666D01*
X157059Y388077D01*
X156920Y387382D01*
X157059Y386687D01*
X157452Y386098D01*
X158041Y385704D01*
X158736Y385566D01*
X159431Y385704D01*
X160020Y386098D01*
X160129Y386260D01*
X164024D01*
X164024Y386260D01*
X164453Y386346D01*
X164817Y386589D01*
X166870Y388642D01*
X200787D01*
X200787Y388642D01*
X201217Y388728D01*
X201581Y388971D01*
X209454Y396845D01*
X209454Y396845D01*
X209698Y397209D01*
X209783Y397638D01*
X209783Y397638D01*
Y405047D01*
X213063Y408327D01*
X215585D01*
X215737Y407827D01*
X215089Y407395D01*
X214565Y406610D01*
X214381Y405685D01*
X214565Y404760D01*
X215089Y403975D01*
X215678Y403582D01*
Y397788D01*
X215089Y397395D01*
X214565Y396610D01*
X214381Y395685D01*
X214565Y394760D01*
X215089Y393975D01*
X215678Y393582D01*
Y377788D01*
X215089Y377395D01*
X214565Y376610D01*
X214381Y375685D01*
X214565Y374760D01*
X215060Y374019D01*
X214941Y373519D01*
X200551D01*
X199079Y374991D01*
X199217Y375685D01*
X199033Y376610D01*
X198509Y377395D01*
X197724Y377919D01*
X196799Y378103D01*
X195874Y377919D01*
X195089Y377395D01*
X194565Y376610D01*
X194381Y375685D01*
X194565Y374760D01*
X195089Y373975D01*
X195874Y373451D01*
X196799Y373267D01*
X197493Y373405D01*
X199293Y371605D01*
X199294Y371605D01*
X199657Y371361D01*
X200087Y371276D01*
X200087Y371276D01*
X231780D01*
X231780Y371276D01*
X232209Y371361D01*
X232573Y371605D01*
X233544Y372576D01*
X234214Y372299D01*
X235142Y372176D01*
X236069Y372299D01*
X236933Y372656D01*
X237676Y373226D01*
X238245Y373968D01*
X238603Y374832D01*
X238725Y375760D01*
X238603Y376687D01*
X238245Y377552D01*
X237676Y378294D01*
X236933Y378863D01*
X236069Y379221D01*
X235142Y379343D01*
X234214Y379221D01*
X233350Y378863D01*
X232608Y378294D01*
X232038Y377552D01*
X231680Y376687D01*
X231558Y375760D01*
X231680Y374832D01*
X231958Y374162D01*
X231315Y373519D01*
X218658D01*
X218538Y374019D01*
X219033Y374760D01*
X219217Y375685D01*
X219033Y376610D01*
X218509Y377395D01*
X217921Y377788D01*
Y393582D01*
X218509Y393975D01*
X219033Y394760D01*
X219217Y395685D01*
X219033Y396610D01*
X218509Y397395D01*
X217921Y397788D01*
Y403582D01*
X218509Y403975D01*
X219033Y404760D01*
X219217Y405685D01*
X219079Y406379D01*
X221028Y408327D01*
X229461D01*
X229461Y408327D01*
X229890Y408413D01*
X230254Y408656D01*
X233544Y411946D01*
X234214Y411669D01*
X235142Y411547D01*
X236069Y411669D01*
X236933Y412027D01*
X237676Y412596D01*
X238245Y413338D01*
X238603Y414202D01*
X238725Y415130D01*
X238603Y416057D01*
X238245Y416922D01*
X237676Y417664D01*
X236933Y418233D01*
X236069Y418591D01*
X235142Y418713D01*
X234214Y418591D01*
X233987Y418497D01*
X233704Y418921D01*
X238935Y424152D01*
X238935Y424152D01*
X239178Y424516D01*
X239263Y424945D01*
X239263Y424945D01*
Y426921D01*
X240721Y428378D01*
X261197D01*
X261230Y427878D01*
X260868Y427831D01*
X260148Y427532D01*
X259529Y427058D01*
X259054Y426439D01*
X258756Y425718D01*
X258654Y424945D01*
X258756Y424172D01*
X259054Y423451D01*
X259529Y422832D01*
X260148Y422357D01*
X260868Y422059D01*
X261642Y421957D01*
X262415Y422059D01*
X263136Y422357D01*
X263754Y422832D01*
X264229Y423451D01*
X264528Y424172D01*
X264630Y424945D01*
X264528Y425718D01*
X264229Y426439D01*
X263754Y427058D01*
X263136Y427532D01*
X262415Y427831D01*
X262053Y427878D01*
X262086Y428378D01*
X304880D01*
X305032Y427878D01*
X304904Y427793D01*
X304904Y427793D01*
X302932Y425821D01*
X302216Y425679D01*
X301432Y425155D01*
X300908Y424370D01*
X300724Y423445D01*
X300908Y422519D01*
X301432Y421735D01*
X302216Y421211D01*
X303142Y421027D01*
X304067Y421211D01*
X304500Y421500D01*
X319020Y406980D01*
Y399838D01*
X318858Y399729D01*
X318464Y399140D01*
X318326Y398445D01*
X318464Y397750D01*
X318858Y397161D01*
X319447Y396767D01*
X320142Y396629D01*
X320837Y396767D01*
X321426Y397161D01*
X321819Y397750D01*
X321958Y398445D01*
X321819Y399140D01*
X321426Y399729D01*
X321263Y399838D01*
Y407445D01*
X321263Y407445D01*
X321178Y407874D01*
X320935Y408238D01*
X305518Y423655D01*
X305376Y424370D01*
X305086Y424803D01*
X306161Y425878D01*
X325939D01*
X326095Y425563D01*
X326132Y425378D01*
X325721Y424843D01*
X325441Y424168D01*
X325412Y423945D01*
X328142D01*
X330872D01*
X330842Y424168D01*
X330563Y424843D01*
X330152Y425378D01*
X330188Y425563D01*
X330345Y425878D01*
X336615D01*
X336767Y425378D01*
X336432Y425155D01*
X335908Y424370D01*
X335724Y423445D01*
X335908Y422519D01*
X336432Y421735D01*
X337020Y421342D01*
Y410409D01*
X327349Y400738D01*
X327105Y400374D01*
X327020Y399945D01*
X327020Y399945D01*
Y383410D01*
X325333Y381723D01*
X325142Y381761D01*
X324447Y381623D01*
X323858Y381229D01*
X323464Y380640D01*
X323326Y379945D01*
X323464Y379250D01*
X323858Y378661D01*
X324447Y378267D01*
X325142Y378129D01*
X325837Y378267D01*
X326426Y378661D01*
X326819Y379250D01*
X326958Y379945D01*
X326920Y380137D01*
X328935Y382152D01*
X329178Y382516D01*
X329263Y382945D01*
X329263Y382945D01*
Y399480D01*
X338935Y409152D01*
X338935Y409152D01*
X339178Y409516D01*
X339263Y409945D01*
X339263Y409945D01*
Y421342D01*
X339852Y421735D01*
X340376Y422519D01*
X340560Y423445D01*
X340376Y424370D01*
X339852Y425155D01*
X339517Y425378D01*
X339668Y425878D01*
X340535D01*
X343762Y422652D01*
X343762Y422652D01*
X344126Y422409D01*
X344555Y422323D01*
X344555Y422323D01*
X346039D01*
X346432Y421735D01*
X347020Y421342D01*
Y406445D01*
X347020Y406445D01*
X347106Y406016D01*
X347349Y405652D01*
X348520Y404480D01*
Y401338D01*
X348358Y401229D01*
X347964Y400640D01*
X347826Y399945D01*
X347964Y399250D01*
X348358Y398661D01*
X348947Y398267D01*
X349642Y398129D01*
X350337Y398267D01*
X350926Y398661D01*
X351320Y399250D01*
X351458Y399945D01*
X351320Y400640D01*
X350926Y401229D01*
X350763Y401338D01*
Y404945D01*
X350763Y404945D01*
X350678Y405374D01*
X350435Y405738D01*
X349263Y406910D01*
Y421342D01*
X349852Y421735D01*
X350376Y422519D01*
X350560Y423445D01*
X350376Y424370D01*
X349852Y425155D01*
X349067Y425679D01*
X348142Y425863D01*
X347216Y425679D01*
X346432Y425155D01*
X346039Y424566D01*
X345020D01*
X341793Y427793D01*
X341665Y427878D01*
X341817Y428378D01*
X350035D01*
X351207Y427207D01*
X351571Y426964D01*
X352000Y426878D01*
X352000Y426878D01*
X366535D01*
X378020Y415394D01*
Y393751D01*
X377858Y393642D01*
X377464Y393053D01*
X377326Y392358D01*
X377464Y391663D01*
X377858Y391074D01*
X378447Y390681D01*
X379142Y390542D01*
X379837Y390681D01*
X380426Y391074D01*
X380820Y391663D01*
X380958Y392358D01*
X380820Y393053D01*
X380426Y393642D01*
X380263Y393751D01*
Y415858D01*
X380263Y415858D01*
X380178Y416288D01*
X379935Y416651D01*
X367793Y428793D01*
X367429Y429036D01*
X367000Y429122D01*
X367000Y429122D01*
X352465D01*
X351708Y429878D01*
X351915Y430378D01*
X368122D01*
X382520Y415980D01*
Y384945D01*
X382520Y384945D01*
X382606Y384516D01*
X382849Y384152D01*
X388014Y378987D01*
Y376338D01*
X387851Y376229D01*
X387457Y375640D01*
X387319Y374945D01*
X387457Y374250D01*
X387851Y373661D01*
X388440Y373267D01*
X389135Y373129D01*
X389830Y373267D01*
X390419Y373661D01*
X390813Y374250D01*
X390951Y374945D01*
X390813Y375640D01*
X390419Y376229D01*
X390257Y376338D01*
Y379451D01*
X390257Y379451D01*
X390171Y379881D01*
X389928Y380245D01*
X384763Y385409D01*
Y416445D01*
X384678Y416874D01*
X384435Y417238D01*
X384435Y417238D01*
X370077Y431596D01*
X370268Y432058D01*
X430000D01*
Y41500D01*
D02*
G37*
G36*
X77520Y239480D02*
Y237742D01*
X80000Y235262D01*
Y226500D01*
X83000Y223500D01*
X89430D01*
Y205035D01*
X89430Y205035D01*
X89515Y204606D01*
X89758Y204242D01*
X102460Y191540D01*
X102434Y191409D01*
X102572Y190714D01*
X102966Y190125D01*
X103128Y190016D01*
Y183455D01*
X99885Y180212D01*
X99709Y180229D01*
X99120Y180623D01*
X98425Y180761D01*
X97730Y180623D01*
X97141Y180229D01*
X96747Y179640D01*
X96609Y178945D01*
X96747Y178250D01*
X97141Y177661D01*
X97730Y177267D01*
X98425Y177129D01*
X99120Y177267D01*
X99709Y177661D01*
X99818Y177823D01*
X100205D01*
X100205Y177823D01*
X100634Y177909D01*
X100998Y178152D01*
X105043Y182197D01*
X105286Y182561D01*
X105372Y182990D01*
X105372Y182990D01*
Y190016D01*
X105534Y190125D01*
X105928Y190714D01*
X106066Y191409D01*
X105928Y192104D01*
X105534Y192693D01*
X104945Y193087D01*
X104250Y193225D01*
X103998Y193175D01*
X91673Y205500D01*
Y223500D01*
X124375D01*
X124792Y223298D01*
Y189566D01*
X116606D01*
X103920Y202253D01*
X103958Y202445D01*
X103820Y203140D01*
X103426Y203729D01*
X102837Y204123D01*
X102142Y204261D01*
X101447Y204123D01*
X100858Y203729D01*
X100464Y203140D01*
X100326Y202445D01*
X100464Y201750D01*
X100858Y201161D01*
X101447Y200767D01*
X102142Y200629D01*
X102333Y200667D01*
X115349Y187652D01*
X115712Y187409D01*
X116142Y187323D01*
X116142Y187323D01*
X124792D01*
Y175500D01*
X41463D01*
X41463Y175500D01*
X40819Y176144D01*
Y243500D01*
X73500D01*
X73500Y243500D01*
X77520Y239480D01*
D02*
G37*
%LPC*%
G36*
X283642Y426175D02*
Y423945D01*
X285872D01*
X285842Y424168D01*
X285563Y424843D01*
X285119Y425422D01*
X284540Y425866D01*
X283865Y426145D01*
X283642Y426175D01*
D02*
G37*
G36*
X282642D02*
X282418Y426145D01*
X281744Y425866D01*
X281165Y425422D01*
X280721Y424843D01*
X280441Y424168D01*
X280412Y423945D01*
X282642D01*
Y426175D01*
D02*
G37*
G36*
X327642Y422945D02*
X325412D01*
X325441Y422721D01*
X325721Y422047D01*
X326165Y421468D01*
X326744Y421024D01*
X327418Y420745D01*
X327642Y420715D01*
Y422945D01*
D02*
G37*
G36*
X282642D02*
X280412D01*
X280441Y422721D01*
X280721Y422047D01*
X281165Y421468D01*
X281744Y421024D01*
X282418Y420745D01*
X282642Y420715D01*
Y422945D01*
D02*
G37*
G36*
X330872D02*
X328642D01*
Y420715D01*
X328865Y420745D01*
X329539Y421024D01*
X330118Y421468D01*
X330563Y422047D01*
X330842Y422721D01*
X330872Y422945D01*
D02*
G37*
G36*
X285872D02*
X283642D01*
Y420715D01*
X283865Y420745D01*
X284540Y421024D01*
X285119Y421468D01*
X285563Y422047D01*
X285842Y422721D01*
X285872Y422945D01*
D02*
G37*
G36*
X366142Y424933D02*
X365368Y424831D01*
X364648Y424532D01*
X364029Y424057D01*
X363554Y423439D01*
X363256Y422718D01*
X363154Y421945D01*
X363256Y421172D01*
X363554Y420451D01*
X364029Y419832D01*
X364648Y419357D01*
X365368Y419059D01*
X366142Y418957D01*
X366915Y419059D01*
X367636Y419357D01*
X368254Y419832D01*
X368729Y420451D01*
X369028Y421172D01*
X369129Y421945D01*
X369028Y422718D01*
X368729Y423439D01*
X368254Y424057D01*
X367636Y424532D01*
X366915Y424831D01*
X366142Y424933D01*
D02*
G37*
G36*
X98134Y418993D02*
X97209Y418809D01*
X96424Y418285D01*
X95900Y417500D01*
X95716Y416575D01*
X95900Y415650D01*
X95960Y415560D01*
X90642Y410242D01*
X90399Y409878D01*
X90313Y409449D01*
X90313Y409449D01*
Y393703D01*
X74834Y378223D01*
X74642Y378261D01*
X73947Y378123D01*
X73358Y377729D01*
X72964Y377140D01*
X72826Y376445D01*
X72964Y375750D01*
X73358Y375161D01*
X73947Y374767D01*
X74642Y374629D01*
X75337Y374767D01*
X75926Y375161D01*
X76319Y375750D01*
X76458Y376445D01*
X76420Y376637D01*
X92228Y392445D01*
X92228Y392445D01*
X92471Y392809D01*
X92556Y393238D01*
Y408984D01*
X97796Y414224D01*
X98134Y414157D01*
X99059Y414341D01*
X99844Y414865D01*
X100368Y415650D01*
X100552Y416575D01*
X100368Y417500D01*
X99844Y418285D01*
X99059Y418809D01*
X98134Y418993D01*
D02*
G37*
G36*
X196799Y418103D02*
X195874Y417919D01*
X195089Y417395D01*
X194565Y416610D01*
X194381Y415685D01*
X194519Y414991D01*
X190098Y410570D01*
X164642D01*
X164213Y410485D01*
X163849Y410242D01*
X163849Y410242D01*
X159673Y406066D01*
X150697D01*
X150304Y406655D01*
X149520Y407179D01*
X148594Y407363D01*
X147669Y407179D01*
X146885Y406655D01*
X146361Y405870D01*
X146177Y404945D01*
X146361Y404020D01*
X146885Y403235D01*
X147669Y402711D01*
X148594Y402527D01*
X149520Y402711D01*
X150304Y403235D01*
X150697Y403823D01*
X160138D01*
X160138Y403823D01*
X160567Y403909D01*
X160931Y404152D01*
X165106Y408327D01*
X190563D01*
X190563Y408327D01*
X190992Y408413D01*
X191356Y408656D01*
X196105Y413405D01*
X196799Y413267D01*
X197724Y413451D01*
X198509Y413975D01*
X199033Y414760D01*
X199217Y415685D01*
X199033Y416610D01*
X198509Y417395D01*
X197724Y417919D01*
X196799Y418103D01*
D02*
G37*
G36*
X180642Y419713D02*
X179714Y419591D01*
X178850Y419233D01*
X178108Y418664D01*
X177538Y417922D01*
X177180Y417057D01*
X177058Y416130D01*
X177180Y415203D01*
X177538Y414338D01*
X178108Y413596D01*
X178850Y413027D01*
X179714Y412669D01*
X180642Y412546D01*
X181569Y412669D01*
X182433Y413027D01*
X183176Y413596D01*
X183745Y414338D01*
X184103Y415203D01*
X184225Y416130D01*
X184103Y417057D01*
X183745Y417922D01*
X183176Y418664D01*
X182433Y419233D01*
X181569Y419591D01*
X180642Y419713D01*
D02*
G37*
G36*
X148594Y417363D02*
X147669Y417179D01*
X146885Y416655D01*
X146361Y415870D01*
X146177Y414945D01*
X146315Y414251D01*
X141268Y409204D01*
X137150D01*
X137150Y409204D01*
X136720Y409119D01*
X136356Y408876D01*
X136356Y408876D01*
X130177Y402696D01*
X103598D01*
X100414Y405881D01*
X100552Y406575D01*
X100368Y407500D01*
X99844Y408285D01*
X99059Y408809D01*
X98134Y408993D01*
X97209Y408809D01*
X96424Y408285D01*
X95900Y407500D01*
X95716Y406575D01*
X95900Y405650D01*
X96424Y404865D01*
X97209Y404341D01*
X98134Y404157D01*
X98828Y404295D01*
X102341Y400782D01*
X102341Y400782D01*
X102705Y400539D01*
X103134Y400453D01*
X103134Y400453D01*
X130642D01*
X130642Y400453D01*
X131071Y400539D01*
X131435Y400782D01*
X137614Y406961D01*
X141732D01*
X141732Y406961D01*
X142162Y407047D01*
X142525Y407290D01*
X147901Y412665D01*
X148594Y412527D01*
X149520Y412711D01*
X150304Y413235D01*
X150828Y414020D01*
X151012Y414945D01*
X150828Y415870D01*
X150304Y416655D01*
X149520Y417179D01*
X148594Y417363D01*
D02*
G37*
G36*
X130142Y418713D02*
X129214Y418591D01*
X128350Y418233D01*
X127608Y417664D01*
X127038Y416922D01*
X126680Y416057D01*
X126558Y415130D01*
X126680Y414202D01*
X127038Y413338D01*
X127608Y412596D01*
X128350Y412027D01*
X129214Y411669D01*
X130142Y411547D01*
X131069Y411669D01*
X131933Y412027D01*
X132676Y412596D01*
X133245Y413338D01*
X133603Y414202D01*
X133725Y415130D01*
X133603Y416057D01*
X133245Y416922D01*
X132676Y417664D01*
X131933Y418233D01*
X131069Y418591D01*
X130142Y418713D01*
D02*
G37*
G36*
X118134Y408993D02*
X117209Y408809D01*
X116424Y408285D01*
X115900Y407500D01*
X115716Y406575D01*
X115900Y405650D01*
X116424Y404865D01*
X117209Y404341D01*
X118134Y404157D01*
X119059Y404341D01*
X119844Y404865D01*
X120368Y405650D01*
X120552Y406575D01*
X120368Y407500D01*
X119844Y408285D01*
X119059Y408809D01*
X118134Y408993D01*
D02*
G37*
G36*
X196799Y408103D02*
X195874Y407919D01*
X195089Y407395D01*
X194696Y406807D01*
X185752D01*
X185323Y406721D01*
X184959Y406478D01*
X184959Y406478D01*
X179547Y401066D01*
X147331D01*
X147331Y401066D01*
X146902Y400981D01*
X146538Y400738D01*
X146538Y400738D01*
X129366Y383566D01*
X115642D01*
X115642Y383566D01*
X115213Y383481D01*
X114849Y383238D01*
X114849Y383238D01*
X99016Y367405D01*
X86337D01*
X86213Y367683D01*
X86198Y367905D01*
X86754Y368332D01*
X87229Y368951D01*
X87528Y369672D01*
X87629Y370445D01*
X87528Y371218D01*
X87229Y371939D01*
X86754Y372557D01*
X86136Y373032D01*
X85415Y373331D01*
X84642Y373433D01*
X83868Y373331D01*
X83148Y373032D01*
X82529Y372557D01*
X82054Y371939D01*
X81756Y371218D01*
X81654Y370445D01*
X81756Y369672D01*
X82054Y368951D01*
X82529Y368332D01*
X83086Y367905D01*
X83070Y367683D01*
X82947Y367405D01*
X82205D01*
X82205Y367405D01*
X81776Y367320D01*
X81412Y367077D01*
X81412Y367077D01*
X74943Y360607D01*
X74699Y360243D01*
X74614Y359814D01*
X74614Y359814D01*
Y358998D01*
X74452Y358890D01*
X74058Y358301D01*
X73920Y357606D01*
X74058Y356911D01*
X74452Y356322D01*
X75041Y355928D01*
X75736Y355790D01*
X76431Y355928D01*
X77020Y356322D01*
X77413Y356911D01*
X77552Y357606D01*
X77413Y358301D01*
X77020Y358890D01*
X76995Y358906D01*
X76957Y359450D01*
X82670Y365162D01*
X99480D01*
X99480Y365162D01*
X99910Y365247D01*
X100274Y365491D01*
X116106Y381323D01*
X125667D01*
X125819Y380823D01*
X125691Y380738D01*
X125691Y380738D01*
X120946Y375992D01*
X120485Y376239D01*
X120552Y376575D01*
X120368Y377500D01*
X119844Y378285D01*
X119059Y378809D01*
X118134Y378993D01*
X117209Y378809D01*
X116424Y378285D01*
X115900Y377500D01*
X115716Y376575D01*
X115900Y375649D01*
X116424Y374865D01*
X117209Y374341D01*
X118134Y374157D01*
X118470Y374224D01*
X118716Y373763D01*
X116083Y371129D01*
X110034D01*
X109926Y371292D01*
X109337Y371686D01*
X108642Y371824D01*
X107947Y371686D01*
X107358Y371292D01*
X106964Y370703D01*
X106826Y370008D01*
X106964Y369313D01*
X107358Y368724D01*
X107947Y368330D01*
X108642Y368192D01*
X109337Y368330D01*
X109926Y368724D01*
X110034Y368886D01*
X116547D01*
X116547Y368886D01*
X116976Y368972D01*
X117340Y369215D01*
X119563Y371437D01*
X120106Y371273D01*
X120184Y370876D01*
X120578Y370287D01*
X120741Y370178D01*
Y363385D01*
X113380Y356025D01*
X113137Y355661D01*
X113052Y355232D01*
X113052Y355232D01*
Y349838D01*
X112889Y349729D01*
X112496Y349140D01*
X112357Y348445D01*
X112496Y347750D01*
X112889Y347161D01*
X113478Y346767D01*
X114173Y346629D01*
X114868Y346767D01*
X115457Y347161D01*
X115851Y347750D01*
X115989Y348445D01*
X115851Y349140D01*
X115457Y349729D01*
X115295Y349838D01*
Y354767D01*
X122655Y362128D01*
X122655Y362128D01*
X122898Y362492D01*
X122984Y362921D01*
X122984Y362921D01*
Y370178D01*
X123146Y370287D01*
X123540Y370876D01*
X123678Y371571D01*
X123540Y372266D01*
X123146Y372855D01*
X122557Y373249D01*
X122160Y373328D01*
X121996Y373870D01*
X126949Y378823D01*
X127520D01*
X127681Y378350D01*
X127608Y378294D01*
X127038Y377552D01*
X126680Y376687D01*
X126558Y375760D01*
X126680Y374832D01*
X127038Y373968D01*
X127608Y373226D01*
X128350Y372656D01*
X129214Y372299D01*
X130142Y372176D01*
X131069Y372299D01*
X131933Y372656D01*
X132676Y373226D01*
X133245Y373968D01*
X133603Y374832D01*
X133725Y375760D01*
X133603Y376687D01*
X133245Y377552D01*
X132676Y378294D01*
X132602Y378350D01*
X132763Y378823D01*
X149142D01*
X152262Y375703D01*
X152139Y375084D01*
X152277Y374389D01*
X152671Y373800D01*
X153153Y373478D01*
X153162Y373465D01*
X155520Y371106D01*
Y363499D01*
X155020Y363348D01*
X154926Y363489D01*
X154337Y363882D01*
X153642Y364021D01*
X152947Y363882D01*
X152756Y363755D01*
X149716Y366795D01*
Y372842D01*
X150304Y373235D01*
X150828Y374020D01*
X151012Y374945D01*
X150828Y375870D01*
X150304Y376655D01*
X149520Y377179D01*
X148594Y377363D01*
X147669Y377179D01*
X146885Y376655D01*
X146361Y375870D01*
X146177Y374945D01*
X146361Y374020D01*
X146885Y373235D01*
X147473Y372842D01*
Y366331D01*
X147473Y366331D01*
X147558Y365902D01*
X147801Y365538D01*
X151927Y361412D01*
X152112Y361289D01*
X152358Y360921D01*
X152947Y360527D01*
X153642Y360389D01*
X154337Y360527D01*
X154926Y360921D01*
X155020Y361062D01*
X155520Y360910D01*
Y326338D01*
X155358Y326229D01*
X154964Y325640D01*
X154826Y324945D01*
X154964Y324250D01*
X155358Y323661D01*
X155947Y323267D01*
X156642Y323129D01*
X157337Y323267D01*
X157926Y323661D01*
X158319Y324250D01*
X158458Y324945D01*
X158319Y325640D01*
X157926Y326229D01*
X157763Y326338D01*
Y371571D01*
X157763Y371571D01*
X157678Y372000D01*
X157435Y372364D01*
X157435Y372364D01*
X155543Y374255D01*
X155553Y374270D01*
X156209Y374926D01*
X156726Y374736D01*
X156822Y374250D01*
X157216Y373661D01*
X157805Y373267D01*
X158500Y373129D01*
X159195Y373267D01*
X159784Y373661D01*
X159893Y373823D01*
X166492D01*
X166885Y373235D01*
X167669Y372711D01*
X168595Y372527D01*
X169520Y372711D01*
X170304Y373235D01*
X170828Y374020D01*
X171012Y374945D01*
X170828Y375870D01*
X170304Y376655D01*
X169520Y377179D01*
X168595Y377363D01*
X167669Y377179D01*
X166885Y376655D01*
X166492Y376066D01*
X159893D01*
X159784Y376229D01*
X159195Y376623D01*
X158709Y376719D01*
X158519Y377236D01*
X162606Y381323D01*
X198177D01*
X201927Y377574D01*
X201889Y377382D01*
X202027Y376687D01*
X202421Y376098D01*
X203010Y375704D01*
X203705Y375566D01*
X204400Y375704D01*
X204989Y376098D01*
X205382Y376687D01*
X205521Y377382D01*
X205382Y378077D01*
X204989Y378666D01*
X204400Y379060D01*
X203705Y379198D01*
X203513Y379160D01*
X199435Y383238D01*
X199071Y383481D01*
X198642Y383566D01*
X198642Y383566D01*
X162142D01*
X162142Y383566D01*
X161713Y383481D01*
X161349Y383238D01*
X161349Y383238D01*
X154783Y376673D01*
X154650Y376762D01*
X154307Y376830D01*
X150399Y380738D01*
X150036Y380981D01*
X149606Y381066D01*
X149606Y381066D01*
X130648D01*
X130496Y381566D01*
X130624Y381652D01*
X147795Y398823D01*
X180012D01*
X180012Y398823D01*
X180441Y398909D01*
X180805Y399152D01*
X186216Y404564D01*
X194696D01*
X195089Y403975D01*
X195874Y403451D01*
X196799Y403267D01*
X197724Y403451D01*
X198509Y403975D01*
X199033Y404760D01*
X199217Y405685D01*
X199033Y406610D01*
X198509Y407395D01*
X197724Y407919D01*
X196799Y408103D01*
D02*
G37*
G36*
X168595Y407363D02*
X167669Y407179D01*
X166885Y406655D01*
X166361Y405870D01*
X166176Y404945D01*
X166361Y404020D01*
X166885Y403235D01*
X167669Y402711D01*
X168595Y402527D01*
X169520Y402711D01*
X170304Y403235D01*
X170828Y404020D01*
X171012Y404945D01*
X170828Y405870D01*
X170304Y406655D01*
X169520Y407179D01*
X168595Y407363D01*
D02*
G37*
G36*
X269579Y400054D02*
X269228Y399984D01*
X268506Y399502D01*
X268024Y398780D01*
X267954Y398429D01*
X269579D01*
Y400054D01*
D02*
G37*
G36*
Y397429D02*
X267954D01*
X268024Y397078D01*
X268506Y396357D01*
X269228Y395875D01*
X269579Y395805D01*
Y397429D01*
D02*
G37*
G36*
X118134Y398993D02*
X117209Y398809D01*
X116424Y398285D01*
X115900Y397500D01*
X115716Y396575D01*
X115900Y395650D01*
X116424Y394865D01*
X117209Y394341D01*
X118134Y394157D01*
X119059Y394341D01*
X119844Y394865D01*
X120368Y395650D01*
X120552Y396575D01*
X120368Y397500D01*
X119844Y398285D01*
X119059Y398809D01*
X118134Y398993D01*
D02*
G37*
G36*
X98134D02*
X97209Y398809D01*
X96424Y398285D01*
X95900Y397500D01*
X95716Y396575D01*
X95900Y395650D01*
X96424Y394865D01*
X97209Y394341D01*
X98134Y394157D01*
X99059Y394341D01*
X99844Y394865D01*
X100368Y395650D01*
X100552Y396575D01*
X100368Y397500D01*
X99844Y398285D01*
X99059Y398809D01*
X98134Y398993D01*
D02*
G37*
G36*
X196799Y398103D02*
X195874Y397919D01*
X195089Y397395D01*
X194565Y396610D01*
X194381Y395685D01*
X194565Y394760D01*
X195089Y393975D01*
X195874Y393451D01*
X196799Y393267D01*
X197724Y393451D01*
X198509Y393975D01*
X199033Y394760D01*
X199217Y395685D01*
X199033Y396610D01*
X198509Y397395D01*
X197724Y397919D01*
X196799Y398103D01*
D02*
G37*
G36*
X168595Y397363D02*
X167669Y397179D01*
X166885Y396655D01*
X166361Y395870D01*
X166176Y394945D01*
X166361Y394020D01*
X166885Y393235D01*
X167669Y392711D01*
X168595Y392527D01*
X169520Y392711D01*
X170304Y393235D01*
X170828Y394020D01*
X171012Y394945D01*
X170828Y395870D01*
X170304Y396655D01*
X169520Y397179D01*
X168595Y397363D01*
D02*
G37*
G36*
X148594D02*
X147669Y397179D01*
X146885Y396655D01*
X146361Y395870D01*
X146177Y394945D01*
X146361Y394020D01*
X146885Y393235D01*
X147669Y392711D01*
X148594Y392527D01*
X149520Y392711D01*
X150304Y393235D01*
X150828Y394020D01*
X151012Y394945D01*
X150828Y395870D01*
X150304Y396655D01*
X149520Y397179D01*
X148594Y397363D01*
D02*
G37*
G36*
X279217Y393101D02*
Y391476D01*
X280841D01*
X280771Y391827D01*
X280289Y392549D01*
X279568Y393031D01*
X279217Y393101D01*
D02*
G37*
G36*
X270579Y400054D02*
Y397929D01*
Y395805D01*
X270930Y395875D01*
X271651Y396357D01*
X271830Y396374D01*
X276615Y391590D01*
X276592Y391476D01*
X278217D01*
Y393160D01*
X272655Y398722D01*
X272291Y398965D01*
X271967Y399030D01*
X271651Y399502D01*
X270930Y399984D01*
X270579Y400054D01*
D02*
G37*
G36*
X280841Y390476D02*
X279217D01*
Y388852D01*
X279568Y388922D01*
X280289Y389404D01*
X280771Y390125D01*
X280841Y390476D01*
D02*
G37*
G36*
X278217D02*
X276592D01*
X276662Y390125D01*
X277144Y389404D01*
X277866Y388922D01*
X278217Y388852D01*
Y390476D01*
D02*
G37*
G36*
X293142Y425863D02*
X292216Y425679D01*
X291432Y425155D01*
X290908Y424370D01*
X290724Y423445D01*
X290908Y422519D01*
X291432Y421735D01*
X292020Y421342D01*
Y412945D01*
X292020Y412945D01*
X292106Y412516D01*
X292349Y412152D01*
X303212Y401288D01*
Y388791D01*
X302973Y388578D01*
X302362Y388667D01*
X302284Y388784D01*
X301695Y389178D01*
X301000Y389316D01*
X300305Y389178D01*
X299716Y388784D01*
X299322Y388195D01*
X299184Y387500D01*
X299322Y386805D01*
X299716Y386216D01*
X300305Y385822D01*
X300378Y385808D01*
Y384261D01*
X299879Y384054D01*
X289566Y394366D01*
Y399552D01*
X289729Y399661D01*
X290123Y400250D01*
X290261Y400945D01*
X290123Y401640D01*
X289729Y402229D01*
X289140Y402623D01*
X288445Y402761D01*
X287750Y402623D01*
X287161Y402229D01*
X286767Y401640D01*
X286629Y400945D01*
X286767Y400250D01*
X287161Y399661D01*
X287323Y399552D01*
Y393902D01*
X287323Y393902D01*
X287409Y393472D01*
X287652Y393109D01*
X306982Y373778D01*
X306982Y373778D01*
X307067Y373721D01*
X307358Y373287D01*
X307520Y373178D01*
Y365398D01*
X307520Y365398D01*
X307606Y364968D01*
X307849Y364605D01*
X308491Y363962D01*
X308543Y363703D01*
X308936Y363113D01*
X309525Y362720D01*
X310221Y362582D01*
X310915Y362720D01*
X311505Y363113D01*
X311898Y363703D01*
X312036Y364398D01*
X311898Y365093D01*
X311505Y365682D01*
X310915Y366075D01*
X310221Y366214D01*
X310150Y366200D01*
X309763Y366517D01*
Y373178D01*
X309926Y373287D01*
X310319Y373876D01*
X310458Y374571D01*
X310414Y374793D01*
X310874Y375040D01*
X318879Y367035D01*
Y349500D01*
X318878Y349500D01*
X318964Y349071D01*
X319207Y348707D01*
X324879Y343035D01*
Y339491D01*
X324716Y339383D01*
X324322Y338793D01*
X324184Y338098D01*
X324322Y337403D01*
X324716Y336814D01*
X325305Y336421D01*
X326000Y336282D01*
X326695Y336421D01*
X327284Y336814D01*
X327678Y337403D01*
X327816Y338098D01*
X327678Y338793D01*
X327284Y339383D01*
X327121Y339491D01*
Y343500D01*
X327122Y343500D01*
X327036Y343929D01*
X326793Y344293D01*
X326793Y344293D01*
X321122Y349965D01*
Y367500D01*
X321122Y367500D01*
X321036Y367929D01*
X320793Y368293D01*
X320793Y368293D01*
X309293Y379793D01*
X308929Y380036D01*
X308500Y380122D01*
X308500Y380121D01*
X306965D01*
X302622Y384465D01*
Y385447D01*
X302835Y385576D01*
X303121Y385658D01*
X303639Y385312D01*
X304334Y385174D01*
X305029Y385312D01*
X305618Y385706D01*
X306012Y386295D01*
X306150Y386990D01*
X306012Y387685D01*
X305618Y388274D01*
X305455Y388383D01*
Y401753D01*
X305455Y401753D01*
X305370Y402182D01*
X305127Y402546D01*
X305127Y402546D01*
X294263Y413410D01*
Y421342D01*
X294852Y421735D01*
X295376Y422519D01*
X295560Y423445D01*
X295376Y424370D01*
X294852Y425155D01*
X294067Y425679D01*
X293142Y425863D01*
D02*
G37*
G36*
X98134Y378993D02*
X97209Y378809D01*
X96424Y378285D01*
X95900Y377500D01*
X95716Y376575D01*
X95900Y375649D01*
X96424Y374865D01*
X97209Y374341D01*
X98134Y374157D01*
X99059Y374341D01*
X99844Y374865D01*
X100368Y375649D01*
X100552Y376575D01*
X100368Y377500D01*
X99844Y378285D01*
X99059Y378809D01*
X98134Y378993D01*
D02*
G37*
G36*
X180642Y380343D02*
X179714Y380221D01*
X178850Y379863D01*
X178108Y379294D01*
X177538Y378552D01*
X177180Y377687D01*
X177058Y376760D01*
X177180Y375832D01*
X177538Y374968D01*
X178108Y374226D01*
X178850Y373657D01*
X179714Y373299D01*
X180642Y373176D01*
X181569Y373299D01*
X182433Y373657D01*
X183176Y374226D01*
X183745Y374968D01*
X184103Y375832D01*
X184225Y376760D01*
X184103Y377687D01*
X183745Y378552D01*
X183176Y379294D01*
X182433Y379863D01*
X181569Y380221D01*
X180642Y380343D01*
D02*
G37*
G36*
X274016Y371107D02*
X273321Y370969D01*
X272732Y370575D01*
X272623Y370413D01*
X268110D01*
X268110Y370413D01*
X267681Y370327D01*
X267317Y370084D01*
X267317Y370084D01*
X264827Y367594D01*
X208936D01*
X208827Y367757D01*
X208238Y368150D01*
X207543Y368288D01*
X206848Y368150D01*
X206259Y367757D01*
X205866Y367167D01*
X205727Y366472D01*
X205866Y365777D01*
X206259Y365188D01*
X206848Y364795D01*
X207543Y364656D01*
X208238Y364795D01*
X208827Y365188D01*
X208936Y365351D01*
X265291D01*
X265291Y365351D01*
X265721Y365436D01*
X266084Y365679D01*
X268575Y368170D01*
X272623D01*
X272732Y368007D01*
X273321Y367614D01*
X274016Y367475D01*
X274711Y367614D01*
X275300Y368007D01*
X275693Y368596D01*
X275832Y369291D01*
X275693Y369986D01*
X275300Y370575D01*
X274711Y370969D01*
X274016Y371107D01*
D02*
G37*
G36*
X138142Y375433D02*
X137368Y375331D01*
X136648Y375032D01*
X136029Y374557D01*
X135554Y373939D01*
X135256Y373218D01*
X135154Y372445D01*
X135256Y371672D01*
X135554Y370951D01*
X136029Y370332D01*
X136648Y369857D01*
X137368Y369559D01*
X138142Y369457D01*
X138915Y369559D01*
X139636Y369857D01*
X140254Y370332D01*
X140729Y370951D01*
X141028Y371672D01*
X141130Y372445D01*
X141028Y373218D01*
X140729Y373939D01*
X140254Y374557D01*
X139636Y375032D01*
X138915Y375331D01*
X138142Y375433D01*
D02*
G37*
G36*
X183642Y366385D02*
X182868Y366284D01*
X182148Y365985D01*
X181529Y365510D01*
X181054Y364892D01*
X180756Y364171D01*
X180654Y363398D01*
X180756Y362624D01*
X181054Y361904D01*
X181529Y361285D01*
X182148Y360810D01*
X182868Y360512D01*
X183642Y360410D01*
X184415Y360512D01*
X185136Y360810D01*
X185754Y361285D01*
X186229Y361904D01*
X186528Y362624D01*
X186629Y363398D01*
X186528Y364171D01*
X186229Y364892D01*
X185754Y365510D01*
X185136Y365985D01*
X184415Y366284D01*
X183642Y366385D01*
D02*
G37*
G36*
X331689Y374214D02*
X330994Y374075D01*
X330405Y373682D01*
X330011Y373093D01*
X329873Y372398D01*
X330011Y371703D01*
X330405Y371113D01*
X330567Y371005D01*
Y368457D01*
X327849Y365738D01*
X327606Y365374D01*
X327520Y364945D01*
X327520Y364945D01*
Y354410D01*
X325834Y352723D01*
X325642Y352761D01*
X324947Y352623D01*
X324358Y352229D01*
X323964Y351640D01*
X323826Y350945D01*
X323964Y350250D01*
X324358Y349661D01*
X324947Y349267D01*
X325642Y349129D01*
X326337Y349267D01*
X326926Y349661D01*
X327320Y350250D01*
X327458Y350945D01*
X327420Y351137D01*
X329435Y353152D01*
X329678Y353516D01*
X329763Y353945D01*
X329763Y353945D01*
Y364480D01*
X332482Y367199D01*
X332482Y367199D01*
X332725Y367563D01*
X332810Y367992D01*
X332810Y367992D01*
Y371005D01*
X332973Y371113D01*
X333367Y371703D01*
X333505Y372398D01*
X333367Y373093D01*
X332973Y373682D01*
X332384Y374075D01*
X331689Y374214D01*
D02*
G37*
G36*
X352000Y352761D02*
X351305Y352623D01*
X350716Y352229D01*
X350322Y351640D01*
X350297Y351515D01*
X337397D01*
X337288Y351678D01*
X336699Y352071D01*
X336004Y352210D01*
X335309Y352071D01*
X334720Y351678D01*
X334326Y351089D01*
X334188Y350394D01*
X334326Y349699D01*
X334720Y349110D01*
X335309Y348716D01*
X336004Y348578D01*
X336699Y348716D01*
X337288Y349110D01*
X337397Y349272D01*
X351297D01*
X351305Y349267D01*
X352000Y349129D01*
X352695Y349267D01*
X353284Y349661D01*
X353678Y350250D01*
X353816Y350945D01*
X353678Y351640D01*
X353284Y352229D01*
X352695Y352623D01*
X352000Y352761D01*
D02*
G37*
G36*
X356842Y345808D02*
X356148Y345670D01*
X355558Y345276D01*
X355450Y345114D01*
X342189D01*
X342189Y345114D01*
X341760Y345028D01*
X341396Y344785D01*
X341396Y344785D01*
X331333Y334723D01*
X331142Y334761D01*
X330447Y334623D01*
X329858Y334229D01*
X329464Y333640D01*
X329326Y332945D01*
X329464Y332250D01*
X329858Y331661D01*
X330447Y331267D01*
X331142Y331129D01*
X331837Y331267D01*
X332426Y331661D01*
X332820Y332250D01*
X332958Y332945D01*
X332920Y333137D01*
X342653Y342871D01*
X355450D01*
X355558Y342708D01*
X356148Y342314D01*
X356842Y342176D01*
X357538Y342314D01*
X358127Y342708D01*
X358520Y343297D01*
X358659Y343992D01*
X358520Y344687D01*
X358127Y345276D01*
X357538Y345670D01*
X356842Y345808D01*
D02*
G37*
G36*
X184642Y347261D02*
X183947Y347123D01*
X183358Y346729D01*
X182964Y346140D01*
X182826Y345445D01*
X182864Y345253D01*
X181177Y343566D01*
X176642D01*
X176642Y343566D01*
X176213Y343481D01*
X175849Y343238D01*
X173834Y341223D01*
X173642Y341261D01*
X172947Y341123D01*
X172358Y340729D01*
X171964Y340140D01*
X171826Y339445D01*
X171964Y338750D01*
X172358Y338161D01*
X172520Y338052D01*
Y331909D01*
X168849Y328238D01*
X168605Y327874D01*
X168520Y327445D01*
X168520Y327445D01*
Y321838D01*
X168358Y321729D01*
X167964Y321140D01*
X167826Y320445D01*
X167923Y319957D01*
X167462Y319711D01*
X162858Y324315D01*
Y339052D01*
X163020Y339161D01*
X163414Y339750D01*
X163552Y340445D01*
X163414Y341140D01*
X163020Y341729D01*
X162431Y342123D01*
X161736Y342261D01*
X161041Y342123D01*
X160452Y341729D01*
X160058Y341140D01*
X159920Y340445D01*
X160058Y339750D01*
X160452Y339161D01*
X160615Y339052D01*
Y324577D01*
X160606Y324563D01*
X160520Y324134D01*
X160539Y324039D01*
X160520Y323945D01*
X160606Y323516D01*
X160849Y323152D01*
X267849Y216152D01*
X267849Y216152D01*
X268213Y215909D01*
X268642Y215823D01*
X268642Y215823D01*
X327609D01*
X327821Y215323D01*
X327612Y215066D01*
X259606D01*
X136420Y338253D01*
X136458Y338445D01*
X136319Y339140D01*
X135926Y339729D01*
X135337Y340123D01*
X134642Y340261D01*
X133947Y340123D01*
X133358Y339729D01*
X132964Y339140D01*
X132826Y338445D01*
X132964Y337750D01*
X133358Y337161D01*
X133947Y336767D01*
X134642Y336629D01*
X134834Y336667D01*
X258349Y213152D01*
X258349Y213152D01*
X258476Y213066D01*
X258325Y212566D01*
X242106D01*
X236935Y217738D01*
X236571Y217981D01*
X236142Y218066D01*
X236142Y218066D01*
X167909D01*
X167734Y218243D01*
X167543Y218566D01*
X167630Y219225D01*
X167528Y219998D01*
X167229Y220719D01*
X166754Y221338D01*
X166136Y221812D01*
X165763Y221967D01*
Y254185D01*
X182110Y270532D01*
X187584D01*
X187692Y270369D01*
X188281Y269976D01*
X188976Y269838D01*
X189671Y269976D01*
X190261Y270369D01*
X190654Y270959D01*
X190792Y271654D01*
X190654Y272348D01*
X190261Y272938D01*
X189671Y273331D01*
X188976Y273469D01*
X188281Y273331D01*
X187692Y272938D01*
X187584Y272775D01*
X181646D01*
X181217Y272690D01*
X180853Y272447D01*
X180853Y272447D01*
X163849Y255443D01*
X163605Y255079D01*
X163520Y254650D01*
X163520Y254649D01*
Y221967D01*
X163148Y221812D01*
X162529Y221338D01*
X162054Y220719D01*
X161756Y219998D01*
X161654Y219225D01*
X161756Y218452D01*
X162054Y217731D01*
X162529Y217112D01*
X163148Y216637D01*
X163868Y216339D01*
X164642Y216237D01*
X165415Y216339D01*
X165787Y216493D01*
X166129Y216152D01*
X166129Y216152D01*
X166492Y215909D01*
X166922Y215823D01*
X166922Y215823D01*
X235677D01*
X240849Y210652D01*
X240849Y210652D01*
X241213Y210409D01*
X241642Y210323D01*
X298134D01*
X298195Y210240D01*
X298076Y209560D01*
X297929Y209461D01*
X297535Y208872D01*
X297397Y208177D01*
X297535Y207482D01*
X297929Y206893D01*
X298518Y206499D01*
X299213Y206361D01*
X299907Y206499D01*
X300497Y206893D01*
X300605Y207056D01*
X307445D01*
X314506Y199994D01*
X314506Y199994D01*
X317794Y196706D01*
X317630Y196163D01*
X317062Y196051D01*
X316341Y195569D01*
X315859Y194847D01*
X315789Y194496D01*
X317913D01*
Y193996D01*
X318413D01*
Y191872D01*
X318764Y191941D01*
X319486Y192424D01*
X319968Y193145D01*
X319987Y193239D01*
X320542Y193469D01*
X320844Y193267D01*
X321539Y193129D01*
X322234Y193267D01*
X322823Y193661D01*
X323217Y194250D01*
X323355Y194945D01*
X323217Y195640D01*
X322823Y196229D01*
X322234Y196623D01*
X321539Y196761D01*
X321016Y196657D01*
X318469Y199204D01*
X318660Y199666D01*
X325665D01*
X328021Y197310D01*
X328025Y197264D01*
X327751Y197039D01*
X327565Y196970D01*
X327337Y197123D01*
X326642Y197261D01*
X325947Y197123D01*
X325358Y196729D01*
X324964Y196140D01*
X324826Y195445D01*
X324964Y194750D01*
X325358Y194161D01*
X325520Y194052D01*
Y181445D01*
X325520Y181445D01*
X325576Y181166D01*
X325572Y181130D01*
X325353Y180736D01*
X325260Y180633D01*
X324829Y180547D01*
X324304Y180196D01*
X324092Y180232D01*
X324084Y180235D01*
X323795Y180387D01*
X323678Y180974D01*
X323284Y181563D01*
X323127Y181668D01*
X323232Y182199D01*
X323337Y182220D01*
X323926Y182614D01*
X324320Y183203D01*
X324458Y183898D01*
X324320Y184593D01*
X323926Y185182D01*
X323337Y185575D01*
X322642Y185714D01*
X321947Y185575D01*
X321358Y185182D01*
X321249Y185019D01*
X311094D01*
X311094Y185019D01*
X310665Y184934D01*
X310301Y184691D01*
X310301Y184691D01*
X290403Y164792D01*
X289942Y165039D01*
X290005Y165354D01*
X289867Y166049D01*
X289473Y166638D01*
X288884Y167032D01*
X288189Y167170D01*
X287494Y167032D01*
X286905Y166638D01*
X286796Y166476D01*
X286291D01*
X280124Y172643D01*
X280162Y172835D01*
X280024Y173530D01*
X279631Y174119D01*
X279041Y174512D01*
X278346Y174651D01*
X277652Y174512D01*
X277062Y174119D01*
X276669Y173530D01*
X276531Y172835D01*
X276669Y172140D01*
X277062Y171551D01*
X277652Y171157D01*
X278346Y171019D01*
X278538Y171057D01*
X285034Y164561D01*
X285034Y164561D01*
X285398Y164318D01*
X285827Y164233D01*
X285827Y164233D01*
X286796D01*
X286905Y164070D01*
X287494Y163677D01*
X288189Y163538D01*
X288505Y163601D01*
X288751Y163140D01*
X269177Y143566D01*
X248034D01*
X247926Y143729D01*
X247337Y144123D01*
X246642Y144261D01*
X245947Y144123D01*
X245358Y143729D01*
X244964Y143140D01*
X244826Y142445D01*
X244964Y141750D01*
X245358Y141161D01*
X245947Y140767D01*
X246642Y140629D01*
X247337Y140767D01*
X247926Y141161D01*
X248034Y141323D01*
X269642D01*
X269642Y141323D01*
X270071Y141409D01*
X270435Y141652D01*
X311559Y182776D01*
X321138D01*
X321427Y182445D01*
X321316Y182001D01*
X321300Y181953D01*
X320716Y181563D01*
X320607Y181401D01*
X316976D01*
X316976Y181401D01*
X316547Y181315D01*
X316183Y181072D01*
X316183Y181072D01*
X269502Y134391D01*
X255328D01*
X255219Y134554D01*
X254630Y134947D01*
X253935Y135086D01*
X253240Y134947D01*
X252651Y134554D01*
X252570Y134432D01*
X252049Y134554D01*
X252028Y134718D01*
X251729Y135439D01*
X251254Y136057D01*
X250636Y136532D01*
X249915Y136831D01*
X249142Y136933D01*
X248368Y136831D01*
X247648Y136532D01*
X247029Y136057D01*
X246554Y135439D01*
X246256Y134718D01*
X246154Y133945D01*
X246256Y133172D01*
X246554Y132451D01*
X247029Y131832D01*
X247648Y131357D01*
X248368Y131059D01*
X249142Y130957D01*
X249915Y131059D01*
X250636Y131357D01*
X251254Y131832D01*
X251729Y132451D01*
X251758Y132520D01*
X252033Y132550D01*
X252297Y132515D01*
X252651Y131985D01*
X253240Y131592D01*
X253935Y131454D01*
X254630Y131592D01*
X255219Y131985D01*
X255328Y132148D01*
X269966D01*
X269967Y132148D01*
X270396Y132233D01*
X270760Y132476D01*
X317441Y179158D01*
X320607D01*
X320716Y178995D01*
X321305Y178601D01*
X322000Y178463D01*
X322458Y178554D01*
X322704Y178093D01*
X272874Y128263D01*
X249534D01*
X249426Y128426D01*
X248837Y128820D01*
X248142Y128958D01*
X247447Y128820D01*
X246858Y128426D01*
X246368Y128410D01*
X246254Y128558D01*
X245636Y129032D01*
X244915Y129331D01*
X244142Y129433D01*
X243368Y129331D01*
X242648Y129032D01*
X242029Y128558D01*
X241554Y127939D01*
X241256Y127218D01*
X241154Y126445D01*
X241256Y125672D01*
X241410Y125299D01*
X237349Y121238D01*
X237105Y120874D01*
X237020Y120445D01*
X237020Y120445D01*
Y111629D01*
X236858Y111520D01*
X236464Y110931D01*
X236326Y110236D01*
X236464Y109541D01*
X236858Y108952D01*
X237447Y108558D01*
X238142Y108420D01*
X238837Y108558D01*
X239426Y108952D01*
X239820Y109541D01*
X239958Y110236D01*
X239820Y110931D01*
X239426Y111520D01*
X239263Y111629D01*
Y119980D01*
X242996Y123713D01*
X243368Y123559D01*
X244142Y123457D01*
X244915Y123559D01*
X245636Y123857D01*
X246254Y124332D01*
X246729Y124951D01*
X246856Y125257D01*
X247447Y125464D01*
X248142Y125326D01*
X248837Y125464D01*
X249426Y125858D01*
X249534Y126020D01*
X271407D01*
X271456Y125520D01*
X271260Y125481D01*
X270896Y125238D01*
X270896Y125238D01*
X265349Y119691D01*
X265106Y119327D01*
X265020Y118898D01*
X265020Y118898D01*
Y106763D01*
X250554Y92297D01*
X250362Y92335D01*
X249667Y92197D01*
X249078Y91803D01*
X248685Y91214D01*
X248546Y90519D01*
X248685Y89824D01*
X249078Y89235D01*
X249667Y88841D01*
X250362Y88703D01*
X251057Y88841D01*
X251646Y89235D01*
X252040Y89824D01*
X252178Y90519D01*
X252140Y90711D01*
X266935Y105506D01*
X266935Y105506D01*
X267178Y105869D01*
X267263Y106299D01*
X267263Y106299D01*
Y118433D01*
X272153Y123323D01*
X278642D01*
X278642Y123323D01*
X279071Y123409D01*
X279435Y123652D01*
X316106Y160323D01*
X319825D01*
X319976Y159823D01*
X319849Y159738D01*
X319849Y159738D01*
X315349Y155238D01*
X315106Y154874D01*
X315020Y154445D01*
X315020Y154445D01*
Y142445D01*
X315020Y142445D01*
X315106Y142016D01*
X315349Y141652D01*
X317849Y139152D01*
X317849Y139152D01*
X318213Y138909D01*
X318642Y138823D01*
X370642D01*
X370642Y138823D01*
X371071Y138909D01*
X371435Y139152D01*
X392979Y160696D01*
X393337Y160767D01*
X393926Y161161D01*
X394320Y161750D01*
X394458Y162445D01*
X394320Y163140D01*
X393926Y163729D01*
X393337Y164123D01*
X392642Y164261D01*
X391947Y164123D01*
X391358Y163729D01*
X390964Y163140D01*
X390826Y162445D01*
X390947Y161836D01*
X370177Y141066D01*
X319106D01*
X317263Y142909D01*
Y153980D01*
X321106Y157823D01*
X326081D01*
X326190Y157661D01*
X326779Y157267D01*
X327474Y157129D01*
X328169Y157267D01*
X328758Y157661D01*
X329152Y158250D01*
X329290Y158945D01*
X329152Y159640D01*
X328758Y160229D01*
X328169Y160623D01*
X327474Y160761D01*
X326779Y160623D01*
X326190Y160229D01*
X326081Y160066D01*
X321959D01*
X321807Y160566D01*
X321935Y160652D01*
X322450Y161167D01*
X322642Y161129D01*
X323337Y161267D01*
X323926Y161661D01*
X324320Y162250D01*
X324458Y162945D01*
X324320Y163640D01*
X323926Y164229D01*
X323337Y164623D01*
X322642Y164761D01*
X321947Y164623D01*
X321358Y164229D01*
X320964Y163640D01*
X320826Y162945D01*
X320433Y162566D01*
X315642D01*
X315212Y162481D01*
X314849Y162238D01*
X314849Y162238D01*
X278177Y125566D01*
X273959D01*
X273807Y126066D01*
X273935Y126152D01*
X324950Y177167D01*
X325524Y177053D01*
X326219Y177191D01*
X326808Y177585D01*
X327202Y178174D01*
X327271Y178523D01*
X327813Y178687D01*
X330349Y176152D01*
X330349Y176152D01*
X330713Y175909D01*
X331142Y175823D01*
X331142Y175823D01*
X332842D01*
X354708Y153958D01*
X354474Y153484D01*
X354142Y153528D01*
X353214Y153406D01*
X352350Y153048D01*
X351730Y152573D01*
X341656Y162647D01*
X341697Y163066D01*
X342091Y163655D01*
X342229Y164350D01*
X342091Y165045D01*
X341697Y165635D01*
X341108Y166028D01*
X340413Y166166D01*
X339718Y166028D01*
X339129Y165635D01*
X338735Y165045D01*
X338597Y164350D01*
X338629Y164191D01*
X338577Y164139D01*
X338334Y163776D01*
X338248Y163347D01*
X338334Y162917D01*
X338577Y162553D01*
X350631Y150499D01*
X350558Y149945D01*
X350680Y149017D01*
X351038Y148153D01*
X351608Y147411D01*
X352350Y146842D01*
X353214Y146484D01*
X354142Y146361D01*
X355069Y146484D01*
X355933Y146842D01*
X356676Y147411D01*
X357245Y148153D01*
X357603Y149017D01*
X357725Y149945D01*
X357681Y150277D01*
X358155Y150511D01*
X359514Y149152D01*
X359514Y149152D01*
X359878Y148909D01*
X360307Y148823D01*
X360307Y148823D01*
X360761D01*
X361038Y148153D01*
X361608Y147411D01*
X362350Y146842D01*
X363214Y146484D01*
X364142Y146361D01*
X365069Y146484D01*
X365933Y146842D01*
X366676Y147411D01*
X367245Y148153D01*
X367603Y149017D01*
X367725Y149945D01*
X367603Y150872D01*
X367245Y151737D01*
X366676Y152479D01*
X365933Y153048D01*
X365069Y153406D01*
X364142Y153528D01*
X363214Y153406D01*
X362350Y153048D01*
X361608Y152479D01*
X361038Y151737D01*
X360936Y151490D01*
X360446Y151392D01*
X335499Y176339D01*
X335696Y176849D01*
X336195Y176948D01*
X336784Y177342D01*
X336893Y177505D01*
X368963D01*
X369023Y177464D01*
X369453Y177378D01*
X369783Y177444D01*
X370142Y177373D01*
X370837Y177511D01*
X371426Y177905D01*
X371819Y178494D01*
X371958Y179189D01*
X371819Y179884D01*
X371426Y180473D01*
X370837Y180867D01*
X370142Y181005D01*
X369447Y180867D01*
X368858Y180473D01*
X368464Y179884D01*
X368437Y179748D01*
X336893D01*
X336784Y179910D01*
X336195Y180304D01*
X335500Y180442D01*
X334805Y180304D01*
X334216Y179910D01*
X333822Y179321D01*
X333684Y178626D01*
X333710Y178496D01*
X333310Y178069D01*
X333285Y178066D01*
X331606D01*
X331220Y178453D01*
X331467Y178913D01*
X331689Y178869D01*
X332384Y179007D01*
X332973Y179401D01*
X333367Y179990D01*
X333505Y180685D01*
X333367Y181380D01*
X332973Y181969D01*
X332810Y182078D01*
Y195228D01*
X332725Y195658D01*
X332482Y196021D01*
X332482Y196021D01*
X326923Y201581D01*
X326559Y201824D01*
X326130Y201909D01*
X326130Y201909D01*
X315764D01*
X308702Y208970D01*
X308339Y209213D01*
X307909Y209299D01*
X307909Y209299D01*
X300605D01*
X300497Y209461D01*
X300349Y209560D01*
X300230Y210240D01*
X300291Y210323D01*
X340142D01*
X340142Y210323D01*
X340571Y210409D01*
X340935Y210652D01*
X340950Y210667D01*
X341142Y210629D01*
X341837Y210767D01*
X342426Y211161D01*
X342819Y211750D01*
X342958Y212445D01*
X342819Y213140D01*
X342426Y213729D01*
X341837Y214123D01*
X341142Y214261D01*
X340447Y214123D01*
X339858Y213729D01*
X339464Y213140D01*
X339350Y212566D01*
X330964D01*
X330697Y213066D01*
X330820Y213250D01*
X330958Y213945D01*
X330862Y214427D01*
X331312Y214727D01*
X331411Y214661D01*
X332106Y214523D01*
X332801Y214661D01*
X333390Y215054D01*
X333784Y215644D01*
X333922Y216339D01*
X333784Y217034D01*
X333390Y217623D01*
X332801Y218016D01*
X332106Y218155D01*
X331411Y218016D01*
X331371Y217989D01*
X330985Y218066D01*
X330985Y218066D01*
X269106D01*
X168908Y318265D01*
X169154Y318726D01*
X169642Y318629D01*
X170337Y318767D01*
X170926Y319161D01*
X171319Y319750D01*
X171458Y320445D01*
X171319Y321140D01*
X170926Y321729D01*
X170763Y321838D01*
Y326980D01*
X174435Y330652D01*
X174435Y330652D01*
X174678Y331016D01*
X174763Y331445D01*
Y338052D01*
X174926Y338161D01*
X175320Y338750D01*
X175458Y339445D01*
X175420Y339637D01*
X177106Y341323D01*
X181642D01*
X181642Y341323D01*
X182071Y341409D01*
X182435Y341652D01*
X184450Y343667D01*
X184642Y343629D01*
X185337Y343767D01*
X185926Y344161D01*
X186319Y344750D01*
X186458Y345445D01*
X186319Y346140D01*
X185926Y346729D01*
X185337Y347123D01*
X184642Y347261D01*
D02*
G37*
G36*
X332642Y363761D02*
X331947Y363623D01*
X331358Y363229D01*
X330964Y362640D01*
X330826Y361945D01*
X330964Y361250D01*
X331358Y360661D01*
X331947Y360267D01*
X332642Y360129D01*
X333337Y360267D01*
X333926Y360661D01*
X334034Y360823D01*
X358630D01*
X370540Y348913D01*
Y345885D01*
X370377Y345776D01*
X369984Y345187D01*
X369845Y344492D01*
X369984Y343797D01*
X370377Y343208D01*
X370967Y342814D01*
X371661Y342676D01*
X372356Y342814D01*
X372945Y343208D01*
X373339Y343797D01*
X373477Y344492D01*
X373339Y345187D01*
X372945Y345776D01*
X372783Y345885D01*
Y349378D01*
X372698Y349807D01*
X372455Y350171D01*
X372454Y350171D01*
X359888Y362738D01*
X359524Y362981D01*
X359095Y363066D01*
X359094Y363066D01*
X334034D01*
X333926Y363229D01*
X333337Y363623D01*
X332642Y363761D01*
D02*
G37*
G36*
X124689Y345808D02*
X123994Y345670D01*
X123405Y345276D01*
X123011Y344687D01*
X122873Y343992D01*
X122911Y343800D01*
X118677Y339566D01*
X93534D01*
X93426Y339729D01*
X92837Y340123D01*
X92142Y340261D01*
X91447Y340123D01*
X90858Y339729D01*
X90464Y339140D01*
X90326Y338445D01*
X90464Y337750D01*
X90858Y337161D01*
X91447Y336767D01*
X92142Y336629D01*
X92837Y336767D01*
X93426Y337161D01*
X93534Y337323D01*
X119142D01*
X119142Y337323D01*
X119571Y337409D01*
X119935Y337652D01*
X124497Y342214D01*
X124689Y342176D01*
X125384Y342314D01*
X125973Y342708D01*
X126367Y343297D01*
X126505Y343992D01*
X126367Y344687D01*
X125973Y345276D01*
X125384Y345670D01*
X124689Y345808D01*
D02*
G37*
G36*
X55618Y329051D02*
Y319398D01*
X65272D01*
X65125Y320888D01*
X64544Y322802D01*
X63601Y324566D01*
X62332Y326112D01*
X60786Y327381D01*
X59022Y328324D01*
X57109Y328904D01*
X55618Y329051D01*
D02*
G37*
G36*
X54618D02*
X53128Y328904D01*
X51214Y328324D01*
X49450Y327381D01*
X47904Y326112D01*
X46635Y324566D01*
X45692Y322802D01*
X45112Y320888D01*
X44965Y319398D01*
X54618D01*
Y329051D01*
D02*
G37*
G36*
X320142Y316261D02*
X319447Y316123D01*
X318858Y315729D01*
X318464Y315140D01*
X318326Y314445D01*
X318364Y314253D01*
X301677Y297566D01*
X252034D01*
X251926Y297729D01*
X251337Y298123D01*
X250642Y298261D01*
X249947Y298123D01*
X249358Y297729D01*
X248964Y297140D01*
X248826Y296445D01*
X248964Y295750D01*
X249358Y295161D01*
X249947Y294767D01*
X250642Y294629D01*
X251337Y294767D01*
X251926Y295161D01*
X252034Y295323D01*
X302142D01*
X302142Y295323D01*
X302571Y295409D01*
X302935Y295652D01*
X319950Y312667D01*
X320142Y312629D01*
X320837Y312767D01*
X321426Y313161D01*
X321819Y313750D01*
X321958Y314445D01*
X321819Y315140D01*
X321426Y315729D01*
X320837Y316123D01*
X320142Y316261D01*
D02*
G37*
G36*
X65272Y318398D02*
X55618D01*
Y308744D01*
X57109Y308891D01*
X59022Y309472D01*
X60786Y310414D01*
X62332Y311683D01*
X63601Y313229D01*
X64544Y314993D01*
X65125Y316907D01*
X65272Y318398D01*
D02*
G37*
G36*
X54618D02*
X44965D01*
X45112Y316907D01*
X45692Y314993D01*
X46635Y313229D01*
X47904Y311683D01*
X49450Y310414D01*
X51214Y309472D01*
X53128Y308891D01*
X54618Y308744D01*
Y318398D01*
D02*
G37*
G36*
X413886Y317240D02*
Y307587D01*
X423539D01*
X423392Y309077D01*
X422812Y310991D01*
X421869Y312755D01*
X420600Y314301D01*
X419054Y315570D01*
X417290Y316513D01*
X415376Y317093D01*
X413886Y317240D01*
D02*
G37*
G36*
X412886D02*
X411395Y317093D01*
X409481Y316513D01*
X407718Y315570D01*
X406172Y314301D01*
X404903Y312755D01*
X403960Y310991D01*
X403379Y309077D01*
X403232Y307587D01*
X412886D01*
Y317240D01*
D02*
G37*
G36*
X140000Y301124D02*
Y299500D01*
X141624D01*
X141554Y299851D01*
X141072Y300572D01*
X140351Y301055D01*
X140000Y301124D01*
D02*
G37*
G36*
X139000D02*
X138649Y301055D01*
X137927Y300572D01*
X137445Y299851D01*
X137376Y299500D01*
X139000D01*
Y301124D01*
D02*
G37*
G36*
X423539Y306587D02*
X413886D01*
Y296933D01*
X415376Y297080D01*
X417290Y297661D01*
X419054Y298603D01*
X420600Y299872D01*
X421869Y301418D01*
X422812Y303182D01*
X423392Y305096D01*
X423539Y306587D01*
D02*
G37*
G36*
X412886D02*
X403232D01*
X403379Y305096D01*
X403960Y303182D01*
X404903Y301418D01*
X406172Y299872D01*
X407718Y298603D01*
X409481Y297661D01*
X411395Y297080D01*
X412886Y296933D01*
Y306587D01*
D02*
G37*
G36*
X349606Y317564D02*
X348911Y317426D01*
X348322Y317032D01*
X347929Y316443D01*
X347790Y315748D01*
X347929Y315053D01*
X348322Y314464D01*
X348911Y314070D01*
X349606Y313932D01*
X350301Y314070D01*
X350890Y314464D01*
X350999Y314627D01*
X355835D01*
X376139Y294322D01*
X376101Y294130D01*
X376240Y293435D01*
X376633Y292846D01*
X377222Y292452D01*
X377917Y292314D01*
X378612Y292452D01*
X379201Y292846D01*
X379595Y293435D01*
X379733Y294130D01*
X379595Y294825D01*
X379201Y295414D01*
X378612Y295808D01*
X377917Y295946D01*
X377726Y295908D01*
X357092Y316541D01*
X356728Y316784D01*
X356299Y316870D01*
X356299Y316870D01*
X350999D01*
X350890Y317032D01*
X350301Y317426D01*
X349606Y317564D01*
D02*
G37*
G36*
X141624Y298500D02*
X137376D01*
X137445Y298149D01*
X137927Y297428D01*
X138378Y297126D01*
Y289083D01*
X137927Y288781D01*
X137445Y288060D01*
X137376Y287709D01*
X141624D01*
X141554Y288060D01*
X141072Y288781D01*
X140622Y289083D01*
Y297126D01*
X141072Y297428D01*
X141554Y298149D01*
X141624Y298500D01*
D02*
G37*
G36*
Y286709D02*
X140000D01*
Y285084D01*
X140351Y285154D01*
X141072Y285636D01*
X141554Y286358D01*
X141624Y286709D01*
D02*
G37*
G36*
X139000D02*
X137376D01*
X137445Y286358D01*
X137927Y285636D01*
X138649Y285154D01*
X139000Y285084D01*
Y286709D01*
D02*
G37*
G36*
X225142Y289591D02*
X224471Y289502D01*
X223846Y289244D01*
X223310Y288832D01*
X222898Y288295D01*
X222639Y287670D01*
X222551Y287000D01*
X222639Y286330D01*
X222898Y285705D01*
X223310Y285168D01*
X223846Y284756D01*
X224471Y284498D01*
X225142Y284409D01*
X225812Y284498D01*
X226437Y284756D01*
X226974Y285168D01*
X227385Y285705D01*
X227644Y286330D01*
X227732Y287000D01*
X227644Y287670D01*
X227385Y288295D01*
X226974Y288832D01*
X226437Y289244D01*
X225812Y289502D01*
X225142Y289591D01*
D02*
G37*
G36*
X238142Y316933D02*
X237368Y316831D01*
X236648Y316532D01*
X236029Y316057D01*
X235554Y315439D01*
X235256Y314718D01*
X235154Y313945D01*
X235256Y313172D01*
X235554Y312451D01*
X236029Y311832D01*
X236648Y311357D01*
X237020Y311203D01*
Y278110D01*
X236858Y278002D01*
X236464Y277413D01*
X236326Y276718D01*
X236464Y276023D01*
X236858Y275433D01*
X237447Y275040D01*
X238142Y274902D01*
X238837Y275040D01*
X239426Y275433D01*
X239820Y276023D01*
X239958Y276718D01*
X239820Y277413D01*
X239426Y278002D01*
X239263Y278110D01*
Y311203D01*
X239636Y311357D01*
X240254Y311832D01*
X240729Y312451D01*
X241028Y313172D01*
X241129Y313945D01*
X241028Y314718D01*
X240729Y315439D01*
X240254Y316057D01*
X239636Y316532D01*
X238915Y316831D01*
X238142Y316933D01*
D02*
G37*
G36*
Y231761D02*
X237447Y231623D01*
X236858Y231229D01*
X236464Y230640D01*
X236368Y230159D01*
X235276Y229066D01*
X227457D01*
X227385Y229240D01*
X226974Y229777D01*
X226437Y230188D01*
X225812Y230447D01*
X225142Y230536D01*
X224471Y230447D01*
X223846Y230188D01*
X223310Y229777D01*
X222898Y229240D01*
X222639Y228615D01*
X222551Y227945D01*
X222639Y227274D01*
X222898Y226649D01*
X223310Y226113D01*
X223846Y225701D01*
X224471Y225443D01*
X225142Y225354D01*
X225812Y225443D01*
X226437Y225701D01*
X226974Y226113D01*
X227385Y226649D01*
X227457Y226823D01*
X235740D01*
X235740Y226823D01*
X236169Y226909D01*
X236533Y227152D01*
X237615Y228234D01*
X238142Y228129D01*
X238837Y228267D01*
X239426Y228661D01*
X239820Y229250D01*
X239958Y229945D01*
X239820Y230640D01*
X239426Y231229D01*
X238837Y231623D01*
X238142Y231761D01*
D02*
G37*
G36*
X208642Y327261D02*
X207947Y327123D01*
X207358Y326729D01*
X206964Y326140D01*
X206826Y325445D01*
X206964Y324750D01*
X207358Y324161D01*
X207947Y323767D01*
X208642Y323629D01*
X208834Y323667D01*
X218520Y313980D01*
Y286445D01*
X218520Y286445D01*
X218605Y286016D01*
X218849Y285652D01*
X230520Y273980D01*
Y272508D01*
X230520Y272508D01*
X230606Y272079D01*
X230849Y271715D01*
X279912Y222652D01*
X280276Y222409D01*
X280705Y222323D01*
X280705Y222323D01*
X328658D01*
X330753Y220228D01*
X330842Y219777D01*
X331236Y219188D01*
X331825Y218795D01*
X332520Y218656D01*
X333215Y218795D01*
X333804Y219188D01*
X334198Y219777D01*
X334336Y220472D01*
X334198Y221167D01*
X333804Y221757D01*
X333215Y222150D01*
X332520Y222288D01*
X331973Y222180D01*
X329915Y224238D01*
X329551Y224481D01*
X329122Y224566D01*
X329122Y224566D01*
X281169D01*
X277968Y227768D01*
X278214Y228229D01*
X278716Y228129D01*
X279412Y228267D01*
X280001Y228661D01*
X280109Y228823D01*
X313962D01*
X314070Y228661D01*
X314659Y228267D01*
X315354Y228129D01*
X316049Y228267D01*
X316638Y228661D01*
X316747Y228823D01*
X356065D01*
X356065Y228823D01*
X356494Y228909D01*
X356858Y229152D01*
X357347Y229641D01*
X357616Y229587D01*
X357616Y229587D01*
X375773D01*
X375881Y229425D01*
X376470Y229031D01*
X377165Y228893D01*
X377860Y229031D01*
X378449Y229425D01*
X378843Y230014D01*
X378981Y230709D01*
X378843Y231404D01*
X378449Y231993D01*
X377860Y232386D01*
X377165Y232525D01*
X376470Y232386D01*
X375881Y231993D01*
X375773Y231830D01*
X358081D01*
X358015Y231895D01*
X358015Y231895D01*
X353746Y236165D01*
X353784Y236356D01*
X353646Y237051D01*
X353253Y237640D01*
X352663Y238034D01*
X351969Y238172D01*
X351273Y238034D01*
X350684Y237640D01*
X350291Y237051D01*
X350152Y236356D01*
X350291Y235661D01*
X350684Y235072D01*
X351273Y234679D01*
X351969Y234540D01*
X352160Y234578D01*
X355172Y231566D01*
X354965Y231066D01*
X316747D01*
X316638Y231229D01*
X316049Y231623D01*
X315354Y231761D01*
X314659Y231623D01*
X314070Y231229D01*
X313962Y231066D01*
X280109D01*
X280001Y231229D01*
X279412Y231623D01*
X278716Y231761D01*
X278022Y231623D01*
X277432Y231229D01*
X277039Y230640D01*
X276901Y229945D01*
X277000Y229442D01*
X276540Y229196D01*
X232763Y272972D01*
Y274445D01*
X232678Y274874D01*
X232435Y275238D01*
X232435Y275238D01*
X220763Y286910D01*
Y314445D01*
X220763Y314445D01*
X220678Y314874D01*
X220435Y315238D01*
X210420Y325253D01*
X210458Y325445D01*
X210319Y326140D01*
X209926Y326729D01*
X209337Y327123D01*
X208642Y327261D01*
D02*
G37*
G36*
X295606Y207761D02*
X294911Y207623D01*
X294322Y207229D01*
X294214Y207066D01*
X232142D01*
X232142Y207066D01*
X231713Y206981D01*
X231349Y206738D01*
X231349Y206738D01*
X216849Y192238D01*
X216605Y191874D01*
X216520Y191445D01*
X216520Y191445D01*
Y178838D01*
X216358Y178729D01*
X215964Y178140D01*
X215826Y177445D01*
X215964Y176750D01*
X216358Y176161D01*
X216947Y175767D01*
X217642Y175629D01*
X218337Y175767D01*
X218926Y176161D01*
X219320Y176750D01*
X219458Y177445D01*
X219320Y178140D01*
X218926Y178729D01*
X218763Y178838D01*
Y190980D01*
X232606Y204823D01*
X294214D01*
X294322Y204661D01*
X294911Y204267D01*
X295606Y204129D01*
X296301Y204267D01*
X296890Y204661D01*
X297284Y205250D01*
X297422Y205945D01*
X297284Y206640D01*
X296890Y207229D01*
X296301Y207623D01*
X295606Y207761D01*
D02*
G37*
G36*
X392642Y200592D02*
X391947Y200453D01*
X391358Y200060D01*
X391249Y199897D01*
X354034D01*
X353926Y200060D01*
X353337Y200453D01*
X352642Y200592D01*
X351947Y200453D01*
X351358Y200060D01*
X350964Y199470D01*
X350826Y198776D01*
X350964Y198081D01*
X351358Y197492D01*
X351947Y197098D01*
X352642Y196960D01*
X353337Y197098D01*
X353926Y197492D01*
X354034Y197654D01*
X391249D01*
X391358Y197492D01*
X391947Y197098D01*
X392642Y196960D01*
X393337Y197098D01*
X393926Y197492D01*
X394320Y198081D01*
X394458Y198776D01*
X394320Y199470D01*
X393926Y200060D01*
X393337Y200453D01*
X392642Y200592D01*
D02*
G37*
G36*
X162142Y199366D02*
Y195945D01*
X165563D01*
X165493Y196477D01*
X165094Y197438D01*
X164461Y198264D01*
X163635Y198898D01*
X162674Y199296D01*
X162142Y199366D01*
D02*
G37*
G36*
X161142D02*
X160610Y199296D01*
X159648Y198898D01*
X158823Y198264D01*
X158189Y197438D01*
X157791Y196477D01*
X157721Y195945D01*
X161142D01*
Y199366D01*
D02*
G37*
G36*
X317413Y193496D02*
X315789D01*
X315859Y193145D01*
X316341Y192424D01*
X317062Y191941D01*
X317413Y191872D01*
Y193496D01*
D02*
G37*
G36*
X181642Y199028D02*
X180714Y198906D01*
X179850Y198548D01*
X179108Y197979D01*
X178538Y197237D01*
X178180Y196372D01*
X178058Y195445D01*
X178180Y194517D01*
X178538Y193653D01*
X179108Y192911D01*
X179850Y192342D01*
X180714Y191984D01*
X181642Y191861D01*
X182569Y191984D01*
X183433Y192342D01*
X184176Y192911D01*
X184745Y193653D01*
X185103Y194517D01*
X185225Y195445D01*
X185103Y196372D01*
X184745Y197237D01*
X184176Y197979D01*
X183433Y198548D01*
X182569Y198906D01*
X181642Y199028D01*
D02*
G37*
G36*
X171642D02*
X170714Y198906D01*
X169850Y198548D01*
X169108Y197979D01*
X168538Y197237D01*
X168180Y196372D01*
X168058Y195445D01*
X168180Y194517D01*
X168538Y193653D01*
X169108Y192911D01*
X169850Y192342D01*
X170714Y191984D01*
X171642Y191861D01*
X172569Y191984D01*
X173433Y192342D01*
X174176Y192911D01*
X174745Y193653D01*
X175103Y194517D01*
X175225Y195445D01*
X175103Y196372D01*
X174745Y197237D01*
X174176Y197979D01*
X173433Y198548D01*
X172569Y198906D01*
X171642Y199028D01*
D02*
G37*
G36*
X165563Y194945D02*
X162142D01*
Y191524D01*
X162674Y191594D01*
X163635Y191992D01*
X164461Y192626D01*
X165094Y193451D01*
X165493Y194413D01*
X165563Y194945D01*
D02*
G37*
G36*
X161142D02*
X157721D01*
X157791Y194413D01*
X158189Y193451D01*
X158823Y192626D01*
X159648Y191992D01*
X160610Y191594D01*
X161142Y191524D01*
Y194945D01*
D02*
G37*
G36*
X295642Y193761D02*
X294947Y193623D01*
X294358Y193229D01*
X294249Y193066D01*
X270142D01*
X269712Y192981D01*
X269349Y192738D01*
X269349Y192738D01*
X240677Y164066D01*
X206106D01*
X204661Y165512D01*
X204819Y165750D01*
X204958Y166445D01*
X204819Y167140D01*
X204426Y167729D01*
X203837Y168123D01*
X203142Y168261D01*
X202447Y168123D01*
X201858Y167729D01*
X201464Y167140D01*
X201326Y166445D01*
X201464Y165750D01*
X201858Y165161D01*
X202130Y164979D01*
X202349Y164652D01*
X204849Y162152D01*
X204849Y162152D01*
X205212Y161909D01*
X205642Y161823D01*
X241142D01*
X241142Y161823D01*
X241571Y161909D01*
X241935Y162152D01*
X270606Y190823D01*
X294249D01*
X294358Y190661D01*
X294947Y190267D01*
X295642Y190129D01*
X296337Y190267D01*
X296926Y190661D01*
X297320Y191250D01*
X297458Y191945D01*
X297320Y192640D01*
X296926Y193229D01*
X296337Y193623D01*
X295642Y193761D01*
D02*
G37*
G36*
X271142Y185261D02*
X270447Y185123D01*
X269858Y184729D01*
X269464Y184140D01*
X269326Y183445D01*
X269364Y183253D01*
X243177Y157066D01*
X205034D01*
X204926Y157229D01*
X204337Y157623D01*
X203642Y157761D01*
X202947Y157623D01*
X202358Y157229D01*
X201964Y156640D01*
X201826Y155945D01*
X201964Y155250D01*
X202358Y154661D01*
X202947Y154267D01*
X203642Y154129D01*
X204337Y154267D01*
X204926Y154661D01*
X205034Y154823D01*
X243642D01*
X243642Y154823D01*
X244071Y154909D01*
X244435Y155152D01*
X270950Y181667D01*
X271142Y181629D01*
X271837Y181767D01*
X272426Y182161D01*
X272819Y182750D01*
X272958Y183445D01*
X272819Y184140D01*
X272426Y184729D01*
X271837Y185123D01*
X271142Y185261D01*
D02*
G37*
G36*
X352642Y188781D02*
X351947Y188642D01*
X351358Y188249D01*
X350964Y187660D01*
X350826Y186965D01*
X350964Y186270D01*
X351358Y185680D01*
X351947Y185287D01*
X352642Y185149D01*
X352834Y185187D01*
X356368Y181652D01*
X356368Y181652D01*
X356732Y181409D01*
X357161Y181323D01*
X357161Y181323D01*
X360249D01*
X360358Y181161D01*
X360947Y180767D01*
X361642Y180629D01*
X362337Y180767D01*
X362926Y181161D01*
X363319Y181750D01*
X363458Y182445D01*
X363319Y183140D01*
X362926Y183729D01*
X362337Y184123D01*
X361642Y184261D01*
X360947Y184123D01*
X360358Y183729D01*
X360249Y183566D01*
X357626D01*
X354420Y186773D01*
X354458Y186965D01*
X354320Y187660D01*
X353926Y188249D01*
X353337Y188642D01*
X352642Y188781D01*
D02*
G37*
G36*
X238142Y204178D02*
X237447Y204040D01*
X236858Y203646D01*
X236464Y203057D01*
X236326Y202362D01*
X236464Y201667D01*
X236858Y201078D01*
X237020Y200970D01*
Y171701D01*
X237020Y171701D01*
X237105Y171272D01*
X237349Y170908D01*
X238773Y169483D01*
X238735Y169291D01*
X238873Y168596D01*
X239267Y168007D01*
X239856Y167614D01*
X240551Y167475D01*
X241246Y167614D01*
X241835Y168007D01*
X242229Y168596D01*
X242367Y169291D01*
X242229Y169986D01*
X241835Y170575D01*
X241246Y170969D01*
X240551Y171107D01*
X240359Y171069D01*
X239263Y172165D01*
Y200970D01*
X239426Y201078D01*
X239820Y201667D01*
X239958Y202362D01*
X239820Y203057D01*
X239426Y203646D01*
X238837Y204040D01*
X238142Y204178D01*
D02*
G37*
G36*
X130642Y254784D02*
X129947Y254646D01*
X129358Y254253D01*
X128964Y253663D01*
X128826Y252969D01*
X128964Y252274D01*
X129358Y251684D01*
X129520Y251576D01*
Y245438D01*
X129520Y245438D01*
X129605Y245009D01*
X129849Y244645D01*
X169342Y205152D01*
X169342Y205152D01*
X169706Y204909D01*
X170135Y204823D01*
X185012D01*
X190520Y199315D01*
Y198826D01*
X189850Y198548D01*
X189108Y197979D01*
X188538Y197237D01*
X188180Y196372D01*
X188058Y195445D01*
X188180Y194517D01*
X188538Y193653D01*
X188946Y193122D01*
X188700Y192622D01*
X186029D01*
X185600Y192536D01*
X185236Y192293D01*
X185236Y192293D01*
X174544Y181601D01*
X174353Y181639D01*
X173658Y181501D01*
X173068Y181107D01*
X172675Y180518D01*
X172537Y179823D01*
X172675Y179129D01*
X173068Y178539D01*
X173658Y178146D01*
X174353Y178007D01*
X175048Y178146D01*
X175637Y178539D01*
X176030Y179129D01*
X176169Y179823D01*
X176130Y180015D01*
X186494Y190378D01*
X191642D01*
X192071Y190464D01*
X192435Y190707D01*
X192678Y191071D01*
X192763Y191500D01*
Y192064D01*
X193433Y192342D01*
X194176Y192911D01*
X194745Y193653D01*
X195103Y194517D01*
X195225Y195445D01*
X195103Y196372D01*
X194825Y197043D01*
X196441Y198658D01*
X199172D01*
X199341Y198158D01*
X199108Y197979D01*
X198538Y197237D01*
X198180Y196372D01*
X198058Y195445D01*
X198180Y194517D01*
X198538Y193653D01*
X199108Y192911D01*
X199850Y192342D01*
X200520Y192064D01*
Y184909D01*
X193849Y178238D01*
X193605Y177874D01*
X193520Y177445D01*
X193520Y177445D01*
Y157838D01*
X193358Y157729D01*
X192964Y157140D01*
X192826Y156445D01*
X192964Y155750D01*
X193358Y155161D01*
X193947Y154767D01*
X194642Y154629D01*
X195337Y154767D01*
X195926Y155161D01*
X196319Y155750D01*
X196458Y156445D01*
X196319Y157140D01*
X195926Y157729D01*
X195763Y157838D01*
Y176980D01*
X202435Y183652D01*
X202435Y183652D01*
X202678Y184016D01*
X202763Y184445D01*
Y192064D01*
X203433Y192342D01*
X204176Y192911D01*
X204745Y193653D01*
X205103Y194517D01*
X205225Y195445D01*
X205103Y196372D01*
X204745Y197237D01*
X204176Y197979D01*
X203942Y198158D01*
X204112Y198658D01*
X208197D01*
X211477Y195378D01*
Y177165D01*
X211477Y177165D01*
X211562Y176736D01*
X211805Y176372D01*
X215414Y172764D01*
Y170684D01*
X215251Y170575D01*
X214858Y169986D01*
X214719Y169291D01*
X214858Y168596D01*
X215251Y168007D01*
X215841Y167614D01*
X216535Y167475D01*
X217230Y167614D01*
X217819Y168007D01*
X218213Y168596D01*
X218351Y169291D01*
X218213Y169986D01*
X217819Y170575D01*
X217657Y170684D01*
Y173228D01*
X217657Y173228D01*
X217572Y173658D01*
X217329Y174021D01*
X217329Y174021D01*
X213720Y177630D01*
Y195843D01*
Y197000D01*
X214211Y197098D01*
X214800Y197492D01*
X215194Y198081D01*
X215332Y198776D01*
X215194Y199470D01*
X214800Y200060D01*
X214211Y200453D01*
X213516Y200592D01*
X212821Y200453D01*
X212232Y200060D01*
X211838Y199470D01*
X211743Y198992D01*
X211223Y198804D01*
X209454Y200573D01*
X209091Y200816D01*
X208661Y200901D01*
X208661Y200901D01*
X195976D01*
X195976Y200901D01*
X195547Y200816D01*
X195183Y200573D01*
X193239Y198629D01*
X192763Y198826D01*
Y199779D01*
X192763Y199779D01*
X192678Y200209D01*
X192435Y200573D01*
X192435Y200573D01*
X186269Y206738D01*
X185906Y206981D01*
X185476Y207066D01*
X185476Y207066D01*
X170600D01*
X131763Y245903D01*
Y251576D01*
X131926Y251684D01*
X132319Y252274D01*
X132458Y252969D01*
X132319Y253663D01*
X131926Y254253D01*
X131337Y254646D01*
X130642Y254784D01*
D02*
G37*
G36*
X334642Y153866D02*
Y150445D01*
X338063D01*
X337993Y150977D01*
X337595Y151938D01*
X336961Y152764D01*
X336135Y153398D01*
X335174Y153796D01*
X334642Y153866D01*
D02*
G37*
G36*
X333642D02*
X333110Y153796D01*
X332148Y153398D01*
X331323Y152764D01*
X330689Y151938D01*
X330291Y150977D01*
X330221Y150445D01*
X333642D01*
Y153866D01*
D02*
G37*
G36*
X344142Y153528D02*
X343214Y153406D01*
X342350Y153048D01*
X341608Y152479D01*
X341038Y151737D01*
X340680Y150872D01*
X340558Y149945D01*
X340680Y149017D01*
X341038Y148153D01*
X341608Y147411D01*
X342350Y146842D01*
X343214Y146484D01*
X344142Y146361D01*
X345069Y146484D01*
X345933Y146842D01*
X346676Y147411D01*
X347245Y148153D01*
X347603Y149017D01*
X347725Y149945D01*
X347603Y150872D01*
X347245Y151737D01*
X346676Y152479D01*
X345933Y153048D01*
X345069Y153406D01*
X344142Y153528D01*
D02*
G37*
G36*
X324142D02*
X323214Y153406D01*
X322350Y153048D01*
X321608Y152479D01*
X321038Y151737D01*
X320680Y150872D01*
X320558Y149945D01*
X320680Y149017D01*
X321038Y148153D01*
X321608Y147411D01*
X322350Y146842D01*
X323214Y146484D01*
X324142Y146361D01*
X325069Y146484D01*
X325933Y146842D01*
X326676Y147411D01*
X327245Y148153D01*
X327603Y149017D01*
X327725Y149945D01*
X327603Y150872D01*
X327245Y151737D01*
X326676Y152479D01*
X325933Y153048D01*
X325069Y153406D01*
X324142Y153528D01*
D02*
G37*
G36*
X338063Y149445D02*
X334642D01*
Y146024D01*
X335174Y146094D01*
X336135Y146492D01*
X336961Y147126D01*
X337595Y147951D01*
X337993Y148913D01*
X338063Y149445D01*
D02*
G37*
G36*
X333642D02*
X330221D01*
X330291Y148913D01*
X330689Y147951D01*
X331323Y147126D01*
X332148Y146492D01*
X333110Y146094D01*
X333642Y146024D01*
Y149445D01*
D02*
G37*
G36*
X241142Y143956D02*
X240368Y143854D01*
X239648Y143556D01*
X239029Y143081D01*
X238554Y142462D01*
X238256Y141742D01*
X238154Y140969D01*
X238256Y140195D01*
X238554Y139475D01*
X239029Y138856D01*
X239648Y138381D01*
X240368Y138083D01*
X241142Y137981D01*
X241915Y138083D01*
X242636Y138381D01*
X243254Y138856D01*
X243729Y139475D01*
X244028Y140195D01*
X244129Y140969D01*
X244028Y141742D01*
X243729Y142462D01*
X243254Y143081D01*
X242636Y143556D01*
X241915Y143854D01*
X241142Y143956D01*
D02*
G37*
G36*
X197642Y139611D02*
X196947Y139473D01*
X196358Y139079D01*
X195964Y138490D01*
X195826Y137795D01*
X195864Y137603D01*
X193346Y135086D01*
X170684D01*
X170575Y135249D01*
X169986Y135642D01*
X169291Y135781D01*
X168596Y135642D01*
X168007Y135249D01*
X167614Y134660D01*
X167475Y133965D01*
X167614Y133270D01*
X168007Y132680D01*
X168596Y132287D01*
X169291Y132149D01*
X169986Y132287D01*
X170575Y132680D01*
X170684Y132843D01*
X193811D01*
X193811Y132843D01*
X194240Y132928D01*
X194604Y133171D01*
X197450Y136017D01*
X197642Y135979D01*
X198337Y136117D01*
X198926Y136511D01*
X199320Y137100D01*
X199458Y137795D01*
X199320Y138490D01*
X198926Y139079D01*
X198337Y139473D01*
X197642Y139611D01*
D02*
G37*
G36*
X350642Y130761D02*
X349947Y130623D01*
X349358Y130229D01*
X349249Y130066D01*
X343142D01*
X343142Y130066D01*
X342712Y129981D01*
X342349Y129738D01*
X342349Y129738D01*
X341334Y128723D01*
X341142Y128761D01*
X340447Y128623D01*
X339858Y128229D01*
X339464Y127640D01*
X339326Y126945D01*
X339464Y126250D01*
X339858Y125661D01*
X340447Y125267D01*
X341142Y125129D01*
X341837Y125267D01*
X342426Y125661D01*
X342819Y126250D01*
X342958Y126945D01*
X342920Y127137D01*
X343606Y127823D01*
X349249D01*
X349358Y127661D01*
X349947Y127267D01*
X350642Y127129D01*
X351337Y127267D01*
X351926Y127661D01*
X352320Y128250D01*
X352458Y128945D01*
X352320Y129640D01*
X351926Y130229D01*
X351337Y130623D01*
X350642Y130761D01*
D02*
G37*
G36*
X148642Y160261D02*
X147947Y160123D01*
X147358Y159729D01*
X146964Y159140D01*
X146826Y158445D01*
X146964Y157750D01*
X147358Y157161D01*
X147947Y156767D01*
X148485Y156660D01*
Y146802D01*
X148322Y146694D01*
X147929Y146104D01*
X147790Y145409D01*
X147929Y144714D01*
X148322Y144125D01*
X148485Y144017D01*
Y130386D01*
X141924Y123825D01*
X141732Y123863D01*
X141037Y123725D01*
X140448Y123331D01*
X140055Y122742D01*
X139916Y122047D01*
X140055Y121352D01*
X140448Y120763D01*
X141037Y120370D01*
X141732Y120231D01*
X141924Y120269D01*
X160624Y101569D01*
X160988Y101326D01*
X161417Y101241D01*
X161417Y101241D01*
X172764D01*
X179868Y94137D01*
X179830Y93945D01*
X179968Y93250D01*
X180362Y92661D01*
X180951Y92267D01*
X181646Y92129D01*
X182341Y92267D01*
X182930Y92661D01*
X183323Y93250D01*
X183462Y93945D01*
X183323Y94640D01*
X182930Y95229D01*
X182341Y95623D01*
X181646Y95761D01*
X181454Y95723D01*
X174021Y103155D01*
X173658Y103398D01*
X173228Y103484D01*
X173228Y103484D01*
X161882D01*
X143510Y121855D01*
X143548Y122047D01*
X143510Y122239D01*
X150399Y129128D01*
X150399Y129128D01*
X150643Y129492D01*
X150728Y129921D01*
X150728Y129921D01*
Y144017D01*
X150890Y144125D01*
X151284Y144714D01*
X151422Y145409D01*
X151284Y146104D01*
X150890Y146694D01*
X150728Y146802D01*
Y157480D01*
X150728Y157480D01*
X150643Y157910D01*
X150418Y158245D01*
X150458Y158445D01*
X150320Y159140D01*
X149926Y159729D01*
X149337Y160123D01*
X148642Y160261D01*
D02*
G37*
G36*
X220472Y127611D02*
X219777Y127473D01*
X219188Y127079D01*
X218795Y126490D01*
X218656Y125795D01*
X218795Y125100D01*
X219188Y124511D01*
X219351Y124402D01*
Y120969D01*
X219351Y120968D01*
X219436Y120539D01*
X219679Y120175D01*
X234349Y105506D01*
X234349Y105506D01*
X234713Y105263D01*
X235142Y105178D01*
X235142Y105178D01*
X249740D01*
X251710Y103208D01*
X251464Y102841D01*
X251326Y102146D01*
X251464Y101451D01*
X251858Y100862D01*
X252447Y100468D01*
X253142Y100330D01*
X253837Y100468D01*
X254426Y100862D01*
X254819Y101451D01*
X254958Y102146D01*
X254819Y102841D01*
X254426Y103430D01*
X254223Y103565D01*
X254178Y103791D01*
X253935Y104155D01*
X250998Y107092D01*
X250634Y107335D01*
X250205Y107421D01*
X250205Y107421D01*
X235606D01*
X221594Y121433D01*
Y124402D01*
X221757Y124511D01*
X222150Y125100D01*
X222288Y125795D01*
X222150Y126490D01*
X221757Y127079D01*
X221167Y127473D01*
X220472Y127611D01*
D02*
G37*
G36*
X413886Y81020D02*
Y71366D01*
X423539D01*
X423392Y72857D01*
X422812Y74770D01*
X421869Y76534D01*
X420600Y78080D01*
X419054Y79349D01*
X417290Y80292D01*
X415376Y80873D01*
X413886Y81020D01*
D02*
G37*
G36*
X412886D02*
X411395Y80873D01*
X409481Y80292D01*
X407718Y79349D01*
X406172Y78080D01*
X404903Y76534D01*
X403960Y74770D01*
X403379Y72857D01*
X403232Y71366D01*
X412886D01*
Y81020D01*
D02*
G37*
G36*
X79240D02*
Y71366D01*
X88894D01*
X88747Y72857D01*
X88166Y74770D01*
X87223Y76534D01*
X85954Y78080D01*
X84408Y79349D01*
X82645Y80292D01*
X80731Y80873D01*
X79240Y81020D01*
D02*
G37*
G36*
X78240D02*
X76750Y80873D01*
X74836Y80292D01*
X73072Y79349D01*
X71526Y78080D01*
X70257Y76534D01*
X69314Y74770D01*
X68734Y72857D01*
X68587Y71366D01*
X78240D01*
Y81020D01*
D02*
G37*
G36*
X423539Y70366D02*
X413886D01*
Y60713D01*
X415376Y60860D01*
X417290Y61440D01*
X419054Y62383D01*
X420600Y63652D01*
X421869Y65198D01*
X422812Y66962D01*
X423392Y68876D01*
X423539Y70366D01*
D02*
G37*
G36*
X412886D02*
X403232D01*
X403379Y68876D01*
X403960Y66962D01*
X404903Y65198D01*
X406172Y63652D01*
X407718Y62383D01*
X409481Y61440D01*
X411395Y60860D01*
X412886Y60713D01*
Y70366D01*
D02*
G37*
G36*
X88894D02*
X79240D01*
Y60713D01*
X80731Y60860D01*
X82645Y61440D01*
X84408Y62383D01*
X85954Y63652D01*
X87223Y65198D01*
X88166Y66962D01*
X88747Y68876D01*
X88894Y70366D01*
D02*
G37*
G36*
X78240D02*
X68587D01*
X68734Y68876D01*
X69314Y66962D01*
X70257Y65198D01*
X71526Y63652D01*
X73072Y62383D01*
X74836Y61440D01*
X76750Y60860D01*
X78240Y60713D01*
Y70366D01*
D02*
G37*
%LPD*%
G36*
X328507Y196824D02*
X330567Y194764D01*
Y182078D01*
X330405Y181969D01*
X330011Y181380D01*
X329873Y180685D01*
X329917Y180463D01*
X329456Y180216D01*
X327763Y181909D01*
Y194052D01*
X327926Y194161D01*
X328320Y194750D01*
X328458Y195445D01*
X328320Y196140D01*
X328167Y196368D01*
X328236Y196555D01*
X328461Y196828D01*
X328507Y196824D01*
D02*
G37*
%LPC*%
G36*
X91142Y183624D02*
X90791Y183554D01*
X90069Y183072D01*
X89768Y182622D01*
X86141D01*
X85493Y183054D01*
X85142Y183124D01*
Y181000D01*
Y178876D01*
X85493Y178946D01*
X86214Y179428D01*
X86696Y180149D01*
X86742Y180378D01*
X89768D01*
X90069Y179928D01*
X90791Y179446D01*
X91142Y179376D01*
Y181500D01*
Y183624D01*
D02*
G37*
G36*
X92142D02*
Y182000D01*
X93766D01*
X93696Y182351D01*
X93214Y183072D01*
X92493Y183554D01*
X92142Y183624D01*
D02*
G37*
G36*
X84142Y183124D02*
X83791Y183054D01*
X83069Y182572D01*
X82587Y181851D01*
X82517Y181500D01*
X84142D01*
Y183124D01*
D02*
G37*
G36*
X93766Y181000D02*
X92142D01*
Y179376D01*
X92493Y179446D01*
X93214Y179928D01*
X93696Y180649D01*
X93766Y181000D01*
D02*
G37*
G36*
X84142Y180500D02*
X82517D01*
X82587Y180149D01*
X83069Y179428D01*
X83791Y178946D01*
X84142Y178876D01*
Y180500D01*
D02*
G37*
%LPD*%
D13*
X271862Y397929D02*
X278716Y391074D01*
X270079Y397929D02*
X271862D01*
X278716Y390976D02*
Y391074D01*
X315354Y229945D02*
X356065D01*
X278716D02*
X315354D01*
X357222Y231102D02*
X357616Y230709D01*
X351969Y236356D02*
X357222Y231102D01*
X356065Y229945D02*
X357222Y231102D01*
X357616Y230709D02*
X377165D01*
X303142Y424445D02*
X320142Y407445D01*
X349606Y315748D02*
X356299D01*
X377917Y294130D01*
X285827Y165354D02*
X288189D01*
X278346Y172835D02*
X285827Y165354D01*
X238142Y171701D02*
X240551Y169291D01*
X238142Y171701D02*
Y202362D01*
X268110Y369291D02*
X274016D01*
X265291Y366472D02*
X268110Y369291D01*
X207543Y366472D02*
X265291D01*
X154268Y374571D02*
X162142Y382445D01*
X308642Y365398D02*
Y374571D01*
Y365398D02*
X309642Y364398D01*
X307776Y374571D02*
X308642D01*
X288445Y393902D02*
X307776Y374571D01*
X288445Y393902D02*
Y400945D01*
X85142Y181500D02*
X91642D01*
X100205Y178945D02*
X104250Y182990D01*
X104178Y191409D02*
X104250D01*
X90551Y205035D02*
X104178Y191409D01*
X104250Y182990D02*
Y191409D01*
X321142Y194945D02*
X321539D01*
X315299Y200787D02*
X321142Y194945D01*
X293142Y412945D02*
X304334Y401753D01*
Y386990D02*
Y401753D01*
X325066Y178869D02*
X325524D01*
X273142Y126945D02*
X325066Y178869D01*
X332095Y220472D02*
X332520D01*
X329122Y223445D02*
X332095Y220472D01*
X266142Y106299D02*
Y118898D01*
X271689Y124445D01*
X250362Y90519D02*
X266142Y106299D01*
X253142Y102146D02*
Y103362D01*
X250205Y106299D02*
X253142Y103362D01*
X339370Y163347D02*
X352772Y149945D01*
X340374Y164350D02*
X340413D01*
X339370Y163347D02*
X340374Y164350D01*
X238142Y276718D02*
Y313945D01*
X280705Y223445D02*
X329122D01*
X231642Y272508D02*
X280705Y223445D01*
X231642Y272508D02*
Y274445D01*
X237740Y229945D02*
X238142D01*
X235740Y227945D02*
X237740Y229945D01*
X225142Y227945D02*
X235740D01*
X181646Y271654D02*
X188976D01*
X164642Y254650D02*
X181646Y271654D01*
X164642Y219225D02*
Y254650D01*
Y219225D02*
X166922Y216945D01*
X236142D01*
X241642Y211445D01*
X238142Y110236D02*
Y120445D01*
X235142Y106299D02*
X250205D01*
X220472Y120968D02*
X235142Y106299D01*
X220472Y120968D02*
Y125795D01*
X238142Y120445D02*
X244142Y126445D01*
X309642Y364398D02*
X310221D01*
X351449Y350394D02*
X352000Y350945D01*
X336004Y350394D02*
X351449D01*
X158500Y374945D02*
X168595D01*
X114173Y348445D02*
Y355232D01*
X121862Y362921D01*
Y371571D01*
X153955Y374884D02*
Y375084D01*
Y374258D02*
Y374884D01*
Y375084D02*
Y375596D01*
X149606Y379945D02*
X153955Y375596D01*
X126484Y379945D02*
X149606D01*
X116547Y370008D02*
X126484Y379945D01*
X108642Y370008D02*
X116547D01*
X153955Y374258D02*
X156642Y371571D01*
X153955Y374884D02*
X154268Y374571D01*
X111827Y422882D02*
X118134Y416575D01*
X96110Y422882D02*
X111827D01*
X60642Y387413D02*
X96110Y422882D01*
X60642Y351398D02*
Y387413D01*
X158736Y387382D02*
X164024D01*
X166405Y389764D01*
X152721Y362205D02*
X153642D01*
X148594Y366331D02*
X152721Y362205D01*
X148594Y366331D02*
Y374945D01*
X231780Y372398D02*
X235142Y375760D01*
X200087Y372398D02*
X231780D01*
X196799Y375685D02*
X200087Y372398D01*
X238142Y427386D02*
X240256Y429500D01*
X238142Y424945D02*
Y427386D01*
X231410Y418213D02*
X238142Y424945D01*
X225740Y418213D02*
X231410D01*
X216976Y409449D02*
X225740Y418213D01*
X212598Y409449D02*
X216976D01*
X208661Y405512D02*
X212598Y409449D01*
X208661Y397638D02*
Y405512D01*
X200787Y389764D02*
X208661Y397638D01*
X166405Y389764D02*
X200787D01*
X240256Y429500D02*
X350500D01*
X185752Y405685D02*
X196799D01*
X180012Y399945D02*
X185752Y405685D01*
X147331Y399945D02*
X180012D01*
X129831Y382445D02*
X147331Y399945D01*
X115642Y382445D02*
X129831D01*
X99480Y366284D02*
X115642Y382445D01*
X82205Y366284D02*
X99480D01*
X190563Y409449D02*
X196799Y415685D01*
X164642Y409449D02*
X190563D01*
X160138Y404945D02*
X164642Y409449D01*
X148594Y404945D02*
X160138D01*
X98134Y406575D02*
X103134Y401575D01*
X130642D01*
X137150Y408083D01*
X141732D01*
X148594Y414945D01*
X122823Y422882D02*
X173264D01*
X118134Y418193D02*
X122823Y422882D01*
X118134Y416575D02*
Y418193D01*
X173264Y422882D02*
X219142D01*
X168595Y418213D02*
X173264Y422882D01*
X168595Y414945D02*
Y418213D01*
X216799Y415685D02*
Y419764D01*
X219142Y422106D01*
Y422882D01*
X229461Y409449D02*
X235142Y415130D01*
X220563Y409449D02*
X229461D01*
X216799Y405685D02*
X220563Y409449D01*
X216799Y395685D02*
Y405685D01*
Y375685D02*
Y395685D01*
X98134Y416148D02*
Y416575D01*
X91435Y409449D02*
X98134Y416148D01*
X91435Y393238D02*
Y409449D01*
X74642Y376445D02*
X91435Y393238D01*
X269967Y133270D02*
X316976Y180279D01*
X253935Y133270D02*
X269967D01*
X170135Y205945D02*
X185476D01*
X130642Y245438D02*
X170135Y205945D01*
X130642Y245438D02*
Y252969D01*
X75736Y357606D02*
Y359814D01*
X82205Y366284D01*
X191642Y191500D02*
Y195445D01*
X195976Y199779D01*
X208661D01*
X186029Y191500D02*
X191642D01*
X174353Y179823D02*
X186029Y191500D01*
X139500Y287209D02*
Y299000D01*
Y286910D02*
Y287209D01*
X84642Y181000D02*
X85142Y181500D01*
X335500Y178626D02*
X369327D01*
X369453Y178500D01*
X370142Y179189D01*
X316976Y180279D02*
X322000D01*
X350500Y429500D02*
X352000Y428000D01*
X368587Y431500D02*
X383642Y416445D01*
X236697Y431500D02*
X368587D01*
X228079Y422882D02*
X236697Y431500D01*
X352000Y428000D02*
X367000D01*
X379142Y415858D01*
Y392358D02*
Y415858D01*
X326000Y338098D02*
Y343500D01*
X320000Y349500D02*
X326000Y343500D01*
X320000Y349500D02*
Y367500D01*
X308500Y379000D02*
X320000Y367500D01*
X306500Y379000D02*
X308500D01*
X301500Y384000D02*
X306500Y379000D01*
X301500Y384000D02*
Y387000D01*
X301000Y387500D02*
X301500Y387000D01*
X349642Y399945D02*
Y404945D01*
X348142Y406445D02*
X349642Y404945D01*
X348142Y406445D02*
Y423445D01*
X303142Y424445D02*
X305697Y427000D01*
X341000D01*
X344555Y423445D01*
X348142D01*
X320142Y398445D02*
Y407445D01*
X352642Y198776D02*
X392642D01*
X341142Y126945D02*
X343142Y128945D01*
X350642D01*
X352772Y149945D02*
X354142D01*
X307909Y208177D02*
X315299Y200787D01*
X331689Y180685D02*
Y195228D01*
Y180445D02*
Y180685D01*
X315299Y200787D02*
X326130D01*
X331689Y195228D01*
X360307Y149945D02*
X364142D01*
X333307Y176945D02*
X360307Y149945D01*
X331142Y176945D02*
X333307D01*
X299213Y208177D02*
X307909D01*
X212598Y197858D02*
X213516Y198776D01*
X212598Y195843D02*
Y197858D01*
X213516Y198776D02*
Y199169D01*
X173228Y102362D02*
X181646Y93945D01*
X161417Y102362D02*
X173228D01*
X141732Y122047D02*
X161417Y102362D01*
X193811Y133965D02*
X197642Y137795D01*
X169291Y133965D02*
X193811D01*
X216535Y169291D02*
Y173228D01*
X212598Y177165D02*
X216535Y173228D01*
X212598Y177165D02*
Y195843D01*
X208661Y199779D02*
X212598Y195843D01*
X191642Y195445D02*
Y199779D01*
X185476Y205945D02*
X191642Y199779D01*
X141732Y122047D02*
X149606Y129921D01*
Y145409D01*
Y157480D01*
X148642Y158445D02*
X149606Y157480D01*
X98425Y178945D02*
X100205D01*
X90551Y205035D02*
Y236221D01*
X302142Y296445D02*
X320142Y314445D01*
X250642Y296445D02*
X302142D01*
X389135Y374945D02*
Y379451D01*
X383642Y384945D02*
X389135Y379451D01*
X383642Y384945D02*
Y416445D01*
X219142Y422882D02*
X228079D01*
X169642Y320445D02*
Y327445D01*
X173642Y331445D01*
Y339445D01*
X181642Y342445D02*
X184642Y345445D01*
X176642Y342445D02*
X181642D01*
X173642Y339445D02*
X176642Y342445D01*
X161736Y324228D02*
Y340445D01*
X161642Y324134D02*
X161736Y324228D01*
X161642Y324134D02*
X161736Y324039D01*
X330985Y216945D02*
X332106Y215823D01*
X161642Y323945D02*
X161736Y324039D01*
X119142Y338445D02*
X124689Y343992D01*
X92142Y338445D02*
X119142D01*
X241642Y211445D02*
X340142D01*
X341142Y212445D01*
X232142Y205945D02*
X295606D01*
X217642Y191445D02*
X232142Y205945D01*
X321142Y161445D02*
X322642Y162945D01*
X315642Y161445D02*
X321142D01*
X278642Y124445D02*
X315642Y161445D01*
X271689Y124445D02*
X278642D01*
X357161Y182445D02*
X361642D01*
X352642Y186965D02*
X357161Y182445D01*
X246642Y142445D02*
X269642D01*
X311094Y183898D01*
X322642D01*
X248142Y127142D02*
X272945D01*
X273142Y126945D01*
X219642Y286445D02*
X231642Y274445D01*
X219642Y286445D02*
Y314445D01*
X208642Y325445D02*
X219642Y314445D01*
X326642Y181445D02*
Y195445D01*
Y181445D02*
X331142Y176945D01*
X332106Y215823D02*
Y216339D01*
X268642Y216945D02*
X330985D01*
X161642Y323945D02*
X268642Y216945D01*
X134642Y338445D02*
X259142Y213945D01*
X329142D01*
X60642Y351398D02*
X77642Y334398D01*
Y271945D02*
Y334398D01*
X318642Y139945D02*
X370642D01*
X316142Y142445D02*
X318642Y139945D01*
X370642D02*
X392642Y161945D01*
X371661Y344492D02*
Y349378D01*
X359095Y361945D02*
X371661Y349378D01*
X331142Y332945D02*
X342189Y343992D01*
X356842D01*
X116142Y188445D02*
X146642D01*
X102142Y202445D02*
X116142Y188445D01*
X201642Y184445D02*
Y195445D01*
X194642Y156445D02*
Y177445D01*
X201642Y184445D01*
X183642Y151445D02*
X254142D01*
X146642Y188445D02*
X183642Y151445D01*
X203642Y155945D02*
X243642D01*
X271142Y183445D01*
X241142Y162945D02*
X270142Y191945D01*
X205642Y162945D02*
X241142D01*
X203142Y165445D02*
X205642Y162945D01*
X203142Y165445D02*
Y166445D01*
X217642Y177445D02*
Y191445D01*
X270142Y191945D02*
X295642D01*
X316142Y142445D02*
Y154445D01*
X320642Y158945D01*
X327474D01*
X392642Y161945D02*
Y162445D01*
X293142Y412945D02*
Y424445D01*
X325142Y379945D02*
X328142Y382945D01*
Y399945D01*
X338142Y409945D01*
Y423445D01*
X325642Y350945D02*
X328642Y353945D01*
Y364945D01*
X331689Y367992D01*
Y372398D01*
X332642Y361945D02*
X359095D01*
X156642Y324945D02*
Y371571D01*
X198642Y382445D02*
X203705Y377382D01*
X162142Y382445D02*
X198642D01*
D82*
X118134Y396575D02*
D03*
Y406575D02*
D03*
Y416575D02*
D03*
X98134D02*
D03*
Y406575D02*
D03*
Y396575D02*
D03*
Y376575D02*
D03*
X118134D02*
D03*
X216799Y395685D02*
D03*
Y405685D02*
D03*
Y415685D02*
D03*
X196799D02*
D03*
Y405685D02*
D03*
Y395685D02*
D03*
Y375685D02*
D03*
X216799D02*
D03*
X168595Y374945D02*
D03*
X148594D02*
D03*
Y394945D02*
D03*
Y404945D02*
D03*
Y414945D02*
D03*
X168595D02*
D03*
Y404945D02*
D03*
Y394945D02*
D03*
D83*
X84642Y370445D02*
D03*
X183642Y363398D02*
D03*
X138142Y372445D02*
D03*
X164642Y219225D02*
D03*
X238142Y313945D02*
D03*
X366142Y421945D02*
D03*
X261642Y424945D02*
D03*
X241142Y140969D02*
D03*
X244142Y126445D02*
D03*
X249142Y133945D02*
D03*
D84*
X180642Y416130D02*
D03*
Y376760D02*
D03*
X130142Y415130D02*
D03*
Y375760D02*
D03*
X364142Y149945D02*
D03*
X354142D02*
D03*
X344142D02*
D03*
X334142D02*
D03*
X324142D02*
D03*
X201642Y195445D02*
D03*
X191642D02*
D03*
X181642D02*
D03*
X171642D02*
D03*
X161642D02*
D03*
X235142Y375760D02*
D03*
Y415130D02*
D03*
D85*
X55118Y318898D02*
D03*
X78740Y70866D02*
D03*
X413386D02*
D03*
Y307087D02*
D03*
D86*
X303142Y423445D02*
D03*
X293142D02*
D03*
X283142D02*
D03*
X348142D02*
D03*
X338142D02*
D03*
X328142D02*
D03*
D87*
X225142Y287000D02*
D03*
Y227945D02*
D03*
D88*
X270079Y397929D02*
D03*
X278716Y390976D02*
D03*
X315354Y229945D02*
D03*
X278716D02*
D03*
X377165Y230709D02*
D03*
X351969Y236356D02*
D03*
X349606Y315748D02*
D03*
X377917Y294130D02*
D03*
X288189Y165354D02*
D03*
X278346Y172835D02*
D03*
X240551Y169291D02*
D03*
X238142Y202362D02*
D03*
X274016Y369291D02*
D03*
X207543Y366472D02*
D03*
X288445Y400945D02*
D03*
X91642Y181500D02*
D03*
X104250Y191409D02*
D03*
X321539Y194945D02*
D03*
X304334Y386990D02*
D03*
X325524Y178869D02*
D03*
X332520Y220472D02*
D03*
X250362Y90519D02*
D03*
X253142Y102146D02*
D03*
X340413Y164350D02*
D03*
X238142Y276718D02*
D03*
Y229945D02*
D03*
X188976Y271654D02*
D03*
X238142Y110236D02*
D03*
X310221Y364398D02*
D03*
X352000Y350945D02*
D03*
X336004Y350394D02*
D03*
X158500Y374945D02*
D03*
X114173Y348445D02*
D03*
X121862Y371571D02*
D03*
X153955Y375084D02*
D03*
X108642Y370008D02*
D03*
X158736Y387382D02*
D03*
X153642Y362205D02*
D03*
X253935Y133270D02*
D03*
X317913Y193996D02*
D03*
X174353Y179823D02*
D03*
X139500Y287209D02*
D03*
X84642Y181000D02*
D03*
X139500Y299000D02*
D03*
X335500Y178626D02*
D03*
X322000Y180279D02*
D03*
X295606Y205945D02*
D03*
X379142Y392358D02*
D03*
X326000Y338098D02*
D03*
X301000Y387500D02*
D03*
X349642Y399945D02*
D03*
X320142Y398445D02*
D03*
X352642Y198776D02*
D03*
X392642D02*
D03*
X220472Y125795D02*
D03*
X341142Y126945D02*
D03*
X350642Y128945D02*
D03*
X331689Y180685D02*
D03*
X370142Y179189D02*
D03*
X299213Y208177D02*
D03*
X213516Y198776D02*
D03*
X181646Y93945D02*
D03*
X197642Y137795D02*
D03*
X169291Y133965D02*
D03*
X216535Y169291D02*
D03*
X130642Y252969D02*
D03*
X141732Y122047D02*
D03*
X149606Y145409D02*
D03*
X148642Y158445D02*
D03*
X98425Y178945D02*
D03*
X90551Y236221D02*
D03*
X75736Y357606D02*
D03*
X308642Y374571D02*
D03*
X320142Y314445D02*
D03*
X250642Y296445D02*
D03*
X389135Y374945D02*
D03*
X169642Y320445D02*
D03*
X184642Y345445D02*
D03*
X173642Y339445D02*
D03*
X161736Y340445D02*
D03*
X124689Y343992D02*
D03*
X92142Y338445D02*
D03*
X341142Y212445D02*
D03*
X322642Y162945D02*
D03*
X361642Y182445D02*
D03*
X352642Y186965D02*
D03*
X246642Y142445D02*
D03*
X322642Y183898D02*
D03*
X248142Y127142D02*
D03*
X326642Y195445D02*
D03*
X332106Y216339D02*
D03*
X208642Y325445D02*
D03*
X134642Y338445D02*
D03*
X329142Y213945D02*
D03*
X77642Y271945D02*
D03*
X74642Y376445D02*
D03*
X371661Y344492D02*
D03*
X356842Y343992D02*
D03*
X102142Y202445D02*
D03*
X194642Y156445D02*
D03*
X254142Y151445D02*
D03*
X203642Y155945D02*
D03*
X203142Y166445D02*
D03*
X271142Y183445D02*
D03*
X217642Y177445D02*
D03*
X327474Y158945D02*
D03*
X392642Y162445D02*
D03*
X219142Y422882D02*
D03*
X295642Y191945D02*
D03*
X325142Y379945D02*
D03*
X325642Y350945D02*
D03*
X331689Y372398D02*
D03*
X332642Y361945D02*
D03*
X331142Y332945D02*
D03*
X156642Y324945D02*
D03*
X203705Y377382D02*
D03*
M02*
