G04*
G04 #@! TF.GenerationSoftware,Altium Limited,Altium Designer,19.0.14 (431)*
G04*
G04 Layer_Color=8388736*
%FSLAX25Y25*%
%MOIN*%
G70*
G01*
G75*
%ADD19R,0.03550X0.03353*%
%ADD20R,0.03353X0.03550*%
%ADD21R,0.05124X0.03943*%
%ADD22R,0.03943X0.05124*%
%ADD23R,0.02959X0.04731*%
%ADD24R,0.16148X0.08274*%
%ADD25R,0.12211X0.04337*%
%ADD26R,0.08274X0.16148*%
%ADD27R,0.04337X0.12211*%
%ADD28R,0.03156X0.03943*%
%ADD29R,0.04337X0.02762*%
%ADD30R,0.03943X0.03156*%
%ADD31R,0.04731X0.02959*%
%ADD32R,0.02762X0.06502*%
%ADD33O,0.01581X0.06699*%
%ADD34O,0.06699X0.01581*%
%ADD35R,0.01975X0.02959*%
%ADD36R,0.14573X0.05124*%
%ADD37R,0.05124X0.05124*%
%ADD38R,0.09652X0.20479*%
%ADD39R,0.02565X0.03550*%
%ADD40R,0.06502X0.02762*%
%ADD41O,0.01581X0.08668*%
%ADD42O,0.08668X0.01581*%
%ADD43R,0.05124X0.05124*%
%ADD44R,0.05124X0.14573*%
%ADD45R,0.12211X0.03156*%
%ADD46O,0.06109X0.02762*%
%ADD47C,0.03943*%
%ADD48C,0.05124*%
%ADD49C,0.06306*%
%ADD50C,0.18707*%
%ADD51C,0.03943*%
%ADD52C,0.04337*%
%ADD53C,0.02762*%
D19*
X235634Y338945D02*
D03*
X229728D02*
D03*
X185613Y311024D02*
D03*
X191518D02*
D03*
X247047Y85965D02*
D03*
X241142D02*
D03*
X114547Y342445D02*
D03*
X108642D02*
D03*
X291122Y400945D02*
D03*
X297028D02*
D03*
X318000Y362205D02*
D03*
X312094D02*
D03*
X307268Y332945D02*
D03*
X313173D02*
D03*
X144595Y153445D02*
D03*
X138689D02*
D03*
X144595Y158445D02*
D03*
X138689D02*
D03*
Y162945D02*
D03*
X144595D02*
D03*
X144095Y133205D02*
D03*
X138189D02*
D03*
X247236Y102146D02*
D03*
X253142D02*
D03*
X235768Y91045D02*
D03*
X229862D02*
D03*
X373189Y124039D02*
D03*
X379095D02*
D03*
X385705Y104400D02*
D03*
X379799D02*
D03*
X145473Y316646D02*
D03*
X139567D02*
D03*
X111594Y316445D02*
D03*
X105689D02*
D03*
X375961Y372445D02*
D03*
X381866D02*
D03*
X296654Y144488D02*
D03*
X302559D02*
D03*
X271925Y141378D02*
D03*
X266020D02*
D03*
X261221Y110236D02*
D03*
X267126D02*
D03*
X131194Y235945D02*
D03*
X137100D02*
D03*
X347689Y100545D02*
D03*
X353594D02*
D03*
X343689Y381445D02*
D03*
X349594D02*
D03*
X332480Y103937D02*
D03*
X326575D02*
D03*
X310142Y342539D02*
D03*
X304236D02*
D03*
X389059Y201902D02*
D03*
X383154D02*
D03*
X366366Y160658D02*
D03*
X360461D02*
D03*
X339189Y402445D02*
D03*
X345094D02*
D03*
X131194Y242445D02*
D03*
X137100D02*
D03*
X144595Y148445D02*
D03*
X138689D02*
D03*
X144095Y127945D02*
D03*
X138189D02*
D03*
X219689Y129945D02*
D03*
X225594D02*
D03*
X374095Y104602D02*
D03*
X368189D02*
D03*
X145473Y309842D02*
D03*
X139567D02*
D03*
X266067Y146496D02*
D03*
X271972D02*
D03*
X317094Y357205D02*
D03*
X311189D02*
D03*
X384819Y365685D02*
D03*
X378913D02*
D03*
X387992Y151575D02*
D03*
X393898D02*
D03*
X131694Y229945D02*
D03*
X137600D02*
D03*
D20*
X120866Y309646D02*
D03*
Y315551D02*
D03*
X352000Y351700D02*
D03*
Y357606D02*
D03*
X218642Y329992D02*
D03*
Y335898D02*
D03*
X169642Y350811D02*
D03*
Y344905D02*
D03*
X138689Y137992D02*
D03*
Y143898D02*
D03*
X322835Y395850D02*
D03*
Y389945D02*
D03*
X216535Y199803D02*
D03*
Y193898D02*
D03*
X84642Y191886D02*
D03*
Y185980D02*
D03*
X349594Y321992D02*
D03*
Y327898D02*
D03*
X332622Y246850D02*
D03*
Y240945D02*
D03*
X394142Y209992D02*
D03*
Y215898D02*
D03*
X95142Y177992D02*
D03*
Y183898D02*
D03*
X101189Y189492D02*
D03*
Y195398D02*
D03*
X144642Y118445D02*
D03*
Y112539D02*
D03*
X139142Y118404D02*
D03*
Y112498D02*
D03*
X132642Y111992D02*
D03*
Y117898D02*
D03*
X161736Y116945D02*
D03*
Y111039D02*
D03*
X181051Y97039D02*
D03*
Y102945D02*
D03*
X175642Y102398D02*
D03*
Y96492D02*
D03*
X143547Y143398D02*
D03*
Y137492D02*
D03*
X243122Y104596D02*
D03*
Y98691D02*
D03*
X220622Y112549D02*
D03*
Y106644D02*
D03*
X385142Y110649D02*
D03*
Y116555D02*
D03*
X235642Y348445D02*
D03*
Y342539D02*
D03*
X241142D02*
D03*
Y348445D02*
D03*
X185142Y337850D02*
D03*
Y331945D02*
D03*
X179083D02*
D03*
Y337850D02*
D03*
X360236Y238779D02*
D03*
Y244685D02*
D03*
X365370D02*
D03*
Y238779D02*
D03*
X370472Y258661D02*
D03*
Y252756D02*
D03*
X378740Y253162D02*
D03*
Y259067D02*
D03*
X326772Y240748D02*
D03*
Y246654D02*
D03*
X338142Y260827D02*
D03*
Y254921D02*
D03*
X344142Y256115D02*
D03*
Y262020D02*
D03*
X295721Y236402D02*
D03*
Y242307D02*
D03*
X300992Y241929D02*
D03*
Y236024D02*
D03*
X308268Y257150D02*
D03*
Y251244D02*
D03*
X320866Y251496D02*
D03*
Y257402D02*
D03*
X275142Y356287D02*
D03*
Y350382D02*
D03*
X269142Y356287D02*
D03*
Y350382D02*
D03*
X293142Y367350D02*
D03*
Y361445D02*
D03*
X284252Y351772D02*
D03*
Y345866D02*
D03*
X311236Y165398D02*
D03*
Y159492D02*
D03*
X306642D02*
D03*
Y165398D02*
D03*
X289764Y142185D02*
D03*
Y136279D02*
D03*
X280142Y161850D02*
D03*
Y155945D02*
D03*
X275142Y161850D02*
D03*
Y155945D02*
D03*
X158595Y279350D02*
D03*
Y285256D02*
D03*
X321142Y126124D02*
D03*
Y132029D02*
D03*
X343307Y76378D02*
D03*
Y82284D02*
D03*
X261024Y381425D02*
D03*
Y387331D02*
D03*
X340142Y321398D02*
D03*
Y315492D02*
D03*
X315094Y349350D02*
D03*
Y343445D02*
D03*
X333642Y314992D02*
D03*
Y320898D02*
D03*
X265323Y387331D02*
D03*
Y381425D02*
D03*
X218642Y348350D02*
D03*
Y342445D02*
D03*
X164689Y345492D02*
D03*
Y351398D02*
D03*
X108642Y353764D02*
D03*
Y347858D02*
D03*
X197142Y350398D02*
D03*
Y344492D02*
D03*
X146142Y343992D02*
D03*
Y349898D02*
D03*
X86642Y343945D02*
D03*
Y349850D02*
D03*
X374701Y208949D02*
D03*
Y214854D02*
D03*
X270047Y387331D02*
D03*
Y381425D02*
D03*
X256693D02*
D03*
Y387331D02*
D03*
X113142Y286992D02*
D03*
Y292898D02*
D03*
X165142Y279492D02*
D03*
Y285398D02*
D03*
X175142Y350898D02*
D03*
Y344992D02*
D03*
X119142Y352362D02*
D03*
Y346457D02*
D03*
X224142Y348898D02*
D03*
Y342992D02*
D03*
X85142Y231586D02*
D03*
Y237492D02*
D03*
X110142Y216898D02*
D03*
Y210992D02*
D03*
X150142Y118898D02*
D03*
Y112992D02*
D03*
X169095Y116814D02*
D03*
Y110909D02*
D03*
X225642Y166492D02*
D03*
Y172398D02*
D03*
X230142Y348445D02*
D03*
Y342539D02*
D03*
X190642Y337850D02*
D03*
Y331945D02*
D03*
X332106Y260354D02*
D03*
Y254449D02*
D03*
X301555Y257677D02*
D03*
Y251772D02*
D03*
X365748Y264370D02*
D03*
Y258465D02*
D03*
X297638Y361445D02*
D03*
Y367350D02*
D03*
X303594Y133270D02*
D03*
Y139175D02*
D03*
X332402Y393287D02*
D03*
Y387382D02*
D03*
X270047Y397898D02*
D03*
Y391992D02*
D03*
X315595Y424213D02*
D03*
Y418307D02*
D03*
X314142Y327398D02*
D03*
Y321492D02*
D03*
X327142Y314992D02*
D03*
Y320898D02*
D03*
X355118Y396063D02*
D03*
Y401968D02*
D03*
X192142Y357992D02*
D03*
Y363898D02*
D03*
X138142Y358992D02*
D03*
Y364898D02*
D03*
X86642Y358992D02*
D03*
Y364898D02*
D03*
X369606Y215854D02*
D03*
Y209949D02*
D03*
X399142Y215898D02*
D03*
Y209992D02*
D03*
X291642Y209205D02*
D03*
Y203299D02*
D03*
X340413Y164350D02*
D03*
Y158445D02*
D03*
X108642Y358492D02*
D03*
Y364398D02*
D03*
X152142Y279445D02*
D03*
Y285350D02*
D03*
X216535Y364173D02*
D03*
Y358268D02*
D03*
X160642Y364173D02*
D03*
Y358268D02*
D03*
D21*
X241732Y324272D02*
D03*
Y337146D02*
D03*
X133142Y304193D02*
D03*
Y317067D02*
D03*
X359055Y263839D02*
D03*
Y250965D02*
D03*
X387402Y233327D02*
D03*
Y246201D02*
D03*
X303937Y354842D02*
D03*
Y367717D02*
D03*
X290551Y339626D02*
D03*
Y352500D02*
D03*
X259842Y69725D02*
D03*
Y82599D02*
D03*
X141642Y87008D02*
D03*
Y99882D02*
D03*
X165354Y88051D02*
D03*
Y100925D02*
D03*
X269142Y363571D02*
D03*
Y376445D02*
D03*
X257874Y362854D02*
D03*
Y375728D02*
D03*
X282677Y128094D02*
D03*
Y140969D02*
D03*
X296630Y125453D02*
D03*
Y138327D02*
D03*
X350905Y269961D02*
D03*
Y257087D02*
D03*
X294491Y263524D02*
D03*
Y250650D02*
D03*
X314567Y264311D02*
D03*
Y251437D02*
D03*
X270472Y119685D02*
D03*
Y132559D02*
D03*
X261417Y133087D02*
D03*
Y120213D02*
D03*
D22*
X197955Y318504D02*
D03*
X185081D02*
D03*
X322512Y97244D02*
D03*
X335386D02*
D03*
X120728Y154445D02*
D03*
X133602D02*
D03*
X114504Y134445D02*
D03*
X127378D02*
D03*
X384579Y88602D02*
D03*
X371705D02*
D03*
X327468Y272902D02*
D03*
X340342D02*
D03*
D23*
X282882Y390551D02*
D03*
X279142D02*
D03*
X275402D02*
D03*
Y381102D02*
D03*
X282882D02*
D03*
X279724Y361748D02*
D03*
X283465D02*
D03*
X287205D02*
D03*
Y371197D02*
D03*
X279724D02*
D03*
X346346Y237677D02*
D03*
X338866D02*
D03*
Y247126D02*
D03*
X342606D02*
D03*
X346346D02*
D03*
X314961Y233177D02*
D03*
X307480D02*
D03*
Y242626D02*
D03*
X311221D02*
D03*
X314961D02*
D03*
X294075Y164142D02*
D03*
X301555D02*
D03*
Y154693D02*
D03*
X297815D02*
D03*
X294075D02*
D03*
X260039Y153110D02*
D03*
X263779D02*
D03*
X267520D02*
D03*
Y162559D02*
D03*
X260039D02*
D03*
X379142Y235445D02*
D03*
X371661D02*
D03*
Y244894D02*
D03*
X375402D02*
D03*
X379142D02*
D03*
D24*
X423539Y235445D02*
D03*
Y263005D02*
D03*
X422390Y167199D02*
D03*
Y194758D02*
D03*
X421260Y106046D02*
D03*
Y133606D02*
D03*
X62992Y88602D02*
D03*
Y131910D02*
D03*
X51181Y346492D02*
D03*
Y374052D02*
D03*
X50429Y263134D02*
D03*
Y290694D02*
D03*
X56982Y227879D02*
D03*
Y192445D02*
D03*
D25*
X405822Y253162D02*
D03*
Y245288D02*
D03*
X404673Y184915D02*
D03*
Y177041D02*
D03*
X403543Y123763D02*
D03*
Y115889D02*
D03*
X80709Y106319D02*
D03*
Y98445D02*
D03*
Y114193D02*
D03*
Y122067D02*
D03*
X68898Y364209D02*
D03*
Y356335D02*
D03*
X68146Y280851D02*
D03*
Y272977D02*
D03*
X74699Y218036D02*
D03*
Y202288D02*
D03*
Y210162D02*
D03*
D26*
X276774Y52097D02*
D03*
X304334D02*
D03*
X219298Y55118D02*
D03*
X246858D02*
D03*
X47051Y412162D02*
D03*
X82485D02*
D03*
X343913Y51181D02*
D03*
X395095D02*
D03*
X424359Y416732D02*
D03*
X388925D02*
D03*
X164689Y57086D02*
D03*
X200122D02*
D03*
D27*
X294491Y69814D02*
D03*
X286617D02*
D03*
X237015Y72835D02*
D03*
X229141D02*
D03*
X64768Y394445D02*
D03*
X56894D02*
D03*
X72642D02*
D03*
X353756Y68898D02*
D03*
X361630D02*
D03*
X369504D02*
D03*
X385252D02*
D03*
X377378D02*
D03*
X414516Y399015D02*
D03*
X398768D02*
D03*
X406642D02*
D03*
X174531Y74803D02*
D03*
X190279D02*
D03*
X182405D02*
D03*
D28*
X236024Y120752D02*
D03*
X228543D02*
D03*
X232283Y112878D02*
D03*
X379142Y387382D02*
D03*
X382882Y379508D02*
D03*
X375402D02*
D03*
X385606Y216339D02*
D03*
X389347Y208465D02*
D03*
X381866D02*
D03*
X191642Y97748D02*
D03*
X187902Y105622D02*
D03*
X195382D02*
D03*
X246622Y120492D02*
D03*
X250362Y112618D02*
D03*
X242882D02*
D03*
X350142Y115482D02*
D03*
X353882Y107608D02*
D03*
X346402D02*
D03*
X211756Y350319D02*
D03*
X204276D02*
D03*
X208016Y342445D02*
D03*
X159398Y350835D02*
D03*
X151917D02*
D03*
X155657Y342961D02*
D03*
X101382Y351319D02*
D03*
X93902D02*
D03*
X97642Y343445D02*
D03*
X336142Y86545D02*
D03*
X328661D02*
D03*
X332402Y78671D02*
D03*
D29*
X337728Y395685D02*
D03*
Y391945D02*
D03*
Y388205D02*
D03*
X348555D02*
D03*
Y395685D02*
D03*
D30*
X367579Y384378D02*
D03*
X359705Y380638D02*
D03*
Y388118D02*
D03*
X352705Y212445D02*
D03*
X360579Y216185D02*
D03*
Y208705D02*
D03*
X213516Y105886D02*
D03*
X205642Y102146D02*
D03*
Y109626D02*
D03*
X197768Y89705D02*
D03*
X205642Y93445D02*
D03*
Y85965D02*
D03*
X371933Y114193D02*
D03*
X379807Y117933D02*
D03*
Y110453D02*
D03*
X227685Y100659D02*
D03*
X235559Y104400D02*
D03*
Y96919D02*
D03*
X230957Y357480D02*
D03*
Y364961D02*
D03*
X223083Y361221D02*
D03*
X206642Y358992D02*
D03*
Y366472D02*
D03*
X198768Y362732D02*
D03*
X100079Y358205D02*
D03*
Y365685D02*
D03*
X92205Y361945D02*
D03*
X127016Y359205D02*
D03*
Y366685D02*
D03*
X119142Y362945D02*
D03*
X328205Y117848D02*
D03*
Y110368D02*
D03*
X336079Y114108D02*
D03*
X154016Y358205D02*
D03*
Y365685D02*
D03*
X146142Y361945D02*
D03*
X175579Y358992D02*
D03*
Y366472D02*
D03*
X167705Y362732D02*
D03*
D31*
X102366Y216685D02*
D03*
Y209205D02*
D03*
X92917D02*
D03*
Y212945D02*
D03*
Y216685D02*
D03*
D32*
X377642Y172398D02*
D03*
X382642D02*
D03*
X387642D02*
D03*
X392642D02*
D03*
Y193658D02*
D03*
X387642D02*
D03*
X382642D02*
D03*
X377642D02*
D03*
D33*
X175146Y128110D02*
D03*
X177114D02*
D03*
X179083D02*
D03*
X181051D02*
D03*
X183020D02*
D03*
X184988D02*
D03*
X186957D02*
D03*
X188925D02*
D03*
X190894D02*
D03*
X192862D02*
D03*
X194831D02*
D03*
X196799D02*
D03*
X198768D02*
D03*
X200736D02*
D03*
X202705D02*
D03*
X204673D02*
D03*
Y173779D02*
D03*
X202705D02*
D03*
X200736D02*
D03*
X198768D02*
D03*
X196799D02*
D03*
X194831D02*
D03*
X192862D02*
D03*
X190894D02*
D03*
X188925D02*
D03*
X186957D02*
D03*
X184988D02*
D03*
X183020D02*
D03*
X181051D02*
D03*
X179083D02*
D03*
X177114D02*
D03*
X175146D02*
D03*
D34*
X212744Y136181D02*
D03*
Y138150D02*
D03*
Y140118D02*
D03*
Y142087D02*
D03*
Y144055D02*
D03*
Y146024D02*
D03*
Y147992D02*
D03*
Y149961D02*
D03*
Y151929D02*
D03*
Y153898D02*
D03*
Y155866D02*
D03*
Y157835D02*
D03*
Y159803D02*
D03*
Y161772D02*
D03*
Y163740D02*
D03*
Y165709D02*
D03*
X167075D02*
D03*
Y163740D02*
D03*
Y161772D02*
D03*
Y159803D02*
D03*
Y157835D02*
D03*
Y155866D02*
D03*
Y153898D02*
D03*
Y151929D02*
D03*
Y149961D02*
D03*
Y147992D02*
D03*
Y146024D02*
D03*
Y144055D02*
D03*
Y142087D02*
D03*
Y140118D02*
D03*
Y138150D02*
D03*
Y136181D02*
D03*
D35*
X89583Y195685D02*
D03*
X92142D02*
D03*
X94701D02*
D03*
Y188205D02*
D03*
X92142D02*
D03*
X89583D02*
D03*
D36*
X130642Y259437D02*
D03*
D37*
X121587Y283453D02*
D03*
X130642D02*
D03*
X139697D02*
D03*
D38*
X117803Y210850D02*
D03*
X134142D02*
D03*
D39*
X335382Y125563D02*
D03*
X327902D02*
D03*
Y135602D02*
D03*
X331642D02*
D03*
X335382D02*
D03*
D40*
X321012Y327945D02*
D03*
Y332945D02*
D03*
Y337945D02*
D03*
Y342945D02*
D03*
X342272D02*
D03*
Y337945D02*
D03*
Y332945D02*
D03*
Y327945D02*
D03*
X324512Y357398D02*
D03*
Y362398D02*
D03*
Y367398D02*
D03*
Y372398D02*
D03*
X345772D02*
D03*
Y367398D02*
D03*
Y362398D02*
D03*
Y357398D02*
D03*
X316272Y394945D02*
D03*
Y389945D02*
D03*
Y384945D02*
D03*
Y379945D02*
D03*
X295012D02*
D03*
Y384945D02*
D03*
Y389945D02*
D03*
Y394945D02*
D03*
D41*
X338791Y204114D02*
D03*
X336823D02*
D03*
X334854D02*
D03*
X332886D02*
D03*
X330917D02*
D03*
X328949D02*
D03*
X326980D02*
D03*
X325012D02*
D03*
X323043D02*
D03*
X321075D02*
D03*
X319106D02*
D03*
X317138D02*
D03*
Y171831D02*
D03*
X319106D02*
D03*
X321075D02*
D03*
X323043D02*
D03*
X325012D02*
D03*
X326980D02*
D03*
X328949D02*
D03*
X330917D02*
D03*
X332886D02*
D03*
X334854D02*
D03*
X336823D02*
D03*
X338791D02*
D03*
D42*
X311823Y198799D02*
D03*
Y196831D02*
D03*
Y194862D02*
D03*
Y192894D02*
D03*
Y190925D02*
D03*
Y188957D02*
D03*
Y186988D02*
D03*
Y185020D02*
D03*
Y183051D02*
D03*
Y181082D02*
D03*
Y179114D02*
D03*
Y177146D02*
D03*
X344106D02*
D03*
Y179114D02*
D03*
Y181082D02*
D03*
Y183051D02*
D03*
Y185020D02*
D03*
Y186988D02*
D03*
Y188957D02*
D03*
Y190925D02*
D03*
Y192894D02*
D03*
Y194862D02*
D03*
Y196831D02*
D03*
Y198799D02*
D03*
D43*
X95134Y250000D02*
D03*
Y240945D02*
D03*
Y231890D02*
D03*
D44*
X119150Y240945D02*
D03*
D45*
X82150Y279445D02*
D03*
X108134D02*
D03*
D46*
X384870Y328945D02*
D03*
Y333945D02*
D03*
Y338945D02*
D03*
Y343945D02*
D03*
Y348945D02*
D03*
Y353945D02*
D03*
Y358945D02*
D03*
X363413Y328945D02*
D03*
Y333945D02*
D03*
Y338945D02*
D03*
Y343945D02*
D03*
Y348945D02*
D03*
Y353945D02*
D03*
Y358945D02*
D03*
D47*
X118134Y396575D02*
D03*
Y406575D02*
D03*
Y416575D02*
D03*
X98134D02*
D03*
Y406575D02*
D03*
Y396575D02*
D03*
Y376575D02*
D03*
X118134D02*
D03*
X216799Y395685D02*
D03*
Y405685D02*
D03*
Y415685D02*
D03*
X196799D02*
D03*
Y405685D02*
D03*
Y395685D02*
D03*
Y375685D02*
D03*
X216799D02*
D03*
X168595Y374945D02*
D03*
X148594D02*
D03*
Y394945D02*
D03*
Y404945D02*
D03*
Y414945D02*
D03*
X168595D02*
D03*
Y404945D02*
D03*
Y394945D02*
D03*
D48*
X84642Y370445D02*
D03*
X183642Y363398D02*
D03*
X138142Y372445D02*
D03*
X164642Y219225D02*
D03*
X238142Y313945D02*
D03*
X366142Y421945D02*
D03*
X261642Y424945D02*
D03*
X241142Y140969D02*
D03*
X244142Y126445D02*
D03*
X249142Y133945D02*
D03*
D49*
X180642Y416130D02*
D03*
Y376760D02*
D03*
X130142Y415130D02*
D03*
Y375760D02*
D03*
X364142Y149945D02*
D03*
X354142D02*
D03*
X344142D02*
D03*
X334142D02*
D03*
X324142D02*
D03*
X201642Y195445D02*
D03*
X191642D02*
D03*
X181642D02*
D03*
X171642D02*
D03*
X161642D02*
D03*
X235142Y375760D02*
D03*
Y415130D02*
D03*
D50*
X55118Y318898D02*
D03*
X78740Y70866D02*
D03*
X413386D02*
D03*
Y307087D02*
D03*
D51*
X303142Y423445D02*
D03*
X293142D02*
D03*
X283142D02*
D03*
X348142D02*
D03*
X338142D02*
D03*
X328142D02*
D03*
D52*
X225142Y287000D02*
D03*
Y227945D02*
D03*
D53*
X270079Y397929D02*
D03*
X278716Y390976D02*
D03*
X315354Y229945D02*
D03*
X278716D02*
D03*
X377165Y230709D02*
D03*
X351969Y236356D02*
D03*
X349606Y315748D02*
D03*
X377917Y294130D02*
D03*
X288189Y165354D02*
D03*
X278346Y172835D02*
D03*
X240551Y169291D02*
D03*
X238142Y202362D02*
D03*
X274016Y369291D02*
D03*
X207543Y366472D02*
D03*
X288445Y400945D02*
D03*
X91642Y181500D02*
D03*
X104250Y191409D02*
D03*
X321539Y194945D02*
D03*
X304334Y386990D02*
D03*
X325524Y178869D02*
D03*
X332520Y220472D02*
D03*
X250362Y90519D02*
D03*
X253142Y102146D02*
D03*
X340413Y164350D02*
D03*
X238142Y276718D02*
D03*
Y229945D02*
D03*
X188976Y271654D02*
D03*
X238142Y110236D02*
D03*
X310221Y364398D02*
D03*
X352000Y350945D02*
D03*
X336004Y350394D02*
D03*
X158500Y374945D02*
D03*
X114173Y348445D02*
D03*
X121862Y371571D02*
D03*
X153955Y375084D02*
D03*
X108642Y370008D02*
D03*
X158736Y387382D02*
D03*
X153642Y362205D02*
D03*
X253935Y133270D02*
D03*
X317913Y193996D02*
D03*
X174353Y179823D02*
D03*
X139500Y287209D02*
D03*
X84642Y181000D02*
D03*
X139500Y299000D02*
D03*
X335500Y178626D02*
D03*
X322000Y180279D02*
D03*
X295606Y205945D02*
D03*
X379142Y392358D02*
D03*
X326000Y338098D02*
D03*
X301000Y387500D02*
D03*
X349642Y399945D02*
D03*
X320142Y398445D02*
D03*
X352642Y198776D02*
D03*
X392642D02*
D03*
X220472Y125795D02*
D03*
X341142Y126945D02*
D03*
X350642Y128945D02*
D03*
X331689Y180685D02*
D03*
X370142Y179189D02*
D03*
X299213Y208177D02*
D03*
X213516Y198776D02*
D03*
X181646Y93945D02*
D03*
X197642Y137795D02*
D03*
X169291Y133965D02*
D03*
X216535Y169291D02*
D03*
X130642Y252969D02*
D03*
X141732Y122047D02*
D03*
X149606Y145409D02*
D03*
X148642Y158445D02*
D03*
X98425Y178945D02*
D03*
X90551Y236221D02*
D03*
X75736Y357606D02*
D03*
X308642Y374571D02*
D03*
X320142Y314445D02*
D03*
X250642Y296445D02*
D03*
X389135Y374945D02*
D03*
X169642Y320445D02*
D03*
X184642Y345445D02*
D03*
X173642Y339445D02*
D03*
X161736Y340445D02*
D03*
X124689Y343992D02*
D03*
X92142Y338445D02*
D03*
X341142Y212445D02*
D03*
X322642Y162945D02*
D03*
X361642Y182445D02*
D03*
X352642Y186965D02*
D03*
X246642Y142445D02*
D03*
X322642Y183898D02*
D03*
X248142Y127142D02*
D03*
X326642Y195445D02*
D03*
X332106Y216339D02*
D03*
X208642Y325445D02*
D03*
X134642Y338445D02*
D03*
X329142Y213945D02*
D03*
X77642Y271945D02*
D03*
X74642Y376445D02*
D03*
X371661Y344492D02*
D03*
X356842Y343992D02*
D03*
X102142Y202445D02*
D03*
X194642Y156445D02*
D03*
X254142Y151445D02*
D03*
X203642Y155945D02*
D03*
X203142Y166445D02*
D03*
X271142Y183445D02*
D03*
X217642Y177445D02*
D03*
X327474Y158945D02*
D03*
X392642Y162445D02*
D03*
X219142Y422882D02*
D03*
X295642Y191945D02*
D03*
X325142Y379945D02*
D03*
X325642Y350945D02*
D03*
X331689Y372398D02*
D03*
X332642Y361945D02*
D03*
X331142Y332945D02*
D03*
X156642Y324945D02*
D03*
X203705Y377382D02*
D03*
M02*
