G04*
G04 #@! TF.GenerationSoftware,Altium Limited,Altium Designer,19.0.14 (431)*
G04*
G04 Layer_Physical_Order=1*
G04 Layer_Color=255*
%FSLAX25Y25*%
%MOIN*%
G70*
G01*
G75*
%ADD12C,0.01968*%
%ADD23R,0.02638X0.05709*%
%ADD24R,0.15748X0.23622*%
%ADD25R,0.29528X0.09449*%
%ADD26R,0.06496X0.13504*%
%ADD27R,0.10000X0.05000*%
%ADD28R,0.10799X0.08500*%
%ADD29C,0.00600*%
%ADD30C,0.00984*%
%ADD31C,0.07874*%
%ADD32C,0.02362*%
%ADD33C,0.05000*%
D12*
X135610Y126927D02*
X138976D01*
X110610D02*
X115610D01*
X144685Y68898D02*
Y81850D01*
X110236Y92913D02*
X138347D01*
X110236D02*
X110610Y93287D01*
Y107439D01*
X138347Y92913D02*
X140270Y94837D01*
Y95986D01*
X143535Y99252D01*
X144685D01*
X143535Y51339D02*
X144685D01*
X140270Y48073D02*
X143535Y51339D01*
X140270Y47413D02*
Y48073D01*
X139117Y46260D02*
X140270Y47413D01*
X126772Y46260D02*
X139117D01*
X91732Y46457D02*
Y49241D01*
X84842Y56130D02*
X91732Y49241D01*
X82059Y56130D02*
X84842D01*
X78279Y59910D02*
X82059Y56130D01*
X78279Y59910D02*
Y62460D01*
X76763Y63976D02*
X78279Y62460D01*
X74606Y63976D02*
X76763D01*
D23*
X100610Y126927D02*
D03*
X105610D02*
D03*
X110610D02*
D03*
X115610D02*
D03*
X120610D02*
D03*
X125610D02*
D03*
X130610D02*
D03*
X135610D02*
D03*
Y107439D02*
D03*
X130610D02*
D03*
X125610D02*
D03*
X120610D02*
D03*
X115610D02*
D03*
X110610D02*
D03*
X105610D02*
D03*
X100610D02*
D03*
D24*
X121063Y46850D02*
D03*
X86024Y47047D02*
D03*
D25*
X108268Y68504D02*
D03*
Y92913D02*
D03*
D26*
X61102Y48662D02*
D03*
Y91102D02*
D03*
D27*
X74606Y75788D02*
D03*
Y63976D02*
D03*
D28*
X140945Y51142D02*
D03*
Y68543D02*
D03*
X144685Y99252D02*
D03*
Y81850D02*
D03*
D29*
X133858Y101181D02*
X134646D01*
X135610Y102146D01*
Y107439D01*
X125931D02*
X130610D01*
X125931D02*
X125984Y107386D01*
X125610Y107439D02*
X125931D01*
X120610D02*
X125610D01*
X108268Y67913D02*
Y68504D01*
D30*
X120610Y124765D02*
X120787Y124588D01*
X120610Y124765D02*
Y126927D01*
X125610Y122461D02*
Y126927D01*
X122441Y119291D02*
X125610Y122461D01*
X109449Y119291D02*
X122441D01*
X105610Y123130D02*
X109449Y119291D01*
X105610Y123130D02*
Y126927D01*
X74803Y75788D02*
X74803Y75787D01*
X74606Y75788D02*
X74803D01*
D31*
X159134Y48679D02*
D03*
X41024Y117183D02*
D03*
D32*
X133858Y101181D02*
D03*
X144685Y68898D02*
D03*
X138976Y126927D02*
D03*
X120787Y124588D02*
D03*
X105295Y126927D02*
D03*
X74803Y75787D02*
D03*
X108268Y67913D02*
D03*
D33*
X125984Y107386D02*
D03*
M02*
