G04*
G04 #@! TF.GenerationSoftware,Altium Limited,Altium Designer,19.0.14 (431)*
G04*
G04 Layer_Physical_Order=2*
G04 Layer_Color=16711680*
%FSLAX25Y25*%
%MOIN*%
G70*
G01*
G75*
%ADD12C,0.01968*%
%ADD29C,0.00600*%
%ADD31C,0.07874*%
%ADD32C,0.02362*%
%ADD33C,0.05000*%
%ADD34R,0.06299X0.03937*%
%ADD35R,0.02953X0.03150*%
%ADD36R,0.03150X0.02953*%
G36*
X137972Y131933D02*
X138777Y131773D01*
X138760Y131267D01*
X137846Y131146D01*
X136792Y130710D01*
X135888Y130016D01*
X135194Y129111D01*
X134757Y128058D01*
X134608Y126927D01*
X134757Y125796D01*
X135194Y124743D01*
X135888Y123838D01*
X136792Y123144D01*
X136912Y123094D01*
X140515Y119491D01*
Y70148D01*
X140466Y70028D01*
X140317Y68898D01*
X140466Y67767D01*
X140515Y67647D01*
Y65113D01*
X128785Y53382D01*
X123619D01*
X123449Y53882D01*
X124011Y54313D01*
X124327Y54724D01*
X125000D01*
Y55964D01*
X125091Y56182D01*
X125233Y57262D01*
X125091Y58341D01*
X125000Y58559D01*
Y61301D01*
X125091Y61519D01*
X125233Y62598D01*
Y83071D01*
X125091Y84150D01*
X124674Y85156D01*
X124011Y86019D01*
X120425Y89605D01*
X120366Y90056D01*
X119949Y91061D01*
X119287Y91925D01*
X118303Y92909D01*
X118110Y93057D01*
Y93781D01*
X118201Y94000D01*
X118343Y95079D01*
X118201Y96158D01*
X118110Y96376D01*
Y97835D01*
X117269D01*
X117122Y98027D01*
X116258Y98690D01*
X115806Y98877D01*
X115619Y99329D01*
X114956Y100192D01*
X111216Y103933D01*
X110353Y104595D01*
X109347Y105012D01*
X108268Y105154D01*
X82677D01*
X81598Y105012D01*
X80592Y104595D01*
X79729Y103933D01*
X79581Y103740D01*
X78740D01*
Y102282D01*
X78650Y102063D01*
X78508Y100984D01*
X78650Y99905D01*
X78740Y99687D01*
Y97164D01*
X78650Y96945D01*
X78508Y95866D01*
Y74581D01*
X78650Y73502D01*
X79066Y72496D01*
X79729Y71633D01*
X84968Y66393D01*
X85028Y65943D01*
X85444Y64937D01*
X86107Y64074D01*
X87091Y63089D01*
X87283Y62942D01*
Y62217D01*
X87193Y61999D01*
X87051Y60919D01*
X87193Y59840D01*
X87283Y59622D01*
Y58164D01*
X88125D01*
X88272Y57971D01*
X89136Y57309D01*
X89588Y57121D01*
X89775Y56669D01*
X90438Y55806D01*
X99979Y46264D01*
X100843Y45602D01*
X101848Y45185D01*
X102927Y45043D01*
X130512D01*
X131591Y45185D01*
X132597Y45602D01*
X133460Y46264D01*
X139747Y52551D01*
X140188Y52315D01*
X139966Y51202D01*
X139801Y48679D01*
X139966Y46156D01*
X140460Y43675D01*
X141273Y41281D01*
X142391Y39013D01*
X143796Y36910D01*
X145464Y35009D01*
X146338Y34242D01*
X146162Y33774D01*
X64646D01*
X64621Y33769D01*
X62185Y33929D01*
X59767Y34410D01*
X57433Y35202D01*
X55221Y36293D01*
X53171Y37662D01*
X51318Y39288D01*
X49692Y41142D01*
X48322Y43192D01*
X47232Y45403D01*
X46439Y47738D01*
X45958Y50156D01*
X45799Y52591D01*
X45804Y52616D01*
Y85355D01*
X45804Y85355D01*
X45831D01*
X45656Y88038D01*
X45131Y90675D01*
X44267Y93221D01*
X43077Y95633D01*
X41893Y97406D01*
X42148Y97924D01*
X43547Y98015D01*
X46027Y98509D01*
X48422Y99322D01*
X50690Y100440D01*
X52793Y101845D01*
X54694Y103513D01*
X56361Y105414D01*
X57766Y107517D01*
X58885Y109785D01*
X59698Y112179D01*
X60191Y114660D01*
X60356Y117183D01*
X60191Y119706D01*
X59698Y122187D01*
X58885Y124581D01*
X57766Y126849D01*
X56361Y128952D01*
X54694Y130853D01*
X53820Y131620D01*
X53996Y132088D01*
X135512D01*
X135537Y132093D01*
X137972Y131933D01*
D02*
G37*
%LPC*%
G36*
X113795Y129445D02*
X111721D01*
Y127469D01*
X113795D01*
Y129445D01*
D02*
G37*
G36*
X121287Y126712D02*
Y125088D01*
X122912D01*
X122842Y125439D01*
X122360Y126160D01*
X121638Y126642D01*
X121287Y126712D01*
D02*
G37*
G36*
X120287D02*
X119936Y126642D01*
X119215Y126160D01*
X118733Y125439D01*
X118663Y125088D01*
X120287D01*
Y126712D01*
D02*
G37*
G36*
X113795Y126469D02*
X111721D01*
Y124492D01*
X113795D01*
Y126469D01*
D02*
G37*
G36*
X105295Y131295D02*
X104165Y131146D01*
X103111Y130710D01*
X102207Y130016D01*
X101512Y129111D01*
X101076Y128058D01*
X100927Y126927D01*
X101076Y125796D01*
X101512Y124743D01*
X102207Y123838D01*
X103111Y123144D01*
X104165Y122708D01*
X105295Y122559D01*
X106426Y122708D01*
X107479Y123144D01*
X108384Y123838D01*
X108886Y124492D01*
X110721D01*
Y126969D01*
Y129445D01*
X108822D01*
X108384Y130016D01*
X107479Y130710D01*
X106426Y131146D01*
X105295Y131295D01*
D02*
G37*
G36*
X122912Y124088D02*
X121287D01*
Y122463D01*
X121638Y122533D01*
X122360Y123015D01*
X122842Y123737D01*
X122912Y124088D01*
D02*
G37*
G36*
X120287D02*
X118663D01*
X118733Y123737D01*
X119215Y123015D01*
X119936Y122533D01*
X120287Y122463D01*
Y124088D01*
D02*
G37*
G36*
X137988Y116748D02*
X136012D01*
Y114673D01*
X137988D01*
Y116748D01*
D02*
G37*
G36*
X128461D02*
X126484D01*
Y114673D01*
X128461D01*
Y116748D01*
D02*
G37*
G36*
X125484D02*
X123508D01*
Y114673D01*
X125484D01*
Y116748D01*
D02*
G37*
G36*
X135012D02*
X133035D01*
Y114673D01*
X135012D01*
Y116748D01*
D02*
G37*
G36*
X137988Y113673D02*
X135512D01*
X133035D01*
Y111598D01*
X133364D01*
X133534Y111098D01*
X133052Y110728D01*
X132499Y110007D01*
X132151Y109168D01*
X132052Y108414D01*
X131547D01*
X131488Y108861D01*
X130919Y110235D01*
X130014Y111415D01*
X128833Y112321D01*
X128461Y112475D01*
Y113673D01*
X125984D01*
X123508D01*
Y112475D01*
X123135Y112321D01*
X121955Y111415D01*
X121049Y110235D01*
X120480Y108861D01*
X120286Y107386D01*
X120480Y105911D01*
X121049Y104537D01*
X121955Y103356D01*
X123135Y102451D01*
X124509Y101882D01*
X125984Y101687D01*
X127459Y101882D01*
X128833Y102451D01*
X129306Y102813D01*
X129716Y102498D01*
X129639Y102312D01*
X129490Y101181D01*
X129639Y100051D01*
X130075Y98997D01*
X130770Y98092D01*
X131674Y97398D01*
X132728Y96962D01*
X133858Y96813D01*
X134989Y96962D01*
X136042Y97398D01*
X136947Y98092D01*
X137641Y98997D01*
X137824Y99439D01*
X137972Y99587D01*
X138525Y100308D01*
X138873Y101147D01*
X138991Y102047D01*
Y108268D01*
X138873Y109168D01*
X138525Y110007D01*
X137972Y110728D01*
X137489Y111098D01*
X137659Y111598D01*
X137988D01*
Y113673D01*
D02*
G37*
G36*
X75303Y77912D02*
Y76287D01*
X76928D01*
X76858Y76638D01*
X76376Y77360D01*
X75654Y77842D01*
X75303Y77912D01*
D02*
G37*
G36*
X74303D02*
X73952Y77842D01*
X73231Y77360D01*
X72749Y76638D01*
X72679Y76287D01*
X74303D01*
Y77912D01*
D02*
G37*
G36*
X76928Y75287D02*
X75303D01*
Y73663D01*
X75654Y73733D01*
X76376Y74215D01*
X76858Y74936D01*
X76928Y75287D01*
D02*
G37*
G36*
X74303D02*
X72679D01*
X72749Y74936D01*
X73231Y74215D01*
X73952Y73733D01*
X74303Y73663D01*
Y75287D01*
D02*
G37*
%LPD*%
D12*
X144685Y63386D02*
Y68898D01*
X130512Y49213D02*
X144685Y63386D01*
X102927Y49213D02*
X130512D01*
X144685Y68898D02*
Y121218D01*
X138976Y126927D02*
X144685Y121218D01*
X121063Y62598D02*
Y83071D01*
X116339Y87795D02*
X121063Y83071D01*
X116339Y87795D02*
Y88976D01*
X115354Y89961D02*
X116339Y88976D01*
X114173Y89961D02*
X115354D01*
X112008Y96063D02*
Y97244D01*
X108268Y100984D02*
X112008Y97244D01*
Y96063D02*
X112992Y95079D01*
X114173D01*
X82677Y100984D02*
X108268D01*
X82677Y74581D02*
X89055Y68203D01*
Y67022D02*
Y68203D01*
Y67022D02*
X90039Y66038D01*
X91220D01*
X82677Y74581D02*
Y95866D01*
X93386Y58754D02*
X102927Y49213D01*
X93386Y58754D02*
Y59935D01*
X92401Y60919D02*
X93386Y59935D01*
X91220Y60919D02*
X92401D01*
X114173Y57262D02*
X121063D01*
X108268Y63167D02*
X114173Y57262D01*
X108268Y63167D02*
Y67913D01*
D29*
X133858Y101181D02*
X134646D01*
X135512Y102047D01*
Y108268D01*
D31*
X159134Y48679D02*
D03*
X41024Y117183D02*
D03*
D32*
X133858Y101181D02*
D03*
X144685Y68898D02*
D03*
X138976Y126927D02*
D03*
X120787Y124588D02*
D03*
X105295Y126927D02*
D03*
X74803Y75787D02*
D03*
X108268Y67913D02*
D03*
D33*
X125984Y107386D02*
D03*
D34*
X121063Y62598D02*
D03*
Y57480D02*
D03*
X114173Y95079D02*
D03*
Y89961D02*
D03*
X82677Y95866D02*
D03*
Y100984D02*
D03*
X91220Y60919D02*
D03*
Y66038D02*
D03*
D35*
X135512Y114173D02*
D03*
Y108268D02*
D03*
X125984D02*
D03*
Y114173D02*
D03*
D36*
X105315Y126969D02*
D03*
X111221D02*
D03*
M02*
