G04*
G04 #@! TF.GenerationSoftware,Altium Limited,Altium Designer,19.0.14 (431)*
G04*
G04 Layer_Physical_Order=2*
G04 Layer_Color=16711680*
%FSLAX25Y25*%
%MOIN*%
G70*
G01*
G75*
%ADD28C,0.01968*%
%ADD31C,0.18307*%
%ADD32C,0.02362*%
%ADD33R,0.06299X0.03937*%
%ADD34R,0.02953X0.03150*%
%ADD35R,0.03150X0.02953*%
G36*
X41024Y132088D02*
X135512D01*
X135537Y132093D01*
X137972Y131933D01*
X138777Y131773D01*
X138760Y131267D01*
X137846Y131146D01*
X136792Y130710D01*
X135888Y130016D01*
X135194Y129111D01*
X134757Y128058D01*
X134608Y126927D01*
X134757Y125796D01*
X135194Y124743D01*
X135888Y123838D01*
X136792Y123144D01*
X136912Y123094D01*
X140515Y119491D01*
Y70148D01*
X140466Y70028D01*
X140317Y68898D01*
X140466Y67767D01*
X140515Y67647D01*
Y63735D01*
X130163Y53382D01*
X123619D01*
X123449Y53882D01*
X124011Y54313D01*
X124327Y54724D01*
X125000D01*
Y55964D01*
X125091Y56182D01*
X125233Y57262D01*
X125091Y58341D01*
X125000Y58559D01*
Y61301D01*
X125091Y61519D01*
X125233Y62598D01*
Y83071D01*
X125091Y84150D01*
X124674Y85156D01*
X124011Y86019D01*
X120425Y89605D01*
X120366Y90056D01*
X119949Y91061D01*
X119287Y91925D01*
X118303Y92909D01*
X118110Y93057D01*
Y93781D01*
X118201Y94000D01*
X118343Y95079D01*
X118201Y96158D01*
X118110Y96376D01*
Y97835D01*
X117269D01*
X117122Y98027D01*
X116258Y98690D01*
X115806Y98877D01*
X115619Y99329D01*
X114956Y100192D01*
X111216Y103933D01*
X110353Y104595D01*
X109347Y105012D01*
X108268Y105154D01*
X82677D01*
X81598Y105012D01*
X80592Y104595D01*
X79729Y103933D01*
X79581Y103740D01*
X78740D01*
Y102282D01*
X78650Y102063D01*
X78508Y100984D01*
X78650Y99905D01*
X78740Y99687D01*
Y97164D01*
X78650Y96945D01*
X78508Y95866D01*
Y74581D01*
X78650Y73502D01*
X79066Y72496D01*
X79729Y71633D01*
X84968Y66393D01*
X85028Y65943D01*
X85444Y64937D01*
X86107Y64074D01*
X87091Y63089D01*
X87283Y62942D01*
Y62217D01*
X87193Y61999D01*
X87051Y60919D01*
X87193Y59840D01*
X87283Y59622D01*
Y58164D01*
X88125D01*
X88272Y57971D01*
X89136Y57309D01*
X89588Y57121D01*
X89775Y56669D01*
X90438Y55806D01*
X99979Y46264D01*
X100843Y45602D01*
X101848Y45185D01*
X102927Y45043D01*
X131890D01*
X132969Y45185D01*
X133975Y45602D01*
X134838Y46264D01*
X147633Y59060D01*
X148296Y59923D01*
X148713Y60929D01*
X148855Y62008D01*
Y67647D01*
X148904Y67767D01*
X149053Y68898D01*
X148904Y70028D01*
X148855Y70148D01*
Y121218D01*
X148713Y122298D01*
X148296Y123303D01*
X147633Y124167D01*
X142809Y128991D01*
X142759Y129111D01*
X142065Y130016D01*
X141270Y130625D01*
X141509Y131072D01*
X142725Y130660D01*
X144936Y129569D01*
X146986Y128200D01*
X148840Y126574D01*
X150465Y124720D01*
X151835Y122670D01*
X152926Y120459D01*
X153718Y118124D01*
X154199Y115706D01*
X154359Y113271D01*
X154354Y113246D01*
Y80507D01*
X154354Y80507D01*
X154326D01*
X154502Y77824D01*
X155026Y75187D01*
X155891Y72640D01*
X157080Y70229D01*
X158574Y67993D01*
X160347Y65971D01*
X162368Y64199D01*
X164570Y62727D01*
X164583Y62749D01*
X166586Y61587D01*
X166597Y61547D01*
X166597Y61547D01*
X166597D01*
X167902Y60747D01*
X169682Y59227D01*
X171202Y57447D01*
X172425Y55451D01*
X173321Y53289D01*
X173867Y51012D01*
X174051Y48679D01*
X173867Y46345D01*
X173321Y44069D01*
X172425Y41907D01*
X171202Y39911D01*
X169682Y38131D01*
X167902Y36611D01*
X165906Y35388D01*
X163743Y34492D01*
X161467Y33945D01*
X159178Y33765D01*
X159134Y33774D01*
X64646D01*
X64621Y33769D01*
X62185Y33929D01*
X59767Y34410D01*
X57433Y35202D01*
X55221Y36293D01*
X53171Y37662D01*
X51318Y39288D01*
X49692Y41142D01*
X48322Y43192D01*
X47232Y45403D01*
X46439Y47738D01*
X45958Y50156D01*
X45799Y52591D01*
X45804Y52616D01*
Y85355D01*
X45804Y85355D01*
X45831D01*
X45656Y88038D01*
X45131Y90675D01*
X44267Y93221D01*
X43077Y95633D01*
X41584Y97869D01*
X39811Y99890D01*
X37789Y101663D01*
X35587Y103134D01*
X35575Y103112D01*
X33571Y104275D01*
X33560Y104315D01*
X33560Y104315D01*
X33560D01*
X32256Y105115D01*
X30476Y106635D01*
X28955Y108415D01*
X27732Y110411D01*
X26836Y112573D01*
X26290Y114849D01*
X26106Y117183D01*
X26290Y119517D01*
X26836Y121793D01*
X27732Y123955D01*
X28955Y125951D01*
X30476Y127731D01*
X32256Y129251D01*
X34251Y130474D01*
X36414Y131370D01*
X38690Y131916D01*
X40980Y132097D01*
X41024Y132088D01*
D02*
G37*
%LPC*%
G36*
X113795Y129445D02*
X111721D01*
Y127469D01*
X113795D01*
Y129445D01*
D02*
G37*
G36*
X121287Y126712D02*
Y125088D01*
X122912D01*
X122842Y125439D01*
X122360Y126160D01*
X121638Y126642D01*
X121287Y126712D01*
D02*
G37*
G36*
X120287D02*
X119936Y126642D01*
X119215Y126160D01*
X118733Y125439D01*
X118663Y125088D01*
X120287D01*
Y126712D01*
D02*
G37*
G36*
X113795Y126469D02*
X111721D01*
Y124492D01*
X113795D01*
Y126469D01*
D02*
G37*
G36*
X105295Y131295D02*
X104165Y131146D01*
X103111Y130710D01*
X102207Y130016D01*
X101512Y129111D01*
X101076Y128058D01*
X100927Y126927D01*
X101076Y125796D01*
X101512Y124743D01*
X102207Y123838D01*
X103111Y123144D01*
X104165Y122708D01*
X105295Y122559D01*
X106426Y122708D01*
X107479Y123144D01*
X108384Y123838D01*
X108886Y124492D01*
X110721D01*
Y126969D01*
X111221D01*
D01*
X110721D01*
Y129445D01*
X108822D01*
X108384Y130016D01*
X107479Y130710D01*
X106426Y131146D01*
X105295Y131295D01*
D02*
G37*
G36*
X122912Y124088D02*
X121287D01*
Y122463D01*
X121638Y122533D01*
X122360Y123015D01*
X122842Y123737D01*
X122912Y124088D01*
D02*
G37*
G36*
X120287D02*
X118663D01*
X118733Y123737D01*
X119215Y123015D01*
X119936Y122533D01*
X120287Y122463D01*
Y124088D01*
D02*
G37*
G36*
X137988Y116748D02*
X136012D01*
Y114673D01*
X137988D01*
Y116748D01*
D02*
G37*
G36*
X128461D02*
X126484D01*
Y114673D01*
X128461D01*
Y116748D01*
D02*
G37*
G36*
X125484D02*
X123508D01*
Y114673D01*
X125484D01*
Y116748D01*
D02*
G37*
G36*
X135012D02*
X133035D01*
Y114673D01*
X135012D01*
Y116748D01*
D02*
G37*
G36*
X137988Y113673D02*
X136012D01*
Y111598D01*
X137988D01*
Y113673D01*
D02*
G37*
G36*
X135012D02*
X133035D01*
Y111598D01*
X135012D01*
Y113673D01*
D02*
G37*
G36*
X128461D02*
X126484D01*
Y111598D01*
X128461D01*
Y113673D01*
D02*
G37*
G36*
X125484D02*
X123508D01*
Y111598D01*
X125484D01*
Y113673D01*
D02*
G37*
G36*
X41024Y127172D02*
X39075Y126980D01*
X37201Y126412D01*
X35474Y125488D01*
X33960Y124246D01*
X32718Y122732D01*
X31795Y121005D01*
X31227Y119132D01*
X31035Y117183D01*
X31227Y115234D01*
X31795Y113360D01*
X32718Y111633D01*
X33960Y110120D01*
X35474Y108877D01*
X37201Y107954D01*
X39075Y107386D01*
X41024Y107194D01*
X42972Y107386D01*
X44846Y107954D01*
X46573Y108877D01*
X48087Y110120D01*
X49329Y111633D01*
X50252Y113360D01*
X50821Y115234D01*
X51013Y117183D01*
X50821Y119132D01*
X50252Y121005D01*
X49329Y122732D01*
X48087Y124246D01*
X46573Y125488D01*
X44846Y126412D01*
X42972Y126980D01*
X41024Y127172D01*
D02*
G37*
G36*
X137776Y110630D02*
X133248D01*
Y105905D01*
X137776D01*
Y110630D01*
D02*
G37*
G36*
X128248D02*
X123721D01*
Y105905D01*
X128248D01*
Y110630D01*
D02*
G37*
G36*
X75303Y77912D02*
Y76287D01*
X76928D01*
X76858Y76638D01*
X76376Y77360D01*
X75654Y77842D01*
X75303Y77912D01*
D02*
G37*
G36*
X74303D02*
X73952Y77842D01*
X73231Y77360D01*
X72749Y76638D01*
X72679Y76287D01*
X74303D01*
Y77912D01*
D02*
G37*
G36*
X76928Y75287D02*
X75303D01*
Y73663D01*
X75654Y73733D01*
X76376Y74215D01*
X76858Y74936D01*
X76928Y75287D01*
D02*
G37*
G36*
X74303D02*
X72679D01*
X72749Y74936D01*
X73231Y74215D01*
X73952Y73733D01*
X74303Y73663D01*
Y75287D01*
D02*
G37*
G36*
X159134Y58668D02*
X157185Y58476D01*
X155311Y57908D01*
X153584Y56985D01*
X152070Y55742D01*
X150828Y54229D01*
X149905Y52502D01*
X149337Y50628D01*
X149145Y48679D01*
X149337Y46730D01*
X149905Y44856D01*
X150828Y43129D01*
X152070Y41616D01*
X153584Y40373D01*
X155311Y39450D01*
X157185Y38882D01*
X159134Y38690D01*
X161083Y38882D01*
X162957Y39450D01*
X164683Y40373D01*
X166197Y41616D01*
X167439Y43129D01*
X168362Y44856D01*
X168931Y46730D01*
X169123Y48679D01*
X168931Y50628D01*
X168362Y52502D01*
X167439Y54229D01*
X166197Y55742D01*
X164683Y56985D01*
X162957Y57908D01*
X161083Y58476D01*
X159134Y58668D01*
D02*
G37*
%LPD*%
D28*
X144685Y68898D02*
Y121218D01*
X138976Y126927D02*
X144685Y121218D01*
X121063Y62598D02*
Y83071D01*
X116339Y87795D02*
X121063Y83071D01*
X116339Y87795D02*
Y88976D01*
X115354Y89961D02*
X116339Y88976D01*
X114173Y89961D02*
X115354D01*
X112008Y96063D02*
Y97244D01*
X108268Y100984D02*
X112008Y97244D01*
Y96063D02*
X112992Y95079D01*
X114173D01*
X82677Y100984D02*
X108268D01*
X82677Y74581D02*
X89055Y68203D01*
Y67022D02*
Y68203D01*
Y67022D02*
X90039Y66038D01*
X91220D01*
X82677Y74581D02*
Y95866D01*
X144685Y62008D02*
Y68898D01*
X131890Y49213D02*
X144685Y62008D01*
X102927Y49213D02*
X131890D01*
X93386Y58754D02*
X102927Y49213D01*
X93386Y58754D02*
Y59935D01*
X92401Y60919D02*
X93386Y59935D01*
X91220Y60919D02*
X92401D01*
X114173Y57262D02*
X121063D01*
X108268Y63167D02*
X114173Y57262D01*
X108268Y63167D02*
Y67913D01*
D31*
X159134Y48679D02*
D03*
X41024Y117183D02*
D03*
D32*
X144685Y68898D02*
D03*
X138976Y126927D02*
D03*
X120787Y124588D02*
D03*
X105295Y126927D02*
D03*
X74803Y75787D02*
D03*
X108268Y67913D02*
D03*
D33*
X121063Y62598D02*
D03*
Y57480D02*
D03*
X114173Y95079D02*
D03*
Y89961D02*
D03*
X82677Y95866D02*
D03*
Y100984D02*
D03*
X91220Y60919D02*
D03*
Y66038D02*
D03*
D34*
X135512Y114173D02*
D03*
Y108268D02*
D03*
X125984D02*
D03*
Y114173D02*
D03*
D35*
X105315Y126969D02*
D03*
X111221D02*
D03*
M02*
