G04*
G04 #@! TF.GenerationSoftware,Altium Limited,Altium Designer,19.0.14 (431)*
G04*
G04 Layer_Color=8388736*
%FSLAX25Y25*%
%MOIN*%
G70*
G01*
G75*
%ADD14R,0.03438X0.06509*%
%ADD15R,0.16548X0.24422*%
%ADD16R,0.30328X0.10249*%
%ADD17R,0.07296X0.14304*%
%ADD18R,0.10800X0.05800*%
%ADD19R,0.11599X0.09300*%
%ADD20C,0.26181*%
%ADD21C,0.03162*%
D14*
X100610Y126927D02*
D03*
X105610D02*
D03*
X110610D02*
D03*
X115610D02*
D03*
X120610D02*
D03*
X125610D02*
D03*
X130610D02*
D03*
X135610D02*
D03*
Y107439D02*
D03*
X130610D02*
D03*
X125610D02*
D03*
X120610D02*
D03*
X115610D02*
D03*
X110610D02*
D03*
X105610D02*
D03*
X100610D02*
D03*
D15*
X121063Y46850D02*
D03*
X86024Y47047D02*
D03*
D16*
X108268Y68504D02*
D03*
Y92913D02*
D03*
D17*
X61102Y48662D02*
D03*
Y91102D02*
D03*
D18*
X74606Y75788D02*
D03*
Y63976D02*
D03*
D19*
X140945Y51142D02*
D03*
Y68543D02*
D03*
X144685Y99252D02*
D03*
Y81850D02*
D03*
D20*
X159134Y48679D02*
D03*
X41024Y117183D02*
D03*
D21*
X144685Y68898D02*
D03*
X138976Y126927D02*
D03*
X120787Y124588D02*
D03*
X105295Y126927D02*
D03*
X74803Y75787D02*
D03*
X108268Y67913D02*
D03*
M02*
