G04*
G04 #@! TF.GenerationSoftware,Altium Limited,Altium Designer,19.0.13 (425)*
G04*
G04 Layer_Color=8388736*
%FSLAX25Y25*%
%MOIN*%
G70*
G01*
G75*
%ADD11R,0.06509X0.03438*%
%ADD12R,0.07296X0.14304*%
%ADD13R,0.10800X0.05800*%
%ADD14R,0.09300X0.11599*%
%ADD15R,0.11599X0.09300*%
%ADD16R,0.10249X0.30328*%
%ADD17C,0.12400*%
%ADD18C,0.03162*%
%ADD19C,0.05800*%
D11*
X104429Y77758D02*
D03*
Y72758D02*
D03*
Y67758D02*
D03*
Y62758D02*
D03*
Y57758D02*
D03*
Y52758D02*
D03*
Y47758D02*
D03*
Y42758D02*
D03*
X123917D02*
D03*
Y47758D02*
D03*
Y52758D02*
D03*
Y57758D02*
D03*
Y62758D02*
D03*
Y67758D02*
D03*
Y72758D02*
D03*
Y77758D02*
D03*
D12*
X61102Y48662D02*
D03*
Y91102D02*
D03*
D13*
X74606Y75788D02*
D03*
Y63976D02*
D03*
D14*
X74764Y49606D02*
D03*
X92165D02*
D03*
D15*
X77756Y109095D02*
D03*
Y91693D02*
D03*
D16*
X121457Y98819D02*
D03*
X97047D02*
D03*
D17*
X141417Y106905D02*
D03*
X41024Y48679D02*
D03*
D18*
X86614Y66929D02*
D03*
X70866Y76128D02*
D03*
X100394Y57087D02*
D03*
X107283Y42088D02*
D03*
X117271Y71282D02*
D03*
X133071Y59471D02*
D03*
X121736Y99606D02*
D03*
X123622Y41754D02*
D03*
D19*
X73819Y91535D02*
D03*
M02*
