G04*
G04 #@! TF.GenerationSoftware,Altium Limited,Altium Designer,19.0.14 (431)*
G04*
G04 Layer_Color=16711935*
%FSLAX25Y25*%
%MOIN*%
G70*
G01*
G75*
%ADD21C,0.00079*%
D21*
X42315Y43576D02*
X42411Y42601D01*
X42696Y41663D01*
X43158Y40799D01*
X43779Y40041D01*
X44537Y39419D01*
X45401Y38957D01*
X46339Y38673D01*
X47315Y38576D01*
X42315Y121277D02*
X42210Y122296D01*
X41899Y123273D01*
X41396Y124165D01*
X40722Y124936D01*
X39904Y125554D01*
X38978Y125992D01*
X37982Y126232D01*
X38432Y146104D02*
X37435Y145964D01*
X36457Y145726D01*
X35509Y145390D01*
X34599Y144960D01*
X33737Y144442D01*
X32931Y143839D01*
X32190Y143158D01*
X31521Y142407D01*
X30931Y141592D01*
X30426Y140721D01*
X30011Y139805D01*
X29690Y138851D01*
X29467Y137870D01*
X29343Y136872D01*
X29320Y135866D01*
X29399Y134862D01*
X29577Y133872D01*
X29855Y132905D01*
X30228Y131971D01*
X30693Y131079D01*
X31246Y130238D01*
X31880Y129457D01*
X32590Y128743D01*
X33367Y128105D01*
X34205Y127548D01*
X35095Y127077D01*
X36027Y126699D01*
X36993Y126416D01*
X37982Y126232D01*
X38432Y146104D02*
X39465Y146307D01*
X40433Y146722D01*
X41292Y147330D01*
X44595Y148576D02*
X43698Y148495D01*
X42830Y148255D01*
X42019Y147862D01*
X41292Y147330D01*
X102315Y143577D02*
X102219Y144552D01*
X101934Y145490D01*
X101472Y146354D01*
X100850Y147112D01*
X100093Y147734D01*
X99228Y148196D01*
X98290Y148480D01*
X97315Y148576D01*
X102315Y100496D02*
X102420Y99477D01*
X102731Y98500D01*
X103234Y97608D01*
X103908Y96836D01*
X104726Y96219D01*
X105652Y95781D01*
X106648Y95541D01*
Y75719D02*
X107622Y75900D01*
X108574Y76176D01*
X109493Y76545D01*
X110372Y77003D01*
X111200Y77545D01*
X111972Y78167D01*
X112677Y78863D01*
X113311Y79624D01*
X113866Y80445D01*
X114337Y81316D01*
X114719Y82230D01*
X115010Y83178D01*
X115205Y84149D01*
X115303Y85135D01*
Y86125D01*
X115205Y87111D01*
X115010Y88082D01*
X114719Y89030D01*
X114337Y89943D01*
X113866Y90815D01*
X113311Y91636D01*
X112677Y92397D01*
X111972Y93093D01*
X111200Y93714D01*
X110372Y94257D01*
X109493Y94715D01*
X108574Y95084D01*
X107622Y95360D01*
X106648Y95541D01*
Y75719D02*
X105652Y75479D01*
X104726Y75041D01*
X103908Y74424D01*
X103234Y73652D01*
X102731Y72760D01*
X102420Y71783D01*
X102315Y70764D01*
X97315Y38576D02*
X98290Y38673D01*
X99228Y38957D01*
X100093Y39419D01*
X100850Y40041D01*
X101472Y40799D01*
X101934Y41663D01*
X102219Y42601D01*
X102315Y43576D01*
X42315D02*
Y121277D01*
X44595Y148576D02*
X97315D01*
X102315Y100496D02*
Y143577D01*
Y43576D02*
Y70764D01*
X47315Y38576D02*
X97315D01*
M02*
