G04*
G04 #@! TF.GenerationSoftware,Altium Limited,Altium Designer,19.0.14 (431)*
G04*
G04 Layer_Physical_Order=1*
G04 Layer_Color=255*
%FSLAX25Y25*%
%MOIN*%
G70*
G01*
G75*
%ADD15R,0.11811X0.03937*%
%ADD16R,0.15748X0.07874*%
%ADD17C,0.03937*%
%ADD18C,0.15748*%
%ADD19O,0.04724X0.15748*%
%ADD20C,0.05000*%
G36*
X98391Y147594D02*
X99394Y147178D01*
X100256Y146517D01*
X100917Y145656D01*
X101332Y144653D01*
X101473Y143582D01*
X101472Y143577D01*
Y100496D01*
X101460D01*
X101573Y99354D01*
X101906Y98255D01*
X102447Y97243D01*
X103175Y96356D01*
X104062Y95628D01*
X105074Y95087D01*
X106044Y94793D01*
X106069Y94761D01*
X105810Y94284D01*
X105315Y94333D01*
X103617Y94166D01*
X101984Y93671D01*
X100480Y92866D01*
X99161Y91784D01*
X98078Y90465D01*
X97274Y88960D01*
X96779Y87328D01*
X96612Y85630D01*
X96779Y83932D01*
X97274Y82299D01*
X98078Y80795D01*
X99161Y79476D01*
X100480Y78393D01*
X101984Y77589D01*
X103617Y77094D01*
X105315Y76927D01*
X105810Y76975D01*
X106069Y76498D01*
X106044Y76467D01*
X105074Y76173D01*
X104062Y75632D01*
X103175Y74904D01*
X102447Y74017D01*
X101906Y73005D01*
X101573Y71906D01*
X101460Y70764D01*
X101472D01*
Y43576D01*
X101473Y43571D01*
X101332Y42500D01*
X100917Y41497D01*
X100256Y40636D01*
X99394Y39975D01*
X98391Y39559D01*
X97320Y39418D01*
X97315Y39419D01*
X63235D01*
X62795Y39566D01*
Y49015D01*
X45472D01*
Y40423D01*
X44973Y40177D01*
X44374Y40636D01*
X43713Y41497D01*
X43298Y42500D01*
X43157Y43571D01*
X43158Y43576D01*
Y121277D01*
X43170D01*
X43057Y122419D01*
X42724Y123518D01*
X42183Y124530D01*
X41455Y125417D01*
X40568Y126145D01*
X39556Y126686D01*
X38587Y126980D01*
X38584Y126981D01*
X38560Y127012D01*
X38820Y127488D01*
X39316Y127439D01*
X41014Y127607D01*
X42647Y128102D01*
X44151Y128906D01*
X45470Y129989D01*
X46553Y131307D01*
X47357Y132812D01*
X47852Y134445D01*
X48019Y136143D01*
X47852Y137841D01*
X47357Y139473D01*
X46553Y140978D01*
X45470Y142297D01*
X44151Y143379D01*
X42647Y144184D01*
X41014Y144679D01*
X39316Y144846D01*
X39239Y144839D01*
X38997Y145317D01*
X39008Y145329D01*
X39131Y145342D01*
X40230Y145675D01*
X41242Y146216D01*
X41810Y146682D01*
X41843Y146704D01*
X41865Y146679D01*
X42516Y147178D01*
X43519Y147594D01*
X44590Y147735D01*
X44595Y147733D01*
X97315D01*
X97320Y147735D01*
X98391Y147594D01*
D02*
G37*
%LPC*%
G36*
X86024Y128767D02*
X85201Y128659D01*
X84435Y128342D01*
X83777Y127837D01*
X83272Y127179D01*
X82994Y126507D01*
X81004D01*
X79750Y126384D01*
X78544Y126018D01*
X77432Y125424D01*
X76458Y124624D01*
X75659Y123650D01*
X75065Y122539D01*
X74699Y121333D01*
X74575Y120079D01*
X74699Y118825D01*
X75065Y117619D01*
X75659Y116507D01*
X75884Y116233D01*
X73948Y114297D01*
X73507Y113721D01*
X73229Y113051D01*
X73134Y112331D01*
Y72637D01*
X65158D01*
Y67125D01*
X75740D01*
X75914Y67103D01*
X76087Y67125D01*
X78544D01*
Y69030D01*
X78599Y69163D01*
X78694Y69882D01*
Y111180D01*
X81164Y113650D01*
X82994D01*
X83272Y112978D01*
X83777Y112321D01*
X84435Y111816D01*
X85201Y111498D01*
X86024Y111390D01*
X86846Y111498D01*
X87612Y111816D01*
X88270Y112321D01*
X88775Y112978D01*
X89053Y113650D01*
X91043D01*
X92298Y113774D01*
X93503Y114139D01*
X94615Y114734D01*
X95589Y115533D01*
X96389Y116507D01*
X96983Y117619D01*
X97348Y118825D01*
X97472Y120079D01*
X97348Y121333D01*
X96983Y122539D01*
X96389Y123650D01*
X95589Y124624D01*
X94615Y125424D01*
X93503Y126018D01*
X92298Y126384D01*
X91043Y126507D01*
X89053D01*
X88775Y127179D01*
X88270Y127837D01*
X87612Y128342D01*
X86846Y128659D01*
X86024Y128767D01*
D02*
G37*
G36*
X58858Y103177D02*
X58036Y103068D01*
X57270Y102751D01*
X56612Y102246D01*
X56107Y101588D01*
X55829Y100917D01*
X53839D01*
X52584Y100793D01*
X51379Y100427D01*
X50267Y99833D01*
X49293Y99034D01*
X48493Y98060D01*
X47899Y96948D01*
X47534Y95742D01*
X47410Y94488D01*
X47534Y93234D01*
X47899Y92028D01*
X48493Y90917D01*
X49293Y89943D01*
X50267Y89143D01*
X51379Y88549D01*
X52584Y88183D01*
X53839Y88060D01*
X55829D01*
X56107Y87388D01*
X56612Y86730D01*
X57270Y86225D01*
X58036Y85908D01*
X58858Y85800D01*
X59680Y85908D01*
X60447Y86225D01*
X61105Y86730D01*
X61609Y87388D01*
X61888Y88060D01*
X63878D01*
X65132Y88183D01*
X66338Y88549D01*
X67449Y89143D01*
X68424Y89943D01*
X69223Y90917D01*
X69817Y92028D01*
X70183Y93234D01*
X70306Y94488D01*
X70183Y95742D01*
X69817Y96948D01*
X69223Y98060D01*
X68424Y99034D01*
X67449Y99833D01*
X66338Y100427D01*
X65132Y100793D01*
X63878Y100917D01*
X61888D01*
X61609Y101588D01*
X61105Y102246D01*
X60447Y102751D01*
X59680Y103068D01*
X58858Y103177D01*
D02*
G37*
G36*
X62795Y84449D02*
X45472D01*
Y75000D01*
X62795D01*
Y84449D01*
D02*
G37*
G36*
X86524Y67892D02*
Y59555D01*
X89415D01*
Y64567D01*
X89299Y65445D01*
X88960Y66263D01*
X88422Y66965D01*
X87719Y67504D01*
X86901Y67843D01*
X86524Y67892D01*
D02*
G37*
G36*
X85524D02*
X85146Y67843D01*
X84328Y67504D01*
X83626Y66965D01*
X83087Y66263D01*
X82748Y65445D01*
X82632Y64567D01*
Y59555D01*
X85524D01*
Y67892D01*
D02*
G37*
G36*
X56102Y65324D02*
X55244Y65211D01*
X54444Y64879D01*
X53758Y64353D01*
X53231Y63666D01*
X52900Y62866D01*
X52787Y62008D01*
X52900Y61150D01*
X53231Y60350D01*
X53758Y59663D01*
X54444Y59136D01*
X55244Y58805D01*
X56102Y58692D01*
X56961Y58805D01*
X57760Y59136D01*
X57879Y59228D01*
X71851D01*
X72031Y59251D01*
X78544D01*
Y64763D01*
X72031D01*
X71851Y64787D01*
X57881D01*
X57760Y64879D01*
X56961Y65211D01*
X56102Y65324D01*
D02*
G37*
G36*
X78756Y57102D02*
X72351D01*
Y54633D01*
X78756D01*
Y57102D01*
D02*
G37*
G36*
X71351D02*
X64945D01*
Y54633D01*
X71351D01*
Y57102D01*
D02*
G37*
G36*
X78756Y53633D02*
X72351D01*
Y51165D01*
X78756D01*
Y53633D01*
D02*
G37*
G36*
X71351D02*
X64945D01*
Y51165D01*
X71351D01*
Y53633D01*
D02*
G37*
G36*
X89415Y58555D02*
X86524D01*
Y50218D01*
X86901Y50268D01*
X87719Y50606D01*
X88422Y51145D01*
X88960Y51848D01*
X89299Y52666D01*
X89415Y53543D01*
Y58555D01*
D02*
G37*
G36*
X85524D02*
X82632D01*
Y53543D01*
X82748Y52666D01*
X83087Y51848D01*
X83626Y51145D01*
X84328Y50606D01*
X85146Y50268D01*
X85524Y50218D01*
Y58555D01*
D02*
G37*
%LPD*%
D15*
X71851Y69881D02*
D03*
Y54133D02*
D03*
Y62007D02*
D03*
D16*
X54134Y79724D02*
D03*
Y44290D02*
D03*
D17*
X75914Y69882D02*
Y112331D01*
X80708Y117125D01*
X56102Y62008D02*
X56103Y62007D01*
X71851D01*
X86024Y117489D02*
Y120079D01*
X85660Y117125D02*
X86024Y117489D01*
X80708Y117125D02*
X85660D01*
D18*
X105315Y85630D02*
D03*
X39316Y136143D02*
D03*
D19*
X86024Y120079D02*
D03*
Y59055D02*
D03*
X58858Y94488D02*
D03*
D20*
X56102Y62008D02*
D03*
M02*
