M48
;Layer_Color=9474304
;FILE_FORMAT=2:5
INCH,LZ
;TYPE=PLATED
T1F00S00C0.01181
T2F00S00C0.02362
T3F00S00C0.02559
T4F00S00C0.03346
T5F00S00C0.03543
T6F00S00C0.04016
T7F00S00C0.16535
%
T01
X-0047244Y-0104331
Y-0089568
X-0051181Y-0076772
X-003937Y-0060039
X-0029528
X-0033465Y-0044985
X-0028721Y-0040354
X-005315Y-0045807
X-0046565Y-0015354
X-0024606Y-0087598
Y-0105315
X0Y-0073603
Y-0066142
X-0076772Y-0068898
X-0084646Y-0077756
X-0089567Y-0087598
Y-0090746
Y-0096457
X-0086614Y-0093504
X-007874Y-0106299
X-0063895
X-0060039Y-0090551
X-0075787Y-0036417
X-0102362Y-0035433
X-0111221Y-0036417
X-0114173Y-0045807
X-0130905Y-005122
X-0130906Y-0035433
X-0137795Y-0029528
X-0159449Y-003937
X-0162402Y-0049213
X-0163386Y-0054134
X-0160887Y-005659
X-0155512Y-0056221
X-015748Y-005315
X-0151453Y-0052165
X-0151575Y-0086614
X-0162402Y-0088776
X-0179134Y-0063892
X-0188976Y-0061024
X-0186024Y-0043307
X-0182087Y-0035433
X-0177165Y-0036417
X-017815Y-0025684
X-0161417Y-0016732
X-0154528Y-0012795
X-0054134Y-0023622
X-0058571Y0019685
X-0074803Y001063
Y002874
X-0073622Y0075524
X-0060236Y0073032
X-0054724
X-0063976Y0103347
X-0082087
X-0094488Y009202
X-0111221Y0073032
X-0130905Y0057087
X-0170276Y0049213
Y0045276
X-0178346Y0039002
X-0174213Y0084646
X-0166339
X-0154528Y0003937
X-0149661Y-0007874
X-0134843Y0003937
X-0050197Y007874
X-0050984Y0103347
X-0032874
X0086614Y0102363
X0098425Y-0001181
X0110236Y0010773
X0124521Y0102363
T02
X-0083661Y-0041654
Y-0031654
Y-0021654
X-0063661
Y-0031654
Y-0041654
Y-0001654
X-0083661
T03
X006063Y-0047874
Y-0017874
Y0002126
Y0032126
T04
X0025118Y-0062992
X0035118
X0055118
X0065118
X0075118
T05
X-0021248Y-0004921
Y0034449
T06
X-0143032Y-001378
X-0133031
X-0123031
X-0113031
X-0103032
T07
X0001969Y-0098425
X-0221457
Y0098425
X0001969
M30
