G04*
G04 #@! TF.GenerationSoftware,Altium Limited,Altium Designer,19.0.15 (446)*
G04*
G04 Layer_Color=8388736*
%FSLAX25Y25*%
%MOIN*%
G70*
G01*
G75*
%ADD19R,0.10400X0.05400*%
%ADD20R,0.06896X0.13904*%
%ADD21R,0.03353X0.03550*%
%ADD22R,0.04337X0.12211*%
%ADD23R,0.08274X0.16148*%
%ADD24R,0.03550X0.03353*%
%ADD25R,0.05912X0.05912*%
%ADD26R,0.04731X0.05715*%
%ADD27O,0.08668X0.01581*%
%ADD28O,0.01581X0.08668*%
%ADD29R,0.03156X0.03943*%
%ADD30R,0.16148X0.24022*%
%ADD31R,0.03943X0.03156*%
%ADD32R,0.09061X0.05124*%
%ADD33R,0.30400X0.25400*%
%ADD34R,0.02762X0.06502*%
%ADD35R,0.05900X0.01500*%
%ADD36R,0.06502X0.02762*%
%ADD37R,0.05124X0.05124*%
%ADD38R,0.14573X0.05124*%
%ADD39C,0.31896*%
%ADD40C,0.06306*%
%ADD41C,0.04239*%
%ADD42C,0.03943*%
%ADD43C,0.02762*%
D19*
X104331Y-98426D02*
D03*
Y-86615D02*
D03*
Y-74803D02*
D03*
Y-62992D02*
D03*
X104319Y-12849D02*
D03*
Y-1038D02*
D03*
Y10773D02*
D03*
Y22584D02*
D03*
Y34395D02*
D03*
D20*
X117835Y-47677D02*
D03*
Y-113741D02*
D03*
X117823Y49710D02*
D03*
Y-28164D02*
D03*
D21*
X-192913Y-22638D02*
D03*
Y-16732D02*
D03*
X-197835D02*
D03*
Y-22638D02*
D03*
X-85630Y-81693D02*
D03*
Y-87598D02*
D03*
X-154528Y-23268D02*
D03*
Y-17362D02*
D03*
X-79724Y-77756D02*
D03*
Y-71850D02*
D03*
X-178150Y-22638D02*
D03*
Y-16732D02*
D03*
X-183071D02*
D03*
Y-22638D02*
D03*
X-79331Y-90748D02*
D03*
Y-84842D02*
D03*
X-49409Y-15354D02*
D03*
Y-21260D02*
D03*
X-30118Y-50591D02*
D03*
Y-56496D02*
D03*
X-17126Y-56221D02*
D03*
Y-50315D02*
D03*
X-34449Y-56496D02*
D03*
Y-50591D02*
D03*
X-21457Y-50315D02*
D03*
Y-56221D02*
D03*
X-54134Y-15354D02*
D03*
Y-21260D02*
D03*
X-38780Y-50591D02*
D03*
Y-56496D02*
D03*
X-79331Y-97441D02*
D03*
Y-103347D02*
D03*
X-65551Y67126D02*
D03*
Y73032D02*
D03*
X-60236D02*
D03*
Y67126D02*
D03*
X-49803D02*
D03*
Y73032D02*
D03*
X-54724D02*
D03*
Y67126D02*
D03*
D22*
X-162402Y-86614D02*
D03*
X-154528D02*
D03*
X-170276D02*
D03*
X-178150D02*
D03*
X-111221Y84646D02*
D03*
X-119095D02*
D03*
X-134843D02*
D03*
X-126969D02*
D03*
X-166339D02*
D03*
X-174213D02*
D03*
X-189961D02*
D03*
X-182087D02*
D03*
X-186024Y47245D02*
D03*
X-178150D02*
D03*
X-170276D02*
D03*
X-162402D02*
D03*
X-154528D02*
D03*
X-146654D02*
D03*
X-130906D02*
D03*
X-138780D02*
D03*
D23*
X-144685Y-104331D02*
D03*
X-187993D02*
D03*
X-101377Y102363D02*
D03*
X-144685D02*
D03*
X-156496D02*
D03*
X-199804D02*
D03*
X-195867Y29528D02*
D03*
X-121063D02*
D03*
D24*
X-41339Y-92520D02*
D03*
X-47244D02*
D03*
X-41339Y-101378D02*
D03*
X-47244D02*
D03*
X-185039Y-61024D02*
D03*
X-179134D02*
D03*
X-153937Y6791D02*
D03*
X-159843D02*
D03*
Y13189D02*
D03*
X-153937D02*
D03*
X-147539D02*
D03*
X-141634D02*
D03*
X-135630Y6791D02*
D03*
X-129724D02*
D03*
Y13189D02*
D03*
X-135630D02*
D03*
X-88583Y92520D02*
D03*
X-94488D02*
D03*
X-82284Y-65354D02*
D03*
X-76378D02*
D03*
X-82284Y-60630D02*
D03*
X-76378D02*
D03*
X-53543Y-81102D02*
D03*
X-59449D02*
D03*
X-55118Y-106299D02*
D03*
X-61024D02*
D03*
X-59449Y-76772D02*
D03*
X-53543D02*
D03*
X-143701Y-73603D02*
D03*
X-149606D02*
D03*
X-176181Y-32480D02*
D03*
X-182087D02*
D03*
D25*
X45768Y-91457D02*
D03*
Y-101457D02*
D03*
X78248Y-91457D02*
D03*
Y-101457D02*
D03*
D26*
X-34646Y-101085D02*
D03*
X-18504D02*
D03*
Y-92227D02*
D03*
X-34646D02*
D03*
D27*
X-170079Y-37402D02*
D03*
Y-39370D02*
D03*
Y-41339D02*
D03*
Y-43307D02*
D03*
Y-45276D02*
D03*
Y-47244D02*
D03*
Y-49213D02*
D03*
Y-51181D02*
D03*
Y-53150D02*
D03*
Y-55118D02*
D03*
Y-57087D02*
D03*
Y-59055D02*
D03*
X-137795D02*
D03*
Y-57087D02*
D03*
Y-55118D02*
D03*
Y-53150D02*
D03*
Y-51181D02*
D03*
Y-49213D02*
D03*
Y-47244D02*
D03*
Y-45276D02*
D03*
Y-43307D02*
D03*
Y-41339D02*
D03*
Y-39370D02*
D03*
Y-37402D02*
D03*
D28*
X-164764Y-64370D02*
D03*
X-162795D02*
D03*
X-160827D02*
D03*
X-158858D02*
D03*
X-156890D02*
D03*
X-154921D02*
D03*
X-152953D02*
D03*
X-150984D02*
D03*
X-149016D02*
D03*
X-147047D02*
D03*
X-145079D02*
D03*
X-143110D02*
D03*
Y-32087D02*
D03*
X-145079D02*
D03*
X-147047D02*
D03*
X-149016D02*
D03*
X-150984D02*
D03*
X-152953D02*
D03*
X-154921D02*
D03*
X-156890D02*
D03*
X-158858D02*
D03*
X-160827D02*
D03*
X-162795D02*
D03*
X-164764D02*
D03*
D29*
X-178346Y-47244D02*
D03*
X-185827D02*
D03*
X-182087Y-55118D02*
D03*
X-66142Y-69882D02*
D03*
X-73622D02*
D03*
X-69882Y-77756D02*
D03*
X-140945Y6693D02*
D03*
X-148425D02*
D03*
X-144685Y-1181D02*
D03*
X-44291Y-50591D02*
D03*
X-51772D02*
D03*
X-48031Y-58465D02*
D03*
D30*
X123819Y102362D02*
D03*
X88779Y102559D02*
D03*
Y72835D02*
D03*
X123819Y72638D02*
D03*
D31*
X-164370Y-24213D02*
D03*
Y-16732D02*
D03*
X-172244Y-20472D02*
D03*
D32*
X-36811Y28740D02*
D03*
Y10630D02*
D03*
D33*
X-65945Y19685D02*
D03*
D34*
X-43720Y-36614D02*
D03*
X-38721D02*
D03*
X-33720D02*
D03*
X-28721D02*
D03*
Y-15354D02*
D03*
X-33720D02*
D03*
X-38721D02*
D03*
X-43720D02*
D03*
D35*
X-72183Y-86806D02*
D03*
Y-88776D02*
D03*
Y-90746D02*
D03*
Y-92716D02*
D03*
Y-94686D02*
D03*
Y-96656D02*
D03*
Y-98626D02*
D03*
Y-100596D02*
D03*
X-54983D02*
D03*
Y-98626D02*
D03*
Y-96656D02*
D03*
Y-94686D02*
D03*
Y-92716D02*
D03*
Y-90746D02*
D03*
Y-88776D02*
D03*
Y-86806D02*
D03*
D36*
X-118898Y-35807D02*
D03*
Y-40807D02*
D03*
Y-45807D02*
D03*
Y-50807D02*
D03*
X-97638D02*
D03*
Y-45807D02*
D03*
Y-40807D02*
D03*
Y-35807D02*
D03*
D37*
X-63976Y103347D02*
D03*
X-73032D02*
D03*
X-82087D02*
D03*
X-32874D02*
D03*
X-41929D02*
D03*
X-50984D02*
D03*
D38*
X-73032Y79331D02*
D03*
X-41929D02*
D03*
D39*
X-221457Y98425D02*
D03*
Y-98425D02*
D03*
X1969D02*
D03*
Y98425D02*
D03*
D40*
X-103032Y-13780D02*
D03*
X-113031D02*
D03*
X-123031D02*
D03*
X-133031D02*
D03*
X-143032D02*
D03*
X-21248Y34449D02*
D03*
Y-4921D02*
D03*
D41*
X60630Y32126D02*
D03*
Y2126D02*
D03*
Y-17874D02*
D03*
Y-47874D02*
D03*
D42*
X-83661Y-21654D02*
D03*
Y-31654D02*
D03*
Y-41654D02*
D03*
X-63661D02*
D03*
Y-31654D02*
D03*
Y-21654D02*
D03*
Y-1654D02*
D03*
X-83661D02*
D03*
D43*
X98425Y-1181D02*
D03*
X110236Y10773D02*
D03*
X-33465Y-44985D02*
D03*
X-53150Y-45807D02*
D03*
X-60039Y-90551D02*
D03*
X-75787Y-36417D02*
D03*
X-76772Y-68898D02*
D03*
X-130906Y-35433D02*
D03*
X-177165Y-36417D02*
D03*
X-163386Y-54134D02*
D03*
X-162402Y-49213D02*
D03*
X-160887Y-56590D02*
D03*
X-155512Y-56221D02*
D03*
X-137795Y-29528D02*
D03*
X-111221Y-36417D02*
D03*
X-50197Y78740D02*
D03*
X-154528Y-12795D02*
D03*
X-149661Y-7874D02*
D03*
X-151453Y-52165D02*
D03*
X-111221Y73032D02*
D03*
X-159449Y-39370D02*
D03*
X-161417Y-16732D02*
D03*
X-84646Y-77756D02*
D03*
X-73622Y75524D02*
D03*
X-114173Y-45807D02*
D03*
X-151575Y-86614D02*
D03*
X-179134Y-63892D02*
D03*
X-102362Y-35433D02*
D03*
X-154528Y3937D02*
D03*
X-134843D02*
D03*
X-186024Y-43307D02*
D03*
X-178150Y-25684D02*
D03*
X-89567Y-96457D02*
D03*
X-157480Y-53150D02*
D03*
X-86614Y-93504D02*
D03*
X-89567Y-90746D02*
D03*
Y-87598D02*
D03*
X-182087Y-35433D02*
D03*
X-178346Y39002D02*
D03*
X-188976Y-61024D02*
D03*
X-78740Y-106299D02*
D03*
X-63895D02*
D03*
X-47244Y-104331D02*
D03*
Y-89568D02*
D03*
X-29528Y-60039D02*
D03*
X-39370D02*
D03*
X-51181Y-76772D02*
D03*
X-54134Y-23622D02*
D03*
X-46565Y-15354D02*
D03*
X-28721Y-40354D02*
D03*
X-94488Y92020D02*
D03*
X-50984Y103347D02*
D03*
X-82087D02*
D03*
X-130905Y57087D02*
D03*
X-166339Y84646D02*
D03*
X-174213D02*
D03*
X-170276Y45276D02*
D03*
Y49213D02*
D03*
X-162402Y-88776D02*
D03*
X-74803Y10630D02*
D03*
X-58571Y19685D02*
D03*
X-74803Y28740D02*
D03*
X-32874Y103347D02*
D03*
X-54724Y73032D02*
D03*
X-60236D02*
D03*
X-63976Y103347D02*
D03*
X86614Y102363D02*
D03*
X124521D02*
D03*
M02*
