G04*
G04 #@! TF.GenerationSoftware,Altium Limited,Altium Designer,19.0.15 (446)*
G04*
G04 Layer_Color=65535*
%FSLAX25Y25*%
%MOIN*%
G70*
G01*
G75*
%ADD10C,0.02362*%
%ADD11C,0.00984*%
%ADD12C,0.00600*%
%ADD13C,0.00591*%
%ADD14C,0.00787*%
%ADD15C,0.00800*%
%ADD16C,0.00500*%
%ADD17C,0.01575*%
%ADD18C,0.01000*%
G36*
X-70863Y-82626D02*
X-70835Y-82640D01*
X-70806Y-82669D01*
X-70799Y-82676D01*
X-70784Y-82705D01*
X-70770Y-82748D01*
X-70763Y-82812D01*
Y-83773D01*
X-69852Y-83472D01*
X-69845Y-83465D01*
X-69817Y-83457D01*
X-69788Y-83450D01*
X-69752D01*
X-69731Y-83457D01*
X-69702Y-83465D01*
X-69666Y-83493D01*
X-69659Y-83500D01*
X-69644Y-83515D01*
X-69630Y-83551D01*
X-69623Y-83587D01*
Y-83594D01*
Y-83615D01*
X-69637Y-83644D01*
X-69652Y-83680D01*
X-69659Y-83687D01*
X-69673Y-83701D01*
X-69709Y-83715D01*
X-69766Y-83737D01*
X-70677Y-84038D01*
X-70118Y-84812D01*
X-70111Y-84827D01*
X-70089Y-84856D01*
X-70068Y-84899D01*
X-70060Y-84934D01*
Y-84942D01*
X-70068Y-84970D01*
X-70075Y-84999D01*
X-70103Y-85035D01*
X-70111Y-85042D01*
X-70132Y-85056D01*
X-70161Y-85071D01*
X-70204Y-85078D01*
X-70218D01*
X-70247Y-85063D01*
X-70290Y-85035D01*
X-70319Y-85013D01*
X-70340Y-84977D01*
X-70906Y-84203D01*
X-71473Y-84977D01*
Y-84985D01*
X-71487Y-84992D01*
X-71516Y-85028D01*
X-71559Y-85063D01*
X-71580Y-85071D01*
X-71609Y-85078D01*
X-71616D01*
X-71645Y-85071D01*
X-71674Y-85056D01*
X-71710Y-85035D01*
X-71717Y-85028D01*
X-71731Y-85006D01*
X-71745Y-84977D01*
X-71753Y-84934D01*
Y-84927D01*
X-71745Y-84906D01*
X-71731Y-84863D01*
X-71695Y-84812D01*
X-71129Y-84038D01*
X-72047Y-83730D01*
X-72061Y-83723D01*
X-72089Y-83715D01*
X-72132Y-83694D01*
X-72161Y-83672D01*
Y-83665D01*
X-72168Y-83651D01*
X-72176Y-83622D01*
X-72183Y-83587D01*
Y-83579D01*
X-72176Y-83551D01*
X-72168Y-83522D01*
X-72147Y-83493D01*
X-72140Y-83486D01*
X-72118Y-83472D01*
X-72089Y-83457D01*
X-72054Y-83450D01*
X-72025D01*
X-71996Y-83457D01*
X-71953Y-83472D01*
X-71043Y-83773D01*
Y-82812D01*
Y-82805D01*
Y-82798D01*
X-71035Y-82755D01*
X-71028Y-82712D01*
X-71007Y-82669D01*
X-71000Y-82661D01*
X-70978Y-82640D01*
X-70942Y-82626D01*
X-70899Y-82618D01*
X-70892D01*
X-70863Y-82626D01*
D02*
G37*
D10*
X71653Y-102756D02*
X71209Y-101832D01*
X70210Y-101604D01*
X69408Y-102243D01*
Y-103268D01*
X70210Y-103907D01*
X71209Y-103679D01*
X71653Y-102756D01*
X-159252Y-41732D02*
X-159697Y-40809D01*
X-160696Y-40581D01*
X-161497Y-41220D01*
Y-42245D01*
X-160696Y-42884D01*
X-159697Y-42656D01*
X-159252Y-41732D01*
D11*
X78740Y-106378D02*
X78002Y-105952D01*
Y-106804D01*
X78740Y-106378D01*
X-169587Y-34646D02*
X-170325Y-34220D01*
Y-35072D01*
X-169587Y-34646D01*
D12*
X-64783Y-85601D02*
X-64396Y-86435D01*
X-63533Y-86751D01*
X-62699Y-86364D01*
X-62383Y-85501D01*
X-67520D02*
X-63583D01*
X-67520Y-101901D02*
X-59646D01*
X-63583Y-85501D02*
X-59646D01*
X86614Y15410D02*
X87814D01*
X87214D01*
Y11811D01*
X86614D01*
X87814D01*
X89613D02*
Y15410D01*
X90813Y14210D01*
X92012Y15410D01*
Y11811D01*
X93212Y15410D02*
Y11811D01*
X95012D01*
X95611Y12411D01*
Y14810D01*
X95012Y15410D01*
X93212D01*
X96811Y13610D02*
X99210D01*
X98010Y14810D02*
Y12411D01*
X86614Y3599D02*
X87814D01*
X87214D01*
Y-0D01*
X86614D01*
X87814D01*
X89613D02*
Y3599D01*
X90813Y2399D01*
X92012Y3599D01*
Y-0D01*
X93212Y3599D02*
Y-0D01*
X95012D01*
X95611Y600D01*
Y2999D01*
X95012Y3599D01*
X93212D01*
X96811Y1799D02*
X99210D01*
X90551Y-8212D02*
Y-11811D01*
Y-10012D01*
X92950D01*
Y-8212D01*
Y-11811D01*
X94150Y-8212D02*
Y-10611D01*
X95350Y-11811D01*
X96549Y-10611D01*
Y-8212D01*
X97749Y-10012D02*
X100148D01*
X90551Y27221D02*
Y23622D01*
Y25422D01*
X92950D01*
Y27221D01*
Y23622D01*
X94150Y27221D02*
Y24822D01*
X95350Y23622D01*
X96549Y24822D01*
Y27221D01*
X97749Y25422D02*
X100148D01*
X98949Y26621D02*
Y24222D01*
X86614Y-23622D02*
Y-20023D01*
X88414D01*
X89013Y-20623D01*
Y-21823D01*
X88414Y-22422D01*
X86614D01*
X92612Y-20623D02*
X92012Y-20023D01*
X90813D01*
X90213Y-20623D01*
Y-23022D01*
X90813Y-23622D01*
X92012D01*
X92612Y-23022D01*
X96211Y-20623D02*
X95611Y-20023D01*
X94412D01*
X93812Y-20623D01*
Y-23022D01*
X94412Y-23622D01*
X95611D01*
X96211Y-23022D01*
Y-21823D01*
X95012D01*
X97411D02*
X99810D01*
X98610Y-20623D02*
Y-23022D01*
X-181440Y1969D02*
X-185039D01*
X-181440D02*
Y-260D01*
X-183154Y1969D02*
Y597D01*
X-185039Y-3413D02*
X-181440Y-2042D01*
X-185039Y-671D01*
X-183840Y-1185D02*
Y-2899D01*
X-181440Y-4253D02*
X-184011D01*
X-184525Y-4424D01*
X-184868Y-4767D01*
X-185039Y-5281D01*
Y-5624D01*
X-184868Y-6138D01*
X-184525Y-6481D01*
X-184011Y-6652D01*
X-181440D01*
Y-7647D02*
X-185039D01*
Y-9703D01*
X-181440Y-11297D02*
X-185039D01*
X-181440Y-10097D02*
Y-12497D01*
X-195220Y2953D02*
X-198819D01*
Y1153D01*
X-198219Y554D01*
X-195820D01*
X-195220Y1153D01*
Y2953D01*
Y-3045D02*
Y-646D01*
X-198819D01*
Y-3045D01*
X-197020Y-646D02*
Y-1846D01*
X-195220Y-4245D02*
X-198819D01*
Y-6044D01*
X-198219Y-6644D01*
X-197619D01*
X-197020Y-6044D01*
Y-4245D01*
Y-6044D01*
X-196420Y-6644D01*
X-195820D01*
X-195220Y-6044D01*
Y-4245D01*
Y-7844D02*
X-198219D01*
X-198819Y-8444D01*
Y-9643D01*
X-198219Y-10243D01*
X-195220D01*
X-195820Y-13842D02*
X-195220Y-13242D01*
Y-12042D01*
X-195820Y-11443D01*
X-198219D01*
X-198819Y-12042D01*
Y-13242D01*
X-198219Y-13842D01*
X-197020D01*
Y-12642D01*
X89764Y-98370D02*
X90963D01*
X90364D01*
Y-101969D01*
X89764D01*
X90963D01*
X92763D02*
Y-98370D01*
X93962Y-99569D01*
X95162Y-98370D01*
Y-101969D01*
X89764Y-86559D02*
X90963D01*
X90364D01*
Y-90158D01*
X89764D01*
X90963D01*
X92763D02*
Y-86559D01*
X94562D01*
X95162Y-87159D01*
Y-88358D01*
X94562Y-88958D01*
X92763D01*
X-17520Y-46457D02*
X-21118D01*
Y-44657D01*
X-20519Y-44058D01*
X-19319D01*
X-18719Y-44657D01*
Y-46457D01*
X-19919Y-42858D02*
X-17520D01*
X-18719D01*
X-19319Y-42258D01*
X-19919Y-41658D01*
Y-41058D01*
X-17520Y-37460D02*
Y-38659D01*
X-18120Y-39259D01*
X-19319D01*
X-19919Y-38659D01*
Y-37460D01*
X-19319Y-36860D01*
X-18719D01*
Y-39259D01*
X-19919Y-33261D02*
Y-35060D01*
X-19319Y-35660D01*
X-18120D01*
X-17520Y-35060D01*
Y-33261D01*
X-21118Y-32061D02*
X-17520D01*
X-19319D01*
X-19919Y-31462D01*
Y-30262D01*
X-19319Y-29662D01*
X-17520D01*
X-19919Y-27863D02*
Y-26663D01*
X-19319Y-26063D01*
X-17520D01*
Y-27863D01*
X-18120Y-28462D01*
X-18719Y-27863D01*
Y-26063D01*
X-19919Y-24864D02*
X-17520D01*
X-18719D01*
X-19319Y-24264D01*
X-19919Y-23664D01*
Y-23064D01*
X-16320Y-20065D02*
Y-19465D01*
X-16920Y-18866D01*
X-19919D01*
Y-20665D01*
X-19319Y-21265D01*
X-18120D01*
X-17520Y-20665D01*
Y-18866D01*
Y-15867D02*
Y-17066D01*
X-18120Y-17666D01*
X-19319D01*
X-19919Y-17066D01*
Y-15867D01*
X-19319Y-15267D01*
X-18719D01*
Y-17666D01*
X-21118Y-11668D02*
X-17520D01*
Y-13467D01*
X-18120Y-14067D01*
X-19319D01*
X-19919Y-13467D01*
Y-11668D01*
X-71063Y-66535D02*
Y-64136D01*
X-69863Y-62937D01*
X-68664Y-64136D01*
Y-66535D01*
Y-64736D01*
X-71063D01*
X-67464Y-62937D02*
X-66264D01*
X-66864D01*
Y-66535D01*
X-67464D01*
X-66264D01*
X-64465D02*
Y-62937D01*
X-62666D01*
X-62066Y-63536D01*
Y-64736D01*
X-62666Y-65336D01*
X-64465D01*
X-63266D02*
X-62066Y-66535D01*
X29111Y99875D02*
X31110D01*
X30111D01*
Y105874D01*
X29111Y104874D01*
X38108Y99875D02*
X34109D01*
X38108Y103874D01*
Y104874D01*
X37108Y105874D01*
X35109D01*
X34109Y104874D01*
X40107Y99875D02*
Y100875D01*
X41107D01*
Y99875D01*
X40107D01*
X45106Y105874D02*
X49104D01*
Y104874D01*
X45106Y100875D01*
Y99875D01*
X51104Y104874D02*
X52103Y105874D01*
X54103D01*
X55102Y104874D01*
Y100875D01*
X54103Y99875D01*
X52103D01*
X51104Y100875D01*
Y104874D01*
X57102Y99875D02*
Y103874D01*
X58101D01*
X59101Y102875D01*
Y99875D01*
Y102875D01*
X60101Y103874D01*
X61101Y102875D01*
Y99875D01*
X63100D02*
Y103874D01*
X64100D01*
X65099Y102875D01*
Y99875D01*
Y102875D01*
X66099Y103874D01*
X67099Y102875D01*
Y99875D01*
D13*
X-199484Y-25185D02*
X-196335D01*
X-188189Y-53996D02*
Y-51181D01*
Y-53996D02*
X-186024D01*
X-178150D02*
X-175984D01*
Y-51181D01*
X-75984Y-76634D02*
Y-73819D01*
Y-76634D02*
X-73819D01*
X-65945D02*
X-63779D01*
Y-73819D01*
X-184721Y-25185D02*
X-181571D01*
X-171122Y-14370D02*
X-168307D01*
X-171122Y-16535D02*
Y-14370D01*
Y-26575D02*
Y-24409D01*
Y-26575D02*
X-168307D01*
X-150787Y-59D02*
Y2756D01*
Y-59D02*
X-148622D01*
X-140748D02*
X-138583D01*
Y2756D01*
X-98032Y-18779D02*
Y-8779D01*
X-148031Y-18779D02*
X-98032D01*
X-148031D02*
Y-8779D01*
X-98032D01*
X-15933Y4528D02*
Y25000D01*
X-26563Y4528D02*
X-15933D01*
X-26563D02*
Y25000D01*
X-15933D01*
X-25185Y7874D02*
X-17311D01*
X-73831Y-67004D02*
Y-63854D01*
X-54134Y-57342D02*
Y-54528D01*
Y-57342D02*
X-51968D01*
X-44094D02*
X-41929D01*
Y-54528D01*
X-26575Y-33661D02*
Y-18307D01*
X-45866Y-33661D02*
Y-18307D01*
X-23106Y-58768D02*
X-19957D01*
X24409Y124016D02*
X24409Y-123721D01*
X74803Y-124016D02*
Y124016D01*
X-115945Y-52953D02*
X-100591D01*
X-115945Y-33661D02*
X-100591D01*
X-67201Y64579D02*
X-64051D01*
X-86811Y99016D02*
X-85827D01*
X-86811Y83661D02*
Y99016D01*
Y83661D02*
X-84842D01*
X-60236Y99016D02*
X-59252D01*
Y83661D02*
Y99016D01*
X-61221Y83661D02*
X-59252D01*
X-51453Y64579D02*
X-48303D01*
X-55709Y99016D02*
X-54724D01*
X-55709Y83661D02*
Y99016D01*
Y83661D02*
X-53740D01*
X-29134Y99016D02*
X-28150D01*
Y83661D02*
Y99016D01*
X-30118Y83661D02*
X-28150D01*
D14*
X49606Y-86221D02*
X74410D01*
X49606Y-106693D02*
X74410D01*
X49606D02*
Y-86221D01*
X74410Y-106693D02*
Y-86221D01*
X-164370Y-58661D02*
Y-37795D01*
X-143504Y-58661D02*
Y-37795D01*
X-164370D02*
X-143504D01*
X-164370Y-58661D02*
X-143504D01*
X66831Y111647D02*
X74705Y114272D01*
X66831Y116896D02*
X74705Y114272D01*
X24705D02*
X32579Y116896D01*
X24705Y114272D02*
X32579Y111647D01*
X49705Y114272D02*
X74705D01*
X24705D02*
X49705D01*
X74705Y106398D02*
Y122146D01*
X24705Y106398D02*
Y122146D01*
X-228217Y66142D02*
Y64830D01*
Y65486D01*
X-232153D01*
Y66142D01*
Y64830D01*
Y62862D02*
Y61550D01*
Y62206D01*
X-228217D01*
Y62862D01*
X-232153Y59582D02*
Y58270D01*
Y58926D01*
X-228217D01*
Y59582D01*
X-232153Y56302D02*
Y54991D01*
Y55646D01*
X-229529D01*
Y56302D01*
X-232153Y53023D02*
X-229529D01*
Y51055D01*
X-230185Y50399D01*
X-232153D01*
Y49087D02*
Y47775D01*
Y48431D01*
X-229529D01*
Y49087D01*
X-228217Y39248D02*
Y41871D01*
X-230185D01*
Y40559D01*
Y41871D01*
X-232153D01*
Y37280D02*
Y35968D01*
X-231497Y35312D01*
X-230185D01*
X-229529Y35968D01*
Y37280D01*
X-230185Y37936D01*
X-231497D01*
X-232153Y37280D01*
X-229529Y34000D02*
X-232153D01*
X-230841D01*
X-230185Y33344D01*
X-229529Y32688D01*
Y32032D01*
X-232153Y30064D02*
X-229529D01*
Y29408D01*
X-230185Y28752D01*
X-232153D01*
X-230185D01*
X-229529Y28096D01*
X-230185Y27440D01*
X-232153D01*
X-229529Y26128D02*
X-231497D01*
X-232153Y25472D01*
Y23505D01*
X-229529D01*
X-232153Y22193D02*
Y20881D01*
Y21537D01*
X-228217D01*
Y22193D01*
X-229529Y18257D02*
Y16945D01*
X-230185Y16289D01*
X-232153D01*
Y18257D01*
X-231497Y18913D01*
X-230841Y18257D01*
Y16289D01*
X-228217Y8418D02*
Y11041D01*
X-232153D01*
Y8418D01*
X-230185Y11041D02*
Y9730D01*
X-232153Y7106D02*
Y5794D01*
Y6450D01*
X-228217D01*
Y7106D01*
X-232153Y1858D02*
Y3170D01*
X-231497Y3826D01*
X-230185D01*
X-229529Y3170D01*
Y1858D01*
X-230185Y1202D01*
X-230841D01*
Y3826D01*
X-229529Y-2734D02*
Y-766D01*
X-230185Y-110D01*
X-231497D01*
X-232153Y-766D01*
Y-2734D01*
X-228873Y-4702D02*
X-229529D01*
Y-4046D01*
Y-5358D01*
Y-4702D01*
X-231497D01*
X-232153Y-5358D01*
Y-7325D02*
Y-8637D01*
Y-7981D01*
X-229529D01*
Y-7325D01*
Y-13229D02*
Y-11261D01*
X-230185Y-10605D01*
X-231497D01*
X-232153Y-11261D01*
Y-13229D01*
X-230185Y-18477D02*
Y-21101D01*
X-232153Y-26348D02*
X-229529D01*
X-228217Y-27660D01*
X-229529Y-28972D01*
X-232153D01*
X-230185D01*
Y-26348D01*
X-233465Y-30284D02*
X-229529D01*
Y-32252D01*
X-230185Y-32908D01*
X-231497D01*
X-232153Y-32252D01*
Y-30284D01*
Y-34876D02*
Y-36187D01*
X-231497Y-36843D01*
X-230185D01*
X-229529Y-36187D01*
Y-34876D01*
X-230185Y-34220D01*
X-231497D01*
X-232153Y-34876D01*
Y-38155D02*
Y-39467D01*
Y-38811D01*
X-228217D01*
Y-38155D01*
X-232153Y-41435D02*
Y-42747D01*
Y-42091D01*
X-228217D01*
Y-41435D01*
X-232153Y-45371D02*
Y-46683D01*
X-231497Y-47339D01*
X-230185D01*
X-229529Y-46683D01*
Y-45371D01*
X-230185Y-44715D01*
X-231497D01*
X-232153Y-45371D01*
Y-55210D02*
Y-52586D01*
X-229529Y-55210D01*
X-228873D01*
X-228217Y-54554D01*
Y-53242D01*
X-228873Y-52586D01*
Y-56522D02*
X-228217Y-57178D01*
Y-58490D01*
X-228873Y-59146D01*
X-231497D01*
X-232153Y-58490D01*
Y-57178D01*
X-231497Y-56522D01*
X-228873D01*
X-232153Y-60458D02*
Y-61770D01*
Y-61114D01*
X-228217D01*
X-228873Y-60458D01*
X-231497Y-63738D02*
X-232153Y-64394D01*
Y-65706D01*
X-231497Y-66361D01*
X-228873D01*
X-228217Y-65706D01*
Y-64394D01*
X-228873Y-63738D01*
X-229529D01*
X-230185Y-64394D01*
Y-66361D01*
D15*
X-45945Y7004D02*
Y32594D01*
X-49444D02*
X-45944Y32594D01*
X-49444Y7004D02*
X-45944Y7003D01*
D16*
X-58897Y-56182D02*
Y2874D01*
X-88425Y-56182D02*
X-58897D01*
X-88425D02*
Y2874D01*
X-58897D01*
D17*
X-209780Y61550D02*
X-208337Y62994D01*
Y65880D01*
X-209780Y67323D01*
X-215553D01*
X-216996Y65880D01*
Y62994D01*
X-215553Y61550D01*
X-208337Y58664D02*
X-216996D01*
X-212666D01*
X-211223Y57221D01*
Y54335D01*
X-212666Y52892D01*
X-216996D01*
X-211223Y48562D02*
Y45676D01*
X-212666Y44233D01*
X-216996D01*
Y48562D01*
X-215553Y50006D01*
X-214109Y48562D01*
Y44233D01*
X-216996Y41347D02*
Y38461D01*
Y39904D01*
X-211223D01*
Y41347D01*
X-209780Y32688D02*
X-211223D01*
Y34132D01*
Y31245D01*
Y32688D01*
X-215553D01*
X-216996Y31245D01*
X-211223Y25473D02*
Y22587D01*
X-212666Y21144D01*
X-216996D01*
Y25473D01*
X-215553Y26916D01*
X-214109Y25473D01*
Y21144D01*
X-216996Y18257D02*
X-211223D01*
Y13928D01*
X-212666Y12485D01*
X-216996D01*
X-211223Y9599D02*
X-215553D01*
X-216996Y8156D01*
Y3826D01*
X-218439D01*
X-219882Y5269D01*
Y6713D01*
X-216996Y3826D02*
X-211223D01*
Y-503D02*
Y-3389D01*
X-212666Y-4832D01*
X-216996D01*
Y-503D01*
X-215553Y940D01*
X-214109Y-503D01*
Y-4832D01*
X-209780Y-22150D02*
X-208337Y-20707D01*
Y-17820D01*
X-209780Y-16377D01*
X-211223D01*
X-212666Y-17820D01*
Y-20707D01*
X-214109Y-22150D01*
X-215553D01*
X-216996Y-20707D01*
Y-17820D01*
X-215553Y-16377D01*
X-216996Y-25036D02*
Y-27922D01*
Y-26479D01*
X-211223D01*
Y-25036D01*
X-216996Y-32251D02*
X-211223D01*
Y-36581D01*
X-212666Y-38024D01*
X-216996D01*
X-208337Y-46682D02*
X-216996D01*
Y-42353D01*
X-215553Y-40910D01*
X-212666D01*
X-211223Y-42353D01*
Y-46682D01*
Y-51012D02*
Y-53898D01*
X-212666Y-55341D01*
X-216996D01*
Y-51012D01*
X-215553Y-49569D01*
X-214109Y-51012D01*
Y-55341D01*
X-219882Y-61113D02*
Y-62556D01*
X-218439Y-64000D01*
X-211223D01*
Y-59670D01*
X-212666Y-58227D01*
X-215553D01*
X-216996Y-59670D01*
Y-64000D01*
Y-66886D02*
Y-69772D01*
Y-68329D01*
X-211223D01*
Y-66886D01*
D18*
X82677Y-45183D02*
Y-51181D01*
X85676D01*
X86676Y-50181D01*
Y-49182D01*
X85676Y-48182D01*
X82677D01*
X85676D01*
X86676Y-47182D01*
Y-46183D01*
X85676Y-45183D01*
X82677D01*
X88675Y-51181D02*
Y-45183D01*
X90675Y-47182D01*
X92674Y-45183D01*
Y-51181D01*
X98672Y-46183D02*
X97672Y-45183D01*
X95673D01*
X94673Y-46183D01*
Y-47182D01*
X95673Y-48182D01*
X97672D01*
X98672Y-49182D01*
Y-50181D01*
X97672Y-51181D01*
X95673D01*
X94673Y-50181D01*
X-46654Y71534D02*
X-45654Y72534D01*
X-43655D01*
X-42655Y71534D01*
Y70534D01*
X-43655Y69534D01*
X-44654D01*
X-43655D01*
X-42655Y68535D01*
Y67535D01*
X-43655Y66535D01*
X-45654D01*
X-46654Y67535D01*
X-40655Y66535D02*
Y67535D01*
X-39656D01*
Y66535D01*
X-40655D01*
X-35657Y71534D02*
X-34657Y72534D01*
X-32658D01*
X-31658Y71534D01*
Y70534D01*
X-32658Y69534D01*
X-33658D01*
X-32658D01*
X-31658Y68535D01*
Y67535D01*
X-32658Y66535D01*
X-34657D01*
X-35657Y67535D01*
X-29659Y72534D02*
Y68535D01*
X-27660Y66535D01*
X-25660Y68535D01*
Y72534D01*
X-75726D02*
X-79724D01*
Y69534D01*
X-77725Y70534D01*
X-76725D01*
X-75726Y69534D01*
Y67535D01*
X-76725Y66535D01*
X-78725D01*
X-79724Y67535D01*
X-73726Y72534D02*
Y68535D01*
X-71727Y66535D01*
X-69728Y68535D01*
Y72534D01*
M02*
