M48
;Layer_Color=9474304
;FILE_FORMAT=2:5
INCH,LZ
;TYPE=PLATED
T1F00S00C0.01000
T2F00S00C0.01181
T3F00S00C0.04016
T4F00S00C0.05512
;TYPE=NON_PLATED
T5F00S00C0.24409
%
T01
X01495Y0031327
T02
X012324Y-0067547
X012724Y-006883
X01305Y-00635
X0129953Y-0051453
X01275Y-0043
X0123Y-00395
X0132Y-0032
X01415Y-0034602
X01515Y-0018
X01555Y-0005
X0124047Y-0004
X01205Y-0007
X0118Y-00105
X0118679Y-0002071
X009425Y-000125
X0097Y-00105
X0094906Y-0017594
X0094126Y-003474
X01045Y-00475
X0076Y-0009
X0173Y-003
X00115Y-002
X0Y-00135
X-00165Y-0022
Y-003281
X-0120811Y-00105
X-0122743Y-000125
X-0124026Y0005952
X-00015Y0004417
X0003839Y0019417
X0019Y0054
X-0006Y00655
X-00255Y0085
X-00185Y00995
X00915Y0101
X0104398Y0091898
X01175Y0090398
Y0062906
Y00445
X0115032Y0033142
X0119176Y0025161
X012824Y0032453
X0135126Y0031626
X0139Y00525
X01295Y00515
X0129Y0072753
X0137626Y0074374
X0161047Y0026
X0167378Y00185
X017061Y0004327
X01515Y0006
X01195Y0002358
X00725Y0007063
X01975Y00305
T03
X0189Y-0022
Y-0012
Y-0002
Y0008
Y0018
T04
X0088529Y-0081029
X0088529Y-0060649
X0078339Y-0043
X006069Y-003281
X004031Y-003281
X0039673Y-0052086
X0022661Y-0043
X0012471Y-0060649
X0012471Y-0081029
X0022661Y-0098678
X004031Y-0108868
X-0036471Y-008169
X-0036471Y-006131
X-0046661Y-0043661
X-006431Y-0033471
X-008469Y-0033471
X-0085327Y-0052747
X-008469Y-0109529
X-0102339Y-0099339
X-0112529Y-008169
X-0112529Y-006131
X-0102339Y-0043661
X-0102839Y0025161
X-0113029Y004281
X-0113029Y006319
X-0102839Y0080839
X-0085827Y0071753
X-008519Y0091029
X-006481Y0091029
X-0047161Y0080839
X-0036971Y006319
X-0036971Y004281
X0011971Y004381
X0011971Y006419
X0022161Y0081839
X0039173Y0072753
X003981Y0092029
X006019Y0092029
X003981Y0015971
X0022161Y0026161
X-008519Y0014971
X0088029Y004381
X0088029Y006419
X0077839Y0081839
T05
X-00745Y-00715
X00505Y-0070839
X005Y0054
X-0075Y0053
M30
