G04*
G04 #@! TF.GenerationSoftware,Altium Limited,Altium Designer,19.0.14 (431)*
G04*
G04 Layer_Color=16711935*
%FSLAX25Y25*%
%MOIN*%
G70*
G01*
G75*
%ADD59C,0.00079*%
D59*
X120074Y-129000D02*
X121049Y-128960D01*
X122018Y-128839D01*
X122973Y-128639D01*
X123909Y-128360D01*
X124818Y-128005D01*
X125695Y-127576D01*
X126534Y-127077D01*
X127328Y-126509D01*
X128073Y-125879D01*
X128763Y-125188D01*
X129394Y-124443D01*
X129961Y-123649D01*
X130461Y-122810D01*
X130890Y-121933D01*
X131245Y-121024D01*
X131523Y-120088D01*
X131724Y-119133D01*
X131844Y-118164D01*
X131885Y-117189D01*
X-153500D02*
X-153460Y-118164D01*
X-153339Y-119133D01*
X-153139Y-120088D01*
X-152860Y-121024D01*
X-152505Y-121933D01*
X-152076Y-122810D01*
X-151577Y-123649D01*
X-151010Y-124443D01*
X-150379Y-125188D01*
X-149688Y-125879D01*
X-148943Y-126509D01*
X-148149Y-127077D01*
X-147310Y-127576D01*
X-146433Y-128005D01*
X-145524Y-128360D01*
X-144588Y-128639D01*
X-143633Y-128839D01*
X-142664Y-128960D01*
X-141689Y-129000D01*
Y115094D02*
X-142664Y115054D01*
X-143633Y114933D01*
X-144588Y114733D01*
X-145524Y114454D01*
X-146433Y114100D01*
X-147310Y113671D01*
X-148149Y113171D01*
X-148943Y112604D01*
X-149688Y111973D01*
X-150379Y111283D01*
X-151010Y110538D01*
X-151577Y109743D01*
X-152076Y108905D01*
X-152505Y108028D01*
X-152860Y107118D01*
X-153139Y106183D01*
X-153339Y105227D01*
X-153460Y104259D01*
X-153500Y103284D01*
X128507Y107564D02*
X127699Y108137D01*
X126877Y108688D01*
X126041Y109219D01*
X125192Y109729D01*
X124331Y110217D01*
X123457Y110684D01*
X122573Y111128D01*
X121677Y111550D01*
X120771Y111949D01*
X119855Y112326D01*
X118930Y112679D01*
X117996Y113009D01*
X117054Y113315D01*
X116105Y113597D01*
X115149Y113856D01*
X114187Y114090D01*
X113219Y114300D01*
X112247Y114486D01*
X111270Y114647D01*
X110289Y114784D01*
X109305Y114895D01*
X108319Y114982D01*
X107331Y115045D01*
X106341Y115082D01*
X105351Y115094D01*
X204768Y46088D02*
X204724Y47098D01*
X204595Y48101D01*
X204380Y49089D01*
X204082Y50055D01*
X203701Y50992D01*
X203243Y51893D01*
X202708Y52752D01*
X202103Y53561D01*
X201430Y54316D01*
X200695Y55011D01*
X199904Y55640D01*
X192957Y-32495D02*
X193932Y-32454D01*
X194901Y-32334D01*
X195856Y-32133D01*
X196792Y-31855D01*
X197701Y-31500D01*
X198578Y-31071D01*
X199417Y-30572D01*
X200211Y-30004D01*
X200956Y-29373D01*
X201646Y-28683D01*
X202277Y-27938D01*
X202845Y-27144D01*
X203344Y-26305D01*
X203773Y-25428D01*
X204128Y-24519D01*
X204406Y-23583D01*
X204607Y-22628D01*
X204727Y-21659D01*
X204768Y-20684D01*
X169335Y-32495D02*
X168338Y-32508D01*
X167341Y-32548D01*
X166347Y-32614D01*
X165354Y-32707D01*
X164364Y-32826D01*
X163378Y-32972D01*
X162396Y-33143D01*
X161418Y-33341D01*
X160447Y-33565D01*
X159482Y-33814D01*
X158523Y-34089D01*
X157572Y-34390D01*
X156630Y-34716D01*
X155697Y-35066D01*
X154773Y-35442D01*
X153860Y-35842D01*
X152957Y-36266D01*
X152067Y-36713D01*
X151188Y-37185D01*
X150323Y-37680D01*
X149470Y-38197D01*
X148632Y-38737D01*
X147809Y-39299D01*
X147001Y-39883D01*
X146208Y-40488D01*
X145432Y-41115D01*
X144673Y-41761D01*
X143932Y-42428D01*
X143208Y-43113D01*
X142503Y-43819D01*
X141817Y-44542D01*
X141151Y-45284D01*
X140504Y-46043D01*
X139878Y-46819D01*
X139273Y-47611D01*
X138689Y-48419D01*
X138127Y-49242D01*
X137587Y-50081D01*
X137069Y-50933D01*
X136575Y-51798D01*
X136103Y-52677D01*
X135655Y-53568D01*
X135231Y-54470D01*
X134832Y-55383D01*
X134456Y-56307D01*
X134105Y-57240D01*
X133780Y-58183D01*
X133479Y-59133D01*
X133204Y-60092D01*
X132955Y-61057D01*
X132731Y-62028D01*
X132533Y-63006D01*
X132361Y-63988D01*
X132216Y-64974D01*
X132097Y-65964D01*
X132004Y-66957D01*
X131938Y-67952D01*
X131898Y-68948D01*
X131885Y-69945D01*
Y-117189D02*
Y-69945D01*
X-141689Y-129000D02*
X120074D01*
X-153500Y-117189D02*
Y103284D01*
X-141689Y115094D02*
X105351D01*
X128507Y107564D02*
X199904Y55640D01*
X204768Y-20684D02*
Y46088D01*
X169335Y-32495D02*
X192957D01*
M02*
