G04*
G04 #@! TF.GenerationSoftware,Altium Limited,Altium Designer,19.0.14 (431)*
G04*
G04 Layer_Color=65535*
%FSLAX25Y25*%
%MOIN*%
G70*
G01*
G75*
%ADD10C,0.00591*%
%ADD11C,0.01000*%
D10*
X174146Y16323D02*
Y31677D01*
X154854Y16323D02*
Y31677D01*
X170602Y47500D02*
Y50315D01*
X168437D02*
X170602D01*
X158398D02*
X160563D01*
X158398Y47500D02*
Y50315D01*
X91169Y-34126D02*
X99831D01*
X86816Y93669D02*
Y102331D01*
X139421Y28669D02*
Y37331D01*
X141421Y68169D02*
Y76831D01*
X141024Y48169D02*
Y56831D01*
X-29331Y-17476D02*
X-20669D01*
X-31331Y109024D02*
X-22669D01*
D11*
X-141065Y75094D02*
X-141520Y75216D01*
X-142097Y74882D01*
X-142219Y74427D01*
X-142053Y74139D01*
X-141597Y74017D01*
X-141020Y74350D01*
X-140565Y74228D01*
X-140399Y73939D01*
X-140521Y73484D01*
X-141098Y73151D01*
X-141553Y73273D01*
X-140654Y75715D02*
X-139655Y73984D01*
X-139411Y74894D01*
X-138500Y74650D01*
X-139500Y76382D01*
X-136769Y75650D02*
X-137923Y74984D01*
X-137435Y76804D01*
X-137602Y77093D01*
X-138057Y77215D01*
X-138634Y76882D01*
X-138756Y76427D01*
X190100Y37400D02*
Y39399D01*
X191100D01*
X191433Y39066D01*
Y38400D01*
X191100Y38066D01*
X190100D01*
X190767D02*
X191433Y37400D01*
X193432Y39399D02*
X192099D01*
Y38400D01*
X192766Y38733D01*
X193099D01*
X193432Y38400D01*
Y37733D01*
X193099Y37400D01*
X192433D01*
X192099Y37733D01*
X194099D02*
X194432Y37400D01*
X195098D01*
X195432Y37733D01*
Y39066D01*
X195098Y39399D01*
X194432D01*
X194099Y39066D01*
Y38733D01*
X194432Y38400D01*
X195432D01*
X-240Y-50290D02*
X-695Y-50168D01*
X-1272Y-50501D01*
X-1394Y-50956D01*
X-1227Y-51245D01*
X-772Y-51367D01*
X-195Y-51033D01*
X260Y-51155D01*
X427Y-51444D01*
X305Y-51899D01*
X-272Y-52232D01*
X-728Y-52110D01*
X171Y-49668D02*
X1171Y-51399D01*
X1414Y-50489D01*
X2325Y-50733D01*
X1325Y-49001D01*
X2069Y-48957D02*
X2191Y-48502D01*
X2768Y-48168D01*
X3223Y-48290D01*
X3890Y-49445D01*
X3768Y-49900D01*
X3191Y-50233D01*
X2736Y-50111D01*
X2069Y-48957D01*
X152600Y59400D02*
Y61399D01*
X153600D01*
X153933Y61066D01*
Y60400D01*
X153600Y60066D01*
X152600D01*
X153267D02*
X153933Y59400D01*
X155932Y61399D02*
X154599D01*
Y60400D01*
X155266Y60733D01*
X155599D01*
X155932Y60400D01*
Y59733D01*
X155599Y59400D01*
X154933D01*
X154599Y59733D01*
X157932Y61399D02*
X157265Y61066D01*
X156599Y60400D01*
Y59733D01*
X156932Y59400D01*
X157598D01*
X157932Y59733D01*
Y60066D01*
X157598Y60400D01*
X156599D01*
X177100Y63400D02*
Y65399D01*
X178100D01*
X178433Y65066D01*
Y64400D01*
X178100Y64066D01*
X177100D01*
X177767D02*
X178433Y63400D01*
X180432Y65399D02*
X179099D01*
Y64400D01*
X179766Y64733D01*
X180099D01*
X180432Y64400D01*
Y63733D01*
X180099Y63400D01*
X179433D01*
X179099Y63733D01*
X182432Y65399D02*
X181099D01*
Y64400D01*
X181765Y64733D01*
X182098D01*
X182432Y64400D01*
Y63733D01*
X182098Y63400D01*
X181432D01*
X181099Y63733D01*
X160147Y61900D02*
Y63899D01*
X161147D01*
X161480Y63566D01*
Y62900D01*
X161147Y62566D01*
X160147D01*
X160814D02*
X161480Y61900D01*
X163479Y63899D02*
X162147D01*
Y62900D01*
X162813Y63233D01*
X163146D01*
X163479Y62900D01*
Y62233D01*
X163146Y61900D01*
X162480D01*
X162147Y62233D01*
X165146Y61900D02*
Y63899D01*
X164146Y62900D01*
X165479D01*
X159100Y58599D02*
Y56600D01*
X160100D01*
X160433Y56933D01*
Y58266D01*
X160100Y58599D01*
X159100D01*
X161099Y56600D02*
X161766D01*
X161433D01*
Y58599D01*
X161099Y58266D01*
X162766D02*
X163099Y58599D01*
X163765D01*
X164098Y58266D01*
Y56933D01*
X163765Y56600D01*
X163099D01*
X162766Y56933D01*
Y58266D01*
X150933Y50066D02*
X150600Y50399D01*
X149933D01*
X149600Y50066D01*
Y48733D01*
X149933Y48400D01*
X150600D01*
X150933Y48733D01*
X151599D02*
X151933Y48400D01*
X152599D01*
X152932Y48733D01*
Y50066D01*
X152599Y50399D01*
X151933D01*
X151599Y50066D01*
Y49733D01*
X151933Y49400D01*
X152932D01*
X178433Y53566D02*
X178100Y53899D01*
X177433D01*
X177100Y53566D01*
Y52233D01*
X177433Y51900D01*
X178100D01*
X178433Y52233D01*
X179099Y53566D02*
X179433Y53899D01*
X180099D01*
X180432Y53566D01*
Y53233D01*
X180099Y52900D01*
X180432Y52566D01*
Y52233D01*
X180099Y51900D01*
X179433D01*
X179099Y52233D01*
Y52566D01*
X179433Y52900D01*
X179099Y53233D01*
Y53566D01*
X179433Y52900D02*
X180099D01*
X91000Y-8601D02*
Y-10600D01*
X92000D01*
X92333Y-10267D01*
Y-8934D01*
X92000Y-8601D01*
X91000D01*
X92999Y-10267D02*
X93333Y-10600D01*
X93999D01*
X94332Y-10267D01*
Y-8934D01*
X93999Y-8601D01*
X93333D01*
X92999Y-8934D01*
Y-9267D01*
X93333Y-9600D01*
X94332D01*
X87539Y108499D02*
Y106500D01*
X88539D01*
X88872Y106833D01*
Y108166D01*
X88539Y108499D01*
X87539D01*
X89538Y108166D02*
X89872Y108499D01*
X90538D01*
X90871Y108166D01*
Y107833D01*
X90538Y107500D01*
X90871Y107167D01*
Y106833D01*
X90538Y106500D01*
X89872D01*
X89538Y106833D01*
Y107167D01*
X89872Y107500D01*
X89538Y107833D01*
Y108166D01*
X89872Y107500D02*
X90538D01*
X-29500Y-12201D02*
Y-14200D01*
X-28500D01*
X-28167Y-13867D01*
Y-12534D01*
X-28500Y-12201D01*
X-29500D01*
X-26501Y-14200D02*
Y-12201D01*
X-27501Y-13200D01*
X-26168D01*
X-31550Y114349D02*
Y112350D01*
X-30550D01*
X-30217Y112683D01*
Y114016D01*
X-30550Y114349D01*
X-31550D01*
X-29551Y114016D02*
X-29217Y114349D01*
X-28551D01*
X-28218Y114016D01*
Y113683D01*
X-28551Y113350D01*
X-28884D01*
X-28551D01*
X-28218Y113016D01*
Y112683D01*
X-28551Y112350D01*
X-29217D01*
X-29551Y112683D01*
X119898Y43499D02*
Y41500D01*
X120897D01*
X121230Y41833D01*
Y43166D01*
X120897Y43499D01*
X119898D01*
X123230Y41500D02*
X121897D01*
X123230Y42833D01*
Y43166D01*
X122897Y43499D01*
X122230D01*
X121897Y43166D01*
X121898Y82999D02*
Y81000D01*
X122897D01*
X123231Y81333D01*
Y82666D01*
X122897Y82999D01*
X121898D01*
X123897Y81000D02*
X124563D01*
X124230D01*
Y82999D01*
X123897Y82666D01*
X121502Y62999D02*
Y61000D01*
X122502D01*
X122835Y61333D01*
Y62666D01*
X122502Y62999D01*
X121502D01*
X123502Y62666D02*
X123835Y62999D01*
X124501D01*
X124835Y62666D01*
Y61333D01*
X124501Y61000D01*
X123835D01*
X123502Y61333D01*
Y62666D01*
X154000Y43499D02*
Y41833D01*
X154333Y41500D01*
X155000D01*
X155333Y41833D01*
Y43499D01*
X157332Y41500D02*
X155999D01*
X157332Y42833D01*
Y43166D01*
X156999Y43499D01*
X156333D01*
X155999Y43166D01*
X-122367Y-10480D02*
X-122700Y-10147D01*
X-123367D01*
X-123700Y-10480D01*
Y-10813D01*
X-123367Y-11146D01*
X-122700D01*
X-122367Y-11480D01*
Y-11813D01*
X-122700Y-12146D01*
X-123367D01*
X-123700Y-11813D01*
X-121701Y-10147D02*
Y-12146D01*
X-121034Y-11480D01*
X-120368Y-12146D01*
Y-10147D01*
X-119701Y-10480D02*
X-119368Y-10147D01*
X-118702D01*
X-118368Y-10480D01*
Y-10813D01*
X-118702Y-11146D01*
X-119035D01*
X-118702D01*
X-118368Y-11480D01*
Y-11813D01*
X-118702Y-12146D01*
X-119368D01*
X-119701Y-11813D01*
X2133Y115066D02*
X1800Y115399D01*
X1133D01*
X800Y115066D01*
Y114733D01*
X1133Y114400D01*
X1800D01*
X2133Y114067D01*
Y113733D01*
X1800Y113400D01*
X1133D01*
X800Y113733D01*
X2799Y115399D02*
Y113400D01*
X3466Y114067D01*
X4132Y113400D01*
Y115399D01*
X4799Y113400D02*
X5465D01*
X5132D01*
Y115399D01*
X4799Y115066D01*
X162200Y-12430D02*
Y-14429D01*
X163200D01*
X163533Y-14096D01*
Y-12763D01*
X163200Y-12430D01*
X162200D01*
X164199D02*
X165532D01*
Y-12763D01*
X164199Y-14096D01*
Y-14429D01*
M02*
