G04*
G04 #@! TF.GenerationSoftware,Altium Limited,Altium Designer,19.0.14 (431)*
G04*
G04 Layer_Physical_Order=1*
G04 Layer_Color=255*
%FSLAX25Y25*%
%MOIN*%
G70*
G01*
G75*
%ADD11C,0.01000*%
%ADD25R,0.02362X0.06102*%
%ADD26R,0.02953X0.03150*%
%ADD27R,0.03150X0.02953*%
%ADD28R,0.02756X0.03543*%
%ADD29R,0.08661X0.05906*%
%ADD30R,0.05906X0.08661*%
%ADD31R,0.04724X0.03543*%
%ADD32C,0.23622*%
%ADD33C,0.08268*%
%ADD34C,0.05906*%
%ADD35C,0.02362*%
%ADD36C,0.02000*%
G36*
X109147Y114267D02*
X112907Y113709D01*
X113278Y113616D01*
X113217Y113120D01*
X-121500D01*
X-121929Y113035D01*
X-122292Y112792D01*
X-137292Y97792D01*
X-137535Y97429D01*
X-137620Y97000D01*
Y14162D01*
X-137535Y13733D01*
X-137292Y13370D01*
X-129082Y5160D01*
X-128718Y4917D01*
X-128290Y4832D01*
X-125418D01*
X-125309Y4669D01*
X-124720Y4276D01*
X-124026Y4138D01*
X-123331Y4276D01*
X-122743Y4669D01*
X-122350Y5257D01*
X-122211Y5952D01*
X-122350Y6646D01*
X-122743Y7235D01*
X-123331Y7628D01*
X-124026Y7766D01*
X-124720Y7628D01*
X-125309Y7235D01*
X-125418Y7072D01*
X-127826D01*
X-135380Y14626D01*
Y96536D01*
X-121036Y110880D01*
X-119411D01*
X-119204Y110380D01*
X-130792Y98792D01*
X-131035Y98429D01*
X-131120Y98000D01*
Y24471D01*
X-131035Y24043D01*
X-130792Y23679D01*
X-120811Y13698D01*
Y2772D01*
X-123087Y496D01*
X-123437Y426D01*
X-124026Y33D01*
X-124419Y-556D01*
X-124557Y-1250D01*
X-124419Y-1944D01*
X-124026Y-2533D01*
X-123437Y-2926D01*
X-122743Y-3064D01*
X-122048Y-2926D01*
X-121460Y-2533D01*
X-121067Y-1944D01*
X-120929Y-1250D01*
X-121051Y-635D01*
X-118899Y1517D01*
X-118656Y1880D01*
X-118571Y2308D01*
Y14162D01*
X-118656Y14591D01*
X-118899Y14954D01*
X-128880Y24935D01*
Y97536D01*
X-117536Y108880D01*
X108036D01*
X121708Y95208D01*
X122071Y94965D01*
X122500Y94880D01*
X128111D01*
X159975Y63016D01*
Y59075D01*
X158921D01*
Y54925D01*
X159690D01*
Y52594D01*
X159228Y52403D01*
X156386Y55245D01*
X156023Y55488D01*
X155595Y55573D01*
X155575D01*
Y56626D01*
X151425D01*
Y52280D01*
X155575D01*
Y52280D01*
X156006Y52458D01*
X159690Y48773D01*
Y45933D01*
X158783D01*
Y41193D01*
X160880D01*
Y38280D01*
X160221D01*
Y30980D01*
X163779D01*
Y38280D01*
X163120D01*
Y42310D01*
X163035Y42739D01*
X162792Y43102D01*
X162736Y43158D01*
Y45933D01*
X161930D01*
Y48245D01*
X162122Y48665D01*
X164000D01*
Y51437D01*
X164500D01*
Y51937D01*
X166878D01*
Y52286D01*
X167378Y52553D01*
X167380Y52552D01*
Y45933D01*
X166264D01*
Y41193D01*
X167380D01*
Y38280D01*
X165220D01*
Y30980D01*
X168780D01*
Y34826D01*
X169292Y35338D01*
X169535Y35701D01*
X169620Y36130D01*
Y41193D01*
X170217D01*
Y45933D01*
X169620D01*
Y53500D01*
X169535Y53929D01*
X169292Y54292D01*
X169023Y54561D01*
X169173Y54925D01*
X169173D01*
Y55880D01*
X176547D01*
X176976Y55965D01*
X177339Y56208D01*
X177411Y56279D01*
X180075D01*
Y60626D01*
X175925D01*
Y58120D01*
X169173D01*
Y59075D01*
X168120D01*
Y60500D01*
X168035Y60929D01*
X167792Y61292D01*
X116961Y112123D01*
X117235Y112556D01*
X120172Y111505D01*
X123608Y109880D01*
X126868Y107926D01*
X128104Y107009D01*
X128125Y107038D01*
X199521Y55114D01*
X199519Y55111D01*
X200846Y53978D01*
X201983Y52646D01*
X202898Y51153D01*
X203568Y49536D01*
X203977Y47833D01*
X204114Y46088D01*
X204117D01*
Y-20684D01*
X204114D01*
X203977Y-22429D01*
X203568Y-24132D01*
X202898Y-25749D01*
X201983Y-27242D01*
X200846Y-28574D01*
X199515Y-29711D01*
X198022Y-30625D01*
X196405Y-31295D01*
X194702Y-31704D01*
X192957Y-31841D01*
Y-31845D01*
X192957Y-31845D01*
X174342D01*
X174191Y-31345D01*
X174283Y-31283D01*
X174676Y-30694D01*
X174814Y-30000D01*
X174776Y-29808D01*
X175360Y-29224D01*
X177972D01*
Y-24484D01*
X172052D01*
Y-28493D01*
X171717Y-28717D01*
X171324Y-29306D01*
X171186Y-30000D01*
X171324Y-30694D01*
X171717Y-31283D01*
X171809Y-31345D01*
X171658Y-31845D01*
X169335D01*
Y-31811D01*
X165597Y-31995D01*
X161895Y-32544D01*
X160118Y-32989D01*
X159872Y-32554D01*
X163202Y-29224D01*
X166948D01*
Y-24484D01*
X161028D01*
Y-28231D01*
X157878Y-31380D01*
X151000D01*
X150571Y-31465D01*
X150208Y-31708D01*
X132208Y-49708D01*
X131965Y-50071D01*
X131921Y-50295D01*
X131436Y-50392D01*
X131301Y-50267D01*
X131236Y-50170D01*
X131088Y-50071D01*
X131073Y-50057D01*
Y-48511D01*
X142292Y-37292D01*
X142535Y-36929D01*
X142620Y-36500D01*
Y-35994D01*
X142783Y-35885D01*
X143176Y-35297D01*
X143314Y-34602D01*
X143176Y-33908D01*
X142783Y-33319D01*
X142194Y-32926D01*
X141500Y-32788D01*
X140880Y-32911D01*
X140709Y-32740D01*
X140585Y-32499D01*
X140792Y-32292D01*
X141035Y-31929D01*
X141120Y-31500D01*
Y-29121D01*
X147975Y-22266D01*
X161028D01*
Y-23516D01*
X166948D01*
Y-18776D01*
X161028D01*
Y-20026D01*
X152571D01*
X152419Y-19526D01*
X152783Y-19283D01*
X153176Y-18694D01*
X153314Y-18000D01*
X153176Y-17306D01*
X152783Y-16717D01*
X152620Y-16608D01*
Y4608D01*
X152783Y4717D01*
X153176Y5306D01*
X153314Y6000D01*
X153176Y6694D01*
X152783Y7283D01*
X152544Y7442D01*
X152535Y7491D01*
X152292Y7855D01*
X151929Y8098D01*
X151500Y8183D01*
X151071Y8098D01*
X150708Y7855D01*
X150465Y7491D01*
X150455Y7442D01*
X150217Y7283D01*
X149824Y6694D01*
X149686Y6000D01*
X149824Y5306D01*
X150217Y4717D01*
X150380Y4608D01*
Y-16608D01*
X150217Y-16717D01*
X149824Y-17306D01*
X149686Y-18000D01*
X149824Y-18694D01*
X150217Y-19283D01*
X150581Y-19526D01*
X150429Y-20026D01*
X147511D01*
X147083Y-20111D01*
X146720Y-20354D01*
X139208Y-27866D01*
X138965Y-28229D01*
X138880Y-28657D01*
Y-31036D01*
X128433Y-41483D01*
X128194Y-41324D01*
X127588Y-41203D01*
X127441Y-40937D01*
X127385Y-40699D01*
X132292Y-35792D01*
X132535Y-35429D01*
X132620Y-35000D01*
Y-33691D01*
X132694Y-33676D01*
X133283Y-33283D01*
X133676Y-32694D01*
X133814Y-32000D01*
X133676Y-31306D01*
X133283Y-30717D01*
X132694Y-30324D01*
X132000Y-30186D01*
X131306Y-30324D01*
X130717Y-30717D01*
X130324Y-31306D01*
X130186Y-32000D01*
X130324Y-32694D01*
X130380Y-32779D01*
Y-34536D01*
X125301Y-39615D01*
X125063Y-39559D01*
X124797Y-39412D01*
X124676Y-38806D01*
X124283Y-38217D01*
X123694Y-37824D01*
X123000Y-37686D01*
X122306Y-37824D01*
X121717Y-38217D01*
X121324Y-38806D01*
X121186Y-39500D01*
X120794Y-39880D01*
X111000D01*
X110571Y-39965D01*
X110208Y-40208D01*
X104692Y-45724D01*
X104500Y-45686D01*
X103806Y-45824D01*
X103217Y-46217D01*
X102824Y-46806D01*
X102686Y-47500D01*
X102824Y-48194D01*
X103217Y-48783D01*
X103806Y-49176D01*
X104500Y-49314D01*
X105194Y-49176D01*
X105783Y-48783D01*
X106176Y-48194D01*
X106314Y-47500D01*
X106276Y-47308D01*
X111464Y-42120D01*
X121500D01*
X121929Y-42035D01*
X122292Y-41792D01*
X122500Y-41584D01*
X122630Y-41579D01*
X122802Y-41942D01*
X122799Y-42117D01*
X121708Y-43208D01*
X121465Y-43571D01*
X121380Y-44000D01*
Y-65177D01*
X121465Y-65606D01*
X121708Y-65969D01*
X121766Y-66027D01*
X121957Y-66264D01*
X121564Y-66853D01*
X121426Y-67547D01*
X121564Y-68242D01*
X121957Y-68830D01*
X122546Y-69223D01*
X123240Y-69362D01*
X123934Y-69223D01*
X124523Y-68830D01*
X124916Y-68242D01*
X125055Y-67547D01*
X124916Y-66853D01*
X124523Y-66264D01*
X124360Y-66155D01*
Y-65917D01*
X124275Y-65489D01*
X124032Y-65125D01*
X123620Y-64713D01*
Y-44464D01*
X125199Y-42885D01*
X125437Y-42941D01*
X125703Y-43088D01*
X125824Y-43694D01*
X126217Y-44283D01*
X126806Y-44676D01*
X127500Y-44814D01*
X128194Y-44676D01*
X128783Y-44283D01*
X128965Y-44010D01*
X129292Y-43792D01*
X139397Y-33687D01*
X139637Y-33812D01*
X139809Y-33982D01*
X139686Y-34602D01*
X139824Y-35297D01*
X140217Y-35885D01*
X140045Y-36371D01*
X129161Y-47255D01*
X128918Y-47619D01*
X128833Y-48047D01*
Y-50061D01*
X128670Y-50170D01*
X128277Y-50758D01*
X128138Y-51453D01*
X128177Y-51645D01*
X126708Y-53114D01*
X126465Y-53477D01*
X126380Y-53905D01*
Y-62070D01*
X126206Y-62331D01*
X126120Y-62760D01*
Y-67438D01*
X125957Y-67547D01*
X125564Y-68136D01*
X125426Y-68830D01*
X125564Y-69525D01*
X125957Y-70113D01*
X126546Y-70507D01*
X127240Y-70645D01*
X127935Y-70507D01*
X128523Y-70113D01*
X128916Y-69525D01*
X129054Y-68830D01*
X128916Y-68136D01*
X128523Y-67547D01*
X128360Y-67438D01*
Y-64612D01*
X128453Y-64539D01*
X129126Y-64647D01*
X129217Y-64783D01*
X129806Y-65176D01*
X130500Y-65314D01*
X131027Y-65210D01*
X131484Y-65539D01*
X131385Y-66207D01*
X131201Y-69945D01*
X131234D01*
Y-117189D01*
X131231D01*
X131094Y-118934D01*
X130685Y-120637D01*
X130015Y-122254D01*
X129100Y-123747D01*
X127963Y-125079D01*
X126632Y-126216D01*
X125139Y-127130D01*
X123521Y-127801D01*
X121819Y-128209D01*
X120074Y-128347D01*
Y-128350D01*
X120074Y-128350D01*
X-141689D01*
X-141689Y-128350D01*
Y-128347D01*
X-143434Y-128209D01*
X-145137Y-127801D01*
X-146754Y-127130D01*
X-148247Y-126216D01*
X-149579Y-125079D01*
X-150716Y-123747D01*
X-151630Y-122254D01*
X-152301Y-120637D01*
X-152709Y-118934D01*
X-152847Y-117189D01*
X-152850D01*
X-152850Y-117189D01*
Y103283D01*
X-152850Y103284D01*
X-152847D01*
X-152709Y105029D01*
X-152301Y106731D01*
X-151630Y108349D01*
X-150716Y109842D01*
X-149579Y111173D01*
X-148247Y112310D01*
X-146754Y113225D01*
X-145137Y113895D01*
X-143434Y114304D01*
X-141689Y114441D01*
Y114444D01*
X105351D01*
X105388Y114452D01*
X109147Y114267D01*
D02*
G37*
%LPC*%
G36*
X-22071Y107653D02*
X-31929D01*
Y100551D01*
X-22071D01*
Y100834D01*
X-21609Y101025D01*
X-20276Y99692D01*
X-20314Y99500D01*
X-20176Y98806D01*
X-19783Y98217D01*
X-19194Y97824D01*
X-18500Y97686D01*
X-17806Y97824D01*
X-17217Y98217D01*
X-16824Y98806D01*
X-16686Y99500D01*
X-16824Y100194D01*
X-17217Y100783D01*
X-17806Y101176D01*
X-18500Y101314D01*
X-18692Y101276D01*
X-22071Y104655D01*
Y107653D01*
D02*
G37*
G36*
X95288Y102929D02*
X88186D01*
Y93071D01*
X95288D01*
Y102929D01*
D02*
G37*
G36*
X107493D02*
X100390D01*
Y93071D01*
X102464D01*
X102725Y92659D01*
X102717Y92571D01*
X102583Y91898D01*
X102721Y91203D01*
X103115Y90615D01*
X103703Y90221D01*
X104398Y90083D01*
X105092Y90221D01*
X105681Y90615D01*
X106074Y91203D01*
X106212Y91898D01*
X106078Y92571D01*
X106070Y92659D01*
X106331Y93071D01*
X107493D01*
Y102929D01*
D02*
G37*
G36*
X39810Y96802D02*
X38575Y96640D01*
X37424Y96163D01*
X36435Y95404D01*
X35677Y94416D01*
X35200Y93265D01*
X35037Y92029D01*
X35200Y90794D01*
X35677Y89642D01*
X36435Y88654D01*
X37424Y87895D01*
X38575Y87419D01*
X39810Y87256D01*
X41046Y87419D01*
X42197Y87895D01*
X43185Y88654D01*
X43944Y89642D01*
X44421Y90794D01*
X44584Y92029D01*
X44421Y93265D01*
X43944Y94416D01*
X43185Y95404D01*
X42197Y96163D01*
X41046Y96640D01*
X39810Y96802D01*
D02*
G37*
G36*
X60190Y96802D02*
X58954Y96639D01*
X57803Y96162D01*
X56815Y95404D01*
X56056Y94415D01*
X55579Y93264D01*
X55417Y92029D01*
X55579Y90793D01*
X56056Y89642D01*
X56815Y88654D01*
X57803Y87895D01*
X58954Y87418D01*
X60190Y87256D01*
X61425Y87418D01*
X62576Y87895D01*
X63565Y88654D01*
X64324Y89642D01*
X64800Y90793D01*
X64963Y92029D01*
X64800Y93264D01*
X64324Y94415D01*
X63565Y95404D01*
X62576Y96163D01*
X61425Y96639D01*
X60190Y96802D01*
D02*
G37*
G36*
X-85190Y95802D02*
X-86425Y95640D01*
X-87576Y95163D01*
X-88565Y94404D01*
X-89324Y93416D01*
X-89800Y92264D01*
X-89963Y91029D01*
X-89800Y89794D01*
X-89324Y88642D01*
X-88565Y87654D01*
X-87576Y86895D01*
X-86425Y86418D01*
X-85190Y86256D01*
X-83954Y86418D01*
X-82803Y86895D01*
X-81814Y87654D01*
X-81056Y88642D01*
X-80579Y89794D01*
X-80416Y91029D01*
X-80579Y92264D01*
X-81056Y93416D01*
X-81814Y94404D01*
X-82803Y95163D01*
X-83954Y95640D01*
X-85190Y95802D01*
D02*
G37*
G36*
X-64810Y95802D02*
X-66046Y95639D01*
X-67197Y95162D01*
X-68185Y94404D01*
X-68944Y93415D01*
X-69421Y92264D01*
X-69583Y91029D01*
X-69421Y89793D01*
X-68944Y88642D01*
X-68185Y87654D01*
X-67197Y86895D01*
X-66046Y86418D01*
X-64810Y86256D01*
X-63575Y86418D01*
X-62424Y86895D01*
X-61435Y87654D01*
X-60676Y88642D01*
X-60200Y89793D01*
X-60037Y91029D01*
X-60200Y92264D01*
X-60676Y93415D01*
X-61435Y94404D01*
X-62424Y95163D01*
X-63575Y95639D01*
X-64810Y95802D01*
D02*
G37*
G36*
X-22071Y95449D02*
X-31929D01*
Y88346D01*
X-28120D01*
Y86500D01*
X-28035Y86071D01*
X-27792Y85708D01*
X-27276Y85192D01*
X-27314Y85000D01*
X-27176Y84306D01*
X-26783Y83717D01*
X-26194Y83324D01*
X-25500Y83186D01*
X-24806Y83324D01*
X-24217Y83717D01*
X-23824Y84306D01*
X-23686Y85000D01*
X-23824Y85694D01*
X-24217Y86283D01*
X-24806Y86676D01*
X-25500Y86814D01*
X-25880Y87206D01*
Y88346D01*
X-22071D01*
Y95449D01*
D02*
G37*
G36*
X77839Y86613D02*
X76604Y86450D01*
X75452Y85973D01*
X74464Y85215D01*
X73705Y84226D01*
X73229Y83075D01*
X73066Y81839D01*
X73229Y80604D01*
X73705Y79453D01*
X74464Y78464D01*
X75452Y77706D01*
X76604Y77229D01*
X77839Y77066D01*
X79075Y77229D01*
X80226Y77706D01*
X81214Y78464D01*
X81973Y79453D01*
X82450Y80604D01*
X82612Y81839D01*
X82450Y83075D01*
X81973Y84226D01*
X81214Y85215D01*
X80226Y85973D01*
X79075Y86450D01*
X77839Y86613D01*
D02*
G37*
G36*
X22161Y86612D02*
X20925Y86450D01*
X19774Y85973D01*
X18786Y85214D01*
X18027Y84226D01*
X17550Y83074D01*
X17387Y81839D01*
X17550Y80604D01*
X18027Y79452D01*
X18786Y78464D01*
X19774Y77705D01*
X20925Y77228D01*
X22161Y77066D01*
X23396Y77228D01*
X24547Y77705D01*
X25536Y78464D01*
X26294Y79452D01*
X26771Y80604D01*
X26934Y81839D01*
X26771Y83074D01*
X26294Y84226D01*
X25536Y85214D01*
X24547Y85973D01*
X23396Y86450D01*
X22161Y86612D01*
D02*
G37*
G36*
X-47161Y85613D02*
X-48396Y85450D01*
X-49548Y84973D01*
X-50536Y84215D01*
X-51295Y83226D01*
X-51771Y82075D01*
X-51934Y80839D01*
X-51771Y79604D01*
X-51295Y78453D01*
X-50536Y77464D01*
X-49547Y76705D01*
X-48396Y76229D01*
X-47161Y76066D01*
X-45926Y76229D01*
X-44774Y76705D01*
X-43786Y77464D01*
X-43027Y78453D01*
X-42550Y79604D01*
X-42388Y80839D01*
X-42550Y82075D01*
X-43027Y83226D01*
X-43786Y84215D01*
X-44774Y84973D01*
X-45926Y85450D01*
X-47161Y85613D01*
D02*
G37*
G36*
X-102839Y85612D02*
X-104075Y85450D01*
X-105226Y84973D01*
X-106214Y84214D01*
X-106973Y83226D01*
X-107450Y82074D01*
X-107613Y80839D01*
X-107450Y79604D01*
X-106973Y78452D01*
X-106214Y77464D01*
X-105226Y76705D01*
X-104075Y76228D01*
X-102839Y76066D01*
X-101604Y76228D01*
X-100453Y76705D01*
X-99464Y77464D01*
X-98706Y78452D01*
X-98229Y79604D01*
X-98066Y80839D01*
X-98229Y82074D01*
X-98706Y83226D01*
X-99464Y84214D01*
X-100453Y84973D01*
X-101604Y85450D01*
X-102839Y85612D01*
D02*
G37*
G36*
X127847Y77429D02*
X120744D01*
Y67571D01*
X127847D01*
Y70853D01*
X128226Y71056D01*
X128347Y71069D01*
X129000Y70938D01*
X129694Y71077D01*
X130283Y71470D01*
X130676Y72059D01*
X130814Y72753D01*
X130676Y73447D01*
X130283Y74036D01*
X129694Y74429D01*
X129000Y74567D01*
X128347Y74437D01*
X128226Y74450D01*
X127847Y74653D01*
Y77429D01*
D02*
G37*
G36*
X39173Y77526D02*
X37938Y77364D01*
X36786Y76887D01*
X35798Y76128D01*
X35039Y75139D01*
X34562Y73988D01*
X34400Y72753D01*
X34562Y71517D01*
X35039Y70366D01*
X35798Y69378D01*
X36786Y68619D01*
X37938Y68142D01*
X39173Y67980D01*
X40408Y68142D01*
X41560Y68619D01*
X42548Y69378D01*
X43307Y70366D01*
X43784Y71517D01*
X43946Y72753D01*
X43784Y73988D01*
X43307Y75139D01*
X42548Y76128D01*
X41560Y76887D01*
X40408Y77364D01*
X39173Y77526D01*
D02*
G37*
G36*
X140051Y77429D02*
X132949D01*
Y67571D01*
X140051D01*
Y77429D01*
D02*
G37*
G36*
X11971Y68963D02*
X10736Y68800D01*
X9585Y68324D01*
X8596Y67565D01*
X7837Y66576D01*
X7361Y65425D01*
X7198Y64190D01*
X7361Y62954D01*
X7837Y61803D01*
X8596Y60815D01*
X9585Y60056D01*
X10736Y59579D01*
X11971Y59417D01*
X13207Y59579D01*
X14358Y60056D01*
X15346Y60815D01*
X16105Y61803D01*
X16582Y62954D01*
X16745Y64190D01*
X16582Y65425D01*
X16105Y66576D01*
X15346Y67565D01*
X14358Y68324D01*
X13207Y68800D01*
X11971Y68963D01*
D02*
G37*
G36*
X88029Y68963D02*
X86794Y68800D01*
X85642Y68323D01*
X84654Y67565D01*
X83895Y66576D01*
X83419Y65425D01*
X83256Y64190D01*
X83419Y62954D01*
X83895Y61803D01*
X84654Y60814D01*
X85642Y60056D01*
X86794Y59579D01*
X88029Y59416D01*
X89265Y59579D01*
X90416Y60056D01*
X91404Y60814D01*
X92163Y61803D01*
X92640Y62954D01*
X92802Y64190D01*
X92640Y65425D01*
X92163Y66576D01*
X91404Y67565D01*
X90416Y68323D01*
X89265Y68800D01*
X88029Y68963D01*
D02*
G37*
G36*
X-113029Y67963D02*
X-114264Y67800D01*
X-115415Y67324D01*
X-116404Y66565D01*
X-117163Y65576D01*
X-117639Y64425D01*
X-117802Y63190D01*
X-117639Y61954D01*
X-117163Y60803D01*
X-116404Y59815D01*
X-115415Y59056D01*
X-114264Y58579D01*
X-113029Y58416D01*
X-111793Y58579D01*
X-110642Y59056D01*
X-109654Y59815D01*
X-108895Y60803D01*
X-108418Y61954D01*
X-108256Y63190D01*
X-108418Y64425D01*
X-108895Y65576D01*
X-109654Y66565D01*
X-110642Y67324D01*
X-111793Y67800D01*
X-113029Y67963D01*
D02*
G37*
G36*
X-36971Y67963D02*
X-38206Y67800D01*
X-39358Y67323D01*
X-40346Y66565D01*
X-41105Y65576D01*
X-41581Y64425D01*
X-41744Y63190D01*
X-41581Y61954D01*
X-41105Y60803D01*
X-40346Y59815D01*
X-39358Y59056D01*
X-38206Y58579D01*
X-36971Y58416D01*
X-35735Y58579D01*
X-34584Y59056D01*
X-33596Y59815D01*
X-32837Y60803D01*
X-32360Y61954D01*
X-32198Y63190D01*
X-32360Y64425D01*
X-32837Y65576D01*
X-33596Y66565D01*
X-34584Y67323D01*
X-35735Y67800D01*
X-36971Y67963D01*
D02*
G37*
G36*
X-6000Y67314D02*
X-6694Y67176D01*
X-7283Y66783D01*
X-7676Y66194D01*
X-7814Y65500D01*
X-7676Y64806D01*
X-7283Y64217D01*
X-7120Y64108D01*
Y56000D01*
X-7035Y55571D01*
X-6792Y55208D01*
X-4792Y53208D01*
X-4429Y52965D01*
X-4000Y52880D01*
X17608D01*
X17717Y52717D01*
X18306Y52324D01*
X19000Y52186D01*
X19694Y52324D01*
X20283Y52717D01*
X20676Y53306D01*
X20814Y54000D01*
X20676Y54694D01*
X20283Y55283D01*
X19694Y55676D01*
X19000Y55814D01*
X18306Y55676D01*
X17717Y55283D01*
X17608Y55120D01*
X-3536D01*
X-4880Y56464D01*
Y64108D01*
X-4717Y64217D01*
X-4324Y64806D01*
X-4186Y65500D01*
X-4324Y66194D01*
X-4717Y66783D01*
X-5306Y67176D01*
X-6000Y67314D01*
D02*
G37*
G36*
X127449Y57429D02*
X120346D01*
Y47571D01*
X127449D01*
Y50380D01*
X128108D01*
X128217Y50217D01*
X128806Y49824D01*
X129500Y49686D01*
X130194Y49824D01*
X130783Y50217D01*
X131176Y50806D01*
X131314Y51500D01*
X131176Y52194D01*
X130783Y52783D01*
X130194Y53176D01*
X129500Y53314D01*
X128806Y53176D01*
X128217Y52783D01*
X128108Y52620D01*
X127449D01*
Y57429D01*
D02*
G37*
G36*
X166878Y50937D02*
X165000D01*
Y48665D01*
X166878D01*
Y50937D01*
D02*
G37*
G36*
X139654Y57429D02*
X132551D01*
Y47571D01*
X139654D01*
Y50816D01*
X139694Y50824D01*
X140283Y51217D01*
X140676Y51806D01*
X140814Y52500D01*
X140676Y53194D01*
X140283Y53783D01*
X139694Y54176D01*
X139654Y54184D01*
Y57429D01*
D02*
G37*
G36*
X155575Y50721D02*
X151425D01*
Y48056D01*
X149708Y46339D01*
X149465Y45976D01*
X149396Y45626D01*
X148425D01*
Y41280D01*
X152575D01*
Y45626D01*
X152575D01*
X152454Y45917D01*
X152911Y46374D01*
X155575D01*
Y50721D01*
D02*
G37*
G36*
X180075Y54720D02*
X175925D01*
Y50374D01*
X176880D01*
Y49126D01*
X175925D01*
Y44780D01*
X180075D01*
Y49126D01*
X179120D01*
Y50374D01*
X180075D01*
Y54720D01*
D02*
G37*
G36*
X117500Y92212D02*
X116806Y92074D01*
X116217Y91681D01*
X115824Y91092D01*
X115686Y90398D01*
X115824Y89703D01*
X116217Y89115D01*
X116380Y89006D01*
Y64297D01*
X116217Y64188D01*
X115824Y63600D01*
X115686Y62906D01*
X115824Y62211D01*
X116217Y61623D01*
X116380Y61514D01*
Y45892D01*
X116217Y45783D01*
X115824Y45194D01*
X115686Y44500D01*
X115724Y44308D01*
X114240Y42823D01*
X113997Y42460D01*
X113911Y42031D01*
Y34534D01*
X113749Y34425D01*
X113355Y33836D01*
X113217Y33142D01*
X113355Y32447D01*
X113749Y31859D01*
X114337Y31466D01*
X115032Y31327D01*
X115726Y31466D01*
X116314Y31859D01*
X116708Y32447D01*
X116846Y33142D01*
X116708Y33836D01*
X116314Y34425D01*
X116151Y34534D01*
Y41568D01*
X117308Y42724D01*
X117500Y42686D01*
X118194Y42824D01*
X118783Y43217D01*
X119176Y43806D01*
X119314Y44500D01*
X119176Y45194D01*
X118783Y45783D01*
X118620Y45892D01*
Y61514D01*
X118783Y61623D01*
X119176Y62211D01*
X119314Y62906D01*
X119176Y63600D01*
X118783Y64188D01*
X118620Y64297D01*
Y89006D01*
X118783Y89115D01*
X119176Y89703D01*
X119314Y90398D01*
X119176Y91092D01*
X118783Y91681D01*
X118194Y92074D01*
X117500Y92212D01*
D02*
G37*
G36*
X180476Y43622D02*
X178500D01*
Y41547D01*
X180476D01*
Y43622D01*
D02*
G37*
G36*
X177500D02*
X175524D01*
Y41547D01*
X177500D01*
Y43622D01*
D02*
G37*
G36*
X50000Y66843D02*
X47991Y66685D01*
X46031Y66214D01*
X44170Y65443D01*
X42451Y64390D01*
X40919Y63081D01*
X39610Y61549D01*
X38557Y59830D01*
X37786Y57969D01*
X37315Y56009D01*
X37157Y54000D01*
X37315Y51991D01*
X37786Y50031D01*
X38557Y48169D01*
X39610Y46451D01*
X40919Y44919D01*
X42451Y43610D01*
X44170Y42557D01*
X46031Y41786D01*
X47991Y41315D01*
X50000Y41157D01*
X52009Y41315D01*
X53969Y41786D01*
X55831Y42557D01*
X57549Y43610D01*
X59081Y44919D01*
X60390Y46451D01*
X61443Y48169D01*
X62214Y50031D01*
X62685Y51991D01*
X62843Y54000D01*
X62685Y56009D01*
X62214Y57969D01*
X61443Y59830D01*
X60390Y61549D01*
X59081Y63081D01*
X57549Y64390D01*
X55831Y65443D01*
X53969Y66214D01*
X52009Y66685D01*
X50000Y66843D01*
D02*
G37*
G36*
X-75000Y65843D02*
X-77009Y65685D01*
X-78969Y65214D01*
X-80831Y64443D01*
X-82549Y63390D01*
X-84081Y62081D01*
X-85390Y60549D01*
X-86443Y58830D01*
X-87214Y56969D01*
X-87685Y55009D01*
X-87843Y53000D01*
X-87685Y50991D01*
X-87214Y49031D01*
X-86443Y47170D01*
X-85390Y45451D01*
X-84081Y43919D01*
X-82549Y42610D01*
X-80831Y41557D01*
X-78969Y40786D01*
X-77009Y40315D01*
X-75000Y40157D01*
X-72991Y40315D01*
X-71031Y40786D01*
X-69169Y41557D01*
X-67451Y42610D01*
X-65919Y43919D01*
X-64610Y45451D01*
X-63557Y47170D01*
X-62786Y49031D01*
X-62315Y50991D01*
X-62157Y53000D01*
X-62315Y55009D01*
X-62786Y56969D01*
X-63557Y58830D01*
X-64610Y60549D01*
X-65919Y62081D01*
X-67451Y63390D01*
X-69169Y64443D01*
X-71031Y65214D01*
X-72991Y65685D01*
X-75000Y65843D01*
D02*
G37*
G36*
X11971Y48584D02*
X10735Y48421D01*
X9584Y47944D01*
X8596Y47186D01*
X7837Y46197D01*
X7360Y45046D01*
X7198Y43810D01*
X7360Y42575D01*
X7837Y41424D01*
X8596Y40435D01*
X9584Y39676D01*
X10735Y39200D01*
X11971Y39037D01*
X13206Y39200D01*
X14358Y39676D01*
X15346Y40435D01*
X16105Y41424D01*
X16581Y42575D01*
X16744Y43810D01*
X16581Y45046D01*
X16105Y46197D01*
X15346Y47186D01*
X14358Y47944D01*
X13206Y48421D01*
X11971Y48584D01*
D02*
G37*
G36*
X88029Y48583D02*
X86793Y48421D01*
X85642Y47944D01*
X84654Y47185D01*
X83895Y46197D01*
X83418Y45046D01*
X83255Y43810D01*
X83418Y42575D01*
X83895Y41424D01*
X84654Y40435D01*
X85642Y39676D01*
X86793Y39200D01*
X88029Y39037D01*
X89264Y39200D01*
X90415Y39676D01*
X91404Y40435D01*
X92163Y41424D01*
X92639Y42575D01*
X92802Y43810D01*
X92639Y45046D01*
X92163Y46197D01*
X91404Y47185D01*
X90415Y47944D01*
X89264Y48421D01*
X88029Y48583D01*
D02*
G37*
G36*
X180476Y40547D02*
X178500D01*
Y38472D01*
X180476D01*
Y40547D01*
D02*
G37*
G36*
X177500D02*
X175524D01*
Y38472D01*
X177500D01*
Y40547D01*
D02*
G37*
G36*
X152976Y40122D02*
X151000D01*
Y38047D01*
X152976D01*
Y40122D01*
D02*
G37*
G36*
X150000D02*
X148024D01*
Y38047D01*
X150000D01*
Y40122D01*
D02*
G37*
G36*
X-113029Y47584D02*
X-114265Y47421D01*
X-115416Y46944D01*
X-116404Y46185D01*
X-117163Y45197D01*
X-117640Y44046D01*
X-117802Y42810D01*
X-117640Y41575D01*
X-117163Y40424D01*
X-116404Y39435D01*
X-115416Y38677D01*
X-114265Y38200D01*
X-113029Y38037D01*
X-111794Y38200D01*
X-110642Y38677D01*
X-109654Y39435D01*
X-108895Y40424D01*
X-108419Y41575D01*
X-108256Y42810D01*
X-108419Y44046D01*
X-108895Y45197D01*
X-109654Y46185D01*
X-110643Y46944D01*
X-111794Y47421D01*
X-113029Y47584D01*
D02*
G37*
G36*
X-36971Y47583D02*
X-38207Y47421D01*
X-39358Y46944D01*
X-40346Y46185D01*
X-41105Y45197D01*
X-41582Y44046D01*
X-41745Y42810D01*
X-41582Y41575D01*
X-41105Y40424D01*
X-40346Y39435D01*
X-39358Y38676D01*
X-38207Y38200D01*
X-36971Y38037D01*
X-35736Y38200D01*
X-34585Y38676D01*
X-33596Y39435D01*
X-32837Y40424D01*
X-32361Y41575D01*
X-32198Y42810D01*
X-32361Y44046D01*
X-32838Y45197D01*
X-33596Y46185D01*
X-34585Y46944D01*
X-35736Y47421D01*
X-36971Y47583D01*
D02*
G37*
G36*
X159181Y38681D02*
X157500D01*
Y35130D01*
X159181D01*
Y38681D01*
D02*
G37*
G36*
X156500D02*
X154819D01*
Y35130D01*
X156500D01*
Y38681D01*
D02*
G37*
G36*
X152976Y37047D02*
X151000D01*
Y34972D01*
X152976D01*
Y37047D01*
D02*
G37*
G36*
X150000D02*
X148024D01*
Y34972D01*
X150000D01*
Y37047D01*
D02*
G37*
G36*
Y33267D02*
Y31827D01*
X151440D01*
X151384Y32108D01*
X150942Y32769D01*
X150280Y33211D01*
X150000Y33267D01*
D02*
G37*
G36*
X149000D02*
X148720Y33211D01*
X148058Y32769D01*
X147616Y32108D01*
X147560Y31827D01*
X149000D01*
Y33267D01*
D02*
G37*
G36*
X125847Y37929D02*
X118744D01*
Y28071D01*
X125847D01*
Y31880D01*
X126536D01*
X126541Y31876D01*
X126564Y31758D01*
X126957Y31170D01*
X127546Y30777D01*
X128240Y30638D01*
X128935Y30777D01*
X129523Y31170D01*
X129916Y31758D01*
X130054Y32453D01*
X129916Y33147D01*
X129523Y33736D01*
X128935Y34129D01*
X128240Y34267D01*
X127546Y34129D01*
X127410Y34038D01*
X127000Y34120D01*
X125847D01*
Y37929D01*
D02*
G37*
G36*
X159181Y34130D02*
X157500D01*
Y30579D01*
X159181D01*
Y34130D01*
D02*
G37*
G36*
X156500D02*
X154819D01*
Y30579D01*
X156500D01*
Y34130D01*
D02*
G37*
G36*
X151440Y30827D02*
X150000D01*
Y29388D01*
X150280Y29443D01*
X150942Y29885D01*
X151384Y30547D01*
X151440Y30827D01*
D02*
G37*
G36*
X149000D02*
X147560D01*
X147616Y30547D01*
X148058Y29885D01*
X148720Y29443D01*
X149000Y29388D01*
Y30827D01*
D02*
G37*
G36*
X173779Y38280D02*
X170220D01*
Y30980D01*
X173779D01*
Y33510D01*
X188359D01*
X188925Y32944D01*
Y30279D01*
X193075D01*
Y31333D01*
X195083D01*
X195724Y30692D01*
X195686Y30500D01*
X195824Y29806D01*
X196217Y29217D01*
X196806Y28824D01*
X197500Y28686D01*
X198194Y28824D01*
X198783Y29217D01*
X199176Y29806D01*
X199314Y30500D01*
X199176Y31194D01*
X198783Y31783D01*
X198194Y32176D01*
X197500Y32314D01*
X197308Y32276D01*
X196339Y33245D01*
X195976Y33487D01*
X195547Y33573D01*
X193075D01*
Y34626D01*
X190411D01*
X189615Y35422D01*
X189251Y35665D01*
X188823Y35750D01*
X173779D01*
Y38280D01*
D02*
G37*
G36*
X138051Y37929D02*
X130949D01*
Y28071D01*
X138051D01*
Y37929D01*
D02*
G37*
G36*
X161047Y27814D02*
X160353Y27676D01*
X159764Y27283D01*
X159371Y26694D01*
X159289Y26281D01*
X120568D01*
X120459Y26444D01*
X119871Y26837D01*
X119176Y26975D01*
X118482Y26837D01*
X117893Y26444D01*
X117784Y26281D01*
X97000D01*
X96571Y26195D01*
X96208Y25953D01*
X77375Y7120D01*
X74303D01*
X74176Y7757D01*
X73783Y8346D01*
X73194Y8739D01*
X72500Y8877D01*
X71806Y8739D01*
X71217Y8346D01*
X70824Y7757D01*
X70686Y7063D01*
X70824Y6369D01*
X71217Y5780D01*
X71806Y5387D01*
X72500Y5249D01*
X72692Y5287D01*
X72771Y5208D01*
X73134Y4965D01*
X73563Y4880D01*
X77839D01*
X78268Y4965D01*
X78631Y5208D01*
X97464Y24041D01*
X117784D01*
X117893Y23878D01*
X118482Y23484D01*
X119176Y23346D01*
X119871Y23484D01*
X120459Y23878D01*
X120568Y24041D01*
X160208D01*
X160636Y24126D01*
X160799Y24235D01*
X161047Y24186D01*
X161741Y24324D01*
X162330Y24717D01*
X162723Y25306D01*
X162862Y26000D01*
X162723Y26694D01*
X162330Y27283D01*
X161741Y27676D01*
X161047Y27814D01*
D02*
G37*
G36*
X22161Y30934D02*
X20925Y30771D01*
X19774Y30294D01*
X18786Y29536D01*
X18027Y28547D01*
X17550Y27396D01*
X17388Y26161D01*
X17550Y24925D01*
X18027Y23774D01*
X18786Y22785D01*
X19774Y22027D01*
X20925Y21550D01*
X22161Y21387D01*
X23396Y21550D01*
X24548Y22027D01*
X25536Y22785D01*
X26295Y23774D01*
X26772Y24925D01*
X26934Y26161D01*
X26772Y27396D01*
X26295Y28547D01*
X25536Y29536D01*
X24548Y30294D01*
X23396Y30771D01*
X22161Y30934D01*
D02*
G37*
G36*
X-102839Y29934D02*
X-104075Y29771D01*
X-105226Y29294D01*
X-106214Y28536D01*
X-106973Y27547D01*
X-107450Y26396D01*
X-107612Y25161D01*
X-107450Y23925D01*
X-106973Y22774D01*
X-106214Y21786D01*
X-105226Y21027D01*
X-104075Y20550D01*
X-102839Y20387D01*
X-101604Y20550D01*
X-100452Y21027D01*
X-99464Y21786D01*
X-98705Y22774D01*
X-98229Y23925D01*
X-98066Y25161D01*
X-98229Y26396D01*
X-98705Y27547D01*
X-99464Y28536D01*
X-100452Y29294D01*
X-101604Y29771D01*
X-102839Y29934D01*
D02*
G37*
G36*
X3839Y21231D02*
X3145Y21093D01*
X2556Y20700D01*
X2163Y20111D01*
X2025Y19417D01*
X2163Y18723D01*
X2556Y18134D01*
X3145Y17741D01*
X3839Y17603D01*
X4533Y17741D01*
X5122Y18134D01*
X5515Y18723D01*
X5654Y19417D01*
X5515Y20111D01*
X5122Y20700D01*
X4533Y21093D01*
X3839Y21231D01*
D02*
G37*
G36*
X-85827Y76526D02*
X-87062Y76363D01*
X-88214Y75887D01*
X-89202Y75128D01*
X-89961Y74139D01*
X-90438Y72988D01*
X-90600Y71753D01*
X-90438Y70517D01*
X-89961Y69366D01*
X-89202Y68378D01*
X-88214Y67619D01*
X-87062Y67142D01*
X-85827Y66980D01*
X-84592Y67142D01*
X-83440Y67619D01*
X-82452Y68378D01*
X-81693Y69366D01*
X-81216Y70517D01*
X-81201Y70633D01*
X-56092D01*
X-11214Y25755D01*
X-10851Y25512D01*
X-10423Y25427D01*
X1989D01*
X8791Y18625D01*
X9154Y18382D01*
X9583Y18297D01*
X17751D01*
X34482Y1566D01*
X34845Y1324D01*
X35274Y1238D01*
X118108D01*
X118217Y1075D01*
X118806Y682D01*
X119085Y626D01*
X119250Y84D01*
X118871Y-295D01*
X118679Y-257D01*
X117985Y-395D01*
X117396Y-788D01*
X117003Y-1377D01*
X116865Y-2071D01*
X117003Y-2765D01*
X117396Y-3354D01*
X117985Y-3747D01*
X118679Y-3885D01*
X119373Y-3747D01*
X119962Y-3354D01*
X120355Y-2765D01*
X120493Y-2071D01*
X120455Y-1879D01*
X121084Y-1250D01*
X132870D01*
X133299Y-1165D01*
X133662Y-922D01*
X155035Y20451D01*
X166195D01*
X166347Y19951D01*
X166095Y19783D01*
X165702Y19194D01*
X165564Y18500D01*
X165702Y17806D01*
X165880Y17539D01*
Y17020D01*
X165220D01*
Y9720D01*
X168780D01*
Y17020D01*
X168780Y17020D01*
X168780D01*
X168845Y17493D01*
X169054Y17806D01*
X169192Y18500D01*
X169054Y19194D01*
X168661Y19783D01*
X168409Y19951D01*
X168560Y20451D01*
X184000D01*
X184429Y20537D01*
X184792Y20779D01*
X185392Y21380D01*
X186750D01*
X186920Y20880D01*
X186467Y20533D01*
X185898Y19791D01*
X185540Y18927D01*
X185418Y18000D01*
X185540Y17073D01*
X185898Y16209D01*
X186467Y15467D01*
X187209Y14898D01*
X188073Y14540D01*
X189000Y14418D01*
X189927Y14540D01*
X190791Y14898D01*
X191533Y15467D01*
X192102Y16209D01*
X192460Y17073D01*
X192582Y18000D01*
X192460Y18927D01*
X192102Y19791D01*
X191533Y20533D01*
X190791Y21102D01*
X190120Y21380D01*
Y24083D01*
X190411Y24374D01*
X193075D01*
Y28721D01*
X188925D01*
Y26056D01*
X188208Y25339D01*
X187965Y24976D01*
X187880Y24547D01*
Y23620D01*
X184929D01*
X184500Y23535D01*
X184137Y23292D01*
X183536Y22691D01*
X154571D01*
X154143Y22606D01*
X153779Y22363D01*
X132406Y990D01*
X121327D01*
X121060Y1490D01*
X121176Y1664D01*
X121314Y2358D01*
X121176Y3053D01*
X120783Y3641D01*
X120194Y4035D01*
X119500Y4173D01*
X118806Y4035D01*
X118217Y3641D01*
X118108Y3478D01*
X35738D01*
X19007Y20209D01*
X18644Y20452D01*
X18215Y20537D01*
X10047D01*
X3244Y27339D01*
X2881Y27582D01*
X2452Y27667D01*
X-9959D01*
X-54836Y72545D01*
X-55200Y72788D01*
X-55628Y72873D01*
X-81201D01*
X-81216Y72988D01*
X-81693Y74139D01*
X-82452Y75128D01*
X-83440Y75887D01*
X-84592Y76363D01*
X-85827Y76526D01*
D02*
G37*
G36*
X164181Y17421D02*
X162500D01*
Y13870D01*
X164181D01*
Y17421D01*
D02*
G37*
G36*
X161500D02*
X159819D01*
Y13870D01*
X161500D01*
Y17421D01*
D02*
G37*
G36*
X39810Y20744D02*
X38575Y20582D01*
X37424Y20105D01*
X36435Y19346D01*
X35676Y18358D01*
X35200Y17207D01*
X35037Y15971D01*
X35200Y14736D01*
X35676Y13585D01*
X36435Y12596D01*
X37424Y11837D01*
X38575Y11361D01*
X39810Y11198D01*
X41046Y11361D01*
X42197Y11837D01*
X43185Y12596D01*
X43944Y13585D01*
X44421Y14736D01*
X44583Y15971D01*
X44421Y17207D01*
X43944Y18358D01*
X43185Y19346D01*
X42197Y20105D01*
X41046Y20582D01*
X39810Y20744D01*
D02*
G37*
G36*
X-85190Y19745D02*
X-86425Y19582D01*
X-87576Y19105D01*
X-88565Y18346D01*
X-89324Y17358D01*
X-89800Y16207D01*
X-89963Y14971D01*
X-89800Y13736D01*
X-89324Y12585D01*
X-88565Y11596D01*
X-87576Y10837D01*
X-86425Y10361D01*
X-85190Y10198D01*
X-83954Y10361D01*
X-82803Y10837D01*
X-81815Y11596D01*
X-81056Y12585D01*
X-80579Y13736D01*
X-80417Y14971D01*
X-80579Y16207D01*
X-81056Y17358D01*
X-81815Y18346D01*
X-82803Y19105D01*
X-83954Y19582D01*
X-85190Y19745D01*
D02*
G37*
G36*
X164181Y12870D02*
X162500D01*
Y9319D01*
X164181D01*
Y12870D01*
D02*
G37*
G36*
X161500D02*
X159819D01*
Y9319D01*
X161500D01*
Y12870D01*
D02*
G37*
G36*
X189000Y11582D02*
X188073Y11460D01*
X187209Y11102D01*
X186467Y10533D01*
X185898Y9791D01*
X185540Y8927D01*
X185418Y8000D01*
X185540Y7073D01*
X185898Y6209D01*
X186467Y5467D01*
X187209Y4898D01*
X188073Y4540D01*
X189000Y4418D01*
X189927Y4540D01*
X190791Y4898D01*
X191533Y5467D01*
X192102Y6209D01*
X192460Y7073D01*
X192582Y8000D01*
X192460Y8927D01*
X192102Y9791D01*
X191533Y10533D01*
X190791Y11102D01*
X189927Y11460D01*
X189000Y11582D01*
D02*
G37*
G36*
X173779Y17020D02*
X170220D01*
Y9720D01*
X170880D01*
Y6597D01*
X170610Y6141D01*
X169915Y6003D01*
X169327Y5610D01*
X168933Y5021D01*
X168795Y4327D01*
X168933Y3632D01*
X169327Y3044D01*
X169915Y2651D01*
X170610Y2512D01*
X171304Y2651D01*
X171893Y3044D01*
X172286Y3632D01*
X172424Y4327D01*
X172386Y4519D01*
X172792Y4925D01*
X173035Y5288D01*
X173120Y5717D01*
Y9720D01*
X173779D01*
Y17020D01*
D02*
G37*
G36*
X94250Y564D02*
X93556Y426D01*
X92967Y33D01*
X92574Y-556D01*
X92436Y-1250D01*
X92474Y-1442D01*
X85208Y-8708D01*
X84965Y-9071D01*
X84880Y-9500D01*
Y-21536D01*
X55450Y-50966D01*
X44299D01*
X44284Y-50851D01*
X43807Y-49700D01*
X43048Y-48711D01*
X42060Y-47952D01*
X40908Y-47475D01*
X39673Y-47313D01*
X38438Y-47475D01*
X37286Y-47952D01*
X36298Y-48711D01*
X35539Y-49700D01*
X35062Y-50851D01*
X34900Y-52086D01*
X35062Y-53321D01*
X35539Y-54473D01*
X36298Y-55461D01*
X36693Y-55765D01*
X36524Y-56265D01*
X26349D01*
X5620Y-35536D01*
Y-19000D01*
X5535Y-18571D01*
X5292Y-18208D01*
X1517Y-14433D01*
X1676Y-14194D01*
X1814Y-13500D01*
X1676Y-12806D01*
X1283Y-12217D01*
X694Y-11824D01*
X0Y-11686D01*
X-694Y-11824D01*
X-1283Y-12217D01*
X-1676Y-12806D01*
X-1814Y-13500D01*
X-1676Y-14194D01*
X-1283Y-14783D01*
X-1010Y-14965D01*
X-792Y-15292D01*
X3380Y-19464D01*
Y-36000D01*
X3465Y-36429D01*
X3708Y-36792D01*
X25093Y-58177D01*
X25456Y-58419D01*
X25885Y-58505D01*
X45515D01*
X45614Y-59005D01*
X44669Y-59396D01*
X42951Y-60449D01*
X41419Y-61758D01*
X40110Y-63290D01*
X39057Y-65008D01*
X38286Y-66870D01*
X37815Y-68830D01*
X37657Y-70839D01*
X37815Y-72848D01*
X38286Y-74808D01*
X39057Y-76670D01*
X40110Y-78388D01*
X41419Y-79920D01*
X42951Y-81229D01*
X44669Y-82282D01*
X46531Y-83053D01*
X48491Y-83524D01*
X50500Y-83682D01*
X52509Y-83524D01*
X54469Y-83053D01*
X56331Y-82282D01*
X58049Y-81229D01*
X59581Y-79920D01*
X60890Y-78388D01*
X61943Y-76670D01*
X62714Y-74808D01*
X63185Y-72848D01*
X63343Y-70839D01*
X63185Y-68830D01*
X62714Y-66870D01*
X61943Y-65008D01*
X60890Y-63290D01*
X59581Y-61758D01*
X58049Y-60449D01*
X56331Y-59396D01*
X55386Y-59005D01*
X55485Y-58505D01*
X56615D01*
X57044Y-58419D01*
X57407Y-58177D01*
X64464Y-51120D01*
X82000D01*
X82429Y-51035D01*
X82792Y-50792D01*
X89292Y-44292D01*
X89535Y-43929D01*
X89620Y-43500D01*
Y-10964D01*
X92464Y-8120D01*
X119108D01*
X119217Y-8283D01*
X119806Y-8676D01*
X120500Y-8814D01*
X121194Y-8676D01*
X121783Y-8283D01*
X122176Y-7694D01*
X122314Y-7000D01*
X122176Y-6306D01*
X121783Y-5717D01*
X121194Y-5324D01*
X120500Y-5186D01*
X119806Y-5324D01*
X119217Y-5717D01*
X119108Y-5880D01*
X92000D01*
X91889Y-5902D01*
X91642Y-5441D01*
X94058Y-3026D01*
X94250Y-3064D01*
X94944Y-2926D01*
X95533Y-2533D01*
X95926Y-1944D01*
X96064Y-1250D01*
X95926Y-556D01*
X95533Y33D01*
X94944Y426D01*
X94250Y564D01*
D02*
G37*
G36*
X189000Y1582D02*
X188073Y1460D01*
X187209Y1102D01*
X186467Y533D01*
X185898Y-209D01*
X185540Y-1073D01*
X185418Y-2000D01*
X185540Y-2927D01*
X185898Y-3791D01*
X186467Y-4533D01*
X187209Y-5102D01*
X188073Y-5460D01*
X189000Y-5582D01*
X189927Y-5460D01*
X190791Y-5102D01*
X191533Y-4533D01*
X192102Y-3791D01*
X192460Y-2927D01*
X192582Y-2000D01*
X192460Y-1073D01*
X192102Y-209D01*
X191533Y533D01*
X190791Y1102D01*
X189927Y1460D01*
X189000Y1582D01*
D02*
G37*
G36*
X158780Y17020D02*
X155220D01*
Y9720D01*
X155880D01*
Y-2794D01*
X155500Y-3186D01*
X154806Y-3324D01*
X154217Y-3717D01*
X153824Y-4306D01*
X153686Y-5000D01*
X153824Y-5694D01*
X154217Y-6283D01*
X154806Y-6676D01*
X155500Y-6814D01*
X156194Y-6676D01*
X156783Y-6283D01*
X157176Y-5694D01*
X157314Y-5000D01*
X157276Y-4808D01*
X157792Y-4292D01*
X158035Y-3929D01*
X158120Y-3500D01*
Y9720D01*
X158780D01*
Y17020D01*
D02*
G37*
G36*
X-1500Y6231D02*
X-2194Y6093D01*
X-2783Y5700D01*
X-2892Y5537D01*
X-11643D01*
X-12071Y5452D01*
X-12434Y5209D01*
X-29023Y-11380D01*
X-105536D01*
X-107208Y-9708D01*
X-107571Y-9465D01*
X-108000Y-9380D01*
X-119419D01*
X-119528Y-9217D01*
X-120116Y-8824D01*
X-120811Y-8686D01*
X-121505Y-8824D01*
X-122094Y-9217D01*
X-122487Y-9806D01*
X-122625Y-10500D01*
X-122487Y-11194D01*
X-122094Y-11783D01*
X-121505Y-12176D01*
X-120811Y-12314D01*
X-120116Y-12176D01*
X-119528Y-11783D01*
X-119419Y-11620D01*
X-108464D01*
X-106792Y-13292D01*
X-106429Y-13535D01*
X-106000Y-13620D01*
X-28559D01*
X-28131Y-13535D01*
X-27768Y-13292D01*
X-11179Y3297D01*
X-2892D01*
X-2783Y3134D01*
X-2194Y2741D01*
X-1500Y2603D01*
X-806Y2741D01*
X-660Y2838D01*
X10380Y-8201D01*
Y-18608D01*
X10217Y-18717D01*
X9824Y-19306D01*
X9686Y-20000D01*
X9824Y-20694D01*
X10217Y-21283D01*
X10806Y-21676D01*
X11500Y-21814D01*
X12194Y-21676D01*
X12783Y-21283D01*
X13176Y-20694D01*
X13314Y-20000D01*
X13276Y-19808D01*
X22964Y-10120D01*
X74608D01*
X74717Y-10283D01*
X75306Y-10676D01*
X76000Y-10814D01*
X76694Y-10676D01*
X77283Y-10283D01*
X77676Y-9694D01*
X77814Y-9000D01*
X77676Y-8306D01*
X77283Y-7717D01*
X76694Y-7324D01*
X76000Y-7186D01*
X75306Y-7324D01*
X74717Y-7717D01*
X74608Y-7880D01*
X22500D01*
X22071Y-7965D01*
X21708Y-8208D01*
X13082Y-16834D01*
X12620Y-16643D01*
Y-7737D01*
X12535Y-7309D01*
X12292Y-6945D01*
X137Y5209D01*
X90Y5241D01*
X-217Y5700D01*
X-806Y6093D01*
X-1500Y6231D01*
D02*
G37*
G36*
X124047Y-2186D02*
X123353Y-2324D01*
X122764Y-2717D01*
X122371Y-3306D01*
X122233Y-4000D01*
X122371Y-4694D01*
X122764Y-5283D01*
X122927Y-5392D01*
Y-8489D01*
X120177Y-11239D01*
X119716Y-10993D01*
X119814Y-10500D01*
X119676Y-9806D01*
X119283Y-9217D01*
X118694Y-8824D01*
X118000Y-8686D01*
X117306Y-8824D01*
X116717Y-9217D01*
X116608Y-9380D01*
X98392D01*
X98283Y-9217D01*
X97694Y-8824D01*
X97000Y-8686D01*
X96306Y-8824D01*
X95717Y-9217D01*
X95324Y-9806D01*
X95186Y-10500D01*
X95324Y-11194D01*
X95717Y-11783D01*
X96306Y-12176D01*
X97000Y-12314D01*
X97694Y-12176D01*
X98283Y-11783D01*
X98392Y-11620D01*
X116608D01*
X116717Y-11783D01*
X117306Y-12176D01*
X118000Y-12314D01*
X118493Y-12216D01*
X118739Y-12677D01*
X105708Y-25708D01*
X105465Y-26071D01*
X105380Y-26500D01*
Y-37568D01*
X91036Y-51912D01*
X82873D01*
X82445Y-51997D01*
X82082Y-52240D01*
X72240Y-62082D01*
X71997Y-62445D01*
X71912Y-62874D01*
Y-71036D01*
X53550Y-89398D01*
X-46197D01*
X-53841Y-81754D01*
Y-64420D01*
X-53713Y-64292D01*
X-53713Y-64292D01*
X-53470Y-63929D01*
X-53385Y-63500D01*
X-53470Y-63071D01*
X-53713Y-62708D01*
X-53713Y-62708D01*
X-64466Y-51955D01*
X-64829Y-51712D01*
X-65258Y-51627D01*
X-80701D01*
X-80716Y-51512D01*
X-81193Y-50361D01*
X-81952Y-49372D01*
X-82940Y-48613D01*
X-84092Y-48136D01*
X-85327Y-47974D01*
X-86562Y-48136D01*
X-87714Y-48613D01*
X-88702Y-49372D01*
X-89461Y-50361D01*
X-89938Y-51512D01*
X-90100Y-52747D01*
X-89938Y-53983D01*
X-89461Y-55134D01*
X-88702Y-56122D01*
X-87714Y-56881D01*
X-86562Y-57358D01*
X-85327Y-57520D01*
X-84092Y-57358D01*
X-82940Y-56881D01*
X-81952Y-56122D01*
X-81193Y-55134D01*
X-80716Y-53983D01*
X-80701Y-53867D01*
X-65721D01*
X-56007Y-63582D01*
X-56081Y-63956D01*
Y-82218D01*
X-55996Y-82646D01*
X-55753Y-83009D01*
X-47453Y-91310D01*
X-47089Y-91553D01*
X-46661Y-91638D01*
X54014D01*
X54443Y-91553D01*
X54806Y-91310D01*
X73824Y-72292D01*
X74067Y-71929D01*
X74152Y-71500D01*
Y-63337D01*
X83337Y-54152D01*
X91500D01*
X91929Y-54067D01*
X92292Y-53824D01*
X107292Y-38824D01*
X107535Y-38461D01*
X107620Y-38032D01*
Y-26964D01*
X124839Y-9745D01*
X125082Y-9381D01*
X125167Y-8953D01*
Y-5392D01*
X125330Y-5283D01*
X125724Y-4694D01*
X125862Y-4000D01*
X125724Y-3306D01*
X125330Y-2717D01*
X124742Y-2324D01*
X124047Y-2186D01*
D02*
G37*
G36*
X189500Y-8079D02*
Y-11500D01*
X192921D01*
X192851Y-10968D01*
X192453Y-10007D01*
X191819Y-9181D01*
X190993Y-8547D01*
X190032Y-8149D01*
X189500Y-8079D01*
D02*
G37*
G36*
X188500D02*
X187968Y-8149D01*
X187007Y-8547D01*
X186181Y-9181D01*
X185547Y-10007D01*
X185149Y-10968D01*
X185079Y-11500D01*
X188500D01*
Y-8079D01*
D02*
G37*
G36*
X192921Y-12500D02*
X189500D01*
Y-15921D01*
X190032Y-15851D01*
X190993Y-15453D01*
X191819Y-14819D01*
X192453Y-13993D01*
X192851Y-13032D01*
X192921Y-12500D01*
D02*
G37*
G36*
X188500D02*
X185079D01*
X185149Y-13032D01*
X185547Y-13993D01*
X186181Y-14819D01*
X187007Y-15453D01*
X187968Y-15851D01*
X188500Y-15921D01*
Y-12500D01*
D02*
G37*
G36*
X100429Y-13449D02*
X90571D01*
Y-20551D01*
X100429D01*
Y-13449D01*
D02*
G37*
G36*
X178374Y-18374D02*
X175512D01*
Y-20646D01*
X178374D01*
Y-18374D01*
D02*
G37*
G36*
X174512D02*
X171650D01*
Y-20646D01*
X174512D01*
Y-18374D01*
D02*
G37*
G36*
X-20071Y-18846D02*
X-29929D01*
Y-25949D01*
X-20071D01*
Y-23120D01*
X-17892D01*
X-17783Y-23283D01*
X-17194Y-23676D01*
X-16500Y-23814D01*
X-15806Y-23676D01*
X-15217Y-23283D01*
X-14824Y-22694D01*
X-14686Y-22000D01*
X-14824Y-21306D01*
X-15217Y-20717D01*
X-15806Y-20324D01*
X-16500Y-20186D01*
X-17194Y-20324D01*
X-17783Y-20717D01*
X-17892Y-20880D01*
X-20071D01*
Y-18846D01*
D02*
G37*
G36*
X178374Y-21646D02*
X175512D01*
Y-23918D01*
X178374D01*
Y-21646D01*
D02*
G37*
G36*
X174512D02*
X171650D01*
Y-23918D01*
X174512D01*
Y-21646D01*
D02*
G37*
G36*
X189000Y-18418D02*
X188073Y-18540D01*
X187209Y-18898D01*
X186467Y-19467D01*
X185898Y-20209D01*
X185540Y-21073D01*
X185418Y-22000D01*
X185540Y-22927D01*
X185898Y-23791D01*
X186467Y-24533D01*
X187209Y-25102D01*
X188073Y-25460D01*
X189000Y-25582D01*
X189927Y-25460D01*
X190791Y-25102D01*
X191533Y-24533D01*
X192102Y-23791D01*
X192460Y-22927D01*
X192582Y-22000D01*
X192460Y-21073D01*
X192102Y-20209D01*
X191533Y-19467D01*
X190791Y-18898D01*
X189927Y-18540D01*
X189000Y-18418D01*
D02*
G37*
G36*
X-16500Y-30996D02*
X-17194Y-31134D01*
X-17783Y-31527D01*
X-18176Y-32116D01*
X-18314Y-32810D01*
X-18254Y-33112D01*
X-18585Y-33482D01*
X-20071D01*
Y-31051D01*
X-29929D01*
Y-38153D01*
X-20071D01*
Y-35722D01*
X-18102D01*
X-17674Y-35637D01*
X-17310Y-35394D01*
X-16534Y-34618D01*
X-16500Y-34624D01*
X-15806Y-34486D01*
X-15217Y-34093D01*
X-14824Y-33504D01*
X-14686Y-32810D01*
X-14824Y-32116D01*
X-15217Y-31527D01*
X-15806Y-31134D01*
X-16500Y-30996D01*
D02*
G37*
G36*
X100429Y-25653D02*
X90571D01*
Y-32756D01*
X93006D01*
Y-33348D01*
X92843Y-33457D01*
X92450Y-34046D01*
X92312Y-34740D01*
X92450Y-35434D01*
X92843Y-36023D01*
X93432Y-36416D01*
X94126Y-36555D01*
X94820Y-36416D01*
X95409Y-36023D01*
X95802Y-35434D01*
X95940Y-34740D01*
X95802Y-34046D01*
X95409Y-33457D01*
X95246Y-33348D01*
Y-32756D01*
X100429D01*
Y-25653D01*
D02*
G37*
G36*
X40310Y-28037D02*
X39075Y-28199D01*
X37924Y-28676D01*
X36935Y-29435D01*
X36176Y-30423D01*
X35700Y-31574D01*
X35537Y-32810D01*
X35700Y-34045D01*
X36176Y-35197D01*
X36935Y-36185D01*
X37924Y-36944D01*
X39075Y-37420D01*
X40310Y-37583D01*
X41546Y-37420D01*
X42697Y-36944D01*
X43685Y-36185D01*
X44444Y-35197D01*
X44921Y-34045D01*
X45084Y-32810D01*
X44921Y-31574D01*
X44444Y-30423D01*
X43685Y-29435D01*
X42697Y-28676D01*
X41546Y-28199D01*
X40310Y-28037D01*
D02*
G37*
G36*
X60690Y-28037D02*
X59454Y-28200D01*
X58303Y-28676D01*
X57315Y-29435D01*
X56556Y-30424D01*
X56079Y-31575D01*
X55917Y-32810D01*
X56079Y-34046D01*
X56556Y-35197D01*
X57315Y-36185D01*
X58303Y-36944D01*
X59454Y-37421D01*
X60690Y-37584D01*
X61925Y-37421D01*
X63076Y-36944D01*
X64065Y-36185D01*
X64824Y-35197D01*
X65300Y-34046D01*
X65463Y-32810D01*
X65300Y-31575D01*
X64824Y-30424D01*
X64065Y-29435D01*
X63076Y-28676D01*
X61925Y-28200D01*
X60690Y-28037D01*
D02*
G37*
G36*
X-84690Y-28698D02*
X-85925Y-28860D01*
X-87076Y-29337D01*
X-88065Y-30096D01*
X-88823Y-31084D01*
X-89300Y-32236D01*
X-89463Y-33471D01*
X-89300Y-34706D01*
X-88823Y-35858D01*
X-88065Y-36846D01*
X-87076Y-37605D01*
X-85925Y-38081D01*
X-84690Y-38244D01*
X-83454Y-38081D01*
X-82303Y-37605D01*
X-81314Y-36846D01*
X-80556Y-35857D01*
X-80079Y-34706D01*
X-79916Y-33471D01*
X-80079Y-32236D01*
X-80556Y-31084D01*
X-81314Y-30096D01*
X-82303Y-29337D01*
X-83454Y-28860D01*
X-84690Y-28698D01*
D02*
G37*
G36*
X-64310Y-28698D02*
X-65546Y-28861D01*
X-66697Y-29337D01*
X-67685Y-30096D01*
X-68444Y-31085D01*
X-68921Y-32236D01*
X-69083Y-33471D01*
X-68921Y-34707D01*
X-68444Y-35858D01*
X-67685Y-36846D01*
X-66697Y-37605D01*
X-65546Y-38082D01*
X-64310Y-38245D01*
X-63075Y-38082D01*
X-61924Y-37605D01*
X-60935Y-36846D01*
X-60176Y-35858D01*
X-59700Y-34707D01*
X-59537Y-33471D01*
X-59700Y-32236D01*
X-60176Y-31085D01*
X-60935Y-30096D01*
X-61924Y-29337D01*
X-63075Y-28861D01*
X-64310Y-28698D01*
D02*
G37*
G36*
X22661Y-38227D02*
X21425Y-38389D01*
X20274Y-38866D01*
X19286Y-39625D01*
X18527Y-40613D01*
X18050Y-41765D01*
X17887Y-43000D01*
X18050Y-44235D01*
X18527Y-45387D01*
X19286Y-46375D01*
X20274Y-47134D01*
X21425Y-47611D01*
X22661Y-47773D01*
X23896Y-47611D01*
X25047Y-47134D01*
X26036Y-46375D01*
X26794Y-45386D01*
X27271Y-44235D01*
X27434Y-43000D01*
X27271Y-41765D01*
X26794Y-40613D01*
X26036Y-39625D01*
X25047Y-38866D01*
X23896Y-38389D01*
X22661Y-38227D01*
D02*
G37*
G36*
X-46661Y-38887D02*
X-47896Y-39050D01*
X-49048Y-39527D01*
X-50036Y-40286D01*
X-50795Y-41274D01*
X-51271Y-42425D01*
X-51434Y-43661D01*
X-51271Y-44896D01*
X-50795Y-46047D01*
X-50036Y-47036D01*
X-49047Y-47794D01*
X-47896Y-48271D01*
X-46661Y-48434D01*
X-45426Y-48271D01*
X-44274Y-47794D01*
X-43286Y-47036D01*
X-42527Y-46047D01*
X-42050Y-44896D01*
X-41888Y-43661D01*
X-42050Y-42425D01*
X-42527Y-41274D01*
X-43286Y-40286D01*
X-44274Y-39527D01*
X-45426Y-39050D01*
X-46661Y-38887D01*
D02*
G37*
G36*
X-102339Y-38888D02*
X-103575Y-39050D01*
X-104726Y-39527D01*
X-105714Y-40286D01*
X-106473Y-41274D01*
X-106950Y-42426D01*
X-107113Y-43661D01*
X-106950Y-44896D01*
X-106473Y-46048D01*
X-105714Y-47036D01*
X-104726Y-47795D01*
X-103575Y-48272D01*
X-102339Y-48434D01*
X-101104Y-48272D01*
X-99953Y-47795D01*
X-98964Y-47036D01*
X-98206Y-46047D01*
X-97729Y-44896D01*
X-97566Y-43661D01*
X-97729Y-42426D01*
X-98206Y-41274D01*
X-98964Y-40286D01*
X-99953Y-39527D01*
X-101104Y-39050D01*
X-102339Y-38888D01*
D02*
G37*
G36*
X12471Y-55876D02*
X11236Y-56039D01*
X10085Y-56515D01*
X9096Y-57274D01*
X8337Y-58263D01*
X7861Y-59414D01*
X7698Y-60649D01*
X7861Y-61885D01*
X8337Y-63036D01*
X9096Y-64024D01*
X10085Y-64783D01*
X11236Y-65260D01*
X12471Y-65422D01*
X13707Y-65260D01*
X14858Y-64783D01*
X15846Y-64024D01*
X16605Y-63036D01*
X17082Y-61885D01*
X17244Y-60649D01*
X17082Y-59414D01*
X16605Y-58263D01*
X15846Y-57274D01*
X14858Y-56515D01*
X13707Y-56039D01*
X12471Y-55876D01*
D02*
G37*
G36*
X88529Y-55876D02*
X87294Y-56039D01*
X86142Y-56516D01*
X85154Y-57274D01*
X84395Y-58263D01*
X83918Y-59414D01*
X83756Y-60649D01*
X83918Y-61885D01*
X84395Y-63036D01*
X85154Y-64025D01*
X86142Y-64783D01*
X87294Y-65260D01*
X88529Y-65423D01*
X89764Y-65260D01*
X90916Y-64783D01*
X91904Y-64025D01*
X92663Y-63036D01*
X93140Y-61885D01*
X93302Y-60649D01*
X93140Y-59414D01*
X92663Y-58263D01*
X91904Y-57274D01*
X90916Y-56516D01*
X89764Y-56039D01*
X88529Y-55876D01*
D02*
G37*
G36*
X-112529Y-56537D02*
X-113764Y-56700D01*
X-114915Y-57176D01*
X-115904Y-57935D01*
X-116663Y-58924D01*
X-117139Y-60075D01*
X-117302Y-61310D01*
X-117139Y-62546D01*
X-116663Y-63697D01*
X-115904Y-64685D01*
X-114915Y-65444D01*
X-113764Y-65921D01*
X-112529Y-66084D01*
X-111293Y-65921D01*
X-110142Y-65444D01*
X-109154Y-64685D01*
X-108395Y-63697D01*
X-107918Y-62546D01*
X-107755Y-61310D01*
X-107918Y-60075D01*
X-108395Y-58924D01*
X-109154Y-57935D01*
X-110142Y-57176D01*
X-111293Y-56700D01*
X-112529Y-56537D01*
D02*
G37*
G36*
X-36471Y-56537D02*
X-37706Y-56700D01*
X-38858Y-57177D01*
X-39846Y-57935D01*
X-40605Y-58924D01*
X-41082Y-60075D01*
X-41244Y-61310D01*
X-41082Y-62546D01*
X-40605Y-63697D01*
X-39846Y-64685D01*
X-38857Y-65444D01*
X-37706Y-65921D01*
X-36471Y-66084D01*
X-35236Y-65921D01*
X-34084Y-65444D01*
X-33096Y-64685D01*
X-32337Y-63697D01*
X-31860Y-62546D01*
X-31698Y-61310D01*
X-31860Y-60075D01*
X-32337Y-58924D01*
X-33096Y-57935D01*
X-34084Y-57177D01*
X-35236Y-56700D01*
X-36471Y-56537D01*
D02*
G37*
G36*
X-74500Y-58657D02*
X-76509Y-58815D01*
X-78469Y-59286D01*
X-80330Y-60057D01*
X-82049Y-61110D01*
X-83581Y-62419D01*
X-84890Y-63951D01*
X-85943Y-65670D01*
X-86714Y-67531D01*
X-87185Y-69491D01*
X-87343Y-71500D01*
X-87185Y-73509D01*
X-86714Y-75469D01*
X-85943Y-77330D01*
X-84890Y-79049D01*
X-83581Y-80581D01*
X-82049Y-81890D01*
X-80330Y-82943D01*
X-78469Y-83714D01*
X-76509Y-84185D01*
X-74500Y-84343D01*
X-72491Y-84185D01*
X-70531Y-83714D01*
X-68669Y-82943D01*
X-66951Y-81890D01*
X-65419Y-80581D01*
X-64110Y-79049D01*
X-63057Y-77330D01*
X-62286Y-75469D01*
X-61815Y-73509D01*
X-61657Y-71500D01*
X-61815Y-69491D01*
X-62286Y-67531D01*
X-63057Y-65670D01*
X-64110Y-63951D01*
X-65419Y-62419D01*
X-66951Y-61110D01*
X-68669Y-60057D01*
X-70531Y-59286D01*
X-72491Y-58815D01*
X-74500Y-58657D01*
D02*
G37*
G36*
X12471Y-76255D02*
X11236Y-76418D01*
X10084Y-76895D01*
X9096Y-77653D01*
X8337Y-78642D01*
X7860Y-79793D01*
X7698Y-81029D01*
X7860Y-82264D01*
X8337Y-83415D01*
X9096Y-84404D01*
X10084Y-85163D01*
X11236Y-85639D01*
X12471Y-85802D01*
X13706Y-85639D01*
X14858Y-85163D01*
X15846Y-84404D01*
X16605Y-83415D01*
X17082Y-82264D01*
X17244Y-81029D01*
X17082Y-79793D01*
X16605Y-78642D01*
X15846Y-77653D01*
X14858Y-76895D01*
X13706Y-76418D01*
X12471Y-76255D01*
D02*
G37*
G36*
X88529Y-76256D02*
X87293Y-76418D01*
X86142Y-76895D01*
X85154Y-77654D01*
X84395Y-78642D01*
X83918Y-79793D01*
X83755Y-81029D01*
X83918Y-82264D01*
X84395Y-83415D01*
X85154Y-84404D01*
X86142Y-85163D01*
X87293Y-85639D01*
X88529Y-85802D01*
X89764Y-85639D01*
X90915Y-85163D01*
X91904Y-84404D01*
X92663Y-83415D01*
X93139Y-82264D01*
X93302Y-81029D01*
X93139Y-79793D01*
X92663Y-78642D01*
X91904Y-77654D01*
X90915Y-76895D01*
X89764Y-76418D01*
X88529Y-76256D01*
D02*
G37*
G36*
X-112529Y-76916D02*
X-113765Y-77079D01*
X-114916Y-77556D01*
X-115904Y-78315D01*
X-116663Y-79303D01*
X-117140Y-80454D01*
X-117302Y-81690D01*
X-117140Y-82925D01*
X-116663Y-84076D01*
X-115904Y-85065D01*
X-114916Y-85824D01*
X-113765Y-86300D01*
X-112529Y-86463D01*
X-111294Y-86300D01*
X-110142Y-85824D01*
X-109154Y-85065D01*
X-108395Y-84076D01*
X-107919Y-82925D01*
X-107756Y-81690D01*
X-107919Y-80454D01*
X-108395Y-79303D01*
X-109154Y-78315D01*
X-110143Y-77556D01*
X-111294Y-77079D01*
X-112529Y-76916D01*
D02*
G37*
G36*
X-36471Y-76916D02*
X-37707Y-77079D01*
X-38858Y-77556D01*
X-39846Y-78315D01*
X-40605Y-79303D01*
X-41082Y-80454D01*
X-41245Y-81690D01*
X-41082Y-82925D01*
X-40605Y-84076D01*
X-39846Y-85065D01*
X-38858Y-85824D01*
X-37707Y-86300D01*
X-36471Y-86463D01*
X-35236Y-86300D01*
X-34085Y-85824D01*
X-33096Y-85065D01*
X-32337Y-84076D01*
X-31861Y-82925D01*
X-31698Y-81690D01*
X-31861Y-80454D01*
X-32337Y-79303D01*
X-33096Y-78315D01*
X-34085Y-77556D01*
X-35236Y-77079D01*
X-36471Y-76916D01*
D02*
G37*
G36*
X22661Y-93905D02*
X21426Y-94068D01*
X20274Y-94545D01*
X19286Y-95303D01*
X18527Y-96292D01*
X18050Y-97443D01*
X17888Y-98678D01*
X18050Y-99914D01*
X18527Y-101065D01*
X19286Y-102053D01*
X20274Y-102812D01*
X21426Y-103289D01*
X22661Y-103452D01*
X23896Y-103289D01*
X25048Y-102812D01*
X26036Y-102053D01*
X26795Y-101065D01*
X27272Y-99914D01*
X27434Y-98678D01*
X27272Y-97443D01*
X26795Y-96292D01*
X26036Y-95303D01*
X25048Y-94545D01*
X23896Y-94068D01*
X22661Y-93905D01*
D02*
G37*
G36*
X-102339Y-94566D02*
X-103575Y-94729D01*
X-104726Y-95205D01*
X-105714Y-95964D01*
X-106473Y-96953D01*
X-106950Y-98104D01*
X-107112Y-99339D01*
X-106950Y-100575D01*
X-106473Y-101726D01*
X-105714Y-102715D01*
X-104726Y-103473D01*
X-103575Y-103950D01*
X-102339Y-104113D01*
X-101104Y-103950D01*
X-99952Y-103473D01*
X-98964Y-102715D01*
X-98205Y-101726D01*
X-97729Y-100575D01*
X-97566Y-99339D01*
X-97729Y-98104D01*
X-98205Y-96953D01*
X-98964Y-95964D01*
X-99953Y-95205D01*
X-101104Y-94729D01*
X-102339Y-94566D01*
D02*
G37*
G36*
X40310Y-104095D02*
X39075Y-104257D01*
X37924Y-104734D01*
X36935Y-105493D01*
X36176Y-106481D01*
X35700Y-107632D01*
X35537Y-108868D01*
X35700Y-110103D01*
X36176Y-111254D01*
X36935Y-112243D01*
X37924Y-113002D01*
X39075Y-113478D01*
X40310Y-113641D01*
X41546Y-113478D01*
X42697Y-113002D01*
X43685Y-112243D01*
X44444Y-111254D01*
X44921Y-110103D01*
X45083Y-108868D01*
X44921Y-107632D01*
X44444Y-106481D01*
X43685Y-105493D01*
X42697Y-104734D01*
X41546Y-104257D01*
X40310Y-104095D01*
D02*
G37*
G36*
X-84690Y-104755D02*
X-85925Y-104918D01*
X-87076Y-105395D01*
X-88065Y-106154D01*
X-88824Y-107142D01*
X-89300Y-108293D01*
X-89463Y-109529D01*
X-89300Y-110764D01*
X-88824Y-111915D01*
X-88065Y-112904D01*
X-87076Y-113663D01*
X-85925Y-114139D01*
X-84690Y-114302D01*
X-83454Y-114139D01*
X-82303Y-113663D01*
X-81315Y-112904D01*
X-80556Y-111915D01*
X-80079Y-110764D01*
X-79917Y-109529D01*
X-80079Y-108293D01*
X-80556Y-107142D01*
X-81315Y-106154D01*
X-82303Y-105395D01*
X-83454Y-104918D01*
X-84690Y-104755D01*
D02*
G37*
%LPD*%
D11*
X-1500Y4417D02*
X-654D01*
X2452Y26547D02*
X9583Y19417D01*
X-10423Y26547D02*
X2452D01*
X9583Y19417D02*
X18215D01*
X94126Y-34740D02*
Y-30579D01*
X95500Y-29205D01*
X-11643Y4417D02*
X-1500D01*
X-28559Y-12500D02*
X-11643Y4417D01*
X-106000Y-12500D02*
X-28559D01*
X11500Y-20000D02*
Y-7737D01*
X-654Y4417D02*
X11500Y-7737D01*
X56615Y-57385D02*
X64000Y-50000D01*
X25885Y-57385D02*
X56615D01*
X4500Y-36000D02*
X25885Y-57385D01*
X91500Y-53032D02*
X106500Y-38032D01*
X54014Y-90518D02*
X73032Y-71500D01*
Y-62874D01*
X82873Y-53032D01*
X91500D01*
X-65258Y-52747D02*
X-54505Y-63500D01*
X-54961Y-63956D02*
X-54505Y-63500D01*
X-54961Y-82218D02*
Y-63956D01*
Y-82218D02*
X-46661Y-90518D01*
X54014D01*
X-85327Y-52747D02*
X-65258D01*
X-18102Y-34602D02*
X-16310Y-32810D01*
X-24602Y-22000D02*
X-16500D01*
X-25000Y-22398D02*
X-24602Y-22000D01*
X22500Y-9000D02*
X76000D01*
X72500Y7063D02*
X73563Y6000D01*
X77839D01*
X-55628Y71753D02*
X-10423Y26547D01*
X18215Y19417D02*
X35274Y2358D01*
X119500D01*
X-85827Y71753D02*
X-55628D01*
X127240Y-68830D02*
Y-62760D01*
X97000Y25161D02*
X119176D01*
X77839Y6000D02*
X97000Y25161D01*
X119176D02*
X160208D01*
X161047Y26000D01*
X132870Y-130D02*
X154571Y21571D01*
X120620Y-130D02*
X132870D01*
X118679Y-2071D02*
X120620Y-130D01*
X-120811Y-10500D02*
X-108000D01*
X-106000Y-12500D01*
X-122743Y-1250D02*
Y-744D01*
X-119691Y2308D01*
Y14162D01*
X-130000Y24471D02*
X-119691Y14162D01*
X-130000Y24471D02*
Y98000D01*
X-128290Y5952D02*
X-124026D01*
X-136500Y14162D02*
X-128290Y5952D01*
X-136500Y14162D02*
Y97000D01*
X168500Y36130D02*
Y53500D01*
X167000Y57000D02*
Y60500D01*
X115500Y112000D02*
X167000Y60500D01*
X160810Y43500D02*
Y49237D01*
X161094Y57000D02*
Y63480D01*
X128575Y96000D02*
X161094Y63480D01*
X122500Y96000D02*
X128575D01*
X130500Y-59880D02*
X132000Y-58380D01*
Y-57000D01*
X133000Y-56000D01*
Y-50500D01*
X130500Y-63500D02*
Y-59880D01*
X151500Y6000D02*
Y7063D01*
Y-18000D02*
Y6000D01*
X127000Y33000D02*
X127984Y32016D01*
X137000Y75000D02*
X137626Y74374D01*
X106500Y-26500D02*
X124047Y-8953D01*
Y-4000D01*
X-16500Y-32810D02*
X-16310D01*
X126500Y51500D02*
X129500D01*
X125500Y52500D02*
X126500Y51500D01*
X0Y-14500D02*
Y-13500D01*
Y-14500D02*
X4500Y-19000D01*
X128240Y32272D02*
Y32453D01*
X127984Y32016D02*
X128240Y32272D01*
X147511Y-21146D02*
X163988D01*
X140000Y-28657D02*
X147511Y-21146D01*
X140000Y-31500D02*
Y-28657D01*
X167000Y18122D02*
X167378Y18500D01*
X167000Y13370D02*
Y18122D01*
X154571Y21571D02*
X184000D01*
X189000Y22500D02*
Y24547D01*
Y18000D02*
Y22500D01*
X184000Y21571D02*
X184929Y22500D01*
X189000D01*
Y24547D02*
X191000Y26547D01*
X94906Y-17594D02*
X95500Y-17000D01*
X-136500Y97000D02*
X-121500Y112000D01*
X115500D01*
X108500Y110000D02*
X122500Y96000D01*
X-118000Y110000D02*
X108500D01*
X-130000Y98000D02*
X-118000Y110000D01*
X91737Y97737D02*
Y98000D01*
X91500Y101000D02*
X91737Y100763D01*
Y98000D02*
Y100763D01*
X103941Y98000D02*
X104398Y97544D01*
Y91898D02*
Y97544D01*
X11500Y-20000D02*
X22500Y-9000D01*
X117500Y62906D02*
Y90398D01*
Y44500D02*
Y62906D01*
X115032Y42031D02*
X117500Y44500D01*
X115032Y33142D02*
Y42031D01*
X135000Y31500D02*
X135126Y31626D01*
X122295Y33000D02*
X127000D01*
X136102Y52500D02*
X139000D01*
X123898D02*
X125500D01*
X124295Y72500D02*
X124548Y72753D01*
X129000D01*
X188823Y34630D02*
X191000Y32453D01*
X172000Y34630D02*
X188823D01*
X191000Y32453D02*
X195547D01*
X197500Y30500D01*
X127500Y-53905D02*
X129953Y-51453D01*
X127500Y-62500D02*
Y-53905D01*
X127240Y-62760D02*
X127500Y-62500D01*
X141500Y-36500D02*
Y-34602D01*
X129953Y-48047D02*
X141500Y-36500D01*
X129953Y-51453D02*
Y-48047D01*
X128500Y-43000D02*
X140000Y-31500D01*
X127500Y-43000D02*
X128500D01*
X131500Y-35000D02*
Y-32500D01*
X122500Y-44000D02*
X131500Y-35000D01*
X122500Y-65177D02*
Y-44000D01*
X123240Y-67547D02*
Y-65917D01*
X122500Y-65177D02*
X123240Y-65917D01*
X121500Y-41000D02*
X123000Y-39500D01*
X111000Y-41000D02*
X121500D01*
X104500Y-47500D02*
X111000Y-41000D01*
X-27000Y86500D02*
X-25500Y85000D01*
X-27000Y86500D02*
Y91898D01*
Y104102D02*
X-23102D01*
X-18500Y99500D01*
X-6000Y56000D02*
Y65500D01*
Y56000D02*
X-4000Y54000D01*
X19000D01*
X97000Y-10500D02*
X118000D01*
X106500Y-38032D02*
Y-26500D01*
X-25000Y-34602D02*
X-18102D01*
X4500Y-36000D02*
Y-19000D01*
X64000Y-50000D02*
X82000D01*
X88500Y-43500D01*
Y-10500D01*
X92000Y-7000D01*
X120500D01*
X86000Y-9500D02*
X94250Y-1250D01*
X86000Y-22000D02*
Y-9500D01*
X55914Y-52086D02*
X86000Y-22000D01*
X39673Y-52086D02*
X55914D01*
X158342Y-32500D02*
X163988Y-26854D01*
X151000Y-32500D02*
X158342D01*
X133000Y-50500D02*
X151000Y-32500D01*
X175012Y-27988D02*
Y-26854D01*
X173000Y-30000D02*
X175012Y-27988D01*
X150500Y45547D02*
X153500Y48547D01*
X150500Y43453D02*
Y45547D01*
X160810Y49237D02*
Y56716D01*
X153500Y54453D02*
X155595D01*
X160810Y49237D01*
X178000Y46953D02*
Y52547D01*
X176547Y57000D02*
X178000Y58453D01*
X167000Y57000D02*
X176547D01*
X167000Y34630D02*
X168500Y36130D01*
X167000Y55000D02*
X168500Y53500D01*
X167000Y55000D02*
Y57000D01*
X160810Y43500D02*
X162000Y42310D01*
X160810Y56716D02*
X161094Y57000D01*
X162000Y34630D02*
Y42310D01*
X155500Y-5000D02*
X157000Y-3500D01*
Y13370D01*
X170610Y4327D02*
X172000Y5717D01*
Y13370D01*
X131500Y-32500D02*
X132000Y-32000D01*
D25*
X157000Y13370D02*
D03*
X162000D02*
D03*
X167000D02*
D03*
X172000D02*
D03*
Y34630D02*
D03*
X167000D02*
D03*
X162000D02*
D03*
X157000D02*
D03*
D26*
X191000Y26547D02*
D03*
Y32453D02*
D03*
X153500Y54453D02*
D03*
Y48547D02*
D03*
X178000Y58453D02*
D03*
Y52547D02*
D03*
X150500Y43453D02*
D03*
Y37547D02*
D03*
X178000Y46953D02*
D03*
Y41047D02*
D03*
D27*
X167000Y57000D02*
D03*
X161094D02*
D03*
D28*
X160760Y43563D02*
D03*
X168240D02*
D03*
X164500Y51437D02*
D03*
D29*
X95500Y-17000D02*
D03*
Y-29205D02*
D03*
X-25000Y-34602D02*
D03*
Y-22398D02*
D03*
X-27000Y91898D02*
D03*
Y104102D02*
D03*
D30*
X103941Y98000D02*
D03*
X91737D02*
D03*
X122295Y33000D02*
D03*
X134500D02*
D03*
X124295Y72500D02*
D03*
X136500D02*
D03*
X123898Y52500D02*
D03*
X136102D02*
D03*
D31*
X163988Y-26854D02*
D03*
Y-21146D02*
D03*
X175012D02*
D03*
Y-26854D02*
D03*
D32*
X50500Y-70839D02*
D03*
X50000Y54000D02*
D03*
X-75000Y53000D02*
D03*
X-74500Y-71500D02*
D03*
D33*
X-85190Y14971D02*
D03*
X-102839Y25161D02*
D03*
X-113029Y42810D02*
D03*
X-113029Y63190D02*
D03*
X-102839Y80839D02*
D03*
X-85190Y91029D02*
D03*
X-64810Y91029D02*
D03*
X-47161Y80839D02*
D03*
X-36971Y63190D02*
D03*
X-36971Y42810D02*
D03*
X-85827Y71753D02*
D03*
X40310Y-108868D02*
D03*
X22661Y-98678D02*
D03*
X12471Y-81029D02*
D03*
X12471Y-60649D02*
D03*
X22661Y-43000D02*
D03*
X40310Y-32810D02*
D03*
X60690Y-32810D02*
D03*
X78339Y-43000D02*
D03*
X88529Y-60649D02*
D03*
X88529Y-81029D02*
D03*
X39673Y-52086D02*
D03*
X-85327Y-52747D02*
D03*
X-36471Y-81690D02*
D03*
X-36471Y-61310D02*
D03*
X-46661Y-43661D02*
D03*
X-64310Y-33471D02*
D03*
X-84690Y-33471D02*
D03*
X-102339Y-43661D02*
D03*
X-112529Y-61310D02*
D03*
X-112529Y-81690D02*
D03*
X-102339Y-99339D02*
D03*
X-84690Y-109529D02*
D03*
X39173Y72753D02*
D03*
X88029Y43810D02*
D03*
X88029Y64190D02*
D03*
X77839Y81839D02*
D03*
X60190Y92029D02*
D03*
X39810Y92029D02*
D03*
X22161Y81839D02*
D03*
X11971Y64190D02*
D03*
X11971Y43810D02*
D03*
X22161Y26161D02*
D03*
X39810Y15971D02*
D03*
D34*
X189000Y18000D02*
D03*
Y8000D02*
D03*
Y-2000D02*
D03*
Y-12000D02*
D03*
Y-22000D02*
D03*
D35*
X94126Y-34740D02*
D03*
X-16500Y-22000D02*
D03*
X76000Y-9000D02*
D03*
X72500Y7063D02*
D03*
X127240Y-68830D02*
D03*
X119176Y25161D02*
D03*
X118679Y-2071D02*
D03*
X-120811Y-10500D02*
D03*
X-122743Y-1250D02*
D03*
X-124026Y5952D02*
D03*
X137626Y74374D02*
D03*
X119500Y2358D02*
D03*
X124047Y-4000D02*
D03*
X-16500Y-32810D02*
D03*
X129500Y51500D02*
D03*
X0Y-13500D02*
D03*
X128240Y32453D02*
D03*
X151500Y6000D02*
D03*
X167378Y18500D02*
D03*
X161047Y26000D02*
D03*
X94906Y-17594D02*
D03*
X91500Y101000D02*
D03*
X11500Y-20000D02*
D03*
X-1500Y4417D02*
D03*
X117500Y90398D02*
D03*
Y62906D02*
D03*
X115032Y33142D02*
D03*
X117500Y44500D02*
D03*
X3839Y19417D02*
D03*
X135126Y31626D02*
D03*
X139000Y52500D02*
D03*
X129000Y72753D02*
D03*
X197500Y30500D02*
D03*
X130500Y-63500D02*
D03*
X151500Y-18000D02*
D03*
X141500Y-34602D02*
D03*
X129953Y-51453D02*
D03*
X127500Y-43000D02*
D03*
X123240Y-67547D02*
D03*
X123000Y-39500D02*
D03*
X104500Y-47500D02*
D03*
X-25500Y85000D02*
D03*
X-18500Y99500D02*
D03*
X-6000Y65500D02*
D03*
X19000Y54000D02*
D03*
X97000Y-10500D02*
D03*
X118000D02*
D03*
X120500Y-7000D02*
D03*
X94250Y-1250D02*
D03*
X104398Y91898D02*
D03*
X173000Y-30000D02*
D03*
X155500Y-5000D02*
D03*
X170610Y4327D02*
D03*
X132000Y-32000D02*
D03*
D36*
X149500Y31327D02*
D03*
M02*
