M48
;Layer_Color=9474304
;FILE_FORMAT=2:5
INCH,LZ
;TYPE=PLATED
T1F00S00C0.03937
T2F00S00C0.23622
;TYPE=NON_PLATED
T3F00S00C0.09449
T4F00S00C0.12598
T5F00S00C0.13583
T6F00S00C0.20100
%
T01
X-0673228Y-0066929
X-0496063
X-0326772
X-0169291Y-0051181
X0094488Y-0066929
X0245847
X0417323
X0641732
X0511811Y0066929
X0326772
X0153543
X-0094488
X-0245847
X-0417323
X-0590551
T02
X-0748032Y-0137795
X0748032
X076378Y-0035433
Y0035433
X070748Y0088583
X-070748
X-0763779Y0035433
Y-0035433
X-0748032Y0133858
X0748032
T03
X-0537382Y-0141024
X-0375964
X-0214547
X-005313
X0190964
X0352382
X0513799
X0675216
T04
X-0606299Y-0108661
X-0444882
X-0283465
X-0122047
X0122047
X0283465
X0444882
X0606299
Y0108661
X0444882
X0283465
X0122047
X-0122047
X-0283465
X-0444882
X-0606299
T05
X-0675216Y-0108661
X-0513799
X-0352382
X-0190964
X005313
X0214547
X0375964
X0537382
X0675216Y0108661
X0513799
X0352382
X0190964
X-005313
X-0214547
X-0375964
X-0537382
T06
X-0Y-0098425
M30
