G04*
G04 #@! TF.GenerationSoftware,Altium Limited,Altium Designer,19.0.14 (431)*
G04*
G04 Layer_Color=65535*
%FSLAX25Y25*%
%MOIN*%
G70*
G01*
G75*
%ADD10C,0.03937*%
%ADD11C,0.00984*%
%ADD12C,0.00709*%
%ADD13C,0.00600*%
D10*
X-775591Y-74808D02*
X-754600D01*
X-765095Y-64313D02*
Y-85303D01*
X-78346Y-141081D02*
X-75067Y-137802D01*
X-68507D01*
X-65227Y-141081D01*
Y-144361D01*
X-68507Y-147641D01*
X-65227Y-150921D01*
Y-154200D01*
X-68507Y-157480D01*
X-75067D01*
X-78346Y-154200D01*
Y-150921D01*
X-75067Y-147641D01*
X-78346Y-144361D01*
Y-141081D01*
X-75067Y-147641D02*
X-68507D01*
X-707480Y-157480D02*
X-700921D01*
X-704201D01*
Y-137802D01*
X-707480Y-141081D01*
X-426775Y-157480D02*
Y-137802D01*
X-436614Y-147641D01*
X-423495D01*
X696850Y-157480D02*
X703410D01*
X700130D01*
Y-137802D01*
X696850Y-141081D01*
X726368Y-137802D02*
X719809Y-141081D01*
X713249Y-147641D01*
Y-154200D01*
X716529Y-157480D01*
X723089D01*
X726368Y-154200D01*
Y-150921D01*
X723089Y-147641D01*
X713249D01*
X-169291Y-137802D02*
X-156172D01*
Y-141081D01*
X-169291Y-154200D01*
Y-157480D01*
X-763774Y70866D02*
Y91857D01*
X169685Y-157480D02*
X176245D01*
X172965D01*
Y-137802D01*
X169685Y-141081D01*
X186084D02*
X189364Y-137802D01*
X195923D01*
X199203Y-141081D01*
Y-154200D01*
X195923Y-157480D01*
X189364D01*
X186084Y-154200D01*
Y-141081D01*
X763785Y70866D02*
Y91857D01*
X350787Y-157480D02*
X357347D01*
X354067D01*
Y-137802D01*
X350787Y-141081D01*
X380306Y-157480D02*
X367186D01*
X380306Y-144361D01*
Y-141081D01*
X377026Y-137802D01*
X370466D01*
X367186Y-141081D01*
X751968Y-74808D02*
X772959D01*
X762464Y-64313D02*
Y-85303D01*
X527953Y-157480D02*
X534512D01*
X531233D01*
Y-137802D01*
X527953Y-141081D01*
X554191Y-157480D02*
Y-137802D01*
X544352Y-147641D01*
X557471D01*
X259842Y-157480D02*
X266402D01*
X263122D01*
Y-137802D01*
X259842Y-141081D01*
X276241Y-157480D02*
X282801D01*
X279521D01*
Y-137802D01*
X276241Y-141081D01*
X-527559D02*
X-524279Y-137802D01*
X-517720D01*
X-514440Y-141081D01*
Y-144361D01*
X-517720Y-147641D01*
X-520999D01*
X-517720D01*
X-514440Y-150921D01*
Y-154200D01*
X-517720Y-157480D01*
X-524279D01*
X-527559Y-154200D01*
X618110Y-157480D02*
X624670D01*
X621390D01*
Y-137802D01*
X618110Y-141081D01*
X647628Y-137802D02*
X634509D01*
Y-147641D01*
X641069Y-144361D01*
X644348D01*
X647628Y-147641D01*
Y-154200D01*
X644348Y-157480D01*
X637789D01*
X634509Y-154200D01*
X437008Y-157480D02*
X443567D01*
X440288D01*
Y-137802D01*
X437008Y-141081D01*
X453407D02*
X456686Y-137802D01*
X463246D01*
X466526Y-141081D01*
Y-144361D01*
X463246Y-147641D01*
X459966D01*
X463246D01*
X466526Y-150921D01*
Y-154200D01*
X463246Y-157480D01*
X456686D01*
X453407Y-154200D01*
X-604597Y-157480D02*
X-617717D01*
X-604597Y-144361D01*
Y-141081D01*
X-607877Y-137802D01*
X-614437D01*
X-617717Y-141081D01*
X-337275Y-137802D02*
X-350394D01*
Y-147641D01*
X-343834Y-144361D01*
X-340554D01*
X-337275Y-147641D01*
Y-154200D01*
X-340554Y-157480D01*
X-347114D01*
X-350394Y-154200D01*
X78740D02*
X82020Y-157480D01*
X88579D01*
X91859Y-154200D01*
Y-141081D01*
X88579Y-137802D01*
X82020D01*
X78740Y-141081D01*
Y-144361D01*
X82020Y-147641D01*
X91859D01*
X-246330Y-137802D02*
X-252889Y-141081D01*
X-259449Y-147641D01*
Y-154200D01*
X-256169Y-157480D01*
X-249609D01*
X-246330Y-154200D01*
Y-150921D01*
X-249609Y-147641D01*
X-259449D01*
D11*
X-48407Y167321D02*
X-49588Y168502D01*
X-51949D01*
X-53130Y167321D01*
Y162598D01*
X-51949Y161417D01*
X-49588D01*
X-48407Y162598D01*
X-46046Y168502D02*
Y161417D01*
Y164960D01*
X-44865Y166140D01*
X-42503D01*
X-41323Y164960D01*
Y161417D01*
X-37780Y166140D02*
X-35419D01*
X-34238Y164960D01*
Y161417D01*
X-37780D01*
X-38961Y162598D01*
X-37780Y163779D01*
X-34238D01*
X-31877Y161417D02*
X-29515D01*
X-30696D01*
Y166140D01*
X-31877D01*
X-24793Y167321D02*
Y166140D01*
X-25973D01*
X-23612D01*
X-24793D01*
Y162598D01*
X-23612Y161417D01*
X-18889Y166140D02*
X-16528D01*
X-15347Y164960D01*
Y161417D01*
X-18889D01*
X-20070Y162598D01*
X-18889Y163779D01*
X-15347D01*
X-12985Y161417D02*
Y166140D01*
X-9443D01*
X-8263Y164960D01*
Y161417D01*
X-5901Y166140D02*
Y162598D01*
X-4720Y161417D01*
X-1178D01*
Y160237D01*
X-2359Y159056D01*
X-3540D01*
X-1178Y161417D02*
Y166140D01*
X2364D02*
X4725D01*
X5906Y164960D01*
Y161417D01*
X2364D01*
X1183Y162598D01*
X2364Y163779D01*
X5906D01*
X20075Y167321D02*
X18894Y168502D01*
X16533D01*
X15352Y167321D01*
Y166140D01*
X16533Y164960D01*
X18894D01*
X20075Y163779D01*
Y162598D01*
X18894Y161417D01*
X16533D01*
X15352Y162598D01*
X22436Y161417D02*
X24798D01*
X23617D01*
Y166140D01*
X22436D01*
X28340Y161417D02*
Y166140D01*
X31882D01*
X33063Y164960D01*
Y161417D01*
X40147Y168502D02*
Y161417D01*
X36605D01*
X35424Y162598D01*
Y164960D01*
X36605Y166140D01*
X40147D01*
X43689D02*
X46051D01*
X47231Y164960D01*
Y161417D01*
X43689D01*
X42508Y162598D01*
X43689Y163779D01*
X47231D01*
X51954Y159056D02*
X53135D01*
X54316Y160237D01*
Y166140D01*
X50774D01*
X49593Y164960D01*
Y162598D01*
X50774Y161417D01*
X54316D01*
X56677D02*
X59039D01*
X57858D01*
Y166140D01*
X56677D01*
D12*
X-19685Y142323D02*
Y144947D01*
X-18373Y146259D01*
X-17061Y144947D01*
Y142323D01*
Y144291D01*
X-19685D01*
X-15749Y141011D02*
Y144947D01*
X-13781D01*
X-13126Y144291D01*
Y142979D01*
X-13781Y142323D01*
X-15749D01*
X-11158D02*
X-9846D01*
X-9190Y142979D01*
Y144291D01*
X-9846Y144947D01*
X-11158D01*
X-11814Y144291D01*
Y142979D01*
X-11158Y142323D01*
X-7878D02*
X-6566D01*
X-7222D01*
Y146259D01*
X-7878D01*
X-4598Y142323D02*
X-3286D01*
X-3942D01*
Y146259D01*
X-4598D01*
X-662Y142323D02*
X650D01*
X1306Y142979D01*
Y144291D01*
X650Y144947D01*
X-662D01*
X-1318Y144291D01*
Y142979D01*
X-662Y142323D01*
X9177D02*
X6553D01*
X9177Y144947D01*
Y145603D01*
X8521Y146259D01*
X7209D01*
X6553Y145603D01*
X10489D02*
X11145Y146259D01*
X12457D01*
X13113Y145603D01*
Y142979D01*
X12457Y142323D01*
X11145D01*
X10489Y142979D01*
Y145603D01*
X14425Y142323D02*
X15737D01*
X15081D01*
Y146259D01*
X14425Y145603D01*
X17705Y142979D02*
X18360Y142323D01*
X19672D01*
X20328Y142979D01*
Y145603D01*
X19672Y146259D01*
X18360D01*
X17705Y145603D01*
Y144947D01*
X18360Y144291D01*
X20328D01*
D13*
X-8891Y152215D02*
X-11024D01*
Y149016D01*
X-8891D01*
X-11024Y150615D02*
X-9957D01*
X-7825Y149016D02*
X-6758D01*
X-7292D01*
Y152215D01*
X-7825D01*
X-3559Y149016D02*
X-4626D01*
X-5159Y149549D01*
Y150615D01*
X-4626Y151148D01*
X-3559D01*
X-3026Y150615D01*
Y150082D01*
X-5159D01*
X173Y151148D02*
X-1427D01*
X-1960Y150615D01*
Y149549D01*
X-1427Y149016D01*
X173D01*
X1772Y151681D02*
Y151148D01*
X1239D01*
X2305D01*
X1772D01*
Y149549D01*
X2305Y149016D01*
X3905Y151148D02*
Y149016D01*
Y150082D01*
X4438Y150615D01*
X4971Y151148D01*
X5504D01*
X7104Y149016D02*
X8170D01*
X7637D01*
Y151148D01*
X7104D01*
X11902D02*
X10303D01*
X9770Y150615D01*
Y149549D01*
X10303Y149016D01*
X11902D01*
X-20079Y156939D02*
X-19012D01*
X-19546D01*
Y153740D01*
X-20079D01*
X-19012D01*
X-17413D02*
X-16347D01*
X-16880D01*
Y156939D01*
X-17413D01*
X-14747Y153740D02*
X-13681D01*
X-14214D01*
Y156939D01*
X-14747D01*
X-12081Y153740D02*
X-11015D01*
X-11548D01*
Y155873D01*
X-12081D01*
X-9415Y153740D02*
Y155873D01*
X-7816D01*
X-7283Y155340D01*
Y153740D01*
X-6217D02*
X-5150D01*
X-5683D01*
Y155873D01*
X-6217D01*
X1781Y156939D02*
X-352D01*
Y155340D01*
X715D01*
X-352D01*
Y153740D01*
X3380D02*
X4447D01*
X4980Y154273D01*
Y155340D01*
X4447Y155873D01*
X3380D01*
X2847Y155340D01*
Y154273D01*
X3380Y153740D01*
X6046Y155873D02*
Y153740D01*
Y154806D01*
X6579Y155340D01*
X7113Y155873D01*
X7646D01*
X9245Y153740D02*
Y155873D01*
X9778D01*
X10311Y155340D01*
Y153740D01*
Y155340D01*
X10845Y155873D01*
X11378Y155340D01*
Y153740D01*
X12444Y155873D02*
Y154273D01*
X12977Y153740D01*
X14577D01*
Y155873D01*
X15643Y153740D02*
X16709D01*
X16176D01*
Y156939D01*
X15643D01*
X18842Y155873D02*
X19908D01*
X20441Y155340D01*
Y153740D01*
X18842D01*
X18309Y154273D01*
X18842Y154806D01*
X20441D01*
M02*
