G04*
G04 #@! TF.GenerationSoftware,Altium Limited,Altium Designer,19.0.14 (431)*
G04*
G04 Layer_Color=32896*
%FSLAX25Y25*%
%MOIN*%
G70*
G01*
G75*
%ADD25C,0.01968*%
D25*
X-523622Y151575D02*
X-366142D01*
Y-151575D02*
Y151575D01*
X-523622Y-151575D02*
X-366142D01*
X-523622D02*
Y151575D01*
X-362205D02*
X-204725D01*
Y-151575D02*
Y151575D01*
X-362205Y-151575D02*
X-204725D01*
X-362205D02*
Y151575D01*
X43307D02*
X200787D01*
Y-151575D02*
Y151575D01*
X43307Y-151575D02*
X200787D01*
X43307D02*
Y151575D01*
X527559D02*
X685039D01*
Y-151575D02*
Y151575D01*
X527559Y-151575D02*
X685039D01*
X527559D02*
Y151575D01*
X-200787D02*
X-43307D01*
Y-151575D02*
Y151575D01*
X-200787Y-151575D02*
X-43307D01*
X-200787D02*
Y151575D01*
X204724D02*
X362205D01*
Y-151575D02*
Y151575D01*
X204724Y-151575D02*
X362205D01*
X204724D02*
Y151575D01*
X366142D02*
X523622D01*
Y-151575D02*
Y151575D01*
X366142Y-151575D02*
X523622D01*
X366142D02*
Y151575D01*
X-685039D02*
X-527559D01*
Y-151575D02*
Y151575D01*
X-685039Y-151575D02*
X-527559D01*
X-685039D02*
Y151575D01*
M02*
