G04*
G04 #@! TF.GenerationSoftware,Altium Limited,Altium Designer,19.0.14 (431)*
G04*
G04 Layer_Color=16711935*
%FSLAX25Y25*%
%MOIN*%
G70*
G01*
G75*
%ADD14C,0.12611*%
%ADD15C,0.32296*%
%ADD16C,0.40170*%
%ADD17C,0.08674*%
G04:AMPARAMS|DCode=24|XSize=296.98mil|YSize=258mil|CornerRadius=29mil|HoleSize=0mil|Usage=FLASHONLY|Rotation=270.000|XOffset=0mil|YOffset=0mil|HoleType=Round|Shape=RoundedRectangle|*
%AMROUNDEDRECTD24*
21,1,0.29698,0.20000,0,0,270.0*
21,1,0.23898,0.25800,0,0,270.0*
1,1,0.05800,-0.10000,-0.11949*
1,1,0.05800,-0.10000,0.11949*
1,1,0.05800,0.10000,0.11949*
1,1,0.05800,0.10000,-0.11949*
%
%ADD24ROUNDEDRECTD24*%
D14*
X-0Y-98425D02*
D03*
D15*
X748032Y-137795D02*
D03*
Y133858D02*
D03*
X-748032Y-137795D02*
D03*
Y133858D02*
D03*
X763780Y35433D02*
D03*
Y-35433D02*
D03*
X-763779D02*
D03*
Y35433D02*
D03*
D16*
X707480Y88583D02*
D03*
X-707480D02*
D03*
D17*
X641732Y-66929D02*
D03*
X511811Y66929D02*
D03*
X417323Y-66929D02*
D03*
X326772Y66929D02*
D03*
X245847Y-66929D02*
D03*
X153543Y66929D02*
D03*
X94488Y-66929D02*
D03*
X-94488Y66929D02*
D03*
X-169291Y-51181D02*
D03*
X-245847Y66929D02*
D03*
X-326772Y-66929D02*
D03*
X-417323Y66929D02*
D03*
X-590551D02*
D03*
X-496063Y-66929D02*
D03*
X-673228D02*
D03*
D24*
X-482500Y154843D02*
D03*
X-407264D02*
D03*
X-482500Y-154842D02*
D03*
X-407264D02*
D03*
X-321083Y154843D02*
D03*
X-245847D02*
D03*
X-321083Y-154842D02*
D03*
X-245847D02*
D03*
X84429Y154843D02*
D03*
X159665D02*
D03*
X84429Y-154842D02*
D03*
X159665D02*
D03*
X568681Y154843D02*
D03*
X643917D02*
D03*
X568681Y-154842D02*
D03*
X643917D02*
D03*
X-159665Y154843D02*
D03*
X-84429D02*
D03*
X-159665Y-154842D02*
D03*
X-84429D02*
D03*
X245847Y154843D02*
D03*
X321083D02*
D03*
X245847Y-154842D02*
D03*
X321083D02*
D03*
X407264Y154843D02*
D03*
X482500D02*
D03*
X407264Y-154842D02*
D03*
X482500D02*
D03*
X-643917Y154843D02*
D03*
X-568681D02*
D03*
X-643917Y-154842D02*
D03*
X-568681D02*
D03*
M02*
