G04*
G04 #@! TF.GenerationSoftware,Altium Limited,Altium Designer,19.0.14 (431)*
G04*
G04 Layer_Color=8388736*
%FSLAX25Y25*%
%MOIN*%
G70*
G01*
G75*
%ADD14C,0.12611*%
%ADD15C,0.32296*%
%ADD16C,0.40170*%
%ADD17C,0.08674*%
D14*
X-707480Y-66929D02*
D03*
X-79134Y66929D02*
D03*
X79134Y-66929D02*
D03*
X258661D02*
D03*
X348425Y66929D02*
D03*
X438189Y-66929D02*
D03*
X527953Y66929D02*
D03*
X617717Y-66929D02*
D03*
X168898Y66929D02*
D03*
X-617717Y66929D02*
D03*
X-527953Y-66929D02*
D03*
X-438189Y66929D02*
D03*
X-348425Y-66929D02*
D03*
X-258662Y66929D02*
D03*
X-168898Y-66929D02*
D03*
X-0Y-98425D02*
D03*
D15*
X748032Y-137795D02*
D03*
Y133858D02*
D03*
X-748032Y-137795D02*
D03*
Y133858D02*
D03*
X763780Y35433D02*
D03*
Y-35433D02*
D03*
X-763779D02*
D03*
Y35433D02*
D03*
D16*
X707480Y88583D02*
D03*
X-707480D02*
D03*
D17*
X641732Y-66929D02*
D03*
X511811Y66929D02*
D03*
X417323Y-66929D02*
D03*
X326772Y66929D02*
D03*
X245847Y-66929D02*
D03*
X153543Y66929D02*
D03*
X94488Y-66929D02*
D03*
X-94488Y66929D02*
D03*
X-169291Y-51181D02*
D03*
X-245847Y66929D02*
D03*
X-326772Y-66929D02*
D03*
X-417323Y66929D02*
D03*
X-590551D02*
D03*
X-496063Y-66929D02*
D03*
X-673228D02*
D03*
M02*
