G04*
G04 #@! TF.GenerationSoftware,Altium Limited,Altium Designer,19.0.14 (431)*
G04*
G04 Layer_Color=16711935*
%FSLAX25Y25*%
%MOIN*%
G70*
G01*
G75*
%ADD13C,0.00600*%
%ADD26C,0.00787*%
D13*
X-787402Y0D02*
Y133858D01*
Y-137795D02*
Y0D01*
X-748032Y173228D02*
X748032Y173228D01*
X-748032Y-177165D02*
X748032Y-177165D01*
X787402Y-137795D02*
Y133858D01*
D26*
X-748032Y173228D02*
X-749029Y173216D01*
X-750026Y173178D01*
X-751021Y173115D01*
X-752014Y173026D01*
X-753006Y172913D01*
X-753993Y172774D01*
X-754977Y172611D01*
X-755957Y172422D01*
X-756931Y172209D01*
X-757900Y171971D01*
X-758862Y171709D01*
X-759818Y171423D01*
X-760765Y171112D01*
X-761705Y170778D01*
X-762636Y170419D01*
X-763557Y170038D01*
X-764469Y169633D01*
X-765370Y169205D01*
X-766260Y168754D01*
X-767138Y168281D01*
X-768004Y167786D01*
X-768857Y167270D01*
X-769697Y166731D01*
X-770522Y166172D01*
X-771334Y165592D01*
X-772130Y164991D01*
X-772911Y164371D01*
X-773676Y163731D01*
X-774425Y163071D01*
X-775156Y162393D01*
X-775870Y161697D01*
X-776567Y160983D01*
X-777245Y160251D01*
X-777904Y159503D01*
X-778544Y158738D01*
X-779164Y157957D01*
X-779765Y157160D01*
X-780345Y156349D01*
X-780904Y155523D01*
X-781443Y154684D01*
X-781959Y153831D01*
X-782455Y152965D01*
X-782928Y152086D01*
X-783378Y151197D01*
X-783806Y150296D01*
X-784211Y149384D01*
X-784593Y148462D01*
X-784951Y147532D01*
X-785285Y146592D01*
X-785596Y145644D01*
X-785883Y144689D01*
X-786145Y143726D01*
X-786382Y142758D01*
X-786596Y141783D01*
X-786784Y140804D01*
X-786948Y139820D01*
X-787086Y138832D01*
X-787200Y137841D01*
X-787288Y136848D01*
X-787351Y135852D01*
X-787389Y134856D01*
X-787402Y133858D01*
Y-137795D02*
X-787389Y-138793D01*
X-787351Y-139789D01*
X-787288Y-140785D01*
X-787200Y-141778D01*
X-787086Y-142769D01*
X-786948Y-143757D01*
X-786784Y-144741D01*
X-786596Y-145720D01*
X-786382Y-146695D01*
X-786145Y-147663D01*
X-785883Y-148626D01*
X-785596Y-149581D01*
X-785285Y-150529D01*
X-784951Y-151469D01*
X-784593Y-152400D01*
X-784211Y-153321D01*
X-783806Y-154233D01*
X-783378Y-155134D01*
X-782928Y-156024D01*
X-782455Y-156902D01*
X-781959Y-157768D01*
X-781443Y-158621D01*
X-780904Y-159460D01*
X-780345Y-160286D01*
X-779765Y-161098D01*
X-779164Y-161894D01*
X-778544Y-162675D01*
X-777904Y-163440D01*
X-777245Y-164188D01*
X-776567Y-164920D01*
X-775870Y-165634D01*
X-775156Y-166330D01*
X-774425Y-167008D01*
X-773676Y-167668D01*
X-772911Y-168308D01*
X-772130Y-168928D01*
X-771334Y-169529D01*
X-770522Y-170109D01*
X-769697Y-170668D01*
X-768857Y-171206D01*
X-768004Y-171723D01*
X-767138Y-172218D01*
X-766260Y-172691D01*
X-765370Y-173142D01*
X-764469Y-173570D01*
X-763557Y-173975D01*
X-762636Y-174356D01*
X-761705Y-174715D01*
X-760765Y-175049D01*
X-759817Y-175360D01*
X-758862Y-175646D01*
X-757900Y-175909D01*
X-756931Y-176146D01*
X-755957Y-176359D01*
X-754977Y-176548D01*
X-753993Y-176711D01*
X-753006Y-176850D01*
X-752014Y-176963D01*
X-751021Y-177052D01*
X-750026Y-177115D01*
X-749029Y-177153D01*
X-748032Y-177165D01*
X787402Y133858D02*
X787389Y134856D01*
X787351Y135852D01*
X787288Y136848D01*
X787200Y137841D01*
X787086Y138832D01*
X786948Y139820D01*
X786784Y140804D01*
X786596Y141783D01*
X786382Y142758D01*
X786145Y143727D01*
X785883Y144689D01*
X785596Y145644D01*
X785285Y146592D01*
X784951Y147532D01*
X784593Y148463D01*
X784211Y149384D01*
X783806Y150296D01*
X783378Y151197D01*
X782928Y152086D01*
X782455Y152965D01*
X781959Y153831D01*
X781443Y154684D01*
X780904Y155523D01*
X780345Y156349D01*
X779765Y157160D01*
X779164Y157957D01*
X778544Y158738D01*
X777904Y159503D01*
X777245Y160251D01*
X776567Y160983D01*
X775870Y161697D01*
X775156Y162393D01*
X774425Y163071D01*
X773676Y163731D01*
X772911Y164371D01*
X772130Y164991D01*
X771334Y165592D01*
X770522Y166172D01*
X769697Y166731D01*
X768857Y167270D01*
X768004Y167786D01*
X767138Y168281D01*
X766260Y168754D01*
X765370Y169205D01*
X764469Y169633D01*
X763557Y170038D01*
X762636Y170419D01*
X761705Y170778D01*
X760765Y171112D01*
X759817Y171423D01*
X758862Y171709D01*
X757900Y171972D01*
X756931Y172209D01*
X755957Y172423D01*
X754977Y172611D01*
X753993Y172774D01*
X753005Y172913D01*
X752014Y173026D01*
X751021Y173115D01*
X750026Y173178D01*
X749029Y173216D01*
X748032Y173228D01*
Y-177165D02*
X749029Y-177153D01*
X750026Y-177115D01*
X751021Y-177052D01*
X752014Y-176963D01*
X753005Y-176850D01*
X753993Y-176711D01*
X754977Y-176548D01*
X755957Y-176359D01*
X756931Y-176146D01*
X757900Y-175909D01*
X758862Y-175646D01*
X759817Y-175360D01*
X760765Y-175049D01*
X761705Y-174715D01*
X762636Y-174356D01*
X763557Y-173975D01*
X764469Y-173570D01*
X765370Y-173142D01*
X766260Y-172691D01*
X767138Y-172219D01*
X768004Y-171723D01*
X768857Y-171207D01*
X769696Y-170668D01*
X770522Y-170109D01*
X771334Y-169529D01*
X772130Y-168928D01*
X772911Y-168308D01*
X773676Y-167668D01*
X774424Y-167009D01*
X775156Y-166331D01*
X775870Y-165634D01*
X776566Y-164920D01*
X777244Y-164189D01*
X777904Y-163440D01*
X778544Y-162675D01*
X779164Y-161894D01*
X779765Y-161098D01*
X780345Y-160286D01*
X780904Y-159461D01*
X781442Y-158621D01*
X781959Y-157768D01*
X782454Y-156902D01*
X782927Y-156024D01*
X783378Y-155134D01*
X783806Y-154233D01*
X784211Y-153322D01*
X784592Y-152400D01*
X784951Y-151469D01*
X785285Y-150530D01*
X785596Y-149582D01*
X785882Y-148626D01*
X786145Y-147664D01*
X786382Y-146695D01*
X786596Y-145721D01*
X786784Y-144741D01*
X786947Y-143757D01*
X787086Y-142770D01*
X787199Y-141779D01*
X787288Y-140785D01*
X787351Y-139790D01*
X787389Y-138793D01*
X787402Y-137796D01*
M02*
