G04*
G04 #@! TF.GenerationSoftware,Altium Limited,Altium Designer,19.0.15 (446)*
G04*
G04 Layer_Physical_Order=3*
G04 Layer_Color=16440176*
%FSLAX25Y25*%
%MOIN*%
G70*
G01*
G75*
%ADD45C,0.00400*%
%ADD47C,0.01000*%
%ADD48C,0.50000*%
%ADD49C,0.05906*%
%ADD52C,0.01772*%
%ADD53C,0.03937*%
%ADD54C,0.29528*%
%ADD55C,0.27559*%
D45*
X-51962Y-28339D02*
X-51915Y-28386D01*
X-51962Y-28339D02*
Y-28339D01*
X-53411Y-29789D02*
X-51962Y-28339D01*
X-51915Y-28386D02*
X-50685D01*
X-49814Y-27515D01*
Y-26285D01*
X-49861Y-26238D02*
X-49814Y-26285D01*
X-49861Y-26238D02*
Y-26238D01*
X-47440Y-23818D01*
X-73045Y-32100D02*
X-55000D01*
X-73622Y-32677D02*
X-73045Y-32100D01*
X-16621Y11700D02*
X-3800D01*
X-32480Y27559D02*
X-16621Y11700D01*
X-11024Y-34646D02*
X-6500Y-30122D01*
Y1642D01*
X-14800Y700D02*
X-3800Y11700D01*
X-14800Y-4100D02*
Y700D01*
X4700Y11600D02*
X28100D01*
X31500Y8200D01*
X11024Y-12992D02*
X24882Y866D01*
Y6100D01*
X45395Y-38570D02*
X62709D01*
X68405Y-32874D01*
X60286Y-33367D02*
Y18258D01*
X55884Y-37770D02*
X60286Y-33367D01*
X45726Y-37770D02*
X55884D01*
X53100Y-35599D02*
Y-32401D01*
X48339Y-27641D02*
X53100Y-32401D01*
X47539Y-29539D02*
X51600Y-33600D01*
X47539Y-29539D02*
Y50394D01*
X48339Y-27641D02*
Y50062D01*
X52499Y-36200D02*
X53100Y-35599D01*
X49139Y-26339D02*
X52500Y-29700D01*
X49939Y-19839D02*
Y49400D01*
Y-19839D02*
X52500Y-22400D01*
X50739Y-15939D02*
X52200Y-17400D01*
X53423Y-15200D02*
X53700D01*
X51539Y-13316D02*
X53423Y-15200D01*
X52339Y-11139D02*
X53700Y-12500D01*
X51539Y-13316D02*
Y48737D01*
X50739Y-15939D02*
Y49068D01*
X49139Y-26339D02*
Y49731D01*
X49939Y49400D02*
X59048Y58508D01*
X49139Y49731D02*
X58716Y59308D01*
X51539Y48737D02*
X59710Y56908D01*
X48339Y50062D02*
X58385Y60108D01*
X47539Y50394D02*
X58053Y60908D01*
X50739Y49068D02*
X59379Y57708D01*
X65200Y-53639D02*
X65905Y-54343D01*
X65200Y-53639D02*
Y-52100D01*
X40800Y-45900D02*
X54899D01*
X55585Y-46586D01*
X56815D01*
X56916Y-46486D01*
X56916D01*
X65573Y-55143D01*
X56699Y-47400D02*
X65242Y-55943D01*
X50900Y-47400D02*
X56699D01*
X57181Y-49014D02*
X64911Y-56743D01*
X50885Y-49014D02*
X57181D01*
X49299Y-50600D02*
X50885Y-49014D01*
X41900Y-50600D02*
X49299D01*
X57536Y-50500D02*
X64579Y-57543D01*
X51500Y-50500D02*
X57536D01*
X57819Y-51914D02*
X64248Y-58343D01*
X53185Y-51914D02*
X57819D01*
X58173Y-53400D02*
X63916Y-59143D01*
X53800Y-53400D02*
X58173D01*
X59342Y-55700D02*
X63585Y-59943D01*
X51800Y-55700D02*
X59342D01*
X63585Y-59943D02*
X645372D01*
X647231Y-56952D02*
Y-18110D01*
X648032Y-57284D02*
Y-8268D01*
X526433Y-58343D02*
X533465Y-51311D01*
X64248Y-58343D02*
X526433D01*
X645372Y-59943D02*
X648032Y-57284D01*
X63916Y-59143D02*
X645040D01*
X647231Y-56952D01*
X52499Y-52600D02*
X53185Y-51914D01*
X58500Y-57300D02*
X61943Y-60743D01*
X36900Y-52600D02*
X52499D01*
X34646Y-66745D02*
Y-40157D01*
Y-66745D02*
X39062Y-71161D01*
X55400Y-57300D02*
X59643Y-61543D01*
X39062Y-71161D02*
X52641D01*
X61460Y-62343D01*
X-148952Y-15354D02*
X-71746D01*
X-55000Y-32100D01*
X-51575Y-25980D02*
Y-16535D01*
Y-25980D02*
X-51562Y-25992D01*
Y-26638D02*
Y-25992D01*
Y-26638D02*
X-51300Y-26900D01*
X-55000Y-35500D02*
X-46640Y-27140D01*
Y54319D01*
X-55000Y-38900D02*
X-45840Y-29740D01*
X-45040Y-32140D02*
Y54982D01*
X-55000Y-42100D02*
X-45040Y-32140D01*
X-51600Y-43100D02*
X-47200D01*
X-44240Y-40140D01*
X-43440Y-43340D02*
Y55645D01*
X-54369Y-45700D02*
X-45800D01*
X-54400Y-45669D02*
X-54369Y-45700D01*
X-45800D02*
X-43440Y-43340D01*
X-52000Y-47700D02*
X-43700D01*
X-52100Y-47600D02*
X-52000Y-47700D01*
X-43700D02*
X-42640Y-46640D01*
X-42028Y-52854D02*
X-41840Y-52667D01*
X-393617Y-54808D02*
X-67208D01*
X-477411Y-55608D02*
X-66877D01*
X-477743Y-56408D02*
X-66545D01*
X-62751Y-52614D02*
X-51714D01*
X-478074Y-57208D02*
X-66214D01*
X-67208Y-54808D02*
X-62400Y-50000D01*
X-63106Y-54100D02*
X-57600D01*
X-66214Y-57208D02*
X-63106Y-54100D01*
X-66545Y-56408D02*
X-62751Y-52614D01*
X-63083Y-51814D02*
X-56914D01*
X-66877Y-55608D02*
X-63083Y-51814D01*
X-483452Y-50699D02*
X-477743Y-56408D01*
X-484252Y-51030D02*
X-478074Y-57208D01*
X-482652Y-50367D02*
X-477411Y-55608D01*
X-59801Y-55800D02*
X-49700D01*
X-56914Y-51814D02*
X-55200Y-50100D01*
X-51714Y-52614D02*
X-51700Y-52600D01*
X-62809Y-58808D02*
X-59801Y-55800D01*
X-49700D02*
X-40354Y-65146D01*
X-64833Y-58008D02*
X-63625Y-56800D01*
X-571876Y-58808D02*
X-62809D01*
X-40354Y-68898D02*
Y-65146D01*
X-61508Y-59608D02*
X-59200Y-57300D01*
X-659364Y-59608D02*
X-61508D01*
X-659695Y-60408D02*
X-47292D01*
X-42400Y-65300D01*
X-51492Y-61208D02*
X-42700Y-70000D01*
X-47850Y-71850D02*
X-19685D01*
X-57692Y-62008D02*
X-47850Y-71850D01*
X-660358Y-62008D02*
X-57692D01*
X32285Y-24328D02*
X45726Y-37770D01*
X31953Y-25128D02*
X45395Y-38570D01*
X26789Y-24328D02*
X32285D01*
X17550Y-25128D02*
X31953D01*
X14272Y-21850D02*
X17550Y-25128D01*
X24803Y-22343D02*
X26789Y-24328D01*
X65905Y-54343D02*
X351168D01*
X65573Y-55143D02*
X462131D01*
X468504Y-49902D02*
Y-8169D01*
X469304Y-50233D02*
Y-17310D01*
X470104Y-50564D02*
Y-17642D01*
X65242Y-55943D02*
X462462D01*
X64911Y-56743D02*
X462794D01*
X469304Y-17310D02*
X494882Y8268D01*
X64579Y-57543D02*
X463125D01*
X470104Y-17642D02*
X493179Y5433D01*
X462462Y-55943D02*
X468504Y-49902D01*
X462794Y-56743D02*
X469304Y-50233D01*
X463125Y-57543D02*
X470104Y-50564D01*
X645703Y-60743D02*
X648832Y-57615D01*
X61943Y-60743D02*
X645703D01*
X646034Y-61543D02*
X649632Y-57946D01*
X59643Y-61543D02*
X646034D01*
X648832Y-57615D02*
Y-17148D01*
X649632Y-57946D02*
Y-17479D01*
X648832Y-17148D02*
X673558Y7579D01*
X649632Y-17479D02*
X673889Y6779D01*
X643196Y-14075D02*
X647231Y-18110D01*
X712992Y-62343D02*
Y-32677D01*
X61460Y-62343D02*
X712992D01*
X533465Y-51311D02*
Y-32677D01*
X-47750Y62217D02*
X-41840Y56308D01*
X-285665Y62217D02*
X-47750D01*
X-48081Y61417D02*
X-42640Y55976D01*
X-285334Y61417D02*
X-48081D01*
X-48413Y60617D02*
X-43440Y55645D01*
X-285002Y60617D02*
X-48413D01*
X-48744Y59817D02*
X-44240Y55313D01*
X-284671Y59817D02*
X-48744D01*
X-49075Y59017D02*
X-45040Y54982D01*
X-284339Y59017D02*
X-49075D01*
X-49407Y58217D02*
X-45840Y54651D01*
X-122848Y58217D02*
X-49407D01*
X-49738Y57417D02*
X-46640Y54319D01*
X-122517Y57417D02*
X-49738D01*
X-50069Y56617D02*
X-47440Y53988D01*
X-122185Y56617D02*
X-50069D01*
X-303950Y41670D02*
X-285002Y60617D01*
X-305550Y42333D02*
X-285665Y62217D01*
X-124016Y54787D02*
X-122185Y56617D01*
X-302350Y41007D02*
X-284339Y59017D01*
X-303150Y41339D02*
X-284671Y59817D01*
X-125616Y55449D02*
X-122848Y58217D01*
X-124816Y55118D02*
X-122517Y57417D01*
X-304750Y42001D02*
X-285334Y61417D01*
X11024Y-45669D02*
Y-12992D01*
Y-45669D02*
X14961Y-49606D01*
X-47440Y-23818D02*
Y53988D01*
X-45840Y-29740D02*
Y54651D01*
X-44240Y-40140D02*
Y55313D01*
X-42640Y-46640D02*
Y55976D01*
X-41840Y-52667D02*
Y56308D01*
X154724Y-12992D02*
X174409Y-32677D01*
X60286Y18258D02*
X72688Y30660D01*
X73622Y32677D02*
X76378D01*
X102362Y-3543D02*
X111811Y-12992D01*
X154724D01*
X76378Y32677D02*
X102362Y6693D01*
Y-3543D02*
Y6693D01*
X462131Y-55143D02*
X467704Y-49570D01*
X351168Y-54343D02*
X353026Y-52486D01*
X353937Y-51293D02*
Y-32677D01*
X353026Y-52204D02*
X353937Y-51293D01*
X353026Y-52486D02*
Y-52204D01*
X438717Y13386D02*
X505662D01*
X505896Y13620D01*
Y14493D01*
X710628Y-32677D02*
X712992D01*
X709447Y-31497D02*
X710628Y-32677D01*
X709447Y-31497D02*
Y-16928D01*
X706693Y-14173D02*
X709447Y-16928D01*
X673889Y6779D02*
X679712D01*
X687008Y14075D01*
X676575Y7579D02*
X677264Y8268D01*
X673558Y7579D02*
X676575D01*
X638189Y-14075D02*
X643196D01*
X612687Y15265D02*
X616365D01*
X612205Y15748D02*
X612687Y15265D01*
X612205Y15748D02*
Y32677D01*
X616365Y15265D02*
X618244Y13386D01*
X668504D01*
X434834Y15265D02*
X436837D01*
X432677Y17423D02*
X434834Y15265D01*
X436837D02*
X438717Y13386D01*
X432677Y17423D02*
Y32677D01*
X507997Y15364D02*
X511217Y12144D01*
X506766Y15364D02*
X507997D01*
X505896Y14493D02*
X506766Y15364D01*
X511217Y-12220D02*
Y12144D01*
X528434Y-14395D02*
Y-13280D01*
X527953Y-12798D02*
X528434Y-13280D01*
X511796Y-12798D02*
X527953D01*
X533465Y-32677D02*
Y-16535D01*
X532195Y-15265D02*
X533465Y-16535D01*
X529304Y-15265D02*
X532195D01*
X528434Y-14395D02*
X529304Y-15265D01*
X511217Y-12220D02*
X511796Y-12798D01*
X498937Y5433D02*
X507382Y13878D01*
X493179Y5433D02*
X498937D01*
X494882Y8268D02*
X497638D01*
X467704Y-49570D02*
Y-19279D01*
X462500Y-14075D02*
X467704Y-19279D01*
X458661Y-14075D02*
X462500D01*
X291381Y12414D02*
X315194D01*
X290576Y13219D02*
X291381Y12414D01*
X290576Y13219D02*
Y56371D01*
X325999Y12220D02*
X327953Y14173D01*
X315388Y12220D02*
X325999D01*
X315194Y12414D02*
X315388Y12220D01*
X286040Y60908D02*
X290576Y56371D01*
X58053Y60908D02*
X286040D01*
X314862Y11614D02*
X318110Y8366D01*
X291050Y11614D02*
X314862D01*
X289776Y12888D02*
X291050Y11614D01*
X289776Y12888D02*
Y56040D01*
X285708Y60108D02*
X289776Y56040D01*
X58385Y60108D02*
X285708D01*
X275397Y-12341D02*
X278715Y-15659D01*
X275397Y-12341D02*
Y12220D01*
X254417Y15265D02*
X257310D01*
X253150Y16533D02*
X254417Y15265D01*
X253150Y16533D02*
Y32677D01*
X258180Y13472D02*
X258854Y12798D01*
X258180Y13472D02*
Y14395D01*
X257310Y15265D02*
X258180Y14395D01*
X274818Y12798D02*
X275397Y12220D01*
X258854Y12798D02*
X274818D01*
X288176Y-5328D02*
Y55377D01*
X285046Y58508D02*
X288176Y55377D01*
X59048Y58508D02*
X285046D01*
X279331Y-14173D02*
X288176Y-5328D01*
X139383Y16917D02*
Y51906D01*
X133581Y57708D02*
X139383Y51906D01*
X59379Y57708D02*
X133581D01*
X142224Y14075D02*
X148425D01*
X139383Y16917D02*
X142224Y14075D01*
X113853Y-6782D02*
X116294D01*
X112367Y-8268D02*
X113853Y-6782D01*
X109449Y-8268D02*
X112367D01*
X116294Y-6782D02*
X137783Y14707D01*
Y51243D01*
X132918Y56108D02*
X137783Y51243D01*
X60042Y56108D02*
X132918D01*
X-173927Y15265D02*
X-170249D01*
X-174409Y15748D02*
X-173927Y15265D01*
X-174409Y15748D02*
Y32677D01*
X-169379Y13866D02*
X-168311Y12798D01*
X-169379Y13866D02*
Y14395D01*
X-168311Y12798D02*
X-152741D01*
X-170249Y15265D02*
X-169379Y14395D01*
X-152162Y-3351D02*
X-150689Y-4824D01*
X-152162Y-3351D02*
Y12220D01*
X-152741Y12798D02*
X-152162Y12220D01*
X-150689Y-13617D02*
Y-4824D01*
X-125616Y9030D02*
Y55449D01*
X-148425Y-13780D02*
X-125616Y9030D01*
X-138583Y-8268D02*
X-124816Y5499D01*
Y55118D01*
X-124016Y18110D02*
Y54787D01*
Y18110D02*
X-119980Y14075D01*
X-101581Y8268D02*
X-97050Y12798D01*
X-109448Y8268D02*
X-101581D01*
X-454924Y-12220D02*
X-451879Y-15265D01*
X-97050Y12798D02*
X-62977D01*
X-62398Y12220D01*
Y-5712D02*
Y12220D01*
Y-5712D02*
X-51575Y-16535D01*
X-451879Y-15265D02*
X-434736D01*
X-119980Y14075D02*
X-99606D01*
X-331690Y11811D02*
Y12220D01*
Y-11750D02*
Y11811D01*
X-347310Y12798D02*
X-332268D01*
X-331690Y12220D01*
Y11811D02*
X-314124D01*
X-305550Y20385D01*
Y42333D01*
X-304750Y20053D02*
Y42001D01*
X-327559Y-2756D02*
X-304750Y20053D01*
X-327559Y-13780D02*
Y-2756D01*
X-303950Y19747D02*
Y41670D01*
Y19747D02*
X-303937Y19735D01*
Y19735D02*
Y19735D01*
X-318110Y5562D02*
X-303937Y19735D01*
X-318110Y-8268D02*
Y5562D01*
X-296113Y14173D02*
X-279134D01*
X-302350Y20410D02*
X-296113Y14173D01*
X-302350Y20410D02*
Y41007D01*
X-291339Y8268D02*
X-288976D01*
X-303150Y20079D02*
X-291339Y8268D01*
X-303150Y20079D02*
Y41339D01*
X-351881Y15265D02*
X-349777D01*
X-353937Y17322D02*
X-351881Y15265D01*
X-353937Y17322D02*
Y32677D01*
X-349777Y15265D02*
X-347310Y12798D01*
X-395669Y-52756D02*
Y-35433D01*
X-398425Y-32677D02*
X-395669Y-35433D01*
X-432677Y-32677D02*
X-398425D01*
X-395669Y-52756D02*
X-393617Y-54808D01*
X-454924Y-12220D02*
Y12439D01*
X-458046Y15561D02*
X-454924Y12439D01*
X-434736Y-15265D02*
X-432677Y-17324D01*
Y-32677D02*
Y-17324D01*
X-482652Y-50367D02*
Y-9916D01*
X-458661Y14075D01*
X-483452Y-6680D02*
X-468504Y8268D01*
X-483452Y-50699D02*
Y-6680D01*
X-478405Y-58008D02*
X-64833D01*
X-485052Y-51361D02*
X-478405Y-58008D01*
X-485052Y-51361D02*
Y-21985D01*
X-492864Y-14173D02*
X-485052Y-21985D01*
X-507480Y-14173D02*
X-492864D01*
X-497638Y-8268D02*
X-484252Y-21654D01*
Y-51030D02*
Y-21654D01*
X-574803Y-55880D02*
Y-34646D01*
X-576772Y-32677D02*
X-574803Y-34646D01*
X-612205Y-32677D02*
X-576772D01*
X-574803Y-55880D02*
X-571876Y-58808D01*
X-636703Y13869D02*
X-634452Y11617D01*
X-618994Y-12798D02*
X-612205Y-19588D01*
X-633874Y-12798D02*
X-618994D01*
X-634452Y-12220D02*
X-633874Y-12798D01*
X-634452Y-12220D02*
Y11617D01*
X-612205Y-32677D02*
Y-19588D01*
X-661786Y-57186D02*
X-659364Y-59608D01*
X-661786Y-57186D02*
Y-9817D01*
X-638189Y13780D01*
X-662586Y-6286D02*
X-648032Y8268D01*
X-662586Y-57517D02*
Y-6286D01*
Y-57517D02*
X-659695Y-60408D01*
X-687008Y-14173D02*
X-672392D01*
X-664186Y-22379D01*
Y-58180D02*
X-660358Y-62008D01*
X-664186Y-58180D02*
Y-22379D01*
X-660027Y-61208D02*
X-51492D01*
X-663386Y-57849D02*
X-660027Y-61208D01*
X-677165Y-8268D02*
X-663386Y-22048D01*
Y-57849D02*
Y-22048D01*
X336919Y-15659D02*
X353937Y-32677D01*
X278715Y-15659D02*
X336919D01*
X52339Y-11139D02*
Y48406D01*
X60042Y56108D01*
X138583Y7972D02*
Y51575D01*
X133250Y56908D02*
X138583Y51575D01*
X59710Y56908D02*
X133250D01*
X58716Y59308D02*
X285377D01*
X288976Y55709D01*
Y-8268D02*
Y55709D01*
X-150689Y-13617D02*
X-148952Y-15354D01*
X-270561Y-15265D02*
X-253150Y-32677D01*
X-328174Y-15265D02*
X-270561D01*
X-331690Y-11750D02*
X-328174Y-15265D01*
X-516348Y15561D02*
X-458046D01*
X-533465Y32677D02*
X-516348Y15561D01*
X-636703Y13869D02*
Y14395D01*
X-637761Y15453D02*
X-636703Y14395D01*
X-695768Y15453D02*
X-637761D01*
X-712992Y32677D02*
X-695768Y15453D01*
D47*
X30315Y46457D02*
X45866Y62008D01*
X286495D01*
X293779Y54724D01*
X680043D01*
D48*
X79134Y-88583D02*
X168898D01*
X706886D02*
X706886Y-88583D01*
X617123Y-88583D02*
X706886D01*
X617717Y88583D02*
X617717Y88583D01*
X527953Y88583D02*
X617717D01*
X527953Y-88583D02*
X527953Y-88583D01*
X438189Y-88583D02*
X527953D01*
X438189Y88583D02*
X438189Y88583D01*
X348425Y88583D02*
X438189D01*
X348425Y-88583D02*
X348425Y-88583D01*
X258661Y-88583D02*
X348425D01*
X258661Y88583D02*
X258661Y88583D01*
X168898Y88583D02*
X258661D01*
X168898Y-88583D02*
X168898Y-88583D01*
X-79134Y-88583D02*
X-79134Y-88583D01*
X-168898Y-88583D02*
X-79134D01*
X-168898Y88583D02*
X-168898Y88583D01*
X-258661Y88583D02*
X-168898D01*
X-258661Y-88583D02*
X-258661Y-88583D01*
X-348425Y-88583D02*
X-258661D01*
X-348425Y88583D02*
X-348425Y88583D01*
X-438189Y88583D02*
X-348425D01*
X-438189Y-88583D02*
X-438189Y-88583D01*
X-527953Y-88583D02*
X-438189D01*
X-527953Y88583D02*
X-527953Y88583D01*
X-617717Y88583D02*
X-527953D01*
X-707480Y-88583D02*
X-617717D01*
X-617717Y-88583D01*
D49*
X712992Y-32677D02*
D03*
X612205Y32677D02*
D03*
X533465Y-32677D02*
D03*
X432677Y32677D02*
D03*
X353937Y-32677D02*
D03*
X253150Y32677D02*
D03*
X174409Y-32677D02*
D03*
X73622Y32677D02*
D03*
X-73622Y-32677D02*
D03*
X-174409Y32677D02*
D03*
X-253150Y-32677D02*
D03*
X-353937Y32677D02*
D03*
X-432677Y-32677D02*
D03*
X-533465Y32677D02*
D03*
X-612205Y-32677D02*
D03*
X-712992Y32677D02*
D03*
D52*
X-53411Y-29789D02*
D03*
X-32480Y27559D02*
D03*
X-6500Y1642D02*
D03*
X-3800Y11700D02*
D03*
X-14800Y-4100D02*
D03*
X4700Y11600D02*
D03*
X31500Y8200D02*
D03*
X24882Y6100D02*
D03*
X51600Y-33600D02*
D03*
X52499Y-36200D02*
D03*
X52500Y-29700D02*
D03*
Y-22400D02*
D03*
X52200Y-17400D02*
D03*
X53700Y-15200D02*
D03*
Y-12500D02*
D03*
X65200Y-52100D02*
D03*
X40800Y-45900D02*
D03*
X50900Y-47400D02*
D03*
X41900Y-50600D02*
D03*
X51500Y-50500D02*
D03*
X36900Y-52600D02*
D03*
X53800Y-53400D02*
D03*
X51800Y-55700D02*
D03*
X58500Y-57300D02*
D03*
X55400D02*
D03*
X-55000Y-32100D02*
D03*
X-51300Y-26900D02*
D03*
X-55000Y-35500D02*
D03*
Y-38900D02*
D03*
Y-42100D02*
D03*
X-51600Y-43100D02*
D03*
X-54400Y-45669D02*
D03*
X-52100Y-47600D02*
D03*
X-42028Y-52854D02*
D03*
X-62400Y-50000D02*
D03*
X-55200Y-50100D02*
D03*
X-51700Y-52600D02*
D03*
X-57600Y-54100D02*
D03*
X-63625Y-56800D02*
D03*
X-40354Y-68898D02*
D03*
X-59200Y-57300D02*
D03*
X-42400Y-65300D02*
D03*
X-42700Y-70000D02*
D03*
X30315Y46457D02*
D03*
X680043Y54724D02*
D03*
X14272Y-21850D02*
D03*
X-11024Y-34646D02*
D03*
X24803Y-22343D02*
D03*
X706693Y-14173D02*
D03*
X677264Y8268D02*
D03*
X34646Y-40157D02*
D03*
X668504Y13386D02*
D03*
X68405Y-32874D02*
D03*
X109449Y-8268D02*
D03*
X138583Y7972D02*
D03*
X148425Y14075D02*
D03*
X279331Y-14173D02*
D03*
X288976Y-8268D02*
D03*
X318110Y8366D02*
D03*
X327953Y14173D02*
D03*
X458661Y-14075D02*
D03*
X468504Y-8169D02*
D03*
X497638Y8268D02*
D03*
X507382Y13878D02*
D03*
X638189Y-14075D02*
D03*
X648032Y-8268D02*
D03*
X687008Y14075D02*
D03*
X-19685Y-71850D02*
D03*
X-109448Y8268D02*
D03*
X-99606Y14075D02*
D03*
X-138583Y-8268D02*
D03*
X-148425Y-13780D02*
D03*
X-288976Y8268D02*
D03*
X-279134Y14173D02*
D03*
X-318110Y-8268D02*
D03*
X-327559Y-13780D02*
D03*
X-458661Y14075D02*
D03*
X-468504Y8268D02*
D03*
X-507480Y-14173D02*
D03*
X-497638Y-8268D02*
D03*
X-648032Y8268D02*
D03*
X-638189Y13780D02*
D03*
X-677165Y-8268D02*
D03*
X-687008Y-14173D02*
D03*
X14961Y-49606D02*
D03*
D53*
X702094Y-103381D02*
D03*
X697358Y-100646D02*
D03*
X693842Y-96457D02*
D03*
X691971Y-91317D02*
D03*
X691971Y-85848D02*
D03*
X693842Y-80709D02*
D03*
X697358Y-76519D02*
D03*
X702094Y-73784D02*
D03*
X707480Y-72835D02*
D03*
X712866Y-73784D02*
D03*
X717603Y-76519D02*
D03*
X721118Y-80709D02*
D03*
X722989Y-85848D02*
D03*
X722989Y-91317D02*
D03*
X721118Y-96457D02*
D03*
X717603Y-100646D02*
D03*
X712866Y-103381D02*
D03*
X707480Y-104331D02*
D03*
X623103Y103381D02*
D03*
X627839Y100646D02*
D03*
X631355Y96457D02*
D03*
X633225Y91317D02*
D03*
X633225Y85848D02*
D03*
X631355Y80709D02*
D03*
X627839Y76519D02*
D03*
X623103Y73784D02*
D03*
X617717Y72835D02*
D03*
X612330Y73784D02*
D03*
X607594Y76519D02*
D03*
X604078Y80709D02*
D03*
X602208Y85848D02*
D03*
X602208Y91317D02*
D03*
X604078Y96457D02*
D03*
X607594Y100646D02*
D03*
X612330Y103381D02*
D03*
X617717Y104331D02*
D03*
X612330Y-103381D02*
D03*
X607594Y-100646D02*
D03*
X604078Y-96457D02*
D03*
X602208Y-91317D02*
D03*
X602208Y-85848D02*
D03*
X604078Y-80709D02*
D03*
X607594Y-76519D02*
D03*
X612330Y-73784D02*
D03*
X617717Y-72835D02*
D03*
X623103Y-73784D02*
D03*
X627839Y-76519D02*
D03*
X631355Y-80709D02*
D03*
X633225Y-85848D02*
D03*
Y-91317D02*
D03*
X631355Y-96457D02*
D03*
X627839Y-100646D02*
D03*
X623103Y-103381D02*
D03*
X617717Y-104331D02*
D03*
X522567Y-103381D02*
D03*
X517830Y-100646D02*
D03*
X514315Y-96457D02*
D03*
X512444Y-91317D02*
D03*
X512444Y-85848D02*
D03*
X514315Y-80709D02*
D03*
X517830Y-76519D02*
D03*
X522567Y-73784D02*
D03*
X527953Y-72835D02*
D03*
X533339Y-73784D02*
D03*
X538075Y-76519D02*
D03*
X541591Y-80709D02*
D03*
X543462Y-85848D02*
D03*
X543462Y-91317D02*
D03*
X541591Y-96457D02*
D03*
X538075Y-100646D02*
D03*
X533339Y-103381D02*
D03*
X527953Y-104331D02*
D03*
X533339Y103381D02*
D03*
X538075Y100646D02*
D03*
X541591Y96457D02*
D03*
X543462Y91317D02*
D03*
X543462Y85848D02*
D03*
X541591Y80709D02*
D03*
X538075Y76519D02*
D03*
X533339Y73784D02*
D03*
X527953Y72835D02*
D03*
X522567Y73784D02*
D03*
X517830Y76519D02*
D03*
X514315Y80709D02*
D03*
X512444Y85848D02*
D03*
Y91317D02*
D03*
X514315Y96457D02*
D03*
X517830Y100646D02*
D03*
X522567Y103381D02*
D03*
X527953Y104331D02*
D03*
X443575Y103381D02*
D03*
X448312Y100646D02*
D03*
X451827Y96457D02*
D03*
X453698Y91317D02*
D03*
X453698Y85848D02*
D03*
X451827Y80709D02*
D03*
X448312Y76519D02*
D03*
X443575Y73784D02*
D03*
X438189Y72835D02*
D03*
X432803Y73784D02*
D03*
X428066Y76519D02*
D03*
X424551Y80709D02*
D03*
X422680Y85848D02*
D03*
X422680Y91317D02*
D03*
X424551Y96457D02*
D03*
X428066Y100646D02*
D03*
X432803Y103381D02*
D03*
X438189Y104331D02*
D03*
X432803Y-103381D02*
D03*
X428066Y-100646D02*
D03*
X424551Y-96457D02*
D03*
X422680Y-91317D02*
D03*
X422680Y-85848D02*
D03*
X424551Y-80709D02*
D03*
X428066Y-76519D02*
D03*
X432803Y-73784D02*
D03*
X438189Y-72835D02*
D03*
X443575Y-73784D02*
D03*
X448312Y-76519D02*
D03*
X451827Y-80709D02*
D03*
X453698Y-85848D02*
D03*
Y-91317D02*
D03*
X451827Y-96457D02*
D03*
X448312Y-100646D02*
D03*
X443575Y-103381D02*
D03*
X438189Y-104331D02*
D03*
X343039Y-103381D02*
D03*
X338303Y-100646D02*
D03*
X334787Y-96457D02*
D03*
X332916Y-91317D02*
D03*
X332916Y-85848D02*
D03*
X334787Y-80709D02*
D03*
X338302Y-76519D02*
D03*
X343039Y-73784D02*
D03*
X348425Y-72835D02*
D03*
X353811Y-73784D02*
D03*
X358548Y-76519D02*
D03*
X362063Y-80709D02*
D03*
X363934Y-85848D02*
D03*
X363934Y-91317D02*
D03*
X362063Y-96457D02*
D03*
X358548Y-100646D02*
D03*
X353811Y-103381D02*
D03*
X348425Y-104331D02*
D03*
X353811Y103381D02*
D03*
X358548Y100646D02*
D03*
X362063Y96457D02*
D03*
X363934Y91317D02*
D03*
X363934Y85848D02*
D03*
X362063Y80709D02*
D03*
X358548Y76519D02*
D03*
X353811Y73784D02*
D03*
X348425Y72835D02*
D03*
X343039Y73784D02*
D03*
X338303Y76519D02*
D03*
X334787Y80709D02*
D03*
X332916Y85848D02*
D03*
Y91317D02*
D03*
X334787Y96457D02*
D03*
X338303Y100646D02*
D03*
X343039Y103381D02*
D03*
X348425Y104331D02*
D03*
X264048Y103381D02*
D03*
X268784Y100646D02*
D03*
X272300Y96457D02*
D03*
X274170Y91317D02*
D03*
X274170Y85848D02*
D03*
X272300Y80709D02*
D03*
X268784Y76519D02*
D03*
X264048Y73784D02*
D03*
X258661Y72835D02*
D03*
X253275Y73784D02*
D03*
X248539Y76519D02*
D03*
X245023Y80709D02*
D03*
X243153Y85848D02*
D03*
X243153Y91317D02*
D03*
X245023Y96457D02*
D03*
X248539Y100646D02*
D03*
X253275Y103381D02*
D03*
X258661Y104331D02*
D03*
X253275Y-103381D02*
D03*
X248539Y-100646D02*
D03*
X245023Y-96457D02*
D03*
X243153Y-91317D02*
D03*
X243153Y-85848D02*
D03*
X245023Y-80709D02*
D03*
X248539Y-76519D02*
D03*
X253275Y-73784D02*
D03*
X258661Y-72835D02*
D03*
X264048Y-73784D02*
D03*
X268784Y-76519D02*
D03*
X272300Y-80709D02*
D03*
X274170Y-85848D02*
D03*
Y-91317D02*
D03*
X272300Y-96457D02*
D03*
X268784Y-100646D02*
D03*
X264048Y-103381D02*
D03*
X258661Y-104331D02*
D03*
X163512Y-103381D02*
D03*
X158775Y-100646D02*
D03*
X155259Y-96457D02*
D03*
X153389Y-91317D02*
D03*
X153389Y-85848D02*
D03*
X155259Y-80709D02*
D03*
X158775Y-76519D02*
D03*
X163512Y-73784D02*
D03*
X168898Y-72835D02*
D03*
X174284Y-73784D02*
D03*
X179020Y-76519D02*
D03*
X182536Y-80709D02*
D03*
X184406Y-85848D02*
D03*
X184406Y-91317D02*
D03*
X182536Y-96457D02*
D03*
X179020Y-100646D02*
D03*
X174284Y-103381D02*
D03*
X168898Y-104331D02*
D03*
X174284Y103381D02*
D03*
X179020Y100646D02*
D03*
X182536Y96457D02*
D03*
X184406Y91317D02*
D03*
X184406Y85848D02*
D03*
X182536Y80709D02*
D03*
X179020Y76519D02*
D03*
X174284Y73784D02*
D03*
X168898Y72835D02*
D03*
X163512Y73784D02*
D03*
X158775Y76519D02*
D03*
X155259Y80709D02*
D03*
X153389Y85848D02*
D03*
Y91317D02*
D03*
X155259Y96457D02*
D03*
X158775Y100646D02*
D03*
X163512Y103381D02*
D03*
X168898Y104331D02*
D03*
X73748Y-103381D02*
D03*
X69011Y-100646D02*
D03*
X65496Y-96457D02*
D03*
X63625Y-91317D02*
D03*
X63625Y-85848D02*
D03*
X65496Y-80709D02*
D03*
X69011Y-76519D02*
D03*
X73748Y-73784D02*
D03*
X79134Y-72835D02*
D03*
X84520Y-73784D02*
D03*
X89257Y-76519D02*
D03*
X92772Y-80709D02*
D03*
X94643Y-85848D02*
D03*
Y-91317D02*
D03*
X92772Y-96457D02*
D03*
X89257Y-100646D02*
D03*
X84520Y-103381D02*
D03*
X79134Y-104331D02*
D03*
X-84520Y-103381D02*
D03*
X-89257Y-100646D02*
D03*
X-92772Y-96457D02*
D03*
X-94643Y-91317D02*
D03*
X-94643Y-85848D02*
D03*
X-92772Y-80709D02*
D03*
X-89257Y-76519D02*
D03*
X-84520Y-73784D02*
D03*
X-79134Y-72835D02*
D03*
X-73748Y-73784D02*
D03*
X-69011Y-76519D02*
D03*
X-65496Y-80709D02*
D03*
X-63625Y-85848D02*
D03*
X-63625Y-91317D02*
D03*
X-65496Y-96457D02*
D03*
X-69011Y-100646D02*
D03*
X-73748Y-103381D02*
D03*
X-79134Y-104331D02*
D03*
X-163512Y103381D02*
D03*
X-158775Y100646D02*
D03*
X-155259Y96457D02*
D03*
X-153389Y91317D02*
D03*
X-153389Y85848D02*
D03*
X-155259Y80709D02*
D03*
X-158775Y76519D02*
D03*
X-163512Y73784D02*
D03*
X-168898Y72835D02*
D03*
X-174284Y73784D02*
D03*
X-179020Y76519D02*
D03*
X-182536Y80709D02*
D03*
X-184406Y85848D02*
D03*
X-184406Y91317D02*
D03*
X-182536Y96457D02*
D03*
X-179020Y100646D02*
D03*
X-174284Y103381D02*
D03*
X-168898Y104331D02*
D03*
X-174284Y-103381D02*
D03*
X-179020Y-100646D02*
D03*
X-182536Y-96457D02*
D03*
X-184406Y-91317D02*
D03*
X-184406Y-85848D02*
D03*
X-182536Y-80709D02*
D03*
X-179020Y-76519D02*
D03*
X-174284Y-73784D02*
D03*
X-168898Y-72835D02*
D03*
X-163512Y-73784D02*
D03*
X-158775Y-76519D02*
D03*
X-155259Y-80709D02*
D03*
X-153389Y-85848D02*
D03*
Y-91317D02*
D03*
X-155259Y-96457D02*
D03*
X-158775Y-100646D02*
D03*
X-163512Y-103381D02*
D03*
X-168898Y-104331D02*
D03*
X-264048Y-103381D02*
D03*
X-268784Y-100646D02*
D03*
X-272300Y-96457D02*
D03*
X-274170Y-91317D02*
D03*
X-274170Y-85848D02*
D03*
X-272300Y-80709D02*
D03*
X-268784Y-76519D02*
D03*
X-264048Y-73784D02*
D03*
X-258661Y-72835D02*
D03*
X-253275Y-73784D02*
D03*
X-248539Y-76519D02*
D03*
X-245023Y-80709D02*
D03*
X-243153Y-85848D02*
D03*
X-243153Y-91317D02*
D03*
X-245023Y-96457D02*
D03*
X-248539Y-100646D02*
D03*
X-253275Y-103381D02*
D03*
X-258661Y-104331D02*
D03*
X-253275Y103381D02*
D03*
X-248539Y100646D02*
D03*
X-245023Y96457D02*
D03*
X-243153Y91317D02*
D03*
X-243153Y85848D02*
D03*
X-245023Y80709D02*
D03*
X-248539Y76519D02*
D03*
X-253275Y73784D02*
D03*
X-258661Y72835D02*
D03*
X-264048Y73784D02*
D03*
X-268784Y76519D02*
D03*
X-272300Y80709D02*
D03*
X-274170Y85848D02*
D03*
Y91317D02*
D03*
X-272300Y96457D02*
D03*
X-268784Y100646D02*
D03*
X-264048Y103381D02*
D03*
X-258661Y104331D02*
D03*
X-343039Y103381D02*
D03*
X-338303Y100646D02*
D03*
X-334787Y96457D02*
D03*
X-332916Y91317D02*
D03*
X-332916Y85848D02*
D03*
X-334787Y80709D02*
D03*
X-338303Y76519D02*
D03*
X-343039Y73784D02*
D03*
X-348425Y72835D02*
D03*
X-353811Y73784D02*
D03*
X-358548Y76519D02*
D03*
X-362063Y80709D02*
D03*
X-363934Y85848D02*
D03*
X-363934Y91317D02*
D03*
X-362063Y96457D02*
D03*
X-358548Y100646D02*
D03*
X-353811Y103381D02*
D03*
X-348425Y104331D02*
D03*
X-353811Y-103381D02*
D03*
X-358548Y-100646D02*
D03*
X-362063Y-96457D02*
D03*
X-363934Y-91317D02*
D03*
X-363934Y-85848D02*
D03*
X-362063Y-80709D02*
D03*
X-358548Y-76519D02*
D03*
X-353811Y-73784D02*
D03*
X-348425Y-72835D02*
D03*
X-343039Y-73784D02*
D03*
X-338303Y-76519D02*
D03*
X-334787Y-80709D02*
D03*
X-332916Y-85848D02*
D03*
Y-91317D02*
D03*
X-334787Y-96457D02*
D03*
X-338303Y-100646D02*
D03*
X-343039Y-103381D02*
D03*
X-348425Y-104331D02*
D03*
X-443575Y-103381D02*
D03*
X-448312Y-100646D02*
D03*
X-451827Y-96457D02*
D03*
X-453698Y-91317D02*
D03*
X-453698Y-85848D02*
D03*
X-451827Y-80709D02*
D03*
X-448312Y-76519D02*
D03*
X-443575Y-73784D02*
D03*
X-438189Y-72835D02*
D03*
X-432803Y-73784D02*
D03*
X-428066Y-76519D02*
D03*
X-424551Y-80709D02*
D03*
X-422680Y-85848D02*
D03*
X-422680Y-91317D02*
D03*
X-424551Y-96457D02*
D03*
X-428066Y-100646D02*
D03*
X-432803Y-103381D02*
D03*
X-438189Y-104331D02*
D03*
X-432803Y103381D02*
D03*
X-428066Y100646D02*
D03*
X-424551Y96457D02*
D03*
X-422680Y91317D02*
D03*
X-422680Y85848D02*
D03*
X-424551Y80709D02*
D03*
X-428066Y76519D02*
D03*
X-432803Y73784D02*
D03*
X-438189Y72835D02*
D03*
X-443575Y73784D02*
D03*
X-448312Y76519D02*
D03*
X-451827Y80709D02*
D03*
X-453698Y85848D02*
D03*
Y91317D02*
D03*
X-451827Y96457D02*
D03*
X-448312Y100646D02*
D03*
X-443575Y103381D02*
D03*
X-438189Y104331D02*
D03*
X-522567Y103381D02*
D03*
X-517830Y100646D02*
D03*
X-514315Y96457D02*
D03*
X-512444Y91317D02*
D03*
X-512444Y85848D02*
D03*
X-514315Y80709D02*
D03*
X-517830Y76519D02*
D03*
X-522567Y73784D02*
D03*
X-527953Y72835D02*
D03*
X-533339Y73784D02*
D03*
X-538075Y76519D02*
D03*
X-541591Y80709D02*
D03*
X-543462Y85848D02*
D03*
X-543462Y91317D02*
D03*
X-541591Y96457D02*
D03*
X-538075Y100646D02*
D03*
X-533339Y103381D02*
D03*
X-527953Y104331D02*
D03*
X-533339Y-103381D02*
D03*
X-538075Y-100646D02*
D03*
X-541591Y-96457D02*
D03*
X-543462Y-91317D02*
D03*
X-543462Y-85848D02*
D03*
X-541591Y-80709D02*
D03*
X-538075Y-76519D02*
D03*
X-533339Y-73784D02*
D03*
X-527953Y-72835D02*
D03*
X-522567Y-73784D02*
D03*
X-517830Y-76519D02*
D03*
X-514315Y-80709D02*
D03*
X-512444Y-85848D02*
D03*
Y-91317D02*
D03*
X-514315Y-96457D02*
D03*
X-517830Y-100646D02*
D03*
X-522567Y-103381D02*
D03*
X-527953Y-104331D02*
D03*
X-623103Y-103381D02*
D03*
X-627839Y-100646D02*
D03*
X-631355Y-96457D02*
D03*
X-633225Y-91317D02*
D03*
X-633225Y-85848D02*
D03*
X-631355Y-80709D02*
D03*
X-627839Y-76519D02*
D03*
X-623103Y-73784D02*
D03*
X-617717Y-72835D02*
D03*
X-612330Y-73784D02*
D03*
X-607594Y-76519D02*
D03*
X-604078Y-80709D02*
D03*
X-602208Y-85848D02*
D03*
X-602208Y-91317D02*
D03*
X-604078Y-96457D02*
D03*
X-607594Y-100646D02*
D03*
X-612330Y-103381D02*
D03*
X-617717Y-104331D02*
D03*
X-612330Y103381D02*
D03*
X-607594Y100646D02*
D03*
X-604078Y96457D02*
D03*
X-602208Y91317D02*
D03*
X-602208Y85848D02*
D03*
X-604078Y80709D02*
D03*
X-607594Y76519D02*
D03*
X-612330Y73784D02*
D03*
X-617717Y72835D02*
D03*
X-623103Y73784D02*
D03*
X-627839Y76519D02*
D03*
X-631355Y80709D02*
D03*
X-633225Y85848D02*
D03*
Y91317D02*
D03*
X-631355Y96457D02*
D03*
X-627839Y100646D02*
D03*
X-623103Y103381D02*
D03*
X-617717Y104331D02*
D03*
X-712866Y-103381D02*
D03*
X-717603Y-100646D02*
D03*
X-721118Y-96457D02*
D03*
X-722989Y-91317D02*
D03*
X-722989Y-85848D02*
D03*
X-721118Y-80709D02*
D03*
X-717603Y-76519D02*
D03*
X-712866Y-73784D02*
D03*
X-707480Y-72835D02*
D03*
X-702094Y-73784D02*
D03*
X-697358Y-76519D02*
D03*
X-693842Y-80709D02*
D03*
X-691971Y-85848D02*
D03*
Y-91317D02*
D03*
X-693842Y-96457D02*
D03*
X-697358Y-100646D02*
D03*
X-702094Y-103381D02*
D03*
X-707480Y-104331D02*
D03*
D54*
X707480Y88583D02*
D03*
X617717Y-88583D02*
D03*
X527953Y88583D02*
D03*
X438189Y-88583D02*
D03*
X348425Y88583D02*
D03*
X258661Y-88583D02*
D03*
X168898Y88583D02*
D03*
X79134Y-88583D02*
D03*
X-79134Y88583D02*
D03*
X-168898Y-88583D02*
D03*
X-258661Y88583D02*
D03*
X-348425Y-88583D02*
D03*
X-438189Y88583D02*
D03*
X-527953Y-88583D02*
D03*
X-617717Y88583D02*
D03*
X-707480Y-88583D02*
D03*
D55*
X707480Y-88583D02*
D03*
X617717Y88583D02*
D03*
X527953Y-88583D02*
D03*
X438189Y88583D02*
D03*
X348425Y-88583D02*
D03*
X258661Y88583D02*
D03*
X168898Y-88583D02*
D03*
X79134Y88583D02*
D03*
X-79134Y-88583D02*
D03*
X-168898Y88583D02*
D03*
X-258661Y-88583D02*
D03*
X-348425Y88583D02*
D03*
X-438189Y-88583D02*
D03*
X-527953Y88583D02*
D03*
X-617717Y-88583D02*
D03*
X-707480Y88583D02*
D03*
M02*
