G04*
G04 #@! TF.GenerationSoftware,Altium Limited,Altium Designer,19.0.15 (446)*
G04*
G04 Layer_Color=8421504*
%FSLAX25Y25*%
%MOIN*%
G70*
G01*
G75*
%ADD16R,0.03150X0.02953*%
%ADD17R,0.02953X0.03150*%
G04:AMPARAMS|DCode=18|XSize=31.5mil|YSize=55.12mil|CornerRadius=3.15mil|HoleSize=0mil|Usage=FLASHONLY|Rotation=90.000|XOffset=0mil|YOffset=0mil|HoleType=Round|Shape=RoundedRectangle|*
%AMROUNDEDRECTD18*
21,1,0.03150,0.04882,0,0,90.0*
21,1,0.02520,0.05512,0,0,90.0*
1,1,0.00630,0.02441,0.01260*
1,1,0.00630,0.02441,-0.01260*
1,1,0.00630,-0.02441,-0.01260*
1,1,0.00630,-0.02441,0.01260*
%
%ADD18ROUNDEDRECTD18*%
G04:AMPARAMS|DCode=19|XSize=51.18mil|YSize=51.18mil|CornerRadius=5.12mil|HoleSize=0mil|Usage=FLASHONLY|Rotation=135.000|XOffset=0mil|YOffset=0mil|HoleType=Round|Shape=RoundedRectangle|*
%AMROUNDEDRECTD19*
21,1,0.05118,0.04095,0,0,135.0*
21,1,0.04095,0.05118,0,0,135.0*
1,1,0.01024,0.00000,0.02895*
1,1,0.01024,0.02895,0.00000*
1,1,0.01024,0.00000,-0.02895*
1,1,0.01024,-0.02895,0.00000*
%
%ADD19ROUNDEDRECTD19*%
%ADD20R,0.01100X0.05500*%
%ADD21R,0.02362X0.03937*%
%ADD22R,0.04016X0.07480*%
%ADD23R,0.03543X0.01968*%
%ADD24R,0.05000X0.10000*%
%ADD25R,0.13504X0.06496*%
%ADD26R,0.07992X0.05984*%
%ADD27R,0.01968X0.03543*%
%ADD28O,0.04921X0.00984*%
D16*
X36024Y35433D02*
D03*
X41929D02*
D03*
X38386Y27559D02*
D03*
X32480D02*
D03*
X-38386Y11811D02*
D03*
X-32480D02*
D03*
X38386Y19685D02*
D03*
X32480D02*
D03*
X-38386D02*
D03*
X-32480D02*
D03*
X38386Y11811D02*
D03*
X32480D02*
D03*
X67815Y-48031D02*
D03*
X61910D02*
D03*
X606398D02*
D03*
X600492D02*
D03*
X247342D02*
D03*
X241437D02*
D03*
X426870D02*
D03*
X420965D02*
D03*
X539272Y48031D02*
D03*
X545177D02*
D03*
X359744D02*
D03*
X365650D02*
D03*
X180217D02*
D03*
X186122D02*
D03*
X718799D02*
D03*
X724705D02*
D03*
X-247342D02*
D03*
X-241437D02*
D03*
X-426870D02*
D03*
X-420965D02*
D03*
X-67815D02*
D03*
X-61910D02*
D03*
X-180217Y-48031D02*
D03*
X-186122D02*
D03*
X-359744D02*
D03*
X-365650D02*
D03*
X-539272D02*
D03*
X-545177D02*
D03*
X-606398Y48031D02*
D03*
X-600492D02*
D03*
X-718799Y-48031D02*
D03*
X-724705D02*
D03*
X4528D02*
D03*
X10433D02*
D03*
X-4921Y-38976D02*
D03*
X-10827D02*
D03*
X4528Y-39370D02*
D03*
X10433D02*
D03*
X-4921Y-48031D02*
D03*
X-10827D02*
D03*
X4528Y-43701D02*
D03*
X10433D02*
D03*
X-4921Y-43583D02*
D03*
X-10827D02*
D03*
X-32480Y27559D02*
D03*
X-38386D02*
D03*
D17*
X-33201Y32480D02*
D03*
Y38386D02*
D03*
X-45276Y-10827D02*
D03*
Y-16732D02*
D03*
X2412Y-16507D02*
D03*
Y-10602D02*
D03*
X7436D02*
D03*
Y-16507D02*
D03*
X-7169Y-16433D02*
D03*
Y-10528D02*
D03*
X-2333Y-10527D02*
D03*
Y-16432D02*
D03*
X-7480Y-73032D02*
D03*
Y-67126D02*
D03*
X114370Y-14173D02*
D03*
Y-8268D02*
D03*
X99606Y-14173D02*
D03*
Y-8268D02*
D03*
X109449Y-8268D02*
D03*
Y-14174D02*
D03*
X104528Y-14173D02*
D03*
Y-8268D02*
D03*
X652953Y-14173D02*
D03*
Y-8268D02*
D03*
X638189Y-14173D02*
D03*
Y-8268D02*
D03*
X648032Y-8268D02*
D03*
Y-14174D02*
D03*
X643110Y-14173D02*
D03*
Y-8268D02*
D03*
X293898Y-14173D02*
D03*
Y-8268D02*
D03*
X279134Y-14173D02*
D03*
Y-8268D02*
D03*
X288976Y-8268D02*
D03*
Y-14174D02*
D03*
X284055Y-14173D02*
D03*
Y-8268D02*
D03*
X473425Y-14173D02*
D03*
Y-8268D02*
D03*
X458661Y-14173D02*
D03*
Y-8268D02*
D03*
X468504Y-8268D02*
D03*
Y-14174D02*
D03*
X463583Y-14173D02*
D03*
Y-8268D02*
D03*
X492717Y14173D02*
D03*
Y8268D02*
D03*
X507480Y14173D02*
D03*
Y8268D02*
D03*
X497638Y8268D02*
D03*
Y14174D02*
D03*
X502559Y14173D02*
D03*
Y8268D02*
D03*
X313189Y14173D02*
D03*
Y8268D02*
D03*
X327953Y14173D02*
D03*
Y8268D02*
D03*
X318110Y8268D02*
D03*
Y14174D02*
D03*
X323031Y14173D02*
D03*
Y8268D02*
D03*
X133661Y14173D02*
D03*
Y8268D02*
D03*
X148425Y14173D02*
D03*
Y8268D02*
D03*
X138583Y8268D02*
D03*
Y14174D02*
D03*
X143504Y14173D02*
D03*
Y8268D02*
D03*
X672244Y14173D02*
D03*
Y8268D02*
D03*
X687008Y14173D02*
D03*
Y8268D02*
D03*
X677165Y8268D02*
D03*
Y14174D02*
D03*
X682087Y14173D02*
D03*
Y8268D02*
D03*
X-293898Y14173D02*
D03*
Y8268D02*
D03*
X-279134Y14173D02*
D03*
Y8268D02*
D03*
X-288976Y8268D02*
D03*
Y14174D02*
D03*
X-284055Y14173D02*
D03*
Y8268D02*
D03*
X-473425Y14173D02*
D03*
Y8268D02*
D03*
X-458661Y14173D02*
D03*
Y8268D02*
D03*
X-468504Y8268D02*
D03*
Y14174D02*
D03*
X-463583Y14173D02*
D03*
Y8268D02*
D03*
X-114370Y14173D02*
D03*
Y8268D02*
D03*
X-99606Y14173D02*
D03*
Y8268D02*
D03*
X-109449Y8268D02*
D03*
Y14174D02*
D03*
X-104528Y14173D02*
D03*
Y8268D02*
D03*
X-133661Y-14173D02*
D03*
Y-8268D02*
D03*
X-148425Y-14173D02*
D03*
Y-8268D02*
D03*
X-138583Y-8268D02*
D03*
Y-14174D02*
D03*
X-143504Y-14173D02*
D03*
Y-8268D02*
D03*
X-313189Y-14173D02*
D03*
Y-8268D02*
D03*
X-327953Y-14173D02*
D03*
Y-8268D02*
D03*
X-318110Y-8268D02*
D03*
Y-14174D02*
D03*
X-323031Y-14173D02*
D03*
Y-8268D02*
D03*
X-492717Y-14173D02*
D03*
Y-8268D02*
D03*
X-507480Y-14173D02*
D03*
Y-8268D02*
D03*
X-497638Y-8268D02*
D03*
Y-14174D02*
D03*
X-502559Y-14173D02*
D03*
Y-8268D02*
D03*
X-643110Y8268D02*
D03*
Y14173D02*
D03*
X-682087Y-8268D02*
D03*
Y-14173D02*
D03*
X-648032Y14174D02*
D03*
Y8268D02*
D03*
X-677165Y-14174D02*
D03*
Y-8268D02*
D03*
X1654Y-27795D02*
D03*
Y-21890D02*
D03*
X5118Y-52953D02*
D03*
Y-58858D02*
D03*
X-5512Y-59055D02*
D03*
Y-53150D02*
D03*
X-638189Y14173D02*
D03*
Y8268D02*
D03*
X-687008Y-14173D02*
D03*
Y-8268D02*
D03*
X10236Y-58858D02*
D03*
Y-52953D02*
D03*
X-10630D02*
D03*
Y-58858D02*
D03*
X-652953Y8268D02*
D03*
Y14173D02*
D03*
X-672244Y-8268D02*
D03*
Y-14173D02*
D03*
X7126Y-21811D02*
D03*
Y-27716D02*
D03*
X-12205Y-73032D02*
D03*
Y-67126D02*
D03*
D18*
X14764Y-91142D02*
D03*
Y-102165D02*
D03*
X-14764Y-91142D02*
D03*
Y-102165D02*
D03*
X22638Y-91142D02*
D03*
Y-102165D02*
D03*
X-22638Y-91142D02*
D03*
Y-102165D02*
D03*
X30512Y-91142D02*
D03*
Y-102165D02*
D03*
X-30512Y-91142D02*
D03*
Y-102165D02*
D03*
X38386Y-91142D02*
D03*
Y-102165D02*
D03*
X-38386Y-91142D02*
D03*
Y-102165D02*
D03*
D19*
X14764Y-96653D02*
D03*
X-14764D02*
D03*
X22638D02*
D03*
X-22638D02*
D03*
X30512D02*
D03*
X-30512D02*
D03*
X38386D02*
D03*
X-38386D02*
D03*
D20*
X-24611Y726D02*
D03*
X-22641D02*
D03*
X-20672D02*
D03*
X-18701D02*
D03*
X-16732D02*
D03*
X-14762D02*
D03*
X-12791D02*
D03*
X-10821D02*
D03*
Y-16474D02*
D03*
X-12791D02*
D03*
X-14762D02*
D03*
X-16732D02*
D03*
X-18701D02*
D03*
X-20672D02*
D03*
X-22641D02*
D03*
X-24611D02*
D03*
X14759D02*
D03*
X16728D02*
D03*
X18699D02*
D03*
X20669D02*
D03*
X22638D02*
D03*
X24609D02*
D03*
X26579D02*
D03*
X28548D02*
D03*
Y726D02*
D03*
X26579D02*
D03*
X24609D02*
D03*
X22638D02*
D03*
X20669D02*
D03*
X18699D02*
D03*
X16728D02*
D03*
X14759D02*
D03*
D21*
X43110Y54626D02*
D03*
X39370D02*
D03*
X35630D02*
D03*
Y43799D02*
D03*
X43110D02*
D03*
X-35630Y54626D02*
D03*
X-39370D02*
D03*
X-43110D02*
D03*
Y43799D02*
D03*
X-35630D02*
D03*
X718209Y32972D02*
D03*
X725689D02*
D03*
X721949Y42421D02*
D03*
X606988Y-32972D02*
D03*
X599508D02*
D03*
X603248Y-42421D02*
D03*
X538681Y32972D02*
D03*
X546161D02*
D03*
X542421Y42421D02*
D03*
X427461Y-32972D02*
D03*
X419980D02*
D03*
X423721Y-42421D02*
D03*
X359154Y32972D02*
D03*
X366634D02*
D03*
X362894Y42421D02*
D03*
X247933Y-32972D02*
D03*
X240453D02*
D03*
X244193Y-42421D02*
D03*
X179626Y32972D02*
D03*
X187106D02*
D03*
X183366Y42421D02*
D03*
X68405Y-32972D02*
D03*
X60925D02*
D03*
X64665Y-42421D02*
D03*
X-68405Y32972D02*
D03*
X-60925D02*
D03*
X-64665Y42421D02*
D03*
X-179626Y-32972D02*
D03*
X-187106D02*
D03*
X-183366Y-42421D02*
D03*
X-247933Y32972D02*
D03*
X-240453D02*
D03*
X-244193Y42421D02*
D03*
X-359154Y-32972D02*
D03*
X-366634D02*
D03*
X-362894Y-42421D02*
D03*
X-427461Y32972D02*
D03*
X-419980D02*
D03*
X-423721Y42421D02*
D03*
X-538681Y-32972D02*
D03*
X-546161D02*
D03*
X-542421Y-42421D02*
D03*
X-606988Y32972D02*
D03*
X-599508D02*
D03*
X-603248Y42421D02*
D03*
X-718209Y-32972D02*
D03*
X-725689D02*
D03*
X-721949Y-42421D02*
D03*
D22*
X-19685Y8950D02*
D03*
X-11811D02*
D03*
X-3937D02*
D03*
X3937D02*
D03*
X11811D02*
D03*
X19685D02*
D03*
X-19685Y65250D02*
D03*
X-11811D02*
D03*
X-3937D02*
D03*
X3937D02*
D03*
X11811D02*
D03*
X19685D02*
D03*
D23*
Y72047D02*
D03*
Y77953D02*
D03*
X3937Y72047D02*
D03*
Y77953D02*
D03*
X-3937Y72047D02*
D03*
Y77953D02*
D03*
X-19685Y72047D02*
D03*
Y77953D02*
D03*
D24*
X17717Y85709D02*
D03*
X5906D02*
D03*
X-5906D02*
D03*
X-17717D02*
D03*
D25*
X-33032Y99213D02*
D03*
X33032D02*
D03*
D26*
X707480Y37421D02*
D03*
Y49390D02*
D03*
X617717Y-37421D02*
D03*
Y-49390D02*
D03*
X527953Y37421D02*
D03*
Y49390D02*
D03*
X438189Y-37421D02*
D03*
Y-49390D02*
D03*
X348425Y37421D02*
D03*
Y49390D02*
D03*
X258661Y-37421D02*
D03*
Y-49390D02*
D03*
X168898Y37421D02*
D03*
Y49390D02*
D03*
X79134Y-37421D02*
D03*
Y-49390D02*
D03*
X-79134Y37421D02*
D03*
Y49390D02*
D03*
X-168898Y-37421D02*
D03*
Y-49390D02*
D03*
X-258661Y37421D02*
D03*
Y49390D02*
D03*
X-348425Y-37421D02*
D03*
Y-49390D02*
D03*
X-438189Y37421D02*
D03*
Y49390D02*
D03*
X-527953Y-37421D02*
D03*
Y-49390D02*
D03*
X-617717Y37421D02*
D03*
Y49390D02*
D03*
X-707480Y-37421D02*
D03*
Y-49390D02*
D03*
D27*
X8859Y-4921D02*
D03*
X2953D02*
D03*
X2953Y984D02*
D03*
X8858D02*
D03*
X-36417Y-4921D02*
D03*
X-30512D02*
D03*
X-30512Y726D02*
D03*
X-36417D02*
D03*
D28*
X46457Y-69291D02*
D03*
Y-67323D02*
D03*
Y-65354D02*
D03*
Y-63386D02*
D03*
Y-61417D02*
D03*
Y-59449D02*
D03*
Y-57480D02*
D03*
Y-55512D02*
D03*
Y-53543D02*
D03*
Y-51575D02*
D03*
Y-49606D02*
D03*
Y-47638D02*
D03*
Y-45669D02*
D03*
Y-43701D02*
D03*
Y-41732D02*
D03*
Y-39764D02*
D03*
Y-37795D02*
D03*
Y-35827D02*
D03*
Y-33858D02*
D03*
Y-31890D02*
D03*
Y-29921D02*
D03*
Y-27953D02*
D03*
Y-25984D02*
D03*
Y-24016D02*
D03*
X18898Y-69291D02*
D03*
Y-67323D02*
D03*
Y-65354D02*
D03*
Y-63386D02*
D03*
Y-61417D02*
D03*
Y-59449D02*
D03*
Y-57480D02*
D03*
Y-55512D02*
D03*
Y-53543D02*
D03*
Y-51575D02*
D03*
Y-49606D02*
D03*
Y-47638D02*
D03*
Y-45669D02*
D03*
Y-43701D02*
D03*
Y-41732D02*
D03*
Y-39764D02*
D03*
Y-37795D02*
D03*
Y-35827D02*
D03*
Y-33858D02*
D03*
Y-31890D02*
D03*
Y-29921D02*
D03*
Y-27953D02*
D03*
Y-25984D02*
D03*
Y-24016D02*
D03*
X-46850Y-24016D02*
D03*
Y-25984D02*
D03*
Y-27953D02*
D03*
Y-29921D02*
D03*
Y-31890D02*
D03*
Y-33858D02*
D03*
Y-35827D02*
D03*
Y-37795D02*
D03*
Y-39764D02*
D03*
Y-41732D02*
D03*
Y-43701D02*
D03*
Y-45669D02*
D03*
Y-47638D02*
D03*
Y-49606D02*
D03*
Y-51575D02*
D03*
Y-53543D02*
D03*
Y-55512D02*
D03*
Y-57480D02*
D03*
Y-59449D02*
D03*
Y-61417D02*
D03*
Y-63386D02*
D03*
Y-65354D02*
D03*
Y-67323D02*
D03*
Y-69291D02*
D03*
X-19291Y-24016D02*
D03*
Y-25984D02*
D03*
Y-27953D02*
D03*
Y-29921D02*
D03*
Y-31890D02*
D03*
Y-33858D02*
D03*
Y-35827D02*
D03*
Y-37795D02*
D03*
Y-39764D02*
D03*
Y-41732D02*
D03*
Y-43701D02*
D03*
Y-45669D02*
D03*
Y-47638D02*
D03*
Y-49606D02*
D03*
Y-51575D02*
D03*
Y-53543D02*
D03*
Y-55512D02*
D03*
Y-57480D02*
D03*
Y-59449D02*
D03*
Y-61417D02*
D03*
Y-63386D02*
D03*
Y-65354D02*
D03*
Y-67323D02*
D03*
Y-69291D02*
D03*
M02*
