G04*
G04 #@! TF.GenerationSoftware,Altium Limited,Altium Designer,19.0.10 (269)*
G04*
G04 Layer_Physical_Order=1*
G04 Layer_Color=255*
%FSLAX25Y25*%
%MOIN*%
G70*
G01*
G75*
%ADD12C,0.01000*%
%ADD30R,0.13504X0.06496*%
%ADD31R,0.05000X0.10000*%
%ADD32R,0.22598X0.22598*%
%ADD33R,0.05753X0.01063*%
%ADD34R,0.01063X0.05753*%
%ADD35C,0.03937*%
%ADD36R,0.02953X0.03150*%
%ADD37R,0.03150X0.02953*%
%ADD38R,0.13189X0.04921*%
%ADD39R,0.04724X0.08661*%
%ADD40R,0.25000X0.30000*%
%ADD41R,0.04600X0.06300*%
%ADD42R,0.06300X0.04600*%
%ADD43R,0.12402X0.07717*%
%ADD44C,0.00400*%
%ADD45C,0.04000*%
%ADD46C,0.39370*%
%ADD47C,0.01772*%
%ADD48C,0.07874*%
G36*
X190551Y207876D02*
X190089Y207684D01*
X187940Y209833D01*
X188132Y210295D01*
X188681D01*
Y219193D01*
X175098D01*
Y210295D01*
X185352D01*
X185369Y210212D01*
X185544Y209950D01*
X190139Y205355D01*
Y164901D01*
X186655Y161417D01*
X173327D01*
Y162598D01*
X169193D01*
Y161417D01*
X131988D01*
Y162598D01*
X131988D01*
X131802Y163047D01*
X133371Y164616D01*
X133833Y164425D01*
Y164370D01*
X133932Y163871D01*
X134215Y163448D01*
X134639Y163165D01*
X135138Y163066D01*
X166634D01*
X167133Y163165D01*
X167556Y163448D01*
X167839Y163871D01*
X167938Y164370D01*
Y187992D01*
X167839Y188491D01*
X167556Y188915D01*
X167133Y189197D01*
X166634Y189297D01*
X137977D01*
X137654Y189797D01*
X137726Y190157D01*
X137611Y190734D01*
X137285Y191222D01*
X136796Y191548D01*
X136221Y191663D01*
X135644Y191548D01*
X135156Y191222D01*
X134830Y190734D01*
X134818Y190675D01*
X134640Y190640D01*
X134378Y190465D01*
X134378Y190465D01*
X133088Y189175D01*
X132914Y188913D01*
X132852Y188605D01*
X132852Y188605D01*
Y166377D01*
X130273Y163798D01*
X127953D01*
X127644Y163737D01*
X127383Y163562D01*
X127383Y163562D01*
X126829Y163008D01*
X125303D01*
Y160433D01*
X124303D01*
Y163008D01*
X122327D01*
Y161417D01*
X121752D01*
Y162598D01*
X117618D01*
Y161417D01*
X116634D01*
Y162598D01*
X112500D01*
Y161417D01*
X111221D01*
Y222963D01*
X111721Y223114D01*
X111829Y222951D01*
X112453Y222535D01*
X112689Y222488D01*
Y224311D01*
Y226134D01*
X112453Y226087D01*
X111829Y225671D01*
X111721Y225508D01*
X111221Y225659D01*
Y237356D01*
X111249Y237502D01*
X111221Y237647D01*
Y240012D01*
X111249Y240158D01*
X121434D01*
X121681Y239657D01*
X121623Y239582D01*
X121362Y238952D01*
X121306Y238524D01*
X112894D01*
Y229626D01*
X126476D01*
Y235763D01*
X126499Y235933D01*
Y237193D01*
X129463Y240158D01*
X139173D01*
Y233467D01*
X139090Y233450D01*
X138828Y233275D01*
X138828Y233275D01*
X125045Y219492D01*
X124870Y219230D01*
X124863Y219193D01*
X112894D01*
Y210295D01*
X126476D01*
Y218643D01*
X138712Y230879D01*
X139173Y230687D01*
Y230512D01*
X145079D01*
Y240158D01*
X157283D01*
Y230512D01*
X163189D01*
Y237258D01*
X163512Y237597D01*
X163865Y237668D01*
X167618D01*
Y236614D01*
X171752D01*
Y239495D01*
X172252Y239702D01*
X175076Y236878D01*
Y235933D01*
X175098Y235763D01*
Y229626D01*
X188681D01*
Y238524D01*
X180228D01*
X180213Y238637D01*
X179952Y239267D01*
X179652Y239657D01*
X179856Y240158D01*
X190551D01*
Y207876D01*
D02*
G37*
G36*
X268216Y189354D02*
X270193D01*
Y190945D01*
X270768D01*
Y189764D01*
X274902D01*
Y190945D01*
X275886D01*
Y189764D01*
X280020D01*
Y190945D01*
X281299D01*
Y129400D01*
X280799Y129248D01*
X280690Y129411D01*
X280066Y129828D01*
X279831Y129875D01*
Y128051D01*
Y126228D01*
X280066Y126275D01*
X280690Y126692D01*
X280799Y126855D01*
X281299Y126703D01*
Y112205D01*
X271085D01*
X270839Y112705D01*
X270897Y112780D01*
X271158Y113410D01*
X271214Y113839D01*
X279626D01*
Y122736D01*
X266043D01*
Y116599D01*
X266021Y116429D01*
Y115169D01*
X263057Y112205D01*
X253346D01*
Y118895D01*
X253430Y118912D01*
X253691Y119087D01*
X267475Y132870D01*
X267475Y132870D01*
X267650Y133132D01*
X267657Y133169D01*
X279626D01*
Y142067D01*
X266043D01*
Y133719D01*
X253808Y121484D01*
X253346Y121675D01*
Y121850D01*
X247441D01*
Y112205D01*
X235236D01*
Y121850D01*
X229331D01*
Y115104D01*
X229008Y114765D01*
X228654Y114695D01*
X224902D01*
Y115748D01*
X220768D01*
Y112867D01*
X220268Y112660D01*
X217444Y115484D01*
Y116429D01*
X217421Y116599D01*
Y122736D01*
X203839D01*
Y113839D01*
X212292D01*
X212307Y113725D01*
X212568Y113095D01*
X212867Y112705D01*
X212664Y112205D01*
X201969D01*
Y144486D01*
X202430Y144678D01*
X204579Y142529D01*
X204388Y142067D01*
X203839D01*
Y133169D01*
X217421D01*
Y142067D01*
X207167D01*
X207151Y142150D01*
X206976Y142412D01*
X206976Y142412D01*
X202381Y147007D01*
Y187461D01*
X205864Y190945D01*
X219193D01*
Y189764D01*
X223327D01*
Y190945D01*
X260531D01*
Y189764D01*
X260531D01*
X260717Y189315D01*
X259148Y187746D01*
X258686Y187937D01*
Y187992D01*
X258587Y188491D01*
X258304Y188915D01*
X257881Y189197D01*
X257382Y189297D01*
X225886D01*
X225387Y189197D01*
X224963Y188915D01*
X224680Y188491D01*
X224581Y187992D01*
Y164370D01*
X224680Y163871D01*
X224963Y163448D01*
X225387Y163165D01*
X225886Y163066D01*
X254543D01*
X254866Y162566D01*
X254794Y162205D01*
X254908Y161629D01*
X255235Y161140D01*
X255723Y160814D01*
X256299Y160699D01*
X256875Y160814D01*
X257364Y161140D01*
X257690Y161629D01*
X257701Y161687D01*
X257880Y161723D01*
X258141Y161897D01*
X259431Y163187D01*
X259431Y163187D01*
X259606Y163449D01*
X259667Y163757D01*
Y185985D01*
X262246Y188564D01*
X264567D01*
X264567Y188564D01*
X264875Y188625D01*
X265137Y188800D01*
X265691Y189354D01*
X267216D01*
Y191929D01*
X268216D01*
Y189354D01*
D02*
G37*
G36*
X371654Y207876D02*
X371192Y207684D01*
X369043Y209833D01*
X369234Y210295D01*
X369783D01*
Y219193D01*
X356201D01*
Y210295D01*
X366455D01*
X366471Y210212D01*
X366646Y209950D01*
X371241Y205355D01*
Y164901D01*
X367758Y161417D01*
X354429D01*
Y162598D01*
X350295D01*
Y161417D01*
X313090D01*
Y162598D01*
X313091D01*
X312905Y163047D01*
X314670Y164813D01*
X315132Y164622D01*
Y164370D01*
X315232Y163871D01*
X315514Y163448D01*
X315938Y163165D01*
X316437Y163066D01*
X347933D01*
X348432Y163165D01*
X348855Y163448D01*
X349138Y163871D01*
X349238Y164370D01*
Y187992D01*
X349138Y188491D01*
X348855Y188915D01*
X348432Y189197D01*
X347933Y189297D01*
X319079D01*
X318756Y189797D01*
X318828Y190157D01*
X318713Y190734D01*
X318387Y191222D01*
X317899Y191548D01*
X317323Y191663D01*
X316747Y191548D01*
X316258Y191222D01*
X315932Y190734D01*
X315841Y190278D01*
X315824D01*
X315516Y190216D01*
X315254Y190042D01*
X315254Y190042D01*
X314387Y189175D01*
X314213Y188913D01*
X314151Y188605D01*
X314151Y188605D01*
Y166574D01*
X311376Y163798D01*
X309055D01*
X308747Y163737D01*
X308485Y163562D01*
X308485Y163562D01*
X307931Y163008D01*
X306405D01*
Y160433D01*
X305405D01*
Y163008D01*
X303429D01*
Y161417D01*
X302854D01*
Y162598D01*
X298721D01*
Y161417D01*
X297736D01*
Y162598D01*
X293602D01*
Y161417D01*
X292323D01*
Y222963D01*
X292823Y223114D01*
X292932Y222951D01*
X293555Y222535D01*
X293791Y222488D01*
Y224311D01*
Y226134D01*
X293555Y226087D01*
X292932Y225671D01*
X292823Y225508D01*
X292323Y225659D01*
Y240158D01*
X302537D01*
X302783Y239657D01*
X302725Y239582D01*
X302464Y238952D01*
X302408Y238524D01*
X293996D01*
Y229626D01*
X307579D01*
Y235763D01*
X307601Y235933D01*
Y237193D01*
X310565Y240158D01*
X320276D01*
Y233467D01*
X320192Y233450D01*
X319931Y233275D01*
X319931Y233275D01*
X306147Y219492D01*
X305973Y219230D01*
X305965Y219193D01*
X293996D01*
Y210295D01*
X307579D01*
Y218643D01*
X319814Y230879D01*
X320276Y230687D01*
Y230512D01*
X326181D01*
Y240158D01*
X338386D01*
Y230512D01*
X344291D01*
Y237258D01*
X344615Y237597D01*
X344968Y237668D01*
X348721D01*
Y236614D01*
X352854D01*
Y239495D01*
X353354Y239702D01*
X356178Y236878D01*
Y235933D01*
X356201Y235763D01*
Y229626D01*
X369783D01*
Y238524D01*
X361330D01*
X361315Y238637D01*
X361054Y239267D01*
X360755Y239657D01*
X360958Y240158D01*
X371654D01*
Y207876D01*
D02*
G37*
G36*
X449319Y189354D02*
X451295D01*
Y190945D01*
X451870D01*
Y189764D01*
X456004D01*
Y190945D01*
X456988D01*
Y189764D01*
X461122D01*
Y190945D01*
X462402D01*
Y129400D01*
X461902Y129248D01*
X461793Y129411D01*
X461169Y129828D01*
X460933Y129875D01*
Y128051D01*
Y126228D01*
X461169Y126275D01*
X461793Y126692D01*
X461902Y126855D01*
X462402Y126703D01*
Y112205D01*
X452188D01*
X451941Y112705D01*
X451999Y112780D01*
X452260Y113410D01*
X452317Y113839D01*
X460728D01*
Y122736D01*
X447146D01*
Y116599D01*
X447123Y116429D01*
Y115169D01*
X444159Y112205D01*
X434449D01*
Y117143D01*
X434532Y117160D01*
X434794Y117335D01*
X450283Y132824D01*
X450283Y132824D01*
X450458Y133086D01*
X450474Y133169D01*
X460728D01*
Y142067D01*
X447146D01*
Y133169D01*
X447695D01*
X447886Y132707D01*
X434910Y119732D01*
X434449Y119923D01*
Y121850D01*
X428544D01*
Y112205D01*
X416339D01*
Y121850D01*
X410433D01*
Y115104D01*
X410110Y114765D01*
X409757Y114695D01*
X406004D01*
Y115748D01*
X401870D01*
Y112867D01*
X401370Y112660D01*
X398546Y115484D01*
Y116429D01*
X398524Y116599D01*
Y122736D01*
X384941D01*
Y113839D01*
X393394D01*
X393409Y113725D01*
X393670Y113095D01*
X393970Y112705D01*
X393766Y112205D01*
X383071D01*
Y144486D01*
X383533Y144678D01*
X385682Y142529D01*
X385490Y142067D01*
X384941D01*
Y133169D01*
X398524D01*
Y142067D01*
X388270D01*
X388253Y142150D01*
X388078Y142412D01*
X388078Y142412D01*
X383483Y147007D01*
Y187461D01*
X386967Y190945D01*
X400295D01*
Y189764D01*
X404429D01*
Y190945D01*
X441634D01*
Y189764D01*
X441634D01*
X441820Y189315D01*
X440251Y187746D01*
X439789Y187937D01*
Y187992D01*
X439689Y188491D01*
X439407Y188915D01*
X438983Y189197D01*
X438484Y189297D01*
X406988D01*
X406489Y189197D01*
X406066Y188915D01*
X405783Y188491D01*
X405684Y187992D01*
Y164370D01*
X405783Y163871D01*
X406066Y163448D01*
X406489Y163165D01*
X406988Y163066D01*
X435645D01*
X435968Y162566D01*
X435896Y162205D01*
X436011Y161629D01*
X436337Y161140D01*
X436826Y160814D01*
X437402Y160699D01*
X437978Y160814D01*
X438466Y161140D01*
X438792Y161629D01*
X438804Y161687D01*
X438982Y161723D01*
X439244Y161897D01*
X440534Y163187D01*
X440534Y163187D01*
X440708Y163449D01*
X440770Y163757D01*
Y185985D01*
X443349Y188564D01*
X445669D01*
X445669Y188564D01*
X445978Y188625D01*
X446239Y188800D01*
X446794Y189354D01*
X448319D01*
Y191929D01*
X449319D01*
Y189354D01*
D02*
G37*
G36*
X552756Y207876D02*
X552294Y207684D01*
X550145Y209833D01*
X550337Y210295D01*
X550886D01*
Y219193D01*
X537303D01*
Y210295D01*
X547557D01*
X547574Y210212D01*
X547749Y209950D01*
X552344Y205355D01*
Y164901D01*
X548860Y161417D01*
X535532D01*
Y162598D01*
X531398D01*
Y161417D01*
X494193D01*
Y162598D01*
X494193D01*
X494007Y163047D01*
X495773Y164813D01*
X496235Y164622D01*
Y164370D01*
X496334Y163871D01*
X496617Y163448D01*
X497040Y163165D01*
X497539Y163066D01*
X529035D01*
X529535Y163165D01*
X529958Y163448D01*
X530241Y163871D01*
X530340Y164370D01*
Y187992D01*
X530241Y188491D01*
X529958Y188915D01*
X529535Y189197D01*
X529035Y189297D01*
X500181D01*
X499859Y189797D01*
X499930Y190157D01*
X499816Y190734D01*
X499490Y191222D01*
X499001Y191548D01*
X498425Y191663D01*
X497849Y191548D01*
X497361Y191222D01*
X497035Y190734D01*
X496944Y190278D01*
X496926D01*
X496618Y190216D01*
X496357Y190042D01*
X496356Y190042D01*
X495490Y189175D01*
X495315Y188913D01*
X495254Y188605D01*
X495254Y188605D01*
Y166574D01*
X492478Y163798D01*
X490158D01*
X489849Y163737D01*
X489587Y163562D01*
X489587Y163562D01*
X489033Y163008D01*
X487508D01*
Y160433D01*
X486508D01*
Y163008D01*
X484531D01*
Y161417D01*
X483957D01*
Y162598D01*
X479823D01*
Y161417D01*
X478839D01*
Y162598D01*
X474705D01*
Y161417D01*
X473425D01*
Y222963D01*
X473925Y223114D01*
X474034Y222951D01*
X474658Y222535D01*
X474894Y222488D01*
Y224311D01*
Y226134D01*
X474658Y226087D01*
X474034Y225671D01*
X473925Y225508D01*
X473425Y225659D01*
Y240158D01*
X483639D01*
X483886Y239657D01*
X483828Y239582D01*
X483567Y238952D01*
X483510Y238524D01*
X475098D01*
Y229626D01*
X488681D01*
Y235763D01*
X488703Y235933D01*
Y237193D01*
X491668Y240158D01*
X501378D01*
Y235219D01*
X501295Y235202D01*
X501033Y235027D01*
X501033Y235027D01*
X485544Y219538D01*
X485369Y219276D01*
X485352Y219193D01*
X475098D01*
Y210295D01*
X488681D01*
Y219193D01*
X488132D01*
X487940Y219655D01*
X500916Y232631D01*
X501378Y232439D01*
Y230512D01*
X507283D01*
Y240158D01*
X519488D01*
Y230512D01*
X525393D01*
Y237258D01*
X525717Y237597D01*
X526070Y237668D01*
X529823D01*
Y236614D01*
X533957D01*
Y239495D01*
X534457Y239702D01*
X537281Y236878D01*
Y235933D01*
X537303Y235763D01*
Y229626D01*
X550886D01*
Y238524D01*
X542432D01*
X542418Y238637D01*
X542157Y239267D01*
X541857Y239657D01*
X542060Y240158D01*
X552756D01*
Y207876D01*
D02*
G37*
G36*
X630421Y189354D02*
X632398D01*
Y190945D01*
X632972D01*
Y189764D01*
X637106D01*
Y190945D01*
X638091D01*
Y189764D01*
X642224D01*
Y190945D01*
X643504D01*
Y129400D01*
X643004Y129248D01*
X642895Y129411D01*
X642271Y129828D01*
X642035Y129875D01*
Y128051D01*
Y126228D01*
X642271Y126275D01*
X642895Y126692D01*
X643004Y126855D01*
X643504Y126703D01*
Y112205D01*
X633290D01*
X633043Y112705D01*
X633101Y112780D01*
X633362Y113410D01*
X633419Y113839D01*
X641831D01*
Y122736D01*
X628248D01*
Y116599D01*
X628226Y116429D01*
Y115169D01*
X625261Y112205D01*
X615551D01*
Y117143D01*
X615635Y117160D01*
X615896Y117335D01*
X631385Y132824D01*
X631385Y132824D01*
X631560Y133086D01*
X631577Y133169D01*
X641831D01*
Y142067D01*
X628248D01*
Y133169D01*
X628797D01*
X628989Y132707D01*
X616013Y119732D01*
X615551Y119923D01*
Y121850D01*
X609646D01*
Y112205D01*
X597441D01*
Y121850D01*
X591536D01*
Y115104D01*
X591212Y114765D01*
X590859Y114695D01*
X587106D01*
Y115748D01*
X582972D01*
Y112867D01*
X582472Y112660D01*
X579648Y115484D01*
Y116429D01*
X579626Y116599D01*
Y122736D01*
X566043D01*
Y113839D01*
X574497D01*
X574512Y113725D01*
X574773Y113095D01*
X575072Y112705D01*
X574869Y112205D01*
X564173D01*
Y144486D01*
X564635Y144678D01*
X566784Y142529D01*
X566593Y142067D01*
X566043D01*
Y133169D01*
X579626D01*
Y142067D01*
X569372D01*
X569355Y142150D01*
X569181Y142412D01*
X569181Y142412D01*
X564586Y147007D01*
Y187461D01*
X568069Y190945D01*
X581398D01*
Y189764D01*
X585532D01*
Y190945D01*
X622736D01*
Y189764D01*
X622736D01*
X622922Y189315D01*
X621353Y187746D01*
X620891Y187937D01*
Y187992D01*
X620792Y188491D01*
X620509Y188915D01*
X620086Y189197D01*
X619587Y189297D01*
X588091D01*
X587591Y189197D01*
X587168Y188915D01*
X586885Y188491D01*
X586786Y187992D01*
Y164370D01*
X586885Y163871D01*
X587168Y163448D01*
X587591Y163165D01*
X588091Y163066D01*
X616475D01*
X616618Y162891D01*
X616680Y162582D01*
X616854Y162321D01*
X617006Y162169D01*
X617113Y161629D01*
X617440Y161140D01*
X617928Y160814D01*
X618504Y160699D01*
X619080Y160814D01*
X619568Y161140D01*
X619895Y161629D01*
X619913Y161720D01*
X620199Y162084D01*
X620508Y162146D01*
X620769Y162321D01*
X621636Y163187D01*
X621636Y163187D01*
X621811Y163449D01*
X621872Y163757D01*
Y185985D01*
X624451Y188564D01*
X626772D01*
X626772Y188564D01*
X627080Y188625D01*
X627342Y188800D01*
X627896Y189354D01*
X629421D01*
Y191929D01*
X630421D01*
Y189354D01*
D02*
G37*
G36*
X733858Y207876D02*
X733396Y207684D01*
X731248Y209833D01*
X731439Y210295D01*
X731988D01*
Y219193D01*
X718405D01*
Y210295D01*
X728659D01*
X728676Y210212D01*
X728851Y209950D01*
X733446Y205355D01*
Y164901D01*
X729962Y161417D01*
X716634D01*
Y162598D01*
X712500D01*
Y161417D01*
X675295D01*
Y162598D01*
X675295D01*
X675109Y163047D01*
X676875Y164813D01*
X677337Y164622D01*
Y164370D01*
X677436Y163871D01*
X677719Y163448D01*
X678142Y163165D01*
X678642Y163066D01*
X710138D01*
X710637Y163165D01*
X711060Y163448D01*
X711343Y163871D01*
X711442Y164370D01*
Y187992D01*
X711343Y188491D01*
X711060Y188915D01*
X710637Y189197D01*
X710138Y189297D01*
X681284D01*
X680961Y189797D01*
X681033Y190157D01*
X680918Y190734D01*
X680592Y191222D01*
X680104Y191548D01*
X679528Y191663D01*
X678952Y191548D01*
X678463Y191222D01*
X678137Y190734D01*
X678046Y190278D01*
X678029D01*
X677720Y190216D01*
X677459Y190042D01*
X677459Y190042D01*
X676592Y189175D01*
X676417Y188913D01*
X676356Y188605D01*
X676356Y188605D01*
Y166574D01*
X673580Y163798D01*
X671260D01*
X670951Y163737D01*
X670690Y163562D01*
X670690Y163562D01*
X670136Y163008D01*
X668610D01*
Y160433D01*
X667610D01*
Y163008D01*
X665634D01*
Y161417D01*
X665059D01*
Y162598D01*
X660925D01*
Y161417D01*
X659941D01*
Y162598D01*
X655807D01*
Y161417D01*
X654528D01*
Y222963D01*
X655028Y223114D01*
X655136Y222951D01*
X655760Y222535D01*
X655996Y222488D01*
Y224311D01*
Y226134D01*
X655760Y226087D01*
X655136Y225671D01*
X655028Y225508D01*
X654528Y225659D01*
Y240158D01*
X664741D01*
X664988Y239657D01*
X664930Y239582D01*
X664669Y238952D01*
X664613Y238524D01*
X656201D01*
Y229626D01*
X669783D01*
Y235763D01*
X669806Y235933D01*
Y237193D01*
X672770Y240158D01*
X682480D01*
Y233467D01*
X682397Y233450D01*
X682135Y233275D01*
X682135Y233275D01*
X668352Y219492D01*
X668177Y219230D01*
X668170Y219193D01*
X656201D01*
Y210295D01*
X669783D01*
Y218643D01*
X682019Y230879D01*
X682480Y230687D01*
Y230512D01*
X688386D01*
Y240158D01*
X700591D01*
Y230512D01*
X706496D01*
Y237258D01*
X706819Y237597D01*
X707172Y237668D01*
X710925D01*
Y236614D01*
X715059D01*
Y239495D01*
X715559Y239702D01*
X718383Y236878D01*
Y235933D01*
X718405Y235763D01*
Y229626D01*
X731988D01*
Y238524D01*
X723535D01*
X723520Y238637D01*
X723259Y239267D01*
X722959Y239657D01*
X723163Y240158D01*
X733858D01*
Y207876D01*
D02*
G37*
G36*
X811524Y189354D02*
X813500D01*
Y190945D01*
X814075D01*
Y189764D01*
X818209D01*
Y190945D01*
X819193D01*
Y189764D01*
X823327D01*
Y190945D01*
X824606D01*
Y129400D01*
X824106Y129248D01*
X823997Y129411D01*
X823374Y129828D01*
X823138Y129875D01*
Y128051D01*
Y126228D01*
X823374Y126275D01*
X823997Y126692D01*
X824106Y126855D01*
X824606Y126703D01*
Y112205D01*
X814392D01*
X814146Y112705D01*
X814204Y112780D01*
X814465Y113410D01*
X814521Y113839D01*
X822933D01*
Y122736D01*
X809350D01*
Y116599D01*
X809328Y116429D01*
Y115169D01*
X806364Y112205D01*
X796653D01*
Y117143D01*
X796737Y117160D01*
X796998Y117335D01*
X812488Y132824D01*
X812488Y132824D01*
X812663Y133086D01*
X812679Y133169D01*
X822933D01*
Y142067D01*
X809350D01*
Y133169D01*
X809900D01*
X810091Y132707D01*
X797115Y119732D01*
X796653Y119923D01*
Y121850D01*
X790748D01*
Y112205D01*
X778543D01*
Y121850D01*
X772638D01*
Y115104D01*
X772315Y114765D01*
X771961Y114695D01*
X768209D01*
Y115748D01*
X764075D01*
Y112867D01*
X763575Y112660D01*
X760751Y115484D01*
Y116429D01*
X760728Y116599D01*
Y122736D01*
X747146D01*
Y113839D01*
X755599D01*
X755614Y113725D01*
X755875Y113095D01*
X756175Y112705D01*
X755971Y112205D01*
X745276D01*
Y144486D01*
X745738Y144678D01*
X747886Y142529D01*
X747695Y142067D01*
X747146D01*
Y133169D01*
X760728D01*
Y142067D01*
X750474D01*
X750458Y142150D01*
X750283Y142412D01*
X750283Y142412D01*
X745688Y147007D01*
Y187461D01*
X749171Y190945D01*
X762500D01*
Y189764D01*
X766634D01*
Y190945D01*
X803839D01*
Y189764D01*
X803839D01*
X804025Y189315D01*
X802456Y187746D01*
X801993Y187937D01*
Y187992D01*
X801894Y188491D01*
X801611Y188915D01*
X801188Y189197D01*
X800689Y189297D01*
X769193D01*
X768694Y189197D01*
X768270Y188915D01*
X767988Y188491D01*
X767888Y187992D01*
Y164370D01*
X767988Y163871D01*
X768270Y163448D01*
X768694Y163165D01*
X769193Y163066D01*
X797577D01*
X797721Y162891D01*
X797782Y162582D01*
X797957Y162321D01*
X798108Y162169D01*
X798216Y161629D01*
X798542Y161140D01*
X799030Y160814D01*
X799606Y160699D01*
X800182Y160814D01*
X800671Y161140D01*
X800997Y161629D01*
X801015Y161720D01*
X801302Y162084D01*
X801610Y162146D01*
X801872Y162321D01*
X802738Y163187D01*
X802738Y163187D01*
X802913Y163449D01*
X802975Y163757D01*
Y185985D01*
X805554Y188564D01*
X807874D01*
X807874Y188564D01*
X808183Y188625D01*
X808444Y188800D01*
X808998Y189354D01*
X810524D01*
Y191929D01*
X811524D01*
Y189354D01*
D02*
G37*
G36*
X914961Y207876D02*
X914499Y207684D01*
X912350Y209833D01*
X912541Y210295D01*
X913091D01*
Y219193D01*
X899508D01*
Y210295D01*
X909762D01*
X909778Y210212D01*
X909953Y209950D01*
X914548Y205355D01*
Y164901D01*
X911065Y161417D01*
X897736D01*
Y162598D01*
X893602D01*
Y161417D01*
X856398D01*
Y162598D01*
X856398D01*
X856212Y163047D01*
X857978Y164813D01*
X858440Y164622D01*
Y164370D01*
X858539Y163871D01*
X858822Y163448D01*
X859245Y163165D01*
X859744Y163066D01*
X891240D01*
X891739Y163165D01*
X892163Y163448D01*
X892445Y163871D01*
X892545Y164370D01*
Y187992D01*
X892445Y188491D01*
X892163Y188915D01*
X891739Y189197D01*
X891240Y189297D01*
X862386D01*
X862064Y189797D01*
X862135Y190157D01*
X862021Y190734D01*
X861694Y191222D01*
X861206Y191548D01*
X860630Y191663D01*
X860054Y191548D01*
X859566Y191222D01*
X859239Y190734D01*
X859149Y190278D01*
X859131D01*
X858823Y190216D01*
X858561Y190042D01*
X858561Y190042D01*
X857695Y189175D01*
X857520Y188913D01*
X857458Y188605D01*
X857458Y188605D01*
Y166574D01*
X854683Y163798D01*
X852362D01*
X852054Y163737D01*
X851792Y163562D01*
X851792Y163562D01*
X851238Y163008D01*
X849713D01*
Y160433D01*
X848713D01*
Y163008D01*
X846736D01*
Y161417D01*
X846161D01*
Y162598D01*
X842028D01*
Y161417D01*
X841043D01*
Y162598D01*
X836909D01*
Y161417D01*
X835630D01*
Y222963D01*
X836130Y223114D01*
X836239Y222951D01*
X836863Y222535D01*
X837098Y222488D01*
Y224311D01*
Y226134D01*
X836863Y226087D01*
X836239Y225671D01*
X836130Y225508D01*
X835630Y225659D01*
Y240158D01*
X845844D01*
X846090Y239657D01*
X846032Y239582D01*
X845771Y238952D01*
X845715Y238524D01*
X837303D01*
Y229626D01*
X850886D01*
Y235763D01*
X850908Y235933D01*
Y237193D01*
X853872Y240158D01*
X863583D01*
Y233467D01*
X863499Y233450D01*
X863238Y233275D01*
X863238Y233275D01*
X849454Y219492D01*
X849280Y219230D01*
X849272Y219193D01*
X837303D01*
Y210295D01*
X850886D01*
Y218643D01*
X863121Y230879D01*
X863583Y230687D01*
Y230512D01*
X869488D01*
Y240158D01*
X881693D01*
Y230512D01*
X887598D01*
Y237258D01*
X887922Y237597D01*
X888275Y237668D01*
X892028D01*
Y236614D01*
X896161D01*
Y239495D01*
X896661Y239702D01*
X899485Y236878D01*
Y235933D01*
X899508Y235763D01*
Y229626D01*
X913091D01*
Y238524D01*
X904637D01*
X904622Y238637D01*
X904361Y239267D01*
X904062Y239657D01*
X904265Y240158D01*
X914961D01*
Y207876D01*
D02*
G37*
G36*
X992626Y189354D02*
X994602D01*
Y190945D01*
X995177D01*
Y189764D01*
X999311D01*
Y190945D01*
X1000295D01*
Y189764D01*
X1004429D01*
Y190945D01*
X1005709D01*
Y129400D01*
X1005209Y129248D01*
X1005100Y129411D01*
X1004476Y129828D01*
X1004240Y129875D01*
Y128051D01*
Y126228D01*
X1004476Y126275D01*
X1005100Y126692D01*
X1005209Y126855D01*
X1005709Y126703D01*
Y112205D01*
X995495D01*
X995248Y112705D01*
X995306Y112780D01*
X995567Y113410D01*
X995624Y113839D01*
X1004035D01*
Y122736D01*
X990453D01*
Y116599D01*
X990430Y116429D01*
Y115169D01*
X987466Y112205D01*
X977756D01*
Y117143D01*
X977839Y117160D01*
X978101Y117335D01*
X993590Y132824D01*
X993590Y132824D01*
X993765Y133086D01*
X993781Y133169D01*
X1004035D01*
Y142067D01*
X990453D01*
Y133169D01*
X991002D01*
X991193Y132707D01*
X978218Y119732D01*
X977756Y119923D01*
Y121850D01*
X971851D01*
Y112205D01*
X959646D01*
Y121850D01*
X953741D01*
Y115104D01*
X953417Y114765D01*
X953064Y114695D01*
X949311D01*
Y115748D01*
X945177D01*
Y112867D01*
X944677Y112660D01*
X941853Y115484D01*
Y116429D01*
X941831Y116599D01*
Y122736D01*
X928248D01*
Y113839D01*
X936701D01*
X936716Y113725D01*
X936977Y113095D01*
X937277Y112705D01*
X937074Y112205D01*
X926378D01*
Y144486D01*
X926840Y144678D01*
X928989Y142529D01*
X928797Y142067D01*
X928248D01*
Y133169D01*
X941831D01*
Y142067D01*
X931577D01*
X931560Y142150D01*
X931385Y142412D01*
X931385Y142412D01*
X926790Y147007D01*
Y187461D01*
X930274Y190945D01*
X943602D01*
Y189764D01*
X947736D01*
Y190945D01*
X984941D01*
Y189764D01*
X984941D01*
X985127Y189315D01*
X983558Y187746D01*
X983096Y187937D01*
Y187992D01*
X982997Y188491D01*
X982714Y188915D01*
X982291Y189197D01*
X981791Y189297D01*
X950295D01*
X949796Y189197D01*
X949373Y188915D01*
X949090Y188491D01*
X948991Y187992D01*
Y164370D01*
X949090Y163871D01*
X949373Y163448D01*
X949796Y163165D01*
X950295Y163066D01*
X978953D01*
X979275Y162566D01*
X979203Y162205D01*
X979318Y161629D01*
X979644Y161140D01*
X980133Y160814D01*
X980709Y160699D01*
X981285Y160814D01*
X981773Y161140D01*
X982099Y161629D01*
X982111Y161687D01*
X982289Y161723D01*
X982551Y161897D01*
X983841Y163187D01*
X983841Y163187D01*
X984015Y163449D01*
X984077Y163757D01*
Y185985D01*
X986656Y188564D01*
X988976D01*
X988976Y188564D01*
X989285Y188625D01*
X989546Y188800D01*
X990100Y189354D01*
X991626D01*
Y191929D01*
X992626D01*
Y189354D01*
D02*
G37*
G36*
X1096063Y207876D02*
X1095601Y207684D01*
X1093452Y209833D01*
X1093644Y210295D01*
X1094193D01*
Y219193D01*
X1080610D01*
Y210295D01*
X1090864D01*
X1090881Y210212D01*
X1091056Y209950D01*
X1095651Y205355D01*
Y164901D01*
X1092167Y161417D01*
X1078839D01*
Y162598D01*
X1074705D01*
Y161417D01*
X1037500D01*
Y162598D01*
X1037500D01*
X1037314Y163047D01*
X1039080Y164813D01*
X1039542Y164622D01*
Y164370D01*
X1039641Y163871D01*
X1039924Y163448D01*
X1040347Y163165D01*
X1040847Y163066D01*
X1072342D01*
X1072842Y163165D01*
X1073265Y163448D01*
X1073548Y163871D01*
X1073647Y164370D01*
Y187992D01*
X1073548Y188491D01*
X1073265Y188915D01*
X1072842Y189197D01*
X1072342Y189297D01*
X1043761D01*
X1043618Y189472D01*
X1043556Y189780D01*
X1043382Y190042D01*
X1043231Y190193D01*
X1043123Y190734D01*
X1042797Y191222D01*
X1042308Y191548D01*
X1041732Y191663D01*
X1041156Y191548D01*
X1040668Y191222D01*
X1040342Y190734D01*
X1040251Y190278D01*
X1040234D01*
X1039925Y190216D01*
X1039664Y190042D01*
X1039664Y190042D01*
X1038797Y189175D01*
X1038622Y188913D01*
X1038561Y188605D01*
X1038561Y188605D01*
Y166574D01*
X1035785Y163798D01*
X1033465D01*
X1033156Y163737D01*
X1032895Y163562D01*
X1032895Y163562D01*
X1032340Y163008D01*
X1030815D01*
Y160433D01*
X1029815D01*
Y163008D01*
X1027839D01*
Y161417D01*
X1027264D01*
Y162598D01*
X1023130D01*
Y161417D01*
X1022146D01*
Y162598D01*
X1018012D01*
Y161417D01*
X1016732D01*
Y222963D01*
X1017232Y223114D01*
X1017341Y222951D01*
X1017965Y222535D01*
X1018201Y222488D01*
Y224311D01*
Y226134D01*
X1017965Y226087D01*
X1017341Y225671D01*
X1017232Y225508D01*
X1016732Y225659D01*
Y240158D01*
X1026946D01*
X1027193Y239657D01*
X1027135Y239582D01*
X1026874Y238952D01*
X1026817Y238524D01*
X1018406D01*
Y229626D01*
X1031988D01*
Y235763D01*
X1032010Y235933D01*
Y237193D01*
X1034975Y240158D01*
X1044685D01*
Y233467D01*
X1044602Y233450D01*
X1044340Y233275D01*
X1044340Y233275D01*
X1030557Y219492D01*
X1030382Y219230D01*
X1030375Y219193D01*
X1018406D01*
Y210295D01*
X1031988D01*
Y218643D01*
X1044223Y230879D01*
X1044685Y230687D01*
Y230512D01*
X1050590D01*
Y240158D01*
X1062795D01*
Y230512D01*
X1068700D01*
Y237258D01*
X1069024Y237597D01*
X1069377Y237668D01*
X1073130D01*
Y236614D01*
X1077264D01*
Y239495D01*
X1077764Y239702D01*
X1080588Y236878D01*
Y235933D01*
X1080610Y235763D01*
Y229626D01*
X1094193D01*
Y238524D01*
X1085740D01*
X1085725Y238637D01*
X1085464Y239267D01*
X1085164Y239657D01*
X1085367Y240158D01*
X1096063D01*
Y207876D01*
D02*
G37*
G36*
X1173728Y189354D02*
X1175705D01*
Y190945D01*
X1176280D01*
Y189764D01*
X1180413D01*
Y190945D01*
X1181398D01*
Y189764D01*
X1185532D01*
Y190945D01*
X1186811D01*
Y129400D01*
X1186311Y129248D01*
X1186202Y129411D01*
X1185578Y129828D01*
X1185343Y129875D01*
Y128051D01*
Y126228D01*
X1185578Y126275D01*
X1186202Y126692D01*
X1186311Y126855D01*
X1186811Y126703D01*
Y112205D01*
X1176597D01*
X1176351Y112705D01*
X1176408Y112780D01*
X1176670Y113410D01*
X1176726Y113839D01*
X1185138D01*
Y122736D01*
X1171555D01*
Y116599D01*
X1171533Y116429D01*
Y115169D01*
X1168569Y112205D01*
X1158858D01*
Y118895D01*
X1158942Y118912D01*
X1159203Y119087D01*
X1172987Y132870D01*
X1172987Y132870D01*
X1173161Y133132D01*
X1173169Y133169D01*
X1185138D01*
Y142067D01*
X1171555D01*
Y133719D01*
X1159320Y121484D01*
X1158858Y121675D01*
Y121850D01*
X1152953D01*
Y112205D01*
X1140748D01*
Y121850D01*
X1134843D01*
Y115104D01*
X1134519Y114765D01*
X1134166Y114695D01*
X1130413D01*
Y115748D01*
X1126280D01*
Y112867D01*
X1125780Y112660D01*
X1122955Y115484D01*
Y116429D01*
X1122933Y116599D01*
Y122736D01*
X1109350D01*
Y113839D01*
X1117804D01*
X1117819Y113725D01*
X1118080Y113095D01*
X1118379Y112705D01*
X1118176Y112205D01*
X1107480D01*
Y144486D01*
X1107942Y144678D01*
X1110091Y142529D01*
X1109900Y142067D01*
X1109350D01*
Y133169D01*
X1122933D01*
Y142067D01*
X1112679D01*
X1112663Y142150D01*
X1112488Y142412D01*
X1112488Y142412D01*
X1107893Y147007D01*
Y187461D01*
X1111376Y190945D01*
X1124705D01*
Y189764D01*
X1128839D01*
Y190945D01*
X1166043D01*
Y189764D01*
X1166043D01*
X1166229Y189315D01*
X1164660Y187746D01*
X1164198Y187937D01*
Y187992D01*
X1164099Y188491D01*
X1163816Y188915D01*
X1163393Y189197D01*
X1162894Y189297D01*
X1131398D01*
X1130898Y189197D01*
X1130475Y188915D01*
X1130192Y188491D01*
X1130093Y187992D01*
Y164370D01*
X1130192Y163871D01*
X1130475Y163448D01*
X1130898Y163165D01*
X1131398Y163066D01*
X1160055D01*
X1160378Y162566D01*
X1160306Y162205D01*
X1160420Y161629D01*
X1160747Y161140D01*
X1161235Y160814D01*
X1161811Y160699D01*
X1162387Y160814D01*
X1162875Y161140D01*
X1163202Y161629D01*
X1163213Y161687D01*
X1163392Y161723D01*
X1163653Y161897D01*
X1164943Y163187D01*
X1164943Y163187D01*
X1165118Y163449D01*
X1165179Y163757D01*
Y185985D01*
X1167758Y188564D01*
X1170079D01*
X1170079Y188564D01*
X1170387Y188625D01*
X1170649Y188800D01*
X1171203Y189354D01*
X1172728D01*
Y191929D01*
X1173728D01*
Y189354D01*
D02*
G37*
G36*
X1277165Y207876D02*
X1276703Y207684D01*
X1274555Y209833D01*
X1274746Y210295D01*
X1275295D01*
Y219193D01*
X1261713D01*
Y210295D01*
X1271967D01*
X1271983Y210212D01*
X1272158Y209950D01*
X1276753Y205355D01*
Y164901D01*
X1273269Y161417D01*
X1259941D01*
Y162598D01*
X1255807D01*
Y161417D01*
X1218602D01*
Y162598D01*
X1218602D01*
X1218416Y163047D01*
X1220182Y164813D01*
X1220644Y164622D01*
Y164370D01*
X1220743Y163871D01*
X1221026Y163448D01*
X1221449Y163165D01*
X1221949Y163066D01*
X1253445D01*
X1253944Y163165D01*
X1254367Y163448D01*
X1254650Y163871D01*
X1254749Y164370D01*
Y187992D01*
X1254650Y188491D01*
X1254367Y188915D01*
X1253944Y189197D01*
X1253445Y189297D01*
X1224591D01*
X1224268Y189797D01*
X1224340Y190157D01*
X1224225Y190734D01*
X1223899Y191222D01*
X1223411Y191548D01*
X1222835Y191663D01*
X1222259Y191548D01*
X1221770Y191222D01*
X1221444Y190734D01*
X1221353Y190278D01*
X1221336D01*
X1221027Y190216D01*
X1220766Y190042D01*
X1220766Y190042D01*
X1219899Y189175D01*
X1219725Y188913D01*
X1219663Y188605D01*
X1219663Y188605D01*
Y166574D01*
X1216887Y163798D01*
X1214567D01*
X1214258Y163737D01*
X1213997Y163562D01*
X1213997Y163562D01*
X1213443Y163008D01*
X1211917D01*
Y160433D01*
X1210917D01*
Y163008D01*
X1208941D01*
Y161417D01*
X1208366D01*
Y162598D01*
X1204232D01*
Y161417D01*
X1203248D01*
Y162598D01*
X1199114D01*
Y161417D01*
X1197835D01*
Y222963D01*
X1198335Y223114D01*
X1198444Y222951D01*
X1199067Y222535D01*
X1199303Y222488D01*
Y224311D01*
Y226134D01*
X1199067Y226087D01*
X1198444Y225671D01*
X1198335Y225508D01*
X1197835Y225659D01*
Y240158D01*
X1208049D01*
X1208295Y239657D01*
X1208237Y239582D01*
X1207976Y238952D01*
X1207920Y238524D01*
X1199508D01*
Y229626D01*
X1213091D01*
Y235763D01*
X1213113Y235933D01*
Y237193D01*
X1216077Y240158D01*
X1225788D01*
Y233467D01*
X1225704Y233450D01*
X1225443Y233275D01*
X1225443Y233275D01*
X1211659Y219492D01*
X1211484Y219230D01*
X1211477Y219193D01*
X1199508D01*
Y210295D01*
X1213091D01*
Y218643D01*
X1225326Y230879D01*
X1225788Y230687D01*
Y230512D01*
X1231693D01*
Y240158D01*
X1243898D01*
Y230512D01*
X1249803D01*
Y237258D01*
X1250126Y237597D01*
X1250480Y237668D01*
X1254232D01*
Y236614D01*
X1258366D01*
Y239495D01*
X1258866Y239702D01*
X1261690Y236878D01*
Y235933D01*
X1261713Y235763D01*
Y229626D01*
X1275295D01*
Y238524D01*
X1266842D01*
X1266827Y238637D01*
X1266566Y239267D01*
X1266266Y239657D01*
X1266470Y240158D01*
X1277165D01*
Y207876D01*
D02*
G37*
G36*
X1458268D02*
X1457806Y207684D01*
X1455657Y209833D01*
X1455848Y210295D01*
X1456398D01*
Y219193D01*
X1442815D01*
Y210295D01*
X1453069D01*
X1453086Y210212D01*
X1453260Y209950D01*
X1457855Y205355D01*
Y164901D01*
X1454372Y161417D01*
X1441043D01*
Y162598D01*
X1436909D01*
Y161417D01*
X1399705D01*
Y162598D01*
X1399705D01*
X1399519Y163047D01*
X1401285Y164813D01*
X1401747Y164622D01*
Y164370D01*
X1401846Y163871D01*
X1402129Y163448D01*
X1402552Y163165D01*
X1403051Y163066D01*
X1434547D01*
X1435046Y163165D01*
X1435470Y163448D01*
X1435752Y163871D01*
X1435852Y164370D01*
Y187992D01*
X1435752Y188491D01*
X1435470Y188915D01*
X1435046Y189197D01*
X1434547Y189297D01*
X1405693D01*
X1405371Y189797D01*
X1405442Y190157D01*
X1405328Y190734D01*
X1405001Y191222D01*
X1404513Y191548D01*
X1403937Y191663D01*
X1403361Y191548D01*
X1402873Y191222D01*
X1402546Y190734D01*
X1402456Y190278D01*
X1402438D01*
X1402130Y190216D01*
X1401868Y190042D01*
X1401868Y190042D01*
X1401002Y189175D01*
X1400827Y188913D01*
X1400766Y188605D01*
X1400766Y188605D01*
Y166574D01*
X1397990Y163798D01*
X1395669D01*
X1395361Y163737D01*
X1395099Y163562D01*
X1395099Y163562D01*
X1394545Y163008D01*
X1393020D01*
Y160433D01*
X1392020D01*
Y163008D01*
X1390043D01*
Y161417D01*
X1389468D01*
Y162598D01*
X1385335D01*
Y161417D01*
X1384350D01*
Y162598D01*
X1380217D01*
Y162312D01*
X1379890Y162045D01*
X1379437Y161954D01*
X1378937Y162234D01*
Y195033D01*
X1379437Y195300D01*
X1379640Y195164D01*
X1380217Y195050D01*
X1380793Y195164D01*
X1381281Y195491D01*
X1381607Y195979D01*
X1381722Y196555D01*
X1381607Y197131D01*
X1381281Y197619D01*
X1380793Y197946D01*
X1380217Y198060D01*
X1379640Y197946D01*
X1379437Y197810D01*
X1378937Y198077D01*
Y222963D01*
X1379437Y223114D01*
X1379546Y222951D01*
X1380170Y222535D01*
X1380406Y222488D01*
Y224311D01*
Y226134D01*
X1380170Y226087D01*
X1379546Y225671D01*
X1379437Y225508D01*
X1378937Y225659D01*
Y240158D01*
X1389151D01*
X1389397Y239657D01*
X1389340Y239582D01*
X1389079Y238952D01*
X1389022Y238524D01*
X1380610D01*
Y229626D01*
X1394193D01*
Y235763D01*
X1394215Y235933D01*
Y237193D01*
X1397180Y240158D01*
X1406890D01*
Y233467D01*
X1406806Y233450D01*
X1406545Y233275D01*
X1406545Y233275D01*
X1392761Y219492D01*
X1392587Y219230D01*
X1392579Y219193D01*
X1380610D01*
Y210295D01*
X1394193D01*
Y218643D01*
X1406428Y230879D01*
X1406890Y230687D01*
Y230512D01*
X1412795D01*
Y240158D01*
X1425000D01*
Y230512D01*
X1430905D01*
Y237258D01*
X1431229Y237597D01*
X1431582Y237668D01*
X1435335D01*
Y236614D01*
X1439468D01*
Y239495D01*
X1439968Y239702D01*
X1442793Y236878D01*
Y235933D01*
X1442815Y235763D01*
Y229626D01*
X1456398D01*
Y238524D01*
X1447944D01*
X1447929Y238637D01*
X1447668Y239267D01*
X1447369Y239657D01*
X1447572Y240158D01*
X1458268D01*
Y207876D01*
D02*
G37*
G36*
X1535933Y189354D02*
X1537909D01*
Y190945D01*
X1538484D01*
Y189764D01*
X1542618D01*
Y190945D01*
X1543602D01*
Y189764D01*
X1547736D01*
Y190945D01*
X1549016D01*
Y129400D01*
X1548516Y129248D01*
X1548407Y129411D01*
X1547783Y129828D01*
X1547547Y129875D01*
Y128051D01*
Y126228D01*
X1547783Y126275D01*
X1548407Y126692D01*
X1548516Y126855D01*
X1549016Y126703D01*
Y112205D01*
X1538802D01*
X1538555Y112705D01*
X1538613Y112780D01*
X1538874Y113410D01*
X1538931Y113839D01*
X1547342D01*
Y122736D01*
X1533760D01*
Y116599D01*
X1533737Y116429D01*
Y115169D01*
X1530773Y112205D01*
X1521063D01*
Y118895D01*
X1521146Y118912D01*
X1521408Y119087D01*
X1535191Y132870D01*
X1535191Y132870D01*
X1535366Y133132D01*
X1535373Y133169D01*
X1547342D01*
Y142067D01*
X1533760D01*
Y133719D01*
X1521525Y121484D01*
X1521063Y121675D01*
Y121850D01*
X1515158D01*
Y112205D01*
X1502953D01*
Y121850D01*
X1497048D01*
Y115104D01*
X1496724Y114765D01*
X1496371Y114695D01*
X1492618D01*
Y115748D01*
X1488484D01*
X1488313Y116177D01*
Y116894D01*
X1488484Y117323D01*
X1488813Y117323D01*
X1492618D01*
Y121653D01*
X1488484D01*
Y119104D01*
X1487984Y118952D01*
X1487930Y119033D01*
X1487507Y119316D01*
X1487008Y119415D01*
X1469685D01*
Y124588D01*
X1470252D01*
X1470491Y124231D01*
X1470979Y123905D01*
X1471555Y123790D01*
X1471555Y123790D01*
Y121122D01*
X1482378D01*
X1482547Y121100D01*
X1482717Y121122D01*
X1485138D01*
Y123543D01*
X1485160Y123713D01*
X1485138Y123882D01*
Y130020D01*
X1471555D01*
Y126801D01*
X1471555Y126801D01*
X1470979Y126686D01*
X1470491Y126360D01*
X1470384Y126200D01*
X1469685D01*
Y151770D01*
X1470147Y151961D01*
X1472296Y149812D01*
X1472104Y149350D01*
X1471555D01*
Y140453D01*
X1485138D01*
Y149350D01*
X1474884D01*
X1474867Y149434D01*
X1474693Y149696D01*
X1474692Y149696D01*
X1470097Y154291D01*
Y187461D01*
X1473581Y190945D01*
X1486909D01*
Y189764D01*
X1491043D01*
Y190945D01*
X1528248D01*
Y189764D01*
X1528248D01*
X1528434Y189315D01*
X1526865Y187746D01*
X1526403Y187937D01*
Y187992D01*
X1526304Y188491D01*
X1526021Y188915D01*
X1525598Y189197D01*
X1525098Y189297D01*
X1493602D01*
X1493103Y189197D01*
X1492680Y188915D01*
X1492397Y188491D01*
X1492298Y187992D01*
Y164370D01*
X1492397Y163871D01*
X1492680Y163448D01*
X1493103Y163165D01*
X1493602Y163066D01*
X1522260D01*
X1522582Y162566D01*
X1522511Y162205D01*
X1522625Y161629D01*
X1522951Y161140D01*
X1523440Y160814D01*
X1524016Y160699D01*
X1524592Y160814D01*
X1525080Y161140D01*
X1525406Y161629D01*
X1525418Y161687D01*
X1525596Y161723D01*
X1525858Y161897D01*
X1527148Y163187D01*
X1527148Y163187D01*
X1527323Y163449D01*
X1527384Y163757D01*
Y185985D01*
X1529963Y188564D01*
X1532283D01*
X1532283Y188564D01*
X1532592Y188625D01*
X1532853Y188800D01*
X1533408Y189354D01*
X1534933D01*
Y191929D01*
X1535933D01*
Y189354D01*
D02*
G37*
G36*
X1354831D02*
X1356807D01*
Y190945D01*
X1357382D01*
Y189764D01*
X1361516D01*
Y190945D01*
X1362500D01*
Y189764D01*
X1366634D01*
Y190945D01*
X1367913D01*
Y129400D01*
X1367413Y129248D01*
X1367305Y129411D01*
X1366681Y129828D01*
X1366445Y129875D01*
Y128051D01*
Y126228D01*
X1366681Y126275D01*
X1367305Y126692D01*
X1367413Y126855D01*
X1367913Y126703D01*
Y112205D01*
X1357700D01*
X1357453Y112705D01*
X1357511Y112780D01*
X1357772Y113410D01*
X1357828Y113839D01*
X1366240D01*
Y122736D01*
X1352658D01*
Y116599D01*
X1352635Y116429D01*
Y115169D01*
X1349671Y112205D01*
X1339960D01*
Y117143D01*
X1340044Y117160D01*
X1340306Y117335D01*
X1355795Y132824D01*
X1355795Y132824D01*
X1355970Y133086D01*
X1355986Y133169D01*
X1366240D01*
Y142067D01*
X1352658D01*
Y133169D01*
X1353207D01*
X1353398Y132707D01*
X1340422Y119732D01*
X1339960Y119923D01*
Y121850D01*
X1334055D01*
Y112205D01*
X1321850D01*
Y121850D01*
X1315945D01*
Y115104D01*
X1315622Y114765D01*
X1315269Y114695D01*
X1311516D01*
Y115748D01*
X1307382D01*
Y112867D01*
X1306882Y112660D01*
X1304058Y115484D01*
Y116429D01*
X1304035Y116599D01*
Y122736D01*
X1290453D01*
Y113839D01*
X1298906D01*
X1298921Y113725D01*
X1299182Y113095D01*
X1299482Y112705D01*
X1299278Y112205D01*
X1288583D01*
Y144486D01*
X1289045Y144678D01*
X1291193Y142529D01*
X1291002Y142067D01*
X1290453D01*
Y133169D01*
X1304035D01*
Y142067D01*
X1293781D01*
X1293765Y142150D01*
X1293590Y142412D01*
X1293590Y142412D01*
X1288995Y147007D01*
Y187461D01*
X1292478Y190945D01*
X1305807D01*
Y189764D01*
X1309941D01*
Y190945D01*
X1347146D01*
Y189764D01*
X1347146D01*
X1347332Y189315D01*
X1345763Y187746D01*
X1345301Y187937D01*
Y187992D01*
X1345201Y188491D01*
X1344919Y188915D01*
X1344495Y189197D01*
X1343996Y189297D01*
X1312500D01*
X1312001Y189197D01*
X1311578Y188915D01*
X1311295Y188491D01*
X1311195Y187992D01*
Y164370D01*
X1311295Y163871D01*
X1311578Y163448D01*
X1312001Y163165D01*
X1312500Y163066D01*
X1341096D01*
X1341431Y162566D01*
X1341418Y162500D01*
X1341443Y162378D01*
X1341408Y162205D01*
X1341523Y161629D01*
X1341849Y161140D01*
X1342337Y160814D01*
X1342913Y160699D01*
X1343489Y160814D01*
X1343978Y161140D01*
X1344304Y161629D01*
X1344322Y161720D01*
X1344609Y162084D01*
X1344917Y162146D01*
X1345179Y162321D01*
X1346045Y163187D01*
X1346045Y163187D01*
X1346220Y163449D01*
X1346282Y163757D01*
Y185985D01*
X1348861Y188564D01*
X1351181D01*
X1351181Y188564D01*
X1351490Y188625D01*
X1351751Y188800D01*
X1352305Y189354D01*
X1353831D01*
Y191929D01*
X1354831D01*
Y189354D01*
D02*
G37*
G36*
X1468485Y153957D02*
X1468485Y153957D01*
X1468547Y153648D01*
X1468721Y153387D01*
X1469094Y153014D01*
Y152014D01*
X1469094Y152014D01*
X1469094D01*
Y151887D01*
X1469046Y151770D01*
Y128843D01*
X1468799Y128445D01*
X1440256D01*
Y122343D01*
X1468799D01*
X1469046Y121945D01*
Y121910D01*
X1468691Y121557D01*
X1428543Y121752D01*
Y142955D01*
X1437951Y152362D01*
X1441043D01*
Y156693D01*
X1436909D01*
Y153601D01*
X1429005Y145696D01*
X1428543Y145888D01*
Y160138D01*
X1436909D01*
Y158268D01*
X1441043D01*
Y159627D01*
X1454527D01*
X1454528Y159627D01*
X1454836Y159688D01*
X1455097Y159863D01*
X1455372Y160138D01*
X1468485D01*
Y153957D01*
D02*
G37*
%LPC*%
G36*
X171752Y235039D02*
X167618D01*
Y230709D01*
X171752D01*
Y235039D01*
D02*
G37*
G36*
X113689Y226134D02*
Y224811D01*
X115012D01*
X114965Y225047D01*
X114549Y225671D01*
X113925Y226087D01*
X113689Y226134D01*
D02*
G37*
G36*
X115012Y223811D02*
X113689D01*
Y222488D01*
X113925Y222535D01*
X114549Y222951D01*
X114965Y223575D01*
X115012Y223811D01*
D02*
G37*
G36*
X221358Y154557D02*
X220782Y154442D01*
X220294Y154116D01*
X219968Y153627D01*
X219853Y153051D01*
X219968Y152475D01*
X220294Y151987D01*
X220782Y151661D01*
X221358Y151546D01*
X221934Y151661D01*
X222423Y151987D01*
X222749Y152475D01*
X222864Y153051D01*
X222749Y153627D01*
X222423Y154116D01*
X221934Y154442D01*
X221358Y154557D01*
D02*
G37*
G36*
X278831Y129875D02*
X278595Y129828D01*
X277971Y129411D01*
X277554Y128787D01*
X277507Y128551D01*
X278831D01*
Y129875D01*
D02*
G37*
G36*
Y127551D02*
X277507D01*
X277554Y127315D01*
X277971Y126692D01*
X278595Y126275D01*
X278831Y126228D01*
Y127551D01*
D02*
G37*
G36*
X224902Y121653D02*
X220768D01*
Y117323D01*
X224902D01*
Y121653D01*
D02*
G37*
G36*
X352854Y235039D02*
X348721D01*
Y230709D01*
X352854D01*
Y235039D01*
D02*
G37*
G36*
X294791Y226134D02*
Y224811D01*
X296115D01*
X296068Y225047D01*
X295651Y225671D01*
X295027Y226087D01*
X294791Y226134D01*
D02*
G37*
G36*
X296115Y223811D02*
X294791D01*
Y222488D01*
X295027Y222535D01*
X295651Y222951D01*
X296068Y223575D01*
X296115Y223811D01*
D02*
G37*
G36*
X402067Y152686D02*
X401491Y152572D01*
X401003Y152245D01*
X400676Y151757D01*
X400562Y151181D01*
X400676Y150605D01*
X401003Y150117D01*
X401491Y149790D01*
X402067Y149676D01*
X402643Y149790D01*
X403131Y150117D01*
X403458Y150605D01*
X403572Y151181D01*
X403458Y151757D01*
X403131Y152245D01*
X402643Y152572D01*
X402067Y152686D01*
D02*
G37*
G36*
X459933Y129875D02*
X459697Y129828D01*
X459073Y129411D01*
X458657Y128787D01*
X458610Y128551D01*
X459933D01*
Y129875D01*
D02*
G37*
G36*
Y127551D02*
X458610D01*
X458657Y127315D01*
X459073Y126692D01*
X459697Y126275D01*
X459933Y126228D01*
Y127551D01*
D02*
G37*
G36*
X406004Y121653D02*
X401870D01*
Y117323D01*
X406004D01*
Y121653D01*
D02*
G37*
G36*
X533957Y235039D02*
X529823D01*
Y230709D01*
X533957D01*
Y235039D01*
D02*
G37*
G36*
X475894Y226134D02*
Y224811D01*
X477217D01*
X477170Y225047D01*
X476753Y225671D01*
X476129Y226087D01*
X475894Y226134D01*
D02*
G37*
G36*
X477217Y223811D02*
X475894D01*
Y222488D01*
X476129Y222535D01*
X476753Y222951D01*
X477170Y223575D01*
X477217Y223811D01*
D02*
G37*
G36*
X583071Y151899D02*
X582495Y151784D01*
X582007Y151458D01*
X581680Y150970D01*
X581566Y150394D01*
X581680Y149818D01*
X582007Y149329D01*
X582495Y149003D01*
X583071Y148888D01*
X583647Y149003D01*
X584135Y149329D01*
X584462Y149818D01*
X584576Y150394D01*
X584462Y150970D01*
X584135Y151458D01*
X583647Y151784D01*
X583071Y151899D01*
D02*
G37*
G36*
X641035Y129875D02*
X640800Y129828D01*
X640176Y129411D01*
X639759Y128787D01*
X639712Y128551D01*
X641035D01*
Y129875D01*
D02*
G37*
G36*
Y127551D02*
X639712D01*
X639759Y127315D01*
X640176Y126692D01*
X640800Y126275D01*
X641035Y126228D01*
Y127551D01*
D02*
G37*
G36*
X587106Y121653D02*
X582972D01*
Y117323D01*
X587106D01*
Y121653D01*
D02*
G37*
G36*
X715059Y235039D02*
X710925D01*
Y230709D01*
X715059D01*
Y235039D01*
D02*
G37*
G36*
X656996Y226134D02*
Y224811D01*
X658319D01*
X658273Y225047D01*
X657856Y225671D01*
X657232Y226087D01*
X656996Y226134D01*
D02*
G37*
G36*
X658319Y223811D02*
X656996D01*
Y222488D01*
X657232Y222535D01*
X657856Y222951D01*
X658273Y223575D01*
X658319Y223811D01*
D02*
G37*
G36*
X764272Y149832D02*
X763696Y149717D01*
X763207Y149391D01*
X762881Y148903D01*
X762766Y148327D01*
X762881Y147751D01*
X763207Y147262D01*
X763696Y146936D01*
X764272Y146821D01*
X764848Y146936D01*
X765336Y147262D01*
X765662Y147751D01*
X765777Y148327D01*
X765662Y148903D01*
X765336Y149391D01*
X764848Y149717D01*
X764272Y149832D01*
D02*
G37*
G36*
X822138Y129875D02*
X821902Y129828D01*
X821278Y129411D01*
X820861Y128787D01*
X820815Y128551D01*
X822138D01*
Y129875D01*
D02*
G37*
G36*
Y127551D02*
X820815D01*
X820861Y127315D01*
X821278Y126692D01*
X821902Y126275D01*
X822138Y126228D01*
Y127551D01*
D02*
G37*
G36*
X768209Y121653D02*
X764075D01*
Y117323D01*
X768209D01*
Y121653D01*
D02*
G37*
G36*
X896161Y235039D02*
X892028D01*
Y230709D01*
X896161D01*
Y235039D01*
D02*
G37*
G36*
X838098Y226134D02*
Y224811D01*
X839422D01*
X839375Y225047D01*
X838958Y225671D01*
X838334Y226087D01*
X838098Y226134D01*
D02*
G37*
G36*
X839422Y223811D02*
X838098D01*
Y222488D01*
X838334Y222535D01*
X838958Y222951D01*
X839375Y223575D01*
X839422Y223811D01*
D02*
G37*
G36*
X945472Y148257D02*
X944896Y148143D01*
X944408Y147816D01*
X944082Y147328D01*
X943967Y146752D01*
X944082Y146176D01*
X944408Y145688D01*
X944896Y145361D01*
X945472Y145247D01*
X946049Y145361D01*
X946537Y145688D01*
X946863Y146176D01*
X946978Y146752D01*
X946863Y147328D01*
X946537Y147816D01*
X946049Y148143D01*
X945472Y148257D01*
D02*
G37*
G36*
X1003240Y129875D02*
X1003004Y129828D01*
X1002381Y129411D01*
X1001964Y128787D01*
X1001917Y128551D01*
X1003240D01*
Y129875D01*
D02*
G37*
G36*
Y127551D02*
X1001917D01*
X1001964Y127315D01*
X1002381Y126692D01*
X1003004Y126275D01*
X1003240Y126228D01*
Y127551D01*
D02*
G37*
G36*
X949311Y121653D02*
X945177D01*
Y117323D01*
X949311D01*
Y121653D01*
D02*
G37*
G36*
X1077264Y235039D02*
X1073130D01*
Y230709D01*
X1077264D01*
Y235039D01*
D02*
G37*
G36*
X1019201Y226134D02*
Y224811D01*
X1020524D01*
X1020477Y225047D01*
X1020060Y225671D01*
X1019437Y226087D01*
X1019201Y226134D01*
D02*
G37*
G36*
X1020524Y223811D02*
X1019201D01*
Y222488D01*
X1019437Y222535D01*
X1020060Y222951D01*
X1020477Y223575D01*
X1020524Y223811D01*
D02*
G37*
G36*
X1126575Y146683D02*
X1125999Y146568D01*
X1125510Y146242D01*
X1125184Y145753D01*
X1125070Y145177D01*
X1125184Y144601D01*
X1125510Y144113D01*
X1125999Y143787D01*
X1126575Y143672D01*
X1127151Y143787D01*
X1127639Y144113D01*
X1127966Y144601D01*
X1128080Y145177D01*
X1127966Y145753D01*
X1127639Y146242D01*
X1127151Y146568D01*
X1126575Y146683D01*
D02*
G37*
G36*
X1184342Y129875D02*
X1184107Y129828D01*
X1183483Y129411D01*
X1183066Y128787D01*
X1183019Y128551D01*
X1184342D01*
Y129875D01*
D02*
G37*
G36*
Y127551D02*
X1183019D01*
X1183066Y127315D01*
X1183483Y126692D01*
X1184107Y126275D01*
X1184342Y126228D01*
Y127551D01*
D02*
G37*
G36*
X1130413Y121653D02*
X1126280D01*
Y117323D01*
X1130413D01*
Y121653D01*
D02*
G37*
G36*
X1258366Y235039D02*
X1254232D01*
Y230709D01*
X1258366D01*
Y235039D01*
D02*
G37*
G36*
X1200303Y226134D02*
Y224811D01*
X1201626D01*
X1201580Y225047D01*
X1201163Y225671D01*
X1200539Y226087D01*
X1200303Y226134D01*
D02*
G37*
G36*
X1201626Y223811D02*
X1200303D01*
Y222488D01*
X1200539Y222535D01*
X1201163Y222951D01*
X1201580Y223575D01*
X1201626Y223811D01*
D02*
G37*
G36*
X1439468Y235039D02*
X1435335D01*
Y234676D01*
X1434948Y234358D01*
X1434842Y234379D01*
X1434266Y234265D01*
X1433778Y233938D01*
X1433452Y233450D01*
X1433337Y232874D01*
X1433452Y232298D01*
X1433778Y231810D01*
X1434266Y231483D01*
X1434842Y231369D01*
X1434948Y231390D01*
X1435335Y231072D01*
Y230709D01*
X1439468D01*
Y235039D01*
D02*
G37*
G36*
X1381406Y226134D02*
Y224811D01*
X1382729D01*
X1382682Y225047D01*
X1382265Y225671D01*
X1381641Y226087D01*
X1381406Y226134D01*
D02*
G37*
G36*
X1382729Y223811D02*
X1381406D01*
Y222488D01*
X1381641Y222535D01*
X1382265Y222951D01*
X1382682Y223575D01*
X1382729Y223811D01*
D02*
G37*
G36*
X1488976Y138316D02*
X1488400Y138202D01*
X1487912Y137875D01*
X1487586Y137387D01*
X1487471Y136811D01*
X1487586Y136235D01*
X1487912Y135747D01*
X1488400Y135420D01*
X1488976Y135306D01*
X1489552Y135420D01*
X1490041Y135747D01*
X1490367Y136235D01*
X1490482Y136811D01*
X1490367Y137387D01*
X1490041Y137875D01*
X1489552Y138202D01*
X1488976Y138316D01*
D02*
G37*
G36*
X1546547Y129875D02*
X1546311Y129828D01*
X1545688Y129411D01*
X1545271Y128787D01*
X1545224Y128551D01*
X1546547D01*
Y129875D01*
D02*
G37*
G36*
Y127551D02*
X1545224D01*
X1545271Y127315D01*
X1545688Y126692D01*
X1546311Y126275D01*
X1546547Y126228D01*
Y127551D01*
D02*
G37*
G36*
X1307480Y145501D02*
X1306904Y145387D01*
X1306416Y145061D01*
X1306090Y144572D01*
X1305975Y143996D01*
X1306090Y143420D01*
X1306416Y142932D01*
X1306904Y142605D01*
X1307480Y142491D01*
X1308056Y142605D01*
X1308545Y142932D01*
X1308871Y143420D01*
X1308986Y143996D01*
X1308871Y144572D01*
X1308545Y145061D01*
X1308056Y145387D01*
X1307480Y145501D01*
D02*
G37*
G36*
X1365445Y129875D02*
X1365209Y129828D01*
X1364585Y129411D01*
X1364168Y128787D01*
X1364122Y128551D01*
X1365445D01*
Y129875D01*
D02*
G37*
G36*
Y127551D02*
X1364122D01*
X1364168Y127315D01*
X1364585Y126692D01*
X1365209Y126275D01*
X1365445Y126228D01*
Y127551D01*
D02*
G37*
G36*
X1311516Y121653D02*
X1307382D01*
Y117323D01*
X1311516D01*
Y121653D01*
D02*
G37*
G36*
X1451378Y158395D02*
X1450802Y158281D01*
X1450314Y157954D01*
X1449987Y157466D01*
X1449873Y156890D01*
X1449987Y156314D01*
X1450314Y155825D01*
X1450802Y155499D01*
X1451378Y155385D01*
X1451954Y155499D01*
X1452442Y155825D01*
X1452769Y156314D01*
X1452883Y156890D01*
X1452769Y157466D01*
X1452442Y157954D01*
X1451954Y158281D01*
X1451378Y158395D01*
D02*
G37*
G36*
X1445866D02*
X1445290Y158281D01*
X1444802Y157954D01*
X1444475Y157466D01*
X1444361Y156890D01*
X1444475Y156314D01*
X1444802Y155825D01*
X1445290Y155499D01*
X1445866Y155385D01*
X1446442Y155499D01*
X1446931Y155825D01*
X1447257Y156314D01*
X1447371Y156890D01*
X1447257Y157466D01*
X1446931Y157954D01*
X1446442Y158281D01*
X1445866Y158395D01*
D02*
G37*
%LPD*%
D12*
X1500000Y115515D02*
Y116929D01*
X1498138Y113653D02*
X1500000Y115515D01*
X1496724Y113653D02*
X1498138D01*
X1496654Y113583D02*
X1496724Y113653D01*
X1490551Y113583D02*
X1496654D01*
X1318898Y115515D02*
Y116929D01*
X1317036Y113653D02*
X1318898Y115515D01*
X1315622Y113653D02*
X1317036D01*
X1315551Y113583D02*
X1315622Y113653D01*
X1309449Y113583D02*
X1315551D01*
X1137796Y115515D02*
Y116929D01*
X1135933Y113653D02*
X1137796Y115515D01*
X1134519Y113653D02*
X1135933D01*
X1134449Y113583D02*
X1134519Y113653D01*
X1128347Y113583D02*
X1134449D01*
X956693Y115515D02*
Y116929D01*
X954831Y113653D02*
X956693Y115515D01*
X953417Y113653D02*
X954831D01*
X953347Y113583D02*
X953417Y113653D01*
X947244Y113583D02*
X953347D01*
X775591Y115515D02*
Y116929D01*
X773729Y113653D02*
X775591Y115515D01*
X772315Y113653D02*
X773729D01*
X772244Y113583D02*
X772315Y113653D01*
X766142Y113583D02*
X772244D01*
X594488Y115515D02*
Y116929D01*
X592626Y113653D02*
X594488Y115515D01*
X591212Y113653D02*
X592626D01*
X591142Y113583D02*
X591212Y113653D01*
X585039Y113583D02*
X591142D01*
X413386Y115515D02*
Y116929D01*
X411524Y113653D02*
X413386Y115515D01*
X410110Y113653D02*
X411524D01*
X410040Y113583D02*
X410110Y113653D01*
X403937Y113583D02*
X410040D01*
X1431299Y238779D02*
X1437402D01*
X1431229Y238709D02*
X1431299Y238779D01*
X1429815Y238709D02*
X1431229D01*
X1427952Y236847D02*
X1429815Y238709D01*
X1427952Y235433D02*
Y236847D01*
X1250197Y238779D02*
X1256299D01*
X1250126Y238709D02*
X1250197Y238779D01*
X1248712Y238709D02*
X1250126D01*
X1246850Y236847D02*
X1248712Y238709D01*
X1246850Y235433D02*
Y236847D01*
X1069094Y238779D02*
X1075197D01*
X1069024Y238709D02*
X1069094Y238779D01*
X1067610Y238709D02*
X1069024D01*
X1065748Y236847D02*
X1067610Y238709D01*
X1065748Y235433D02*
Y236847D01*
X887992Y238779D02*
X894094D01*
X887922Y238709D02*
X887992Y238779D01*
X886507Y238709D02*
X887922D01*
X884645Y236847D02*
X886507Y238709D01*
X884645Y235433D02*
Y236847D01*
X706889Y238779D02*
X712992D01*
X706819Y238709D02*
X706889Y238779D01*
X705405Y238709D02*
X706819D01*
X703543Y236847D02*
X705405Y238709D01*
X703543Y235433D02*
Y236847D01*
X525787Y238779D02*
X531890D01*
X525717Y238709D02*
X525787Y238779D01*
X524303Y238709D02*
X525717D01*
X522441Y236847D02*
X524303Y238709D01*
X522441Y235433D02*
Y236847D01*
X344685Y238779D02*
X350787D01*
X344615Y238709D02*
X344685Y238779D01*
X343200Y238709D02*
X344615D01*
X341338Y236847D02*
X343200Y238709D01*
X341338Y235433D02*
Y236847D01*
X222835Y113583D02*
X228937D01*
X229008Y113653D01*
X230422D01*
X232284Y115515D01*
Y116929D01*
X163582Y238779D02*
X169685D01*
X163512Y238709D02*
X163582Y238779D01*
X162098Y238709D02*
X163512D01*
X160236Y236847D02*
X162098Y238709D01*
X160236Y235433D02*
Y236847D01*
D30*
X90118Y61614D02*
D03*
X47678D02*
D03*
Y290748D02*
D03*
X90118D02*
D03*
D31*
X62992Y75118D02*
D03*
X74804D02*
D03*
Y277244D02*
D03*
X62992D02*
D03*
D32*
X76772Y228346D02*
D03*
Y124016D02*
D03*
D33*
X54626Y213582D02*
D03*
Y215551D02*
D03*
Y217519D02*
D03*
Y219489D02*
D03*
Y221457D02*
D03*
Y223426D02*
D03*
Y225394D02*
D03*
Y227362D02*
D03*
Y229330D02*
D03*
Y231299D02*
D03*
Y233267D02*
D03*
Y235237D02*
D03*
Y237205D02*
D03*
Y239174D02*
D03*
Y241142D02*
D03*
Y243110D02*
D03*
X98918D02*
D03*
Y241142D02*
D03*
Y239174D02*
D03*
Y237205D02*
D03*
Y235237D02*
D03*
Y233267D02*
D03*
Y231299D02*
D03*
Y229330D02*
D03*
Y227362D02*
D03*
Y225394D02*
D03*
Y223426D02*
D03*
Y221457D02*
D03*
Y219489D02*
D03*
Y217519D02*
D03*
Y215551D02*
D03*
Y213582D02*
D03*
X54626Y109252D02*
D03*
Y111221D02*
D03*
Y113189D02*
D03*
Y115158D02*
D03*
Y117126D02*
D03*
Y119095D02*
D03*
Y121063D02*
D03*
Y123032D02*
D03*
Y125000D02*
D03*
Y126969D02*
D03*
Y128937D02*
D03*
Y130906D02*
D03*
Y132874D02*
D03*
Y134843D02*
D03*
Y136811D02*
D03*
Y138780D02*
D03*
X98918D02*
D03*
Y136811D02*
D03*
Y134843D02*
D03*
Y132874D02*
D03*
Y130906D02*
D03*
Y128937D02*
D03*
Y126969D02*
D03*
Y125000D02*
D03*
Y123032D02*
D03*
Y121063D02*
D03*
Y119095D02*
D03*
Y117126D02*
D03*
Y115158D02*
D03*
Y113189D02*
D03*
Y111221D02*
D03*
Y109252D02*
D03*
D34*
X62008Y250493D02*
D03*
X63977D02*
D03*
X65945D02*
D03*
X67914D02*
D03*
X69882D02*
D03*
X71851D02*
D03*
X73819D02*
D03*
X75788D02*
D03*
X77756D02*
D03*
X79725D02*
D03*
X81693D02*
D03*
X83662D02*
D03*
X85630D02*
D03*
X87599D02*
D03*
X89567D02*
D03*
X91536D02*
D03*
Y206201D02*
D03*
X89567D02*
D03*
X87599D02*
D03*
X85630D02*
D03*
X83662D02*
D03*
X81693D02*
D03*
X79725D02*
D03*
X77756D02*
D03*
X75788D02*
D03*
X73819D02*
D03*
X71851D02*
D03*
X69882D02*
D03*
X67914D02*
D03*
X65945D02*
D03*
X63977D02*
D03*
X62008D02*
D03*
Y146162D02*
D03*
X63977D02*
D03*
X65945D02*
D03*
X67914D02*
D03*
X69882D02*
D03*
X71851D02*
D03*
X73819D02*
D03*
X75788D02*
D03*
X77756D02*
D03*
X79725D02*
D03*
X81693D02*
D03*
X83662D02*
D03*
X85630D02*
D03*
X87599D02*
D03*
X89567D02*
D03*
X91536D02*
D03*
Y101870D02*
D03*
X89567D02*
D03*
X87599D02*
D03*
X85630D02*
D03*
X83662D02*
D03*
X81693D02*
D03*
X79725D02*
D03*
X77756D02*
D03*
X75788D02*
D03*
X73819D02*
D03*
X71851D02*
D03*
X69882D02*
D03*
X67914D02*
D03*
X65945D02*
D03*
X63977D02*
D03*
X62008D02*
D03*
D35*
X47244Y240158D02*
D03*
Y246457D02*
D03*
Y259055D02*
D03*
Y252756D02*
D03*
X1511811Y212992D02*
D03*
X1506890D02*
D03*
X1416142Y139370D02*
D03*
X1421063D02*
D03*
X1330709Y212992D02*
D03*
X1325787D02*
D03*
X1235039Y139370D02*
D03*
X1239961D02*
D03*
X1149606Y212992D02*
D03*
X1144685D02*
D03*
X1053937Y139370D02*
D03*
X1058858D02*
D03*
X968504Y212992D02*
D03*
X963583D02*
D03*
X872835Y139370D02*
D03*
X877756D02*
D03*
X787402Y212992D02*
D03*
X782480D02*
D03*
X691732Y139370D02*
D03*
X696654D02*
D03*
X606299Y212992D02*
D03*
X601378D02*
D03*
X510630Y139370D02*
D03*
X515551D02*
D03*
X425197Y212992D02*
D03*
X420276D02*
D03*
X329528Y139370D02*
D03*
X334449D02*
D03*
X244094Y212992D02*
D03*
X239173D02*
D03*
X148425Y139370D02*
D03*
X153347D02*
D03*
D36*
X47244Y229331D02*
D03*
Y223425D02*
D03*
X1535433Y191929D02*
D03*
Y197835D02*
D03*
X1392520Y160433D02*
D03*
Y154527D02*
D03*
X1354331Y191929D02*
D03*
Y197835D02*
D03*
X1211417Y160433D02*
D03*
Y154527D02*
D03*
X1173228Y191929D02*
D03*
Y197835D02*
D03*
X1030315Y160433D02*
D03*
Y154527D02*
D03*
X992126Y191929D02*
D03*
Y197835D02*
D03*
X849213Y160433D02*
D03*
Y154527D02*
D03*
X811024Y191929D02*
D03*
Y197835D02*
D03*
X668110Y160433D02*
D03*
Y154527D02*
D03*
X629921Y191929D02*
D03*
Y197835D02*
D03*
X487008Y160433D02*
D03*
Y154527D02*
D03*
X448819Y191929D02*
D03*
Y197835D02*
D03*
X305906Y160433D02*
D03*
Y154527D02*
D03*
X267717Y191929D02*
D03*
Y197835D02*
D03*
X124803Y160433D02*
D03*
Y154527D02*
D03*
X47244Y125000D02*
D03*
Y119095D02*
D03*
X1488976Y197835D02*
D03*
Y191929D02*
D03*
X1438976Y154527D02*
D03*
Y160433D02*
D03*
X1307874Y197835D02*
D03*
Y191929D02*
D03*
X1257874Y154527D02*
D03*
Y160433D02*
D03*
X1126772Y197835D02*
D03*
Y191929D02*
D03*
X1076772Y154527D02*
D03*
Y160433D02*
D03*
X945669Y197835D02*
D03*
Y191929D02*
D03*
X895669Y154527D02*
D03*
Y160433D02*
D03*
X764567Y197835D02*
D03*
Y191929D02*
D03*
X714567Y154527D02*
D03*
Y160433D02*
D03*
X583465Y197835D02*
D03*
Y191929D02*
D03*
X533465Y154527D02*
D03*
Y160433D02*
D03*
X402362Y197835D02*
D03*
Y191929D02*
D03*
X352362Y154527D02*
D03*
Y160433D02*
D03*
X221260Y197835D02*
D03*
Y191929D02*
D03*
X171260Y154527D02*
D03*
Y160433D02*
D03*
X1545669Y197835D02*
D03*
Y191929D02*
D03*
X1382283Y154527D02*
D03*
Y160433D02*
D03*
X1364567Y197835D02*
D03*
Y191929D02*
D03*
X1201181Y154527D02*
D03*
Y160433D02*
D03*
X1183465Y197835D02*
D03*
Y191929D02*
D03*
X1020079Y154527D02*
D03*
Y160433D02*
D03*
X1002362Y197835D02*
D03*
Y191929D02*
D03*
X838976Y154527D02*
D03*
Y160433D02*
D03*
X821260Y197835D02*
D03*
Y191929D02*
D03*
X657874Y154527D02*
D03*
Y160433D02*
D03*
X640158Y197835D02*
D03*
Y191929D02*
D03*
X476772Y154527D02*
D03*
Y160433D02*
D03*
X459055Y197835D02*
D03*
Y191929D02*
D03*
X295669Y154527D02*
D03*
Y160433D02*
D03*
X277953Y197835D02*
D03*
Y191929D02*
D03*
X114567Y154527D02*
D03*
Y160433D02*
D03*
X1490551Y113583D02*
D03*
Y119488D02*
D03*
X1437402Y238779D02*
D03*
Y232874D02*
D03*
X1309449Y113583D02*
D03*
Y119488D02*
D03*
X1256299Y238779D02*
D03*
Y232874D02*
D03*
X1128347Y113583D02*
D03*
Y119488D02*
D03*
X1075197Y238779D02*
D03*
Y232874D02*
D03*
X947244Y113583D02*
D03*
Y119488D02*
D03*
X894094Y238779D02*
D03*
Y232874D02*
D03*
X766142Y113583D02*
D03*
Y119488D02*
D03*
X712992Y238779D02*
D03*
Y232874D02*
D03*
X585039Y113583D02*
D03*
Y119488D02*
D03*
X531890Y238779D02*
D03*
Y232874D02*
D03*
X403937Y113583D02*
D03*
Y119488D02*
D03*
X350787Y238779D02*
D03*
Y232874D02*
D03*
X222835Y113583D02*
D03*
Y119488D02*
D03*
X169685Y238779D02*
D03*
Y232874D02*
D03*
X42520Y223425D02*
D03*
Y229331D02*
D03*
X1530315Y191929D02*
D03*
Y197835D02*
D03*
X1397638Y160433D02*
D03*
Y154527D02*
D03*
X1349213Y191929D02*
D03*
Y197835D02*
D03*
X1216535Y160433D02*
D03*
Y154527D02*
D03*
X1168110Y191929D02*
D03*
Y197835D02*
D03*
X1035433Y160433D02*
D03*
Y154527D02*
D03*
X987008Y191929D02*
D03*
Y197835D02*
D03*
X854331Y160433D02*
D03*
Y154527D02*
D03*
X805906Y191929D02*
D03*
Y197835D02*
D03*
X673228Y160433D02*
D03*
Y154527D02*
D03*
X624803Y191929D02*
D03*
Y197835D02*
D03*
X492126Y160433D02*
D03*
Y154527D02*
D03*
X443701Y191929D02*
D03*
Y197835D02*
D03*
X311024Y160433D02*
D03*
Y154527D02*
D03*
X262598Y191929D02*
D03*
Y197835D02*
D03*
X129921Y160433D02*
D03*
Y154527D02*
D03*
X42520Y119095D02*
D03*
Y125000D02*
D03*
X1540551Y197835D02*
D03*
Y191929D02*
D03*
X1387402Y154527D02*
D03*
Y160433D02*
D03*
X1359449Y197835D02*
D03*
Y191929D02*
D03*
X1206299Y154527D02*
D03*
Y160433D02*
D03*
X1178347Y197835D02*
D03*
Y191929D02*
D03*
X1025197Y154527D02*
D03*
Y160433D02*
D03*
X997244Y197835D02*
D03*
Y191929D02*
D03*
X844094Y154527D02*
D03*
Y160433D02*
D03*
X816142Y197835D02*
D03*
Y191929D02*
D03*
X662992Y154527D02*
D03*
Y160433D02*
D03*
X635039Y197835D02*
D03*
Y191929D02*
D03*
X481890Y154527D02*
D03*
Y160433D02*
D03*
X453937Y197835D02*
D03*
Y191929D02*
D03*
X300787Y154527D02*
D03*
Y160433D02*
D03*
X272835Y197835D02*
D03*
Y191929D02*
D03*
X119685Y154527D02*
D03*
Y160433D02*
D03*
D37*
X89764Y256594D02*
D03*
X83858D02*
D03*
X89764Y152657D02*
D03*
X83858D02*
D03*
X73819Y256594D02*
D03*
X79724D02*
D03*
X73622Y152657D02*
D03*
X79528D02*
D03*
D38*
X1447441Y125394D02*
D03*
Y150000D02*
D03*
X1461614D02*
D03*
Y125394D02*
D03*
D39*
X1518110Y116929D02*
D03*
X1500000D02*
D03*
X1409842Y235433D02*
D03*
X1427952D02*
D03*
X1337008Y116929D02*
D03*
X1318898D02*
D03*
X1228740Y235433D02*
D03*
X1246850D02*
D03*
X1155906Y116929D02*
D03*
X1137796D02*
D03*
X1047638Y235433D02*
D03*
X1065748D02*
D03*
X974803Y116929D02*
D03*
X956693D02*
D03*
X866535Y235433D02*
D03*
X884645D02*
D03*
X793701Y116929D02*
D03*
X775591D02*
D03*
X685433Y235433D02*
D03*
X703543D02*
D03*
X612598Y116929D02*
D03*
X594488D02*
D03*
X504331Y235433D02*
D03*
X522441D02*
D03*
X431496Y116929D02*
D03*
X413386D02*
D03*
X323228Y235433D02*
D03*
X341338D02*
D03*
X250394Y116929D02*
D03*
X232284D02*
D03*
X142126Y235433D02*
D03*
X160236D02*
D03*
D40*
X1509055Y146063D02*
D03*
X1418898Y206299D02*
D03*
X1327953Y146063D02*
D03*
X1237795Y206299D02*
D03*
X1146850Y146063D02*
D03*
X1056693Y206299D02*
D03*
X965748Y146063D02*
D03*
X875590Y206299D02*
D03*
X784646Y146063D02*
D03*
X694488Y206299D02*
D03*
X603543Y146063D02*
D03*
X513386Y206299D02*
D03*
X422441Y146063D02*
D03*
X332283Y206299D02*
D03*
X241339Y146063D02*
D03*
X151181Y206299D02*
D03*
D41*
X87890Y185039D02*
D03*
X81890D02*
D03*
X75890D02*
D03*
X55118D02*
D03*
X61118D02*
D03*
X67118D02*
D03*
X87890Y167323D02*
D03*
X81890D02*
D03*
X75890D02*
D03*
X55118D02*
D03*
X61118D02*
D03*
X67118D02*
D03*
D42*
X54921Y262449D02*
D03*
Y256449D02*
D03*
X65256Y262449D02*
D03*
Y256449D02*
D03*
D43*
X1540551Y118287D02*
D03*
Y137618D02*
D03*
X1387402Y234075D02*
D03*
Y214744D02*
D03*
X1359449Y118287D02*
D03*
Y137618D02*
D03*
X1206299Y234075D02*
D03*
Y214744D02*
D03*
X1178347Y118287D02*
D03*
Y137618D02*
D03*
X1025197Y234075D02*
D03*
Y214744D02*
D03*
X997244Y118287D02*
D03*
Y137618D02*
D03*
X844094Y234075D02*
D03*
Y214744D02*
D03*
X816142Y118287D02*
D03*
Y137618D02*
D03*
X662992Y234075D02*
D03*
Y214744D02*
D03*
X635039Y118287D02*
D03*
Y137618D02*
D03*
X481890Y234075D02*
D03*
Y214744D02*
D03*
X453937Y118287D02*
D03*
Y137618D02*
D03*
X300787Y234075D02*
D03*
Y214744D02*
D03*
X272835Y118287D02*
D03*
Y137618D02*
D03*
X119685Y234075D02*
D03*
Y214744D02*
D03*
X1478347Y144902D02*
D03*
Y125571D02*
D03*
X1449606Y214744D02*
D03*
Y234075D02*
D03*
X1297244Y137618D02*
D03*
Y118287D02*
D03*
X1268504Y214744D02*
D03*
Y234075D02*
D03*
X1116142Y137618D02*
D03*
Y118287D02*
D03*
X1087402Y214744D02*
D03*
Y234075D02*
D03*
X935039Y137618D02*
D03*
Y118287D02*
D03*
X906299Y214744D02*
D03*
Y234075D02*
D03*
X753937Y137618D02*
D03*
Y118287D02*
D03*
X725197Y214744D02*
D03*
Y234075D02*
D03*
X572835Y137618D02*
D03*
Y118287D02*
D03*
X544095Y214744D02*
D03*
Y234075D02*
D03*
X391732Y137618D02*
D03*
Y118287D02*
D03*
X362992Y214744D02*
D03*
Y234075D02*
D03*
X210630Y137618D02*
D03*
Y118287D02*
D03*
X181890Y214744D02*
D03*
Y234075D02*
D03*
D44*
X1461614Y125394D02*
X1478169D01*
X60680Y101772D02*
X61676Y100776D01*
X981981Y162467D02*
X983271Y163757D01*
X438674Y162467D02*
X439964Y163757D01*
X133658Y188605D02*
X134948Y189895D01*
X257571Y162467D02*
X258861Y163757D01*
X1525288Y162467D02*
X1526578Y163757D01*
X1163083Y162467D02*
X1164373Y163757D01*
X1524278Y162467D02*
X1525288D01*
X1524016Y162205D02*
X1524278Y162467D01*
X1221336Y189472D02*
X1221778D01*
X1222464Y190157D01*
X1222835D01*
X1162074Y162467D02*
X1163083D01*
X1161811Y162205D02*
X1162074Y162467D01*
X980971D02*
X981981D01*
X980709Y162205D02*
X980971Y162467D01*
X859131Y189472D02*
X859573D01*
X860259Y190157D01*
X860630D01*
X678029Y189472D02*
X678471D01*
X679156Y190157D01*
X679528D01*
X496926Y189472D02*
X497368D01*
X498054Y190157D01*
X498425D01*
X437664Y162467D02*
X438674D01*
X437402Y162205D02*
X437664Y162467D01*
X315824Y189472D02*
X316266D01*
X316952Y190157D01*
X317323D01*
X256562Y162467D02*
X257571D01*
X256299Y162205D02*
X256562Y162467D01*
X134948Y189895D02*
X135958D01*
X136221Y190157D01*
X121957Y214744D02*
X125615Y218402D01*
X133658Y166043D02*
Y188605D01*
X130607Y162992D02*
X133658Y166043D01*
X266905Y133960D02*
X270563Y137618D01*
X258861Y163757D02*
Y186319D01*
X261913Y189370D01*
X303059Y214744D02*
X306717Y218402D01*
X314957Y188605D02*
X315824Y189472D01*
X314957Y166240D02*
Y188605D01*
X311709Y162992D02*
X314957Y166240D01*
X439964Y163757D02*
Y186319D01*
X443015Y189370D01*
X496060Y188605D02*
X496926Y189472D01*
X496060Y166240D02*
Y188605D01*
X492812Y162992D02*
X496060Y166240D01*
X617424Y162891D02*
X620199D01*
X617424D02*
X618504Y161811D01*
X621066Y163757D02*
Y186319D01*
X620199Y162891D02*
X621066Y163757D01*
Y186319D02*
X624117Y189370D01*
X665264Y214744D02*
X668922Y218402D01*
X677162Y188605D02*
X678029Y189472D01*
X677162Y166240D02*
Y188605D01*
X673914Y162992D02*
X677162Y166240D01*
X798527Y162891D02*
X801302D01*
X798527D02*
X799606Y161811D01*
X802168Y163757D02*
Y186319D01*
X801302Y162891D02*
X802168Y163757D01*
Y186319D02*
X805220Y189370D01*
X846366Y214744D02*
X850024Y218402D01*
X858265Y188605D02*
X859131Y189472D01*
X858265Y166240D02*
Y188605D01*
X855017Y162992D02*
X858265Y166240D01*
X983271Y163757D02*
Y186319D01*
X986322Y189370D01*
X1040234Y189472D02*
X1042812D01*
X1041732Y190551D02*
X1042812Y189472D01*
X1027468Y214744D02*
X1031127Y218402D01*
X1039367Y188605D02*
X1040234Y189472D01*
X1039367Y166240D02*
Y188605D01*
X1036119Y162992D02*
X1039367Y166240D01*
X1172417Y133960D02*
X1176075Y137618D01*
X1164373Y163757D02*
Y186319D01*
X1167424Y189370D01*
X1208571Y214744D02*
X1212229Y218402D01*
X1220469Y188605D02*
X1221336Y189472D01*
X1220469Y166240D02*
Y188605D01*
X1217221Y162992D02*
X1220469Y166240D01*
X1342615Y162891D02*
X1344609D01*
X1342224Y162500D02*
X1342615Y162891D01*
X1342224Y162500D02*
X1342913Y161811D01*
X1345476Y163757D02*
Y186319D01*
X1344609Y162891D02*
X1345476Y163757D01*
Y186319D02*
X1348527Y189370D01*
X1402857Y189472D02*
X1403937Y190551D01*
X1389673Y214744D02*
X1393331Y218402D01*
X1402438Y189472D02*
X1402857D01*
X1401572Y188605D02*
X1402438Y189472D01*
X1401572Y166240D02*
Y188605D01*
X1398324Y162992D02*
X1401572Y166240D01*
X1534621Y133960D02*
X1538280Y137618D01*
X1526578Y163757D02*
Y186319D01*
X1529629Y189370D01*
X73819Y256890D02*
X76413Y259484D01*
X73622Y256693D02*
X73819Y256890D01*
X51880Y264173D02*
X52256Y264549D01*
X46595Y264173D02*
X51880D01*
X45118Y262697D02*
X46595Y264173D01*
X52256Y264549D02*
X54356Y262449D01*
X54921D01*
X47244Y259055D02*
X49850Y256449D01*
X54921D01*
X47244Y259252D02*
X49902Y261910D01*
X47244Y259055D02*
Y259252D01*
X59646Y252756D02*
Y254823D01*
Y251083D02*
Y252756D01*
X47244D02*
X59646D01*
Y254823D02*
X61272Y256449D01*
X65256D01*
X47392Y231840D02*
X51526D01*
X44980Y234252D02*
X47392Y231840D01*
X47244Y235138D02*
X49114Y233267D01*
X47244Y235138D02*
Y240158D01*
X65118Y254488D02*
Y255760D01*
X1540551Y197736D02*
Y197835D01*
X1359449Y197736D02*
Y197835D01*
X1178347Y197736D02*
Y197835D01*
X997244Y197736D02*
Y197835D01*
X1025197Y154527D02*
Y154626D01*
X635039Y197736D02*
Y197835D01*
X453937Y197736D02*
Y197835D01*
X816142Y197736D02*
Y197835D01*
X272835Y197736D02*
Y197835D01*
X1387402Y154527D02*
Y154626D01*
X1206299Y154527D02*
Y154626D01*
X844094Y154527D02*
Y154626D01*
X662992Y154527D02*
Y154626D01*
X481890Y154527D02*
Y154626D01*
X300787Y154527D02*
Y154626D01*
X119685Y154527D02*
Y154626D01*
X61676Y100776D02*
X62230Y100222D01*
X60039Y101772D02*
X60680D01*
X62008Y101107D02*
Y101870D01*
X59449Y121063D02*
X60433Y120079D01*
X59055Y123032D02*
X60433Y124409D01*
X61676Y100776D02*
X62008Y101107D01*
X169983Y153153D02*
X171260Y154429D01*
X156102Y139370D02*
X169885Y153153D01*
X169983D01*
X171260Y154429D02*
Y154527D01*
X54718Y235144D02*
X57868D01*
X54626Y235237D02*
X54718Y235144D01*
X57868D02*
X60335Y232677D01*
X49114Y233267D02*
X54626D01*
X52067Y231299D02*
X54626D01*
X51526Y231840D02*
X52067Y231299D01*
X60433Y245276D02*
X62008Y246850D01*
Y250493D01*
X88253Y259484D02*
X89567Y258169D01*
X76413Y259484D02*
X88253D01*
X73819Y255118D02*
Y256594D01*
X81693Y250493D02*
Y254528D01*
X83662Y246358D02*
Y250493D01*
X85630Y244587D02*
Y250492D01*
X91535Y246260D02*
Y246358D01*
Y250394D01*
X1447441Y125394D02*
X1448228D01*
X1478169D02*
X1478347Y125571D01*
X63977Y105807D02*
X64764Y106595D01*
X67913D01*
X63977Y101870D02*
Y105807D01*
X250394Y116929D02*
Y117495D01*
X252556Y119657D01*
X253121D01*
X266905Y133440D01*
Y133960D01*
X270563Y137618D02*
X272835D01*
X431496Y116929D02*
X432472Y117905D01*
X434224D01*
X449713Y133394D01*
Y133960D01*
X453371Y137618D01*
X453937D01*
X612598Y116929D02*
X613574Y117905D01*
X615326D01*
X630815Y133394D01*
Y133960D01*
X634474Y137618D01*
X635039D01*
X793701Y116929D02*
X794676Y117905D01*
X796428D01*
X811918Y133394D01*
Y133960D01*
X815576Y137618D01*
X816142D01*
X974803Y116929D02*
X975779Y117905D01*
X977531D01*
X993020Y133394D01*
Y133960D01*
X996678Y137618D01*
X997244D01*
X1155906Y116929D02*
Y117495D01*
X1158068Y119657D01*
X1158633D01*
X1172417Y133440D01*
Y133960D01*
X1176075Y137618D02*
X1178347D01*
X1337008Y116929D02*
X1337984Y117905D01*
X1339736D01*
X1355225Y133394D01*
Y133960D01*
X1358883Y137618D01*
X1359449D01*
X1518110Y116929D02*
Y117495D01*
X1520272Y119657D01*
X1520838D01*
X1534621Y133440D01*
Y133960D01*
X1538280Y137618D02*
X1540551D01*
X1409842Y234867D02*
Y235433D01*
X1407681Y232705D02*
X1409842Y234867D01*
X1407115Y232705D02*
X1407681D01*
X1393331Y218922D02*
X1407115Y232705D01*
X1393331Y218402D02*
Y218922D01*
X1387402Y214744D02*
X1389673D01*
X1228740Y234867D02*
Y235433D01*
X1226578Y232705D02*
X1228740Y234867D01*
X1226013Y232705D02*
X1226578D01*
X1212229Y218922D02*
X1226013Y232705D01*
X1212229Y218402D02*
Y218922D01*
X1206299Y214744D02*
X1208571D01*
X1047638Y234867D02*
Y235433D01*
X1045476Y232705D02*
X1047638Y234867D01*
X1044910Y232705D02*
X1045476D01*
X1031127Y218922D02*
X1044910Y232705D01*
X1031127Y218402D02*
Y218922D01*
X1025197Y214744D02*
X1027468D01*
X866535Y234867D02*
Y235433D01*
X864373Y232705D02*
X866535Y234867D01*
X863808Y232705D02*
X864373D01*
X850024Y218922D02*
X863808Y232705D01*
X850024Y218402D02*
Y218922D01*
X844094Y214744D02*
X846366D01*
X685433Y234867D02*
Y235433D01*
X683271Y232705D02*
X685433Y234867D01*
X682705Y232705D02*
X683271D01*
X668922Y218922D02*
X682705Y232705D01*
X668922Y218402D02*
Y218922D01*
X662992Y214744D02*
X665264D01*
X503355Y234457D02*
X504331Y235433D01*
X501603Y234457D02*
X503355D01*
X486114Y218968D02*
X501603Y234457D01*
X486114Y218402D02*
Y218968D01*
X482455Y214744D02*
X486114Y218402D01*
X481890Y214744D02*
X482455D01*
X323228Y234867D02*
Y235433D01*
X321066Y232705D02*
X323228Y234867D01*
X320501Y232705D02*
X321066D01*
X306717Y218922D02*
X320501Y232705D01*
X306717Y218402D02*
Y218922D01*
X300787Y214744D02*
X303059D01*
X142126Y234867D02*
Y235433D01*
X139964Y232705D02*
X142126Y234867D01*
X139398Y232705D02*
X139964D01*
X125615Y218922D02*
X139398Y232705D01*
X125615Y218402D02*
Y218922D01*
X119685Y214744D02*
X121957D01*
X75788Y101771D02*
Y106496D01*
X79725Y101771D02*
Y106496D01*
X83662Y101771D02*
Y106496D01*
X91536Y101771D02*
Y106496D01*
X94390Y111221D02*
X99115D01*
X94390Y115256D02*
X99115D01*
X98918Y119095D02*
X99115D01*
X94390D02*
X98918D01*
X713291Y153153D02*
X714468Y154331D01*
X94390Y123032D02*
X99115D01*
X94390Y126969D02*
X99115D01*
X94390Y130906D02*
X99115D01*
X94390Y134843D02*
X99115D01*
X351086Y153153D02*
X352264Y154331D01*
X94390Y138780D02*
X99115D01*
X89567Y141634D02*
Y146359D01*
X85629Y141634D02*
Y146359D01*
Y141634D02*
X85630Y141634D01*
X89567Y141634D02*
X89567Y141634D01*
X94390Y138779D02*
X94390Y138780D01*
X94390Y134843D02*
X94390Y134843D01*
X94390Y130905D02*
X94390Y130906D01*
X94390Y126969D02*
X94390Y126969D01*
X94390Y123031D02*
X94390Y123032D01*
X94390Y119095D02*
X94390Y119095D01*
X94390Y115256D02*
X94390Y115256D01*
X94390Y111221D02*
X94390Y111221D01*
X91535Y106496D02*
X91536Y106496D01*
X87599Y101870D02*
Y106594D01*
X87598Y106595D02*
X87599Y106594D01*
X83662Y106496D02*
X83662Y106496D01*
X79724Y106496D02*
X79725Y106496D01*
X75787Y106496D02*
X75788Y106496D01*
X71851Y101870D02*
Y106594D01*
X71850Y106595D02*
X71851Y106594D01*
X67913Y106595D02*
X67914Y106594D01*
Y101870D02*
Y106594D01*
X87598Y211024D02*
X90945D01*
X91536Y210433D01*
Y206201D02*
Y210433D01*
X87598Y246358D02*
Y250394D01*
X222835Y119390D02*
Y119488D01*
X89665Y244587D02*
Y248524D01*
Y244389D02*
Y244587D01*
X279229Y193402D02*
X280610Y194783D01*
X279229Y193205D02*
Y193402D01*
X277953Y191929D02*
X279229Y193205D01*
X280610Y194783D02*
Y229493D01*
X279823Y230281D02*
X280610Y229493D01*
X279823Y230281D02*
Y230413D01*
X350787Y232874D02*
Y233071D01*
X92815Y243110D02*
X96949D01*
X403937Y119488D02*
X404035Y119390D01*
X93012Y239075D02*
X96949D01*
X92815D02*
X93012D01*
X460802Y193282D02*
X461811Y194291D01*
X460331Y193282D02*
X460802D01*
X459055Y192006D02*
X460331Y193282D01*
X459055Y191929D02*
Y192006D01*
X461811Y194291D02*
Y220866D01*
X458957Y223721D02*
X461811Y220866D01*
X94784Y237205D02*
X98622D01*
X94488D02*
X94784D01*
X531890Y232874D02*
X531988Y232776D01*
X92913Y235236D02*
X96752D01*
X92618D02*
X92913D01*
X94882Y233268D02*
X99016D01*
X584941Y119587D02*
X585039Y119488D01*
X585039D01*
X641828Y193304D02*
X642815Y194291D01*
X641434Y193304D02*
X641828D01*
X640158Y192028D02*
X641434Y193304D01*
X640158Y191929D02*
Y192028D01*
X642815Y194291D02*
Y217717D01*
X640158Y220374D02*
X642815Y217717D01*
X95078Y229331D02*
X99213D01*
X92913Y231201D02*
X96949D01*
X92815D02*
X92913D01*
X766043Y119783D02*
X766142Y119685D01*
Y119488D02*
Y119685D01*
X822733Y193304D02*
X824016Y194587D01*
X822536Y193304D02*
X822733D01*
X821260Y192028D02*
X822536Y193304D01*
X821260Y191929D02*
Y192028D01*
X824016Y194587D02*
Y208858D01*
X821555Y211319D02*
X824016Y208858D01*
X94685Y225394D02*
X98721D01*
X94882Y217520D02*
X99016D01*
X989579Y189972D02*
Y194070D01*
X988976Y189370D02*
X989579Y189972D01*
X986322Y189370D02*
X988976D01*
X989968Y194460D02*
X994713D01*
X995869Y193304D01*
X997244Y191929D02*
Y192028D01*
X989579Y194070D02*
X989968Y194460D01*
X995869Y193304D02*
X995968D01*
X997244Y192028D01*
X1003639Y193304D02*
X1005413Y195079D01*
X1003639Y193304D02*
X1003639D01*
X1002362Y192028D02*
X1003639Y193304D01*
X1002362Y191929D02*
Y192028D01*
X1005413Y195079D02*
Y205315D01*
X1002362Y208366D02*
X1005413Y205315D01*
X93011Y227362D02*
X97146D01*
X92913Y223425D02*
X97047D01*
X92913Y219587D02*
X97047D01*
X93011Y215551D02*
X97146D01*
X94783Y221457D02*
X98917D01*
X94783Y241142D02*
X98917D01*
X85630Y250493D02*
X85630Y250492D01*
X94291Y213583D02*
X98917D01*
X98918Y213582D01*
X1075197Y232776D02*
X1075295Y232677D01*
X1075197Y232776D02*
Y232874D01*
X1128248Y119488D02*
X1128347D01*
X1107087Y146673D02*
Y187795D01*
Y146673D02*
X1111918Y141842D01*
X1107087Y187795D02*
X1111220Y191929D01*
X1126772D01*
X1184839Y193304D02*
X1185827Y194291D01*
X1184741Y193304D02*
X1184839D01*
X1183465Y192028D02*
X1184741Y193304D01*
X1183465Y191929D02*
Y192028D01*
X1185827Y194291D02*
Y202658D01*
X1183563Y204921D02*
X1185827Y202658D01*
X1256299Y232677D02*
Y232874D01*
X79725Y206201D02*
Y211122D01*
X1309449Y119488D02*
Y119587D01*
X1365942Y193304D02*
X1366831Y194193D01*
X1365843Y193304D02*
X1365942D01*
X1364567Y192028D02*
X1365843Y193304D01*
X1364567Y191929D02*
Y192028D01*
X1366831Y194193D02*
Y195929D01*
X1366834Y195932D01*
Y199800D01*
X1364665Y201969D02*
X1366834Y199800D01*
X75788Y206201D02*
Y211024D01*
X77756Y206201D02*
Y213582D01*
X79724Y211122D02*
X79725Y211122D01*
X81693Y213582D02*
X81693Y213583D01*
X81693Y206201D02*
Y213582D01*
X83563Y206299D02*
X83662Y206201D01*
X83563Y206299D02*
Y211024D01*
X85630Y206201D02*
Y213583D01*
X87598Y211024D02*
X87599Y211023D01*
Y206201D02*
Y211023D01*
X73819Y206201D02*
Y213582D01*
X73819Y213583D01*
X71949Y206299D02*
Y211024D01*
X71851Y206201D02*
X71949Y206299D01*
X69882Y213582D02*
X69882Y213583D01*
X69882Y206201D02*
Y213582D01*
X1434842Y232874D02*
X1434842Y232874D01*
X1437402D01*
Y232776D02*
Y232874D01*
X1437402Y232776D02*
X1437402Y232776D01*
X1379890Y160539D02*
X1382276D01*
X1382283Y160531D01*
Y160433D02*
Y160531D01*
X65158Y211122D02*
X67913D01*
X63977Y206201D02*
Y209941D01*
X65158Y211122D01*
X67913Y206201D02*
Y211122D01*
Y206201D02*
X67914Y206201D01*
X1545669Y191831D02*
Y191929D01*
X1538021Y194460D02*
X1539176Y193304D01*
X1539275D01*
X1533276Y194460D02*
X1538021D01*
X1539275Y193304D02*
X1540551Y192028D01*
X1532886Y189972D02*
Y194070D01*
X1540551Y191929D02*
Y192028D01*
X1532886Y194070D02*
X1533276Y194460D01*
X1532283Y189370D02*
X1532886Y189972D01*
X1529629Y189370D02*
X1532283D01*
X1528940Y193304D02*
X1529039D01*
X1511811Y210433D02*
Y212992D01*
X1529039Y193304D02*
X1530315Y192028D01*
X1511811Y210433D02*
X1528940Y193304D01*
X1530315Y191929D02*
Y192028D01*
X1545669Y197736D02*
Y197835D01*
X1544393Y196460D02*
X1545669Y197736D01*
X1544294Y196460D02*
X1544393D01*
X1541704Y193870D02*
X1544294Y196460D01*
X1541704Y193082D02*
Y193870D01*
X1540551Y191929D02*
X1541704Y193082D01*
X1504134Y212992D02*
X1506890D01*
X1490351Y199209D02*
X1504134Y212992D01*
X1490253Y199209D02*
X1490351D01*
X1488976Y197933D02*
X1490253Y199209D01*
X1473425Y191929D02*
X1488976D01*
X1474123Y148560D02*
Y149126D01*
X1477781Y144902D02*
X1478347D01*
X1474123Y148560D02*
X1477781Y144902D01*
X1469291Y187795D02*
X1473425Y191929D01*
X1469291Y153957D02*
Y187795D01*
Y153957D02*
X1474123Y149126D01*
X1530315Y197835D02*
X1535433D01*
X1356918Y194460D02*
X1358074Y193304D01*
X1358172D01*
X1352173Y194460D02*
X1356918D01*
X1358172Y193304D02*
X1359449Y192028D01*
X1351783Y189972D02*
Y194070D01*
X1359449Y191929D02*
Y192028D01*
X1351783Y194070D02*
X1352173Y194460D01*
X1351181Y189370D02*
X1351783Y189972D01*
X1348527Y189370D02*
X1351181D01*
X1342913Y161811D02*
Y162205D01*
X1347838Y193304D02*
X1347936D01*
X1330709Y210433D02*
Y212992D01*
X1347936Y193304D02*
X1349213Y192028D01*
X1330709Y210433D02*
X1347838Y193304D01*
X1349213Y191929D02*
Y192028D01*
X1364567Y197736D02*
Y197835D01*
X1363291Y196460D02*
X1364567Y197736D01*
X1363192Y196460D02*
X1363291D01*
X1360602Y193870D02*
X1363192Y196460D01*
X1360602Y193082D02*
Y193870D01*
X1359449Y191929D02*
X1360602Y193082D01*
X1323032Y212992D02*
X1325787D01*
X1309249Y199209D02*
X1323032Y212992D01*
X1309150Y199209D02*
X1309249D01*
X1307874Y197933D02*
X1309150Y199209D01*
X1292323Y191929D02*
X1307874D01*
X1293020Y141276D02*
Y141842D01*
X1296678Y137618D02*
X1297244D01*
X1293020Y141276D02*
X1296678Y137618D01*
X1288189Y187795D02*
X1292323Y191929D01*
X1288189Y146673D02*
Y187795D01*
Y146673D02*
X1293020Y141842D01*
X1349213Y197835D02*
X1354331D01*
X1175816Y194460D02*
X1176972Y193304D01*
X1177070D01*
X1171071Y194460D02*
X1175816D01*
X1177070Y193304D02*
X1178347Y192028D01*
X1170681Y189972D02*
Y194070D01*
X1178347Y191929D02*
Y192028D01*
X1170681Y194070D02*
X1171071Y194460D01*
X1170079Y189370D02*
X1170681Y189972D01*
X1167424Y189370D02*
X1170079D01*
X1166735Y193304D02*
X1166834D01*
X1149606Y210433D02*
Y212992D01*
X1166834Y193304D02*
X1168110Y192028D01*
X1149606Y210433D02*
X1166735Y193304D01*
X1168110Y191929D02*
Y192028D01*
X1183465Y197736D02*
Y197835D01*
X1182188Y196460D02*
X1183465Y197736D01*
X1182090Y196460D02*
X1182188D01*
X1179500Y193870D02*
X1182090Y196460D01*
X1179500Y193082D02*
Y193870D01*
X1178347Y191929D02*
X1179500Y193082D01*
X1141929Y212992D02*
X1144685D01*
X1128146Y199209D02*
X1141929Y212992D01*
X1128048Y199209D02*
X1128146D01*
X1126772Y197933D02*
X1128048Y199209D01*
X1111918Y141276D02*
Y141842D01*
X1115576Y137618D02*
X1116142D01*
X1111918Y141276D02*
X1115576Y137618D01*
X1168110Y197835D02*
X1173228D01*
X985633Y193304D02*
X985732D01*
X968504Y210433D02*
Y212992D01*
X985732Y193304D02*
X987008Y192028D01*
X968504Y210433D02*
X985633Y193304D01*
X987008Y191929D02*
Y192028D01*
X1002362Y197736D02*
Y197835D01*
X1001086Y196460D02*
X1002362Y197736D01*
X1000987Y196460D02*
X1001086D01*
X998397Y193870D02*
X1000987Y196460D01*
X998397Y193082D02*
Y193870D01*
X997244Y191929D02*
X998397Y193082D01*
X960827Y212992D02*
X963583D01*
X947044Y199209D02*
X960827Y212992D01*
X946946Y199209D02*
X947044D01*
X945669Y197933D02*
X946946Y199209D01*
X930118Y191929D02*
X945669D01*
X930815Y141276D02*
Y141842D01*
X934474Y137618D02*
X935039D01*
X930815Y141276D02*
X934474Y137618D01*
X925984Y187795D02*
X930118Y191929D01*
X925984Y146673D02*
Y187795D01*
Y146673D02*
X930815Y141842D01*
X987008Y197835D02*
X992126D01*
X813611Y194460D02*
X814767Y193304D01*
X814865D01*
X808866Y194460D02*
X813611D01*
X814865Y193304D02*
X816142Y192028D01*
X808476Y189972D02*
Y194070D01*
X816142Y191929D02*
Y192028D01*
X808476Y194070D02*
X808866Y194460D01*
X807874Y189370D02*
X808476Y189972D01*
X805220Y189370D02*
X807874D01*
X799606Y161811D02*
Y162205D01*
X804531Y193304D02*
X804629D01*
X787402Y210433D02*
Y212992D01*
X804629Y193304D02*
X805906Y192028D01*
X787402Y210433D02*
X804531Y193304D01*
X805906Y191929D02*
Y192028D01*
X821260Y197736D02*
Y197835D01*
X819983Y196460D02*
X821260Y197736D01*
X819885Y196460D02*
X819983D01*
X817295Y193870D02*
X819885Y196460D01*
X817295Y193082D02*
Y193870D01*
X816142Y191929D02*
X817295Y193082D01*
X779724Y212992D02*
X782480D01*
X765942Y199209D02*
X779724Y212992D01*
X765843Y199209D02*
X765942D01*
X764567Y197933D02*
X765843Y199209D01*
X749016Y191929D02*
X764567D01*
X749713Y141276D02*
Y141842D01*
X753371Y137618D02*
X753937D01*
X749713Y141276D02*
X753371Y137618D01*
X744882Y187795D02*
X749016Y191929D01*
X744882Y146673D02*
Y187795D01*
Y146673D02*
X749713Y141842D01*
X805906Y197835D02*
X811024D01*
X632509Y194460D02*
X633665Y193304D01*
X633763D01*
X627764Y194460D02*
X632509D01*
X633763Y193304D02*
X635039Y192028D01*
X627374Y189972D02*
Y194070D01*
X635039Y191929D02*
Y192028D01*
X627374Y194070D02*
X627764Y194460D01*
X626772Y189370D02*
X627374Y189972D01*
X624117Y189370D02*
X626772D01*
X618504Y161811D02*
Y162205D01*
X623428Y193304D02*
X623527D01*
X606299Y210433D02*
Y212992D01*
X623527Y193304D02*
X624803Y192028D01*
X606299Y210433D02*
X623428Y193304D01*
X624803Y191929D02*
Y192028D01*
X640158Y197736D02*
Y197835D01*
X638881Y196460D02*
X640158Y197736D01*
X638783Y196460D02*
X638881D01*
X636193Y193870D02*
X638783Y196460D01*
X636193Y193082D02*
Y193870D01*
X635039Y191929D02*
X636193Y193082D01*
X598622Y212992D02*
X601378D01*
X584839Y199209D02*
X598622Y212992D01*
X584741Y199209D02*
X584839D01*
X583465Y197933D02*
X584741Y199209D01*
X567913Y191929D02*
X583465D01*
X568611Y141276D02*
Y141842D01*
X572269Y137618D02*
X572835D01*
X568611Y141276D02*
X572269Y137618D01*
X563779Y187795D02*
X567913Y191929D01*
X563779Y146673D02*
Y187795D01*
Y146673D02*
X568611Y141842D01*
X624803Y197835D02*
X629921D01*
X451406Y194460D02*
X452562Y193304D01*
X452661D01*
X446661Y194460D02*
X451406D01*
X452661Y193304D02*
X453937Y192028D01*
X446272Y189972D02*
Y194070D01*
X453937Y191929D02*
Y192028D01*
X446272Y194070D02*
X446661Y194460D01*
X445669Y189370D02*
X446272Y189972D01*
X443015Y189370D02*
X445669D01*
X442326Y193304D02*
X442424D01*
X425197Y210433D02*
Y212992D01*
X442424Y193304D02*
X443701Y192028D01*
X425197Y210433D02*
X442326Y193304D01*
X443701Y191929D02*
Y192028D01*
X459055Y197736D02*
Y197835D01*
X457779Y196460D02*
X459055Y197736D01*
X457680Y196460D02*
X457779D01*
X455090Y193870D02*
X457680Y196460D01*
X455090Y193082D02*
Y193870D01*
X453937Y191929D02*
X455090Y193082D01*
X417520Y212992D02*
X420276D01*
X403737Y199209D02*
X417520Y212992D01*
X403639Y199209D02*
X403737D01*
X402362Y197933D02*
X403639Y199209D01*
X386811Y191929D02*
X402362D01*
X387508Y141276D02*
Y141842D01*
X391167Y137618D02*
X391732D01*
X387508Y141276D02*
X391167Y137618D01*
X382677Y187795D02*
X386811Y191929D01*
X382677Y146673D02*
Y187795D01*
Y146673D02*
X387508Y141842D01*
X443701Y197835D02*
X448819D01*
X1403937Y190157D02*
Y190551D01*
X1395669Y162992D02*
X1398324D01*
X1395067Y158292D02*
Y162390D01*
X1395669Y162992D01*
X1394677Y157902D02*
X1395067Y158292D01*
X1388678Y159058D02*
X1388776D01*
X1387402Y160335D02*
X1388678Y159058D01*
X1387402Y160335D02*
Y160433D01*
X1388776Y159058D02*
X1389932Y157902D01*
X1394677D01*
X1397638Y160335D02*
X1398914Y159058D01*
X1397638Y160335D02*
Y160433D01*
X1399013Y159058D02*
X1416142Y141929D01*
X1398914Y159058D02*
X1399013D01*
X1416142Y139370D02*
Y141929D01*
X1386248Y159280D02*
X1387402Y160433D01*
X1386248Y158493D02*
Y159280D01*
X1383658Y155902D02*
X1386248Y158493D01*
X1383560Y155902D02*
X1383658D01*
X1382283Y154626D02*
X1383560Y155902D01*
X1382283Y154527D02*
Y154626D01*
X1453830Y210520D02*
Y211086D01*
Y210520D02*
X1458661Y205689D01*
X1450172Y214744D02*
X1453830Y211086D01*
X1454528Y160433D02*
X1458661Y164567D01*
Y205689D01*
X1449606Y214744D02*
X1450172D01*
X1438976Y160433D02*
X1454528D01*
X1438976Y154429D02*
Y154527D01*
X1437700Y153153D02*
X1438976Y154429D01*
X1437602Y153153D02*
X1437700D01*
X1423819Y139370D02*
X1437602Y153153D01*
X1421063Y139370D02*
X1423819D01*
X1392520Y154527D02*
X1397638D01*
X1214567Y162992D02*
X1217221D01*
X1213965Y158292D02*
Y162390D01*
X1214567Y162992D01*
X1213575Y157902D02*
X1213965Y158292D01*
X1207576Y159058D02*
X1207674D01*
X1206299Y160335D02*
X1207576Y159058D01*
X1206299Y160335D02*
Y160433D01*
X1207674Y159058D02*
X1208830Y157902D01*
X1213575D01*
X1217812Y159058D02*
X1217910D01*
X1216535Y160335D02*
Y160433D01*
X1217910Y159058D02*
X1235039Y141929D01*
X1216535Y160335D02*
X1217812Y159058D01*
X1235039Y139370D02*
Y141929D01*
X1205146Y159280D02*
X1206299Y160433D01*
X1205146Y158493D02*
Y159280D01*
X1202556Y155902D02*
X1205146Y158493D01*
X1202458Y155902D02*
X1202556D01*
X1201181Y154626D02*
X1202458Y155902D01*
X1201181Y154527D02*
Y154626D01*
X1272728Y210520D02*
Y211086D01*
Y210520D02*
X1277559Y205689D01*
X1269070Y214744D02*
X1272728Y211086D01*
X1273425Y160433D02*
X1277559Y164567D01*
Y205689D01*
X1268504Y214744D02*
X1269070D01*
X1257874Y160433D02*
X1273425D01*
X1257874Y154429D02*
Y154527D01*
X1256598Y153153D02*
X1257874Y154429D01*
X1256499Y153153D02*
X1256598D01*
X1242717Y139370D02*
X1256499Y153153D01*
X1239961Y139370D02*
X1242717D01*
X1211417Y154527D02*
X1216535D01*
X1041732Y190157D02*
Y190551D01*
X1033465Y162992D02*
X1036119D01*
X1032862Y158292D02*
Y162390D01*
X1033465Y162992D01*
X1032472Y157902D02*
X1032862Y158292D01*
X1026473Y159058D02*
X1026572D01*
X1025197Y160335D02*
X1026473Y159058D01*
X1025197Y160335D02*
Y160433D01*
X1026572Y159058D02*
X1027728Y157902D01*
X1032472D01*
X1036709Y159058D02*
X1036808D01*
X1035433Y160335D02*
Y160433D01*
X1036808Y159058D02*
X1053937Y141929D01*
X1035433Y160335D02*
X1036709Y159058D01*
X1053937Y139370D02*
Y141929D01*
X1024044Y159280D02*
X1025197Y160433D01*
X1024044Y158493D02*
Y159280D01*
X1021453Y155902D02*
X1024044Y158493D01*
X1021355Y155902D02*
X1021453D01*
X1020079Y154626D02*
X1021355Y155902D01*
X1020079Y154527D02*
Y154626D01*
X1091625Y210520D02*
Y211086D01*
Y210520D02*
X1096457Y205689D01*
X1087967Y214744D02*
X1091625Y211086D01*
X1092323Y160433D02*
X1096457Y164567D01*
Y205689D01*
X1087402Y214744D02*
X1087967D01*
X1076772Y160433D02*
X1092323D01*
X1075495Y153153D02*
X1076772Y154429D01*
X1075397Y153153D02*
X1075495D01*
X1061614Y139370D02*
X1075397Y153153D01*
X1058858Y139370D02*
X1061614D01*
X1030315Y154527D02*
X1035433D01*
X852362Y162992D02*
X855017D01*
X851760Y158292D02*
Y162390D01*
X852362Y162992D01*
X851370Y157902D02*
X851760Y158292D01*
X845371Y159058D02*
X845469D01*
X844094Y160335D02*
X845371Y159058D01*
X844094Y160335D02*
Y160433D01*
X845469Y159058D02*
X846625Y157902D01*
X851370D01*
X855607Y159058D02*
X855706D01*
X854331Y160335D02*
Y160433D01*
X855706Y159058D02*
X872835Y141929D01*
X854331Y160335D02*
X855607Y159058D01*
X872835Y139370D02*
Y141929D01*
X842941Y159280D02*
X844094Y160433D01*
X842941Y158493D02*
Y159280D01*
X840351Y155902D02*
X842941Y158493D01*
X840253Y155902D02*
X840351D01*
X838976Y154626D02*
X840253Y155902D01*
X838976Y154527D02*
Y154626D01*
X910523Y210520D02*
Y211086D01*
Y210520D02*
X915354Y205689D01*
X906865Y214744D02*
X910523Y211086D01*
X911220Y160433D02*
X915354Y164567D01*
Y205689D01*
X906299Y214744D02*
X906865D01*
X895669Y160433D02*
X911220D01*
X895669Y154429D02*
Y154527D01*
X894393Y153153D02*
X895669Y154429D01*
X894294Y153153D02*
X894393D01*
X880512Y139370D02*
X894294Y153153D01*
X877756Y139370D02*
X880512D01*
X849213Y154527D02*
X854331D01*
X671260Y162992D02*
X673914D01*
X670657Y158292D02*
Y162390D01*
X671260Y162992D01*
X670268Y157902D02*
X670657Y158292D01*
X664268Y159058D02*
X664367D01*
X662992Y160335D02*
X664268Y159058D01*
X662992Y160335D02*
Y160433D01*
X664367Y159058D02*
X665523Y157902D01*
X670268D01*
X673228Y160335D02*
X674505Y159058D01*
X673228Y160335D02*
Y160433D01*
X674603Y159058D02*
X691732Y141929D01*
X674505Y159058D02*
X674603D01*
X691732Y139370D02*
Y141929D01*
X661839Y159280D02*
X662992Y160433D01*
X661839Y158493D02*
Y159280D01*
X659249Y155902D02*
X661839Y158493D01*
X659150Y155902D02*
X659249D01*
X657874Y154626D02*
X659150Y155902D01*
X657874Y154527D02*
Y154626D01*
X729421Y210520D02*
Y211086D01*
Y210520D02*
X734252Y205689D01*
X725763Y214744D02*
X729421Y211086D01*
X730118Y160433D02*
X734252Y164567D01*
Y205689D01*
X725197Y214744D02*
X725763D01*
X714567Y160433D02*
X730118D01*
X713192Y153153D02*
X713291D01*
X699409Y139370D02*
X713192Y153153D01*
X696654Y139370D02*
X699409D01*
X668110Y154527D02*
X673228D01*
X490158Y162992D02*
X492812D01*
X489555Y158292D02*
Y162390D01*
X490158Y162992D01*
X489165Y157902D02*
X489555Y158292D01*
X483166Y159058D02*
X483265D01*
X481890Y160335D02*
X483166Y159058D01*
X481890Y160335D02*
Y160433D01*
X483265Y159058D02*
X484420Y157902D01*
X489165D01*
X493501Y159058D02*
X510630Y141929D01*
Y139370D02*
Y141929D01*
X492126Y160335D02*
X493402Y159058D01*
X492126Y160335D02*
Y160433D01*
X493402Y159058D02*
X493501D01*
X480737Y159280D02*
X481890Y160433D01*
X480737Y158493D02*
Y159280D01*
X478147Y155902D02*
X480737Y158493D01*
X478048Y155902D02*
X478147D01*
X476772Y154626D02*
X478048Y155902D01*
X476772Y154527D02*
Y154626D01*
X548318Y210520D02*
Y211086D01*
Y210520D02*
X553150Y205689D01*
X544660Y214744D02*
X548318Y211086D01*
X549016Y160433D02*
X553150Y164567D01*
Y205689D01*
X544095Y214744D02*
X544660D01*
X533465Y160433D02*
X549016D01*
X532188Y153153D02*
X533465Y154429D01*
X532090Y153153D02*
X532188D01*
X518307Y139370D02*
X532090Y153153D01*
X515551Y139370D02*
X518307D01*
X487008Y154527D02*
X492126D01*
X309055Y162992D02*
X311709D01*
X308453Y158292D02*
Y162390D01*
X309055Y162992D01*
X308063Y157902D02*
X308453Y158292D01*
X302064Y159058D02*
X302162D01*
X300787Y160335D02*
X302064Y159058D01*
X300787Y160335D02*
Y160433D01*
X302162Y159058D02*
X303318Y157902D01*
X308063D01*
X312398Y159058D02*
X329528Y141929D01*
Y139370D02*
Y141929D01*
X311024Y160335D02*
Y160433D01*
Y160335D02*
X312300Y159058D01*
X312398D01*
X299634Y159280D02*
X300787Y160433D01*
X299634Y158493D02*
Y159280D01*
X297044Y155902D02*
X299634Y158493D01*
X296946Y155902D02*
X297044D01*
X295669Y154626D02*
X296946Y155902D01*
X295669Y154527D02*
Y154626D01*
X367216Y210520D02*
Y211086D01*
Y210520D02*
X372047Y205689D01*
X363558Y214744D02*
X367216Y211086D01*
X367913Y160433D02*
X372047Y164567D01*
Y205689D01*
X362992Y214744D02*
X363558D01*
X352362Y160433D02*
X367913D01*
X350987Y153153D02*
X351086D01*
X337205Y139370D02*
X350987Y153153D01*
X334449Y139370D02*
X337205D01*
X305906Y154527D02*
X311024D01*
X261913Y189370D02*
X264567D01*
X265169Y189972D02*
Y194070D01*
X264567Y189370D02*
X265169Y189972D01*
Y194070D02*
X265559Y194460D01*
X271460Y193304D02*
X271558D01*
X272835Y192028D01*
Y191929D02*
Y192028D01*
X270304Y194460D02*
X271460Y193304D01*
X265559Y194460D02*
X270304D01*
X244094Y210433D02*
X261224Y193304D01*
X244094Y210433D02*
Y212992D01*
X261322Y193304D02*
X262598Y192028D01*
Y191929D02*
Y192028D01*
X261224Y193304D02*
X261322D01*
X272835Y191929D02*
X273988Y193082D01*
Y193870D01*
X276578Y196460D01*
X276676D01*
X277953Y197736D01*
Y197835D01*
X206406Y141276D02*
Y141842D01*
X201575Y146673D02*
X206406Y141842D01*
Y141276D02*
X210064Y137618D01*
X201575Y187795D02*
X205709Y191929D01*
X201575Y146673D02*
Y187795D01*
X210064Y137618D02*
X210630D01*
X205709Y191929D02*
X221260D01*
Y197835D02*
Y197933D01*
X222536Y199209D01*
X222635D01*
X236417Y212992D01*
X239173D01*
X262598Y197835D02*
X267717D01*
X60433Y206201D02*
X62007D01*
X62008Y206201D01*
X42520Y125000D02*
Y136024D01*
X52658Y146162D01*
X62008D01*
X42520Y229331D02*
X43110Y229921D01*
X60334Y219489D02*
X60433Y219390D01*
X54626Y219489D02*
X60334D01*
X50099Y217519D02*
X54626D01*
X50000Y217618D02*
X50099Y217519D01*
X59255Y115360D02*
Y115751D01*
X59053Y115158D02*
X59255Y115360D01*
X54921Y112894D02*
X59153D01*
X54626Y113189D02*
X54921Y112894D01*
X54626Y115158D02*
X59053D01*
X48622Y111221D02*
X48622Y111221D01*
X54626D01*
X60728Y109252D02*
X60728Y109252D01*
X54626Y109252D02*
X60728D01*
X48917Y213583D02*
X48917Y213582D01*
X54626D01*
Y215551D02*
X60433D01*
X81890Y181099D02*
Y185039D01*
X79235Y178445D02*
X81890Y181099D01*
X60335Y178445D02*
X79235D01*
X50000Y237205D02*
X50000Y237205D01*
X54626D01*
Y126969D02*
X58366D01*
X59744Y128347D01*
X60827Y140945D02*
X62205Y142323D01*
X60630Y136811D02*
X60827Y136614D01*
X54626Y136811D02*
X60630D01*
X75197Y161221D02*
X79331D01*
X81890Y163779D01*
Y167323D01*
X61390Y163807D02*
Y167051D01*
X61118Y167323D02*
X61390Y167051D01*
Y163807D02*
X63976Y161221D01*
X71949D01*
X50000Y132874D02*
X50000Y132874D01*
X54626D01*
X54625Y125000D02*
X54626Y125000D01*
X47244Y125000D02*
X54625D01*
X47244Y229330D02*
X54626D01*
X47244Y229331D02*
X47244Y229330D01*
X54626Y244882D02*
X55905Y246161D01*
X54626Y243110D02*
Y244882D01*
Y140846D02*
X55216Y141437D01*
X54626Y138780D02*
Y140846D01*
X81693Y146162D02*
Y151181D01*
X58071Y134843D02*
X60630Y132283D01*
X54626Y134843D02*
X58071D01*
X62205Y142323D02*
Y145669D01*
X62008Y145866D02*
X62205Y145669D01*
X62008Y145866D02*
Y146162D01*
X54626Y123032D02*
X59055D01*
X54626Y121063D02*
X59449D01*
X59646Y225394D02*
X60630Y224410D01*
X54626Y225394D02*
X59646D01*
X59055Y227362D02*
X60433Y228740D01*
X54626Y227362D02*
X59055D01*
X58107Y239174D02*
X60433Y236847D01*
X54626Y239174D02*
X58107D01*
X60040Y241142D02*
X60236Y240945D01*
X54626Y241142D02*
X60040D01*
X127953Y162992D02*
X130607D01*
X127350Y162390D02*
X127953Y162992D01*
X127350Y158292D02*
Y162390D01*
X126961Y157902D02*
X127350Y158292D01*
X122216Y157902D02*
X126961D01*
X121060Y159058D02*
X122216Y157902D01*
X120961Y159058D02*
X121060D01*
X119685Y160335D02*
X120961Y159058D01*
X119685Y160335D02*
Y160433D01*
X190945Y164567D02*
Y205689D01*
X186114Y210520D02*
X190945Y205689D01*
X186114Y210520D02*
Y211086D01*
X182455Y214744D02*
X186114Y211086D01*
X181890Y214744D02*
X182455D01*
X186811Y160433D02*
X190945Y164567D01*
X171260Y160433D02*
X186811D01*
X153347Y139370D02*
X156102D01*
X148425D02*
Y141929D01*
X131296Y159058D02*
X148425Y141929D01*
X131198Y159058D02*
X131296D01*
X129921Y160335D02*
X131198Y159058D01*
X129921Y160335D02*
Y160433D01*
X124803Y154527D02*
X129921D01*
X118532Y159280D02*
X119685Y160433D01*
X118532Y158493D02*
Y159280D01*
X115942Y155902D02*
X118532Y158493D01*
X115843Y155902D02*
X115942D01*
X114567Y154626D02*
X115843Y155902D01*
X114567Y154527D02*
Y154626D01*
D45*
X1511811Y212992D02*
Y262303D01*
X1509350Y264764D02*
X1511811Y262303D01*
X73819Y256890D02*
Y260039D01*
Y256594D02*
Y256890D01*
X71457Y262402D02*
X73819Y260039D01*
X67224Y185039D02*
X75890D01*
X758138Y114402D02*
X784941Y87598D01*
X758138Y114402D02*
Y116429D01*
X784941Y87598D02*
X785453D01*
X1480689Y125571D02*
X1482547Y123713D01*
X1478347Y125571D02*
X1480689D01*
X1538209Y118287D02*
X1540551D01*
X1536350Y116429D02*
X1538209Y118287D01*
X1536350Y114087D02*
Y116429D01*
X1509862Y87598D02*
X1536350Y114087D01*
X1509350Y87598D02*
X1509862D01*
X1330709Y212992D02*
Y262303D01*
X1328248Y264764D02*
X1330709Y262303D01*
X1299587Y118287D02*
X1301445Y116429D01*
X1297244Y118287D02*
X1299587D01*
X1301445Y114402D02*
X1328248Y87598D01*
X1301445Y114402D02*
Y116429D01*
X1357106Y118287D02*
X1359449D01*
X1355248Y116429D02*
X1357106Y118287D01*
X1355248Y114087D02*
Y116429D01*
X1328760Y87598D02*
X1355248Y114087D01*
X1328248Y87598D02*
X1328760D01*
X1149606Y212992D02*
Y262303D01*
X1147146Y264764D02*
X1149606Y262303D01*
X1118484Y118287D02*
X1120343Y116429D01*
X1116142Y118287D02*
X1118484D01*
X1120343Y114402D02*
X1147146Y87598D01*
X1120343Y114402D02*
Y116429D01*
X1176004Y118287D02*
X1178347D01*
X1174146Y116429D02*
X1176004Y118287D01*
X1174146Y114087D02*
Y116429D01*
X1147657Y87598D02*
X1174146Y114087D01*
X1147146Y87598D02*
X1147657D01*
X968504Y212992D02*
Y262303D01*
X966043Y264764D02*
X968504Y262303D01*
X937382Y118287D02*
X939240Y116429D01*
X935039Y118287D02*
X937382D01*
X939240Y114402D02*
X966043Y87598D01*
X939240Y114402D02*
Y116429D01*
X994902Y118287D02*
X997244D01*
X993043Y116429D02*
X994902Y118287D01*
X993043Y114087D02*
Y116429D01*
X966555Y87598D02*
X993043Y114087D01*
X966043Y87598D02*
X966555D01*
X787402Y212992D02*
Y262303D01*
X784941Y264764D02*
X787402Y262303D01*
X756280Y118287D02*
X758138Y116429D01*
X753937Y118287D02*
X756280D01*
X813799D02*
X816142D01*
X811941Y116429D02*
X813799Y118287D01*
X811941Y114087D02*
Y116429D01*
X785453Y87598D02*
X811941Y114087D01*
X606299Y212992D02*
Y262303D01*
X603839Y264764D02*
X606299Y262303D01*
X575177Y118287D02*
X577035Y116429D01*
X572835Y118287D02*
X575177D01*
X577035Y114402D02*
X603839Y87598D01*
X577035Y114402D02*
Y116429D01*
X632697Y118287D02*
X635039D01*
X630839Y116429D02*
X632697Y118287D01*
X630839Y114087D02*
Y116429D01*
X604350Y87598D02*
X630839Y114087D01*
X603839Y87598D02*
X604350D01*
X425197Y212992D02*
Y262303D01*
X422736Y264764D02*
X425197Y262303D01*
X394075Y118287D02*
X395933Y116429D01*
X391732Y118287D02*
X394075D01*
X395933Y114402D02*
X422736Y87598D01*
X395933Y114402D02*
Y116429D01*
X451594Y118287D02*
X453937D01*
X449736Y116429D02*
X451594Y118287D01*
X449736Y114087D02*
Y116429D01*
X423248Y87598D02*
X449736Y114087D01*
X422736Y87598D02*
X423248D01*
X1416142Y90059D02*
X1418602Y87598D01*
X1416142Y90059D02*
Y139370D01*
X1445405Y235933D02*
Y237961D01*
X1418602Y264764D02*
X1445405Y237961D01*
Y235933D02*
X1447264Y234075D01*
X1449606D01*
X1418091Y264764D02*
X1418602D01*
X1391602Y238276D02*
X1418091Y264764D01*
X1391602Y235933D02*
Y238276D01*
X1389744Y234075D02*
X1391602Y235933D01*
X1387402Y234075D02*
X1389744D01*
X1235039Y90059D02*
X1237500Y87598D01*
X1235039Y90059D02*
Y139370D01*
X1264303Y235933D02*
Y237961D01*
X1237500Y264764D02*
X1264303Y237961D01*
Y235933D02*
X1266161Y234075D01*
X1268504D01*
X1236988Y264764D02*
X1237500D01*
X1210500Y238276D02*
X1236988Y264764D01*
X1210500Y235933D02*
Y238276D01*
X1208642Y234075D02*
X1210500Y235933D01*
X1206299Y234075D02*
X1208642D01*
X1053937Y90059D02*
X1056398Y87598D01*
X1053937Y90059D02*
Y139370D01*
X1083201Y235933D02*
Y237961D01*
X1056398Y264764D02*
X1083201Y237961D01*
Y235933D02*
X1085059Y234075D01*
X1087402D01*
X1055886Y264764D02*
X1056398D01*
X1029398Y238276D02*
X1055886Y264764D01*
X1029398Y235933D02*
Y238276D01*
X1027539Y234075D02*
X1029398Y235933D01*
X1025197Y234075D02*
X1027539D01*
X872835Y90059D02*
X875295Y87598D01*
X872835Y90059D02*
Y139370D01*
X902098Y235933D02*
Y237961D01*
X875295Y264764D02*
X902098Y237961D01*
Y235933D02*
X903957Y234075D01*
X906299D01*
X874784Y264764D02*
X875295D01*
X848295Y238276D02*
X874784Y264764D01*
X848295Y235933D02*
Y238276D01*
X846437Y234075D02*
X848295Y235933D01*
X844094Y234075D02*
X846437D01*
X691732Y90059D02*
X694193Y87598D01*
X691732Y90059D02*
Y139370D01*
X720996Y235933D02*
Y237961D01*
X694193Y264764D02*
X720996Y237961D01*
Y235933D02*
X722854Y234075D01*
X725197D01*
X693681Y264764D02*
X694193D01*
X667193Y238276D02*
X693681Y264764D01*
X667193Y235933D02*
Y238276D01*
X665335Y234075D02*
X667193Y235933D01*
X662992Y234075D02*
X665335D01*
X510630Y90059D02*
Y139370D01*
Y90059D02*
X513091Y87598D01*
X539894Y235933D02*
Y237961D01*
X513091Y264764D02*
X539894Y237961D01*
Y235933D02*
X541752Y234075D01*
X544095D01*
X512579Y264764D02*
X513091D01*
X486091Y238276D02*
X512579Y264764D01*
X486091Y235933D02*
Y238276D01*
X484232Y234075D02*
X486091Y235933D01*
X481890Y234075D02*
X484232D01*
X329528Y90059D02*
Y139370D01*
Y90059D02*
X331988Y87598D01*
X358791Y235933D02*
Y237961D01*
X331988Y264764D02*
X358791Y237961D01*
Y235933D02*
X360650Y234075D01*
X362992D01*
X331476Y264764D02*
X331988D01*
X304988Y238276D02*
X331476Y264764D01*
X304988Y235933D02*
Y238276D01*
X303130Y234075D02*
X304988Y235933D01*
X300787Y234075D02*
X303130D01*
X244094Y212992D02*
Y262303D01*
X241634Y264764D02*
X244094Y262303D01*
X214831Y114402D02*
X241634Y87598D01*
X212972Y118287D02*
X214831Y116429D01*
Y114402D02*
Y116429D01*
X210630Y118287D02*
X212972D01*
X241634Y87598D02*
X242146D01*
X268634Y114087D01*
Y116429D01*
X270492Y118287D01*
X272835D01*
X79724Y256594D02*
X83760D01*
X79626Y152657D02*
X83858D01*
X42520Y223425D02*
X47244D01*
X42520Y119095D02*
X47244D01*
X67118Y167323D02*
X75890D01*
X150886Y264764D02*
X177689Y237961D01*
Y235933D02*
Y237961D01*
X150374Y264764D02*
X150886D01*
X148425Y90059D02*
X150886Y87598D01*
X148425Y90059D02*
Y139370D01*
X119685Y234075D02*
X122028D01*
X123886Y235933D01*
Y238276D01*
X150374Y264764D01*
X179547Y234075D02*
X181890D01*
X177689Y235933D02*
X179547Y234075D01*
D46*
X1509350Y87598D02*
D03*
Y264764D02*
D03*
X1418602Y264764D02*
D03*
Y87598D02*
D03*
X1328248Y87598D02*
D03*
Y264764D02*
D03*
X1237500Y264764D02*
D03*
Y87598D02*
D03*
X1147146Y87598D02*
D03*
Y264764D02*
D03*
X1056398Y264764D02*
D03*
Y87598D02*
D03*
X966043Y87598D02*
D03*
Y264764D02*
D03*
X875295Y264764D02*
D03*
Y87598D02*
D03*
X784941Y87598D02*
D03*
Y264764D02*
D03*
X694193Y264764D02*
D03*
Y87598D02*
D03*
X603839Y87598D02*
D03*
Y264764D02*
D03*
X513091Y264764D02*
D03*
Y87598D02*
D03*
X422736Y87598D02*
D03*
Y264764D02*
D03*
X331988Y264764D02*
D03*
Y87598D02*
D03*
X241634Y87598D02*
D03*
Y264764D02*
D03*
X150886Y264764D02*
D03*
Y87598D02*
D03*
D47*
X1451378Y156890D02*
D03*
X1445866D02*
D03*
X74803Y281693D02*
D03*
X71457Y262402D02*
D03*
X49902Y261910D02*
D03*
X59646Y251083D02*
D03*
X44980Y234252D02*
D03*
X65158Y262657D02*
D03*
X45118Y262697D02*
D03*
X75305Y268209D02*
D03*
X72937Y268123D02*
D03*
X60039Y101772D02*
D03*
X60433Y120079D02*
D03*
Y124409D02*
D03*
X48622Y111221D02*
D03*
X60728Y109252D02*
D03*
X1490453Y119488D02*
D03*
X1471555Y125295D02*
D03*
X285827Y227953D02*
D03*
X54718Y222441D02*
D03*
X54626Y118110D02*
D03*
X47244Y246850D02*
D03*
X60335Y232677D02*
D03*
X42520Y229331D02*
D03*
X79232Y266398D02*
D03*
Y261398D02*
D03*
X83662Y246358D02*
D03*
X85630Y244587D02*
D03*
X87598Y246358D02*
D03*
X91535D02*
D03*
X55118Y167323D02*
D03*
Y185039D02*
D03*
X87890D02*
D03*
Y167323D02*
D03*
X73622Y152657D02*
D03*
X89764D02*
D03*
X67224Y185335D02*
D03*
X98032Y268898D02*
D03*
X1448228Y125394D02*
D03*
X67118Y167323D02*
D03*
X1488976Y197736D02*
D03*
Y136811D02*
D03*
X1307579Y197835D02*
D03*
X1307480Y143996D02*
D03*
X1257874Y154527D02*
D03*
X1126476Y197835D02*
D03*
X1126575Y145177D02*
D03*
X1076772Y154429D02*
D03*
X945472Y197835D02*
D03*
Y146752D02*
D03*
X895669Y154527D02*
D03*
X764272Y198031D02*
D03*
Y148327D02*
D03*
X714468Y154331D02*
D03*
X583268Y197835D02*
D03*
X583071Y150394D02*
D03*
X533563Y154528D02*
D03*
X402264Y197835D02*
D03*
X402067Y151181D02*
D03*
X352264Y154331D02*
D03*
X221260Y197835D02*
D03*
X221358Y153051D02*
D03*
X171260Y154331D02*
D03*
X85630Y141634D02*
D03*
X89567D02*
D03*
X94390Y138779D02*
D03*
Y134843D02*
D03*
Y130905D02*
D03*
Y126969D02*
D03*
Y123031D02*
D03*
Y119095D02*
D03*
Y115256D02*
D03*
Y111221D02*
D03*
X91535Y106496D02*
D03*
X87598Y106595D02*
D03*
X83662Y106496D02*
D03*
X79724D02*
D03*
X75787D02*
D03*
X71850Y106595D02*
D03*
X67913D02*
D03*
X169685Y232874D02*
D03*
X109744Y240158D02*
D03*
X114567Y160433D02*
D03*
X109744Y237502D02*
D03*
X222835Y230118D02*
D03*
X222835Y119390D02*
D03*
X279823Y230413D02*
D03*
X285827Y230906D02*
D03*
X350787Y233071D02*
D03*
X295669Y160433D02*
D03*
X403937Y224016D02*
D03*
X404035Y119390D02*
D03*
X458957Y223721D02*
D03*
X467126Y225590D02*
D03*
X531988Y232776D02*
D03*
X476772Y160433D02*
D03*
X467126Y222638D02*
D03*
X584941Y220571D02*
D03*
Y119587D02*
D03*
X640158Y220374D02*
D03*
X712992Y232874D02*
D03*
X649016Y221358D02*
D03*
X657874Y160630D02*
D03*
X649016Y218701D02*
D03*
X766043Y213090D02*
D03*
Y119783D02*
D03*
X821555Y211319D02*
D03*
X833957Y213090D02*
D03*
X894094Y232874D02*
D03*
X838976Y160539D02*
D03*
X833957Y209744D02*
D03*
X946653Y209055D02*
D03*
X92913Y219587D02*
D03*
X947244Y119488D02*
D03*
X1002362Y208366D02*
D03*
X62894Y75492D02*
D03*
X74902Y75197D02*
D03*
X62992Y277244D02*
D03*
X89665Y244587D02*
D03*
X94784Y237205D02*
D03*
X93012Y239075D02*
D03*
X94784Y241142D02*
D03*
X93012Y243110D02*
D03*
X92913Y235236D02*
D03*
X94685Y233268D02*
D03*
X92913Y231201D02*
D03*
X94685Y229331D02*
D03*
X92913Y227362D02*
D03*
X94685Y225394D02*
D03*
X94685Y221457D02*
D03*
Y217520D02*
D03*
X92913Y215551D02*
D03*
Y223425D02*
D03*
X94685Y213583D02*
D03*
X1010925Y209154D02*
D03*
X1075295Y232677D02*
D03*
X1020079Y160433D02*
D03*
X1010925Y206496D02*
D03*
X1128248Y205709D02*
D03*
Y119488D02*
D03*
X1183563Y204921D02*
D03*
X1191831Y205807D02*
D03*
X1256299Y232677D02*
D03*
X1201181Y160539D02*
D03*
X1191831Y202953D02*
D03*
X1308957Y202067D02*
D03*
X1309449Y119587D02*
D03*
X1364665Y201969D02*
D03*
X83563Y211024D02*
D03*
X79724D02*
D03*
X87598D02*
D03*
X85630Y213583D02*
D03*
X81693D02*
D03*
X77756Y213582D02*
D03*
X75788Y211024D02*
D03*
X73819Y213583D02*
D03*
X71949Y211024D02*
D03*
X69882Y213583D02*
D03*
X123622Y214961D02*
D03*
X1359547Y197835D02*
D03*
X1434842Y232874D02*
D03*
X1178445Y197835D02*
D03*
X1380217Y196555D02*
D03*
X1379890Y160539D02*
D03*
X1493110Y196358D02*
D03*
X67913Y211024D02*
D03*
X1545669Y191831D02*
D03*
X1524016Y162205D02*
D03*
X1540650Y197835D02*
D03*
X1536614Y137402D02*
D03*
X1500000Y116929D02*
D03*
X1547047Y128051D02*
D03*
X1342913Y162205D02*
D03*
X1355512Y137402D02*
D03*
X1318898Y116929D02*
D03*
X1365945Y128051D02*
D03*
X1161811Y162205D02*
D03*
X1174409Y137402D02*
D03*
X1137796Y116929D02*
D03*
X1184842Y128051D02*
D03*
X980709Y162205D02*
D03*
X997342Y197835D02*
D03*
X993307Y137402D02*
D03*
X956693Y116929D02*
D03*
X1003740Y128051D02*
D03*
X799606Y162205D02*
D03*
X816240Y197835D02*
D03*
X812205Y137402D02*
D03*
X775591Y116929D02*
D03*
X822638Y128051D02*
D03*
X618504Y162205D02*
D03*
X635138Y197835D02*
D03*
X631102Y137402D02*
D03*
X594488Y116929D02*
D03*
X641535Y128051D02*
D03*
X437402Y162205D02*
D03*
X454035Y197835D02*
D03*
X450000Y137402D02*
D03*
X413386Y116929D02*
D03*
X460433Y128051D02*
D03*
X1387303Y154528D02*
D03*
X1403937Y190157D02*
D03*
X1391339Y214961D02*
D03*
X1427952Y235433D02*
D03*
X1380906Y224311D02*
D03*
X1206201Y154528D02*
D03*
X1222835Y190157D02*
D03*
X1210236Y214961D02*
D03*
X1246850Y235433D02*
D03*
X1199803Y224311D02*
D03*
X1025098Y154528D02*
D03*
X1041732Y190157D02*
D03*
X1029134Y214961D02*
D03*
X1065748Y235433D02*
D03*
X1018701Y224311D02*
D03*
X843996Y154528D02*
D03*
X860630Y190157D02*
D03*
X848032Y214961D02*
D03*
X884645Y235433D02*
D03*
X837598Y224311D02*
D03*
X662894Y154528D02*
D03*
X679528Y190157D02*
D03*
X666929Y214961D02*
D03*
X703543Y235433D02*
D03*
X656496Y224311D02*
D03*
X481791Y154528D02*
D03*
X498425Y190157D02*
D03*
X485827Y214961D02*
D03*
X522441Y235433D02*
D03*
X475394Y224311D02*
D03*
X300689Y154528D02*
D03*
X317323Y190157D02*
D03*
X304724Y214961D02*
D03*
X341338Y235433D02*
D03*
X294291Y224311D02*
D03*
X272933Y197835D02*
D03*
X256299Y162205D02*
D03*
X268898Y137402D02*
D03*
X232284Y116929D02*
D03*
X279331Y128051D02*
D03*
X113189Y224311D02*
D03*
X119587Y154528D02*
D03*
X60433Y206201D02*
D03*
Y219390D02*
D03*
X50000Y217618D02*
D03*
X59255Y115751D02*
D03*
X59153Y112894D02*
D03*
X48917Y213583D02*
D03*
X60433Y215551D02*
D03*
X60335Y178445D02*
D03*
Y185039D02*
D03*
X50000Y237205D02*
D03*
X59744Y128347D02*
D03*
X60827Y140945D02*
D03*
Y136614D02*
D03*
X75197Y161221D02*
D03*
X71949D02*
D03*
X50000Y132874D02*
D03*
X55905Y246161D02*
D03*
X55216Y141437D02*
D03*
X60630Y132283D02*
D03*
Y224410D02*
D03*
X60433Y228740D02*
D03*
Y236847D02*
D03*
X60236Y240945D02*
D03*
X60433Y245276D02*
D03*
X136221Y190157D02*
D03*
X160236Y235433D02*
D03*
D48*
X76772Y228346D02*
D03*
Y124016D02*
D03*
M02*
