G04*
G04 #@! TF.GenerationSoftware,Altium Limited,Altium Designer,19.0.10 (269)*
G04*
G04 Layer_Color=32896*
%FSLAX25Y25*%
%MOIN*%
G70*
G01*
G75*
%ADD10C,0.00591*%
%ADD11C,0.00600*%
D10*
X40118Y162933D02*
X70118D01*
Y189429D01*
X40118Y162933D02*
Y189429D01*
X70118D01*
X40118Y266378D02*
X70118D01*
Y292874D01*
X40118Y266378D02*
Y292874D01*
X70118D01*
X40118Y85984D02*
X70118D01*
X40118Y59488D02*
Y85984D01*
X70118Y59488D02*
Y85984D01*
X40118Y59488D02*
X70118D01*
X44882Y201969D02*
X51181D01*
X44882Y198819D02*
Y201969D01*
Y198819D02*
X51181D01*
Y201969D01*
X44882Y258366D02*
X51181D01*
X44882Y255217D02*
Y258366D01*
Y255217D02*
X51181D01*
Y258366D01*
X59055Y198819D02*
X65354D01*
Y201969D01*
X59055D02*
X65354D01*
X59055Y198819D02*
Y201969D01*
Y255217D02*
X65354D01*
Y258366D01*
X59055D02*
X65354D01*
X59055Y255217D02*
Y258366D01*
X60236Y225886D02*
X66535D01*
X60236Y222736D02*
Y225886D01*
Y222736D02*
X66535D01*
Y225886D01*
X60236Y230315D02*
X66535D01*
X60236Y227165D02*
Y230315D01*
Y227165D02*
X66535D01*
Y230315D01*
X59055Y94390D02*
X65354D01*
Y97539D01*
X59055D02*
X65354D01*
X59055Y94390D02*
Y97539D01*
X44882Y153543D02*
X51181D01*
X44882Y150394D02*
Y153543D01*
Y150394D02*
X51181D01*
Y153543D01*
X44882Y97539D02*
X51181D01*
X44882Y94390D02*
Y97539D01*
Y94390D02*
X51181D01*
Y97539D01*
X59055Y150394D02*
X65354D01*
Y153543D01*
X59055D02*
X65354D01*
X59055Y150394D02*
Y153543D01*
X60236Y121653D02*
X66535D01*
X60236Y118504D02*
Y121653D01*
Y118504D02*
X66535D01*
Y121653D01*
X60236Y125984D02*
X66535D01*
X60236Y122835D02*
Y125984D01*
Y122835D02*
X66535D01*
Y125984D01*
X1501377Y154429D02*
X1548622D01*
Y121752D02*
Y154429D01*
X1501377Y121752D02*
X1548622D01*
X1501377D02*
Y154429D01*
X1379331Y197933D02*
X1426575D01*
X1379331D02*
Y230611D01*
X1426575D01*
Y197933D02*
Y230611D01*
X1320275Y154429D02*
X1367519D01*
Y121752D02*
Y154429D01*
X1320275Y121752D02*
X1367519D01*
X1320275D02*
Y154429D01*
X1198229Y197933D02*
X1245473D01*
X1198229D02*
Y230611D01*
X1245473D01*
Y197933D02*
Y230611D01*
X1139173Y154429D02*
X1186417D01*
Y121752D02*
Y154429D01*
X1139173Y121752D02*
X1186417D01*
X1139173D02*
Y154429D01*
X1017126Y197933D02*
X1064371D01*
X1017126D02*
Y230611D01*
X1064371D01*
Y197933D02*
Y230611D01*
X958070Y154429D02*
X1005315D01*
Y121752D02*
Y154429D01*
X958070Y121752D02*
X1005315D01*
X958070D02*
Y154429D01*
X836024Y197933D02*
X883268D01*
X836024D02*
Y230611D01*
X883268D01*
Y197933D02*
Y230611D01*
X776968Y154429D02*
X824212D01*
Y121752D02*
Y154429D01*
X776968Y121752D02*
X824212D01*
X776968D02*
Y154429D01*
X654922Y197933D02*
X702166D01*
X654922D02*
Y230611D01*
X702166D01*
Y197933D02*
Y230611D01*
X595866Y154429D02*
X643110D01*
Y121752D02*
Y154429D01*
X595866Y121752D02*
X643110D01*
X595866D02*
Y154429D01*
X473819Y197933D02*
X521063D01*
X473819D02*
Y230611D01*
X521063D01*
Y197933D02*
Y230611D01*
X414763Y154429D02*
X462008D01*
Y121752D02*
Y154429D01*
X414763Y121752D02*
X462008D01*
X414763D02*
Y154429D01*
X292717Y197933D02*
X339961D01*
X292717D02*
Y230611D01*
X339961D01*
Y197933D02*
Y230611D01*
X233661Y154429D02*
X280905D01*
Y121752D02*
Y154429D01*
X233661Y121752D02*
X280905D01*
X233661D02*
Y154429D01*
X111615Y197933D02*
X158859D01*
X111615D02*
Y230611D01*
X158859D01*
Y197933D02*
Y230611D01*
X100787Y259055D02*
Y278740D01*
X83071D02*
X100787D01*
X83071Y259055D02*
Y278740D01*
Y259055D02*
X100787D01*
X1534744Y156890D02*
Y160039D01*
X1528445Y156890D02*
X1534744D01*
X1528445D02*
Y160039D01*
X1534744D01*
X1393209Y192323D02*
Y195472D01*
X1399508D01*
Y192323D02*
Y195472D01*
X1393209Y192323D02*
X1399508D01*
X1353642Y156890D02*
Y160039D01*
X1347342Y156890D02*
X1353642D01*
X1347342D02*
Y160039D01*
X1353642D01*
X1212106Y192323D02*
Y195472D01*
X1218406D01*
Y192323D02*
Y195472D01*
X1212106Y192323D02*
X1218406D01*
X1172539Y156890D02*
Y160039D01*
X1166240Y156890D02*
X1172539D01*
X1166240D02*
Y160039D01*
X1172539D01*
X1031004Y192323D02*
Y195472D01*
X1037303D01*
Y192323D02*
Y195472D01*
X1031004Y192323D02*
X1037303D01*
X991437Y156890D02*
Y160039D01*
X985138Y156890D02*
X991437D01*
X985138D02*
Y160039D01*
X991437D01*
X849902Y192323D02*
Y195472D01*
X856201D01*
Y192323D02*
Y195472D01*
X849902Y192323D02*
X856201D01*
X810335Y156890D02*
Y160039D01*
X804035Y156890D02*
X810335D01*
X804035D02*
Y160039D01*
X810335D01*
X668799Y192323D02*
Y195472D01*
X675098D01*
Y192323D02*
Y195472D01*
X668799Y192323D02*
X675098D01*
X629232Y156890D02*
Y160039D01*
X622933Y156890D02*
X629232D01*
X622933D02*
Y160039D01*
X629232D01*
X487697Y192323D02*
Y195472D01*
X493996D01*
Y192323D02*
Y195472D01*
X487697Y192323D02*
X493996D01*
X448130Y156890D02*
Y160039D01*
X441831Y156890D02*
X448130D01*
X441831D02*
Y160039D01*
X448130D01*
X306594Y192323D02*
Y195472D01*
X312894D01*
Y192323D02*
Y195472D01*
X306594Y192323D02*
X312894D01*
X267028Y156890D02*
Y160039D01*
X260728Y156890D02*
X267028D01*
X260728D02*
Y160039D01*
X267028D01*
X125492Y192323D02*
Y195472D01*
X131791D01*
Y192323D02*
Y195472D01*
X125492Y192323D02*
X131791D01*
X60236Y246850D02*
X66535D01*
X60236Y243701D02*
Y246850D01*
Y243701D02*
X66535D01*
Y246850D01*
X60236Y242520D02*
X66535D01*
X60236Y239370D02*
Y242520D01*
Y239370D02*
X66535D01*
Y242520D01*
X60236Y238189D02*
X66535D01*
X60236Y235039D02*
Y238189D01*
Y235039D02*
X66535D01*
Y238189D01*
X53543Y200394D02*
Y206693D01*
Y200394D02*
X56693D01*
Y206693D01*
X53543D02*
X56693D01*
Y250492D02*
Y256791D01*
X53543D02*
X56693D01*
X53543Y250492D02*
Y256791D01*
Y250492D02*
X56693D01*
X60630Y142520D02*
X66929D01*
X60630Y139370D02*
Y142520D01*
Y139370D02*
X66929D01*
Y142520D01*
X60630Y138189D02*
X66929D01*
X60630Y135039D02*
Y138189D01*
Y135039D02*
X66929D01*
Y138189D01*
X60630Y133858D02*
X66929D01*
X60630Y130709D02*
Y133858D01*
Y130709D02*
X66929D01*
Y133858D01*
X53543Y95965D02*
Y102264D01*
Y95965D02*
X56693D01*
Y102264D01*
X53543D02*
X56693D01*
Y145669D02*
Y151969D01*
X53543D02*
X56693D01*
X53543Y145669D02*
Y151969D01*
Y145669D02*
X56693D01*
X270472Y112205D02*
Y114075D01*
X268012Y112205D02*
X270472D01*
D11*
X1533169Y194893D02*
X1529570D01*
X1533169Y192493D01*
X1529570D01*
Y191294D02*
Y188894D01*
Y190094D01*
X1533169D01*
X1530170Y185296D02*
X1529570Y185895D01*
Y187095D01*
X1530170Y187695D01*
X1532570D01*
X1533169Y187095D01*
Y185895D01*
X1532570Y185296D01*
X1533169Y180497D02*
Y179298D01*
Y179897D01*
X1529570D01*
X1530170Y180497D01*
Y177498D02*
X1529570Y176898D01*
Y175699D01*
X1530170Y175099D01*
X1532570D01*
X1533169Y175699D01*
Y176898D01*
X1532570Y177498D01*
X1530170D01*
Y173899D02*
X1529570Y173300D01*
Y172100D01*
X1530170Y171500D01*
X1532570D01*
X1533169Y172100D01*
Y173300D01*
X1532570Y173899D01*
X1530170D01*
X1529570Y170300D02*
X1533169D01*
X1531970D01*
X1529570Y167901D01*
X1531370Y169701D01*
X1533169Y167901D01*
X1394783Y157470D02*
X1398382D01*
X1394783Y159869D01*
X1398382D01*
Y161068D02*
Y163468D01*
Y162268D01*
X1394783D01*
X1397783Y167067D02*
X1398382Y166467D01*
Y165267D01*
X1397783Y164667D01*
X1395383D01*
X1394783Y165267D01*
Y166467D01*
X1395383Y167067D01*
X1394783Y171865D02*
Y173065D01*
Y172465D01*
X1398382D01*
X1397783Y171865D01*
Y174864D02*
X1398382Y175464D01*
Y176663D01*
X1397783Y177263D01*
X1395383D01*
X1394783Y176663D01*
Y175464D01*
X1395383Y174864D01*
X1397783D01*
Y178463D02*
X1398382Y179063D01*
Y180262D01*
X1397783Y180862D01*
X1395383D01*
X1394783Y180262D01*
Y179063D01*
X1395383Y178463D01*
X1397783D01*
X1398382Y182062D02*
X1394783D01*
X1395983D01*
X1398382Y184461D01*
X1396583Y182661D01*
X1394783Y184461D01*
X1352067Y194893D02*
X1348468D01*
X1352067Y192493D01*
X1348468D01*
Y191294D02*
Y188894D01*
Y190094D01*
X1352067D01*
X1349068Y185296D02*
X1348468Y185895D01*
Y187095D01*
X1349068Y187695D01*
X1351467D01*
X1352067Y187095D01*
Y185895D01*
X1351467Y185296D01*
X1352067Y180497D02*
Y179298D01*
Y179897D01*
X1348468D01*
X1349068Y180497D01*
Y177498D02*
X1348468Y176898D01*
Y175699D01*
X1349068Y175099D01*
X1351467D01*
X1352067Y175699D01*
Y176898D01*
X1351467Y177498D01*
X1349068D01*
Y173899D02*
X1348468Y173300D01*
Y172100D01*
X1349068Y171500D01*
X1351467D01*
X1352067Y172100D01*
Y173300D01*
X1351467Y173899D01*
X1349068D01*
X1348468Y170300D02*
X1352067D01*
X1350867D01*
X1348468Y167901D01*
X1350268Y169701D01*
X1352067Y167901D01*
X1213681Y157470D02*
X1217280D01*
X1213681Y159869D01*
X1217280D01*
Y161068D02*
Y163468D01*
Y162268D01*
X1213681D01*
X1216680Y167067D02*
X1217280Y166467D01*
Y165267D01*
X1216680Y164667D01*
X1214281D01*
X1213681Y165267D01*
Y166467D01*
X1214281Y167067D01*
X1213681Y171865D02*
Y173065D01*
Y172465D01*
X1217280D01*
X1216680Y171865D01*
Y174864D02*
X1217280Y175464D01*
Y176663D01*
X1216680Y177263D01*
X1214281D01*
X1213681Y176663D01*
Y175464D01*
X1214281Y174864D01*
X1216680D01*
Y178463D02*
X1217280Y179063D01*
Y180262D01*
X1216680Y180862D01*
X1214281D01*
X1213681Y180262D01*
Y179063D01*
X1214281Y178463D01*
X1216680D01*
X1217280Y182062D02*
X1213681D01*
X1214881D01*
X1217280Y184461D01*
X1215481Y182661D01*
X1213681Y184461D01*
X1170965Y194893D02*
X1167366D01*
X1170965Y192493D01*
X1167366D01*
Y191294D02*
Y188894D01*
Y190094D01*
X1170965D01*
X1167966Y185296D02*
X1167366Y185895D01*
Y187095D01*
X1167966Y187695D01*
X1170365D01*
X1170965Y187095D01*
Y185895D01*
X1170365Y185296D01*
X1170965Y180497D02*
Y179298D01*
Y179897D01*
X1167366D01*
X1167966Y180497D01*
Y177498D02*
X1167366Y176898D01*
Y175699D01*
X1167966Y175099D01*
X1170365D01*
X1170965Y175699D01*
Y176898D01*
X1170365Y177498D01*
X1167966D01*
Y173899D02*
X1167366Y173300D01*
Y172100D01*
X1167966Y171500D01*
X1170365D01*
X1170965Y172100D01*
Y173300D01*
X1170365Y173899D01*
X1167966D01*
X1167366Y170300D02*
X1170965D01*
X1169765D01*
X1167366Y167901D01*
X1169165Y169701D01*
X1170965Y167901D01*
X1032579Y157470D02*
X1036178D01*
X1032579Y159869D01*
X1036178D01*
Y161068D02*
Y163468D01*
Y162268D01*
X1032579D01*
X1035578Y167067D02*
X1036178Y166467D01*
Y165267D01*
X1035578Y164667D01*
X1033179D01*
X1032579Y165267D01*
Y166467D01*
X1033179Y167067D01*
X1032579Y171865D02*
Y173065D01*
Y172465D01*
X1036178D01*
X1035578Y171865D01*
Y174864D02*
X1036178Y175464D01*
Y176663D01*
X1035578Y177263D01*
X1033179D01*
X1032579Y176663D01*
Y175464D01*
X1033179Y174864D01*
X1035578D01*
Y178463D02*
X1036178Y179063D01*
Y180262D01*
X1035578Y180862D01*
X1033179D01*
X1032579Y180262D01*
Y179063D01*
X1033179Y178463D01*
X1035578D01*
X1036178Y182062D02*
X1032579D01*
X1033778D01*
X1036178Y184461D01*
X1034378Y182661D01*
X1032579Y184461D01*
X989862Y194893D02*
X986263D01*
X989862Y192493D01*
X986263D01*
Y191294D02*
Y188894D01*
Y190094D01*
X989862D01*
X986863Y185296D02*
X986263Y185895D01*
Y187095D01*
X986863Y187695D01*
X989262D01*
X989862Y187095D01*
Y185895D01*
X989262Y185296D01*
X989862Y180497D02*
Y179298D01*
Y179897D01*
X986263D01*
X986863Y180497D01*
Y177498D02*
X986263Y176898D01*
Y175699D01*
X986863Y175099D01*
X989262D01*
X989862Y175699D01*
Y176898D01*
X989262Y177498D01*
X986863D01*
Y173899D02*
X986263Y173300D01*
Y172100D01*
X986863Y171500D01*
X989262D01*
X989862Y172100D01*
Y173300D01*
X989262Y173899D01*
X986863D01*
X986263Y170300D02*
X989862D01*
X988663D01*
X986263Y167901D01*
X988063Y169701D01*
X989862Y167901D01*
X851476Y157470D02*
X855075D01*
X851476Y159869D01*
X855075D01*
Y161068D02*
Y163468D01*
Y162268D01*
X851476D01*
X854475Y167067D02*
X855075Y166467D01*
Y165267D01*
X854475Y164667D01*
X852076D01*
X851476Y165267D01*
Y166467D01*
X852076Y167067D01*
X851476Y171865D02*
Y173065D01*
Y172465D01*
X855075D01*
X854475Y171865D01*
Y174864D02*
X855075Y175464D01*
Y176663D01*
X854475Y177263D01*
X852076D01*
X851476Y176663D01*
Y175464D01*
X852076Y174864D01*
X854475D01*
Y178463D02*
X855075Y179063D01*
Y180262D01*
X854475Y180862D01*
X852076D01*
X851476Y180262D01*
Y179063D01*
X852076Y178463D01*
X854475D01*
X855075Y182062D02*
X851476D01*
X852676D01*
X855075Y184461D01*
X853276Y182661D01*
X851476Y184461D01*
X808760Y194893D02*
X805161D01*
X808760Y192493D01*
X805161D01*
Y191294D02*
Y188894D01*
Y190094D01*
X808760D01*
X805761Y185296D02*
X805161Y185895D01*
Y187095D01*
X805761Y187695D01*
X808160D01*
X808760Y187095D01*
Y185895D01*
X808160Y185296D01*
X808760Y180497D02*
Y179298D01*
Y179897D01*
X805161D01*
X805761Y180497D01*
Y177498D02*
X805161Y176898D01*
Y175699D01*
X805761Y175099D01*
X808160D01*
X808760Y175699D01*
Y176898D01*
X808160Y177498D01*
X805761D01*
Y173899D02*
X805161Y173300D01*
Y172100D01*
X805761Y171500D01*
X808160D01*
X808760Y172100D01*
Y173300D01*
X808160Y173899D01*
X805761D01*
X805161Y170300D02*
X808760D01*
X807560D01*
X805161Y167901D01*
X806960Y169701D01*
X808760Y167901D01*
X670374Y157470D02*
X673973D01*
X670374Y159869D01*
X673973D01*
Y161068D02*
Y163468D01*
Y162268D01*
X670374D01*
X673373Y167067D02*
X673973Y166467D01*
Y165267D01*
X673373Y164667D01*
X670974D01*
X670374Y165267D01*
Y166467D01*
X670974Y167067D01*
X670374Y171865D02*
Y173065D01*
Y172465D01*
X673973D01*
X673373Y171865D01*
Y174864D02*
X673973Y175464D01*
Y176663D01*
X673373Y177263D01*
X670974D01*
X670374Y176663D01*
Y175464D01*
X670974Y174864D01*
X673373D01*
Y178463D02*
X673973Y179063D01*
Y180262D01*
X673373Y180862D01*
X670974D01*
X670374Y180262D01*
Y179063D01*
X670974Y178463D01*
X673373D01*
X673973Y182062D02*
X670374D01*
X671574D01*
X673973Y184461D01*
X672173Y182661D01*
X670374Y184461D01*
X627658Y194893D02*
X624059D01*
X627658Y192493D01*
X624059D01*
Y191294D02*
Y188894D01*
Y190094D01*
X627658D01*
X624658Y185296D02*
X624059Y185895D01*
Y187095D01*
X624658Y187695D01*
X627058D01*
X627658Y187095D01*
Y185895D01*
X627058Y185296D01*
X627658Y180497D02*
Y179298D01*
Y179897D01*
X624059D01*
X624658Y180497D01*
Y177498D02*
X624059Y176898D01*
Y175699D01*
X624658Y175099D01*
X627058D01*
X627658Y175699D01*
Y176898D01*
X627058Y177498D01*
X624658D01*
Y173899D02*
X624059Y173300D01*
Y172100D01*
X624658Y171500D01*
X627058D01*
X627658Y172100D01*
Y173300D01*
X627058Y173899D01*
X624658D01*
X624059Y170300D02*
X627658D01*
X626458D01*
X624059Y167901D01*
X625858Y169701D01*
X627658Y167901D01*
X489272Y157470D02*
X492871D01*
X489272Y159869D01*
X492871D01*
Y161068D02*
Y163468D01*
Y162268D01*
X489272D01*
X492271Y167067D02*
X492871Y166467D01*
Y165267D01*
X492271Y164667D01*
X489872D01*
X489272Y165267D01*
Y166467D01*
X489872Y167067D01*
X489272Y171865D02*
Y173065D01*
Y172465D01*
X492871D01*
X492271Y171865D01*
Y174864D02*
X492871Y175464D01*
Y176663D01*
X492271Y177263D01*
X489872D01*
X489272Y176663D01*
Y175464D01*
X489872Y174864D01*
X492271D01*
Y178463D02*
X492871Y179063D01*
Y180262D01*
X492271Y180862D01*
X489872D01*
X489272Y180262D01*
Y179063D01*
X489872Y178463D01*
X492271D01*
X492871Y182062D02*
X489272D01*
X490471D01*
X492871Y184461D01*
X491071Y182661D01*
X489272Y184461D01*
X446555Y194893D02*
X442956D01*
X446555Y192493D01*
X442956D01*
Y191294D02*
Y188894D01*
Y190094D01*
X446555D01*
X443556Y185296D02*
X442956Y185895D01*
Y187095D01*
X443556Y187695D01*
X445955D01*
X446555Y187095D01*
Y185895D01*
X445955Y185296D01*
X446555Y180497D02*
Y179298D01*
Y179897D01*
X442956D01*
X443556Y180497D01*
Y177498D02*
X442956Y176898D01*
Y175699D01*
X443556Y175099D01*
X445955D01*
X446555Y175699D01*
Y176898D01*
X445955Y177498D01*
X443556D01*
Y173899D02*
X442956Y173300D01*
Y172100D01*
X443556Y171500D01*
X445955D01*
X446555Y172100D01*
Y173300D01*
X445955Y173899D01*
X443556D01*
X442956Y170300D02*
X446555D01*
X445356D01*
X442956Y167901D01*
X444756Y169701D01*
X446555Y167901D01*
X308169Y157470D02*
X311768D01*
X308169Y159869D01*
X311768D01*
Y161068D02*
Y163468D01*
Y162268D01*
X308169D01*
X311168Y167067D02*
X311768Y166467D01*
Y165267D01*
X311168Y164667D01*
X308769D01*
X308169Y165267D01*
Y166467D01*
X308769Y167067D01*
X308169Y171865D02*
Y173065D01*
Y172465D01*
X311768D01*
X311168Y171865D01*
Y174864D02*
X311768Y175464D01*
Y176663D01*
X311168Y177263D01*
X308769D01*
X308169Y176663D01*
Y175464D01*
X308769Y174864D01*
X311168D01*
Y178463D02*
X311768Y179063D01*
Y180262D01*
X311168Y180862D01*
X308769D01*
X308169Y180262D01*
Y179063D01*
X308769Y178463D01*
X311168D01*
X311768Y182062D02*
X308169D01*
X309369D01*
X311768Y184461D01*
X309969Y182661D01*
X308169Y184461D01*
X265453Y194893D02*
X261854D01*
X265453Y192493D01*
X261854D01*
Y191294D02*
Y188894D01*
Y190094D01*
X265453D01*
X262454Y185296D02*
X261854Y185895D01*
Y187095D01*
X262454Y187695D01*
X264853D01*
X265453Y187095D01*
Y185895D01*
X264853Y185296D01*
X265453Y180497D02*
Y179298D01*
Y179897D01*
X261854D01*
X262454Y180497D01*
Y177498D02*
X261854Y176898D01*
Y175699D01*
X262454Y175099D01*
X264853D01*
X265453Y175699D01*
Y176898D01*
X264853Y177498D01*
X262454D01*
Y173899D02*
X261854Y173300D01*
Y172100D01*
X262454Y171500D01*
X264853D01*
X265453Y172100D01*
Y173300D01*
X264853Y173899D01*
X262454D01*
X261854Y170300D02*
X265453D01*
X264253D01*
X261854Y167901D01*
X263653Y169701D01*
X265453Y167901D01*
X127067Y157470D02*
X130666D01*
X127067Y159869D01*
X130666D01*
Y161068D02*
Y163468D01*
Y162268D01*
X127067D01*
X130066Y167067D02*
X130666Y166467D01*
Y165267D01*
X130066Y164667D01*
X127667D01*
X127067Y165267D01*
Y166467D01*
X127667Y167067D01*
X127067Y171865D02*
Y173065D01*
Y172465D01*
X130666D01*
X130066Y171865D01*
Y174864D02*
X130666Y175464D01*
Y176663D01*
X130066Y177263D01*
X127667D01*
X127067Y176663D01*
Y175464D01*
X127667Y174864D01*
X130066D01*
Y178463D02*
X130666Y179063D01*
Y180262D01*
X130066Y180862D01*
X127667D01*
X127067Y180262D01*
Y179063D01*
X127667Y178463D01*
X130066D01*
X130666Y182062D02*
X127067D01*
X128267D01*
X130666Y184461D01*
X128866Y182661D01*
X127067Y184461D01*
M02*
