G04*
G04 #@! TF.GenerationSoftware,Altium Limited,Altium Designer,19.0.10 (269)*
G04*
G04 Layer_Color=16711935*
%FSLAX25Y25*%
%MOIN*%
G70*
G01*
G75*
%ADD18C,0.04137*%
%ADD19R,0.03153X0.03350*%
%ADD20R,0.03350X0.03153*%
%ADD27C,0.39570*%
%ADD28C,0.01972*%
%ADD29C,0.08074*%
%ADD54R,0.03192X0.05200*%
%ADD55R,0.33271X0.31696*%
%ADD56R,0.12011X0.08074*%
%ADD57R,0.23822X0.08074*%
%ADD58R,0.04924X0.02956*%
D18*
X1511811Y212992D02*
D03*
X1506890D02*
D03*
X1416142Y139370D02*
D03*
X1421063D02*
D03*
X1330709Y212992D02*
D03*
X1325787D02*
D03*
X1235039Y139370D02*
D03*
X1239961D02*
D03*
X1149606Y212992D02*
D03*
X1144685D02*
D03*
X1053937Y139370D02*
D03*
X1058858D02*
D03*
X968504Y212992D02*
D03*
X963583D02*
D03*
X872835Y139370D02*
D03*
X877756D02*
D03*
X787402Y212992D02*
D03*
X782480D02*
D03*
X691732Y139370D02*
D03*
X696654D02*
D03*
X606299Y212992D02*
D03*
X601378D02*
D03*
X510630Y139370D02*
D03*
X515551D02*
D03*
X425197Y212992D02*
D03*
X420276D02*
D03*
X329528Y139370D02*
D03*
X334449D02*
D03*
X244094Y212992D02*
D03*
X239173D02*
D03*
X148425Y139370D02*
D03*
X153347D02*
D03*
D19*
X55118Y206496D02*
D03*
Y200591D02*
D03*
Y250689D02*
D03*
Y256594D02*
D03*
Y102067D02*
D03*
Y96161D02*
D03*
Y145866D02*
D03*
Y151772D02*
D03*
D20*
X50984Y200394D02*
D03*
X45079D02*
D03*
X50984Y256791D02*
D03*
X45079D02*
D03*
X59252Y200394D02*
D03*
X65158D02*
D03*
X59252Y256791D02*
D03*
X65158D02*
D03*
X66339Y224311D02*
D03*
X60433D02*
D03*
X66339Y228740D02*
D03*
X60433D02*
D03*
X59252Y95965D02*
D03*
X65158D02*
D03*
X50984Y151969D02*
D03*
X45079D02*
D03*
X50984Y95965D02*
D03*
X45079D02*
D03*
X59252Y151969D02*
D03*
X65158D02*
D03*
X66339Y120079D02*
D03*
X60433D02*
D03*
X66339Y124409D02*
D03*
X60433D02*
D03*
X1528642Y158465D02*
D03*
X1534547D02*
D03*
X1399311Y193898D02*
D03*
X1393406D02*
D03*
X1347539Y158465D02*
D03*
X1353445D02*
D03*
X1218209Y193898D02*
D03*
X1212303D02*
D03*
X1166437Y158465D02*
D03*
X1172342D02*
D03*
X1037106Y193898D02*
D03*
X1031201D02*
D03*
X985335Y158465D02*
D03*
X991240D02*
D03*
X856004Y193898D02*
D03*
X850098D02*
D03*
X804232Y158465D02*
D03*
X810138D02*
D03*
X674902Y193898D02*
D03*
X668996D02*
D03*
X623130Y158465D02*
D03*
X629035D02*
D03*
X493799Y193898D02*
D03*
X487894D02*
D03*
X442028Y158465D02*
D03*
X447933D02*
D03*
X312697Y193898D02*
D03*
X306791D02*
D03*
X260925Y158465D02*
D03*
X266831D02*
D03*
X131595Y193898D02*
D03*
X125689D02*
D03*
X66339Y245276D02*
D03*
X60433D02*
D03*
X66339Y240945D02*
D03*
X60433D02*
D03*
X66339Y236614D02*
D03*
X60433D02*
D03*
X66732Y140945D02*
D03*
X60827D02*
D03*
X66732Y136614D02*
D03*
X60827D02*
D03*
X66732Y132283D02*
D03*
X60827D02*
D03*
D27*
X1509350Y87598D02*
D03*
Y264764D02*
D03*
X1418602Y264764D02*
D03*
Y87598D02*
D03*
X1328248Y87598D02*
D03*
Y264764D02*
D03*
X1237500Y264764D02*
D03*
Y87598D02*
D03*
X1147146Y87598D02*
D03*
Y264764D02*
D03*
X1056398Y264764D02*
D03*
Y87598D02*
D03*
X966043Y87598D02*
D03*
Y264764D02*
D03*
X875295Y264764D02*
D03*
Y87598D02*
D03*
X784941Y87598D02*
D03*
Y264764D02*
D03*
X694193Y264764D02*
D03*
Y87598D02*
D03*
X603839Y87598D02*
D03*
Y264764D02*
D03*
X513091Y264764D02*
D03*
Y87598D02*
D03*
X422736Y87598D02*
D03*
Y264764D02*
D03*
X331988Y264764D02*
D03*
Y87598D02*
D03*
X241634Y87598D02*
D03*
Y264764D02*
D03*
X150886Y264764D02*
D03*
Y87598D02*
D03*
D28*
X1451378Y156890D02*
D03*
X1445866D02*
D03*
X74803Y281693D02*
D03*
X71457Y262402D02*
D03*
X49902Y261910D02*
D03*
X59646Y251083D02*
D03*
X44980Y234252D02*
D03*
X65158Y262657D02*
D03*
X45118Y262697D02*
D03*
X75305Y268209D02*
D03*
X72937Y268123D02*
D03*
X60039Y101772D02*
D03*
X60433Y120079D02*
D03*
Y124409D02*
D03*
X48622Y111221D02*
D03*
X60728Y109252D02*
D03*
X1490453Y119488D02*
D03*
X1471555Y125295D02*
D03*
X285827Y227953D02*
D03*
X54718Y222441D02*
D03*
X54626Y118110D02*
D03*
X47244Y246850D02*
D03*
X60335Y232677D02*
D03*
X42520Y229331D02*
D03*
X79232Y266398D02*
D03*
Y261398D02*
D03*
X83662Y246358D02*
D03*
X85630Y244587D02*
D03*
X87598Y246358D02*
D03*
X91535D02*
D03*
X55118Y167323D02*
D03*
Y185039D02*
D03*
X87890D02*
D03*
Y167323D02*
D03*
X73622Y152657D02*
D03*
X89764D02*
D03*
X67224Y185335D02*
D03*
X98032Y268898D02*
D03*
X1448228Y125394D02*
D03*
X67118Y167323D02*
D03*
X1488976Y197736D02*
D03*
Y136811D02*
D03*
X1307579Y197835D02*
D03*
X1307480Y143996D02*
D03*
X1257874Y154527D02*
D03*
X1126476Y197835D02*
D03*
X1126575Y145177D02*
D03*
X1076772Y154429D02*
D03*
X945472Y197835D02*
D03*
Y146752D02*
D03*
X895669Y154527D02*
D03*
X764272Y198031D02*
D03*
Y148327D02*
D03*
X714468Y154331D02*
D03*
X583268Y197835D02*
D03*
X583071Y150394D02*
D03*
X533563Y154528D02*
D03*
X402264Y197835D02*
D03*
X402067Y151181D02*
D03*
X352264Y154331D02*
D03*
X221260Y197835D02*
D03*
X221358Y153051D02*
D03*
X171260Y154331D02*
D03*
X85630Y141634D02*
D03*
X89567D02*
D03*
X94390Y138779D02*
D03*
Y134843D02*
D03*
Y130905D02*
D03*
Y126969D02*
D03*
Y123031D02*
D03*
Y119095D02*
D03*
Y115256D02*
D03*
Y111221D02*
D03*
X91535Y106496D02*
D03*
X87598Y106595D02*
D03*
X83662Y106496D02*
D03*
X79724D02*
D03*
X75787D02*
D03*
X71850Y106595D02*
D03*
X67913D02*
D03*
X169685Y232874D02*
D03*
X109744Y240158D02*
D03*
X114567Y160433D02*
D03*
X109744Y237502D02*
D03*
X222835Y230118D02*
D03*
X222835Y119390D02*
D03*
X279823Y230413D02*
D03*
X285827Y230906D02*
D03*
X350787Y233071D02*
D03*
X295669Y160433D02*
D03*
X403937Y224016D02*
D03*
X404035Y119390D02*
D03*
X458957Y223721D02*
D03*
X467126Y225590D02*
D03*
X531988Y232776D02*
D03*
X476772Y160433D02*
D03*
X467126Y222638D02*
D03*
X584941Y220571D02*
D03*
Y119587D02*
D03*
X640158Y220374D02*
D03*
X712992Y232874D02*
D03*
X649016Y221358D02*
D03*
X657874Y160630D02*
D03*
X649016Y218701D02*
D03*
X766043Y213090D02*
D03*
Y119783D02*
D03*
X821555Y211319D02*
D03*
X833957Y213090D02*
D03*
X894094Y232874D02*
D03*
X838976Y160539D02*
D03*
X833957Y209744D02*
D03*
X946653Y209055D02*
D03*
X92913Y219587D02*
D03*
X947244Y119488D02*
D03*
X1002362Y208366D02*
D03*
X62894Y75492D02*
D03*
X74902Y75197D02*
D03*
X62992Y277244D02*
D03*
X89665Y244587D02*
D03*
X94784Y237205D02*
D03*
X93012Y239075D02*
D03*
X94784Y241142D02*
D03*
X93012Y243110D02*
D03*
X92913Y235236D02*
D03*
X94685Y233268D02*
D03*
X92913Y231201D02*
D03*
X94685Y229331D02*
D03*
X92913Y227362D02*
D03*
X94685Y225394D02*
D03*
X94685Y221457D02*
D03*
Y217520D02*
D03*
X92913Y215551D02*
D03*
Y223425D02*
D03*
X94685Y213583D02*
D03*
X1010925Y209154D02*
D03*
X1075295Y232677D02*
D03*
X1020079Y160433D02*
D03*
X1010925Y206496D02*
D03*
X1128248Y205709D02*
D03*
Y119488D02*
D03*
X1183563Y204921D02*
D03*
X1191831Y205807D02*
D03*
X1256299Y232677D02*
D03*
X1201181Y160539D02*
D03*
X1191831Y202953D02*
D03*
X1308957Y202067D02*
D03*
X1309449Y119587D02*
D03*
X1364665Y201969D02*
D03*
X83563Y211024D02*
D03*
X79724D02*
D03*
X87598D02*
D03*
X85630Y213583D02*
D03*
X81693D02*
D03*
X77756Y213582D02*
D03*
X75788Y211024D02*
D03*
X73819Y213583D02*
D03*
X71949Y211024D02*
D03*
X69882Y213583D02*
D03*
X123622Y214961D02*
D03*
X1359547Y197835D02*
D03*
X1434842Y232874D02*
D03*
X1178445Y197835D02*
D03*
X1380217Y196555D02*
D03*
X1379890Y160539D02*
D03*
X1493110Y196358D02*
D03*
X67913Y211024D02*
D03*
X1545669Y191831D02*
D03*
X1524016Y162205D02*
D03*
X1540650Y197835D02*
D03*
X1536614Y137402D02*
D03*
X1500000Y116929D02*
D03*
X1547047Y128051D02*
D03*
X1342913Y162205D02*
D03*
X1355512Y137402D02*
D03*
X1318898Y116929D02*
D03*
X1365945Y128051D02*
D03*
X1161811Y162205D02*
D03*
X1174409Y137402D02*
D03*
X1137796Y116929D02*
D03*
X1184842Y128051D02*
D03*
X980709Y162205D02*
D03*
X997342Y197835D02*
D03*
X993307Y137402D02*
D03*
X956693Y116929D02*
D03*
X1003740Y128051D02*
D03*
X799606Y162205D02*
D03*
X816240Y197835D02*
D03*
X812205Y137402D02*
D03*
X775591Y116929D02*
D03*
X822638Y128051D02*
D03*
X618504Y162205D02*
D03*
X635138Y197835D02*
D03*
X631102Y137402D02*
D03*
X594488Y116929D02*
D03*
X641535Y128051D02*
D03*
X437402Y162205D02*
D03*
X454035Y197835D02*
D03*
X450000Y137402D02*
D03*
X413386Y116929D02*
D03*
X460433Y128051D02*
D03*
X1387303Y154528D02*
D03*
X1403937Y190157D02*
D03*
X1391339Y214961D02*
D03*
X1427952Y235433D02*
D03*
X1380906Y224311D02*
D03*
X1206201Y154528D02*
D03*
X1222835Y190157D02*
D03*
X1210236Y214961D02*
D03*
X1246850Y235433D02*
D03*
X1199803Y224311D02*
D03*
X1025098Y154528D02*
D03*
X1041732Y190157D02*
D03*
X1029134Y214961D02*
D03*
X1065748Y235433D02*
D03*
X1018701Y224311D02*
D03*
X843996Y154528D02*
D03*
X860630Y190157D02*
D03*
X848032Y214961D02*
D03*
X884645Y235433D02*
D03*
X837598Y224311D02*
D03*
X662894Y154528D02*
D03*
X679528Y190157D02*
D03*
X666929Y214961D02*
D03*
X703543Y235433D02*
D03*
X656496Y224311D02*
D03*
X481791Y154528D02*
D03*
X498425Y190157D02*
D03*
X485827Y214961D02*
D03*
X522441Y235433D02*
D03*
X475394Y224311D02*
D03*
X300689Y154528D02*
D03*
X317323Y190157D02*
D03*
X304724Y214961D02*
D03*
X341338Y235433D02*
D03*
X294291Y224311D02*
D03*
X272933Y197835D02*
D03*
X256299Y162205D02*
D03*
X268898Y137402D02*
D03*
X232284Y116929D02*
D03*
X279331Y128051D02*
D03*
X113189Y224311D02*
D03*
X119587Y154528D02*
D03*
X60433Y206201D02*
D03*
Y219390D02*
D03*
X50000Y217618D02*
D03*
X59255Y115751D02*
D03*
X59153Y112894D02*
D03*
X48917Y213583D02*
D03*
X60433Y215551D02*
D03*
X60335Y178445D02*
D03*
Y185039D02*
D03*
X50000Y237205D02*
D03*
X59744Y128347D02*
D03*
X60827Y140945D02*
D03*
Y136614D02*
D03*
X75197Y161221D02*
D03*
X71949D02*
D03*
X50000Y132874D02*
D03*
X55905Y246161D02*
D03*
X55216Y141437D02*
D03*
X60630Y132283D02*
D03*
Y224410D02*
D03*
X60433Y228740D02*
D03*
Y236847D02*
D03*
X60236Y240945D02*
D03*
X60433Y245276D02*
D03*
X136221Y190157D02*
D03*
X160236Y235433D02*
D03*
D29*
X76772Y228346D02*
D03*
Y124016D02*
D03*
D54*
X45118Y193110D02*
D03*
X55118D02*
D03*
X65118D02*
D03*
Y159252D02*
D03*
X55118D02*
D03*
X45118D02*
D03*
Y296555D02*
D03*
X55118D02*
D03*
X65118D02*
D03*
Y262697D02*
D03*
X55118D02*
D03*
X45118D02*
D03*
X65118Y55807D02*
D03*
X55118D02*
D03*
X45118D02*
D03*
Y89665D02*
D03*
X55118D02*
D03*
X65118D02*
D03*
D55*
X1513582Y138090D02*
D03*
X1414371Y214272D02*
D03*
X1332480Y138090D02*
D03*
X1233268Y214272D02*
D03*
X1151377Y138090D02*
D03*
X1052166Y214272D02*
D03*
X970275Y138090D02*
D03*
X871063Y214272D02*
D03*
X789173Y138090D02*
D03*
X689961Y214272D02*
D03*
X608071Y138090D02*
D03*
X508859Y214272D02*
D03*
X426968Y138090D02*
D03*
X327756Y214272D02*
D03*
X245866Y138090D02*
D03*
X146654Y214272D02*
D03*
D56*
X1547047Y148129D02*
D03*
Y128051D02*
D03*
X1380906Y204233D02*
D03*
Y224311D02*
D03*
X1365945Y148129D02*
D03*
Y128051D02*
D03*
X1199803Y204233D02*
D03*
Y224311D02*
D03*
X1184842Y148129D02*
D03*
Y128051D02*
D03*
X1018701Y204233D02*
D03*
Y224311D02*
D03*
X1003740Y148129D02*
D03*
Y128051D02*
D03*
X837598Y204233D02*
D03*
Y224311D02*
D03*
X822638Y148129D02*
D03*
Y128051D02*
D03*
X656496Y204233D02*
D03*
Y224311D02*
D03*
X641535Y148129D02*
D03*
Y128051D02*
D03*
X475394Y204233D02*
D03*
Y224311D02*
D03*
X460433Y148129D02*
D03*
Y128051D02*
D03*
X294291Y204233D02*
D03*
Y224311D02*
D03*
X279331Y148129D02*
D03*
Y128051D02*
D03*
X113189Y204233D02*
D03*
Y224311D02*
D03*
D57*
X95275Y263898D02*
D03*
Y273898D02*
D03*
D58*
X79232Y276398D02*
D03*
Y271398D02*
D03*
Y266398D02*
D03*
Y261398D02*
D03*
M02*
