G04*
G04 #@! TF.GenerationSoftware,Altium Limited,Altium Designer,19.0.10 (269)*
G04*
G04 Layer_Color=16711935*
%FSLAX25Y25*%
%MOIN*%
G70*
G01*
G75*
%ADD10C,0.00591*%
G36*
X135138Y187992D02*
X166634D01*
Y164370D01*
X135138D01*
Y187992D01*
D02*
G37*
G36*
X225886Y187992D02*
X257382D01*
Y164370D01*
X225886D01*
Y187992D01*
D02*
G37*
G36*
X316437D02*
X347933D01*
Y164370D01*
X316437D01*
Y187992D01*
D02*
G37*
G36*
X406988D02*
X438484D01*
Y164370D01*
X406988D01*
Y187992D01*
D02*
G37*
G36*
X497539D02*
X529035D01*
Y164370D01*
X497539D01*
Y187992D01*
D02*
G37*
G36*
X588091D02*
X619587D01*
Y164370D01*
X588091D01*
Y187992D01*
D02*
G37*
G36*
X678642D02*
X710138D01*
Y164370D01*
X678642D01*
Y187992D01*
D02*
G37*
G36*
X769193D02*
X800689D01*
Y164370D01*
X769193D01*
Y187992D01*
D02*
G37*
G36*
X859744D02*
X891240D01*
Y164370D01*
X859744D01*
Y187992D01*
D02*
G37*
G36*
X950295D02*
X981791D01*
Y164370D01*
X950295D01*
Y187992D01*
D02*
G37*
G36*
X1040847D02*
X1072342D01*
Y164370D01*
X1040847D01*
Y187992D01*
D02*
G37*
G36*
X1131398D02*
X1162894D01*
Y164370D01*
X1131398D01*
Y187992D01*
D02*
G37*
G36*
X1221949D02*
X1253445D01*
Y164370D01*
X1221949D01*
Y187992D01*
D02*
G37*
G36*
X1312500D02*
X1343996D01*
Y164370D01*
X1312500D01*
Y187992D01*
D02*
G37*
G36*
X1403051D02*
X1434547D01*
Y164370D01*
X1403051D01*
Y187992D01*
D02*
G37*
G36*
X1493602D02*
X1525098D01*
Y164370D01*
X1493602D01*
Y187992D01*
D02*
G37*
D10*
X39370Y51870D02*
Y300492D01*
X1554528D01*
Y51870D02*
Y300492D01*
X1462008Y51870D02*
Y118110D01*
X1487008D01*
Y51870D02*
Y118110D01*
Y51870D02*
X1554528D01*
X198228D02*
X1462008D01*
X198228D02*
Y118110D01*
X173228D02*
X198228D01*
X173228Y51870D02*
Y118110D01*
X39370Y51870D02*
X173228D01*
M02*
