G04*
G04 #@! TF.GenerationSoftware,Altium Limited,Altium Designer,19.0.14 (431)*
G04*
G04 Layer_Physical_Order=2*
G04 Layer_Color=16711680*
%FSLAX25Y25*%
%MOIN*%
G70*
G01*
G75*
%ADD15C,0.00600*%
%ADD52C,0.05906*%
%ADD53C,0.02362*%
%ADD54C,0.23622*%
G36*
X53937Y166214D02*
X326772Y166214D01*
Y40479D01*
X54436Y40479D01*
X53937Y40479D01*
X53448Y40505D01*
X51830Y40632D01*
X49774Y41125D01*
X47821Y41934D01*
X46019Y43039D01*
X44412Y44412D01*
X43039Y46019D01*
X41934Y47821D01*
X41125Y49774D01*
X40632Y51830D01*
X40470Y53891D01*
X40479Y53937D01*
Y152756D01*
X40470Y152802D01*
X40632Y154863D01*
X41125Y156919D01*
X41934Y158872D01*
X43039Y160674D01*
X44412Y162281D01*
X46019Y163654D01*
X47821Y164759D01*
X49774Y165568D01*
X51830Y166061D01*
X53891Y166223D01*
X53937Y166214D01*
D02*
G37*
%LPC*%
G36*
X141445Y156849D02*
Y155224D01*
X143069D01*
X142999Y155575D01*
X142517Y156297D01*
X141796Y156779D01*
X141445Y156849D01*
D02*
G37*
G36*
X140445D02*
X140094Y156779D01*
X139372Y156297D01*
X138890Y155575D01*
X138821Y155224D01*
X140445D01*
Y156849D01*
D02*
G37*
G36*
X207587Y156061D02*
Y154437D01*
X209211D01*
X209141Y154788D01*
X208659Y155509D01*
X207938Y155992D01*
X207587Y156061D01*
D02*
G37*
G36*
X206587D02*
X206236Y155992D01*
X205514Y155509D01*
X205032Y154788D01*
X204962Y154437D01*
X206587D01*
Y156061D01*
D02*
G37*
G36*
X143069Y154224D02*
X141445D01*
Y152600D01*
X141796Y152670D01*
X142517Y153152D01*
X142999Y153873D01*
X143069Y154224D01*
D02*
G37*
G36*
X140445D02*
X138821D01*
X138890Y153873D01*
X139372Y153152D01*
X140094Y152670D01*
X140445Y152600D01*
Y154224D01*
D02*
G37*
G36*
X209211Y153437D02*
X207587D01*
Y151813D01*
X207938Y151883D01*
X208659Y152365D01*
X209141Y153086D01*
X209211Y153437D01*
D02*
G37*
G36*
X206587D02*
X204962D01*
X205032Y153086D01*
X205514Y152365D01*
X206236Y151883D01*
X206587Y151813D01*
Y153437D01*
D02*
G37*
G36*
X224122Y144644D02*
Y143020D01*
X225746D01*
X225677Y143371D01*
X225195Y144092D01*
X224473Y144574D01*
X224122Y144644D01*
D02*
G37*
G36*
X223122D02*
X222771Y144574D01*
X222049Y144092D01*
X221568Y143371D01*
X221498Y143020D01*
X223122D01*
Y144644D01*
D02*
G37*
G36*
X225746Y142020D02*
X224122D01*
Y140395D01*
X224473Y140465D01*
X225195Y140947D01*
X225677Y141669D01*
X225746Y142020D01*
D02*
G37*
G36*
X223122D02*
X221498D01*
X221568Y141669D01*
X222049Y140947D01*
X222771Y140465D01*
X223122Y140395D01*
Y142020D01*
D02*
G37*
G36*
X53937Y165205D02*
X51990Y165052D01*
X50090Y164596D01*
X48285Y163848D01*
X46619Y162828D01*
X45134Y161559D01*
X43865Y160073D01*
X42845Y158408D01*
X42097Y156603D01*
X41641Y154703D01*
X41488Y152756D01*
X41641Y150808D01*
X42097Y148909D01*
X42845Y147104D01*
X43865Y145438D01*
X45134Y143953D01*
X46619Y142684D01*
X48285Y141663D01*
X50090Y140916D01*
X51990Y140460D01*
X53937Y140306D01*
X55884Y140460D01*
X57784Y140916D01*
X59589Y141663D01*
X61255Y142684D01*
X62740Y143953D01*
X64009Y145438D01*
X65030Y147104D01*
X65777Y148909D01*
X66233Y150808D01*
X66386Y152756D01*
X66233Y154703D01*
X65777Y156603D01*
X65030Y158408D01*
X64009Y160073D01*
X62740Y161559D01*
X61255Y162828D01*
X59589Y163848D01*
X57784Y164596D01*
X55884Y165052D01*
X53937Y165205D01*
D02*
G37*
G36*
X184358Y141101D02*
Y139476D01*
X185983D01*
X185913Y139827D01*
X185431Y140549D01*
X184709Y141031D01*
X184358Y141101D01*
D02*
G37*
G36*
X183358D02*
X183007Y141031D01*
X182286Y140549D01*
X181804Y139827D01*
X181734Y139476D01*
X183358D01*
Y141101D01*
D02*
G37*
G36*
X185983Y138476D02*
X184358D01*
Y136852D01*
X184709Y136922D01*
X185431Y137404D01*
X185913Y138125D01*
X185983Y138476D01*
D02*
G37*
G36*
X183358D02*
X181734D01*
X181804Y138125D01*
X182286Y137404D01*
X183007Y136922D01*
X183358Y136852D01*
Y138476D01*
D02*
G37*
G36*
X224122Y134801D02*
Y133177D01*
X225746D01*
X225677Y133528D01*
X225195Y134250D01*
X224473Y134732D01*
X224122Y134801D01*
D02*
G37*
G36*
X223122D02*
X222771Y134732D01*
X222049Y134250D01*
X221568Y133528D01*
X221498Y133177D01*
X223122D01*
Y134801D01*
D02*
G37*
G36*
X93307Y140241D02*
X92380Y140119D01*
X91515Y139761D01*
X90773Y139191D01*
X90204Y138449D01*
X89846Y137585D01*
X89724Y136658D01*
X89846Y135730D01*
X90204Y134866D01*
X90773Y134124D01*
X91515Y133554D01*
X92380Y133196D01*
X93307Y133074D01*
X94235Y133196D01*
X95099Y133554D01*
X95841Y134124D01*
X96410Y134866D01*
X96768Y135730D01*
X96890Y136658D01*
X96768Y137585D01*
X96410Y138449D01*
X95841Y139191D01*
X95099Y139761D01*
X94235Y140119D01*
X93307Y140241D01*
D02*
G37*
G36*
X225746Y132177D02*
X224122D01*
Y130553D01*
X224473Y130623D01*
X225195Y131105D01*
X225677Y131826D01*
X225746Y132177D01*
D02*
G37*
G36*
X223122D02*
X221498D01*
X221568Y131826D01*
X222049Y131105D01*
X222771Y130623D01*
X223122Y130553D01*
Y132177D01*
D02*
G37*
G36*
X288583Y131540D02*
X287888Y131402D01*
X287299Y131009D01*
X287054Y130642D01*
X273031D01*
X272680Y130572D01*
X272383Y130373D01*
X270611Y128602D01*
X270412Y128304D01*
X270342Y127953D01*
Y95656D01*
X264999Y90313D01*
X264567Y90399D01*
X263872Y90260D01*
X263283Y89867D01*
X262889Y89278D01*
X262751Y88583D01*
X262889Y87888D01*
X263283Y87299D01*
X263872Y86905D01*
X264567Y86767D01*
X265262Y86905D01*
X265851Y87299D01*
X266245Y87888D01*
X266383Y88583D01*
X266297Y89015D01*
X271909Y94627D01*
X272108Y94924D01*
X272178Y95276D01*
Y127573D01*
X273412Y128807D01*
X287054D01*
X287299Y128440D01*
X287888Y128047D01*
X288583Y127908D01*
X289278Y128047D01*
X289867Y128440D01*
X290260Y129030D01*
X290399Y129724D01*
X290260Y130419D01*
X289867Y131009D01*
X289278Y131402D01*
X288583Y131540D01*
D02*
G37*
G36*
X317035Y126927D02*
Y125303D01*
X318660D01*
X318590Y125654D01*
X318108Y126376D01*
X317387Y126858D01*
X317035Y126927D01*
D02*
G37*
G36*
X316035D02*
X315684Y126858D01*
X314963Y126376D01*
X314481Y125654D01*
X314411Y125303D01*
X316035D01*
Y126927D01*
D02*
G37*
G36*
X285933Y126534D02*
Y124909D01*
X287557D01*
X287488Y125260D01*
X287006Y125982D01*
X286284Y126464D01*
X285933Y126534D01*
D02*
G37*
G36*
X284933D02*
X284582Y126464D01*
X283861Y125982D01*
X283379Y125260D01*
X283309Y124909D01*
X284933D01*
Y126534D01*
D02*
G37*
G36*
X224122Y124959D02*
Y123335D01*
X225746D01*
X225677Y123686D01*
X225195Y124407D01*
X224473Y124889D01*
X224122Y124959D01*
D02*
G37*
G36*
X223122D02*
X222771Y124889D01*
X222049Y124407D01*
X221568Y123686D01*
X221498Y123335D01*
X223122D01*
Y124959D01*
D02*
G37*
G36*
X318660Y124303D02*
X317035D01*
Y122679D01*
X317387Y122749D01*
X318108Y123231D01*
X318590Y123952D01*
X318660Y124303D01*
D02*
G37*
G36*
X316035D02*
X314411D01*
X314481Y123952D01*
X314963Y123231D01*
X315684Y122749D01*
X316035Y122679D01*
Y124303D01*
D02*
G37*
G36*
X287557Y123909D02*
X285933D01*
Y122285D01*
X286284Y122355D01*
X287006Y122837D01*
X287488Y123558D01*
X287557Y123909D01*
D02*
G37*
G36*
X284933D02*
X283309D01*
X283379Y123558D01*
X283861Y122837D01*
X284582Y122355D01*
X284933Y122285D01*
Y123909D01*
D02*
G37*
G36*
X93307Y128146D02*
X92380Y128024D01*
X91515Y127666D01*
X90773Y127097D01*
X90204Y126355D01*
X89846Y125490D01*
X89724Y124563D01*
X89846Y123635D01*
X90204Y122771D01*
X90773Y122029D01*
X91515Y121460D01*
X92380Y121102D01*
X93307Y120980D01*
X94235Y121102D01*
X95099Y121460D01*
X95841Y122029D01*
X96410Y122771D01*
X96768Y123635D01*
X96890Y124563D01*
X96768Y125490D01*
X96410Y126355D01*
X95841Y127097D01*
X95099Y127666D01*
X94235Y128024D01*
X93307Y128146D01*
D02*
G37*
G36*
X225746Y122335D02*
X224122D01*
Y120710D01*
X224473Y120780D01*
X225195Y121262D01*
X225677Y121984D01*
X225746Y122335D01*
D02*
G37*
G36*
X223122D02*
X221498D01*
X221568Y121984D01*
X222049Y121262D01*
X222771Y120780D01*
X223122Y120710D01*
Y122335D01*
D02*
G37*
G36*
X224122Y115117D02*
Y113492D01*
X225746D01*
X225677Y113843D01*
X225195Y114565D01*
X224473Y115047D01*
X224122Y115117D01*
D02*
G37*
G36*
X223122D02*
X222771Y115047D01*
X222049Y114565D01*
X221568Y113843D01*
X221498Y113492D01*
X223122D01*
Y115117D01*
D02*
G37*
G36*
X211024Y144336D02*
X210329Y144197D01*
X209739Y143804D01*
X209346Y143215D01*
X209208Y142520D01*
X209346Y141825D01*
X209739Y141236D01*
X210106Y140991D01*
Y134206D01*
X209739Y133961D01*
X209346Y133372D01*
X209208Y132677D01*
X209346Y131982D01*
X209739Y131393D01*
X210106Y131148D01*
Y124364D01*
X209739Y124119D01*
X209346Y123530D01*
X209208Y122835D01*
X209346Y122140D01*
X209739Y121551D01*
X210106Y121306D01*
Y114521D01*
X209739Y114276D01*
X209495Y113910D01*
X144792D01*
X144441Y113840D01*
X144143Y113641D01*
X139445Y108942D01*
X139246Y108645D01*
X139176Y108294D01*
Y98095D01*
X139246Y97744D01*
X139445Y97446D01*
X141337Y95554D01*
X141172Y95012D01*
X141037Y94985D01*
X140448Y94591D01*
X140055Y94002D01*
X139916Y93307D01*
X140055Y92612D01*
X140448Y92023D01*
X141037Y91629D01*
X141732Y91491D01*
X142165Y91577D01*
X186490Y47251D01*
X186788Y47052D01*
X187139Y46982D01*
X215616D01*
X215968Y47052D01*
X216265Y47251D01*
X217972Y48957D01*
X218171Y49255D01*
X218240Y49606D01*
Y49652D01*
X218607Y49897D01*
X219001Y50486D01*
X219139Y51181D01*
X219007Y51845D01*
X219008Y51952D01*
X219218Y52345D01*
X221727D01*
X221937Y51952D01*
X221938Y51845D01*
X221806Y51181D01*
X221944Y50486D01*
X222338Y49897D01*
X222704Y49652D01*
Y47730D01*
X220380Y45406D01*
X183254D01*
X175746Y52914D01*
X175832Y53347D01*
X175694Y54041D01*
X175300Y54631D01*
X174711Y55024D01*
X174016Y55162D01*
X173321Y55024D01*
X172732Y54631D01*
X172338Y54041D01*
X172200Y53347D01*
X172338Y52652D01*
X172732Y52062D01*
X173321Y51669D01*
X174016Y51530D01*
X174448Y51616D01*
X182225Y43839D01*
X182523Y43640D01*
X182874Y43571D01*
X220760D01*
X221111Y43640D01*
X221409Y43839D01*
X224271Y46701D01*
X224470Y46999D01*
X224540Y47350D01*
Y49652D01*
X224906Y49897D01*
X225300Y50486D01*
X225438Y51181D01*
X225300Y51876D01*
X224906Y52465D01*
X224540Y52710D01*
Y59888D01*
X224906Y60133D01*
X225300Y60722D01*
X225438Y61417D01*
X225300Y62112D01*
X224906Y62701D01*
X224317Y63095D01*
X223622Y63233D01*
X222927Y63095D01*
X222338Y62701D01*
X221944Y62112D01*
X221806Y61417D01*
X221944Y60722D01*
X222338Y60133D01*
X222704Y59888D01*
Y54180D01*
X215309D01*
X214957Y54110D01*
X214660Y53911D01*
X213788Y53039D01*
X213384Y52754D01*
X212662Y53236D01*
X212311Y53306D01*
Y51181D01*
X211811D01*
Y50681D01*
X209687D01*
X209719Y50518D01*
X209410Y50018D01*
X189075D01*
X158201Y80892D01*
Y89859D01*
X158568Y90104D01*
X158961Y90693D01*
X159099Y91388D01*
X158961Y92083D01*
X158568Y92672D01*
X157978Y93066D01*
X157283Y93204D01*
X156588Y93066D01*
X155999Y92672D01*
X155754Y92305D01*
X147181D01*
X141012Y98475D01*
Y107913D01*
X145173Y112074D01*
X209495D01*
X209739Y111708D01*
X210329Y111314D01*
X211024Y111176D01*
X211719Y111314D01*
X212308Y111708D01*
X212701Y112297D01*
X212840Y112992D01*
X212701Y113687D01*
X212308Y114276D01*
X211941Y114521D01*
Y121306D01*
X212308Y121551D01*
X212701Y122140D01*
X212840Y122835D01*
X212701Y123530D01*
X212308Y124119D01*
X211941Y124364D01*
Y131148D01*
X212308Y131393D01*
X212701Y131982D01*
X212840Y132677D01*
X212701Y133372D01*
X212308Y133961D01*
X211941Y134206D01*
Y140991D01*
X212308Y141236D01*
X212701Y141825D01*
X212840Y142520D01*
X212701Y143215D01*
X212308Y143804D01*
X211719Y144197D01*
X211024Y144336D01*
D02*
G37*
G36*
X225746Y112492D02*
X224122D01*
Y110868D01*
X224473Y110938D01*
X225195Y111420D01*
X225677Y112141D01*
X225746Y112492D01*
D02*
G37*
G36*
X223122D02*
X221498D01*
X221568Y112141D01*
X222049Y111420D01*
X222771Y110938D01*
X223122Y110868D01*
Y112492D01*
D02*
G37*
G36*
X93307Y116241D02*
X92380Y116119D01*
X91515Y115761D01*
X90773Y115191D01*
X90204Y114449D01*
X89846Y113585D01*
X89724Y112657D01*
X89846Y111730D01*
X90204Y110866D01*
X90773Y110124D01*
X91515Y109554D01*
X92380Y109196D01*
X93307Y109074D01*
X94235Y109196D01*
X95099Y109554D01*
X95841Y110124D01*
X96410Y110866D01*
X96768Y111730D01*
X96890Y112657D01*
X96768Y113585D01*
X96410Y114449D01*
X95841Y115191D01*
X95099Y115761D01*
X94235Y116119D01*
X93307Y116241D01*
D02*
G37*
G36*
X204331Y105158D02*
X203403Y105036D01*
X202539Y104678D01*
X201797Y104109D01*
X201227Y103366D01*
X200869Y102502D01*
X200747Y101575D01*
X200869Y100647D01*
X201227Y99783D01*
X201797Y99041D01*
X202539Y98471D01*
X203403Y98114D01*
X204331Y97991D01*
X205258Y98114D01*
X206122Y98471D01*
X206865Y99041D01*
X207434Y99783D01*
X207792Y100647D01*
X207914Y101575D01*
X207792Y102502D01*
X207434Y103366D01*
X206865Y104109D01*
X206122Y104678D01*
X205258Y105036D01*
X204331Y105158D01*
D02*
G37*
G36*
X93307Y104020D02*
X92380Y103898D01*
X91515Y103540D01*
X90773Y102971D01*
X90204Y102229D01*
X89846Y101365D01*
X89724Y100437D01*
X89846Y99510D01*
X90204Y98645D01*
X90773Y97903D01*
X91515Y97334D01*
X92380Y96976D01*
X93307Y96854D01*
X94235Y96976D01*
X95099Y97334D01*
X95841Y97903D01*
X96410Y98645D01*
X96768Y99510D01*
X96890Y100437D01*
X96768Y101365D01*
X96410Y102229D01*
X95841Y102971D01*
X95099Y103540D01*
X94235Y103898D01*
X93307Y104020D01*
D02*
G37*
G36*
X266051Y98187D02*
Y96563D01*
X267676D01*
X267606Y96914D01*
X267124Y97636D01*
X266402Y98118D01*
X266051Y98187D01*
D02*
G37*
G36*
X265051D02*
X264700Y98118D01*
X263979Y97636D01*
X263497Y96914D01*
X263427Y96563D01*
X265051D01*
Y98187D01*
D02*
G37*
G36*
X267676Y95563D02*
X266051D01*
Y93939D01*
X266402Y94008D01*
X267124Y94490D01*
X267606Y95212D01*
X267676Y95563D01*
D02*
G37*
G36*
X265051D02*
X263427D01*
X263497Y95212D01*
X263979Y94490D01*
X264700Y94008D01*
X265051Y93939D01*
Y95563D01*
D02*
G37*
G36*
X163886Y93463D02*
Y91839D01*
X165510D01*
X165440Y92190D01*
X164958Y92911D01*
X164237Y93393D01*
X163886Y93463D01*
D02*
G37*
G36*
X162886D02*
X162535Y93393D01*
X161813Y92911D01*
X161331Y92190D01*
X161261Y91839D01*
X162886D01*
Y93463D01*
D02*
G37*
G36*
X165510Y90839D02*
X163886D01*
Y89214D01*
X164237Y89284D01*
X164958Y89766D01*
X165440Y90488D01*
X165510Y90839D01*
D02*
G37*
G36*
X162886D02*
X161261D01*
X161331Y90488D01*
X161813Y89766D01*
X162535Y89284D01*
X162886Y89214D01*
Y90839D01*
D02*
G37*
G36*
X204331Y94922D02*
X203403Y94800D01*
X202539Y94442D01*
X201797Y93872D01*
X201227Y93130D01*
X200869Y92266D01*
X200747Y91339D01*
X200869Y90411D01*
X201227Y89547D01*
X201797Y88805D01*
X202539Y88235D01*
X203403Y87877D01*
X204331Y87755D01*
X205258Y87877D01*
X206122Y88235D01*
X206865Y88805D01*
X207434Y89547D01*
X207792Y90411D01*
X207914Y91339D01*
X207792Y92266D01*
X207434Y93130D01*
X206865Y93872D01*
X206122Y94442D01*
X205258Y94800D01*
X204331Y94922D01*
D02*
G37*
G36*
X163886Y87951D02*
Y86327D01*
X165510D01*
X165440Y86678D01*
X164958Y87399D01*
X164237Y87881D01*
X163886Y87951D01*
D02*
G37*
G36*
X162886D02*
X162535Y87881D01*
X161813Y87399D01*
X161331Y86678D01*
X161261Y86327D01*
X162886D01*
Y87951D01*
D02*
G37*
G36*
X93307Y91741D02*
X92380Y91619D01*
X91515Y91261D01*
X90773Y90691D01*
X90204Y89949D01*
X89846Y89085D01*
X89724Y88157D01*
X89846Y87230D01*
X90204Y86366D01*
X90773Y85624D01*
X91515Y85054D01*
X92380Y84696D01*
X93307Y84574D01*
X94235Y84696D01*
X95099Y85054D01*
X95841Y85624D01*
X96410Y86366D01*
X96768Y87230D01*
X96890Y88157D01*
X96768Y89085D01*
X96410Y89949D01*
X95841Y90691D01*
X95099Y91261D01*
X94235Y91619D01*
X93307Y91741D01*
D02*
G37*
G36*
X305224Y85343D02*
Y83719D01*
X306849D01*
X306779Y84070D01*
X306297Y84791D01*
X305575Y85273D01*
X305224Y85343D01*
D02*
G37*
G36*
X304224D02*
X303873Y85273D01*
X303152Y84791D01*
X302670Y84070D01*
X302600Y83719D01*
X304224D01*
Y85343D01*
D02*
G37*
G36*
X165510Y85327D02*
X163886D01*
Y83702D01*
X164237Y83772D01*
X164958Y84254D01*
X165440Y84976D01*
X165510Y85327D01*
D02*
G37*
G36*
X162886D02*
X161261D01*
X161331Y84976D01*
X161813Y84254D01*
X162535Y83772D01*
X162886Y83702D01*
Y85327D01*
D02*
G37*
G36*
X163886Y82833D02*
Y81209D01*
X165510D01*
X165440Y81560D01*
X164958Y82281D01*
X164237Y82763D01*
X163886Y82833D01*
D02*
G37*
G36*
X162886D02*
X162535Y82763D01*
X161813Y82281D01*
X161331Y81560D01*
X161261Y81209D01*
X162886D01*
Y82833D01*
D02*
G37*
G36*
X306849Y82718D02*
X305224D01*
Y81094D01*
X305575Y81164D01*
X306297Y81646D01*
X306779Y82367D01*
X306849Y82718D01*
D02*
G37*
G36*
X304224D02*
X302600D01*
X302670Y82367D01*
X303152Y81646D01*
X303873Y81164D01*
X304224Y81094D01*
Y82718D01*
D02*
G37*
G36*
X143126Y80862D02*
X141501D01*
X141571Y80511D01*
X142053Y79790D01*
X142775Y79308D01*
X143126Y79238D01*
Y80862D01*
D02*
G37*
G36*
X165510Y80209D02*
X163886D01*
Y78584D01*
X164237Y78654D01*
X164958Y79136D01*
X165440Y79858D01*
X165510Y80209D01*
D02*
G37*
G36*
X162886D02*
X161261D01*
X161331Y79858D01*
X161813Y79136D01*
X162535Y78654D01*
X162886Y78584D01*
Y80209D01*
D02*
G37*
G36*
X204331Y85079D02*
X203403Y84957D01*
X202539Y84599D01*
X201797Y84030D01*
X201227Y83288D01*
X200869Y82424D01*
X200747Y81496D01*
X200869Y80569D01*
X201227Y79704D01*
X201797Y78962D01*
X202539Y78393D01*
X203403Y78035D01*
X204331Y77913D01*
X205258Y78035D01*
X206122Y78393D01*
X206865Y78962D01*
X207434Y79704D01*
X207792Y80569D01*
X207914Y81496D01*
X207792Y82424D01*
X207434Y83288D01*
X206865Y84030D01*
X206122Y84599D01*
X205258Y84957D01*
X204331Y85079D01*
D02*
G37*
G36*
X140657Y75613D02*
Y73988D01*
X142282D01*
X142212Y74339D01*
X141730Y75061D01*
X141008Y75543D01*
X140657Y75613D01*
D02*
G37*
G36*
X139657D02*
X139306Y75543D01*
X138585Y75061D01*
X138103Y74339D01*
X138033Y73988D01*
X139657D01*
Y75613D01*
D02*
G37*
G36*
X93307Y79741D02*
X92380Y79619D01*
X91515Y79261D01*
X90773Y78691D01*
X90204Y77949D01*
X89846Y77085D01*
X89724Y76157D01*
X89846Y75230D01*
X90204Y74366D01*
X90773Y73624D01*
X91515Y73054D01*
X92380Y72696D01*
X93307Y72574D01*
X94235Y72696D01*
X95099Y73054D01*
X95841Y73624D01*
X96410Y74366D01*
X96768Y75230D01*
X96890Y76157D01*
X96768Y77085D01*
X96410Y77949D01*
X95841Y78691D01*
X95099Y79261D01*
X94235Y79619D01*
X93307Y79741D01*
D02*
G37*
G36*
X288583Y121501D02*
X287888Y121363D01*
X287299Y120969D01*
X286905Y120380D01*
X286767Y119685D01*
X286905Y118990D01*
X287299Y118401D01*
X287665Y118156D01*
Y93293D01*
X264999Y70628D01*
X264567Y70714D01*
X263872Y70575D01*
X263283Y70182D01*
X262889Y69593D01*
X262751Y68898D01*
X262889Y68203D01*
X263283Y67614D01*
X263872Y67220D01*
X264567Y67082D01*
X265262Y67220D01*
X265851Y67614D01*
X266245Y68203D01*
X266383Y68898D01*
X266297Y69330D01*
X289231Y92264D01*
X289430Y92562D01*
X289500Y92913D01*
Y118156D01*
X289867Y118401D01*
X290260Y118990D01*
X290399Y119685D01*
X290260Y120380D01*
X289867Y120969D01*
X289278Y121363D01*
X288583Y121501D01*
D02*
G37*
G36*
X142282Y72988D02*
X138033D01*
X138103Y72637D01*
X138585Y71916D01*
X139213Y71496D01*
X139141Y71026D01*
X139129Y70996D01*
X125197D01*
X124846Y70926D01*
X124548Y70728D01*
X109094Y55273D01*
X108661Y55359D01*
X107966Y55221D01*
X107377Y54827D01*
X106984Y54238D01*
X106845Y53543D01*
X106984Y52848D01*
X107377Y52259D01*
X107966Y51866D01*
X108661Y51727D01*
X109356Y51866D01*
X109945Y52259D01*
X110339Y52848D01*
X110477Y53543D01*
X110391Y53976D01*
X125577Y69161D01*
X140991D01*
X141236Y68795D01*
X141825Y68401D01*
X142520Y68263D01*
X143215Y68401D01*
X143804Y68795D01*
X144197Y69384D01*
X144336Y70079D01*
X144197Y70774D01*
X143804Y71363D01*
X143215Y71757D01*
X142520Y71895D01*
X142286Y71848D01*
X141986Y72298D01*
X142212Y72637D01*
X142282Y72988D01*
D02*
G37*
G36*
X204331Y75237D02*
X203403Y75115D01*
X202539Y74757D01*
X201797Y74187D01*
X201227Y73445D01*
X200869Y72581D01*
X200747Y71653D01*
X200869Y70726D01*
X201227Y69862D01*
X201797Y69120D01*
X202539Y68550D01*
X203403Y68192D01*
X204331Y68070D01*
X205258Y68192D01*
X206122Y68550D01*
X206865Y69120D01*
X207434Y69862D01*
X207792Y70726D01*
X207914Y71653D01*
X207792Y72581D01*
X207434Y73445D01*
X206865Y74187D01*
X206122Y74757D01*
X205258Y75115D01*
X204331Y75237D01*
D02*
G37*
G36*
X204831Y65338D02*
Y61917D01*
X208252D01*
X208182Y62449D01*
X207783Y63411D01*
X207150Y64236D01*
X206324Y64870D01*
X205363Y65268D01*
X204831Y65338D01*
D02*
G37*
G36*
X203831D02*
X203299Y65268D01*
X202337Y64870D01*
X201512Y64236D01*
X200878Y63411D01*
X200480Y62449D01*
X200410Y61917D01*
X203831D01*
Y65338D01*
D02*
G37*
G36*
X93307Y68150D02*
X92380Y68028D01*
X91515Y67670D01*
X90773Y67101D01*
X90204Y66359D01*
X89846Y65494D01*
X89724Y64567D01*
X89846Y63639D01*
X90204Y62775D01*
X90773Y62033D01*
X91515Y61464D01*
X92380Y61106D01*
X93307Y60984D01*
X94235Y61106D01*
X95099Y61464D01*
X95841Y62033D01*
X96410Y62775D01*
X96768Y63639D01*
X96890Y64567D01*
X96768Y65494D01*
X96410Y66359D01*
X95841Y67101D01*
X95099Y67670D01*
X94235Y68028D01*
X93307Y68150D01*
D02*
G37*
G36*
X143307Y87115D02*
X142612Y86977D01*
X142023Y86583D01*
X141629Y85994D01*
X141491Y85299D01*
X141629Y84604D01*
X142023Y84015D01*
X142396Y83766D01*
X142430Y83187D01*
X142053Y82935D01*
X141571Y82213D01*
X141501Y81862D01*
X143626D01*
Y81362D01*
X144126D01*
Y79238D01*
X144477Y79308D01*
X145198Y79790D01*
X145680Y80511D01*
X145748Y80853D01*
X146291Y81018D01*
X149476Y77833D01*
Y61568D01*
X149110Y61323D01*
X148716Y60734D01*
X148578Y60039D01*
X148716Y59344D01*
X149110Y58755D01*
X149699Y58362D01*
X150394Y58223D01*
X151089Y58362D01*
X151678Y58755D01*
X152071Y59344D01*
X152210Y60039D01*
X152071Y60734D01*
X151678Y61323D01*
X151311Y61568D01*
Y78213D01*
X151242Y78564D01*
X151043Y78861D01*
X145037Y84867D01*
X145123Y85299D01*
X144985Y85994D01*
X144591Y86583D01*
X144002Y86977D01*
X143307Y87115D01*
D02*
G37*
G36*
X208252Y60917D02*
X204831D01*
Y57496D01*
X205363Y57566D01*
X206324Y57965D01*
X207150Y58598D01*
X207783Y59424D01*
X208182Y60385D01*
X208252Y60917D01*
D02*
G37*
G36*
X203831D02*
X200410D01*
X200480Y60385D01*
X200878Y59424D01*
X201512Y58598D01*
X202337Y57965D01*
X203299Y57566D01*
X203831Y57496D01*
Y60917D01*
D02*
G37*
G36*
X54437Y66748D02*
Y54437D01*
X66748D01*
X66629Y55947D01*
X66159Y57908D01*
X65387Y59771D01*
X64333Y61490D01*
X63024Y63024D01*
X61490Y64333D01*
X59771Y65387D01*
X57908Y66159D01*
X55947Y66629D01*
X54437Y66748D01*
D02*
G37*
G36*
X53437D02*
X51927Y66629D01*
X49966Y66159D01*
X48103Y65387D01*
X46384Y64333D01*
X44850Y63024D01*
X43541Y61490D01*
X42487Y59771D01*
X41715Y57908D01*
X41245Y55947D01*
X41126Y54437D01*
X53437D01*
Y66748D01*
D02*
G37*
G36*
X147350Y55865D02*
Y54240D01*
X148975D01*
X148905Y54591D01*
X148423Y55313D01*
X147701Y55795D01*
X147350Y55865D01*
D02*
G37*
G36*
X146350D02*
X145999Y55795D01*
X145278Y55313D01*
X144796Y54591D01*
X144726Y54240D01*
X146350D01*
Y55865D01*
D02*
G37*
G36*
X154437Y54683D02*
Y53059D01*
X156061D01*
X155992Y53410D01*
X155509Y54132D01*
X154788Y54614D01*
X154437Y54683D01*
D02*
G37*
G36*
X153437D02*
X153086Y54614D01*
X152365Y54132D01*
X151883Y53410D01*
X151813Y53059D01*
X153437D01*
Y54683D01*
D02*
G37*
G36*
X211311Y53306D02*
X210960Y53236D01*
X210239Y52754D01*
X209756Y52032D01*
X209687Y51681D01*
X211311D01*
Y53306D01*
D02*
G37*
G36*
X148975Y53240D02*
X147350D01*
Y51616D01*
X147701Y51686D01*
X148423Y52168D01*
X148905Y52889D01*
X148975Y53240D01*
D02*
G37*
G36*
X146350D02*
X144726D01*
X144796Y52889D01*
X145278Y52168D01*
X145999Y51686D01*
X146350Y51616D01*
Y53240D01*
D02*
G37*
G36*
X156061Y52059D02*
X154437D01*
Y50435D01*
X154788Y50504D01*
X155509Y50987D01*
X155992Y51708D01*
X156061Y52059D01*
D02*
G37*
G36*
X153437D02*
X151813D01*
X151883Y51708D01*
X152365Y50987D01*
X153086Y50504D01*
X153437Y50435D01*
Y52059D01*
D02*
G37*
G36*
X93307Y56694D02*
X92380Y56572D01*
X91515Y56214D01*
X90773Y55644D01*
X90204Y54902D01*
X89846Y54038D01*
X89724Y53110D01*
X89846Y52183D01*
X90204Y51319D01*
X90773Y50576D01*
X91515Y50007D01*
X92380Y49649D01*
X93307Y49527D01*
X94235Y49649D01*
X95099Y50007D01*
X95841Y50576D01*
X96410Y51319D01*
X96768Y52183D01*
X96890Y53110D01*
X96768Y54038D01*
X96410Y54902D01*
X95841Y55644D01*
X95099Y56214D01*
X94235Y56572D01*
X93307Y56694D01*
D02*
G37*
G36*
X66748Y53437D02*
X54437D01*
Y41126D01*
X55947Y41245D01*
X57908Y41715D01*
X59771Y42487D01*
X61490Y43541D01*
X63024Y44850D01*
X64333Y46384D01*
X65387Y48103D01*
X66159Y49966D01*
X66629Y51927D01*
X66748Y53437D01*
D02*
G37*
G36*
X53437D02*
X41126D01*
X41245Y51927D01*
X41715Y49966D01*
X42487Y48103D01*
X43541Y46384D01*
X44850Y44850D01*
X46384Y43541D01*
X48103Y42487D01*
X49966Y41715D01*
X51927Y41245D01*
X53437Y41126D01*
Y53437D01*
D02*
G37*
%LPD*%
D15*
X217323Y49606D02*
Y51181D01*
X215616Y47900D02*
X217323Y49606D01*
X187139Y47900D02*
X215616D01*
X215309Y53262D02*
X223622D01*
X214173Y52127D02*
X215309Y53262D01*
X214173Y49729D02*
Y52127D01*
X213545Y49100D02*
X214173Y49729D01*
X223622Y51181D02*
Y53262D01*
Y47350D02*
Y51181D01*
X141732Y93307D02*
X187139Y47900D01*
X188695Y49100D02*
X213545D01*
X157283Y80512D02*
X188695Y49100D01*
X223622Y53262D02*
Y61417D01*
X157283Y80512D02*
Y91388D01*
X140094Y98095D02*
Y108294D01*
Y98095D02*
X146801Y91388D01*
X140094Y108294D02*
X144792Y112992D01*
X146801Y91388D02*
X157283D01*
X144792Y112992D02*
X211024D01*
Y132677D02*
Y142520D01*
Y122835D02*
Y132677D01*
Y112992D02*
Y122835D01*
X220760Y44488D02*
X223622Y47350D01*
X182874Y44488D02*
X220760D01*
X174016Y53347D02*
X182874Y44488D01*
X374410Y99606D02*
X410235D01*
X367717Y106299D02*
X374410Y99606D01*
X288583Y92913D02*
Y119685D01*
X264567Y68898D02*
X288583Y92913D01*
X273031Y129724D02*
X288583D01*
X271260Y127953D02*
X273031Y129724D01*
X271260Y95276D02*
Y127953D01*
X264567Y88583D02*
X271260Y95276D01*
X150394Y60039D02*
Y78213D01*
X143307Y85299D02*
X150394Y78213D01*
X125197Y70079D02*
X142520D01*
X108661Y53543D02*
X125197Y70079D01*
D52*
X93307Y112657D02*
D03*
Y64567D02*
D03*
Y88157D02*
D03*
Y76157D02*
D03*
Y53110D02*
D03*
Y136658D02*
D03*
Y100437D02*
D03*
Y124563D02*
D03*
X204331Y61417D02*
D03*
Y71653D02*
D03*
Y81496D02*
D03*
Y91339D02*
D03*
Y101575D02*
D03*
D53*
X211811Y51181D02*
D03*
X265551Y96063D02*
D03*
X157283Y91388D02*
D03*
X174016Y53347D02*
D03*
X153937Y52559D02*
D03*
X146850Y53740D02*
D03*
X140157Y73488D02*
D03*
X143626Y81362D02*
D03*
X163386Y80709D02*
D03*
Y91339D02*
D03*
Y85827D02*
D03*
X207087Y153937D02*
D03*
X183858Y138976D02*
D03*
X140945Y154724D02*
D03*
X409448Y99606D02*
D03*
X367717Y106299D02*
D03*
X316535Y124803D02*
D03*
X285433Y124409D02*
D03*
X288583Y119685D02*
D03*
X264567Y68898D02*
D03*
X288583Y129724D02*
D03*
X264567Y88583D02*
D03*
X304724Y83218D02*
D03*
X223622Y61417D02*
D03*
Y51181D02*
D03*
Y142520D02*
D03*
Y132677D02*
D03*
Y122835D02*
D03*
Y112992D02*
D03*
X211024Y122835D02*
D03*
Y142520D02*
D03*
Y132677D02*
D03*
Y112992D02*
D03*
X150394Y60039D02*
D03*
X143307Y85299D02*
D03*
X217323Y51181D02*
D03*
X141732Y93307D02*
D03*
X142520Y70079D02*
D03*
X108661Y53543D02*
D03*
D54*
X418110Y152756D02*
D03*
Y53937D02*
D03*
X53937Y152756D02*
D03*
Y53937D02*
D03*
M02*
