G04*
G04 #@! TF.GenerationSoftware,Altium Limited,Altium Designer,19.0.14 (431)*
G04*
G04 Layer_Physical_Order=1*
G04 Layer_Color=255*
%FSLAX25Y25*%
%MOIN*%
G70*
G01*
G75*
%ADD15C,0.00600*%
%ADD16C,0.03937*%
%ADD17C,0.01000*%
G04:AMPARAMS|DCode=19|XSize=31.5mil|YSize=55.12mil|CornerRadius=3.15mil|HoleSize=0mil|Usage=FLASHONLY|Rotation=90.000|XOffset=0mil|YOffset=0mil|HoleType=Round|Shape=RoundedRectangle|*
%AMROUNDEDRECTD19*
21,1,0.03150,0.04882,0,0,90.0*
21,1,0.02520,0.05512,0,0,90.0*
1,1,0.00630,0.02441,0.01260*
1,1,0.00630,0.02441,-0.01260*
1,1,0.00630,-0.02441,-0.01260*
1,1,0.00630,-0.02441,0.01260*
%
%ADD19ROUNDEDRECTD19*%
G04:AMPARAMS|DCode=20|XSize=51.18mil|YSize=51.18mil|CornerRadius=5.12mil|HoleSize=0mil|Usage=FLASHONLY|Rotation=135.000|XOffset=0mil|YOffset=0mil|HoleType=Round|Shape=RoundedRectangle|*
%AMROUNDEDRECTD20*
21,1,0.05118,0.04095,0,0,135.0*
21,1,0.04095,0.05118,0,0,135.0*
1,1,0.01024,0.00000,0.02895*
1,1,0.01024,0.02895,0.00000*
1,1,0.01024,0.00000,-0.02895*
1,1,0.01024,-0.02895,0.00000*
%
%ADD20ROUNDEDRECTD20*%
G04:AMPARAMS|DCode=24|XSize=31.5mil|YSize=55.12mil|CornerRadius=3.15mil|HoleSize=0mil|Usage=FLASHONLY|Rotation=0.000|XOffset=0mil|YOffset=0mil|HoleType=Round|Shape=RoundedRectangle|*
%AMROUNDEDRECTD24*
21,1,0.03150,0.04882,0,0,0.0*
21,1,0.02520,0.05512,0,0,0.0*
1,1,0.00630,0.01260,-0.02441*
1,1,0.00630,-0.01260,-0.02441*
1,1,0.00630,-0.01260,0.02441*
1,1,0.00630,0.01260,0.02441*
%
%ADD24ROUNDEDRECTD24*%
G04:AMPARAMS|DCode=25|XSize=51.18mil|YSize=51.18mil|CornerRadius=5.12mil|HoleSize=0mil|Usage=FLASHONLY|Rotation=45.000|XOffset=0mil|YOffset=0mil|HoleType=Round|Shape=RoundedRectangle|*
%AMROUNDEDRECTD25*
21,1,0.05118,0.04095,0,0,45.0*
21,1,0.04095,0.05118,0,0,45.0*
1,1,0.01024,0.02895,0.00000*
1,1,0.01024,0.00000,-0.02895*
1,1,0.01024,-0.02895,0.00000*
1,1,0.01024,0.00000,0.02895*
%
%ADD25ROUNDEDRECTD25*%
%ADD38C,0.03937*%
%ADD39R,0.07480X0.04016*%
%ADD40R,0.02953X0.03150*%
%ADD41R,0.03150X0.02953*%
%ADD42R,0.05512X0.05512*%
%ADD43R,0.01968X0.03543*%
%ADD44R,0.04331X0.05315*%
%ADD45O,0.04921X0.00984*%
%ADD46R,0.08500X0.10799*%
%ADD47R,0.04724X0.04724*%
%ADD48R,0.03543X0.02756*%
%ADD49R,0.04724X0.14173*%
%ADD50R,0.04724X0.04724*%
%ADD51C,0.01500*%
%ADD52C,0.05906*%
%ADD53C,0.02362*%
%ADD54C,0.23622*%
G36*
X224213Y139764D02*
X219094D01*
X221260Y141929D01*
Y143209D01*
X219193Y145276D01*
X224213D01*
Y139764D01*
D02*
G37*
G36*
X213386Y143110D02*
Y141831D01*
X215453Y139764D01*
X210433D01*
Y145276D01*
X215551D01*
X213386Y143110D01*
D02*
G37*
G36*
X224213Y129921D02*
X219094D01*
X221260Y132087D01*
Y133366D01*
X219193Y135433D01*
X224213D01*
Y129921D01*
D02*
G37*
G36*
X213386Y133268D02*
Y131988D01*
X215453Y129921D01*
X210433D01*
Y135433D01*
X215551D01*
X213386Y133268D01*
D02*
G37*
G36*
X224213Y120079D02*
X219094D01*
X221260Y122244D01*
Y123524D01*
X219193Y125591D01*
X224213D01*
Y120079D01*
D02*
G37*
G36*
X213386Y123425D02*
Y122146D01*
X215453Y120079D01*
X210433D01*
Y125591D01*
X215551D01*
X213386Y123425D01*
D02*
G37*
G36*
X412598Y113583D02*
X410433Y115748D01*
X409154D01*
X407087Y113681D01*
Y118701D01*
X412598D01*
Y113583D01*
D02*
G37*
G36*
X224213Y110236D02*
X219094D01*
X221260Y112402D01*
Y113681D01*
X219193Y115748D01*
X224213D01*
Y110236D01*
D02*
G37*
G36*
X213386Y113583D02*
Y112303D01*
X215453Y110236D01*
X210433D01*
Y115748D01*
X215551D01*
X213386Y113583D01*
D02*
G37*
G36*
X409252Y107874D02*
X410532D01*
X412598Y109941D01*
Y104921D01*
X407087D01*
Y110039D01*
X409252Y107874D01*
D02*
G37*
G36*
X224213Y98819D02*
X219094D01*
X221260Y100984D01*
Y102264D01*
X219193Y104331D01*
X224213D01*
Y98819D01*
D02*
G37*
G36*
X213386Y102165D02*
Y100886D01*
X215453Y98819D01*
X210433D01*
Y104331D01*
X215551D01*
X213386Y102165D01*
D02*
G37*
G36*
X412598Y93504D02*
X410433Y95669D01*
X409154D01*
X407087Y93602D01*
Y98622D01*
X412598D01*
Y93504D01*
D02*
G37*
G36*
X224213Y88583D02*
X219094D01*
X221260Y90748D01*
Y92028D01*
X219193Y94095D01*
X224213D01*
Y88583D01*
D02*
G37*
G36*
X213386Y91929D02*
Y90650D01*
X215453Y88583D01*
X210433D01*
Y94095D01*
X215551D01*
X213386Y91929D01*
D02*
G37*
G36*
X409252Y87795D02*
X410532D01*
X412598Y89862D01*
Y84842D01*
X407087D01*
Y89961D01*
X409252Y87795D01*
D02*
G37*
G36*
X267323Y84055D02*
X265158Y86221D01*
X263878D01*
X261811Y84153D01*
Y89173D01*
X267323D01*
Y84055D01*
D02*
G37*
G36*
X224213Y78740D02*
X219094D01*
X221260Y80905D01*
Y82185D01*
X219193Y84252D01*
X224213D01*
Y78740D01*
D02*
G37*
G36*
X213386Y82087D02*
Y80807D01*
X215453Y78740D01*
X210433D01*
Y84252D01*
X215551D01*
X213386Y82087D01*
D02*
G37*
G36*
X263976Y78347D02*
X265256D01*
X267323Y80413D01*
Y75394D01*
X261811D01*
Y80512D01*
X263976Y78347D01*
D02*
G37*
G36*
X224213Y68764D02*
X219094D01*
X221260Y70929D01*
Y72209D01*
X219193Y74276D01*
X224213D01*
Y68764D01*
D02*
G37*
G36*
X213386Y72110D02*
Y70831D01*
X215453Y68764D01*
X210433D01*
Y74276D01*
X215551D01*
X213386Y72110D01*
D02*
G37*
G36*
X267323Y64370D02*
X265158Y66535D01*
X263878D01*
X261811Y64468D01*
Y69488D01*
X267323D01*
Y64370D01*
D02*
G37*
G36*
X224213Y58661D02*
X219094D01*
X221260Y60827D01*
Y62106D01*
X219193Y64173D01*
X224213D01*
Y58661D01*
D02*
G37*
G36*
X213386Y62008D02*
Y60728D01*
X215453Y58661D01*
X210433D01*
Y64173D01*
X215551D01*
X213386Y62008D01*
D02*
G37*
G36*
X263976Y58661D02*
X265256D01*
X267323Y60728D01*
Y55709D01*
X261811D01*
Y60827D01*
X263976Y58661D01*
D02*
G37*
G36*
X224213Y48425D02*
X219094D01*
X221260Y50591D01*
Y51870D01*
X219193Y53937D01*
X224213D01*
Y48425D01*
D02*
G37*
G36*
X213386Y51772D02*
Y50492D01*
X215453Y48425D01*
X210433D01*
Y53937D01*
X215551D01*
X213386Y51772D01*
D02*
G37*
D15*
X211811Y142520D02*
Y143356D01*
X211024Y112992D02*
Y113490D01*
X210537Y113976D02*
X211024Y113490D01*
X204331Y113976D02*
X210537D01*
X143307Y81681D02*
X143626Y81362D01*
X149295D01*
X143307Y81681D02*
X144957Y83331D01*
X149295D01*
X163189Y85827D02*
Y91388D01*
Y80709D02*
Y85827D01*
X163386D01*
X415776Y91732D02*
X418110D01*
Y53937D02*
Y91732D01*
X418701Y111811D02*
X419095Y111417D01*
X418110Y112402D02*
X418701Y111811D01*
X418110Y112402D02*
Y152756D01*
X409842Y91732D02*
X415678D01*
X425591Y91929D02*
X425787Y91732D01*
X425591Y91929D02*
Y99016D01*
X425000Y105512D02*
X425591Y104921D01*
X425000Y105512D02*
Y111417D01*
X409842Y111811D02*
X418701D01*
X400224Y75207D02*
X409842Y84825D01*
X383465Y75207D02*
X401012D01*
X409785Y98697D02*
X409842Y98639D01*
X409785Y98697D02*
Y99269D01*
X409448Y99606D02*
X409785Y99269D01*
X364173Y109843D02*
X367717Y106299D01*
X363779Y109843D02*
X364173D01*
X363779D02*
X363878Y109941D01*
Y119803D01*
X397413Y104904D02*
X410630D01*
X386021Y93511D02*
X397413Y104904D01*
X386021Y92663D02*
Y93511D01*
X384313Y90955D02*
X386021Y92663D01*
X383465Y90955D02*
X384313D01*
X375425Y118718D02*
X410630D01*
X366795Y127347D02*
X375425Y118718D01*
X366334Y127347D02*
X366795D01*
X363878Y129803D02*
X366334Y127347D01*
X363779Y129902D02*
X363878Y129803D01*
X363779Y129902D02*
Y139370D01*
X325905Y119803D02*
X331398D01*
X321354Y115251D02*
X325905Y119803D01*
X321255Y115251D02*
X321354D01*
X320079Y114075D02*
X321255Y115251D01*
X320079Y113976D02*
Y114075D01*
X321354Y134355D02*
X325905Y129803D01*
X321255Y134355D02*
X321354D01*
X320079Y135531D02*
X321255Y134355D01*
X320079Y135531D02*
Y135630D01*
X325905Y129803D02*
X331398D01*
X321354Y121157D02*
X322441Y122244D01*
X321255Y121157D02*
X321354D01*
X320079Y119980D02*
X321255Y121157D01*
X320079Y119882D02*
Y119980D01*
X322441Y122244D02*
Y127362D01*
X321354Y128450D02*
X322441Y127362D01*
X321255Y128450D02*
X321354D01*
X320079Y129626D02*
X321255Y128450D01*
X320079Y129626D02*
Y129724D01*
X316535Y124803D02*
X316732D01*
X285236Y124409D02*
X285433D01*
X308465Y129724D02*
X314370Y135630D01*
X320079D01*
X308465Y119882D02*
X314370Y113976D01*
X320079D01*
X308465Y119882D02*
Y120374D01*
Y129232D02*
Y129724D01*
X279331Y124409D02*
Y129528D01*
Y118898D02*
Y124409D01*
X286142Y119803D02*
X291752D01*
X292323Y120374D01*
X285236Y118898D02*
X286142Y119803D01*
X288583Y115855D02*
Y119685D01*
X287008Y114280D02*
X288583Y115855D01*
X287008Y113870D02*
Y114280D01*
X264567Y68110D02*
Y68898D01*
X285236Y129528D02*
X292028D01*
X292323Y129232D01*
X288583Y129724D02*
Y133054D01*
X287008Y134629D02*
X288583Y133054D01*
X287008Y134629D02*
Y135039D01*
X264567Y87795D02*
Y88583D01*
X304724Y83218D02*
X304872Y83071D01*
X308858D01*
X327155D02*
X327165Y83081D01*
X314764Y83071D02*
X327155D01*
X291432Y75094D02*
X291546Y75207D01*
X291334Y75094D02*
X291432D01*
X290158Y73917D02*
X291334Y75094D01*
X290158Y73819D02*
Y73917D01*
X291546Y75207D02*
X327165D01*
X290158Y90748D02*
X326958D01*
X327165Y90955D01*
X290158Y79724D02*
Y84842D01*
X264567Y57087D02*
X273425D01*
X288883Y72544D01*
X288981D01*
X290158Y73721D01*
Y73819D01*
X264567Y76772D02*
X276181D01*
X288883Y89473D01*
X288981D01*
X290158Y90650D01*
Y90748D01*
X224108Y103396D02*
X259646D01*
X222835Y102122D02*
X224108Y103396D01*
X222835Y101575D02*
Y102122D01*
X265551Y103248D02*
Y103642D01*
X260330Y98027D02*
X265551Y103248D01*
X260330Y96747D02*
Y98027D01*
X259646Y96063D02*
X260330Y96747D01*
X251575Y96063D02*
X259646D01*
X246850Y91339D02*
X251575Y96063D01*
X222835Y91339D02*
X246850D01*
X233071Y62598D02*
X264567D01*
X224150Y71520D02*
X233071Y62598D01*
X222835Y71520D02*
X224150D01*
X225000Y82284D02*
X264567D01*
X224213Y81496D02*
X225000Y82284D01*
X222835Y81496D02*
X224213D01*
X173819Y59449D02*
X174016Y59252D01*
X168504Y59449D02*
X173819D01*
X165748Y56299D02*
X167229Y54818D01*
X167328D01*
X168504Y53642D01*
Y53543D02*
Y53642D01*
X161811Y56299D02*
X165748D01*
X150394Y60039D02*
X153937D01*
X147244D02*
X150394D01*
X146850Y59646D02*
X147244Y60039D01*
X143307Y85299D02*
X145276Y87268D01*
X149295D01*
X153543Y84449D02*
Y88449D01*
Y84449D02*
X156009Y81984D01*
Y81885D02*
Y81984D01*
Y81885D02*
X157185Y80709D01*
X157283D01*
X152756Y89236D02*
X153543Y88449D01*
X149295Y89236D02*
X152756D01*
X153284Y91205D02*
X154809Y89679D01*
Y88203D02*
Y89679D01*
Y88203D02*
X157185Y85827D01*
X157283D01*
X149295Y91205D02*
X153284D01*
X141732Y93307D02*
X141866Y93173D01*
X149295D01*
X153530Y95142D02*
X156009Y92663D01*
Y92564D02*
Y92663D01*
Y92564D02*
X157185Y91388D01*
X157283D01*
X149295Y95142D02*
X153530D01*
X158082Y97638D02*
X158661D01*
X156641Y99079D02*
X158082Y97638D01*
X149295Y99079D02*
X156641D01*
X217323Y61417D02*
Y64961D01*
X215748Y66535D02*
X217323Y64961D01*
X199606Y66535D02*
X215748D01*
X165094Y101047D02*
X199606Y66535D01*
X149295Y101047D02*
X165094D01*
X217323Y71520D02*
Y75197D01*
X216142Y76378D02*
X217323Y75197D01*
X202362Y76378D02*
X216142D01*
X175724Y103016D02*
X202362Y76378D01*
X149295Y103016D02*
X175724D01*
X216402Y117422D02*
X217323Y116501D01*
X202756Y117422D02*
X216402D01*
X217323Y112992D02*
Y116501D01*
Y119291D02*
Y122835D01*
X216689Y118658D02*
X217323Y119291D01*
X202122Y118658D02*
X216689D01*
X217323Y128740D02*
Y132677D01*
X216535Y127953D02*
X217323Y128740D01*
X208268Y127953D02*
X216535D01*
X215748Y107087D02*
X217323Y105512D01*
Y101575D02*
Y105512D01*
X210827Y107087D02*
X215748D01*
X217323Y81496D02*
Y85039D01*
X215699Y86663D02*
X217323Y85039D01*
X197982Y86663D02*
X215699D01*
X179661Y104984D02*
X197982Y86663D01*
X149295Y104984D02*
X179661D01*
X217323Y91339D02*
Y94882D01*
X215748Y96457D02*
X217323Y94882D01*
X191917Y96457D02*
X215748D01*
X181421Y106953D02*
X191917Y96457D01*
X149295Y106953D02*
X181421D01*
X207024Y110890D02*
X210827Y107087D01*
X200394Y110890D02*
X207024D01*
X198425Y108921D02*
X200394Y110890D01*
X149295Y108921D02*
X198425D01*
X149295Y110890D02*
X196223D01*
X202756Y117422D01*
X196323Y112858D02*
X202122Y118658D01*
X149295Y112858D02*
X196323D01*
X195142Y114827D02*
X208268Y127953D01*
X149295Y114827D02*
X195142D01*
X149295Y116795D02*
X187661D01*
X208661Y137795D01*
X216535D01*
X217323Y138583D01*
Y142520D01*
X183858Y145079D02*
X209252D01*
X209701Y144629D01*
X210537D01*
X211811Y143356D01*
X204331Y61417D02*
X211811D01*
X211677Y71653D02*
X211811Y71520D01*
X204331Y71653D02*
X211677D01*
X204331Y81496D02*
X211811D01*
X204331Y91339D02*
X211811D01*
X204331Y103642D02*
Y107874D01*
Y101575D02*
Y103642D01*
X205507Y102465D01*
X204331Y103642D02*
X204331Y103642D01*
Y101575D02*
X211811D01*
X205507Y102465D02*
X205606D01*
X204331Y103642D02*
Y103740D01*
X100402Y129913D02*
Y133268D01*
Y129913D02*
X106263Y124052D01*
Y116149D02*
Y124052D01*
Y116149D02*
X117428Y104984D01*
X121736D01*
X102287Y115458D02*
X116698Y101047D01*
X103395Y109449D02*
X115415Y97429D01*
X100394Y109449D02*
X103395D01*
X115415Y97429D02*
X119345D01*
X102287Y115458D02*
Y119219D01*
X116698Y101047D02*
X121736D01*
X100394Y121112D02*
X102287Y119219D01*
X119345Y97429D02*
X119664Y97110D01*
X121736D01*
X119669Y93173D02*
X121736D01*
X119224Y93618D02*
X119669Y93173D01*
X110741Y93618D02*
X119224D01*
X107903Y96457D02*
X110741Y93618D01*
X100394Y96457D02*
X107903D01*
X119664Y81362D02*
X121736D01*
X119345Y81681D02*
X119664Y81362D01*
X115065Y81681D02*
X119345D01*
X113281Y83465D02*
X115065Y81681D01*
X100402Y83465D02*
X113281D01*
X100394Y72441D02*
X102460Y74507D01*
X111487D01*
X114404Y77425D01*
X121736D01*
X119664Y73488D02*
X121736D01*
X119345Y73170D02*
X119664Y73488D01*
X118080Y73170D02*
X119345D01*
X105934Y61024D02*
X118080Y73170D01*
X100394Y61024D02*
X105934D01*
X143961Y71520D02*
X149295D01*
X142520Y70079D02*
X143961Y71520D01*
X104724Y49606D02*
X108661Y53543D01*
X100394Y49606D02*
X104724D01*
D16*
X194291Y153937D02*
X201378D01*
X182283D02*
X183858Y152362D01*
Y145079D02*
Y152362D01*
X182283Y153937D02*
X188386D01*
X175394D02*
X182283D01*
X151378Y144882D02*
X175394D01*
X151378Y143307D02*
Y144882D01*
X150984Y142913D02*
X151378Y143307D01*
X140945Y142913D02*
X150984D01*
X127756Y146063D02*
X130905Y142913D01*
X140945D01*
X127756Y146063D02*
Y153937D01*
X113031Y149244D02*
Y150394D01*
Y149244D02*
X115313Y146963D01*
X116720D01*
X117619Y146063D01*
X121850D01*
X113031Y150394D02*
Y151543D01*
X115313Y153825D01*
X117507D01*
X117619Y153937D01*
X121850D01*
D17*
X130055Y97110D02*
X149295D01*
X127559Y99606D02*
X130055Y97110D01*
X119484Y114827D02*
X121736D01*
X142520Y135433D02*
X175394D01*
X127559Y120472D02*
X142520Y135433D01*
X127559Y99606D02*
Y120472D01*
D19*
X264567Y87795D02*
D03*
Y76772D02*
D03*
Y68110D02*
D03*
Y57087D02*
D03*
X409842Y117323D02*
D03*
Y106299D02*
D03*
Y97244D02*
D03*
Y86221D02*
D03*
D20*
X264567Y82284D02*
D03*
Y62598D02*
D03*
X409842Y111811D02*
D03*
Y91732D02*
D03*
D24*
X222835Y61417D02*
D03*
X211811D02*
D03*
X222835Y51181D02*
D03*
X211811D02*
D03*
X222835Y81496D02*
D03*
X211811D02*
D03*
X222835Y71520D02*
D03*
X211811D02*
D03*
X222835Y91339D02*
D03*
X211811D02*
D03*
X222835Y101575D02*
D03*
X211811D02*
D03*
Y142520D02*
D03*
X222835D02*
D03*
X211811Y132677D02*
D03*
X222835D02*
D03*
X211811Y122835D02*
D03*
X222835D02*
D03*
X211811Y112992D02*
D03*
X222835D02*
D03*
D25*
X217323Y61417D02*
D03*
Y51181D02*
D03*
Y81496D02*
D03*
Y71520D02*
D03*
Y91339D02*
D03*
Y101575D02*
D03*
Y142520D02*
D03*
Y132677D02*
D03*
Y122835D02*
D03*
Y112992D02*
D03*
D38*
X363779Y109843D02*
D03*
Y139370D02*
D03*
X314961Y75197D02*
D03*
X314567Y90945D02*
D03*
X287008Y113870D02*
D03*
Y135039D02*
D03*
X100402Y133268D02*
D03*
X100394Y121112D02*
D03*
Y109449D02*
D03*
Y96457D02*
D03*
X100402Y83465D02*
D03*
X100394Y72441D02*
D03*
Y61024D02*
D03*
Y49606D02*
D03*
X182283Y153937D02*
D03*
X158661Y97638D02*
D03*
X251575Y103445D02*
D03*
X312598Y113870D02*
D03*
Y135039D02*
D03*
X251575Y96063D02*
D03*
D39*
X383465Y51585D02*
D03*
Y59459D02*
D03*
Y67333D02*
D03*
Y75207D02*
D03*
Y83081D02*
D03*
Y90955D02*
D03*
X327165Y51585D02*
D03*
Y59459D02*
D03*
Y67333D02*
D03*
Y75207D02*
D03*
Y83081D02*
D03*
Y90955D02*
D03*
D40*
X290158Y79724D02*
D03*
Y73819D02*
D03*
Y84842D02*
D03*
Y90748D02*
D03*
X425591Y99016D02*
D03*
Y104921D02*
D03*
X183858Y145079D02*
D03*
Y139173D02*
D03*
X174016Y53347D02*
D03*
Y59252D02*
D03*
X320079Y113976D02*
D03*
Y119882D02*
D03*
Y135630D02*
D03*
Y129724D02*
D03*
X204331Y113976D02*
D03*
Y108071D02*
D03*
X74516Y130705D02*
D03*
Y136610D02*
D03*
Y118658D02*
D03*
Y124563D02*
D03*
Y106705D02*
D03*
Y112610D02*
D03*
X168504Y59449D02*
D03*
Y53543D02*
D03*
X74516Y94532D02*
D03*
Y100437D02*
D03*
X146850Y59646D02*
D03*
Y53740D02*
D03*
X74516Y82252D02*
D03*
Y88157D02*
D03*
Y70252D02*
D03*
Y76157D02*
D03*
Y58705D02*
D03*
Y64610D02*
D03*
Y47205D02*
D03*
Y53110D02*
D03*
D41*
X308858Y83071D02*
D03*
X314764D02*
D03*
X425000Y111417D02*
D03*
X419095D02*
D03*
X425000Y91732D02*
D03*
X419095D02*
D03*
X194291Y153937D02*
D03*
X188386D02*
D03*
X285236Y118898D02*
D03*
X279331D02*
D03*
Y124409D02*
D03*
X285236D02*
D03*
Y129528D02*
D03*
X279331D02*
D03*
X322638Y124803D02*
D03*
X316732D02*
D03*
X80563Y136658D02*
D03*
X86468D02*
D03*
X80563Y124563D02*
D03*
X86468D02*
D03*
X80563Y112657D02*
D03*
X86468D02*
D03*
X121850Y153937D02*
D03*
X127756D02*
D03*
X121850Y146063D02*
D03*
X127756D02*
D03*
X80563Y100437D02*
D03*
X86468D02*
D03*
X80563Y88157D02*
D03*
X86468D02*
D03*
X201378Y153937D02*
D03*
X207283D02*
D03*
X80563Y76157D02*
D03*
X86468D02*
D03*
X80563Y64657D02*
D03*
X86468D02*
D03*
X80063Y53158D02*
D03*
X85969D02*
D03*
X157283Y91388D02*
D03*
X163189D02*
D03*
X157283Y80709D02*
D03*
X163189D02*
D03*
X157283Y85827D02*
D03*
X163189D02*
D03*
D42*
X331398Y129803D02*
D03*
Y119803D02*
D03*
X363878Y129803D02*
D03*
Y119803D02*
D03*
D43*
X259646Y103396D02*
D03*
X265551D02*
D03*
X259646Y96063D02*
D03*
X265551D02*
D03*
D44*
X292323Y120374D02*
D03*
X308465D02*
D03*
Y129232D02*
D03*
X292323D02*
D03*
D45*
X121736Y116795D02*
D03*
Y114827D02*
D03*
Y112858D02*
D03*
Y110890D02*
D03*
Y108921D02*
D03*
Y106953D02*
D03*
Y104984D02*
D03*
Y103016D02*
D03*
Y101047D02*
D03*
Y99079D02*
D03*
Y97110D02*
D03*
Y95142D02*
D03*
Y93173D02*
D03*
Y91205D02*
D03*
Y89236D02*
D03*
Y87268D02*
D03*
Y85299D02*
D03*
Y83331D02*
D03*
Y81362D02*
D03*
Y79394D02*
D03*
Y77425D02*
D03*
Y75457D02*
D03*
Y73488D02*
D03*
Y71520D02*
D03*
X149295Y116795D02*
D03*
Y114827D02*
D03*
Y112858D02*
D03*
Y110890D02*
D03*
Y108921D02*
D03*
Y106953D02*
D03*
Y104984D02*
D03*
Y103016D02*
D03*
Y101047D02*
D03*
Y99079D02*
D03*
Y97110D02*
D03*
Y95142D02*
D03*
Y93173D02*
D03*
Y91205D02*
D03*
Y89236D02*
D03*
Y87268D02*
D03*
Y85299D02*
D03*
Y83331D02*
D03*
Y81362D02*
D03*
Y79394D02*
D03*
Y77425D02*
D03*
Y75457D02*
D03*
Y73488D02*
D03*
Y71520D02*
D03*
D46*
X113031Y150394D02*
D03*
X95630D02*
D03*
D47*
X140945Y154724D02*
D03*
Y142913D02*
D03*
D48*
X153937Y60039D02*
D03*
Y52559D02*
D03*
X161811Y56299D02*
D03*
D49*
X151378Y144882D02*
D03*
D50*
X175394Y153937D02*
D03*
Y144882D02*
D03*
Y135827D02*
D03*
D51*
X53543Y152362D02*
X57189D01*
X57976Y153150D01*
X54331Y52756D02*
Y53937D01*
Y52756D02*
X59882Y47205D01*
X57976Y153150D02*
X74516Y136610D01*
X93417Y112767D02*
X102410D01*
X93307Y112657D02*
X93417Y112767D01*
X102410D02*
X116098Y99079D01*
X101925Y136658D02*
X103937Y134646D01*
X93307Y136658D02*
X101925D01*
X103937Y116142D02*
X116937Y103142D01*
X121610D01*
X116098Y99079D02*
X121736D01*
X121610Y103142D02*
X121736Y103016D01*
X103937Y116142D02*
Y123031D01*
X119131Y114827D02*
X119484D01*
X116669Y117289D02*
X119131Y114827D01*
X116669Y117289D02*
Y117422D01*
X110236Y45276D02*
X138449Y73488D01*
X76445Y45276D02*
X110236D01*
X100402Y53158D02*
X118764Y71520D01*
X85969Y53158D02*
X100402D01*
X105602Y64657D02*
X116402Y75457D01*
X86468Y64657D02*
X105602D01*
X102406Y124563D02*
X103937Y123031D01*
X93307Y124563D02*
X102406D01*
X103937Y130021D02*
X116669Y117289D01*
Y111024D02*
Y117289D01*
X103937Y130021D02*
Y134646D01*
X74516Y47205D02*
X76445Y45276D01*
X95630Y148508D02*
X121736Y122402D01*
X95630Y148508D02*
Y150394D01*
X121736Y116795D02*
Y122402D01*
X91732Y150394D02*
X95630D01*
X80844Y139505D02*
X91732Y150394D01*
X80563Y136658D02*
X80844Y136938D01*
X80516Y136610D02*
X80563Y136658D01*
X80844Y136938D02*
Y139505D01*
X59882Y47205D02*
X74516D01*
Y136610D02*
X80516D01*
X116669Y108134D02*
Y111024D01*
X116803Y110890D01*
X121736D01*
X116669Y108134D02*
X117850Y106953D01*
X121736D01*
X86468Y136658D02*
X93307D01*
X111417Y95276D02*
X118990D01*
X106256Y100437D02*
X111417Y95276D01*
X93307Y100437D02*
X106256D01*
X86468Y124563D02*
X93307D01*
X86468Y112657D02*
X93307D01*
X86468Y100437D02*
X93307D01*
X118990Y95276D02*
X118997Y95268D01*
X121610D01*
X121736Y95142D01*
X94197Y87268D02*
X111811D01*
X93307Y88157D02*
X94197Y87268D01*
X111811D02*
X115748Y91205D01*
X121736D01*
X111811Y87268D02*
X115748Y83331D01*
X111811Y87268D02*
X121736D01*
X86468Y88157D02*
X93307D01*
X115748Y83331D02*
X121736D01*
X93307Y76157D02*
X110803D01*
X86468D02*
X93307D01*
X114039Y79394D02*
X121736D01*
X110803Y76157D02*
X114039Y79394D01*
X116402Y75457D02*
X121736D01*
X74516Y124563D02*
Y130157D01*
Y124563D02*
X80016D01*
X80063Y124610D01*
X74516Y112610D02*
Y118205D01*
Y112610D02*
X80016D01*
X80063Y112657D01*
X74516Y100437D02*
Y106032D01*
Y100437D02*
X80016D01*
X80063Y100484D01*
X74516Y88157D02*
Y93752D01*
Y88157D02*
X80016D01*
X80063Y88205D01*
X74516Y76157D02*
Y81752D01*
Y76157D02*
X80016D01*
X80063Y76205D01*
X74516Y64610D02*
Y70205D01*
Y64610D02*
X80016D01*
X80063Y64657D01*
X118764Y71520D02*
X121736D01*
X80016Y53110D02*
X80063Y53158D01*
X74516Y53110D02*
X80016D01*
X74516D02*
Y58705D01*
X138449Y73488D02*
X149295D01*
D52*
X93307Y112657D02*
D03*
Y64567D02*
D03*
Y88157D02*
D03*
Y76157D02*
D03*
Y53110D02*
D03*
Y136658D02*
D03*
Y100437D02*
D03*
Y124563D02*
D03*
X204331Y61417D02*
D03*
Y71653D02*
D03*
Y81496D02*
D03*
Y91339D02*
D03*
Y101575D02*
D03*
D53*
X211811Y51181D02*
D03*
X265551Y96063D02*
D03*
X157283Y91388D02*
D03*
X174016Y53347D02*
D03*
X153937Y52559D02*
D03*
X146850Y53740D02*
D03*
X140157Y73488D02*
D03*
X143626Y81362D02*
D03*
X163386Y80709D02*
D03*
Y91339D02*
D03*
Y85827D02*
D03*
X207087Y153937D02*
D03*
X183858Y138976D02*
D03*
X140945Y154724D02*
D03*
X409448Y99606D02*
D03*
X367717Y106299D02*
D03*
X316535Y124803D02*
D03*
X285433Y124409D02*
D03*
X288583Y119685D02*
D03*
X264567Y68898D02*
D03*
X288583Y129724D02*
D03*
X264567Y88583D02*
D03*
X304724Y83218D02*
D03*
X223622Y61417D02*
D03*
Y51181D02*
D03*
Y142520D02*
D03*
Y132677D02*
D03*
Y122835D02*
D03*
Y112992D02*
D03*
X211024Y122835D02*
D03*
Y142520D02*
D03*
Y132677D02*
D03*
Y112992D02*
D03*
X150394Y60039D02*
D03*
X143307Y85299D02*
D03*
X217323Y51181D02*
D03*
X141732Y93307D02*
D03*
X142520Y70079D02*
D03*
X108661Y53543D02*
D03*
D54*
X418110Y152756D02*
D03*
Y53937D02*
D03*
X53937Y152756D02*
D03*
Y53937D02*
D03*
M02*
