G04*
G04 #@! TF.GenerationSoftware,Altium Limited,Altium Designer,19.0.14 (431)*
G04*
G04 Layer_Color=8388736*
%FSLAX25Y25*%
%MOIN*%
G70*
G01*
G75*
%ADD18C,0.04737*%
G04:AMPARAMS|DCode=19|XSize=31.5mil|YSize=55.12mil|CornerRadius=3.15mil|HoleSize=0mil|Usage=FLASHONLY|Rotation=90.000|XOffset=0mil|YOffset=0mil|HoleType=Round|Shape=RoundedRectangle|*
%AMROUNDEDRECTD19*
21,1,0.03150,0.04882,0,0,90.0*
21,1,0.02520,0.05512,0,0,90.0*
1,1,0.00630,0.02441,0.01260*
1,1,0.00630,0.02441,-0.01260*
1,1,0.00630,-0.02441,-0.01260*
1,1,0.00630,-0.02441,0.01260*
%
%ADD19ROUNDEDRECTD19*%
G04:AMPARAMS|DCode=20|XSize=51.18mil|YSize=51.18mil|CornerRadius=5.12mil|HoleSize=0mil|Usage=FLASHONLY|Rotation=135.000|XOffset=0mil|YOffset=0mil|HoleType=Round|Shape=RoundedRectangle|*
%AMROUNDEDRECTD20*
21,1,0.05118,0.04095,0,0,135.0*
21,1,0.04095,0.05118,0,0,135.0*
1,1,0.01024,0.00000,0.02895*
1,1,0.01024,0.02895,0.00000*
1,1,0.01024,0.00000,-0.02895*
1,1,0.01024,-0.02895,0.00000*
%
%ADD20ROUNDEDRECTD20*%
%ADD21R,0.08280X0.04816*%
%ADD22R,0.03753X0.03950*%
%ADD23R,0.03950X0.03753*%
G04:AMPARAMS|DCode=24|XSize=31.5mil|YSize=55.12mil|CornerRadius=3.15mil|HoleSize=0mil|Usage=FLASHONLY|Rotation=0.000|XOffset=0mil|YOffset=0mil|HoleType=Round|Shape=RoundedRectangle|*
%AMROUNDEDRECTD24*
21,1,0.03150,0.04882,0,0,0.0*
21,1,0.02520,0.05512,0,0,0.0*
1,1,0.00630,0.01260,-0.02441*
1,1,0.00630,-0.01260,-0.02441*
1,1,0.00630,-0.01260,0.02441*
1,1,0.00630,0.01260,0.02441*
%
%ADD24ROUNDEDRECTD24*%
G04:AMPARAMS|DCode=25|XSize=51.18mil|YSize=51.18mil|CornerRadius=5.12mil|HoleSize=0mil|Usage=FLASHONLY|Rotation=45.000|XOffset=0mil|YOffset=0mil|HoleType=Round|Shape=RoundedRectangle|*
%AMROUNDEDRECTD25*
21,1,0.05118,0.04095,0,0,45.0*
21,1,0.04095,0.05118,0,0,45.0*
1,1,0.01024,0.02895,0.00000*
1,1,0.01024,0.00000,-0.02895*
1,1,0.01024,-0.02895,0.00000*
1,1,0.01024,0.00000,0.02895*
%
%ADD25ROUNDEDRECTD25*%
%ADD26R,0.06312X0.06312*%
%ADD27R,0.02769X0.04343*%
%ADD28R,0.05131X0.06115*%
%ADD29O,0.05721X0.01784*%
%ADD30R,0.09300X0.11599*%
%ADD31R,0.05524X0.05524*%
%ADD32R,0.04343X0.03556*%
%ADD33R,0.05524X0.14973*%
%ADD34R,0.05524X0.05524*%
%ADD35C,0.06706*%
%ADD36C,0.03162*%
%ADD37C,0.24422*%
G36*
X224409Y139764D02*
X210236D01*
Y145276D01*
X224409D01*
Y139764D01*
D02*
G37*
G36*
Y129921D02*
X210236D01*
Y135433D01*
X224409D01*
Y129921D01*
D02*
G37*
G36*
Y120079D02*
X210236D01*
Y125591D01*
X224409D01*
Y120079D01*
D02*
G37*
G36*
Y110236D02*
X210236D01*
Y115748D01*
X224409D01*
Y110236D01*
D02*
G37*
G36*
X412598Y104724D02*
X407087D01*
Y118898D01*
X412598D01*
Y104724D01*
D02*
G37*
G36*
X224409Y98819D02*
X210236D01*
Y104331D01*
X224409D01*
Y98819D01*
D02*
G37*
G36*
Y88583D02*
X210236D01*
Y94095D01*
X224409D01*
Y88583D01*
D02*
G37*
G36*
X412598Y84646D02*
X407087D01*
Y98819D01*
X412598D01*
Y84646D01*
D02*
G37*
G36*
X224409Y78740D02*
X210236D01*
Y84252D01*
X224409D01*
Y78740D01*
D02*
G37*
G36*
X267323Y75197D02*
X261811D01*
Y89370D01*
X267323D01*
Y75197D01*
D02*
G37*
G36*
X224409Y68764D02*
X210236D01*
Y74276D01*
X224409D01*
Y68764D01*
D02*
G37*
G36*
Y58661D02*
X210236D01*
Y64173D01*
X224409D01*
Y58661D01*
D02*
G37*
G36*
X267323Y55512D02*
X261811D01*
Y69685D01*
X267323D01*
Y55512D01*
D02*
G37*
G36*
X224409Y48425D02*
X210236D01*
Y53937D01*
X224409D01*
Y48425D01*
D02*
G37*
D18*
X363779Y109843D02*
D03*
Y139370D02*
D03*
X314961Y75197D02*
D03*
X314567Y90945D02*
D03*
X287008Y113870D02*
D03*
Y135039D02*
D03*
X100402Y133268D02*
D03*
X100394Y121112D02*
D03*
Y109449D02*
D03*
Y96457D02*
D03*
X100402Y83465D02*
D03*
X100394Y72441D02*
D03*
Y61024D02*
D03*
Y49606D02*
D03*
X182283Y153937D02*
D03*
X158661Y97638D02*
D03*
X251575Y103445D02*
D03*
X312598Y113870D02*
D03*
Y135039D02*
D03*
X251575Y96063D02*
D03*
D19*
X264567Y87795D02*
D03*
Y76772D02*
D03*
Y68110D02*
D03*
Y57087D02*
D03*
X409842Y117323D02*
D03*
Y106299D02*
D03*
Y97244D02*
D03*
Y86221D02*
D03*
D20*
X264567Y82284D02*
D03*
Y62598D02*
D03*
X409842Y111811D02*
D03*
Y91732D02*
D03*
D21*
X383465Y51585D02*
D03*
Y59459D02*
D03*
Y67333D02*
D03*
Y75207D02*
D03*
Y83081D02*
D03*
Y90955D02*
D03*
X327165Y51585D02*
D03*
Y59459D02*
D03*
Y67333D02*
D03*
Y75207D02*
D03*
Y83081D02*
D03*
Y90955D02*
D03*
D22*
X290158Y79724D02*
D03*
Y73819D02*
D03*
Y84842D02*
D03*
Y90748D02*
D03*
X425591Y99016D02*
D03*
Y104921D02*
D03*
X183858Y145079D02*
D03*
Y139173D02*
D03*
X174016Y53347D02*
D03*
Y59252D02*
D03*
X320079Y113976D02*
D03*
Y119882D02*
D03*
Y135630D02*
D03*
Y129724D02*
D03*
X204331Y113976D02*
D03*
Y108071D02*
D03*
X74516Y130705D02*
D03*
Y136610D02*
D03*
Y118658D02*
D03*
Y124563D02*
D03*
Y106705D02*
D03*
Y112610D02*
D03*
X168504Y59449D02*
D03*
Y53543D02*
D03*
X74516Y94532D02*
D03*
Y100437D02*
D03*
X146850Y59646D02*
D03*
Y53740D02*
D03*
X74516Y82252D02*
D03*
Y88157D02*
D03*
Y70252D02*
D03*
Y76157D02*
D03*
Y58705D02*
D03*
Y64610D02*
D03*
Y47205D02*
D03*
Y53110D02*
D03*
D23*
X308858Y83071D02*
D03*
X314764D02*
D03*
X425000Y111417D02*
D03*
X419095D02*
D03*
X425000Y91732D02*
D03*
X419095D02*
D03*
X194291Y153937D02*
D03*
X188386D02*
D03*
X285236Y118898D02*
D03*
X279331D02*
D03*
Y124409D02*
D03*
X285236D02*
D03*
Y129528D02*
D03*
X279331D02*
D03*
X322638Y124803D02*
D03*
X316732D02*
D03*
X80563Y136658D02*
D03*
X86468D02*
D03*
X80563Y124563D02*
D03*
X86468D02*
D03*
X80563Y112657D02*
D03*
X86468D02*
D03*
X121850Y153937D02*
D03*
X127756D02*
D03*
X121850Y146063D02*
D03*
X127756D02*
D03*
X80563Y100437D02*
D03*
X86468D02*
D03*
X80563Y88157D02*
D03*
X86468D02*
D03*
X201378Y153937D02*
D03*
X207283D02*
D03*
X80563Y76157D02*
D03*
X86468D02*
D03*
X80563Y64657D02*
D03*
X86468D02*
D03*
X80063Y53158D02*
D03*
X85969D02*
D03*
X157283Y91388D02*
D03*
X163189D02*
D03*
X157283Y80709D02*
D03*
X163189D02*
D03*
X157283Y85827D02*
D03*
X163189D02*
D03*
D24*
X222835Y61417D02*
D03*
X211811D02*
D03*
X222835Y51181D02*
D03*
X211811D02*
D03*
X222835Y81496D02*
D03*
X211811D02*
D03*
X222835Y71520D02*
D03*
X211811D02*
D03*
X222835Y91339D02*
D03*
X211811D02*
D03*
X222835Y101575D02*
D03*
X211811D02*
D03*
Y142520D02*
D03*
X222835D02*
D03*
X211811Y132677D02*
D03*
X222835D02*
D03*
X211811Y122835D02*
D03*
X222835D02*
D03*
X211811Y112992D02*
D03*
X222835D02*
D03*
D25*
X217323Y61417D02*
D03*
Y51181D02*
D03*
Y81496D02*
D03*
Y71520D02*
D03*
Y91339D02*
D03*
Y101575D02*
D03*
Y142520D02*
D03*
Y132677D02*
D03*
Y122835D02*
D03*
Y112992D02*
D03*
D26*
X331398Y129803D02*
D03*
Y119803D02*
D03*
X363878Y129803D02*
D03*
Y119803D02*
D03*
D27*
X259646Y103396D02*
D03*
X265551D02*
D03*
X259646Y96063D02*
D03*
X265551D02*
D03*
D28*
X292323Y120374D02*
D03*
X308465D02*
D03*
Y129232D02*
D03*
X292323D02*
D03*
D29*
X121736Y116795D02*
D03*
Y114827D02*
D03*
Y112858D02*
D03*
Y110890D02*
D03*
Y108921D02*
D03*
Y106953D02*
D03*
Y104984D02*
D03*
Y103016D02*
D03*
Y101047D02*
D03*
Y99079D02*
D03*
Y97110D02*
D03*
Y95142D02*
D03*
Y93173D02*
D03*
Y91205D02*
D03*
Y89236D02*
D03*
Y87268D02*
D03*
Y85299D02*
D03*
Y83331D02*
D03*
Y81362D02*
D03*
Y79394D02*
D03*
Y77425D02*
D03*
Y75457D02*
D03*
Y73488D02*
D03*
Y71520D02*
D03*
X149295Y116795D02*
D03*
Y114827D02*
D03*
Y112858D02*
D03*
Y110890D02*
D03*
Y108921D02*
D03*
Y106953D02*
D03*
Y104984D02*
D03*
Y103016D02*
D03*
Y101047D02*
D03*
Y99079D02*
D03*
Y97110D02*
D03*
Y95142D02*
D03*
Y93173D02*
D03*
Y91205D02*
D03*
Y89236D02*
D03*
Y87268D02*
D03*
Y85299D02*
D03*
Y83331D02*
D03*
Y81362D02*
D03*
Y79394D02*
D03*
Y77425D02*
D03*
Y75457D02*
D03*
Y73488D02*
D03*
Y71520D02*
D03*
D30*
X113031Y150394D02*
D03*
X95630D02*
D03*
D31*
X140945Y154724D02*
D03*
Y142913D02*
D03*
D32*
X153937Y60039D02*
D03*
Y52559D02*
D03*
X161811Y56299D02*
D03*
D33*
X151378Y144882D02*
D03*
D34*
X175394Y153937D02*
D03*
Y144882D02*
D03*
Y135827D02*
D03*
D35*
X93307Y112657D02*
D03*
Y64567D02*
D03*
Y88157D02*
D03*
Y76157D02*
D03*
Y53110D02*
D03*
Y136658D02*
D03*
Y100437D02*
D03*
Y124563D02*
D03*
X204331Y61417D02*
D03*
Y71653D02*
D03*
Y81496D02*
D03*
Y91339D02*
D03*
Y101575D02*
D03*
D36*
X265551Y96063D02*
D03*
X157283Y91388D02*
D03*
X174016Y53347D02*
D03*
X153937Y52559D02*
D03*
X146850Y53740D02*
D03*
X140157Y73488D02*
D03*
X143626Y81362D02*
D03*
X163386Y80709D02*
D03*
Y91339D02*
D03*
Y85827D02*
D03*
D37*
X418110Y152756D02*
D03*
Y53937D02*
D03*
X53937Y152756D02*
D03*
Y53937D02*
D03*
M02*
