M48
;Layer_Color=9474304
;FILE_FORMAT=2:5
INCH,LZ
;TYPE=PLATED
T1F00S00C0.01181
T2F00S00C0.03937
T3F00S00C0.15748
%
T01
X0108661Y0053543
X014685Y005374
X0153937Y0052559
X0150394Y0060039
X014252Y0070079
X0140157Y0073488
X0143626Y0081362
X0143307Y0085299
X0141732Y0093307
X0140945Y0154724
X0183858Y0138976
X0211024Y014252
Y0132677
Y0122835
Y0112992
X0223622
Y0122835
Y0132677
Y014252
X0207087Y0153937
X0288583Y0129724
X0285433Y0124409
X0288583Y0119685
X0265551Y0096063
X0264567Y0088583
Y0068898
X0223622Y0061417
Y0051181
X0217323
X0211811
X0174016Y0053347
X0163386Y0080709
Y0085827
Y0091339
X0157283Y0091388
X0304724Y0083218
X0316535Y0124803
X0367717Y0106299
X0409448Y0099606
T02
X0093307Y005311
Y0064567
Y0076157
Y0088157
Y0100437
Y0112657
Y0124563
Y0136658
X0204331Y0101575
Y0091339
Y0081496
Y0071653
Y0061417
T03
X0053937Y0053937
Y0152756
X041811
Y0053937
M30
