G04*
G04 #@! TF.GenerationSoftware,Altium Limited,Altium Designer,19.0.14 (431)*
G04*
G04 Layer_Color=65535*
%FSLAX25Y25*%
%MOIN*%
G70*
G01*
G75*
%ADD10C,0.00984*%
%ADD11C,0.02362*%
%ADD12C,0.00787*%
%ADD13C,0.01968*%
%ADD14C,0.00591*%
%ADD15C,0.00600*%
%ADD16C,0.03937*%
%ADD17C,0.01000*%
D10*
X383957Y47412D02*
G03*
X383957Y47412I-492J0D01*
G01*
X364370Y114882D02*
G03*
X364370Y114882I-492J0D01*
G01*
X122228Y119453D02*
G03*
X122228Y119453I-492J0D01*
G01*
D11*
X375394Y45680D02*
G03*
X375394Y45680I-1181J0D01*
G01*
X357283Y118504D02*
G03*
X357283Y118504I-1181J0D01*
G01*
X131185Y116008D02*
G03*
X131185Y116008I-1181J0D01*
G01*
D12*
X137402Y139764D02*
G03*
X137402Y139764I-394J0D01*
G01*
X261417Y74016D02*
X267717D01*
Y90551D01*
X261417D02*
X267717D01*
X261417Y74016D02*
Y90551D01*
Y54331D02*
X267717D01*
Y70866D01*
X261417D02*
X267717D01*
X261417Y54331D02*
Y70866D01*
X378150Y41743D02*
Y100798D01*
X332480Y41743D02*
Y100798D01*
Y41743D02*
X378150D01*
X332480Y100798D02*
X378150D01*
X406693Y103543D02*
X412992D01*
Y120079D01*
X406693D02*
X412992D01*
X406693Y103543D02*
Y120079D01*
Y83465D02*
X412992D01*
Y100000D01*
X406693D02*
X412992D01*
X406693Y83465D02*
Y100000D01*
X209055Y58268D02*
Y64567D01*
Y58268D02*
X225590D01*
Y64567D01*
X209055D02*
X225590D01*
X209055Y48031D02*
Y54331D01*
Y48031D02*
X225590D01*
Y54331D01*
X209055D02*
X225590D01*
X209055Y78347D02*
Y84646D01*
Y78347D02*
X225590D01*
Y84646D01*
X209055D02*
X225590D01*
X209055Y68370D02*
Y74669D01*
Y68370D02*
X225590D01*
Y74669D01*
X209055D02*
X225590D01*
X209055Y88189D02*
Y94488D01*
Y88189D02*
X225590D01*
Y94488D01*
X209055D02*
X225590D01*
X209055Y98425D02*
Y104724D01*
Y98425D02*
X225590D01*
Y104724D01*
X209055D02*
X225590D01*
Y139370D02*
Y145669D01*
X209055D02*
X225590D01*
X209055Y139370D02*
Y145669D01*
Y139370D02*
X225590D01*
Y129528D02*
Y135827D01*
X209055D02*
X225590D01*
X209055Y129528D02*
Y135827D01*
Y129528D02*
X225590D01*
Y119685D02*
Y125984D01*
X209055D02*
X225590D01*
X209055Y119685D02*
Y125984D01*
Y119685D02*
X225590D01*
Y109843D02*
Y116142D01*
X209055D02*
X225590D01*
X209055Y109843D02*
Y116142D01*
Y109843D02*
X225590D01*
X335236Y135039D02*
X360039D01*
X335236Y114567D02*
X360039D01*
X335236D02*
Y135039D01*
X360039Y114567D02*
Y135039D01*
X126067Y68370D02*
Y119945D01*
X144965Y68370D02*
Y119945D01*
X126067D02*
X144965D01*
X126067Y68370D02*
X144965D01*
X231810Y63706D02*
X230499D01*
X231154D01*
Y60426D01*
X230499Y59770D01*
X229843D01*
X229187Y60426D01*
X233122Y59114D02*
X235746D01*
X237058Y63706D02*
X238370D01*
X237714D01*
Y59770D01*
X237058D01*
X238370D01*
X242962Y63050D02*
X242306Y63706D01*
X240994D01*
X240338Y63050D01*
Y62394D01*
X240994Y61738D01*
X242306D01*
X242962Y61082D01*
Y60426D01*
X242306Y59770D01*
X240994D01*
X240338Y60426D01*
X246241Y63706D02*
X244930D01*
X244274Y63050D01*
Y60426D01*
X244930Y59770D01*
X246241D01*
X246897Y60426D01*
Y63050D01*
X246241Y63706D01*
X248209Y59770D02*
Y63706D01*
X249521Y62394D01*
X250833Y63706D01*
Y59770D01*
X252145Y63706D02*
Y59770D01*
X254113D01*
X254769Y60426D01*
Y63050D01*
X254113Y63706D01*
X252145D01*
X231810Y83806D02*
X230499D01*
X231154D01*
Y80526D01*
X230499Y79870D01*
X229843D01*
X229187Y80526D01*
X233122Y79214D02*
X235746D01*
X237058Y83806D02*
X238370D01*
X237714D01*
Y79870D01*
X237058D01*
X238370D01*
X240338D02*
Y83806D01*
X242306D01*
X242962Y83150D01*
Y81838D01*
X242306Y81182D01*
X240338D01*
X244274Y79870D02*
Y82494D01*
X245585Y83806D01*
X246897Y82494D01*
Y79870D01*
Y81838D01*
X244274D01*
X231810Y73806D02*
X230499D01*
X231154D01*
Y70526D01*
X230499Y69870D01*
X229843D01*
X229187Y70526D01*
X233122Y69214D02*
X235746D01*
X237058Y73806D02*
X238370D01*
X237714D01*
Y69870D01*
X237058D01*
X238370D01*
X240338D02*
Y73806D01*
X241650Y72494D01*
X242962Y73806D01*
Y69870D01*
X244274D02*
Y72494D01*
X245585Y73806D01*
X246897Y72494D01*
Y69870D01*
Y71838D01*
X244274D01*
X231810Y93606D02*
X230499D01*
X231154D01*
Y90326D01*
X230499Y89670D01*
X229843D01*
X229187Y90326D01*
X233122Y89014D02*
X235746D01*
X237058Y93606D02*
X238370D01*
X237714D01*
Y89670D01*
X237058D01*
X238370D01*
X242962Y92950D02*
X242306Y93606D01*
X240994D01*
X240338Y92950D01*
Y90326D01*
X240994Y89670D01*
X242306D01*
X242962Y90326D01*
X244274Y89670D02*
Y93606D01*
X245585Y92294D01*
X246897Y93606D01*
Y89670D01*
X248209D02*
Y93606D01*
X250177D01*
X250833Y92950D01*
Y91638D01*
X250177Y90982D01*
X248209D01*
X231810Y103906D02*
X230499D01*
X231154D01*
Y100626D01*
X230499Y99970D01*
X229843D01*
X229187Y100626D01*
X233122Y99314D02*
X235746D01*
X237058Y103906D02*
X238370D01*
X237714D01*
Y99970D01*
X237058D01*
X238370D01*
X240338Y103906D02*
Y99970D01*
X242306D01*
X242962Y100626D01*
Y101282D01*
X242306Y101938D01*
X240338D01*
X242306D01*
X242962Y102594D01*
Y103250D01*
X242306Y103906D01*
X240338D01*
X244274D02*
X245585D01*
X244930D01*
Y99970D01*
X244274D01*
X245585D01*
X247553D02*
Y102594D01*
X248865Y103906D01*
X250177Y102594D01*
Y99970D01*
Y101938D01*
X247553D01*
X254113Y103250D02*
X253457Y103906D01*
X252145D01*
X251489Y103250D01*
Y102594D01*
X252145Y101938D01*
X253457D01*
X254113Y101282D01*
Y100626D01*
X253457Y99970D01*
X252145D01*
X251489Y100626D01*
X231810Y53506D02*
X230499D01*
X231154D01*
Y50226D01*
X230499Y49570D01*
X229843D01*
X229187Y50226D01*
X233122Y48914D02*
X235746D01*
X237058Y53506D02*
Y49570D01*
X239026D01*
X239682Y50226D01*
Y52850D01*
X239026Y53506D01*
X237058D01*
X240994D02*
X243618D01*
X242306D01*
Y49570D01*
X247553Y53506D02*
X244930D01*
Y49570D01*
X247553D01*
X244930Y51538D02*
X246241D01*
X248865Y49570D02*
Y53506D01*
X251489Y49570D01*
Y53506D01*
X231810Y144806D02*
X230499D01*
X231154D01*
Y141526D01*
X230499Y140870D01*
X229843D01*
X229187Y141526D01*
X233122Y140214D02*
X235746D01*
X237058Y140870D02*
Y143494D01*
X238370Y144806D01*
X239682Y143494D01*
Y140870D01*
Y142838D01*
X237058D01*
X240994Y144150D02*
X241650Y144806D01*
X242962D01*
X243618Y144150D01*
Y143494D01*
X242962Y142838D01*
X242306D01*
X242962D01*
X243618Y142182D01*
Y141526D01*
X242962Y140870D01*
X241650D01*
X240994Y141526D01*
X231810Y135006D02*
X230499D01*
X231154D01*
Y131726D01*
X230499Y131070D01*
X229843D01*
X229187Y131726D01*
X233122Y130414D02*
X235746D01*
X237058Y131070D02*
Y133694D01*
X238370Y135006D01*
X239682Y133694D01*
Y131070D01*
Y133038D01*
X237058D01*
X243618Y131070D02*
X240994D01*
X243618Y133694D01*
Y134350D01*
X242962Y135006D01*
X241650D01*
X240994Y134350D01*
X231810Y125106D02*
X230499D01*
X231154D01*
Y121826D01*
X230499Y121170D01*
X229843D01*
X229187Y121826D01*
X233122Y120514D02*
X235746D01*
X237058Y121170D02*
Y123794D01*
X238370Y125106D01*
X239682Y123794D01*
Y121170D01*
Y123138D01*
X237058D01*
X240994Y121170D02*
X242306D01*
X241650D01*
Y125106D01*
X240994Y124450D01*
X231810Y115306D02*
X230499D01*
X231154D01*
Y112026D01*
X230499Y111370D01*
X229843D01*
X229187Y112026D01*
X233122Y110714D02*
X235746D01*
X237058Y111370D02*
Y113994D01*
X238370Y115306D01*
X239682Y113994D01*
Y111370D01*
Y113338D01*
X237058D01*
X240994Y114650D02*
X241650Y115306D01*
X242962D01*
X243618Y114650D01*
Y112026D01*
X242962Y111370D01*
X241650D01*
X240994Y112026D01*
Y114650D01*
D13*
X346063Y165748D02*
X346063Y40945D01*
D14*
X172516Y61799D02*
X175665D01*
X196839Y152287D02*
Y155437D01*
X88976Y144488D02*
Y156299D01*
X157874Y50197D02*
X160689D01*
Y52362D01*
Y60236D02*
Y62402D01*
X157874D02*
X160689D01*
X155709Y131102D02*
Y133071D01*
Y131102D02*
X171063D01*
Y132087D01*
X155709Y156693D02*
Y158661D01*
X171063D01*
Y157677D02*
Y158661D01*
D15*
X192763Y82733D02*
X192163Y83333D01*
X190964D01*
X190364Y82733D01*
Y82133D01*
X190964Y81533D01*
X192163D01*
X192763Y80933D01*
Y80334D01*
X192163Y79734D01*
X190964D01*
X190364Y80334D01*
X196362Y82733D02*
X195762Y83333D01*
X194562D01*
X193963Y82733D01*
Y80334D01*
X194562Y79734D01*
X195762D01*
X196362Y80334D01*
X197561Y83333D02*
Y79734D01*
Y80933D01*
X199961Y83333D01*
X198161Y81533D01*
X199961Y79734D01*
X192763Y102812D02*
X192163Y103411D01*
X190964D01*
X190364Y102812D01*
Y102212D01*
X190964Y101612D01*
X192163D01*
X192763Y101012D01*
Y100412D01*
X192163Y99813D01*
X190964D01*
X190364Y100412D01*
X193963Y103411D02*
Y99813D01*
X195762D01*
X196362Y100412D01*
Y102812D01*
X195762Y103411D01*
X193963D01*
X199361D02*
X198161D01*
X197561Y102812D01*
Y100412D01*
X198161Y99813D01*
X199361D01*
X199961Y100412D01*
Y102812D01*
X199361Y103411D01*
X192763Y92575D02*
X192163Y93175D01*
X190964D01*
X190364Y92575D01*
Y91976D01*
X190964Y91376D01*
X192163D01*
X192763Y90776D01*
Y90176D01*
X192163Y89576D01*
X190964D01*
X190364Y90176D01*
X193963Y93175D02*
Y89576D01*
X195762D01*
X196362Y90176D01*
Y92575D01*
X195762Y93175D01*
X193963D01*
X197561D02*
X198761D01*
X198161D01*
Y89576D01*
X197561D01*
X198761D01*
X192763Y72890D02*
X192163Y73490D01*
X190964D01*
X190364Y72890D01*
Y70491D01*
X190964Y69891D01*
X192163D01*
X192763Y70491D01*
X196362Y72890D02*
X195762Y73490D01*
X194562D01*
X193963Y72890D01*
Y72291D01*
X194562Y71691D01*
X195762D01*
X196362Y71091D01*
Y70491D01*
X195762Y69891D01*
X194562D01*
X193963Y70491D01*
X197561Y73490D02*
Y69891D01*
X199361D01*
X199961Y70491D01*
Y71091D01*
X199361Y71691D01*
X197561D01*
X199361D01*
X199961Y72291D01*
Y72890D01*
X199361Y73490D01*
X197561D01*
X192763Y62654D02*
X192163Y63254D01*
X190964D01*
X190364Y62654D01*
Y60255D01*
X190964Y59655D01*
X192163D01*
X192763Y60255D01*
Y61454D01*
X191563D01*
X193963Y59655D02*
Y63254D01*
X196362Y59655D01*
Y63254D01*
X197561D02*
Y59655D01*
X199361D01*
X199961Y60255D01*
Y62654D01*
X199361Y63254D01*
X197561D01*
X162633Y99563D02*
X162598Y95965D01*
X163809Y97153D01*
X164997Y95942D01*
X165032Y99540D01*
X166231Y99529D02*
X166197Y95930D01*
X167997Y95913D01*
X168602Y96507D01*
X168625Y98906D01*
X168031Y99512D01*
X166231Y99529D01*
X169830Y99495D02*
X172229Y99472D01*
X171029Y99484D01*
X170995Y95885D01*
X167770Y89570D02*
X168970D01*
X168370D01*
Y93169D01*
X167770Y92569D01*
X170769Y91969D02*
Y90170D01*
X171369Y89570D01*
X173168D01*
Y91969D01*
X180366Y93169D02*
X177967D01*
Y91369D01*
X179166Y91969D01*
X179766D01*
X180366Y91369D01*
Y90170D01*
X179766Y89570D01*
X178567D01*
X177967Y90170D01*
X181566Y93169D02*
Y90770D01*
X182765Y89570D01*
X183965Y90770D01*
Y93169D01*
X167770Y78870D02*
X168970D01*
X168370D01*
Y82469D01*
X167770Y81869D01*
X170769Y81269D02*
Y79470D01*
X171369Y78870D01*
X173168D01*
Y81269D01*
X177967Y82469D02*
Y80070D01*
X179166Y78870D01*
X180366Y80070D01*
Y82469D01*
X183965Y78870D02*
X181566D01*
X183965Y81269D01*
Y81869D01*
X183365Y82469D01*
X182165D01*
X181566Y81869D01*
X167770Y84070D02*
X168970D01*
X168370D01*
Y87669D01*
X167770Y87069D01*
X170769Y86469D02*
Y84670D01*
X171369Y84070D01*
X173168D01*
Y86469D01*
X177967Y87669D02*
Y85270D01*
X179166Y84070D01*
X180366Y85270D01*
Y87669D01*
X181566Y84070D02*
X182765D01*
X182165D01*
Y87669D01*
X181566Y87069D01*
D16*
X46850Y70469D02*
X59970D01*
X46457Y129788D02*
X59576D01*
X53016Y136347D02*
Y123228D01*
D17*
X398819Y74502D02*
X400818D01*
X399819D01*
Y68504D01*
X398819D01*
X400818D01*
X403817D02*
Y74502D01*
X405817Y72503D01*
X407816Y74502D01*
Y68504D01*
X409815Y67504D02*
X413814D01*
X415813Y74502D02*
X417813D01*
X416813D01*
Y68504D01*
X415813D01*
X417813D01*
X424811Y73502D02*
X423811Y74502D01*
X421811D01*
X420812Y73502D01*
Y72503D01*
X421811Y71503D01*
X423811D01*
X424811Y70503D01*
Y69504D01*
X423811Y68504D01*
X421811D01*
X420812Y69504D01*
X429809Y74502D02*
X427809D01*
X426810Y73502D01*
Y69504D01*
X427809Y68504D01*
X429809D01*
X430809Y69504D01*
Y73502D01*
X429809Y74502D01*
X398819Y138675D02*
X400818D01*
X399819D01*
Y132677D01*
X398819D01*
X400818D01*
X403817D02*
Y138675D01*
X406816D01*
X407816Y137675D01*
Y135676D01*
X406816Y134677D01*
X403817D01*
X409815Y131677D02*
X413814D01*
X415813Y138675D02*
X417813D01*
X416813D01*
Y132677D01*
X415813D01*
X417813D01*
X424811Y137675D02*
X423811Y138675D01*
X421811D01*
X420812Y137675D01*
Y136676D01*
X421811Y135676D01*
X423811D01*
X424811Y134677D01*
Y133677D01*
X423811Y132677D01*
X421811D01*
X420812Y133677D01*
X429809Y138675D02*
X427809D01*
X426810Y137675D01*
Y133677D01*
X427809Y132677D01*
X429809D01*
X430809Y133677D01*
Y137675D01*
X429809Y138675D01*
X294570Y78168D02*
X296569D01*
X295570D01*
Y72170D01*
X294570D01*
X296569D01*
X299569D02*
Y78168D01*
X301568Y76169D01*
X303567Y78168D01*
Y72170D01*
X305567D02*
Y76169D01*
X307566Y78168D01*
X309565Y76169D01*
Y72170D01*
Y75169D01*
X305567D01*
X294170Y93968D02*
X296169D01*
X295170D01*
Y87970D01*
X294170D01*
X296169D01*
X299168D02*
Y93968D01*
X302168D01*
X303167Y92968D01*
Y90969D01*
X302168Y89969D01*
X299168D01*
X305167Y87970D02*
Y91969D01*
X307166Y93968D01*
X309165Y91969D01*
Y87970D01*
Y90969D01*
X305167D01*
X292126Y114660D02*
X294125D01*
X293126D01*
Y108661D01*
X292126D01*
X294125D01*
X297124D02*
Y114660D01*
X299124Y112660D01*
X301123Y114660D01*
Y108661D01*
X303122D02*
Y112660D01*
X305122Y114660D01*
X307121Y112660D01*
Y108661D01*
Y111660D01*
X303122D01*
X292913Y140250D02*
X294913D01*
X293913D01*
Y134252D01*
X292913D01*
X294913D01*
X297912D02*
Y140250D01*
X300911D01*
X301910Y139250D01*
Y137251D01*
X300911Y136251D01*
X297912D01*
X303910Y134252D02*
Y138251D01*
X305909Y140250D01*
X307909Y138251D01*
Y134252D01*
Y137251D01*
X303910D01*
X110701Y115278D02*
X108702Y114278D01*
X106702Y112278D01*
Y110279D01*
X107702Y109280D01*
X109701D01*
X110701Y110279D01*
Y111279D01*
X109701Y112278D01*
X106702D01*
X181269Y165268D02*
X177270D01*
Y162269D01*
X179269Y163269D01*
X180269D01*
X181269Y162269D01*
Y160270D01*
X180269Y159270D01*
X178270D01*
X177270Y160270D01*
X183268Y165268D02*
Y161269D01*
X185267Y159270D01*
X187267Y161269D01*
Y165268D01*
X106702Y138278D02*
X107702Y139278D01*
X109701D01*
X110701Y138278D01*
Y137278D01*
X109701Y136278D01*
X110701Y135279D01*
Y134279D01*
X109701Y133280D01*
X107702D01*
X106702Y134279D01*
Y135279D01*
X107702Y136278D01*
X106702Y137278D01*
Y138278D01*
X107702Y136278D02*
X109701D01*
X106702Y127178D02*
X110701D01*
Y126178D01*
X106702Y122179D01*
Y121179D01*
X110701Y103078D02*
X106702D01*
Y100078D01*
X108702Y101078D01*
X109701D01*
X110701Y100078D01*
Y98079D01*
X109701Y97079D01*
X107702D01*
X106702Y98079D01*
X109701Y84780D02*
Y90778D01*
X106702Y87779D01*
X110701D01*
X106702Y77778D02*
X107702Y78778D01*
X109701D01*
X110701Y77778D01*
Y76778D01*
X109701Y75779D01*
X108702D01*
X109701D01*
X110701Y74779D01*
Y73779D01*
X109701Y72780D01*
X107702D01*
X106702Y73779D01*
X110701Y61180D02*
X106702D01*
X110701Y65178D01*
Y66178D01*
X109701Y67178D01*
X107702D01*
X106702Y66178D01*
X106757Y49692D02*
X108756D01*
X107756D01*
Y55690D01*
X106757Y54690D01*
M02*
