G04*
G04 #@! TF.GenerationSoftware,Altium Limited,Altium Designer,19.0.14 (431)*
G04*
G04 Layer_Color=16711935*
%FSLAX25Y25*%
%MOIN*%
G70*
G01*
G75*
%ADD20C,0.19107*%
%ADD21R,0.09068X0.09068*%
%ADD22C,0.09068*%
%ADD23C,0.10642*%
%ADD24R,0.09068X0.09068*%
%ADD25C,0.06737*%
%ADD26R,0.06737X0.06737*%
%ADD27R,0.06737X0.06737*%
%ADD28C,0.07887*%
%ADD29C,0.03162*%
D20*
X212598Y114173D02*
D03*
X364173Y222441D02*
D03*
X374016Y59055D02*
D03*
D21*
X308268Y136024D02*
D03*
X186221D02*
D03*
X264961D02*
D03*
X223622D02*
D03*
X406693Y126181D02*
D03*
D22*
X308268Y175000D02*
D03*
X321654D02*
D03*
Y136024D02*
D03*
X186221Y175000D02*
D03*
X199606D02*
D03*
Y136024D02*
D03*
X264961Y175000D02*
D03*
X278346D02*
D03*
Y136024D02*
D03*
X223622Y175000D02*
D03*
X237008D02*
D03*
Y136024D02*
D03*
X161221Y103150D02*
D03*
X122244D02*
D03*
Y89764D02*
D03*
X161221Y63779D02*
D03*
X122244D02*
D03*
Y50393D02*
D03*
X161221Y144488D02*
D03*
X122244D02*
D03*
Y131102D02*
D03*
X161221Y179921D02*
D03*
X122244D02*
D03*
Y166535D02*
D03*
X197047Y83465D02*
D03*
X236024D02*
D03*
Y96850D02*
D03*
X197047Y50393D02*
D03*
X236024D02*
D03*
Y63779D02*
D03*
X420079Y126181D02*
D03*
Y165157D02*
D03*
X406693D02*
D03*
X161221Y216142D02*
D03*
X122244D02*
D03*
Y202756D02*
D03*
D23*
X92716Y209779D02*
D03*
Y187338D02*
D03*
Y164897D02*
D03*
Y142456D02*
D03*
X70276Y209779D02*
D03*
Y187338D02*
D03*
Y164897D02*
D03*
Y142456D02*
D03*
X92716Y104331D02*
D03*
Y81890D02*
D03*
Y59449D02*
D03*
X70276Y104331D02*
D03*
X70472Y81890D02*
D03*
X70276Y59449D02*
D03*
D24*
X161221Y89764D02*
D03*
Y50393D02*
D03*
Y131102D02*
D03*
Y166535D02*
D03*
X197047Y96850D02*
D03*
Y63779D02*
D03*
X161221Y202756D02*
D03*
D25*
X354173Y175394D02*
D03*
X364173D02*
D03*
X374173Y127638D02*
D03*
Y137638D02*
D03*
D26*
Y175394D02*
D03*
D27*
Y147638D02*
D03*
D28*
X59370Y132692D02*
D03*
Y49685D02*
D03*
D29*
X283071Y96064D02*
D03*
Y92914D02*
D03*
X273621D02*
D03*
Y96064D02*
D03*
X279921Y92915D02*
D03*
Y96064D02*
D03*
X276771D02*
D03*
Y92915D02*
D03*
X278345Y94489D02*
D03*
X281495D02*
D03*
X275196D02*
D03*
X273620Y53936D02*
D03*
Y57086D02*
D03*
X283070D02*
D03*
Y53936D02*
D03*
X276770Y57086D02*
D03*
Y53936D02*
D03*
X279920D02*
D03*
Y57086D02*
D03*
X278345Y55512D02*
D03*
X275196D02*
D03*
X281495D02*
D03*
X413779Y207481D02*
D03*
X416929D02*
D03*
Y198031D02*
D03*
X413779D02*
D03*
X416929Y204331D02*
D03*
X413779D02*
D03*
Y201181D02*
D03*
X416929D02*
D03*
X415355Y202755D02*
D03*
Y205905D02*
D03*
Y199606D02*
D03*
X319290Y207481D02*
D03*
X322440D02*
D03*
Y198031D02*
D03*
X319290D02*
D03*
X322440Y204331D02*
D03*
X319290D02*
D03*
Y201181D02*
D03*
X322440D02*
D03*
X320866Y202755D02*
D03*
Y205905D02*
D03*
Y199606D02*
D03*
X279920Y207481D02*
D03*
X283070D02*
D03*
Y198031D02*
D03*
X279920D02*
D03*
X283069Y204331D02*
D03*
X279920D02*
D03*
Y201181D02*
D03*
X283069D02*
D03*
X281496Y202755D02*
D03*
Y205905D02*
D03*
Y199606D02*
D03*
X236614Y207481D02*
D03*
X239764D02*
D03*
Y198031D02*
D03*
X236614D02*
D03*
X239763Y204331D02*
D03*
X236614D02*
D03*
Y201181D02*
D03*
X239763D02*
D03*
X238189Y202755D02*
D03*
Y205905D02*
D03*
Y199606D02*
D03*
X197244Y207481D02*
D03*
X200394D02*
D03*
Y198031D02*
D03*
X197244D02*
D03*
X200393Y204331D02*
D03*
X197244D02*
D03*
Y201181D02*
D03*
X200393D02*
D03*
X198819Y202755D02*
D03*
Y205905D02*
D03*
Y199606D02*
D03*
M02*
