G04*
G04 #@! TF.GenerationSoftware,Altium Limited,Altium Designer,19.0.14 (431)*
G04*
G04 Layer_Physical_Order=1*
G04 Layer_Color=255*
%FSLAX25Y25*%
%MOIN*%
G70*
G01*
G75*
%ADD30R,0.11811X0.03937*%
%ADD31R,0.15748X0.07874*%
%ADD32R,0.07874X0.15748*%
%ADD33R,0.03937X0.11811*%
%ADD34C,0.11811*%
%ADD35C,0.07874*%
%ADD36C,0.27559*%
%ADD37C,0.19685*%
%ADD38C,0.15748*%
%ADD39C,0.18307*%
%ADD40R,0.08268X0.08268*%
%ADD41C,0.08268*%
%ADD42C,0.09843*%
%ADD43R,0.08268X0.08268*%
%ADD44C,0.05937*%
%ADD45R,0.05937X0.05937*%
%ADD46R,0.05937X0.05937*%
%ADD47C,0.07087*%
%ADD48C,0.02362*%
G36*
X136221Y163579D02*
X136087Y163328D01*
X135715Y162102D01*
X135589Y160827D01*
Y126634D01*
X125018D01*
X124848Y127134D01*
X125620Y127726D01*
X126379Y128715D01*
X126856Y129867D01*
X127019Y131102D01*
X126856Y132338D01*
X126379Y133490D01*
X125620Y134479D01*
X124631Y135237D01*
X123480Y135714D01*
X122244Y135877D01*
X121008Y135714D01*
X119857Y135237D01*
X118868Y134479D01*
X118109Y133490D01*
X117632Y132338D01*
X117469Y131102D01*
X117632Y129867D01*
X118109Y128715D01*
X118868Y127726D01*
X119640Y127134D01*
X119470Y126634D01*
X80709D01*
X80512Y126765D01*
Y172441D01*
X92648D01*
X93812Y171447D01*
X95214Y170588D01*
X96732Y169959D01*
X98330Y169575D01*
X99969Y169447D01*
X111769D01*
Y166535D01*
X111898Y164897D01*
X112282Y163299D01*
X112911Y161780D01*
X113770Y160379D01*
X114837Y159129D01*
X116087Y158061D01*
X117489Y157202D01*
X119007Y156573D01*
X120606Y156190D01*
X122244Y156061D01*
X123883Y156190D01*
X125481Y156573D01*
X126999Y157202D01*
X128401Y158061D01*
X129651Y159129D01*
X130718Y160379D01*
X131577Y161780D01*
X132206Y163299D01*
X132590Y164897D01*
X132719Y166535D01*
Y172441D01*
X136221D01*
Y163579D01*
D02*
G37*
G36*
X135589Y82873D02*
X135715Y81598D01*
X136087Y80372D01*
X136221Y80121D01*
Y70866D01*
X80709D01*
Y125984D01*
X135589D01*
Y82873D01*
D02*
G37*
G36*
X175197Y112205D02*
X181102Y106299D01*
X204724D01*
X204724Y41339D01*
X181102D01*
Y66929D01*
X168110Y79921D01*
X154323D01*
X148663Y85581D01*
Y156190D01*
X175197D01*
Y112205D01*
D02*
G37*
G36*
X405759Y56967D02*
X405739Y57068D01*
X405699Y57188D01*
X405659Y57370D01*
X405598Y57571D01*
X405538Y57792D01*
X405478Y58054D01*
X405397Y58336D01*
X405236Y58899D01*
X405055Y59463D01*
X404954Y59725D01*
X404854Y59966D01*
X404773Y60188D01*
X404672Y60369D01*
Y60389D01*
X404652Y60409D01*
X404592Y60510D01*
X404491Y60651D01*
X404350Y60812D01*
X404189Y60973D01*
X403988Y61114D01*
X403767Y61214D01*
X403646Y61255D01*
X403445D01*
X403344Y61214D01*
X403223Y61174D01*
X403082Y61093D01*
X402941Y60993D01*
X402820Y60832D01*
X402700Y60631D01*
X402680Y60610D01*
X402660Y60510D01*
X402619Y60369D01*
X402579Y60168D01*
X402519Y59906D01*
X402478Y59604D01*
X402458Y59242D01*
X402438Y58819D01*
Y58799D01*
Y58758D01*
Y58698D01*
Y58618D01*
X402458Y58376D01*
X402478Y58094D01*
X402519Y57752D01*
X402559Y57410D01*
X402639Y57088D01*
X402740Y56766D01*
X402760Y56725D01*
X402800Y56625D01*
X402881Y56484D01*
X403002Y56283D01*
X403163Y56021D01*
X403384Y55739D01*
X403646Y55437D01*
X403948Y55115D01*
X403968Y55095D01*
X404008Y55054D01*
X404069Y54994D01*
X404169Y54893D01*
X404270Y54773D01*
X404391Y54652D01*
X404672Y54350D01*
X404954Y53988D01*
X405236Y53625D01*
X405498Y53243D01*
X405598Y53082D01*
X405679Y52901D01*
X405699Y52860D01*
X405739Y52740D01*
X405800Y52558D01*
X405880Y52317D01*
X405961Y52015D01*
X406021Y51673D01*
X406062Y51290D01*
X406082Y50867D01*
Y50847D01*
Y50787D01*
Y50706D01*
X406062Y50586D01*
Y50445D01*
X406041Y50284D01*
X405981Y49901D01*
X405900Y49479D01*
X405759Y49016D01*
X405578Y48573D01*
X405317Y48150D01*
Y48130D01*
X405276Y48110D01*
X405176Y47989D01*
X405015Y47828D01*
X404793Y47627D01*
X404511Y47425D01*
X404189Y47264D01*
X403807Y47143D01*
X403606Y47123D01*
X403384Y47103D01*
X403284D01*
X403163Y47123D01*
X403002Y47164D01*
X402820Y47224D01*
X402639Y47304D01*
X402438Y47425D01*
X402257Y47586D01*
X402237Y47606D01*
X402176Y47687D01*
X402096Y47788D01*
X401975Y47969D01*
X401854Y48170D01*
X401713Y48452D01*
X401573Y48774D01*
X401432Y49136D01*
X400787Y47788D01*
Y53182D01*
X400828Y53082D01*
X400868Y52901D01*
X400908Y52679D01*
X400969Y52397D01*
X401049Y52095D01*
X401130Y51753D01*
X401210Y51391D01*
X401411Y50626D01*
X401633Y49881D01*
X401733Y49519D01*
X401854Y49197D01*
X401955Y48915D01*
X402056Y48673D01*
Y48653D01*
X402076Y48633D01*
X402116Y48573D01*
X402156Y48492D01*
X402277Y48311D01*
X402418Y48110D01*
X402619Y47888D01*
X402820Y47707D01*
X402941Y47627D01*
X403082Y47566D01*
X403203Y47546D01*
X403344Y47526D01*
X403384D01*
X403465Y47546D01*
X403606Y47566D01*
X403767Y47627D01*
X403948Y47727D01*
X404149Y47848D01*
X404310Y48049D01*
X404471Y48311D01*
X404491Y48351D01*
X404532Y48472D01*
X404592Y48653D01*
X404652Y48935D01*
X404713Y49277D01*
X404753Y49479D01*
X404773Y49700D01*
X404793Y49942D01*
X404813Y50223D01*
X404834Y50505D01*
Y50807D01*
Y50827D01*
Y50888D01*
Y50968D01*
Y51089D01*
Y51230D01*
X404813Y51371D01*
X404793Y51753D01*
X404753Y52156D01*
X404713Y52558D01*
X404632Y52961D01*
X404532Y53303D01*
X404511Y53343D01*
X404471Y53444D01*
X404391Y53605D01*
X404290Y53807D01*
X404149Y54048D01*
X403948Y54310D01*
X403726Y54592D01*
X403465Y54873D01*
X403445Y54893D01*
X403384Y54954D01*
X403263Y55054D01*
X403102Y55195D01*
X403082Y55216D01*
X403062Y55236D01*
X403002Y55296D01*
X402921Y55377D01*
X402720Y55558D01*
X402478Y55799D01*
X402217Y56081D01*
X401955Y56403D01*
X401713Y56725D01*
X401532Y57047D01*
Y57068D01*
X401512Y57108D01*
X401492Y57168D01*
X401452Y57249D01*
X401411Y57349D01*
X401371Y57490D01*
X401311Y57792D01*
Y57812D01*
X401291Y57873D01*
Y57973D01*
X401270Y58094D01*
X401250Y58255D01*
Y58436D01*
X401230Y58819D01*
Y58839D01*
Y58879D01*
Y58940D01*
X401250Y59020D01*
X401270Y59242D01*
X401311Y59523D01*
X401391Y59846D01*
X401512Y60188D01*
X401653Y60530D01*
X401874Y60832D01*
X401915Y60872D01*
X401995Y60953D01*
X402136Y61093D01*
X402337Y61234D01*
X402579Y61375D01*
X402861Y61516D01*
X403183Y61597D01*
X403545Y61637D01*
X403626D01*
X403726Y61617D01*
X403847Y61597D01*
X403988Y61557D01*
X404149Y61476D01*
X404310Y61396D01*
X404451Y61275D01*
X404471Y61255D01*
X404511Y61214D01*
X404592Y61114D01*
X404693Y60993D01*
X404793Y60832D01*
X404914Y60651D01*
X405035Y60409D01*
X405156Y60147D01*
X405759Y61718D01*
Y56967D01*
D02*
G37*
G36*
X415180Y56645D02*
X413449Y47969D01*
X414697Y47244D01*
X412926D01*
X411476Y54753D01*
X410128Y47244D01*
X408316D01*
X409584Y47969D01*
X407752Y56625D01*
X406545Y57410D01*
X408638D01*
X409947Y48472D01*
X411275Y55900D01*
X410108Y56645D01*
X412886D01*
X411698Y55920D01*
X413087Y48412D01*
X414254Y57410D01*
X416509D01*
X415180Y56645D01*
D02*
G37*
G36*
X419730Y57530D02*
X419871Y57490D01*
X420032Y57410D01*
X420193Y57289D01*
X420374Y57128D01*
X420535Y56906D01*
X420555Y56866D01*
X420615Y56786D01*
X420696Y56625D01*
X420797Y56423D01*
X420917Y56162D01*
X421038Y55819D01*
X421159Y55457D01*
X421280Y55014D01*
X421461Y57410D01*
X423132D01*
X421944Y56685D01*
Y48029D01*
X423212Y47244D01*
X421119D01*
Y48975D01*
X421099Y48955D01*
X421058Y48834D01*
X420998Y48673D01*
X420897Y48472D01*
X420777Y48230D01*
X420656Y47989D01*
X420515Y47767D01*
X420354Y47566D01*
X420334Y47546D01*
X420273Y47486D01*
X420193Y47405D01*
X420072Y47325D01*
X419951Y47244D01*
X419790Y47164D01*
X419609Y47103D01*
X419428Y47083D01*
X419327D01*
X419247Y47103D01*
X419045Y47164D01*
X418784Y47264D01*
X418663Y47325D01*
X418502Y47425D01*
X418361Y47526D01*
X418220Y47667D01*
X418059Y47828D01*
X417918Y48009D01*
X417777Y48230D01*
X417656Y48472D01*
Y48492D01*
X417636Y48532D01*
X417596Y48613D01*
X417556Y48734D01*
X417515Y48875D01*
X417455Y49036D01*
X417395Y49237D01*
X417334Y49479D01*
X417274Y49740D01*
X417213Y50022D01*
X417153Y50324D01*
X417113Y50666D01*
X417073Y51029D01*
X417032Y51431D01*
X417012Y51834D01*
Y52277D01*
Y52297D01*
Y52377D01*
Y52498D01*
X417032Y52659D01*
Y52860D01*
X417052Y53102D01*
X417073Y53364D01*
X417093Y53645D01*
X417193Y54249D01*
X417314Y54893D01*
X417475Y55518D01*
X417596Y55819D01*
X417717Y56101D01*
Y56121D01*
X417757Y56162D01*
X417797Y56242D01*
X417837Y56323D01*
X417999Y56564D01*
X418200Y56846D01*
X418462Y57108D01*
X418784Y57349D01*
X418945Y57430D01*
X419126Y57510D01*
X419327Y57551D01*
X419528Y57571D01*
X419629D01*
X419730Y57530D01*
D02*
G37*
G36*
X426493D02*
X426614Y57490D01*
X426775Y57410D01*
X426956Y57289D01*
X427117Y57108D01*
X427299Y56886D01*
X427319Y56846D01*
X427379Y56766D01*
X427460Y56604D01*
X427560Y56403D01*
X427681Y56142D01*
X427802Y55819D01*
X427923Y55437D01*
X428043Y55014D01*
X428204Y57410D01*
X429895Y57410D01*
X428708Y56685D01*
Y48090D01*
Y48069D01*
Y47989D01*
Y47868D01*
Y47707D01*
X428688Y47506D01*
X428667Y47284D01*
Y47023D01*
X428627Y46761D01*
X428567Y46177D01*
X428446Y45573D01*
X428305Y45010D01*
X428204Y44748D01*
X428104Y44506D01*
Y44486D01*
X428084Y44446D01*
X428043Y44386D01*
X428003Y44325D01*
X427862Y44124D01*
X427661Y43903D01*
X427419Y43661D01*
X427138Y43480D01*
X426956Y43399D01*
X426775Y43339D01*
X426574Y43299D01*
X426373Y43279D01*
X426292D01*
X426192Y43299D01*
X426051Y43319D01*
X425910Y43339D01*
X425749Y43399D01*
X425567Y43460D01*
X425406Y43560D01*
X425386Y43580D01*
X425326Y43621D01*
X425245Y43681D01*
X425145Y43762D01*
X425024Y43882D01*
X424903Y44023D01*
X424762Y44184D01*
X424641Y44366D01*
X424098Y43258D01*
Y46620D01*
X424118Y46560D01*
X424158Y46479D01*
X424199Y46358D01*
X424239Y46218D01*
X424299Y46056D01*
X424440Y45694D01*
X424601Y45292D01*
X424762Y44909D01*
X424964Y44547D01*
X425044Y44406D01*
X425145Y44265D01*
X425165Y44245D01*
X425245Y44164D01*
X425346Y44063D01*
X425487Y43943D01*
X425668Y43822D01*
X425889Y43721D01*
X426131Y43641D01*
X426393Y43621D01*
X426433D01*
X426534Y43641D01*
X426675Y43681D01*
X426836Y43742D01*
X427037Y43862D01*
X427218Y44023D01*
X427399Y44265D01*
X427480Y44406D01*
X427540Y44567D01*
Y44587D01*
X427560Y44607D01*
X427580Y44668D01*
X427601Y44748D01*
X427621Y44849D01*
X427641Y44989D01*
X427681Y45151D01*
X427721Y45332D01*
X427741Y45553D01*
X427782Y45815D01*
X427802Y46077D01*
X427822Y46399D01*
X427842Y46741D01*
X427862Y47103D01*
X427882Y47526D01*
Y47969D01*
Y48975D01*
X427862Y48955D01*
X427822Y48834D01*
X427762Y48673D01*
X427661Y48452D01*
X427540Y48210D01*
X427419Y47969D01*
X427279Y47747D01*
X427117Y47546D01*
X427097Y47526D01*
X427037Y47466D01*
X426956Y47405D01*
X426836Y47325D01*
X426695Y47224D01*
X426534Y47164D01*
X426373Y47103D01*
X426171Y47083D01*
X426071D01*
X425990Y47103D01*
X425789Y47164D01*
X425547Y47264D01*
X425406Y47325D01*
X425266Y47425D01*
X425125Y47526D01*
X424984Y47667D01*
X424823Y47828D01*
X424682Y48009D01*
X424541Y48230D01*
X424420Y48472D01*
Y48492D01*
X424400Y48532D01*
X424360Y48613D01*
X424319Y48734D01*
X424279Y48875D01*
X424219Y49036D01*
X424158Y49237D01*
X424098Y49479D01*
X424038Y49740D01*
X423977Y50022D01*
X423917Y50324D01*
X423876Y50666D01*
X423836Y51029D01*
X423796Y51431D01*
X423776Y51834D01*
Y52277D01*
Y52297D01*
Y52377D01*
Y52498D01*
X423796Y52659D01*
Y52860D01*
X423816Y53102D01*
X423836Y53364D01*
X423856Y53645D01*
X423957Y54249D01*
X424078Y54893D01*
X424239Y55518D01*
X424360Y55819D01*
X424480Y56101D01*
Y56121D01*
X424521Y56162D01*
X424561Y56242D01*
X424601Y56323D01*
X424762Y56564D01*
X424964Y56846D01*
X425225Y57108D01*
X425547Y57349D01*
X425708Y57430D01*
X425889Y57510D01*
X426091Y57551D01*
X426292Y57571D01*
X426393D01*
X426493Y57530D01*
D02*
G37*
%LPC*%
G36*
X92716Y170466D02*
X91275Y170276D01*
X89932Y169720D01*
X88779Y168835D01*
X87894Y167681D01*
X87337Y166338D01*
X87148Y164897D01*
X87337Y163455D01*
X87894Y162112D01*
X88779Y160959D01*
X89932Y160074D01*
X91275Y159518D01*
X92716Y159328D01*
X94158Y159518D01*
X95501Y160074D01*
X96654Y160959D01*
X97539Y162112D01*
X98096Y163455D01*
X98285Y164897D01*
X98096Y166338D01*
X97539Y167681D01*
X96654Y168835D01*
X95501Y169720D01*
X94158Y170276D01*
X92716Y170466D01*
D02*
G37*
G36*
X122244Y149263D02*
X121008Y149100D01*
X119857Y148623D01*
X118868Y147864D01*
X118109Y146876D01*
X117632Y145724D01*
X117469Y144488D01*
X117632Y143252D01*
X118109Y142101D01*
X118868Y141112D01*
X119857Y140353D01*
X121008Y139876D01*
X122244Y139714D01*
X123480Y139876D01*
X124631Y140353D01*
X125620Y141112D01*
X126379Y142101D01*
X126856Y143252D01*
X127019Y144488D01*
X126856Y145724D01*
X126379Y146876D01*
X125620Y147864D01*
X124631Y148623D01*
X123480Y149100D01*
X122244Y149263D01*
D02*
G37*
G36*
X92716Y148025D02*
X91275Y147835D01*
X89932Y147279D01*
X88779Y146394D01*
X87894Y145240D01*
X87337Y143897D01*
X87148Y142456D01*
X87337Y141015D01*
X87894Y139671D01*
X88779Y138518D01*
X89932Y137633D01*
X91275Y137077D01*
X92716Y136887D01*
X94158Y137077D01*
X95501Y137633D01*
X96654Y138518D01*
X97539Y139671D01*
X98096Y141015D01*
X98285Y142456D01*
X98096Y143897D01*
X97539Y145240D01*
X96654Y146394D01*
X95501Y147279D01*
X94158Y147835D01*
X92716Y148025D01*
D02*
G37*
G36*
X419549Y57088D02*
X419508D01*
X419428Y57068D01*
X419307Y57027D01*
X419146Y56927D01*
X418965Y56786D01*
X418884Y56685D01*
X418784Y56564D01*
X418703Y56423D01*
X418623Y56262D01*
X418542Y56081D01*
X418462Y55860D01*
Y55840D01*
X418441Y55799D01*
X418421Y55739D01*
X418401Y55638D01*
X418381Y55497D01*
X418361Y55357D01*
X418321Y55155D01*
X418300Y54954D01*
X418260Y54712D01*
X418220Y54431D01*
X418200Y54128D01*
X418180Y53807D01*
X418160Y53444D01*
X418140Y53062D01*
X418119Y52639D01*
Y52196D01*
Y52176D01*
Y52075D01*
Y51955D01*
Y51773D01*
Y51572D01*
X418140Y51331D01*
Y51069D01*
X418160Y50787D01*
X418200Y50203D01*
X418240Y49599D01*
X418280Y49317D01*
X418321Y49056D01*
X418361Y48814D01*
X418421Y48613D01*
Y48593D01*
X418441Y48573D01*
X418482Y48452D01*
X418562Y48291D01*
X418683Y48110D01*
X418824Y47908D01*
X419005Y47747D01*
X419206Y47627D01*
X419347Y47606D01*
X419468Y47586D01*
X419508D01*
X419589Y47606D01*
X419730Y47667D01*
X419911Y47767D01*
X420012Y47828D01*
X420112Y47929D01*
X420213Y48049D01*
X420314Y48190D01*
X420434Y48351D01*
X420535Y48532D01*
X420636Y48754D01*
X420736Y48995D01*
Y49016D01*
X420756Y49056D01*
X420777Y49136D01*
X420817Y49257D01*
X420857Y49398D01*
X420897Y49559D01*
X420958Y49760D01*
X420998Y49982D01*
X421038Y50223D01*
X421099Y50485D01*
X421139Y50787D01*
X421179Y51109D01*
X421219Y51451D01*
X421240Y51793D01*
X421260Y52579D01*
Y52599D01*
Y52659D01*
Y52760D01*
Y52901D01*
X421240Y53062D01*
Y53243D01*
X421219Y53444D01*
X421199Y53686D01*
X421139Y54169D01*
X421038Y54712D01*
X420917Y55256D01*
X420736Y55759D01*
Y55779D01*
X420716Y55819D01*
X420676Y55880D01*
X420636Y55960D01*
X420535Y56182D01*
X420394Y56423D01*
X420213Y56665D01*
X420012Y56886D01*
X419911Y56967D01*
X419790Y57027D01*
X419669Y57068D01*
X419549Y57088D01*
D02*
G37*
G36*
X426332D02*
X426292D01*
X426212Y57068D01*
X426071Y57027D01*
X425910Y56947D01*
X425729Y56786D01*
X425648Y56705D01*
X425547Y56584D01*
X425467Y56444D01*
X425386Y56283D01*
X425306Y56101D01*
X425225Y55880D01*
Y55860D01*
X425205Y55819D01*
X425185Y55759D01*
X425165Y55658D01*
X425145Y55538D01*
X425125Y55377D01*
X425084Y55195D01*
X425064Y54974D01*
X425024Y54732D01*
X424984Y54451D01*
X424964Y54149D01*
X424943Y53827D01*
X424923Y53464D01*
X424903Y53062D01*
X424883Y52659D01*
Y52196D01*
Y52176D01*
Y52075D01*
Y51955D01*
Y51773D01*
Y51572D01*
X424903Y51331D01*
Y51069D01*
X424923Y50787D01*
X424964Y50203D01*
X425004Y49599D01*
X425044Y49317D01*
X425084Y49056D01*
X425125Y48814D01*
X425185Y48613D01*
Y48593D01*
X425205Y48573D01*
X425245Y48452D01*
X425326Y48291D01*
X425447Y48110D01*
X425588Y47908D01*
X425769Y47747D01*
X425970Y47627D01*
X426111Y47606D01*
X426232Y47586D01*
X426272D01*
X426353Y47606D01*
X426493Y47667D01*
X426654Y47767D01*
X426755Y47828D01*
X426856Y47929D01*
X426956Y48049D01*
X427057Y48190D01*
X427178Y48351D01*
X427279Y48532D01*
X427379Y48754D01*
X427480Y48995D01*
Y49016D01*
X427500Y49056D01*
X427520Y49136D01*
X427560Y49257D01*
X427601Y49398D01*
X427641Y49559D01*
X427701Y49760D01*
X427741Y49982D01*
X427782Y50223D01*
X427842Y50485D01*
X427882Y50787D01*
X427923Y51109D01*
X427963Y51451D01*
X427983Y51793D01*
X428003Y52579D01*
Y52599D01*
Y52659D01*
Y52760D01*
Y52881D01*
X427983Y53041D01*
Y53243D01*
X427963Y53444D01*
X427943Y53666D01*
X427882Y54169D01*
X427782Y54712D01*
X427661Y55236D01*
X427480Y55759D01*
Y55779D01*
X427460Y55819D01*
X427419Y55880D01*
X427379Y55960D01*
X427279Y56182D01*
X427138Y56423D01*
X426976Y56665D01*
X426775Y56886D01*
X426675Y56967D01*
X426554Y57027D01*
X426453Y57068D01*
X426332Y57088D01*
D02*
G37*
%LPD*%
D30*
X278345Y94489D02*
D03*
Y102363D02*
D03*
Y55512D02*
D03*
Y63386D02*
D03*
D31*
X296062Y112206D02*
D03*
Y84646D02*
D03*
Y73229D02*
D03*
Y45669D02*
D03*
D32*
X291339Y220472D02*
D03*
X263779D02*
D03*
X330709D02*
D03*
X303149D02*
D03*
X208662D02*
D03*
X181102D02*
D03*
X425198D02*
D03*
X397638D02*
D03*
X248032D02*
D03*
X220472D02*
D03*
D33*
X273622Y202755D02*
D03*
X281496D02*
D03*
X312992D02*
D03*
X320866D02*
D03*
X190945D02*
D03*
X198819D02*
D03*
X407481D02*
D03*
X415355D02*
D03*
X230315D02*
D03*
X238189D02*
D03*
D34*
X321654Y136024D02*
X327559D01*
X308268D02*
X321654D01*
X278346D02*
X308268D01*
X264961Y136024D02*
X278346Y136024D01*
X223622Y136024D02*
X264961D01*
X142126Y160827D02*
X161221Y179921D01*
X142126Y82873D02*
Y160827D01*
Y82873D02*
X161221Y63779D01*
Y50393D02*
Y63779D01*
X405472Y127402D02*
X406693Y126181D01*
X374213Y127402D02*
X405472D01*
X354173Y162638D02*
Y175394D01*
X327559Y136024D02*
X354173Y162638D01*
D35*
X312992Y179921D02*
X317838Y175075D01*
X308465Y175394D02*
X312992Y179921D01*
X308465Y175303D02*
Y175394D01*
X308268Y175107D02*
X308465Y175303D01*
X308268Y175000D02*
Y175107D01*
X317838Y175075D02*
X321578D01*
X321654Y175000D01*
X312992Y179921D02*
Y202755D01*
X273622Y179809D02*
Y183661D01*
Y179809D02*
X278346Y175084D01*
Y175000D02*
Y175084D01*
X273622Y183661D02*
Y202755D01*
X264961Y175000D02*
X273622Y183661D01*
X230315Y181693D02*
X237008Y175000D01*
X230315Y181693D02*
Y202755D01*
X223622Y175000D02*
X230315Y181693D01*
X190945Y179809D02*
X195679Y175075D01*
X199531D01*
X199606Y175000D01*
X190945Y179809D02*
Y202755D01*
X406693Y165157D02*
X420079D01*
X406693D02*
Y165264D01*
X407481Y166052D01*
Y202755D01*
X236024Y96850D02*
Y97441D01*
Y83465D02*
Y96850D01*
X240945Y102363D02*
X278345D01*
X236024Y97441D02*
X240945Y102363D01*
X236024Y50393D02*
Y63779D01*
X236130D01*
X236523Y63386D01*
X278345D01*
D36*
X92520Y209449D02*
X122047D01*
D37*
X99969Y179921D02*
X122244D01*
X94851Y185039D02*
X99969Y179921D01*
X122244Y166535D02*
Y179921D01*
X92716Y59449D02*
X120079D01*
X70276D02*
X92716D01*
X120079D02*
X124016Y55512D01*
D38*
X92520Y187008D02*
X94488Y185039D01*
X94851D01*
D39*
X212598Y114173D02*
D03*
X364173Y222441D02*
D03*
X374016Y59055D02*
D03*
D40*
X308268Y136024D02*
D03*
X186221D02*
D03*
X264961D02*
D03*
X223622D02*
D03*
X406693Y126181D02*
D03*
D41*
X308268Y175000D02*
D03*
X321654D02*
D03*
Y136024D02*
D03*
X186221Y175000D02*
D03*
X199606D02*
D03*
Y136024D02*
D03*
X264961Y175000D02*
D03*
X278346D02*
D03*
Y136024D02*
D03*
X223622Y175000D02*
D03*
X237008D02*
D03*
Y136024D02*
D03*
X161221Y103150D02*
D03*
X122244D02*
D03*
Y89764D02*
D03*
X161221Y63779D02*
D03*
X122244D02*
D03*
Y50393D02*
D03*
X161221Y144488D02*
D03*
X122244D02*
D03*
Y131102D02*
D03*
X161221Y179921D02*
D03*
X122244D02*
D03*
Y166535D02*
D03*
X197047Y83465D02*
D03*
X236024D02*
D03*
Y96850D02*
D03*
X197047Y50393D02*
D03*
X236024D02*
D03*
Y63779D02*
D03*
X420079Y126181D02*
D03*
Y165157D02*
D03*
X406693D02*
D03*
X161221Y216142D02*
D03*
X122244D02*
D03*
Y202756D02*
D03*
D42*
X92716Y209779D02*
D03*
Y187338D02*
D03*
Y164897D02*
D03*
Y142456D02*
D03*
X70276Y209779D02*
D03*
Y187338D02*
D03*
Y164897D02*
D03*
Y142456D02*
D03*
X92716Y104331D02*
D03*
Y81890D02*
D03*
Y59449D02*
D03*
X70276Y104331D02*
D03*
X70472Y81890D02*
D03*
X70276Y59449D02*
D03*
D43*
X161221Y89764D02*
D03*
Y50393D02*
D03*
Y131102D02*
D03*
Y166535D02*
D03*
X197047Y96850D02*
D03*
Y63779D02*
D03*
X161221Y202756D02*
D03*
D44*
X354173Y175394D02*
D03*
X364173D02*
D03*
X374173Y127638D02*
D03*
Y137638D02*
D03*
D45*
Y175394D02*
D03*
D46*
Y147638D02*
D03*
D47*
X59370Y132692D02*
D03*
Y49685D02*
D03*
D48*
X283071Y96064D02*
D03*
Y92914D02*
D03*
X273621D02*
D03*
Y96064D02*
D03*
X279921Y92915D02*
D03*
Y96064D02*
D03*
X276771D02*
D03*
Y92915D02*
D03*
X278345Y94489D02*
D03*
X281495D02*
D03*
X275196D02*
D03*
X273620Y53936D02*
D03*
Y57086D02*
D03*
X283070D02*
D03*
Y53936D02*
D03*
X276770Y57086D02*
D03*
Y53936D02*
D03*
X279920D02*
D03*
Y57086D02*
D03*
X278345Y55512D02*
D03*
X275196D02*
D03*
X281495D02*
D03*
X413779Y207481D02*
D03*
X416929D02*
D03*
Y198031D02*
D03*
X413779D02*
D03*
X416929Y204331D02*
D03*
X413779D02*
D03*
Y201181D02*
D03*
X416929D02*
D03*
X415355Y202755D02*
D03*
Y205905D02*
D03*
Y199606D02*
D03*
X319290Y207481D02*
D03*
X322440D02*
D03*
Y198031D02*
D03*
X319290D02*
D03*
X322440Y204331D02*
D03*
X319290D02*
D03*
Y201181D02*
D03*
X322440D02*
D03*
X320866Y202755D02*
D03*
Y205905D02*
D03*
Y199606D02*
D03*
X279920Y207481D02*
D03*
X283070D02*
D03*
Y198031D02*
D03*
X279920D02*
D03*
X283069Y204331D02*
D03*
X279920D02*
D03*
Y201181D02*
D03*
X283069D02*
D03*
X281496Y202755D02*
D03*
Y205905D02*
D03*
Y199606D02*
D03*
X236614Y207481D02*
D03*
X239764D02*
D03*
Y198031D02*
D03*
X236614D02*
D03*
X239763Y204331D02*
D03*
X236614D02*
D03*
Y201181D02*
D03*
X239763D02*
D03*
X238189Y202755D02*
D03*
Y205905D02*
D03*
Y199606D02*
D03*
X197244Y207481D02*
D03*
X200394D02*
D03*
Y198031D02*
D03*
X197244D02*
D03*
X200393Y204331D02*
D03*
X197244D02*
D03*
Y201181D02*
D03*
X200393D02*
D03*
X198819Y202755D02*
D03*
Y205905D02*
D03*
Y199606D02*
D03*
M02*
