M48
;Layer_Color=9474304
;FILE_FORMAT=2:5
INCH,LZ
;TYPE=PLATED
T1F00S00C0.01181
T2F00S00C0.03937
T3F00S00C0.06299
T4F00S00C0.07087
T5F00S00C0.11811
%
T01
X027362Y0053936
Y0057086
X027677Y0057086
X0275196Y0055512
X027677Y0053936
X027992
Y0057086
X0281495Y0055512
X028307Y0057086
Y0053936
X0278345Y0055512
Y0094489
X0276771Y0092915
X0275196Y0094489
X0273621Y0092914
Y0096064
X0276771Y0096064
X0279921
Y0092915
X0281495Y0094489
X0283071Y0092914
Y0096064
X031929Y0198031
X032244
X0320866Y0199606
X032244Y0201181
X0320866Y0202755
X032244Y0204331
X0320866Y0205905
X031929Y0204331
X031929Y0207481
X032244
X031929Y0201181
X0413779
X0416929
X0415355Y0199606
X0416929Y0198031
X0413779
X0415355Y0202755
X0416929Y0204331
X0415355Y0205905
X0413779Y0204331
X0413779Y0207481
X0416929
X028307
X027992
X027992Y0204331
X0283069
X0281496Y0205905
Y0202755
X0283069Y0201181
X0281496Y0199606
X028307Y0198031
X027992
X027992Y0201181
X0239763
X0238189Y0199606
X0239764Y0198031
X0236614
X0236614Y0201181
Y0204331
X0239763
X0238189Y0205905
Y0202755
X0239764Y0207481
X0236614
X0200394
X0197244
X0197244Y0204331
X0200393
X0198819Y0205905
Y0202755
X0200393Y0201181
X0198819Y0199606
X0200394Y0198031
X0197244
X0197244Y0201181
T02
X0374173Y0127638
Y0137638
Y0147638
Y0175394
X0364173
X0354173
T03
X0122244Y0050393
Y0063779
Y0089764
Y010315
Y0131102
Y0144488
X0161221
Y0131102
Y010315
Y0089764
Y0063779
Y0050393
X0197047
Y0063779
Y0083465
Y009685
X0236024
Y0083465
Y0063779
Y0050393
X0237008Y0136024
X0223622
X0199606
X0186221
X0264961
X0278346
X0308268
X0321654
X0406693Y0126181
X0420079
Y0165157
X0406693
X0321654Y0175
X0308268
X0278346
X0264961
X0237008
X0223622
X0199606
X0186221
X0161221Y0179921
Y0166535
Y0202756
Y0216142
X0122244
Y0202756
Y0179921
Y0166535
T04
X005937Y0049685
X0070276Y0059449
X0092716
Y008189
X0070472
X0070276Y0104331
X0092716
Y0142456
X0070276
X005937Y0132692
X0070276Y0164897
X0092716
Y0187338
X0070276
Y0209779
X0092716
T05
X0212598Y0114173
X0374016Y0059055
X0364173Y0222441
M30
