G04*
G04 #@! TF.GenerationSoftware,Altium Limited,Altium Designer,19.0.14 (431)*
G04*
G04 Layer_Color=65535*
%FSLAX25Y25*%
%MOIN*%
G70*
G01*
G75*
%ADD10C,0.00984*%
%ADD11C,0.01575*%
%ADD12C,0.00787*%
%ADD13C,0.00600*%
%ADD14C,0.00500*%
%ADD15C,0.01000*%
D10*
X299843Y136024D02*
G03*
X299843Y136024I-492J0D01*
G01*
X177795D02*
G03*
X177795Y136024I-492J0D01*
G01*
X256535D02*
G03*
X256535Y136024I-492J0D01*
G01*
X215197D02*
G03*
X215197Y136024I-492J0D01*
G01*
X161713Y80847D02*
G03*
X161713Y80847I-492J0D01*
G01*
Y41476D02*
G03*
X161713Y41476I-492J0D01*
G01*
Y122185D02*
G03*
X161713Y122185I-492J0D01*
G01*
Y157618D02*
G03*
X161713Y157618I-492J0D01*
G01*
X197539Y105768D02*
G03*
X197539Y105768I-492J0D01*
G01*
Y72696D02*
G03*
X197539Y72696I-492J0D01*
G01*
X398268Y126181D02*
G03*
X398268Y126181I-492J0D01*
G01*
X161713Y193839D02*
G03*
X161713Y193839I-492J0D01*
G01*
D11*
X390236Y175394D02*
G03*
X390236Y175394I-787J0D01*
G01*
X374961Y162913D02*
G03*
X374961Y162913I-787J0D01*
G01*
D12*
X301713Y124016D02*
Y187008D01*
X328209Y124016D02*
Y187008D01*
X301713D02*
X328209D01*
X301713Y124016D02*
X328209D01*
X179665D02*
Y187008D01*
X206161Y124016D02*
Y187008D01*
X179665D02*
X206161D01*
X179665Y124016D02*
X206161D01*
X258405D02*
Y187008D01*
X284902Y124016D02*
Y187008D01*
X258405D02*
X284902D01*
X258405Y124016D02*
X284902D01*
X217067D02*
Y187008D01*
X243564Y124016D02*
Y187008D01*
X217067D02*
X243564D01*
X217067Y124016D02*
X243564D01*
X173228Y83209D02*
Y109705D01*
X110236Y83209D02*
Y109705D01*
X173228D01*
X110236Y83209D02*
X173228D01*
Y43838D02*
Y70334D01*
X110236Y43838D02*
Y70334D01*
X173228D01*
X110236Y43838D02*
X173228D01*
Y124547D02*
Y151043D01*
X110236Y124547D02*
Y151043D01*
X173228D01*
X110236Y124547D02*
X173228D01*
Y159980D02*
Y186476D01*
X110236Y159980D02*
Y186476D01*
X173228D01*
X110236Y159980D02*
X173228D01*
X185039Y76910D02*
Y103405D01*
X248031Y76910D02*
Y103405D01*
X185039Y76910D02*
X248031D01*
X185039Y103405D02*
X248031D01*
X185039Y43838D02*
Y70334D01*
X248031Y43838D02*
Y70334D01*
X185039Y43838D02*
X248031D01*
X185039Y70334D02*
X248031D01*
X400138Y114173D02*
X426634D01*
X400138Y177165D02*
X426634D01*
Y114173D02*
Y177165D01*
X400138Y114173D02*
Y177165D01*
X173228Y196201D02*
Y222697D01*
X110236Y196201D02*
Y222697D01*
X173228D01*
X110236Y196201D02*
X173228D01*
D13*
X39685Y127987D02*
Y224247D01*
X107717D01*
Y127987D02*
Y224247D01*
X39685Y127987D02*
X107717D01*
X39685Y44980D02*
Y118799D01*
X107717D01*
Y44980D02*
Y118799D01*
X39685Y44980D02*
X107717D01*
D14*
X341535Y202362D02*
X386811D01*
X341535Y166929D02*
X386811D01*
X341535D02*
Y202362D01*
X386811Y166929D02*
Y202362D01*
X347205Y115000D02*
Y160276D01*
X382638Y115000D02*
Y160276D01*
X347205Y115000D02*
X382638D01*
X347205Y160276D02*
X382638D01*
D15*
X53150Y226772D02*
Y232770D01*
X55149Y230770D01*
X57148Y232770D01*
Y226772D01*
X63146Y232770D02*
X59148D01*
Y229771D01*
X61147D01*
X59148D01*
Y226772D01*
X65146Y225772D02*
X69144D01*
X71144Y231770D02*
X72144Y232770D01*
X74143D01*
X75143Y231770D01*
Y230770D01*
X74143Y229771D01*
X75143Y228771D01*
Y227771D01*
X74143Y226772D01*
X72144D01*
X71144Y227771D01*
Y228771D01*
X72144Y229771D01*
X71144Y230770D01*
Y231770D01*
X72144Y229771D02*
X74143D01*
X350416Y112140D02*
X348417Y111140D01*
X346417Y109141D01*
Y107141D01*
X347417Y106142D01*
X349416D01*
X350416Y107141D01*
Y108141D01*
X349416Y109141D01*
X346417D01*
X352415Y106142D02*
Y107141D01*
X353415D01*
Y106142D01*
X352415D01*
X361413Y112140D02*
X357414D01*
Y109141D01*
X359413Y110141D01*
X360413D01*
X361413Y109141D01*
Y107141D01*
X360413Y106142D01*
X358413D01*
X357414Y107141D01*
X363412Y112140D02*
Y108141D01*
X365411Y106142D01*
X367410Y108141D01*
Y112140D01*
X375408D02*
Y106142D01*
X378407D01*
X379407Y107141D01*
Y111140D01*
X378407Y112140D01*
X375408D01*
X385405Y111140D02*
X384405Y112140D01*
X382406D01*
X381406Y111140D01*
Y107141D01*
X382406Y106142D01*
X384405D01*
X385405Y107141D01*
X353605Y211904D02*
X349606D01*
Y208905D01*
X351606Y209904D01*
X352605D01*
X353605Y208905D01*
Y206905D01*
X352605Y205906D01*
X350606D01*
X349606Y206905D01*
X355604Y211904D02*
Y207905D01*
X357604Y205906D01*
X359603Y207905D01*
Y211904D01*
X367600D02*
Y205906D01*
X370600D01*
X371599Y206905D01*
Y210904D01*
X370600Y211904D01*
X367600D01*
X377597Y210904D02*
X376598Y211904D01*
X374598D01*
X373599Y210904D01*
Y206905D01*
X374598Y205906D01*
X376598D01*
X377597Y206905D01*
X55512Y120866D02*
Y126864D01*
X57511Y124865D01*
X59510Y126864D01*
Y120866D01*
X65509Y126864D02*
X61510D01*
Y123865D01*
X63509D01*
X61510D01*
Y120866D01*
X67508Y119867D02*
X71507D01*
X77505Y126864D02*
X75505Y125865D01*
X73506Y123865D01*
Y121866D01*
X74506Y120866D01*
X76505D01*
X77505Y121866D01*
Y122865D01*
X76505Y123865D01*
X73506D01*
X173819Y112309D02*
Y118307D01*
X170820D01*
X169820Y117307D01*
Y116308D01*
X170820Y115308D01*
X173819D01*
X170820D01*
X169820Y114308D01*
Y113309D01*
X170820Y112309D01*
X173819D01*
X166821Y114308D02*
X164822D01*
X163822Y115308D01*
Y118307D01*
X166821D01*
X167821Y117307D01*
X166821Y116308D01*
X163822D01*
X160823Y113309D02*
Y114308D01*
X161823D01*
X159823D01*
X160823D01*
Y117307D01*
X159823Y118307D01*
X155825Y113309D02*
Y114308D01*
X156824D01*
X154825D01*
X155825D01*
Y117307D01*
X154825Y118307D01*
X148827D02*
X150826D01*
X151826Y117307D01*
Y115308D01*
X150826Y114308D01*
X148827D01*
X147827Y115308D01*
Y116308D01*
X151826D01*
X145828Y114308D02*
Y118307D01*
Y116308D01*
X144828Y115308D01*
X143829Y114308D01*
X142829D01*
X139830D02*
Y117307D01*
X138830Y118307D01*
X135831D01*
Y119307D01*
X136831Y120306D01*
X137830D01*
X135831Y118307D02*
Y114308D01*
X172835Y78936D02*
Y74938D01*
X170835Y72939D01*
X168836Y74938D01*
Y78936D01*
Y75937D01*
X172835D01*
X166837Y78936D02*
X164837D01*
X165837D01*
Y74938D01*
X166837D01*
X161838D02*
Y78936D01*
Y76937D01*
X160838Y75937D01*
X159839Y74938D01*
X158839D01*
X145843Y73938D02*
X146843Y72939D01*
X148842D01*
X149842Y73938D01*
Y74938D01*
X148842Y75937D01*
X146843D01*
X145843Y76937D01*
Y77937D01*
X146843Y78936D01*
X148842D01*
X149842Y77937D01*
X142844Y73938D02*
Y74938D01*
X143844D01*
X141845D01*
X142844D01*
Y77937D01*
X141845Y78936D01*
X137846Y74938D02*
X135847D01*
X134847Y75937D01*
Y78936D01*
X137846D01*
X138846Y77937D01*
X137846Y76937D01*
X134847D01*
X132848Y74938D02*
Y78936D01*
Y76937D01*
X131848Y75937D01*
X130848Y74938D01*
X129849D01*
X125850Y73938D02*
Y74938D01*
X126849D01*
X124850D01*
X125850D01*
Y77937D01*
X124850Y78936D01*
X172835Y153648D02*
Y159646D01*
X169836D01*
X168836Y158646D01*
Y154647D01*
X169836Y153648D01*
X172835D01*
X162838Y154647D02*
X163838Y153648D01*
X165837D01*
X166837Y154647D01*
Y158646D01*
X165837Y159646D01*
X163838D01*
X162838Y158646D01*
X160838Y159646D02*
X156840Y155647D01*
X154841Y153648D02*
Y159646D01*
X151841D01*
X150842Y158646D01*
Y154647D01*
X151841Y153648D01*
X154841D01*
X144844Y154647D02*
X145843Y153648D01*
X147843D01*
X148842Y154647D01*
Y158646D01*
X147843Y159646D01*
X145843D01*
X144844Y158646D01*
X173622Y193307D02*
Y187309D01*
X170623D01*
X169623Y188309D01*
Y190308D01*
X170623Y191308D01*
X173622D01*
X167624Y189308D02*
Y192307D01*
X166624Y193307D01*
X163625D01*
Y189308D01*
X161626Y193307D02*
Y189308D01*
X160626D01*
X159627Y190308D01*
Y193307D01*
Y190308D01*
X158627Y189308D01*
X157627Y190308D01*
Y193307D01*
X155628Y195306D02*
Y189308D01*
X152629D01*
X151629Y190308D01*
Y192307D01*
X152629Y193307D01*
X155628D01*
X173425Y231299D02*
Y227301D01*
X171426Y225301D01*
X169427Y227301D01*
Y231299D01*
Y228300D01*
X173425D01*
X163428Y227301D02*
X166427D01*
X167427Y228300D01*
Y230299D01*
X166427Y231299D01*
X163428D01*
X157430Y227301D02*
X160429D01*
X161429Y228300D01*
Y230299D01*
X160429Y231299D01*
X157430D01*
X155431Y227301D02*
Y230299D01*
X154431Y231299D01*
X151432D01*
Y227301D01*
X149433Y231299D02*
Y227301D01*
X148433D01*
X147434Y228300D01*
Y231299D01*
Y228300D01*
X146434Y227301D01*
X145434Y228300D01*
Y231299D01*
X143435Y227301D02*
Y230299D01*
X142435Y231299D01*
X139436D01*
Y227301D01*
X137437Y231299D02*
X135438D01*
X136437D01*
Y225301D01*
X137437D01*
X131439Y227301D02*
X129439D01*
X128440Y228300D01*
Y231299D01*
X131439D01*
X132438Y230299D01*
X131439Y229300D01*
X128440D01*
X125441Y226301D02*
Y227301D01*
X126440D01*
X124441D01*
X125441D01*
Y230299D01*
X124441Y231299D01*
X120442D02*
X118443D01*
X117443Y230299D01*
Y228300D01*
X118443Y227301D01*
X120442D01*
X121442Y228300D01*
Y230299D01*
X120442Y231299D01*
X115444Y227301D02*
Y231299D01*
Y229300D01*
X114444Y228300D01*
X113445Y227301D01*
X112445D01*
X311810Y94489D02*
Y100487D01*
X314809D01*
X315808Y99487D01*
Y97488D01*
X314809Y96488D01*
X311810D01*
X313809D02*
X315808Y94489D01*
X317808D02*
X319807D01*
X318807D01*
Y98487D01*
X317808D01*
X322806Y94489D02*
Y98487D01*
X325805D01*
X326805Y97488D01*
Y94489D01*
X331803D02*
X329804D01*
X328804Y95488D01*
Y97488D01*
X329804Y98487D01*
X331803D01*
X332803Y97488D01*
Y96488D01*
X328804D01*
X334802Y100487D02*
Y94489D01*
Y97488D01*
X335802Y98487D01*
X337801D01*
X338801Y97488D01*
Y94489D01*
X341800Y98487D02*
X343799D01*
X344799Y97488D01*
Y94489D01*
X341800D01*
X340800Y95488D01*
X341800Y96488D01*
X344799D01*
X346798Y98487D02*
Y94489D01*
Y96488D01*
X347798Y97488D01*
X348798Y98487D01*
X349797D01*
X353796Y99487D02*
Y98487D01*
X352796D01*
X354796D01*
X353796D01*
Y95488D01*
X354796Y94489D01*
X316990Y63084D02*
X312992D01*
Y57086D01*
X316990D01*
X312992Y60085D02*
X314991D01*
X318990D02*
X322988D01*
X324988Y57086D02*
Y63084D01*
X326987Y61085D01*
X328987Y63084D01*
Y57086D01*
X333985D02*
X331985D01*
X330986Y58086D01*
Y60085D01*
X331985Y61085D01*
X333985D01*
X334984Y60085D01*
Y59086D01*
X330986D01*
X337984Y62085D02*
Y61085D01*
X336984D01*
X338983D01*
X337984D01*
Y58086D01*
X338983Y57086D01*
X344981D02*
X342982D01*
X341982Y58086D01*
Y60085D01*
X342982Y61085D01*
X344981D01*
X345981Y60085D01*
Y59086D01*
X341982D01*
X347980Y61085D02*
Y57086D01*
Y59086D01*
X348980Y60085D01*
X349980Y61085D01*
X350979D01*
X398261Y192435D02*
X397261Y193435D01*
X395262D01*
X394262Y192435D01*
Y188437D01*
X395262Y187437D01*
X397261D01*
X398261Y188437D01*
X401260Y187437D02*
X403260D01*
X404259Y188437D01*
Y190436D01*
X403260Y191436D01*
X401260D01*
X400260Y190436D01*
Y188437D01*
X401260Y187437D01*
X406258Y191436D02*
Y187437D01*
Y189436D01*
X407258Y190436D01*
X408258Y191436D01*
X409258D01*
X412256Y187437D02*
Y191436D01*
X415256D01*
X416255Y190436D01*
Y187437D01*
X421254D02*
X419254D01*
X418255Y188437D01*
Y190436D01*
X419254Y191436D01*
X421254D01*
X422253Y190436D01*
Y189436D01*
X418255D01*
X424253Y191436D02*
Y187437D01*
Y189436D01*
X425252Y190436D01*
X426252Y191436D01*
X427252D01*
X181760Y192404D02*
X180760Y193404D01*
X178761D01*
X177761Y192404D01*
Y191404D01*
X178761Y190404D01*
X180760D01*
X181760Y189405D01*
Y188405D01*
X180760Y187406D01*
X178761D01*
X177761Y188405D01*
X184758Y191404D02*
X186758D01*
X187758Y190404D01*
Y187406D01*
X184758D01*
X183759Y188405D01*
X184758Y189405D01*
X187758D01*
X190757Y187406D02*
Y192404D01*
Y190404D01*
X189757D01*
X191756D01*
X190757D01*
Y192404D01*
X191756Y193404D01*
X197754Y187406D02*
X195755D01*
X194755Y188405D01*
Y190404D01*
X195755Y191404D01*
X197754D01*
X198754Y190404D01*
Y189405D01*
X194755D01*
X201753Y192404D02*
Y191404D01*
X200753D01*
X202753D01*
X201753D01*
Y188405D01*
X202753Y187406D01*
X205752Y191404D02*
Y188405D01*
X206751Y187406D01*
X209750D01*
Y186406D01*
X208751Y185406D01*
X207751D01*
X209750Y187406D02*
Y191404D01*
X260479Y187421D02*
Y193419D01*
X263478D01*
X264478Y192420D01*
Y190420D01*
X263478Y189421D01*
X260479D01*
X266478Y193419D02*
Y187421D01*
Y190420D01*
X267477Y191420D01*
X269477D01*
X270476Y190420D01*
Y187421D01*
X273475D02*
X275475D01*
X276474Y188421D01*
Y190420D01*
X275475Y191420D01*
X273475D01*
X272476Y190420D01*
Y188421D01*
X273475Y187421D01*
X278474D02*
Y191420D01*
X281473D01*
X282472Y190420D01*
Y187421D01*
X287471D02*
X285471D01*
X284472Y188421D01*
Y190420D01*
X285471Y191420D01*
X287471D01*
X288471Y190420D01*
Y189421D01*
X284472D01*
X217182Y193488D02*
Y187490D01*
X220181D01*
X221181Y188489D01*
Y192488D01*
X220181Y193488D01*
X217182D01*
X224180Y191489D02*
X226179D01*
X227179Y190489D01*
Y187490D01*
X224180D01*
X223180Y188489D01*
X224180Y189489D01*
X227179D01*
X229178Y187490D02*
X232177D01*
X233177Y188489D01*
X232177Y189489D01*
X230178D01*
X229178Y190489D01*
X230178Y191489D01*
X233177D01*
X235176Y193488D02*
Y187490D01*
Y190489D01*
X236176Y191489D01*
X238175D01*
X239175Y190489D01*
Y187490D01*
X303825Y192420D02*
X302826Y193419D01*
X300827D01*
X299827Y192420D01*
Y188421D01*
X300827Y187421D01*
X302826D01*
X303825Y188421D01*
X308824Y187421D02*
X306824D01*
X305825Y188421D01*
Y190420D01*
X306824Y191420D01*
X308824D01*
X309823Y190420D01*
Y189421D01*
X305825D01*
X311823Y187421D02*
Y191420D01*
X314822D01*
X315822Y190420D01*
Y187421D01*
X318821Y192420D02*
Y191420D01*
X317821D01*
X319820D01*
X318821D01*
Y188421D01*
X319820Y187421D01*
X322819Y191420D02*
Y187421D01*
Y189421D01*
X323819Y190420D01*
X324819Y191420D01*
X325818D01*
X329817D02*
X331816D01*
X332816Y190420D01*
Y187421D01*
X329817D01*
X328817Y188421D01*
X329817Y189421D01*
X332816D01*
X334816Y187421D02*
X336815D01*
X335815D01*
Y193419D01*
X334816D01*
M02*
